%TF.GenerationSoftware,KiCad,Pcbnew,(5.1.10)-1*%
%TF.CreationDate,2023-09-11T18:35:05-05:00*%
%TF.ProjectId,perovskite_contact_board,7065726f-7673-46b6-9974-655f636f6e74,V3*%
%TF.SameCoordinates,Original*%
%TF.FileFunction,Soldermask,Top*%
%TF.FilePolarity,Negative*%
%FSLAX46Y46*%
G04 Gerber Fmt 4.6, Leading zero omitted, Abs format (unit mm)*
G04 Created by KiCad (PCBNEW (5.1.10)-1) date 2023-09-11 18:35:05*
%MOMM*%
%LPD*%
G01*
G04 APERTURE LIST*
%ADD10R,0.350000X0.500000*%
%ADD11R,4.000000X4.000000*%
%ADD12R,3.800000X7.400000*%
%ADD13C,2.000000*%
%ADD14C,0.152400*%
%ADD15C,0.100000*%
G04 APERTURE END LIST*
D10*
%TO.C,U7*%
X158963000Y-88451800D03*
X158313000Y-88451800D03*
X157663000Y-88451800D03*
X157013000Y-88451800D03*
X157013000Y-86401800D03*
X157663000Y-86401800D03*
X158313000Y-86401800D03*
X158963000Y-86401800D03*
%TD*%
%TO.C,C2*%
G36*
G01*
X156912500Y-90863300D02*
X157412500Y-90863300D01*
G75*
G02*
X157637500Y-91088300I0J-225000D01*
G01*
X157637500Y-91538300D01*
G75*
G02*
X157412500Y-91763300I-225000J0D01*
G01*
X156912500Y-91763300D01*
G75*
G02*
X156687500Y-91538300I0J225000D01*
G01*
X156687500Y-91088300D01*
G75*
G02*
X156912500Y-90863300I225000J0D01*
G01*
G37*
G36*
G01*
X156912500Y-89313300D02*
X157412500Y-89313300D01*
G75*
G02*
X157637500Y-89538300I0J-225000D01*
G01*
X157637500Y-89988300D01*
G75*
G02*
X157412500Y-90213300I-225000J0D01*
G01*
X156912500Y-90213300D01*
G75*
G02*
X156687500Y-89988300I0J225000D01*
G01*
X156687500Y-89538300D01*
G75*
G02*
X156912500Y-89313300I225000J0D01*
G01*
G37*
%TD*%
%TO.C,C1*%
G36*
G01*
X158436500Y-90863300D02*
X158936500Y-90863300D01*
G75*
G02*
X159161500Y-91088300I0J-225000D01*
G01*
X159161500Y-91538300D01*
G75*
G02*
X158936500Y-91763300I-225000J0D01*
G01*
X158436500Y-91763300D01*
G75*
G02*
X158211500Y-91538300I0J225000D01*
G01*
X158211500Y-91088300D01*
G75*
G02*
X158436500Y-90863300I225000J0D01*
G01*
G37*
G36*
G01*
X158436500Y-89313300D02*
X158936500Y-89313300D01*
G75*
G02*
X159161500Y-89538300I0J-225000D01*
G01*
X159161500Y-89988300D01*
G75*
G02*
X158936500Y-90213300I-225000J0D01*
G01*
X158436500Y-90213300D01*
G75*
G02*
X158211500Y-89988300I0J225000D01*
G01*
X158211500Y-89538300D01*
G75*
G02*
X158436500Y-89313300I225000J0D01*
G01*
G37*
%TD*%
D11*
%TO.C,U3*%
X162577500Y-100463000D03*
X162577500Y-120663000D03*
X173177500Y-110763000D03*
X152877500Y-110713000D03*
D12*
X173377500Y-118913000D03*
X173377500Y-102463000D03*
X152777500Y-102463000D03*
X152777500Y-118913000D03*
%TD*%
D13*
%TO.C,JP103.8*%
X156768800Y-76352400D03*
%TD*%
%TO.C,JP103.11*%
X158496000Y-73863200D03*
%TD*%
D11*
%TO.C,U2*%
X136479000Y-100263000D03*
X136479000Y-120463000D03*
X147079000Y-110563000D03*
X126779000Y-110513000D03*
D12*
X147279000Y-118713000D03*
X147279000Y-102263000D03*
X126679000Y-102263000D03*
X126679000Y-118713000D03*
%TD*%
D13*
%TO.C,JP103.2*%
X157886400Y-79806800D03*
%TD*%
%TO.C,JP103.1*%
X157022800Y-83515200D03*
%TD*%
D11*
%TO.C,U1*%
X162514000Y-74260000D03*
X162514000Y-94460000D03*
X173114000Y-84560000D03*
X152814000Y-84510000D03*
D12*
X173314000Y-92710000D03*
X173314000Y-76260000D03*
X152714000Y-76260000D03*
X152714000Y-92710000D03*
%TD*%
D14*
X175199451Y-70898868D02*
X175428324Y-70953816D01*
X175645785Y-71043891D01*
X175846477Y-71166876D01*
X176025459Y-71319741D01*
X176178324Y-71498723D01*
X176301309Y-71699415D01*
X176391384Y-71916876D01*
X176446332Y-72145749D01*
X176464799Y-72380401D01*
X176464799Y-122580400D01*
X176446332Y-122815052D01*
X176391384Y-123043925D01*
X176301309Y-123261386D01*
X176178324Y-123462078D01*
X176025459Y-123641060D01*
X175846477Y-123793925D01*
X175645785Y-123916910D01*
X175428324Y-124006985D01*
X175199451Y-124061933D01*
X174964799Y-124080400D01*
X124764800Y-124080400D01*
X124530148Y-124061933D01*
X124301275Y-124006985D01*
X124083814Y-123916910D01*
X123883122Y-123793925D01*
X123704140Y-123641060D01*
X123551275Y-123462078D01*
X123428290Y-123261386D01*
X123338215Y-123043925D01*
X123283267Y-122815052D01*
X123264800Y-122580400D01*
X123264800Y-116780400D01*
X160864800Y-116780400D01*
X160884858Y-116958417D01*
X160944025Y-117127507D01*
X161039335Y-117279192D01*
X161166008Y-117405865D01*
X161317693Y-117501175D01*
X161486783Y-117560342D01*
X161664800Y-117580400D01*
X161842817Y-117560342D01*
X162011907Y-117501175D01*
X162163592Y-117405865D01*
X162290265Y-117279192D01*
X162385575Y-117127507D01*
X162444742Y-116958417D01*
X162464800Y-116780400D01*
X162444742Y-116602383D01*
X162385575Y-116433293D01*
X162290265Y-116281608D01*
X162163592Y-116154935D01*
X162011907Y-116059625D01*
X161842817Y-116000458D01*
X161664800Y-115980400D01*
X161486783Y-116000458D01*
X161317693Y-116059625D01*
X161166008Y-116154935D01*
X161039335Y-116281608D01*
X160944025Y-116433293D01*
X160884858Y-116602383D01*
X160864800Y-116780400D01*
X123264800Y-116780400D01*
X123264800Y-115530400D01*
X163364800Y-115530400D01*
X163384858Y-115708417D01*
X163444025Y-115877507D01*
X163539335Y-116029192D01*
X163666008Y-116155865D01*
X163817693Y-116251175D01*
X163986783Y-116310342D01*
X164164800Y-116330400D01*
X164342817Y-116310342D01*
X164511907Y-116251175D01*
X164663592Y-116155865D01*
X164790265Y-116029192D01*
X164885575Y-115877507D01*
X164944742Y-115708417D01*
X164964800Y-115530400D01*
X164944742Y-115352383D01*
X164885575Y-115183293D01*
X164790265Y-115031608D01*
X164663592Y-114904935D01*
X164511907Y-114809625D01*
X164342817Y-114750458D01*
X164164800Y-114730400D01*
X163986783Y-114750458D01*
X163817693Y-114809625D01*
X163666008Y-114904935D01*
X163539335Y-115031608D01*
X163444025Y-115183293D01*
X163384858Y-115352383D01*
X163364800Y-115530400D01*
X123264800Y-115530400D01*
X123264800Y-114280400D01*
X160864800Y-114280400D01*
X160884858Y-114458417D01*
X160944025Y-114627507D01*
X161039335Y-114779192D01*
X161166008Y-114905865D01*
X161317693Y-115001175D01*
X161486783Y-115060342D01*
X161664800Y-115080400D01*
X161842817Y-115060342D01*
X162011907Y-115001175D01*
X162163592Y-114905865D01*
X162290265Y-114779192D01*
X162385575Y-114627507D01*
X162444742Y-114458417D01*
X162464800Y-114280400D01*
X162444742Y-114102383D01*
X162385575Y-113933293D01*
X162290265Y-113781608D01*
X162163592Y-113654935D01*
X162011907Y-113559625D01*
X161842817Y-113500458D01*
X161664800Y-113480400D01*
X161486783Y-113500458D01*
X161317693Y-113559625D01*
X161166008Y-113654935D01*
X161039335Y-113781608D01*
X160944025Y-113933293D01*
X160884858Y-114102383D01*
X160864800Y-114280400D01*
X123264800Y-114280400D01*
X123264800Y-113030400D01*
X163364800Y-113030400D01*
X163384858Y-113208417D01*
X163444025Y-113377507D01*
X163539335Y-113529192D01*
X163666008Y-113655865D01*
X163817693Y-113751175D01*
X163986783Y-113810342D01*
X164164800Y-113830400D01*
X164342817Y-113810342D01*
X164511907Y-113751175D01*
X164663592Y-113655865D01*
X164790265Y-113529192D01*
X164885575Y-113377507D01*
X164944742Y-113208417D01*
X164964800Y-113030400D01*
X164944742Y-112852383D01*
X164885575Y-112683293D01*
X164790265Y-112531608D01*
X164663592Y-112404935D01*
X164511907Y-112309625D01*
X164342817Y-112250458D01*
X164164800Y-112230400D01*
X163986783Y-112250458D01*
X163817693Y-112309625D01*
X163666008Y-112404935D01*
X163539335Y-112531608D01*
X163444025Y-112683293D01*
X163384858Y-112852383D01*
X163364800Y-113030400D01*
X123264800Y-113030400D01*
X123264800Y-111780401D01*
X130514800Y-111780401D01*
X130534858Y-111958418D01*
X130594025Y-112127508D01*
X130689335Y-112279193D01*
X130816008Y-112405866D01*
X130967693Y-112501176D01*
X131136783Y-112560343D01*
X131314800Y-112580401D01*
X131492817Y-112560343D01*
X131661907Y-112501176D01*
X131813592Y-112405866D01*
X131940265Y-112279193D01*
X132035575Y-112127508D01*
X132094742Y-111958418D01*
X132114800Y-111780401D01*
X133014800Y-111780401D01*
X133034858Y-111958418D01*
X133094025Y-112127508D01*
X133189335Y-112279193D01*
X133316008Y-112405866D01*
X133467693Y-112501176D01*
X133636783Y-112560343D01*
X133814800Y-112580401D01*
X133992817Y-112560343D01*
X134161907Y-112501176D01*
X134313592Y-112405866D01*
X134440265Y-112279193D01*
X134535575Y-112127508D01*
X134594742Y-111958418D01*
X134614800Y-111780401D01*
X135514800Y-111780401D01*
X135534858Y-111958418D01*
X135594025Y-112127508D01*
X135689335Y-112279193D01*
X135816008Y-112405866D01*
X135967693Y-112501176D01*
X136136783Y-112560343D01*
X136314800Y-112580401D01*
X136492817Y-112560343D01*
X136661907Y-112501176D01*
X136813592Y-112405866D01*
X136940265Y-112279193D01*
X137035575Y-112127508D01*
X137094742Y-111958418D01*
X137114800Y-111780401D01*
X138014800Y-111780401D01*
X138034858Y-111958418D01*
X138094025Y-112127508D01*
X138189335Y-112279193D01*
X138316008Y-112405866D01*
X138467693Y-112501176D01*
X138636783Y-112560343D01*
X138814800Y-112580401D01*
X138992817Y-112560343D01*
X139161907Y-112501176D01*
X139313592Y-112405866D01*
X139440265Y-112279193D01*
X139535575Y-112127508D01*
X139594742Y-111958418D01*
X139614800Y-111780401D01*
X140514800Y-111780401D01*
X140534858Y-111958418D01*
X140594025Y-112127508D01*
X140689335Y-112279193D01*
X140816008Y-112405866D01*
X140967693Y-112501176D01*
X141136783Y-112560343D01*
X141314800Y-112580401D01*
X141492817Y-112560343D01*
X141661907Y-112501176D01*
X141813592Y-112405866D01*
X141940265Y-112279193D01*
X142035575Y-112127508D01*
X142094742Y-111958418D01*
X142114800Y-111780401D01*
X160864800Y-111780401D01*
X160884858Y-111958418D01*
X160944025Y-112127508D01*
X161039335Y-112279193D01*
X161166008Y-112405866D01*
X161317693Y-112501176D01*
X161486783Y-112560343D01*
X161664800Y-112580401D01*
X161842817Y-112560343D01*
X162011907Y-112501176D01*
X162163592Y-112405866D01*
X162290265Y-112279193D01*
X162385575Y-112127508D01*
X162444742Y-111958418D01*
X162464800Y-111780401D01*
X162444742Y-111602384D01*
X162385575Y-111433294D01*
X162290265Y-111281609D01*
X162163592Y-111154936D01*
X162011907Y-111059626D01*
X161842817Y-111000459D01*
X161664800Y-110980401D01*
X161486783Y-111000459D01*
X161317693Y-111059626D01*
X161166008Y-111154936D01*
X161039335Y-111281609D01*
X160944025Y-111433294D01*
X160884858Y-111602384D01*
X160864800Y-111780401D01*
X142114800Y-111780401D01*
X142094742Y-111602384D01*
X142035575Y-111433294D01*
X141940265Y-111281609D01*
X141813592Y-111154936D01*
X141661907Y-111059626D01*
X141492817Y-111000459D01*
X141314800Y-110980401D01*
X141136783Y-111000459D01*
X140967693Y-111059626D01*
X140816008Y-111154936D01*
X140689335Y-111281609D01*
X140594025Y-111433294D01*
X140534858Y-111602384D01*
X140514800Y-111780401D01*
X139614800Y-111780401D01*
X139594742Y-111602384D01*
X139535575Y-111433294D01*
X139440265Y-111281609D01*
X139313592Y-111154936D01*
X139161907Y-111059626D01*
X138992817Y-111000459D01*
X138814800Y-110980401D01*
X138636783Y-111000459D01*
X138467693Y-111059626D01*
X138316008Y-111154936D01*
X138189335Y-111281609D01*
X138094025Y-111433294D01*
X138034858Y-111602384D01*
X138014800Y-111780401D01*
X137114800Y-111780401D01*
X137094742Y-111602384D01*
X137035575Y-111433294D01*
X136940265Y-111281609D01*
X136813592Y-111154936D01*
X136661907Y-111059626D01*
X136492817Y-111000459D01*
X136314800Y-110980401D01*
X136136783Y-111000459D01*
X135967693Y-111059626D01*
X135816008Y-111154936D01*
X135689335Y-111281609D01*
X135594025Y-111433294D01*
X135534858Y-111602384D01*
X135514800Y-111780401D01*
X134614800Y-111780401D01*
X134594742Y-111602384D01*
X134535575Y-111433294D01*
X134440265Y-111281609D01*
X134313592Y-111154936D01*
X134161907Y-111059626D01*
X133992817Y-111000459D01*
X133814800Y-110980401D01*
X133636783Y-111000459D01*
X133467693Y-111059626D01*
X133316008Y-111154936D01*
X133189335Y-111281609D01*
X133094025Y-111433294D01*
X133034858Y-111602384D01*
X133014800Y-111780401D01*
X132114800Y-111780401D01*
X132094742Y-111602384D01*
X132035575Y-111433294D01*
X131940265Y-111281609D01*
X131813592Y-111154936D01*
X131661907Y-111059626D01*
X131492817Y-111000459D01*
X131314800Y-110980401D01*
X131136783Y-111000459D01*
X130967693Y-111059626D01*
X130816008Y-111154936D01*
X130689335Y-111281609D01*
X130594025Y-111433294D01*
X130534858Y-111602384D01*
X130514800Y-111780401D01*
X123264800Y-111780401D01*
X123264800Y-110530401D01*
X163364800Y-110530401D01*
X163384858Y-110708418D01*
X163444025Y-110877508D01*
X163539335Y-111029193D01*
X163666008Y-111155866D01*
X163817693Y-111251176D01*
X163986783Y-111310343D01*
X164164800Y-111330401D01*
X164342817Y-111310343D01*
X164511907Y-111251176D01*
X164663592Y-111155866D01*
X164790265Y-111029193D01*
X164885575Y-110877508D01*
X164944742Y-110708418D01*
X164964800Y-110530401D01*
X164944742Y-110352384D01*
X164885575Y-110183294D01*
X164790265Y-110031609D01*
X164663592Y-109904936D01*
X164511907Y-109809626D01*
X164342817Y-109750459D01*
X164164800Y-109730401D01*
X163986783Y-109750459D01*
X163817693Y-109809626D01*
X163666008Y-109904936D01*
X163539335Y-110031609D01*
X163444025Y-110183294D01*
X163384858Y-110352384D01*
X163364800Y-110530401D01*
X123264800Y-110530401D01*
X123264800Y-109280401D01*
X129264800Y-109280401D01*
X129284858Y-109458418D01*
X129344025Y-109627508D01*
X129439335Y-109779193D01*
X129566008Y-109905866D01*
X129717693Y-110001176D01*
X129886783Y-110060343D01*
X130064800Y-110080401D01*
X130242817Y-110060343D01*
X130411907Y-110001176D01*
X130563592Y-109905866D01*
X130690265Y-109779193D01*
X130785575Y-109627508D01*
X130844742Y-109458418D01*
X130864800Y-109280401D01*
X131764800Y-109280401D01*
X131784858Y-109458418D01*
X131844025Y-109627508D01*
X131939335Y-109779193D01*
X132066008Y-109905866D01*
X132217693Y-110001176D01*
X132386783Y-110060343D01*
X132564800Y-110080401D01*
X132742817Y-110060343D01*
X132911907Y-110001176D01*
X133063592Y-109905866D01*
X133190265Y-109779193D01*
X133285575Y-109627508D01*
X133344742Y-109458418D01*
X133364800Y-109280401D01*
X134264800Y-109280401D01*
X134284858Y-109458418D01*
X134344025Y-109627508D01*
X134439335Y-109779193D01*
X134566008Y-109905866D01*
X134717693Y-110001176D01*
X134886783Y-110060343D01*
X135064800Y-110080401D01*
X135242817Y-110060343D01*
X135411907Y-110001176D01*
X135563592Y-109905866D01*
X135690265Y-109779193D01*
X135785575Y-109627508D01*
X135844742Y-109458418D01*
X135864800Y-109280401D01*
X136764800Y-109280401D01*
X136784858Y-109458418D01*
X136844025Y-109627508D01*
X136939335Y-109779193D01*
X137066008Y-109905866D01*
X137217693Y-110001176D01*
X137386783Y-110060343D01*
X137564800Y-110080401D01*
X137742817Y-110060343D01*
X137911907Y-110001176D01*
X138063592Y-109905866D01*
X138190265Y-109779193D01*
X138285575Y-109627508D01*
X138344742Y-109458418D01*
X138364800Y-109280401D01*
X139264800Y-109280401D01*
X139284858Y-109458418D01*
X139344025Y-109627508D01*
X139439335Y-109779193D01*
X139566008Y-109905866D01*
X139717693Y-110001176D01*
X139886783Y-110060343D01*
X140064800Y-110080401D01*
X140242817Y-110060343D01*
X140411907Y-110001176D01*
X140563592Y-109905866D01*
X140690265Y-109779193D01*
X140785575Y-109627508D01*
X140844742Y-109458418D01*
X140864800Y-109280401D01*
X141764800Y-109280401D01*
X141784858Y-109458418D01*
X141844025Y-109627508D01*
X141939335Y-109779193D01*
X142066008Y-109905866D01*
X142217693Y-110001176D01*
X142386783Y-110060343D01*
X142564800Y-110080401D01*
X142742817Y-110060343D01*
X142911907Y-110001176D01*
X143063592Y-109905866D01*
X143190265Y-109779193D01*
X143285575Y-109627508D01*
X143344742Y-109458418D01*
X143364800Y-109280401D01*
X160864800Y-109280401D01*
X160884858Y-109458418D01*
X160944025Y-109627508D01*
X161039335Y-109779193D01*
X161166008Y-109905866D01*
X161317693Y-110001176D01*
X161486783Y-110060343D01*
X161664800Y-110080401D01*
X161842817Y-110060343D01*
X162011907Y-110001176D01*
X162163592Y-109905866D01*
X162290265Y-109779193D01*
X162385575Y-109627508D01*
X162444742Y-109458418D01*
X162464800Y-109280401D01*
X162444742Y-109102384D01*
X162385575Y-108933294D01*
X162290265Y-108781609D01*
X162163592Y-108654936D01*
X162011907Y-108559626D01*
X161842817Y-108500459D01*
X161664800Y-108480401D01*
X161486783Y-108500459D01*
X161317693Y-108559626D01*
X161166008Y-108654936D01*
X161039335Y-108781609D01*
X160944025Y-108933294D01*
X160884858Y-109102384D01*
X160864800Y-109280401D01*
X143364800Y-109280401D01*
X143344742Y-109102384D01*
X143285575Y-108933294D01*
X143190265Y-108781609D01*
X143063592Y-108654936D01*
X142911907Y-108559626D01*
X142742817Y-108500459D01*
X142564800Y-108480401D01*
X142386783Y-108500459D01*
X142217693Y-108559626D01*
X142066008Y-108654936D01*
X141939335Y-108781609D01*
X141844025Y-108933294D01*
X141784858Y-109102384D01*
X141764800Y-109280401D01*
X140864800Y-109280401D01*
X140844742Y-109102384D01*
X140785575Y-108933294D01*
X140690265Y-108781609D01*
X140563592Y-108654936D01*
X140411907Y-108559626D01*
X140242817Y-108500459D01*
X140064800Y-108480401D01*
X139886783Y-108500459D01*
X139717693Y-108559626D01*
X139566008Y-108654936D01*
X139439335Y-108781609D01*
X139344025Y-108933294D01*
X139284858Y-109102384D01*
X139264800Y-109280401D01*
X138364800Y-109280401D01*
X138344742Y-109102384D01*
X138285575Y-108933294D01*
X138190265Y-108781609D01*
X138063592Y-108654936D01*
X137911907Y-108559626D01*
X137742817Y-108500459D01*
X137564800Y-108480401D01*
X137386783Y-108500459D01*
X137217693Y-108559626D01*
X137066008Y-108654936D01*
X136939335Y-108781609D01*
X136844025Y-108933294D01*
X136784858Y-109102384D01*
X136764800Y-109280401D01*
X135864800Y-109280401D01*
X135844742Y-109102384D01*
X135785575Y-108933294D01*
X135690265Y-108781609D01*
X135563592Y-108654936D01*
X135411907Y-108559626D01*
X135242817Y-108500459D01*
X135064800Y-108480401D01*
X134886783Y-108500459D01*
X134717693Y-108559626D01*
X134566008Y-108654936D01*
X134439335Y-108781609D01*
X134344025Y-108933294D01*
X134284858Y-109102384D01*
X134264800Y-109280401D01*
X133364800Y-109280401D01*
X133344742Y-109102384D01*
X133285575Y-108933294D01*
X133190265Y-108781609D01*
X133063592Y-108654936D01*
X132911907Y-108559626D01*
X132742817Y-108500459D01*
X132564800Y-108480401D01*
X132386783Y-108500459D01*
X132217693Y-108559626D01*
X132066008Y-108654936D01*
X131939335Y-108781609D01*
X131844025Y-108933294D01*
X131784858Y-109102384D01*
X131764800Y-109280401D01*
X130864800Y-109280401D01*
X130844742Y-109102384D01*
X130785575Y-108933294D01*
X130690265Y-108781609D01*
X130563592Y-108654936D01*
X130411907Y-108559626D01*
X130242817Y-108500459D01*
X130064800Y-108480401D01*
X129886783Y-108500459D01*
X129717693Y-108559626D01*
X129566008Y-108654936D01*
X129439335Y-108781609D01*
X129344025Y-108933294D01*
X129284858Y-109102384D01*
X129264800Y-109280401D01*
X123264800Y-109280401D01*
X123264800Y-108030401D01*
X163364800Y-108030401D01*
X163384858Y-108208418D01*
X163444025Y-108377508D01*
X163539335Y-108529193D01*
X163666008Y-108655866D01*
X163817693Y-108751176D01*
X163986783Y-108810343D01*
X164164800Y-108830401D01*
X164342817Y-108810343D01*
X164511907Y-108751176D01*
X164663592Y-108655866D01*
X164790265Y-108529193D01*
X164885575Y-108377508D01*
X164944742Y-108208418D01*
X164964800Y-108030401D01*
X164944742Y-107852384D01*
X164885575Y-107683294D01*
X164790265Y-107531609D01*
X164663592Y-107404936D01*
X164511907Y-107309626D01*
X164342817Y-107250459D01*
X164164800Y-107230401D01*
X163986783Y-107250459D01*
X163817693Y-107309626D01*
X163666008Y-107404936D01*
X163539335Y-107531609D01*
X163444025Y-107683294D01*
X163384858Y-107852384D01*
X163364800Y-108030401D01*
X123264800Y-108030401D01*
X123264800Y-106780401D01*
X160864800Y-106780401D01*
X160884858Y-106958418D01*
X160944025Y-107127508D01*
X161039335Y-107279193D01*
X161166008Y-107405866D01*
X161317693Y-107501176D01*
X161486783Y-107560343D01*
X161664800Y-107580401D01*
X161842817Y-107560343D01*
X162011907Y-107501176D01*
X162163592Y-107405866D01*
X162290265Y-107279193D01*
X162385575Y-107127508D01*
X162444742Y-106958418D01*
X162464800Y-106780401D01*
X162444742Y-106602384D01*
X162385575Y-106433294D01*
X162290265Y-106281609D01*
X162163592Y-106154936D01*
X162011907Y-106059626D01*
X161842817Y-106000459D01*
X161664800Y-105980401D01*
X161486783Y-106000459D01*
X161317693Y-106059626D01*
X161166008Y-106154936D01*
X161039335Y-106281609D01*
X160944025Y-106433294D01*
X160884858Y-106602384D01*
X160864800Y-106780401D01*
X123264800Y-106780401D01*
X123264800Y-105530401D01*
X163364800Y-105530401D01*
X163384858Y-105708418D01*
X163444025Y-105877508D01*
X163539335Y-106029193D01*
X163666008Y-106155866D01*
X163817693Y-106251176D01*
X163986783Y-106310343D01*
X164164800Y-106330401D01*
X164342817Y-106310343D01*
X164511907Y-106251176D01*
X164663592Y-106155866D01*
X164790265Y-106029193D01*
X164885575Y-105877508D01*
X164944742Y-105708418D01*
X164964800Y-105530401D01*
X164944742Y-105352384D01*
X164885575Y-105183294D01*
X164790265Y-105031609D01*
X164663592Y-104904936D01*
X164511907Y-104809626D01*
X164342817Y-104750459D01*
X164164800Y-104730401D01*
X163986783Y-104750459D01*
X163817693Y-104809626D01*
X163666008Y-104904936D01*
X163539335Y-105031609D01*
X163444025Y-105183294D01*
X163384858Y-105352384D01*
X163364800Y-105530401D01*
X123264800Y-105530401D01*
X123264800Y-104280401D01*
X160864800Y-104280401D01*
X160884858Y-104458418D01*
X160944025Y-104627508D01*
X161039335Y-104779193D01*
X161166008Y-104905866D01*
X161317693Y-105001176D01*
X161486783Y-105060343D01*
X161664800Y-105080401D01*
X161842817Y-105060343D01*
X162011907Y-105001176D01*
X162163592Y-104905866D01*
X162290265Y-104779193D01*
X162385575Y-104627508D01*
X162444742Y-104458418D01*
X162464800Y-104280401D01*
X162444742Y-104102384D01*
X162385575Y-103933294D01*
X162290265Y-103781609D01*
X162163592Y-103654936D01*
X162011907Y-103559626D01*
X161842817Y-103500459D01*
X161664800Y-103480401D01*
X161486783Y-103500459D01*
X161317693Y-103559626D01*
X161166008Y-103654936D01*
X161039335Y-103781609D01*
X160944025Y-103933294D01*
X160884858Y-104102384D01*
X160864800Y-104280401D01*
X123264800Y-104280401D01*
X123264800Y-98480401D01*
X123283267Y-98245749D01*
X123338215Y-98016876D01*
X123428290Y-97799415D01*
X123551275Y-97598723D01*
X123704140Y-97419741D01*
X123883122Y-97266876D01*
X124083814Y-97143891D01*
X124301275Y-97053816D01*
X124530148Y-96998868D01*
X124764800Y-96980401D01*
X147864800Y-96980401D01*
X148099452Y-96961934D01*
X148328325Y-96906986D01*
X148545786Y-96816911D01*
X148746478Y-96693926D01*
X148925460Y-96541061D01*
X149078325Y-96362079D01*
X149201310Y-96161387D01*
X149291385Y-95943926D01*
X149346333Y-95715053D01*
X149364800Y-95480401D01*
X149364800Y-90180401D01*
X160864800Y-90180401D01*
X160884858Y-90358418D01*
X160944025Y-90527508D01*
X161039335Y-90679193D01*
X161166008Y-90805866D01*
X161317693Y-90901176D01*
X161486783Y-90960343D01*
X161664800Y-90980401D01*
X161842817Y-90960343D01*
X162011907Y-90901176D01*
X162163592Y-90805866D01*
X162290265Y-90679193D01*
X162385575Y-90527508D01*
X162444742Y-90358418D01*
X162464800Y-90180401D01*
X162444742Y-90002384D01*
X162385575Y-89833294D01*
X162290265Y-89681609D01*
X162163592Y-89554936D01*
X162011907Y-89459626D01*
X161842817Y-89400459D01*
X161664800Y-89380401D01*
X161486783Y-89400459D01*
X161317693Y-89459626D01*
X161166008Y-89554936D01*
X161039335Y-89681609D01*
X160944025Y-89833294D01*
X160884858Y-90002384D01*
X160864800Y-90180401D01*
X149364800Y-90180401D01*
X149364800Y-88930401D01*
X163364800Y-88930401D01*
X163384858Y-89108418D01*
X163444025Y-89277508D01*
X163539335Y-89429193D01*
X163666008Y-89555866D01*
X163817693Y-89651176D01*
X163986783Y-89710343D01*
X164164800Y-89730401D01*
X164342817Y-89710343D01*
X164511907Y-89651176D01*
X164663592Y-89555866D01*
X164790265Y-89429193D01*
X164885575Y-89277508D01*
X164944742Y-89108418D01*
X164964800Y-88930401D01*
X164944742Y-88752384D01*
X164885575Y-88583294D01*
X164790265Y-88431609D01*
X164663592Y-88304936D01*
X164511907Y-88209626D01*
X164342817Y-88150459D01*
X164164800Y-88130401D01*
X163986783Y-88150459D01*
X163817693Y-88209626D01*
X163666008Y-88304936D01*
X163539335Y-88431609D01*
X163444025Y-88583294D01*
X163384858Y-88752384D01*
X163364800Y-88930401D01*
X149364800Y-88930401D01*
X149364800Y-87680401D01*
X160864800Y-87680401D01*
X160884858Y-87858418D01*
X160944025Y-88027508D01*
X161039335Y-88179193D01*
X161166008Y-88305866D01*
X161317693Y-88401176D01*
X161486783Y-88460343D01*
X161664800Y-88480401D01*
X161842817Y-88460343D01*
X162011907Y-88401176D01*
X162163592Y-88305866D01*
X162290265Y-88179193D01*
X162385575Y-88027508D01*
X162444742Y-87858418D01*
X162464800Y-87680401D01*
X162444742Y-87502384D01*
X162385575Y-87333294D01*
X162290265Y-87181609D01*
X162163592Y-87054936D01*
X162011907Y-86959626D01*
X161842817Y-86900459D01*
X161664800Y-86880401D01*
X161486783Y-86900459D01*
X161317693Y-86959626D01*
X161166008Y-87054936D01*
X161039335Y-87181609D01*
X160944025Y-87333294D01*
X160884858Y-87502384D01*
X160864800Y-87680401D01*
X149364800Y-87680401D01*
X149364800Y-86430401D01*
X163364800Y-86430401D01*
X163384858Y-86608418D01*
X163444025Y-86777508D01*
X163539335Y-86929193D01*
X163666008Y-87055866D01*
X163817693Y-87151176D01*
X163986783Y-87210343D01*
X164164800Y-87230401D01*
X164342817Y-87210343D01*
X164511907Y-87151176D01*
X164663592Y-87055866D01*
X164790265Y-86929193D01*
X164885575Y-86777508D01*
X164944742Y-86608418D01*
X164964800Y-86430401D01*
X164944742Y-86252384D01*
X164885575Y-86083294D01*
X164790265Y-85931609D01*
X164663592Y-85804936D01*
X164511907Y-85709626D01*
X164342817Y-85650459D01*
X164164800Y-85630401D01*
X163986783Y-85650459D01*
X163817693Y-85709626D01*
X163666008Y-85804936D01*
X163539335Y-85931609D01*
X163444025Y-86083294D01*
X163384858Y-86252384D01*
X163364800Y-86430401D01*
X149364800Y-86430401D01*
X149364800Y-85180401D01*
X160864800Y-85180401D01*
X160884858Y-85358418D01*
X160944025Y-85527508D01*
X161039335Y-85679193D01*
X161166008Y-85805866D01*
X161317693Y-85901176D01*
X161486783Y-85960343D01*
X161664800Y-85980401D01*
X161842817Y-85960343D01*
X162011907Y-85901176D01*
X162163592Y-85805866D01*
X162290265Y-85679193D01*
X162385575Y-85527508D01*
X162444742Y-85358418D01*
X162464800Y-85180401D01*
X162444742Y-85002384D01*
X162385575Y-84833294D01*
X162290265Y-84681609D01*
X162163592Y-84554936D01*
X162011907Y-84459626D01*
X161842817Y-84400459D01*
X161664800Y-84380401D01*
X161486783Y-84400459D01*
X161317693Y-84459626D01*
X161166008Y-84554936D01*
X161039335Y-84681609D01*
X160944025Y-84833294D01*
X160884858Y-85002384D01*
X160864800Y-85180401D01*
X149364800Y-85180401D01*
X149364800Y-83930401D01*
X163364800Y-83930401D01*
X163384858Y-84108418D01*
X163444025Y-84277508D01*
X163539335Y-84429193D01*
X163666008Y-84555866D01*
X163817693Y-84651176D01*
X163986783Y-84710343D01*
X164164800Y-84730401D01*
X164342817Y-84710343D01*
X164511907Y-84651176D01*
X164663592Y-84555866D01*
X164790265Y-84429193D01*
X164885575Y-84277508D01*
X164944742Y-84108418D01*
X164964800Y-83930401D01*
X164944742Y-83752384D01*
X164885575Y-83583294D01*
X164790265Y-83431609D01*
X164663592Y-83304936D01*
X164511907Y-83209626D01*
X164342817Y-83150459D01*
X164164800Y-83130401D01*
X163986783Y-83150459D01*
X163817693Y-83209626D01*
X163666008Y-83304936D01*
X163539335Y-83431609D01*
X163444025Y-83583294D01*
X163384858Y-83752384D01*
X163364800Y-83930401D01*
X149364800Y-83930401D01*
X149364800Y-82680401D01*
X160864800Y-82680401D01*
X160884858Y-82858418D01*
X160944025Y-83027508D01*
X161039335Y-83179193D01*
X161166008Y-83305866D01*
X161317693Y-83401176D01*
X161486783Y-83460343D01*
X161664800Y-83480401D01*
X161842817Y-83460343D01*
X162011907Y-83401176D01*
X162163592Y-83305866D01*
X162290265Y-83179193D01*
X162385575Y-83027508D01*
X162444742Y-82858418D01*
X162464800Y-82680401D01*
X162444742Y-82502384D01*
X162385575Y-82333294D01*
X162290265Y-82181609D01*
X162163592Y-82054936D01*
X162011907Y-81959626D01*
X161842817Y-81900459D01*
X161664800Y-81880401D01*
X161486783Y-81900459D01*
X161317693Y-81959626D01*
X161166008Y-82054936D01*
X161039335Y-82181609D01*
X160944025Y-82333294D01*
X160884858Y-82502384D01*
X160864800Y-82680401D01*
X149364800Y-82680401D01*
X149364800Y-81430401D01*
X163364800Y-81430401D01*
X163384858Y-81608418D01*
X163444025Y-81777508D01*
X163539335Y-81929193D01*
X163666008Y-82055866D01*
X163817693Y-82151176D01*
X163986783Y-82210343D01*
X164164800Y-82230401D01*
X164342817Y-82210343D01*
X164511907Y-82151176D01*
X164663592Y-82055866D01*
X164790265Y-81929193D01*
X164885575Y-81777508D01*
X164944742Y-81608418D01*
X164964800Y-81430401D01*
X164944742Y-81252384D01*
X164885575Y-81083294D01*
X164790265Y-80931609D01*
X164663592Y-80804936D01*
X164511907Y-80709626D01*
X164342817Y-80650459D01*
X164164800Y-80630401D01*
X163986783Y-80650459D01*
X163817693Y-80709626D01*
X163666008Y-80804936D01*
X163539335Y-80931609D01*
X163444025Y-81083294D01*
X163384858Y-81252384D01*
X163364800Y-81430401D01*
X149364800Y-81430401D01*
X149364800Y-80180401D01*
X160864800Y-80180401D01*
X160884858Y-80358418D01*
X160944025Y-80527508D01*
X161039335Y-80679193D01*
X161166008Y-80805866D01*
X161317693Y-80901176D01*
X161486783Y-80960343D01*
X161664800Y-80980401D01*
X161842817Y-80960343D01*
X162011907Y-80901176D01*
X162163592Y-80805866D01*
X162290265Y-80679193D01*
X162385575Y-80527508D01*
X162444742Y-80358418D01*
X162464800Y-80180401D01*
X162444742Y-80002384D01*
X162385575Y-79833294D01*
X162290265Y-79681609D01*
X162163592Y-79554936D01*
X162011907Y-79459626D01*
X161842817Y-79400459D01*
X161664800Y-79380401D01*
X161486783Y-79400459D01*
X161317693Y-79459626D01*
X161166008Y-79554936D01*
X161039335Y-79681609D01*
X160944025Y-79833294D01*
X160884858Y-80002384D01*
X160864800Y-80180401D01*
X149364800Y-80180401D01*
X149364800Y-78930401D01*
X163364800Y-78930401D01*
X163384858Y-79108418D01*
X163444025Y-79277508D01*
X163539335Y-79429193D01*
X163666008Y-79555866D01*
X163817693Y-79651176D01*
X163986783Y-79710343D01*
X164164800Y-79730401D01*
X164342817Y-79710343D01*
X164511907Y-79651176D01*
X164663592Y-79555866D01*
X164790265Y-79429193D01*
X164885575Y-79277508D01*
X164944742Y-79108418D01*
X164964800Y-78930401D01*
X164944742Y-78752384D01*
X164885575Y-78583294D01*
X164790265Y-78431609D01*
X164663592Y-78304936D01*
X164511907Y-78209626D01*
X164342817Y-78150459D01*
X164164800Y-78130401D01*
X163986783Y-78150459D01*
X163817693Y-78209626D01*
X163666008Y-78304936D01*
X163539335Y-78431609D01*
X163444025Y-78583294D01*
X163384858Y-78752384D01*
X163364800Y-78930401D01*
X149364800Y-78930401D01*
X149364800Y-77680401D01*
X160864800Y-77680401D01*
X160884858Y-77858418D01*
X160944025Y-78027508D01*
X161039335Y-78179193D01*
X161166008Y-78305866D01*
X161317693Y-78401176D01*
X161486783Y-78460343D01*
X161664800Y-78480401D01*
X161842817Y-78460343D01*
X162011907Y-78401176D01*
X162163592Y-78305866D01*
X162290265Y-78179193D01*
X162385575Y-78027508D01*
X162444742Y-77858418D01*
X162464800Y-77680401D01*
X162444742Y-77502384D01*
X162385575Y-77333294D01*
X162290265Y-77181609D01*
X162163592Y-77054936D01*
X162011907Y-76959626D01*
X161842817Y-76900459D01*
X161664800Y-76880401D01*
X161486783Y-76900459D01*
X161317693Y-76959626D01*
X161166008Y-77054936D01*
X161039335Y-77181609D01*
X160944025Y-77333294D01*
X160884858Y-77502384D01*
X160864800Y-77680401D01*
X149364800Y-77680401D01*
X149364800Y-72380401D01*
X149383267Y-72145749D01*
X149438215Y-71916876D01*
X149528290Y-71699415D01*
X149651275Y-71498723D01*
X149804140Y-71319741D01*
X149983122Y-71166876D01*
X150183814Y-71043891D01*
X150401275Y-70953816D01*
X150630148Y-70898868D01*
X150864800Y-70880401D01*
X174964799Y-70880401D01*
X175199451Y-70898868D01*
D15*
G36*
X175199451Y-70898868D02*
G01*
X175428324Y-70953816D01*
X175645785Y-71043891D01*
X175846477Y-71166876D01*
X176025459Y-71319741D01*
X176178324Y-71498723D01*
X176301309Y-71699415D01*
X176391384Y-71916876D01*
X176446332Y-72145749D01*
X176464799Y-72380401D01*
X176464799Y-122580400D01*
X176446332Y-122815052D01*
X176391384Y-123043925D01*
X176301309Y-123261386D01*
X176178324Y-123462078D01*
X176025459Y-123641060D01*
X175846477Y-123793925D01*
X175645785Y-123916910D01*
X175428324Y-124006985D01*
X175199451Y-124061933D01*
X174964799Y-124080400D01*
X124764800Y-124080400D01*
X124530148Y-124061933D01*
X124301275Y-124006985D01*
X124083814Y-123916910D01*
X123883122Y-123793925D01*
X123704140Y-123641060D01*
X123551275Y-123462078D01*
X123428290Y-123261386D01*
X123338215Y-123043925D01*
X123283267Y-122815052D01*
X123264800Y-122580400D01*
X123264800Y-116780400D01*
X160864800Y-116780400D01*
X160884858Y-116958417D01*
X160944025Y-117127507D01*
X161039335Y-117279192D01*
X161166008Y-117405865D01*
X161317693Y-117501175D01*
X161486783Y-117560342D01*
X161664800Y-117580400D01*
X161842817Y-117560342D01*
X162011907Y-117501175D01*
X162163592Y-117405865D01*
X162290265Y-117279192D01*
X162385575Y-117127507D01*
X162444742Y-116958417D01*
X162464800Y-116780400D01*
X162444742Y-116602383D01*
X162385575Y-116433293D01*
X162290265Y-116281608D01*
X162163592Y-116154935D01*
X162011907Y-116059625D01*
X161842817Y-116000458D01*
X161664800Y-115980400D01*
X161486783Y-116000458D01*
X161317693Y-116059625D01*
X161166008Y-116154935D01*
X161039335Y-116281608D01*
X160944025Y-116433293D01*
X160884858Y-116602383D01*
X160864800Y-116780400D01*
X123264800Y-116780400D01*
X123264800Y-115530400D01*
X163364800Y-115530400D01*
X163384858Y-115708417D01*
X163444025Y-115877507D01*
X163539335Y-116029192D01*
X163666008Y-116155865D01*
X163817693Y-116251175D01*
X163986783Y-116310342D01*
X164164800Y-116330400D01*
X164342817Y-116310342D01*
X164511907Y-116251175D01*
X164663592Y-116155865D01*
X164790265Y-116029192D01*
X164885575Y-115877507D01*
X164944742Y-115708417D01*
X164964800Y-115530400D01*
X164944742Y-115352383D01*
X164885575Y-115183293D01*
X164790265Y-115031608D01*
X164663592Y-114904935D01*
X164511907Y-114809625D01*
X164342817Y-114750458D01*
X164164800Y-114730400D01*
X163986783Y-114750458D01*
X163817693Y-114809625D01*
X163666008Y-114904935D01*
X163539335Y-115031608D01*
X163444025Y-115183293D01*
X163384858Y-115352383D01*
X163364800Y-115530400D01*
X123264800Y-115530400D01*
X123264800Y-114280400D01*
X160864800Y-114280400D01*
X160884858Y-114458417D01*
X160944025Y-114627507D01*
X161039335Y-114779192D01*
X161166008Y-114905865D01*
X161317693Y-115001175D01*
X161486783Y-115060342D01*
X161664800Y-115080400D01*
X161842817Y-115060342D01*
X162011907Y-115001175D01*
X162163592Y-114905865D01*
X162290265Y-114779192D01*
X162385575Y-114627507D01*
X162444742Y-114458417D01*
X162464800Y-114280400D01*
X162444742Y-114102383D01*
X162385575Y-113933293D01*
X162290265Y-113781608D01*
X162163592Y-113654935D01*
X162011907Y-113559625D01*
X161842817Y-113500458D01*
X161664800Y-113480400D01*
X161486783Y-113500458D01*
X161317693Y-113559625D01*
X161166008Y-113654935D01*
X161039335Y-113781608D01*
X160944025Y-113933293D01*
X160884858Y-114102383D01*
X160864800Y-114280400D01*
X123264800Y-114280400D01*
X123264800Y-113030400D01*
X163364800Y-113030400D01*
X163384858Y-113208417D01*
X163444025Y-113377507D01*
X163539335Y-113529192D01*
X163666008Y-113655865D01*
X163817693Y-113751175D01*
X163986783Y-113810342D01*
X164164800Y-113830400D01*
X164342817Y-113810342D01*
X164511907Y-113751175D01*
X164663592Y-113655865D01*
X164790265Y-113529192D01*
X164885575Y-113377507D01*
X164944742Y-113208417D01*
X164964800Y-113030400D01*
X164944742Y-112852383D01*
X164885575Y-112683293D01*
X164790265Y-112531608D01*
X164663592Y-112404935D01*
X164511907Y-112309625D01*
X164342817Y-112250458D01*
X164164800Y-112230400D01*
X163986783Y-112250458D01*
X163817693Y-112309625D01*
X163666008Y-112404935D01*
X163539335Y-112531608D01*
X163444025Y-112683293D01*
X163384858Y-112852383D01*
X163364800Y-113030400D01*
X123264800Y-113030400D01*
X123264800Y-111780401D01*
X130514800Y-111780401D01*
X130534858Y-111958418D01*
X130594025Y-112127508D01*
X130689335Y-112279193D01*
X130816008Y-112405866D01*
X130967693Y-112501176D01*
X131136783Y-112560343D01*
X131314800Y-112580401D01*
X131492817Y-112560343D01*
X131661907Y-112501176D01*
X131813592Y-112405866D01*
X131940265Y-112279193D01*
X132035575Y-112127508D01*
X132094742Y-111958418D01*
X132114800Y-111780401D01*
X133014800Y-111780401D01*
X133034858Y-111958418D01*
X133094025Y-112127508D01*
X133189335Y-112279193D01*
X133316008Y-112405866D01*
X133467693Y-112501176D01*
X133636783Y-112560343D01*
X133814800Y-112580401D01*
X133992817Y-112560343D01*
X134161907Y-112501176D01*
X134313592Y-112405866D01*
X134440265Y-112279193D01*
X134535575Y-112127508D01*
X134594742Y-111958418D01*
X134614800Y-111780401D01*
X135514800Y-111780401D01*
X135534858Y-111958418D01*
X135594025Y-112127508D01*
X135689335Y-112279193D01*
X135816008Y-112405866D01*
X135967693Y-112501176D01*
X136136783Y-112560343D01*
X136314800Y-112580401D01*
X136492817Y-112560343D01*
X136661907Y-112501176D01*
X136813592Y-112405866D01*
X136940265Y-112279193D01*
X137035575Y-112127508D01*
X137094742Y-111958418D01*
X137114800Y-111780401D01*
X138014800Y-111780401D01*
X138034858Y-111958418D01*
X138094025Y-112127508D01*
X138189335Y-112279193D01*
X138316008Y-112405866D01*
X138467693Y-112501176D01*
X138636783Y-112560343D01*
X138814800Y-112580401D01*
X138992817Y-112560343D01*
X139161907Y-112501176D01*
X139313592Y-112405866D01*
X139440265Y-112279193D01*
X139535575Y-112127508D01*
X139594742Y-111958418D01*
X139614800Y-111780401D01*
X140514800Y-111780401D01*
X140534858Y-111958418D01*
X140594025Y-112127508D01*
X140689335Y-112279193D01*
X140816008Y-112405866D01*
X140967693Y-112501176D01*
X141136783Y-112560343D01*
X141314800Y-112580401D01*
X141492817Y-112560343D01*
X141661907Y-112501176D01*
X141813592Y-112405866D01*
X141940265Y-112279193D01*
X142035575Y-112127508D01*
X142094742Y-111958418D01*
X142114800Y-111780401D01*
X160864800Y-111780401D01*
X160884858Y-111958418D01*
X160944025Y-112127508D01*
X161039335Y-112279193D01*
X161166008Y-112405866D01*
X161317693Y-112501176D01*
X161486783Y-112560343D01*
X161664800Y-112580401D01*
X161842817Y-112560343D01*
X162011907Y-112501176D01*
X162163592Y-112405866D01*
X162290265Y-112279193D01*
X162385575Y-112127508D01*
X162444742Y-111958418D01*
X162464800Y-111780401D01*
X162444742Y-111602384D01*
X162385575Y-111433294D01*
X162290265Y-111281609D01*
X162163592Y-111154936D01*
X162011907Y-111059626D01*
X161842817Y-111000459D01*
X161664800Y-110980401D01*
X161486783Y-111000459D01*
X161317693Y-111059626D01*
X161166008Y-111154936D01*
X161039335Y-111281609D01*
X160944025Y-111433294D01*
X160884858Y-111602384D01*
X160864800Y-111780401D01*
X142114800Y-111780401D01*
X142094742Y-111602384D01*
X142035575Y-111433294D01*
X141940265Y-111281609D01*
X141813592Y-111154936D01*
X141661907Y-111059626D01*
X141492817Y-111000459D01*
X141314800Y-110980401D01*
X141136783Y-111000459D01*
X140967693Y-111059626D01*
X140816008Y-111154936D01*
X140689335Y-111281609D01*
X140594025Y-111433294D01*
X140534858Y-111602384D01*
X140514800Y-111780401D01*
X139614800Y-111780401D01*
X139594742Y-111602384D01*
X139535575Y-111433294D01*
X139440265Y-111281609D01*
X139313592Y-111154936D01*
X139161907Y-111059626D01*
X138992817Y-111000459D01*
X138814800Y-110980401D01*
X138636783Y-111000459D01*
X138467693Y-111059626D01*
X138316008Y-111154936D01*
X138189335Y-111281609D01*
X138094025Y-111433294D01*
X138034858Y-111602384D01*
X138014800Y-111780401D01*
X137114800Y-111780401D01*
X137094742Y-111602384D01*
X137035575Y-111433294D01*
X136940265Y-111281609D01*
X136813592Y-111154936D01*
X136661907Y-111059626D01*
X136492817Y-111000459D01*
X136314800Y-110980401D01*
X136136783Y-111000459D01*
X135967693Y-111059626D01*
X135816008Y-111154936D01*
X135689335Y-111281609D01*
X135594025Y-111433294D01*
X135534858Y-111602384D01*
X135514800Y-111780401D01*
X134614800Y-111780401D01*
X134594742Y-111602384D01*
X134535575Y-111433294D01*
X134440265Y-111281609D01*
X134313592Y-111154936D01*
X134161907Y-111059626D01*
X133992817Y-111000459D01*
X133814800Y-110980401D01*
X133636783Y-111000459D01*
X133467693Y-111059626D01*
X133316008Y-111154936D01*
X133189335Y-111281609D01*
X133094025Y-111433294D01*
X133034858Y-111602384D01*
X133014800Y-111780401D01*
X132114800Y-111780401D01*
X132094742Y-111602384D01*
X132035575Y-111433294D01*
X131940265Y-111281609D01*
X131813592Y-111154936D01*
X131661907Y-111059626D01*
X131492817Y-111000459D01*
X131314800Y-110980401D01*
X131136783Y-111000459D01*
X130967693Y-111059626D01*
X130816008Y-111154936D01*
X130689335Y-111281609D01*
X130594025Y-111433294D01*
X130534858Y-111602384D01*
X130514800Y-111780401D01*
X123264800Y-111780401D01*
X123264800Y-110530401D01*
X163364800Y-110530401D01*
X163384858Y-110708418D01*
X163444025Y-110877508D01*
X163539335Y-111029193D01*
X163666008Y-111155866D01*
X163817693Y-111251176D01*
X163986783Y-111310343D01*
X164164800Y-111330401D01*
X164342817Y-111310343D01*
X164511907Y-111251176D01*
X164663592Y-111155866D01*
X164790265Y-111029193D01*
X164885575Y-110877508D01*
X164944742Y-110708418D01*
X164964800Y-110530401D01*
X164944742Y-110352384D01*
X164885575Y-110183294D01*
X164790265Y-110031609D01*
X164663592Y-109904936D01*
X164511907Y-109809626D01*
X164342817Y-109750459D01*
X164164800Y-109730401D01*
X163986783Y-109750459D01*
X163817693Y-109809626D01*
X163666008Y-109904936D01*
X163539335Y-110031609D01*
X163444025Y-110183294D01*
X163384858Y-110352384D01*
X163364800Y-110530401D01*
X123264800Y-110530401D01*
X123264800Y-109280401D01*
X129264800Y-109280401D01*
X129284858Y-109458418D01*
X129344025Y-109627508D01*
X129439335Y-109779193D01*
X129566008Y-109905866D01*
X129717693Y-110001176D01*
X129886783Y-110060343D01*
X130064800Y-110080401D01*
X130242817Y-110060343D01*
X130411907Y-110001176D01*
X130563592Y-109905866D01*
X130690265Y-109779193D01*
X130785575Y-109627508D01*
X130844742Y-109458418D01*
X130864800Y-109280401D01*
X131764800Y-109280401D01*
X131784858Y-109458418D01*
X131844025Y-109627508D01*
X131939335Y-109779193D01*
X132066008Y-109905866D01*
X132217693Y-110001176D01*
X132386783Y-110060343D01*
X132564800Y-110080401D01*
X132742817Y-110060343D01*
X132911907Y-110001176D01*
X133063592Y-109905866D01*
X133190265Y-109779193D01*
X133285575Y-109627508D01*
X133344742Y-109458418D01*
X133364800Y-109280401D01*
X134264800Y-109280401D01*
X134284858Y-109458418D01*
X134344025Y-109627508D01*
X134439335Y-109779193D01*
X134566008Y-109905866D01*
X134717693Y-110001176D01*
X134886783Y-110060343D01*
X135064800Y-110080401D01*
X135242817Y-110060343D01*
X135411907Y-110001176D01*
X135563592Y-109905866D01*
X135690265Y-109779193D01*
X135785575Y-109627508D01*
X135844742Y-109458418D01*
X135864800Y-109280401D01*
X136764800Y-109280401D01*
X136784858Y-109458418D01*
X136844025Y-109627508D01*
X136939335Y-109779193D01*
X137066008Y-109905866D01*
X137217693Y-110001176D01*
X137386783Y-110060343D01*
X137564800Y-110080401D01*
X137742817Y-110060343D01*
X137911907Y-110001176D01*
X138063592Y-109905866D01*
X138190265Y-109779193D01*
X138285575Y-109627508D01*
X138344742Y-109458418D01*
X138364800Y-109280401D01*
X139264800Y-109280401D01*
X139284858Y-109458418D01*
X139344025Y-109627508D01*
X139439335Y-109779193D01*
X139566008Y-109905866D01*
X139717693Y-110001176D01*
X139886783Y-110060343D01*
X140064800Y-110080401D01*
X140242817Y-110060343D01*
X140411907Y-110001176D01*
X140563592Y-109905866D01*
X140690265Y-109779193D01*
X140785575Y-109627508D01*
X140844742Y-109458418D01*
X140864800Y-109280401D01*
X141764800Y-109280401D01*
X141784858Y-109458418D01*
X141844025Y-109627508D01*
X141939335Y-109779193D01*
X142066008Y-109905866D01*
X142217693Y-110001176D01*
X142386783Y-110060343D01*
X142564800Y-110080401D01*
X142742817Y-110060343D01*
X142911907Y-110001176D01*
X143063592Y-109905866D01*
X143190265Y-109779193D01*
X143285575Y-109627508D01*
X143344742Y-109458418D01*
X143364800Y-109280401D01*
X160864800Y-109280401D01*
X160884858Y-109458418D01*
X160944025Y-109627508D01*
X161039335Y-109779193D01*
X161166008Y-109905866D01*
X161317693Y-110001176D01*
X161486783Y-110060343D01*
X161664800Y-110080401D01*
X161842817Y-110060343D01*
X162011907Y-110001176D01*
X162163592Y-109905866D01*
X162290265Y-109779193D01*
X162385575Y-109627508D01*
X162444742Y-109458418D01*
X162464800Y-109280401D01*
X162444742Y-109102384D01*
X162385575Y-108933294D01*
X162290265Y-108781609D01*
X162163592Y-108654936D01*
X162011907Y-108559626D01*
X161842817Y-108500459D01*
X161664800Y-108480401D01*
X161486783Y-108500459D01*
X161317693Y-108559626D01*
X161166008Y-108654936D01*
X161039335Y-108781609D01*
X160944025Y-108933294D01*
X160884858Y-109102384D01*
X160864800Y-109280401D01*
X143364800Y-109280401D01*
X143344742Y-109102384D01*
X143285575Y-108933294D01*
X143190265Y-108781609D01*
X143063592Y-108654936D01*
X142911907Y-108559626D01*
X142742817Y-108500459D01*
X142564800Y-108480401D01*
X142386783Y-108500459D01*
X142217693Y-108559626D01*
X142066008Y-108654936D01*
X141939335Y-108781609D01*
X141844025Y-108933294D01*
X141784858Y-109102384D01*
X141764800Y-109280401D01*
X140864800Y-109280401D01*
X140844742Y-109102384D01*
X140785575Y-108933294D01*
X140690265Y-108781609D01*
X140563592Y-108654936D01*
X140411907Y-108559626D01*
X140242817Y-108500459D01*
X140064800Y-108480401D01*
X139886783Y-108500459D01*
X139717693Y-108559626D01*
X139566008Y-108654936D01*
X139439335Y-108781609D01*
X139344025Y-108933294D01*
X139284858Y-109102384D01*
X139264800Y-109280401D01*
X138364800Y-109280401D01*
X138344742Y-109102384D01*
X138285575Y-108933294D01*
X138190265Y-108781609D01*
X138063592Y-108654936D01*
X137911907Y-108559626D01*
X137742817Y-108500459D01*
X137564800Y-108480401D01*
X137386783Y-108500459D01*
X137217693Y-108559626D01*
X137066008Y-108654936D01*
X136939335Y-108781609D01*
X136844025Y-108933294D01*
X136784858Y-109102384D01*
X136764800Y-109280401D01*
X135864800Y-109280401D01*
X135844742Y-109102384D01*
X135785575Y-108933294D01*
X135690265Y-108781609D01*
X135563592Y-108654936D01*
X135411907Y-108559626D01*
X135242817Y-108500459D01*
X135064800Y-108480401D01*
X134886783Y-108500459D01*
X134717693Y-108559626D01*
X134566008Y-108654936D01*
X134439335Y-108781609D01*
X134344025Y-108933294D01*
X134284858Y-109102384D01*
X134264800Y-109280401D01*
X133364800Y-109280401D01*
X133344742Y-109102384D01*
X133285575Y-108933294D01*
X133190265Y-108781609D01*
X133063592Y-108654936D01*
X132911907Y-108559626D01*
X132742817Y-108500459D01*
X132564800Y-108480401D01*
X132386783Y-108500459D01*
X132217693Y-108559626D01*
X132066008Y-108654936D01*
X131939335Y-108781609D01*
X131844025Y-108933294D01*
X131784858Y-109102384D01*
X131764800Y-109280401D01*
X130864800Y-109280401D01*
X130844742Y-109102384D01*
X130785575Y-108933294D01*
X130690265Y-108781609D01*
X130563592Y-108654936D01*
X130411907Y-108559626D01*
X130242817Y-108500459D01*
X130064800Y-108480401D01*
X129886783Y-108500459D01*
X129717693Y-108559626D01*
X129566008Y-108654936D01*
X129439335Y-108781609D01*
X129344025Y-108933294D01*
X129284858Y-109102384D01*
X129264800Y-109280401D01*
X123264800Y-109280401D01*
X123264800Y-108030401D01*
X163364800Y-108030401D01*
X163384858Y-108208418D01*
X163444025Y-108377508D01*
X163539335Y-108529193D01*
X163666008Y-108655866D01*
X163817693Y-108751176D01*
X163986783Y-108810343D01*
X164164800Y-108830401D01*
X164342817Y-108810343D01*
X164511907Y-108751176D01*
X164663592Y-108655866D01*
X164790265Y-108529193D01*
X164885575Y-108377508D01*
X164944742Y-108208418D01*
X164964800Y-108030401D01*
X164944742Y-107852384D01*
X164885575Y-107683294D01*
X164790265Y-107531609D01*
X164663592Y-107404936D01*
X164511907Y-107309626D01*
X164342817Y-107250459D01*
X164164800Y-107230401D01*
X163986783Y-107250459D01*
X163817693Y-107309626D01*
X163666008Y-107404936D01*
X163539335Y-107531609D01*
X163444025Y-107683294D01*
X163384858Y-107852384D01*
X163364800Y-108030401D01*
X123264800Y-108030401D01*
X123264800Y-106780401D01*
X160864800Y-106780401D01*
X160884858Y-106958418D01*
X160944025Y-107127508D01*
X161039335Y-107279193D01*
X161166008Y-107405866D01*
X161317693Y-107501176D01*
X161486783Y-107560343D01*
X161664800Y-107580401D01*
X161842817Y-107560343D01*
X162011907Y-107501176D01*
X162163592Y-107405866D01*
X162290265Y-107279193D01*
X162385575Y-107127508D01*
X162444742Y-106958418D01*
X162464800Y-106780401D01*
X162444742Y-106602384D01*
X162385575Y-106433294D01*
X162290265Y-106281609D01*
X162163592Y-106154936D01*
X162011907Y-106059626D01*
X161842817Y-106000459D01*
X161664800Y-105980401D01*
X161486783Y-106000459D01*
X161317693Y-106059626D01*
X161166008Y-106154936D01*
X161039335Y-106281609D01*
X160944025Y-106433294D01*
X160884858Y-106602384D01*
X160864800Y-106780401D01*
X123264800Y-106780401D01*
X123264800Y-105530401D01*
X163364800Y-105530401D01*
X163384858Y-105708418D01*
X163444025Y-105877508D01*
X163539335Y-106029193D01*
X163666008Y-106155866D01*
X163817693Y-106251176D01*
X163986783Y-106310343D01*
X164164800Y-106330401D01*
X164342817Y-106310343D01*
X164511907Y-106251176D01*
X164663592Y-106155866D01*
X164790265Y-106029193D01*
X164885575Y-105877508D01*
X164944742Y-105708418D01*
X164964800Y-105530401D01*
X164944742Y-105352384D01*
X164885575Y-105183294D01*
X164790265Y-105031609D01*
X164663592Y-104904936D01*
X164511907Y-104809626D01*
X164342817Y-104750459D01*
X164164800Y-104730401D01*
X163986783Y-104750459D01*
X163817693Y-104809626D01*
X163666008Y-104904936D01*
X163539335Y-105031609D01*
X163444025Y-105183294D01*
X163384858Y-105352384D01*
X163364800Y-105530401D01*
X123264800Y-105530401D01*
X123264800Y-104280401D01*
X160864800Y-104280401D01*
X160884858Y-104458418D01*
X160944025Y-104627508D01*
X161039335Y-104779193D01*
X161166008Y-104905866D01*
X161317693Y-105001176D01*
X161486783Y-105060343D01*
X161664800Y-105080401D01*
X161842817Y-105060343D01*
X162011907Y-105001176D01*
X162163592Y-104905866D01*
X162290265Y-104779193D01*
X162385575Y-104627508D01*
X162444742Y-104458418D01*
X162464800Y-104280401D01*
X162444742Y-104102384D01*
X162385575Y-103933294D01*
X162290265Y-103781609D01*
X162163592Y-103654936D01*
X162011907Y-103559626D01*
X161842817Y-103500459D01*
X161664800Y-103480401D01*
X161486783Y-103500459D01*
X161317693Y-103559626D01*
X161166008Y-103654936D01*
X161039335Y-103781609D01*
X160944025Y-103933294D01*
X160884858Y-104102384D01*
X160864800Y-104280401D01*
X123264800Y-104280401D01*
X123264800Y-98480401D01*
X123283267Y-98245749D01*
X123338215Y-98016876D01*
X123428290Y-97799415D01*
X123551275Y-97598723D01*
X123704140Y-97419741D01*
X123883122Y-97266876D01*
X124083814Y-97143891D01*
X124301275Y-97053816D01*
X124530148Y-96998868D01*
X124764800Y-96980401D01*
X147864800Y-96980401D01*
X148099452Y-96961934D01*
X148328325Y-96906986D01*
X148545786Y-96816911D01*
X148746478Y-96693926D01*
X148925460Y-96541061D01*
X149078325Y-96362079D01*
X149201310Y-96161387D01*
X149291385Y-95943926D01*
X149346333Y-95715053D01*
X149364800Y-95480401D01*
X149364800Y-90180401D01*
X160864800Y-90180401D01*
X160884858Y-90358418D01*
X160944025Y-90527508D01*
X161039335Y-90679193D01*
X161166008Y-90805866D01*
X161317693Y-90901176D01*
X161486783Y-90960343D01*
X161664800Y-90980401D01*
X161842817Y-90960343D01*
X162011907Y-90901176D01*
X162163592Y-90805866D01*
X162290265Y-90679193D01*
X162385575Y-90527508D01*
X162444742Y-90358418D01*
X162464800Y-90180401D01*
X162444742Y-90002384D01*
X162385575Y-89833294D01*
X162290265Y-89681609D01*
X162163592Y-89554936D01*
X162011907Y-89459626D01*
X161842817Y-89400459D01*
X161664800Y-89380401D01*
X161486783Y-89400459D01*
X161317693Y-89459626D01*
X161166008Y-89554936D01*
X161039335Y-89681609D01*
X160944025Y-89833294D01*
X160884858Y-90002384D01*
X160864800Y-90180401D01*
X149364800Y-90180401D01*
X149364800Y-88930401D01*
X163364800Y-88930401D01*
X163384858Y-89108418D01*
X163444025Y-89277508D01*
X163539335Y-89429193D01*
X163666008Y-89555866D01*
X163817693Y-89651176D01*
X163986783Y-89710343D01*
X164164800Y-89730401D01*
X164342817Y-89710343D01*
X164511907Y-89651176D01*
X164663592Y-89555866D01*
X164790265Y-89429193D01*
X164885575Y-89277508D01*
X164944742Y-89108418D01*
X164964800Y-88930401D01*
X164944742Y-88752384D01*
X164885575Y-88583294D01*
X164790265Y-88431609D01*
X164663592Y-88304936D01*
X164511907Y-88209626D01*
X164342817Y-88150459D01*
X164164800Y-88130401D01*
X163986783Y-88150459D01*
X163817693Y-88209626D01*
X163666008Y-88304936D01*
X163539335Y-88431609D01*
X163444025Y-88583294D01*
X163384858Y-88752384D01*
X163364800Y-88930401D01*
X149364800Y-88930401D01*
X149364800Y-87680401D01*
X160864800Y-87680401D01*
X160884858Y-87858418D01*
X160944025Y-88027508D01*
X161039335Y-88179193D01*
X161166008Y-88305866D01*
X161317693Y-88401176D01*
X161486783Y-88460343D01*
X161664800Y-88480401D01*
X161842817Y-88460343D01*
X162011907Y-88401176D01*
X162163592Y-88305866D01*
X162290265Y-88179193D01*
X162385575Y-88027508D01*
X162444742Y-87858418D01*
X162464800Y-87680401D01*
X162444742Y-87502384D01*
X162385575Y-87333294D01*
X162290265Y-87181609D01*
X162163592Y-87054936D01*
X162011907Y-86959626D01*
X161842817Y-86900459D01*
X161664800Y-86880401D01*
X161486783Y-86900459D01*
X161317693Y-86959626D01*
X161166008Y-87054936D01*
X161039335Y-87181609D01*
X160944025Y-87333294D01*
X160884858Y-87502384D01*
X160864800Y-87680401D01*
X149364800Y-87680401D01*
X149364800Y-86430401D01*
X163364800Y-86430401D01*
X163384858Y-86608418D01*
X163444025Y-86777508D01*
X163539335Y-86929193D01*
X163666008Y-87055866D01*
X163817693Y-87151176D01*
X163986783Y-87210343D01*
X164164800Y-87230401D01*
X164342817Y-87210343D01*
X164511907Y-87151176D01*
X164663592Y-87055866D01*
X164790265Y-86929193D01*
X164885575Y-86777508D01*
X164944742Y-86608418D01*
X164964800Y-86430401D01*
X164944742Y-86252384D01*
X164885575Y-86083294D01*
X164790265Y-85931609D01*
X164663592Y-85804936D01*
X164511907Y-85709626D01*
X164342817Y-85650459D01*
X164164800Y-85630401D01*
X163986783Y-85650459D01*
X163817693Y-85709626D01*
X163666008Y-85804936D01*
X163539335Y-85931609D01*
X163444025Y-86083294D01*
X163384858Y-86252384D01*
X163364800Y-86430401D01*
X149364800Y-86430401D01*
X149364800Y-85180401D01*
X160864800Y-85180401D01*
X160884858Y-85358418D01*
X160944025Y-85527508D01*
X161039335Y-85679193D01*
X161166008Y-85805866D01*
X161317693Y-85901176D01*
X161486783Y-85960343D01*
X161664800Y-85980401D01*
X161842817Y-85960343D01*
X162011907Y-85901176D01*
X162163592Y-85805866D01*
X162290265Y-85679193D01*
X162385575Y-85527508D01*
X162444742Y-85358418D01*
X162464800Y-85180401D01*
X162444742Y-85002384D01*
X162385575Y-84833294D01*
X162290265Y-84681609D01*
X162163592Y-84554936D01*
X162011907Y-84459626D01*
X161842817Y-84400459D01*
X161664800Y-84380401D01*
X161486783Y-84400459D01*
X161317693Y-84459626D01*
X161166008Y-84554936D01*
X161039335Y-84681609D01*
X160944025Y-84833294D01*
X160884858Y-85002384D01*
X160864800Y-85180401D01*
X149364800Y-85180401D01*
X149364800Y-83930401D01*
X163364800Y-83930401D01*
X163384858Y-84108418D01*
X163444025Y-84277508D01*
X163539335Y-84429193D01*
X163666008Y-84555866D01*
X163817693Y-84651176D01*
X163986783Y-84710343D01*
X164164800Y-84730401D01*
X164342817Y-84710343D01*
X164511907Y-84651176D01*
X164663592Y-84555866D01*
X164790265Y-84429193D01*
X164885575Y-84277508D01*
X164944742Y-84108418D01*
X164964800Y-83930401D01*
X164944742Y-83752384D01*
X164885575Y-83583294D01*
X164790265Y-83431609D01*
X164663592Y-83304936D01*
X164511907Y-83209626D01*
X164342817Y-83150459D01*
X164164800Y-83130401D01*
X163986783Y-83150459D01*
X163817693Y-83209626D01*
X163666008Y-83304936D01*
X163539335Y-83431609D01*
X163444025Y-83583294D01*
X163384858Y-83752384D01*
X163364800Y-83930401D01*
X149364800Y-83930401D01*
X149364800Y-82680401D01*
X160864800Y-82680401D01*
X160884858Y-82858418D01*
X160944025Y-83027508D01*
X161039335Y-83179193D01*
X161166008Y-83305866D01*
X161317693Y-83401176D01*
X161486783Y-83460343D01*
X161664800Y-83480401D01*
X161842817Y-83460343D01*
X162011907Y-83401176D01*
X162163592Y-83305866D01*
X162290265Y-83179193D01*
X162385575Y-83027508D01*
X162444742Y-82858418D01*
X162464800Y-82680401D01*
X162444742Y-82502384D01*
X162385575Y-82333294D01*
X162290265Y-82181609D01*
X162163592Y-82054936D01*
X162011907Y-81959626D01*
X161842817Y-81900459D01*
X161664800Y-81880401D01*
X161486783Y-81900459D01*
X161317693Y-81959626D01*
X161166008Y-82054936D01*
X161039335Y-82181609D01*
X160944025Y-82333294D01*
X160884858Y-82502384D01*
X160864800Y-82680401D01*
X149364800Y-82680401D01*
X149364800Y-81430401D01*
X163364800Y-81430401D01*
X163384858Y-81608418D01*
X163444025Y-81777508D01*
X163539335Y-81929193D01*
X163666008Y-82055866D01*
X163817693Y-82151176D01*
X163986783Y-82210343D01*
X164164800Y-82230401D01*
X164342817Y-82210343D01*
X164511907Y-82151176D01*
X164663592Y-82055866D01*
X164790265Y-81929193D01*
X164885575Y-81777508D01*
X164944742Y-81608418D01*
X164964800Y-81430401D01*
X164944742Y-81252384D01*
X164885575Y-81083294D01*
X164790265Y-80931609D01*
X164663592Y-80804936D01*
X164511907Y-80709626D01*
X164342817Y-80650459D01*
X164164800Y-80630401D01*
X163986783Y-80650459D01*
X163817693Y-80709626D01*
X163666008Y-80804936D01*
X163539335Y-80931609D01*
X163444025Y-81083294D01*
X163384858Y-81252384D01*
X163364800Y-81430401D01*
X149364800Y-81430401D01*
X149364800Y-80180401D01*
X160864800Y-80180401D01*
X160884858Y-80358418D01*
X160944025Y-80527508D01*
X161039335Y-80679193D01*
X161166008Y-80805866D01*
X161317693Y-80901176D01*
X161486783Y-80960343D01*
X161664800Y-80980401D01*
X161842817Y-80960343D01*
X162011907Y-80901176D01*
X162163592Y-80805866D01*
X162290265Y-80679193D01*
X162385575Y-80527508D01*
X162444742Y-80358418D01*
X162464800Y-80180401D01*
X162444742Y-80002384D01*
X162385575Y-79833294D01*
X162290265Y-79681609D01*
X162163592Y-79554936D01*
X162011907Y-79459626D01*
X161842817Y-79400459D01*
X161664800Y-79380401D01*
X161486783Y-79400459D01*
X161317693Y-79459626D01*
X161166008Y-79554936D01*
X161039335Y-79681609D01*
X160944025Y-79833294D01*
X160884858Y-80002384D01*
X160864800Y-80180401D01*
X149364800Y-80180401D01*
X149364800Y-78930401D01*
X163364800Y-78930401D01*
X163384858Y-79108418D01*
X163444025Y-79277508D01*
X163539335Y-79429193D01*
X163666008Y-79555866D01*
X163817693Y-79651176D01*
X163986783Y-79710343D01*
X164164800Y-79730401D01*
X164342817Y-79710343D01*
X164511907Y-79651176D01*
X164663592Y-79555866D01*
X164790265Y-79429193D01*
X164885575Y-79277508D01*
X164944742Y-79108418D01*
X164964800Y-78930401D01*
X164944742Y-78752384D01*
X164885575Y-78583294D01*
X164790265Y-78431609D01*
X164663592Y-78304936D01*
X164511907Y-78209626D01*
X164342817Y-78150459D01*
X164164800Y-78130401D01*
X163986783Y-78150459D01*
X163817693Y-78209626D01*
X163666008Y-78304936D01*
X163539335Y-78431609D01*
X163444025Y-78583294D01*
X163384858Y-78752384D01*
X163364800Y-78930401D01*
X149364800Y-78930401D01*
X149364800Y-77680401D01*
X160864800Y-77680401D01*
X160884858Y-77858418D01*
X160944025Y-78027508D01*
X161039335Y-78179193D01*
X161166008Y-78305866D01*
X161317693Y-78401176D01*
X161486783Y-78460343D01*
X161664800Y-78480401D01*
X161842817Y-78460343D01*
X162011907Y-78401176D01*
X162163592Y-78305866D01*
X162290265Y-78179193D01*
X162385575Y-78027508D01*
X162444742Y-77858418D01*
X162464800Y-77680401D01*
X162444742Y-77502384D01*
X162385575Y-77333294D01*
X162290265Y-77181609D01*
X162163592Y-77054936D01*
X162011907Y-76959626D01*
X161842817Y-76900459D01*
X161664800Y-76880401D01*
X161486783Y-76900459D01*
X161317693Y-76959626D01*
X161166008Y-77054936D01*
X161039335Y-77181609D01*
X160944025Y-77333294D01*
X160884858Y-77502384D01*
X160864800Y-77680401D01*
X149364800Y-77680401D01*
X149364800Y-72380401D01*
X149383267Y-72145749D01*
X149438215Y-71916876D01*
X149528290Y-71699415D01*
X149651275Y-71498723D01*
X149804140Y-71319741D01*
X149983122Y-71166876D01*
X150183814Y-71043891D01*
X150401275Y-70953816D01*
X150630148Y-70898868D01*
X150864800Y-70880401D01*
X174964799Y-70880401D01*
X175199451Y-70898868D01*
G37*
M02*
