%TF.GenerationSoftware,KiCad,Pcbnew,(5.1.10)-1*%
%TF.CreationDate,2023-09-11T18:35:05-05:00*%
%TF.ProjectId,perovskite_contact_board,7065726f-7673-46b6-9974-655f636f6e74,V3*%
%TF.SameCoordinates,Original*%
%TF.FileFunction,Paste,Top*%
%TF.FilePolarity,Positive*%
%FSLAX46Y46*%
G04 Gerber Fmt 4.6, Leading zero omitted, Abs format (unit mm)*
G04 Created by KiCad (PCBNEW (5.1.10)-1) date 2023-09-11 18:35:05*
%MOMM*%
%LPD*%
G01*
G04 APERTURE LIST*
%ADD10R,0.350000X0.500000*%
%ADD11R,4.000000X4.000000*%
%ADD12R,3.800000X7.400000*%
G04 APERTURE END LIST*
D10*
%TO.C,U7*%
X158963000Y-88451800D03*
X158313000Y-88451800D03*
X157663000Y-88451800D03*
X157013000Y-88451800D03*
X157013000Y-86401800D03*
X157663000Y-86401800D03*
X158313000Y-86401800D03*
X158963000Y-86401800D03*
%TD*%
%TO.C,C2*%
G36*
G01*
X156912500Y-90863300D02*
X157412500Y-90863300D01*
G75*
G02*
X157637500Y-91088300I0J-225000D01*
G01*
X157637500Y-91538300D01*
G75*
G02*
X157412500Y-91763300I-225000J0D01*
G01*
X156912500Y-91763300D01*
G75*
G02*
X156687500Y-91538300I0J225000D01*
G01*
X156687500Y-91088300D01*
G75*
G02*
X156912500Y-90863300I225000J0D01*
G01*
G37*
G36*
G01*
X156912500Y-89313300D02*
X157412500Y-89313300D01*
G75*
G02*
X157637500Y-89538300I0J-225000D01*
G01*
X157637500Y-89988300D01*
G75*
G02*
X157412500Y-90213300I-225000J0D01*
G01*
X156912500Y-90213300D01*
G75*
G02*
X156687500Y-89988300I0J225000D01*
G01*
X156687500Y-89538300D01*
G75*
G02*
X156912500Y-89313300I225000J0D01*
G01*
G37*
%TD*%
%TO.C,C1*%
G36*
G01*
X158436500Y-90863300D02*
X158936500Y-90863300D01*
G75*
G02*
X159161500Y-91088300I0J-225000D01*
G01*
X159161500Y-91538300D01*
G75*
G02*
X158936500Y-91763300I-225000J0D01*
G01*
X158436500Y-91763300D01*
G75*
G02*
X158211500Y-91538300I0J225000D01*
G01*
X158211500Y-91088300D01*
G75*
G02*
X158436500Y-90863300I225000J0D01*
G01*
G37*
G36*
G01*
X158436500Y-89313300D02*
X158936500Y-89313300D01*
G75*
G02*
X159161500Y-89538300I0J-225000D01*
G01*
X159161500Y-89988300D01*
G75*
G02*
X158936500Y-90213300I-225000J0D01*
G01*
X158436500Y-90213300D01*
G75*
G02*
X158211500Y-89988300I0J225000D01*
G01*
X158211500Y-89538300D01*
G75*
G02*
X158436500Y-89313300I225000J0D01*
G01*
G37*
%TD*%
D11*
%TO.C,U3*%
X162577500Y-100463000D03*
X162577500Y-120663000D03*
X173177500Y-110763000D03*
X152877500Y-110713000D03*
D12*
X173377500Y-118913000D03*
X173377500Y-102463000D03*
X152777500Y-102463000D03*
X152777500Y-118913000D03*
%TD*%
D11*
%TO.C,U2*%
X136479000Y-100263000D03*
X136479000Y-120463000D03*
X147079000Y-110563000D03*
X126779000Y-110513000D03*
D12*
X147279000Y-118713000D03*
X147279000Y-102263000D03*
X126679000Y-102263000D03*
X126679000Y-118713000D03*
%TD*%
D11*
%TO.C,U1*%
X162514000Y-74260000D03*
X162514000Y-94460000D03*
X173114000Y-84560000D03*
X152814000Y-84510000D03*
D12*
X173314000Y-92710000D03*
X173314000Y-76260000D03*
X152714000Y-76260000D03*
X152714000Y-92710000D03*
%TD*%
M02*
