%TF.GenerationSoftware,KiCad,Pcbnew,(5.1.10)-1*%
%TF.CreationDate,2023-09-11T18:35:05-05:00*%
%TF.ProjectId,perovskite_contact_board,7065726f-7673-46b6-9974-655f636f6e74,V3*%
%TF.SameCoordinates,Original*%
%TF.FileFunction,Legend,Top*%
%TF.FilePolarity,Positive*%
%FSLAX46Y46*%
G04 Gerber Fmt 4.6, Leading zero omitted, Abs format (unit mm)*
G04 Created by KiCad (PCBNEW (5.1.10)-1) date 2023-09-11 18:35:05*
%MOMM*%
%LPD*%
G01*
G04 APERTURE LIST*
%ADD10C,0.100000*%
%ADD11C,0.120000*%
G04 APERTURE END LIST*
D10*
%TO.C,U7*%
X156638000Y-88786800D02*
X156788000Y-88786800D01*
X156638000Y-88776800D02*
X156638000Y-88626800D01*
X159338000Y-88776800D02*
X159338000Y-88626800D01*
X159338000Y-88776800D02*
X159188000Y-88776800D01*
X159188000Y-86076800D02*
X159338000Y-86076800D01*
X159338000Y-86076800D02*
X159338000Y-86226800D01*
X156638000Y-86226800D02*
X156638000Y-85976800D01*
D11*
%TO.C,C2*%
X157672500Y-90397720D02*
X157672500Y-90678880D01*
X156652500Y-90397720D02*
X156652500Y-90678880D01*
%TO.C,C1*%
X159196500Y-90397720D02*
X159196500Y-90678880D01*
X158176500Y-90397720D02*
X158176500Y-90678880D01*
%TO.C,U3*%
X150177500Y-123463000D02*
X150177500Y-97813000D01*
X175827500Y-123463000D02*
X175827500Y-97813000D01*
X150177500Y-97813000D02*
X175827500Y-97813000D01*
X150177500Y-123463000D02*
X175827500Y-123463000D01*
%TO.C,JP103.8*%
X157968800Y-76352400D02*
G75*
G03*
X157968800Y-76352400I-1200000J0D01*
G01*
%TO.C,JP103.11*%
X159696000Y-73863200D02*
G75*
G03*
X159696000Y-73863200I-1200000J0D01*
G01*
%TO.C,U2*%
X124079000Y-123263000D02*
X124079000Y-97613000D01*
X149729000Y-123263000D02*
X149729000Y-97613000D01*
X124079000Y-97613000D02*
X149729000Y-97613000D01*
X124079000Y-123263000D02*
X149729000Y-123263000D01*
%TO.C,JP103.2*%
X159086400Y-79806800D02*
G75*
G03*
X159086400Y-79806800I-1200000J0D01*
G01*
%TO.C,JP103.1*%
X158222800Y-83515200D02*
G75*
G03*
X158222800Y-83515200I-1200000J0D01*
G01*
%TO.C,U1*%
X150114000Y-97260000D02*
X150114000Y-71610000D01*
X175764000Y-97260000D02*
X175764000Y-71610000D01*
X150114000Y-71610000D02*
X175764000Y-71610000D01*
X150114000Y-97260000D02*
X175764000Y-97260000D01*
%TO.C,U7*%
D10*
X157607047Y-85184490D02*
X157607047Y-85589252D01*
X157630857Y-85636871D01*
X157654666Y-85660680D01*
X157702285Y-85684490D01*
X157797523Y-85684490D01*
X157845142Y-85660680D01*
X157868952Y-85636871D01*
X157892761Y-85589252D01*
X157892761Y-85184490D01*
X158083238Y-85184490D02*
X158416571Y-85184490D01*
X158202285Y-85684490D01*
%TO.C,C2*%
X156261571Y-90621633D02*
X156285380Y-90645442D01*
X156309190Y-90716871D01*
X156309190Y-90764490D01*
X156285380Y-90835919D01*
X156237761Y-90883538D01*
X156190142Y-90907347D01*
X156094904Y-90931157D01*
X156023476Y-90931157D01*
X155928238Y-90907347D01*
X155880619Y-90883538D01*
X155833000Y-90835919D01*
X155809190Y-90764490D01*
X155809190Y-90716871D01*
X155833000Y-90645442D01*
X155856809Y-90621633D01*
X155856809Y-90431157D02*
X155833000Y-90407347D01*
X155809190Y-90359728D01*
X155809190Y-90240680D01*
X155833000Y-90193061D01*
X155856809Y-90169252D01*
X155904428Y-90145442D01*
X155952047Y-90145442D01*
X156023476Y-90169252D01*
X156309190Y-90454966D01*
X156309190Y-90145442D01*
%TO.C,C1*%
X159944571Y-90621633D02*
X159968380Y-90645442D01*
X159992190Y-90716871D01*
X159992190Y-90764490D01*
X159968380Y-90835919D01*
X159920761Y-90883538D01*
X159873142Y-90907347D01*
X159777904Y-90931157D01*
X159706476Y-90931157D01*
X159611238Y-90907347D01*
X159563619Y-90883538D01*
X159516000Y-90835919D01*
X159492190Y-90764490D01*
X159492190Y-90716871D01*
X159516000Y-90645442D01*
X159539809Y-90621633D01*
X159992190Y-90145442D02*
X159992190Y-90431157D01*
X159992190Y-90288300D02*
X159492190Y-90288300D01*
X159563619Y-90335919D01*
X159611238Y-90383538D01*
X159635047Y-90431157D01*
%TD*%
M02*
