%TF.GenerationSoftware,KiCad,Pcbnew,(5.1.10)-1*%
%TF.CreationDate,2023-02-12T14:12:42-06:00*%
%TF.ProjectId,neopixel_board,6e656f70-6978-4656-9c5f-626f6172642e,rev?*%
%TF.SameCoordinates,Original*%
%TF.FileFunction,Paste,Bot*%
%TF.FilePolarity,Positive*%
%FSLAX46Y46*%
G04 Gerber Fmt 4.6, Leading zero omitted, Abs format (unit mm)*
G04 Created by KiCad (PCBNEW (5.1.10)-1) date 2023-02-12 14:12:42*
%MOMM*%
%LPD*%
G01*
G04 APERTURE LIST*
G04 APERTURE END LIST*
%TO.C,C21*%
G36*
G01*
X141180400Y-97264200D02*
X141180400Y-98214200D01*
G75*
G02*
X140930400Y-98464200I-250000J0D01*
G01*
X140430400Y-98464200D01*
G75*
G02*
X140180400Y-98214200I0J250000D01*
G01*
X140180400Y-97264200D01*
G75*
G02*
X140430400Y-97014200I250000J0D01*
G01*
X140930400Y-97014200D01*
G75*
G02*
X141180400Y-97264200I0J-250000D01*
G01*
G37*
G36*
G01*
X143080400Y-97264200D02*
X143080400Y-98214200D01*
G75*
G02*
X142830400Y-98464200I-250000J0D01*
G01*
X142330400Y-98464200D01*
G75*
G02*
X142080400Y-98214200I0J250000D01*
G01*
X142080400Y-97264200D01*
G75*
G02*
X142330400Y-97014200I250000J0D01*
G01*
X142830400Y-97014200D01*
G75*
G02*
X143080400Y-97264200I0J-250000D01*
G01*
G37*
%TD*%
%TO.C,C20*%
G36*
G01*
X136252800Y-97213400D02*
X136252800Y-98163400D01*
G75*
G02*
X136002800Y-98413400I-250000J0D01*
G01*
X135502800Y-98413400D01*
G75*
G02*
X135252800Y-98163400I0J250000D01*
G01*
X135252800Y-97213400D01*
G75*
G02*
X135502800Y-96963400I250000J0D01*
G01*
X136002800Y-96963400D01*
G75*
G02*
X136252800Y-97213400I0J-250000D01*
G01*
G37*
G36*
G01*
X138152800Y-97213400D02*
X138152800Y-98163400D01*
G75*
G02*
X137902800Y-98413400I-250000J0D01*
G01*
X137402800Y-98413400D01*
G75*
G02*
X137152800Y-98163400I0J250000D01*
G01*
X137152800Y-97213400D01*
G75*
G02*
X137402800Y-96963400I250000J0D01*
G01*
X137902800Y-96963400D01*
G75*
G02*
X138152800Y-97213400I0J-250000D01*
G01*
G37*
%TD*%
%TO.C,C19*%
G36*
G01*
X131020400Y-97213400D02*
X131020400Y-98163400D01*
G75*
G02*
X130770400Y-98413400I-250000J0D01*
G01*
X130270400Y-98413400D01*
G75*
G02*
X130020400Y-98163400I0J250000D01*
G01*
X130020400Y-97213400D01*
G75*
G02*
X130270400Y-96963400I250000J0D01*
G01*
X130770400Y-96963400D01*
G75*
G02*
X131020400Y-97213400I0J-250000D01*
G01*
G37*
G36*
G01*
X132920400Y-97213400D02*
X132920400Y-98163400D01*
G75*
G02*
X132670400Y-98413400I-250000J0D01*
G01*
X132170400Y-98413400D01*
G75*
G02*
X131920400Y-98163400I0J250000D01*
G01*
X131920400Y-97213400D01*
G75*
G02*
X132170400Y-96963400I250000J0D01*
G01*
X132670400Y-96963400D01*
G75*
G02*
X132920400Y-97213400I0J-250000D01*
G01*
G37*
%TD*%
%TO.C,C18*%
G36*
G01*
X141028000Y-90711000D02*
X141028000Y-91661000D01*
G75*
G02*
X140778000Y-91911000I-250000J0D01*
G01*
X140278000Y-91911000D01*
G75*
G02*
X140028000Y-91661000I0J250000D01*
G01*
X140028000Y-90711000D01*
G75*
G02*
X140278000Y-90461000I250000J0D01*
G01*
X140778000Y-90461000D01*
G75*
G02*
X141028000Y-90711000I0J-250000D01*
G01*
G37*
G36*
G01*
X142928000Y-90711000D02*
X142928000Y-91661000D01*
G75*
G02*
X142678000Y-91911000I-250000J0D01*
G01*
X142178000Y-91911000D01*
G75*
G02*
X141928000Y-91661000I0J250000D01*
G01*
X141928000Y-90711000D01*
G75*
G02*
X142178000Y-90461000I250000J0D01*
G01*
X142678000Y-90461000D01*
G75*
G02*
X142928000Y-90711000I0J-250000D01*
G01*
G37*
%TD*%
%TO.C,C17*%
G36*
G01*
X136354400Y-90660200D02*
X136354400Y-91610200D01*
G75*
G02*
X136104400Y-91860200I-250000J0D01*
G01*
X135604400Y-91860200D01*
G75*
G02*
X135354400Y-91610200I0J250000D01*
G01*
X135354400Y-90660200D01*
G75*
G02*
X135604400Y-90410200I250000J0D01*
G01*
X136104400Y-90410200D01*
G75*
G02*
X136354400Y-90660200I0J-250000D01*
G01*
G37*
G36*
G01*
X138254400Y-90660200D02*
X138254400Y-91610200D01*
G75*
G02*
X138004400Y-91860200I-250000J0D01*
G01*
X137504400Y-91860200D01*
G75*
G02*
X137254400Y-91610200I0J250000D01*
G01*
X137254400Y-90660200D01*
G75*
G02*
X137504400Y-90410200I250000J0D01*
G01*
X138004400Y-90410200D01*
G75*
G02*
X138254400Y-90660200I0J-250000D01*
G01*
G37*
%TD*%
%TO.C,C16*%
G36*
G01*
X130918800Y-90558600D02*
X130918800Y-91508600D01*
G75*
G02*
X130668800Y-91758600I-250000J0D01*
G01*
X130168800Y-91758600D01*
G75*
G02*
X129918800Y-91508600I0J250000D01*
G01*
X129918800Y-90558600D01*
G75*
G02*
X130168800Y-90308600I250000J0D01*
G01*
X130668800Y-90308600D01*
G75*
G02*
X130918800Y-90558600I0J-250000D01*
G01*
G37*
G36*
G01*
X132818800Y-90558600D02*
X132818800Y-91508600D01*
G75*
G02*
X132568800Y-91758600I-250000J0D01*
G01*
X132068800Y-91758600D01*
G75*
G02*
X131818800Y-91508600I0J250000D01*
G01*
X131818800Y-90558600D01*
G75*
G02*
X132068800Y-90308600I250000J0D01*
G01*
X132568800Y-90308600D01*
G75*
G02*
X132818800Y-90558600I0J-250000D01*
G01*
G37*
%TD*%
%TO.C,C15*%
G36*
G01*
X112717200Y-98178600D02*
X112717200Y-99128600D01*
G75*
G02*
X112467200Y-99378600I-250000J0D01*
G01*
X111967200Y-99378600D01*
G75*
G02*
X111717200Y-99128600I0J250000D01*
G01*
X111717200Y-98178600D01*
G75*
G02*
X111967200Y-97928600I250000J0D01*
G01*
X112467200Y-97928600D01*
G75*
G02*
X112717200Y-98178600I0J-250000D01*
G01*
G37*
G36*
G01*
X114617200Y-98178600D02*
X114617200Y-99128600D01*
G75*
G02*
X114367200Y-99378600I-250000J0D01*
G01*
X113867200Y-99378600D01*
G75*
G02*
X113617200Y-99128600I0J250000D01*
G01*
X113617200Y-98178600D01*
G75*
G02*
X113867200Y-97928600I250000J0D01*
G01*
X114367200Y-97928600D01*
G75*
G02*
X114617200Y-98178600I0J-250000D01*
G01*
G37*
%TD*%
%TO.C,C14*%
G36*
G01*
X107804800Y-98331000D02*
X107804800Y-99281000D01*
G75*
G02*
X107554800Y-99531000I-250000J0D01*
G01*
X107054800Y-99531000D01*
G75*
G02*
X106804800Y-99281000I0J250000D01*
G01*
X106804800Y-98331000D01*
G75*
G02*
X107054800Y-98081000I250000J0D01*
G01*
X107554800Y-98081000D01*
G75*
G02*
X107804800Y-98331000I0J-250000D01*
G01*
G37*
G36*
G01*
X109704800Y-98331000D02*
X109704800Y-99281000D01*
G75*
G02*
X109454800Y-99531000I-250000J0D01*
G01*
X108954800Y-99531000D01*
G75*
G02*
X108704800Y-99281000I0J250000D01*
G01*
X108704800Y-98331000D01*
G75*
G02*
X108954800Y-98081000I250000J0D01*
G01*
X109454800Y-98081000D01*
G75*
G02*
X109704800Y-98331000I0J-250000D01*
G01*
G37*
%TD*%
%TO.C,C13*%
G36*
G01*
X102420000Y-98381800D02*
X102420000Y-99331800D01*
G75*
G02*
X102170000Y-99581800I-250000J0D01*
G01*
X101670000Y-99581800D01*
G75*
G02*
X101420000Y-99331800I0J250000D01*
G01*
X101420000Y-98381800D01*
G75*
G02*
X101670000Y-98131800I250000J0D01*
G01*
X102170000Y-98131800D01*
G75*
G02*
X102420000Y-98381800I0J-250000D01*
G01*
G37*
G36*
G01*
X104320000Y-98381800D02*
X104320000Y-99331800D01*
G75*
G02*
X104070000Y-99581800I-250000J0D01*
G01*
X103570000Y-99581800D01*
G75*
G02*
X103320000Y-99331800I0J250000D01*
G01*
X103320000Y-98381800D01*
G75*
G02*
X103570000Y-98131800I250000J0D01*
G01*
X104070000Y-98131800D01*
G75*
G02*
X104320000Y-98381800I0J-250000D01*
G01*
G37*
%TD*%
%TO.C,C12*%
G36*
G01*
X112580000Y-91574600D02*
X112580000Y-92524600D01*
G75*
G02*
X112330000Y-92774600I-250000J0D01*
G01*
X111830000Y-92774600D01*
G75*
G02*
X111580000Y-92524600I0J250000D01*
G01*
X111580000Y-91574600D01*
G75*
G02*
X111830000Y-91324600I250000J0D01*
G01*
X112330000Y-91324600D01*
G75*
G02*
X112580000Y-91574600I0J-250000D01*
G01*
G37*
G36*
G01*
X114480000Y-91574600D02*
X114480000Y-92524600D01*
G75*
G02*
X114230000Y-92774600I-250000J0D01*
G01*
X113730000Y-92774600D01*
G75*
G02*
X113480000Y-92524600I0J250000D01*
G01*
X113480000Y-91574600D01*
G75*
G02*
X113730000Y-91324600I250000J0D01*
G01*
X114230000Y-91324600D01*
G75*
G02*
X114480000Y-91574600I0J-250000D01*
G01*
G37*
%TD*%
%TO.C,C11*%
G36*
G01*
X107738800Y-91523800D02*
X107738800Y-92473800D01*
G75*
G02*
X107488800Y-92723800I-250000J0D01*
G01*
X106988800Y-92723800D01*
G75*
G02*
X106738800Y-92473800I0J250000D01*
G01*
X106738800Y-91523800D01*
G75*
G02*
X106988800Y-91273800I250000J0D01*
G01*
X107488800Y-91273800D01*
G75*
G02*
X107738800Y-91523800I0J-250000D01*
G01*
G37*
G36*
G01*
X109638800Y-91523800D02*
X109638800Y-92473800D01*
G75*
G02*
X109388800Y-92723800I-250000J0D01*
G01*
X108888800Y-92723800D01*
G75*
G02*
X108638800Y-92473800I0J250000D01*
G01*
X108638800Y-91523800D01*
G75*
G02*
X108888800Y-91273800I250000J0D01*
G01*
X109388800Y-91273800D01*
G75*
G02*
X109638800Y-91523800I0J-250000D01*
G01*
G37*
%TD*%
%TO.C,C10*%
G36*
G01*
X102521600Y-91422200D02*
X102521600Y-92372200D01*
G75*
G02*
X102271600Y-92622200I-250000J0D01*
G01*
X101771600Y-92622200D01*
G75*
G02*
X101521600Y-92372200I0J250000D01*
G01*
X101521600Y-91422200D01*
G75*
G02*
X101771600Y-91172200I250000J0D01*
G01*
X102271600Y-91172200D01*
G75*
G02*
X102521600Y-91422200I0J-250000D01*
G01*
G37*
G36*
G01*
X104421600Y-91422200D02*
X104421600Y-92372200D01*
G75*
G02*
X104171600Y-92622200I-250000J0D01*
G01*
X103671600Y-92622200D01*
G75*
G02*
X103421600Y-92372200I0J250000D01*
G01*
X103421600Y-91422200D01*
G75*
G02*
X103671600Y-91172200I250000J0D01*
G01*
X104171600Y-91172200D01*
G75*
G02*
X104421600Y-91422200I0J-250000D01*
G01*
G37*
%TD*%
%TO.C,C9*%
G36*
G01*
X112986400Y-72118200D02*
X112986400Y-73068200D01*
G75*
G02*
X112736400Y-73318200I-250000J0D01*
G01*
X112236400Y-73318200D01*
G75*
G02*
X111986400Y-73068200I0J250000D01*
G01*
X111986400Y-72118200D01*
G75*
G02*
X112236400Y-71868200I250000J0D01*
G01*
X112736400Y-71868200D01*
G75*
G02*
X112986400Y-72118200I0J-250000D01*
G01*
G37*
G36*
G01*
X114886400Y-72118200D02*
X114886400Y-73068200D01*
G75*
G02*
X114636400Y-73318200I-250000J0D01*
G01*
X114136400Y-73318200D01*
G75*
G02*
X113886400Y-73068200I0J250000D01*
G01*
X113886400Y-72118200D01*
G75*
G02*
X114136400Y-71868200I250000J0D01*
G01*
X114636400Y-71868200D01*
G75*
G02*
X114886400Y-72118200I0J-250000D01*
G01*
G37*
%TD*%
%TO.C,C8*%
G36*
G01*
X108211200Y-72169000D02*
X108211200Y-73119000D01*
G75*
G02*
X107961200Y-73369000I-250000J0D01*
G01*
X107461200Y-73369000D01*
G75*
G02*
X107211200Y-73119000I0J250000D01*
G01*
X107211200Y-72169000D01*
G75*
G02*
X107461200Y-71919000I250000J0D01*
G01*
X107961200Y-71919000D01*
G75*
G02*
X108211200Y-72169000I0J-250000D01*
G01*
G37*
G36*
G01*
X110111200Y-72169000D02*
X110111200Y-73119000D01*
G75*
G02*
X109861200Y-73369000I-250000J0D01*
G01*
X109361200Y-73369000D01*
G75*
G02*
X109111200Y-73119000I0J250000D01*
G01*
X109111200Y-72169000D01*
G75*
G02*
X109361200Y-71919000I250000J0D01*
G01*
X109861200Y-71919000D01*
G75*
G02*
X110111200Y-72169000I0J-250000D01*
G01*
G37*
%TD*%
%TO.C,C7*%
G36*
G01*
X102775600Y-72118200D02*
X102775600Y-73068200D01*
G75*
G02*
X102525600Y-73318200I-250000J0D01*
G01*
X102025600Y-73318200D01*
G75*
G02*
X101775600Y-73068200I0J250000D01*
G01*
X101775600Y-72118200D01*
G75*
G02*
X102025600Y-71868200I250000J0D01*
G01*
X102525600Y-71868200D01*
G75*
G02*
X102775600Y-72118200I0J-250000D01*
G01*
G37*
G36*
G01*
X104675600Y-72118200D02*
X104675600Y-73068200D01*
G75*
G02*
X104425600Y-73318200I-250000J0D01*
G01*
X103925600Y-73318200D01*
G75*
G02*
X103675600Y-73068200I0J250000D01*
G01*
X103675600Y-72118200D01*
G75*
G02*
X103925600Y-71868200I250000J0D01*
G01*
X104425600Y-71868200D01*
G75*
G02*
X104675600Y-72118200I0J-250000D01*
G01*
G37*
%TD*%
%TO.C,C6*%
G36*
G01*
X113037200Y-65615800D02*
X113037200Y-66565800D01*
G75*
G02*
X112787200Y-66815800I-250000J0D01*
G01*
X112287200Y-66815800D01*
G75*
G02*
X112037200Y-66565800I0J250000D01*
G01*
X112037200Y-65615800D01*
G75*
G02*
X112287200Y-65365800I250000J0D01*
G01*
X112787200Y-65365800D01*
G75*
G02*
X113037200Y-65615800I0J-250000D01*
G01*
G37*
G36*
G01*
X114937200Y-65615800D02*
X114937200Y-66565800D01*
G75*
G02*
X114687200Y-66815800I-250000J0D01*
G01*
X114187200Y-66815800D01*
G75*
G02*
X113937200Y-66565800I0J250000D01*
G01*
X113937200Y-65615800D01*
G75*
G02*
X114187200Y-65365800I250000J0D01*
G01*
X114687200Y-65365800D01*
G75*
G02*
X114937200Y-65615800I0J-250000D01*
G01*
G37*
%TD*%
%TO.C,C5*%
G36*
G01*
X108196000Y-65514200D02*
X108196000Y-66464200D01*
G75*
G02*
X107946000Y-66714200I-250000J0D01*
G01*
X107446000Y-66714200D01*
G75*
G02*
X107196000Y-66464200I0J250000D01*
G01*
X107196000Y-65514200D01*
G75*
G02*
X107446000Y-65264200I250000J0D01*
G01*
X107946000Y-65264200D01*
G75*
G02*
X108196000Y-65514200I0J-250000D01*
G01*
G37*
G36*
G01*
X110096000Y-65514200D02*
X110096000Y-66464200D01*
G75*
G02*
X109846000Y-66714200I-250000J0D01*
G01*
X109346000Y-66714200D01*
G75*
G02*
X109096000Y-66464200I0J250000D01*
G01*
X109096000Y-65514200D01*
G75*
G02*
X109346000Y-65264200I250000J0D01*
G01*
X109846000Y-65264200D01*
G75*
G02*
X110096000Y-65514200I0J-250000D01*
G01*
G37*
%TD*%
%TO.C,C4*%
G36*
G01*
X103828000Y-66565800D02*
X103828000Y-65615800D01*
G75*
G02*
X104078000Y-65365800I250000J0D01*
G01*
X104578000Y-65365800D01*
G75*
G02*
X104828000Y-65615800I0J-250000D01*
G01*
X104828000Y-66565800D01*
G75*
G02*
X104578000Y-66815800I-250000J0D01*
G01*
X104078000Y-66815800D01*
G75*
G02*
X103828000Y-66565800I0J250000D01*
G01*
G37*
G36*
G01*
X101928000Y-66565800D02*
X101928000Y-65615800D01*
G75*
G02*
X102178000Y-65365800I250000J0D01*
G01*
X102678000Y-65365800D01*
G75*
G02*
X102928000Y-65615800I0J-250000D01*
G01*
X102928000Y-66565800D01*
G75*
G02*
X102678000Y-66815800I-250000J0D01*
G01*
X102178000Y-66815800D01*
G75*
G02*
X101928000Y-66565800I0J250000D01*
G01*
G37*
%TD*%
M02*
