%TF.GenerationSoftware,KiCad,Pcbnew,(5.1.10)-1*%
%TF.CreationDate,2023-02-12T14:12:42-06:00*%
%TF.ProjectId,neopixel_board,6e656f70-6978-4656-9c5f-626f6172642e,rev?*%
%TF.SameCoordinates,Original*%
%TF.FileFunction,Copper,L2,Bot*%
%TF.FilePolarity,Positive*%
%FSLAX46Y46*%
G04 Gerber Fmt 4.6, Leading zero omitted, Abs format (unit mm)*
G04 Created by KiCad (PCBNEW (5.1.10)-1) date 2023-02-12 14:12:42*
%MOMM*%
%LPD*%
G01*
G04 APERTURE LIST*
%TA.AperFunction,ConnectorPad*%
%ADD10C,5.600000*%
%TD*%
%TA.AperFunction,ComponentPad*%
%ADD11C,3.600000*%
%TD*%
%TA.AperFunction,ComponentPad*%
%ADD12C,2.000000*%
%TD*%
%TA.AperFunction,ComponentPad*%
%ADD13R,2.000000X2.000000*%
%TD*%
%TA.AperFunction,ComponentPad*%
%ADD14O,1.700000X1.700000*%
%TD*%
%TA.AperFunction,ComponentPad*%
%ADD15R,1.700000X1.700000*%
%TD*%
%TA.AperFunction,ViaPad*%
%ADD16C,0.800000*%
%TD*%
%TA.AperFunction,Conductor*%
%ADD17C,0.250000*%
%TD*%
%TA.AperFunction,Conductor*%
%ADD18C,0.127000*%
%TD*%
%TA.AperFunction,Conductor*%
%ADD19C,0.100000*%
%TD*%
G04 APERTURE END LIST*
D10*
%TO.P,.,1*%
%TO.N,N/C*%
X154940000Y-124460000D03*
D11*
X154940000Y-124460000D03*
%TD*%
%TO.P,.,1*%
%TO.N,N/C*%
X154940000Y-43180000D03*
D10*
X154940000Y-43180000D03*
%TD*%
D11*
%TO.P,.,1*%
%TO.N,N/C*%
X78740000Y-124460000D03*
D10*
X78740000Y-124460000D03*
%TD*%
%TO.P,.,1*%
%TO.N,N/C*%
X78740000Y-43180000D03*
D11*
X78740000Y-43180000D03*
%TD*%
D12*
%TO.P,C1,2*%
%TO.N,GND*%
X80010000Y-61040000D03*
D13*
%TO.P,C1,1*%
%TO.N,VCC*%
X80010000Y-66040000D03*
%TD*%
%TO.P,C21,2*%
%TO.N,GND*%
%TA.AperFunction,SMDPad,CuDef*%
G36*
G01*
X141180400Y-97264200D02*
X141180400Y-98214200D01*
G75*
G02*
X140930400Y-98464200I-250000J0D01*
G01*
X140430400Y-98464200D01*
G75*
G02*
X140180400Y-98214200I0J250000D01*
G01*
X140180400Y-97264200D01*
G75*
G02*
X140430400Y-97014200I250000J0D01*
G01*
X140930400Y-97014200D01*
G75*
G02*
X141180400Y-97264200I0J-250000D01*
G01*
G37*
%TD.AperFunction*%
%TO.P,C21,1*%
%TO.N,VCC*%
%TA.AperFunction,SMDPad,CuDef*%
G36*
G01*
X143080400Y-97264200D02*
X143080400Y-98214200D01*
G75*
G02*
X142830400Y-98464200I-250000J0D01*
G01*
X142330400Y-98464200D01*
G75*
G02*
X142080400Y-98214200I0J250000D01*
G01*
X142080400Y-97264200D01*
G75*
G02*
X142330400Y-97014200I250000J0D01*
G01*
X142830400Y-97014200D01*
G75*
G02*
X143080400Y-97264200I0J-250000D01*
G01*
G37*
%TD.AperFunction*%
%TD*%
%TO.P,C20,2*%
%TO.N,GND*%
%TA.AperFunction,SMDPad,CuDef*%
G36*
G01*
X136252800Y-97213400D02*
X136252800Y-98163400D01*
G75*
G02*
X136002800Y-98413400I-250000J0D01*
G01*
X135502800Y-98413400D01*
G75*
G02*
X135252800Y-98163400I0J250000D01*
G01*
X135252800Y-97213400D01*
G75*
G02*
X135502800Y-96963400I250000J0D01*
G01*
X136002800Y-96963400D01*
G75*
G02*
X136252800Y-97213400I0J-250000D01*
G01*
G37*
%TD.AperFunction*%
%TO.P,C20,1*%
%TO.N,VCC*%
%TA.AperFunction,SMDPad,CuDef*%
G36*
G01*
X138152800Y-97213400D02*
X138152800Y-98163400D01*
G75*
G02*
X137902800Y-98413400I-250000J0D01*
G01*
X137402800Y-98413400D01*
G75*
G02*
X137152800Y-98163400I0J250000D01*
G01*
X137152800Y-97213400D01*
G75*
G02*
X137402800Y-96963400I250000J0D01*
G01*
X137902800Y-96963400D01*
G75*
G02*
X138152800Y-97213400I0J-250000D01*
G01*
G37*
%TD.AperFunction*%
%TD*%
%TO.P,C19,2*%
%TO.N,GND*%
%TA.AperFunction,SMDPad,CuDef*%
G36*
G01*
X131020400Y-97213400D02*
X131020400Y-98163400D01*
G75*
G02*
X130770400Y-98413400I-250000J0D01*
G01*
X130270400Y-98413400D01*
G75*
G02*
X130020400Y-98163400I0J250000D01*
G01*
X130020400Y-97213400D01*
G75*
G02*
X130270400Y-96963400I250000J0D01*
G01*
X130770400Y-96963400D01*
G75*
G02*
X131020400Y-97213400I0J-250000D01*
G01*
G37*
%TD.AperFunction*%
%TO.P,C19,1*%
%TO.N,VCC*%
%TA.AperFunction,SMDPad,CuDef*%
G36*
G01*
X132920400Y-97213400D02*
X132920400Y-98163400D01*
G75*
G02*
X132670400Y-98413400I-250000J0D01*
G01*
X132170400Y-98413400D01*
G75*
G02*
X131920400Y-98163400I0J250000D01*
G01*
X131920400Y-97213400D01*
G75*
G02*
X132170400Y-96963400I250000J0D01*
G01*
X132670400Y-96963400D01*
G75*
G02*
X132920400Y-97213400I0J-250000D01*
G01*
G37*
%TD.AperFunction*%
%TD*%
%TO.P,C18,2*%
%TO.N,GND*%
%TA.AperFunction,SMDPad,CuDef*%
G36*
G01*
X141028000Y-90711000D02*
X141028000Y-91661000D01*
G75*
G02*
X140778000Y-91911000I-250000J0D01*
G01*
X140278000Y-91911000D01*
G75*
G02*
X140028000Y-91661000I0J250000D01*
G01*
X140028000Y-90711000D01*
G75*
G02*
X140278000Y-90461000I250000J0D01*
G01*
X140778000Y-90461000D01*
G75*
G02*
X141028000Y-90711000I0J-250000D01*
G01*
G37*
%TD.AperFunction*%
%TO.P,C18,1*%
%TO.N,VCC*%
%TA.AperFunction,SMDPad,CuDef*%
G36*
G01*
X142928000Y-90711000D02*
X142928000Y-91661000D01*
G75*
G02*
X142678000Y-91911000I-250000J0D01*
G01*
X142178000Y-91911000D01*
G75*
G02*
X141928000Y-91661000I0J250000D01*
G01*
X141928000Y-90711000D01*
G75*
G02*
X142178000Y-90461000I250000J0D01*
G01*
X142678000Y-90461000D01*
G75*
G02*
X142928000Y-90711000I0J-250000D01*
G01*
G37*
%TD.AperFunction*%
%TD*%
%TO.P,C17,2*%
%TO.N,GND*%
%TA.AperFunction,SMDPad,CuDef*%
G36*
G01*
X136354400Y-90660200D02*
X136354400Y-91610200D01*
G75*
G02*
X136104400Y-91860200I-250000J0D01*
G01*
X135604400Y-91860200D01*
G75*
G02*
X135354400Y-91610200I0J250000D01*
G01*
X135354400Y-90660200D01*
G75*
G02*
X135604400Y-90410200I250000J0D01*
G01*
X136104400Y-90410200D01*
G75*
G02*
X136354400Y-90660200I0J-250000D01*
G01*
G37*
%TD.AperFunction*%
%TO.P,C17,1*%
%TO.N,VCC*%
%TA.AperFunction,SMDPad,CuDef*%
G36*
G01*
X138254400Y-90660200D02*
X138254400Y-91610200D01*
G75*
G02*
X138004400Y-91860200I-250000J0D01*
G01*
X137504400Y-91860200D01*
G75*
G02*
X137254400Y-91610200I0J250000D01*
G01*
X137254400Y-90660200D01*
G75*
G02*
X137504400Y-90410200I250000J0D01*
G01*
X138004400Y-90410200D01*
G75*
G02*
X138254400Y-90660200I0J-250000D01*
G01*
G37*
%TD.AperFunction*%
%TD*%
%TO.P,C16,2*%
%TO.N,GND*%
%TA.AperFunction,SMDPad,CuDef*%
G36*
G01*
X130918800Y-90558600D02*
X130918800Y-91508600D01*
G75*
G02*
X130668800Y-91758600I-250000J0D01*
G01*
X130168800Y-91758600D01*
G75*
G02*
X129918800Y-91508600I0J250000D01*
G01*
X129918800Y-90558600D01*
G75*
G02*
X130168800Y-90308600I250000J0D01*
G01*
X130668800Y-90308600D01*
G75*
G02*
X130918800Y-90558600I0J-250000D01*
G01*
G37*
%TD.AperFunction*%
%TO.P,C16,1*%
%TO.N,VCC*%
%TA.AperFunction,SMDPad,CuDef*%
G36*
G01*
X132818800Y-90558600D02*
X132818800Y-91508600D01*
G75*
G02*
X132568800Y-91758600I-250000J0D01*
G01*
X132068800Y-91758600D01*
G75*
G02*
X131818800Y-91508600I0J250000D01*
G01*
X131818800Y-90558600D01*
G75*
G02*
X132068800Y-90308600I250000J0D01*
G01*
X132568800Y-90308600D01*
G75*
G02*
X132818800Y-90558600I0J-250000D01*
G01*
G37*
%TD.AperFunction*%
%TD*%
%TO.P,C15,2*%
%TO.N,GND*%
%TA.AperFunction,SMDPad,CuDef*%
G36*
G01*
X112717200Y-98178600D02*
X112717200Y-99128600D01*
G75*
G02*
X112467200Y-99378600I-250000J0D01*
G01*
X111967200Y-99378600D01*
G75*
G02*
X111717200Y-99128600I0J250000D01*
G01*
X111717200Y-98178600D01*
G75*
G02*
X111967200Y-97928600I250000J0D01*
G01*
X112467200Y-97928600D01*
G75*
G02*
X112717200Y-98178600I0J-250000D01*
G01*
G37*
%TD.AperFunction*%
%TO.P,C15,1*%
%TO.N,VCC*%
%TA.AperFunction,SMDPad,CuDef*%
G36*
G01*
X114617200Y-98178600D02*
X114617200Y-99128600D01*
G75*
G02*
X114367200Y-99378600I-250000J0D01*
G01*
X113867200Y-99378600D01*
G75*
G02*
X113617200Y-99128600I0J250000D01*
G01*
X113617200Y-98178600D01*
G75*
G02*
X113867200Y-97928600I250000J0D01*
G01*
X114367200Y-97928600D01*
G75*
G02*
X114617200Y-98178600I0J-250000D01*
G01*
G37*
%TD.AperFunction*%
%TD*%
%TO.P,C14,2*%
%TO.N,GND*%
%TA.AperFunction,SMDPad,CuDef*%
G36*
G01*
X107804800Y-98331000D02*
X107804800Y-99281000D01*
G75*
G02*
X107554800Y-99531000I-250000J0D01*
G01*
X107054800Y-99531000D01*
G75*
G02*
X106804800Y-99281000I0J250000D01*
G01*
X106804800Y-98331000D01*
G75*
G02*
X107054800Y-98081000I250000J0D01*
G01*
X107554800Y-98081000D01*
G75*
G02*
X107804800Y-98331000I0J-250000D01*
G01*
G37*
%TD.AperFunction*%
%TO.P,C14,1*%
%TO.N,VCC*%
%TA.AperFunction,SMDPad,CuDef*%
G36*
G01*
X109704800Y-98331000D02*
X109704800Y-99281000D01*
G75*
G02*
X109454800Y-99531000I-250000J0D01*
G01*
X108954800Y-99531000D01*
G75*
G02*
X108704800Y-99281000I0J250000D01*
G01*
X108704800Y-98331000D01*
G75*
G02*
X108954800Y-98081000I250000J0D01*
G01*
X109454800Y-98081000D01*
G75*
G02*
X109704800Y-98331000I0J-250000D01*
G01*
G37*
%TD.AperFunction*%
%TD*%
%TO.P,C13,2*%
%TO.N,GND*%
%TA.AperFunction,SMDPad,CuDef*%
G36*
G01*
X102420000Y-98381800D02*
X102420000Y-99331800D01*
G75*
G02*
X102170000Y-99581800I-250000J0D01*
G01*
X101670000Y-99581800D01*
G75*
G02*
X101420000Y-99331800I0J250000D01*
G01*
X101420000Y-98381800D01*
G75*
G02*
X101670000Y-98131800I250000J0D01*
G01*
X102170000Y-98131800D01*
G75*
G02*
X102420000Y-98381800I0J-250000D01*
G01*
G37*
%TD.AperFunction*%
%TO.P,C13,1*%
%TO.N,VCC*%
%TA.AperFunction,SMDPad,CuDef*%
G36*
G01*
X104320000Y-98381800D02*
X104320000Y-99331800D01*
G75*
G02*
X104070000Y-99581800I-250000J0D01*
G01*
X103570000Y-99581800D01*
G75*
G02*
X103320000Y-99331800I0J250000D01*
G01*
X103320000Y-98381800D01*
G75*
G02*
X103570000Y-98131800I250000J0D01*
G01*
X104070000Y-98131800D01*
G75*
G02*
X104320000Y-98381800I0J-250000D01*
G01*
G37*
%TD.AperFunction*%
%TD*%
%TO.P,C12,2*%
%TO.N,GND*%
%TA.AperFunction,SMDPad,CuDef*%
G36*
G01*
X112580000Y-91574600D02*
X112580000Y-92524600D01*
G75*
G02*
X112330000Y-92774600I-250000J0D01*
G01*
X111830000Y-92774600D01*
G75*
G02*
X111580000Y-92524600I0J250000D01*
G01*
X111580000Y-91574600D01*
G75*
G02*
X111830000Y-91324600I250000J0D01*
G01*
X112330000Y-91324600D01*
G75*
G02*
X112580000Y-91574600I0J-250000D01*
G01*
G37*
%TD.AperFunction*%
%TO.P,C12,1*%
%TO.N,VCC*%
%TA.AperFunction,SMDPad,CuDef*%
G36*
G01*
X114480000Y-91574600D02*
X114480000Y-92524600D01*
G75*
G02*
X114230000Y-92774600I-250000J0D01*
G01*
X113730000Y-92774600D01*
G75*
G02*
X113480000Y-92524600I0J250000D01*
G01*
X113480000Y-91574600D01*
G75*
G02*
X113730000Y-91324600I250000J0D01*
G01*
X114230000Y-91324600D01*
G75*
G02*
X114480000Y-91574600I0J-250000D01*
G01*
G37*
%TD.AperFunction*%
%TD*%
%TO.P,C11,2*%
%TO.N,GND*%
%TA.AperFunction,SMDPad,CuDef*%
G36*
G01*
X107738800Y-91523800D02*
X107738800Y-92473800D01*
G75*
G02*
X107488800Y-92723800I-250000J0D01*
G01*
X106988800Y-92723800D01*
G75*
G02*
X106738800Y-92473800I0J250000D01*
G01*
X106738800Y-91523800D01*
G75*
G02*
X106988800Y-91273800I250000J0D01*
G01*
X107488800Y-91273800D01*
G75*
G02*
X107738800Y-91523800I0J-250000D01*
G01*
G37*
%TD.AperFunction*%
%TO.P,C11,1*%
%TO.N,VCC*%
%TA.AperFunction,SMDPad,CuDef*%
G36*
G01*
X109638800Y-91523800D02*
X109638800Y-92473800D01*
G75*
G02*
X109388800Y-92723800I-250000J0D01*
G01*
X108888800Y-92723800D01*
G75*
G02*
X108638800Y-92473800I0J250000D01*
G01*
X108638800Y-91523800D01*
G75*
G02*
X108888800Y-91273800I250000J0D01*
G01*
X109388800Y-91273800D01*
G75*
G02*
X109638800Y-91523800I0J-250000D01*
G01*
G37*
%TD.AperFunction*%
%TD*%
%TO.P,C10,2*%
%TO.N,GND*%
%TA.AperFunction,SMDPad,CuDef*%
G36*
G01*
X102521600Y-91422200D02*
X102521600Y-92372200D01*
G75*
G02*
X102271600Y-92622200I-250000J0D01*
G01*
X101771600Y-92622200D01*
G75*
G02*
X101521600Y-92372200I0J250000D01*
G01*
X101521600Y-91422200D01*
G75*
G02*
X101771600Y-91172200I250000J0D01*
G01*
X102271600Y-91172200D01*
G75*
G02*
X102521600Y-91422200I0J-250000D01*
G01*
G37*
%TD.AperFunction*%
%TO.P,C10,1*%
%TO.N,VCC*%
%TA.AperFunction,SMDPad,CuDef*%
G36*
G01*
X104421600Y-91422200D02*
X104421600Y-92372200D01*
G75*
G02*
X104171600Y-92622200I-250000J0D01*
G01*
X103671600Y-92622200D01*
G75*
G02*
X103421600Y-92372200I0J250000D01*
G01*
X103421600Y-91422200D01*
G75*
G02*
X103671600Y-91172200I250000J0D01*
G01*
X104171600Y-91172200D01*
G75*
G02*
X104421600Y-91422200I0J-250000D01*
G01*
G37*
%TD.AperFunction*%
%TD*%
%TO.P,C9,2*%
%TO.N,GND*%
%TA.AperFunction,SMDPad,CuDef*%
G36*
G01*
X112986400Y-72118200D02*
X112986400Y-73068200D01*
G75*
G02*
X112736400Y-73318200I-250000J0D01*
G01*
X112236400Y-73318200D01*
G75*
G02*
X111986400Y-73068200I0J250000D01*
G01*
X111986400Y-72118200D01*
G75*
G02*
X112236400Y-71868200I250000J0D01*
G01*
X112736400Y-71868200D01*
G75*
G02*
X112986400Y-72118200I0J-250000D01*
G01*
G37*
%TD.AperFunction*%
%TO.P,C9,1*%
%TO.N,VCC*%
%TA.AperFunction,SMDPad,CuDef*%
G36*
G01*
X114886400Y-72118200D02*
X114886400Y-73068200D01*
G75*
G02*
X114636400Y-73318200I-250000J0D01*
G01*
X114136400Y-73318200D01*
G75*
G02*
X113886400Y-73068200I0J250000D01*
G01*
X113886400Y-72118200D01*
G75*
G02*
X114136400Y-71868200I250000J0D01*
G01*
X114636400Y-71868200D01*
G75*
G02*
X114886400Y-72118200I0J-250000D01*
G01*
G37*
%TD.AperFunction*%
%TD*%
%TO.P,C8,2*%
%TO.N,GND*%
%TA.AperFunction,SMDPad,CuDef*%
G36*
G01*
X108211200Y-72169000D02*
X108211200Y-73119000D01*
G75*
G02*
X107961200Y-73369000I-250000J0D01*
G01*
X107461200Y-73369000D01*
G75*
G02*
X107211200Y-73119000I0J250000D01*
G01*
X107211200Y-72169000D01*
G75*
G02*
X107461200Y-71919000I250000J0D01*
G01*
X107961200Y-71919000D01*
G75*
G02*
X108211200Y-72169000I0J-250000D01*
G01*
G37*
%TD.AperFunction*%
%TO.P,C8,1*%
%TO.N,VCC*%
%TA.AperFunction,SMDPad,CuDef*%
G36*
G01*
X110111200Y-72169000D02*
X110111200Y-73119000D01*
G75*
G02*
X109861200Y-73369000I-250000J0D01*
G01*
X109361200Y-73369000D01*
G75*
G02*
X109111200Y-73119000I0J250000D01*
G01*
X109111200Y-72169000D01*
G75*
G02*
X109361200Y-71919000I250000J0D01*
G01*
X109861200Y-71919000D01*
G75*
G02*
X110111200Y-72169000I0J-250000D01*
G01*
G37*
%TD.AperFunction*%
%TD*%
%TO.P,C7,2*%
%TO.N,GND*%
%TA.AperFunction,SMDPad,CuDef*%
G36*
G01*
X102775600Y-72118200D02*
X102775600Y-73068200D01*
G75*
G02*
X102525600Y-73318200I-250000J0D01*
G01*
X102025600Y-73318200D01*
G75*
G02*
X101775600Y-73068200I0J250000D01*
G01*
X101775600Y-72118200D01*
G75*
G02*
X102025600Y-71868200I250000J0D01*
G01*
X102525600Y-71868200D01*
G75*
G02*
X102775600Y-72118200I0J-250000D01*
G01*
G37*
%TD.AperFunction*%
%TO.P,C7,1*%
%TO.N,VCC*%
%TA.AperFunction,SMDPad,CuDef*%
G36*
G01*
X104675600Y-72118200D02*
X104675600Y-73068200D01*
G75*
G02*
X104425600Y-73318200I-250000J0D01*
G01*
X103925600Y-73318200D01*
G75*
G02*
X103675600Y-73068200I0J250000D01*
G01*
X103675600Y-72118200D01*
G75*
G02*
X103925600Y-71868200I250000J0D01*
G01*
X104425600Y-71868200D01*
G75*
G02*
X104675600Y-72118200I0J-250000D01*
G01*
G37*
%TD.AperFunction*%
%TD*%
%TO.P,C6,2*%
%TO.N,GND*%
%TA.AperFunction,SMDPad,CuDef*%
G36*
G01*
X113037200Y-65615800D02*
X113037200Y-66565800D01*
G75*
G02*
X112787200Y-66815800I-250000J0D01*
G01*
X112287200Y-66815800D01*
G75*
G02*
X112037200Y-66565800I0J250000D01*
G01*
X112037200Y-65615800D01*
G75*
G02*
X112287200Y-65365800I250000J0D01*
G01*
X112787200Y-65365800D01*
G75*
G02*
X113037200Y-65615800I0J-250000D01*
G01*
G37*
%TD.AperFunction*%
%TO.P,C6,1*%
%TO.N,VCC*%
%TA.AperFunction,SMDPad,CuDef*%
G36*
G01*
X114937200Y-65615800D02*
X114937200Y-66565800D01*
G75*
G02*
X114687200Y-66815800I-250000J0D01*
G01*
X114187200Y-66815800D01*
G75*
G02*
X113937200Y-66565800I0J250000D01*
G01*
X113937200Y-65615800D01*
G75*
G02*
X114187200Y-65365800I250000J0D01*
G01*
X114687200Y-65365800D01*
G75*
G02*
X114937200Y-65615800I0J-250000D01*
G01*
G37*
%TD.AperFunction*%
%TD*%
%TO.P,C5,2*%
%TO.N,GND*%
%TA.AperFunction,SMDPad,CuDef*%
G36*
G01*
X108196000Y-65514200D02*
X108196000Y-66464200D01*
G75*
G02*
X107946000Y-66714200I-250000J0D01*
G01*
X107446000Y-66714200D01*
G75*
G02*
X107196000Y-66464200I0J250000D01*
G01*
X107196000Y-65514200D01*
G75*
G02*
X107446000Y-65264200I250000J0D01*
G01*
X107946000Y-65264200D01*
G75*
G02*
X108196000Y-65514200I0J-250000D01*
G01*
G37*
%TD.AperFunction*%
%TO.P,C5,1*%
%TO.N,VCC*%
%TA.AperFunction,SMDPad,CuDef*%
G36*
G01*
X110096000Y-65514200D02*
X110096000Y-66464200D01*
G75*
G02*
X109846000Y-66714200I-250000J0D01*
G01*
X109346000Y-66714200D01*
G75*
G02*
X109096000Y-66464200I0J250000D01*
G01*
X109096000Y-65514200D01*
G75*
G02*
X109346000Y-65264200I250000J0D01*
G01*
X109846000Y-65264200D01*
G75*
G02*
X110096000Y-65514200I0J-250000D01*
G01*
G37*
%TD.AperFunction*%
%TD*%
%TO.P,C4,2*%
%TO.N,GND*%
%TA.AperFunction,SMDPad,CuDef*%
G36*
G01*
X103828000Y-66565800D02*
X103828000Y-65615800D01*
G75*
G02*
X104078000Y-65365800I250000J0D01*
G01*
X104578000Y-65365800D01*
G75*
G02*
X104828000Y-65615800I0J-250000D01*
G01*
X104828000Y-66565800D01*
G75*
G02*
X104578000Y-66815800I-250000J0D01*
G01*
X104078000Y-66815800D01*
G75*
G02*
X103828000Y-66565800I0J250000D01*
G01*
G37*
%TD.AperFunction*%
%TO.P,C4,1*%
%TO.N,VCC*%
%TA.AperFunction,SMDPad,CuDef*%
G36*
G01*
X101928000Y-66565800D02*
X101928000Y-65615800D01*
G75*
G02*
X102178000Y-65365800I250000J0D01*
G01*
X102678000Y-65365800D01*
G75*
G02*
X102928000Y-65615800I0J-250000D01*
G01*
X102928000Y-66565800D01*
G75*
G02*
X102678000Y-66815800I-250000J0D01*
G01*
X102178000Y-66815800D01*
G75*
G02*
X101928000Y-66565800I0J250000D01*
G01*
G37*
%TD.AperFunction*%
%TD*%
D14*
%TO.P,J1,3*%
%TO.N,GND*%
X88265000Y-67310000D03*
%TO.P,J1,2*%
%TO.N,GPIO*%
X88265000Y-64770000D03*
D15*
%TO.P,J1,1*%
%TO.N,VCC*%
X88265000Y-62230000D03*
%TD*%
D16*
%TO.N,GPIO*%
X99720400Y-68072000D03*
X101600000Y-68986400D03*
%TO.N,Net-(D15-Pad1)*%
X128066800Y-91694000D03*
X127965200Y-99060000D03*
%TO.N,GND*%
X107797600Y-62687200D03*
X112572800Y-62839600D03*
X102514400Y-62636400D03*
X107797600Y-69697600D03*
X102463600Y-69596000D03*
X112623600Y-69646800D03*
X102158800Y-88950800D03*
X107492800Y-88747600D03*
X112268000Y-88493600D03*
X102108000Y-95504000D03*
X107442000Y-95402400D03*
X112166400Y-95351600D03*
X130606800Y-87782400D03*
X135940800Y-87528400D03*
X140665200Y-87426800D03*
X130556000Y-94437200D03*
X135940800Y-94488000D03*
X140766800Y-94488000D03*
X88265000Y-70485000D03*
%TO.N,VCC*%
X100025200Y-65989200D03*
X111074610Y-63656969D03*
X115976400Y-66090800D03*
X105714800Y-73609200D03*
X110845600Y-75133200D03*
X116078000Y-72644000D03*
X105664000Y-90678000D03*
X110540800Y-93370400D03*
X115976400Y-91948000D03*
X105410000Y-100177600D03*
X110642400Y-99974400D03*
X115722400Y-98755200D03*
X133908800Y-91795600D03*
X138916247Y-92172953D03*
X144424400Y-90678000D03*
X133908800Y-99060000D03*
X138962620Y-100008246D03*
X144373600Y-97790000D03*
X80010000Y-70485000D03*
%TD*%
D17*
%TO.N,GPIO*%
X100685600Y-68072000D02*
X101600000Y-68986400D01*
X99720400Y-68072000D02*
X100685600Y-68072000D01*
%TO.N,Net-(D15-Pad1)*%
X128066800Y-98958400D02*
X127965200Y-99060000D01*
X128066800Y-91694000D02*
X128066800Y-98958400D01*
%TO.N,VCC*%
X100126800Y-66090800D02*
X100025200Y-65989200D01*
X102428000Y-66090800D02*
X100126800Y-66090800D01*
X109596000Y-65989200D02*
X111048800Y-64536400D01*
X111048800Y-63682779D02*
X111074610Y-63656969D01*
X111048800Y-64536400D02*
X111048800Y-63682779D01*
X114437200Y-66090800D02*
X115976400Y-66090800D01*
X104698800Y-72593200D02*
X105714800Y-73609200D01*
X104175600Y-72593200D02*
X104698800Y-72593200D01*
X109611200Y-72644000D02*
X110693200Y-73726000D01*
X110693200Y-74980800D02*
X110845600Y-75133200D01*
X110693200Y-73726000D02*
X110693200Y-74980800D01*
X114386400Y-72593200D02*
X115925600Y-72593200D01*
X116027200Y-72593200D02*
X116078000Y-72644000D01*
X115925600Y-72593200D02*
X116027200Y-72593200D01*
X103921600Y-91897200D02*
X104495600Y-91897200D01*
X105664000Y-90728800D02*
X105664000Y-90678000D01*
X104495600Y-91897200D02*
X105664000Y-90728800D01*
X109169200Y-91998800D02*
X110540800Y-93370400D01*
X109138800Y-91998800D02*
X109169200Y-91998800D01*
X115874800Y-92049600D02*
X115976400Y-91948000D01*
X113980000Y-92049600D02*
X115874800Y-92049600D01*
X103820000Y-98856800D02*
X105140800Y-100177600D01*
X105140800Y-100177600D02*
X105410000Y-100177600D01*
X109474000Y-98806000D02*
X110642400Y-99974400D01*
X109204800Y-98806000D02*
X109474000Y-98806000D01*
X115620800Y-98653600D02*
X115722400Y-98755200D01*
X114117200Y-98653600D02*
X115620800Y-98653600D01*
X133146800Y-91033600D02*
X133908800Y-91795600D01*
X132318800Y-91033600D02*
X133146800Y-91033600D01*
X137878494Y-91135200D02*
X138916247Y-92172953D01*
X137754400Y-91135200D02*
X137878494Y-91135200D01*
X143916400Y-91186000D02*
X144424400Y-90678000D01*
X142428000Y-91186000D02*
X143916400Y-91186000D01*
X132537200Y-97688400D02*
X133908800Y-99060000D01*
X132420400Y-97688400D02*
X132537200Y-97688400D01*
X137652800Y-97688400D02*
X138887200Y-98922800D01*
X138887200Y-99932826D02*
X138962620Y-100008246D01*
X138887200Y-98922800D02*
X138887200Y-99932826D01*
X144322800Y-97739200D02*
X144373600Y-97790000D01*
X142580400Y-97739200D02*
X144322800Y-97739200D01*
X80010000Y-66040000D02*
X80010000Y-70485000D01*
%TD*%
D18*
%TO.N,GND*%
X162344500Y-129324500D02*
X72605500Y-129324500D01*
X72605500Y-124158272D01*
X75676500Y-124158272D01*
X75676500Y-124761728D01*
X75794229Y-125353590D01*
X76025161Y-125911111D01*
X76360424Y-126412867D01*
X76787133Y-126839576D01*
X77288889Y-127174839D01*
X77846410Y-127405771D01*
X78438272Y-127523500D01*
X79041728Y-127523500D01*
X79633590Y-127405771D01*
X80191111Y-127174839D01*
X80692867Y-126839576D01*
X81119576Y-126412867D01*
X81454839Y-125911111D01*
X81685771Y-125353590D01*
X81803500Y-124761728D01*
X81803500Y-124158272D01*
X151876500Y-124158272D01*
X151876500Y-124761728D01*
X151994229Y-125353590D01*
X152225161Y-125911111D01*
X152560424Y-126412867D01*
X152987133Y-126839576D01*
X153488889Y-127174839D01*
X154046410Y-127405771D01*
X154638272Y-127523500D01*
X155241728Y-127523500D01*
X155833590Y-127405771D01*
X156391111Y-127174839D01*
X156892867Y-126839576D01*
X157319576Y-126412867D01*
X157654839Y-125911111D01*
X157885771Y-125353590D01*
X158003500Y-124761728D01*
X158003500Y-124158272D01*
X157885771Y-123566410D01*
X157654839Y-123008889D01*
X157319576Y-122507133D01*
X156892867Y-122080424D01*
X156391111Y-121745161D01*
X155833590Y-121514229D01*
X155241728Y-121396500D01*
X154638272Y-121396500D01*
X154046410Y-121514229D01*
X153488889Y-121745161D01*
X152987133Y-122080424D01*
X152560424Y-122507133D01*
X152225161Y-123008889D01*
X151994229Y-123566410D01*
X151876500Y-124158272D01*
X81803500Y-124158272D01*
X81685771Y-123566410D01*
X81454839Y-123008889D01*
X81119576Y-122507133D01*
X80692867Y-122080424D01*
X80191111Y-121745161D01*
X79633590Y-121514229D01*
X79041728Y-121396500D01*
X78438272Y-121396500D01*
X77846410Y-121514229D01*
X77288889Y-121745161D01*
X76787133Y-122080424D01*
X76360424Y-122507133D01*
X76025161Y-123008889D01*
X75794229Y-123566410D01*
X75676500Y-124158272D01*
X72605500Y-124158272D01*
X72605500Y-99581800D01*
X100845735Y-99581800D01*
X100856769Y-99693834D01*
X100889448Y-99801562D01*
X100942516Y-99900845D01*
X101013933Y-99987867D01*
X101100955Y-100059284D01*
X101200238Y-100112352D01*
X101307966Y-100145031D01*
X101420000Y-100156065D01*
X101586625Y-100153300D01*
X101729500Y-100010425D01*
X101729500Y-99047300D01*
X102110500Y-99047300D01*
X102110500Y-100010425D01*
X102253375Y-100153300D01*
X102420000Y-100156065D01*
X102532034Y-100145031D01*
X102639762Y-100112352D01*
X102739045Y-100059284D01*
X102826067Y-99987867D01*
X102897484Y-99900845D01*
X102950552Y-99801562D01*
X102983231Y-99693834D01*
X102994265Y-99581800D01*
X102991500Y-99190175D01*
X102848625Y-99047300D01*
X102110500Y-99047300D01*
X101729500Y-99047300D01*
X100991375Y-99047300D01*
X100848500Y-99190175D01*
X100845735Y-99581800D01*
X72605500Y-99581800D01*
X72605500Y-98131800D01*
X100845735Y-98131800D01*
X100848500Y-98523425D01*
X100991375Y-98666300D01*
X101729500Y-98666300D01*
X101729500Y-97703175D01*
X102110500Y-97703175D01*
X102110500Y-98666300D01*
X102848625Y-98666300D01*
X102991500Y-98523425D01*
X102992499Y-98381800D01*
X103055226Y-98381800D01*
X103055226Y-99331800D01*
X103065117Y-99432227D01*
X103094411Y-99528795D01*
X103141981Y-99617793D01*
X103206000Y-99695800D01*
X103284007Y-99759819D01*
X103373005Y-99807389D01*
X103469573Y-99836683D01*
X103570000Y-99846574D01*
X104070000Y-99846574D01*
X104170427Y-99836683D01*
X104231834Y-99818055D01*
X104768791Y-100355012D01*
X104771998Y-100371136D01*
X104822014Y-100491885D01*
X104894626Y-100600556D01*
X104987044Y-100692974D01*
X105095715Y-100765586D01*
X105216464Y-100815602D01*
X105344651Y-100841100D01*
X105475349Y-100841100D01*
X105603536Y-100815602D01*
X105724285Y-100765586D01*
X105832956Y-100692974D01*
X105925374Y-100600556D01*
X105997986Y-100491885D01*
X106048002Y-100371136D01*
X106073500Y-100242949D01*
X106073500Y-100112251D01*
X106048002Y-99984064D01*
X105997986Y-99863315D01*
X105925374Y-99754644D01*
X105832956Y-99662226D01*
X105724285Y-99589614D01*
X105603536Y-99539598D01*
X105560311Y-99531000D01*
X106230535Y-99531000D01*
X106241569Y-99643034D01*
X106274248Y-99750762D01*
X106327316Y-99850045D01*
X106398733Y-99937067D01*
X106485755Y-100008484D01*
X106585038Y-100061552D01*
X106692766Y-100094231D01*
X106804800Y-100105265D01*
X106971425Y-100102500D01*
X107114300Y-99959625D01*
X107114300Y-98996500D01*
X107495300Y-98996500D01*
X107495300Y-99959625D01*
X107638175Y-100102500D01*
X107804800Y-100105265D01*
X107916834Y-100094231D01*
X108024562Y-100061552D01*
X108123845Y-100008484D01*
X108210867Y-99937067D01*
X108282284Y-99850045D01*
X108335352Y-99750762D01*
X108368031Y-99643034D01*
X108379065Y-99531000D01*
X108376300Y-99139375D01*
X108233425Y-98996500D01*
X107495300Y-98996500D01*
X107114300Y-98996500D01*
X106376175Y-98996500D01*
X106233300Y-99139375D01*
X106230535Y-99531000D01*
X105560311Y-99531000D01*
X105475349Y-99514100D01*
X105344651Y-99514100D01*
X105216464Y-99539598D01*
X105100325Y-99587704D01*
X104584774Y-99072153D01*
X104584774Y-98381800D01*
X104574883Y-98281373D01*
X104545589Y-98184805D01*
X104498019Y-98095807D01*
X104485868Y-98081000D01*
X106230535Y-98081000D01*
X106233300Y-98472625D01*
X106376175Y-98615500D01*
X107114300Y-98615500D01*
X107114300Y-97652375D01*
X107495300Y-97652375D01*
X107495300Y-98615500D01*
X108233425Y-98615500D01*
X108376300Y-98472625D01*
X108377299Y-98331000D01*
X108440026Y-98331000D01*
X108440026Y-99281000D01*
X108449917Y-99381427D01*
X108479211Y-99477995D01*
X108526781Y-99566993D01*
X108590800Y-99645000D01*
X108668807Y-99709019D01*
X108757805Y-99756589D01*
X108854373Y-99785883D01*
X108954800Y-99795774D01*
X109454800Y-99795774D01*
X109555227Y-99785883D01*
X109651795Y-99756589D01*
X109740793Y-99709019D01*
X109788470Y-99669891D01*
X109986985Y-99868406D01*
X109978900Y-99909051D01*
X109978900Y-100039749D01*
X110004398Y-100167936D01*
X110054414Y-100288685D01*
X110127026Y-100397356D01*
X110219444Y-100489774D01*
X110328115Y-100562386D01*
X110448864Y-100612402D01*
X110577051Y-100637900D01*
X110707749Y-100637900D01*
X110835936Y-100612402D01*
X110956685Y-100562386D01*
X111065356Y-100489774D01*
X111157774Y-100397356D01*
X111230386Y-100288685D01*
X111280402Y-100167936D01*
X111305900Y-100039749D01*
X111305900Y-99909051D01*
X111280402Y-99780864D01*
X111252265Y-99712937D01*
X111311133Y-99784667D01*
X111398155Y-99856084D01*
X111497438Y-99909152D01*
X111605166Y-99941831D01*
X111717200Y-99952865D01*
X111883825Y-99950100D01*
X112026700Y-99807225D01*
X112026700Y-98844100D01*
X112407700Y-98844100D01*
X112407700Y-99807225D01*
X112550575Y-99950100D01*
X112717200Y-99952865D01*
X112829234Y-99941831D01*
X112936962Y-99909152D01*
X113036245Y-99856084D01*
X113123267Y-99784667D01*
X113194684Y-99697645D01*
X113247752Y-99598362D01*
X113280431Y-99490634D01*
X113291465Y-99378600D01*
X113288700Y-98986975D01*
X113145825Y-98844100D01*
X112407700Y-98844100D01*
X112026700Y-98844100D01*
X111288575Y-98844100D01*
X111145700Y-98986975D01*
X111142935Y-99378600D01*
X111153969Y-99490634D01*
X111184589Y-99591576D01*
X111157774Y-99551444D01*
X111065356Y-99459026D01*
X110956685Y-99386414D01*
X110835936Y-99336398D01*
X110707749Y-99310900D01*
X110577051Y-99310900D01*
X110536406Y-99318985D01*
X109969574Y-98752153D01*
X109969574Y-98331000D01*
X109959683Y-98230573D01*
X109930389Y-98134005D01*
X109882819Y-98045007D01*
X109818800Y-97967000D01*
X109772010Y-97928600D01*
X111142935Y-97928600D01*
X111145700Y-98320225D01*
X111288575Y-98463100D01*
X112026700Y-98463100D01*
X112026700Y-97499975D01*
X112407700Y-97499975D01*
X112407700Y-98463100D01*
X113145825Y-98463100D01*
X113288700Y-98320225D01*
X113289699Y-98178600D01*
X113352426Y-98178600D01*
X113352426Y-99128600D01*
X113362317Y-99229027D01*
X113391611Y-99325595D01*
X113439181Y-99414593D01*
X113503200Y-99492600D01*
X113581207Y-99556619D01*
X113670205Y-99604189D01*
X113766773Y-99633483D01*
X113867200Y-99643374D01*
X114367200Y-99643374D01*
X114467627Y-99633483D01*
X114564195Y-99604189D01*
X114653193Y-99556619D01*
X114731200Y-99492600D01*
X114795219Y-99414593D01*
X114842789Y-99325595D01*
X114872083Y-99229027D01*
X114881974Y-99128600D01*
X114881974Y-99042100D01*
X115123071Y-99042100D01*
X115134414Y-99069485D01*
X115207026Y-99178156D01*
X115299444Y-99270574D01*
X115408115Y-99343186D01*
X115528864Y-99393202D01*
X115657051Y-99418700D01*
X115787749Y-99418700D01*
X115915936Y-99393202D01*
X116036685Y-99343186D01*
X116145356Y-99270574D01*
X116237774Y-99178156D01*
X116310386Y-99069485D01*
X116341383Y-98994651D01*
X127301700Y-98994651D01*
X127301700Y-99125349D01*
X127327198Y-99253536D01*
X127377214Y-99374285D01*
X127449826Y-99482956D01*
X127542244Y-99575374D01*
X127650915Y-99647986D01*
X127771664Y-99698002D01*
X127899851Y-99723500D01*
X128030549Y-99723500D01*
X128158736Y-99698002D01*
X128279485Y-99647986D01*
X128388156Y-99575374D01*
X128480574Y-99482956D01*
X128553186Y-99374285D01*
X128603202Y-99253536D01*
X128628700Y-99125349D01*
X128628700Y-98994651D01*
X128603202Y-98866464D01*
X128553186Y-98745715D01*
X128480574Y-98637044D01*
X128455300Y-98611770D01*
X128455300Y-98413400D01*
X129446135Y-98413400D01*
X129457169Y-98525434D01*
X129489848Y-98633162D01*
X129542916Y-98732445D01*
X129614333Y-98819467D01*
X129701355Y-98890884D01*
X129800638Y-98943952D01*
X129908366Y-98976631D01*
X130020400Y-98987665D01*
X130187025Y-98984900D01*
X130329900Y-98842025D01*
X130329900Y-97878900D01*
X130710900Y-97878900D01*
X130710900Y-98842025D01*
X130853775Y-98984900D01*
X131020400Y-98987665D01*
X131132434Y-98976631D01*
X131240162Y-98943952D01*
X131339445Y-98890884D01*
X131426467Y-98819467D01*
X131497884Y-98732445D01*
X131550952Y-98633162D01*
X131583631Y-98525434D01*
X131594665Y-98413400D01*
X131591900Y-98021775D01*
X131449025Y-97878900D01*
X130710900Y-97878900D01*
X130329900Y-97878900D01*
X129591775Y-97878900D01*
X129448900Y-98021775D01*
X129446135Y-98413400D01*
X128455300Y-98413400D01*
X128455300Y-96963400D01*
X129446135Y-96963400D01*
X129448900Y-97355025D01*
X129591775Y-97497900D01*
X130329900Y-97497900D01*
X130329900Y-96534775D01*
X130710900Y-96534775D01*
X130710900Y-97497900D01*
X131449025Y-97497900D01*
X131591900Y-97355025D01*
X131592899Y-97213400D01*
X131655626Y-97213400D01*
X131655626Y-98163400D01*
X131665517Y-98263827D01*
X131694811Y-98360395D01*
X131742381Y-98449393D01*
X131806400Y-98527400D01*
X131884407Y-98591419D01*
X131973405Y-98638989D01*
X132069973Y-98668283D01*
X132170400Y-98678174D01*
X132670400Y-98678174D01*
X132770827Y-98668283D01*
X132867395Y-98638989D01*
X132913646Y-98614268D01*
X133253385Y-98954006D01*
X133245300Y-98994651D01*
X133245300Y-99125349D01*
X133270798Y-99253536D01*
X133320814Y-99374285D01*
X133393426Y-99482956D01*
X133485844Y-99575374D01*
X133594515Y-99647986D01*
X133715264Y-99698002D01*
X133843451Y-99723500D01*
X133974149Y-99723500D01*
X134102336Y-99698002D01*
X134223085Y-99647986D01*
X134331756Y-99575374D01*
X134424174Y-99482956D01*
X134496786Y-99374285D01*
X134546802Y-99253536D01*
X134572300Y-99125349D01*
X134572300Y-98994651D01*
X134546802Y-98866464D01*
X134496786Y-98745715D01*
X134424174Y-98637044D01*
X134331756Y-98544626D01*
X134223085Y-98472014D01*
X134102336Y-98421998D01*
X134059111Y-98413400D01*
X134678535Y-98413400D01*
X134689569Y-98525434D01*
X134722248Y-98633162D01*
X134775316Y-98732445D01*
X134846733Y-98819467D01*
X134933755Y-98890884D01*
X135033038Y-98943952D01*
X135140766Y-98976631D01*
X135252800Y-98987665D01*
X135419425Y-98984900D01*
X135562300Y-98842025D01*
X135562300Y-97878900D01*
X135943300Y-97878900D01*
X135943300Y-98842025D01*
X136086175Y-98984900D01*
X136252800Y-98987665D01*
X136364834Y-98976631D01*
X136472562Y-98943952D01*
X136571845Y-98890884D01*
X136658867Y-98819467D01*
X136730284Y-98732445D01*
X136783352Y-98633162D01*
X136816031Y-98525434D01*
X136827065Y-98413400D01*
X136824300Y-98021775D01*
X136681425Y-97878900D01*
X135943300Y-97878900D01*
X135562300Y-97878900D01*
X134824175Y-97878900D01*
X134681300Y-98021775D01*
X134678535Y-98413400D01*
X134059111Y-98413400D01*
X133974149Y-98396500D01*
X133843451Y-98396500D01*
X133802806Y-98404585D01*
X133185174Y-97786953D01*
X133185174Y-97213400D01*
X133175283Y-97112973D01*
X133145989Y-97016405D01*
X133117658Y-96963400D01*
X134678535Y-96963400D01*
X134681300Y-97355025D01*
X134824175Y-97497900D01*
X135562300Y-97497900D01*
X135562300Y-96534775D01*
X135943300Y-96534775D01*
X135943300Y-97497900D01*
X136681425Y-97497900D01*
X136824300Y-97355025D01*
X136825299Y-97213400D01*
X136888026Y-97213400D01*
X136888026Y-98163400D01*
X136897917Y-98263827D01*
X136927211Y-98360395D01*
X136974781Y-98449393D01*
X137038800Y-98527400D01*
X137116807Y-98591419D01*
X137205805Y-98638989D01*
X137302373Y-98668283D01*
X137402800Y-98678174D01*
X137902800Y-98678174D01*
X138003227Y-98668283D01*
X138064634Y-98649655D01*
X138498700Y-99083722D01*
X138498701Y-99533835D01*
X138447246Y-99585290D01*
X138374634Y-99693961D01*
X138324618Y-99814710D01*
X138299120Y-99942897D01*
X138299120Y-100073595D01*
X138324618Y-100201782D01*
X138374634Y-100322531D01*
X138447246Y-100431202D01*
X138539664Y-100523620D01*
X138648335Y-100596232D01*
X138769084Y-100646248D01*
X138897271Y-100671746D01*
X139027969Y-100671746D01*
X139156156Y-100646248D01*
X139276905Y-100596232D01*
X139385576Y-100523620D01*
X139477994Y-100431202D01*
X139550606Y-100322531D01*
X139600622Y-100201782D01*
X139626120Y-100073595D01*
X139626120Y-99942897D01*
X139600622Y-99814710D01*
X139550606Y-99693961D01*
X139477994Y-99585290D01*
X139385576Y-99492872D01*
X139276905Y-99420260D01*
X139275700Y-99419761D01*
X139275700Y-98941874D01*
X139277579Y-98922799D01*
X139275700Y-98903722D01*
X139270078Y-98846641D01*
X139247863Y-98773408D01*
X139225968Y-98732445D01*
X139211788Y-98705916D01*
X139187617Y-98676464D01*
X139163240Y-98646760D01*
X139148420Y-98634598D01*
X138978022Y-98464200D01*
X139606135Y-98464200D01*
X139617169Y-98576234D01*
X139649848Y-98683962D01*
X139702916Y-98783245D01*
X139774333Y-98870267D01*
X139861355Y-98941684D01*
X139960638Y-98994752D01*
X140068366Y-99027431D01*
X140180400Y-99038465D01*
X140347025Y-99035700D01*
X140489900Y-98892825D01*
X140489900Y-97929700D01*
X140870900Y-97929700D01*
X140870900Y-98892825D01*
X141013775Y-99035700D01*
X141180400Y-99038465D01*
X141292434Y-99027431D01*
X141400162Y-98994752D01*
X141499445Y-98941684D01*
X141586467Y-98870267D01*
X141657884Y-98783245D01*
X141710952Y-98683962D01*
X141743631Y-98576234D01*
X141754665Y-98464200D01*
X141751900Y-98072575D01*
X141609025Y-97929700D01*
X140870900Y-97929700D01*
X140489900Y-97929700D01*
X139751775Y-97929700D01*
X139608900Y-98072575D01*
X139606135Y-98464200D01*
X138978022Y-98464200D01*
X138417574Y-97903753D01*
X138417574Y-97213400D01*
X138407683Y-97112973D01*
X138378389Y-97016405D01*
X138377211Y-97014200D01*
X139606135Y-97014200D01*
X139608900Y-97405825D01*
X139751775Y-97548700D01*
X140489900Y-97548700D01*
X140489900Y-96585575D01*
X140870900Y-96585575D01*
X140870900Y-97548700D01*
X141609025Y-97548700D01*
X141751900Y-97405825D01*
X141752899Y-97264200D01*
X141815626Y-97264200D01*
X141815626Y-98214200D01*
X141825517Y-98314627D01*
X141854811Y-98411195D01*
X141902381Y-98500193D01*
X141966400Y-98578200D01*
X142044407Y-98642219D01*
X142133405Y-98689789D01*
X142229973Y-98719083D01*
X142330400Y-98728974D01*
X142830400Y-98728974D01*
X142930827Y-98719083D01*
X143027395Y-98689789D01*
X143116393Y-98642219D01*
X143194400Y-98578200D01*
X143258419Y-98500193D01*
X143305989Y-98411195D01*
X143335283Y-98314627D01*
X143345174Y-98214200D01*
X143345174Y-98127700D01*
X143801259Y-98127700D01*
X143858226Y-98212956D01*
X143950644Y-98305374D01*
X144059315Y-98377986D01*
X144180064Y-98428002D01*
X144308251Y-98453500D01*
X144438949Y-98453500D01*
X144567136Y-98428002D01*
X144687885Y-98377986D01*
X144796556Y-98305374D01*
X144888974Y-98212956D01*
X144961586Y-98104285D01*
X145011602Y-97983536D01*
X145037100Y-97855349D01*
X145037100Y-97724651D01*
X145011602Y-97596464D01*
X144961586Y-97475715D01*
X144888974Y-97367044D01*
X144796556Y-97274626D01*
X144687885Y-97202014D01*
X144567136Y-97151998D01*
X144438949Y-97126500D01*
X144308251Y-97126500D01*
X144180064Y-97151998D01*
X144059315Y-97202014D01*
X143950644Y-97274626D01*
X143874570Y-97350700D01*
X143345174Y-97350700D01*
X143345174Y-97264200D01*
X143335283Y-97163773D01*
X143305989Y-97067205D01*
X143258419Y-96978207D01*
X143194400Y-96900200D01*
X143116393Y-96836181D01*
X143027395Y-96788611D01*
X142930827Y-96759317D01*
X142830400Y-96749426D01*
X142330400Y-96749426D01*
X142229973Y-96759317D01*
X142133405Y-96788611D01*
X142044407Y-96836181D01*
X141966400Y-96900200D01*
X141902381Y-96978207D01*
X141854811Y-97067205D01*
X141825517Y-97163773D01*
X141815626Y-97264200D01*
X141752899Y-97264200D01*
X141754665Y-97014200D01*
X141743631Y-96902166D01*
X141710952Y-96794438D01*
X141657884Y-96695155D01*
X141586467Y-96608133D01*
X141499445Y-96536716D01*
X141400162Y-96483648D01*
X141292434Y-96450969D01*
X141180400Y-96439935D01*
X141013775Y-96442700D01*
X140870900Y-96585575D01*
X140489900Y-96585575D01*
X140347025Y-96442700D01*
X140180400Y-96439935D01*
X140068366Y-96450969D01*
X139960638Y-96483648D01*
X139861355Y-96536716D01*
X139774333Y-96608133D01*
X139702916Y-96695155D01*
X139649848Y-96794438D01*
X139617169Y-96902166D01*
X139606135Y-97014200D01*
X138377211Y-97014200D01*
X138330819Y-96927407D01*
X138266800Y-96849400D01*
X138188793Y-96785381D01*
X138099795Y-96737811D01*
X138003227Y-96708517D01*
X137902800Y-96698626D01*
X137402800Y-96698626D01*
X137302373Y-96708517D01*
X137205805Y-96737811D01*
X137116807Y-96785381D01*
X137038800Y-96849400D01*
X136974781Y-96927407D01*
X136927211Y-97016405D01*
X136897917Y-97112973D01*
X136888026Y-97213400D01*
X136825299Y-97213400D01*
X136827065Y-96963400D01*
X136816031Y-96851366D01*
X136783352Y-96743638D01*
X136730284Y-96644355D01*
X136658867Y-96557333D01*
X136571845Y-96485916D01*
X136472562Y-96432848D01*
X136364834Y-96400169D01*
X136252800Y-96389135D01*
X136086175Y-96391900D01*
X135943300Y-96534775D01*
X135562300Y-96534775D01*
X135419425Y-96391900D01*
X135252800Y-96389135D01*
X135140766Y-96400169D01*
X135033038Y-96432848D01*
X134933755Y-96485916D01*
X134846733Y-96557333D01*
X134775316Y-96644355D01*
X134722248Y-96743638D01*
X134689569Y-96851366D01*
X134678535Y-96963400D01*
X133117658Y-96963400D01*
X133098419Y-96927407D01*
X133034400Y-96849400D01*
X132956393Y-96785381D01*
X132867395Y-96737811D01*
X132770827Y-96708517D01*
X132670400Y-96698626D01*
X132170400Y-96698626D01*
X132069973Y-96708517D01*
X131973405Y-96737811D01*
X131884407Y-96785381D01*
X131806400Y-96849400D01*
X131742381Y-96927407D01*
X131694811Y-97016405D01*
X131665517Y-97112973D01*
X131655626Y-97213400D01*
X131592899Y-97213400D01*
X131594665Y-96963400D01*
X131583631Y-96851366D01*
X131550952Y-96743638D01*
X131497884Y-96644355D01*
X131426467Y-96557333D01*
X131339445Y-96485916D01*
X131240162Y-96432848D01*
X131132434Y-96400169D01*
X131020400Y-96389135D01*
X130853775Y-96391900D01*
X130710900Y-96534775D01*
X130329900Y-96534775D01*
X130187025Y-96391900D01*
X130020400Y-96389135D01*
X129908366Y-96400169D01*
X129800638Y-96432848D01*
X129701355Y-96485916D01*
X129614333Y-96557333D01*
X129542916Y-96644355D01*
X129489848Y-96743638D01*
X129457169Y-96851366D01*
X129446135Y-96963400D01*
X128455300Y-96963400D01*
X128455300Y-92232397D01*
X128489756Y-92209374D01*
X128582174Y-92116956D01*
X128654786Y-92008285D01*
X128704802Y-91887536D01*
X128730300Y-91759349D01*
X128730300Y-91758600D01*
X129344535Y-91758600D01*
X129355569Y-91870634D01*
X129388248Y-91978362D01*
X129441316Y-92077645D01*
X129512733Y-92164667D01*
X129599755Y-92236084D01*
X129699038Y-92289152D01*
X129806766Y-92321831D01*
X129918800Y-92332865D01*
X130085425Y-92330100D01*
X130228300Y-92187225D01*
X130228300Y-91224100D01*
X130609300Y-91224100D01*
X130609300Y-92187225D01*
X130752175Y-92330100D01*
X130918800Y-92332865D01*
X131030834Y-92321831D01*
X131138562Y-92289152D01*
X131237845Y-92236084D01*
X131324867Y-92164667D01*
X131396284Y-92077645D01*
X131449352Y-91978362D01*
X131482031Y-91870634D01*
X131493065Y-91758600D01*
X131490300Y-91366975D01*
X131347425Y-91224100D01*
X130609300Y-91224100D01*
X130228300Y-91224100D01*
X129490175Y-91224100D01*
X129347300Y-91366975D01*
X129344535Y-91758600D01*
X128730300Y-91758600D01*
X128730300Y-91628651D01*
X128704802Y-91500464D01*
X128654786Y-91379715D01*
X128582174Y-91271044D01*
X128489756Y-91178626D01*
X128381085Y-91106014D01*
X128260336Y-91055998D01*
X128132149Y-91030500D01*
X128001451Y-91030500D01*
X127873264Y-91055998D01*
X127752515Y-91106014D01*
X127643844Y-91178626D01*
X127551426Y-91271044D01*
X127478814Y-91379715D01*
X127428798Y-91500464D01*
X127403300Y-91628651D01*
X127403300Y-91759349D01*
X127428798Y-91887536D01*
X127478814Y-92008285D01*
X127551426Y-92116956D01*
X127643844Y-92209374D01*
X127678300Y-92232397D01*
X127678301Y-98460670D01*
X127650915Y-98472014D01*
X127542244Y-98544626D01*
X127449826Y-98637044D01*
X127377214Y-98745715D01*
X127327198Y-98866464D01*
X127301700Y-98994651D01*
X116341383Y-98994651D01*
X116360402Y-98948736D01*
X116385900Y-98820549D01*
X116385900Y-98689851D01*
X116360402Y-98561664D01*
X116310386Y-98440915D01*
X116237774Y-98332244D01*
X116145356Y-98239826D01*
X116036685Y-98167214D01*
X115915936Y-98117198D01*
X115787749Y-98091700D01*
X115657051Y-98091700D01*
X115528864Y-98117198D01*
X115408115Y-98167214D01*
X115299444Y-98239826D01*
X115274170Y-98265100D01*
X114881974Y-98265100D01*
X114881974Y-98178600D01*
X114872083Y-98078173D01*
X114842789Y-97981605D01*
X114795219Y-97892607D01*
X114731200Y-97814600D01*
X114653193Y-97750581D01*
X114564195Y-97703011D01*
X114467627Y-97673717D01*
X114367200Y-97663826D01*
X113867200Y-97663826D01*
X113766773Y-97673717D01*
X113670205Y-97703011D01*
X113581207Y-97750581D01*
X113503200Y-97814600D01*
X113439181Y-97892607D01*
X113391611Y-97981605D01*
X113362317Y-98078173D01*
X113352426Y-98178600D01*
X113289699Y-98178600D01*
X113291465Y-97928600D01*
X113280431Y-97816566D01*
X113247752Y-97708838D01*
X113194684Y-97609555D01*
X113123267Y-97522533D01*
X113036245Y-97451116D01*
X112936962Y-97398048D01*
X112829234Y-97365369D01*
X112717200Y-97354335D01*
X112550575Y-97357100D01*
X112407700Y-97499975D01*
X112026700Y-97499975D01*
X111883825Y-97357100D01*
X111717200Y-97354335D01*
X111605166Y-97365369D01*
X111497438Y-97398048D01*
X111398155Y-97451116D01*
X111311133Y-97522533D01*
X111239716Y-97609555D01*
X111186648Y-97708838D01*
X111153969Y-97816566D01*
X111142935Y-97928600D01*
X109772010Y-97928600D01*
X109740793Y-97902981D01*
X109651795Y-97855411D01*
X109555227Y-97826117D01*
X109454800Y-97816226D01*
X108954800Y-97816226D01*
X108854373Y-97826117D01*
X108757805Y-97855411D01*
X108668807Y-97902981D01*
X108590800Y-97967000D01*
X108526781Y-98045007D01*
X108479211Y-98134005D01*
X108449917Y-98230573D01*
X108440026Y-98331000D01*
X108377299Y-98331000D01*
X108379065Y-98081000D01*
X108368031Y-97968966D01*
X108335352Y-97861238D01*
X108282284Y-97761955D01*
X108210867Y-97674933D01*
X108123845Y-97603516D01*
X108024562Y-97550448D01*
X107916834Y-97517769D01*
X107804800Y-97506735D01*
X107638175Y-97509500D01*
X107495300Y-97652375D01*
X107114300Y-97652375D01*
X106971425Y-97509500D01*
X106804800Y-97506735D01*
X106692766Y-97517769D01*
X106585038Y-97550448D01*
X106485755Y-97603516D01*
X106398733Y-97674933D01*
X106327316Y-97761955D01*
X106274248Y-97861238D01*
X106241569Y-97968966D01*
X106230535Y-98081000D01*
X104485868Y-98081000D01*
X104434000Y-98017800D01*
X104355993Y-97953781D01*
X104266995Y-97906211D01*
X104170427Y-97876917D01*
X104070000Y-97867026D01*
X103570000Y-97867026D01*
X103469573Y-97876917D01*
X103373005Y-97906211D01*
X103284007Y-97953781D01*
X103206000Y-98017800D01*
X103141981Y-98095807D01*
X103094411Y-98184805D01*
X103065117Y-98281373D01*
X103055226Y-98381800D01*
X102992499Y-98381800D01*
X102994265Y-98131800D01*
X102983231Y-98019766D01*
X102950552Y-97912038D01*
X102897484Y-97812755D01*
X102826067Y-97725733D01*
X102739045Y-97654316D01*
X102639762Y-97601248D01*
X102532034Y-97568569D01*
X102420000Y-97557535D01*
X102253375Y-97560300D01*
X102110500Y-97703175D01*
X101729500Y-97703175D01*
X101586625Y-97560300D01*
X101420000Y-97557535D01*
X101307966Y-97568569D01*
X101200238Y-97601248D01*
X101100955Y-97654316D01*
X101013933Y-97725733D01*
X100942516Y-97812755D01*
X100889448Y-97912038D01*
X100856769Y-98019766D01*
X100845735Y-98131800D01*
X72605500Y-98131800D01*
X72605500Y-92622200D01*
X100947335Y-92622200D01*
X100958369Y-92734234D01*
X100991048Y-92841962D01*
X101044116Y-92941245D01*
X101115533Y-93028267D01*
X101202555Y-93099684D01*
X101301838Y-93152752D01*
X101409566Y-93185431D01*
X101521600Y-93196465D01*
X101688225Y-93193700D01*
X101831100Y-93050825D01*
X101831100Y-92087700D01*
X102212100Y-92087700D01*
X102212100Y-93050825D01*
X102354975Y-93193700D01*
X102521600Y-93196465D01*
X102633634Y-93185431D01*
X102741362Y-93152752D01*
X102840645Y-93099684D01*
X102927667Y-93028267D01*
X102999084Y-92941245D01*
X103052152Y-92841962D01*
X103084831Y-92734234D01*
X103095865Y-92622200D01*
X103093100Y-92230575D01*
X102950225Y-92087700D01*
X102212100Y-92087700D01*
X101831100Y-92087700D01*
X101092975Y-92087700D01*
X100950100Y-92230575D01*
X100947335Y-92622200D01*
X72605500Y-92622200D01*
X72605500Y-91172200D01*
X100947335Y-91172200D01*
X100950100Y-91563825D01*
X101092975Y-91706700D01*
X101831100Y-91706700D01*
X101831100Y-90743575D01*
X102212100Y-90743575D01*
X102212100Y-91706700D01*
X102950225Y-91706700D01*
X103093100Y-91563825D01*
X103094099Y-91422200D01*
X103156826Y-91422200D01*
X103156826Y-92372200D01*
X103166717Y-92472627D01*
X103196011Y-92569195D01*
X103243581Y-92658193D01*
X103307600Y-92736200D01*
X103385607Y-92800219D01*
X103474605Y-92847789D01*
X103571173Y-92877083D01*
X103671600Y-92886974D01*
X104171600Y-92886974D01*
X104272027Y-92877083D01*
X104368595Y-92847789D01*
X104457593Y-92800219D01*
X104535600Y-92736200D01*
X104545776Y-92723800D01*
X106164535Y-92723800D01*
X106175569Y-92835834D01*
X106208248Y-92943562D01*
X106261316Y-93042845D01*
X106332733Y-93129867D01*
X106419755Y-93201284D01*
X106519038Y-93254352D01*
X106626766Y-93287031D01*
X106738800Y-93298065D01*
X106905425Y-93295300D01*
X107048300Y-93152425D01*
X107048300Y-92189300D01*
X107429300Y-92189300D01*
X107429300Y-93152425D01*
X107572175Y-93295300D01*
X107738800Y-93298065D01*
X107850834Y-93287031D01*
X107958562Y-93254352D01*
X108057845Y-93201284D01*
X108144867Y-93129867D01*
X108216284Y-93042845D01*
X108269352Y-92943562D01*
X108302031Y-92835834D01*
X108313065Y-92723800D01*
X108310300Y-92332175D01*
X108167425Y-92189300D01*
X107429300Y-92189300D01*
X107048300Y-92189300D01*
X106310175Y-92189300D01*
X106167300Y-92332175D01*
X106164535Y-92723800D01*
X104545776Y-92723800D01*
X104599619Y-92658193D01*
X104647189Y-92569195D01*
X104676483Y-92472627D01*
X104686374Y-92372200D01*
X104686374Y-92235744D01*
X104712483Y-92221788D01*
X104771640Y-92173240D01*
X104783808Y-92158413D01*
X105600722Y-91341500D01*
X105729349Y-91341500D01*
X105857536Y-91316002D01*
X105978285Y-91265986D01*
X106086956Y-91193374D01*
X106179374Y-91100956D01*
X106206189Y-91060824D01*
X106175569Y-91161766D01*
X106164535Y-91273800D01*
X106167300Y-91665425D01*
X106310175Y-91808300D01*
X107048300Y-91808300D01*
X107048300Y-90845175D01*
X107429300Y-90845175D01*
X107429300Y-91808300D01*
X108167425Y-91808300D01*
X108310300Y-91665425D01*
X108311299Y-91523800D01*
X108374026Y-91523800D01*
X108374026Y-92473800D01*
X108383917Y-92574227D01*
X108413211Y-92670795D01*
X108460781Y-92759793D01*
X108524800Y-92837800D01*
X108602807Y-92901819D01*
X108691805Y-92949389D01*
X108788373Y-92978683D01*
X108888800Y-92988574D01*
X109388800Y-92988574D01*
X109489227Y-92978683D01*
X109573958Y-92952980D01*
X109885385Y-93264406D01*
X109877300Y-93305051D01*
X109877300Y-93435749D01*
X109902798Y-93563936D01*
X109952814Y-93684685D01*
X110025426Y-93793356D01*
X110117844Y-93885774D01*
X110226515Y-93958386D01*
X110347264Y-94008402D01*
X110475451Y-94033900D01*
X110606149Y-94033900D01*
X110734336Y-94008402D01*
X110855085Y-93958386D01*
X110963756Y-93885774D01*
X111056174Y-93793356D01*
X111128786Y-93684685D01*
X111178802Y-93563936D01*
X111204300Y-93435749D01*
X111204300Y-93305051D01*
X111180656Y-93186184D01*
X111260955Y-93252084D01*
X111360238Y-93305152D01*
X111467966Y-93337831D01*
X111580000Y-93348865D01*
X111746625Y-93346100D01*
X111889500Y-93203225D01*
X111889500Y-92240100D01*
X112270500Y-92240100D01*
X112270500Y-93203225D01*
X112413375Y-93346100D01*
X112580000Y-93348865D01*
X112692034Y-93337831D01*
X112799762Y-93305152D01*
X112899045Y-93252084D01*
X112986067Y-93180667D01*
X113057484Y-93093645D01*
X113110552Y-92994362D01*
X113143231Y-92886634D01*
X113154265Y-92774600D01*
X113151500Y-92382975D01*
X113008625Y-92240100D01*
X112270500Y-92240100D01*
X111889500Y-92240100D01*
X111151375Y-92240100D01*
X111008500Y-92382975D01*
X111005735Y-92774600D01*
X111016769Y-92886634D01*
X111026089Y-92917359D01*
X110963756Y-92855026D01*
X110855085Y-92782414D01*
X110734336Y-92732398D01*
X110606149Y-92706900D01*
X110475451Y-92706900D01*
X110434806Y-92714985D01*
X109903574Y-92183753D01*
X109903574Y-91523800D01*
X109893683Y-91423373D01*
X109864389Y-91326805D01*
X109863211Y-91324600D01*
X111005735Y-91324600D01*
X111008500Y-91716225D01*
X111151375Y-91859100D01*
X111889500Y-91859100D01*
X111889500Y-90895975D01*
X112270500Y-90895975D01*
X112270500Y-91859100D01*
X113008625Y-91859100D01*
X113151500Y-91716225D01*
X113152499Y-91574600D01*
X113215226Y-91574600D01*
X113215226Y-92524600D01*
X113225117Y-92625027D01*
X113254411Y-92721595D01*
X113301981Y-92810593D01*
X113366000Y-92888600D01*
X113444007Y-92952619D01*
X113533005Y-93000189D01*
X113629573Y-93029483D01*
X113730000Y-93039374D01*
X114230000Y-93039374D01*
X114330427Y-93029483D01*
X114426995Y-93000189D01*
X114515993Y-92952619D01*
X114594000Y-92888600D01*
X114658019Y-92810593D01*
X114705589Y-92721595D01*
X114734883Y-92625027D01*
X114744774Y-92524600D01*
X114744774Y-92438100D01*
X115528170Y-92438100D01*
X115553444Y-92463374D01*
X115662115Y-92535986D01*
X115782864Y-92586002D01*
X115911051Y-92611500D01*
X116041749Y-92611500D01*
X116169936Y-92586002D01*
X116290685Y-92535986D01*
X116399356Y-92463374D01*
X116491774Y-92370956D01*
X116564386Y-92262285D01*
X116614402Y-92141536D01*
X116639900Y-92013349D01*
X116639900Y-91882651D01*
X116614402Y-91754464D01*
X116564386Y-91633715D01*
X116491774Y-91525044D01*
X116399356Y-91432626D01*
X116290685Y-91360014D01*
X116169936Y-91309998D01*
X116041749Y-91284500D01*
X115911051Y-91284500D01*
X115782864Y-91309998D01*
X115662115Y-91360014D01*
X115553444Y-91432626D01*
X115461026Y-91525044D01*
X115388414Y-91633715D01*
X115377071Y-91661100D01*
X114744774Y-91661100D01*
X114744774Y-91574600D01*
X114734883Y-91474173D01*
X114705589Y-91377605D01*
X114658019Y-91288607D01*
X114594000Y-91210600D01*
X114515993Y-91146581D01*
X114426995Y-91099011D01*
X114330427Y-91069717D01*
X114230000Y-91059826D01*
X113730000Y-91059826D01*
X113629573Y-91069717D01*
X113533005Y-91099011D01*
X113444007Y-91146581D01*
X113366000Y-91210600D01*
X113301981Y-91288607D01*
X113254411Y-91377605D01*
X113225117Y-91474173D01*
X113215226Y-91574600D01*
X113152499Y-91574600D01*
X113154265Y-91324600D01*
X113143231Y-91212566D01*
X113110552Y-91104838D01*
X113057484Y-91005555D01*
X112986067Y-90918533D01*
X112899045Y-90847116D01*
X112799762Y-90794048D01*
X112692034Y-90761369D01*
X112580000Y-90750335D01*
X112413375Y-90753100D01*
X112270500Y-90895975D01*
X111889500Y-90895975D01*
X111746625Y-90753100D01*
X111580000Y-90750335D01*
X111467966Y-90761369D01*
X111360238Y-90794048D01*
X111260955Y-90847116D01*
X111173933Y-90918533D01*
X111102516Y-91005555D01*
X111049448Y-91104838D01*
X111016769Y-91212566D01*
X111005735Y-91324600D01*
X109863211Y-91324600D01*
X109816819Y-91237807D01*
X109752800Y-91159800D01*
X109674793Y-91095781D01*
X109585795Y-91048211D01*
X109489227Y-91018917D01*
X109388800Y-91009026D01*
X108888800Y-91009026D01*
X108788373Y-91018917D01*
X108691805Y-91048211D01*
X108602807Y-91095781D01*
X108524800Y-91159800D01*
X108460781Y-91237807D01*
X108413211Y-91326805D01*
X108383917Y-91423373D01*
X108374026Y-91523800D01*
X108311299Y-91523800D01*
X108313065Y-91273800D01*
X108302031Y-91161766D01*
X108269352Y-91054038D01*
X108216284Y-90954755D01*
X108144867Y-90867733D01*
X108057845Y-90796316D01*
X107958562Y-90743248D01*
X107850834Y-90710569D01*
X107738800Y-90699535D01*
X107572175Y-90702300D01*
X107429300Y-90845175D01*
X107048300Y-90845175D01*
X106905425Y-90702300D01*
X106738800Y-90699535D01*
X106626766Y-90710569D01*
X106519038Y-90743248D01*
X106419755Y-90796316D01*
X106332733Y-90867733D01*
X106273865Y-90939463D01*
X106302002Y-90871536D01*
X106327500Y-90743349D01*
X106327500Y-90612651D01*
X106302002Y-90484464D01*
X106251986Y-90363715D01*
X106215160Y-90308600D01*
X129344535Y-90308600D01*
X129347300Y-90700225D01*
X129490175Y-90843100D01*
X130228300Y-90843100D01*
X130228300Y-89879975D01*
X130609300Y-89879975D01*
X130609300Y-90843100D01*
X131347425Y-90843100D01*
X131490300Y-90700225D01*
X131491299Y-90558600D01*
X131554026Y-90558600D01*
X131554026Y-91508600D01*
X131563917Y-91609027D01*
X131593211Y-91705595D01*
X131640781Y-91794593D01*
X131704800Y-91872600D01*
X131782807Y-91936619D01*
X131871805Y-91984189D01*
X131968373Y-92013483D01*
X132068800Y-92023374D01*
X132568800Y-92023374D01*
X132669227Y-92013483D01*
X132765795Y-91984189D01*
X132854793Y-91936619D01*
X132932800Y-91872600D01*
X132996819Y-91794593D01*
X133044389Y-91705595D01*
X133073683Y-91609027D01*
X133082570Y-91518792D01*
X133253385Y-91689606D01*
X133245300Y-91730251D01*
X133245300Y-91860949D01*
X133270798Y-91989136D01*
X133320814Y-92109885D01*
X133393426Y-92218556D01*
X133485844Y-92310974D01*
X133594515Y-92383586D01*
X133715264Y-92433602D01*
X133843451Y-92459100D01*
X133974149Y-92459100D01*
X134102336Y-92433602D01*
X134223085Y-92383586D01*
X134331756Y-92310974D01*
X134424174Y-92218556D01*
X134496786Y-92109885D01*
X134546802Y-91989136D01*
X134572300Y-91860949D01*
X134572300Y-91860200D01*
X134780135Y-91860200D01*
X134791169Y-91972234D01*
X134823848Y-92079962D01*
X134876916Y-92179245D01*
X134948333Y-92266267D01*
X135035355Y-92337684D01*
X135134638Y-92390752D01*
X135242366Y-92423431D01*
X135354400Y-92434465D01*
X135521025Y-92431700D01*
X135663900Y-92288825D01*
X135663900Y-91325700D01*
X136044900Y-91325700D01*
X136044900Y-92288825D01*
X136187775Y-92431700D01*
X136354400Y-92434465D01*
X136466434Y-92423431D01*
X136574162Y-92390752D01*
X136673445Y-92337684D01*
X136760467Y-92266267D01*
X136831884Y-92179245D01*
X136884952Y-92079962D01*
X136917631Y-91972234D01*
X136928665Y-91860200D01*
X136925900Y-91468575D01*
X136783025Y-91325700D01*
X136044900Y-91325700D01*
X135663900Y-91325700D01*
X134925775Y-91325700D01*
X134782900Y-91468575D01*
X134780135Y-91860200D01*
X134572300Y-91860200D01*
X134572300Y-91730251D01*
X134546802Y-91602064D01*
X134496786Y-91481315D01*
X134424174Y-91372644D01*
X134331756Y-91280226D01*
X134223085Y-91207614D01*
X134102336Y-91157598D01*
X133974149Y-91132100D01*
X133843451Y-91132100D01*
X133802806Y-91140185D01*
X133435008Y-90772387D01*
X133422840Y-90757560D01*
X133363683Y-90709012D01*
X133296192Y-90672937D01*
X133222959Y-90650722D01*
X133165878Y-90645100D01*
X133165875Y-90645100D01*
X133146800Y-90643221D01*
X133127725Y-90645100D01*
X133083574Y-90645100D01*
X133083574Y-90558600D01*
X133073683Y-90458173D01*
X133059131Y-90410200D01*
X134780135Y-90410200D01*
X134782900Y-90801825D01*
X134925775Y-90944700D01*
X135663900Y-90944700D01*
X135663900Y-89981575D01*
X136044900Y-89981575D01*
X136044900Y-90944700D01*
X136783025Y-90944700D01*
X136925900Y-90801825D01*
X136926899Y-90660200D01*
X136989626Y-90660200D01*
X136989626Y-91610200D01*
X136999517Y-91710627D01*
X137028811Y-91807195D01*
X137076381Y-91896193D01*
X137140400Y-91974200D01*
X137218407Y-92038219D01*
X137307405Y-92085789D01*
X137403973Y-92115083D01*
X137504400Y-92124974D01*
X138004400Y-92124974D01*
X138104827Y-92115083D01*
X138201395Y-92085789D01*
X138252399Y-92058527D01*
X138260832Y-92066959D01*
X138252747Y-92107604D01*
X138252747Y-92238302D01*
X138278245Y-92366489D01*
X138328261Y-92487238D01*
X138400873Y-92595909D01*
X138493291Y-92688327D01*
X138601962Y-92760939D01*
X138722711Y-92810955D01*
X138850898Y-92836453D01*
X138981596Y-92836453D01*
X139109783Y-92810955D01*
X139230532Y-92760939D01*
X139339203Y-92688327D01*
X139431621Y-92595909D01*
X139504233Y-92487238D01*
X139554249Y-92366489D01*
X139575366Y-92260325D01*
X139621933Y-92317067D01*
X139708955Y-92388484D01*
X139808238Y-92441552D01*
X139915966Y-92474231D01*
X140028000Y-92485265D01*
X140194625Y-92482500D01*
X140337500Y-92339625D01*
X140337500Y-91376500D01*
X140718500Y-91376500D01*
X140718500Y-92339625D01*
X140861375Y-92482500D01*
X141028000Y-92485265D01*
X141140034Y-92474231D01*
X141247762Y-92441552D01*
X141347045Y-92388484D01*
X141434067Y-92317067D01*
X141505484Y-92230045D01*
X141558552Y-92130762D01*
X141591231Y-92023034D01*
X141602265Y-91911000D01*
X141599500Y-91519375D01*
X141456625Y-91376500D01*
X140718500Y-91376500D01*
X140337500Y-91376500D01*
X139599375Y-91376500D01*
X139456500Y-91519375D01*
X139454629Y-91784430D01*
X139431621Y-91749997D01*
X139339203Y-91657579D01*
X139230532Y-91584967D01*
X139109783Y-91534951D01*
X138981596Y-91509453D01*
X138850898Y-91509453D01*
X138810253Y-91517538D01*
X138519174Y-91226459D01*
X138519174Y-90660200D01*
X138509283Y-90559773D01*
X138479989Y-90463205D01*
X138478811Y-90461000D01*
X139453735Y-90461000D01*
X139456500Y-90852625D01*
X139599375Y-90995500D01*
X140337500Y-90995500D01*
X140337500Y-90032375D01*
X140718500Y-90032375D01*
X140718500Y-90995500D01*
X141456625Y-90995500D01*
X141599500Y-90852625D01*
X141600499Y-90711000D01*
X141663226Y-90711000D01*
X141663226Y-91661000D01*
X141673117Y-91761427D01*
X141702411Y-91857995D01*
X141749981Y-91946993D01*
X141814000Y-92025000D01*
X141892007Y-92089019D01*
X141981005Y-92136589D01*
X142077573Y-92165883D01*
X142178000Y-92175774D01*
X142678000Y-92175774D01*
X142778427Y-92165883D01*
X142874995Y-92136589D01*
X142963993Y-92089019D01*
X143042000Y-92025000D01*
X143106019Y-91946993D01*
X143153589Y-91857995D01*
X143182883Y-91761427D01*
X143192774Y-91661000D01*
X143192774Y-91574500D01*
X143897325Y-91574500D01*
X143916400Y-91576379D01*
X143935475Y-91574500D01*
X143935478Y-91574500D01*
X143992559Y-91568878D01*
X144065792Y-91546663D01*
X144133283Y-91510588D01*
X144192440Y-91462040D01*
X144204608Y-91447213D01*
X144318406Y-91333415D01*
X144359051Y-91341500D01*
X144489749Y-91341500D01*
X144617936Y-91316002D01*
X144738685Y-91265986D01*
X144847356Y-91193374D01*
X144939774Y-91100956D01*
X145012386Y-90992285D01*
X145062402Y-90871536D01*
X145087900Y-90743349D01*
X145087900Y-90612651D01*
X145062402Y-90484464D01*
X145012386Y-90363715D01*
X144939774Y-90255044D01*
X144847356Y-90162626D01*
X144738685Y-90090014D01*
X144617936Y-90039998D01*
X144489749Y-90014500D01*
X144359051Y-90014500D01*
X144230864Y-90039998D01*
X144110115Y-90090014D01*
X144001444Y-90162626D01*
X143909026Y-90255044D01*
X143836414Y-90363715D01*
X143786398Y-90484464D01*
X143760900Y-90612651D01*
X143760900Y-90743349D01*
X143768985Y-90783994D01*
X143755479Y-90797500D01*
X143192774Y-90797500D01*
X143192774Y-90711000D01*
X143182883Y-90610573D01*
X143153589Y-90514005D01*
X143106019Y-90425007D01*
X143042000Y-90347000D01*
X142963993Y-90282981D01*
X142874995Y-90235411D01*
X142778427Y-90206117D01*
X142678000Y-90196226D01*
X142178000Y-90196226D01*
X142077573Y-90206117D01*
X141981005Y-90235411D01*
X141892007Y-90282981D01*
X141814000Y-90347000D01*
X141749981Y-90425007D01*
X141702411Y-90514005D01*
X141673117Y-90610573D01*
X141663226Y-90711000D01*
X141600499Y-90711000D01*
X141602265Y-90461000D01*
X141591231Y-90348966D01*
X141558552Y-90241238D01*
X141505484Y-90141955D01*
X141434067Y-90054933D01*
X141347045Y-89983516D01*
X141247762Y-89930448D01*
X141140034Y-89897769D01*
X141028000Y-89886735D01*
X140861375Y-89889500D01*
X140718500Y-90032375D01*
X140337500Y-90032375D01*
X140194625Y-89889500D01*
X140028000Y-89886735D01*
X139915966Y-89897769D01*
X139808238Y-89930448D01*
X139708955Y-89983516D01*
X139621933Y-90054933D01*
X139550516Y-90141955D01*
X139497448Y-90241238D01*
X139464769Y-90348966D01*
X139453735Y-90461000D01*
X138478811Y-90461000D01*
X138432419Y-90374207D01*
X138368400Y-90296200D01*
X138290393Y-90232181D01*
X138201395Y-90184611D01*
X138104827Y-90155317D01*
X138004400Y-90145426D01*
X137504400Y-90145426D01*
X137403973Y-90155317D01*
X137307405Y-90184611D01*
X137218407Y-90232181D01*
X137140400Y-90296200D01*
X137076381Y-90374207D01*
X137028811Y-90463205D01*
X136999517Y-90559773D01*
X136989626Y-90660200D01*
X136926899Y-90660200D01*
X136928665Y-90410200D01*
X136917631Y-90298166D01*
X136884952Y-90190438D01*
X136831884Y-90091155D01*
X136760467Y-90004133D01*
X136673445Y-89932716D01*
X136574162Y-89879648D01*
X136466434Y-89846969D01*
X136354400Y-89835935D01*
X136187775Y-89838700D01*
X136044900Y-89981575D01*
X135663900Y-89981575D01*
X135521025Y-89838700D01*
X135354400Y-89835935D01*
X135242366Y-89846969D01*
X135134638Y-89879648D01*
X135035355Y-89932716D01*
X134948333Y-90004133D01*
X134876916Y-90091155D01*
X134823848Y-90190438D01*
X134791169Y-90298166D01*
X134780135Y-90410200D01*
X133059131Y-90410200D01*
X133044389Y-90361605D01*
X132996819Y-90272607D01*
X132932800Y-90194600D01*
X132854793Y-90130581D01*
X132765795Y-90083011D01*
X132669227Y-90053717D01*
X132568800Y-90043826D01*
X132068800Y-90043826D01*
X131968373Y-90053717D01*
X131871805Y-90083011D01*
X131782807Y-90130581D01*
X131704800Y-90194600D01*
X131640781Y-90272607D01*
X131593211Y-90361605D01*
X131563917Y-90458173D01*
X131554026Y-90558600D01*
X131491299Y-90558600D01*
X131493065Y-90308600D01*
X131482031Y-90196566D01*
X131449352Y-90088838D01*
X131396284Y-89989555D01*
X131324867Y-89902533D01*
X131237845Y-89831116D01*
X131138562Y-89778048D01*
X131030834Y-89745369D01*
X130918800Y-89734335D01*
X130752175Y-89737100D01*
X130609300Y-89879975D01*
X130228300Y-89879975D01*
X130085425Y-89737100D01*
X129918800Y-89734335D01*
X129806766Y-89745369D01*
X129699038Y-89778048D01*
X129599755Y-89831116D01*
X129512733Y-89902533D01*
X129441316Y-89989555D01*
X129388248Y-90088838D01*
X129355569Y-90196566D01*
X129344535Y-90308600D01*
X106215160Y-90308600D01*
X106179374Y-90255044D01*
X106086956Y-90162626D01*
X105978285Y-90090014D01*
X105857536Y-90039998D01*
X105729349Y-90014500D01*
X105598651Y-90014500D01*
X105470464Y-90039998D01*
X105349715Y-90090014D01*
X105241044Y-90162626D01*
X105148626Y-90255044D01*
X105076014Y-90363715D01*
X105025998Y-90484464D01*
X105000500Y-90612651D01*
X105000500Y-90743349D01*
X105017013Y-90826365D01*
X104637082Y-91206296D01*
X104599619Y-91136207D01*
X104535600Y-91058200D01*
X104457593Y-90994181D01*
X104368595Y-90946611D01*
X104272027Y-90917317D01*
X104171600Y-90907426D01*
X103671600Y-90907426D01*
X103571173Y-90917317D01*
X103474605Y-90946611D01*
X103385607Y-90994181D01*
X103307600Y-91058200D01*
X103243581Y-91136207D01*
X103196011Y-91225205D01*
X103166717Y-91321773D01*
X103156826Y-91422200D01*
X103094099Y-91422200D01*
X103095865Y-91172200D01*
X103084831Y-91060166D01*
X103052152Y-90952438D01*
X102999084Y-90853155D01*
X102927667Y-90766133D01*
X102840645Y-90694716D01*
X102741362Y-90641648D01*
X102633634Y-90608969D01*
X102521600Y-90597935D01*
X102354975Y-90600700D01*
X102212100Y-90743575D01*
X101831100Y-90743575D01*
X101688225Y-90600700D01*
X101521600Y-90597935D01*
X101409566Y-90608969D01*
X101301838Y-90641648D01*
X101202555Y-90694716D01*
X101115533Y-90766133D01*
X101044116Y-90853155D01*
X100991048Y-90952438D01*
X100958369Y-91060166D01*
X100947335Y-91172200D01*
X72605500Y-91172200D01*
X72605500Y-73318200D01*
X101201335Y-73318200D01*
X101212369Y-73430234D01*
X101245048Y-73537962D01*
X101298116Y-73637245D01*
X101369533Y-73724267D01*
X101456555Y-73795684D01*
X101555838Y-73848752D01*
X101663566Y-73881431D01*
X101775600Y-73892465D01*
X101942225Y-73889700D01*
X102085100Y-73746825D01*
X102085100Y-72783700D01*
X102466100Y-72783700D01*
X102466100Y-73746825D01*
X102608975Y-73889700D01*
X102775600Y-73892465D01*
X102887634Y-73881431D01*
X102995362Y-73848752D01*
X103094645Y-73795684D01*
X103181667Y-73724267D01*
X103253084Y-73637245D01*
X103306152Y-73537962D01*
X103338831Y-73430234D01*
X103349865Y-73318200D01*
X103347100Y-72926575D01*
X103204225Y-72783700D01*
X102466100Y-72783700D01*
X102085100Y-72783700D01*
X101346975Y-72783700D01*
X101204100Y-72926575D01*
X101201335Y-73318200D01*
X72605500Y-73318200D01*
X72605500Y-71868200D01*
X101201335Y-71868200D01*
X101204100Y-72259825D01*
X101346975Y-72402700D01*
X102085100Y-72402700D01*
X102085100Y-71439575D01*
X102466100Y-71439575D01*
X102466100Y-72402700D01*
X103204225Y-72402700D01*
X103347100Y-72259825D01*
X103348099Y-72118200D01*
X103410826Y-72118200D01*
X103410826Y-73068200D01*
X103420717Y-73168627D01*
X103450011Y-73265195D01*
X103497581Y-73354193D01*
X103561600Y-73432200D01*
X103639607Y-73496219D01*
X103728605Y-73543789D01*
X103825173Y-73573083D01*
X103925600Y-73582974D01*
X104425600Y-73582974D01*
X104526027Y-73573083D01*
X104622595Y-73543789D01*
X104711593Y-73496219D01*
X104789600Y-73432200D01*
X104853619Y-73354193D01*
X104873387Y-73317209D01*
X105059385Y-73503206D01*
X105051300Y-73543851D01*
X105051300Y-73674549D01*
X105076798Y-73802736D01*
X105126814Y-73923485D01*
X105199426Y-74032156D01*
X105291844Y-74124574D01*
X105400515Y-74197186D01*
X105521264Y-74247202D01*
X105649451Y-74272700D01*
X105780149Y-74272700D01*
X105908336Y-74247202D01*
X106029085Y-74197186D01*
X106137756Y-74124574D01*
X106230174Y-74032156D01*
X106302786Y-73923485D01*
X106352802Y-73802736D01*
X106378300Y-73674549D01*
X106378300Y-73543851D01*
X106352802Y-73415664D01*
X106333474Y-73369000D01*
X106636935Y-73369000D01*
X106647969Y-73481034D01*
X106680648Y-73588762D01*
X106733716Y-73688045D01*
X106805133Y-73775067D01*
X106892155Y-73846484D01*
X106991438Y-73899552D01*
X107099166Y-73932231D01*
X107211200Y-73943265D01*
X107377825Y-73940500D01*
X107520700Y-73797625D01*
X107520700Y-72834500D01*
X107901700Y-72834500D01*
X107901700Y-73797625D01*
X108044575Y-73940500D01*
X108211200Y-73943265D01*
X108323234Y-73932231D01*
X108430962Y-73899552D01*
X108530245Y-73846484D01*
X108617267Y-73775067D01*
X108688684Y-73688045D01*
X108741752Y-73588762D01*
X108774431Y-73481034D01*
X108785465Y-73369000D01*
X108782700Y-72977375D01*
X108639825Y-72834500D01*
X107901700Y-72834500D01*
X107520700Y-72834500D01*
X106782575Y-72834500D01*
X106639700Y-72977375D01*
X106636935Y-73369000D01*
X106333474Y-73369000D01*
X106302786Y-73294915D01*
X106230174Y-73186244D01*
X106137756Y-73093826D01*
X106029085Y-73021214D01*
X105908336Y-72971198D01*
X105780149Y-72945700D01*
X105649451Y-72945700D01*
X105608806Y-72953785D01*
X104987008Y-72331987D01*
X104974840Y-72317160D01*
X104940374Y-72288875D01*
X104940374Y-72118200D01*
X104930483Y-72017773D01*
X104901189Y-71921205D01*
X104900011Y-71919000D01*
X106636935Y-71919000D01*
X106639700Y-72310625D01*
X106782575Y-72453500D01*
X107520700Y-72453500D01*
X107520700Y-71490375D01*
X107901700Y-71490375D01*
X107901700Y-72453500D01*
X108639825Y-72453500D01*
X108782700Y-72310625D01*
X108783699Y-72169000D01*
X108846426Y-72169000D01*
X108846426Y-73119000D01*
X108856317Y-73219427D01*
X108885611Y-73315995D01*
X108933181Y-73404993D01*
X108997200Y-73483000D01*
X109075207Y-73547019D01*
X109164205Y-73594589D01*
X109260773Y-73623883D01*
X109361200Y-73633774D01*
X109861200Y-73633774D01*
X109961627Y-73623883D01*
X110023034Y-73605255D01*
X110304700Y-73886922D01*
X110304701Y-74748445D01*
X110257614Y-74818915D01*
X110207598Y-74939664D01*
X110182100Y-75067851D01*
X110182100Y-75198549D01*
X110207598Y-75326736D01*
X110257614Y-75447485D01*
X110330226Y-75556156D01*
X110422644Y-75648574D01*
X110531315Y-75721186D01*
X110652064Y-75771202D01*
X110780251Y-75796700D01*
X110910949Y-75796700D01*
X111039136Y-75771202D01*
X111159885Y-75721186D01*
X111268556Y-75648574D01*
X111360974Y-75556156D01*
X111433586Y-75447485D01*
X111483602Y-75326736D01*
X111509100Y-75198549D01*
X111509100Y-75067851D01*
X111483602Y-74939664D01*
X111433586Y-74818915D01*
X111360974Y-74710244D01*
X111268556Y-74617826D01*
X111159885Y-74545214D01*
X111081700Y-74512829D01*
X111081700Y-73745074D01*
X111083579Y-73725999D01*
X111081700Y-73706922D01*
X111076078Y-73649841D01*
X111053863Y-73576608D01*
X111017789Y-73509118D01*
X111017788Y-73509116D01*
X110981401Y-73464779D01*
X110969240Y-73449960D01*
X110954420Y-73437798D01*
X110834822Y-73318200D01*
X111412135Y-73318200D01*
X111423169Y-73430234D01*
X111455848Y-73537962D01*
X111508916Y-73637245D01*
X111580333Y-73724267D01*
X111667355Y-73795684D01*
X111766638Y-73848752D01*
X111874366Y-73881431D01*
X111986400Y-73892465D01*
X112153025Y-73889700D01*
X112295900Y-73746825D01*
X112295900Y-72783700D01*
X112676900Y-72783700D01*
X112676900Y-73746825D01*
X112819775Y-73889700D01*
X112986400Y-73892465D01*
X113098434Y-73881431D01*
X113206162Y-73848752D01*
X113305445Y-73795684D01*
X113392467Y-73724267D01*
X113463884Y-73637245D01*
X113516952Y-73537962D01*
X113549631Y-73430234D01*
X113560665Y-73318200D01*
X113557900Y-72926575D01*
X113415025Y-72783700D01*
X112676900Y-72783700D01*
X112295900Y-72783700D01*
X111557775Y-72783700D01*
X111414900Y-72926575D01*
X111412135Y-73318200D01*
X110834822Y-73318200D01*
X110375974Y-72859353D01*
X110375974Y-72169000D01*
X110366083Y-72068573D01*
X110336789Y-71972005D01*
X110289219Y-71883007D01*
X110277068Y-71868200D01*
X111412135Y-71868200D01*
X111414900Y-72259825D01*
X111557775Y-72402700D01*
X112295900Y-72402700D01*
X112295900Y-71439575D01*
X112676900Y-71439575D01*
X112676900Y-72402700D01*
X113415025Y-72402700D01*
X113557900Y-72259825D01*
X113558899Y-72118200D01*
X113621626Y-72118200D01*
X113621626Y-73068200D01*
X113631517Y-73168627D01*
X113660811Y-73265195D01*
X113708381Y-73354193D01*
X113772400Y-73432200D01*
X113850407Y-73496219D01*
X113939405Y-73543789D01*
X114035973Y-73573083D01*
X114136400Y-73582974D01*
X114636400Y-73582974D01*
X114736827Y-73573083D01*
X114833395Y-73543789D01*
X114922393Y-73496219D01*
X115000400Y-73432200D01*
X115064419Y-73354193D01*
X115111989Y-73265195D01*
X115141283Y-73168627D01*
X115151174Y-73068200D01*
X115151174Y-72981700D01*
X115505659Y-72981700D01*
X115562626Y-73066956D01*
X115655044Y-73159374D01*
X115763715Y-73231986D01*
X115884464Y-73282002D01*
X116012651Y-73307500D01*
X116143349Y-73307500D01*
X116271536Y-73282002D01*
X116392285Y-73231986D01*
X116500956Y-73159374D01*
X116593374Y-73066956D01*
X116665986Y-72958285D01*
X116716002Y-72837536D01*
X116741500Y-72709349D01*
X116741500Y-72578651D01*
X116716002Y-72450464D01*
X116665986Y-72329715D01*
X116593374Y-72221044D01*
X116500956Y-72128626D01*
X116392285Y-72056014D01*
X116271536Y-72005998D01*
X116143349Y-71980500D01*
X116012651Y-71980500D01*
X115884464Y-72005998D01*
X115763715Y-72056014D01*
X115655044Y-72128626D01*
X115578970Y-72204700D01*
X115151174Y-72204700D01*
X115151174Y-72118200D01*
X115141283Y-72017773D01*
X115111989Y-71921205D01*
X115064419Y-71832207D01*
X115000400Y-71754200D01*
X114922393Y-71690181D01*
X114833395Y-71642611D01*
X114736827Y-71613317D01*
X114636400Y-71603426D01*
X114136400Y-71603426D01*
X114035973Y-71613317D01*
X113939405Y-71642611D01*
X113850407Y-71690181D01*
X113772400Y-71754200D01*
X113708381Y-71832207D01*
X113660811Y-71921205D01*
X113631517Y-72017773D01*
X113621626Y-72118200D01*
X113558899Y-72118200D01*
X113560665Y-71868200D01*
X113549631Y-71756166D01*
X113516952Y-71648438D01*
X113463884Y-71549155D01*
X113392467Y-71462133D01*
X113305445Y-71390716D01*
X113206162Y-71337648D01*
X113098434Y-71304969D01*
X112986400Y-71293935D01*
X112819775Y-71296700D01*
X112676900Y-71439575D01*
X112295900Y-71439575D01*
X112153025Y-71296700D01*
X111986400Y-71293935D01*
X111874366Y-71304969D01*
X111766638Y-71337648D01*
X111667355Y-71390716D01*
X111580333Y-71462133D01*
X111508916Y-71549155D01*
X111455848Y-71648438D01*
X111423169Y-71756166D01*
X111412135Y-71868200D01*
X110277068Y-71868200D01*
X110225200Y-71805000D01*
X110147193Y-71740981D01*
X110058195Y-71693411D01*
X109961627Y-71664117D01*
X109861200Y-71654226D01*
X109361200Y-71654226D01*
X109260773Y-71664117D01*
X109164205Y-71693411D01*
X109075207Y-71740981D01*
X108997200Y-71805000D01*
X108933181Y-71883007D01*
X108885611Y-71972005D01*
X108856317Y-72068573D01*
X108846426Y-72169000D01*
X108783699Y-72169000D01*
X108785465Y-71919000D01*
X108774431Y-71806966D01*
X108741752Y-71699238D01*
X108688684Y-71599955D01*
X108617267Y-71512933D01*
X108530245Y-71441516D01*
X108430962Y-71388448D01*
X108323234Y-71355769D01*
X108211200Y-71344735D01*
X108044575Y-71347500D01*
X107901700Y-71490375D01*
X107520700Y-71490375D01*
X107377825Y-71347500D01*
X107211200Y-71344735D01*
X107099166Y-71355769D01*
X106991438Y-71388448D01*
X106892155Y-71441516D01*
X106805133Y-71512933D01*
X106733716Y-71599955D01*
X106680648Y-71699238D01*
X106647969Y-71806966D01*
X106636935Y-71919000D01*
X104900011Y-71919000D01*
X104853619Y-71832207D01*
X104789600Y-71754200D01*
X104711593Y-71690181D01*
X104622595Y-71642611D01*
X104526027Y-71613317D01*
X104425600Y-71603426D01*
X103925600Y-71603426D01*
X103825173Y-71613317D01*
X103728605Y-71642611D01*
X103639607Y-71690181D01*
X103561600Y-71754200D01*
X103497581Y-71832207D01*
X103450011Y-71921205D01*
X103420717Y-72017773D01*
X103410826Y-72118200D01*
X103348099Y-72118200D01*
X103349865Y-71868200D01*
X103338831Y-71756166D01*
X103306152Y-71648438D01*
X103253084Y-71549155D01*
X103181667Y-71462133D01*
X103094645Y-71390716D01*
X102995362Y-71337648D01*
X102887634Y-71304969D01*
X102775600Y-71293935D01*
X102608975Y-71296700D01*
X102466100Y-71439575D01*
X102085100Y-71439575D01*
X101942225Y-71296700D01*
X101775600Y-71293935D01*
X101663566Y-71304969D01*
X101555838Y-71337648D01*
X101456555Y-71390716D01*
X101369533Y-71462133D01*
X101298116Y-71549155D01*
X101245048Y-71648438D01*
X101212369Y-71756166D01*
X101201335Y-71868200D01*
X72605500Y-71868200D01*
X72605500Y-65040000D01*
X78745226Y-65040000D01*
X78745226Y-67040000D01*
X78750314Y-67091655D01*
X78765381Y-67141325D01*
X78789848Y-67187101D01*
X78822777Y-67227223D01*
X78862899Y-67260152D01*
X78908675Y-67284619D01*
X78958345Y-67299686D01*
X79010000Y-67304774D01*
X79621500Y-67304774D01*
X79621501Y-69946603D01*
X79587044Y-69969626D01*
X79494626Y-70062044D01*
X79422014Y-70170715D01*
X79371998Y-70291464D01*
X79346500Y-70419651D01*
X79346500Y-70550349D01*
X79371998Y-70678536D01*
X79422014Y-70799285D01*
X79494626Y-70907956D01*
X79587044Y-71000374D01*
X79695715Y-71072986D01*
X79816464Y-71123002D01*
X79944651Y-71148500D01*
X80075349Y-71148500D01*
X80203536Y-71123002D01*
X80324285Y-71072986D01*
X80432956Y-71000374D01*
X80525374Y-70907956D01*
X80597986Y-70799285D01*
X80648002Y-70678536D01*
X80673500Y-70550349D01*
X80673500Y-70419651D01*
X80648002Y-70291464D01*
X80597986Y-70170715D01*
X80525374Y-70062044D01*
X80432956Y-69969626D01*
X80398500Y-69946603D01*
X80398500Y-67718520D01*
X86903467Y-67718520D01*
X86905957Y-67726759D01*
X87013376Y-67983887D01*
X87168894Y-68215118D01*
X87366535Y-68411566D01*
X87598704Y-68565681D01*
X87856478Y-68671541D01*
X88074500Y-68575810D01*
X88074500Y-67500500D01*
X88455500Y-67500500D01*
X88455500Y-68575810D01*
X88673522Y-68671541D01*
X88931296Y-68565681D01*
X89163465Y-68411566D01*
X89361106Y-68215118D01*
X89501313Y-68006651D01*
X99056900Y-68006651D01*
X99056900Y-68137349D01*
X99082398Y-68265536D01*
X99132414Y-68386285D01*
X99205026Y-68494956D01*
X99297444Y-68587374D01*
X99406115Y-68659986D01*
X99526864Y-68710002D01*
X99655051Y-68735500D01*
X99785749Y-68735500D01*
X99913936Y-68710002D01*
X100034685Y-68659986D01*
X100143356Y-68587374D01*
X100235774Y-68494956D01*
X100258797Y-68460500D01*
X100524679Y-68460500D01*
X100944585Y-68880406D01*
X100936500Y-68921051D01*
X100936500Y-69051749D01*
X100961998Y-69179936D01*
X101012014Y-69300685D01*
X101084626Y-69409356D01*
X101177044Y-69501774D01*
X101285715Y-69574386D01*
X101406464Y-69624402D01*
X101534651Y-69649900D01*
X101665349Y-69649900D01*
X101793536Y-69624402D01*
X101914285Y-69574386D01*
X102022956Y-69501774D01*
X102115374Y-69409356D01*
X102187986Y-69300685D01*
X102238002Y-69179936D01*
X102263500Y-69051749D01*
X102263500Y-68921051D01*
X102238002Y-68792864D01*
X102187986Y-68672115D01*
X102115374Y-68563444D01*
X102022956Y-68471026D01*
X101914285Y-68398414D01*
X101793536Y-68348398D01*
X101665349Y-68322900D01*
X101534651Y-68322900D01*
X101494006Y-68330985D01*
X100973808Y-67810787D01*
X100961640Y-67795960D01*
X100902483Y-67747412D01*
X100834992Y-67711337D01*
X100761759Y-67689122D01*
X100704678Y-67683500D01*
X100704675Y-67683500D01*
X100685600Y-67681621D01*
X100666525Y-67683500D01*
X100258797Y-67683500D01*
X100235774Y-67649044D01*
X100143356Y-67556626D01*
X100034685Y-67484014D01*
X99913936Y-67433998D01*
X99785749Y-67408500D01*
X99655051Y-67408500D01*
X99526864Y-67433998D01*
X99406115Y-67484014D01*
X99297444Y-67556626D01*
X99205026Y-67649044D01*
X99132414Y-67757715D01*
X99082398Y-67878464D01*
X99056900Y-68006651D01*
X89501313Y-68006651D01*
X89516624Y-67983887D01*
X89624043Y-67726759D01*
X89626533Y-67718520D01*
X89529354Y-67500500D01*
X88455500Y-67500500D01*
X88074500Y-67500500D01*
X87000646Y-67500500D01*
X86903467Y-67718520D01*
X80398500Y-67718520D01*
X80398500Y-67304774D01*
X81010000Y-67304774D01*
X81061655Y-67299686D01*
X81111325Y-67284619D01*
X81157101Y-67260152D01*
X81197223Y-67227223D01*
X81230152Y-67187101D01*
X81254619Y-67141325D01*
X81269686Y-67091655D01*
X81274774Y-67040000D01*
X81274774Y-66901480D01*
X86903467Y-66901480D01*
X87000646Y-67119500D01*
X88074500Y-67119500D01*
X88074500Y-66044190D01*
X88455500Y-66044190D01*
X88455500Y-67119500D01*
X89529354Y-67119500D01*
X89626533Y-66901480D01*
X89624043Y-66893241D01*
X89516624Y-66636113D01*
X89361106Y-66404882D01*
X89163465Y-66208434D01*
X88931296Y-66054319D01*
X88673522Y-65948459D01*
X88455500Y-66044190D01*
X88074500Y-66044190D01*
X87856478Y-65948459D01*
X87598704Y-66054319D01*
X87366535Y-66208434D01*
X87168894Y-66404882D01*
X87013376Y-66636113D01*
X86905957Y-66893241D01*
X86903467Y-66901480D01*
X81274774Y-66901480D01*
X81274774Y-65923851D01*
X99361700Y-65923851D01*
X99361700Y-66054549D01*
X99387198Y-66182736D01*
X99437214Y-66303485D01*
X99509826Y-66412156D01*
X99602244Y-66504574D01*
X99710915Y-66577186D01*
X99831664Y-66627202D01*
X99959851Y-66652700D01*
X100090549Y-66652700D01*
X100218736Y-66627202D01*
X100339485Y-66577186D01*
X100448156Y-66504574D01*
X100473430Y-66479300D01*
X101663226Y-66479300D01*
X101663226Y-66565800D01*
X101673117Y-66666227D01*
X101702411Y-66762795D01*
X101749981Y-66851793D01*
X101814000Y-66929800D01*
X101892007Y-66993819D01*
X101981005Y-67041389D01*
X102077573Y-67070683D01*
X102178000Y-67080574D01*
X102678000Y-67080574D01*
X102778427Y-67070683D01*
X102874995Y-67041389D01*
X102963993Y-66993819D01*
X103042000Y-66929800D01*
X103106019Y-66851793D01*
X103125257Y-66815800D01*
X103253735Y-66815800D01*
X103264769Y-66927834D01*
X103297448Y-67035562D01*
X103350516Y-67134845D01*
X103421933Y-67221867D01*
X103508955Y-67293284D01*
X103608238Y-67346352D01*
X103715966Y-67379031D01*
X103828000Y-67390065D01*
X103994625Y-67387300D01*
X104137500Y-67244425D01*
X104137500Y-66281300D01*
X104518500Y-66281300D01*
X104518500Y-67244425D01*
X104661375Y-67387300D01*
X104828000Y-67390065D01*
X104940034Y-67379031D01*
X105047762Y-67346352D01*
X105147045Y-67293284D01*
X105234067Y-67221867D01*
X105305484Y-67134845D01*
X105358552Y-67035562D01*
X105391231Y-66927834D01*
X105402265Y-66815800D01*
X105401548Y-66714200D01*
X106621735Y-66714200D01*
X106632769Y-66826234D01*
X106665448Y-66933962D01*
X106718516Y-67033245D01*
X106789933Y-67120267D01*
X106876955Y-67191684D01*
X106976238Y-67244752D01*
X107083966Y-67277431D01*
X107196000Y-67288465D01*
X107362625Y-67285700D01*
X107505500Y-67142825D01*
X107505500Y-66179700D01*
X107886500Y-66179700D01*
X107886500Y-67142825D01*
X108029375Y-67285700D01*
X108196000Y-67288465D01*
X108308034Y-67277431D01*
X108415762Y-67244752D01*
X108515045Y-67191684D01*
X108602067Y-67120267D01*
X108673484Y-67033245D01*
X108726552Y-66933962D01*
X108759231Y-66826234D01*
X108770265Y-66714200D01*
X108767500Y-66322575D01*
X108624625Y-66179700D01*
X107886500Y-66179700D01*
X107505500Y-66179700D01*
X106767375Y-66179700D01*
X106624500Y-66322575D01*
X106621735Y-66714200D01*
X105401548Y-66714200D01*
X105399500Y-66424175D01*
X105256625Y-66281300D01*
X104518500Y-66281300D01*
X104137500Y-66281300D01*
X103399375Y-66281300D01*
X103256500Y-66424175D01*
X103253735Y-66815800D01*
X103125257Y-66815800D01*
X103153589Y-66762795D01*
X103182883Y-66666227D01*
X103192774Y-66565800D01*
X103192774Y-65615800D01*
X103182883Y-65515373D01*
X103153589Y-65418805D01*
X103125258Y-65365800D01*
X103253735Y-65365800D01*
X103256500Y-65757425D01*
X103399375Y-65900300D01*
X104137500Y-65900300D01*
X104137500Y-64937175D01*
X104518500Y-64937175D01*
X104518500Y-65900300D01*
X105256625Y-65900300D01*
X105399500Y-65757425D01*
X105402265Y-65365800D01*
X105392259Y-65264200D01*
X106621735Y-65264200D01*
X106624500Y-65655825D01*
X106767375Y-65798700D01*
X107505500Y-65798700D01*
X107505500Y-64835575D01*
X107886500Y-64835575D01*
X107886500Y-65798700D01*
X108624625Y-65798700D01*
X108767500Y-65655825D01*
X108768499Y-65514200D01*
X108831226Y-65514200D01*
X108831226Y-66464200D01*
X108841117Y-66564627D01*
X108870411Y-66661195D01*
X108917981Y-66750193D01*
X108982000Y-66828200D01*
X109060007Y-66892219D01*
X109149005Y-66939789D01*
X109245573Y-66969083D01*
X109346000Y-66978974D01*
X109846000Y-66978974D01*
X109946427Y-66969083D01*
X110042995Y-66939789D01*
X110131993Y-66892219D01*
X110210000Y-66828200D01*
X110220176Y-66815800D01*
X111462935Y-66815800D01*
X111473969Y-66927834D01*
X111506648Y-67035562D01*
X111559716Y-67134845D01*
X111631133Y-67221867D01*
X111718155Y-67293284D01*
X111817438Y-67346352D01*
X111925166Y-67379031D01*
X112037200Y-67390065D01*
X112203825Y-67387300D01*
X112346700Y-67244425D01*
X112346700Y-66281300D01*
X112727700Y-66281300D01*
X112727700Y-67244425D01*
X112870575Y-67387300D01*
X113037200Y-67390065D01*
X113149234Y-67379031D01*
X113256962Y-67346352D01*
X113356245Y-67293284D01*
X113443267Y-67221867D01*
X113514684Y-67134845D01*
X113567752Y-67035562D01*
X113600431Y-66927834D01*
X113611465Y-66815800D01*
X113608700Y-66424175D01*
X113465825Y-66281300D01*
X112727700Y-66281300D01*
X112346700Y-66281300D01*
X111608575Y-66281300D01*
X111465700Y-66424175D01*
X111462935Y-66815800D01*
X110220176Y-66815800D01*
X110274019Y-66750193D01*
X110321589Y-66661195D01*
X110350883Y-66564627D01*
X110360774Y-66464200D01*
X110360774Y-65773847D01*
X110768821Y-65365800D01*
X111462935Y-65365800D01*
X111465700Y-65757425D01*
X111608575Y-65900300D01*
X112346700Y-65900300D01*
X112346700Y-64937175D01*
X112727700Y-64937175D01*
X112727700Y-65900300D01*
X113465825Y-65900300D01*
X113608700Y-65757425D01*
X113609699Y-65615800D01*
X113672426Y-65615800D01*
X113672426Y-66565800D01*
X113682317Y-66666227D01*
X113711611Y-66762795D01*
X113759181Y-66851793D01*
X113823200Y-66929800D01*
X113901207Y-66993819D01*
X113990205Y-67041389D01*
X114086773Y-67070683D01*
X114187200Y-67080574D01*
X114687200Y-67080574D01*
X114787627Y-67070683D01*
X114884195Y-67041389D01*
X114973193Y-66993819D01*
X115051200Y-66929800D01*
X115115219Y-66851793D01*
X115162789Y-66762795D01*
X115192083Y-66666227D01*
X115201974Y-66565800D01*
X115201974Y-66479300D01*
X115438003Y-66479300D01*
X115461026Y-66513756D01*
X115553444Y-66606174D01*
X115662115Y-66678786D01*
X115782864Y-66728802D01*
X115911051Y-66754300D01*
X116041749Y-66754300D01*
X116169936Y-66728802D01*
X116290685Y-66678786D01*
X116399356Y-66606174D01*
X116491774Y-66513756D01*
X116564386Y-66405085D01*
X116614402Y-66284336D01*
X116639900Y-66156149D01*
X116639900Y-66025451D01*
X116614402Y-65897264D01*
X116564386Y-65776515D01*
X116491774Y-65667844D01*
X116399356Y-65575426D01*
X116290685Y-65502814D01*
X116169936Y-65452798D01*
X116041749Y-65427300D01*
X115911051Y-65427300D01*
X115782864Y-65452798D01*
X115662115Y-65502814D01*
X115553444Y-65575426D01*
X115461026Y-65667844D01*
X115438003Y-65702300D01*
X115201974Y-65702300D01*
X115201974Y-65615800D01*
X115192083Y-65515373D01*
X115162789Y-65418805D01*
X115115219Y-65329807D01*
X115051200Y-65251800D01*
X114973193Y-65187781D01*
X114884195Y-65140211D01*
X114787627Y-65110917D01*
X114687200Y-65101026D01*
X114187200Y-65101026D01*
X114086773Y-65110917D01*
X113990205Y-65140211D01*
X113901207Y-65187781D01*
X113823200Y-65251800D01*
X113759181Y-65329807D01*
X113711611Y-65418805D01*
X113682317Y-65515373D01*
X113672426Y-65615800D01*
X113609699Y-65615800D01*
X113611465Y-65365800D01*
X113600431Y-65253766D01*
X113567752Y-65146038D01*
X113514684Y-65046755D01*
X113443267Y-64959733D01*
X113356245Y-64888316D01*
X113256962Y-64835248D01*
X113149234Y-64802569D01*
X113037200Y-64791535D01*
X112870575Y-64794300D01*
X112727700Y-64937175D01*
X112346700Y-64937175D01*
X112203825Y-64794300D01*
X112037200Y-64791535D01*
X111925166Y-64802569D01*
X111817438Y-64835248D01*
X111718155Y-64888316D01*
X111631133Y-64959733D01*
X111559716Y-65046755D01*
X111506648Y-65146038D01*
X111473969Y-65253766D01*
X111462935Y-65365800D01*
X110768821Y-65365800D01*
X111310020Y-64824602D01*
X111324840Y-64812440D01*
X111373388Y-64753283D01*
X111409463Y-64685792D01*
X111431678Y-64612559D01*
X111437300Y-64555478D01*
X111437300Y-64555476D01*
X111439179Y-64536401D01*
X111437300Y-64517326D01*
X111437300Y-64212612D01*
X111497566Y-64172343D01*
X111589984Y-64079925D01*
X111662596Y-63971254D01*
X111712612Y-63850505D01*
X111738110Y-63722318D01*
X111738110Y-63591620D01*
X111712612Y-63463433D01*
X111662596Y-63342684D01*
X111589984Y-63234013D01*
X111497566Y-63141595D01*
X111388895Y-63068983D01*
X111268146Y-63018967D01*
X111139959Y-62993469D01*
X111009261Y-62993469D01*
X110881074Y-63018967D01*
X110760325Y-63068983D01*
X110651654Y-63141595D01*
X110559236Y-63234013D01*
X110486624Y-63342684D01*
X110436608Y-63463433D01*
X110411110Y-63591620D01*
X110411110Y-63722318D01*
X110436608Y-63850505D01*
X110486624Y-63971254D01*
X110559236Y-64079925D01*
X110651654Y-64172343D01*
X110660300Y-64178120D01*
X110660300Y-64375478D01*
X110007834Y-65027945D01*
X109946427Y-65009317D01*
X109846000Y-64999426D01*
X109346000Y-64999426D01*
X109245573Y-65009317D01*
X109149005Y-65038611D01*
X109060007Y-65086181D01*
X108982000Y-65150200D01*
X108917981Y-65228207D01*
X108870411Y-65317205D01*
X108841117Y-65413773D01*
X108831226Y-65514200D01*
X108768499Y-65514200D01*
X108770265Y-65264200D01*
X108759231Y-65152166D01*
X108726552Y-65044438D01*
X108673484Y-64945155D01*
X108602067Y-64858133D01*
X108515045Y-64786716D01*
X108415762Y-64733648D01*
X108308034Y-64700969D01*
X108196000Y-64689935D01*
X108029375Y-64692700D01*
X107886500Y-64835575D01*
X107505500Y-64835575D01*
X107362625Y-64692700D01*
X107196000Y-64689935D01*
X107083966Y-64700969D01*
X106976238Y-64733648D01*
X106876955Y-64786716D01*
X106789933Y-64858133D01*
X106718516Y-64945155D01*
X106665448Y-65044438D01*
X106632769Y-65152166D01*
X106621735Y-65264200D01*
X105392259Y-65264200D01*
X105391231Y-65253766D01*
X105358552Y-65146038D01*
X105305484Y-65046755D01*
X105234067Y-64959733D01*
X105147045Y-64888316D01*
X105047762Y-64835248D01*
X104940034Y-64802569D01*
X104828000Y-64791535D01*
X104661375Y-64794300D01*
X104518500Y-64937175D01*
X104137500Y-64937175D01*
X103994625Y-64794300D01*
X103828000Y-64791535D01*
X103715966Y-64802569D01*
X103608238Y-64835248D01*
X103508955Y-64888316D01*
X103421933Y-64959733D01*
X103350516Y-65046755D01*
X103297448Y-65146038D01*
X103264769Y-65253766D01*
X103253735Y-65365800D01*
X103125258Y-65365800D01*
X103106019Y-65329807D01*
X103042000Y-65251800D01*
X102963993Y-65187781D01*
X102874995Y-65140211D01*
X102778427Y-65110917D01*
X102678000Y-65101026D01*
X102178000Y-65101026D01*
X102077573Y-65110917D01*
X101981005Y-65140211D01*
X101892007Y-65187781D01*
X101814000Y-65251800D01*
X101749981Y-65329807D01*
X101702411Y-65418805D01*
X101673117Y-65515373D01*
X101663226Y-65615800D01*
X101663226Y-65702300D01*
X100624529Y-65702300D01*
X100613186Y-65674915D01*
X100540574Y-65566244D01*
X100448156Y-65473826D01*
X100339485Y-65401214D01*
X100218736Y-65351198D01*
X100090549Y-65325700D01*
X99959851Y-65325700D01*
X99831664Y-65351198D01*
X99710915Y-65401214D01*
X99602244Y-65473826D01*
X99509826Y-65566244D01*
X99437214Y-65674915D01*
X99387198Y-65795664D01*
X99361700Y-65923851D01*
X81274774Y-65923851D01*
X81274774Y-65040000D01*
X81269686Y-64988345D01*
X81254619Y-64938675D01*
X81230152Y-64892899D01*
X81197223Y-64852777D01*
X81157101Y-64819848D01*
X81111325Y-64795381D01*
X81061655Y-64780314D01*
X81010000Y-64775226D01*
X79010000Y-64775226D01*
X78958345Y-64780314D01*
X78908675Y-64795381D01*
X78862899Y-64819848D01*
X78822777Y-64852777D01*
X78789848Y-64892899D01*
X78765381Y-64938675D01*
X78750314Y-64988345D01*
X78745226Y-65040000D01*
X72605500Y-65040000D01*
X72605500Y-64660330D01*
X87151500Y-64660330D01*
X87151500Y-64879670D01*
X87194291Y-65094796D01*
X87278229Y-65297440D01*
X87400088Y-65479815D01*
X87555185Y-65634912D01*
X87737560Y-65756771D01*
X87940204Y-65840709D01*
X88155330Y-65883500D01*
X88374670Y-65883500D01*
X88589796Y-65840709D01*
X88792440Y-65756771D01*
X88974815Y-65634912D01*
X89129912Y-65479815D01*
X89251771Y-65297440D01*
X89335709Y-65094796D01*
X89378500Y-64879670D01*
X89378500Y-64660330D01*
X89335709Y-64445204D01*
X89251771Y-64242560D01*
X89129912Y-64060185D01*
X88974815Y-63905088D01*
X88792440Y-63783229D01*
X88589796Y-63699291D01*
X88374670Y-63656500D01*
X88155330Y-63656500D01*
X87940204Y-63699291D01*
X87737560Y-63783229D01*
X87555185Y-63905088D01*
X87400088Y-64060185D01*
X87278229Y-64242560D01*
X87194291Y-64445204D01*
X87151500Y-64660330D01*
X72605500Y-64660330D01*
X72605500Y-62181298D01*
X79138110Y-62181298D01*
X79242723Y-62420165D01*
X79526723Y-62543334D01*
X79829295Y-62608731D01*
X80138811Y-62613842D01*
X80443377Y-62558471D01*
X80731289Y-62444746D01*
X80777277Y-62420165D01*
X80881890Y-62181298D01*
X80010000Y-61309408D01*
X79138110Y-62181298D01*
X72605500Y-62181298D01*
X72605500Y-61168811D01*
X78436158Y-61168811D01*
X78491529Y-61473377D01*
X78605254Y-61761289D01*
X78629835Y-61807277D01*
X78868702Y-61911890D01*
X79740592Y-61040000D01*
X80279408Y-61040000D01*
X81151298Y-61911890D01*
X81390165Y-61807277D01*
X81513334Y-61523277D01*
X81544301Y-61380000D01*
X87150226Y-61380000D01*
X87150226Y-63080000D01*
X87155314Y-63131655D01*
X87170381Y-63181325D01*
X87194848Y-63227101D01*
X87227777Y-63267223D01*
X87267899Y-63300152D01*
X87313675Y-63324619D01*
X87363345Y-63339686D01*
X87415000Y-63344774D01*
X89115000Y-63344774D01*
X89166655Y-63339686D01*
X89216325Y-63324619D01*
X89262101Y-63300152D01*
X89302223Y-63267223D01*
X89335152Y-63227101D01*
X89359619Y-63181325D01*
X89374686Y-63131655D01*
X89379774Y-63080000D01*
X89379774Y-61380000D01*
X89374686Y-61328345D01*
X89359619Y-61278675D01*
X89335152Y-61232899D01*
X89302223Y-61192777D01*
X89262101Y-61159848D01*
X89216325Y-61135381D01*
X89166655Y-61120314D01*
X89115000Y-61115226D01*
X87415000Y-61115226D01*
X87363345Y-61120314D01*
X87313675Y-61135381D01*
X87267899Y-61159848D01*
X87227777Y-61192777D01*
X87194848Y-61232899D01*
X87170381Y-61278675D01*
X87155314Y-61328345D01*
X87150226Y-61380000D01*
X81544301Y-61380000D01*
X81578731Y-61220705D01*
X81583842Y-60911189D01*
X81528471Y-60606623D01*
X81414746Y-60318711D01*
X81390165Y-60272723D01*
X81151298Y-60168110D01*
X80279408Y-61040000D01*
X79740592Y-61040000D01*
X78868702Y-60168110D01*
X78629835Y-60272723D01*
X78506666Y-60556723D01*
X78441269Y-60859295D01*
X78436158Y-61168811D01*
X72605500Y-61168811D01*
X72605500Y-59898702D01*
X79138110Y-59898702D01*
X80010000Y-60770592D01*
X80881890Y-59898702D01*
X80777277Y-59659835D01*
X80493277Y-59536666D01*
X80190705Y-59471269D01*
X79881189Y-59466158D01*
X79576623Y-59521529D01*
X79288711Y-59635254D01*
X79242723Y-59659835D01*
X79138110Y-59898702D01*
X72605500Y-59898702D01*
X72605500Y-42878272D01*
X75676500Y-42878272D01*
X75676500Y-43481728D01*
X75794229Y-44073590D01*
X76025161Y-44631111D01*
X76360424Y-45132867D01*
X76787133Y-45559576D01*
X77288889Y-45894839D01*
X77846410Y-46125771D01*
X78438272Y-46243500D01*
X79041728Y-46243500D01*
X79633590Y-46125771D01*
X80191111Y-45894839D01*
X80692867Y-45559576D01*
X81119576Y-45132867D01*
X81454839Y-44631111D01*
X81685771Y-44073590D01*
X81803500Y-43481728D01*
X81803500Y-42878272D01*
X151876500Y-42878272D01*
X151876500Y-43481728D01*
X151994229Y-44073590D01*
X152225161Y-44631111D01*
X152560424Y-45132867D01*
X152987133Y-45559576D01*
X153488889Y-45894839D01*
X154046410Y-46125771D01*
X154638272Y-46243500D01*
X155241728Y-46243500D01*
X155833590Y-46125771D01*
X156391111Y-45894839D01*
X156892867Y-45559576D01*
X157319576Y-45132867D01*
X157654839Y-44631111D01*
X157885771Y-44073590D01*
X158003500Y-43481728D01*
X158003500Y-42878272D01*
X157885771Y-42286410D01*
X157654839Y-41728889D01*
X157319576Y-41227133D01*
X156892867Y-40800424D01*
X156391111Y-40465161D01*
X155833590Y-40234229D01*
X155241728Y-40116500D01*
X154638272Y-40116500D01*
X154046410Y-40234229D01*
X153488889Y-40465161D01*
X152987133Y-40800424D01*
X152560424Y-41227133D01*
X152225161Y-41728889D01*
X151994229Y-42286410D01*
X151876500Y-42878272D01*
X81803500Y-42878272D01*
X81685771Y-42286410D01*
X81454839Y-41728889D01*
X81119576Y-41227133D01*
X80692867Y-40800424D01*
X80191111Y-40465161D01*
X79633590Y-40234229D01*
X79041728Y-40116500D01*
X78438272Y-40116500D01*
X77846410Y-40234229D01*
X77288889Y-40465161D01*
X76787133Y-40800424D01*
X76360424Y-41227133D01*
X76025161Y-41728889D01*
X75794229Y-42286410D01*
X75676500Y-42878272D01*
X72605500Y-42878272D01*
X72605500Y-39585500D01*
X162344501Y-39585500D01*
X162344500Y-129324500D01*
%TA.AperFunction,Conductor*%
D19*
G36*
X162344500Y-129324500D02*
G01*
X72605500Y-129324500D01*
X72605500Y-124158272D01*
X75676500Y-124158272D01*
X75676500Y-124761728D01*
X75794229Y-125353590D01*
X76025161Y-125911111D01*
X76360424Y-126412867D01*
X76787133Y-126839576D01*
X77288889Y-127174839D01*
X77846410Y-127405771D01*
X78438272Y-127523500D01*
X79041728Y-127523500D01*
X79633590Y-127405771D01*
X80191111Y-127174839D01*
X80692867Y-126839576D01*
X81119576Y-126412867D01*
X81454839Y-125911111D01*
X81685771Y-125353590D01*
X81803500Y-124761728D01*
X81803500Y-124158272D01*
X151876500Y-124158272D01*
X151876500Y-124761728D01*
X151994229Y-125353590D01*
X152225161Y-125911111D01*
X152560424Y-126412867D01*
X152987133Y-126839576D01*
X153488889Y-127174839D01*
X154046410Y-127405771D01*
X154638272Y-127523500D01*
X155241728Y-127523500D01*
X155833590Y-127405771D01*
X156391111Y-127174839D01*
X156892867Y-126839576D01*
X157319576Y-126412867D01*
X157654839Y-125911111D01*
X157885771Y-125353590D01*
X158003500Y-124761728D01*
X158003500Y-124158272D01*
X157885771Y-123566410D01*
X157654839Y-123008889D01*
X157319576Y-122507133D01*
X156892867Y-122080424D01*
X156391111Y-121745161D01*
X155833590Y-121514229D01*
X155241728Y-121396500D01*
X154638272Y-121396500D01*
X154046410Y-121514229D01*
X153488889Y-121745161D01*
X152987133Y-122080424D01*
X152560424Y-122507133D01*
X152225161Y-123008889D01*
X151994229Y-123566410D01*
X151876500Y-124158272D01*
X81803500Y-124158272D01*
X81685771Y-123566410D01*
X81454839Y-123008889D01*
X81119576Y-122507133D01*
X80692867Y-122080424D01*
X80191111Y-121745161D01*
X79633590Y-121514229D01*
X79041728Y-121396500D01*
X78438272Y-121396500D01*
X77846410Y-121514229D01*
X77288889Y-121745161D01*
X76787133Y-122080424D01*
X76360424Y-122507133D01*
X76025161Y-123008889D01*
X75794229Y-123566410D01*
X75676500Y-124158272D01*
X72605500Y-124158272D01*
X72605500Y-99581800D01*
X100845735Y-99581800D01*
X100856769Y-99693834D01*
X100889448Y-99801562D01*
X100942516Y-99900845D01*
X101013933Y-99987867D01*
X101100955Y-100059284D01*
X101200238Y-100112352D01*
X101307966Y-100145031D01*
X101420000Y-100156065D01*
X101586625Y-100153300D01*
X101729500Y-100010425D01*
X101729500Y-99047300D01*
X102110500Y-99047300D01*
X102110500Y-100010425D01*
X102253375Y-100153300D01*
X102420000Y-100156065D01*
X102532034Y-100145031D01*
X102639762Y-100112352D01*
X102739045Y-100059284D01*
X102826067Y-99987867D01*
X102897484Y-99900845D01*
X102950552Y-99801562D01*
X102983231Y-99693834D01*
X102994265Y-99581800D01*
X102991500Y-99190175D01*
X102848625Y-99047300D01*
X102110500Y-99047300D01*
X101729500Y-99047300D01*
X100991375Y-99047300D01*
X100848500Y-99190175D01*
X100845735Y-99581800D01*
X72605500Y-99581800D01*
X72605500Y-98131800D01*
X100845735Y-98131800D01*
X100848500Y-98523425D01*
X100991375Y-98666300D01*
X101729500Y-98666300D01*
X101729500Y-97703175D01*
X102110500Y-97703175D01*
X102110500Y-98666300D01*
X102848625Y-98666300D01*
X102991500Y-98523425D01*
X102992499Y-98381800D01*
X103055226Y-98381800D01*
X103055226Y-99331800D01*
X103065117Y-99432227D01*
X103094411Y-99528795D01*
X103141981Y-99617793D01*
X103206000Y-99695800D01*
X103284007Y-99759819D01*
X103373005Y-99807389D01*
X103469573Y-99836683D01*
X103570000Y-99846574D01*
X104070000Y-99846574D01*
X104170427Y-99836683D01*
X104231834Y-99818055D01*
X104768791Y-100355012D01*
X104771998Y-100371136D01*
X104822014Y-100491885D01*
X104894626Y-100600556D01*
X104987044Y-100692974D01*
X105095715Y-100765586D01*
X105216464Y-100815602D01*
X105344651Y-100841100D01*
X105475349Y-100841100D01*
X105603536Y-100815602D01*
X105724285Y-100765586D01*
X105832956Y-100692974D01*
X105925374Y-100600556D01*
X105997986Y-100491885D01*
X106048002Y-100371136D01*
X106073500Y-100242949D01*
X106073500Y-100112251D01*
X106048002Y-99984064D01*
X105997986Y-99863315D01*
X105925374Y-99754644D01*
X105832956Y-99662226D01*
X105724285Y-99589614D01*
X105603536Y-99539598D01*
X105560311Y-99531000D01*
X106230535Y-99531000D01*
X106241569Y-99643034D01*
X106274248Y-99750762D01*
X106327316Y-99850045D01*
X106398733Y-99937067D01*
X106485755Y-100008484D01*
X106585038Y-100061552D01*
X106692766Y-100094231D01*
X106804800Y-100105265D01*
X106971425Y-100102500D01*
X107114300Y-99959625D01*
X107114300Y-98996500D01*
X107495300Y-98996500D01*
X107495300Y-99959625D01*
X107638175Y-100102500D01*
X107804800Y-100105265D01*
X107916834Y-100094231D01*
X108024562Y-100061552D01*
X108123845Y-100008484D01*
X108210867Y-99937067D01*
X108282284Y-99850045D01*
X108335352Y-99750762D01*
X108368031Y-99643034D01*
X108379065Y-99531000D01*
X108376300Y-99139375D01*
X108233425Y-98996500D01*
X107495300Y-98996500D01*
X107114300Y-98996500D01*
X106376175Y-98996500D01*
X106233300Y-99139375D01*
X106230535Y-99531000D01*
X105560311Y-99531000D01*
X105475349Y-99514100D01*
X105344651Y-99514100D01*
X105216464Y-99539598D01*
X105100325Y-99587704D01*
X104584774Y-99072153D01*
X104584774Y-98381800D01*
X104574883Y-98281373D01*
X104545589Y-98184805D01*
X104498019Y-98095807D01*
X104485868Y-98081000D01*
X106230535Y-98081000D01*
X106233300Y-98472625D01*
X106376175Y-98615500D01*
X107114300Y-98615500D01*
X107114300Y-97652375D01*
X107495300Y-97652375D01*
X107495300Y-98615500D01*
X108233425Y-98615500D01*
X108376300Y-98472625D01*
X108377299Y-98331000D01*
X108440026Y-98331000D01*
X108440026Y-99281000D01*
X108449917Y-99381427D01*
X108479211Y-99477995D01*
X108526781Y-99566993D01*
X108590800Y-99645000D01*
X108668807Y-99709019D01*
X108757805Y-99756589D01*
X108854373Y-99785883D01*
X108954800Y-99795774D01*
X109454800Y-99795774D01*
X109555227Y-99785883D01*
X109651795Y-99756589D01*
X109740793Y-99709019D01*
X109788470Y-99669891D01*
X109986985Y-99868406D01*
X109978900Y-99909051D01*
X109978900Y-100039749D01*
X110004398Y-100167936D01*
X110054414Y-100288685D01*
X110127026Y-100397356D01*
X110219444Y-100489774D01*
X110328115Y-100562386D01*
X110448864Y-100612402D01*
X110577051Y-100637900D01*
X110707749Y-100637900D01*
X110835936Y-100612402D01*
X110956685Y-100562386D01*
X111065356Y-100489774D01*
X111157774Y-100397356D01*
X111230386Y-100288685D01*
X111280402Y-100167936D01*
X111305900Y-100039749D01*
X111305900Y-99909051D01*
X111280402Y-99780864D01*
X111252265Y-99712937D01*
X111311133Y-99784667D01*
X111398155Y-99856084D01*
X111497438Y-99909152D01*
X111605166Y-99941831D01*
X111717200Y-99952865D01*
X111883825Y-99950100D01*
X112026700Y-99807225D01*
X112026700Y-98844100D01*
X112407700Y-98844100D01*
X112407700Y-99807225D01*
X112550575Y-99950100D01*
X112717200Y-99952865D01*
X112829234Y-99941831D01*
X112936962Y-99909152D01*
X113036245Y-99856084D01*
X113123267Y-99784667D01*
X113194684Y-99697645D01*
X113247752Y-99598362D01*
X113280431Y-99490634D01*
X113291465Y-99378600D01*
X113288700Y-98986975D01*
X113145825Y-98844100D01*
X112407700Y-98844100D01*
X112026700Y-98844100D01*
X111288575Y-98844100D01*
X111145700Y-98986975D01*
X111142935Y-99378600D01*
X111153969Y-99490634D01*
X111184589Y-99591576D01*
X111157774Y-99551444D01*
X111065356Y-99459026D01*
X110956685Y-99386414D01*
X110835936Y-99336398D01*
X110707749Y-99310900D01*
X110577051Y-99310900D01*
X110536406Y-99318985D01*
X109969574Y-98752153D01*
X109969574Y-98331000D01*
X109959683Y-98230573D01*
X109930389Y-98134005D01*
X109882819Y-98045007D01*
X109818800Y-97967000D01*
X109772010Y-97928600D01*
X111142935Y-97928600D01*
X111145700Y-98320225D01*
X111288575Y-98463100D01*
X112026700Y-98463100D01*
X112026700Y-97499975D01*
X112407700Y-97499975D01*
X112407700Y-98463100D01*
X113145825Y-98463100D01*
X113288700Y-98320225D01*
X113289699Y-98178600D01*
X113352426Y-98178600D01*
X113352426Y-99128600D01*
X113362317Y-99229027D01*
X113391611Y-99325595D01*
X113439181Y-99414593D01*
X113503200Y-99492600D01*
X113581207Y-99556619D01*
X113670205Y-99604189D01*
X113766773Y-99633483D01*
X113867200Y-99643374D01*
X114367200Y-99643374D01*
X114467627Y-99633483D01*
X114564195Y-99604189D01*
X114653193Y-99556619D01*
X114731200Y-99492600D01*
X114795219Y-99414593D01*
X114842789Y-99325595D01*
X114872083Y-99229027D01*
X114881974Y-99128600D01*
X114881974Y-99042100D01*
X115123071Y-99042100D01*
X115134414Y-99069485D01*
X115207026Y-99178156D01*
X115299444Y-99270574D01*
X115408115Y-99343186D01*
X115528864Y-99393202D01*
X115657051Y-99418700D01*
X115787749Y-99418700D01*
X115915936Y-99393202D01*
X116036685Y-99343186D01*
X116145356Y-99270574D01*
X116237774Y-99178156D01*
X116310386Y-99069485D01*
X116341383Y-98994651D01*
X127301700Y-98994651D01*
X127301700Y-99125349D01*
X127327198Y-99253536D01*
X127377214Y-99374285D01*
X127449826Y-99482956D01*
X127542244Y-99575374D01*
X127650915Y-99647986D01*
X127771664Y-99698002D01*
X127899851Y-99723500D01*
X128030549Y-99723500D01*
X128158736Y-99698002D01*
X128279485Y-99647986D01*
X128388156Y-99575374D01*
X128480574Y-99482956D01*
X128553186Y-99374285D01*
X128603202Y-99253536D01*
X128628700Y-99125349D01*
X128628700Y-98994651D01*
X128603202Y-98866464D01*
X128553186Y-98745715D01*
X128480574Y-98637044D01*
X128455300Y-98611770D01*
X128455300Y-98413400D01*
X129446135Y-98413400D01*
X129457169Y-98525434D01*
X129489848Y-98633162D01*
X129542916Y-98732445D01*
X129614333Y-98819467D01*
X129701355Y-98890884D01*
X129800638Y-98943952D01*
X129908366Y-98976631D01*
X130020400Y-98987665D01*
X130187025Y-98984900D01*
X130329900Y-98842025D01*
X130329900Y-97878900D01*
X130710900Y-97878900D01*
X130710900Y-98842025D01*
X130853775Y-98984900D01*
X131020400Y-98987665D01*
X131132434Y-98976631D01*
X131240162Y-98943952D01*
X131339445Y-98890884D01*
X131426467Y-98819467D01*
X131497884Y-98732445D01*
X131550952Y-98633162D01*
X131583631Y-98525434D01*
X131594665Y-98413400D01*
X131591900Y-98021775D01*
X131449025Y-97878900D01*
X130710900Y-97878900D01*
X130329900Y-97878900D01*
X129591775Y-97878900D01*
X129448900Y-98021775D01*
X129446135Y-98413400D01*
X128455300Y-98413400D01*
X128455300Y-96963400D01*
X129446135Y-96963400D01*
X129448900Y-97355025D01*
X129591775Y-97497900D01*
X130329900Y-97497900D01*
X130329900Y-96534775D01*
X130710900Y-96534775D01*
X130710900Y-97497900D01*
X131449025Y-97497900D01*
X131591900Y-97355025D01*
X131592899Y-97213400D01*
X131655626Y-97213400D01*
X131655626Y-98163400D01*
X131665517Y-98263827D01*
X131694811Y-98360395D01*
X131742381Y-98449393D01*
X131806400Y-98527400D01*
X131884407Y-98591419D01*
X131973405Y-98638989D01*
X132069973Y-98668283D01*
X132170400Y-98678174D01*
X132670400Y-98678174D01*
X132770827Y-98668283D01*
X132867395Y-98638989D01*
X132913646Y-98614268D01*
X133253385Y-98954006D01*
X133245300Y-98994651D01*
X133245300Y-99125349D01*
X133270798Y-99253536D01*
X133320814Y-99374285D01*
X133393426Y-99482956D01*
X133485844Y-99575374D01*
X133594515Y-99647986D01*
X133715264Y-99698002D01*
X133843451Y-99723500D01*
X133974149Y-99723500D01*
X134102336Y-99698002D01*
X134223085Y-99647986D01*
X134331756Y-99575374D01*
X134424174Y-99482956D01*
X134496786Y-99374285D01*
X134546802Y-99253536D01*
X134572300Y-99125349D01*
X134572300Y-98994651D01*
X134546802Y-98866464D01*
X134496786Y-98745715D01*
X134424174Y-98637044D01*
X134331756Y-98544626D01*
X134223085Y-98472014D01*
X134102336Y-98421998D01*
X134059111Y-98413400D01*
X134678535Y-98413400D01*
X134689569Y-98525434D01*
X134722248Y-98633162D01*
X134775316Y-98732445D01*
X134846733Y-98819467D01*
X134933755Y-98890884D01*
X135033038Y-98943952D01*
X135140766Y-98976631D01*
X135252800Y-98987665D01*
X135419425Y-98984900D01*
X135562300Y-98842025D01*
X135562300Y-97878900D01*
X135943300Y-97878900D01*
X135943300Y-98842025D01*
X136086175Y-98984900D01*
X136252800Y-98987665D01*
X136364834Y-98976631D01*
X136472562Y-98943952D01*
X136571845Y-98890884D01*
X136658867Y-98819467D01*
X136730284Y-98732445D01*
X136783352Y-98633162D01*
X136816031Y-98525434D01*
X136827065Y-98413400D01*
X136824300Y-98021775D01*
X136681425Y-97878900D01*
X135943300Y-97878900D01*
X135562300Y-97878900D01*
X134824175Y-97878900D01*
X134681300Y-98021775D01*
X134678535Y-98413400D01*
X134059111Y-98413400D01*
X133974149Y-98396500D01*
X133843451Y-98396500D01*
X133802806Y-98404585D01*
X133185174Y-97786953D01*
X133185174Y-97213400D01*
X133175283Y-97112973D01*
X133145989Y-97016405D01*
X133117658Y-96963400D01*
X134678535Y-96963400D01*
X134681300Y-97355025D01*
X134824175Y-97497900D01*
X135562300Y-97497900D01*
X135562300Y-96534775D01*
X135943300Y-96534775D01*
X135943300Y-97497900D01*
X136681425Y-97497900D01*
X136824300Y-97355025D01*
X136825299Y-97213400D01*
X136888026Y-97213400D01*
X136888026Y-98163400D01*
X136897917Y-98263827D01*
X136927211Y-98360395D01*
X136974781Y-98449393D01*
X137038800Y-98527400D01*
X137116807Y-98591419D01*
X137205805Y-98638989D01*
X137302373Y-98668283D01*
X137402800Y-98678174D01*
X137902800Y-98678174D01*
X138003227Y-98668283D01*
X138064634Y-98649655D01*
X138498700Y-99083722D01*
X138498701Y-99533835D01*
X138447246Y-99585290D01*
X138374634Y-99693961D01*
X138324618Y-99814710D01*
X138299120Y-99942897D01*
X138299120Y-100073595D01*
X138324618Y-100201782D01*
X138374634Y-100322531D01*
X138447246Y-100431202D01*
X138539664Y-100523620D01*
X138648335Y-100596232D01*
X138769084Y-100646248D01*
X138897271Y-100671746D01*
X139027969Y-100671746D01*
X139156156Y-100646248D01*
X139276905Y-100596232D01*
X139385576Y-100523620D01*
X139477994Y-100431202D01*
X139550606Y-100322531D01*
X139600622Y-100201782D01*
X139626120Y-100073595D01*
X139626120Y-99942897D01*
X139600622Y-99814710D01*
X139550606Y-99693961D01*
X139477994Y-99585290D01*
X139385576Y-99492872D01*
X139276905Y-99420260D01*
X139275700Y-99419761D01*
X139275700Y-98941874D01*
X139277579Y-98922799D01*
X139275700Y-98903722D01*
X139270078Y-98846641D01*
X139247863Y-98773408D01*
X139225968Y-98732445D01*
X139211788Y-98705916D01*
X139187617Y-98676464D01*
X139163240Y-98646760D01*
X139148420Y-98634598D01*
X138978022Y-98464200D01*
X139606135Y-98464200D01*
X139617169Y-98576234D01*
X139649848Y-98683962D01*
X139702916Y-98783245D01*
X139774333Y-98870267D01*
X139861355Y-98941684D01*
X139960638Y-98994752D01*
X140068366Y-99027431D01*
X140180400Y-99038465D01*
X140347025Y-99035700D01*
X140489900Y-98892825D01*
X140489900Y-97929700D01*
X140870900Y-97929700D01*
X140870900Y-98892825D01*
X141013775Y-99035700D01*
X141180400Y-99038465D01*
X141292434Y-99027431D01*
X141400162Y-98994752D01*
X141499445Y-98941684D01*
X141586467Y-98870267D01*
X141657884Y-98783245D01*
X141710952Y-98683962D01*
X141743631Y-98576234D01*
X141754665Y-98464200D01*
X141751900Y-98072575D01*
X141609025Y-97929700D01*
X140870900Y-97929700D01*
X140489900Y-97929700D01*
X139751775Y-97929700D01*
X139608900Y-98072575D01*
X139606135Y-98464200D01*
X138978022Y-98464200D01*
X138417574Y-97903753D01*
X138417574Y-97213400D01*
X138407683Y-97112973D01*
X138378389Y-97016405D01*
X138377211Y-97014200D01*
X139606135Y-97014200D01*
X139608900Y-97405825D01*
X139751775Y-97548700D01*
X140489900Y-97548700D01*
X140489900Y-96585575D01*
X140870900Y-96585575D01*
X140870900Y-97548700D01*
X141609025Y-97548700D01*
X141751900Y-97405825D01*
X141752899Y-97264200D01*
X141815626Y-97264200D01*
X141815626Y-98214200D01*
X141825517Y-98314627D01*
X141854811Y-98411195D01*
X141902381Y-98500193D01*
X141966400Y-98578200D01*
X142044407Y-98642219D01*
X142133405Y-98689789D01*
X142229973Y-98719083D01*
X142330400Y-98728974D01*
X142830400Y-98728974D01*
X142930827Y-98719083D01*
X143027395Y-98689789D01*
X143116393Y-98642219D01*
X143194400Y-98578200D01*
X143258419Y-98500193D01*
X143305989Y-98411195D01*
X143335283Y-98314627D01*
X143345174Y-98214200D01*
X143345174Y-98127700D01*
X143801259Y-98127700D01*
X143858226Y-98212956D01*
X143950644Y-98305374D01*
X144059315Y-98377986D01*
X144180064Y-98428002D01*
X144308251Y-98453500D01*
X144438949Y-98453500D01*
X144567136Y-98428002D01*
X144687885Y-98377986D01*
X144796556Y-98305374D01*
X144888974Y-98212956D01*
X144961586Y-98104285D01*
X145011602Y-97983536D01*
X145037100Y-97855349D01*
X145037100Y-97724651D01*
X145011602Y-97596464D01*
X144961586Y-97475715D01*
X144888974Y-97367044D01*
X144796556Y-97274626D01*
X144687885Y-97202014D01*
X144567136Y-97151998D01*
X144438949Y-97126500D01*
X144308251Y-97126500D01*
X144180064Y-97151998D01*
X144059315Y-97202014D01*
X143950644Y-97274626D01*
X143874570Y-97350700D01*
X143345174Y-97350700D01*
X143345174Y-97264200D01*
X143335283Y-97163773D01*
X143305989Y-97067205D01*
X143258419Y-96978207D01*
X143194400Y-96900200D01*
X143116393Y-96836181D01*
X143027395Y-96788611D01*
X142930827Y-96759317D01*
X142830400Y-96749426D01*
X142330400Y-96749426D01*
X142229973Y-96759317D01*
X142133405Y-96788611D01*
X142044407Y-96836181D01*
X141966400Y-96900200D01*
X141902381Y-96978207D01*
X141854811Y-97067205D01*
X141825517Y-97163773D01*
X141815626Y-97264200D01*
X141752899Y-97264200D01*
X141754665Y-97014200D01*
X141743631Y-96902166D01*
X141710952Y-96794438D01*
X141657884Y-96695155D01*
X141586467Y-96608133D01*
X141499445Y-96536716D01*
X141400162Y-96483648D01*
X141292434Y-96450969D01*
X141180400Y-96439935D01*
X141013775Y-96442700D01*
X140870900Y-96585575D01*
X140489900Y-96585575D01*
X140347025Y-96442700D01*
X140180400Y-96439935D01*
X140068366Y-96450969D01*
X139960638Y-96483648D01*
X139861355Y-96536716D01*
X139774333Y-96608133D01*
X139702916Y-96695155D01*
X139649848Y-96794438D01*
X139617169Y-96902166D01*
X139606135Y-97014200D01*
X138377211Y-97014200D01*
X138330819Y-96927407D01*
X138266800Y-96849400D01*
X138188793Y-96785381D01*
X138099795Y-96737811D01*
X138003227Y-96708517D01*
X137902800Y-96698626D01*
X137402800Y-96698626D01*
X137302373Y-96708517D01*
X137205805Y-96737811D01*
X137116807Y-96785381D01*
X137038800Y-96849400D01*
X136974781Y-96927407D01*
X136927211Y-97016405D01*
X136897917Y-97112973D01*
X136888026Y-97213400D01*
X136825299Y-97213400D01*
X136827065Y-96963400D01*
X136816031Y-96851366D01*
X136783352Y-96743638D01*
X136730284Y-96644355D01*
X136658867Y-96557333D01*
X136571845Y-96485916D01*
X136472562Y-96432848D01*
X136364834Y-96400169D01*
X136252800Y-96389135D01*
X136086175Y-96391900D01*
X135943300Y-96534775D01*
X135562300Y-96534775D01*
X135419425Y-96391900D01*
X135252800Y-96389135D01*
X135140766Y-96400169D01*
X135033038Y-96432848D01*
X134933755Y-96485916D01*
X134846733Y-96557333D01*
X134775316Y-96644355D01*
X134722248Y-96743638D01*
X134689569Y-96851366D01*
X134678535Y-96963400D01*
X133117658Y-96963400D01*
X133098419Y-96927407D01*
X133034400Y-96849400D01*
X132956393Y-96785381D01*
X132867395Y-96737811D01*
X132770827Y-96708517D01*
X132670400Y-96698626D01*
X132170400Y-96698626D01*
X132069973Y-96708517D01*
X131973405Y-96737811D01*
X131884407Y-96785381D01*
X131806400Y-96849400D01*
X131742381Y-96927407D01*
X131694811Y-97016405D01*
X131665517Y-97112973D01*
X131655626Y-97213400D01*
X131592899Y-97213400D01*
X131594665Y-96963400D01*
X131583631Y-96851366D01*
X131550952Y-96743638D01*
X131497884Y-96644355D01*
X131426467Y-96557333D01*
X131339445Y-96485916D01*
X131240162Y-96432848D01*
X131132434Y-96400169D01*
X131020400Y-96389135D01*
X130853775Y-96391900D01*
X130710900Y-96534775D01*
X130329900Y-96534775D01*
X130187025Y-96391900D01*
X130020400Y-96389135D01*
X129908366Y-96400169D01*
X129800638Y-96432848D01*
X129701355Y-96485916D01*
X129614333Y-96557333D01*
X129542916Y-96644355D01*
X129489848Y-96743638D01*
X129457169Y-96851366D01*
X129446135Y-96963400D01*
X128455300Y-96963400D01*
X128455300Y-92232397D01*
X128489756Y-92209374D01*
X128582174Y-92116956D01*
X128654786Y-92008285D01*
X128704802Y-91887536D01*
X128730300Y-91759349D01*
X128730300Y-91758600D01*
X129344535Y-91758600D01*
X129355569Y-91870634D01*
X129388248Y-91978362D01*
X129441316Y-92077645D01*
X129512733Y-92164667D01*
X129599755Y-92236084D01*
X129699038Y-92289152D01*
X129806766Y-92321831D01*
X129918800Y-92332865D01*
X130085425Y-92330100D01*
X130228300Y-92187225D01*
X130228300Y-91224100D01*
X130609300Y-91224100D01*
X130609300Y-92187225D01*
X130752175Y-92330100D01*
X130918800Y-92332865D01*
X131030834Y-92321831D01*
X131138562Y-92289152D01*
X131237845Y-92236084D01*
X131324867Y-92164667D01*
X131396284Y-92077645D01*
X131449352Y-91978362D01*
X131482031Y-91870634D01*
X131493065Y-91758600D01*
X131490300Y-91366975D01*
X131347425Y-91224100D01*
X130609300Y-91224100D01*
X130228300Y-91224100D01*
X129490175Y-91224100D01*
X129347300Y-91366975D01*
X129344535Y-91758600D01*
X128730300Y-91758600D01*
X128730300Y-91628651D01*
X128704802Y-91500464D01*
X128654786Y-91379715D01*
X128582174Y-91271044D01*
X128489756Y-91178626D01*
X128381085Y-91106014D01*
X128260336Y-91055998D01*
X128132149Y-91030500D01*
X128001451Y-91030500D01*
X127873264Y-91055998D01*
X127752515Y-91106014D01*
X127643844Y-91178626D01*
X127551426Y-91271044D01*
X127478814Y-91379715D01*
X127428798Y-91500464D01*
X127403300Y-91628651D01*
X127403300Y-91759349D01*
X127428798Y-91887536D01*
X127478814Y-92008285D01*
X127551426Y-92116956D01*
X127643844Y-92209374D01*
X127678300Y-92232397D01*
X127678301Y-98460670D01*
X127650915Y-98472014D01*
X127542244Y-98544626D01*
X127449826Y-98637044D01*
X127377214Y-98745715D01*
X127327198Y-98866464D01*
X127301700Y-98994651D01*
X116341383Y-98994651D01*
X116360402Y-98948736D01*
X116385900Y-98820549D01*
X116385900Y-98689851D01*
X116360402Y-98561664D01*
X116310386Y-98440915D01*
X116237774Y-98332244D01*
X116145356Y-98239826D01*
X116036685Y-98167214D01*
X115915936Y-98117198D01*
X115787749Y-98091700D01*
X115657051Y-98091700D01*
X115528864Y-98117198D01*
X115408115Y-98167214D01*
X115299444Y-98239826D01*
X115274170Y-98265100D01*
X114881974Y-98265100D01*
X114881974Y-98178600D01*
X114872083Y-98078173D01*
X114842789Y-97981605D01*
X114795219Y-97892607D01*
X114731200Y-97814600D01*
X114653193Y-97750581D01*
X114564195Y-97703011D01*
X114467627Y-97673717D01*
X114367200Y-97663826D01*
X113867200Y-97663826D01*
X113766773Y-97673717D01*
X113670205Y-97703011D01*
X113581207Y-97750581D01*
X113503200Y-97814600D01*
X113439181Y-97892607D01*
X113391611Y-97981605D01*
X113362317Y-98078173D01*
X113352426Y-98178600D01*
X113289699Y-98178600D01*
X113291465Y-97928600D01*
X113280431Y-97816566D01*
X113247752Y-97708838D01*
X113194684Y-97609555D01*
X113123267Y-97522533D01*
X113036245Y-97451116D01*
X112936962Y-97398048D01*
X112829234Y-97365369D01*
X112717200Y-97354335D01*
X112550575Y-97357100D01*
X112407700Y-97499975D01*
X112026700Y-97499975D01*
X111883825Y-97357100D01*
X111717200Y-97354335D01*
X111605166Y-97365369D01*
X111497438Y-97398048D01*
X111398155Y-97451116D01*
X111311133Y-97522533D01*
X111239716Y-97609555D01*
X111186648Y-97708838D01*
X111153969Y-97816566D01*
X111142935Y-97928600D01*
X109772010Y-97928600D01*
X109740793Y-97902981D01*
X109651795Y-97855411D01*
X109555227Y-97826117D01*
X109454800Y-97816226D01*
X108954800Y-97816226D01*
X108854373Y-97826117D01*
X108757805Y-97855411D01*
X108668807Y-97902981D01*
X108590800Y-97967000D01*
X108526781Y-98045007D01*
X108479211Y-98134005D01*
X108449917Y-98230573D01*
X108440026Y-98331000D01*
X108377299Y-98331000D01*
X108379065Y-98081000D01*
X108368031Y-97968966D01*
X108335352Y-97861238D01*
X108282284Y-97761955D01*
X108210867Y-97674933D01*
X108123845Y-97603516D01*
X108024562Y-97550448D01*
X107916834Y-97517769D01*
X107804800Y-97506735D01*
X107638175Y-97509500D01*
X107495300Y-97652375D01*
X107114300Y-97652375D01*
X106971425Y-97509500D01*
X106804800Y-97506735D01*
X106692766Y-97517769D01*
X106585038Y-97550448D01*
X106485755Y-97603516D01*
X106398733Y-97674933D01*
X106327316Y-97761955D01*
X106274248Y-97861238D01*
X106241569Y-97968966D01*
X106230535Y-98081000D01*
X104485868Y-98081000D01*
X104434000Y-98017800D01*
X104355993Y-97953781D01*
X104266995Y-97906211D01*
X104170427Y-97876917D01*
X104070000Y-97867026D01*
X103570000Y-97867026D01*
X103469573Y-97876917D01*
X103373005Y-97906211D01*
X103284007Y-97953781D01*
X103206000Y-98017800D01*
X103141981Y-98095807D01*
X103094411Y-98184805D01*
X103065117Y-98281373D01*
X103055226Y-98381800D01*
X102992499Y-98381800D01*
X102994265Y-98131800D01*
X102983231Y-98019766D01*
X102950552Y-97912038D01*
X102897484Y-97812755D01*
X102826067Y-97725733D01*
X102739045Y-97654316D01*
X102639762Y-97601248D01*
X102532034Y-97568569D01*
X102420000Y-97557535D01*
X102253375Y-97560300D01*
X102110500Y-97703175D01*
X101729500Y-97703175D01*
X101586625Y-97560300D01*
X101420000Y-97557535D01*
X101307966Y-97568569D01*
X101200238Y-97601248D01*
X101100955Y-97654316D01*
X101013933Y-97725733D01*
X100942516Y-97812755D01*
X100889448Y-97912038D01*
X100856769Y-98019766D01*
X100845735Y-98131800D01*
X72605500Y-98131800D01*
X72605500Y-92622200D01*
X100947335Y-92622200D01*
X100958369Y-92734234D01*
X100991048Y-92841962D01*
X101044116Y-92941245D01*
X101115533Y-93028267D01*
X101202555Y-93099684D01*
X101301838Y-93152752D01*
X101409566Y-93185431D01*
X101521600Y-93196465D01*
X101688225Y-93193700D01*
X101831100Y-93050825D01*
X101831100Y-92087700D01*
X102212100Y-92087700D01*
X102212100Y-93050825D01*
X102354975Y-93193700D01*
X102521600Y-93196465D01*
X102633634Y-93185431D01*
X102741362Y-93152752D01*
X102840645Y-93099684D01*
X102927667Y-93028267D01*
X102999084Y-92941245D01*
X103052152Y-92841962D01*
X103084831Y-92734234D01*
X103095865Y-92622200D01*
X103093100Y-92230575D01*
X102950225Y-92087700D01*
X102212100Y-92087700D01*
X101831100Y-92087700D01*
X101092975Y-92087700D01*
X100950100Y-92230575D01*
X100947335Y-92622200D01*
X72605500Y-92622200D01*
X72605500Y-91172200D01*
X100947335Y-91172200D01*
X100950100Y-91563825D01*
X101092975Y-91706700D01*
X101831100Y-91706700D01*
X101831100Y-90743575D01*
X102212100Y-90743575D01*
X102212100Y-91706700D01*
X102950225Y-91706700D01*
X103093100Y-91563825D01*
X103094099Y-91422200D01*
X103156826Y-91422200D01*
X103156826Y-92372200D01*
X103166717Y-92472627D01*
X103196011Y-92569195D01*
X103243581Y-92658193D01*
X103307600Y-92736200D01*
X103385607Y-92800219D01*
X103474605Y-92847789D01*
X103571173Y-92877083D01*
X103671600Y-92886974D01*
X104171600Y-92886974D01*
X104272027Y-92877083D01*
X104368595Y-92847789D01*
X104457593Y-92800219D01*
X104535600Y-92736200D01*
X104545776Y-92723800D01*
X106164535Y-92723800D01*
X106175569Y-92835834D01*
X106208248Y-92943562D01*
X106261316Y-93042845D01*
X106332733Y-93129867D01*
X106419755Y-93201284D01*
X106519038Y-93254352D01*
X106626766Y-93287031D01*
X106738800Y-93298065D01*
X106905425Y-93295300D01*
X107048300Y-93152425D01*
X107048300Y-92189300D01*
X107429300Y-92189300D01*
X107429300Y-93152425D01*
X107572175Y-93295300D01*
X107738800Y-93298065D01*
X107850834Y-93287031D01*
X107958562Y-93254352D01*
X108057845Y-93201284D01*
X108144867Y-93129867D01*
X108216284Y-93042845D01*
X108269352Y-92943562D01*
X108302031Y-92835834D01*
X108313065Y-92723800D01*
X108310300Y-92332175D01*
X108167425Y-92189300D01*
X107429300Y-92189300D01*
X107048300Y-92189300D01*
X106310175Y-92189300D01*
X106167300Y-92332175D01*
X106164535Y-92723800D01*
X104545776Y-92723800D01*
X104599619Y-92658193D01*
X104647189Y-92569195D01*
X104676483Y-92472627D01*
X104686374Y-92372200D01*
X104686374Y-92235744D01*
X104712483Y-92221788D01*
X104771640Y-92173240D01*
X104783808Y-92158413D01*
X105600722Y-91341500D01*
X105729349Y-91341500D01*
X105857536Y-91316002D01*
X105978285Y-91265986D01*
X106086956Y-91193374D01*
X106179374Y-91100956D01*
X106206189Y-91060824D01*
X106175569Y-91161766D01*
X106164535Y-91273800D01*
X106167300Y-91665425D01*
X106310175Y-91808300D01*
X107048300Y-91808300D01*
X107048300Y-90845175D01*
X107429300Y-90845175D01*
X107429300Y-91808300D01*
X108167425Y-91808300D01*
X108310300Y-91665425D01*
X108311299Y-91523800D01*
X108374026Y-91523800D01*
X108374026Y-92473800D01*
X108383917Y-92574227D01*
X108413211Y-92670795D01*
X108460781Y-92759793D01*
X108524800Y-92837800D01*
X108602807Y-92901819D01*
X108691805Y-92949389D01*
X108788373Y-92978683D01*
X108888800Y-92988574D01*
X109388800Y-92988574D01*
X109489227Y-92978683D01*
X109573958Y-92952980D01*
X109885385Y-93264406D01*
X109877300Y-93305051D01*
X109877300Y-93435749D01*
X109902798Y-93563936D01*
X109952814Y-93684685D01*
X110025426Y-93793356D01*
X110117844Y-93885774D01*
X110226515Y-93958386D01*
X110347264Y-94008402D01*
X110475451Y-94033900D01*
X110606149Y-94033900D01*
X110734336Y-94008402D01*
X110855085Y-93958386D01*
X110963756Y-93885774D01*
X111056174Y-93793356D01*
X111128786Y-93684685D01*
X111178802Y-93563936D01*
X111204300Y-93435749D01*
X111204300Y-93305051D01*
X111180656Y-93186184D01*
X111260955Y-93252084D01*
X111360238Y-93305152D01*
X111467966Y-93337831D01*
X111580000Y-93348865D01*
X111746625Y-93346100D01*
X111889500Y-93203225D01*
X111889500Y-92240100D01*
X112270500Y-92240100D01*
X112270500Y-93203225D01*
X112413375Y-93346100D01*
X112580000Y-93348865D01*
X112692034Y-93337831D01*
X112799762Y-93305152D01*
X112899045Y-93252084D01*
X112986067Y-93180667D01*
X113057484Y-93093645D01*
X113110552Y-92994362D01*
X113143231Y-92886634D01*
X113154265Y-92774600D01*
X113151500Y-92382975D01*
X113008625Y-92240100D01*
X112270500Y-92240100D01*
X111889500Y-92240100D01*
X111151375Y-92240100D01*
X111008500Y-92382975D01*
X111005735Y-92774600D01*
X111016769Y-92886634D01*
X111026089Y-92917359D01*
X110963756Y-92855026D01*
X110855085Y-92782414D01*
X110734336Y-92732398D01*
X110606149Y-92706900D01*
X110475451Y-92706900D01*
X110434806Y-92714985D01*
X109903574Y-92183753D01*
X109903574Y-91523800D01*
X109893683Y-91423373D01*
X109864389Y-91326805D01*
X109863211Y-91324600D01*
X111005735Y-91324600D01*
X111008500Y-91716225D01*
X111151375Y-91859100D01*
X111889500Y-91859100D01*
X111889500Y-90895975D01*
X112270500Y-90895975D01*
X112270500Y-91859100D01*
X113008625Y-91859100D01*
X113151500Y-91716225D01*
X113152499Y-91574600D01*
X113215226Y-91574600D01*
X113215226Y-92524600D01*
X113225117Y-92625027D01*
X113254411Y-92721595D01*
X113301981Y-92810593D01*
X113366000Y-92888600D01*
X113444007Y-92952619D01*
X113533005Y-93000189D01*
X113629573Y-93029483D01*
X113730000Y-93039374D01*
X114230000Y-93039374D01*
X114330427Y-93029483D01*
X114426995Y-93000189D01*
X114515993Y-92952619D01*
X114594000Y-92888600D01*
X114658019Y-92810593D01*
X114705589Y-92721595D01*
X114734883Y-92625027D01*
X114744774Y-92524600D01*
X114744774Y-92438100D01*
X115528170Y-92438100D01*
X115553444Y-92463374D01*
X115662115Y-92535986D01*
X115782864Y-92586002D01*
X115911051Y-92611500D01*
X116041749Y-92611500D01*
X116169936Y-92586002D01*
X116290685Y-92535986D01*
X116399356Y-92463374D01*
X116491774Y-92370956D01*
X116564386Y-92262285D01*
X116614402Y-92141536D01*
X116639900Y-92013349D01*
X116639900Y-91882651D01*
X116614402Y-91754464D01*
X116564386Y-91633715D01*
X116491774Y-91525044D01*
X116399356Y-91432626D01*
X116290685Y-91360014D01*
X116169936Y-91309998D01*
X116041749Y-91284500D01*
X115911051Y-91284500D01*
X115782864Y-91309998D01*
X115662115Y-91360014D01*
X115553444Y-91432626D01*
X115461026Y-91525044D01*
X115388414Y-91633715D01*
X115377071Y-91661100D01*
X114744774Y-91661100D01*
X114744774Y-91574600D01*
X114734883Y-91474173D01*
X114705589Y-91377605D01*
X114658019Y-91288607D01*
X114594000Y-91210600D01*
X114515993Y-91146581D01*
X114426995Y-91099011D01*
X114330427Y-91069717D01*
X114230000Y-91059826D01*
X113730000Y-91059826D01*
X113629573Y-91069717D01*
X113533005Y-91099011D01*
X113444007Y-91146581D01*
X113366000Y-91210600D01*
X113301981Y-91288607D01*
X113254411Y-91377605D01*
X113225117Y-91474173D01*
X113215226Y-91574600D01*
X113152499Y-91574600D01*
X113154265Y-91324600D01*
X113143231Y-91212566D01*
X113110552Y-91104838D01*
X113057484Y-91005555D01*
X112986067Y-90918533D01*
X112899045Y-90847116D01*
X112799762Y-90794048D01*
X112692034Y-90761369D01*
X112580000Y-90750335D01*
X112413375Y-90753100D01*
X112270500Y-90895975D01*
X111889500Y-90895975D01*
X111746625Y-90753100D01*
X111580000Y-90750335D01*
X111467966Y-90761369D01*
X111360238Y-90794048D01*
X111260955Y-90847116D01*
X111173933Y-90918533D01*
X111102516Y-91005555D01*
X111049448Y-91104838D01*
X111016769Y-91212566D01*
X111005735Y-91324600D01*
X109863211Y-91324600D01*
X109816819Y-91237807D01*
X109752800Y-91159800D01*
X109674793Y-91095781D01*
X109585795Y-91048211D01*
X109489227Y-91018917D01*
X109388800Y-91009026D01*
X108888800Y-91009026D01*
X108788373Y-91018917D01*
X108691805Y-91048211D01*
X108602807Y-91095781D01*
X108524800Y-91159800D01*
X108460781Y-91237807D01*
X108413211Y-91326805D01*
X108383917Y-91423373D01*
X108374026Y-91523800D01*
X108311299Y-91523800D01*
X108313065Y-91273800D01*
X108302031Y-91161766D01*
X108269352Y-91054038D01*
X108216284Y-90954755D01*
X108144867Y-90867733D01*
X108057845Y-90796316D01*
X107958562Y-90743248D01*
X107850834Y-90710569D01*
X107738800Y-90699535D01*
X107572175Y-90702300D01*
X107429300Y-90845175D01*
X107048300Y-90845175D01*
X106905425Y-90702300D01*
X106738800Y-90699535D01*
X106626766Y-90710569D01*
X106519038Y-90743248D01*
X106419755Y-90796316D01*
X106332733Y-90867733D01*
X106273865Y-90939463D01*
X106302002Y-90871536D01*
X106327500Y-90743349D01*
X106327500Y-90612651D01*
X106302002Y-90484464D01*
X106251986Y-90363715D01*
X106215160Y-90308600D01*
X129344535Y-90308600D01*
X129347300Y-90700225D01*
X129490175Y-90843100D01*
X130228300Y-90843100D01*
X130228300Y-89879975D01*
X130609300Y-89879975D01*
X130609300Y-90843100D01*
X131347425Y-90843100D01*
X131490300Y-90700225D01*
X131491299Y-90558600D01*
X131554026Y-90558600D01*
X131554026Y-91508600D01*
X131563917Y-91609027D01*
X131593211Y-91705595D01*
X131640781Y-91794593D01*
X131704800Y-91872600D01*
X131782807Y-91936619D01*
X131871805Y-91984189D01*
X131968373Y-92013483D01*
X132068800Y-92023374D01*
X132568800Y-92023374D01*
X132669227Y-92013483D01*
X132765795Y-91984189D01*
X132854793Y-91936619D01*
X132932800Y-91872600D01*
X132996819Y-91794593D01*
X133044389Y-91705595D01*
X133073683Y-91609027D01*
X133082570Y-91518792D01*
X133253385Y-91689606D01*
X133245300Y-91730251D01*
X133245300Y-91860949D01*
X133270798Y-91989136D01*
X133320814Y-92109885D01*
X133393426Y-92218556D01*
X133485844Y-92310974D01*
X133594515Y-92383586D01*
X133715264Y-92433602D01*
X133843451Y-92459100D01*
X133974149Y-92459100D01*
X134102336Y-92433602D01*
X134223085Y-92383586D01*
X134331756Y-92310974D01*
X134424174Y-92218556D01*
X134496786Y-92109885D01*
X134546802Y-91989136D01*
X134572300Y-91860949D01*
X134572300Y-91860200D01*
X134780135Y-91860200D01*
X134791169Y-91972234D01*
X134823848Y-92079962D01*
X134876916Y-92179245D01*
X134948333Y-92266267D01*
X135035355Y-92337684D01*
X135134638Y-92390752D01*
X135242366Y-92423431D01*
X135354400Y-92434465D01*
X135521025Y-92431700D01*
X135663900Y-92288825D01*
X135663900Y-91325700D01*
X136044900Y-91325700D01*
X136044900Y-92288825D01*
X136187775Y-92431700D01*
X136354400Y-92434465D01*
X136466434Y-92423431D01*
X136574162Y-92390752D01*
X136673445Y-92337684D01*
X136760467Y-92266267D01*
X136831884Y-92179245D01*
X136884952Y-92079962D01*
X136917631Y-91972234D01*
X136928665Y-91860200D01*
X136925900Y-91468575D01*
X136783025Y-91325700D01*
X136044900Y-91325700D01*
X135663900Y-91325700D01*
X134925775Y-91325700D01*
X134782900Y-91468575D01*
X134780135Y-91860200D01*
X134572300Y-91860200D01*
X134572300Y-91730251D01*
X134546802Y-91602064D01*
X134496786Y-91481315D01*
X134424174Y-91372644D01*
X134331756Y-91280226D01*
X134223085Y-91207614D01*
X134102336Y-91157598D01*
X133974149Y-91132100D01*
X133843451Y-91132100D01*
X133802806Y-91140185D01*
X133435008Y-90772387D01*
X133422840Y-90757560D01*
X133363683Y-90709012D01*
X133296192Y-90672937D01*
X133222959Y-90650722D01*
X133165878Y-90645100D01*
X133165875Y-90645100D01*
X133146800Y-90643221D01*
X133127725Y-90645100D01*
X133083574Y-90645100D01*
X133083574Y-90558600D01*
X133073683Y-90458173D01*
X133059131Y-90410200D01*
X134780135Y-90410200D01*
X134782900Y-90801825D01*
X134925775Y-90944700D01*
X135663900Y-90944700D01*
X135663900Y-89981575D01*
X136044900Y-89981575D01*
X136044900Y-90944700D01*
X136783025Y-90944700D01*
X136925900Y-90801825D01*
X136926899Y-90660200D01*
X136989626Y-90660200D01*
X136989626Y-91610200D01*
X136999517Y-91710627D01*
X137028811Y-91807195D01*
X137076381Y-91896193D01*
X137140400Y-91974200D01*
X137218407Y-92038219D01*
X137307405Y-92085789D01*
X137403973Y-92115083D01*
X137504400Y-92124974D01*
X138004400Y-92124974D01*
X138104827Y-92115083D01*
X138201395Y-92085789D01*
X138252399Y-92058527D01*
X138260832Y-92066959D01*
X138252747Y-92107604D01*
X138252747Y-92238302D01*
X138278245Y-92366489D01*
X138328261Y-92487238D01*
X138400873Y-92595909D01*
X138493291Y-92688327D01*
X138601962Y-92760939D01*
X138722711Y-92810955D01*
X138850898Y-92836453D01*
X138981596Y-92836453D01*
X139109783Y-92810955D01*
X139230532Y-92760939D01*
X139339203Y-92688327D01*
X139431621Y-92595909D01*
X139504233Y-92487238D01*
X139554249Y-92366489D01*
X139575366Y-92260325D01*
X139621933Y-92317067D01*
X139708955Y-92388484D01*
X139808238Y-92441552D01*
X139915966Y-92474231D01*
X140028000Y-92485265D01*
X140194625Y-92482500D01*
X140337500Y-92339625D01*
X140337500Y-91376500D01*
X140718500Y-91376500D01*
X140718500Y-92339625D01*
X140861375Y-92482500D01*
X141028000Y-92485265D01*
X141140034Y-92474231D01*
X141247762Y-92441552D01*
X141347045Y-92388484D01*
X141434067Y-92317067D01*
X141505484Y-92230045D01*
X141558552Y-92130762D01*
X141591231Y-92023034D01*
X141602265Y-91911000D01*
X141599500Y-91519375D01*
X141456625Y-91376500D01*
X140718500Y-91376500D01*
X140337500Y-91376500D01*
X139599375Y-91376500D01*
X139456500Y-91519375D01*
X139454629Y-91784430D01*
X139431621Y-91749997D01*
X139339203Y-91657579D01*
X139230532Y-91584967D01*
X139109783Y-91534951D01*
X138981596Y-91509453D01*
X138850898Y-91509453D01*
X138810253Y-91517538D01*
X138519174Y-91226459D01*
X138519174Y-90660200D01*
X138509283Y-90559773D01*
X138479989Y-90463205D01*
X138478811Y-90461000D01*
X139453735Y-90461000D01*
X139456500Y-90852625D01*
X139599375Y-90995500D01*
X140337500Y-90995500D01*
X140337500Y-90032375D01*
X140718500Y-90032375D01*
X140718500Y-90995500D01*
X141456625Y-90995500D01*
X141599500Y-90852625D01*
X141600499Y-90711000D01*
X141663226Y-90711000D01*
X141663226Y-91661000D01*
X141673117Y-91761427D01*
X141702411Y-91857995D01*
X141749981Y-91946993D01*
X141814000Y-92025000D01*
X141892007Y-92089019D01*
X141981005Y-92136589D01*
X142077573Y-92165883D01*
X142178000Y-92175774D01*
X142678000Y-92175774D01*
X142778427Y-92165883D01*
X142874995Y-92136589D01*
X142963993Y-92089019D01*
X143042000Y-92025000D01*
X143106019Y-91946993D01*
X143153589Y-91857995D01*
X143182883Y-91761427D01*
X143192774Y-91661000D01*
X143192774Y-91574500D01*
X143897325Y-91574500D01*
X143916400Y-91576379D01*
X143935475Y-91574500D01*
X143935478Y-91574500D01*
X143992559Y-91568878D01*
X144065792Y-91546663D01*
X144133283Y-91510588D01*
X144192440Y-91462040D01*
X144204608Y-91447213D01*
X144318406Y-91333415D01*
X144359051Y-91341500D01*
X144489749Y-91341500D01*
X144617936Y-91316002D01*
X144738685Y-91265986D01*
X144847356Y-91193374D01*
X144939774Y-91100956D01*
X145012386Y-90992285D01*
X145062402Y-90871536D01*
X145087900Y-90743349D01*
X145087900Y-90612651D01*
X145062402Y-90484464D01*
X145012386Y-90363715D01*
X144939774Y-90255044D01*
X144847356Y-90162626D01*
X144738685Y-90090014D01*
X144617936Y-90039998D01*
X144489749Y-90014500D01*
X144359051Y-90014500D01*
X144230864Y-90039998D01*
X144110115Y-90090014D01*
X144001444Y-90162626D01*
X143909026Y-90255044D01*
X143836414Y-90363715D01*
X143786398Y-90484464D01*
X143760900Y-90612651D01*
X143760900Y-90743349D01*
X143768985Y-90783994D01*
X143755479Y-90797500D01*
X143192774Y-90797500D01*
X143192774Y-90711000D01*
X143182883Y-90610573D01*
X143153589Y-90514005D01*
X143106019Y-90425007D01*
X143042000Y-90347000D01*
X142963993Y-90282981D01*
X142874995Y-90235411D01*
X142778427Y-90206117D01*
X142678000Y-90196226D01*
X142178000Y-90196226D01*
X142077573Y-90206117D01*
X141981005Y-90235411D01*
X141892007Y-90282981D01*
X141814000Y-90347000D01*
X141749981Y-90425007D01*
X141702411Y-90514005D01*
X141673117Y-90610573D01*
X141663226Y-90711000D01*
X141600499Y-90711000D01*
X141602265Y-90461000D01*
X141591231Y-90348966D01*
X141558552Y-90241238D01*
X141505484Y-90141955D01*
X141434067Y-90054933D01*
X141347045Y-89983516D01*
X141247762Y-89930448D01*
X141140034Y-89897769D01*
X141028000Y-89886735D01*
X140861375Y-89889500D01*
X140718500Y-90032375D01*
X140337500Y-90032375D01*
X140194625Y-89889500D01*
X140028000Y-89886735D01*
X139915966Y-89897769D01*
X139808238Y-89930448D01*
X139708955Y-89983516D01*
X139621933Y-90054933D01*
X139550516Y-90141955D01*
X139497448Y-90241238D01*
X139464769Y-90348966D01*
X139453735Y-90461000D01*
X138478811Y-90461000D01*
X138432419Y-90374207D01*
X138368400Y-90296200D01*
X138290393Y-90232181D01*
X138201395Y-90184611D01*
X138104827Y-90155317D01*
X138004400Y-90145426D01*
X137504400Y-90145426D01*
X137403973Y-90155317D01*
X137307405Y-90184611D01*
X137218407Y-90232181D01*
X137140400Y-90296200D01*
X137076381Y-90374207D01*
X137028811Y-90463205D01*
X136999517Y-90559773D01*
X136989626Y-90660200D01*
X136926899Y-90660200D01*
X136928665Y-90410200D01*
X136917631Y-90298166D01*
X136884952Y-90190438D01*
X136831884Y-90091155D01*
X136760467Y-90004133D01*
X136673445Y-89932716D01*
X136574162Y-89879648D01*
X136466434Y-89846969D01*
X136354400Y-89835935D01*
X136187775Y-89838700D01*
X136044900Y-89981575D01*
X135663900Y-89981575D01*
X135521025Y-89838700D01*
X135354400Y-89835935D01*
X135242366Y-89846969D01*
X135134638Y-89879648D01*
X135035355Y-89932716D01*
X134948333Y-90004133D01*
X134876916Y-90091155D01*
X134823848Y-90190438D01*
X134791169Y-90298166D01*
X134780135Y-90410200D01*
X133059131Y-90410200D01*
X133044389Y-90361605D01*
X132996819Y-90272607D01*
X132932800Y-90194600D01*
X132854793Y-90130581D01*
X132765795Y-90083011D01*
X132669227Y-90053717D01*
X132568800Y-90043826D01*
X132068800Y-90043826D01*
X131968373Y-90053717D01*
X131871805Y-90083011D01*
X131782807Y-90130581D01*
X131704800Y-90194600D01*
X131640781Y-90272607D01*
X131593211Y-90361605D01*
X131563917Y-90458173D01*
X131554026Y-90558600D01*
X131491299Y-90558600D01*
X131493065Y-90308600D01*
X131482031Y-90196566D01*
X131449352Y-90088838D01*
X131396284Y-89989555D01*
X131324867Y-89902533D01*
X131237845Y-89831116D01*
X131138562Y-89778048D01*
X131030834Y-89745369D01*
X130918800Y-89734335D01*
X130752175Y-89737100D01*
X130609300Y-89879975D01*
X130228300Y-89879975D01*
X130085425Y-89737100D01*
X129918800Y-89734335D01*
X129806766Y-89745369D01*
X129699038Y-89778048D01*
X129599755Y-89831116D01*
X129512733Y-89902533D01*
X129441316Y-89989555D01*
X129388248Y-90088838D01*
X129355569Y-90196566D01*
X129344535Y-90308600D01*
X106215160Y-90308600D01*
X106179374Y-90255044D01*
X106086956Y-90162626D01*
X105978285Y-90090014D01*
X105857536Y-90039998D01*
X105729349Y-90014500D01*
X105598651Y-90014500D01*
X105470464Y-90039998D01*
X105349715Y-90090014D01*
X105241044Y-90162626D01*
X105148626Y-90255044D01*
X105076014Y-90363715D01*
X105025998Y-90484464D01*
X105000500Y-90612651D01*
X105000500Y-90743349D01*
X105017013Y-90826365D01*
X104637082Y-91206296D01*
X104599619Y-91136207D01*
X104535600Y-91058200D01*
X104457593Y-90994181D01*
X104368595Y-90946611D01*
X104272027Y-90917317D01*
X104171600Y-90907426D01*
X103671600Y-90907426D01*
X103571173Y-90917317D01*
X103474605Y-90946611D01*
X103385607Y-90994181D01*
X103307600Y-91058200D01*
X103243581Y-91136207D01*
X103196011Y-91225205D01*
X103166717Y-91321773D01*
X103156826Y-91422200D01*
X103094099Y-91422200D01*
X103095865Y-91172200D01*
X103084831Y-91060166D01*
X103052152Y-90952438D01*
X102999084Y-90853155D01*
X102927667Y-90766133D01*
X102840645Y-90694716D01*
X102741362Y-90641648D01*
X102633634Y-90608969D01*
X102521600Y-90597935D01*
X102354975Y-90600700D01*
X102212100Y-90743575D01*
X101831100Y-90743575D01*
X101688225Y-90600700D01*
X101521600Y-90597935D01*
X101409566Y-90608969D01*
X101301838Y-90641648D01*
X101202555Y-90694716D01*
X101115533Y-90766133D01*
X101044116Y-90853155D01*
X100991048Y-90952438D01*
X100958369Y-91060166D01*
X100947335Y-91172200D01*
X72605500Y-91172200D01*
X72605500Y-73318200D01*
X101201335Y-73318200D01*
X101212369Y-73430234D01*
X101245048Y-73537962D01*
X101298116Y-73637245D01*
X101369533Y-73724267D01*
X101456555Y-73795684D01*
X101555838Y-73848752D01*
X101663566Y-73881431D01*
X101775600Y-73892465D01*
X101942225Y-73889700D01*
X102085100Y-73746825D01*
X102085100Y-72783700D01*
X102466100Y-72783700D01*
X102466100Y-73746825D01*
X102608975Y-73889700D01*
X102775600Y-73892465D01*
X102887634Y-73881431D01*
X102995362Y-73848752D01*
X103094645Y-73795684D01*
X103181667Y-73724267D01*
X103253084Y-73637245D01*
X103306152Y-73537962D01*
X103338831Y-73430234D01*
X103349865Y-73318200D01*
X103347100Y-72926575D01*
X103204225Y-72783700D01*
X102466100Y-72783700D01*
X102085100Y-72783700D01*
X101346975Y-72783700D01*
X101204100Y-72926575D01*
X101201335Y-73318200D01*
X72605500Y-73318200D01*
X72605500Y-71868200D01*
X101201335Y-71868200D01*
X101204100Y-72259825D01*
X101346975Y-72402700D01*
X102085100Y-72402700D01*
X102085100Y-71439575D01*
X102466100Y-71439575D01*
X102466100Y-72402700D01*
X103204225Y-72402700D01*
X103347100Y-72259825D01*
X103348099Y-72118200D01*
X103410826Y-72118200D01*
X103410826Y-73068200D01*
X103420717Y-73168627D01*
X103450011Y-73265195D01*
X103497581Y-73354193D01*
X103561600Y-73432200D01*
X103639607Y-73496219D01*
X103728605Y-73543789D01*
X103825173Y-73573083D01*
X103925600Y-73582974D01*
X104425600Y-73582974D01*
X104526027Y-73573083D01*
X104622595Y-73543789D01*
X104711593Y-73496219D01*
X104789600Y-73432200D01*
X104853619Y-73354193D01*
X104873387Y-73317209D01*
X105059385Y-73503206D01*
X105051300Y-73543851D01*
X105051300Y-73674549D01*
X105076798Y-73802736D01*
X105126814Y-73923485D01*
X105199426Y-74032156D01*
X105291844Y-74124574D01*
X105400515Y-74197186D01*
X105521264Y-74247202D01*
X105649451Y-74272700D01*
X105780149Y-74272700D01*
X105908336Y-74247202D01*
X106029085Y-74197186D01*
X106137756Y-74124574D01*
X106230174Y-74032156D01*
X106302786Y-73923485D01*
X106352802Y-73802736D01*
X106378300Y-73674549D01*
X106378300Y-73543851D01*
X106352802Y-73415664D01*
X106333474Y-73369000D01*
X106636935Y-73369000D01*
X106647969Y-73481034D01*
X106680648Y-73588762D01*
X106733716Y-73688045D01*
X106805133Y-73775067D01*
X106892155Y-73846484D01*
X106991438Y-73899552D01*
X107099166Y-73932231D01*
X107211200Y-73943265D01*
X107377825Y-73940500D01*
X107520700Y-73797625D01*
X107520700Y-72834500D01*
X107901700Y-72834500D01*
X107901700Y-73797625D01*
X108044575Y-73940500D01*
X108211200Y-73943265D01*
X108323234Y-73932231D01*
X108430962Y-73899552D01*
X108530245Y-73846484D01*
X108617267Y-73775067D01*
X108688684Y-73688045D01*
X108741752Y-73588762D01*
X108774431Y-73481034D01*
X108785465Y-73369000D01*
X108782700Y-72977375D01*
X108639825Y-72834500D01*
X107901700Y-72834500D01*
X107520700Y-72834500D01*
X106782575Y-72834500D01*
X106639700Y-72977375D01*
X106636935Y-73369000D01*
X106333474Y-73369000D01*
X106302786Y-73294915D01*
X106230174Y-73186244D01*
X106137756Y-73093826D01*
X106029085Y-73021214D01*
X105908336Y-72971198D01*
X105780149Y-72945700D01*
X105649451Y-72945700D01*
X105608806Y-72953785D01*
X104987008Y-72331987D01*
X104974840Y-72317160D01*
X104940374Y-72288875D01*
X104940374Y-72118200D01*
X104930483Y-72017773D01*
X104901189Y-71921205D01*
X104900011Y-71919000D01*
X106636935Y-71919000D01*
X106639700Y-72310625D01*
X106782575Y-72453500D01*
X107520700Y-72453500D01*
X107520700Y-71490375D01*
X107901700Y-71490375D01*
X107901700Y-72453500D01*
X108639825Y-72453500D01*
X108782700Y-72310625D01*
X108783699Y-72169000D01*
X108846426Y-72169000D01*
X108846426Y-73119000D01*
X108856317Y-73219427D01*
X108885611Y-73315995D01*
X108933181Y-73404993D01*
X108997200Y-73483000D01*
X109075207Y-73547019D01*
X109164205Y-73594589D01*
X109260773Y-73623883D01*
X109361200Y-73633774D01*
X109861200Y-73633774D01*
X109961627Y-73623883D01*
X110023034Y-73605255D01*
X110304700Y-73886922D01*
X110304701Y-74748445D01*
X110257614Y-74818915D01*
X110207598Y-74939664D01*
X110182100Y-75067851D01*
X110182100Y-75198549D01*
X110207598Y-75326736D01*
X110257614Y-75447485D01*
X110330226Y-75556156D01*
X110422644Y-75648574D01*
X110531315Y-75721186D01*
X110652064Y-75771202D01*
X110780251Y-75796700D01*
X110910949Y-75796700D01*
X111039136Y-75771202D01*
X111159885Y-75721186D01*
X111268556Y-75648574D01*
X111360974Y-75556156D01*
X111433586Y-75447485D01*
X111483602Y-75326736D01*
X111509100Y-75198549D01*
X111509100Y-75067851D01*
X111483602Y-74939664D01*
X111433586Y-74818915D01*
X111360974Y-74710244D01*
X111268556Y-74617826D01*
X111159885Y-74545214D01*
X111081700Y-74512829D01*
X111081700Y-73745074D01*
X111083579Y-73725999D01*
X111081700Y-73706922D01*
X111076078Y-73649841D01*
X111053863Y-73576608D01*
X111017789Y-73509118D01*
X111017788Y-73509116D01*
X110981401Y-73464779D01*
X110969240Y-73449960D01*
X110954420Y-73437798D01*
X110834822Y-73318200D01*
X111412135Y-73318200D01*
X111423169Y-73430234D01*
X111455848Y-73537962D01*
X111508916Y-73637245D01*
X111580333Y-73724267D01*
X111667355Y-73795684D01*
X111766638Y-73848752D01*
X111874366Y-73881431D01*
X111986400Y-73892465D01*
X112153025Y-73889700D01*
X112295900Y-73746825D01*
X112295900Y-72783700D01*
X112676900Y-72783700D01*
X112676900Y-73746825D01*
X112819775Y-73889700D01*
X112986400Y-73892465D01*
X113098434Y-73881431D01*
X113206162Y-73848752D01*
X113305445Y-73795684D01*
X113392467Y-73724267D01*
X113463884Y-73637245D01*
X113516952Y-73537962D01*
X113549631Y-73430234D01*
X113560665Y-73318200D01*
X113557900Y-72926575D01*
X113415025Y-72783700D01*
X112676900Y-72783700D01*
X112295900Y-72783700D01*
X111557775Y-72783700D01*
X111414900Y-72926575D01*
X111412135Y-73318200D01*
X110834822Y-73318200D01*
X110375974Y-72859353D01*
X110375974Y-72169000D01*
X110366083Y-72068573D01*
X110336789Y-71972005D01*
X110289219Y-71883007D01*
X110277068Y-71868200D01*
X111412135Y-71868200D01*
X111414900Y-72259825D01*
X111557775Y-72402700D01*
X112295900Y-72402700D01*
X112295900Y-71439575D01*
X112676900Y-71439575D01*
X112676900Y-72402700D01*
X113415025Y-72402700D01*
X113557900Y-72259825D01*
X113558899Y-72118200D01*
X113621626Y-72118200D01*
X113621626Y-73068200D01*
X113631517Y-73168627D01*
X113660811Y-73265195D01*
X113708381Y-73354193D01*
X113772400Y-73432200D01*
X113850407Y-73496219D01*
X113939405Y-73543789D01*
X114035973Y-73573083D01*
X114136400Y-73582974D01*
X114636400Y-73582974D01*
X114736827Y-73573083D01*
X114833395Y-73543789D01*
X114922393Y-73496219D01*
X115000400Y-73432200D01*
X115064419Y-73354193D01*
X115111989Y-73265195D01*
X115141283Y-73168627D01*
X115151174Y-73068200D01*
X115151174Y-72981700D01*
X115505659Y-72981700D01*
X115562626Y-73066956D01*
X115655044Y-73159374D01*
X115763715Y-73231986D01*
X115884464Y-73282002D01*
X116012651Y-73307500D01*
X116143349Y-73307500D01*
X116271536Y-73282002D01*
X116392285Y-73231986D01*
X116500956Y-73159374D01*
X116593374Y-73066956D01*
X116665986Y-72958285D01*
X116716002Y-72837536D01*
X116741500Y-72709349D01*
X116741500Y-72578651D01*
X116716002Y-72450464D01*
X116665986Y-72329715D01*
X116593374Y-72221044D01*
X116500956Y-72128626D01*
X116392285Y-72056014D01*
X116271536Y-72005998D01*
X116143349Y-71980500D01*
X116012651Y-71980500D01*
X115884464Y-72005998D01*
X115763715Y-72056014D01*
X115655044Y-72128626D01*
X115578970Y-72204700D01*
X115151174Y-72204700D01*
X115151174Y-72118200D01*
X115141283Y-72017773D01*
X115111989Y-71921205D01*
X115064419Y-71832207D01*
X115000400Y-71754200D01*
X114922393Y-71690181D01*
X114833395Y-71642611D01*
X114736827Y-71613317D01*
X114636400Y-71603426D01*
X114136400Y-71603426D01*
X114035973Y-71613317D01*
X113939405Y-71642611D01*
X113850407Y-71690181D01*
X113772400Y-71754200D01*
X113708381Y-71832207D01*
X113660811Y-71921205D01*
X113631517Y-72017773D01*
X113621626Y-72118200D01*
X113558899Y-72118200D01*
X113560665Y-71868200D01*
X113549631Y-71756166D01*
X113516952Y-71648438D01*
X113463884Y-71549155D01*
X113392467Y-71462133D01*
X113305445Y-71390716D01*
X113206162Y-71337648D01*
X113098434Y-71304969D01*
X112986400Y-71293935D01*
X112819775Y-71296700D01*
X112676900Y-71439575D01*
X112295900Y-71439575D01*
X112153025Y-71296700D01*
X111986400Y-71293935D01*
X111874366Y-71304969D01*
X111766638Y-71337648D01*
X111667355Y-71390716D01*
X111580333Y-71462133D01*
X111508916Y-71549155D01*
X111455848Y-71648438D01*
X111423169Y-71756166D01*
X111412135Y-71868200D01*
X110277068Y-71868200D01*
X110225200Y-71805000D01*
X110147193Y-71740981D01*
X110058195Y-71693411D01*
X109961627Y-71664117D01*
X109861200Y-71654226D01*
X109361200Y-71654226D01*
X109260773Y-71664117D01*
X109164205Y-71693411D01*
X109075207Y-71740981D01*
X108997200Y-71805000D01*
X108933181Y-71883007D01*
X108885611Y-71972005D01*
X108856317Y-72068573D01*
X108846426Y-72169000D01*
X108783699Y-72169000D01*
X108785465Y-71919000D01*
X108774431Y-71806966D01*
X108741752Y-71699238D01*
X108688684Y-71599955D01*
X108617267Y-71512933D01*
X108530245Y-71441516D01*
X108430962Y-71388448D01*
X108323234Y-71355769D01*
X108211200Y-71344735D01*
X108044575Y-71347500D01*
X107901700Y-71490375D01*
X107520700Y-71490375D01*
X107377825Y-71347500D01*
X107211200Y-71344735D01*
X107099166Y-71355769D01*
X106991438Y-71388448D01*
X106892155Y-71441516D01*
X106805133Y-71512933D01*
X106733716Y-71599955D01*
X106680648Y-71699238D01*
X106647969Y-71806966D01*
X106636935Y-71919000D01*
X104900011Y-71919000D01*
X104853619Y-71832207D01*
X104789600Y-71754200D01*
X104711593Y-71690181D01*
X104622595Y-71642611D01*
X104526027Y-71613317D01*
X104425600Y-71603426D01*
X103925600Y-71603426D01*
X103825173Y-71613317D01*
X103728605Y-71642611D01*
X103639607Y-71690181D01*
X103561600Y-71754200D01*
X103497581Y-71832207D01*
X103450011Y-71921205D01*
X103420717Y-72017773D01*
X103410826Y-72118200D01*
X103348099Y-72118200D01*
X103349865Y-71868200D01*
X103338831Y-71756166D01*
X103306152Y-71648438D01*
X103253084Y-71549155D01*
X103181667Y-71462133D01*
X103094645Y-71390716D01*
X102995362Y-71337648D01*
X102887634Y-71304969D01*
X102775600Y-71293935D01*
X102608975Y-71296700D01*
X102466100Y-71439575D01*
X102085100Y-71439575D01*
X101942225Y-71296700D01*
X101775600Y-71293935D01*
X101663566Y-71304969D01*
X101555838Y-71337648D01*
X101456555Y-71390716D01*
X101369533Y-71462133D01*
X101298116Y-71549155D01*
X101245048Y-71648438D01*
X101212369Y-71756166D01*
X101201335Y-71868200D01*
X72605500Y-71868200D01*
X72605500Y-65040000D01*
X78745226Y-65040000D01*
X78745226Y-67040000D01*
X78750314Y-67091655D01*
X78765381Y-67141325D01*
X78789848Y-67187101D01*
X78822777Y-67227223D01*
X78862899Y-67260152D01*
X78908675Y-67284619D01*
X78958345Y-67299686D01*
X79010000Y-67304774D01*
X79621500Y-67304774D01*
X79621501Y-69946603D01*
X79587044Y-69969626D01*
X79494626Y-70062044D01*
X79422014Y-70170715D01*
X79371998Y-70291464D01*
X79346500Y-70419651D01*
X79346500Y-70550349D01*
X79371998Y-70678536D01*
X79422014Y-70799285D01*
X79494626Y-70907956D01*
X79587044Y-71000374D01*
X79695715Y-71072986D01*
X79816464Y-71123002D01*
X79944651Y-71148500D01*
X80075349Y-71148500D01*
X80203536Y-71123002D01*
X80324285Y-71072986D01*
X80432956Y-71000374D01*
X80525374Y-70907956D01*
X80597986Y-70799285D01*
X80648002Y-70678536D01*
X80673500Y-70550349D01*
X80673500Y-70419651D01*
X80648002Y-70291464D01*
X80597986Y-70170715D01*
X80525374Y-70062044D01*
X80432956Y-69969626D01*
X80398500Y-69946603D01*
X80398500Y-67718520D01*
X86903467Y-67718520D01*
X86905957Y-67726759D01*
X87013376Y-67983887D01*
X87168894Y-68215118D01*
X87366535Y-68411566D01*
X87598704Y-68565681D01*
X87856478Y-68671541D01*
X88074500Y-68575810D01*
X88074500Y-67500500D01*
X88455500Y-67500500D01*
X88455500Y-68575810D01*
X88673522Y-68671541D01*
X88931296Y-68565681D01*
X89163465Y-68411566D01*
X89361106Y-68215118D01*
X89501313Y-68006651D01*
X99056900Y-68006651D01*
X99056900Y-68137349D01*
X99082398Y-68265536D01*
X99132414Y-68386285D01*
X99205026Y-68494956D01*
X99297444Y-68587374D01*
X99406115Y-68659986D01*
X99526864Y-68710002D01*
X99655051Y-68735500D01*
X99785749Y-68735500D01*
X99913936Y-68710002D01*
X100034685Y-68659986D01*
X100143356Y-68587374D01*
X100235774Y-68494956D01*
X100258797Y-68460500D01*
X100524679Y-68460500D01*
X100944585Y-68880406D01*
X100936500Y-68921051D01*
X100936500Y-69051749D01*
X100961998Y-69179936D01*
X101012014Y-69300685D01*
X101084626Y-69409356D01*
X101177044Y-69501774D01*
X101285715Y-69574386D01*
X101406464Y-69624402D01*
X101534651Y-69649900D01*
X101665349Y-69649900D01*
X101793536Y-69624402D01*
X101914285Y-69574386D01*
X102022956Y-69501774D01*
X102115374Y-69409356D01*
X102187986Y-69300685D01*
X102238002Y-69179936D01*
X102263500Y-69051749D01*
X102263500Y-68921051D01*
X102238002Y-68792864D01*
X102187986Y-68672115D01*
X102115374Y-68563444D01*
X102022956Y-68471026D01*
X101914285Y-68398414D01*
X101793536Y-68348398D01*
X101665349Y-68322900D01*
X101534651Y-68322900D01*
X101494006Y-68330985D01*
X100973808Y-67810787D01*
X100961640Y-67795960D01*
X100902483Y-67747412D01*
X100834992Y-67711337D01*
X100761759Y-67689122D01*
X100704678Y-67683500D01*
X100704675Y-67683500D01*
X100685600Y-67681621D01*
X100666525Y-67683500D01*
X100258797Y-67683500D01*
X100235774Y-67649044D01*
X100143356Y-67556626D01*
X100034685Y-67484014D01*
X99913936Y-67433998D01*
X99785749Y-67408500D01*
X99655051Y-67408500D01*
X99526864Y-67433998D01*
X99406115Y-67484014D01*
X99297444Y-67556626D01*
X99205026Y-67649044D01*
X99132414Y-67757715D01*
X99082398Y-67878464D01*
X99056900Y-68006651D01*
X89501313Y-68006651D01*
X89516624Y-67983887D01*
X89624043Y-67726759D01*
X89626533Y-67718520D01*
X89529354Y-67500500D01*
X88455500Y-67500500D01*
X88074500Y-67500500D01*
X87000646Y-67500500D01*
X86903467Y-67718520D01*
X80398500Y-67718520D01*
X80398500Y-67304774D01*
X81010000Y-67304774D01*
X81061655Y-67299686D01*
X81111325Y-67284619D01*
X81157101Y-67260152D01*
X81197223Y-67227223D01*
X81230152Y-67187101D01*
X81254619Y-67141325D01*
X81269686Y-67091655D01*
X81274774Y-67040000D01*
X81274774Y-66901480D01*
X86903467Y-66901480D01*
X87000646Y-67119500D01*
X88074500Y-67119500D01*
X88074500Y-66044190D01*
X88455500Y-66044190D01*
X88455500Y-67119500D01*
X89529354Y-67119500D01*
X89626533Y-66901480D01*
X89624043Y-66893241D01*
X89516624Y-66636113D01*
X89361106Y-66404882D01*
X89163465Y-66208434D01*
X88931296Y-66054319D01*
X88673522Y-65948459D01*
X88455500Y-66044190D01*
X88074500Y-66044190D01*
X87856478Y-65948459D01*
X87598704Y-66054319D01*
X87366535Y-66208434D01*
X87168894Y-66404882D01*
X87013376Y-66636113D01*
X86905957Y-66893241D01*
X86903467Y-66901480D01*
X81274774Y-66901480D01*
X81274774Y-65923851D01*
X99361700Y-65923851D01*
X99361700Y-66054549D01*
X99387198Y-66182736D01*
X99437214Y-66303485D01*
X99509826Y-66412156D01*
X99602244Y-66504574D01*
X99710915Y-66577186D01*
X99831664Y-66627202D01*
X99959851Y-66652700D01*
X100090549Y-66652700D01*
X100218736Y-66627202D01*
X100339485Y-66577186D01*
X100448156Y-66504574D01*
X100473430Y-66479300D01*
X101663226Y-66479300D01*
X101663226Y-66565800D01*
X101673117Y-66666227D01*
X101702411Y-66762795D01*
X101749981Y-66851793D01*
X101814000Y-66929800D01*
X101892007Y-66993819D01*
X101981005Y-67041389D01*
X102077573Y-67070683D01*
X102178000Y-67080574D01*
X102678000Y-67080574D01*
X102778427Y-67070683D01*
X102874995Y-67041389D01*
X102963993Y-66993819D01*
X103042000Y-66929800D01*
X103106019Y-66851793D01*
X103125257Y-66815800D01*
X103253735Y-66815800D01*
X103264769Y-66927834D01*
X103297448Y-67035562D01*
X103350516Y-67134845D01*
X103421933Y-67221867D01*
X103508955Y-67293284D01*
X103608238Y-67346352D01*
X103715966Y-67379031D01*
X103828000Y-67390065D01*
X103994625Y-67387300D01*
X104137500Y-67244425D01*
X104137500Y-66281300D01*
X104518500Y-66281300D01*
X104518500Y-67244425D01*
X104661375Y-67387300D01*
X104828000Y-67390065D01*
X104940034Y-67379031D01*
X105047762Y-67346352D01*
X105147045Y-67293284D01*
X105234067Y-67221867D01*
X105305484Y-67134845D01*
X105358552Y-67035562D01*
X105391231Y-66927834D01*
X105402265Y-66815800D01*
X105401548Y-66714200D01*
X106621735Y-66714200D01*
X106632769Y-66826234D01*
X106665448Y-66933962D01*
X106718516Y-67033245D01*
X106789933Y-67120267D01*
X106876955Y-67191684D01*
X106976238Y-67244752D01*
X107083966Y-67277431D01*
X107196000Y-67288465D01*
X107362625Y-67285700D01*
X107505500Y-67142825D01*
X107505500Y-66179700D01*
X107886500Y-66179700D01*
X107886500Y-67142825D01*
X108029375Y-67285700D01*
X108196000Y-67288465D01*
X108308034Y-67277431D01*
X108415762Y-67244752D01*
X108515045Y-67191684D01*
X108602067Y-67120267D01*
X108673484Y-67033245D01*
X108726552Y-66933962D01*
X108759231Y-66826234D01*
X108770265Y-66714200D01*
X108767500Y-66322575D01*
X108624625Y-66179700D01*
X107886500Y-66179700D01*
X107505500Y-66179700D01*
X106767375Y-66179700D01*
X106624500Y-66322575D01*
X106621735Y-66714200D01*
X105401548Y-66714200D01*
X105399500Y-66424175D01*
X105256625Y-66281300D01*
X104518500Y-66281300D01*
X104137500Y-66281300D01*
X103399375Y-66281300D01*
X103256500Y-66424175D01*
X103253735Y-66815800D01*
X103125257Y-66815800D01*
X103153589Y-66762795D01*
X103182883Y-66666227D01*
X103192774Y-66565800D01*
X103192774Y-65615800D01*
X103182883Y-65515373D01*
X103153589Y-65418805D01*
X103125258Y-65365800D01*
X103253735Y-65365800D01*
X103256500Y-65757425D01*
X103399375Y-65900300D01*
X104137500Y-65900300D01*
X104137500Y-64937175D01*
X104518500Y-64937175D01*
X104518500Y-65900300D01*
X105256625Y-65900300D01*
X105399500Y-65757425D01*
X105402265Y-65365800D01*
X105392259Y-65264200D01*
X106621735Y-65264200D01*
X106624500Y-65655825D01*
X106767375Y-65798700D01*
X107505500Y-65798700D01*
X107505500Y-64835575D01*
X107886500Y-64835575D01*
X107886500Y-65798700D01*
X108624625Y-65798700D01*
X108767500Y-65655825D01*
X108768499Y-65514200D01*
X108831226Y-65514200D01*
X108831226Y-66464200D01*
X108841117Y-66564627D01*
X108870411Y-66661195D01*
X108917981Y-66750193D01*
X108982000Y-66828200D01*
X109060007Y-66892219D01*
X109149005Y-66939789D01*
X109245573Y-66969083D01*
X109346000Y-66978974D01*
X109846000Y-66978974D01*
X109946427Y-66969083D01*
X110042995Y-66939789D01*
X110131993Y-66892219D01*
X110210000Y-66828200D01*
X110220176Y-66815800D01*
X111462935Y-66815800D01*
X111473969Y-66927834D01*
X111506648Y-67035562D01*
X111559716Y-67134845D01*
X111631133Y-67221867D01*
X111718155Y-67293284D01*
X111817438Y-67346352D01*
X111925166Y-67379031D01*
X112037200Y-67390065D01*
X112203825Y-67387300D01*
X112346700Y-67244425D01*
X112346700Y-66281300D01*
X112727700Y-66281300D01*
X112727700Y-67244425D01*
X112870575Y-67387300D01*
X113037200Y-67390065D01*
X113149234Y-67379031D01*
X113256962Y-67346352D01*
X113356245Y-67293284D01*
X113443267Y-67221867D01*
X113514684Y-67134845D01*
X113567752Y-67035562D01*
X113600431Y-66927834D01*
X113611465Y-66815800D01*
X113608700Y-66424175D01*
X113465825Y-66281300D01*
X112727700Y-66281300D01*
X112346700Y-66281300D01*
X111608575Y-66281300D01*
X111465700Y-66424175D01*
X111462935Y-66815800D01*
X110220176Y-66815800D01*
X110274019Y-66750193D01*
X110321589Y-66661195D01*
X110350883Y-66564627D01*
X110360774Y-66464200D01*
X110360774Y-65773847D01*
X110768821Y-65365800D01*
X111462935Y-65365800D01*
X111465700Y-65757425D01*
X111608575Y-65900300D01*
X112346700Y-65900300D01*
X112346700Y-64937175D01*
X112727700Y-64937175D01*
X112727700Y-65900300D01*
X113465825Y-65900300D01*
X113608700Y-65757425D01*
X113609699Y-65615800D01*
X113672426Y-65615800D01*
X113672426Y-66565800D01*
X113682317Y-66666227D01*
X113711611Y-66762795D01*
X113759181Y-66851793D01*
X113823200Y-66929800D01*
X113901207Y-66993819D01*
X113990205Y-67041389D01*
X114086773Y-67070683D01*
X114187200Y-67080574D01*
X114687200Y-67080574D01*
X114787627Y-67070683D01*
X114884195Y-67041389D01*
X114973193Y-66993819D01*
X115051200Y-66929800D01*
X115115219Y-66851793D01*
X115162789Y-66762795D01*
X115192083Y-66666227D01*
X115201974Y-66565800D01*
X115201974Y-66479300D01*
X115438003Y-66479300D01*
X115461026Y-66513756D01*
X115553444Y-66606174D01*
X115662115Y-66678786D01*
X115782864Y-66728802D01*
X115911051Y-66754300D01*
X116041749Y-66754300D01*
X116169936Y-66728802D01*
X116290685Y-66678786D01*
X116399356Y-66606174D01*
X116491774Y-66513756D01*
X116564386Y-66405085D01*
X116614402Y-66284336D01*
X116639900Y-66156149D01*
X116639900Y-66025451D01*
X116614402Y-65897264D01*
X116564386Y-65776515D01*
X116491774Y-65667844D01*
X116399356Y-65575426D01*
X116290685Y-65502814D01*
X116169936Y-65452798D01*
X116041749Y-65427300D01*
X115911051Y-65427300D01*
X115782864Y-65452798D01*
X115662115Y-65502814D01*
X115553444Y-65575426D01*
X115461026Y-65667844D01*
X115438003Y-65702300D01*
X115201974Y-65702300D01*
X115201974Y-65615800D01*
X115192083Y-65515373D01*
X115162789Y-65418805D01*
X115115219Y-65329807D01*
X115051200Y-65251800D01*
X114973193Y-65187781D01*
X114884195Y-65140211D01*
X114787627Y-65110917D01*
X114687200Y-65101026D01*
X114187200Y-65101026D01*
X114086773Y-65110917D01*
X113990205Y-65140211D01*
X113901207Y-65187781D01*
X113823200Y-65251800D01*
X113759181Y-65329807D01*
X113711611Y-65418805D01*
X113682317Y-65515373D01*
X113672426Y-65615800D01*
X113609699Y-65615800D01*
X113611465Y-65365800D01*
X113600431Y-65253766D01*
X113567752Y-65146038D01*
X113514684Y-65046755D01*
X113443267Y-64959733D01*
X113356245Y-64888316D01*
X113256962Y-64835248D01*
X113149234Y-64802569D01*
X113037200Y-64791535D01*
X112870575Y-64794300D01*
X112727700Y-64937175D01*
X112346700Y-64937175D01*
X112203825Y-64794300D01*
X112037200Y-64791535D01*
X111925166Y-64802569D01*
X111817438Y-64835248D01*
X111718155Y-64888316D01*
X111631133Y-64959733D01*
X111559716Y-65046755D01*
X111506648Y-65146038D01*
X111473969Y-65253766D01*
X111462935Y-65365800D01*
X110768821Y-65365800D01*
X111310020Y-64824602D01*
X111324840Y-64812440D01*
X111373388Y-64753283D01*
X111409463Y-64685792D01*
X111431678Y-64612559D01*
X111437300Y-64555478D01*
X111437300Y-64555476D01*
X111439179Y-64536401D01*
X111437300Y-64517326D01*
X111437300Y-64212612D01*
X111497566Y-64172343D01*
X111589984Y-64079925D01*
X111662596Y-63971254D01*
X111712612Y-63850505D01*
X111738110Y-63722318D01*
X111738110Y-63591620D01*
X111712612Y-63463433D01*
X111662596Y-63342684D01*
X111589984Y-63234013D01*
X111497566Y-63141595D01*
X111388895Y-63068983D01*
X111268146Y-63018967D01*
X111139959Y-62993469D01*
X111009261Y-62993469D01*
X110881074Y-63018967D01*
X110760325Y-63068983D01*
X110651654Y-63141595D01*
X110559236Y-63234013D01*
X110486624Y-63342684D01*
X110436608Y-63463433D01*
X110411110Y-63591620D01*
X110411110Y-63722318D01*
X110436608Y-63850505D01*
X110486624Y-63971254D01*
X110559236Y-64079925D01*
X110651654Y-64172343D01*
X110660300Y-64178120D01*
X110660300Y-64375478D01*
X110007834Y-65027945D01*
X109946427Y-65009317D01*
X109846000Y-64999426D01*
X109346000Y-64999426D01*
X109245573Y-65009317D01*
X109149005Y-65038611D01*
X109060007Y-65086181D01*
X108982000Y-65150200D01*
X108917981Y-65228207D01*
X108870411Y-65317205D01*
X108841117Y-65413773D01*
X108831226Y-65514200D01*
X108768499Y-65514200D01*
X108770265Y-65264200D01*
X108759231Y-65152166D01*
X108726552Y-65044438D01*
X108673484Y-64945155D01*
X108602067Y-64858133D01*
X108515045Y-64786716D01*
X108415762Y-64733648D01*
X108308034Y-64700969D01*
X108196000Y-64689935D01*
X108029375Y-64692700D01*
X107886500Y-64835575D01*
X107505500Y-64835575D01*
X107362625Y-64692700D01*
X107196000Y-64689935D01*
X107083966Y-64700969D01*
X106976238Y-64733648D01*
X106876955Y-64786716D01*
X106789933Y-64858133D01*
X106718516Y-64945155D01*
X106665448Y-65044438D01*
X106632769Y-65152166D01*
X106621735Y-65264200D01*
X105392259Y-65264200D01*
X105391231Y-65253766D01*
X105358552Y-65146038D01*
X105305484Y-65046755D01*
X105234067Y-64959733D01*
X105147045Y-64888316D01*
X105047762Y-64835248D01*
X104940034Y-64802569D01*
X104828000Y-64791535D01*
X104661375Y-64794300D01*
X104518500Y-64937175D01*
X104137500Y-64937175D01*
X103994625Y-64794300D01*
X103828000Y-64791535D01*
X103715966Y-64802569D01*
X103608238Y-64835248D01*
X103508955Y-64888316D01*
X103421933Y-64959733D01*
X103350516Y-65046755D01*
X103297448Y-65146038D01*
X103264769Y-65253766D01*
X103253735Y-65365800D01*
X103125258Y-65365800D01*
X103106019Y-65329807D01*
X103042000Y-65251800D01*
X102963993Y-65187781D01*
X102874995Y-65140211D01*
X102778427Y-65110917D01*
X102678000Y-65101026D01*
X102178000Y-65101026D01*
X102077573Y-65110917D01*
X101981005Y-65140211D01*
X101892007Y-65187781D01*
X101814000Y-65251800D01*
X101749981Y-65329807D01*
X101702411Y-65418805D01*
X101673117Y-65515373D01*
X101663226Y-65615800D01*
X101663226Y-65702300D01*
X100624529Y-65702300D01*
X100613186Y-65674915D01*
X100540574Y-65566244D01*
X100448156Y-65473826D01*
X100339485Y-65401214D01*
X100218736Y-65351198D01*
X100090549Y-65325700D01*
X99959851Y-65325700D01*
X99831664Y-65351198D01*
X99710915Y-65401214D01*
X99602244Y-65473826D01*
X99509826Y-65566244D01*
X99437214Y-65674915D01*
X99387198Y-65795664D01*
X99361700Y-65923851D01*
X81274774Y-65923851D01*
X81274774Y-65040000D01*
X81269686Y-64988345D01*
X81254619Y-64938675D01*
X81230152Y-64892899D01*
X81197223Y-64852777D01*
X81157101Y-64819848D01*
X81111325Y-64795381D01*
X81061655Y-64780314D01*
X81010000Y-64775226D01*
X79010000Y-64775226D01*
X78958345Y-64780314D01*
X78908675Y-64795381D01*
X78862899Y-64819848D01*
X78822777Y-64852777D01*
X78789848Y-64892899D01*
X78765381Y-64938675D01*
X78750314Y-64988345D01*
X78745226Y-65040000D01*
X72605500Y-65040000D01*
X72605500Y-64660330D01*
X87151500Y-64660330D01*
X87151500Y-64879670D01*
X87194291Y-65094796D01*
X87278229Y-65297440D01*
X87400088Y-65479815D01*
X87555185Y-65634912D01*
X87737560Y-65756771D01*
X87940204Y-65840709D01*
X88155330Y-65883500D01*
X88374670Y-65883500D01*
X88589796Y-65840709D01*
X88792440Y-65756771D01*
X88974815Y-65634912D01*
X89129912Y-65479815D01*
X89251771Y-65297440D01*
X89335709Y-65094796D01*
X89378500Y-64879670D01*
X89378500Y-64660330D01*
X89335709Y-64445204D01*
X89251771Y-64242560D01*
X89129912Y-64060185D01*
X88974815Y-63905088D01*
X88792440Y-63783229D01*
X88589796Y-63699291D01*
X88374670Y-63656500D01*
X88155330Y-63656500D01*
X87940204Y-63699291D01*
X87737560Y-63783229D01*
X87555185Y-63905088D01*
X87400088Y-64060185D01*
X87278229Y-64242560D01*
X87194291Y-64445204D01*
X87151500Y-64660330D01*
X72605500Y-64660330D01*
X72605500Y-62181298D01*
X79138110Y-62181298D01*
X79242723Y-62420165D01*
X79526723Y-62543334D01*
X79829295Y-62608731D01*
X80138811Y-62613842D01*
X80443377Y-62558471D01*
X80731289Y-62444746D01*
X80777277Y-62420165D01*
X80881890Y-62181298D01*
X80010000Y-61309408D01*
X79138110Y-62181298D01*
X72605500Y-62181298D01*
X72605500Y-61168811D01*
X78436158Y-61168811D01*
X78491529Y-61473377D01*
X78605254Y-61761289D01*
X78629835Y-61807277D01*
X78868702Y-61911890D01*
X79740592Y-61040000D01*
X80279408Y-61040000D01*
X81151298Y-61911890D01*
X81390165Y-61807277D01*
X81513334Y-61523277D01*
X81544301Y-61380000D01*
X87150226Y-61380000D01*
X87150226Y-63080000D01*
X87155314Y-63131655D01*
X87170381Y-63181325D01*
X87194848Y-63227101D01*
X87227777Y-63267223D01*
X87267899Y-63300152D01*
X87313675Y-63324619D01*
X87363345Y-63339686D01*
X87415000Y-63344774D01*
X89115000Y-63344774D01*
X89166655Y-63339686D01*
X89216325Y-63324619D01*
X89262101Y-63300152D01*
X89302223Y-63267223D01*
X89335152Y-63227101D01*
X89359619Y-63181325D01*
X89374686Y-63131655D01*
X89379774Y-63080000D01*
X89379774Y-61380000D01*
X89374686Y-61328345D01*
X89359619Y-61278675D01*
X89335152Y-61232899D01*
X89302223Y-61192777D01*
X89262101Y-61159848D01*
X89216325Y-61135381D01*
X89166655Y-61120314D01*
X89115000Y-61115226D01*
X87415000Y-61115226D01*
X87363345Y-61120314D01*
X87313675Y-61135381D01*
X87267899Y-61159848D01*
X87227777Y-61192777D01*
X87194848Y-61232899D01*
X87170381Y-61278675D01*
X87155314Y-61328345D01*
X87150226Y-61380000D01*
X81544301Y-61380000D01*
X81578731Y-61220705D01*
X81583842Y-60911189D01*
X81528471Y-60606623D01*
X81414746Y-60318711D01*
X81390165Y-60272723D01*
X81151298Y-60168110D01*
X80279408Y-61040000D01*
X79740592Y-61040000D01*
X78868702Y-60168110D01*
X78629835Y-60272723D01*
X78506666Y-60556723D01*
X78441269Y-60859295D01*
X78436158Y-61168811D01*
X72605500Y-61168811D01*
X72605500Y-59898702D01*
X79138110Y-59898702D01*
X80010000Y-60770592D01*
X80881890Y-59898702D01*
X80777277Y-59659835D01*
X80493277Y-59536666D01*
X80190705Y-59471269D01*
X79881189Y-59466158D01*
X79576623Y-59521529D01*
X79288711Y-59635254D01*
X79242723Y-59659835D01*
X79138110Y-59898702D01*
X72605500Y-59898702D01*
X72605500Y-42878272D01*
X75676500Y-42878272D01*
X75676500Y-43481728D01*
X75794229Y-44073590D01*
X76025161Y-44631111D01*
X76360424Y-45132867D01*
X76787133Y-45559576D01*
X77288889Y-45894839D01*
X77846410Y-46125771D01*
X78438272Y-46243500D01*
X79041728Y-46243500D01*
X79633590Y-46125771D01*
X80191111Y-45894839D01*
X80692867Y-45559576D01*
X81119576Y-45132867D01*
X81454839Y-44631111D01*
X81685771Y-44073590D01*
X81803500Y-43481728D01*
X81803500Y-42878272D01*
X151876500Y-42878272D01*
X151876500Y-43481728D01*
X151994229Y-44073590D01*
X152225161Y-44631111D01*
X152560424Y-45132867D01*
X152987133Y-45559576D01*
X153488889Y-45894839D01*
X154046410Y-46125771D01*
X154638272Y-46243500D01*
X155241728Y-46243500D01*
X155833590Y-46125771D01*
X156391111Y-45894839D01*
X156892867Y-45559576D01*
X157319576Y-45132867D01*
X157654839Y-44631111D01*
X157885771Y-44073590D01*
X158003500Y-43481728D01*
X158003500Y-42878272D01*
X157885771Y-42286410D01*
X157654839Y-41728889D01*
X157319576Y-41227133D01*
X156892867Y-40800424D01*
X156391111Y-40465161D01*
X155833590Y-40234229D01*
X155241728Y-40116500D01*
X154638272Y-40116500D01*
X154046410Y-40234229D01*
X153488889Y-40465161D01*
X152987133Y-40800424D01*
X152560424Y-41227133D01*
X152225161Y-41728889D01*
X151994229Y-42286410D01*
X151876500Y-42878272D01*
X81803500Y-42878272D01*
X81685771Y-42286410D01*
X81454839Y-41728889D01*
X81119576Y-41227133D01*
X80692867Y-40800424D01*
X80191111Y-40465161D01*
X79633590Y-40234229D01*
X79041728Y-40116500D01*
X78438272Y-40116500D01*
X77846410Y-40234229D01*
X77288889Y-40465161D01*
X76787133Y-40800424D01*
X76360424Y-41227133D01*
X76025161Y-41728889D01*
X75794229Y-42286410D01*
X75676500Y-42878272D01*
X72605500Y-42878272D01*
X72605500Y-39585500D01*
X162344501Y-39585500D01*
X162344500Y-129324500D01*
G37*
%TD.AperFunction*%
%TD*%
M02*
