%TF.GenerationSoftware,KiCad,Pcbnew,(5.1.10)-1*%
%TF.CreationDate,2023-08-16T19:47:32-05:00*%
%TF.ProjectId,brs_flight_computer,6272735f-666c-4696-9768-745f636f6d70,rev?*%
%TF.SameCoordinates,Original*%
%TF.FileFunction,Legend,Bot*%
%TF.FilePolarity,Positive*%
%FSLAX46Y46*%
G04 Gerber Fmt 4.6, Leading zero omitted, Abs format (unit mm)*
G04 Created by KiCad (PCBNEW (5.1.10)-1) date 2023-08-16 19:47:32*
%MOMM*%
%LPD*%
G01*
G04 APERTURE LIST*
%ADD10C,0.120000*%
%ADD11C,0.100000*%
G04 APERTURE END LIST*
D10*
%TO.C,C29*%
X115937420Y-125982000D02*
X116218580Y-125982000D01*
X115937420Y-127002000D02*
X116218580Y-127002000D01*
%TO.C,C28*%
X115937420Y-92962000D02*
X116218580Y-92962000D01*
X115937420Y-93982000D02*
X116218580Y-93982000D01*
%TO.C,C17*%
X115937420Y-109472000D02*
X116218580Y-109472000D01*
X115937420Y-110492000D02*
X116218580Y-110492000D01*
%TO.C,R80*%
X168291742Y-136891500D02*
X168766258Y-136891500D01*
X168291742Y-137936500D02*
X168766258Y-137936500D01*
%TO.C,R78*%
X168766258Y-132856500D02*
X168291742Y-132856500D01*
X168766258Y-131811500D02*
X168291742Y-131811500D01*
%TO.C,R77*%
X171847742Y-136891500D02*
X172322258Y-136891500D01*
X171847742Y-137936500D02*
X172322258Y-137936500D01*
%TO.C,R76*%
X172322258Y-132856500D02*
X171847742Y-132856500D01*
X172322258Y-131811500D02*
X171847742Y-131811500D01*
%TO.C,R75*%
X175403742Y-136891500D02*
X175878258Y-136891500D01*
X175403742Y-137936500D02*
X175878258Y-137936500D01*
%TO.C,R74*%
X175878258Y-132856500D02*
X175403742Y-132856500D01*
X175878258Y-131811500D02*
X175403742Y-131811500D01*
%TO.C,R73*%
X117745742Y-118984500D02*
X118220258Y-118984500D01*
X117745742Y-120029500D02*
X118220258Y-120029500D01*
%TO.C,R72*%
X117745742Y-102474500D02*
X118220258Y-102474500D01*
X117745742Y-103519500D02*
X118220258Y-103519500D01*
%TO.C,R71*%
X117745742Y-85964500D02*
X118220258Y-85964500D01*
X117745742Y-87009500D02*
X118220258Y-87009500D01*
%TO.C,R3*%
X177529258Y-110250500D02*
X177054742Y-110250500D01*
X177529258Y-109205500D02*
X177054742Y-109205500D01*
%TO.C,R2*%
X185180500Y-116094742D02*
X185180500Y-116569258D01*
X184135500Y-116094742D02*
X184135500Y-116569258D01*
%TO.C,R1*%
X183656500Y-116094742D02*
X183656500Y-116569258D01*
X182611500Y-116094742D02*
X182611500Y-116569258D01*
%TO.C,Q3*%
X170109000Y-135650000D02*
X170109000Y-134190000D01*
X166949000Y-135650000D02*
X166949000Y-133490000D01*
X166949000Y-135650000D02*
X167879000Y-135650000D01*
X170109000Y-135650000D02*
X169179000Y-135650000D01*
%TO.C,Q2*%
X173665000Y-135650000D02*
X173665000Y-134190000D01*
X170505000Y-135650000D02*
X170505000Y-133490000D01*
X170505000Y-135650000D02*
X171435000Y-135650000D01*
X173665000Y-135650000D02*
X172735000Y-135650000D01*
%TO.C,Q1*%
X177221000Y-135650000D02*
X177221000Y-134190000D01*
X174061000Y-135650000D02*
X174061000Y-133490000D01*
X174061000Y-135650000D02*
X174991000Y-135650000D01*
X177221000Y-135650000D02*
X176291000Y-135650000D01*
%TO.C,C110*%
X164340000Y-77964420D02*
X164340000Y-78245580D01*
X163320000Y-77964420D02*
X163320000Y-78245580D01*
%TO.C,C109*%
X171452000Y-77964420D02*
X171452000Y-78245580D01*
X170432000Y-77964420D02*
X170432000Y-78245580D01*
%TO.C,C108*%
X169646000Y-76616000D02*
X169646000Y-84676000D01*
X165126000Y-76616000D02*
X169646000Y-76616000D01*
X165126000Y-84676000D02*
X165126000Y-76616000D01*
%TO.C,C107*%
X130812000Y-77964420D02*
X130812000Y-78245580D01*
X129792000Y-77964420D02*
X129792000Y-78245580D01*
%TO.C,C106*%
X137797000Y-77964420D02*
X137797000Y-78245580D01*
X136777000Y-77964420D02*
X136777000Y-78245580D01*
%TO.C,C105*%
X136118000Y-76616000D02*
X136118000Y-84676000D01*
X131598000Y-76616000D02*
X136118000Y-76616000D01*
X131598000Y-84676000D02*
X131598000Y-76616000D01*
%TO.C,C104*%
X165213420Y-138682000D02*
X165494580Y-138682000D01*
X165213420Y-139702000D02*
X165494580Y-139702000D01*
%TO.C,C101*%
X143639000Y-81660420D02*
X143639000Y-81941580D01*
X142619000Y-81660420D02*
X142619000Y-81941580D01*
%TO.C,C100*%
X141988000Y-81647420D02*
X141988000Y-81928580D01*
X140968000Y-81647420D02*
X140968000Y-81928580D01*
%TO.C,C99*%
X133844420Y-109091000D02*
X134125580Y-109091000D01*
X133844420Y-110111000D02*
X134125580Y-110111000D01*
%TO.C,C97*%
X122822580Y-109603000D02*
X122541420Y-109603000D01*
X122822580Y-108583000D02*
X122541420Y-108583000D01*
%TO.C,C96*%
X122822580Y-94363000D02*
X122541420Y-94363000D01*
X122822580Y-93343000D02*
X122541420Y-93343000D01*
%TO.C,C93*%
X122822580Y-130939000D02*
X122541420Y-130939000D01*
X122822580Y-129919000D02*
X122541420Y-129919000D01*
%TO.C,C92*%
X122835580Y-91315000D02*
X122554420Y-91315000D01*
X122835580Y-90295000D02*
X122554420Y-90295000D01*
%TO.C,C91*%
X143131000Y-106920420D02*
X143131000Y-107201580D01*
X142111000Y-106920420D02*
X142111000Y-107201580D01*
%TO.C,C90*%
X122822580Y-121795000D02*
X122541420Y-121795000D01*
X122822580Y-120775000D02*
X122541420Y-120775000D01*
%TO.C,C89*%
X122822580Y-106555000D02*
X122541420Y-106555000D01*
X122822580Y-105535000D02*
X122541420Y-105535000D01*
%TO.C,C88*%
X122822580Y-88267000D02*
X122541420Y-88267000D01*
X122822580Y-87247000D02*
X122541420Y-87247000D01*
%TO.C,C86*%
X122822580Y-118747000D02*
X122541420Y-118747000D01*
X122822580Y-117727000D02*
X122541420Y-117727000D01*
%TO.C,C85*%
X122822580Y-103507000D02*
X122541420Y-103507000D01*
X122822580Y-102487000D02*
X122541420Y-102487000D01*
%TO.C,C84*%
X122822580Y-85219000D02*
X122541420Y-85219000D01*
X122822580Y-84199000D02*
X122541420Y-84199000D01*
%TO.C,C83*%
X136003420Y-130300000D02*
X136284580Y-130300000D01*
X136003420Y-131320000D02*
X136284580Y-131320000D01*
%TO.C,C82*%
X122822580Y-127891000D02*
X122541420Y-127891000D01*
X122822580Y-126871000D02*
X122541420Y-126871000D01*
%TO.C,C81*%
X122822580Y-115699000D02*
X122541420Y-115699000D01*
X122822580Y-114679000D02*
X122541420Y-114679000D01*
%TO.C,C80*%
X122822580Y-100459000D02*
X122541420Y-100459000D01*
X122822580Y-99439000D02*
X122541420Y-99439000D01*
%TO.C,C79*%
X122822580Y-82171000D02*
X122541420Y-82171000D01*
X122822580Y-81151000D02*
X122541420Y-81151000D01*
%TO.C,C78*%
X136003420Y-101852000D02*
X136284580Y-101852000D01*
X136003420Y-102872000D02*
X136284580Y-102872000D01*
%TO.C,C77*%
X122822580Y-124843000D02*
X122541420Y-124843000D01*
X122822580Y-123823000D02*
X122541420Y-123823000D01*
%TO.C,C76*%
X122822580Y-112651000D02*
X122541420Y-112651000D01*
X122822580Y-111631000D02*
X122541420Y-111631000D01*
%TO.C,C75*%
X122822580Y-97411000D02*
X122541420Y-97411000D01*
X122822580Y-96391000D02*
X122541420Y-96391000D01*
%TO.C,C74*%
X122822580Y-79123000D02*
X122541420Y-79123000D01*
X122822580Y-78103000D02*
X122541420Y-78103000D01*
%TO.C,C71*%
X168134420Y-122299000D02*
X168415580Y-122299000D01*
X168134420Y-123319000D02*
X168415580Y-123319000D01*
%TO.C,C70*%
X168134420Y-110107000D02*
X168415580Y-110107000D01*
X168134420Y-111127000D02*
X168415580Y-111127000D01*
%TO.C,C69*%
X160795580Y-115699000D02*
X160514420Y-115699000D01*
X160795580Y-114679000D02*
X160514420Y-114679000D01*
%TO.C,C68*%
X168134420Y-116203000D02*
X168415580Y-116203000D01*
X168134420Y-117223000D02*
X168415580Y-117223000D01*
%TO.C,C67*%
X160795580Y-112651000D02*
X160514420Y-112651000D01*
X160795580Y-111631000D02*
X160514420Y-111631000D01*
%TO.C,C66*%
X160795580Y-137035000D02*
X160514420Y-137035000D01*
X160795580Y-136015000D02*
X160514420Y-136015000D01*
%TO.C,C65*%
X168134420Y-128395000D02*
X168415580Y-128395000D01*
X168134420Y-129415000D02*
X168415580Y-129415000D01*
%TO.C,C64*%
X168134420Y-104011000D02*
X168415580Y-104011000D01*
X168134420Y-105031000D02*
X168415580Y-105031000D01*
%TO.C,C63*%
X160795580Y-109603000D02*
X160514420Y-109603000D01*
X160795580Y-108583000D02*
X160514420Y-108583000D01*
%TO.C,C62*%
X160795580Y-133987000D02*
X160514420Y-133987000D01*
X160795580Y-132967000D02*
X160514420Y-132967000D01*
%TO.C,C61*%
X160795580Y-106555000D02*
X160514420Y-106555000D01*
X160795580Y-105535000D02*
X160514420Y-105535000D01*
%TO.C,C60*%
X160795580Y-130939000D02*
X160514420Y-130939000D01*
X160795580Y-129919000D02*
X160514420Y-129919000D01*
%TO.C,C59*%
X160795580Y-103507000D02*
X160514420Y-103507000D01*
X160795580Y-102487000D02*
X160514420Y-102487000D01*
%TO.C,C58*%
X160795580Y-127891000D02*
X160514420Y-127891000D01*
X160795580Y-126871000D02*
X160514420Y-126871000D01*
%TO.C,C57*%
X160795580Y-100459000D02*
X160514420Y-100459000D01*
X160795580Y-99439000D02*
X160514420Y-99439000D01*
%TO.C,C56*%
X160795580Y-124843000D02*
X160514420Y-124843000D01*
X160795580Y-123823000D02*
X160514420Y-123823000D01*
%TO.C,C55*%
X160795580Y-97411000D02*
X160514420Y-97411000D01*
X160795580Y-96391000D02*
X160514420Y-96391000D01*
%TO.C,C54*%
X160795580Y-121795000D02*
X160514420Y-121795000D01*
X160795580Y-120775000D02*
X160514420Y-120775000D01*
%TO.C,C53*%
X160795580Y-94363000D02*
X160514420Y-94363000D01*
X160795580Y-93343000D02*
X160514420Y-93343000D01*
%TO.C,C52*%
X160795580Y-118747000D02*
X160514420Y-118747000D01*
X160795580Y-117727000D02*
X160514420Y-117727000D01*
%TO.C,C51*%
X160795580Y-91315000D02*
X160514420Y-91315000D01*
X160795580Y-90295000D02*
X160514420Y-90295000D01*
%TO.C,C48*%
X126732420Y-75944000D02*
X127013580Y-75944000D01*
X126732420Y-76964000D02*
X127013580Y-76964000D01*
%TO.C,C47*%
X180088000Y-130161420D02*
X180088000Y-130442580D01*
X179068000Y-130161420D02*
X179068000Y-130442580D01*
%TO.C,C46*%
X179437420Y-125220000D02*
X179718580Y-125220000D01*
X179437420Y-126240000D02*
X179718580Y-126240000D01*
%TO.C,C23*%
X151132000Y-111873420D02*
X151132000Y-112154580D01*
X150112000Y-111873420D02*
X150112000Y-112154580D01*
%TO.C,C22*%
X151132000Y-87108420D02*
X151132000Y-87389580D01*
X150112000Y-87108420D02*
X150112000Y-87389580D01*
%TO.C,C21*%
X151016580Y-97665000D02*
X150735420Y-97665000D01*
X151016580Y-96645000D02*
X150735420Y-96645000D01*
%TO.C,C20*%
X150366000Y-135776580D02*
X150366000Y-135495420D01*
X151386000Y-135776580D02*
X151386000Y-135495420D01*
%TO.C,C19*%
X151016580Y-122049000D02*
X150735420Y-122049000D01*
X151016580Y-121029000D02*
X150735420Y-121029000D01*
%TO.C,C16*%
X168134420Y-98042000D02*
X168415580Y-98042000D01*
X168134420Y-99062000D02*
X168415580Y-99062000D01*
%TO.C,C15*%
X150112000Y-105396420D02*
X150112000Y-105677580D01*
X151132000Y-105396420D02*
X151132000Y-105677580D01*
%TO.C,C14*%
X151132000Y-130034420D02*
X151132000Y-130315580D01*
X150112000Y-130034420D02*
X150112000Y-130315580D01*
%TO.C,C11*%
X189370580Y-117350000D02*
X189089420Y-117350000D01*
X189370580Y-116330000D02*
X189089420Y-116330000D01*
%TO.C,C10*%
X189370580Y-115826000D02*
X189089420Y-115826000D01*
X189370580Y-114806000D02*
X189089420Y-114806000D01*
%TO.C,C9*%
X189370580Y-118874000D02*
X189089420Y-118874000D01*
X189370580Y-117854000D02*
X189089420Y-117854000D01*
%TO.C,C8*%
X183734000Y-103352000D02*
X175674000Y-103352000D01*
X183734000Y-98832000D02*
X183734000Y-103352000D01*
X175674000Y-98832000D02*
X183734000Y-98832000D01*
%TO.C,C7*%
X189089420Y-113282000D02*
X189370580Y-113282000D01*
X189089420Y-114302000D02*
X189370580Y-114302000D01*
%TO.C,C6*%
X189089420Y-111758000D02*
X189370580Y-111758000D01*
X189089420Y-112778000D02*
X189370580Y-112778000D01*
%TO.C,C5*%
X191006000Y-104280580D02*
X191006000Y-103999420D01*
X192026000Y-104280580D02*
X192026000Y-103999420D01*
%TO.C,C4*%
X187846580Y-106936000D02*
X187565420Y-106936000D01*
X187846580Y-105916000D02*
X187565420Y-105916000D01*
%TO.C,C3*%
X187846580Y-108460000D02*
X187565420Y-108460000D01*
X187846580Y-107440000D02*
X187565420Y-107440000D01*
%TO.C,C2*%
X177151420Y-110742000D02*
X177432580Y-110742000D01*
X177151420Y-111762000D02*
X177432580Y-111762000D01*
%TO.C,C1*%
X187833580Y-105412000D02*
X187552420Y-105412000D01*
X187833580Y-104392000D02*
X187552420Y-104392000D01*
%TO.C,C29*%
D11*
X118161571Y-126170571D02*
X118185380Y-126146761D01*
X118209190Y-126075333D01*
X118209190Y-126027714D01*
X118185380Y-125956285D01*
X118137761Y-125908666D01*
X118090142Y-125884857D01*
X117994904Y-125861047D01*
X117923476Y-125861047D01*
X117828238Y-125884857D01*
X117780619Y-125908666D01*
X117733000Y-125956285D01*
X117709190Y-126027714D01*
X117709190Y-126075333D01*
X117733000Y-126146761D01*
X117756809Y-126170571D01*
X117756809Y-126361047D02*
X117733000Y-126384857D01*
X117709190Y-126432476D01*
X117709190Y-126551523D01*
X117733000Y-126599142D01*
X117756809Y-126622952D01*
X117804428Y-126646761D01*
X117852047Y-126646761D01*
X117923476Y-126622952D01*
X118209190Y-126337238D01*
X118209190Y-126646761D01*
X118209190Y-126884857D02*
X118209190Y-126980095D01*
X118185380Y-127027714D01*
X118161571Y-127051523D01*
X118090142Y-127099142D01*
X117994904Y-127122952D01*
X117804428Y-127122952D01*
X117756809Y-127099142D01*
X117733000Y-127075333D01*
X117709190Y-127027714D01*
X117709190Y-126932476D01*
X117733000Y-126884857D01*
X117756809Y-126861047D01*
X117804428Y-126837238D01*
X117923476Y-126837238D01*
X117971095Y-126861047D01*
X117994904Y-126884857D01*
X118018714Y-126932476D01*
X118018714Y-127027714D01*
X117994904Y-127075333D01*
X117971095Y-127099142D01*
X117923476Y-127122952D01*
%TO.C,C28*%
X118161571Y-93150571D02*
X118185380Y-93126761D01*
X118209190Y-93055333D01*
X118209190Y-93007714D01*
X118185380Y-92936285D01*
X118137761Y-92888666D01*
X118090142Y-92864857D01*
X117994904Y-92841047D01*
X117923476Y-92841047D01*
X117828238Y-92864857D01*
X117780619Y-92888666D01*
X117733000Y-92936285D01*
X117709190Y-93007714D01*
X117709190Y-93055333D01*
X117733000Y-93126761D01*
X117756809Y-93150571D01*
X117756809Y-93341047D02*
X117733000Y-93364857D01*
X117709190Y-93412476D01*
X117709190Y-93531523D01*
X117733000Y-93579142D01*
X117756809Y-93602952D01*
X117804428Y-93626761D01*
X117852047Y-93626761D01*
X117923476Y-93602952D01*
X118209190Y-93317238D01*
X118209190Y-93626761D01*
X117923476Y-93912476D02*
X117899666Y-93864857D01*
X117875857Y-93841047D01*
X117828238Y-93817238D01*
X117804428Y-93817238D01*
X117756809Y-93841047D01*
X117733000Y-93864857D01*
X117709190Y-93912476D01*
X117709190Y-94007714D01*
X117733000Y-94055333D01*
X117756809Y-94079142D01*
X117804428Y-94102952D01*
X117828238Y-94102952D01*
X117875857Y-94079142D01*
X117899666Y-94055333D01*
X117923476Y-94007714D01*
X117923476Y-93912476D01*
X117947285Y-93864857D01*
X117971095Y-93841047D01*
X118018714Y-93817238D01*
X118113952Y-93817238D01*
X118161571Y-93841047D01*
X118185380Y-93864857D01*
X118209190Y-93912476D01*
X118209190Y-94007714D01*
X118185380Y-94055333D01*
X118161571Y-94079142D01*
X118113952Y-94102952D01*
X118018714Y-94102952D01*
X117971095Y-94079142D01*
X117947285Y-94055333D01*
X117923476Y-94007714D01*
%TO.C,C17*%
X118161571Y-109660571D02*
X118185380Y-109636761D01*
X118209190Y-109565333D01*
X118209190Y-109517714D01*
X118185380Y-109446285D01*
X118137761Y-109398666D01*
X118090142Y-109374857D01*
X117994904Y-109351047D01*
X117923476Y-109351047D01*
X117828238Y-109374857D01*
X117780619Y-109398666D01*
X117733000Y-109446285D01*
X117709190Y-109517714D01*
X117709190Y-109565333D01*
X117733000Y-109636761D01*
X117756809Y-109660571D01*
X118209190Y-110136761D02*
X118209190Y-109851047D01*
X118209190Y-109993904D02*
X117709190Y-109993904D01*
X117780619Y-109946285D01*
X117828238Y-109898666D01*
X117852047Y-109851047D01*
X117709190Y-110303428D02*
X117709190Y-110636761D01*
X118209190Y-110422476D01*
%TO.C,R80*%
X168850428Y-138656190D02*
X169017095Y-138418095D01*
X169136142Y-138656190D02*
X169136142Y-138156190D01*
X168945666Y-138156190D01*
X168898047Y-138180000D01*
X168874238Y-138203809D01*
X168850428Y-138251428D01*
X168850428Y-138322857D01*
X168874238Y-138370476D01*
X168898047Y-138394285D01*
X168945666Y-138418095D01*
X169136142Y-138418095D01*
X168564714Y-138370476D02*
X168612333Y-138346666D01*
X168636142Y-138322857D01*
X168659952Y-138275238D01*
X168659952Y-138251428D01*
X168636142Y-138203809D01*
X168612333Y-138180000D01*
X168564714Y-138156190D01*
X168469476Y-138156190D01*
X168421857Y-138180000D01*
X168398047Y-138203809D01*
X168374238Y-138251428D01*
X168374238Y-138275238D01*
X168398047Y-138322857D01*
X168421857Y-138346666D01*
X168469476Y-138370476D01*
X168564714Y-138370476D01*
X168612333Y-138394285D01*
X168636142Y-138418095D01*
X168659952Y-138465714D01*
X168659952Y-138560952D01*
X168636142Y-138608571D01*
X168612333Y-138632380D01*
X168564714Y-138656190D01*
X168469476Y-138656190D01*
X168421857Y-138632380D01*
X168398047Y-138608571D01*
X168374238Y-138560952D01*
X168374238Y-138465714D01*
X168398047Y-138418095D01*
X168421857Y-138394285D01*
X168469476Y-138370476D01*
X168064714Y-138156190D02*
X168017095Y-138156190D01*
X167969476Y-138180000D01*
X167945666Y-138203809D01*
X167921857Y-138251428D01*
X167898047Y-138346666D01*
X167898047Y-138465714D01*
X167921857Y-138560952D01*
X167945666Y-138608571D01*
X167969476Y-138632380D01*
X168017095Y-138656190D01*
X168064714Y-138656190D01*
X168112333Y-138632380D01*
X168136142Y-138608571D01*
X168159952Y-138560952D01*
X168183761Y-138465714D01*
X168183761Y-138346666D01*
X168159952Y-138251428D01*
X168136142Y-138203809D01*
X168112333Y-138180000D01*
X168064714Y-138156190D01*
%TO.C,R78*%
X168850428Y-131544190D02*
X169017095Y-131306095D01*
X169136142Y-131544190D02*
X169136142Y-131044190D01*
X168945666Y-131044190D01*
X168898047Y-131068000D01*
X168874238Y-131091809D01*
X168850428Y-131139428D01*
X168850428Y-131210857D01*
X168874238Y-131258476D01*
X168898047Y-131282285D01*
X168945666Y-131306095D01*
X169136142Y-131306095D01*
X168683761Y-131044190D02*
X168350428Y-131044190D01*
X168564714Y-131544190D01*
X168088523Y-131258476D02*
X168136142Y-131234666D01*
X168159952Y-131210857D01*
X168183761Y-131163238D01*
X168183761Y-131139428D01*
X168159952Y-131091809D01*
X168136142Y-131068000D01*
X168088523Y-131044190D01*
X167993285Y-131044190D01*
X167945666Y-131068000D01*
X167921857Y-131091809D01*
X167898047Y-131139428D01*
X167898047Y-131163238D01*
X167921857Y-131210857D01*
X167945666Y-131234666D01*
X167993285Y-131258476D01*
X168088523Y-131258476D01*
X168136142Y-131282285D01*
X168159952Y-131306095D01*
X168183761Y-131353714D01*
X168183761Y-131448952D01*
X168159952Y-131496571D01*
X168136142Y-131520380D01*
X168088523Y-131544190D01*
X167993285Y-131544190D01*
X167945666Y-131520380D01*
X167921857Y-131496571D01*
X167898047Y-131448952D01*
X167898047Y-131353714D01*
X167921857Y-131306095D01*
X167945666Y-131282285D01*
X167993285Y-131258476D01*
%TO.C,R77*%
X172406428Y-138656190D02*
X172573095Y-138418095D01*
X172692142Y-138656190D02*
X172692142Y-138156190D01*
X172501666Y-138156190D01*
X172454047Y-138180000D01*
X172430238Y-138203809D01*
X172406428Y-138251428D01*
X172406428Y-138322857D01*
X172430238Y-138370476D01*
X172454047Y-138394285D01*
X172501666Y-138418095D01*
X172692142Y-138418095D01*
X172239761Y-138156190D02*
X171906428Y-138156190D01*
X172120714Y-138656190D01*
X171763571Y-138156190D02*
X171430238Y-138156190D01*
X171644523Y-138656190D01*
%TO.C,R76*%
X172406428Y-131544190D02*
X172573095Y-131306095D01*
X172692142Y-131544190D02*
X172692142Y-131044190D01*
X172501666Y-131044190D01*
X172454047Y-131068000D01*
X172430238Y-131091809D01*
X172406428Y-131139428D01*
X172406428Y-131210857D01*
X172430238Y-131258476D01*
X172454047Y-131282285D01*
X172501666Y-131306095D01*
X172692142Y-131306095D01*
X172239761Y-131044190D02*
X171906428Y-131044190D01*
X172120714Y-131544190D01*
X171501666Y-131044190D02*
X171596904Y-131044190D01*
X171644523Y-131068000D01*
X171668333Y-131091809D01*
X171715952Y-131163238D01*
X171739761Y-131258476D01*
X171739761Y-131448952D01*
X171715952Y-131496571D01*
X171692142Y-131520380D01*
X171644523Y-131544190D01*
X171549285Y-131544190D01*
X171501666Y-131520380D01*
X171477857Y-131496571D01*
X171454047Y-131448952D01*
X171454047Y-131329904D01*
X171477857Y-131282285D01*
X171501666Y-131258476D01*
X171549285Y-131234666D01*
X171644523Y-131234666D01*
X171692142Y-131258476D01*
X171715952Y-131282285D01*
X171739761Y-131329904D01*
%TO.C,R75*%
X175962428Y-138656190D02*
X176129095Y-138418095D01*
X176248142Y-138656190D02*
X176248142Y-138156190D01*
X176057666Y-138156190D01*
X176010047Y-138180000D01*
X175986238Y-138203809D01*
X175962428Y-138251428D01*
X175962428Y-138322857D01*
X175986238Y-138370476D01*
X176010047Y-138394285D01*
X176057666Y-138418095D01*
X176248142Y-138418095D01*
X175795761Y-138156190D02*
X175462428Y-138156190D01*
X175676714Y-138656190D01*
X175033857Y-138156190D02*
X175271952Y-138156190D01*
X175295761Y-138394285D01*
X175271952Y-138370476D01*
X175224333Y-138346666D01*
X175105285Y-138346666D01*
X175057666Y-138370476D01*
X175033857Y-138394285D01*
X175010047Y-138441904D01*
X175010047Y-138560952D01*
X175033857Y-138608571D01*
X175057666Y-138632380D01*
X175105285Y-138656190D01*
X175224333Y-138656190D01*
X175271952Y-138632380D01*
X175295761Y-138608571D01*
%TO.C,R74*%
X175962428Y-131544190D02*
X176129095Y-131306095D01*
X176248142Y-131544190D02*
X176248142Y-131044190D01*
X176057666Y-131044190D01*
X176010047Y-131068000D01*
X175986238Y-131091809D01*
X175962428Y-131139428D01*
X175962428Y-131210857D01*
X175986238Y-131258476D01*
X176010047Y-131282285D01*
X176057666Y-131306095D01*
X176248142Y-131306095D01*
X175795761Y-131044190D02*
X175462428Y-131044190D01*
X175676714Y-131544190D01*
X175057666Y-131210857D02*
X175057666Y-131544190D01*
X175176714Y-131020380D02*
X175295761Y-131377523D01*
X174986238Y-131377523D01*
%TO.C,R73*%
X120114190Y-119185571D02*
X119876095Y-119018904D01*
X120114190Y-118899857D02*
X119614190Y-118899857D01*
X119614190Y-119090333D01*
X119638000Y-119137952D01*
X119661809Y-119161761D01*
X119709428Y-119185571D01*
X119780857Y-119185571D01*
X119828476Y-119161761D01*
X119852285Y-119137952D01*
X119876095Y-119090333D01*
X119876095Y-118899857D01*
X119614190Y-119352238D02*
X119614190Y-119685571D01*
X120114190Y-119471285D01*
X119614190Y-119828428D02*
X119614190Y-120137952D01*
X119804666Y-119971285D01*
X119804666Y-120042714D01*
X119828476Y-120090333D01*
X119852285Y-120114142D01*
X119899904Y-120137952D01*
X120018952Y-120137952D01*
X120066571Y-120114142D01*
X120090380Y-120090333D01*
X120114190Y-120042714D01*
X120114190Y-119899857D01*
X120090380Y-119852238D01*
X120066571Y-119828428D01*
%TO.C,R72*%
X120114190Y-102675571D02*
X119876095Y-102508904D01*
X120114190Y-102389857D02*
X119614190Y-102389857D01*
X119614190Y-102580333D01*
X119638000Y-102627952D01*
X119661809Y-102651761D01*
X119709428Y-102675571D01*
X119780857Y-102675571D01*
X119828476Y-102651761D01*
X119852285Y-102627952D01*
X119876095Y-102580333D01*
X119876095Y-102389857D01*
X119614190Y-102842238D02*
X119614190Y-103175571D01*
X120114190Y-102961285D01*
X119661809Y-103342238D02*
X119638000Y-103366047D01*
X119614190Y-103413666D01*
X119614190Y-103532714D01*
X119638000Y-103580333D01*
X119661809Y-103604142D01*
X119709428Y-103627952D01*
X119757047Y-103627952D01*
X119828476Y-103604142D01*
X120114190Y-103318428D01*
X120114190Y-103627952D01*
%TO.C,R71*%
X120114190Y-86165571D02*
X119876095Y-85998904D01*
X120114190Y-85879857D02*
X119614190Y-85879857D01*
X119614190Y-86070333D01*
X119638000Y-86117952D01*
X119661809Y-86141761D01*
X119709428Y-86165571D01*
X119780857Y-86165571D01*
X119828476Y-86141761D01*
X119852285Y-86117952D01*
X119876095Y-86070333D01*
X119876095Y-85879857D01*
X119614190Y-86332238D02*
X119614190Y-86665571D01*
X120114190Y-86451285D01*
X120114190Y-87117952D02*
X120114190Y-86832238D01*
X120114190Y-86975095D02*
X119614190Y-86975095D01*
X119685619Y-86927476D01*
X119733238Y-86879857D01*
X119757047Y-86832238D01*
%TO.C,R3*%
X175613190Y-109644666D02*
X175375095Y-109478000D01*
X175613190Y-109358952D02*
X175113190Y-109358952D01*
X175113190Y-109549428D01*
X175137000Y-109597047D01*
X175160809Y-109620857D01*
X175208428Y-109644666D01*
X175279857Y-109644666D01*
X175327476Y-109620857D01*
X175351285Y-109597047D01*
X175375095Y-109549428D01*
X175375095Y-109358952D01*
X175113190Y-109811333D02*
X175113190Y-110120857D01*
X175303666Y-109954190D01*
X175303666Y-110025619D01*
X175327476Y-110073238D01*
X175351285Y-110097047D01*
X175398904Y-110120857D01*
X175517952Y-110120857D01*
X175565571Y-110097047D01*
X175589380Y-110073238D01*
X175613190Y-110025619D01*
X175613190Y-109882761D01*
X175589380Y-109835142D01*
X175565571Y-109811333D01*
%TO.C,R2*%
X184741333Y-118463190D02*
X184908000Y-118225095D01*
X185027047Y-118463190D02*
X185027047Y-117963190D01*
X184836571Y-117963190D01*
X184788952Y-117987000D01*
X184765142Y-118010809D01*
X184741333Y-118058428D01*
X184741333Y-118129857D01*
X184765142Y-118177476D01*
X184788952Y-118201285D01*
X184836571Y-118225095D01*
X185027047Y-118225095D01*
X184550857Y-118010809D02*
X184527047Y-117987000D01*
X184479428Y-117963190D01*
X184360380Y-117963190D01*
X184312761Y-117987000D01*
X184288952Y-118010809D01*
X184265142Y-118058428D01*
X184265142Y-118106047D01*
X184288952Y-118177476D01*
X184574666Y-118463190D01*
X184265142Y-118463190D01*
%TO.C,R1*%
X183217333Y-118463190D02*
X183384000Y-118225095D01*
X183503047Y-118463190D02*
X183503047Y-117963190D01*
X183312571Y-117963190D01*
X183264952Y-117987000D01*
X183241142Y-118010809D01*
X183217333Y-118058428D01*
X183217333Y-118129857D01*
X183241142Y-118177476D01*
X183264952Y-118201285D01*
X183312571Y-118225095D01*
X183503047Y-118225095D01*
X182741142Y-118463190D02*
X183026857Y-118463190D01*
X182884000Y-118463190D02*
X182884000Y-117963190D01*
X182931619Y-118034619D01*
X182979238Y-118082238D01*
X183026857Y-118106047D01*
%TO.C,Q3*%
X167433619Y-136417809D02*
X167481238Y-136394000D01*
X167528857Y-136346380D01*
X167600285Y-136274952D01*
X167647904Y-136251142D01*
X167695523Y-136251142D01*
X167671714Y-136370190D02*
X167719333Y-136346380D01*
X167766952Y-136298761D01*
X167790761Y-136203523D01*
X167790761Y-136036857D01*
X167766952Y-135941619D01*
X167719333Y-135894000D01*
X167671714Y-135870190D01*
X167576476Y-135870190D01*
X167528857Y-135894000D01*
X167481238Y-135941619D01*
X167457428Y-136036857D01*
X167457428Y-136203523D01*
X167481238Y-136298761D01*
X167528857Y-136346380D01*
X167576476Y-136370190D01*
X167671714Y-136370190D01*
X167290761Y-135870190D02*
X166981238Y-135870190D01*
X167147904Y-136060666D01*
X167076476Y-136060666D01*
X167028857Y-136084476D01*
X167005047Y-136108285D01*
X166981238Y-136155904D01*
X166981238Y-136274952D01*
X167005047Y-136322571D01*
X167028857Y-136346380D01*
X167076476Y-136370190D01*
X167219333Y-136370190D01*
X167266952Y-136346380D01*
X167290761Y-136322571D01*
%TO.C,Q2*%
X170989619Y-136417809D02*
X171037238Y-136394000D01*
X171084857Y-136346380D01*
X171156285Y-136274952D01*
X171203904Y-136251142D01*
X171251523Y-136251142D01*
X171227714Y-136370190D02*
X171275333Y-136346380D01*
X171322952Y-136298761D01*
X171346761Y-136203523D01*
X171346761Y-136036857D01*
X171322952Y-135941619D01*
X171275333Y-135894000D01*
X171227714Y-135870190D01*
X171132476Y-135870190D01*
X171084857Y-135894000D01*
X171037238Y-135941619D01*
X171013428Y-136036857D01*
X171013428Y-136203523D01*
X171037238Y-136298761D01*
X171084857Y-136346380D01*
X171132476Y-136370190D01*
X171227714Y-136370190D01*
X170822952Y-135917809D02*
X170799142Y-135894000D01*
X170751523Y-135870190D01*
X170632476Y-135870190D01*
X170584857Y-135894000D01*
X170561047Y-135917809D01*
X170537238Y-135965428D01*
X170537238Y-136013047D01*
X170561047Y-136084476D01*
X170846761Y-136370190D01*
X170537238Y-136370190D01*
%TO.C,Q1*%
X174545619Y-136417809D02*
X174593238Y-136394000D01*
X174640857Y-136346380D01*
X174712285Y-136274952D01*
X174759904Y-136251142D01*
X174807523Y-136251142D01*
X174783714Y-136370190D02*
X174831333Y-136346380D01*
X174878952Y-136298761D01*
X174902761Y-136203523D01*
X174902761Y-136036857D01*
X174878952Y-135941619D01*
X174831333Y-135894000D01*
X174783714Y-135870190D01*
X174688476Y-135870190D01*
X174640857Y-135894000D01*
X174593238Y-135941619D01*
X174569428Y-136036857D01*
X174569428Y-136203523D01*
X174593238Y-136298761D01*
X174640857Y-136346380D01*
X174688476Y-136370190D01*
X174783714Y-136370190D01*
X174093238Y-136370190D02*
X174378952Y-136370190D01*
X174236095Y-136370190D02*
X174236095Y-135870190D01*
X174283714Y-135941619D01*
X174331333Y-135989238D01*
X174378952Y-136013047D01*
%TO.C,C110*%
X164389523Y-80061571D02*
X164413333Y-80085380D01*
X164484761Y-80109190D01*
X164532380Y-80109190D01*
X164603809Y-80085380D01*
X164651428Y-80037761D01*
X164675238Y-79990142D01*
X164699047Y-79894904D01*
X164699047Y-79823476D01*
X164675238Y-79728238D01*
X164651428Y-79680619D01*
X164603809Y-79633000D01*
X164532380Y-79609190D01*
X164484761Y-79609190D01*
X164413333Y-79633000D01*
X164389523Y-79656809D01*
X163913333Y-80109190D02*
X164199047Y-80109190D01*
X164056190Y-80109190D02*
X164056190Y-79609190D01*
X164103809Y-79680619D01*
X164151428Y-79728238D01*
X164199047Y-79752047D01*
X163437142Y-80109190D02*
X163722857Y-80109190D01*
X163580000Y-80109190D02*
X163580000Y-79609190D01*
X163627619Y-79680619D01*
X163675238Y-79728238D01*
X163722857Y-79752047D01*
X163127619Y-79609190D02*
X163080000Y-79609190D01*
X163032380Y-79633000D01*
X163008571Y-79656809D01*
X162984761Y-79704428D01*
X162960952Y-79799666D01*
X162960952Y-79918714D01*
X162984761Y-80013952D01*
X163008571Y-80061571D01*
X163032380Y-80085380D01*
X163080000Y-80109190D01*
X163127619Y-80109190D01*
X163175238Y-80085380D01*
X163199047Y-80061571D01*
X163222857Y-80013952D01*
X163246666Y-79918714D01*
X163246666Y-79799666D01*
X163222857Y-79704428D01*
X163199047Y-79656809D01*
X163175238Y-79633000D01*
X163127619Y-79609190D01*
%TO.C,C109*%
X172263571Y-77545476D02*
X172287380Y-77521666D01*
X172311190Y-77450238D01*
X172311190Y-77402619D01*
X172287380Y-77331190D01*
X172239761Y-77283571D01*
X172192142Y-77259761D01*
X172096904Y-77235952D01*
X172025476Y-77235952D01*
X171930238Y-77259761D01*
X171882619Y-77283571D01*
X171835000Y-77331190D01*
X171811190Y-77402619D01*
X171811190Y-77450238D01*
X171835000Y-77521666D01*
X171858809Y-77545476D01*
X172311190Y-78021666D02*
X172311190Y-77735952D01*
X172311190Y-77878809D02*
X171811190Y-77878809D01*
X171882619Y-77831190D01*
X171930238Y-77783571D01*
X171954047Y-77735952D01*
X171811190Y-78331190D02*
X171811190Y-78378809D01*
X171835000Y-78426428D01*
X171858809Y-78450238D01*
X171906428Y-78474047D01*
X172001666Y-78497857D01*
X172120714Y-78497857D01*
X172215952Y-78474047D01*
X172263571Y-78450238D01*
X172287380Y-78426428D01*
X172311190Y-78378809D01*
X172311190Y-78331190D01*
X172287380Y-78283571D01*
X172263571Y-78259761D01*
X172215952Y-78235952D01*
X172120714Y-78212142D01*
X172001666Y-78212142D01*
X171906428Y-78235952D01*
X171858809Y-78259761D01*
X171835000Y-78283571D01*
X171811190Y-78331190D01*
X172311190Y-78735952D02*
X172311190Y-78831190D01*
X172287380Y-78878809D01*
X172263571Y-78902619D01*
X172192142Y-78950238D01*
X172096904Y-78974047D01*
X171906428Y-78974047D01*
X171858809Y-78950238D01*
X171835000Y-78926428D01*
X171811190Y-78878809D01*
X171811190Y-78783571D01*
X171835000Y-78735952D01*
X171858809Y-78712142D01*
X171906428Y-78688333D01*
X172025476Y-78688333D01*
X172073095Y-78712142D01*
X172096904Y-78735952D01*
X172120714Y-78783571D01*
X172120714Y-78878809D01*
X172096904Y-78926428D01*
X172073095Y-78950238D01*
X172025476Y-78974047D01*
%TO.C,C108*%
X167945523Y-86030571D02*
X167969333Y-86054380D01*
X168040761Y-86078190D01*
X168088380Y-86078190D01*
X168159809Y-86054380D01*
X168207428Y-86006761D01*
X168231238Y-85959142D01*
X168255047Y-85863904D01*
X168255047Y-85792476D01*
X168231238Y-85697238D01*
X168207428Y-85649619D01*
X168159809Y-85602000D01*
X168088380Y-85578190D01*
X168040761Y-85578190D01*
X167969333Y-85602000D01*
X167945523Y-85625809D01*
X167469333Y-86078190D02*
X167755047Y-86078190D01*
X167612190Y-86078190D02*
X167612190Y-85578190D01*
X167659809Y-85649619D01*
X167707428Y-85697238D01*
X167755047Y-85721047D01*
X167159809Y-85578190D02*
X167112190Y-85578190D01*
X167064571Y-85602000D01*
X167040761Y-85625809D01*
X167016952Y-85673428D01*
X166993142Y-85768666D01*
X166993142Y-85887714D01*
X167016952Y-85982952D01*
X167040761Y-86030571D01*
X167064571Y-86054380D01*
X167112190Y-86078190D01*
X167159809Y-86078190D01*
X167207428Y-86054380D01*
X167231238Y-86030571D01*
X167255047Y-85982952D01*
X167278857Y-85887714D01*
X167278857Y-85768666D01*
X167255047Y-85673428D01*
X167231238Y-85625809D01*
X167207428Y-85602000D01*
X167159809Y-85578190D01*
X166707428Y-85792476D02*
X166755047Y-85768666D01*
X166778857Y-85744857D01*
X166802666Y-85697238D01*
X166802666Y-85673428D01*
X166778857Y-85625809D01*
X166755047Y-85602000D01*
X166707428Y-85578190D01*
X166612190Y-85578190D01*
X166564571Y-85602000D01*
X166540761Y-85625809D01*
X166516952Y-85673428D01*
X166516952Y-85697238D01*
X166540761Y-85744857D01*
X166564571Y-85768666D01*
X166612190Y-85792476D01*
X166707428Y-85792476D01*
X166755047Y-85816285D01*
X166778857Y-85840095D01*
X166802666Y-85887714D01*
X166802666Y-85982952D01*
X166778857Y-86030571D01*
X166755047Y-86054380D01*
X166707428Y-86078190D01*
X166612190Y-86078190D01*
X166564571Y-86054380D01*
X166540761Y-86030571D01*
X166516952Y-85982952D01*
X166516952Y-85887714D01*
X166540761Y-85840095D01*
X166564571Y-85816285D01*
X166612190Y-85792476D01*
%TO.C,C107*%
X129337571Y-77545476D02*
X129361380Y-77521666D01*
X129385190Y-77450238D01*
X129385190Y-77402619D01*
X129361380Y-77331190D01*
X129313761Y-77283571D01*
X129266142Y-77259761D01*
X129170904Y-77235952D01*
X129099476Y-77235952D01*
X129004238Y-77259761D01*
X128956619Y-77283571D01*
X128909000Y-77331190D01*
X128885190Y-77402619D01*
X128885190Y-77450238D01*
X128909000Y-77521666D01*
X128932809Y-77545476D01*
X129385190Y-78021666D02*
X129385190Y-77735952D01*
X129385190Y-77878809D02*
X128885190Y-77878809D01*
X128956619Y-77831190D01*
X129004238Y-77783571D01*
X129028047Y-77735952D01*
X128885190Y-78331190D02*
X128885190Y-78378809D01*
X128909000Y-78426428D01*
X128932809Y-78450238D01*
X128980428Y-78474047D01*
X129075666Y-78497857D01*
X129194714Y-78497857D01*
X129289952Y-78474047D01*
X129337571Y-78450238D01*
X129361380Y-78426428D01*
X129385190Y-78378809D01*
X129385190Y-78331190D01*
X129361380Y-78283571D01*
X129337571Y-78259761D01*
X129289952Y-78235952D01*
X129194714Y-78212142D01*
X129075666Y-78212142D01*
X128980428Y-78235952D01*
X128932809Y-78259761D01*
X128909000Y-78283571D01*
X128885190Y-78331190D01*
X128885190Y-78664523D02*
X128885190Y-78997857D01*
X129385190Y-78783571D01*
%TO.C,C106*%
X138608571Y-77545476D02*
X138632380Y-77521666D01*
X138656190Y-77450238D01*
X138656190Y-77402619D01*
X138632380Y-77331190D01*
X138584761Y-77283571D01*
X138537142Y-77259761D01*
X138441904Y-77235952D01*
X138370476Y-77235952D01*
X138275238Y-77259761D01*
X138227619Y-77283571D01*
X138180000Y-77331190D01*
X138156190Y-77402619D01*
X138156190Y-77450238D01*
X138180000Y-77521666D01*
X138203809Y-77545476D01*
X138656190Y-78021666D02*
X138656190Y-77735952D01*
X138656190Y-77878809D02*
X138156190Y-77878809D01*
X138227619Y-77831190D01*
X138275238Y-77783571D01*
X138299047Y-77735952D01*
X138156190Y-78331190D02*
X138156190Y-78378809D01*
X138180000Y-78426428D01*
X138203809Y-78450238D01*
X138251428Y-78474047D01*
X138346666Y-78497857D01*
X138465714Y-78497857D01*
X138560952Y-78474047D01*
X138608571Y-78450238D01*
X138632380Y-78426428D01*
X138656190Y-78378809D01*
X138656190Y-78331190D01*
X138632380Y-78283571D01*
X138608571Y-78259761D01*
X138560952Y-78235952D01*
X138465714Y-78212142D01*
X138346666Y-78212142D01*
X138251428Y-78235952D01*
X138203809Y-78259761D01*
X138180000Y-78283571D01*
X138156190Y-78331190D01*
X138156190Y-78926428D02*
X138156190Y-78831190D01*
X138180000Y-78783571D01*
X138203809Y-78759761D01*
X138275238Y-78712142D01*
X138370476Y-78688333D01*
X138560952Y-78688333D01*
X138608571Y-78712142D01*
X138632380Y-78735952D01*
X138656190Y-78783571D01*
X138656190Y-78878809D01*
X138632380Y-78926428D01*
X138608571Y-78950238D01*
X138560952Y-78974047D01*
X138441904Y-78974047D01*
X138394285Y-78950238D01*
X138370476Y-78926428D01*
X138346666Y-78878809D01*
X138346666Y-78783571D01*
X138370476Y-78735952D01*
X138394285Y-78712142D01*
X138441904Y-78688333D01*
%TO.C,C105*%
X130936571Y-80466476D02*
X130960380Y-80442666D01*
X130984190Y-80371238D01*
X130984190Y-80323619D01*
X130960380Y-80252190D01*
X130912761Y-80204571D01*
X130865142Y-80180761D01*
X130769904Y-80156952D01*
X130698476Y-80156952D01*
X130603238Y-80180761D01*
X130555619Y-80204571D01*
X130508000Y-80252190D01*
X130484190Y-80323619D01*
X130484190Y-80371238D01*
X130508000Y-80442666D01*
X130531809Y-80466476D01*
X130984190Y-80942666D02*
X130984190Y-80656952D01*
X130984190Y-80799809D02*
X130484190Y-80799809D01*
X130555619Y-80752190D01*
X130603238Y-80704571D01*
X130627047Y-80656952D01*
X130484190Y-81252190D02*
X130484190Y-81299809D01*
X130508000Y-81347428D01*
X130531809Y-81371238D01*
X130579428Y-81395047D01*
X130674666Y-81418857D01*
X130793714Y-81418857D01*
X130888952Y-81395047D01*
X130936571Y-81371238D01*
X130960380Y-81347428D01*
X130984190Y-81299809D01*
X130984190Y-81252190D01*
X130960380Y-81204571D01*
X130936571Y-81180761D01*
X130888952Y-81156952D01*
X130793714Y-81133142D01*
X130674666Y-81133142D01*
X130579428Y-81156952D01*
X130531809Y-81180761D01*
X130508000Y-81204571D01*
X130484190Y-81252190D01*
X130484190Y-81871238D02*
X130484190Y-81633142D01*
X130722285Y-81609333D01*
X130698476Y-81633142D01*
X130674666Y-81680761D01*
X130674666Y-81799809D01*
X130698476Y-81847428D01*
X130722285Y-81871238D01*
X130769904Y-81895047D01*
X130888952Y-81895047D01*
X130936571Y-81871238D01*
X130960380Y-81847428D01*
X130984190Y-81799809D01*
X130984190Y-81680761D01*
X130960380Y-81633142D01*
X130936571Y-81609333D01*
%TO.C,C104*%
X165913523Y-138354571D02*
X165937333Y-138378380D01*
X166008761Y-138402190D01*
X166056380Y-138402190D01*
X166127809Y-138378380D01*
X166175428Y-138330761D01*
X166199238Y-138283142D01*
X166223047Y-138187904D01*
X166223047Y-138116476D01*
X166199238Y-138021238D01*
X166175428Y-137973619D01*
X166127809Y-137926000D01*
X166056380Y-137902190D01*
X166008761Y-137902190D01*
X165937333Y-137926000D01*
X165913523Y-137949809D01*
X165437333Y-138402190D02*
X165723047Y-138402190D01*
X165580190Y-138402190D02*
X165580190Y-137902190D01*
X165627809Y-137973619D01*
X165675428Y-138021238D01*
X165723047Y-138045047D01*
X165127809Y-137902190D02*
X165080190Y-137902190D01*
X165032571Y-137926000D01*
X165008761Y-137949809D01*
X164984952Y-137997428D01*
X164961142Y-138092666D01*
X164961142Y-138211714D01*
X164984952Y-138306952D01*
X165008761Y-138354571D01*
X165032571Y-138378380D01*
X165080190Y-138402190D01*
X165127809Y-138402190D01*
X165175428Y-138378380D01*
X165199238Y-138354571D01*
X165223047Y-138306952D01*
X165246857Y-138211714D01*
X165246857Y-138092666D01*
X165223047Y-137997428D01*
X165199238Y-137949809D01*
X165175428Y-137926000D01*
X165127809Y-137902190D01*
X164532571Y-138068857D02*
X164532571Y-138402190D01*
X164651619Y-137878380D02*
X164770666Y-138235523D01*
X164461142Y-138235523D01*
%TO.C,C101*%
X144450571Y-81241476D02*
X144474380Y-81217666D01*
X144498190Y-81146238D01*
X144498190Y-81098619D01*
X144474380Y-81027190D01*
X144426761Y-80979571D01*
X144379142Y-80955761D01*
X144283904Y-80931952D01*
X144212476Y-80931952D01*
X144117238Y-80955761D01*
X144069619Y-80979571D01*
X144022000Y-81027190D01*
X143998190Y-81098619D01*
X143998190Y-81146238D01*
X144022000Y-81217666D01*
X144045809Y-81241476D01*
X144498190Y-81717666D02*
X144498190Y-81431952D01*
X144498190Y-81574809D02*
X143998190Y-81574809D01*
X144069619Y-81527190D01*
X144117238Y-81479571D01*
X144141047Y-81431952D01*
X143998190Y-82027190D02*
X143998190Y-82074809D01*
X144022000Y-82122428D01*
X144045809Y-82146238D01*
X144093428Y-82170047D01*
X144188666Y-82193857D01*
X144307714Y-82193857D01*
X144402952Y-82170047D01*
X144450571Y-82146238D01*
X144474380Y-82122428D01*
X144498190Y-82074809D01*
X144498190Y-82027190D01*
X144474380Y-81979571D01*
X144450571Y-81955761D01*
X144402952Y-81931952D01*
X144307714Y-81908142D01*
X144188666Y-81908142D01*
X144093428Y-81931952D01*
X144045809Y-81955761D01*
X144022000Y-81979571D01*
X143998190Y-82027190D01*
X144498190Y-82670047D02*
X144498190Y-82384333D01*
X144498190Y-82527190D02*
X143998190Y-82527190D01*
X144069619Y-82479571D01*
X144117238Y-82431952D01*
X144141047Y-82384333D01*
%TO.C,C100*%
X140513571Y-81228476D02*
X140537380Y-81204666D01*
X140561190Y-81133238D01*
X140561190Y-81085619D01*
X140537380Y-81014190D01*
X140489761Y-80966571D01*
X140442142Y-80942761D01*
X140346904Y-80918952D01*
X140275476Y-80918952D01*
X140180238Y-80942761D01*
X140132619Y-80966571D01*
X140085000Y-81014190D01*
X140061190Y-81085619D01*
X140061190Y-81133238D01*
X140085000Y-81204666D01*
X140108809Y-81228476D01*
X140561190Y-81704666D02*
X140561190Y-81418952D01*
X140561190Y-81561809D02*
X140061190Y-81561809D01*
X140132619Y-81514190D01*
X140180238Y-81466571D01*
X140204047Y-81418952D01*
X140061190Y-82014190D02*
X140061190Y-82061809D01*
X140085000Y-82109428D01*
X140108809Y-82133238D01*
X140156428Y-82157047D01*
X140251666Y-82180857D01*
X140370714Y-82180857D01*
X140465952Y-82157047D01*
X140513571Y-82133238D01*
X140537380Y-82109428D01*
X140561190Y-82061809D01*
X140561190Y-82014190D01*
X140537380Y-81966571D01*
X140513571Y-81942761D01*
X140465952Y-81918952D01*
X140370714Y-81895142D01*
X140251666Y-81895142D01*
X140156428Y-81918952D01*
X140108809Y-81942761D01*
X140085000Y-81966571D01*
X140061190Y-82014190D01*
X140061190Y-82490380D02*
X140061190Y-82538000D01*
X140085000Y-82585619D01*
X140108809Y-82609428D01*
X140156428Y-82633238D01*
X140251666Y-82657047D01*
X140370714Y-82657047D01*
X140465952Y-82633238D01*
X140513571Y-82609428D01*
X140537380Y-82585619D01*
X140561190Y-82538000D01*
X140561190Y-82490380D01*
X140537380Y-82442761D01*
X140513571Y-82418952D01*
X140465952Y-82395142D01*
X140370714Y-82371333D01*
X140251666Y-82371333D01*
X140156428Y-82395142D01*
X140108809Y-82418952D01*
X140085000Y-82442761D01*
X140061190Y-82490380D01*
%TO.C,C99*%
X136068571Y-109152571D02*
X136092380Y-109128761D01*
X136116190Y-109057333D01*
X136116190Y-109009714D01*
X136092380Y-108938285D01*
X136044761Y-108890666D01*
X135997142Y-108866857D01*
X135901904Y-108843047D01*
X135830476Y-108843047D01*
X135735238Y-108866857D01*
X135687619Y-108890666D01*
X135640000Y-108938285D01*
X135616190Y-109009714D01*
X135616190Y-109057333D01*
X135640000Y-109128761D01*
X135663809Y-109152571D01*
X136116190Y-109390666D02*
X136116190Y-109485904D01*
X136092380Y-109533523D01*
X136068571Y-109557333D01*
X135997142Y-109604952D01*
X135901904Y-109628761D01*
X135711428Y-109628761D01*
X135663809Y-109604952D01*
X135640000Y-109581142D01*
X135616190Y-109533523D01*
X135616190Y-109438285D01*
X135640000Y-109390666D01*
X135663809Y-109366857D01*
X135711428Y-109343047D01*
X135830476Y-109343047D01*
X135878095Y-109366857D01*
X135901904Y-109390666D01*
X135925714Y-109438285D01*
X135925714Y-109533523D01*
X135901904Y-109581142D01*
X135878095Y-109604952D01*
X135830476Y-109628761D01*
X136116190Y-109866857D02*
X136116190Y-109962095D01*
X136092380Y-110009714D01*
X136068571Y-110033523D01*
X135997142Y-110081142D01*
X135901904Y-110104952D01*
X135711428Y-110104952D01*
X135663809Y-110081142D01*
X135640000Y-110057333D01*
X135616190Y-110009714D01*
X135616190Y-109914476D01*
X135640000Y-109866857D01*
X135663809Y-109843047D01*
X135711428Y-109819238D01*
X135830476Y-109819238D01*
X135878095Y-109843047D01*
X135901904Y-109866857D01*
X135925714Y-109914476D01*
X135925714Y-110009714D01*
X135901904Y-110057333D01*
X135878095Y-110081142D01*
X135830476Y-110104952D01*
%TO.C,C97*%
X125019571Y-108771571D02*
X125043380Y-108747761D01*
X125067190Y-108676333D01*
X125067190Y-108628714D01*
X125043380Y-108557285D01*
X124995761Y-108509666D01*
X124948142Y-108485857D01*
X124852904Y-108462047D01*
X124781476Y-108462047D01*
X124686238Y-108485857D01*
X124638619Y-108509666D01*
X124591000Y-108557285D01*
X124567190Y-108628714D01*
X124567190Y-108676333D01*
X124591000Y-108747761D01*
X124614809Y-108771571D01*
X125067190Y-109009666D02*
X125067190Y-109104904D01*
X125043380Y-109152523D01*
X125019571Y-109176333D01*
X124948142Y-109223952D01*
X124852904Y-109247761D01*
X124662428Y-109247761D01*
X124614809Y-109223952D01*
X124591000Y-109200142D01*
X124567190Y-109152523D01*
X124567190Y-109057285D01*
X124591000Y-109009666D01*
X124614809Y-108985857D01*
X124662428Y-108962047D01*
X124781476Y-108962047D01*
X124829095Y-108985857D01*
X124852904Y-109009666D01*
X124876714Y-109057285D01*
X124876714Y-109152523D01*
X124852904Y-109200142D01*
X124829095Y-109223952D01*
X124781476Y-109247761D01*
X124567190Y-109414428D02*
X124567190Y-109747761D01*
X125067190Y-109533476D01*
%TO.C,C96*%
X125019571Y-93658571D02*
X125043380Y-93634761D01*
X125067190Y-93563333D01*
X125067190Y-93515714D01*
X125043380Y-93444285D01*
X124995761Y-93396666D01*
X124948142Y-93372857D01*
X124852904Y-93349047D01*
X124781476Y-93349047D01*
X124686238Y-93372857D01*
X124638619Y-93396666D01*
X124591000Y-93444285D01*
X124567190Y-93515714D01*
X124567190Y-93563333D01*
X124591000Y-93634761D01*
X124614809Y-93658571D01*
X125067190Y-93896666D02*
X125067190Y-93991904D01*
X125043380Y-94039523D01*
X125019571Y-94063333D01*
X124948142Y-94110952D01*
X124852904Y-94134761D01*
X124662428Y-94134761D01*
X124614809Y-94110952D01*
X124591000Y-94087142D01*
X124567190Y-94039523D01*
X124567190Y-93944285D01*
X124591000Y-93896666D01*
X124614809Y-93872857D01*
X124662428Y-93849047D01*
X124781476Y-93849047D01*
X124829095Y-93872857D01*
X124852904Y-93896666D01*
X124876714Y-93944285D01*
X124876714Y-94039523D01*
X124852904Y-94087142D01*
X124829095Y-94110952D01*
X124781476Y-94134761D01*
X124567190Y-94563333D02*
X124567190Y-94468095D01*
X124591000Y-94420476D01*
X124614809Y-94396666D01*
X124686238Y-94349047D01*
X124781476Y-94325238D01*
X124971952Y-94325238D01*
X125019571Y-94349047D01*
X125043380Y-94372857D01*
X125067190Y-94420476D01*
X125067190Y-94515714D01*
X125043380Y-94563333D01*
X125019571Y-94587142D01*
X124971952Y-94610952D01*
X124852904Y-94610952D01*
X124805285Y-94587142D01*
X124781476Y-94563333D01*
X124757666Y-94515714D01*
X124757666Y-94420476D01*
X124781476Y-94372857D01*
X124805285Y-94349047D01*
X124852904Y-94325238D01*
%TO.C,C93*%
X125019571Y-130107571D02*
X125043380Y-130083761D01*
X125067190Y-130012333D01*
X125067190Y-129964714D01*
X125043380Y-129893285D01*
X124995761Y-129845666D01*
X124948142Y-129821857D01*
X124852904Y-129798047D01*
X124781476Y-129798047D01*
X124686238Y-129821857D01*
X124638619Y-129845666D01*
X124591000Y-129893285D01*
X124567190Y-129964714D01*
X124567190Y-130012333D01*
X124591000Y-130083761D01*
X124614809Y-130107571D01*
X125067190Y-130345666D02*
X125067190Y-130440904D01*
X125043380Y-130488523D01*
X125019571Y-130512333D01*
X124948142Y-130559952D01*
X124852904Y-130583761D01*
X124662428Y-130583761D01*
X124614809Y-130559952D01*
X124591000Y-130536142D01*
X124567190Y-130488523D01*
X124567190Y-130393285D01*
X124591000Y-130345666D01*
X124614809Y-130321857D01*
X124662428Y-130298047D01*
X124781476Y-130298047D01*
X124829095Y-130321857D01*
X124852904Y-130345666D01*
X124876714Y-130393285D01*
X124876714Y-130488523D01*
X124852904Y-130536142D01*
X124829095Y-130559952D01*
X124781476Y-130583761D01*
X124567190Y-130750428D02*
X124567190Y-131059952D01*
X124757666Y-130893285D01*
X124757666Y-130964714D01*
X124781476Y-131012333D01*
X124805285Y-131036142D01*
X124852904Y-131059952D01*
X124971952Y-131059952D01*
X125019571Y-131036142D01*
X125043380Y-131012333D01*
X125067190Y-130964714D01*
X125067190Y-130821857D01*
X125043380Y-130774238D01*
X125019571Y-130750428D01*
%TO.C,C92*%
X125019571Y-90483571D02*
X125043380Y-90459761D01*
X125067190Y-90388333D01*
X125067190Y-90340714D01*
X125043380Y-90269285D01*
X124995761Y-90221666D01*
X124948142Y-90197857D01*
X124852904Y-90174047D01*
X124781476Y-90174047D01*
X124686238Y-90197857D01*
X124638619Y-90221666D01*
X124591000Y-90269285D01*
X124567190Y-90340714D01*
X124567190Y-90388333D01*
X124591000Y-90459761D01*
X124614809Y-90483571D01*
X125067190Y-90721666D02*
X125067190Y-90816904D01*
X125043380Y-90864523D01*
X125019571Y-90888333D01*
X124948142Y-90935952D01*
X124852904Y-90959761D01*
X124662428Y-90959761D01*
X124614809Y-90935952D01*
X124591000Y-90912142D01*
X124567190Y-90864523D01*
X124567190Y-90769285D01*
X124591000Y-90721666D01*
X124614809Y-90697857D01*
X124662428Y-90674047D01*
X124781476Y-90674047D01*
X124829095Y-90697857D01*
X124852904Y-90721666D01*
X124876714Y-90769285D01*
X124876714Y-90864523D01*
X124852904Y-90912142D01*
X124829095Y-90935952D01*
X124781476Y-90959761D01*
X124614809Y-91150238D02*
X124591000Y-91174047D01*
X124567190Y-91221666D01*
X124567190Y-91340714D01*
X124591000Y-91388333D01*
X124614809Y-91412142D01*
X124662428Y-91435952D01*
X124710047Y-91435952D01*
X124781476Y-91412142D01*
X125067190Y-91126428D01*
X125067190Y-91435952D01*
%TO.C,C91*%
X142942428Y-109398571D02*
X142966238Y-109422380D01*
X143037666Y-109446190D01*
X143085285Y-109446190D01*
X143156714Y-109422380D01*
X143204333Y-109374761D01*
X143228142Y-109327142D01*
X143251952Y-109231904D01*
X143251952Y-109160476D01*
X143228142Y-109065238D01*
X143204333Y-109017619D01*
X143156714Y-108970000D01*
X143085285Y-108946190D01*
X143037666Y-108946190D01*
X142966238Y-108970000D01*
X142942428Y-108993809D01*
X142704333Y-109446190D02*
X142609095Y-109446190D01*
X142561476Y-109422380D01*
X142537666Y-109398571D01*
X142490047Y-109327142D01*
X142466238Y-109231904D01*
X142466238Y-109041428D01*
X142490047Y-108993809D01*
X142513857Y-108970000D01*
X142561476Y-108946190D01*
X142656714Y-108946190D01*
X142704333Y-108970000D01*
X142728142Y-108993809D01*
X142751952Y-109041428D01*
X142751952Y-109160476D01*
X142728142Y-109208095D01*
X142704333Y-109231904D01*
X142656714Y-109255714D01*
X142561476Y-109255714D01*
X142513857Y-109231904D01*
X142490047Y-109208095D01*
X142466238Y-109160476D01*
X141990047Y-109446190D02*
X142275761Y-109446190D01*
X142132904Y-109446190D02*
X142132904Y-108946190D01*
X142180523Y-109017619D01*
X142228142Y-109065238D01*
X142275761Y-109089047D01*
%TO.C,C90*%
X125019571Y-120963571D02*
X125043380Y-120939761D01*
X125067190Y-120868333D01*
X125067190Y-120820714D01*
X125043380Y-120749285D01*
X124995761Y-120701666D01*
X124948142Y-120677857D01*
X124852904Y-120654047D01*
X124781476Y-120654047D01*
X124686238Y-120677857D01*
X124638619Y-120701666D01*
X124591000Y-120749285D01*
X124567190Y-120820714D01*
X124567190Y-120868333D01*
X124591000Y-120939761D01*
X124614809Y-120963571D01*
X125067190Y-121201666D02*
X125067190Y-121296904D01*
X125043380Y-121344523D01*
X125019571Y-121368333D01*
X124948142Y-121415952D01*
X124852904Y-121439761D01*
X124662428Y-121439761D01*
X124614809Y-121415952D01*
X124591000Y-121392142D01*
X124567190Y-121344523D01*
X124567190Y-121249285D01*
X124591000Y-121201666D01*
X124614809Y-121177857D01*
X124662428Y-121154047D01*
X124781476Y-121154047D01*
X124829095Y-121177857D01*
X124852904Y-121201666D01*
X124876714Y-121249285D01*
X124876714Y-121344523D01*
X124852904Y-121392142D01*
X124829095Y-121415952D01*
X124781476Y-121439761D01*
X124567190Y-121749285D02*
X124567190Y-121796904D01*
X124591000Y-121844523D01*
X124614809Y-121868333D01*
X124662428Y-121892142D01*
X124757666Y-121915952D01*
X124876714Y-121915952D01*
X124971952Y-121892142D01*
X125019571Y-121868333D01*
X125043380Y-121844523D01*
X125067190Y-121796904D01*
X125067190Y-121749285D01*
X125043380Y-121701666D01*
X125019571Y-121677857D01*
X124971952Y-121654047D01*
X124876714Y-121630238D01*
X124757666Y-121630238D01*
X124662428Y-121654047D01*
X124614809Y-121677857D01*
X124591000Y-121701666D01*
X124567190Y-121749285D01*
%TO.C,C89*%
X125019571Y-105723571D02*
X125043380Y-105699761D01*
X125067190Y-105628333D01*
X125067190Y-105580714D01*
X125043380Y-105509285D01*
X124995761Y-105461666D01*
X124948142Y-105437857D01*
X124852904Y-105414047D01*
X124781476Y-105414047D01*
X124686238Y-105437857D01*
X124638619Y-105461666D01*
X124591000Y-105509285D01*
X124567190Y-105580714D01*
X124567190Y-105628333D01*
X124591000Y-105699761D01*
X124614809Y-105723571D01*
X124781476Y-106009285D02*
X124757666Y-105961666D01*
X124733857Y-105937857D01*
X124686238Y-105914047D01*
X124662428Y-105914047D01*
X124614809Y-105937857D01*
X124591000Y-105961666D01*
X124567190Y-106009285D01*
X124567190Y-106104523D01*
X124591000Y-106152142D01*
X124614809Y-106175952D01*
X124662428Y-106199761D01*
X124686238Y-106199761D01*
X124733857Y-106175952D01*
X124757666Y-106152142D01*
X124781476Y-106104523D01*
X124781476Y-106009285D01*
X124805285Y-105961666D01*
X124829095Y-105937857D01*
X124876714Y-105914047D01*
X124971952Y-105914047D01*
X125019571Y-105937857D01*
X125043380Y-105961666D01*
X125067190Y-106009285D01*
X125067190Y-106104523D01*
X125043380Y-106152142D01*
X125019571Y-106175952D01*
X124971952Y-106199761D01*
X124876714Y-106199761D01*
X124829095Y-106175952D01*
X124805285Y-106152142D01*
X124781476Y-106104523D01*
X125067190Y-106437857D02*
X125067190Y-106533095D01*
X125043380Y-106580714D01*
X125019571Y-106604523D01*
X124948142Y-106652142D01*
X124852904Y-106675952D01*
X124662428Y-106675952D01*
X124614809Y-106652142D01*
X124591000Y-106628333D01*
X124567190Y-106580714D01*
X124567190Y-106485476D01*
X124591000Y-106437857D01*
X124614809Y-106414047D01*
X124662428Y-106390238D01*
X124781476Y-106390238D01*
X124829095Y-106414047D01*
X124852904Y-106437857D01*
X124876714Y-106485476D01*
X124876714Y-106580714D01*
X124852904Y-106628333D01*
X124829095Y-106652142D01*
X124781476Y-106675952D01*
%TO.C,C88*%
X125019571Y-87435571D02*
X125043380Y-87411761D01*
X125067190Y-87340333D01*
X125067190Y-87292714D01*
X125043380Y-87221285D01*
X124995761Y-87173666D01*
X124948142Y-87149857D01*
X124852904Y-87126047D01*
X124781476Y-87126047D01*
X124686238Y-87149857D01*
X124638619Y-87173666D01*
X124591000Y-87221285D01*
X124567190Y-87292714D01*
X124567190Y-87340333D01*
X124591000Y-87411761D01*
X124614809Y-87435571D01*
X124781476Y-87721285D02*
X124757666Y-87673666D01*
X124733857Y-87649857D01*
X124686238Y-87626047D01*
X124662428Y-87626047D01*
X124614809Y-87649857D01*
X124591000Y-87673666D01*
X124567190Y-87721285D01*
X124567190Y-87816523D01*
X124591000Y-87864142D01*
X124614809Y-87887952D01*
X124662428Y-87911761D01*
X124686238Y-87911761D01*
X124733857Y-87887952D01*
X124757666Y-87864142D01*
X124781476Y-87816523D01*
X124781476Y-87721285D01*
X124805285Y-87673666D01*
X124829095Y-87649857D01*
X124876714Y-87626047D01*
X124971952Y-87626047D01*
X125019571Y-87649857D01*
X125043380Y-87673666D01*
X125067190Y-87721285D01*
X125067190Y-87816523D01*
X125043380Y-87864142D01*
X125019571Y-87887952D01*
X124971952Y-87911761D01*
X124876714Y-87911761D01*
X124829095Y-87887952D01*
X124805285Y-87864142D01*
X124781476Y-87816523D01*
X124781476Y-88197476D02*
X124757666Y-88149857D01*
X124733857Y-88126047D01*
X124686238Y-88102238D01*
X124662428Y-88102238D01*
X124614809Y-88126047D01*
X124591000Y-88149857D01*
X124567190Y-88197476D01*
X124567190Y-88292714D01*
X124591000Y-88340333D01*
X124614809Y-88364142D01*
X124662428Y-88387952D01*
X124686238Y-88387952D01*
X124733857Y-88364142D01*
X124757666Y-88340333D01*
X124781476Y-88292714D01*
X124781476Y-88197476D01*
X124805285Y-88149857D01*
X124829095Y-88126047D01*
X124876714Y-88102238D01*
X124971952Y-88102238D01*
X125019571Y-88126047D01*
X125043380Y-88149857D01*
X125067190Y-88197476D01*
X125067190Y-88292714D01*
X125043380Y-88340333D01*
X125019571Y-88364142D01*
X124971952Y-88387952D01*
X124876714Y-88387952D01*
X124829095Y-88364142D01*
X124805285Y-88340333D01*
X124781476Y-88292714D01*
%TO.C,C86*%
X125019571Y-117915571D02*
X125043380Y-117891761D01*
X125067190Y-117820333D01*
X125067190Y-117772714D01*
X125043380Y-117701285D01*
X124995761Y-117653666D01*
X124948142Y-117629857D01*
X124852904Y-117606047D01*
X124781476Y-117606047D01*
X124686238Y-117629857D01*
X124638619Y-117653666D01*
X124591000Y-117701285D01*
X124567190Y-117772714D01*
X124567190Y-117820333D01*
X124591000Y-117891761D01*
X124614809Y-117915571D01*
X124781476Y-118201285D02*
X124757666Y-118153666D01*
X124733857Y-118129857D01*
X124686238Y-118106047D01*
X124662428Y-118106047D01*
X124614809Y-118129857D01*
X124591000Y-118153666D01*
X124567190Y-118201285D01*
X124567190Y-118296523D01*
X124591000Y-118344142D01*
X124614809Y-118367952D01*
X124662428Y-118391761D01*
X124686238Y-118391761D01*
X124733857Y-118367952D01*
X124757666Y-118344142D01*
X124781476Y-118296523D01*
X124781476Y-118201285D01*
X124805285Y-118153666D01*
X124829095Y-118129857D01*
X124876714Y-118106047D01*
X124971952Y-118106047D01*
X125019571Y-118129857D01*
X125043380Y-118153666D01*
X125067190Y-118201285D01*
X125067190Y-118296523D01*
X125043380Y-118344142D01*
X125019571Y-118367952D01*
X124971952Y-118391761D01*
X124876714Y-118391761D01*
X124829095Y-118367952D01*
X124805285Y-118344142D01*
X124781476Y-118296523D01*
X124567190Y-118820333D02*
X124567190Y-118725095D01*
X124591000Y-118677476D01*
X124614809Y-118653666D01*
X124686238Y-118606047D01*
X124781476Y-118582238D01*
X124971952Y-118582238D01*
X125019571Y-118606047D01*
X125043380Y-118629857D01*
X125067190Y-118677476D01*
X125067190Y-118772714D01*
X125043380Y-118820333D01*
X125019571Y-118844142D01*
X124971952Y-118867952D01*
X124852904Y-118867952D01*
X124805285Y-118844142D01*
X124781476Y-118820333D01*
X124757666Y-118772714D01*
X124757666Y-118677476D01*
X124781476Y-118629857D01*
X124805285Y-118606047D01*
X124852904Y-118582238D01*
%TO.C,C85*%
X125019571Y-102675571D02*
X125043380Y-102651761D01*
X125067190Y-102580333D01*
X125067190Y-102532714D01*
X125043380Y-102461285D01*
X124995761Y-102413666D01*
X124948142Y-102389857D01*
X124852904Y-102366047D01*
X124781476Y-102366047D01*
X124686238Y-102389857D01*
X124638619Y-102413666D01*
X124591000Y-102461285D01*
X124567190Y-102532714D01*
X124567190Y-102580333D01*
X124591000Y-102651761D01*
X124614809Y-102675571D01*
X124781476Y-102961285D02*
X124757666Y-102913666D01*
X124733857Y-102889857D01*
X124686238Y-102866047D01*
X124662428Y-102866047D01*
X124614809Y-102889857D01*
X124591000Y-102913666D01*
X124567190Y-102961285D01*
X124567190Y-103056523D01*
X124591000Y-103104142D01*
X124614809Y-103127952D01*
X124662428Y-103151761D01*
X124686238Y-103151761D01*
X124733857Y-103127952D01*
X124757666Y-103104142D01*
X124781476Y-103056523D01*
X124781476Y-102961285D01*
X124805285Y-102913666D01*
X124829095Y-102889857D01*
X124876714Y-102866047D01*
X124971952Y-102866047D01*
X125019571Y-102889857D01*
X125043380Y-102913666D01*
X125067190Y-102961285D01*
X125067190Y-103056523D01*
X125043380Y-103104142D01*
X125019571Y-103127952D01*
X124971952Y-103151761D01*
X124876714Y-103151761D01*
X124829095Y-103127952D01*
X124805285Y-103104142D01*
X124781476Y-103056523D01*
X124567190Y-103604142D02*
X124567190Y-103366047D01*
X124805285Y-103342238D01*
X124781476Y-103366047D01*
X124757666Y-103413666D01*
X124757666Y-103532714D01*
X124781476Y-103580333D01*
X124805285Y-103604142D01*
X124852904Y-103627952D01*
X124971952Y-103627952D01*
X125019571Y-103604142D01*
X125043380Y-103580333D01*
X125067190Y-103532714D01*
X125067190Y-103413666D01*
X125043380Y-103366047D01*
X125019571Y-103342238D01*
%TO.C,C84*%
X125019571Y-84387571D02*
X125043380Y-84363761D01*
X125067190Y-84292333D01*
X125067190Y-84244714D01*
X125043380Y-84173285D01*
X124995761Y-84125666D01*
X124948142Y-84101857D01*
X124852904Y-84078047D01*
X124781476Y-84078047D01*
X124686238Y-84101857D01*
X124638619Y-84125666D01*
X124591000Y-84173285D01*
X124567190Y-84244714D01*
X124567190Y-84292333D01*
X124591000Y-84363761D01*
X124614809Y-84387571D01*
X124781476Y-84673285D02*
X124757666Y-84625666D01*
X124733857Y-84601857D01*
X124686238Y-84578047D01*
X124662428Y-84578047D01*
X124614809Y-84601857D01*
X124591000Y-84625666D01*
X124567190Y-84673285D01*
X124567190Y-84768523D01*
X124591000Y-84816142D01*
X124614809Y-84839952D01*
X124662428Y-84863761D01*
X124686238Y-84863761D01*
X124733857Y-84839952D01*
X124757666Y-84816142D01*
X124781476Y-84768523D01*
X124781476Y-84673285D01*
X124805285Y-84625666D01*
X124829095Y-84601857D01*
X124876714Y-84578047D01*
X124971952Y-84578047D01*
X125019571Y-84601857D01*
X125043380Y-84625666D01*
X125067190Y-84673285D01*
X125067190Y-84768523D01*
X125043380Y-84816142D01*
X125019571Y-84839952D01*
X124971952Y-84863761D01*
X124876714Y-84863761D01*
X124829095Y-84839952D01*
X124805285Y-84816142D01*
X124781476Y-84768523D01*
X124733857Y-85292333D02*
X125067190Y-85292333D01*
X124543380Y-85173285D02*
X124900523Y-85054238D01*
X124900523Y-85363761D01*
%TO.C,C83*%
X138354571Y-130488571D02*
X138378380Y-130464761D01*
X138402190Y-130393333D01*
X138402190Y-130345714D01*
X138378380Y-130274285D01*
X138330761Y-130226666D01*
X138283142Y-130202857D01*
X138187904Y-130179047D01*
X138116476Y-130179047D01*
X138021238Y-130202857D01*
X137973619Y-130226666D01*
X137926000Y-130274285D01*
X137902190Y-130345714D01*
X137902190Y-130393333D01*
X137926000Y-130464761D01*
X137949809Y-130488571D01*
X138116476Y-130774285D02*
X138092666Y-130726666D01*
X138068857Y-130702857D01*
X138021238Y-130679047D01*
X137997428Y-130679047D01*
X137949809Y-130702857D01*
X137926000Y-130726666D01*
X137902190Y-130774285D01*
X137902190Y-130869523D01*
X137926000Y-130917142D01*
X137949809Y-130940952D01*
X137997428Y-130964761D01*
X138021238Y-130964761D01*
X138068857Y-130940952D01*
X138092666Y-130917142D01*
X138116476Y-130869523D01*
X138116476Y-130774285D01*
X138140285Y-130726666D01*
X138164095Y-130702857D01*
X138211714Y-130679047D01*
X138306952Y-130679047D01*
X138354571Y-130702857D01*
X138378380Y-130726666D01*
X138402190Y-130774285D01*
X138402190Y-130869523D01*
X138378380Y-130917142D01*
X138354571Y-130940952D01*
X138306952Y-130964761D01*
X138211714Y-130964761D01*
X138164095Y-130940952D01*
X138140285Y-130917142D01*
X138116476Y-130869523D01*
X137902190Y-131131428D02*
X137902190Y-131440952D01*
X138092666Y-131274285D01*
X138092666Y-131345714D01*
X138116476Y-131393333D01*
X138140285Y-131417142D01*
X138187904Y-131440952D01*
X138306952Y-131440952D01*
X138354571Y-131417142D01*
X138378380Y-131393333D01*
X138402190Y-131345714D01*
X138402190Y-131202857D01*
X138378380Y-131155238D01*
X138354571Y-131131428D01*
%TO.C,C82*%
X125019571Y-127059571D02*
X125043380Y-127035761D01*
X125067190Y-126964333D01*
X125067190Y-126916714D01*
X125043380Y-126845285D01*
X124995761Y-126797666D01*
X124948142Y-126773857D01*
X124852904Y-126750047D01*
X124781476Y-126750047D01*
X124686238Y-126773857D01*
X124638619Y-126797666D01*
X124591000Y-126845285D01*
X124567190Y-126916714D01*
X124567190Y-126964333D01*
X124591000Y-127035761D01*
X124614809Y-127059571D01*
X124781476Y-127345285D02*
X124757666Y-127297666D01*
X124733857Y-127273857D01*
X124686238Y-127250047D01*
X124662428Y-127250047D01*
X124614809Y-127273857D01*
X124591000Y-127297666D01*
X124567190Y-127345285D01*
X124567190Y-127440523D01*
X124591000Y-127488142D01*
X124614809Y-127511952D01*
X124662428Y-127535761D01*
X124686238Y-127535761D01*
X124733857Y-127511952D01*
X124757666Y-127488142D01*
X124781476Y-127440523D01*
X124781476Y-127345285D01*
X124805285Y-127297666D01*
X124829095Y-127273857D01*
X124876714Y-127250047D01*
X124971952Y-127250047D01*
X125019571Y-127273857D01*
X125043380Y-127297666D01*
X125067190Y-127345285D01*
X125067190Y-127440523D01*
X125043380Y-127488142D01*
X125019571Y-127511952D01*
X124971952Y-127535761D01*
X124876714Y-127535761D01*
X124829095Y-127511952D01*
X124805285Y-127488142D01*
X124781476Y-127440523D01*
X124614809Y-127726238D02*
X124591000Y-127750047D01*
X124567190Y-127797666D01*
X124567190Y-127916714D01*
X124591000Y-127964333D01*
X124614809Y-127988142D01*
X124662428Y-128011952D01*
X124710047Y-128011952D01*
X124781476Y-127988142D01*
X125067190Y-127702428D01*
X125067190Y-128011952D01*
%TO.C,C81*%
X125019571Y-114867571D02*
X125043380Y-114843761D01*
X125067190Y-114772333D01*
X125067190Y-114724714D01*
X125043380Y-114653285D01*
X124995761Y-114605666D01*
X124948142Y-114581857D01*
X124852904Y-114558047D01*
X124781476Y-114558047D01*
X124686238Y-114581857D01*
X124638619Y-114605666D01*
X124591000Y-114653285D01*
X124567190Y-114724714D01*
X124567190Y-114772333D01*
X124591000Y-114843761D01*
X124614809Y-114867571D01*
X124781476Y-115153285D02*
X124757666Y-115105666D01*
X124733857Y-115081857D01*
X124686238Y-115058047D01*
X124662428Y-115058047D01*
X124614809Y-115081857D01*
X124591000Y-115105666D01*
X124567190Y-115153285D01*
X124567190Y-115248523D01*
X124591000Y-115296142D01*
X124614809Y-115319952D01*
X124662428Y-115343761D01*
X124686238Y-115343761D01*
X124733857Y-115319952D01*
X124757666Y-115296142D01*
X124781476Y-115248523D01*
X124781476Y-115153285D01*
X124805285Y-115105666D01*
X124829095Y-115081857D01*
X124876714Y-115058047D01*
X124971952Y-115058047D01*
X125019571Y-115081857D01*
X125043380Y-115105666D01*
X125067190Y-115153285D01*
X125067190Y-115248523D01*
X125043380Y-115296142D01*
X125019571Y-115319952D01*
X124971952Y-115343761D01*
X124876714Y-115343761D01*
X124829095Y-115319952D01*
X124805285Y-115296142D01*
X124781476Y-115248523D01*
X125067190Y-115819952D02*
X125067190Y-115534238D01*
X125067190Y-115677095D02*
X124567190Y-115677095D01*
X124638619Y-115629476D01*
X124686238Y-115581857D01*
X124710047Y-115534238D01*
%TO.C,C80*%
X125019571Y-99627571D02*
X125043380Y-99603761D01*
X125067190Y-99532333D01*
X125067190Y-99484714D01*
X125043380Y-99413285D01*
X124995761Y-99365666D01*
X124948142Y-99341857D01*
X124852904Y-99318047D01*
X124781476Y-99318047D01*
X124686238Y-99341857D01*
X124638619Y-99365666D01*
X124591000Y-99413285D01*
X124567190Y-99484714D01*
X124567190Y-99532333D01*
X124591000Y-99603761D01*
X124614809Y-99627571D01*
X124781476Y-99913285D02*
X124757666Y-99865666D01*
X124733857Y-99841857D01*
X124686238Y-99818047D01*
X124662428Y-99818047D01*
X124614809Y-99841857D01*
X124591000Y-99865666D01*
X124567190Y-99913285D01*
X124567190Y-100008523D01*
X124591000Y-100056142D01*
X124614809Y-100079952D01*
X124662428Y-100103761D01*
X124686238Y-100103761D01*
X124733857Y-100079952D01*
X124757666Y-100056142D01*
X124781476Y-100008523D01*
X124781476Y-99913285D01*
X124805285Y-99865666D01*
X124829095Y-99841857D01*
X124876714Y-99818047D01*
X124971952Y-99818047D01*
X125019571Y-99841857D01*
X125043380Y-99865666D01*
X125067190Y-99913285D01*
X125067190Y-100008523D01*
X125043380Y-100056142D01*
X125019571Y-100079952D01*
X124971952Y-100103761D01*
X124876714Y-100103761D01*
X124829095Y-100079952D01*
X124805285Y-100056142D01*
X124781476Y-100008523D01*
X124567190Y-100413285D02*
X124567190Y-100460904D01*
X124591000Y-100508523D01*
X124614809Y-100532333D01*
X124662428Y-100556142D01*
X124757666Y-100579952D01*
X124876714Y-100579952D01*
X124971952Y-100556142D01*
X125019571Y-100532333D01*
X125043380Y-100508523D01*
X125067190Y-100460904D01*
X125067190Y-100413285D01*
X125043380Y-100365666D01*
X125019571Y-100341857D01*
X124971952Y-100318047D01*
X124876714Y-100294238D01*
X124757666Y-100294238D01*
X124662428Y-100318047D01*
X124614809Y-100341857D01*
X124591000Y-100365666D01*
X124567190Y-100413285D01*
%TO.C,C79*%
X125019571Y-81339571D02*
X125043380Y-81315761D01*
X125067190Y-81244333D01*
X125067190Y-81196714D01*
X125043380Y-81125285D01*
X124995761Y-81077666D01*
X124948142Y-81053857D01*
X124852904Y-81030047D01*
X124781476Y-81030047D01*
X124686238Y-81053857D01*
X124638619Y-81077666D01*
X124591000Y-81125285D01*
X124567190Y-81196714D01*
X124567190Y-81244333D01*
X124591000Y-81315761D01*
X124614809Y-81339571D01*
X124567190Y-81506238D02*
X124567190Y-81839571D01*
X125067190Y-81625285D01*
X125067190Y-82053857D02*
X125067190Y-82149095D01*
X125043380Y-82196714D01*
X125019571Y-82220523D01*
X124948142Y-82268142D01*
X124852904Y-82291952D01*
X124662428Y-82291952D01*
X124614809Y-82268142D01*
X124591000Y-82244333D01*
X124567190Y-82196714D01*
X124567190Y-82101476D01*
X124591000Y-82053857D01*
X124614809Y-82030047D01*
X124662428Y-82006238D01*
X124781476Y-82006238D01*
X124829095Y-82030047D01*
X124852904Y-82053857D01*
X124876714Y-82101476D01*
X124876714Y-82196714D01*
X124852904Y-82244333D01*
X124829095Y-82268142D01*
X124781476Y-82291952D01*
%TO.C,C78*%
X138354571Y-102040571D02*
X138378380Y-102016761D01*
X138402190Y-101945333D01*
X138402190Y-101897714D01*
X138378380Y-101826285D01*
X138330761Y-101778666D01*
X138283142Y-101754857D01*
X138187904Y-101731047D01*
X138116476Y-101731047D01*
X138021238Y-101754857D01*
X137973619Y-101778666D01*
X137926000Y-101826285D01*
X137902190Y-101897714D01*
X137902190Y-101945333D01*
X137926000Y-102016761D01*
X137949809Y-102040571D01*
X137902190Y-102207238D02*
X137902190Y-102540571D01*
X138402190Y-102326285D01*
X138116476Y-102802476D02*
X138092666Y-102754857D01*
X138068857Y-102731047D01*
X138021238Y-102707238D01*
X137997428Y-102707238D01*
X137949809Y-102731047D01*
X137926000Y-102754857D01*
X137902190Y-102802476D01*
X137902190Y-102897714D01*
X137926000Y-102945333D01*
X137949809Y-102969142D01*
X137997428Y-102992952D01*
X138021238Y-102992952D01*
X138068857Y-102969142D01*
X138092666Y-102945333D01*
X138116476Y-102897714D01*
X138116476Y-102802476D01*
X138140285Y-102754857D01*
X138164095Y-102731047D01*
X138211714Y-102707238D01*
X138306952Y-102707238D01*
X138354571Y-102731047D01*
X138378380Y-102754857D01*
X138402190Y-102802476D01*
X138402190Y-102897714D01*
X138378380Y-102945333D01*
X138354571Y-102969142D01*
X138306952Y-102992952D01*
X138211714Y-102992952D01*
X138164095Y-102969142D01*
X138140285Y-102945333D01*
X138116476Y-102897714D01*
%TO.C,C77*%
X125019571Y-124011571D02*
X125043380Y-123987761D01*
X125067190Y-123916333D01*
X125067190Y-123868714D01*
X125043380Y-123797285D01*
X124995761Y-123749666D01*
X124948142Y-123725857D01*
X124852904Y-123702047D01*
X124781476Y-123702047D01*
X124686238Y-123725857D01*
X124638619Y-123749666D01*
X124591000Y-123797285D01*
X124567190Y-123868714D01*
X124567190Y-123916333D01*
X124591000Y-123987761D01*
X124614809Y-124011571D01*
X124567190Y-124178238D02*
X124567190Y-124511571D01*
X125067190Y-124297285D01*
X124567190Y-124654428D02*
X124567190Y-124987761D01*
X125067190Y-124773476D01*
%TO.C,C76*%
X125019571Y-111819571D02*
X125043380Y-111795761D01*
X125067190Y-111724333D01*
X125067190Y-111676714D01*
X125043380Y-111605285D01*
X124995761Y-111557666D01*
X124948142Y-111533857D01*
X124852904Y-111510047D01*
X124781476Y-111510047D01*
X124686238Y-111533857D01*
X124638619Y-111557666D01*
X124591000Y-111605285D01*
X124567190Y-111676714D01*
X124567190Y-111724333D01*
X124591000Y-111795761D01*
X124614809Y-111819571D01*
X124567190Y-111986238D02*
X124567190Y-112319571D01*
X125067190Y-112105285D01*
X124567190Y-112724333D02*
X124567190Y-112629095D01*
X124591000Y-112581476D01*
X124614809Y-112557666D01*
X124686238Y-112510047D01*
X124781476Y-112486238D01*
X124971952Y-112486238D01*
X125019571Y-112510047D01*
X125043380Y-112533857D01*
X125067190Y-112581476D01*
X125067190Y-112676714D01*
X125043380Y-112724333D01*
X125019571Y-112748142D01*
X124971952Y-112771952D01*
X124852904Y-112771952D01*
X124805285Y-112748142D01*
X124781476Y-112724333D01*
X124757666Y-112676714D01*
X124757666Y-112581476D01*
X124781476Y-112533857D01*
X124805285Y-112510047D01*
X124852904Y-112486238D01*
%TO.C,C75*%
X125019571Y-96579571D02*
X125043380Y-96555761D01*
X125067190Y-96484333D01*
X125067190Y-96436714D01*
X125043380Y-96365285D01*
X124995761Y-96317666D01*
X124948142Y-96293857D01*
X124852904Y-96270047D01*
X124781476Y-96270047D01*
X124686238Y-96293857D01*
X124638619Y-96317666D01*
X124591000Y-96365285D01*
X124567190Y-96436714D01*
X124567190Y-96484333D01*
X124591000Y-96555761D01*
X124614809Y-96579571D01*
X124567190Y-96746238D02*
X124567190Y-97079571D01*
X125067190Y-96865285D01*
X124567190Y-97508142D02*
X124567190Y-97270047D01*
X124805285Y-97246238D01*
X124781476Y-97270047D01*
X124757666Y-97317666D01*
X124757666Y-97436714D01*
X124781476Y-97484333D01*
X124805285Y-97508142D01*
X124852904Y-97531952D01*
X124971952Y-97531952D01*
X125019571Y-97508142D01*
X125043380Y-97484333D01*
X125067190Y-97436714D01*
X125067190Y-97317666D01*
X125043380Y-97270047D01*
X125019571Y-97246238D01*
%TO.C,C74*%
X121082571Y-78291571D02*
X121106380Y-78267761D01*
X121130190Y-78196333D01*
X121130190Y-78148714D01*
X121106380Y-78077285D01*
X121058761Y-78029666D01*
X121011142Y-78005857D01*
X120915904Y-77982047D01*
X120844476Y-77982047D01*
X120749238Y-78005857D01*
X120701619Y-78029666D01*
X120654000Y-78077285D01*
X120630190Y-78148714D01*
X120630190Y-78196333D01*
X120654000Y-78267761D01*
X120677809Y-78291571D01*
X120630190Y-78458238D02*
X120630190Y-78791571D01*
X121130190Y-78577285D01*
X120796857Y-79196333D02*
X121130190Y-79196333D01*
X120606380Y-79077285D02*
X120963523Y-78958238D01*
X120963523Y-79267761D01*
%TO.C,C71*%
X170358571Y-122487571D02*
X170382380Y-122463761D01*
X170406190Y-122392333D01*
X170406190Y-122344714D01*
X170382380Y-122273285D01*
X170334761Y-122225666D01*
X170287142Y-122201857D01*
X170191904Y-122178047D01*
X170120476Y-122178047D01*
X170025238Y-122201857D01*
X169977619Y-122225666D01*
X169930000Y-122273285D01*
X169906190Y-122344714D01*
X169906190Y-122392333D01*
X169930000Y-122463761D01*
X169953809Y-122487571D01*
X169906190Y-122654238D02*
X169906190Y-122987571D01*
X170406190Y-122773285D01*
X170406190Y-123439952D02*
X170406190Y-123154238D01*
X170406190Y-123297095D02*
X169906190Y-123297095D01*
X169977619Y-123249476D01*
X170025238Y-123201857D01*
X170049047Y-123154238D01*
%TO.C,C70*%
X170358571Y-110295571D02*
X170382380Y-110271761D01*
X170406190Y-110200333D01*
X170406190Y-110152714D01*
X170382380Y-110081285D01*
X170334761Y-110033666D01*
X170287142Y-110009857D01*
X170191904Y-109986047D01*
X170120476Y-109986047D01*
X170025238Y-110009857D01*
X169977619Y-110033666D01*
X169930000Y-110081285D01*
X169906190Y-110152714D01*
X169906190Y-110200333D01*
X169930000Y-110271761D01*
X169953809Y-110295571D01*
X169906190Y-110462238D02*
X169906190Y-110795571D01*
X170406190Y-110581285D01*
X169906190Y-111081285D02*
X169906190Y-111128904D01*
X169930000Y-111176523D01*
X169953809Y-111200333D01*
X170001428Y-111224142D01*
X170096666Y-111247952D01*
X170215714Y-111247952D01*
X170310952Y-111224142D01*
X170358571Y-111200333D01*
X170382380Y-111176523D01*
X170406190Y-111128904D01*
X170406190Y-111081285D01*
X170382380Y-111033666D01*
X170358571Y-111009857D01*
X170310952Y-110986047D01*
X170215714Y-110962238D01*
X170096666Y-110962238D01*
X170001428Y-110986047D01*
X169953809Y-111009857D01*
X169930000Y-111033666D01*
X169906190Y-111081285D01*
%TO.C,C69*%
X162992571Y-114867571D02*
X163016380Y-114843761D01*
X163040190Y-114772333D01*
X163040190Y-114724714D01*
X163016380Y-114653285D01*
X162968761Y-114605666D01*
X162921142Y-114581857D01*
X162825904Y-114558047D01*
X162754476Y-114558047D01*
X162659238Y-114581857D01*
X162611619Y-114605666D01*
X162564000Y-114653285D01*
X162540190Y-114724714D01*
X162540190Y-114772333D01*
X162564000Y-114843761D01*
X162587809Y-114867571D01*
X162540190Y-115296142D02*
X162540190Y-115200904D01*
X162564000Y-115153285D01*
X162587809Y-115129476D01*
X162659238Y-115081857D01*
X162754476Y-115058047D01*
X162944952Y-115058047D01*
X162992571Y-115081857D01*
X163016380Y-115105666D01*
X163040190Y-115153285D01*
X163040190Y-115248523D01*
X163016380Y-115296142D01*
X162992571Y-115319952D01*
X162944952Y-115343761D01*
X162825904Y-115343761D01*
X162778285Y-115319952D01*
X162754476Y-115296142D01*
X162730666Y-115248523D01*
X162730666Y-115153285D01*
X162754476Y-115105666D01*
X162778285Y-115081857D01*
X162825904Y-115058047D01*
X163040190Y-115581857D02*
X163040190Y-115677095D01*
X163016380Y-115724714D01*
X162992571Y-115748523D01*
X162921142Y-115796142D01*
X162825904Y-115819952D01*
X162635428Y-115819952D01*
X162587809Y-115796142D01*
X162564000Y-115772333D01*
X162540190Y-115724714D01*
X162540190Y-115629476D01*
X162564000Y-115581857D01*
X162587809Y-115558047D01*
X162635428Y-115534238D01*
X162754476Y-115534238D01*
X162802095Y-115558047D01*
X162825904Y-115581857D01*
X162849714Y-115629476D01*
X162849714Y-115724714D01*
X162825904Y-115772333D01*
X162802095Y-115796142D01*
X162754476Y-115819952D01*
%TO.C,C68*%
X170358571Y-116391571D02*
X170382380Y-116367761D01*
X170406190Y-116296333D01*
X170406190Y-116248714D01*
X170382380Y-116177285D01*
X170334761Y-116129666D01*
X170287142Y-116105857D01*
X170191904Y-116082047D01*
X170120476Y-116082047D01*
X170025238Y-116105857D01*
X169977619Y-116129666D01*
X169930000Y-116177285D01*
X169906190Y-116248714D01*
X169906190Y-116296333D01*
X169930000Y-116367761D01*
X169953809Y-116391571D01*
X169906190Y-116820142D02*
X169906190Y-116724904D01*
X169930000Y-116677285D01*
X169953809Y-116653476D01*
X170025238Y-116605857D01*
X170120476Y-116582047D01*
X170310952Y-116582047D01*
X170358571Y-116605857D01*
X170382380Y-116629666D01*
X170406190Y-116677285D01*
X170406190Y-116772523D01*
X170382380Y-116820142D01*
X170358571Y-116843952D01*
X170310952Y-116867761D01*
X170191904Y-116867761D01*
X170144285Y-116843952D01*
X170120476Y-116820142D01*
X170096666Y-116772523D01*
X170096666Y-116677285D01*
X170120476Y-116629666D01*
X170144285Y-116605857D01*
X170191904Y-116582047D01*
X170120476Y-117153476D02*
X170096666Y-117105857D01*
X170072857Y-117082047D01*
X170025238Y-117058238D01*
X170001428Y-117058238D01*
X169953809Y-117082047D01*
X169930000Y-117105857D01*
X169906190Y-117153476D01*
X169906190Y-117248714D01*
X169930000Y-117296333D01*
X169953809Y-117320142D01*
X170001428Y-117343952D01*
X170025238Y-117343952D01*
X170072857Y-117320142D01*
X170096666Y-117296333D01*
X170120476Y-117248714D01*
X170120476Y-117153476D01*
X170144285Y-117105857D01*
X170168095Y-117082047D01*
X170215714Y-117058238D01*
X170310952Y-117058238D01*
X170358571Y-117082047D01*
X170382380Y-117105857D01*
X170406190Y-117153476D01*
X170406190Y-117248714D01*
X170382380Y-117296333D01*
X170358571Y-117320142D01*
X170310952Y-117343952D01*
X170215714Y-117343952D01*
X170168095Y-117320142D01*
X170144285Y-117296333D01*
X170120476Y-117248714D01*
%TO.C,C67*%
X162992571Y-111819571D02*
X163016380Y-111795761D01*
X163040190Y-111724333D01*
X163040190Y-111676714D01*
X163016380Y-111605285D01*
X162968761Y-111557666D01*
X162921142Y-111533857D01*
X162825904Y-111510047D01*
X162754476Y-111510047D01*
X162659238Y-111533857D01*
X162611619Y-111557666D01*
X162564000Y-111605285D01*
X162540190Y-111676714D01*
X162540190Y-111724333D01*
X162564000Y-111795761D01*
X162587809Y-111819571D01*
X162540190Y-112248142D02*
X162540190Y-112152904D01*
X162564000Y-112105285D01*
X162587809Y-112081476D01*
X162659238Y-112033857D01*
X162754476Y-112010047D01*
X162944952Y-112010047D01*
X162992571Y-112033857D01*
X163016380Y-112057666D01*
X163040190Y-112105285D01*
X163040190Y-112200523D01*
X163016380Y-112248142D01*
X162992571Y-112271952D01*
X162944952Y-112295761D01*
X162825904Y-112295761D01*
X162778285Y-112271952D01*
X162754476Y-112248142D01*
X162730666Y-112200523D01*
X162730666Y-112105285D01*
X162754476Y-112057666D01*
X162778285Y-112033857D01*
X162825904Y-112010047D01*
X162540190Y-112462428D02*
X162540190Y-112795761D01*
X163040190Y-112581476D01*
%TO.C,C66*%
X162992571Y-136203571D02*
X163016380Y-136179761D01*
X163040190Y-136108333D01*
X163040190Y-136060714D01*
X163016380Y-135989285D01*
X162968761Y-135941666D01*
X162921142Y-135917857D01*
X162825904Y-135894047D01*
X162754476Y-135894047D01*
X162659238Y-135917857D01*
X162611619Y-135941666D01*
X162564000Y-135989285D01*
X162540190Y-136060714D01*
X162540190Y-136108333D01*
X162564000Y-136179761D01*
X162587809Y-136203571D01*
X162540190Y-136632142D02*
X162540190Y-136536904D01*
X162564000Y-136489285D01*
X162587809Y-136465476D01*
X162659238Y-136417857D01*
X162754476Y-136394047D01*
X162944952Y-136394047D01*
X162992571Y-136417857D01*
X163016380Y-136441666D01*
X163040190Y-136489285D01*
X163040190Y-136584523D01*
X163016380Y-136632142D01*
X162992571Y-136655952D01*
X162944952Y-136679761D01*
X162825904Y-136679761D01*
X162778285Y-136655952D01*
X162754476Y-136632142D01*
X162730666Y-136584523D01*
X162730666Y-136489285D01*
X162754476Y-136441666D01*
X162778285Y-136417857D01*
X162825904Y-136394047D01*
X162540190Y-137108333D02*
X162540190Y-137013095D01*
X162564000Y-136965476D01*
X162587809Y-136941666D01*
X162659238Y-136894047D01*
X162754476Y-136870238D01*
X162944952Y-136870238D01*
X162992571Y-136894047D01*
X163016380Y-136917857D01*
X163040190Y-136965476D01*
X163040190Y-137060714D01*
X163016380Y-137108333D01*
X162992571Y-137132142D01*
X162944952Y-137155952D01*
X162825904Y-137155952D01*
X162778285Y-137132142D01*
X162754476Y-137108333D01*
X162730666Y-137060714D01*
X162730666Y-136965476D01*
X162754476Y-136917857D01*
X162778285Y-136894047D01*
X162825904Y-136870238D01*
%TO.C,C65*%
X170358571Y-128456571D02*
X170382380Y-128432761D01*
X170406190Y-128361333D01*
X170406190Y-128313714D01*
X170382380Y-128242285D01*
X170334761Y-128194666D01*
X170287142Y-128170857D01*
X170191904Y-128147047D01*
X170120476Y-128147047D01*
X170025238Y-128170857D01*
X169977619Y-128194666D01*
X169930000Y-128242285D01*
X169906190Y-128313714D01*
X169906190Y-128361333D01*
X169930000Y-128432761D01*
X169953809Y-128456571D01*
X169906190Y-128885142D02*
X169906190Y-128789904D01*
X169930000Y-128742285D01*
X169953809Y-128718476D01*
X170025238Y-128670857D01*
X170120476Y-128647047D01*
X170310952Y-128647047D01*
X170358571Y-128670857D01*
X170382380Y-128694666D01*
X170406190Y-128742285D01*
X170406190Y-128837523D01*
X170382380Y-128885142D01*
X170358571Y-128908952D01*
X170310952Y-128932761D01*
X170191904Y-128932761D01*
X170144285Y-128908952D01*
X170120476Y-128885142D01*
X170096666Y-128837523D01*
X170096666Y-128742285D01*
X170120476Y-128694666D01*
X170144285Y-128670857D01*
X170191904Y-128647047D01*
X169906190Y-129385142D02*
X169906190Y-129147047D01*
X170144285Y-129123238D01*
X170120476Y-129147047D01*
X170096666Y-129194666D01*
X170096666Y-129313714D01*
X170120476Y-129361333D01*
X170144285Y-129385142D01*
X170191904Y-129408952D01*
X170310952Y-129408952D01*
X170358571Y-129385142D01*
X170382380Y-129361333D01*
X170406190Y-129313714D01*
X170406190Y-129194666D01*
X170382380Y-129147047D01*
X170358571Y-129123238D01*
%TO.C,C64*%
X170358571Y-104199571D02*
X170382380Y-104175761D01*
X170406190Y-104104333D01*
X170406190Y-104056714D01*
X170382380Y-103985285D01*
X170334761Y-103937666D01*
X170287142Y-103913857D01*
X170191904Y-103890047D01*
X170120476Y-103890047D01*
X170025238Y-103913857D01*
X169977619Y-103937666D01*
X169930000Y-103985285D01*
X169906190Y-104056714D01*
X169906190Y-104104333D01*
X169930000Y-104175761D01*
X169953809Y-104199571D01*
X169906190Y-104628142D02*
X169906190Y-104532904D01*
X169930000Y-104485285D01*
X169953809Y-104461476D01*
X170025238Y-104413857D01*
X170120476Y-104390047D01*
X170310952Y-104390047D01*
X170358571Y-104413857D01*
X170382380Y-104437666D01*
X170406190Y-104485285D01*
X170406190Y-104580523D01*
X170382380Y-104628142D01*
X170358571Y-104651952D01*
X170310952Y-104675761D01*
X170191904Y-104675761D01*
X170144285Y-104651952D01*
X170120476Y-104628142D01*
X170096666Y-104580523D01*
X170096666Y-104485285D01*
X170120476Y-104437666D01*
X170144285Y-104413857D01*
X170191904Y-104390047D01*
X170072857Y-105104333D02*
X170406190Y-105104333D01*
X169882380Y-104985285D02*
X170239523Y-104866238D01*
X170239523Y-105175761D01*
%TO.C,C63*%
X162992571Y-108771571D02*
X163016380Y-108747761D01*
X163040190Y-108676333D01*
X163040190Y-108628714D01*
X163016380Y-108557285D01*
X162968761Y-108509666D01*
X162921142Y-108485857D01*
X162825904Y-108462047D01*
X162754476Y-108462047D01*
X162659238Y-108485857D01*
X162611619Y-108509666D01*
X162564000Y-108557285D01*
X162540190Y-108628714D01*
X162540190Y-108676333D01*
X162564000Y-108747761D01*
X162587809Y-108771571D01*
X162540190Y-109200142D02*
X162540190Y-109104904D01*
X162564000Y-109057285D01*
X162587809Y-109033476D01*
X162659238Y-108985857D01*
X162754476Y-108962047D01*
X162944952Y-108962047D01*
X162992571Y-108985857D01*
X163016380Y-109009666D01*
X163040190Y-109057285D01*
X163040190Y-109152523D01*
X163016380Y-109200142D01*
X162992571Y-109223952D01*
X162944952Y-109247761D01*
X162825904Y-109247761D01*
X162778285Y-109223952D01*
X162754476Y-109200142D01*
X162730666Y-109152523D01*
X162730666Y-109057285D01*
X162754476Y-109009666D01*
X162778285Y-108985857D01*
X162825904Y-108962047D01*
X162540190Y-109414428D02*
X162540190Y-109723952D01*
X162730666Y-109557285D01*
X162730666Y-109628714D01*
X162754476Y-109676333D01*
X162778285Y-109700142D01*
X162825904Y-109723952D01*
X162944952Y-109723952D01*
X162992571Y-109700142D01*
X163016380Y-109676333D01*
X163040190Y-109628714D01*
X163040190Y-109485857D01*
X163016380Y-109438238D01*
X162992571Y-109414428D01*
%TO.C,C62*%
X162992571Y-133155571D02*
X163016380Y-133131761D01*
X163040190Y-133060333D01*
X163040190Y-133012714D01*
X163016380Y-132941285D01*
X162968761Y-132893666D01*
X162921142Y-132869857D01*
X162825904Y-132846047D01*
X162754476Y-132846047D01*
X162659238Y-132869857D01*
X162611619Y-132893666D01*
X162564000Y-132941285D01*
X162540190Y-133012714D01*
X162540190Y-133060333D01*
X162564000Y-133131761D01*
X162587809Y-133155571D01*
X162540190Y-133584142D02*
X162540190Y-133488904D01*
X162564000Y-133441285D01*
X162587809Y-133417476D01*
X162659238Y-133369857D01*
X162754476Y-133346047D01*
X162944952Y-133346047D01*
X162992571Y-133369857D01*
X163016380Y-133393666D01*
X163040190Y-133441285D01*
X163040190Y-133536523D01*
X163016380Y-133584142D01*
X162992571Y-133607952D01*
X162944952Y-133631761D01*
X162825904Y-133631761D01*
X162778285Y-133607952D01*
X162754476Y-133584142D01*
X162730666Y-133536523D01*
X162730666Y-133441285D01*
X162754476Y-133393666D01*
X162778285Y-133369857D01*
X162825904Y-133346047D01*
X162587809Y-133822238D02*
X162564000Y-133846047D01*
X162540190Y-133893666D01*
X162540190Y-134012714D01*
X162564000Y-134060333D01*
X162587809Y-134084142D01*
X162635428Y-134107952D01*
X162683047Y-134107952D01*
X162754476Y-134084142D01*
X163040190Y-133798428D01*
X163040190Y-134107952D01*
%TO.C,C61*%
X162992571Y-105787071D02*
X163016380Y-105763261D01*
X163040190Y-105691833D01*
X163040190Y-105644214D01*
X163016380Y-105572785D01*
X162968761Y-105525166D01*
X162921142Y-105501357D01*
X162825904Y-105477547D01*
X162754476Y-105477547D01*
X162659238Y-105501357D01*
X162611619Y-105525166D01*
X162564000Y-105572785D01*
X162540190Y-105644214D01*
X162540190Y-105691833D01*
X162564000Y-105763261D01*
X162587809Y-105787071D01*
X162540190Y-106215642D02*
X162540190Y-106120404D01*
X162564000Y-106072785D01*
X162587809Y-106048976D01*
X162659238Y-106001357D01*
X162754476Y-105977547D01*
X162944952Y-105977547D01*
X162992571Y-106001357D01*
X163016380Y-106025166D01*
X163040190Y-106072785D01*
X163040190Y-106168023D01*
X163016380Y-106215642D01*
X162992571Y-106239452D01*
X162944952Y-106263261D01*
X162825904Y-106263261D01*
X162778285Y-106239452D01*
X162754476Y-106215642D01*
X162730666Y-106168023D01*
X162730666Y-106072785D01*
X162754476Y-106025166D01*
X162778285Y-106001357D01*
X162825904Y-105977547D01*
X163040190Y-106739452D02*
X163040190Y-106453738D01*
X163040190Y-106596595D02*
X162540190Y-106596595D01*
X162611619Y-106548976D01*
X162659238Y-106501357D01*
X162683047Y-106453738D01*
%TO.C,C60*%
X162992571Y-130107571D02*
X163016380Y-130083761D01*
X163040190Y-130012333D01*
X163040190Y-129964714D01*
X163016380Y-129893285D01*
X162968761Y-129845666D01*
X162921142Y-129821857D01*
X162825904Y-129798047D01*
X162754476Y-129798047D01*
X162659238Y-129821857D01*
X162611619Y-129845666D01*
X162564000Y-129893285D01*
X162540190Y-129964714D01*
X162540190Y-130012333D01*
X162564000Y-130083761D01*
X162587809Y-130107571D01*
X162540190Y-130536142D02*
X162540190Y-130440904D01*
X162564000Y-130393285D01*
X162587809Y-130369476D01*
X162659238Y-130321857D01*
X162754476Y-130298047D01*
X162944952Y-130298047D01*
X162992571Y-130321857D01*
X163016380Y-130345666D01*
X163040190Y-130393285D01*
X163040190Y-130488523D01*
X163016380Y-130536142D01*
X162992571Y-130559952D01*
X162944952Y-130583761D01*
X162825904Y-130583761D01*
X162778285Y-130559952D01*
X162754476Y-130536142D01*
X162730666Y-130488523D01*
X162730666Y-130393285D01*
X162754476Y-130345666D01*
X162778285Y-130321857D01*
X162825904Y-130298047D01*
X162540190Y-130893285D02*
X162540190Y-130940904D01*
X162564000Y-130988523D01*
X162587809Y-131012333D01*
X162635428Y-131036142D01*
X162730666Y-131059952D01*
X162849714Y-131059952D01*
X162944952Y-131036142D01*
X162992571Y-131012333D01*
X163016380Y-130988523D01*
X163040190Y-130940904D01*
X163040190Y-130893285D01*
X163016380Y-130845666D01*
X162992571Y-130821857D01*
X162944952Y-130798047D01*
X162849714Y-130774238D01*
X162730666Y-130774238D01*
X162635428Y-130798047D01*
X162587809Y-130821857D01*
X162564000Y-130845666D01*
X162540190Y-130893285D01*
%TO.C,C59*%
X162992571Y-102675571D02*
X163016380Y-102651761D01*
X163040190Y-102580333D01*
X163040190Y-102532714D01*
X163016380Y-102461285D01*
X162968761Y-102413666D01*
X162921142Y-102389857D01*
X162825904Y-102366047D01*
X162754476Y-102366047D01*
X162659238Y-102389857D01*
X162611619Y-102413666D01*
X162564000Y-102461285D01*
X162540190Y-102532714D01*
X162540190Y-102580333D01*
X162564000Y-102651761D01*
X162587809Y-102675571D01*
X162540190Y-103127952D02*
X162540190Y-102889857D01*
X162778285Y-102866047D01*
X162754476Y-102889857D01*
X162730666Y-102937476D01*
X162730666Y-103056523D01*
X162754476Y-103104142D01*
X162778285Y-103127952D01*
X162825904Y-103151761D01*
X162944952Y-103151761D01*
X162992571Y-103127952D01*
X163016380Y-103104142D01*
X163040190Y-103056523D01*
X163040190Y-102937476D01*
X163016380Y-102889857D01*
X162992571Y-102866047D01*
X163040190Y-103389857D02*
X163040190Y-103485095D01*
X163016380Y-103532714D01*
X162992571Y-103556523D01*
X162921142Y-103604142D01*
X162825904Y-103627952D01*
X162635428Y-103627952D01*
X162587809Y-103604142D01*
X162564000Y-103580333D01*
X162540190Y-103532714D01*
X162540190Y-103437476D01*
X162564000Y-103389857D01*
X162587809Y-103366047D01*
X162635428Y-103342238D01*
X162754476Y-103342238D01*
X162802095Y-103366047D01*
X162825904Y-103389857D01*
X162849714Y-103437476D01*
X162849714Y-103532714D01*
X162825904Y-103580333D01*
X162802095Y-103604142D01*
X162754476Y-103627952D01*
%TO.C,C58*%
X162992571Y-127059571D02*
X163016380Y-127035761D01*
X163040190Y-126964333D01*
X163040190Y-126916714D01*
X163016380Y-126845285D01*
X162968761Y-126797666D01*
X162921142Y-126773857D01*
X162825904Y-126750047D01*
X162754476Y-126750047D01*
X162659238Y-126773857D01*
X162611619Y-126797666D01*
X162564000Y-126845285D01*
X162540190Y-126916714D01*
X162540190Y-126964333D01*
X162564000Y-127035761D01*
X162587809Y-127059571D01*
X162540190Y-127511952D02*
X162540190Y-127273857D01*
X162778285Y-127250047D01*
X162754476Y-127273857D01*
X162730666Y-127321476D01*
X162730666Y-127440523D01*
X162754476Y-127488142D01*
X162778285Y-127511952D01*
X162825904Y-127535761D01*
X162944952Y-127535761D01*
X162992571Y-127511952D01*
X163016380Y-127488142D01*
X163040190Y-127440523D01*
X163040190Y-127321476D01*
X163016380Y-127273857D01*
X162992571Y-127250047D01*
X162754476Y-127821476D02*
X162730666Y-127773857D01*
X162706857Y-127750047D01*
X162659238Y-127726238D01*
X162635428Y-127726238D01*
X162587809Y-127750047D01*
X162564000Y-127773857D01*
X162540190Y-127821476D01*
X162540190Y-127916714D01*
X162564000Y-127964333D01*
X162587809Y-127988142D01*
X162635428Y-128011952D01*
X162659238Y-128011952D01*
X162706857Y-127988142D01*
X162730666Y-127964333D01*
X162754476Y-127916714D01*
X162754476Y-127821476D01*
X162778285Y-127773857D01*
X162802095Y-127750047D01*
X162849714Y-127726238D01*
X162944952Y-127726238D01*
X162992571Y-127750047D01*
X163016380Y-127773857D01*
X163040190Y-127821476D01*
X163040190Y-127916714D01*
X163016380Y-127964333D01*
X162992571Y-127988142D01*
X162944952Y-128011952D01*
X162849714Y-128011952D01*
X162802095Y-127988142D01*
X162778285Y-127964333D01*
X162754476Y-127916714D01*
%TO.C,C57*%
X162992571Y-99627571D02*
X163016380Y-99603761D01*
X163040190Y-99532333D01*
X163040190Y-99484714D01*
X163016380Y-99413285D01*
X162968761Y-99365666D01*
X162921142Y-99341857D01*
X162825904Y-99318047D01*
X162754476Y-99318047D01*
X162659238Y-99341857D01*
X162611619Y-99365666D01*
X162564000Y-99413285D01*
X162540190Y-99484714D01*
X162540190Y-99532333D01*
X162564000Y-99603761D01*
X162587809Y-99627571D01*
X162540190Y-100079952D02*
X162540190Y-99841857D01*
X162778285Y-99818047D01*
X162754476Y-99841857D01*
X162730666Y-99889476D01*
X162730666Y-100008523D01*
X162754476Y-100056142D01*
X162778285Y-100079952D01*
X162825904Y-100103761D01*
X162944952Y-100103761D01*
X162992571Y-100079952D01*
X163016380Y-100056142D01*
X163040190Y-100008523D01*
X163040190Y-99889476D01*
X163016380Y-99841857D01*
X162992571Y-99818047D01*
X162540190Y-100270428D02*
X162540190Y-100603761D01*
X163040190Y-100389476D01*
%TO.C,C56*%
X162992571Y-124011571D02*
X163016380Y-123987761D01*
X163040190Y-123916333D01*
X163040190Y-123868714D01*
X163016380Y-123797285D01*
X162968761Y-123749666D01*
X162921142Y-123725857D01*
X162825904Y-123702047D01*
X162754476Y-123702047D01*
X162659238Y-123725857D01*
X162611619Y-123749666D01*
X162564000Y-123797285D01*
X162540190Y-123868714D01*
X162540190Y-123916333D01*
X162564000Y-123987761D01*
X162587809Y-124011571D01*
X162540190Y-124463952D02*
X162540190Y-124225857D01*
X162778285Y-124202047D01*
X162754476Y-124225857D01*
X162730666Y-124273476D01*
X162730666Y-124392523D01*
X162754476Y-124440142D01*
X162778285Y-124463952D01*
X162825904Y-124487761D01*
X162944952Y-124487761D01*
X162992571Y-124463952D01*
X163016380Y-124440142D01*
X163040190Y-124392523D01*
X163040190Y-124273476D01*
X163016380Y-124225857D01*
X162992571Y-124202047D01*
X162540190Y-124916333D02*
X162540190Y-124821095D01*
X162564000Y-124773476D01*
X162587809Y-124749666D01*
X162659238Y-124702047D01*
X162754476Y-124678238D01*
X162944952Y-124678238D01*
X162992571Y-124702047D01*
X163016380Y-124725857D01*
X163040190Y-124773476D01*
X163040190Y-124868714D01*
X163016380Y-124916333D01*
X162992571Y-124940142D01*
X162944952Y-124963952D01*
X162825904Y-124963952D01*
X162778285Y-124940142D01*
X162754476Y-124916333D01*
X162730666Y-124868714D01*
X162730666Y-124773476D01*
X162754476Y-124725857D01*
X162778285Y-124702047D01*
X162825904Y-124678238D01*
%TO.C,C55*%
X162992571Y-96579571D02*
X163016380Y-96555761D01*
X163040190Y-96484333D01*
X163040190Y-96436714D01*
X163016380Y-96365285D01*
X162968761Y-96317666D01*
X162921142Y-96293857D01*
X162825904Y-96270047D01*
X162754476Y-96270047D01*
X162659238Y-96293857D01*
X162611619Y-96317666D01*
X162564000Y-96365285D01*
X162540190Y-96436714D01*
X162540190Y-96484333D01*
X162564000Y-96555761D01*
X162587809Y-96579571D01*
X162540190Y-97031952D02*
X162540190Y-96793857D01*
X162778285Y-96770047D01*
X162754476Y-96793857D01*
X162730666Y-96841476D01*
X162730666Y-96960523D01*
X162754476Y-97008142D01*
X162778285Y-97031952D01*
X162825904Y-97055761D01*
X162944952Y-97055761D01*
X162992571Y-97031952D01*
X163016380Y-97008142D01*
X163040190Y-96960523D01*
X163040190Y-96841476D01*
X163016380Y-96793857D01*
X162992571Y-96770047D01*
X162540190Y-97508142D02*
X162540190Y-97270047D01*
X162778285Y-97246238D01*
X162754476Y-97270047D01*
X162730666Y-97317666D01*
X162730666Y-97436714D01*
X162754476Y-97484333D01*
X162778285Y-97508142D01*
X162825904Y-97531952D01*
X162944952Y-97531952D01*
X162992571Y-97508142D01*
X163016380Y-97484333D01*
X163040190Y-97436714D01*
X163040190Y-97317666D01*
X163016380Y-97270047D01*
X162992571Y-97246238D01*
%TO.C,C54*%
X162992571Y-120963571D02*
X163016380Y-120939761D01*
X163040190Y-120868333D01*
X163040190Y-120820714D01*
X163016380Y-120749285D01*
X162968761Y-120701666D01*
X162921142Y-120677857D01*
X162825904Y-120654047D01*
X162754476Y-120654047D01*
X162659238Y-120677857D01*
X162611619Y-120701666D01*
X162564000Y-120749285D01*
X162540190Y-120820714D01*
X162540190Y-120868333D01*
X162564000Y-120939761D01*
X162587809Y-120963571D01*
X162540190Y-121415952D02*
X162540190Y-121177857D01*
X162778285Y-121154047D01*
X162754476Y-121177857D01*
X162730666Y-121225476D01*
X162730666Y-121344523D01*
X162754476Y-121392142D01*
X162778285Y-121415952D01*
X162825904Y-121439761D01*
X162944952Y-121439761D01*
X162992571Y-121415952D01*
X163016380Y-121392142D01*
X163040190Y-121344523D01*
X163040190Y-121225476D01*
X163016380Y-121177857D01*
X162992571Y-121154047D01*
X162706857Y-121868333D02*
X163040190Y-121868333D01*
X162516380Y-121749285D02*
X162873523Y-121630238D01*
X162873523Y-121939761D01*
%TO.C,C53*%
X162992571Y-93531571D02*
X163016380Y-93507761D01*
X163040190Y-93436333D01*
X163040190Y-93388714D01*
X163016380Y-93317285D01*
X162968761Y-93269666D01*
X162921142Y-93245857D01*
X162825904Y-93222047D01*
X162754476Y-93222047D01*
X162659238Y-93245857D01*
X162611619Y-93269666D01*
X162564000Y-93317285D01*
X162540190Y-93388714D01*
X162540190Y-93436333D01*
X162564000Y-93507761D01*
X162587809Y-93531571D01*
X162540190Y-93983952D02*
X162540190Y-93745857D01*
X162778285Y-93722047D01*
X162754476Y-93745857D01*
X162730666Y-93793476D01*
X162730666Y-93912523D01*
X162754476Y-93960142D01*
X162778285Y-93983952D01*
X162825904Y-94007761D01*
X162944952Y-94007761D01*
X162992571Y-93983952D01*
X163016380Y-93960142D01*
X163040190Y-93912523D01*
X163040190Y-93793476D01*
X163016380Y-93745857D01*
X162992571Y-93722047D01*
X162540190Y-94174428D02*
X162540190Y-94483952D01*
X162730666Y-94317285D01*
X162730666Y-94388714D01*
X162754476Y-94436333D01*
X162778285Y-94460142D01*
X162825904Y-94483952D01*
X162944952Y-94483952D01*
X162992571Y-94460142D01*
X163016380Y-94436333D01*
X163040190Y-94388714D01*
X163040190Y-94245857D01*
X163016380Y-94198238D01*
X162992571Y-94174428D01*
%TO.C,C52*%
X162992571Y-117915571D02*
X163016380Y-117891761D01*
X163040190Y-117820333D01*
X163040190Y-117772714D01*
X163016380Y-117701285D01*
X162968761Y-117653666D01*
X162921142Y-117629857D01*
X162825904Y-117606047D01*
X162754476Y-117606047D01*
X162659238Y-117629857D01*
X162611619Y-117653666D01*
X162564000Y-117701285D01*
X162540190Y-117772714D01*
X162540190Y-117820333D01*
X162564000Y-117891761D01*
X162587809Y-117915571D01*
X162540190Y-118367952D02*
X162540190Y-118129857D01*
X162778285Y-118106047D01*
X162754476Y-118129857D01*
X162730666Y-118177476D01*
X162730666Y-118296523D01*
X162754476Y-118344142D01*
X162778285Y-118367952D01*
X162825904Y-118391761D01*
X162944952Y-118391761D01*
X162992571Y-118367952D01*
X163016380Y-118344142D01*
X163040190Y-118296523D01*
X163040190Y-118177476D01*
X163016380Y-118129857D01*
X162992571Y-118106047D01*
X162587809Y-118582238D02*
X162564000Y-118606047D01*
X162540190Y-118653666D01*
X162540190Y-118772714D01*
X162564000Y-118820333D01*
X162587809Y-118844142D01*
X162635428Y-118867952D01*
X162683047Y-118867952D01*
X162754476Y-118844142D01*
X163040190Y-118558428D01*
X163040190Y-118867952D01*
%TO.C,C51*%
X162992571Y-90483571D02*
X163016380Y-90459761D01*
X163040190Y-90388333D01*
X163040190Y-90340714D01*
X163016380Y-90269285D01*
X162968761Y-90221666D01*
X162921142Y-90197857D01*
X162825904Y-90174047D01*
X162754476Y-90174047D01*
X162659238Y-90197857D01*
X162611619Y-90221666D01*
X162564000Y-90269285D01*
X162540190Y-90340714D01*
X162540190Y-90388333D01*
X162564000Y-90459761D01*
X162587809Y-90483571D01*
X162540190Y-90935952D02*
X162540190Y-90697857D01*
X162778285Y-90674047D01*
X162754476Y-90697857D01*
X162730666Y-90745476D01*
X162730666Y-90864523D01*
X162754476Y-90912142D01*
X162778285Y-90935952D01*
X162825904Y-90959761D01*
X162944952Y-90959761D01*
X162992571Y-90935952D01*
X163016380Y-90912142D01*
X163040190Y-90864523D01*
X163040190Y-90745476D01*
X163016380Y-90697857D01*
X162992571Y-90674047D01*
X163040190Y-91435952D02*
X163040190Y-91150238D01*
X163040190Y-91293095D02*
X162540190Y-91293095D01*
X162611619Y-91245476D01*
X162659238Y-91197857D01*
X162683047Y-91150238D01*
%TO.C,C48*%
X128829571Y-76132571D02*
X128853380Y-76108761D01*
X128877190Y-76037333D01*
X128877190Y-75989714D01*
X128853380Y-75918285D01*
X128805761Y-75870666D01*
X128758142Y-75846857D01*
X128662904Y-75823047D01*
X128591476Y-75823047D01*
X128496238Y-75846857D01*
X128448619Y-75870666D01*
X128401000Y-75918285D01*
X128377190Y-75989714D01*
X128377190Y-76037333D01*
X128401000Y-76108761D01*
X128424809Y-76132571D01*
X128543857Y-76561142D02*
X128877190Y-76561142D01*
X128353380Y-76442095D02*
X128710523Y-76323047D01*
X128710523Y-76632571D01*
X128591476Y-76894476D02*
X128567666Y-76846857D01*
X128543857Y-76823047D01*
X128496238Y-76799238D01*
X128472428Y-76799238D01*
X128424809Y-76823047D01*
X128401000Y-76846857D01*
X128377190Y-76894476D01*
X128377190Y-76989714D01*
X128401000Y-77037333D01*
X128424809Y-77061142D01*
X128472428Y-77084952D01*
X128496238Y-77084952D01*
X128543857Y-77061142D01*
X128567666Y-77037333D01*
X128591476Y-76989714D01*
X128591476Y-76894476D01*
X128615285Y-76846857D01*
X128639095Y-76823047D01*
X128686714Y-76799238D01*
X128781952Y-76799238D01*
X128829571Y-76823047D01*
X128853380Y-76846857D01*
X128877190Y-76894476D01*
X128877190Y-76989714D01*
X128853380Y-77037333D01*
X128829571Y-77061142D01*
X128781952Y-77084952D01*
X128686714Y-77084952D01*
X128639095Y-77061142D01*
X128615285Y-77037333D01*
X128591476Y-76989714D01*
%TO.C,C47*%
X178326571Y-129980571D02*
X178350380Y-129956761D01*
X178374190Y-129885333D01*
X178374190Y-129837714D01*
X178350380Y-129766285D01*
X178302761Y-129718666D01*
X178255142Y-129694857D01*
X178159904Y-129671047D01*
X178088476Y-129671047D01*
X177993238Y-129694857D01*
X177945619Y-129718666D01*
X177898000Y-129766285D01*
X177874190Y-129837714D01*
X177874190Y-129885333D01*
X177898000Y-129956761D01*
X177921809Y-129980571D01*
X178040857Y-130409142D02*
X178374190Y-130409142D01*
X177850380Y-130290095D02*
X178207523Y-130171047D01*
X178207523Y-130480571D01*
X177874190Y-130623428D02*
X177874190Y-130956761D01*
X178374190Y-130742476D01*
%TO.C,C46*%
X177367428Y-126051428D02*
X177343619Y-126075238D01*
X177319809Y-126146666D01*
X177319809Y-126194285D01*
X177343619Y-126265714D01*
X177391238Y-126313333D01*
X177438857Y-126337142D01*
X177534095Y-126360952D01*
X177605523Y-126360952D01*
X177700761Y-126337142D01*
X177748380Y-126313333D01*
X177796000Y-126265714D01*
X177819809Y-126194285D01*
X177819809Y-126146666D01*
X177796000Y-126075238D01*
X177772190Y-126051428D01*
X177653142Y-125622857D02*
X177319809Y-125622857D01*
X177843619Y-125741904D02*
X177486476Y-125860952D01*
X177486476Y-125551428D01*
X177819809Y-125146666D02*
X177819809Y-125241904D01*
X177796000Y-125289523D01*
X177772190Y-125313333D01*
X177700761Y-125360952D01*
X177605523Y-125384761D01*
X177415047Y-125384761D01*
X177367428Y-125360952D01*
X177343619Y-125337142D01*
X177319809Y-125289523D01*
X177319809Y-125194285D01*
X177343619Y-125146666D01*
X177367428Y-125122857D01*
X177415047Y-125099047D01*
X177534095Y-125099047D01*
X177581714Y-125122857D01*
X177605523Y-125146666D01*
X177629333Y-125194285D01*
X177629333Y-125289523D01*
X177605523Y-125337142D01*
X177581714Y-125360952D01*
X177534095Y-125384761D01*
%TO.C,C23*%
X150943428Y-114097571D02*
X150967238Y-114121380D01*
X151038666Y-114145190D01*
X151086285Y-114145190D01*
X151157714Y-114121380D01*
X151205333Y-114073761D01*
X151229142Y-114026142D01*
X151252952Y-113930904D01*
X151252952Y-113859476D01*
X151229142Y-113764238D01*
X151205333Y-113716619D01*
X151157714Y-113669000D01*
X151086285Y-113645190D01*
X151038666Y-113645190D01*
X150967238Y-113669000D01*
X150943428Y-113692809D01*
X150752952Y-113692809D02*
X150729142Y-113669000D01*
X150681523Y-113645190D01*
X150562476Y-113645190D01*
X150514857Y-113669000D01*
X150491047Y-113692809D01*
X150467238Y-113740428D01*
X150467238Y-113788047D01*
X150491047Y-113859476D01*
X150776761Y-114145190D01*
X150467238Y-114145190D01*
X150300571Y-113645190D02*
X149991047Y-113645190D01*
X150157714Y-113835666D01*
X150086285Y-113835666D01*
X150038666Y-113859476D01*
X150014857Y-113883285D01*
X149991047Y-113930904D01*
X149991047Y-114049952D01*
X150014857Y-114097571D01*
X150038666Y-114121380D01*
X150086285Y-114145190D01*
X150229142Y-114145190D01*
X150276761Y-114121380D01*
X150300571Y-114097571D01*
%TO.C,C22*%
X150943428Y-89332571D02*
X150967238Y-89356380D01*
X151038666Y-89380190D01*
X151086285Y-89380190D01*
X151157714Y-89356380D01*
X151205333Y-89308761D01*
X151229142Y-89261142D01*
X151252952Y-89165904D01*
X151252952Y-89094476D01*
X151229142Y-88999238D01*
X151205333Y-88951619D01*
X151157714Y-88904000D01*
X151086285Y-88880190D01*
X151038666Y-88880190D01*
X150967238Y-88904000D01*
X150943428Y-88927809D01*
X150752952Y-88927809D02*
X150729142Y-88904000D01*
X150681523Y-88880190D01*
X150562476Y-88880190D01*
X150514857Y-88904000D01*
X150491047Y-88927809D01*
X150467238Y-88975428D01*
X150467238Y-89023047D01*
X150491047Y-89094476D01*
X150776761Y-89380190D01*
X150467238Y-89380190D01*
X150276761Y-88927809D02*
X150252952Y-88904000D01*
X150205333Y-88880190D01*
X150086285Y-88880190D01*
X150038666Y-88904000D01*
X150014857Y-88927809D01*
X149991047Y-88975428D01*
X149991047Y-89023047D01*
X150014857Y-89094476D01*
X150300571Y-89380190D01*
X149991047Y-89380190D01*
%TO.C,C21*%
X152959571Y-96833571D02*
X152983380Y-96809761D01*
X153007190Y-96738333D01*
X153007190Y-96690714D01*
X152983380Y-96619285D01*
X152935761Y-96571666D01*
X152888142Y-96547857D01*
X152792904Y-96524047D01*
X152721476Y-96524047D01*
X152626238Y-96547857D01*
X152578619Y-96571666D01*
X152531000Y-96619285D01*
X152507190Y-96690714D01*
X152507190Y-96738333D01*
X152531000Y-96809761D01*
X152554809Y-96833571D01*
X152554809Y-97024047D02*
X152531000Y-97047857D01*
X152507190Y-97095476D01*
X152507190Y-97214523D01*
X152531000Y-97262142D01*
X152554809Y-97285952D01*
X152602428Y-97309761D01*
X152650047Y-97309761D01*
X152721476Y-97285952D01*
X153007190Y-97000238D01*
X153007190Y-97309761D01*
X153007190Y-97785952D02*
X153007190Y-97500238D01*
X153007190Y-97643095D02*
X152507190Y-97643095D01*
X152578619Y-97595476D01*
X152626238Y-97547857D01*
X152650047Y-97500238D01*
%TO.C,C20*%
X151197428Y-137719571D02*
X151221238Y-137743380D01*
X151292666Y-137767190D01*
X151340285Y-137767190D01*
X151411714Y-137743380D01*
X151459333Y-137695761D01*
X151483142Y-137648142D01*
X151506952Y-137552904D01*
X151506952Y-137481476D01*
X151483142Y-137386238D01*
X151459333Y-137338619D01*
X151411714Y-137291000D01*
X151340285Y-137267190D01*
X151292666Y-137267190D01*
X151221238Y-137291000D01*
X151197428Y-137314809D01*
X151006952Y-137314809D02*
X150983142Y-137291000D01*
X150935523Y-137267190D01*
X150816476Y-137267190D01*
X150768857Y-137291000D01*
X150745047Y-137314809D01*
X150721238Y-137362428D01*
X150721238Y-137410047D01*
X150745047Y-137481476D01*
X151030761Y-137767190D01*
X150721238Y-137767190D01*
X150411714Y-137267190D02*
X150364095Y-137267190D01*
X150316476Y-137291000D01*
X150292666Y-137314809D01*
X150268857Y-137362428D01*
X150245047Y-137457666D01*
X150245047Y-137576714D01*
X150268857Y-137671952D01*
X150292666Y-137719571D01*
X150316476Y-137743380D01*
X150364095Y-137767190D01*
X150411714Y-137767190D01*
X150459333Y-137743380D01*
X150483142Y-137719571D01*
X150506952Y-137671952D01*
X150530761Y-137576714D01*
X150530761Y-137457666D01*
X150506952Y-137362428D01*
X150483142Y-137314809D01*
X150459333Y-137291000D01*
X150411714Y-137267190D01*
%TO.C,C19*%
X151197428Y-120701571D02*
X151221238Y-120725380D01*
X151292666Y-120749190D01*
X151340285Y-120749190D01*
X151411714Y-120725380D01*
X151459333Y-120677761D01*
X151483142Y-120630142D01*
X151506952Y-120534904D01*
X151506952Y-120463476D01*
X151483142Y-120368238D01*
X151459333Y-120320619D01*
X151411714Y-120273000D01*
X151340285Y-120249190D01*
X151292666Y-120249190D01*
X151221238Y-120273000D01*
X151197428Y-120296809D01*
X150721238Y-120749190D02*
X151006952Y-120749190D01*
X150864095Y-120749190D02*
X150864095Y-120249190D01*
X150911714Y-120320619D01*
X150959333Y-120368238D01*
X151006952Y-120392047D01*
X150483142Y-120749190D02*
X150387904Y-120749190D01*
X150340285Y-120725380D01*
X150316476Y-120701571D01*
X150268857Y-120630142D01*
X150245047Y-120534904D01*
X150245047Y-120344428D01*
X150268857Y-120296809D01*
X150292666Y-120273000D01*
X150340285Y-120249190D01*
X150435523Y-120249190D01*
X150483142Y-120273000D01*
X150506952Y-120296809D01*
X150530761Y-120344428D01*
X150530761Y-120463476D01*
X150506952Y-120511095D01*
X150483142Y-120534904D01*
X150435523Y-120558714D01*
X150340285Y-120558714D01*
X150292666Y-120534904D01*
X150268857Y-120511095D01*
X150245047Y-120463476D01*
%TO.C,C16*%
X170358571Y-98230571D02*
X170382380Y-98206761D01*
X170406190Y-98135333D01*
X170406190Y-98087714D01*
X170382380Y-98016285D01*
X170334761Y-97968666D01*
X170287142Y-97944857D01*
X170191904Y-97921047D01*
X170120476Y-97921047D01*
X170025238Y-97944857D01*
X169977619Y-97968666D01*
X169930000Y-98016285D01*
X169906190Y-98087714D01*
X169906190Y-98135333D01*
X169930000Y-98206761D01*
X169953809Y-98230571D01*
X170406190Y-98706761D02*
X170406190Y-98421047D01*
X170406190Y-98563904D02*
X169906190Y-98563904D01*
X169977619Y-98516285D01*
X170025238Y-98468666D01*
X170049047Y-98421047D01*
X169906190Y-99135333D02*
X169906190Y-99040095D01*
X169930000Y-98992476D01*
X169953809Y-98968666D01*
X170025238Y-98921047D01*
X170120476Y-98897238D01*
X170310952Y-98897238D01*
X170358571Y-98921047D01*
X170382380Y-98944857D01*
X170406190Y-98992476D01*
X170406190Y-99087714D01*
X170382380Y-99135333D01*
X170358571Y-99159142D01*
X170310952Y-99182952D01*
X170191904Y-99182952D01*
X170144285Y-99159142D01*
X170120476Y-99135333D01*
X170096666Y-99087714D01*
X170096666Y-98992476D01*
X170120476Y-98944857D01*
X170144285Y-98921047D01*
X170191904Y-98897238D01*
%TO.C,C15*%
X150943428Y-103937571D02*
X150967238Y-103961380D01*
X151038666Y-103985190D01*
X151086285Y-103985190D01*
X151157714Y-103961380D01*
X151205333Y-103913761D01*
X151229142Y-103866142D01*
X151252952Y-103770904D01*
X151252952Y-103699476D01*
X151229142Y-103604238D01*
X151205333Y-103556619D01*
X151157714Y-103509000D01*
X151086285Y-103485190D01*
X151038666Y-103485190D01*
X150967238Y-103509000D01*
X150943428Y-103532809D01*
X150467238Y-103985190D02*
X150752952Y-103985190D01*
X150610095Y-103985190D02*
X150610095Y-103485190D01*
X150657714Y-103556619D01*
X150705333Y-103604238D01*
X150752952Y-103628047D01*
X150014857Y-103485190D02*
X150252952Y-103485190D01*
X150276761Y-103723285D01*
X150252952Y-103699476D01*
X150205333Y-103675666D01*
X150086285Y-103675666D01*
X150038666Y-103699476D01*
X150014857Y-103723285D01*
X149991047Y-103770904D01*
X149991047Y-103889952D01*
X150014857Y-103937571D01*
X150038666Y-103961380D01*
X150086285Y-103985190D01*
X150205333Y-103985190D01*
X150252952Y-103961380D01*
X150276761Y-103937571D01*
%TO.C,C14*%
X150943428Y-128321571D02*
X150967238Y-128345380D01*
X151038666Y-128369190D01*
X151086285Y-128369190D01*
X151157714Y-128345380D01*
X151205333Y-128297761D01*
X151229142Y-128250142D01*
X151252952Y-128154904D01*
X151252952Y-128083476D01*
X151229142Y-127988238D01*
X151205333Y-127940619D01*
X151157714Y-127893000D01*
X151086285Y-127869190D01*
X151038666Y-127869190D01*
X150967238Y-127893000D01*
X150943428Y-127916809D01*
X150467238Y-128369190D02*
X150752952Y-128369190D01*
X150610095Y-128369190D02*
X150610095Y-127869190D01*
X150657714Y-127940619D01*
X150705333Y-127988238D01*
X150752952Y-128012047D01*
X150038666Y-128035857D02*
X150038666Y-128369190D01*
X150157714Y-127845380D02*
X150276761Y-128202523D01*
X149967238Y-128202523D01*
%TO.C,C11*%
X191313571Y-116518571D02*
X191337380Y-116494761D01*
X191361190Y-116423333D01*
X191361190Y-116375714D01*
X191337380Y-116304285D01*
X191289761Y-116256666D01*
X191242142Y-116232857D01*
X191146904Y-116209047D01*
X191075476Y-116209047D01*
X190980238Y-116232857D01*
X190932619Y-116256666D01*
X190885000Y-116304285D01*
X190861190Y-116375714D01*
X190861190Y-116423333D01*
X190885000Y-116494761D01*
X190908809Y-116518571D01*
X191361190Y-116994761D02*
X191361190Y-116709047D01*
X191361190Y-116851904D02*
X190861190Y-116851904D01*
X190932619Y-116804285D01*
X190980238Y-116756666D01*
X191004047Y-116709047D01*
X191361190Y-117470952D02*
X191361190Y-117185238D01*
X191361190Y-117328095D02*
X190861190Y-117328095D01*
X190932619Y-117280476D01*
X190980238Y-117232857D01*
X191004047Y-117185238D01*
%TO.C,C10*%
X191313571Y-114994571D02*
X191337380Y-114970761D01*
X191361190Y-114899333D01*
X191361190Y-114851714D01*
X191337380Y-114780285D01*
X191289761Y-114732666D01*
X191242142Y-114708857D01*
X191146904Y-114685047D01*
X191075476Y-114685047D01*
X190980238Y-114708857D01*
X190932619Y-114732666D01*
X190885000Y-114780285D01*
X190861190Y-114851714D01*
X190861190Y-114899333D01*
X190885000Y-114970761D01*
X190908809Y-114994571D01*
X191361190Y-115470761D02*
X191361190Y-115185047D01*
X191361190Y-115327904D02*
X190861190Y-115327904D01*
X190932619Y-115280285D01*
X190980238Y-115232666D01*
X191004047Y-115185047D01*
X190861190Y-115780285D02*
X190861190Y-115827904D01*
X190885000Y-115875523D01*
X190908809Y-115899333D01*
X190956428Y-115923142D01*
X191051666Y-115946952D01*
X191170714Y-115946952D01*
X191265952Y-115923142D01*
X191313571Y-115899333D01*
X191337380Y-115875523D01*
X191361190Y-115827904D01*
X191361190Y-115780285D01*
X191337380Y-115732666D01*
X191313571Y-115708857D01*
X191265952Y-115685047D01*
X191170714Y-115661238D01*
X191051666Y-115661238D01*
X190956428Y-115685047D01*
X190908809Y-115708857D01*
X190885000Y-115732666D01*
X190861190Y-115780285D01*
%TO.C,C9*%
X191313571Y-118280666D02*
X191337380Y-118256857D01*
X191361190Y-118185428D01*
X191361190Y-118137809D01*
X191337380Y-118066380D01*
X191289761Y-118018761D01*
X191242142Y-117994952D01*
X191146904Y-117971142D01*
X191075476Y-117971142D01*
X190980238Y-117994952D01*
X190932619Y-118018761D01*
X190885000Y-118066380D01*
X190861190Y-118137809D01*
X190861190Y-118185428D01*
X190885000Y-118256857D01*
X190908809Y-118280666D01*
X191361190Y-118518761D02*
X191361190Y-118614000D01*
X191337380Y-118661619D01*
X191313571Y-118685428D01*
X191242142Y-118733047D01*
X191146904Y-118756857D01*
X190956428Y-118756857D01*
X190908809Y-118733047D01*
X190885000Y-118709238D01*
X190861190Y-118661619D01*
X190861190Y-118566380D01*
X190885000Y-118518761D01*
X190908809Y-118494952D01*
X190956428Y-118471142D01*
X191075476Y-118471142D01*
X191123095Y-118494952D01*
X191146904Y-118518761D01*
X191170714Y-118566380D01*
X191170714Y-118661619D01*
X191146904Y-118709238D01*
X191123095Y-118733047D01*
X191075476Y-118756857D01*
%TO.C,C8*%
X179407333Y-98170571D02*
X179431142Y-98194380D01*
X179502571Y-98218190D01*
X179550190Y-98218190D01*
X179621619Y-98194380D01*
X179669238Y-98146761D01*
X179693047Y-98099142D01*
X179716857Y-98003904D01*
X179716857Y-97932476D01*
X179693047Y-97837238D01*
X179669238Y-97789619D01*
X179621619Y-97742000D01*
X179550190Y-97718190D01*
X179502571Y-97718190D01*
X179431142Y-97742000D01*
X179407333Y-97765809D01*
X179121619Y-97932476D02*
X179169238Y-97908666D01*
X179193047Y-97884857D01*
X179216857Y-97837238D01*
X179216857Y-97813428D01*
X179193047Y-97765809D01*
X179169238Y-97742000D01*
X179121619Y-97718190D01*
X179026380Y-97718190D01*
X178978761Y-97742000D01*
X178954952Y-97765809D01*
X178931142Y-97813428D01*
X178931142Y-97837238D01*
X178954952Y-97884857D01*
X178978761Y-97908666D01*
X179026380Y-97932476D01*
X179121619Y-97932476D01*
X179169238Y-97956285D01*
X179193047Y-97980095D01*
X179216857Y-98027714D01*
X179216857Y-98122952D01*
X179193047Y-98170571D01*
X179169238Y-98194380D01*
X179121619Y-98218190D01*
X179026380Y-98218190D01*
X178978761Y-98194380D01*
X178954952Y-98170571D01*
X178931142Y-98122952D01*
X178931142Y-98027714D01*
X178954952Y-97980095D01*
X178978761Y-97956285D01*
X179026380Y-97932476D01*
%TO.C,C7*%
X191313571Y-113708666D02*
X191337380Y-113684857D01*
X191361190Y-113613428D01*
X191361190Y-113565809D01*
X191337380Y-113494380D01*
X191289761Y-113446761D01*
X191242142Y-113422952D01*
X191146904Y-113399142D01*
X191075476Y-113399142D01*
X190980238Y-113422952D01*
X190932619Y-113446761D01*
X190885000Y-113494380D01*
X190861190Y-113565809D01*
X190861190Y-113613428D01*
X190885000Y-113684857D01*
X190908809Y-113708666D01*
X190861190Y-113875333D02*
X190861190Y-114208666D01*
X191361190Y-113994380D01*
%TO.C,C6*%
X191313571Y-112184666D02*
X191337380Y-112160857D01*
X191361190Y-112089428D01*
X191361190Y-112041809D01*
X191337380Y-111970380D01*
X191289761Y-111922761D01*
X191242142Y-111898952D01*
X191146904Y-111875142D01*
X191075476Y-111875142D01*
X190980238Y-111898952D01*
X190932619Y-111922761D01*
X190885000Y-111970380D01*
X190861190Y-112041809D01*
X190861190Y-112089428D01*
X190885000Y-112160857D01*
X190908809Y-112184666D01*
X190861190Y-112613238D02*
X190861190Y-112518000D01*
X190885000Y-112470380D01*
X190908809Y-112446571D01*
X190980238Y-112398952D01*
X191075476Y-112375142D01*
X191265952Y-112375142D01*
X191313571Y-112398952D01*
X191337380Y-112422761D01*
X191361190Y-112470380D01*
X191361190Y-112565619D01*
X191337380Y-112613238D01*
X191313571Y-112637047D01*
X191265952Y-112660857D01*
X191146904Y-112660857D01*
X191099285Y-112637047D01*
X191075476Y-112613238D01*
X191051666Y-112565619D01*
X191051666Y-112470380D01*
X191075476Y-112422761D01*
X191099285Y-112398952D01*
X191146904Y-112375142D01*
%TO.C,C5*%
X191599333Y-102413571D02*
X191623142Y-102437380D01*
X191694571Y-102461190D01*
X191742190Y-102461190D01*
X191813619Y-102437380D01*
X191861238Y-102389761D01*
X191885047Y-102342142D01*
X191908857Y-102246904D01*
X191908857Y-102175476D01*
X191885047Y-102080238D01*
X191861238Y-102032619D01*
X191813619Y-101985000D01*
X191742190Y-101961190D01*
X191694571Y-101961190D01*
X191623142Y-101985000D01*
X191599333Y-102008809D01*
X191146952Y-101961190D02*
X191385047Y-101961190D01*
X191408857Y-102199285D01*
X191385047Y-102175476D01*
X191337428Y-102151666D01*
X191218380Y-102151666D01*
X191170761Y-102175476D01*
X191146952Y-102199285D01*
X191123142Y-102246904D01*
X191123142Y-102365952D01*
X191146952Y-102413571D01*
X191170761Y-102437380D01*
X191218380Y-102461190D01*
X191337428Y-102461190D01*
X191385047Y-102437380D01*
X191408857Y-102413571D01*
%TO.C,C4*%
X185979571Y-106342666D02*
X186003380Y-106318857D01*
X186027190Y-106247428D01*
X186027190Y-106199809D01*
X186003380Y-106128380D01*
X185955761Y-106080761D01*
X185908142Y-106056952D01*
X185812904Y-106033142D01*
X185741476Y-106033142D01*
X185646238Y-106056952D01*
X185598619Y-106080761D01*
X185551000Y-106128380D01*
X185527190Y-106199809D01*
X185527190Y-106247428D01*
X185551000Y-106318857D01*
X185574809Y-106342666D01*
X185693857Y-106771238D02*
X186027190Y-106771238D01*
X185503380Y-106652190D02*
X185860523Y-106533142D01*
X185860523Y-106842666D01*
%TO.C,C3*%
X185979571Y-107866666D02*
X186003380Y-107842857D01*
X186027190Y-107771428D01*
X186027190Y-107723809D01*
X186003380Y-107652380D01*
X185955761Y-107604761D01*
X185908142Y-107580952D01*
X185812904Y-107557142D01*
X185741476Y-107557142D01*
X185646238Y-107580952D01*
X185598619Y-107604761D01*
X185551000Y-107652380D01*
X185527190Y-107723809D01*
X185527190Y-107771428D01*
X185551000Y-107842857D01*
X185574809Y-107866666D01*
X185527190Y-108033333D02*
X185527190Y-108342857D01*
X185717666Y-108176190D01*
X185717666Y-108247619D01*
X185741476Y-108295238D01*
X185765285Y-108319047D01*
X185812904Y-108342857D01*
X185931952Y-108342857D01*
X185979571Y-108319047D01*
X186003380Y-108295238D01*
X186027190Y-108247619D01*
X186027190Y-108104761D01*
X186003380Y-108057142D01*
X185979571Y-108033333D01*
%TO.C,C2*%
X175565571Y-111168666D02*
X175589380Y-111144857D01*
X175613190Y-111073428D01*
X175613190Y-111025809D01*
X175589380Y-110954380D01*
X175541761Y-110906761D01*
X175494142Y-110882952D01*
X175398904Y-110859142D01*
X175327476Y-110859142D01*
X175232238Y-110882952D01*
X175184619Y-110906761D01*
X175137000Y-110954380D01*
X175113190Y-111025809D01*
X175113190Y-111073428D01*
X175137000Y-111144857D01*
X175160809Y-111168666D01*
X175160809Y-111359142D02*
X175137000Y-111382952D01*
X175113190Y-111430571D01*
X175113190Y-111549619D01*
X175137000Y-111597238D01*
X175160809Y-111621047D01*
X175208428Y-111644857D01*
X175256047Y-111644857D01*
X175327476Y-111621047D01*
X175613190Y-111335333D01*
X175613190Y-111644857D01*
%TO.C,C1*%
X185979571Y-104818666D02*
X186003380Y-104794857D01*
X186027190Y-104723428D01*
X186027190Y-104675809D01*
X186003380Y-104604380D01*
X185955761Y-104556761D01*
X185908142Y-104532952D01*
X185812904Y-104509142D01*
X185741476Y-104509142D01*
X185646238Y-104532952D01*
X185598619Y-104556761D01*
X185551000Y-104604380D01*
X185527190Y-104675809D01*
X185527190Y-104723428D01*
X185551000Y-104794857D01*
X185574809Y-104818666D01*
X186027190Y-105294857D02*
X186027190Y-105009142D01*
X186027190Y-105152000D02*
X185527190Y-105152000D01*
X185598619Y-105104380D01*
X185646238Y-105056761D01*
X185670047Y-105009142D01*
%TD*%
M02*
