0
SECTION
2
HEADER
9
$INSUNITS
70
4
9
$ACADVER
1
AC1014
9
$HANDSEED
5
FFFF
0
ENDSEC
0
SECTION
2
TABLES
0
TABLE
2
VPORT
5
8
100
AcDbSymbolTable
0
ENDTAB
0
TABLE
2
LTYPE
5
5
100
AcDbSymbolTable
0
LTYPE
5
14
100
AcDbSymbolTableRecord
100
AcDbLinetypeTableRecord
2
BYBLOCK
70
0
0
LTYPE
5
15
100
AcDbSymbolTableRecord
100
AcDbLinetypeTableRecord
2
BYLAYER
70
0
0
ENDTAB
0
TABLE
2
LAYER
5
2
100
AcDbSymbolTable
70
2
0
LAYER
5
50
100
AcDbSymbolTableRecord
100
AcDbLayerTableRecord
2
0
70
0
6
CONTINUOUS
0
ENDTAB
0
TABLE
2
STYLE
5
3
100
AcDbSymbolTable
70
1
0
STYLE
5
11
100
AcDbSymbolTableRecord
100
AcDbTextStyleTableRecord
2
STANDARD
70
0
0
ENDTAB
0
TABLE
2
VIEW
5
6
100
AcDbSymbolTable
70
0
0
ENDTAB
0
TABLE
2
UCS
5
7
100
AcDbSymbolTable
70
0
0
ENDTAB
0
TABLE
2
APPID
5
9
100
AcDbSymbolTable
70
2
0
APPID
5
12
100
AcDbSymbolTableRecord
100
AcDbRegAppTableRecord
2
ACAD
70
0
0
ENDTAB
0
TABLE
2
DIMSTYLE
5
A
100
AcDbSymbolTable
70
1
0
ENDTAB
0
TABLE
2
BLOCK_RECORD
5
1
100
AcDbSymbolTable
70
1
0
BLOCK_RECORD
5
1F
100
AcDbSymbolTableRecord
100
AcDbBlockTableRecord
2
*MODEL_SPACE
0
BLOCK_RECORD
5
1B
100
AcDbSymbolTableRecord
100
AcDbBlockTableRecord
2
*PAPER_SPACE
0
ENDTAB
0
ENDSEC
0
SECTION
2
BLOCKS
0
BLOCK
5
20
100
AcDbEntity
100
AcDbBlockBegin
2
*MODEL_SPACE
0
ENDBLK
5
21
100
AcDbEntity
100
AcDbBlockEnd
0
BLOCK
5
1C
100
AcDbEntity
100
AcDbBlockBegin
2
*PAPER_SPACE
0
ENDBLK
5
1D
100
AcDbEntity
100
AcDbBlockEnd
0
ENDSEC
0
SECTION
2
ENTITIES
0
LWPOLYLINE
5
100
100
AcDbEntity
8
0
100
AcDbPolyline
90
12
70
1
43
0.0
10
-27
20
26.100000000000001
42
0.41421356237309503
10
-28.5
20
24.600000000000005
10
-28.5
20
-0.97491699999999959
42
0.41421356237309515
10
-27
20
-2.4749170000000005
10
-4.9124999999999996
20
-2.4749169999999996
42
-0.41421356237309503
10
-3.4124999999999996
20
-3.974917
10
-3.4125000000000005
20
-24.600000000000001
42
0.41421356237309592
10
-1.9125000000000003
20
-26.100000000000001
10
27
20
-26.100000000000001
42
0.41421356237309503
10
28.5
20
-24.600000000000005
10
28.5
20
24.600000000000005
42
0.41421356237309503
10
27
20
26.100000000000001
0
LWPOLYLINE
5
101
100
AcDbEntity
8
0
100
AcDbPolyline
90
4
70
1
43
0.0
10
-17.877099999999999
20
13.467942000000001
10
-13.863900000000001
20
13.467942000000001
10
-13.863900000000001
20
10.267542000000001
10
-17.877099999999999
20
10.267542000000001
0
LWPOLYLINE
5
102
100
AcDbEntity
8
0
100
AcDbPolyline
90
4
70
1
43
0.0
10
11.485300000000001
20
14.991942
10
15.498500000000002
20
14.991942
10
15.498500000000002
20
11.791542
10
11.485300000000001
20
11.791542
0
LWPOLYLINE
5
103
100
AcDbEntity
8
0
100
AcDbPolyline
90
4
70
1
43
0.0
10
14.539400000000002
20
-11.830258000000001
10
14.539400000000002
20
-15.030658000000001
10
10.526199999999999
20
-15.030658000000001
10
10.526199999999999
20
-11.830258000000001
0
LWPOLYLINE
5
104
100
AcDbEntity
8
0
100
AcDbPolyline
90
4
70
1
43
0.0
10
-20.891999999999999
20
18.319542000000002
10
-0.371999999999999
20
18.319542000000006
10
-0.37199999999999928
20
20.859542000000001
10
-20.891999999999999
20
20.859541999999998
0
LWPOLYLINE
5
105
100
AcDbEntity
8
0
100
AcDbPolyline
90
4
70
1
43
0.0
10
-20.122
20
18.989542
10
-20.122
20
20.189541999999999
10
-18.921999999999997
20
20.189541999999999
10
-18.921999999999997
20
18.989542
0
LWPOLYLINE
5
106
100
AcDbEntity
8
0
100
AcDbPolyline
90
4
70
1
43
0.0
10
-16.381999999999998
20
18.989542
10
-17.582000000000001
20
18.989542
10
-17.582000000000001
20
20.189541999999999
10
-16.381999999999998
20
20.189541999999999
0
LWPOLYLINE
5
107
100
AcDbEntity
8
0
100
AcDbPolyline
90
4
70
1
43
0.0
10
-11.302
20
18.989542
10
-12.501999999999999
20
18.989542
10
-12.501999999999999
20
20.189541999999999
10
-11.302
20
20.189541999999999
0
LWPOLYLINE
5
108
100
AcDbEntity
8
0
100
AcDbPolyline
90
4
70
1
43
0.0
10
-13.841999999999999
20
18.989542
10
-15.042
20
18.989542
10
-15.042
20
20.189541999999999
10
-13.841999999999999
20
20.189541999999999
0
LWPOLYLINE
5
109
100
AcDbEntity
8
0
100
AcDbPolyline
90
4
70
1
43
0.0
10
-1.1419999999999975
20
20.189542000000003
10
-1.1419999999999972
20
18.989542000000004
10
-2.3419999999999987
20
18.989542000000004
10
-2.3419999999999987
20
20.189542000000003
0
LWPOLYLINE
5
110
100
AcDbEntity
8
0
100
AcDbPolyline
90
4
70
1
43
0.0
10
-4.8819999999999979
20
18.989542000000004
10
-4.8819999999999979
20
20.189542000000003
10
-3.6819999999999977
20
20.189542000000003
10
-3.6819999999999977
20
18.989542000000004
0
LWPOLYLINE
5
111
100
AcDbEntity
8
0
100
AcDbPolyline
90
4
70
1
43
0.0
10
-7.421999999999997
20
18.989542
10
-7.421999999999997
20
20.189541999999999
10
-6.221999999999996
20
20.189541999999999
10
-6.2219999999999978
20
18.989542
0
LWPOLYLINE
5
112
100
AcDbEntity
8
0
100
AcDbPolyline
90
4
70
1
43
0.0
10
-9.961999999999998
20
20.189541999999999
10
-8.7619999999999987
20
20.189541999999999
10
-8.7619999999999987
20
18.989542
10
-9.961999999999998
20
18.989542
0
LWPOLYLINE
5
113
100
AcDbEntity
8
0
100
AcDbPolyline
90
4
70
1
43
0.0
10
3.2380000000000009
20
19.969541999999997
10
23.757999999999999
20
19.969542000000001
10
23.757999999999999
20
22.509542000000003
10
3.2379999999999987
20
22.509541999999996
0
LWPOLYLINE
5
114
100
AcDbEntity
8
0
100
AcDbPolyline
90
4
70
1
43
0.0
10
19.248000000000005
20
20.639541999999999
10
19.248000000000005
20
21.839542000000002
10
20.448000000000004
20
21.839542000000002
10
20.448000000000004
20
20.639541999999999
0
LWPOLYLINE
5
115
100
AcDbEntity
8
0
100
AcDbPolyline
90
4
70
1
43
0.0
10
17.908000000000005
20
20.639541999999999
10
16.708000000000002
20
20.639541999999999
10
16.708000000000002
20
21.839542000000002
10
17.908000000000005
20
21.839542000000002
0
LWPOLYLINE
5
116
100
AcDbEntity
8
0
100
AcDbPolyline
90
4
70
1
43
0.0
10
15.368000000000002
20
21.839542000000002
10
15.368000000000002
20
20.639541999999999
10
14.168000000000001
20
20.639541999999999
10
14.168000000000003
20
21.839542000000002
0
LWPOLYLINE
5
117
100
AcDbEntity
8
0
100
AcDbPolyline
90
4
70
1
43
0.0
10
6.5480000000000018
20
21.839542000000002
10
7.7480000000000011
20
21.839542000000002
10
7.7480000000000011
20
20.639541999999999
10
6.5480000000000018
20
20.639541999999999
0
LWPOLYLINE
5
118
100
AcDbEntity
8
0
100
AcDbPolyline
90
4
70
1
43
0.0
10
9.088000000000001
20
21.839542000000002
10
10.288000000000002
20
21.839542000000002
10
10.288000000000002
20
20.639541999999999
10
9.088000000000001
20
20.639541999999999
0
LWPOLYLINE
5
119
100
AcDbEntity
8
0
100
AcDbPolyline
90
4
70
1
43
0.0
10
11.628000000000004
20
20.639541999999999
10
11.628000000000004
20
21.839542000000002
10
12.828000000000003
20
21.839542000000002
10
12.828000000000001
20
20.639541999999999
0
LWPOLYLINE
5
120
100
AcDbEntity
8
0
100
AcDbPolyline
90
4
70
1
43
0.0
10
22.988000000000003
20
21.839542000000002
10
22.988000000000003
20
20.639541999999999
10
21.788000000000004
20
20.639541999999999
10
21.788000000000004
20
21.839542000000002
0
LWPOLYLINE
5
121
100
AcDbEntity
8
0
100
AcDbPolyline
90
4
70
1
43
0.0
10
4.0080000000000018
20
21.839542000000002
10
5.2080000000000028
20
21.839542000000002
10
5.2080000000000028
20
20.639541999999999
10
4.0080000000000018
20
20.639541999999999
0
LWPOLYLINE
5
122
100
AcDbEntity
8
0
100
AcDbPolyline
90
4
70
1
43
0.0
10
1.9045000000000001
20
4.4120419999999996
10
22.424499999999998
20
4.4120420000000014
10
22.424499999999998
20
6.9520420000000014
10
1.9044999999999979
20
6.9520419999999996
0
LWPOLYLINE
5
123
100
AcDbEntity
8
0
100
AcDbPolyline
90
4
70
1
43
0.0
10
17.914500000000004
20
5.0820420000000013
10
17.914500000000004
20
6.2820420000000006
10
19.114500000000003
20
6.2820420000000006
10
19.114500000000003
20
5.0820420000000013
0
LWPOLYLINE
5
124
100
AcDbEntity
8
0
100
AcDbPolyline
90
4
70
1
43
0.0
10
16.574500000000004
20
5.0820420000000013
10
15.374500000000001
20
5.0820420000000013
10
15.374500000000001
20
6.2820420000000006
10
16.574500000000004
20
6.2820420000000006
0
LWPOLYLINE
5
125
100
AcDbEntity
8
0
100
AcDbPolyline
90
4
70
1
43
0.0
10
14.034500000000001
20
6.2820420000000006
10
14.034500000000001
20
5.0820420000000013
10
12.8345
20
5.0820420000000013
10
12.834500000000002
20
6.2820420000000006
0
LWPOLYLINE
5
126
100
AcDbEntity
8
0
100
AcDbPolyline
90
4
70
1
43
0.0
10
5.214500000000001
20
6.2820419999999997
10
6.4145000000000003
20
6.2820419999999997
10
6.4145000000000003
20
5.0820419999999995
10
5.214500000000001
20
5.0820419999999995
0
LWPOLYLINE
5
127
100
AcDbEntity
8
0
100
AcDbPolyline
90
4
70
1
43
0.0
10
7.7545000000000011
20
6.2820419999999997
10
8.9545000000000012
20
6.2820419999999997
10
8.9545000000000012
20
5.0820419999999995
10
7.7545000000000002
20
5.0820419999999995
0
LWPOLYLINE
5
128
100
AcDbEntity
8
0
100
AcDbPolyline
90
4
70
1
43
0.0
10
10.294500000000003
20
5.0820419999999995
10
10.294500000000003
20
6.2820419999999997
10
11.494500000000002
20
6.2820419999999997
10
11.4945
20
5.0820419999999995
0
LWPOLYLINE
5
129
100
AcDbEntity
8
0
100
AcDbPolyline
90
4
70
1
43
0.0
10
21.654500000000002
20
6.2820420000000006
10
21.654500000000002
20
5.0820420000000013
10
20.454500000000003
20
5.0820420000000013
10
20.454500000000003
20
6.2820420000000006
0
LWPOLYLINE
5
130
100
AcDbEntity
8
0
100
AcDbPolyline
90
4
70
1
43
0.0
10
2.674500000000001
20
6.2820419999999997
10
3.8745000000000021
20
6.2820419999999997
10
3.8745000000000021
20
5.0820419999999995
10
2.674500000000001
20
5.0820419999999995
0
LWPOLYLINE
5
131
100
AcDbEntity
8
0
100
AcDbPolyline
90
4
70
1
43
0.0
10
-20.765000000000001
20
2.6995419999999992
10
-0.24500000000000188
20
2.6995420000000014
10
-0.24500000000000216
20
5.2395420000000019
10
-20.765000000000001
20
5.2395419999999993
0
LWPOLYLINE
5
132
100
AcDbEntity
8
0
100
AcDbPolyline
90
4
70
1
43
0.0
10
-4.7550000000000008
20
3.3695420000000009
10
-4.7550000000000008
20
4.5695420000000011
10
-3.5550000000000006
20
4.5695420000000011
10
-3.5550000000000006
20
3.3695420000000009
0
LWPOLYLINE
5
133
100
AcDbEntity
8
0
100
AcDbPolyline
90
4
70
1
43
0.0
10
-6.0950000000000006
20
3.3695420000000009
10
-7.2949999999999999
20
3.3695420000000009
10
-7.2949999999999999
20
4.5695420000000011
10
-6.0949999999999989
20
4.5695420000000011
0
LWPOLYLINE
5
134
100
AcDbEntity
8
0
100
AcDbPolyline
90
4
70
1
43
0.0
10
-8.6350000000000016
20
4.5695420000000002
10
-8.6350000000000016
20
3.3695420000000005
10
-9.8350000000000009
20
3.3695420000000005
10
-9.8350000000000009
20
4.5695420000000002
0
LWPOLYLINE
5
135
100
AcDbEntity
8
0
100
AcDbPolyline
90
4
70
1
43
0.0
10
-17.455000000000002
20
4.5695420000000002
10
-16.255000000000003
20
4.5695420000000002
10
-16.255000000000003
20
3.369542
10
-17.455000000000002
20
3.369542
0
LWPOLYLINE
5
136
100
AcDbEntity
8
0
100
AcDbPolyline
90
4
70
1
43
0.0
10
-14.915000000000003
20
4.5695420000000002
10
-13.715000000000002
20
4.5695420000000002
10
-13.715000000000002
20
3.369542
10
-14.915000000000003
20
3.369542
0
LWPOLYLINE
5
137
100
AcDbEntity
8
0
100
AcDbPolyline
90
4
70
1
43
0.0
10
-12.375000000000004
20
3.3695420000000005
10
-12.375000000000004
20
4.5695420000000002
10
-11.175000000000001
20
4.5695420000000002
10
-11.175000000000001
20
3.3695420000000005
0
LWPOLYLINE
5
138
100
AcDbEntity
8
0
100
AcDbPolyline
90
4
70
1
43
0.0
10
-1.0150000000000003
20
4.5695420000000011
10
-1.0150000000000001
20
3.3695420000000014
10
-2.2150000000000016
20
3.3695420000000014
10
-2.2150000000000016
20
4.5695420000000011
0
LWPOLYLINE
5
139
100
AcDbEntity
8
0
100
AcDbPolyline
90
4
70
1
43
0.0
10
-19.995000000000005
20
4.5695419999999993
10
-18.795000000000002
20
4.5695419999999993
10
-18.795000000000002
20
3.3695419999999991
10
-19.995000000000005
20
3.3695419999999991
0
LWPOLYLINE
5
140
100
AcDbEntity
8
0
100
AcDbPolyline
90
4
70
1
43
0.0
10
-1.5879999999999994
20
-6.8254580000000011
10
18.932000000000002
20
-6.8254579999999985
10
18.932000000000002
20
-4.2854579999999984
10
-1.5879999999999983
20
-4.2854580000000011
0
LWPOLYLINE
5
141
100
AcDbEntity
8
0
100
AcDbPolyline
90
4
70
1
43
0.0
10
14.422000000000001
20
-6.1554579999999994
10
14.422000000000001
20
-4.9554579999999993
10
15.622000000000003
20
-4.9554579999999993
10
15.622000000000003
20
-6.1554579999999994
0
LWPOLYLINE
5
142
100
AcDbEntity
8
0
100
AcDbPolyline
90
4
70
1
43
0.0
10
13.082000000000003
20
-6.1554579999999994
10
11.882000000000001
20
-6.1554579999999994
10
11.882000000000001
20
-4.9554579999999993
10
13.082000000000003
20
-4.9554579999999993
0
LWPOLYLINE
5
143
100
AcDbEntity
8
0
100
AcDbPolyline
90
4
70
1
43
0.0
10
10.542000000000002
20
-4.9554580000000001
10
10.542000000000002
20
-6.1554580000000003
10
9.3420000000000023
20
-6.1554579999999994
10
9.3420000000000023
20
-4.9554579999999993
0
LWPOLYLINE
5
144
100
AcDbEntity
8
0
100
AcDbPolyline
90
4
70
1
43
0.0
10
1.7220000000000013
20
-4.9554580000000001
10
2.9220000000000015
20
-4.9554580000000001
10
2.9220000000000015
20
-6.1554580000000003
10
1.7220000000000013
20
-6.1554580000000003
0
LWPOLYLINE
5
145
100
AcDbEntity
8
0
100
AcDbPolyline
90
4
70
1
43
0.0
10
4.2620000000000013
20
-4.9554580000000001
10
5.4620000000000024
20
-4.9554580000000001
10
5.4620000000000024
20
-6.1554580000000003
10
4.2620000000000022
20
-6.1554580000000003
0
LWPOLYLINE
5
146
100
AcDbEntity
8
0
100
AcDbPolyline
90
4
70
1
43
0.0
10
6.8020000000000014
20
-6.1554580000000003
10
6.8020000000000014
20
-4.9554580000000001
10
8.0020000000000007
20
-4.9554580000000001
10
8.0020000000000007
20
-6.1554580000000003
0
LWPOLYLINE
5
147
100
AcDbEntity
8
0
100
AcDbPolyline
90
4
70
1
43
0.0
10
18.162000000000003
20
-4.9554579999999984
10
18.162000000000003
20
-6.1554579999999977
10
16.962000000000003
20
-6.1554579999999994
10
16.962000000000003
20
-4.9554579999999993
0
LWPOLYLINE
5
148
100
AcDbEntity
8
0
100
AcDbPolyline
90
4
70
1
43
0.0
10
-0.81799999999999873
20
-4.955458000000001
10
0.38200000000000234
20
-4.955458000000001
10
0.38200000000000245
20
-6.1554580000000003
10
-0.81799999999999873
20
-6.1554580000000003
0
LWPOLYLINE
5
149
100
AcDbEntity
8
0
100
AcDbPolyline
90
4
70
1
43
0.0
10
6.0320000000000018
20
-22.384958000000005
10
26.552000000000003
20
-22.384957999999997
10
26.552000000000003
20
-19.844957999999998
10
6.0320000000000018
20
-19.844958000000002
0
LWPOLYLINE
5
150
100
AcDbEntity
8
0
100
AcDbPolyline
90
4
70
1
43
0.0
10
22.042000000000002
20
-21.714958000000003
10
22.042000000000002
20
-20.514958
10
23.242000000000004
20
-20.514958
10
23.242000000000004
20
-21.714958000000003
0
LWPOLYLINE
5
151
100
AcDbEntity
8
0
100
AcDbPolyline
90
4
70
1
43
0.0
10
20.702000000000002
20
-21.714958000000003
10
19.502000000000002
20
-21.714958000000003
10
19.502000000000002
20
-20.514958
10
20.702000000000002
20
-20.514958
0
LWPOLYLINE
5
152
100
AcDbEntity
8
0
100
AcDbPolyline
90
4
70
1
43
0.0
10
18.162000000000003
20
-20.514958
10
18.162000000000003
20
-21.714958000000003
10
16.962000000000003
20
-21.714958000000003
10
16.962000000000003
20
-20.514958
0
LWPOLYLINE
5
153
100
AcDbEntity
8
0
100
AcDbPolyline
90
4
70
1
43
0.0
10
9.3420000000000023
20
-20.514958
10
10.542000000000002
20
-20.514958
10
10.542000000000002
20
-21.714958000000003
10
9.3420000000000023
20
-21.714958000000003
0
LWPOLYLINE
5
154
100
AcDbEntity
8
0
100
AcDbPolyline
90
4
70
1
43
0.0
10
11.882000000000001
20
-20.514958
10
13.082000000000003
20
-20.514958
10
13.082000000000003
20
-21.714958000000003
10
11.882000000000001
20
-21.714958000000003
0
LWPOLYLINE
5
155
100
AcDbEntity
8
0
100
AcDbPolyline
90
4
70
1
43
0.0
10
14.422000000000001
20
-21.714958000000003
10
14.422000000000001
20
-20.514958
10
15.622000000000003
20
-20.514958
10
15.622000000000003
20
-21.714958000000003
0
LWPOLYLINE
5
156
100
AcDbEntity
8
0
100
AcDbPolyline
90
4
70
1
43
0.0
10
25.782000000000004
20
-20.514958
10
25.782000000000004
20
-21.714958000000003
10
24.582000000000001
20
-21.714958000000003
10
24.582000000000001
20
-20.514958
0
LWPOLYLINE
5
157
100
AcDbEntity
8
0
100
AcDbPolyline
90
4
70
1
43
0.0
10
6.8020000000000023
20
-20.514958
10
8.0020000000000042
20
-20.514958
10
8.0020000000000042
20
-21.714958000000003
10
6.8020000000000023
20
-21.714958000000003
0
LWPOLYLINE
5
158
100
AcDbEntity
8
0
100
AcDbPolyline
90
12
70
1
43
0.0
10
-27
20
26.100000000000001
42
0.41421356237309936
10
-28.499999999999996
20
24.600000000000005
10
-28.5
20
-0.97491699999999959
42
0.41421356237309587
10
-27
20
-2.4749170000000027
10
-4.9124999999999996
20
-2.4749169999999996
42
-0.41421356237309503
10
-3.4124999999999996
20
-3.974917
10
-3.4125000000000005
20
-24.600000000000001
42
0.41421356237309792
10
-1.9125000000000001
20
-26.100000000000001
10
27
20
-26.100000000000001
42
0.41421356237309936
10
28.499999999999996
20
-24.600000000000005
10
28.5
20
24.600000000000005
42
0.41421356237309936
10
27
20
26.100000000000009
0
LWPOLYLINE
5
159
100
AcDbEntity
8
0
100
AcDbPolyline
90
4
70
1
43
0.0
10
-17.877099999999999
20
13.467942000000001
10
-13.863900000000001
20
13.467942000000001
10
-13.863900000000001
20
10.267542000000001
10
-17.877099999999999
20
10.267542000000001
0
LWPOLYLINE
5
160
100
AcDbEntity
8
0
100
AcDbPolyline
90
4
70
1
43
0.0
10
11.485300000000001
20
14.991942
10
15.498500000000002
20
14.991942
10
15.498500000000002
20
11.791542
10
11.485300000000001
20
11.791542
0
LWPOLYLINE
5
161
100
AcDbEntity
8
0
100
AcDbPolyline
90
4
70
1
43
0.0
10
14.539400000000002
20
-11.830258000000001
10
14.539400000000002
20
-15.030658000000001
10
10.526199999999999
20
-15.030658000000001
10
10.526199999999999
20
-11.830258000000001
0
ENDSEC
0
SECTION
2
OBJECTS
0
DICTIONARY
5
C
100
AcDbDictionary
3
ACAD_GROUP
350
D
3
ACAD_MLINESTYLE
350
17
0
DICTIONARY
5
D
100
AcDbDictionary
0
DICTIONARY
5
1A
330
C
100
AcDbDictionary
0
DICTIONARY
5
17
100
AcDbDictionary
0
ENDSEC
0
EOF
