0
SECTION
2
HEADER
9
$INSUNITS
70
4
9
$ACADVER
1
AC1014
9
$HANDSEED
5
FFFF
0
ENDSEC
0
SECTION
2
TABLES
0
TABLE
2
VPORT
5
8
100
AcDbSymbolTable
0
ENDTAB
0
TABLE
2
LTYPE
5
5
100
AcDbSymbolTable
0
LTYPE
5
14
100
AcDbSymbolTableRecord
100
AcDbLinetypeTableRecord
2
BYBLOCK
70
0
0
LTYPE
5
15
100
AcDbSymbolTableRecord
100
AcDbLinetypeTableRecord
2
BYLAYER
70
0
0
ENDTAB
0
TABLE
2
LAYER
5
2
100
AcDbSymbolTable
70
2
0
LAYER
5
50
100
AcDbSymbolTableRecord
100
AcDbLayerTableRecord
2
0
70
0
6
CONTINUOUS
0
ENDTAB
0
TABLE
2
STYLE
5
3
100
AcDbSymbolTable
70
1
0
STYLE
5
11
100
AcDbSymbolTableRecord
100
AcDbTextStyleTableRecord
2
STANDARD
70
0
0
ENDTAB
0
TABLE
2
VIEW
5
6
100
AcDbSymbolTable
70
0
0
ENDTAB
0
TABLE
2
UCS
5
7
100
AcDbSymbolTable
70
0
0
ENDTAB
0
TABLE
2
APPID
5
9
100
AcDbSymbolTable
70
2
0
APPID
5
12
100
AcDbSymbolTableRecord
100
AcDbRegAppTableRecord
2
ACAD
70
0
0
ENDTAB
0
TABLE
2
DIMSTYLE
5
A
100
AcDbSymbolTable
70
1
0
ENDTAB
0
TABLE
2
BLOCK_RECORD
5
1
100
AcDbSymbolTable
70
1
0
BLOCK_RECORD
5
1F
100
AcDbSymbolTableRecord
100
AcDbBlockTableRecord
2
*MODEL_SPACE
0
BLOCK_RECORD
5
1B
100
AcDbSymbolTableRecord
100
AcDbBlockTableRecord
2
*PAPER_SPACE
0
ENDTAB
0
ENDSEC
0
SECTION
2
BLOCKS
0
BLOCK
5
20
100
AcDbEntity
100
AcDbBlockBegin
2
*MODEL_SPACE
0
ENDBLK
5
21
100
AcDbEntity
100
AcDbBlockEnd
0
BLOCK
5
1C
100
AcDbEntity
100
AcDbBlockBegin
2
*PAPER_SPACE
0
ENDBLK
5
1D
100
AcDbEntity
100
AcDbBlockEnd
0
ENDSEC
0
SECTION
2
ENTITIES
0
LWPOLYLINE
5
100
100
AcDbEntity
8
0
100
AcDbPolyline
90
12
70
1
43
0.0
10
67.945176903600512
20
-30.717656013482308
10
69.345176903600517
20
-30.717656013482308
10
69.345176903600517
20
-27.212656013482309
10
65.695176903600512
20
-27.212656013482309
10
65.695176903600512
20
-30.717656013482308
10
66.945176903600512
20
-30.717656013482308
10
66.945176903600512
20
-34.317656013482313
10
65.695176903600512
20
-34.317656013482313
10
65.695176903600512
20
-37.822656013482309
10
69.195176903600512
20
-37.822656013482309
10
69.195176903600512
20
-34.317656013482313
10
67.945176903600512
20
-34.317656013482313
0
LWPOLYLINE
5
101
100
AcDbEntity
8
0
100
AcDbPolyline
90
12
70
1
43
0.0
10
55.805176903600525
20
-27.212656013482306
10
55.805176903600525
20
-32.282656013482303
10
59.095176903600517
20
-32.28265601348231
10
59.095176903600517
20
-30.912656013482305
10
62.175176903600516
20
-30.912656013482305
10
62.175176903600516
20
-34.317656013482306
10
60.925176903600516
20
-34.317656013482306
10
60.925176903600516
20
-37.822656013482309
10
64.425176903600516
20
-37.822656013482309
10
64.425176903600516
20
-34.317656013482306
10
63.175176903600523
20
-34.317656013482313
10
63.175176903600523
20
-27.212656013482317
0
LWPOLYLINE
5
102
100
AcDbEntity
8
0
100
AcDbPolyline
90
2
70
1
43
0.0
10
57.785176903600529
20
-41.767656013482309
10
57.785176903600529
20
-36.967656013482312
0
LINE
5
103
100
AcDbEntity
8
0
100
AcDbLine
10
55.805176903600525
20
-36.967656013482312
30
0
11
55.805176903600525
21
-41.767656013482302
31
0
0
LINE
5
104
100
AcDbEntity
8
0
100
AcDbLine
10
55.805176903600525
20
-41.767656013482302
30
0
11
57.785176903600529
21
-41.767656013482309
31
8.6736173798840355e-18
0
LINE
5
105
100
AcDbEntity
8
0
100
AcDbLine
10
57.785176903600529
20
-36.967656013482312
30
8.6736173798840355e-18
11
55.805176903600525
21
-36.967656013482312
31
0
0
LWPOLYLINE
5
106
100
AcDbEntity
8
0
100
AcDbPolyline
90
12
70
1
43
0.0
10
60.925176903600516
20
-44.417656013482308
10
62.175176903600516
20
-44.417656013482308
10
62.175176903600516
20
-47.822656013482295
10
59.095176903600517
20
-47.822656013482302
10
59.095176903600517
20
-47.132656013482318
10
55.805176903600525
20
-47.132656013482304
10
55.805176903600525
20
-51.522656013482305
10
63.175176903600523
20
-51.522656013482305
10
63.175176903600516
20
-44.417656013482315
10
64.425176903600516
20
-44.417656013482308
10
64.425176903600516
20
-40.912656013482305
10
60.92517690360053
20
-40.912656013482319
0
LWPOLYLINE
5
107
100
AcDbEntity
8
0
100
AcDbPolyline
90
12
70
1
43
0.0
10
65.695176903600526
20
-48.017656013482309
10
65.695176903600526
20
-51.522656013482319
10
69.195176903600512
20
-51.522656013482319
10
69.195176903600512
20
-48.017656013482309
10
67.945176903600512
20
-48.017656013482309
10
67.945176903600512
20
-44.417656013482308
10
69.195176903600512
20
-44.417656013482308
10
69.195176903600512
20
-40.912656013482305
10
65.695176903600526
20
-40.912656013482319
10
65.695176903600526
20
-44.417656013482315
10
66.945176903600526
20
-44.417656013482308
10
66.945176903600526
20
-48.017656013482302
0
LWPOLYLINE
5
108
100
AcDbEntity
8
0
100
AcDbPolyline
90
12
70
1
43
0.0
10
79.65517690360052
20
-47.132656013482318
10
76.365176903600528
20
-47.132656013482318
10
76.365176903600513
20
-47.822656013482316
10
73.285176903600515
20
-47.822656013482316
10
73.285176903600515
20
-44.417656013482308
10
74.535176903600515
20
-44.417656013482308
10
74.535176903600515
20
-40.912656013482305
10
71.035176903600515
20
-40.912656013482319
10
71.035176903600515
20
-44.417656013482315
10
72.285176903600515
20
-44.417656013482308
10
72.285176903600515
20
-51.522656013482305
10
79.655176903600506
20
-51.522656013482319
0
LWPOLYLINE
5
109
100
AcDbEntity
8
0
100
AcDbPolyline
90
12
70
1
43
0.0
10
73.285176903600515
20
-30.912656013482312
10
76.365176903600513
20
-30.912656013482312
10
76.365176903600513
20
-32.28265601348231
10
79.655176903600506
20
-32.28265601348231
10
79.65517690360052
20
-27.212656013482309
10
72.285176903600515
20
-27.212656013482317
10
72.285176903600515
20
-34.317656013482313
10
71.035176903600515
20
-34.317656013482313
10
71.035176903600515
20
-37.822656013482309
10
74.535176903600515
20
-37.822656013482309
10
74.535176903600515
20
-34.317656013482313
10
73.285176903600515
20
-34.317656013482313
0
LWPOLYLINE
5
110
100
AcDbEntity
8
0
100
AcDbPolyline
90
12
70
1
43
0.0
10
67.945176903600512
20
-30.717656013482308
10
69.345176903600517
20
-30.717656013482308
10
69.345176903600517
20
-27.212656013482309
10
65.695176903600526
20
-27.212656013482309
10
65.695176903600526
20
-30.717656013482308
10
66.945176903600526
20
-30.717656013482308
10
66.945176903600526
20
-34.317656013482306
10
65.695176903600526
20
-34.317656013482313
10
65.695176903600526
20
-37.822656013482309
10
69.195176903600512
20
-37.822656013482309
10
69.195176903600512
20
-34.317656013482313
10
67.945176903600512
20
-34.317656013482313
0
LWPOLYLINE
5
111
100
AcDbEntity
8
0
100
AcDbPolyline
90
4
70
1
43
0.0
10
79.65517690360052
20
-36.967656013482312
10
77.675176903600516
20
-36.967656013482312
10
77.675176903600516
20
-41.767656013482309
10
79.65517690360052
20
-41.767656013482309
0
LWPOLYLINE
5
112
100
AcDbEntity
8
0
100
AcDbPolyline
90
4
70
1
43
0.0
10
85.148926903600554
20
-38.555114320097992
10
85.148926903600554
20
-43.355114320097989
10
87.128926903600558
20
-43.355114320097996
10
87.128926903600558
20
-38.555114320097999
0
LWPOLYLINE
5
113
100
AcDbEntity
8
0
100
AcDbPolyline
90
12
70
1
43
0.0
10
90.268926903600558
20
-46.005114320097995
10
91.518926903600558
20
-46.005114320097995
10
91.518926903600558
20
-49.410114320097982
10
88.43892690360056
20
-49.410114320097989
10
88.438926903600532
20
-48.720114320097998
10
85.14892690360054
20
-48.720114320097991
10
85.148926903600554
20
-53.110114320097992
10
92.518926903600544
20
-53.110114320097992
10
92.518926903600544
20
-46.005114320097995
10
93.768926903600544
20
-46.005114320097995
10
93.768926903600544
20
-42.500114320097993
10
90.268926903600558
20
-42.500114320098
0
LWPOLYLINE
5
114
100
AcDbEntity
8
0
100
AcDbPolyline
90
12
70
1
43
0.0
10
95.03892690360054
20
-49.605114320097996
10
95.03892690360054
20
-53.110114320097999
10
98.53892690360054
20
-53.110114320097992
10
98.538926903600554
20
-49.605114320097989
10
97.288926903600554
20
-49.605114320097996
10
97.28892690360054
20
-46.005114320097995
10
98.538926903600554
20
-46.005114320097995
10
98.538926903600554
20
-42.500114320097993
10
95.038926903600554
20
-42.500114320098
10
95.03892690360054
20
-46.005114320098002
10
96.28892690360054
20
-46.005114320097995
10
96.28892690360054
20
-49.605114320097989
0
LWPOLYLINE
5
115
100
AcDbEntity
8
0
100
AcDbPolyline
90
12
70
1
43
0.0
10
108.99892690360055
20
-48.720114320097998
10
105.70892690360054
20
-48.720114320097998
10
105.70892690360054
20
-49.410114320098003
10
102.62892690360054
20
-49.410114320098003
10
102.62892690360054
20
-46.005114320098002
10
103.87892690360054
20
-46.005114320097995
10
103.87892690360054
20
-42.500114320097993
10
100.37892690360054
20
-42.500114320098
10
100.37892690360054
20
-46.005114320098002
10
101.62892690360054
20
-46.005114320097995
10
101.62892690360054
20
-53.110114320097992
10
108.99892690360055
20
-53.110114320097992
0
LWPOLYLINE
5
116
100
AcDbEntity
8
0
100
AcDbPolyline
90
4
70
1
43
0.0
10
108.99892690360055
20
-38.555114320097999
10
107.01892690360054
20
-38.555114320097999
10
107.01892690360054
20
-43.355114320097996
10
108.99892690360055
20
-43.355114320097996
0
LWPOLYLINE
5
117
100
AcDbEntity
8
0
100
AcDbPolyline
90
4
70
1
43
0.0
10
107.99892690360053
20
-11.755114320098002
10
106.01892690360053
20
-11.755114320098002
10
106.01892690360053
20
-16.555114320097999
10
107.99892690360053
20
-16.555114320097999
0
LWPOLYLINE
5
118
100
AcDbEntity
8
0
100
AcDbPolyline
90
4
70
1
43
0.0
10
84.14892690360054
20
-11.755114320097999
10
84.14892690360054
20
-16.555114320097996
10
86.128926903600544
20
-16.555114320097996
10
86.128926903600544
20
-11.755114320097997
0
LWPOLYLINE
5
119
100
AcDbEntity
8
0
100
AcDbPolyline
90
12
70
1
43
0.0
10
84.14892690360054
20
-2.0001143200979965
10
84.14892690360054
20
-7.0701143200979946
10
87.438926903600546
20
-7.0701143200979955
10
87.438926903600546
20
-5.7001143200979962
10
90.518926903600544
20
-5.7001143200979971
10
90.518926903600544
20
-9.1051143200979983
10
89.268926903600544
20
-9.1051143200979965
10
89.268926903600544
20
-12.610114320097999
10
92.768926903600544
20
-12.610114320097999
10
92.768926903600544
20
-9.1051143200979983
10
91.518926903600544
20
-9.1051143200979983
10
91.518926903600544
20
-2.0001143200979987
0
LWPOLYLINE
5
120
100
AcDbEntity
8
0
100
AcDbPolyline
90
12
70
1
43
0.0
10
96.28892690360054
20
-5.5051143200979986
10
97.688926903600546
20
-5.5051143200979986
10
97.688926903600532
20
-2.0001143200979992
10
94.038926903600526
20
-2.0001143200979983
10
94.038926903600526
20
-5.5051143200979986
10
95.288926903600526
20
-5.5051143200979986
10
95.288926903600526
20
-9.1051143200979983
10
94.038926903600526
20
-9.1051143200979983
10
94.038926903600526
20
-12.610114320097999
10
97.538926903600526
20
-12.610114320097999
10
97.53892690360054
20
-9.1051143200979983
10
96.28892690360054
20
-9.1051143200979983
0
LWPOLYLINE
5
121
100
AcDbEntity
8
0
100
AcDbPolyline
90
12
70
1
43
0.0
10
101.62892690360053
20
-5.7001143200979998
10
104.70892690360053
20
-5.7001143200979998
10
104.70892690360053
20
-7.0701143200980008
10
107.99892690360053
20
-7.0701143200979999
10
107.99892690360053
20
-2.0001143200979996
10
100.62892690360053
20
-2.0001143200980001
10
100.62892690360053
20
-9.1051143200979983
10
99.378926903600529
20
-9.1051143200979983
10
99.378926903600529
20
-12.610114320097999
10
102.87892690360053
20
-12.610114320097999
10
102.87892690360053
20
-9.1051143200979983
10
101.62892690360053
20
-9.1051143200979983
0
LWPOLYLINE
5
122
100
AcDbEntity
8
0
100
AcDbPolyline
90
12
70
1
43
0.0
10
107.99892690360053
20
-21.920114320097998
10
104.70892690360053
20
-21.920114320097998
10
104.70892690360053
20
-22.610114320097999
10
101.62892690360053
20
-22.610114320097999
10
101.62892690360053
20
-19.205114320098001
10
102.87892690360053
20
-19.205114320098001
10
102.87892690360053
20
-15.700114320098002
10
99.378926903600529
20
-15.700114320097999
10
99.378926903600529
20
-19.205114320098001
10
100.62892690360053
20
-19.205114320098001
10
100.62892690360053
20
-26.310114320098002
10
107.99892690360053
20
-26.310114320097998
0
LWPOLYLINE
5
123
100
AcDbEntity
8
0
100
AcDbPolyline
90
12
70
1
43
0.0
10
94.038926903600526
20
-22.805114320097999
10
94.038926903600526
20
-26.310114320097998
10
97.538926903600526
20
-26.310114320097998
10
97.53892690360054
20
-22.805114320097999
10
96.28892690360054
20
-22.805114320097996
10
96.288926903600526
20
-19.205114320097998
10
97.53892690360054
20
-19.205114320098001
10
97.53892690360054
20
-15.700114320097999
10
94.03892690360054
20
-15.700114320097999
10
94.038926903600526
20
-19.205114320098001
10
95.288926903600526
20
-19.205114320097998
10
95.288926903600526
20
-22.805114320097996
0
LWPOLYLINE
5
124
100
AcDbEntity
8
0
100
AcDbPolyline
90
12
70
1
43
0.0
10
89.268926903600544
20
-19.205114320098001
10
90.518926903600544
20
-19.205114320098001
10
90.518926903600544
20
-22.610114320097988
10
87.438926903600546
20
-22.610114320097988
10
87.438926903600532
20
-21.920114320097998
10
84.148926903600511
20
-21.920114320097998
10
84.14892690360054
20
-26.310114320097998
10
91.518926903600544
20
-26.310114320097995
10
91.518926903600544
20
-19.205114320098001
10
92.768926903600544
20
-19.205114320098001
10
92.768926903600544
20
-15.700114320097999
10
89.268926903600544
20
-15.700114320097999
0
LWPOLYLINE
5
125
100
AcDbEntity
8
0
100
AcDbPolyline
90
12
70
1
43
0.0
10
85.148926903600554
20
-28.80011432009799
10
85.148926903600554
20
-33.87011432009799
10
88.43892690360056
20
-33.87011432009799
10
88.43892690360056
20
-32.500114320097993
10
91.518926903600558
20
-32.500114320097993
10
91.518926903600558
20
-35.905114320097994
10
90.268926903600558
20
-35.905114320097994
10
90.268926903600558
20
-39.410114320097996
10
93.768926903600544
20
-39.410114320097996
10
93.768926903600544
20
-35.905114320097994
10
92.518926903600544
20
-35.905114320097994
10
92.518926903600544
20
-28.800114320098
0
LWPOLYLINE
5
126
100
AcDbEntity
8
0
100
AcDbPolyline
90
12
70
1
43
0.0
10
97.288926903600554
20
-32.305114320097992
10
98.68892690360056
20
-32.305114320097992
10
98.688926903600546
20
-28.800114320097997
10
95.03892690360054
20
-28.800114320097997
10
95.03892690360054
20
-32.305114320097992
10
96.28892690360054
20
-32.305114320097992
10
96.28892690360054
20
-35.905114320097994
10
95.03892690360054
20
-35.905114320097994
10
95.03892690360054
20
-39.410114320097996
10
98.53892690360054
20
-39.410114320097996
10
98.538926903600554
20
-35.905114320097994
10
97.288926903600554
20
-35.905114320097994
0
LWPOLYLINE
5
127
100
AcDbEntity
8
0
100
AcDbPolyline
90
12
70
1
43
0.0
10
102.62892690360054
20
-32.500114320098
10
105.70892690360054
20
-32.500114320098
10
105.70892690360054
20
-33.870114320097997
10
108.99892690360055
20
-33.870114320097997
10
108.99892690360055
20
-28.800114320097997
10
101.62892690360054
20
-28.800114320098
10
101.62892690360054
20
-35.905114320097994
10
100.37892690360054
20
-35.905114320097994
10
100.37892690360054
20
-39.410114320097996
10
103.87892690360054
20
-39.410114320097996
10
103.87892690360054
20
-35.905114320097994
10
102.62892690360054
20
-35.905114320097994
0
LWPOLYLINE
5
128
100
AcDbEntity
8
0
100
AcDbPolyline
90
12
70
1
43
0.0
10
110.53017690360056
20
-1.4551143200980299
10
81.61767690360054
20
-1.4551143200980299
42
0.41421356237309503
10
80.11767690360054
20
-2.9551143200980245
10
80.11767690360054
20
-23.580197706866628
42
-0.41421356237309592
10
78.617676903600554
20
-25.080197706866624
10
56.530176903600534
20
-25.08019770686662
42
0.41421356237309503
10
55.030176903600534
20
-26.580197706866628
10
55.030176903600534
20
-52.155114320098036
42
0.41421356237309331
10
56.530176903600534
20
-53.655114320098029
10
110.53017690360058
20
-53.655114320098029
42
0.41421356237309159
10
112.03017690360056
20
-52.155114320098022
10
112.03017690360056
20
-2.9551143200980245
42
0.41421356237309503
0
LWPOLYLINE
5
129
100
AcDbEntity
8
0
100
AcDbPolyline
90
8
70
1
43
0.0
10
84.373926903600562
20
-19.155114320098015
10
84.373926903600562
20
-9.1551143200980256
42
-0.41421356237308943
10
85.873926903600548
20
-7.6551143200980256
10
106.27392690360055
20
-7.6551143200980238
42
-0.41421356237309465
10
107.77392690360057
20
-9.1551143200980256
10
107.77392690360057
20
-19.155114320098015
42
-0.41421356237309465
10
106.27392690360055
20
-20.655114320098022
10
85.873926903600548
20
-20.655114320098011
42
-0.41421356237308982
0
LWPOLYLINE
5
130
100
AcDbEntity
8
0
100
AcDbPolyline
90
8
70
1
43
0.0
10
85.373926903600534
20
-45.955114320098019
10
85.37392690360052
20
-35.955114320098019
42
-0.41421356237309764
10
86.873926903600548
20
-34.455114320098026
10
107.27392690360055
20
-34.455114320098012
42
-0.41421356237308898
10
108.77392690360055
20
-35.955114320098019
10
108.77392690360055
20
-45.955114320098019
42
-0.41421356237308815
10
107.27392690360055
20
-47.455114320098026
10
86.873926903600562
20
-47.455114320098019
42
-0.41421356237309331
0
LWPOLYLINE
5
131
100
AcDbEntity
8
0
100
AcDbPolyline
90
8
70
1
43
0.0
10
56.030176903600534
20
-44.367656013482332
10
56.030176903600534
20
-34.367656013482332
42
-0.41421356237309503
10
57.530176903600534
20
-32.867656013482325
10
77.93017690360054
20
-32.867656013482325
42
-0.4142135623730942
10
79.43017690360054
20
-34.367656013482325
10
79.43017690360054
20
-44.367656013482332
42
-0.41421356237308815
10
77.93017690360054
20
-45.867656013482332
10
57.530176903600534
20
-45.867656013482332
42
-0.41421356237308815
0
LINE
5
132
100
AcDbEntity
8
0
100
AcDbLine
10
84.14892690360054
20
-2.0001143200979965
30
0
11
107.99892690360053
21
-26.310114320097998
31
5.7700550786451737e-85
0
LINE
5
133
100
AcDbEntity
8
0
100
AcDbLine
10
84.14892690360054
20
-26.310114320097998
30
0
11
107.99892690360053
21
-2.0001143200979996
31
8.6736173798840355e-18
0
LINE
5
134
100
AcDbEntity
8
0
100
AcDbLine
10
55.805176903600525
20
-27.212656013482306
30
0
11
79.655176903600506
21
-51.522656013482319
31
5.7700550786451737e-85
0
LINE
5
135
100
AcDbEntity
8
0
100
AcDbLine
10
79.65517690360052
20
-27.212656013482309
30
8.6736173798840355e-18
11
55.805176903600525
21
-51.522656013482305
31
0
0
LINE
5
136
100
AcDbEntity
8
0
100
AcDbLine
10
85.148926903600554
20
-28.80011432009799
30
0
11
108.99892690360055
21
-53.110114320097992
31
5.7700550786451737e-85
0
LINE
5
137
100
AcDbEntity
8
0
100
AcDbLine
10
108.99892690360055
20
-28.800114320097997
30
8.6736173798840355e-18
11
85.148926903600554
21
-53.110114320097992
31
0
0
LWPOLYLINE
5
138
100
AcDbEntity
8
0
100
AcDbPolyline
90
4
70
1
43
0.0
10
65.730176903600508
20
-40.967656013482312
10
69.730176903600508
20
-40.967656013482319
10
69.730176903600508
20
-37.767656013482316
10
65.730176903600494
20
-37.767656013482316
0
LINE
5
139
100
AcDbEntity
8
0
100
AcDbLine
10
65.730176903600508
20
-40.967656013482312
30
0
11
69.730176903600508
21
-37.767656013482316
31
8.6736173798840355e-18
0
LINE
5
140
100
AcDbEntity
8
0
100
AcDbLine
10
69.730176903600508
20
-40.967656013482319
30
0
11
65.730176903600494
21
-37.767656013482316
31
0
0
LWPOLYLINE
5
141
100
AcDbEntity
8
0
100
AcDbPolyline
90
4
70
1
43
0.0
10
95.073926903600565
20
-39.355114320097968
10
99.073926903600551
20
-39.355114320097968
10
99.073926903600551
20
-42.555114320098028
10
95.073926903600565
20
-42.555114320098028
0
LINE
5
142
100
AcDbEntity
8
0
100
AcDbLine
10
95.073926903600565
20
-39.355114320097968
30
-4.0954838658530933e-17
11
99.073926903600551
21
-42.555114320098028
31
4.9628456038414969e-17
0
LINE
5
143
100
AcDbEntity
8
0
100
AcDbLine
10
99.073926903600551
20
-39.355114320097968
30
-4.0954838658530933e-17
11
95.073926903600565
21
-42.555114320098028
31
-4.0954838658530933e-17
0
LWPOLYLINE
5
144
100
AcDbEntity
8
0
100
AcDbPolyline
90
4
70
1
43
0.0
10
98.073926903600537
20
-15.755114320098
10
94.073926903600551
20
-15.755114320098
10
94.073926903600551
20
-12.555114320097992
10
98.073926903600537
20
-12.555114320097992
0
LINE
5
145
100
AcDbEntity
8
0
100
AcDbLine
10
98.073926903600537
20
-15.755114320098
30
1.1527676697934808e-17
11
94.073926903600551
21
-12.555114320097992
31
-1.1527676697934808e-17
0
LINE
5
146
100
AcDbEntity
8
0
100
AcDbLine
10
94.073926903600551
20
-15.755114320098
30
1.1527676697934808e-17
11
98.073926903600537
21
-12.555114320097992
31
1.1527676697934808e-17
0
ENDSEC
0
SECTION
2
OBJECTS
0
DICTIONARY
5
C
100
AcDbDictionary
3
ACAD_GROUP
350
D
3
ACAD_MLINESTYLE
350
17
0
DICTIONARY
5
D
100
AcDbDictionary
0
DICTIONARY
5
1A
330
C
100
AcDbDictionary
0
DICTIONARY
5
17
100
AcDbDictionary
0
ENDSEC
0
EOF
