0
SECTION
2
HEADER
9
$INSUNITS
70
4
9
$ACADVER
1
AC1014
9
$HANDSEED
5
FFFF
0
ENDSEC
0
SECTION
2
TABLES
0
TABLE
2
VPORT
5
8
100
AcDbSymbolTable
0
ENDTAB
0
TABLE
2
LTYPE
5
5
100
AcDbSymbolTable
0
LTYPE
5
14
100
AcDbSymbolTableRecord
100
AcDbLinetypeTableRecord
2
BYBLOCK
70
0
0
LTYPE
5
15
100
AcDbSymbolTableRecord
100
AcDbLinetypeTableRecord
2
BYLAYER
70
0
0
ENDTAB
0
TABLE
2
LAYER
5
2
100
AcDbSymbolTable
70
2
0
LAYER
5
50
100
AcDbSymbolTableRecord
100
AcDbLayerTableRecord
2
0
70
0
6
CONTINUOUS
0
ENDTAB
0
TABLE
2
STYLE
5
3
100
AcDbSymbolTable
70
1
0
STYLE
5
11
100
AcDbSymbolTableRecord
100
AcDbTextStyleTableRecord
2
STANDARD
70
0
0
ENDTAB
0
TABLE
2
VIEW
5
6
100
AcDbSymbolTable
70
0
0
ENDTAB
0
TABLE
2
UCS
5
7
100
AcDbSymbolTable
70
0
0
ENDTAB
0
TABLE
2
APPID
5
9
100
AcDbSymbolTable
70
2
0
APPID
5
12
100
AcDbSymbolTableRecord
100
AcDbRegAppTableRecord
2
ACAD
70
0
0
ENDTAB
0
TABLE
2
DIMSTYLE
5
A
100
AcDbSymbolTable
70
1
0
ENDTAB
0
TABLE
2
BLOCK_RECORD
5
1
100
AcDbSymbolTable
70
1
0
BLOCK_RECORD
5
1F
100
AcDbSymbolTableRecord
100
AcDbBlockTableRecord
2
*MODEL_SPACE
0
BLOCK_RECORD
5
1B
100
AcDbSymbolTableRecord
100
AcDbBlockTableRecord
2
*PAPER_SPACE
0
ENDTAB
0
ENDSEC
0
SECTION
2
BLOCKS
0
BLOCK
5
20
100
AcDbEntity
100
AcDbBlockBegin
2
*MODEL_SPACE
0
ENDBLK
5
21
100
AcDbEntity
100
AcDbBlockEnd
0
BLOCK
5
1C
100
AcDbEntity
100
AcDbBlockBegin
2
*PAPER_SPACE
0
ENDBLK
5
1D
100
AcDbEntity
100
AcDbBlockEnd
0
ENDSEC
0
SECTION
2
ENTITIES
0
LWPOLYLINE
5
100
100
AcDbEntity
8
0
100
AcDbPolyline
90
12
70
1
43
0.0
10
28.5
20
24.600000000000005
42
0.41421356237309503
10
27
20
26.100000000000001
10
-27
20
26.100000000000001
42
0.41421356237309503
10
-28.5
20
24.600000000000005
10
-28.5
20
-24.600000000000005
42
0.41421356237309503
10
-27
20
-26.100000000000001
10
1.9125000000000014
20
-26.100000000000001
42
0.41421356237309481
10
3.4125000000000005
20
-24.600000000000005
10
3.4124999999999996
20
-3.9749170000000023
42
-0.41421356237309548
10
4.9124999999999996
20
-2.4749169999999996
10
27
20
-2.474917
42
0.41421356237309498
10
28.5
20
-0.97491700000000048
0
LWPOLYLINE
5
101
100
AcDbEntity
8
0
100
AcDbPolyline
90
4
70
1
43
0.0
10
13.863900000000001
20
13.467942000000001
10
17.877099999999999
20
13.467942000000001
10
17.877099999999999
20
10.267542000000001
10
13.863900000000001
20
10.267542000000001
0
LWPOLYLINE
5
102
100
AcDbEntity
8
0
100
AcDbPolyline
90
4
70
1
43
0.0
10
-15.498500000000002
20
14.991942
10
-11.485300000000001
20
14.991942
10
-11.485300000000001
20
11.791542
10
-15.498500000000002
20
11.791542
0
LWPOLYLINE
5
103
100
AcDbEntity
8
0
100
AcDbPolyline
90
4
70
1
43
0.0
10
-14.539400000000002
20
-15.030658000000001
10
-14.539400000000002
20
-11.830258000000001
10
-10.526199999999999
20
-11.830258000000001
10
-10.526199999999999
20
-15.030658000000001
0
LWPOLYLINE
5
104
100
AcDbEntity
8
0
100
AcDbPolyline
90
12
70
1
43
0.0
10
28.5
20
24.600000000000005
42
0.41421356237309503
10
27
20
26.100000000000001
10
-27
20
26.100000000000001
42
0.41421356237309503
10
-28.5
20
24.600000000000005
10
-28.5
20
-24.600000000000005
42
0.41421356237309503
10
-27
20
-26.100000000000001
10
1.9125000000000014
20
-26.100000000000001
42
0.41421356237309481
10
3.4125000000000005
20
-24.600000000000005
10
3.4124999999999996
20
-3.9749170000000023
42
-0.41421356237309548
10
4.9124999999999996
20
-2.4749169999999996
10
27
20
-2.474917
42
0.41421356237309503
10
28.5
20
-0.97491700000000026
0
LWPOLYLINE
5
105
100
AcDbEntity
8
0
100
AcDbPolyline
90
4
70
1
43
0.0
10
13.863900000000001
20
13.467942000000001
10
17.877099999999999
20
13.467942000000001
10
17.877099999999999
20
10.267542000000001
10
13.863900000000001
20
10.267542000000001
0
LWPOLYLINE
5
106
100
AcDbEntity
8
0
100
AcDbPolyline
90
4
70
1
43
0.0
10
-15.498500000000002
20
14.991942
10
-11.485300000000001
20
14.991942
10
-11.485300000000001
20
11.791542
10
-15.498500000000002
20
11.791542
0
LWPOLYLINE
5
107
100
AcDbEntity
8
0
100
AcDbPolyline
90
4
70
1
43
0.0
10
-14.539400000000002
20
-15.030658000000001
10
-14.539400000000002
20
-11.830258000000001
10
-10.526199999999999
20
-11.830258000000001
10
-10.526199999999999
20
-15.030658000000001
0
LWPOLYLINE
5
108
100
AcDbEntity
8
0
100
AcDbPolyline
90
2
70
1
43
0.0
10
1.5879999999999994
20
-6.8254580000000011
10
-18.932000000000002
20
-6.8254579999999985
0
LWPOLYLINE
5
109
100
AcDbEntity
8
0
100
AcDbPolyline
90
4
70
1
43
0.0
10
-18.932000000000002
20
-6.8254579999999985
10
-18.932000000000002
20
-6.4021246666669986
10
-18.932000000000002
20
-4.7087913333329983
10
-18.932000000000002
20
-4.2854579999999984
0
LWPOLYLINE
5
110
100
AcDbEntity
8
0
100
AcDbPolyline
90
2
70
1
43
0.0
10
-18.932000000000002
20
-4.2854579999999984
10
1.5879999999999983
20
-4.2854580000000011
0
LWPOLYLINE
5
111
100
AcDbEntity
8
0
100
AcDbPolyline
90
4
70
1
43
0.0
10
1.5879999999999983
20
-4.2854580000000011
10
1.5879999999999994
20
-4.7087913333330009
10
1.5879999999999992
20
-6.4021246666670013
10
1.5879999999999994
20
-6.8254580000000011
0
LWPOLYLINE
5
112
100
AcDbEntity
8
0
100
AcDbPolyline
90
4
70
1
43
0.0
10
-1.9045000000000001
20
6.9520419999999996
10
-1.9045000000000001
20
6.5287086666669989
10
-1.9045000000000003
20
4.8353753333329994
10
-1.9045000000000001
20
4.4120419999999996
0
LWPOLYLINE
5
113
100
AcDbEntity
8
0
100
AcDbPolyline
90
4
70
1
43
0.0
10
0.57199999999999918
20
22.509541999999996
10
0.57199999999999906
20
22.086208666666998
10
0.57199999999999895
20
20.392875333333002
10
0.57199999999999906
20
19.969542000000001
0
LWPOLYLINE
5
114
100
AcDbEntity
8
0
100
AcDbPolyline
90
4
70
1
43
0.0
10
24.956
20
20.859541999999998
10
24.956
20
20.436208666667
10
24.956
20
18.742875333333
10
24.956
20
18.319541999999998
0
LWPOLYLINE
5
115
100
AcDbEntity
8
0
100
AcDbPolyline
90
4
70
1
43
0.0
10
22.289000000000001
20
5.2385419999999989
10
22.289000000000001
20
4.8152086666669991
10
22.289000000000001
20
3.1218753333329992
10
22.289000000000001
20
2.698541999999998
0
LWPOLYLINE
5
116
100
AcDbEntity
8
0
100
AcDbPolyline
90
4
70
1
43
0.0
10
-6.0320000000000018
20
-19.844958000000005
10
-6.0320000000000018
20
-20.268291333333003
10
-6.0320000000000018
20
-21.961624666666999
10
-6.0320000000000018
20
-22.384957999999997
0
LWPOLYLINE
5
117
100
AcDbEntity
8
0
100
AcDbPolyline
90
2
70
1
43
0.0
10
1.7690000000000006
20
5.2385420000000016
10
22.289000000000001
20
5.2385419999999989
0
LWPOLYLINE
5
118
100
AcDbEntity
8
0
100
AcDbPolyline
90
2
70
1
43
0.0
10
-22.424499999999998
20
6.9520420000000014
10
-1.9045000000000001
20
6.9520419999999996
0
LWPOLYLINE
5
119
100
AcDbEntity
8
0
100
AcDbPolyline
90
2
70
1
43
0.0
10
4.4359999999999999
20
20.859542000000005
10
24.956
20
20.859541999999998
0
LWPOLYLINE
5
120
100
AcDbEntity
8
0
100
AcDbPolyline
90
2
70
1
43
0.0
10
-19.948
20
22.509542000000003
10
0.57199999999999918
20
22.509541999999996
0
LWPOLYLINE
5
121
100
AcDbEntity
8
0
100
AcDbPolyline
90
2
70
1
43
0.0
10
-26.552000000000003
20
-19.844957999999998
10
-6.0320000000000018
20
-19.844958000000005
0
LWPOLYLINE
5
122
100
AcDbEntity
8
0
100
AcDbPolyline
90
4
70
1
43
0.0
10
-26.552000000000003
20
-22.384957999999997
10
-26.552000000000003
20
-21.961624666666999
10
-26.552000000000003
20
-20.268291333333003
10
-26.552000000000003
20
-19.844957999999998
0
LWPOLYLINE
5
123
100
AcDbEntity
8
0
100
AcDbPolyline
90
4
70
1
43
0.0
10
1.7690000000000006
20
2.6985420000000011
10
1.7690000000000006
20
3.1218753333330005
10
1.7690000000000008
20
4.8152086666670009
10
1.7690000000000006
20
5.2385420000000016
0
LWPOLYLINE
5
124
100
AcDbEntity
8
0
100
AcDbPolyline
90
4
70
1
43
0.0
10
4.4359999999999999
20
18.319542000000006
10
4.4359999999999999
20
18.742875333333004
10
4.4360000000000008
20
20.436208666667003
10
4.4359999999999999
20
20.859542000000005
0
LWPOLYLINE
5
125
100
AcDbEntity
8
0
100
AcDbPolyline
90
4
70
1
43
0.0
10
-19.948
20
19.969542000000004
10
-19.948
20
20.392875333333002
10
-19.948
20
22.086208666666998
10
-19.948
20
22.509542000000003
0
LWPOLYLINE
5
126
100
AcDbEntity
8
0
100
AcDbPolyline
90
4
70
1
43
0.0
10
-22.424499999999998
20
4.4120420000000014
10
-22.424499999999998
20
4.8353753333330021
10
-22.424499999999998
20
6.5287086666670024
10
-22.424499999999998
20
6.9520420000000014
0
LWPOLYLINE
5
127
100
AcDbEntity
8
0
100
AcDbPolyline
90
2
70
1
43
0.0
10
22.289000000000001
20
2.698541999999998
10
1.7690000000000006
20
2.6985420000000011
0
LWPOLYLINE
5
128
100
AcDbEntity
8
0
100
AcDbPolyline
90
2
70
1
43
0.0
10
24.956
20
18.319541999999998
10
4.4359999999999999
20
18.319542000000006
0
LWPOLYLINE
5
129
100
AcDbEntity
8
0
100
AcDbPolyline
90
2
70
1
43
0.0
10
0.57199999999999906
20
19.969542000000001
10
-19.948
20
19.969542000000004
0
LWPOLYLINE
5
130
100
AcDbEntity
8
0
100
AcDbPolyline
90
2
70
1
43
0.0
10
-1.9045000000000001
20
4.4120419999999996
10
-22.424499999999998
20
4.4120420000000014
0
LWPOLYLINE
5
131
100
AcDbEntity
8
0
100
AcDbPolyline
90
2
70
1
43
0.0
10
-6.0320000000000018
20
-22.384957999999997
10
-26.552000000000003
20
-22.384957999999997
0
LWPOLYLINE
5
132
100
AcDbEntity
8
0
100
AcDbPolyline
90
4
70
1
43
0.0
10
-9.7020000000000017
20
-18.854958000000003
10
-9.6420000000000012
20
-20.914958000000002
10
-10.242000000000003
20
-20.914958000000002
10
-10.182000000000002
20
-18.854958000000003
42
-0.24999999999999961
0
LWPOLYLINE
5
133
100
AcDbEntity
8
0
100
AcDbPolyline
90
4
70
1
43
0.0
10
-14.782000000000002
20
-18.854958000000003
10
-14.722000000000001
20
-20.914958000000002
10
-15.322000000000003
20
-20.914958000000002
10
-15.262000000000002
20
-18.854958000000003
42
-0.25000000000000056
0
LWPOLYLINE
5
134
100
AcDbEntity
8
0
100
AcDbPolyline
90
4
70
1
43
0.0
10
-19.862000000000002
20
-18.854958000000003
10
-19.802000000000003
20
-20.914958000000002
10
-20.402000000000005
20
-20.914958000000002
10
-20.342000000000002
20
-18.854958000000003
42
-0.25000000000000056
0
LWPOLYLINE
5
135
100
AcDbEntity
8
0
100
AcDbPolyline
90
4
70
1
43
0.0
10
-24.942
20
-18.854958000000003
10
-24.881999999999998
20
-20.914958000000002
10
-25.481999999999999
20
-20.914958000000002
10
-25.422000000000008
20
-18.854958000000003
42
-0.25000000000000255
0
LWPOLYLINE
5
136
100
AcDbEntity
8
0
100
AcDbPolyline
90
4
70
1
43
0.0
10
-22.882000000000001
20
-23.374957999999999
10
-22.942
20
-21.314958000000001
10
-22.341999999999999
20
-21.314958000000001
10
-22.402000000000008
20
-23.374957999999999
42
-0.24999999999999842
0
LWPOLYLINE
5
137
100
AcDbEntity
8
0
100
AcDbPolyline
90
4
70
1
43
0.0
10
-17.802000000000003
20
-23.374957999999999
10
-17.862000000000002
20
-21.314958000000001
10
-17.262
20
-21.314958000000001
10
-17.322000000000003
20
-23.374957999999999
42
-0.25000000000000056
0
LWPOLYLINE
5
138
100
AcDbEntity
8
0
100
AcDbPolyline
90
4
70
1
43
0.0
10
-12.722000000000001
20
-23.374957999999999
10
-12.782000000000002
20
-21.314958000000001
10
-12.182000000000002
20
-21.314958000000001
10
-12.242000000000001
20
-23.374957999999999
42
-0.25000000000000056
0
LWPOLYLINE
5
139
100
AcDbEntity
8
0
100
AcDbPolyline
90
4
70
1
43
0.0
10
-7.6420000000000012
20
-23.374957999999999
10
-7.7020000000000017
20
-21.314958000000001
10
-7.1020000000000021
20
-21.314958000000001
10
-7.1620000000000008
20
-23.374957999999999
42
-0.25000000000000056
0
LWPOLYLINE
5
140
100
AcDbEntity
8
0
100
AcDbPolyline
90
4
70
1
43
0.0
10
-15.262000000000002
20
-7.8154579999999987
10
-15.322000000000003
20
-5.7554579999999991
10
-14.722
20
-5.7554579999999991
10
-14.782000000000002
20
-7.8154579999999987
42
-0.25000000000000056
0
LWPOLYLINE
5
141
100
AcDbEntity
8
0
100
AcDbPolyline
90
4
70
1
43
0.0
10
-10.182000000000002
20
-7.8154579999999996
10
-10.242000000000003
20
-5.755458
10
-9.6419999999999995
20
-5.755458
10
-9.702
20
-7.8154579999999996
42
-0.250000000000001
0
LWPOLYLINE
5
142
100
AcDbEntity
8
0
100
AcDbPolyline
90
4
70
1
43
0.0
10
-5.1020000000000012
20
-7.8154579999999996
10
-5.1620000000000008
20
-5.755458
10
-4.5620000000000003
20
-5.755458
10
-4.6220000000000008
20
-7.8154579999999996
42
-0.25000000000000056
0
LWPOLYLINE
5
143
100
AcDbEntity
8
0
100
AcDbPolyline
90
4
70
1
43
0.0
10
-0.021999999999999797
20
-7.8154580000000005
10
-0.082000000000000739
20
-5.7554580000000009
10
0.51799999999999957
20
-5.7554580000000009
10
0.45800000000000052
20
-7.8154580000000005
42
-0.25000000000000044
0
LWPOLYLINE
5
144
100
AcDbEntity
8
0
100
AcDbPolyline
90
4
70
1
43
0.0
10
-18.7545
20
3.422042000000002
10
-18.814500000000002
20
5.4820420000000016
10
-18.214500000000001
20
5.4820420000000016
10
-18.274500000000003
20
3.4220420000000007
42
-0.24999999999999961
0
LWPOLYLINE
5
145
100
AcDbEntity
8
0
100
AcDbPolyline
90
4
70
1
43
0.0
10
-13.6745
20
3.4220420000000007
10
-13.734500000000001
20
5.4820419999999999
10
-13.134499999999999
20
5.4820419999999999
10
-13.194499999999998
20
3.4220420000000007
42
-0.25000000000000033
0
LWPOLYLINE
5
146
100
AcDbEntity
8
0
100
AcDbPolyline
90
4
70
1
43
0.0
10
-8.5945
20
3.4220420000000007
10
-8.6545000000000005
20
5.4820419999999999
10
-8.0545000000000009
20
5.4820419999999999
10
-8.1144999999999996
20
3.4220420000000007
42
-0.25000000000000056
0
LWPOLYLINE
5
147
100
AcDbEntity
8
0
100
AcDbPolyline
90
4
70
1
43
0.0
10
-3.5144999999999991
20
3.4220419999999994
10
-3.5745000000000005
20
5.482041999999999
10
-2.9744999999999999
20
5.482041999999999
10
-3.0344999999999986
20
3.4220419999999994
42
-0.25000000000000056
0
LWPOLYLINE
5
148
100
AcDbEntity
8
0
100
AcDbPolyline
90
4
70
1
43
0.0
10
-2.0820000000000007
20
-3.2954580000000009
10
-2.0220000000000007
20
-5.3554580000000005
10
-2.6220000000000008
20
-5.3554580000000005
10
-2.5620000000000003
20
-3.2954580000000009
42
-0.25000000000000006
0
LWPOLYLINE
5
149
100
AcDbEntity
8
0
100
AcDbPolyline
90
4
70
1
43
0.0
10
-7.1620000000000008
20
-3.295458
10
-7.1020000000000003
20
-5.3554579999999996
10
-7.7020000000000008
20
-5.3554579999999996
10
-7.6420000000000012
20
-3.295458
42
-0.25000000000000033
0
LWPOLYLINE
5
150
100
AcDbEntity
8
0
100
AcDbPolyline
90
4
70
1
43
0.0
10
-12.242000000000001
20
-3.295458
10
-12.182000000000002
20
-5.3554579999999996
10
-12.782
20
-5.3554579999999996
10
-12.722
20
-3.2954579999999991
42
-0.24999999999999961
0
LWPOLYLINE
5
151
100
AcDbEntity
8
0
100
AcDbPolyline
90
4
70
1
43
0.0
10
-17.322000000000003
20
-3.2954579999999991
10
-17.262
20
-5.3554579999999987
10
-17.862000000000002
20
-5.3554579999999987
10
-17.802
20
-3.2954579999999978
42
-0.24999999999999961
0
LWPOLYLINE
5
152
100
AcDbEntity
8
0
100
AcDbPolyline
90
4
70
1
43
0.0
10
-5.5745000000000005
20
7.9420419999999989
10
-5.5145
20
5.8820419999999993
10
-6.1145000000000005
20
5.8820419999999993
10
-6.0545000000000009
20
7.9420420000000007
42
-0.25000000000000006
0
LWPOLYLINE
5
153
100
AcDbEntity
8
0
100
AcDbPolyline
90
4
70
1
43
0.0
10
-10.654500000000001
20
7.9420420000000007
10
-10.5945
20
5.8820420000000002
10
-11.194500000000001
20
5.8820420000000002
10
-11.134500000000001
20
7.9420420000000007
42
-0.25000000000000056
0
LWPOLYLINE
5
154
100
AcDbEntity
8
0
100
AcDbPolyline
90
4
70
1
43
0.0
10
-15.734500000000001
20
7.9420420000000007
10
-15.6745
20
5.8820420000000002
10
-16.2745
20
5.8820420000000002
10
-16.214500000000001
20
7.9420420000000007
42
-0.25000000000000056
0
LWPOLYLINE
5
155
100
AcDbEntity
8
0
100
AcDbPolyline
90
4
70
1
43
0.0
10
-20.814500000000002
20
7.9420420000000016
10
-20.7545
20
5.882042000000002
10
-21.354500000000002
20
5.882042000000002
10
-21.294500000000003
20
7.9420420000000016
42
-0.25000000000000056
0
LWPOLYLINE
5
156
100
AcDbEntity
8
0
100
AcDbPolyline
90
4
70
1
43
0.0
10
-18.338000000000001
20
23.499541999999998
10
-18.278000000000002
20
21.439541999999999
10
-18.878
20
21.439541999999999
10
-18.818000000000001
20
23.499541999999998
42
-0.25000000000000056
0
LWPOLYLINE
5
157
100
AcDbEntity
8
0
100
AcDbPolyline
90
4
70
1
43
0.0
10
-13.258000000000001
20
23.499541999999998
10
-13.198
20
21.439541999999999
10
-13.798000000000002
20
21.439541999999999
10
-13.738000000000001
20
23.499541999999998
42
-0.25000000000000056
0
LWPOLYLINE
5
158
100
AcDbEntity
8
0
100
AcDbPolyline
90
4
70
1
43
0.0
10
-8.1780000000000008
20
23.499541999999998
10
-8.1180000000000003
20
21.439541999999999
10
-8.7180000000000017
20
21.439541999999999
10
-8.6580000000000013
20
23.499541999999998
42
-0.25000000000000056
0
LWPOLYLINE
5
159
100
AcDbEntity
8
0
100
AcDbPolyline
90
4
70
1
43
0.0
10
-3.0980000000000008
20
23.499541999999998
10
-3.0380000000000007
20
21.439541999999999
10
-3.6380000000000012
20
21.439541999999999
10
-3.5780000000000007
20
23.499541999999998
42
-0.25000000000000006
0
LWPOLYLINE
5
160
100
AcDbEntity
8
0
100
AcDbPolyline
90
4
70
1
43
0.0
10
-16.278000000000002
20
18.979542000000002
10
-16.338000000000001
20
21.039542000000001
10
-15.738000000000001
20
21.039542000000001
10
-15.798000000000004
20
18.979542000000002
42
-0.24999999999999961
0
LWPOLYLINE
5
161
100
AcDbEntity
8
0
100
AcDbPolyline
90
4
70
1
43
0.0
10
-11.198
20
18.979542000000002
10
-11.258000000000001
20
21.039542000000001
10
-10.658000000000001
20
21.039542000000001
10
-10.718
20
18.979542000000002
42
-0.25000000000000056
0
LWPOLYLINE
5
162
100
AcDbEntity
8
0
100
AcDbPolyline
90
4
70
1
43
0.0
10
-6.1180000000000012
20
18.979542000000002
10
-6.1780000000000008
20
21.039542000000001
10
-5.5780000000000012
20
21.039542000000001
10
-5.6380000000000008
20
18.979542000000002
42
-0.25000000000000056
0
LWPOLYLINE
5
163
100
AcDbEntity
8
0
100
AcDbPolyline
90
4
70
1
43
0.0
10
-1.038
20
18.979542000000002
10
-1.098000000000001
20
21.039542000000001
10
-0.49800000000000066
20
21.039542000000001
10
-0.55799999999999972
20
18.979542000000002
42
-0.25000000000000044
0
LWPOLYLINE
5
164
100
AcDbEntity
8
0
100
AcDbPolyline
90
4
70
1
43
0.0
10
5.4390000000000001
20
1.7085420000000009
10
5.3790000000000004
20
3.7685420000000001
10
5.979000000000001
20
3.7685420000000009
10
5.9189999999999996
20
1.7085420000000004
42
-0.24999999999999983
0
LWPOLYLINE
5
165
100
AcDbEntity
8
0
100
AcDbPolyline
90
4
70
1
43
0.0
10
10.519
20
1.7085420000000004
10
10.459
20
3.7685420000000001
10
11.059000000000001
20
3.7685420000000001
10
10.999000000000001
20
1.7085420000000004
42
-0.25000000000000033
0
LWPOLYLINE
5
166
100
AcDbEntity
8
0
100
AcDbPolyline
90
4
70
1
43
0.0
10
15.599
20
1.7085419999999998
10
15.539000000000001
20
3.7685419999999992
10
16.139000000000003
20
3.7685419999999996
10
16.079000000000001
20
1.7085419999999998
42
-0.25000000000000044
0
LWPOLYLINE
5
167
100
AcDbEntity
8
0
100
AcDbPolyline
90
4
70
1
43
0.0
10
20.679000000000002
20
1.7085419999999993
10
20.619
20
3.7685419999999992
10
21.219000000000001
20
3.7685419999999992
10
21.159000000000002
20
1.7085419999999993
42
-0.25000000000000044
0
LWPOLYLINE
5
168
100
AcDbEntity
8
0
100
AcDbPolyline
90
4
70
1
43
0.0
10
18.265999999999998
20
17.329542000000004
10
18.206
20
19.389542000000002
10
18.806000000000001
20
19.389542000000002
10
18.746000000000002
20
17.329542000000004
42
-0.25000000000000056
0
LWPOLYLINE
5
169
100
AcDbEntity
8
0
100
AcDbPolyline
90
4
70
1
43
0.0
10
13.186
20
17.329542000000004
10
13.125999999999999
20
19.389542000000002
10
13.726000000000001
20
19.389542000000002
10
13.666
20
17.329542000000004
42
-0.25000000000000056
0
LWPOLYLINE
5
170
100
AcDbEntity
8
0
100
AcDbPolyline
90
4
70
1
43
0.0
10
8.1059999999999999
20
17.329542000000004
10
8.0459999999999994
20
19.389542000000006
10
8.6460000000000008
20
19.389542000000006
10
8.5860000000000003
20
17.329542000000004
42
-0.25000000000000006
0
LWPOLYLINE
5
171
100
AcDbEntity
8
0
100
AcDbPolyline
90
4
70
1
43
0.0
10
23.346
20
17.329542
10
23.285999999999998
20
19.389541999999999
10
23.885999999999999
20
19.389541999999999
10
23.826000000000004
20
17.329542000000004
42
-0.25000000000000255
0
LWPOLYLINE
5
172
100
AcDbEntity
8
0
100
AcDbPolyline
90
4
70
1
43
0.0
10
6.0459999999999994
20
21.849542000000003
10
6.1059999999999999
20
19.789542000000004
10
5.5060000000000002
20
19.789542000000004
10
5.5659999999999989
20
21.849542000000003
42
-0.25000000000000056
0
LWPOLYLINE
5
173
100
AcDbEntity
8
0
100
AcDbPolyline
90
4
70
1
43
0.0
10
11.126000000000001
20
21.849542000000003
10
11.186
20
19.789542000000004
10
10.586
20
19.789542000000001
10
10.645999999999997
20
21.849542
42
-0.25000000000000161
0
LWPOLYLINE
5
174
100
AcDbEntity
8
0
100
AcDbPolyline
90
4
70
1
43
0.0
10
16.206
20
21.849542
10
16.266000000000002
20
19.789542000000001
10
15.666
20
19.789542000000001
10
15.725999999999999
20
21.849542
42
-0.25000000000000056
0
LWPOLYLINE
5
175
100
AcDbEntity
8
0
100
AcDbPolyline
90
4
70
1
43
0.0
10
21.286000000000001
20
21.849542
10
21.345999999999997
20
19.789542000000001
10
20.745999999999999
20
19.789542000000001
10
20.806000000000004
20
21.849542
42
-0.24999999999999842
0
LWPOLYLINE
5
176
100
AcDbEntity
8
0
100
AcDbPolyline
90
4
70
1
43
0.0
10
3.3789999999999996
20
6.228542
10
3.4390000000000009
20
4.1685420000000004
10
2.8390000000000004
20
4.1685420000000004
10
2.899
20
6.228542
42
-0.25000000000000033
0
LWPOLYLINE
5
177
100
AcDbEntity
8
0
100
AcDbPolyline
90
4
70
1
43
0.0
10
8.4590000000000014
20
6.228542
10
8.5190000000000019
20
4.1685420000000004
10
7.9190000000000005
20
4.1685420000000004
10
7.979000000000001
20
6.228542
42
-0.25000000000000056
0
LWPOLYLINE
5
178
100
AcDbEntity
8
0
100
AcDbPolyline
90
4
70
1
43
0.0
10
13.539000000000001
20
6.2285419999999991
10
13.599
20
4.1685419999999995
10
12.999000000000001
20
4.1685419999999995
10
13.059000000000001
20
6.2285419999999991
42
-0.25000000000000056
0
LWPOLYLINE
5
179
100
AcDbEntity
8
0
100
AcDbPolyline
90
4
70
1
43
0.0
10
18.619
20
6.2285419999999991
10
18.679000000000002
20
4.1685419999999995
10
18.079000000000001
20
4.1685419999999986
10
18.139000000000003
20
6.2285419999999991
42
-0.24999999999999961
0
ENDSEC
0
SECTION
2
OBJECTS
0
DICTIONARY
5
C
100
AcDbDictionary
3
ACAD_GROUP
350
D
3
ACAD_MLINESTYLE
350
17
0
DICTIONARY
5
D
100
AcDbDictionary
0
DICTIONARY
5
1A
330
C
100
AcDbDictionary
0
DICTIONARY
5
17
100
AcDbDictionary
0
ENDSEC
0
EOF
