0
SECTION
2
HEADER
9
$INSUNITS
70
4
9
$ACADVER
1
AC1014
9
$HANDSEED
5
FFFF
0
ENDSEC
0
SECTION
2
TABLES
0
TABLE
2
VPORT
5
8
100
AcDbSymbolTable
0
ENDTAB
0
TABLE
2
LTYPE
5
5
100
AcDbSymbolTable
0
LTYPE
5
14
100
AcDbSymbolTableRecord
100
AcDbLinetypeTableRecord
2
BYBLOCK
70
0
0
LTYPE
5
15
100
AcDbSymbolTableRecord
100
AcDbLinetypeTableRecord
2
BYLAYER
70
0
0
ENDTAB
0
TABLE
2
LAYER
5
2
100
AcDbSymbolTable
70
2
0
LAYER
5
50
100
AcDbSymbolTableRecord
100
AcDbLayerTableRecord
2
0
70
0
6
CONTINUOUS
0
ENDTAB
0
TABLE
2
STYLE
5
3
100
AcDbSymbolTable
70
1
0
STYLE
5
11
100
AcDbSymbolTableRecord
100
AcDbTextStyleTableRecord
2
STANDARD
70
0
0
ENDTAB
0
TABLE
2
VIEW
5
6
100
AcDbSymbolTable
70
0
0
ENDTAB
0
TABLE
2
UCS
5
7
100
AcDbSymbolTable
70
0
0
ENDTAB
0
TABLE
2
APPID
5
9
100
AcDbSymbolTable
70
2
0
APPID
5
12
100
AcDbSymbolTableRecord
100
AcDbRegAppTableRecord
2
ACAD
70
0
0
ENDTAB
0
TABLE
2
DIMSTYLE
5
A
100
AcDbSymbolTable
70
1
0
ENDTAB
0
TABLE
2
BLOCK_RECORD
5
1
100
AcDbSymbolTable
70
1
0
BLOCK_RECORD
5
1F
100
AcDbSymbolTableRecord
100
AcDbBlockTableRecord
2
*MODEL_SPACE
0
BLOCK_RECORD
5
1B
100
AcDbSymbolTableRecord
100
AcDbBlockTableRecord
2
*PAPER_SPACE
0
ENDTAB
0
ENDSEC
0
SECTION
2
BLOCKS
0
BLOCK
5
20
100
AcDbEntity
100
AcDbBlockBegin
2
*MODEL_SPACE
0
ENDBLK
5
21
100
AcDbEntity
100
AcDbBlockEnd
0
BLOCK
5
1C
100
AcDbEntity
100
AcDbBlockBegin
2
*PAPER_SPACE
0
ENDBLK
5
1D
100
AcDbEntity
100
AcDbBlockEnd
0
ENDSEC
0
SECTION
2
ENTITIES
0
LWPOLYLINE
5
100
100
AcDbEntity
8
0
100
AcDbPolyline
90
12
70
1
43
0.0
10
17.041728070540024
20
34.796090949503075
42
0.41421356237309503
10
15.541728070540028
20
33.296090949503068
10
15.541728070540028
20
7.7211739495029663
42
0.4142135623730957
10
17.041728070540024
20
6.2211739495029565
10
39.129228070539973
20
6.221173949502945
42
-0.41421356237309515
10
40.629228070539973
20
4.721173949502945
10
40.629228070539973
20
-15.903909050497141
42
0.41421356237309548
10
42.129228070539959
20
-17.403909050497148
10
71.041728070539889
20
-17.403909050497155
42
0.41421356237309503
10
72.541728070539889
20
-15.903909050497152
10
72.541728070539904
20
33.296090949503039
42
0.41421356237309681
10
71.041728070539904
20
34.796090949503061
0
LWPOLYLINE
5
101
100
AcDbEntity
8
0
100
AcDbPolyline
90
4
70
1
43
0.0
10
54.567928070539935
20
-3.1341670504970898
10
58.581128070539926
20
-3.1341670504970907
10
58.581128070539926
20
-6.3345670504971086
10
54.567928070539935
20
-6.3345670504971094
0
LWPOLYLINE
5
102
100
AcDbEntity
8
0
100
AcDbPolyline
90
4
70
1
43
0.0
10
26.164628070540008
20
18.963632949503008
10
26.164628070540008
20
22.164032949503021
10
30.177828070539995
20
22.164032949503017
10
30.177828070539995
20
18.963632949503001
0
LWPOLYLINE
5
103
100
AcDbEntity
8
0
100
AcDbPolyline
90
4
70
1
43
0.0
10
55.527028070539934
20
20.487632949503002
10
55.527028070539934
20
23.688032949503018
10
59.540228070539925
20
23.688032949503011
10
59.540228070539925
20
20.487632949502999
0
LWPOLYLINE
5
104
100
AcDbEntity
8
0
100
AcDbPolyline
90
60
70
1
43
0.0
10
26.694081102166002
20
8.7646329495029693
10
26.479375038914
20
8.7646329495029693
10
26.33272807054
20
8.510632949502968
10
24.046728070540002
20
8.5106329495029698
10
24.046728070540006
20
11.05063294950298
10
26.332728070540004
20
11.050632949502976
10
26.479375038914004
20
10.796632949502975
10
26.694081102166002
20
10.796632949502975
10
26.840728070540003
20
11.050632949502976
10
28.872728070539996
20
11.050632949502974
10
29.019375038913996
20
10.796632949502975
10
29.234081102165995
20
10.796632949502975
10
29.380728070539995
20
11.050632949502974
10
31.412728070539991
20
11.050632949502972
10
31.559375038913991
20
10.796632949502973
10
31.774081102165994
20
10.796632949502973
10
31.920728070539987
20
11.050632949502974
10
33.952728070539983
20
11.050632949502972
10
34.099375038913983
20
10.796632949502971
10
34.314081102165986
20
10.796632949502971
10
34.460728070539986
20
11.050632949502972
10
36.492728070539975
20
11.050632949502969
10
36.639375038913975
20
10.796632949502969
10
36.854081102165978
20
10.796632949502969
10
37.000728070539978
20
11.050632949502969
10
39.032728070539974
20
11.050632949502967
10
39.179375038913975
20
10.796632949502969
10
39.394081102165977
20
10.796632949502969
10
39.540728070539977
20
11.050632949502969
10
41.572728070539966
20
11.050632949502965
10
41.719375038913959
20
10.796632949502968
10
41.934081102165955
20
10.796632949502968
10
42.080728070539962
20
11.050632949502967
10
44.366728070539956
20
11.050632949502965
10
44.366728070539949
20
8.5106329495029556
10
42.080728070539955
20
8.5106329495029573
10
41.934081102165955
20
8.7646329495029587
10
41.719375038913967
20
8.7646329495029587
10
41.572728070539959
20
8.5106329495029591
10
39.540728070539963
20
8.5106329495029591
10
39.39408110216597
20
8.7646329495029605
10
39.179375038913975
20
8.7646329495029605
10
39.032728070539974
20
8.5106329495029591
10
37.000728070539978
20
8.5106329495029609
10
36.854081102165978
20
8.7646329495029622
10
36.639375038913975
20
8.7646329495029622
10
36.492728070539975
20
8.5106329495029627
10
34.460728070539986
20
8.5106329495029627
10
34.314081102165986
20
8.764632949502964
10
34.099375038913983
20
8.764632949502964
10
33.952728070539983
20
8.5106329495029627
10
31.920728070539987
20
8.5106329495029645
10
31.774081102165987
20
8.7646329495029658
10
31.559375038913984
20
8.7646329495029658
10
31.412728070539991
20
8.5106329495029662
10
29.380728070539995
20
8.5106329495029662
10
29.234081102165991
20
8.7646329495029676
10
29.019375038913996
20
8.7646329495029676
10
28.872728070539996
20
8.5106329495029662
10
26.840728070540003
20
8.510632949502968
0
LWPOLYLINE
5
105
100
AcDbEntity
8
0
100
AcDbPolyline
90
4
70
1
43
0.0
10
24.999228070540006
20
10.098132949502974
10
24.999228070540006
20
9.4631329495029721
10
25.634228070540004
20
9.4631329495029721
10
25.634228070540001
20
10.098132949502975
0
LWPOLYLINE
5
106
100
AcDbEntity
8
0
100
AcDbPolyline
90
4
70
1
43
0.0
10
27.539228070539998
20
10.098132949502974
10
27.539228070539998
20
9.4631329495029721
10
28.174228070539996
20
9.4631329495029721
10
28.174228070539996
20
10.098132949502974
0
LWPOLYLINE
5
107
100
AcDbEntity
8
0
100
AcDbPolyline
90
4
70
1
43
0.0
10
30.079228070539994
20
10.098132949502972
10
30.079228070539994
20
9.4631329495029686
10
30.714228070539992
20
9.4631329495029686
10
30.714228070539992
20
10.098132949502972
0
LWPOLYLINE
5
108
100
AcDbEntity
8
0
100
AcDbPolyline
90
4
70
1
43
0.0
10
32.619228070539982
20
10.098132949502968
10
32.619228070539982
20
9.4631329495029668
10
33.25422807053998
20
9.4631329495029686
10
33.25422807053998
20
10.098132949502968
0
LWPOLYLINE
5
109
100
AcDbEntity
8
0
100
AcDbPolyline
90
4
70
1
43
0.0
10
35.159228070539982
20
10.098132949502967
10
35.159228070539982
20
9.463132949502965
10
35.79422807053998
20
9.4631329495029668
10
35.79422807053998
20
10.098132949502968
0
LWPOLYLINE
5
110
100
AcDbEntity
8
0
100
AcDbPolyline
90
4
70
1
43
0.0
10
37.699228070539974
20
10.098132949502967
10
37.699228070539974
20
9.463132949502965
10
38.334228070539979
20
9.463132949502965
10
38.334228070539979
20
10.098132949502967
0
LWPOLYLINE
5
111
100
AcDbEntity
8
0
100
AcDbPolyline
90
4
70
1
43
0.0
10
40.239228070539966
20
10.098132949502965
10
40.239228070539966
20
9.4631329495029632
10
40.874228070539964
20
9.4631329495029632
10
40.874228070539964
20
10.098132949502965
0
LWPOLYLINE
5
112
100
AcDbEntity
8
0
100
AcDbPolyline
90
4
70
1
43
0.0
10
42.779228070539965
20
10.098132949502963
10
42.779228070539965
20
9.4631329495029597
10
43.414228070539956
20
9.4631329495029615
10
43.414228070539956
20
10.098132949502963
0
LWPOLYLINE
5
113
100
AcDbEntity
8
0
100
AcDbPolyline
90
60
70
1
43
0.0
10
26.532081102166011
20
29.936632949503057
10
26.317375038914008
20
29.936632949503057
10
26.170728070540008
20
29.682632949503052
10
23.884728070540014
20
29.682632949503052
10
23.884728070540021
20
32.222632949503065
10
26.170728070540015
20
32.222632949503065
10
26.317375038914012
20
31.968632949503061
10
26.532081102166011
20
31.968632949503064
10
26.678728070540011
20
32.222632949503065
10
28.710728070540004
20
32.222632949503065
10
28.857375038914004
20
31.968632949503061
10
29.072081102166006
20
31.968632949503064
10
29.218728070540006
20
32.222632949503065
10
31.250728070539999
20
32.222632949503065
10
31.397375038913999
20
31.968632949503061
10
31.612081102166002
20
31.968632949503061
10
31.758728070539995
20
32.222632949503058
10
33.790728070539991
20
32.222632949503065
10
33.937375038913999
20
31.968632949503061
10
34.152081102165994
20
31.968632949503061
10
34.298728070539994
20
32.222632949503058
10
36.330728070539983
20
32.222632949503065
10
36.477375038913983
20
31.968632949503061
10
36.692081102165986
20
31.968632949503061
10
36.838728070539986
20
32.222632949503058
10
38.870728070539982
20
32.222632949503065
10
39.017375038913983
20
31.968632949503053
10
39.232081102165985
20
31.968632949503061
10
39.378728070539978
20
32.222632949503058
10
41.410728070539975
20
32.222632949503058
10
41.557375038913975
20
31.968632949503053
10
41.77208110216597
20
31.968632949503061
10
41.91872807053997
20
32.222632949503058
10
44.204728070539964
20
32.222632949503058
10
44.204728070539964
20
29.682632949503049
10
41.91872807053997
20
29.682632949503049
10
41.77208110216597
20
29.936632949503053
10
41.557375038913975
20
29.93663294950305
10
41.410728070539975
20
29.682632949503045
10
39.378728070539978
20
29.682632949503049
10
39.232081102165978
20
29.936632949503053
10
39.017375038913976
20
29.936632949503053
10
38.870728070539982
20
29.682632949503052
10
36.838728070539986
20
29.682632949503049
10
36.692081102165986
20
29.936632949503053
10
36.477375038913983
20
29.936632949503053
10
36.330728070539983
20
29.682632949503052
10
34.298728070539994
20
29.682632949503049
10
34.152081102165994
20
29.936632949503057
10
33.937375038913991
20
29.936632949503053
10
33.790728070539998
20
29.682632949503052
10
31.758728070540002
20
29.682632949503052
10
31.612081102165995
20
29.936632949503057
10
31.397375038913996
20
29.936632949503053
10
31.250728070539999
20
29.682632949503052
10
29.218728070540006
20
29.682632949503052
10
29.072081102166006
20
29.936632949503057
10
28.857375038914004
20
29.936632949503053
10
28.710728070540004
20
29.682632949503052
10
26.678728070540011
20
29.682632949503052
0
LWPOLYLINE
5
114
100
AcDbEntity
8
0
100
AcDbPolyline
90
4
70
1
43
0.0
10
24.837228070540011
20
31.270132949503061
10
24.837228070540011
20
30.63513294950306
10
25.472228070540012
20
30.63513294950306
10
25.472228070540012
20
31.270132949503061
0
LWPOLYLINE
5
115
100
AcDbEntity
8
0
100
AcDbPolyline
90
4
70
1
43
0.0
10
27.377228070540006
20
31.270132949503061
10
27.377228070540006
20
30.63513294950306
10
28.012228070540004
20
30.63513294950306
10
28.012228070540004
20
31.270132949503061
0
LWPOLYLINE
5
116
100
AcDbEntity
8
0
100
AcDbPolyline
90
4
70
1
43
0.0
10
29.917228070540002
20
31.270132949503058
10
29.917228070540002
20
30.635132949503053
10
30.552228070540004
20
30.63513294950306
10
30.552228070540004
20
31.270132949503058
0
LWPOLYLINE
5
117
100
AcDbEntity
8
0
100
AcDbPolyline
90
4
70
1
43
0.0
10
32.457228070539998
20
31.270132949503058
10
32.457228070539998
20
30.635132949503053
10
33.092228070539996
20
30.635132949503053
10
33.092228070539996
20
31.270132949503058
0
LWPOLYLINE
5
118
100
AcDbEntity
8
0
100
AcDbPolyline
90
4
70
1
43
0.0
10
34.99722807053999
20
31.270132949503058
10
34.99722807053999
20
30.635132949503053
10
35.632228070539988
20
30.635132949503053
10
35.632228070539988
20
31.270132949503058
0
LWPOLYLINE
5
119
100
AcDbEntity
8
0
100
AcDbPolyline
90
4
70
1
43
0.0
10
37.537228070539982
20
31.270132949503058
10
37.537228070539982
20
30.635132949503053
10
38.172228070539987
20
30.635132949503053
10
38.172228070539987
20
31.270132949503058
0
LWPOLYLINE
5
120
100
AcDbEntity
8
0
100
AcDbPolyline
90
4
70
1
43
0.0
10
40.077228070539974
20
31.270132949503058
10
40.077228070539974
20
30.635132949503053
10
40.712228070539965
20
30.635132949503053
10
40.712228070539979
20
31.270132949503058
0
LWPOLYLINE
5
121
100
AcDbEntity
8
0
100
AcDbPolyline
90
4
70
1
43
0.0
10
42.617228070539966
20
31.270132949503054
10
42.617228070539966
20
30.635132949503049
10
43.252228070539964
20
30.635132949503053
10
43.252228070539971
20
31.270132949503058
0
LINE
5
122
100
AcDbEntity
8
0
100
AcDbLine
10
49.582728070539829
20
30.360632949503046
30
0
11
47.296728070539835
21
30.360632949503046
31
7.8306000422872846e-32
0
LWPOLYLINE
5
123
100
AcDbEntity
8
0
100
AcDbPolyline
90
60
70
1
43
0.0
10
64.969375038913796
20
32.646632949503044
10
65.184081102165791
20
32.646632949503044
10
65.330728070539806
20
32.900632949503041
10
67.616728070539779
20
32.900632949503049
10
67.616728070539793
20
30.360632949503035
10
65.330728070539806
20
30.360632949503032
10
65.184081102165791
20
30.61463294950304
10
64.969375038913796
20
30.614632949503036
10
64.822728070539796
20
30.360632949503035
10
62.790728070539792
20
30.360632949503035
10
62.644081102165799
20
30.61463294950304
10
62.429375038913804
20
30.61463294950304
10
62.282728070539797
20
30.360632949503042
10
60.2507280705398
20
30.360632949503035
10
60.104081102165807
20
30.61463294950304
10
59.889375038913812
20
30.61463294950304
10
59.742728070539812
20
30.360632949503042
10
57.710728070539815
20
30.360632949503035
10
57.564081102165815
20
30.614632949503044
10
57.349375038913813
20
30.61463294950304
10
57.202728070539813
20
30.360632949503042
10
55.170728070539816
20
30.360632949503042
10
55.024081102165816
20
30.614632949503044
10
54.809375038913821
20
30.61463294950304
10
54.662728070539821
20
30.360632949503042
10
52.630728070539817
20
30.360632949503042
10
52.484081102165817
20
30.614632949503044
10
52.269375038913822
20
30.614632949503044
10
52.122728070539821
20
30.360632949503046
10
50.090728070539825
20
30.360632949503042
10
49.944081102165825
20
30.614632949503047
10
49.72937503891383
20
30.614632949503044
10
49.582728070539829
20
30.360632949503046
10
47.296728070539835
20
30.360632949503046
10
47.296728070539835
20
32.900632949503056
10
49.582728070539829
20
32.900632949503056
10
49.72937503891383
20
32.646632949503051
10
49.944081102165825
20
32.646632949503051
10
50.090728070539825
20
32.900632949503049
10
52.122728070539821
20
32.900632949503056
10
52.269375038913822
20
32.646632949503051
10
52.484081102165817
20
32.646632949503051
10
52.630728070539817
20
32.900632949503049
10
54.662728070539821
20
32.900632949503049
10
54.809375038913821
20
32.646632949503044
10
55.024081102165816
20
32.646632949503051
10
55.170728070539816
20
32.900632949503049
10
57.202728070539813
20
32.900632949503049
10
57.349375038913813
20
32.646632949503044
10
57.564081102165815
20
32.646632949503044
10
57.710728070539815
20
32.900632949503049
10
59.742728070539812
20
32.900632949503049
10
59.889375038913812
20
32.646632949503044
10
60.104081102165807
20
32.646632949503044
10
60.250728070539807
20
32.900632949503049
10
62.282728070539804
20
32.900632949503049
10
62.429375038913804
20
32.646632949503044
10
62.644081102165792
20
32.646632949503044
10
62.790728070539799
20
32.900632949503049
10
64.822728070539796
20
32.900632949503049
0
LWPOLYLINE
5
124
100
AcDbEntity
8
0
100
AcDbPolyline
90
4
70
1
43
0.0
10
66.664228070539792
20
31.313132949503036
10
66.664228070539792
20
31.948132949503041
10
66.029228070539801
20
31.948132949503041
10
66.029228070539801
20
31.313132949503036
0
LWPOLYLINE
5
125
100
AcDbEntity
8
0
100
AcDbPolyline
90
4
70
1
43
0.0
10
64.1242280705398
20
31.313132949503043
10
64.1242280705398
20
31.948132949503044
10
63.489228070539802
20
31.948132949503041
10
63.489228070539802
20
31.313132949503036
0
LWPOLYLINE
5
126
100
AcDbEntity
8
0
100
AcDbPolyline
90
4
70
1
43
0.0
10
61.584228070539808
20
31.313132949503043
10
61.584228070539808
20
31.948132949503044
10
60.949228070539817
20
31.948132949503044
10
60.949228070539803
20
31.313132949503043
0
LWPOLYLINE
5
127
100
AcDbEntity
8
0
100
AcDbPolyline
90
4
70
1
43
0.0
10
59.044228070539816
20
31.313132949503043
10
59.044228070539816
20
31.948132949503044
10
58.409228070539818
20
31.948132949503044
10
58.409228070539811
20
31.313132949503043
0
LWPOLYLINE
5
128
100
AcDbEntity
8
0
100
AcDbPolyline
90
4
70
1
43
0.0
10
56.504228070539817
20
31.313132949503043
10
56.504228070539817
20
31.948132949503044
10
55.869228070539819
20
31.948132949503044
10
55.869228070539812
20
31.313132949503043
0
LWPOLYLINE
5
129
100
AcDbEntity
8
0
100
AcDbPolyline
90
4
70
1
43
0.0
10
53.964228070539818
20
31.313132949503046
10
53.964228070539818
20
31.948132949503048
10
53.329228070539827
20
31.948132949503048
10
53.32922807053982
20
31.313132949503046
0
LWPOLYLINE
5
130
100
AcDbEntity
8
0
100
AcDbPolyline
90
4
70
1
43
0.0
10
51.424228070539826
20
31.313132949503046
10
51.424228070539826
20
31.948132949503048
10
50.789228070539835
20
31.948132949503048
10
50.789228070539835
20
31.313132949503046
0
LWPOLYLINE
5
131
100
AcDbEntity
8
0
100
AcDbPolyline
90
4
70
1
43
0.0
10
48.884228070539834
20
31.313132949503046
10
48.884228070539834
20
31.948132949503048
10
48.249228070539836
20
31.948132949503048
10
48.249228070539836
20
31.313132949503046
0
LWPOLYLINE
5
132
100
AcDbEntity
8
0
100
AcDbPolyline
90
60
70
1
43
0.0
10
64.549375038913794
20
6.3966329495029441
10
64.76408110216579
20
6.3966329495029441
10
64.910728070539804
20
6.6506329495029446
10
67.196728070539791
20
6.6506329495029437
10
67.196728070539791
20
4.1106329495029321
10
64.910728070539804
20
4.1106329495029339
10
64.76408110216579
20
4.3646329495029352
10
64.549375038913809
20
4.3646329495029352
10
64.402728070539794
20
4.1106329495029339
10
62.370728070539798
20
4.1106329495029357
10
62.224081102165805
20
4.3646329495029361
10
62.009375038913809
20
4.3646329495029361
10
61.862728070539802
20
4.1106329495029357
10
59.830728070539799
20
4.1106329495029366
10
59.684081102165806
20
4.364632949502937
10
59.46937503891381
20
4.364632949502937
10
59.32272807053981
20
4.1106329495029374
10
57.290728070539814
20
4.1106329495029383
10
57.144081102165813
20
4.3646329495029388
10
56.929375038913818
20
4.3646329495029388
10
56.782728070539818
20
4.1106329495029383
10
54.750728070539822
20
4.1106329495029401
10
54.604081102165821
20
4.3646329495029406
10
54.389375038913819
20
4.3646329495029406
10
54.242728070539819
20
4.1106329495029401
10
52.210728070539822
20
4.110632949502941
10
52.064081102165822
20
4.3646329495029415
10
51.849375038913827
20
4.3646329495029415
10
51.702728070539827
20
4.110632949502941
10
49.670728070539823
20
4.1106329495029419
10
49.524081102165823
20
4.3646329495029432
10
49.309375038913828
20
4.3646329495029432
10
49.162728070539828
20
4.1106329495029419
10
46.876728070539841
20
4.1106329495029437
10
46.876728070539841
20
6.6506329495029535
10
49.162728070539828
20
6.6506329495029526
10
49.309375038913828
20
6.396632949502953
10
49.524081102165823
20
6.3966329495029512
10
49.670728070539823
20
6.6506329495029526
10
51.702728070539827
20
6.6506329495029517
10
51.849375038913827
20
6.3966329495029504
10
52.064081102165822
20
6.3966329495029504
10
52.210728070539822
20
6.6506329495029517
10
54.242728070539819
20
6.6506329495029508
10
54.389375038913819
20
6.3966329495029495
10
54.604081102165821
20
6.3966329495029495
10
54.750728070539822
20
6.6506329495029508
10
56.782728070539818
20
6.650632949502949
10
56.929375038913818
20
6.3966329495029486
10
57.144081102165813
20
6.3966329495029486
10
57.290728070539814
20
6.650632949502949
10
59.32272807053981
20
6.6506329495029481
10
59.46937503891381
20
6.3966329495029459
10
59.684081102165806
20
6.3966329495029459
10
59.830728070539806
20
6.6506329495029473
10
61.862728070539809
20
6.6506329495029455
10
62.009375038913809
20
6.396632949502945
10
62.224081102165798
20
6.396632949502945
10
62.370728070539805
20
6.6506329495029455
10
64.402728070539808
20
6.6506329495029446
0
LWPOLYLINE
5
133
100
AcDbEntity
8
0
100
AcDbPolyline
90
4
70
1
43
0.0
10
66.244228070539791
20
5.063132949502938
10
66.244228070539791
20
5.6981329495029396
10
65.6092280705398
20
5.6981329495029396
10
65.6092280705398
20
5.063132949502938
0
LWPOLYLINE
5
134
100
AcDbEntity
8
0
100
AcDbPolyline
90
4
70
1
43
0.0
10
63.704228070539799
20
5.0631329495029389
10
63.704228070539799
20
5.6981329495029414
10
63.069228070539801
20
5.6981329495029414
10
63.069228070539801
20
5.0631329495029398
0
LWPOLYLINE
5
135
100
AcDbEntity
8
0
100
AcDbPolyline
90
4
70
1
43
0.0
10
61.164228070539806
20
5.0631329495029398
10
61.164228070539806
20
5.6981329495029422
10
60.529228070539816
20
5.6981329495029431
10
60.529228070539808
20
5.0631329495029407
0
LWPOLYLINE
5
136
100
AcDbEntity
8
0
100
AcDbPolyline
90
4
70
1
43
0.0
10
58.624228070539814
20
5.0631329495029416
10
58.624228070539814
20
5.698132949502944
10
57.989228070539824
20
5.698132949502944
10
57.989228070539809
20
5.0631329495029416
0
LWPOLYLINE
5
137
100
AcDbEntity
8
0
100
AcDbPolyline
90
4
70
1
43
0.0
10
56.084228070539822
20
5.0631329495029433
10
56.084228070539822
20
5.6981329495029449
10
55.449228070539824
20
5.6981329495029449
10
55.449228070539817
20
5.0631329495029433
0
LWPOLYLINE
5
138
100
AcDbEntity
8
0
100
AcDbPolyline
90
4
70
1
43
0.0
10
53.544228070539823
20
5.0631329495029442
10
53.544228070539823
20
5.6981329495029467
10
52.909228070539825
20
5.6981329495029467
10
52.909228070539818
20
5.0631329495029451
0
LWPOLYLINE
5
139
100
AcDbEntity
8
0
100
AcDbPolyline
90
4
70
1
43
0.0
10
51.004228070539824
20
5.0631329495029451
10
51.004228070539824
20
5.6981329495029476
10
50.369228070539833
20
5.6981329495029485
10
50.369228070539833
20
5.0631329495029469
0
LWPOLYLINE
5
140
100
AcDbEntity
8
0
100
AcDbPolyline
90
4
70
1
43
0.0
10
48.464228070539832
20
5.0631329495029478
10
48.464228070539832
20
5.6981329495029502
10
47.829228070539841
20
5.6981329495029502
10
47.829228070539841
20
5.0631329495029478
0
LWPOLYLINE
5
141
100
AcDbEntity
8
0
100
AcDbPolyline
90
60
70
1
43
0.0
10
48.884081102165823
20
-15.135367050497138
10
48.669375038913827
20
-15.135367050497138
10
48.522728070539827
20
-15.389367050497139
10
46.23672807053984
20
-15.389367050497139
10
46.23672807053984
20
-12.849367050497126
10
48.522728070539827
20
-12.849367050497127
10
48.669375038913827
20
-13.103367050497127
10
48.884081102165823
20
-13.103367050497127
10
49.030728070539823
20
-12.849367050497127
10
51.062728070539826
20
-12.849367050497127
10
51.209375038913826
20
-13.10336705049713
10
51.424081102165822
20
-13.10336705049713
10
51.570728070539822
20
-12.849367050497129
10
53.602728070539818
20
-12.849367050497129
10
53.749375038913819
20
-13.10336705049713
10
53.964081102165821
20
-13.10336705049713
10
54.110728070539821
20
-12.849367050497129
10
56.142728070539818
20
-12.849367050497129
10
56.289375038913818
20
-13.103367050497132
10
56.504081102165813
20
-13.10336705049713
10
56.650728070539813
20
-12.849367050497129
10
58.68272807053981
20
-12.849367050497131
10
58.82937503891381
20
-13.103367050497132
10
59.044081102165805
20
-13.103367050497132
10
59.190728070539805
20
-12.849367050497131
10
61.222728070539809
20
-12.849367050497131
10
61.369375038913802
20
-13.103367050497132
10
61.584081102165797
20
-13.103367050497132
10
61.730728070539804
20
-12.849367050497131
10
63.762728070539801
20
-12.849367050497131
10
63.909375038913794
20
-13.103367050497134
10
64.124081102165789
20
-13.103367050497134
10
64.270728070539803
20
-12.849367050497133
10
66.556728070539776
20
-12.849367050497133
10
66.556728070539791
20
-15.389367050497142
10
64.270728070539803
20
-15.389367050497144
10
64.124081102165789
20
-15.135367050497141
10
63.909375038913801
20
-15.135367050497141
10
63.762728070539794
20
-15.389367050497142
10
61.730728070539797
20
-15.389367050497142
10
61.584081102165804
20
-15.135367050497141
10
61.369375038913809
20
-15.135367050497141
10
61.222728070539802
20
-15.389367050497142
10
59.190728070539798
20
-15.389367050497142
10
59.044081102165805
20
-15.135367050497139
10
58.82937503891381
20
-15.135367050497139
10
58.68272807053981
20
-15.389367050497141
10
56.650728070539813
20
-15.389367050497141
10
56.504081102165813
20
-15.135367050497139
10
56.289375038913818
20
-15.135367050497139
10
56.142728070539818
20
-15.389367050497141
10
54.110728070539821
20
-15.389367050497141
10
53.964081102165821
20
-15.135367050497139
10
53.749375038913819
20
-15.135367050497139
10
53.602728070539818
20
-15.389367050497141
10
51.570728070539822
20
-15.389367050497141
10
51.424081102165822
20
-15.135367050497138
10
51.209375038913826
20
-15.135367050497138
10
51.062728070539826
20
-15.389367050497139
10
49.030728070539823
20
-15.389367050497139
0
LWPOLYLINE
5
142
100
AcDbEntity
8
0
100
AcDbPolyline
90
4
70
1
43
0.0
10
47.189228070539841
20
-13.801867050497131
10
47.189228070539841
20
-14.436867050497135
10
47.824228070539831
20
-14.436867050497133
10
47.824228070539831
20
-13.80186705049713
0
LWPOLYLINE
5
143
100
AcDbEntity
8
0
100
AcDbPolyline
90
4
70
1
43
0.0
10
49.729228070539833
20
-13.801867050497131
10
49.729228070539833
20
-14.436867050497135
10
50.364228070539824
20
-14.436867050497135
10
50.364228070539824
20
-13.801867050497131
0
LWPOLYLINE
5
144
100
AcDbEntity
8
0
100
AcDbPolyline
90
4
70
1
43
0.0
10
52.269228070539818
20
-13.801867050497131
10
52.269228070539818
20
-14.436867050497135
10
52.904228070539816
20
-14.436867050497135
10
52.904228070539823
20
-13.801867050497131
0
LWPOLYLINE
5
145
100
AcDbEntity
8
0
100
AcDbPolyline
90
4
70
1
43
0.0
10
54.809228070539817
20
-13.801867050497133
10
54.809228070539817
20
-14.436867050497138
10
55.444228070539808
20
-14.436867050497135
10
55.444228070539822
20
-13.801867050497131
0
LWPOLYLINE
5
146
100
AcDbEntity
8
0
100
AcDbPolyline
90
4
70
1
43
0.0
10
57.349228070539809
20
-13.801867050497133
10
57.349228070539809
20
-14.436867050497138
10
57.984228070539807
20
-14.436867050497138
10
57.984228070539814
20
-13.801867050497133
0
LWPOLYLINE
5
147
100
AcDbEntity
8
0
100
AcDbPolyline
90
4
70
1
43
0.0
10
59.889228070539808
20
-13.801867050497133
10
59.889228070539808
20
-14.436867050497138
10
60.524228070539799
20
-14.436867050497138
10
60.524228070539806
20
-13.801867050497133
0
LWPOLYLINE
5
148
100
AcDbEntity
8
0
100
AcDbPolyline
90
4
70
1
43
0.0
10
62.4292280705398
20
-13.801867050497137
10
62.4292280705398
20
-14.43686705049714
10
63.064228070539798
20
-14.436867050497138
10
63.064228070539798
20
-13.801867050497137
0
LWPOLYLINE
5
149
100
AcDbEntity
8
0
100
AcDbPolyline
90
4
70
1
43
0.0
10
64.969228070539799
20
-13.801867050497137
10
64.969228070539799
20
-14.43686705049714
10
65.60422807053979
20
-14.43686705049714
10
65.60422807053979
20
-13.801867050497137
0
LWPOLYLINE
5
150
100
AcDbEntity
8
0
100
AcDbPolyline
90
60
70
1
43
0.0
10
64.429375038913804
20
12.696632949502977
10
64.644081102165799
20
12.696632949502977
10
64.790728070539814
20
12.950632949502978
10
67.076728070539801
20
12.950632949502976
10
67.076728070539801
20
10.410632949502965
10
64.790728070539814
20
10.410632949502968
10
64.644081102165799
20
10.664632949502968
10
64.429375038913818
20
10.664632949502968
10
64.282728070539804
20
10.410632949502967
10
62.250728070539807
20
10.410632949502967
10
62.104081102165821
20
10.66463294950297
10
61.889375038913819
20
10.66463294950297
10
61.742728070539812
20
10.410632949502968
10
59.710728070539815
20
10.410632949502968
10
59.564081102165822
20
10.664632949502973
10
59.349375038913827
20
10.664632949502973
10
59.202728070539827
20
10.410632949502972
10
57.170728070539823
20
10.410632949502972
10
57.024081102165823
20
10.664632949502973
10
56.809375038913828
20
10.664632949502973
10
56.662728070539828
20
10.410632949502972
10
54.630728070539831
20
10.410632949502972
10
54.484081102165831
20
10.664632949502975
10
54.269375038913836
20
10.664632949502975
10
54.122728070539836
20
10.410632949502974
10
52.090728070539839
20
10.410632949502974
10
51.944081102165839
20
10.664632949502977
10
51.729375038913837
20
10.664632949502975
10
51.582728070539837
20
10.410632949502974
10
49.55072807053984
20
10.410632949502975
10
49.40408110216584
20
10.664632949502977
10
49.189375038913845
20
10.664632949502977
10
49.042728070539845
20
10.410632949502975
10
46.75672807053985
20
10.410632949502979
10
46.75672807053985
20
12.950632949502987
10
49.042728070539845
20
12.950632949502985
10
49.189375038913845
20
12.696632949502986
10
49.40408110216584
20
12.696632949502986
10
49.55072807053984
20
12.950632949502987
10
51.582728070539837
20
12.950632949502987
10
51.729375038913837
20
12.696632949502984
10
51.944081102165839
20
12.696632949502984
10
52.090728070539839
20
12.950632949502985
10
54.122728070539836
20
12.950632949502985
10
54.269375038913836
20
12.696632949502984
10
54.484081102165831
20
12.696632949502982
10
54.630728070539831
20
12.950632949502982
10
56.662728070539828
20
12.950632949502982
10
56.809375038913828
20
12.696632949502982
10
57.024081102165823
20
12.696632949502982
10
57.170728070539823
20
12.950632949502982
10
59.202728070539827
20
12.950632949502982
10
59.349375038913827
20
12.69663294950298
10
59.564081102165822
20
12.69663294950298
10
59.710728070539822
20
12.95063294950298
10
61.742728070539819
20
12.95063294950298
10
61.889375038913819
20
12.69663294950298
10
62.104081102165807
20
12.69663294950298
10
62.250728070539822
20
12.950632949502978
10
64.282728070539818
20
12.95063294950298
0
LWPOLYLINE
5
151
100
AcDbEntity
8
0
100
AcDbPolyline
90
4
70
1
43
0.0
10
66.1242280705398
20
11.363132949502969
10
66.1242280705398
20
11.998132949502974
10
65.489228070539809
20
11.998132949502974
10
65.489228070539809
20
11.363132949502969
0
LWPOLYLINE
5
152
100
AcDbEntity
8
0
100
AcDbPolyline
90
4
70
1
43
0.0
10
63.584228070539808
20
11.363132949502972
10
63.584228070539808
20
11.998132949502976
10
62.949228070539817
20
11.998132949502976
10
62.949228070539817
20
11.363132949502972
0
LWPOLYLINE
5
153
100
AcDbEntity
8
0
100
AcDbPolyline
90
4
70
1
43
0.0
10
61.044228070539823
20
11.363132949502974
10
61.044228070539823
20
11.998132949502978
10
60.409228070539825
20
11.998132949502976
10
60.409228070539818
20
11.363132949502972
0
LWPOLYLINE
5
154
100
AcDbEntity
8
0
100
AcDbPolyline
90
4
70
1
43
0.0
10
58.504228070539824
20
11.363132949502974
10
58.504228070539824
20
11.998132949502978
10
57.869228070539833
20
11.998132949502978
10
57.869228070539826
20
11.363132949502974
0
LWPOLYLINE
5
155
100
AcDbEntity
8
0
100
AcDbPolyline
90
4
70
1
43
0.0
10
55.964228070539832
20
11.363132949502976
10
55.964228070539832
20
11.998132949502979
10
55.329228070539841
20
11.998132949502979
10
55.329228070539827
20
11.363132949502976
0
LWPOLYLINE
5
156
100
AcDbEntity
8
0
100
AcDbPolyline
90
4
70
1
43
0.0
10
53.42422807053984
20
11.36313294950298
10
53.42422807053984
20
11.998132949502981
10
52.789228070539842
20
11.998132949502979
10
52.789228070539835
20
11.363132949502976
0
LWPOLYLINE
5
157
100
AcDbEntity
8
0
100
AcDbPolyline
90
4
70
1
43
0.0
10
50.884228070539841
20
11.36313294950298
10
50.884228070539841
20
11.998132949502981
10
50.249228070539843
20
11.998132949502981
10
50.249228070539843
20
11.36313294950298
0
LWPOLYLINE
5
158
100
AcDbEntity
8
0
100
AcDbPolyline
90
4
70
1
43
0.0
10
48.344228070539842
20
11.363132949502981
10
48.344228070539842
20
11.998132949502985
10
47.709228070539851
20
11.998132949502981
10
47.709228070539851
20
11.363132949502981
0
CIRCLE
5
159
100
AcDbEntity
8
0
100
AcDbCircle
10
57.496228070540141
20
22.323090562734468
30
0
40
3.0000000000000027
210
-4.3520223739411679e-30
220
2.5942768925051034e-44
230
1
0
CIRCLE
5
160
100
AcDbEntity
8
0
100
AcDbCircle
10
57.496228070540141
20
22.323090562734468
30
0
40
3.0000000000000009
210
1.8392783107965035e-31
220
-1.0964091658067594e-45
230
1
0
CIRCLE
5
161
100
AcDbEntity
8
0
100
AcDbCircle
10
33.620228070540101
20
20.799090562734929
30
-4.4408920985006262e-15
40
3.0000000000000009
210
1.8392783107965035e-31
220
-1.0964091658067594e-45
230
1
0
CIRCLE
5
162
100
AcDbEntity
8
0
100
AcDbCircle
10
33.620228070540101
20
20.799090562734929
30
-4.4408920985006262e-15
40
3.0000000000000009
210
1.8392783107965035e-31
220
-1.0964091658067594e-45
230
1
0
CIRCLE
5
163
100
AcDbEntity
8
0
100
AcDbCircle
10
56.480228070539972
20
-4.4739094372652168
30
0
40
3.0000000000000027
210
-4.3520223739411679e-30
220
2.5942768925051034e-44
230
1
0
CIRCLE
5
164
100
AcDbEntity
8
0
100
AcDbCircle
10
56.480228070539972
20
-4.4739094372652168
30
0
40
3.0000000000000027
210
-4.3520223739411679e-30
220
2.5942768925051034e-44
230
1
0
LINE
5
165
100
AcDbEntity
8
0
100
AcDbLine
10
17.041728070540024
20
6.2211739495029565
30
0
11
17.041728070540024
21
34.796090949503075
31
4.4408920985006262e-15
0
LINE
5
166
100
AcDbEntity
8
0
100
AcDbLine
10
15.541728070540028
20
7.7211739495029663
30
0
11
72.541728070539889
21
7.721173949502945
31
0
0
LINE
5
167
100
AcDbEntity
8
0
100
AcDbLine
10
71.041728070539889
20
-17.403909050497155
30
-4.440892098500623e-15
11
71.041728070539904
21
34.796090949503061
31
4.4408920985006262e-15
0
LINE
5
168
100
AcDbEntity
8
0
100
AcDbLine
10
42.129228070539959
20
-17.403909050497148
30
-4.4408920985006262e-15
11
42.129228070539597
21
34.796090949503061
31
4.4408920985006262e-15
0
LINE
5
169
100
AcDbEntity
8
0
100
AcDbLine
10
15.541728070540028
20
33.296090949503068
30
4.4408920985006262e-15
11
72.541728070539904
21
33.296090949503039
31
0
0
LINE
5
170
100
AcDbEntity
8
0
100
AcDbLine
10
39.129228070539973
20
6.2211739495029503
30
4.4408920985006206e-15
11
39.12922807053998
21
34.796090949503068
31
4.4408920985006206e-15
0
LINE
5
171
100
AcDbEntity
8
0
100
AcDbLine
10
40.629228070539973
20
4.721173949502945
30
-1.346225031126663e-31
11
72.541728070539889
21
4.1106329495029295
31
1.4824342783752757e-14
0
LINE
5
172
100
AcDbEntity
8
0
100
AcDbLine
10
40.629228070539973
20
-15.903909050497141
30
4.4408920985006262e-15
11
72.541728070539889
21
-15.903909050497152
31
-4.6103704172310047e-31
0
LWPOLYLINE
5
173
100
AcDbEntity
8
0
100
AcDbPolyline
90
4
70
1
43
0.0
10
23.49172772781327
20
31.596090734098045
42
0.99999999999999989
10
18.591727727813261
20
31.596090734098059
10
18.591727727813129
20
8.7960907340980761
42
0.99999999999999989
10
23.491727727813135
20
8.7960907340980476
0
LWPOLYLINE
5
174
100
AcDbEntity
8
0
100
AcDbPolyline
90
4
70
1
43
0.0
10
19.841727727813151
20
11.696090734098059
10
22.241727727813156
20
11.696090734098046
10
22.241727727813284
20
28.696090734098057
10
19.841727727813254
20
28.696090734098068
0
CIRCLE
5
175
100
AcDbEntity
8
0
100
AcDbCircle
10
21.041727727813267
20
31.596090734098055
30
4.3790577010150533e-46
40
1.9499999999999993
210
-8.0214830044661301e-31
220
-4.9303806576308465e-32
230
1
0
CIRCLE
5
176
100
AcDbEntity
8
0
100
AcDbCircle
10
21.041727727813132
20
8.7960907340980636
30
0
40
1.9500000000000028
210
-2.3798701108886366e-30
220
-4.930380657629905e-32
230
1
0
ENDSEC
0
SECTION
2
OBJECTS
0
DICTIONARY
5
C
100
AcDbDictionary
3
ACAD_GROUP
350
D
3
ACAD_MLINESTYLE
350
17
0
DICTIONARY
5
D
100
AcDbDictionary
0
DICTIONARY
5
1A
330
C
100
AcDbDictionary
0
DICTIONARY
5
17
100
AcDbDictionary
0
ENDSEC
0
EOF
