%TF.GenerationSoftware,KiCad,Pcbnew,(5.1.10)-1*%
%TF.CreationDate,2023-09-20T19:37:08-05:00*%
%TF.ProjectId,brs_flight_computer,6272735f-666c-4696-9768-745f636f6d70,A*%
%TF.SameCoordinates,Original*%
%TF.FileFunction,Copper,L2,Bot*%
%TF.FilePolarity,Positive*%
%FSLAX46Y46*%
G04 Gerber Fmt 4.6, Leading zero omitted, Abs format (unit mm)*
G04 Created by KiCad (PCBNEW (5.1.10)-1) date 2023-09-20 19:37:08*
%MOMM*%
%LPD*%
G01*
G04 APERTURE LIST*
%TA.AperFunction,ComponentPad*%
%ADD10C,2.600000*%
%TD*%
%TA.AperFunction,ComponentPad*%
%ADD11R,2.600000X2.600000*%
%TD*%
%TA.AperFunction,ComponentPad*%
%ADD12O,1.700000X1.700000*%
%TD*%
%TA.AperFunction,ComponentPad*%
%ADD13R,1.700000X1.700000*%
%TD*%
%TA.AperFunction,ComponentPad*%
%ADD14O,0.800000X1.300000*%
%TD*%
%TA.AperFunction,ViaPad*%
%ADD15C,0.508000*%
%TD*%
%TA.AperFunction,Conductor*%
%ADD16C,0.304800*%
%TD*%
%TA.AperFunction,Conductor*%
%ADD17C,0.254000*%
%TD*%
%TA.AperFunction,Conductor*%
%ADD18C,0.100000*%
%TD*%
G04 APERTURE END LIST*
D10*
%TO.P,J5,3*%
%TO.N,/NC_V*%
X154211000Y-88646000D03*
%TO.P,J5,2*%
%TO.N,VPP*%
X159211000Y-88646000D03*
D11*
%TO.P,J5,1*%
%TO.N,/NO_V*%
X164211000Y-88646000D03*
%TD*%
D12*
%TO.P,J8,6*%
%TO.N,Net-(J8-Pad6)*%
X124612400Y-114960400D03*
%TO.P,J8,5*%
%TO.N,Net-(J8-Pad5)*%
X127152400Y-114960400D03*
%TO.P,J8,4*%
%TO.N,Net-(J8-Pad4)*%
X129692400Y-114960400D03*
%TO.P,J8,3*%
%TO.N,Net-(J8-Pad3)*%
X132232400Y-114960400D03*
%TO.P,J8,2*%
%TO.N,Net-(J8-Pad2)*%
X134772400Y-114960400D03*
D13*
%TO.P,J8,1*%
%TO.N,Net-(J8-Pad1)*%
X137312400Y-114960400D03*
%TD*%
D12*
%TO.P,J7,6*%
%TO.N,VDDF*%
X124612400Y-127660400D03*
%TO.P,J7,5*%
%TO.N,Net-(J7-Pad5)*%
X127152400Y-127660400D03*
%TO.P,J7,4*%
%TO.N,GND*%
X129692400Y-127660400D03*
%TO.P,J7,3*%
%TO.N,/SCL*%
X132232400Y-127660400D03*
%TO.P,J7,2*%
%TO.N,/SDA*%
X134772400Y-127660400D03*
D13*
%TO.P,J7,1*%
%TO.N,Net-(J7-Pad1)*%
X137312400Y-127660400D03*
%TD*%
D12*
%TO.P,J6,12*%
%TO.N,Net-(J6-Pad12)*%
X151609000Y-121920000D03*
%TO.P,J6,11*%
%TO.N,Net-(J6-Pad11)*%
X151609000Y-119380000D03*
%TO.P,J6,10*%
%TO.N,Net-(J6-Pad10)*%
X151609000Y-116840000D03*
%TO.P,J6,9*%
%TO.N,Net-(J6-Pad9)*%
X151609000Y-114300000D03*
%TO.P,J6,8*%
%TO.N,Net-(J6-Pad8)*%
X151609000Y-111760000D03*
%TO.P,J6,7*%
%TO.N,Net-(J6-Pad7)*%
X151609000Y-109220000D03*
%TO.P,J6,6*%
%TO.N,Net-(J6-Pad6)*%
X151609000Y-106680000D03*
%TO.P,J6,5*%
%TO.N,Net-(J6-Pad5)*%
X151609000Y-104140000D03*
%TO.P,J6,4*%
%TO.N,Net-(J6-Pad4)*%
X151609000Y-101600000D03*
%TO.P,J6,3*%
%TO.N,Net-(J6-Pad3)*%
X151609000Y-99060000D03*
%TO.P,J6,2*%
%TO.N,Net-(J6-Pad2)*%
X151609000Y-96520000D03*
D13*
%TO.P,J6,1*%
%TO.N,Net-(J6-Pad1)*%
X151609000Y-93980000D03*
%TD*%
D12*
%TO.P,J4,16*%
%TO.N,Net-(J4-Pad16)*%
X166849000Y-132080000D03*
%TO.P,J4,15*%
%TO.N,VPP*%
X166849000Y-129540000D03*
%TO.P,J4,14*%
%TO.N,Net-(J4-Pad14)*%
X166849000Y-127000000D03*
%TO.P,J4,13*%
%TO.N,GND*%
X166849000Y-124460000D03*
%TO.P,J4,12*%
%TO.N,Net-(J4-Pad12)*%
X166849000Y-121920000D03*
%TO.P,J4,11*%
%TO.N,/SET*%
X166849000Y-119380000D03*
%TO.P,J4,10*%
%TO.N,/UNSET*%
X166849000Y-116840000D03*
%TO.P,J4,9*%
%TO.N,Net-(J4-Pad9)*%
X166849000Y-114300000D03*
%TO.P,J4,8*%
%TO.N,Net-(J4-Pad8)*%
X166849000Y-111760000D03*
%TO.P,J4,7*%
%TO.N,Net-(J4-Pad7)*%
X166849000Y-109220000D03*
%TO.P,J4,6*%
%TO.N,Net-(J4-Pad6)*%
X166849000Y-106680000D03*
%TO.P,J4,5*%
%TO.N,Net-(J4-Pad5)*%
X166849000Y-104140000D03*
%TO.P,J4,4*%
%TO.N,Net-(J4-Pad4)*%
X166849000Y-101600000D03*
%TO.P,J4,3*%
%TO.N,Net-(J4-Pad3)*%
X166849000Y-99060000D03*
%TO.P,J4,2*%
%TO.N,Net-(J4-Pad2)*%
X166849000Y-96520000D03*
D13*
%TO.P,J4,1*%
%TO.N,Net-(J4-Pad1)*%
X166849000Y-93980000D03*
%TD*%
D14*
%TO.P,J3,10*%
%TO.N,VDDF*%
X157554000Y-77216000D03*
%TO.P,J3,9*%
%TO.N,VPP*%
X156304000Y-77216000D03*
%TO.P,J3,8*%
%TO.N,GND*%
X155054000Y-77216000D03*
%TO.P,J3,7*%
%TO.N,/SCL*%
X153804000Y-77216000D03*
%TO.P,J3,6*%
%TO.N,/SDA*%
X152554000Y-77216000D03*
%TO.P,J3,5*%
%TO.N,/MAG_INT*%
X151304000Y-77216000D03*
%TO.P,J3,4*%
%TO.N,/SET*%
X150054000Y-77216000D03*
%TO.P,J3,3*%
%TO.N,/UNSET*%
X148804000Y-77216000D03*
%TO.P,J3,2*%
%TO.N,/NO_V*%
X147554000Y-77216000D03*
%TO.P,J3,1*%
%TO.N,/NC_V*%
%TA.AperFunction,ComponentPad*%
G36*
G01*
X145904000Y-77666000D02*
X145904000Y-76766000D01*
G75*
G02*
X146104000Y-76566000I200000J0D01*
G01*
X146504000Y-76566000D01*
G75*
G02*
X146704000Y-76766000I0J-200000D01*
G01*
X146704000Y-77666000D01*
G75*
G02*
X146504000Y-77866000I-200000J0D01*
G01*
X146104000Y-77866000D01*
G75*
G02*
X145904000Y-77666000I0J200000D01*
G01*
G37*
%TD.AperFunction*%
%TD*%
D12*
%TO.P,J2,6*%
%TO.N,Net-(J2-Pad6)*%
X124587000Y-95250000D03*
%TO.P,J2,5*%
%TO.N,Net-(J2-Pad5)*%
X127127000Y-95250000D03*
%TO.P,J2,4*%
%TO.N,Net-(J2-Pad4)*%
X129667000Y-95250000D03*
%TO.P,J2,3*%
%TO.N,Net-(J2-Pad3)*%
X132207000Y-95250000D03*
%TO.P,J2,2*%
%TO.N,Net-(J2-Pad2)*%
X134747000Y-95250000D03*
D13*
%TO.P,J2,1*%
%TO.N,Net-(J2-Pad1)*%
X137287000Y-95250000D03*
%TD*%
D12*
%TO.P,J1,6*%
%TO.N,VDDF*%
X124587000Y-107950000D03*
%TO.P,J1,5*%
%TO.N,Net-(J1-Pad5)*%
X127127000Y-107950000D03*
%TO.P,J1,4*%
%TO.N,GND*%
X129667000Y-107950000D03*
%TO.P,J1,3*%
%TO.N,/SCL*%
X132207000Y-107950000D03*
%TO.P,J1,2*%
%TO.N,/SDA*%
X134747000Y-107950000D03*
D13*
%TO.P,J1,1*%
%TO.N,/MAG_INT*%
X137287000Y-107950000D03*
%TD*%
D15*
%TO.N,GND*%
X149352000Y-80518000D03*
%TD*%
D16*
%TO.N,VPP*%
X156304000Y-85739000D02*
X159211000Y-88646000D01*
X156304000Y-77216000D02*
X156304000Y-85739000D01*
%TO.N,/SCL*%
X153804000Y-77216000D02*
X153804000Y-83368500D01*
X153804000Y-83368500D02*
X146367500Y-90805000D01*
X146367500Y-93789500D02*
X132207000Y-107950000D01*
X146367500Y-90805000D02*
X146367500Y-93789500D01*
%TO.N,/SDA*%
X131652695Y-109104801D02*
X133592199Y-109104801D01*
X131052199Y-107395695D02*
X131052199Y-108504305D01*
X131652695Y-106795199D02*
X131052199Y-107395695D01*
X132715209Y-106795199D02*
X131652695Y-106795199D01*
X133592199Y-109104801D02*
X134747000Y-107950000D01*
X145910290Y-93600118D02*
X132715209Y-106795199D01*
X145910290Y-90615618D02*
X145910290Y-93600118D01*
X131052199Y-108504305D02*
X131652695Y-109104801D01*
X152554000Y-83971908D02*
X145910290Y-90615618D01*
X152554000Y-77216000D02*
X152554000Y-83971908D01*
%TO.N,/MAG_INT*%
X135674989Y-109562011D02*
X137287000Y-107950000D01*
X128512199Y-107395695D02*
X128512199Y-108504305D01*
X129569904Y-106337990D02*
X128512199Y-107395695D01*
X128512199Y-108504305D02*
X129569905Y-109562011D01*
X132525827Y-106337989D02*
X129569904Y-106337990D01*
X145453080Y-93410736D02*
X132525827Y-106337989D01*
X129569905Y-109562011D02*
X135674989Y-109562011D01*
X145453080Y-90426236D02*
X145453080Y-93410736D01*
X151304000Y-84575316D02*
X145453080Y-90426236D01*
X151304000Y-77216000D02*
X151304000Y-84575316D01*
%TO.N,/NO_V*%
X147554000Y-77216000D02*
X149395500Y-75374500D01*
X149395500Y-75374500D02*
X163195000Y-75374500D01*
X164211000Y-76390500D02*
X164211000Y-88646000D01*
X163195000Y-75374500D02*
X164211000Y-76390500D01*
%TD*%
D17*
%TO.N,GND*%
X188508592Y-71682156D02*
X188791971Y-71767713D01*
X189053325Y-71906678D01*
X189282715Y-72093764D01*
X189471396Y-72321841D01*
X189612183Y-72582222D01*
X189699715Y-72864990D01*
X189733000Y-73181675D01*
X189733001Y-78208468D01*
X189701808Y-78526592D01*
X189616253Y-78809967D01*
X189477287Y-79071324D01*
X189290202Y-79300713D01*
X189062124Y-79489396D01*
X188801744Y-79630183D01*
X188518974Y-79717715D01*
X188202288Y-79751000D01*
X177661574Y-79751000D01*
X177640091Y-79753116D01*
X177627642Y-79753029D01*
X177620958Y-79753684D01*
X177232765Y-79794485D01*
X177190065Y-79803251D01*
X177147238Y-79811420D01*
X177140808Y-79813361D01*
X176767934Y-79928785D01*
X176727733Y-79945684D01*
X176687324Y-79962010D01*
X176681394Y-79965163D01*
X176338039Y-80150814D01*
X176301902Y-80175189D01*
X176265417Y-80199064D01*
X176260212Y-80203309D01*
X175959457Y-80452116D01*
X175928738Y-80483050D01*
X175897592Y-80513551D01*
X175893311Y-80518726D01*
X175646610Y-80821211D01*
X175622479Y-80857531D01*
X175597855Y-80893493D01*
X175594660Y-80899401D01*
X175411411Y-81244043D01*
X175394819Y-81284299D01*
X175377623Y-81324420D01*
X175375637Y-81330835D01*
X175262819Y-81704507D01*
X175254354Y-81747261D01*
X175245288Y-81789914D01*
X175244586Y-81796593D01*
X175206496Y-82185062D01*
X175204200Y-82208375D01*
X175204201Y-86216299D01*
X175205330Y-86227757D01*
X175213932Y-86407118D01*
X175218528Y-86438447D01*
X175221119Y-86470010D01*
X175222365Y-86476610D01*
X175297457Y-86859650D01*
X175309971Y-86901383D01*
X175321915Y-86943338D01*
X175324420Y-86949570D01*
X175472480Y-87310729D01*
X175492864Y-87349241D01*
X175512729Y-87388073D01*
X175516395Y-87393699D01*
X175731786Y-87719222D01*
X175759269Y-87753049D01*
X175786290Y-87787274D01*
X175790980Y-87792082D01*
X176065497Y-88069570D01*
X176099000Y-88097392D01*
X176132181Y-88125740D01*
X176137716Y-88129545D01*
X176460901Y-88348427D01*
X176499240Y-88369250D01*
X176537227Y-88390575D01*
X176543390Y-88393230D01*
X176543394Y-88393232D01*
X176543398Y-88393233D01*
X176902941Y-88545171D01*
X176944553Y-88558138D01*
X176985997Y-88571691D01*
X176992564Y-88573100D01*
X177353528Y-88647907D01*
X177378091Y-88655358D01*
X177448757Y-88662318D01*
X180367000Y-88662318D01*
X180367001Y-144077810D01*
X180335808Y-144395934D01*
X180250253Y-144679309D01*
X180111287Y-144940666D01*
X179924202Y-145170055D01*
X179696124Y-145358738D01*
X179435744Y-145499525D01*
X179152974Y-145587057D01*
X178836188Y-145620353D01*
X121271043Y-145670580D01*
X120953137Y-145639408D01*
X120669762Y-145553853D01*
X120408405Y-145414887D01*
X120179016Y-145227802D01*
X119990333Y-144999724D01*
X119849546Y-144739344D01*
X119762014Y-144456574D01*
X119728742Y-144140015D01*
X119730656Y-142486083D01*
X121347033Y-142486083D01*
X121347033Y-142853843D01*
X121418780Y-143214537D01*
X121559516Y-143554303D01*
X121763832Y-143860085D01*
X122023878Y-144120131D01*
X122329660Y-144324447D01*
X122669426Y-144465183D01*
X123030120Y-144536930D01*
X123397880Y-144536930D01*
X123758574Y-144465183D01*
X124098340Y-144324447D01*
X124404122Y-144120131D01*
X124664168Y-143860085D01*
X124868484Y-143554303D01*
X125009220Y-143214537D01*
X125080967Y-142853843D01*
X125080967Y-142486083D01*
X175207733Y-142486083D01*
X175207733Y-142853843D01*
X175279480Y-143214537D01*
X175420216Y-143554303D01*
X175624532Y-143860085D01*
X175884578Y-144120131D01*
X176190360Y-144324447D01*
X176530126Y-144465183D01*
X176890820Y-144536930D01*
X177258580Y-144536930D01*
X177619274Y-144465183D01*
X177959040Y-144324447D01*
X178264822Y-144120131D01*
X178524868Y-143860085D01*
X178729184Y-143554303D01*
X178869920Y-143214537D01*
X178941667Y-142853843D01*
X178941667Y-142486083D01*
X178869920Y-142125389D01*
X178729184Y-141785623D01*
X178524868Y-141479841D01*
X178264822Y-141219795D01*
X177959040Y-141015479D01*
X177619274Y-140874743D01*
X177258580Y-140802996D01*
X176890820Y-140802996D01*
X176530126Y-140874743D01*
X176190360Y-141015479D01*
X175884578Y-141219795D01*
X175624532Y-141479841D01*
X175420216Y-141785623D01*
X175279480Y-142125389D01*
X175207733Y-142486083D01*
X125080967Y-142486083D01*
X125009220Y-142125389D01*
X124868484Y-141785623D01*
X124664168Y-141479841D01*
X124404122Y-141219795D01*
X124098340Y-141015479D01*
X123758574Y-140874743D01*
X123397880Y-140802996D01*
X123030120Y-140802996D01*
X122669426Y-140874743D01*
X122329660Y-141015479D01*
X122023878Y-141219795D01*
X121763832Y-141479841D01*
X121559516Y-141785623D01*
X121418780Y-142125389D01*
X121347033Y-142486083D01*
X119730656Y-142486083D01*
X119733973Y-139621468D01*
X119734000Y-139621190D01*
X119734000Y-139597821D01*
X119734027Y-139574495D01*
X119734000Y-139574218D01*
X119734000Y-131958757D01*
X165618000Y-131958757D01*
X165618000Y-132201243D01*
X165665307Y-132439069D01*
X165758102Y-132663097D01*
X165892820Y-132864717D01*
X166064283Y-133036180D01*
X166265903Y-133170898D01*
X166489931Y-133263693D01*
X166727757Y-133311000D01*
X166970243Y-133311000D01*
X167208069Y-133263693D01*
X167432097Y-133170898D01*
X167633717Y-133036180D01*
X167805180Y-132864717D01*
X167939898Y-132663097D01*
X168032693Y-132439069D01*
X168080000Y-132201243D01*
X168080000Y-131958757D01*
X168032693Y-131720931D01*
X167939898Y-131496903D01*
X167805180Y-131295283D01*
X167633717Y-131123820D01*
X167432097Y-130989102D01*
X167208069Y-130896307D01*
X166970243Y-130849000D01*
X166727757Y-130849000D01*
X166489931Y-130896307D01*
X166265903Y-130989102D01*
X166064283Y-131123820D01*
X165892820Y-131295283D01*
X165758102Y-131496903D01*
X165665307Y-131720931D01*
X165618000Y-131958757D01*
X119734000Y-131958757D01*
X119734000Y-129418757D01*
X165618000Y-129418757D01*
X165618000Y-129661243D01*
X165665307Y-129899069D01*
X165758102Y-130123097D01*
X165892820Y-130324717D01*
X166064283Y-130496180D01*
X166265903Y-130630898D01*
X166489931Y-130723693D01*
X166727757Y-130771000D01*
X166970243Y-130771000D01*
X167208069Y-130723693D01*
X167432097Y-130630898D01*
X167633717Y-130496180D01*
X167805180Y-130324717D01*
X167939898Y-130123097D01*
X168032693Y-129899069D01*
X168080000Y-129661243D01*
X168080000Y-129418757D01*
X168032693Y-129180931D01*
X167939898Y-128956903D01*
X167805180Y-128755283D01*
X167633717Y-128583820D01*
X167432097Y-128449102D01*
X167208069Y-128356307D01*
X166970243Y-128309000D01*
X166727757Y-128309000D01*
X166489931Y-128356307D01*
X166265903Y-128449102D01*
X166064283Y-128583820D01*
X165892820Y-128755283D01*
X165758102Y-128956903D01*
X165665307Y-129180931D01*
X165618000Y-129418757D01*
X119734000Y-129418757D01*
X119734000Y-127539157D01*
X123381400Y-127539157D01*
X123381400Y-127781643D01*
X123428707Y-128019469D01*
X123521502Y-128243497D01*
X123656220Y-128445117D01*
X123827683Y-128616580D01*
X124029303Y-128751298D01*
X124253331Y-128844093D01*
X124491157Y-128891400D01*
X124733643Y-128891400D01*
X124971469Y-128844093D01*
X125195497Y-128751298D01*
X125397117Y-128616580D01*
X125568580Y-128445117D01*
X125703298Y-128243497D01*
X125796093Y-128019469D01*
X125843400Y-127781643D01*
X125843400Y-127539157D01*
X125921400Y-127539157D01*
X125921400Y-127781643D01*
X125968707Y-128019469D01*
X126061502Y-128243497D01*
X126196220Y-128445117D01*
X126367683Y-128616580D01*
X126569303Y-128751298D01*
X126793331Y-128844093D01*
X127031157Y-128891400D01*
X127273643Y-128891400D01*
X127511469Y-128844093D01*
X127735497Y-128751298D01*
X127937117Y-128616580D01*
X128108580Y-128445117D01*
X128243298Y-128243497D01*
X128290628Y-128129232D01*
X128348243Y-128291652D01*
X128497222Y-128541755D01*
X128692131Y-128757988D01*
X128925480Y-128932041D01*
X129188301Y-129057225D01*
X129335510Y-129101876D01*
X129565400Y-128980555D01*
X129565400Y-127787400D01*
X129545400Y-127787400D01*
X129545400Y-127533400D01*
X129565400Y-127533400D01*
X129565400Y-126340245D01*
X129819400Y-126340245D01*
X129819400Y-127533400D01*
X129839400Y-127533400D01*
X129839400Y-127787400D01*
X129819400Y-127787400D01*
X129819400Y-128980555D01*
X130049290Y-129101876D01*
X130196499Y-129057225D01*
X130459320Y-128932041D01*
X130692669Y-128757988D01*
X130887578Y-128541755D01*
X131036557Y-128291652D01*
X131094172Y-128129232D01*
X131141502Y-128243497D01*
X131276220Y-128445117D01*
X131447683Y-128616580D01*
X131649303Y-128751298D01*
X131873331Y-128844093D01*
X132111157Y-128891400D01*
X132353643Y-128891400D01*
X132591469Y-128844093D01*
X132815497Y-128751298D01*
X133017117Y-128616580D01*
X133188580Y-128445117D01*
X133323298Y-128243497D01*
X133416093Y-128019469D01*
X133463400Y-127781643D01*
X133463400Y-127539157D01*
X133541400Y-127539157D01*
X133541400Y-127781643D01*
X133588707Y-128019469D01*
X133681502Y-128243497D01*
X133816220Y-128445117D01*
X133987683Y-128616580D01*
X134189303Y-128751298D01*
X134413331Y-128844093D01*
X134651157Y-128891400D01*
X134893643Y-128891400D01*
X135131469Y-128844093D01*
X135355497Y-128751298D01*
X135557117Y-128616580D01*
X135728580Y-128445117D01*
X135863298Y-128243497D01*
X135956093Y-128019469D01*
X136003400Y-127781643D01*
X136003400Y-127539157D01*
X135956093Y-127301331D01*
X135863298Y-127077303D01*
X135728580Y-126875683D01*
X135663297Y-126810400D01*
X136079557Y-126810400D01*
X136079557Y-128510400D01*
X136086913Y-128585089D01*
X136108699Y-128656908D01*
X136144078Y-128723096D01*
X136191689Y-128781111D01*
X136249704Y-128828722D01*
X136315892Y-128864101D01*
X136387711Y-128885887D01*
X136462400Y-128893243D01*
X138162400Y-128893243D01*
X138237089Y-128885887D01*
X138308908Y-128864101D01*
X138375096Y-128828722D01*
X138433111Y-128781111D01*
X138480722Y-128723096D01*
X138516101Y-128656908D01*
X138537887Y-128585089D01*
X138545243Y-128510400D01*
X138545243Y-126810400D01*
X138537887Y-126735711D01*
X138516101Y-126663892D01*
X138480722Y-126597704D01*
X138433111Y-126539689D01*
X138375096Y-126492078D01*
X138308908Y-126456699D01*
X138237089Y-126434913D01*
X138162400Y-126427557D01*
X136462400Y-126427557D01*
X136387711Y-126434913D01*
X136315892Y-126456699D01*
X136249704Y-126492078D01*
X136191689Y-126539689D01*
X136144078Y-126597704D01*
X136108699Y-126663892D01*
X136086913Y-126735711D01*
X136079557Y-126810400D01*
X135663297Y-126810400D01*
X135557117Y-126704220D01*
X135355497Y-126569502D01*
X135131469Y-126476707D01*
X134893643Y-126429400D01*
X134651157Y-126429400D01*
X134413331Y-126476707D01*
X134189303Y-126569502D01*
X133987683Y-126704220D01*
X133816220Y-126875683D01*
X133681502Y-127077303D01*
X133588707Y-127301331D01*
X133541400Y-127539157D01*
X133463400Y-127539157D01*
X133416093Y-127301331D01*
X133323298Y-127077303D01*
X133188580Y-126875683D01*
X133017117Y-126704220D01*
X132815497Y-126569502D01*
X132591469Y-126476707D01*
X132353643Y-126429400D01*
X132111157Y-126429400D01*
X131873331Y-126476707D01*
X131649303Y-126569502D01*
X131447683Y-126704220D01*
X131276220Y-126875683D01*
X131141502Y-127077303D01*
X131094172Y-127191568D01*
X131036557Y-127029148D01*
X130887578Y-126779045D01*
X130692669Y-126562812D01*
X130459320Y-126388759D01*
X130196499Y-126263575D01*
X130049290Y-126218924D01*
X129819400Y-126340245D01*
X129565400Y-126340245D01*
X129335510Y-126218924D01*
X129188301Y-126263575D01*
X128925480Y-126388759D01*
X128692131Y-126562812D01*
X128497222Y-126779045D01*
X128348243Y-127029148D01*
X128290628Y-127191568D01*
X128243298Y-127077303D01*
X128108580Y-126875683D01*
X127937117Y-126704220D01*
X127735497Y-126569502D01*
X127511469Y-126476707D01*
X127273643Y-126429400D01*
X127031157Y-126429400D01*
X126793331Y-126476707D01*
X126569303Y-126569502D01*
X126367683Y-126704220D01*
X126196220Y-126875683D01*
X126061502Y-127077303D01*
X125968707Y-127301331D01*
X125921400Y-127539157D01*
X125843400Y-127539157D01*
X125796093Y-127301331D01*
X125703298Y-127077303D01*
X125568580Y-126875683D01*
X125397117Y-126704220D01*
X125195497Y-126569502D01*
X124971469Y-126476707D01*
X124733643Y-126429400D01*
X124491157Y-126429400D01*
X124253331Y-126476707D01*
X124029303Y-126569502D01*
X123827683Y-126704220D01*
X123656220Y-126875683D01*
X123521502Y-127077303D01*
X123428707Y-127301331D01*
X123381400Y-127539157D01*
X119734000Y-127539157D01*
X119734000Y-124816890D01*
X165407524Y-124816890D01*
X165452175Y-124964099D01*
X165577359Y-125226920D01*
X165751412Y-125460269D01*
X165967645Y-125655178D01*
X166217748Y-125804157D01*
X166380168Y-125861772D01*
X166265903Y-125909102D01*
X166064283Y-126043820D01*
X165892820Y-126215283D01*
X165758102Y-126416903D01*
X165665307Y-126640931D01*
X165618000Y-126878757D01*
X165618000Y-127121243D01*
X165665307Y-127359069D01*
X165758102Y-127583097D01*
X165892820Y-127784717D01*
X166064283Y-127956180D01*
X166265903Y-128090898D01*
X166489931Y-128183693D01*
X166727757Y-128231000D01*
X166970243Y-128231000D01*
X167208069Y-128183693D01*
X167432097Y-128090898D01*
X167633717Y-127956180D01*
X167805180Y-127784717D01*
X167939898Y-127583097D01*
X168032693Y-127359069D01*
X168080000Y-127121243D01*
X168080000Y-126878757D01*
X168032693Y-126640931D01*
X167939898Y-126416903D01*
X167805180Y-126215283D01*
X167633717Y-126043820D01*
X167432097Y-125909102D01*
X167317832Y-125861772D01*
X167480252Y-125804157D01*
X167730355Y-125655178D01*
X167946588Y-125460269D01*
X168120641Y-125226920D01*
X168245825Y-124964099D01*
X168290476Y-124816890D01*
X168169155Y-124587000D01*
X166976000Y-124587000D01*
X166976000Y-124607000D01*
X166722000Y-124607000D01*
X166722000Y-124587000D01*
X165528845Y-124587000D01*
X165407524Y-124816890D01*
X119734000Y-124816890D01*
X119734000Y-124103110D01*
X165407524Y-124103110D01*
X165528845Y-124333000D01*
X166722000Y-124333000D01*
X166722000Y-124313000D01*
X166976000Y-124313000D01*
X166976000Y-124333000D01*
X168169155Y-124333000D01*
X168290476Y-124103110D01*
X168245825Y-123955901D01*
X168120641Y-123693080D01*
X167946588Y-123459731D01*
X167730355Y-123264822D01*
X167480252Y-123115843D01*
X167317832Y-123058228D01*
X167432097Y-123010898D01*
X167633717Y-122876180D01*
X167805180Y-122704717D01*
X167939898Y-122503097D01*
X168032693Y-122279069D01*
X168080000Y-122041243D01*
X168080000Y-121798757D01*
X168032693Y-121560931D01*
X167939898Y-121336903D01*
X167805180Y-121135283D01*
X167633717Y-120963820D01*
X167432097Y-120829102D01*
X167208069Y-120736307D01*
X166970243Y-120689000D01*
X166727757Y-120689000D01*
X166489931Y-120736307D01*
X166265903Y-120829102D01*
X166064283Y-120963820D01*
X165892820Y-121135283D01*
X165758102Y-121336903D01*
X165665307Y-121560931D01*
X165618000Y-121798757D01*
X165618000Y-122041243D01*
X165665307Y-122279069D01*
X165758102Y-122503097D01*
X165892820Y-122704717D01*
X166064283Y-122876180D01*
X166265903Y-123010898D01*
X166380168Y-123058228D01*
X166217748Y-123115843D01*
X165967645Y-123264822D01*
X165751412Y-123459731D01*
X165577359Y-123693080D01*
X165452175Y-123955901D01*
X165407524Y-124103110D01*
X119734000Y-124103110D01*
X119734000Y-121798757D01*
X150378000Y-121798757D01*
X150378000Y-122041243D01*
X150425307Y-122279069D01*
X150518102Y-122503097D01*
X150652820Y-122704717D01*
X150824283Y-122876180D01*
X151025903Y-123010898D01*
X151249931Y-123103693D01*
X151487757Y-123151000D01*
X151730243Y-123151000D01*
X151968069Y-123103693D01*
X152192097Y-123010898D01*
X152393717Y-122876180D01*
X152565180Y-122704717D01*
X152699898Y-122503097D01*
X152792693Y-122279069D01*
X152840000Y-122041243D01*
X152840000Y-121798757D01*
X152792693Y-121560931D01*
X152699898Y-121336903D01*
X152565180Y-121135283D01*
X152393717Y-120963820D01*
X152192097Y-120829102D01*
X151968069Y-120736307D01*
X151730243Y-120689000D01*
X151487757Y-120689000D01*
X151249931Y-120736307D01*
X151025903Y-120829102D01*
X150824283Y-120963820D01*
X150652820Y-121135283D01*
X150518102Y-121336903D01*
X150425307Y-121560931D01*
X150378000Y-121798757D01*
X119734000Y-121798757D01*
X119734000Y-119258757D01*
X150378000Y-119258757D01*
X150378000Y-119501243D01*
X150425307Y-119739069D01*
X150518102Y-119963097D01*
X150652820Y-120164717D01*
X150824283Y-120336180D01*
X151025903Y-120470898D01*
X151249931Y-120563693D01*
X151487757Y-120611000D01*
X151730243Y-120611000D01*
X151968069Y-120563693D01*
X152192097Y-120470898D01*
X152393717Y-120336180D01*
X152565180Y-120164717D01*
X152699898Y-119963097D01*
X152792693Y-119739069D01*
X152840000Y-119501243D01*
X152840000Y-119258757D01*
X165618000Y-119258757D01*
X165618000Y-119501243D01*
X165665307Y-119739069D01*
X165758102Y-119963097D01*
X165892820Y-120164717D01*
X166064283Y-120336180D01*
X166265903Y-120470898D01*
X166489931Y-120563693D01*
X166727757Y-120611000D01*
X166970243Y-120611000D01*
X167208069Y-120563693D01*
X167432097Y-120470898D01*
X167633717Y-120336180D01*
X167805180Y-120164717D01*
X167939898Y-119963097D01*
X168032693Y-119739069D01*
X168080000Y-119501243D01*
X168080000Y-119258757D01*
X168032693Y-119020931D01*
X167939898Y-118796903D01*
X167805180Y-118595283D01*
X167633717Y-118423820D01*
X167432097Y-118289102D01*
X167208069Y-118196307D01*
X166970243Y-118149000D01*
X166727757Y-118149000D01*
X166489931Y-118196307D01*
X166265903Y-118289102D01*
X166064283Y-118423820D01*
X165892820Y-118595283D01*
X165758102Y-118796903D01*
X165665307Y-119020931D01*
X165618000Y-119258757D01*
X152840000Y-119258757D01*
X152792693Y-119020931D01*
X152699898Y-118796903D01*
X152565180Y-118595283D01*
X152393717Y-118423820D01*
X152192097Y-118289102D01*
X151968069Y-118196307D01*
X151730243Y-118149000D01*
X151487757Y-118149000D01*
X151249931Y-118196307D01*
X151025903Y-118289102D01*
X150824283Y-118423820D01*
X150652820Y-118595283D01*
X150518102Y-118796903D01*
X150425307Y-119020931D01*
X150378000Y-119258757D01*
X119734000Y-119258757D01*
X119734000Y-116718757D01*
X150378000Y-116718757D01*
X150378000Y-116961243D01*
X150425307Y-117199069D01*
X150518102Y-117423097D01*
X150652820Y-117624717D01*
X150824283Y-117796180D01*
X151025903Y-117930898D01*
X151249931Y-118023693D01*
X151487757Y-118071000D01*
X151730243Y-118071000D01*
X151968069Y-118023693D01*
X152192097Y-117930898D01*
X152393717Y-117796180D01*
X152565180Y-117624717D01*
X152699898Y-117423097D01*
X152792693Y-117199069D01*
X152840000Y-116961243D01*
X152840000Y-116718757D01*
X165618000Y-116718757D01*
X165618000Y-116961243D01*
X165665307Y-117199069D01*
X165758102Y-117423097D01*
X165892820Y-117624717D01*
X166064283Y-117796180D01*
X166265903Y-117930898D01*
X166489931Y-118023693D01*
X166727757Y-118071000D01*
X166970243Y-118071000D01*
X167208069Y-118023693D01*
X167432097Y-117930898D01*
X167633717Y-117796180D01*
X167805180Y-117624717D01*
X167939898Y-117423097D01*
X168032693Y-117199069D01*
X168080000Y-116961243D01*
X168080000Y-116718757D01*
X168032693Y-116480931D01*
X167939898Y-116256903D01*
X167805180Y-116055283D01*
X167633717Y-115883820D01*
X167432097Y-115749102D01*
X167208069Y-115656307D01*
X166970243Y-115609000D01*
X166727757Y-115609000D01*
X166489931Y-115656307D01*
X166265903Y-115749102D01*
X166064283Y-115883820D01*
X165892820Y-116055283D01*
X165758102Y-116256903D01*
X165665307Y-116480931D01*
X165618000Y-116718757D01*
X152840000Y-116718757D01*
X152792693Y-116480931D01*
X152699898Y-116256903D01*
X152565180Y-116055283D01*
X152393717Y-115883820D01*
X152192097Y-115749102D01*
X151968069Y-115656307D01*
X151730243Y-115609000D01*
X151487757Y-115609000D01*
X151249931Y-115656307D01*
X151025903Y-115749102D01*
X150824283Y-115883820D01*
X150652820Y-116055283D01*
X150518102Y-116256903D01*
X150425307Y-116480931D01*
X150378000Y-116718757D01*
X119734000Y-116718757D01*
X119734000Y-114839157D01*
X123381400Y-114839157D01*
X123381400Y-115081643D01*
X123428707Y-115319469D01*
X123521502Y-115543497D01*
X123656220Y-115745117D01*
X123827683Y-115916580D01*
X124029303Y-116051298D01*
X124253331Y-116144093D01*
X124491157Y-116191400D01*
X124733643Y-116191400D01*
X124971469Y-116144093D01*
X125195497Y-116051298D01*
X125397117Y-115916580D01*
X125568580Y-115745117D01*
X125703298Y-115543497D01*
X125796093Y-115319469D01*
X125843400Y-115081643D01*
X125843400Y-114839157D01*
X125921400Y-114839157D01*
X125921400Y-115081643D01*
X125968707Y-115319469D01*
X126061502Y-115543497D01*
X126196220Y-115745117D01*
X126367683Y-115916580D01*
X126569303Y-116051298D01*
X126793331Y-116144093D01*
X127031157Y-116191400D01*
X127273643Y-116191400D01*
X127511469Y-116144093D01*
X127735497Y-116051298D01*
X127937117Y-115916580D01*
X128108580Y-115745117D01*
X128243298Y-115543497D01*
X128336093Y-115319469D01*
X128383400Y-115081643D01*
X128383400Y-114839157D01*
X128461400Y-114839157D01*
X128461400Y-115081643D01*
X128508707Y-115319469D01*
X128601502Y-115543497D01*
X128736220Y-115745117D01*
X128907683Y-115916580D01*
X129109303Y-116051298D01*
X129333331Y-116144093D01*
X129571157Y-116191400D01*
X129813643Y-116191400D01*
X130051469Y-116144093D01*
X130275497Y-116051298D01*
X130477117Y-115916580D01*
X130648580Y-115745117D01*
X130783298Y-115543497D01*
X130876093Y-115319469D01*
X130923400Y-115081643D01*
X130923400Y-114839157D01*
X131001400Y-114839157D01*
X131001400Y-115081643D01*
X131048707Y-115319469D01*
X131141502Y-115543497D01*
X131276220Y-115745117D01*
X131447683Y-115916580D01*
X131649303Y-116051298D01*
X131873331Y-116144093D01*
X132111157Y-116191400D01*
X132353643Y-116191400D01*
X132591469Y-116144093D01*
X132815497Y-116051298D01*
X133017117Y-115916580D01*
X133188580Y-115745117D01*
X133323298Y-115543497D01*
X133416093Y-115319469D01*
X133463400Y-115081643D01*
X133463400Y-114839157D01*
X133541400Y-114839157D01*
X133541400Y-115081643D01*
X133588707Y-115319469D01*
X133681502Y-115543497D01*
X133816220Y-115745117D01*
X133987683Y-115916580D01*
X134189303Y-116051298D01*
X134413331Y-116144093D01*
X134651157Y-116191400D01*
X134893643Y-116191400D01*
X135131469Y-116144093D01*
X135355497Y-116051298D01*
X135557117Y-115916580D01*
X135728580Y-115745117D01*
X135863298Y-115543497D01*
X135956093Y-115319469D01*
X136003400Y-115081643D01*
X136003400Y-114839157D01*
X135956093Y-114601331D01*
X135863298Y-114377303D01*
X135728580Y-114175683D01*
X135663297Y-114110400D01*
X136079557Y-114110400D01*
X136079557Y-115810400D01*
X136086913Y-115885089D01*
X136108699Y-115956908D01*
X136144078Y-116023096D01*
X136191689Y-116081111D01*
X136249704Y-116128722D01*
X136315892Y-116164101D01*
X136387711Y-116185887D01*
X136462400Y-116193243D01*
X138162400Y-116193243D01*
X138237089Y-116185887D01*
X138308908Y-116164101D01*
X138375096Y-116128722D01*
X138433111Y-116081111D01*
X138480722Y-116023096D01*
X138516101Y-115956908D01*
X138537887Y-115885089D01*
X138545243Y-115810400D01*
X138545243Y-114178757D01*
X150378000Y-114178757D01*
X150378000Y-114421243D01*
X150425307Y-114659069D01*
X150518102Y-114883097D01*
X150652820Y-115084717D01*
X150824283Y-115256180D01*
X151025903Y-115390898D01*
X151249931Y-115483693D01*
X151487757Y-115531000D01*
X151730243Y-115531000D01*
X151968069Y-115483693D01*
X152192097Y-115390898D01*
X152393717Y-115256180D01*
X152565180Y-115084717D01*
X152699898Y-114883097D01*
X152792693Y-114659069D01*
X152840000Y-114421243D01*
X152840000Y-114178757D01*
X165618000Y-114178757D01*
X165618000Y-114421243D01*
X165665307Y-114659069D01*
X165758102Y-114883097D01*
X165892820Y-115084717D01*
X166064283Y-115256180D01*
X166265903Y-115390898D01*
X166489931Y-115483693D01*
X166727757Y-115531000D01*
X166970243Y-115531000D01*
X167208069Y-115483693D01*
X167432097Y-115390898D01*
X167633717Y-115256180D01*
X167805180Y-115084717D01*
X167939898Y-114883097D01*
X168032693Y-114659069D01*
X168080000Y-114421243D01*
X168080000Y-114178757D01*
X168032693Y-113940931D01*
X167939898Y-113716903D01*
X167805180Y-113515283D01*
X167633717Y-113343820D01*
X167432097Y-113209102D01*
X167208069Y-113116307D01*
X166970243Y-113069000D01*
X166727757Y-113069000D01*
X166489931Y-113116307D01*
X166265903Y-113209102D01*
X166064283Y-113343820D01*
X165892820Y-113515283D01*
X165758102Y-113716903D01*
X165665307Y-113940931D01*
X165618000Y-114178757D01*
X152840000Y-114178757D01*
X152792693Y-113940931D01*
X152699898Y-113716903D01*
X152565180Y-113515283D01*
X152393717Y-113343820D01*
X152192097Y-113209102D01*
X151968069Y-113116307D01*
X151730243Y-113069000D01*
X151487757Y-113069000D01*
X151249931Y-113116307D01*
X151025903Y-113209102D01*
X150824283Y-113343820D01*
X150652820Y-113515283D01*
X150518102Y-113716903D01*
X150425307Y-113940931D01*
X150378000Y-114178757D01*
X138545243Y-114178757D01*
X138545243Y-114110400D01*
X138537887Y-114035711D01*
X138516101Y-113963892D01*
X138480722Y-113897704D01*
X138433111Y-113839689D01*
X138375096Y-113792078D01*
X138308908Y-113756699D01*
X138237089Y-113734913D01*
X138162400Y-113727557D01*
X136462400Y-113727557D01*
X136387711Y-113734913D01*
X136315892Y-113756699D01*
X136249704Y-113792078D01*
X136191689Y-113839689D01*
X136144078Y-113897704D01*
X136108699Y-113963892D01*
X136086913Y-114035711D01*
X136079557Y-114110400D01*
X135663297Y-114110400D01*
X135557117Y-114004220D01*
X135355497Y-113869502D01*
X135131469Y-113776707D01*
X134893643Y-113729400D01*
X134651157Y-113729400D01*
X134413331Y-113776707D01*
X134189303Y-113869502D01*
X133987683Y-114004220D01*
X133816220Y-114175683D01*
X133681502Y-114377303D01*
X133588707Y-114601331D01*
X133541400Y-114839157D01*
X133463400Y-114839157D01*
X133416093Y-114601331D01*
X133323298Y-114377303D01*
X133188580Y-114175683D01*
X133017117Y-114004220D01*
X132815497Y-113869502D01*
X132591469Y-113776707D01*
X132353643Y-113729400D01*
X132111157Y-113729400D01*
X131873331Y-113776707D01*
X131649303Y-113869502D01*
X131447683Y-114004220D01*
X131276220Y-114175683D01*
X131141502Y-114377303D01*
X131048707Y-114601331D01*
X131001400Y-114839157D01*
X130923400Y-114839157D01*
X130876093Y-114601331D01*
X130783298Y-114377303D01*
X130648580Y-114175683D01*
X130477117Y-114004220D01*
X130275497Y-113869502D01*
X130051469Y-113776707D01*
X129813643Y-113729400D01*
X129571157Y-113729400D01*
X129333331Y-113776707D01*
X129109303Y-113869502D01*
X128907683Y-114004220D01*
X128736220Y-114175683D01*
X128601502Y-114377303D01*
X128508707Y-114601331D01*
X128461400Y-114839157D01*
X128383400Y-114839157D01*
X128336093Y-114601331D01*
X128243298Y-114377303D01*
X128108580Y-114175683D01*
X127937117Y-114004220D01*
X127735497Y-113869502D01*
X127511469Y-113776707D01*
X127273643Y-113729400D01*
X127031157Y-113729400D01*
X126793331Y-113776707D01*
X126569303Y-113869502D01*
X126367683Y-114004220D01*
X126196220Y-114175683D01*
X126061502Y-114377303D01*
X125968707Y-114601331D01*
X125921400Y-114839157D01*
X125843400Y-114839157D01*
X125796093Y-114601331D01*
X125703298Y-114377303D01*
X125568580Y-114175683D01*
X125397117Y-114004220D01*
X125195497Y-113869502D01*
X124971469Y-113776707D01*
X124733643Y-113729400D01*
X124491157Y-113729400D01*
X124253331Y-113776707D01*
X124029303Y-113869502D01*
X123827683Y-114004220D01*
X123656220Y-114175683D01*
X123521502Y-114377303D01*
X123428707Y-114601331D01*
X123381400Y-114839157D01*
X119734000Y-114839157D01*
X119734000Y-111638757D01*
X150378000Y-111638757D01*
X150378000Y-111881243D01*
X150425307Y-112119069D01*
X150518102Y-112343097D01*
X150652820Y-112544717D01*
X150824283Y-112716180D01*
X151025903Y-112850898D01*
X151249931Y-112943693D01*
X151487757Y-112991000D01*
X151730243Y-112991000D01*
X151968069Y-112943693D01*
X152192097Y-112850898D01*
X152393717Y-112716180D01*
X152565180Y-112544717D01*
X152699898Y-112343097D01*
X152792693Y-112119069D01*
X152840000Y-111881243D01*
X152840000Y-111638757D01*
X165618000Y-111638757D01*
X165618000Y-111881243D01*
X165665307Y-112119069D01*
X165758102Y-112343097D01*
X165892820Y-112544717D01*
X166064283Y-112716180D01*
X166265903Y-112850898D01*
X166489931Y-112943693D01*
X166727757Y-112991000D01*
X166970243Y-112991000D01*
X167208069Y-112943693D01*
X167432097Y-112850898D01*
X167633717Y-112716180D01*
X167805180Y-112544717D01*
X167939898Y-112343097D01*
X168032693Y-112119069D01*
X168080000Y-111881243D01*
X168080000Y-111638757D01*
X168032693Y-111400931D01*
X167939898Y-111176903D01*
X167805180Y-110975283D01*
X167633717Y-110803820D01*
X167432097Y-110669102D01*
X167208069Y-110576307D01*
X166970243Y-110529000D01*
X166727757Y-110529000D01*
X166489931Y-110576307D01*
X166265903Y-110669102D01*
X166064283Y-110803820D01*
X165892820Y-110975283D01*
X165758102Y-111176903D01*
X165665307Y-111400931D01*
X165618000Y-111638757D01*
X152840000Y-111638757D01*
X152792693Y-111400931D01*
X152699898Y-111176903D01*
X152565180Y-110975283D01*
X152393717Y-110803820D01*
X152192097Y-110669102D01*
X151968069Y-110576307D01*
X151730243Y-110529000D01*
X151487757Y-110529000D01*
X151249931Y-110576307D01*
X151025903Y-110669102D01*
X150824283Y-110803820D01*
X150652820Y-110975283D01*
X150518102Y-111176903D01*
X150425307Y-111400931D01*
X150378000Y-111638757D01*
X119734000Y-111638757D01*
X119734000Y-107828757D01*
X123356000Y-107828757D01*
X123356000Y-108071243D01*
X123403307Y-108309069D01*
X123496102Y-108533097D01*
X123630820Y-108734717D01*
X123802283Y-108906180D01*
X124003903Y-109040898D01*
X124227931Y-109133693D01*
X124465757Y-109181000D01*
X124708243Y-109181000D01*
X124946069Y-109133693D01*
X125170097Y-109040898D01*
X125371717Y-108906180D01*
X125543180Y-108734717D01*
X125677898Y-108533097D01*
X125770693Y-108309069D01*
X125818000Y-108071243D01*
X125818000Y-107828757D01*
X125896000Y-107828757D01*
X125896000Y-108071243D01*
X125943307Y-108309069D01*
X126036102Y-108533097D01*
X126170820Y-108734717D01*
X126342283Y-108906180D01*
X126543903Y-109040898D01*
X126767931Y-109133693D01*
X127005757Y-109181000D01*
X127248243Y-109181000D01*
X127486069Y-109133693D01*
X127710097Y-109040898D01*
X127911717Y-108906180D01*
X128048878Y-108769019D01*
X128066549Y-108802080D01*
X128070609Y-108807027D01*
X128116506Y-108862953D01*
X128116509Y-108862956D01*
X128133205Y-108883300D01*
X128153549Y-108899996D01*
X129174214Y-109920662D01*
X129190910Y-109941006D01*
X129272130Y-110007662D01*
X129364794Y-110057192D01*
X129465340Y-110087692D01*
X129543710Y-110095411D01*
X129543717Y-110095411D01*
X129569904Y-110097990D01*
X129596091Y-110095411D01*
X135648802Y-110095411D01*
X135674989Y-110097990D01*
X135701176Y-110095411D01*
X135701184Y-110095411D01*
X135779554Y-110087692D01*
X135880100Y-110057192D01*
X135972764Y-110007662D01*
X136053984Y-109941006D01*
X136070685Y-109920656D01*
X136808498Y-109182843D01*
X138137000Y-109182843D01*
X138211689Y-109175487D01*
X138283508Y-109153701D01*
X138349696Y-109118322D01*
X138373536Y-109098757D01*
X150378000Y-109098757D01*
X150378000Y-109341243D01*
X150425307Y-109579069D01*
X150518102Y-109803097D01*
X150652820Y-110004717D01*
X150824283Y-110176180D01*
X151025903Y-110310898D01*
X151249931Y-110403693D01*
X151487757Y-110451000D01*
X151730243Y-110451000D01*
X151968069Y-110403693D01*
X152192097Y-110310898D01*
X152393717Y-110176180D01*
X152565180Y-110004717D01*
X152699898Y-109803097D01*
X152792693Y-109579069D01*
X152840000Y-109341243D01*
X152840000Y-109098757D01*
X165618000Y-109098757D01*
X165618000Y-109341243D01*
X165665307Y-109579069D01*
X165758102Y-109803097D01*
X165892820Y-110004717D01*
X166064283Y-110176180D01*
X166265903Y-110310898D01*
X166489931Y-110403693D01*
X166727757Y-110451000D01*
X166970243Y-110451000D01*
X167208069Y-110403693D01*
X167432097Y-110310898D01*
X167633717Y-110176180D01*
X167805180Y-110004717D01*
X167939898Y-109803097D01*
X168032693Y-109579069D01*
X168080000Y-109341243D01*
X168080000Y-109098757D01*
X168032693Y-108860931D01*
X167939898Y-108636903D01*
X167805180Y-108435283D01*
X167633717Y-108263820D01*
X167432097Y-108129102D01*
X167208069Y-108036307D01*
X166970243Y-107989000D01*
X166727757Y-107989000D01*
X166489931Y-108036307D01*
X166265903Y-108129102D01*
X166064283Y-108263820D01*
X165892820Y-108435283D01*
X165758102Y-108636903D01*
X165665307Y-108860931D01*
X165618000Y-109098757D01*
X152840000Y-109098757D01*
X152792693Y-108860931D01*
X152699898Y-108636903D01*
X152565180Y-108435283D01*
X152393717Y-108263820D01*
X152192097Y-108129102D01*
X151968069Y-108036307D01*
X151730243Y-107989000D01*
X151487757Y-107989000D01*
X151249931Y-108036307D01*
X151025903Y-108129102D01*
X150824283Y-108263820D01*
X150652820Y-108435283D01*
X150518102Y-108636903D01*
X150425307Y-108860931D01*
X150378000Y-109098757D01*
X138373536Y-109098757D01*
X138407711Y-109070711D01*
X138455322Y-109012696D01*
X138490701Y-108946508D01*
X138512487Y-108874689D01*
X138519843Y-108800000D01*
X138519843Y-107100000D01*
X138512487Y-107025311D01*
X138490701Y-106953492D01*
X138455322Y-106887304D01*
X138407711Y-106829289D01*
X138349696Y-106781678D01*
X138283508Y-106746299D01*
X138211689Y-106724513D01*
X138137000Y-106717157D01*
X136437000Y-106717157D01*
X136362311Y-106724513D01*
X136290492Y-106746299D01*
X136224304Y-106781678D01*
X136166289Y-106829289D01*
X136118678Y-106887304D01*
X136083299Y-106953492D01*
X136061513Y-107025311D01*
X136054157Y-107100000D01*
X136054157Y-108428502D01*
X135454048Y-109028611D01*
X135348486Y-109028611D01*
X135531717Y-108906180D01*
X135703180Y-108734717D01*
X135837898Y-108533097D01*
X135930693Y-108309069D01*
X135978000Y-108071243D01*
X135978000Y-107828757D01*
X135930693Y-107590931D01*
X135837898Y-107366903D01*
X135703180Y-107165283D01*
X135531717Y-106993820D01*
X135330097Y-106859102D01*
X135106069Y-106766307D01*
X134868243Y-106719000D01*
X134625757Y-106719000D01*
X134387931Y-106766307D01*
X134163903Y-106859102D01*
X133962283Y-106993820D01*
X133790820Y-107165283D01*
X133656102Y-107366903D01*
X133563307Y-107590931D01*
X133516000Y-107828757D01*
X133516000Y-108071243D01*
X133563307Y-108309069D01*
X133583892Y-108358766D01*
X133371258Y-108571401D01*
X133272304Y-108571401D01*
X133297898Y-108533097D01*
X133390693Y-108309069D01*
X133438000Y-108071243D01*
X133438000Y-107828757D01*
X133390693Y-107590931D01*
X133370108Y-107541233D01*
X134352584Y-106558757D01*
X150378000Y-106558757D01*
X150378000Y-106801243D01*
X150425307Y-107039069D01*
X150518102Y-107263097D01*
X150652820Y-107464717D01*
X150824283Y-107636180D01*
X151025903Y-107770898D01*
X151249931Y-107863693D01*
X151487757Y-107911000D01*
X151730243Y-107911000D01*
X151968069Y-107863693D01*
X152192097Y-107770898D01*
X152393717Y-107636180D01*
X152565180Y-107464717D01*
X152699898Y-107263097D01*
X152792693Y-107039069D01*
X152840000Y-106801243D01*
X152840000Y-106558757D01*
X165618000Y-106558757D01*
X165618000Y-106801243D01*
X165665307Y-107039069D01*
X165758102Y-107263097D01*
X165892820Y-107464717D01*
X166064283Y-107636180D01*
X166265903Y-107770898D01*
X166489931Y-107863693D01*
X166727757Y-107911000D01*
X166970243Y-107911000D01*
X167208069Y-107863693D01*
X167432097Y-107770898D01*
X167633717Y-107636180D01*
X167805180Y-107464717D01*
X167939898Y-107263097D01*
X168032693Y-107039069D01*
X168080000Y-106801243D01*
X168080000Y-106558757D01*
X168032693Y-106320931D01*
X167939898Y-106096903D01*
X167805180Y-105895283D01*
X167633717Y-105723820D01*
X167432097Y-105589102D01*
X167208069Y-105496307D01*
X166970243Y-105449000D01*
X166727757Y-105449000D01*
X166489931Y-105496307D01*
X166265903Y-105589102D01*
X166064283Y-105723820D01*
X165892820Y-105895283D01*
X165758102Y-106096903D01*
X165665307Y-106320931D01*
X165618000Y-106558757D01*
X152840000Y-106558757D01*
X152792693Y-106320931D01*
X152699898Y-106096903D01*
X152565180Y-105895283D01*
X152393717Y-105723820D01*
X152192097Y-105589102D01*
X151968069Y-105496307D01*
X151730243Y-105449000D01*
X151487757Y-105449000D01*
X151249931Y-105496307D01*
X151025903Y-105589102D01*
X150824283Y-105723820D01*
X150652820Y-105895283D01*
X150518102Y-106096903D01*
X150425307Y-106320931D01*
X150378000Y-106558757D01*
X134352584Y-106558757D01*
X136892584Y-104018757D01*
X150378000Y-104018757D01*
X150378000Y-104261243D01*
X150425307Y-104499069D01*
X150518102Y-104723097D01*
X150652820Y-104924717D01*
X150824283Y-105096180D01*
X151025903Y-105230898D01*
X151249931Y-105323693D01*
X151487757Y-105371000D01*
X151730243Y-105371000D01*
X151968069Y-105323693D01*
X152192097Y-105230898D01*
X152393717Y-105096180D01*
X152565180Y-104924717D01*
X152699898Y-104723097D01*
X152792693Y-104499069D01*
X152840000Y-104261243D01*
X152840000Y-104018757D01*
X165618000Y-104018757D01*
X165618000Y-104261243D01*
X165665307Y-104499069D01*
X165758102Y-104723097D01*
X165892820Y-104924717D01*
X166064283Y-105096180D01*
X166265903Y-105230898D01*
X166489931Y-105323693D01*
X166727757Y-105371000D01*
X166970243Y-105371000D01*
X167208069Y-105323693D01*
X167432097Y-105230898D01*
X167633717Y-105096180D01*
X167805180Y-104924717D01*
X167939898Y-104723097D01*
X168032693Y-104499069D01*
X168080000Y-104261243D01*
X168080000Y-104018757D01*
X168032693Y-103780931D01*
X167939898Y-103556903D01*
X167805180Y-103355283D01*
X167633717Y-103183820D01*
X167432097Y-103049102D01*
X167208069Y-102956307D01*
X166970243Y-102909000D01*
X166727757Y-102909000D01*
X166489931Y-102956307D01*
X166265903Y-103049102D01*
X166064283Y-103183820D01*
X165892820Y-103355283D01*
X165758102Y-103556903D01*
X165665307Y-103780931D01*
X165618000Y-104018757D01*
X152840000Y-104018757D01*
X152792693Y-103780931D01*
X152699898Y-103556903D01*
X152565180Y-103355283D01*
X152393717Y-103183820D01*
X152192097Y-103049102D01*
X151968069Y-102956307D01*
X151730243Y-102909000D01*
X151487757Y-102909000D01*
X151249931Y-102956307D01*
X151025903Y-103049102D01*
X150824283Y-103183820D01*
X150652820Y-103355283D01*
X150518102Y-103556903D01*
X150425307Y-103780931D01*
X150378000Y-104018757D01*
X136892584Y-104018757D01*
X139432584Y-101478757D01*
X150378000Y-101478757D01*
X150378000Y-101721243D01*
X150425307Y-101959069D01*
X150518102Y-102183097D01*
X150652820Y-102384717D01*
X150824283Y-102556180D01*
X151025903Y-102690898D01*
X151249931Y-102783693D01*
X151487757Y-102831000D01*
X151730243Y-102831000D01*
X151968069Y-102783693D01*
X152192097Y-102690898D01*
X152393717Y-102556180D01*
X152565180Y-102384717D01*
X152699898Y-102183097D01*
X152792693Y-101959069D01*
X152840000Y-101721243D01*
X152840000Y-101478757D01*
X165618000Y-101478757D01*
X165618000Y-101721243D01*
X165665307Y-101959069D01*
X165758102Y-102183097D01*
X165892820Y-102384717D01*
X166064283Y-102556180D01*
X166265903Y-102690898D01*
X166489931Y-102783693D01*
X166727757Y-102831000D01*
X166970243Y-102831000D01*
X167208069Y-102783693D01*
X167432097Y-102690898D01*
X167633717Y-102556180D01*
X167805180Y-102384717D01*
X167939898Y-102183097D01*
X168032693Y-101959069D01*
X168080000Y-101721243D01*
X168080000Y-101478757D01*
X168032693Y-101240931D01*
X167939898Y-101016903D01*
X167805180Y-100815283D01*
X167633717Y-100643820D01*
X167432097Y-100509102D01*
X167208069Y-100416307D01*
X166970243Y-100369000D01*
X166727757Y-100369000D01*
X166489931Y-100416307D01*
X166265903Y-100509102D01*
X166064283Y-100643820D01*
X165892820Y-100815283D01*
X165758102Y-101016903D01*
X165665307Y-101240931D01*
X165618000Y-101478757D01*
X152840000Y-101478757D01*
X152792693Y-101240931D01*
X152699898Y-101016903D01*
X152565180Y-100815283D01*
X152393717Y-100643820D01*
X152192097Y-100509102D01*
X151968069Y-100416307D01*
X151730243Y-100369000D01*
X151487757Y-100369000D01*
X151249931Y-100416307D01*
X151025903Y-100509102D01*
X150824283Y-100643820D01*
X150652820Y-100815283D01*
X150518102Y-101016903D01*
X150425307Y-101240931D01*
X150378000Y-101478757D01*
X139432584Y-101478757D01*
X141972584Y-98938757D01*
X150378000Y-98938757D01*
X150378000Y-99181243D01*
X150425307Y-99419069D01*
X150518102Y-99643097D01*
X150652820Y-99844717D01*
X150824283Y-100016180D01*
X151025903Y-100150898D01*
X151249931Y-100243693D01*
X151487757Y-100291000D01*
X151730243Y-100291000D01*
X151968069Y-100243693D01*
X152192097Y-100150898D01*
X152393717Y-100016180D01*
X152565180Y-99844717D01*
X152699898Y-99643097D01*
X152792693Y-99419069D01*
X152840000Y-99181243D01*
X152840000Y-98938757D01*
X165618000Y-98938757D01*
X165618000Y-99181243D01*
X165665307Y-99419069D01*
X165758102Y-99643097D01*
X165892820Y-99844717D01*
X166064283Y-100016180D01*
X166265903Y-100150898D01*
X166489931Y-100243693D01*
X166727757Y-100291000D01*
X166970243Y-100291000D01*
X167208069Y-100243693D01*
X167432097Y-100150898D01*
X167633717Y-100016180D01*
X167805180Y-99844717D01*
X167939898Y-99643097D01*
X168032693Y-99419069D01*
X168080000Y-99181243D01*
X168080000Y-98938757D01*
X168032693Y-98700931D01*
X167939898Y-98476903D01*
X167805180Y-98275283D01*
X167633717Y-98103820D01*
X167432097Y-97969102D01*
X167208069Y-97876307D01*
X166970243Y-97829000D01*
X166727757Y-97829000D01*
X166489931Y-97876307D01*
X166265903Y-97969102D01*
X166064283Y-98103820D01*
X165892820Y-98275283D01*
X165758102Y-98476903D01*
X165665307Y-98700931D01*
X165618000Y-98938757D01*
X152840000Y-98938757D01*
X152792693Y-98700931D01*
X152699898Y-98476903D01*
X152565180Y-98275283D01*
X152393717Y-98103820D01*
X152192097Y-97969102D01*
X151968069Y-97876307D01*
X151730243Y-97829000D01*
X151487757Y-97829000D01*
X151249931Y-97876307D01*
X151025903Y-97969102D01*
X150824283Y-98103820D01*
X150652820Y-98275283D01*
X150518102Y-98476903D01*
X150425307Y-98700931D01*
X150378000Y-98938757D01*
X141972584Y-98938757D01*
X144512584Y-96398757D01*
X150378000Y-96398757D01*
X150378000Y-96641243D01*
X150425307Y-96879069D01*
X150518102Y-97103097D01*
X150652820Y-97304717D01*
X150824283Y-97476180D01*
X151025903Y-97610898D01*
X151249931Y-97703693D01*
X151487757Y-97751000D01*
X151730243Y-97751000D01*
X151968069Y-97703693D01*
X152192097Y-97610898D01*
X152393717Y-97476180D01*
X152565180Y-97304717D01*
X152699898Y-97103097D01*
X152792693Y-96879069D01*
X152840000Y-96641243D01*
X152840000Y-96398757D01*
X165618000Y-96398757D01*
X165618000Y-96641243D01*
X165665307Y-96879069D01*
X165758102Y-97103097D01*
X165892820Y-97304717D01*
X166064283Y-97476180D01*
X166265903Y-97610898D01*
X166489931Y-97703693D01*
X166727757Y-97751000D01*
X166970243Y-97751000D01*
X167208069Y-97703693D01*
X167432097Y-97610898D01*
X167633717Y-97476180D01*
X167805180Y-97304717D01*
X167939898Y-97103097D01*
X168032693Y-96879069D01*
X168080000Y-96641243D01*
X168080000Y-96398757D01*
X168032693Y-96160931D01*
X167939898Y-95936903D01*
X167805180Y-95735283D01*
X167633717Y-95563820D01*
X167432097Y-95429102D01*
X167208069Y-95336307D01*
X166970243Y-95289000D01*
X166727757Y-95289000D01*
X166489931Y-95336307D01*
X166265903Y-95429102D01*
X166064283Y-95563820D01*
X165892820Y-95735283D01*
X165758102Y-95936903D01*
X165665307Y-96160931D01*
X165618000Y-96398757D01*
X152840000Y-96398757D01*
X152792693Y-96160931D01*
X152699898Y-95936903D01*
X152565180Y-95735283D01*
X152393717Y-95563820D01*
X152192097Y-95429102D01*
X151968069Y-95336307D01*
X151730243Y-95289000D01*
X151487757Y-95289000D01*
X151249931Y-95336307D01*
X151025903Y-95429102D01*
X150824283Y-95563820D01*
X150652820Y-95735283D01*
X150518102Y-95936903D01*
X150425307Y-96160931D01*
X150378000Y-96398757D01*
X144512584Y-96398757D01*
X146726151Y-94185191D01*
X146746495Y-94168495D01*
X146813151Y-94087275D01*
X146862681Y-93994611D01*
X146893181Y-93894065D01*
X146900900Y-93815695D01*
X146900900Y-93815688D01*
X146903479Y-93789501D01*
X146900900Y-93763314D01*
X146900900Y-93130000D01*
X150376157Y-93130000D01*
X150376157Y-94830000D01*
X150383513Y-94904689D01*
X150405299Y-94976508D01*
X150440678Y-95042696D01*
X150488289Y-95100711D01*
X150546304Y-95148322D01*
X150612492Y-95183701D01*
X150684311Y-95205487D01*
X150759000Y-95212843D01*
X152459000Y-95212843D01*
X152533689Y-95205487D01*
X152605508Y-95183701D01*
X152671696Y-95148322D01*
X152729711Y-95100711D01*
X152777322Y-95042696D01*
X152812701Y-94976508D01*
X152834487Y-94904689D01*
X152841843Y-94830000D01*
X152841843Y-93130000D01*
X165616157Y-93130000D01*
X165616157Y-94830000D01*
X165623513Y-94904689D01*
X165645299Y-94976508D01*
X165680678Y-95042696D01*
X165728289Y-95100711D01*
X165786304Y-95148322D01*
X165852492Y-95183701D01*
X165924311Y-95205487D01*
X165999000Y-95212843D01*
X167699000Y-95212843D01*
X167773689Y-95205487D01*
X167845508Y-95183701D01*
X167911696Y-95148322D01*
X167969711Y-95100711D01*
X168017322Y-95042696D01*
X168052701Y-94976508D01*
X168074487Y-94904689D01*
X168081843Y-94830000D01*
X168081843Y-93130000D01*
X168074487Y-93055311D01*
X168052701Y-92983492D01*
X168017322Y-92917304D01*
X167969711Y-92859289D01*
X167911696Y-92811678D01*
X167845508Y-92776299D01*
X167773689Y-92754513D01*
X167699000Y-92747157D01*
X165999000Y-92747157D01*
X165924311Y-92754513D01*
X165852492Y-92776299D01*
X165786304Y-92811678D01*
X165728289Y-92859289D01*
X165680678Y-92917304D01*
X165645299Y-92983492D01*
X165623513Y-93055311D01*
X165616157Y-93130000D01*
X152841843Y-93130000D01*
X152834487Y-93055311D01*
X152812701Y-92983492D01*
X152777322Y-92917304D01*
X152729711Y-92859289D01*
X152671696Y-92811678D01*
X152605508Y-92776299D01*
X152533689Y-92754513D01*
X152459000Y-92747157D01*
X150759000Y-92747157D01*
X150684311Y-92754513D01*
X150612492Y-92776299D01*
X150546304Y-92811678D01*
X150488289Y-92859289D01*
X150440678Y-92917304D01*
X150405299Y-92983492D01*
X150383513Y-93055311D01*
X150376157Y-93130000D01*
X146900900Y-93130000D01*
X146900900Y-91025941D01*
X149446405Y-88480436D01*
X152530000Y-88480436D01*
X152530000Y-88811564D01*
X152594600Y-89136330D01*
X152721317Y-89442252D01*
X152905282Y-89717575D01*
X153139425Y-89951718D01*
X153414748Y-90135683D01*
X153720670Y-90262400D01*
X154045436Y-90327000D01*
X154376564Y-90327000D01*
X154701330Y-90262400D01*
X155007252Y-90135683D01*
X155282575Y-89951718D01*
X155516718Y-89717575D01*
X155700683Y-89442252D01*
X155827400Y-89136330D01*
X155892000Y-88811564D01*
X155892000Y-88480436D01*
X155827400Y-88155670D01*
X155700683Y-87849748D01*
X155516718Y-87574425D01*
X155282575Y-87340282D01*
X155007252Y-87156317D01*
X154701330Y-87029600D01*
X154376564Y-86965000D01*
X154045436Y-86965000D01*
X153720670Y-87029600D01*
X153414748Y-87156317D01*
X153139425Y-87340282D01*
X152905282Y-87574425D01*
X152721317Y-87849748D01*
X152594600Y-88155670D01*
X152530000Y-88480436D01*
X149446405Y-88480436D01*
X154162651Y-83764191D01*
X154182995Y-83747495D01*
X154249651Y-83666275D01*
X154299181Y-83573611D01*
X154329681Y-83473065D01*
X154337400Y-83394695D01*
X154337400Y-83394688D01*
X154339979Y-83368501D01*
X154337400Y-83342314D01*
X154337400Y-78232258D01*
X154341717Y-78237112D01*
X154505840Y-78361255D01*
X154691028Y-78450994D01*
X154767877Y-78460666D01*
X154927000Y-78332998D01*
X154927000Y-77343000D01*
X154907000Y-77343000D01*
X154907000Y-77089000D01*
X154927000Y-77089000D01*
X154927000Y-76099002D01*
X155181000Y-76099002D01*
X155181000Y-77089000D01*
X155201000Y-77089000D01*
X155201000Y-77343000D01*
X155181000Y-77343000D01*
X155181000Y-78332998D01*
X155340123Y-78460666D01*
X155416972Y-78450994D01*
X155602160Y-78361255D01*
X155766283Y-78237112D01*
X155770600Y-78232257D01*
X155770601Y-85712803D01*
X155768021Y-85739000D01*
X155778319Y-85843564D01*
X155808819Y-85944110D01*
X155808820Y-85944111D01*
X155858350Y-86036775D01*
X155885674Y-86070069D01*
X155908307Y-86097648D01*
X155908310Y-86097651D01*
X155925006Y-86117995D01*
X155945350Y-86134691D01*
X157703477Y-87892818D01*
X157594600Y-88155670D01*
X157530000Y-88480436D01*
X157530000Y-88811564D01*
X157594600Y-89136330D01*
X157721317Y-89442252D01*
X157905282Y-89717575D01*
X158139425Y-89951718D01*
X158414748Y-90135683D01*
X158720670Y-90262400D01*
X159045436Y-90327000D01*
X159376564Y-90327000D01*
X159701330Y-90262400D01*
X160007252Y-90135683D01*
X160282575Y-89951718D01*
X160516718Y-89717575D01*
X160700683Y-89442252D01*
X160827400Y-89136330D01*
X160892000Y-88811564D01*
X160892000Y-88480436D01*
X160827400Y-88155670D01*
X160700683Y-87849748D01*
X160516718Y-87574425D01*
X160282575Y-87340282D01*
X160007252Y-87156317D01*
X159701330Y-87029600D01*
X159376564Y-86965000D01*
X159045436Y-86965000D01*
X158720670Y-87029600D01*
X158457818Y-87138477D01*
X156837400Y-85518059D01*
X156837400Y-78038585D01*
X156858922Y-78020922D01*
X156929000Y-77935531D01*
X156999079Y-78020922D01*
X157118002Y-78118519D01*
X157253679Y-78191040D01*
X157400898Y-78235699D01*
X157554000Y-78250778D01*
X157707103Y-78235699D01*
X157854322Y-78191040D01*
X157989999Y-78118519D01*
X158108922Y-78020922D01*
X158206519Y-77901999D01*
X158279040Y-77766322D01*
X158323699Y-77619103D01*
X158335000Y-77504360D01*
X158335000Y-76927640D01*
X158323699Y-76812897D01*
X158279040Y-76665678D01*
X158206519Y-76530001D01*
X158108922Y-76411078D01*
X157989998Y-76313481D01*
X157854321Y-76240960D01*
X157707102Y-76196301D01*
X157554000Y-76181222D01*
X157400897Y-76196301D01*
X157253678Y-76240960D01*
X157118001Y-76313481D01*
X156999078Y-76411078D01*
X156929000Y-76496469D01*
X156858922Y-76411078D01*
X156739998Y-76313481D01*
X156604321Y-76240960D01*
X156457102Y-76196301D01*
X156304000Y-76181222D01*
X156150897Y-76196301D01*
X156003678Y-76240960D01*
X155870539Y-76312124D01*
X155766283Y-76194888D01*
X155602160Y-76070745D01*
X155416972Y-75981006D01*
X155340123Y-75971334D01*
X155181000Y-76099002D01*
X154927000Y-76099002D01*
X154767877Y-75971334D01*
X154691028Y-75981006D01*
X154505840Y-76070745D01*
X154341717Y-76194888D01*
X154237461Y-76312125D01*
X154104321Y-76240960D01*
X153957102Y-76196301D01*
X153804000Y-76181222D01*
X153650897Y-76196301D01*
X153503678Y-76240960D01*
X153368001Y-76313481D01*
X153249078Y-76411078D01*
X153179000Y-76496469D01*
X153108922Y-76411078D01*
X152989998Y-76313481D01*
X152854321Y-76240960D01*
X152707102Y-76196301D01*
X152554000Y-76181222D01*
X152400897Y-76196301D01*
X152253678Y-76240960D01*
X152118001Y-76313481D01*
X151999078Y-76411078D01*
X151929000Y-76496469D01*
X151858922Y-76411078D01*
X151739998Y-76313481D01*
X151604321Y-76240960D01*
X151457102Y-76196301D01*
X151304000Y-76181222D01*
X151150897Y-76196301D01*
X151003678Y-76240960D01*
X150868001Y-76313481D01*
X150749078Y-76411078D01*
X150679000Y-76496469D01*
X150608922Y-76411078D01*
X150489998Y-76313481D01*
X150354321Y-76240960D01*
X150207102Y-76196301D01*
X150054000Y-76181222D01*
X149900897Y-76196301D01*
X149753678Y-76240960D01*
X149618001Y-76313481D01*
X149499078Y-76411078D01*
X149429000Y-76496469D01*
X149358922Y-76411078D01*
X149239998Y-76313481D01*
X149221010Y-76303332D01*
X149616442Y-75907900D01*
X162974059Y-75907900D01*
X163677600Y-76611442D01*
X163677601Y-86963157D01*
X162911000Y-86963157D01*
X162836311Y-86970513D01*
X162764492Y-86992299D01*
X162698304Y-87027678D01*
X162640289Y-87075289D01*
X162592678Y-87133304D01*
X162557299Y-87199492D01*
X162535513Y-87271311D01*
X162528157Y-87346000D01*
X162528157Y-89946000D01*
X162535513Y-90020689D01*
X162557299Y-90092508D01*
X162592678Y-90158696D01*
X162640289Y-90216711D01*
X162698304Y-90264322D01*
X162764492Y-90299701D01*
X162836311Y-90321487D01*
X162911000Y-90328843D01*
X165511000Y-90328843D01*
X165585689Y-90321487D01*
X165657508Y-90299701D01*
X165723696Y-90264322D01*
X165781711Y-90216711D01*
X165829322Y-90158696D01*
X165864701Y-90092508D01*
X165886487Y-90020689D01*
X165893843Y-89946000D01*
X165893843Y-87346000D01*
X165886487Y-87271311D01*
X165864701Y-87199492D01*
X165829322Y-87133304D01*
X165781711Y-87075289D01*
X165723696Y-87027678D01*
X165657508Y-86992299D01*
X165585689Y-86970513D01*
X165511000Y-86963157D01*
X164744400Y-86963157D01*
X164744400Y-76416687D01*
X164746979Y-76390500D01*
X164744400Y-76364313D01*
X164744400Y-76364305D01*
X164736681Y-76285935D01*
X164706181Y-76185389D01*
X164656651Y-76092725D01*
X164589995Y-76011505D01*
X164569651Y-75994809D01*
X163590695Y-75015854D01*
X163573995Y-74995505D01*
X163492775Y-74928849D01*
X163400111Y-74879319D01*
X163299565Y-74848819D01*
X163221195Y-74841100D01*
X163221187Y-74841100D01*
X163195000Y-74838521D01*
X163168813Y-74841100D01*
X149421686Y-74841100D01*
X149395499Y-74838521D01*
X149369312Y-74841100D01*
X149369305Y-74841100D01*
X149290935Y-74848819D01*
X149190389Y-74879319D01*
X149097725Y-74928849D01*
X149016505Y-74995505D01*
X148999809Y-75015849D01*
X147793231Y-76222428D01*
X147707102Y-76196301D01*
X147554000Y-76181222D01*
X147400897Y-76196301D01*
X147253678Y-76240960D01*
X147118001Y-76313481D01*
X146999078Y-76411078D01*
X146981081Y-76433008D01*
X146916132Y-76353868D01*
X146827810Y-76281384D01*
X146727044Y-76227523D01*
X146617707Y-76194356D01*
X146504000Y-76183157D01*
X146104000Y-76183157D01*
X145990293Y-76194356D01*
X145880956Y-76227523D01*
X145780190Y-76281384D01*
X145691868Y-76353868D01*
X145619384Y-76442190D01*
X145565523Y-76542956D01*
X145532356Y-76652293D01*
X145521157Y-76766000D01*
X145521157Y-77666000D01*
X145532356Y-77779707D01*
X145565523Y-77889044D01*
X145619384Y-77989810D01*
X145691868Y-78078132D01*
X145780190Y-78150616D01*
X145880956Y-78204477D01*
X145990293Y-78237644D01*
X146104000Y-78248843D01*
X146504000Y-78248843D01*
X146617707Y-78237644D01*
X146727044Y-78204477D01*
X146827810Y-78150616D01*
X146916132Y-78078132D01*
X146981081Y-77998991D01*
X146999079Y-78020922D01*
X147118002Y-78118519D01*
X147253679Y-78191040D01*
X147400898Y-78235699D01*
X147554000Y-78250778D01*
X147707103Y-78235699D01*
X147854322Y-78191040D01*
X147989999Y-78118519D01*
X148108922Y-78020922D01*
X148179000Y-77935531D01*
X148249079Y-78020922D01*
X148368002Y-78118519D01*
X148503679Y-78191040D01*
X148650898Y-78235699D01*
X148804000Y-78250778D01*
X148957103Y-78235699D01*
X149104322Y-78191040D01*
X149239999Y-78118519D01*
X149358922Y-78020922D01*
X149429000Y-77935531D01*
X149499079Y-78020922D01*
X149618002Y-78118519D01*
X149753679Y-78191040D01*
X149900898Y-78235699D01*
X150054000Y-78250778D01*
X150207103Y-78235699D01*
X150354322Y-78191040D01*
X150489999Y-78118519D01*
X150608922Y-78020922D01*
X150679000Y-77935531D01*
X150749079Y-78020922D01*
X150770600Y-78038584D01*
X150770601Y-84354373D01*
X145094435Y-90030540D01*
X145074085Y-90047241D01*
X145007429Y-90128461D01*
X144957899Y-90221126D01*
X144927399Y-90321672D01*
X144919680Y-90400042D01*
X144919680Y-90400049D01*
X144917101Y-90426236D01*
X144919680Y-90452423D01*
X144919681Y-93189794D01*
X132304886Y-105804589D01*
X129596108Y-105804591D01*
X129569904Y-105802010D01*
X129465340Y-105812309D01*
X129364793Y-105842809D01*
X129272130Y-105892339D01*
X129211256Y-105942297D01*
X129211253Y-105942300D01*
X129190909Y-105958996D01*
X129174213Y-105979340D01*
X128153554Y-106999999D01*
X128133204Y-107016700D01*
X128066548Y-107097920D01*
X128048877Y-107130980D01*
X127911717Y-106993820D01*
X127710097Y-106859102D01*
X127486069Y-106766307D01*
X127248243Y-106719000D01*
X127005757Y-106719000D01*
X126767931Y-106766307D01*
X126543903Y-106859102D01*
X126342283Y-106993820D01*
X126170820Y-107165283D01*
X126036102Y-107366903D01*
X125943307Y-107590931D01*
X125896000Y-107828757D01*
X125818000Y-107828757D01*
X125770693Y-107590931D01*
X125677898Y-107366903D01*
X125543180Y-107165283D01*
X125371717Y-106993820D01*
X125170097Y-106859102D01*
X124946069Y-106766307D01*
X124708243Y-106719000D01*
X124465757Y-106719000D01*
X124227931Y-106766307D01*
X124003903Y-106859102D01*
X123802283Y-106993820D01*
X123630820Y-107165283D01*
X123496102Y-107366903D01*
X123403307Y-107590931D01*
X123356000Y-107828757D01*
X119734000Y-107828757D01*
X119734000Y-95128757D01*
X123356000Y-95128757D01*
X123356000Y-95371243D01*
X123403307Y-95609069D01*
X123496102Y-95833097D01*
X123630820Y-96034717D01*
X123802283Y-96206180D01*
X124003903Y-96340898D01*
X124227931Y-96433693D01*
X124465757Y-96481000D01*
X124708243Y-96481000D01*
X124946069Y-96433693D01*
X125170097Y-96340898D01*
X125371717Y-96206180D01*
X125543180Y-96034717D01*
X125677898Y-95833097D01*
X125770693Y-95609069D01*
X125818000Y-95371243D01*
X125818000Y-95128757D01*
X125896000Y-95128757D01*
X125896000Y-95371243D01*
X125943307Y-95609069D01*
X126036102Y-95833097D01*
X126170820Y-96034717D01*
X126342283Y-96206180D01*
X126543903Y-96340898D01*
X126767931Y-96433693D01*
X127005757Y-96481000D01*
X127248243Y-96481000D01*
X127486069Y-96433693D01*
X127710097Y-96340898D01*
X127911717Y-96206180D01*
X128083180Y-96034717D01*
X128217898Y-95833097D01*
X128310693Y-95609069D01*
X128358000Y-95371243D01*
X128358000Y-95128757D01*
X128436000Y-95128757D01*
X128436000Y-95371243D01*
X128483307Y-95609069D01*
X128576102Y-95833097D01*
X128710820Y-96034717D01*
X128882283Y-96206180D01*
X129083903Y-96340898D01*
X129307931Y-96433693D01*
X129545757Y-96481000D01*
X129788243Y-96481000D01*
X130026069Y-96433693D01*
X130250097Y-96340898D01*
X130451717Y-96206180D01*
X130623180Y-96034717D01*
X130757898Y-95833097D01*
X130850693Y-95609069D01*
X130898000Y-95371243D01*
X130898000Y-95128757D01*
X130976000Y-95128757D01*
X130976000Y-95371243D01*
X131023307Y-95609069D01*
X131116102Y-95833097D01*
X131250820Y-96034717D01*
X131422283Y-96206180D01*
X131623903Y-96340898D01*
X131847931Y-96433693D01*
X132085757Y-96481000D01*
X132328243Y-96481000D01*
X132566069Y-96433693D01*
X132790097Y-96340898D01*
X132991717Y-96206180D01*
X133163180Y-96034717D01*
X133297898Y-95833097D01*
X133390693Y-95609069D01*
X133438000Y-95371243D01*
X133438000Y-95128757D01*
X133516000Y-95128757D01*
X133516000Y-95371243D01*
X133563307Y-95609069D01*
X133656102Y-95833097D01*
X133790820Y-96034717D01*
X133962283Y-96206180D01*
X134163903Y-96340898D01*
X134387931Y-96433693D01*
X134625757Y-96481000D01*
X134868243Y-96481000D01*
X135106069Y-96433693D01*
X135330097Y-96340898D01*
X135531717Y-96206180D01*
X135703180Y-96034717D01*
X135837898Y-95833097D01*
X135930693Y-95609069D01*
X135978000Y-95371243D01*
X135978000Y-95128757D01*
X135930693Y-94890931D01*
X135837898Y-94666903D01*
X135703180Y-94465283D01*
X135637897Y-94400000D01*
X136054157Y-94400000D01*
X136054157Y-96100000D01*
X136061513Y-96174689D01*
X136083299Y-96246508D01*
X136118678Y-96312696D01*
X136166289Y-96370711D01*
X136224304Y-96418322D01*
X136290492Y-96453701D01*
X136362311Y-96475487D01*
X136437000Y-96482843D01*
X138137000Y-96482843D01*
X138211689Y-96475487D01*
X138283508Y-96453701D01*
X138349696Y-96418322D01*
X138407711Y-96370711D01*
X138455322Y-96312696D01*
X138490701Y-96246508D01*
X138512487Y-96174689D01*
X138519843Y-96100000D01*
X138519843Y-94400000D01*
X138512487Y-94325311D01*
X138490701Y-94253492D01*
X138455322Y-94187304D01*
X138407711Y-94129289D01*
X138349696Y-94081678D01*
X138283508Y-94046299D01*
X138211689Y-94024513D01*
X138137000Y-94017157D01*
X136437000Y-94017157D01*
X136362311Y-94024513D01*
X136290492Y-94046299D01*
X136224304Y-94081678D01*
X136166289Y-94129289D01*
X136118678Y-94187304D01*
X136083299Y-94253492D01*
X136061513Y-94325311D01*
X136054157Y-94400000D01*
X135637897Y-94400000D01*
X135531717Y-94293820D01*
X135330097Y-94159102D01*
X135106069Y-94066307D01*
X134868243Y-94019000D01*
X134625757Y-94019000D01*
X134387931Y-94066307D01*
X134163903Y-94159102D01*
X133962283Y-94293820D01*
X133790820Y-94465283D01*
X133656102Y-94666903D01*
X133563307Y-94890931D01*
X133516000Y-95128757D01*
X133438000Y-95128757D01*
X133390693Y-94890931D01*
X133297898Y-94666903D01*
X133163180Y-94465283D01*
X132991717Y-94293820D01*
X132790097Y-94159102D01*
X132566069Y-94066307D01*
X132328243Y-94019000D01*
X132085757Y-94019000D01*
X131847931Y-94066307D01*
X131623903Y-94159102D01*
X131422283Y-94293820D01*
X131250820Y-94465283D01*
X131116102Y-94666903D01*
X131023307Y-94890931D01*
X130976000Y-95128757D01*
X130898000Y-95128757D01*
X130850693Y-94890931D01*
X130757898Y-94666903D01*
X130623180Y-94465283D01*
X130451717Y-94293820D01*
X130250097Y-94159102D01*
X130026069Y-94066307D01*
X129788243Y-94019000D01*
X129545757Y-94019000D01*
X129307931Y-94066307D01*
X129083903Y-94159102D01*
X128882283Y-94293820D01*
X128710820Y-94465283D01*
X128576102Y-94666903D01*
X128483307Y-94890931D01*
X128436000Y-95128757D01*
X128358000Y-95128757D01*
X128310693Y-94890931D01*
X128217898Y-94666903D01*
X128083180Y-94465283D01*
X127911717Y-94293820D01*
X127710097Y-94159102D01*
X127486069Y-94066307D01*
X127248243Y-94019000D01*
X127005757Y-94019000D01*
X126767931Y-94066307D01*
X126543903Y-94159102D01*
X126342283Y-94293820D01*
X126170820Y-94465283D01*
X126036102Y-94666903D01*
X125943307Y-94890931D01*
X125896000Y-95128757D01*
X125818000Y-95128757D01*
X125770693Y-94890931D01*
X125677898Y-94666903D01*
X125543180Y-94465283D01*
X125371717Y-94293820D01*
X125170097Y-94159102D01*
X124946069Y-94066307D01*
X124708243Y-94019000D01*
X124465757Y-94019000D01*
X124227931Y-94066307D01*
X124003903Y-94159102D01*
X123802283Y-94293820D01*
X123630820Y-94465283D01*
X123496102Y-94666903D01*
X123403307Y-94890931D01*
X123356000Y-95128757D01*
X119734000Y-95128757D01*
X119734000Y-81700374D01*
X119731884Y-81678891D01*
X119731971Y-81666442D01*
X119731316Y-81659758D01*
X119690515Y-81271565D01*
X119681749Y-81228865D01*
X119673580Y-81186038D01*
X119671639Y-81179608D01*
X119556215Y-80806734D01*
X119539316Y-80766533D01*
X119522990Y-80726124D01*
X119519837Y-80720194D01*
X119334186Y-80376839D01*
X119309811Y-80340702D01*
X119285936Y-80304217D01*
X119281691Y-80299012D01*
X119032884Y-79998257D01*
X119001950Y-79967538D01*
X118971449Y-79936392D01*
X118966274Y-79932111D01*
X118663789Y-79685410D01*
X118627469Y-79661279D01*
X118591507Y-79636655D01*
X118585599Y-79633460D01*
X118240957Y-79450211D01*
X118200701Y-79433619D01*
X118160580Y-79416423D01*
X118154165Y-79414437D01*
X117780493Y-79301619D01*
X117737739Y-79293154D01*
X117695086Y-79284088D01*
X117688407Y-79283386D01*
X117299938Y-79245296D01*
X117276626Y-79243000D01*
X111116522Y-79243000D01*
X110798408Y-79211808D01*
X110515033Y-79126253D01*
X110253676Y-78987287D01*
X110024287Y-78800202D01*
X109835604Y-78572124D01*
X109694817Y-78311744D01*
X109607285Y-78028974D01*
X109574013Y-77712415D01*
X109577457Y-74737084D01*
X112505033Y-74737084D01*
X112505033Y-75104844D01*
X112576780Y-75465538D01*
X112717516Y-75805304D01*
X112921832Y-76111086D01*
X113181878Y-76371132D01*
X113487660Y-76575448D01*
X113827426Y-76716184D01*
X114188120Y-76787931D01*
X114555880Y-76787931D01*
X114916574Y-76716184D01*
X115256340Y-76575448D01*
X115562122Y-76371132D01*
X115822168Y-76111086D01*
X116026484Y-75805304D01*
X116167220Y-75465538D01*
X116238967Y-75104844D01*
X116238967Y-74737084D01*
X116238952Y-74737006D01*
X183847033Y-74737006D01*
X183847033Y-75104766D01*
X183918780Y-75465460D01*
X184059516Y-75805226D01*
X184263832Y-76111008D01*
X184523878Y-76371054D01*
X184829660Y-76575370D01*
X185169426Y-76716106D01*
X185530120Y-76787853D01*
X185897880Y-76787853D01*
X186258574Y-76716106D01*
X186598340Y-76575370D01*
X186904122Y-76371054D01*
X187164168Y-76111008D01*
X187368484Y-75805226D01*
X187509220Y-75465460D01*
X187580967Y-75104766D01*
X187580967Y-74737006D01*
X187509220Y-74376312D01*
X187368484Y-74036546D01*
X187164168Y-73730764D01*
X186904122Y-73470718D01*
X186598340Y-73266402D01*
X186258574Y-73125666D01*
X185897880Y-73053919D01*
X185530120Y-73053919D01*
X185169426Y-73125666D01*
X184829660Y-73266402D01*
X184523878Y-73470718D01*
X184263832Y-73730764D01*
X184059516Y-74036546D01*
X183918780Y-74376312D01*
X183847033Y-74737006D01*
X116238952Y-74737006D01*
X116167220Y-74376390D01*
X116026484Y-74036624D01*
X115822168Y-73730842D01*
X115562122Y-73470796D01*
X115256340Y-73266480D01*
X114916574Y-73125744D01*
X114555880Y-73053997D01*
X114188120Y-73053997D01*
X113827426Y-73125744D01*
X113487660Y-73266480D01*
X113181878Y-73470796D01*
X112921832Y-73730842D01*
X112717516Y-74036624D01*
X112576780Y-74376390D01*
X112505033Y-74737084D01*
X109577457Y-74737084D01*
X109579244Y-73193764D01*
X109610463Y-72875372D01*
X109696020Y-72591993D01*
X109834985Y-72330639D01*
X110022071Y-72101249D01*
X110250148Y-71912568D01*
X110510529Y-71771781D01*
X110793297Y-71684249D01*
X111109982Y-71650964D01*
X188190478Y-71650964D01*
X188508592Y-71682156D01*
%TA.AperFunction,Conductor*%
D18*
G36*
X188508592Y-71682156D02*
G01*
X188791971Y-71767713D01*
X189053325Y-71906678D01*
X189282715Y-72093764D01*
X189471396Y-72321841D01*
X189612183Y-72582222D01*
X189699715Y-72864990D01*
X189733000Y-73181675D01*
X189733001Y-78208468D01*
X189701808Y-78526592D01*
X189616253Y-78809967D01*
X189477287Y-79071324D01*
X189290202Y-79300713D01*
X189062124Y-79489396D01*
X188801744Y-79630183D01*
X188518974Y-79717715D01*
X188202288Y-79751000D01*
X177661574Y-79751000D01*
X177640091Y-79753116D01*
X177627642Y-79753029D01*
X177620958Y-79753684D01*
X177232765Y-79794485D01*
X177190065Y-79803251D01*
X177147238Y-79811420D01*
X177140808Y-79813361D01*
X176767934Y-79928785D01*
X176727733Y-79945684D01*
X176687324Y-79962010D01*
X176681394Y-79965163D01*
X176338039Y-80150814D01*
X176301902Y-80175189D01*
X176265417Y-80199064D01*
X176260212Y-80203309D01*
X175959457Y-80452116D01*
X175928738Y-80483050D01*
X175897592Y-80513551D01*
X175893311Y-80518726D01*
X175646610Y-80821211D01*
X175622479Y-80857531D01*
X175597855Y-80893493D01*
X175594660Y-80899401D01*
X175411411Y-81244043D01*
X175394819Y-81284299D01*
X175377623Y-81324420D01*
X175375637Y-81330835D01*
X175262819Y-81704507D01*
X175254354Y-81747261D01*
X175245288Y-81789914D01*
X175244586Y-81796593D01*
X175206496Y-82185062D01*
X175204200Y-82208375D01*
X175204201Y-86216299D01*
X175205330Y-86227757D01*
X175213932Y-86407118D01*
X175218528Y-86438447D01*
X175221119Y-86470010D01*
X175222365Y-86476610D01*
X175297457Y-86859650D01*
X175309971Y-86901383D01*
X175321915Y-86943338D01*
X175324420Y-86949570D01*
X175472480Y-87310729D01*
X175492864Y-87349241D01*
X175512729Y-87388073D01*
X175516395Y-87393699D01*
X175731786Y-87719222D01*
X175759269Y-87753049D01*
X175786290Y-87787274D01*
X175790980Y-87792082D01*
X176065497Y-88069570D01*
X176099000Y-88097392D01*
X176132181Y-88125740D01*
X176137716Y-88129545D01*
X176460901Y-88348427D01*
X176499240Y-88369250D01*
X176537227Y-88390575D01*
X176543390Y-88393230D01*
X176543394Y-88393232D01*
X176543398Y-88393233D01*
X176902941Y-88545171D01*
X176944553Y-88558138D01*
X176985997Y-88571691D01*
X176992564Y-88573100D01*
X177353528Y-88647907D01*
X177378091Y-88655358D01*
X177448757Y-88662318D01*
X180367000Y-88662318D01*
X180367001Y-144077810D01*
X180335808Y-144395934D01*
X180250253Y-144679309D01*
X180111287Y-144940666D01*
X179924202Y-145170055D01*
X179696124Y-145358738D01*
X179435744Y-145499525D01*
X179152974Y-145587057D01*
X178836188Y-145620353D01*
X121271043Y-145670580D01*
X120953137Y-145639408D01*
X120669762Y-145553853D01*
X120408405Y-145414887D01*
X120179016Y-145227802D01*
X119990333Y-144999724D01*
X119849546Y-144739344D01*
X119762014Y-144456574D01*
X119728742Y-144140015D01*
X119730656Y-142486083D01*
X121347033Y-142486083D01*
X121347033Y-142853843D01*
X121418780Y-143214537D01*
X121559516Y-143554303D01*
X121763832Y-143860085D01*
X122023878Y-144120131D01*
X122329660Y-144324447D01*
X122669426Y-144465183D01*
X123030120Y-144536930D01*
X123397880Y-144536930D01*
X123758574Y-144465183D01*
X124098340Y-144324447D01*
X124404122Y-144120131D01*
X124664168Y-143860085D01*
X124868484Y-143554303D01*
X125009220Y-143214537D01*
X125080967Y-142853843D01*
X125080967Y-142486083D01*
X175207733Y-142486083D01*
X175207733Y-142853843D01*
X175279480Y-143214537D01*
X175420216Y-143554303D01*
X175624532Y-143860085D01*
X175884578Y-144120131D01*
X176190360Y-144324447D01*
X176530126Y-144465183D01*
X176890820Y-144536930D01*
X177258580Y-144536930D01*
X177619274Y-144465183D01*
X177959040Y-144324447D01*
X178264822Y-144120131D01*
X178524868Y-143860085D01*
X178729184Y-143554303D01*
X178869920Y-143214537D01*
X178941667Y-142853843D01*
X178941667Y-142486083D01*
X178869920Y-142125389D01*
X178729184Y-141785623D01*
X178524868Y-141479841D01*
X178264822Y-141219795D01*
X177959040Y-141015479D01*
X177619274Y-140874743D01*
X177258580Y-140802996D01*
X176890820Y-140802996D01*
X176530126Y-140874743D01*
X176190360Y-141015479D01*
X175884578Y-141219795D01*
X175624532Y-141479841D01*
X175420216Y-141785623D01*
X175279480Y-142125389D01*
X175207733Y-142486083D01*
X125080967Y-142486083D01*
X125009220Y-142125389D01*
X124868484Y-141785623D01*
X124664168Y-141479841D01*
X124404122Y-141219795D01*
X124098340Y-141015479D01*
X123758574Y-140874743D01*
X123397880Y-140802996D01*
X123030120Y-140802996D01*
X122669426Y-140874743D01*
X122329660Y-141015479D01*
X122023878Y-141219795D01*
X121763832Y-141479841D01*
X121559516Y-141785623D01*
X121418780Y-142125389D01*
X121347033Y-142486083D01*
X119730656Y-142486083D01*
X119733973Y-139621468D01*
X119734000Y-139621190D01*
X119734000Y-139597821D01*
X119734027Y-139574495D01*
X119734000Y-139574218D01*
X119734000Y-131958757D01*
X165618000Y-131958757D01*
X165618000Y-132201243D01*
X165665307Y-132439069D01*
X165758102Y-132663097D01*
X165892820Y-132864717D01*
X166064283Y-133036180D01*
X166265903Y-133170898D01*
X166489931Y-133263693D01*
X166727757Y-133311000D01*
X166970243Y-133311000D01*
X167208069Y-133263693D01*
X167432097Y-133170898D01*
X167633717Y-133036180D01*
X167805180Y-132864717D01*
X167939898Y-132663097D01*
X168032693Y-132439069D01*
X168080000Y-132201243D01*
X168080000Y-131958757D01*
X168032693Y-131720931D01*
X167939898Y-131496903D01*
X167805180Y-131295283D01*
X167633717Y-131123820D01*
X167432097Y-130989102D01*
X167208069Y-130896307D01*
X166970243Y-130849000D01*
X166727757Y-130849000D01*
X166489931Y-130896307D01*
X166265903Y-130989102D01*
X166064283Y-131123820D01*
X165892820Y-131295283D01*
X165758102Y-131496903D01*
X165665307Y-131720931D01*
X165618000Y-131958757D01*
X119734000Y-131958757D01*
X119734000Y-129418757D01*
X165618000Y-129418757D01*
X165618000Y-129661243D01*
X165665307Y-129899069D01*
X165758102Y-130123097D01*
X165892820Y-130324717D01*
X166064283Y-130496180D01*
X166265903Y-130630898D01*
X166489931Y-130723693D01*
X166727757Y-130771000D01*
X166970243Y-130771000D01*
X167208069Y-130723693D01*
X167432097Y-130630898D01*
X167633717Y-130496180D01*
X167805180Y-130324717D01*
X167939898Y-130123097D01*
X168032693Y-129899069D01*
X168080000Y-129661243D01*
X168080000Y-129418757D01*
X168032693Y-129180931D01*
X167939898Y-128956903D01*
X167805180Y-128755283D01*
X167633717Y-128583820D01*
X167432097Y-128449102D01*
X167208069Y-128356307D01*
X166970243Y-128309000D01*
X166727757Y-128309000D01*
X166489931Y-128356307D01*
X166265903Y-128449102D01*
X166064283Y-128583820D01*
X165892820Y-128755283D01*
X165758102Y-128956903D01*
X165665307Y-129180931D01*
X165618000Y-129418757D01*
X119734000Y-129418757D01*
X119734000Y-127539157D01*
X123381400Y-127539157D01*
X123381400Y-127781643D01*
X123428707Y-128019469D01*
X123521502Y-128243497D01*
X123656220Y-128445117D01*
X123827683Y-128616580D01*
X124029303Y-128751298D01*
X124253331Y-128844093D01*
X124491157Y-128891400D01*
X124733643Y-128891400D01*
X124971469Y-128844093D01*
X125195497Y-128751298D01*
X125397117Y-128616580D01*
X125568580Y-128445117D01*
X125703298Y-128243497D01*
X125796093Y-128019469D01*
X125843400Y-127781643D01*
X125843400Y-127539157D01*
X125921400Y-127539157D01*
X125921400Y-127781643D01*
X125968707Y-128019469D01*
X126061502Y-128243497D01*
X126196220Y-128445117D01*
X126367683Y-128616580D01*
X126569303Y-128751298D01*
X126793331Y-128844093D01*
X127031157Y-128891400D01*
X127273643Y-128891400D01*
X127511469Y-128844093D01*
X127735497Y-128751298D01*
X127937117Y-128616580D01*
X128108580Y-128445117D01*
X128243298Y-128243497D01*
X128290628Y-128129232D01*
X128348243Y-128291652D01*
X128497222Y-128541755D01*
X128692131Y-128757988D01*
X128925480Y-128932041D01*
X129188301Y-129057225D01*
X129335510Y-129101876D01*
X129565400Y-128980555D01*
X129565400Y-127787400D01*
X129545400Y-127787400D01*
X129545400Y-127533400D01*
X129565400Y-127533400D01*
X129565400Y-126340245D01*
X129819400Y-126340245D01*
X129819400Y-127533400D01*
X129839400Y-127533400D01*
X129839400Y-127787400D01*
X129819400Y-127787400D01*
X129819400Y-128980555D01*
X130049290Y-129101876D01*
X130196499Y-129057225D01*
X130459320Y-128932041D01*
X130692669Y-128757988D01*
X130887578Y-128541755D01*
X131036557Y-128291652D01*
X131094172Y-128129232D01*
X131141502Y-128243497D01*
X131276220Y-128445117D01*
X131447683Y-128616580D01*
X131649303Y-128751298D01*
X131873331Y-128844093D01*
X132111157Y-128891400D01*
X132353643Y-128891400D01*
X132591469Y-128844093D01*
X132815497Y-128751298D01*
X133017117Y-128616580D01*
X133188580Y-128445117D01*
X133323298Y-128243497D01*
X133416093Y-128019469D01*
X133463400Y-127781643D01*
X133463400Y-127539157D01*
X133541400Y-127539157D01*
X133541400Y-127781643D01*
X133588707Y-128019469D01*
X133681502Y-128243497D01*
X133816220Y-128445117D01*
X133987683Y-128616580D01*
X134189303Y-128751298D01*
X134413331Y-128844093D01*
X134651157Y-128891400D01*
X134893643Y-128891400D01*
X135131469Y-128844093D01*
X135355497Y-128751298D01*
X135557117Y-128616580D01*
X135728580Y-128445117D01*
X135863298Y-128243497D01*
X135956093Y-128019469D01*
X136003400Y-127781643D01*
X136003400Y-127539157D01*
X135956093Y-127301331D01*
X135863298Y-127077303D01*
X135728580Y-126875683D01*
X135663297Y-126810400D01*
X136079557Y-126810400D01*
X136079557Y-128510400D01*
X136086913Y-128585089D01*
X136108699Y-128656908D01*
X136144078Y-128723096D01*
X136191689Y-128781111D01*
X136249704Y-128828722D01*
X136315892Y-128864101D01*
X136387711Y-128885887D01*
X136462400Y-128893243D01*
X138162400Y-128893243D01*
X138237089Y-128885887D01*
X138308908Y-128864101D01*
X138375096Y-128828722D01*
X138433111Y-128781111D01*
X138480722Y-128723096D01*
X138516101Y-128656908D01*
X138537887Y-128585089D01*
X138545243Y-128510400D01*
X138545243Y-126810400D01*
X138537887Y-126735711D01*
X138516101Y-126663892D01*
X138480722Y-126597704D01*
X138433111Y-126539689D01*
X138375096Y-126492078D01*
X138308908Y-126456699D01*
X138237089Y-126434913D01*
X138162400Y-126427557D01*
X136462400Y-126427557D01*
X136387711Y-126434913D01*
X136315892Y-126456699D01*
X136249704Y-126492078D01*
X136191689Y-126539689D01*
X136144078Y-126597704D01*
X136108699Y-126663892D01*
X136086913Y-126735711D01*
X136079557Y-126810400D01*
X135663297Y-126810400D01*
X135557117Y-126704220D01*
X135355497Y-126569502D01*
X135131469Y-126476707D01*
X134893643Y-126429400D01*
X134651157Y-126429400D01*
X134413331Y-126476707D01*
X134189303Y-126569502D01*
X133987683Y-126704220D01*
X133816220Y-126875683D01*
X133681502Y-127077303D01*
X133588707Y-127301331D01*
X133541400Y-127539157D01*
X133463400Y-127539157D01*
X133416093Y-127301331D01*
X133323298Y-127077303D01*
X133188580Y-126875683D01*
X133017117Y-126704220D01*
X132815497Y-126569502D01*
X132591469Y-126476707D01*
X132353643Y-126429400D01*
X132111157Y-126429400D01*
X131873331Y-126476707D01*
X131649303Y-126569502D01*
X131447683Y-126704220D01*
X131276220Y-126875683D01*
X131141502Y-127077303D01*
X131094172Y-127191568D01*
X131036557Y-127029148D01*
X130887578Y-126779045D01*
X130692669Y-126562812D01*
X130459320Y-126388759D01*
X130196499Y-126263575D01*
X130049290Y-126218924D01*
X129819400Y-126340245D01*
X129565400Y-126340245D01*
X129335510Y-126218924D01*
X129188301Y-126263575D01*
X128925480Y-126388759D01*
X128692131Y-126562812D01*
X128497222Y-126779045D01*
X128348243Y-127029148D01*
X128290628Y-127191568D01*
X128243298Y-127077303D01*
X128108580Y-126875683D01*
X127937117Y-126704220D01*
X127735497Y-126569502D01*
X127511469Y-126476707D01*
X127273643Y-126429400D01*
X127031157Y-126429400D01*
X126793331Y-126476707D01*
X126569303Y-126569502D01*
X126367683Y-126704220D01*
X126196220Y-126875683D01*
X126061502Y-127077303D01*
X125968707Y-127301331D01*
X125921400Y-127539157D01*
X125843400Y-127539157D01*
X125796093Y-127301331D01*
X125703298Y-127077303D01*
X125568580Y-126875683D01*
X125397117Y-126704220D01*
X125195497Y-126569502D01*
X124971469Y-126476707D01*
X124733643Y-126429400D01*
X124491157Y-126429400D01*
X124253331Y-126476707D01*
X124029303Y-126569502D01*
X123827683Y-126704220D01*
X123656220Y-126875683D01*
X123521502Y-127077303D01*
X123428707Y-127301331D01*
X123381400Y-127539157D01*
X119734000Y-127539157D01*
X119734000Y-124816890D01*
X165407524Y-124816890D01*
X165452175Y-124964099D01*
X165577359Y-125226920D01*
X165751412Y-125460269D01*
X165967645Y-125655178D01*
X166217748Y-125804157D01*
X166380168Y-125861772D01*
X166265903Y-125909102D01*
X166064283Y-126043820D01*
X165892820Y-126215283D01*
X165758102Y-126416903D01*
X165665307Y-126640931D01*
X165618000Y-126878757D01*
X165618000Y-127121243D01*
X165665307Y-127359069D01*
X165758102Y-127583097D01*
X165892820Y-127784717D01*
X166064283Y-127956180D01*
X166265903Y-128090898D01*
X166489931Y-128183693D01*
X166727757Y-128231000D01*
X166970243Y-128231000D01*
X167208069Y-128183693D01*
X167432097Y-128090898D01*
X167633717Y-127956180D01*
X167805180Y-127784717D01*
X167939898Y-127583097D01*
X168032693Y-127359069D01*
X168080000Y-127121243D01*
X168080000Y-126878757D01*
X168032693Y-126640931D01*
X167939898Y-126416903D01*
X167805180Y-126215283D01*
X167633717Y-126043820D01*
X167432097Y-125909102D01*
X167317832Y-125861772D01*
X167480252Y-125804157D01*
X167730355Y-125655178D01*
X167946588Y-125460269D01*
X168120641Y-125226920D01*
X168245825Y-124964099D01*
X168290476Y-124816890D01*
X168169155Y-124587000D01*
X166976000Y-124587000D01*
X166976000Y-124607000D01*
X166722000Y-124607000D01*
X166722000Y-124587000D01*
X165528845Y-124587000D01*
X165407524Y-124816890D01*
X119734000Y-124816890D01*
X119734000Y-124103110D01*
X165407524Y-124103110D01*
X165528845Y-124333000D01*
X166722000Y-124333000D01*
X166722000Y-124313000D01*
X166976000Y-124313000D01*
X166976000Y-124333000D01*
X168169155Y-124333000D01*
X168290476Y-124103110D01*
X168245825Y-123955901D01*
X168120641Y-123693080D01*
X167946588Y-123459731D01*
X167730355Y-123264822D01*
X167480252Y-123115843D01*
X167317832Y-123058228D01*
X167432097Y-123010898D01*
X167633717Y-122876180D01*
X167805180Y-122704717D01*
X167939898Y-122503097D01*
X168032693Y-122279069D01*
X168080000Y-122041243D01*
X168080000Y-121798757D01*
X168032693Y-121560931D01*
X167939898Y-121336903D01*
X167805180Y-121135283D01*
X167633717Y-120963820D01*
X167432097Y-120829102D01*
X167208069Y-120736307D01*
X166970243Y-120689000D01*
X166727757Y-120689000D01*
X166489931Y-120736307D01*
X166265903Y-120829102D01*
X166064283Y-120963820D01*
X165892820Y-121135283D01*
X165758102Y-121336903D01*
X165665307Y-121560931D01*
X165618000Y-121798757D01*
X165618000Y-122041243D01*
X165665307Y-122279069D01*
X165758102Y-122503097D01*
X165892820Y-122704717D01*
X166064283Y-122876180D01*
X166265903Y-123010898D01*
X166380168Y-123058228D01*
X166217748Y-123115843D01*
X165967645Y-123264822D01*
X165751412Y-123459731D01*
X165577359Y-123693080D01*
X165452175Y-123955901D01*
X165407524Y-124103110D01*
X119734000Y-124103110D01*
X119734000Y-121798757D01*
X150378000Y-121798757D01*
X150378000Y-122041243D01*
X150425307Y-122279069D01*
X150518102Y-122503097D01*
X150652820Y-122704717D01*
X150824283Y-122876180D01*
X151025903Y-123010898D01*
X151249931Y-123103693D01*
X151487757Y-123151000D01*
X151730243Y-123151000D01*
X151968069Y-123103693D01*
X152192097Y-123010898D01*
X152393717Y-122876180D01*
X152565180Y-122704717D01*
X152699898Y-122503097D01*
X152792693Y-122279069D01*
X152840000Y-122041243D01*
X152840000Y-121798757D01*
X152792693Y-121560931D01*
X152699898Y-121336903D01*
X152565180Y-121135283D01*
X152393717Y-120963820D01*
X152192097Y-120829102D01*
X151968069Y-120736307D01*
X151730243Y-120689000D01*
X151487757Y-120689000D01*
X151249931Y-120736307D01*
X151025903Y-120829102D01*
X150824283Y-120963820D01*
X150652820Y-121135283D01*
X150518102Y-121336903D01*
X150425307Y-121560931D01*
X150378000Y-121798757D01*
X119734000Y-121798757D01*
X119734000Y-119258757D01*
X150378000Y-119258757D01*
X150378000Y-119501243D01*
X150425307Y-119739069D01*
X150518102Y-119963097D01*
X150652820Y-120164717D01*
X150824283Y-120336180D01*
X151025903Y-120470898D01*
X151249931Y-120563693D01*
X151487757Y-120611000D01*
X151730243Y-120611000D01*
X151968069Y-120563693D01*
X152192097Y-120470898D01*
X152393717Y-120336180D01*
X152565180Y-120164717D01*
X152699898Y-119963097D01*
X152792693Y-119739069D01*
X152840000Y-119501243D01*
X152840000Y-119258757D01*
X165618000Y-119258757D01*
X165618000Y-119501243D01*
X165665307Y-119739069D01*
X165758102Y-119963097D01*
X165892820Y-120164717D01*
X166064283Y-120336180D01*
X166265903Y-120470898D01*
X166489931Y-120563693D01*
X166727757Y-120611000D01*
X166970243Y-120611000D01*
X167208069Y-120563693D01*
X167432097Y-120470898D01*
X167633717Y-120336180D01*
X167805180Y-120164717D01*
X167939898Y-119963097D01*
X168032693Y-119739069D01*
X168080000Y-119501243D01*
X168080000Y-119258757D01*
X168032693Y-119020931D01*
X167939898Y-118796903D01*
X167805180Y-118595283D01*
X167633717Y-118423820D01*
X167432097Y-118289102D01*
X167208069Y-118196307D01*
X166970243Y-118149000D01*
X166727757Y-118149000D01*
X166489931Y-118196307D01*
X166265903Y-118289102D01*
X166064283Y-118423820D01*
X165892820Y-118595283D01*
X165758102Y-118796903D01*
X165665307Y-119020931D01*
X165618000Y-119258757D01*
X152840000Y-119258757D01*
X152792693Y-119020931D01*
X152699898Y-118796903D01*
X152565180Y-118595283D01*
X152393717Y-118423820D01*
X152192097Y-118289102D01*
X151968069Y-118196307D01*
X151730243Y-118149000D01*
X151487757Y-118149000D01*
X151249931Y-118196307D01*
X151025903Y-118289102D01*
X150824283Y-118423820D01*
X150652820Y-118595283D01*
X150518102Y-118796903D01*
X150425307Y-119020931D01*
X150378000Y-119258757D01*
X119734000Y-119258757D01*
X119734000Y-116718757D01*
X150378000Y-116718757D01*
X150378000Y-116961243D01*
X150425307Y-117199069D01*
X150518102Y-117423097D01*
X150652820Y-117624717D01*
X150824283Y-117796180D01*
X151025903Y-117930898D01*
X151249931Y-118023693D01*
X151487757Y-118071000D01*
X151730243Y-118071000D01*
X151968069Y-118023693D01*
X152192097Y-117930898D01*
X152393717Y-117796180D01*
X152565180Y-117624717D01*
X152699898Y-117423097D01*
X152792693Y-117199069D01*
X152840000Y-116961243D01*
X152840000Y-116718757D01*
X165618000Y-116718757D01*
X165618000Y-116961243D01*
X165665307Y-117199069D01*
X165758102Y-117423097D01*
X165892820Y-117624717D01*
X166064283Y-117796180D01*
X166265903Y-117930898D01*
X166489931Y-118023693D01*
X166727757Y-118071000D01*
X166970243Y-118071000D01*
X167208069Y-118023693D01*
X167432097Y-117930898D01*
X167633717Y-117796180D01*
X167805180Y-117624717D01*
X167939898Y-117423097D01*
X168032693Y-117199069D01*
X168080000Y-116961243D01*
X168080000Y-116718757D01*
X168032693Y-116480931D01*
X167939898Y-116256903D01*
X167805180Y-116055283D01*
X167633717Y-115883820D01*
X167432097Y-115749102D01*
X167208069Y-115656307D01*
X166970243Y-115609000D01*
X166727757Y-115609000D01*
X166489931Y-115656307D01*
X166265903Y-115749102D01*
X166064283Y-115883820D01*
X165892820Y-116055283D01*
X165758102Y-116256903D01*
X165665307Y-116480931D01*
X165618000Y-116718757D01*
X152840000Y-116718757D01*
X152792693Y-116480931D01*
X152699898Y-116256903D01*
X152565180Y-116055283D01*
X152393717Y-115883820D01*
X152192097Y-115749102D01*
X151968069Y-115656307D01*
X151730243Y-115609000D01*
X151487757Y-115609000D01*
X151249931Y-115656307D01*
X151025903Y-115749102D01*
X150824283Y-115883820D01*
X150652820Y-116055283D01*
X150518102Y-116256903D01*
X150425307Y-116480931D01*
X150378000Y-116718757D01*
X119734000Y-116718757D01*
X119734000Y-114839157D01*
X123381400Y-114839157D01*
X123381400Y-115081643D01*
X123428707Y-115319469D01*
X123521502Y-115543497D01*
X123656220Y-115745117D01*
X123827683Y-115916580D01*
X124029303Y-116051298D01*
X124253331Y-116144093D01*
X124491157Y-116191400D01*
X124733643Y-116191400D01*
X124971469Y-116144093D01*
X125195497Y-116051298D01*
X125397117Y-115916580D01*
X125568580Y-115745117D01*
X125703298Y-115543497D01*
X125796093Y-115319469D01*
X125843400Y-115081643D01*
X125843400Y-114839157D01*
X125921400Y-114839157D01*
X125921400Y-115081643D01*
X125968707Y-115319469D01*
X126061502Y-115543497D01*
X126196220Y-115745117D01*
X126367683Y-115916580D01*
X126569303Y-116051298D01*
X126793331Y-116144093D01*
X127031157Y-116191400D01*
X127273643Y-116191400D01*
X127511469Y-116144093D01*
X127735497Y-116051298D01*
X127937117Y-115916580D01*
X128108580Y-115745117D01*
X128243298Y-115543497D01*
X128336093Y-115319469D01*
X128383400Y-115081643D01*
X128383400Y-114839157D01*
X128461400Y-114839157D01*
X128461400Y-115081643D01*
X128508707Y-115319469D01*
X128601502Y-115543497D01*
X128736220Y-115745117D01*
X128907683Y-115916580D01*
X129109303Y-116051298D01*
X129333331Y-116144093D01*
X129571157Y-116191400D01*
X129813643Y-116191400D01*
X130051469Y-116144093D01*
X130275497Y-116051298D01*
X130477117Y-115916580D01*
X130648580Y-115745117D01*
X130783298Y-115543497D01*
X130876093Y-115319469D01*
X130923400Y-115081643D01*
X130923400Y-114839157D01*
X131001400Y-114839157D01*
X131001400Y-115081643D01*
X131048707Y-115319469D01*
X131141502Y-115543497D01*
X131276220Y-115745117D01*
X131447683Y-115916580D01*
X131649303Y-116051298D01*
X131873331Y-116144093D01*
X132111157Y-116191400D01*
X132353643Y-116191400D01*
X132591469Y-116144093D01*
X132815497Y-116051298D01*
X133017117Y-115916580D01*
X133188580Y-115745117D01*
X133323298Y-115543497D01*
X133416093Y-115319469D01*
X133463400Y-115081643D01*
X133463400Y-114839157D01*
X133541400Y-114839157D01*
X133541400Y-115081643D01*
X133588707Y-115319469D01*
X133681502Y-115543497D01*
X133816220Y-115745117D01*
X133987683Y-115916580D01*
X134189303Y-116051298D01*
X134413331Y-116144093D01*
X134651157Y-116191400D01*
X134893643Y-116191400D01*
X135131469Y-116144093D01*
X135355497Y-116051298D01*
X135557117Y-115916580D01*
X135728580Y-115745117D01*
X135863298Y-115543497D01*
X135956093Y-115319469D01*
X136003400Y-115081643D01*
X136003400Y-114839157D01*
X135956093Y-114601331D01*
X135863298Y-114377303D01*
X135728580Y-114175683D01*
X135663297Y-114110400D01*
X136079557Y-114110400D01*
X136079557Y-115810400D01*
X136086913Y-115885089D01*
X136108699Y-115956908D01*
X136144078Y-116023096D01*
X136191689Y-116081111D01*
X136249704Y-116128722D01*
X136315892Y-116164101D01*
X136387711Y-116185887D01*
X136462400Y-116193243D01*
X138162400Y-116193243D01*
X138237089Y-116185887D01*
X138308908Y-116164101D01*
X138375096Y-116128722D01*
X138433111Y-116081111D01*
X138480722Y-116023096D01*
X138516101Y-115956908D01*
X138537887Y-115885089D01*
X138545243Y-115810400D01*
X138545243Y-114178757D01*
X150378000Y-114178757D01*
X150378000Y-114421243D01*
X150425307Y-114659069D01*
X150518102Y-114883097D01*
X150652820Y-115084717D01*
X150824283Y-115256180D01*
X151025903Y-115390898D01*
X151249931Y-115483693D01*
X151487757Y-115531000D01*
X151730243Y-115531000D01*
X151968069Y-115483693D01*
X152192097Y-115390898D01*
X152393717Y-115256180D01*
X152565180Y-115084717D01*
X152699898Y-114883097D01*
X152792693Y-114659069D01*
X152840000Y-114421243D01*
X152840000Y-114178757D01*
X165618000Y-114178757D01*
X165618000Y-114421243D01*
X165665307Y-114659069D01*
X165758102Y-114883097D01*
X165892820Y-115084717D01*
X166064283Y-115256180D01*
X166265903Y-115390898D01*
X166489931Y-115483693D01*
X166727757Y-115531000D01*
X166970243Y-115531000D01*
X167208069Y-115483693D01*
X167432097Y-115390898D01*
X167633717Y-115256180D01*
X167805180Y-115084717D01*
X167939898Y-114883097D01*
X168032693Y-114659069D01*
X168080000Y-114421243D01*
X168080000Y-114178757D01*
X168032693Y-113940931D01*
X167939898Y-113716903D01*
X167805180Y-113515283D01*
X167633717Y-113343820D01*
X167432097Y-113209102D01*
X167208069Y-113116307D01*
X166970243Y-113069000D01*
X166727757Y-113069000D01*
X166489931Y-113116307D01*
X166265903Y-113209102D01*
X166064283Y-113343820D01*
X165892820Y-113515283D01*
X165758102Y-113716903D01*
X165665307Y-113940931D01*
X165618000Y-114178757D01*
X152840000Y-114178757D01*
X152792693Y-113940931D01*
X152699898Y-113716903D01*
X152565180Y-113515283D01*
X152393717Y-113343820D01*
X152192097Y-113209102D01*
X151968069Y-113116307D01*
X151730243Y-113069000D01*
X151487757Y-113069000D01*
X151249931Y-113116307D01*
X151025903Y-113209102D01*
X150824283Y-113343820D01*
X150652820Y-113515283D01*
X150518102Y-113716903D01*
X150425307Y-113940931D01*
X150378000Y-114178757D01*
X138545243Y-114178757D01*
X138545243Y-114110400D01*
X138537887Y-114035711D01*
X138516101Y-113963892D01*
X138480722Y-113897704D01*
X138433111Y-113839689D01*
X138375096Y-113792078D01*
X138308908Y-113756699D01*
X138237089Y-113734913D01*
X138162400Y-113727557D01*
X136462400Y-113727557D01*
X136387711Y-113734913D01*
X136315892Y-113756699D01*
X136249704Y-113792078D01*
X136191689Y-113839689D01*
X136144078Y-113897704D01*
X136108699Y-113963892D01*
X136086913Y-114035711D01*
X136079557Y-114110400D01*
X135663297Y-114110400D01*
X135557117Y-114004220D01*
X135355497Y-113869502D01*
X135131469Y-113776707D01*
X134893643Y-113729400D01*
X134651157Y-113729400D01*
X134413331Y-113776707D01*
X134189303Y-113869502D01*
X133987683Y-114004220D01*
X133816220Y-114175683D01*
X133681502Y-114377303D01*
X133588707Y-114601331D01*
X133541400Y-114839157D01*
X133463400Y-114839157D01*
X133416093Y-114601331D01*
X133323298Y-114377303D01*
X133188580Y-114175683D01*
X133017117Y-114004220D01*
X132815497Y-113869502D01*
X132591469Y-113776707D01*
X132353643Y-113729400D01*
X132111157Y-113729400D01*
X131873331Y-113776707D01*
X131649303Y-113869502D01*
X131447683Y-114004220D01*
X131276220Y-114175683D01*
X131141502Y-114377303D01*
X131048707Y-114601331D01*
X131001400Y-114839157D01*
X130923400Y-114839157D01*
X130876093Y-114601331D01*
X130783298Y-114377303D01*
X130648580Y-114175683D01*
X130477117Y-114004220D01*
X130275497Y-113869502D01*
X130051469Y-113776707D01*
X129813643Y-113729400D01*
X129571157Y-113729400D01*
X129333331Y-113776707D01*
X129109303Y-113869502D01*
X128907683Y-114004220D01*
X128736220Y-114175683D01*
X128601502Y-114377303D01*
X128508707Y-114601331D01*
X128461400Y-114839157D01*
X128383400Y-114839157D01*
X128336093Y-114601331D01*
X128243298Y-114377303D01*
X128108580Y-114175683D01*
X127937117Y-114004220D01*
X127735497Y-113869502D01*
X127511469Y-113776707D01*
X127273643Y-113729400D01*
X127031157Y-113729400D01*
X126793331Y-113776707D01*
X126569303Y-113869502D01*
X126367683Y-114004220D01*
X126196220Y-114175683D01*
X126061502Y-114377303D01*
X125968707Y-114601331D01*
X125921400Y-114839157D01*
X125843400Y-114839157D01*
X125796093Y-114601331D01*
X125703298Y-114377303D01*
X125568580Y-114175683D01*
X125397117Y-114004220D01*
X125195497Y-113869502D01*
X124971469Y-113776707D01*
X124733643Y-113729400D01*
X124491157Y-113729400D01*
X124253331Y-113776707D01*
X124029303Y-113869502D01*
X123827683Y-114004220D01*
X123656220Y-114175683D01*
X123521502Y-114377303D01*
X123428707Y-114601331D01*
X123381400Y-114839157D01*
X119734000Y-114839157D01*
X119734000Y-111638757D01*
X150378000Y-111638757D01*
X150378000Y-111881243D01*
X150425307Y-112119069D01*
X150518102Y-112343097D01*
X150652820Y-112544717D01*
X150824283Y-112716180D01*
X151025903Y-112850898D01*
X151249931Y-112943693D01*
X151487757Y-112991000D01*
X151730243Y-112991000D01*
X151968069Y-112943693D01*
X152192097Y-112850898D01*
X152393717Y-112716180D01*
X152565180Y-112544717D01*
X152699898Y-112343097D01*
X152792693Y-112119069D01*
X152840000Y-111881243D01*
X152840000Y-111638757D01*
X165618000Y-111638757D01*
X165618000Y-111881243D01*
X165665307Y-112119069D01*
X165758102Y-112343097D01*
X165892820Y-112544717D01*
X166064283Y-112716180D01*
X166265903Y-112850898D01*
X166489931Y-112943693D01*
X166727757Y-112991000D01*
X166970243Y-112991000D01*
X167208069Y-112943693D01*
X167432097Y-112850898D01*
X167633717Y-112716180D01*
X167805180Y-112544717D01*
X167939898Y-112343097D01*
X168032693Y-112119069D01*
X168080000Y-111881243D01*
X168080000Y-111638757D01*
X168032693Y-111400931D01*
X167939898Y-111176903D01*
X167805180Y-110975283D01*
X167633717Y-110803820D01*
X167432097Y-110669102D01*
X167208069Y-110576307D01*
X166970243Y-110529000D01*
X166727757Y-110529000D01*
X166489931Y-110576307D01*
X166265903Y-110669102D01*
X166064283Y-110803820D01*
X165892820Y-110975283D01*
X165758102Y-111176903D01*
X165665307Y-111400931D01*
X165618000Y-111638757D01*
X152840000Y-111638757D01*
X152792693Y-111400931D01*
X152699898Y-111176903D01*
X152565180Y-110975283D01*
X152393717Y-110803820D01*
X152192097Y-110669102D01*
X151968069Y-110576307D01*
X151730243Y-110529000D01*
X151487757Y-110529000D01*
X151249931Y-110576307D01*
X151025903Y-110669102D01*
X150824283Y-110803820D01*
X150652820Y-110975283D01*
X150518102Y-111176903D01*
X150425307Y-111400931D01*
X150378000Y-111638757D01*
X119734000Y-111638757D01*
X119734000Y-107828757D01*
X123356000Y-107828757D01*
X123356000Y-108071243D01*
X123403307Y-108309069D01*
X123496102Y-108533097D01*
X123630820Y-108734717D01*
X123802283Y-108906180D01*
X124003903Y-109040898D01*
X124227931Y-109133693D01*
X124465757Y-109181000D01*
X124708243Y-109181000D01*
X124946069Y-109133693D01*
X125170097Y-109040898D01*
X125371717Y-108906180D01*
X125543180Y-108734717D01*
X125677898Y-108533097D01*
X125770693Y-108309069D01*
X125818000Y-108071243D01*
X125818000Y-107828757D01*
X125896000Y-107828757D01*
X125896000Y-108071243D01*
X125943307Y-108309069D01*
X126036102Y-108533097D01*
X126170820Y-108734717D01*
X126342283Y-108906180D01*
X126543903Y-109040898D01*
X126767931Y-109133693D01*
X127005757Y-109181000D01*
X127248243Y-109181000D01*
X127486069Y-109133693D01*
X127710097Y-109040898D01*
X127911717Y-108906180D01*
X128048878Y-108769019D01*
X128066549Y-108802080D01*
X128070609Y-108807027D01*
X128116506Y-108862953D01*
X128116509Y-108862956D01*
X128133205Y-108883300D01*
X128153549Y-108899996D01*
X129174214Y-109920662D01*
X129190910Y-109941006D01*
X129272130Y-110007662D01*
X129364794Y-110057192D01*
X129465340Y-110087692D01*
X129543710Y-110095411D01*
X129543717Y-110095411D01*
X129569904Y-110097990D01*
X129596091Y-110095411D01*
X135648802Y-110095411D01*
X135674989Y-110097990D01*
X135701176Y-110095411D01*
X135701184Y-110095411D01*
X135779554Y-110087692D01*
X135880100Y-110057192D01*
X135972764Y-110007662D01*
X136053984Y-109941006D01*
X136070685Y-109920656D01*
X136808498Y-109182843D01*
X138137000Y-109182843D01*
X138211689Y-109175487D01*
X138283508Y-109153701D01*
X138349696Y-109118322D01*
X138373536Y-109098757D01*
X150378000Y-109098757D01*
X150378000Y-109341243D01*
X150425307Y-109579069D01*
X150518102Y-109803097D01*
X150652820Y-110004717D01*
X150824283Y-110176180D01*
X151025903Y-110310898D01*
X151249931Y-110403693D01*
X151487757Y-110451000D01*
X151730243Y-110451000D01*
X151968069Y-110403693D01*
X152192097Y-110310898D01*
X152393717Y-110176180D01*
X152565180Y-110004717D01*
X152699898Y-109803097D01*
X152792693Y-109579069D01*
X152840000Y-109341243D01*
X152840000Y-109098757D01*
X165618000Y-109098757D01*
X165618000Y-109341243D01*
X165665307Y-109579069D01*
X165758102Y-109803097D01*
X165892820Y-110004717D01*
X166064283Y-110176180D01*
X166265903Y-110310898D01*
X166489931Y-110403693D01*
X166727757Y-110451000D01*
X166970243Y-110451000D01*
X167208069Y-110403693D01*
X167432097Y-110310898D01*
X167633717Y-110176180D01*
X167805180Y-110004717D01*
X167939898Y-109803097D01*
X168032693Y-109579069D01*
X168080000Y-109341243D01*
X168080000Y-109098757D01*
X168032693Y-108860931D01*
X167939898Y-108636903D01*
X167805180Y-108435283D01*
X167633717Y-108263820D01*
X167432097Y-108129102D01*
X167208069Y-108036307D01*
X166970243Y-107989000D01*
X166727757Y-107989000D01*
X166489931Y-108036307D01*
X166265903Y-108129102D01*
X166064283Y-108263820D01*
X165892820Y-108435283D01*
X165758102Y-108636903D01*
X165665307Y-108860931D01*
X165618000Y-109098757D01*
X152840000Y-109098757D01*
X152792693Y-108860931D01*
X152699898Y-108636903D01*
X152565180Y-108435283D01*
X152393717Y-108263820D01*
X152192097Y-108129102D01*
X151968069Y-108036307D01*
X151730243Y-107989000D01*
X151487757Y-107989000D01*
X151249931Y-108036307D01*
X151025903Y-108129102D01*
X150824283Y-108263820D01*
X150652820Y-108435283D01*
X150518102Y-108636903D01*
X150425307Y-108860931D01*
X150378000Y-109098757D01*
X138373536Y-109098757D01*
X138407711Y-109070711D01*
X138455322Y-109012696D01*
X138490701Y-108946508D01*
X138512487Y-108874689D01*
X138519843Y-108800000D01*
X138519843Y-107100000D01*
X138512487Y-107025311D01*
X138490701Y-106953492D01*
X138455322Y-106887304D01*
X138407711Y-106829289D01*
X138349696Y-106781678D01*
X138283508Y-106746299D01*
X138211689Y-106724513D01*
X138137000Y-106717157D01*
X136437000Y-106717157D01*
X136362311Y-106724513D01*
X136290492Y-106746299D01*
X136224304Y-106781678D01*
X136166289Y-106829289D01*
X136118678Y-106887304D01*
X136083299Y-106953492D01*
X136061513Y-107025311D01*
X136054157Y-107100000D01*
X136054157Y-108428502D01*
X135454048Y-109028611D01*
X135348486Y-109028611D01*
X135531717Y-108906180D01*
X135703180Y-108734717D01*
X135837898Y-108533097D01*
X135930693Y-108309069D01*
X135978000Y-108071243D01*
X135978000Y-107828757D01*
X135930693Y-107590931D01*
X135837898Y-107366903D01*
X135703180Y-107165283D01*
X135531717Y-106993820D01*
X135330097Y-106859102D01*
X135106069Y-106766307D01*
X134868243Y-106719000D01*
X134625757Y-106719000D01*
X134387931Y-106766307D01*
X134163903Y-106859102D01*
X133962283Y-106993820D01*
X133790820Y-107165283D01*
X133656102Y-107366903D01*
X133563307Y-107590931D01*
X133516000Y-107828757D01*
X133516000Y-108071243D01*
X133563307Y-108309069D01*
X133583892Y-108358766D01*
X133371258Y-108571401D01*
X133272304Y-108571401D01*
X133297898Y-108533097D01*
X133390693Y-108309069D01*
X133438000Y-108071243D01*
X133438000Y-107828757D01*
X133390693Y-107590931D01*
X133370108Y-107541233D01*
X134352584Y-106558757D01*
X150378000Y-106558757D01*
X150378000Y-106801243D01*
X150425307Y-107039069D01*
X150518102Y-107263097D01*
X150652820Y-107464717D01*
X150824283Y-107636180D01*
X151025903Y-107770898D01*
X151249931Y-107863693D01*
X151487757Y-107911000D01*
X151730243Y-107911000D01*
X151968069Y-107863693D01*
X152192097Y-107770898D01*
X152393717Y-107636180D01*
X152565180Y-107464717D01*
X152699898Y-107263097D01*
X152792693Y-107039069D01*
X152840000Y-106801243D01*
X152840000Y-106558757D01*
X165618000Y-106558757D01*
X165618000Y-106801243D01*
X165665307Y-107039069D01*
X165758102Y-107263097D01*
X165892820Y-107464717D01*
X166064283Y-107636180D01*
X166265903Y-107770898D01*
X166489931Y-107863693D01*
X166727757Y-107911000D01*
X166970243Y-107911000D01*
X167208069Y-107863693D01*
X167432097Y-107770898D01*
X167633717Y-107636180D01*
X167805180Y-107464717D01*
X167939898Y-107263097D01*
X168032693Y-107039069D01*
X168080000Y-106801243D01*
X168080000Y-106558757D01*
X168032693Y-106320931D01*
X167939898Y-106096903D01*
X167805180Y-105895283D01*
X167633717Y-105723820D01*
X167432097Y-105589102D01*
X167208069Y-105496307D01*
X166970243Y-105449000D01*
X166727757Y-105449000D01*
X166489931Y-105496307D01*
X166265903Y-105589102D01*
X166064283Y-105723820D01*
X165892820Y-105895283D01*
X165758102Y-106096903D01*
X165665307Y-106320931D01*
X165618000Y-106558757D01*
X152840000Y-106558757D01*
X152792693Y-106320931D01*
X152699898Y-106096903D01*
X152565180Y-105895283D01*
X152393717Y-105723820D01*
X152192097Y-105589102D01*
X151968069Y-105496307D01*
X151730243Y-105449000D01*
X151487757Y-105449000D01*
X151249931Y-105496307D01*
X151025903Y-105589102D01*
X150824283Y-105723820D01*
X150652820Y-105895283D01*
X150518102Y-106096903D01*
X150425307Y-106320931D01*
X150378000Y-106558757D01*
X134352584Y-106558757D01*
X136892584Y-104018757D01*
X150378000Y-104018757D01*
X150378000Y-104261243D01*
X150425307Y-104499069D01*
X150518102Y-104723097D01*
X150652820Y-104924717D01*
X150824283Y-105096180D01*
X151025903Y-105230898D01*
X151249931Y-105323693D01*
X151487757Y-105371000D01*
X151730243Y-105371000D01*
X151968069Y-105323693D01*
X152192097Y-105230898D01*
X152393717Y-105096180D01*
X152565180Y-104924717D01*
X152699898Y-104723097D01*
X152792693Y-104499069D01*
X152840000Y-104261243D01*
X152840000Y-104018757D01*
X165618000Y-104018757D01*
X165618000Y-104261243D01*
X165665307Y-104499069D01*
X165758102Y-104723097D01*
X165892820Y-104924717D01*
X166064283Y-105096180D01*
X166265903Y-105230898D01*
X166489931Y-105323693D01*
X166727757Y-105371000D01*
X166970243Y-105371000D01*
X167208069Y-105323693D01*
X167432097Y-105230898D01*
X167633717Y-105096180D01*
X167805180Y-104924717D01*
X167939898Y-104723097D01*
X168032693Y-104499069D01*
X168080000Y-104261243D01*
X168080000Y-104018757D01*
X168032693Y-103780931D01*
X167939898Y-103556903D01*
X167805180Y-103355283D01*
X167633717Y-103183820D01*
X167432097Y-103049102D01*
X167208069Y-102956307D01*
X166970243Y-102909000D01*
X166727757Y-102909000D01*
X166489931Y-102956307D01*
X166265903Y-103049102D01*
X166064283Y-103183820D01*
X165892820Y-103355283D01*
X165758102Y-103556903D01*
X165665307Y-103780931D01*
X165618000Y-104018757D01*
X152840000Y-104018757D01*
X152792693Y-103780931D01*
X152699898Y-103556903D01*
X152565180Y-103355283D01*
X152393717Y-103183820D01*
X152192097Y-103049102D01*
X151968069Y-102956307D01*
X151730243Y-102909000D01*
X151487757Y-102909000D01*
X151249931Y-102956307D01*
X151025903Y-103049102D01*
X150824283Y-103183820D01*
X150652820Y-103355283D01*
X150518102Y-103556903D01*
X150425307Y-103780931D01*
X150378000Y-104018757D01*
X136892584Y-104018757D01*
X139432584Y-101478757D01*
X150378000Y-101478757D01*
X150378000Y-101721243D01*
X150425307Y-101959069D01*
X150518102Y-102183097D01*
X150652820Y-102384717D01*
X150824283Y-102556180D01*
X151025903Y-102690898D01*
X151249931Y-102783693D01*
X151487757Y-102831000D01*
X151730243Y-102831000D01*
X151968069Y-102783693D01*
X152192097Y-102690898D01*
X152393717Y-102556180D01*
X152565180Y-102384717D01*
X152699898Y-102183097D01*
X152792693Y-101959069D01*
X152840000Y-101721243D01*
X152840000Y-101478757D01*
X165618000Y-101478757D01*
X165618000Y-101721243D01*
X165665307Y-101959069D01*
X165758102Y-102183097D01*
X165892820Y-102384717D01*
X166064283Y-102556180D01*
X166265903Y-102690898D01*
X166489931Y-102783693D01*
X166727757Y-102831000D01*
X166970243Y-102831000D01*
X167208069Y-102783693D01*
X167432097Y-102690898D01*
X167633717Y-102556180D01*
X167805180Y-102384717D01*
X167939898Y-102183097D01*
X168032693Y-101959069D01*
X168080000Y-101721243D01*
X168080000Y-101478757D01*
X168032693Y-101240931D01*
X167939898Y-101016903D01*
X167805180Y-100815283D01*
X167633717Y-100643820D01*
X167432097Y-100509102D01*
X167208069Y-100416307D01*
X166970243Y-100369000D01*
X166727757Y-100369000D01*
X166489931Y-100416307D01*
X166265903Y-100509102D01*
X166064283Y-100643820D01*
X165892820Y-100815283D01*
X165758102Y-101016903D01*
X165665307Y-101240931D01*
X165618000Y-101478757D01*
X152840000Y-101478757D01*
X152792693Y-101240931D01*
X152699898Y-101016903D01*
X152565180Y-100815283D01*
X152393717Y-100643820D01*
X152192097Y-100509102D01*
X151968069Y-100416307D01*
X151730243Y-100369000D01*
X151487757Y-100369000D01*
X151249931Y-100416307D01*
X151025903Y-100509102D01*
X150824283Y-100643820D01*
X150652820Y-100815283D01*
X150518102Y-101016903D01*
X150425307Y-101240931D01*
X150378000Y-101478757D01*
X139432584Y-101478757D01*
X141972584Y-98938757D01*
X150378000Y-98938757D01*
X150378000Y-99181243D01*
X150425307Y-99419069D01*
X150518102Y-99643097D01*
X150652820Y-99844717D01*
X150824283Y-100016180D01*
X151025903Y-100150898D01*
X151249931Y-100243693D01*
X151487757Y-100291000D01*
X151730243Y-100291000D01*
X151968069Y-100243693D01*
X152192097Y-100150898D01*
X152393717Y-100016180D01*
X152565180Y-99844717D01*
X152699898Y-99643097D01*
X152792693Y-99419069D01*
X152840000Y-99181243D01*
X152840000Y-98938757D01*
X165618000Y-98938757D01*
X165618000Y-99181243D01*
X165665307Y-99419069D01*
X165758102Y-99643097D01*
X165892820Y-99844717D01*
X166064283Y-100016180D01*
X166265903Y-100150898D01*
X166489931Y-100243693D01*
X166727757Y-100291000D01*
X166970243Y-100291000D01*
X167208069Y-100243693D01*
X167432097Y-100150898D01*
X167633717Y-100016180D01*
X167805180Y-99844717D01*
X167939898Y-99643097D01*
X168032693Y-99419069D01*
X168080000Y-99181243D01*
X168080000Y-98938757D01*
X168032693Y-98700931D01*
X167939898Y-98476903D01*
X167805180Y-98275283D01*
X167633717Y-98103820D01*
X167432097Y-97969102D01*
X167208069Y-97876307D01*
X166970243Y-97829000D01*
X166727757Y-97829000D01*
X166489931Y-97876307D01*
X166265903Y-97969102D01*
X166064283Y-98103820D01*
X165892820Y-98275283D01*
X165758102Y-98476903D01*
X165665307Y-98700931D01*
X165618000Y-98938757D01*
X152840000Y-98938757D01*
X152792693Y-98700931D01*
X152699898Y-98476903D01*
X152565180Y-98275283D01*
X152393717Y-98103820D01*
X152192097Y-97969102D01*
X151968069Y-97876307D01*
X151730243Y-97829000D01*
X151487757Y-97829000D01*
X151249931Y-97876307D01*
X151025903Y-97969102D01*
X150824283Y-98103820D01*
X150652820Y-98275283D01*
X150518102Y-98476903D01*
X150425307Y-98700931D01*
X150378000Y-98938757D01*
X141972584Y-98938757D01*
X144512584Y-96398757D01*
X150378000Y-96398757D01*
X150378000Y-96641243D01*
X150425307Y-96879069D01*
X150518102Y-97103097D01*
X150652820Y-97304717D01*
X150824283Y-97476180D01*
X151025903Y-97610898D01*
X151249931Y-97703693D01*
X151487757Y-97751000D01*
X151730243Y-97751000D01*
X151968069Y-97703693D01*
X152192097Y-97610898D01*
X152393717Y-97476180D01*
X152565180Y-97304717D01*
X152699898Y-97103097D01*
X152792693Y-96879069D01*
X152840000Y-96641243D01*
X152840000Y-96398757D01*
X165618000Y-96398757D01*
X165618000Y-96641243D01*
X165665307Y-96879069D01*
X165758102Y-97103097D01*
X165892820Y-97304717D01*
X166064283Y-97476180D01*
X166265903Y-97610898D01*
X166489931Y-97703693D01*
X166727757Y-97751000D01*
X166970243Y-97751000D01*
X167208069Y-97703693D01*
X167432097Y-97610898D01*
X167633717Y-97476180D01*
X167805180Y-97304717D01*
X167939898Y-97103097D01*
X168032693Y-96879069D01*
X168080000Y-96641243D01*
X168080000Y-96398757D01*
X168032693Y-96160931D01*
X167939898Y-95936903D01*
X167805180Y-95735283D01*
X167633717Y-95563820D01*
X167432097Y-95429102D01*
X167208069Y-95336307D01*
X166970243Y-95289000D01*
X166727757Y-95289000D01*
X166489931Y-95336307D01*
X166265903Y-95429102D01*
X166064283Y-95563820D01*
X165892820Y-95735283D01*
X165758102Y-95936903D01*
X165665307Y-96160931D01*
X165618000Y-96398757D01*
X152840000Y-96398757D01*
X152792693Y-96160931D01*
X152699898Y-95936903D01*
X152565180Y-95735283D01*
X152393717Y-95563820D01*
X152192097Y-95429102D01*
X151968069Y-95336307D01*
X151730243Y-95289000D01*
X151487757Y-95289000D01*
X151249931Y-95336307D01*
X151025903Y-95429102D01*
X150824283Y-95563820D01*
X150652820Y-95735283D01*
X150518102Y-95936903D01*
X150425307Y-96160931D01*
X150378000Y-96398757D01*
X144512584Y-96398757D01*
X146726151Y-94185191D01*
X146746495Y-94168495D01*
X146813151Y-94087275D01*
X146862681Y-93994611D01*
X146893181Y-93894065D01*
X146900900Y-93815695D01*
X146900900Y-93815688D01*
X146903479Y-93789501D01*
X146900900Y-93763314D01*
X146900900Y-93130000D01*
X150376157Y-93130000D01*
X150376157Y-94830000D01*
X150383513Y-94904689D01*
X150405299Y-94976508D01*
X150440678Y-95042696D01*
X150488289Y-95100711D01*
X150546304Y-95148322D01*
X150612492Y-95183701D01*
X150684311Y-95205487D01*
X150759000Y-95212843D01*
X152459000Y-95212843D01*
X152533689Y-95205487D01*
X152605508Y-95183701D01*
X152671696Y-95148322D01*
X152729711Y-95100711D01*
X152777322Y-95042696D01*
X152812701Y-94976508D01*
X152834487Y-94904689D01*
X152841843Y-94830000D01*
X152841843Y-93130000D01*
X165616157Y-93130000D01*
X165616157Y-94830000D01*
X165623513Y-94904689D01*
X165645299Y-94976508D01*
X165680678Y-95042696D01*
X165728289Y-95100711D01*
X165786304Y-95148322D01*
X165852492Y-95183701D01*
X165924311Y-95205487D01*
X165999000Y-95212843D01*
X167699000Y-95212843D01*
X167773689Y-95205487D01*
X167845508Y-95183701D01*
X167911696Y-95148322D01*
X167969711Y-95100711D01*
X168017322Y-95042696D01*
X168052701Y-94976508D01*
X168074487Y-94904689D01*
X168081843Y-94830000D01*
X168081843Y-93130000D01*
X168074487Y-93055311D01*
X168052701Y-92983492D01*
X168017322Y-92917304D01*
X167969711Y-92859289D01*
X167911696Y-92811678D01*
X167845508Y-92776299D01*
X167773689Y-92754513D01*
X167699000Y-92747157D01*
X165999000Y-92747157D01*
X165924311Y-92754513D01*
X165852492Y-92776299D01*
X165786304Y-92811678D01*
X165728289Y-92859289D01*
X165680678Y-92917304D01*
X165645299Y-92983492D01*
X165623513Y-93055311D01*
X165616157Y-93130000D01*
X152841843Y-93130000D01*
X152834487Y-93055311D01*
X152812701Y-92983492D01*
X152777322Y-92917304D01*
X152729711Y-92859289D01*
X152671696Y-92811678D01*
X152605508Y-92776299D01*
X152533689Y-92754513D01*
X152459000Y-92747157D01*
X150759000Y-92747157D01*
X150684311Y-92754513D01*
X150612492Y-92776299D01*
X150546304Y-92811678D01*
X150488289Y-92859289D01*
X150440678Y-92917304D01*
X150405299Y-92983492D01*
X150383513Y-93055311D01*
X150376157Y-93130000D01*
X146900900Y-93130000D01*
X146900900Y-91025941D01*
X149446405Y-88480436D01*
X152530000Y-88480436D01*
X152530000Y-88811564D01*
X152594600Y-89136330D01*
X152721317Y-89442252D01*
X152905282Y-89717575D01*
X153139425Y-89951718D01*
X153414748Y-90135683D01*
X153720670Y-90262400D01*
X154045436Y-90327000D01*
X154376564Y-90327000D01*
X154701330Y-90262400D01*
X155007252Y-90135683D01*
X155282575Y-89951718D01*
X155516718Y-89717575D01*
X155700683Y-89442252D01*
X155827400Y-89136330D01*
X155892000Y-88811564D01*
X155892000Y-88480436D01*
X155827400Y-88155670D01*
X155700683Y-87849748D01*
X155516718Y-87574425D01*
X155282575Y-87340282D01*
X155007252Y-87156317D01*
X154701330Y-87029600D01*
X154376564Y-86965000D01*
X154045436Y-86965000D01*
X153720670Y-87029600D01*
X153414748Y-87156317D01*
X153139425Y-87340282D01*
X152905282Y-87574425D01*
X152721317Y-87849748D01*
X152594600Y-88155670D01*
X152530000Y-88480436D01*
X149446405Y-88480436D01*
X154162651Y-83764191D01*
X154182995Y-83747495D01*
X154249651Y-83666275D01*
X154299181Y-83573611D01*
X154329681Y-83473065D01*
X154337400Y-83394695D01*
X154337400Y-83394688D01*
X154339979Y-83368501D01*
X154337400Y-83342314D01*
X154337400Y-78232258D01*
X154341717Y-78237112D01*
X154505840Y-78361255D01*
X154691028Y-78450994D01*
X154767877Y-78460666D01*
X154927000Y-78332998D01*
X154927000Y-77343000D01*
X154907000Y-77343000D01*
X154907000Y-77089000D01*
X154927000Y-77089000D01*
X154927000Y-76099002D01*
X155181000Y-76099002D01*
X155181000Y-77089000D01*
X155201000Y-77089000D01*
X155201000Y-77343000D01*
X155181000Y-77343000D01*
X155181000Y-78332998D01*
X155340123Y-78460666D01*
X155416972Y-78450994D01*
X155602160Y-78361255D01*
X155766283Y-78237112D01*
X155770600Y-78232257D01*
X155770601Y-85712803D01*
X155768021Y-85739000D01*
X155778319Y-85843564D01*
X155808819Y-85944110D01*
X155808820Y-85944111D01*
X155858350Y-86036775D01*
X155885674Y-86070069D01*
X155908307Y-86097648D01*
X155908310Y-86097651D01*
X155925006Y-86117995D01*
X155945350Y-86134691D01*
X157703477Y-87892818D01*
X157594600Y-88155670D01*
X157530000Y-88480436D01*
X157530000Y-88811564D01*
X157594600Y-89136330D01*
X157721317Y-89442252D01*
X157905282Y-89717575D01*
X158139425Y-89951718D01*
X158414748Y-90135683D01*
X158720670Y-90262400D01*
X159045436Y-90327000D01*
X159376564Y-90327000D01*
X159701330Y-90262400D01*
X160007252Y-90135683D01*
X160282575Y-89951718D01*
X160516718Y-89717575D01*
X160700683Y-89442252D01*
X160827400Y-89136330D01*
X160892000Y-88811564D01*
X160892000Y-88480436D01*
X160827400Y-88155670D01*
X160700683Y-87849748D01*
X160516718Y-87574425D01*
X160282575Y-87340282D01*
X160007252Y-87156317D01*
X159701330Y-87029600D01*
X159376564Y-86965000D01*
X159045436Y-86965000D01*
X158720670Y-87029600D01*
X158457818Y-87138477D01*
X156837400Y-85518059D01*
X156837400Y-78038585D01*
X156858922Y-78020922D01*
X156929000Y-77935531D01*
X156999079Y-78020922D01*
X157118002Y-78118519D01*
X157253679Y-78191040D01*
X157400898Y-78235699D01*
X157554000Y-78250778D01*
X157707103Y-78235699D01*
X157854322Y-78191040D01*
X157989999Y-78118519D01*
X158108922Y-78020922D01*
X158206519Y-77901999D01*
X158279040Y-77766322D01*
X158323699Y-77619103D01*
X158335000Y-77504360D01*
X158335000Y-76927640D01*
X158323699Y-76812897D01*
X158279040Y-76665678D01*
X158206519Y-76530001D01*
X158108922Y-76411078D01*
X157989998Y-76313481D01*
X157854321Y-76240960D01*
X157707102Y-76196301D01*
X157554000Y-76181222D01*
X157400897Y-76196301D01*
X157253678Y-76240960D01*
X157118001Y-76313481D01*
X156999078Y-76411078D01*
X156929000Y-76496469D01*
X156858922Y-76411078D01*
X156739998Y-76313481D01*
X156604321Y-76240960D01*
X156457102Y-76196301D01*
X156304000Y-76181222D01*
X156150897Y-76196301D01*
X156003678Y-76240960D01*
X155870539Y-76312124D01*
X155766283Y-76194888D01*
X155602160Y-76070745D01*
X155416972Y-75981006D01*
X155340123Y-75971334D01*
X155181000Y-76099002D01*
X154927000Y-76099002D01*
X154767877Y-75971334D01*
X154691028Y-75981006D01*
X154505840Y-76070745D01*
X154341717Y-76194888D01*
X154237461Y-76312125D01*
X154104321Y-76240960D01*
X153957102Y-76196301D01*
X153804000Y-76181222D01*
X153650897Y-76196301D01*
X153503678Y-76240960D01*
X153368001Y-76313481D01*
X153249078Y-76411078D01*
X153179000Y-76496469D01*
X153108922Y-76411078D01*
X152989998Y-76313481D01*
X152854321Y-76240960D01*
X152707102Y-76196301D01*
X152554000Y-76181222D01*
X152400897Y-76196301D01*
X152253678Y-76240960D01*
X152118001Y-76313481D01*
X151999078Y-76411078D01*
X151929000Y-76496469D01*
X151858922Y-76411078D01*
X151739998Y-76313481D01*
X151604321Y-76240960D01*
X151457102Y-76196301D01*
X151304000Y-76181222D01*
X151150897Y-76196301D01*
X151003678Y-76240960D01*
X150868001Y-76313481D01*
X150749078Y-76411078D01*
X150679000Y-76496469D01*
X150608922Y-76411078D01*
X150489998Y-76313481D01*
X150354321Y-76240960D01*
X150207102Y-76196301D01*
X150054000Y-76181222D01*
X149900897Y-76196301D01*
X149753678Y-76240960D01*
X149618001Y-76313481D01*
X149499078Y-76411078D01*
X149429000Y-76496469D01*
X149358922Y-76411078D01*
X149239998Y-76313481D01*
X149221010Y-76303332D01*
X149616442Y-75907900D01*
X162974059Y-75907900D01*
X163677600Y-76611442D01*
X163677601Y-86963157D01*
X162911000Y-86963157D01*
X162836311Y-86970513D01*
X162764492Y-86992299D01*
X162698304Y-87027678D01*
X162640289Y-87075289D01*
X162592678Y-87133304D01*
X162557299Y-87199492D01*
X162535513Y-87271311D01*
X162528157Y-87346000D01*
X162528157Y-89946000D01*
X162535513Y-90020689D01*
X162557299Y-90092508D01*
X162592678Y-90158696D01*
X162640289Y-90216711D01*
X162698304Y-90264322D01*
X162764492Y-90299701D01*
X162836311Y-90321487D01*
X162911000Y-90328843D01*
X165511000Y-90328843D01*
X165585689Y-90321487D01*
X165657508Y-90299701D01*
X165723696Y-90264322D01*
X165781711Y-90216711D01*
X165829322Y-90158696D01*
X165864701Y-90092508D01*
X165886487Y-90020689D01*
X165893843Y-89946000D01*
X165893843Y-87346000D01*
X165886487Y-87271311D01*
X165864701Y-87199492D01*
X165829322Y-87133304D01*
X165781711Y-87075289D01*
X165723696Y-87027678D01*
X165657508Y-86992299D01*
X165585689Y-86970513D01*
X165511000Y-86963157D01*
X164744400Y-86963157D01*
X164744400Y-76416687D01*
X164746979Y-76390500D01*
X164744400Y-76364313D01*
X164744400Y-76364305D01*
X164736681Y-76285935D01*
X164706181Y-76185389D01*
X164656651Y-76092725D01*
X164589995Y-76011505D01*
X164569651Y-75994809D01*
X163590695Y-75015854D01*
X163573995Y-74995505D01*
X163492775Y-74928849D01*
X163400111Y-74879319D01*
X163299565Y-74848819D01*
X163221195Y-74841100D01*
X163221187Y-74841100D01*
X163195000Y-74838521D01*
X163168813Y-74841100D01*
X149421686Y-74841100D01*
X149395499Y-74838521D01*
X149369312Y-74841100D01*
X149369305Y-74841100D01*
X149290935Y-74848819D01*
X149190389Y-74879319D01*
X149097725Y-74928849D01*
X149016505Y-74995505D01*
X148999809Y-75015849D01*
X147793231Y-76222428D01*
X147707102Y-76196301D01*
X147554000Y-76181222D01*
X147400897Y-76196301D01*
X147253678Y-76240960D01*
X147118001Y-76313481D01*
X146999078Y-76411078D01*
X146981081Y-76433008D01*
X146916132Y-76353868D01*
X146827810Y-76281384D01*
X146727044Y-76227523D01*
X146617707Y-76194356D01*
X146504000Y-76183157D01*
X146104000Y-76183157D01*
X145990293Y-76194356D01*
X145880956Y-76227523D01*
X145780190Y-76281384D01*
X145691868Y-76353868D01*
X145619384Y-76442190D01*
X145565523Y-76542956D01*
X145532356Y-76652293D01*
X145521157Y-76766000D01*
X145521157Y-77666000D01*
X145532356Y-77779707D01*
X145565523Y-77889044D01*
X145619384Y-77989810D01*
X145691868Y-78078132D01*
X145780190Y-78150616D01*
X145880956Y-78204477D01*
X145990293Y-78237644D01*
X146104000Y-78248843D01*
X146504000Y-78248843D01*
X146617707Y-78237644D01*
X146727044Y-78204477D01*
X146827810Y-78150616D01*
X146916132Y-78078132D01*
X146981081Y-77998991D01*
X146999079Y-78020922D01*
X147118002Y-78118519D01*
X147253679Y-78191040D01*
X147400898Y-78235699D01*
X147554000Y-78250778D01*
X147707103Y-78235699D01*
X147854322Y-78191040D01*
X147989999Y-78118519D01*
X148108922Y-78020922D01*
X148179000Y-77935531D01*
X148249079Y-78020922D01*
X148368002Y-78118519D01*
X148503679Y-78191040D01*
X148650898Y-78235699D01*
X148804000Y-78250778D01*
X148957103Y-78235699D01*
X149104322Y-78191040D01*
X149239999Y-78118519D01*
X149358922Y-78020922D01*
X149429000Y-77935531D01*
X149499079Y-78020922D01*
X149618002Y-78118519D01*
X149753679Y-78191040D01*
X149900898Y-78235699D01*
X150054000Y-78250778D01*
X150207103Y-78235699D01*
X150354322Y-78191040D01*
X150489999Y-78118519D01*
X150608922Y-78020922D01*
X150679000Y-77935531D01*
X150749079Y-78020922D01*
X150770600Y-78038584D01*
X150770601Y-84354373D01*
X145094435Y-90030540D01*
X145074085Y-90047241D01*
X145007429Y-90128461D01*
X144957899Y-90221126D01*
X144927399Y-90321672D01*
X144919680Y-90400042D01*
X144919680Y-90400049D01*
X144917101Y-90426236D01*
X144919680Y-90452423D01*
X144919681Y-93189794D01*
X132304886Y-105804589D01*
X129596108Y-105804591D01*
X129569904Y-105802010D01*
X129465340Y-105812309D01*
X129364793Y-105842809D01*
X129272130Y-105892339D01*
X129211256Y-105942297D01*
X129211253Y-105942300D01*
X129190909Y-105958996D01*
X129174213Y-105979340D01*
X128153554Y-106999999D01*
X128133204Y-107016700D01*
X128066548Y-107097920D01*
X128048877Y-107130980D01*
X127911717Y-106993820D01*
X127710097Y-106859102D01*
X127486069Y-106766307D01*
X127248243Y-106719000D01*
X127005757Y-106719000D01*
X126767931Y-106766307D01*
X126543903Y-106859102D01*
X126342283Y-106993820D01*
X126170820Y-107165283D01*
X126036102Y-107366903D01*
X125943307Y-107590931D01*
X125896000Y-107828757D01*
X125818000Y-107828757D01*
X125770693Y-107590931D01*
X125677898Y-107366903D01*
X125543180Y-107165283D01*
X125371717Y-106993820D01*
X125170097Y-106859102D01*
X124946069Y-106766307D01*
X124708243Y-106719000D01*
X124465757Y-106719000D01*
X124227931Y-106766307D01*
X124003903Y-106859102D01*
X123802283Y-106993820D01*
X123630820Y-107165283D01*
X123496102Y-107366903D01*
X123403307Y-107590931D01*
X123356000Y-107828757D01*
X119734000Y-107828757D01*
X119734000Y-95128757D01*
X123356000Y-95128757D01*
X123356000Y-95371243D01*
X123403307Y-95609069D01*
X123496102Y-95833097D01*
X123630820Y-96034717D01*
X123802283Y-96206180D01*
X124003903Y-96340898D01*
X124227931Y-96433693D01*
X124465757Y-96481000D01*
X124708243Y-96481000D01*
X124946069Y-96433693D01*
X125170097Y-96340898D01*
X125371717Y-96206180D01*
X125543180Y-96034717D01*
X125677898Y-95833097D01*
X125770693Y-95609069D01*
X125818000Y-95371243D01*
X125818000Y-95128757D01*
X125896000Y-95128757D01*
X125896000Y-95371243D01*
X125943307Y-95609069D01*
X126036102Y-95833097D01*
X126170820Y-96034717D01*
X126342283Y-96206180D01*
X126543903Y-96340898D01*
X126767931Y-96433693D01*
X127005757Y-96481000D01*
X127248243Y-96481000D01*
X127486069Y-96433693D01*
X127710097Y-96340898D01*
X127911717Y-96206180D01*
X128083180Y-96034717D01*
X128217898Y-95833097D01*
X128310693Y-95609069D01*
X128358000Y-95371243D01*
X128358000Y-95128757D01*
X128436000Y-95128757D01*
X128436000Y-95371243D01*
X128483307Y-95609069D01*
X128576102Y-95833097D01*
X128710820Y-96034717D01*
X128882283Y-96206180D01*
X129083903Y-96340898D01*
X129307931Y-96433693D01*
X129545757Y-96481000D01*
X129788243Y-96481000D01*
X130026069Y-96433693D01*
X130250097Y-96340898D01*
X130451717Y-96206180D01*
X130623180Y-96034717D01*
X130757898Y-95833097D01*
X130850693Y-95609069D01*
X130898000Y-95371243D01*
X130898000Y-95128757D01*
X130976000Y-95128757D01*
X130976000Y-95371243D01*
X131023307Y-95609069D01*
X131116102Y-95833097D01*
X131250820Y-96034717D01*
X131422283Y-96206180D01*
X131623903Y-96340898D01*
X131847931Y-96433693D01*
X132085757Y-96481000D01*
X132328243Y-96481000D01*
X132566069Y-96433693D01*
X132790097Y-96340898D01*
X132991717Y-96206180D01*
X133163180Y-96034717D01*
X133297898Y-95833097D01*
X133390693Y-95609069D01*
X133438000Y-95371243D01*
X133438000Y-95128757D01*
X133516000Y-95128757D01*
X133516000Y-95371243D01*
X133563307Y-95609069D01*
X133656102Y-95833097D01*
X133790820Y-96034717D01*
X133962283Y-96206180D01*
X134163903Y-96340898D01*
X134387931Y-96433693D01*
X134625757Y-96481000D01*
X134868243Y-96481000D01*
X135106069Y-96433693D01*
X135330097Y-96340898D01*
X135531717Y-96206180D01*
X135703180Y-96034717D01*
X135837898Y-95833097D01*
X135930693Y-95609069D01*
X135978000Y-95371243D01*
X135978000Y-95128757D01*
X135930693Y-94890931D01*
X135837898Y-94666903D01*
X135703180Y-94465283D01*
X135637897Y-94400000D01*
X136054157Y-94400000D01*
X136054157Y-96100000D01*
X136061513Y-96174689D01*
X136083299Y-96246508D01*
X136118678Y-96312696D01*
X136166289Y-96370711D01*
X136224304Y-96418322D01*
X136290492Y-96453701D01*
X136362311Y-96475487D01*
X136437000Y-96482843D01*
X138137000Y-96482843D01*
X138211689Y-96475487D01*
X138283508Y-96453701D01*
X138349696Y-96418322D01*
X138407711Y-96370711D01*
X138455322Y-96312696D01*
X138490701Y-96246508D01*
X138512487Y-96174689D01*
X138519843Y-96100000D01*
X138519843Y-94400000D01*
X138512487Y-94325311D01*
X138490701Y-94253492D01*
X138455322Y-94187304D01*
X138407711Y-94129289D01*
X138349696Y-94081678D01*
X138283508Y-94046299D01*
X138211689Y-94024513D01*
X138137000Y-94017157D01*
X136437000Y-94017157D01*
X136362311Y-94024513D01*
X136290492Y-94046299D01*
X136224304Y-94081678D01*
X136166289Y-94129289D01*
X136118678Y-94187304D01*
X136083299Y-94253492D01*
X136061513Y-94325311D01*
X136054157Y-94400000D01*
X135637897Y-94400000D01*
X135531717Y-94293820D01*
X135330097Y-94159102D01*
X135106069Y-94066307D01*
X134868243Y-94019000D01*
X134625757Y-94019000D01*
X134387931Y-94066307D01*
X134163903Y-94159102D01*
X133962283Y-94293820D01*
X133790820Y-94465283D01*
X133656102Y-94666903D01*
X133563307Y-94890931D01*
X133516000Y-95128757D01*
X133438000Y-95128757D01*
X133390693Y-94890931D01*
X133297898Y-94666903D01*
X133163180Y-94465283D01*
X132991717Y-94293820D01*
X132790097Y-94159102D01*
X132566069Y-94066307D01*
X132328243Y-94019000D01*
X132085757Y-94019000D01*
X131847931Y-94066307D01*
X131623903Y-94159102D01*
X131422283Y-94293820D01*
X131250820Y-94465283D01*
X131116102Y-94666903D01*
X131023307Y-94890931D01*
X130976000Y-95128757D01*
X130898000Y-95128757D01*
X130850693Y-94890931D01*
X130757898Y-94666903D01*
X130623180Y-94465283D01*
X130451717Y-94293820D01*
X130250097Y-94159102D01*
X130026069Y-94066307D01*
X129788243Y-94019000D01*
X129545757Y-94019000D01*
X129307931Y-94066307D01*
X129083903Y-94159102D01*
X128882283Y-94293820D01*
X128710820Y-94465283D01*
X128576102Y-94666903D01*
X128483307Y-94890931D01*
X128436000Y-95128757D01*
X128358000Y-95128757D01*
X128310693Y-94890931D01*
X128217898Y-94666903D01*
X128083180Y-94465283D01*
X127911717Y-94293820D01*
X127710097Y-94159102D01*
X127486069Y-94066307D01*
X127248243Y-94019000D01*
X127005757Y-94019000D01*
X126767931Y-94066307D01*
X126543903Y-94159102D01*
X126342283Y-94293820D01*
X126170820Y-94465283D01*
X126036102Y-94666903D01*
X125943307Y-94890931D01*
X125896000Y-95128757D01*
X125818000Y-95128757D01*
X125770693Y-94890931D01*
X125677898Y-94666903D01*
X125543180Y-94465283D01*
X125371717Y-94293820D01*
X125170097Y-94159102D01*
X124946069Y-94066307D01*
X124708243Y-94019000D01*
X124465757Y-94019000D01*
X124227931Y-94066307D01*
X124003903Y-94159102D01*
X123802283Y-94293820D01*
X123630820Y-94465283D01*
X123496102Y-94666903D01*
X123403307Y-94890931D01*
X123356000Y-95128757D01*
X119734000Y-95128757D01*
X119734000Y-81700374D01*
X119731884Y-81678891D01*
X119731971Y-81666442D01*
X119731316Y-81659758D01*
X119690515Y-81271565D01*
X119681749Y-81228865D01*
X119673580Y-81186038D01*
X119671639Y-81179608D01*
X119556215Y-80806734D01*
X119539316Y-80766533D01*
X119522990Y-80726124D01*
X119519837Y-80720194D01*
X119334186Y-80376839D01*
X119309811Y-80340702D01*
X119285936Y-80304217D01*
X119281691Y-80299012D01*
X119032884Y-79998257D01*
X119001950Y-79967538D01*
X118971449Y-79936392D01*
X118966274Y-79932111D01*
X118663789Y-79685410D01*
X118627469Y-79661279D01*
X118591507Y-79636655D01*
X118585599Y-79633460D01*
X118240957Y-79450211D01*
X118200701Y-79433619D01*
X118160580Y-79416423D01*
X118154165Y-79414437D01*
X117780493Y-79301619D01*
X117737739Y-79293154D01*
X117695086Y-79284088D01*
X117688407Y-79283386D01*
X117299938Y-79245296D01*
X117276626Y-79243000D01*
X111116522Y-79243000D01*
X110798408Y-79211808D01*
X110515033Y-79126253D01*
X110253676Y-78987287D01*
X110024287Y-78800202D01*
X109835604Y-78572124D01*
X109694817Y-78311744D01*
X109607285Y-78028974D01*
X109574013Y-77712415D01*
X109577457Y-74737084D01*
X112505033Y-74737084D01*
X112505033Y-75104844D01*
X112576780Y-75465538D01*
X112717516Y-75805304D01*
X112921832Y-76111086D01*
X113181878Y-76371132D01*
X113487660Y-76575448D01*
X113827426Y-76716184D01*
X114188120Y-76787931D01*
X114555880Y-76787931D01*
X114916574Y-76716184D01*
X115256340Y-76575448D01*
X115562122Y-76371132D01*
X115822168Y-76111086D01*
X116026484Y-75805304D01*
X116167220Y-75465538D01*
X116238967Y-75104844D01*
X116238967Y-74737084D01*
X116238952Y-74737006D01*
X183847033Y-74737006D01*
X183847033Y-75104766D01*
X183918780Y-75465460D01*
X184059516Y-75805226D01*
X184263832Y-76111008D01*
X184523878Y-76371054D01*
X184829660Y-76575370D01*
X185169426Y-76716106D01*
X185530120Y-76787853D01*
X185897880Y-76787853D01*
X186258574Y-76716106D01*
X186598340Y-76575370D01*
X186904122Y-76371054D01*
X187164168Y-76111008D01*
X187368484Y-75805226D01*
X187509220Y-75465460D01*
X187580967Y-75104766D01*
X187580967Y-74737006D01*
X187509220Y-74376312D01*
X187368484Y-74036546D01*
X187164168Y-73730764D01*
X186904122Y-73470718D01*
X186598340Y-73266402D01*
X186258574Y-73125666D01*
X185897880Y-73053919D01*
X185530120Y-73053919D01*
X185169426Y-73125666D01*
X184829660Y-73266402D01*
X184523878Y-73470718D01*
X184263832Y-73730764D01*
X184059516Y-74036546D01*
X183918780Y-74376312D01*
X183847033Y-74737006D01*
X116238952Y-74737006D01*
X116167220Y-74376390D01*
X116026484Y-74036624D01*
X115822168Y-73730842D01*
X115562122Y-73470796D01*
X115256340Y-73266480D01*
X114916574Y-73125744D01*
X114555880Y-73053997D01*
X114188120Y-73053997D01*
X113827426Y-73125744D01*
X113487660Y-73266480D01*
X113181878Y-73470796D01*
X112921832Y-73730842D01*
X112717516Y-74036624D01*
X112576780Y-74376390D01*
X112505033Y-74737084D01*
X109577457Y-74737084D01*
X109579244Y-73193764D01*
X109610463Y-72875372D01*
X109696020Y-72591993D01*
X109834985Y-72330639D01*
X110022071Y-72101249D01*
X110250148Y-71912568D01*
X110510529Y-71771781D01*
X110793297Y-71684249D01*
X111109982Y-71650964D01*
X188190478Y-71650964D01*
X188508592Y-71682156D01*
G37*
%TD.AperFunction*%
D17*
X129794000Y-107823000D02*
X129814000Y-107823000D01*
X129814000Y-108077000D01*
X129794000Y-108077000D01*
X129794000Y-108097000D01*
X129540000Y-108097000D01*
X129540000Y-108077000D01*
X129520000Y-108077000D01*
X129520000Y-107823000D01*
X129540000Y-107823000D01*
X129540000Y-107803000D01*
X129794000Y-107803000D01*
X129794000Y-107823000D01*
%TA.AperFunction,Conductor*%
D18*
G36*
X129794000Y-107823000D02*
G01*
X129814000Y-107823000D01*
X129814000Y-108077000D01*
X129794000Y-108077000D01*
X129794000Y-108097000D01*
X129540000Y-108097000D01*
X129540000Y-108077000D01*
X129520000Y-108077000D01*
X129520000Y-107823000D01*
X129540000Y-107823000D01*
X129540000Y-107803000D01*
X129794000Y-107803000D01*
X129794000Y-107823000D01*
G37*
%TD.AperFunction*%
%TD*%
M02*
