%TF.GenerationSoftware,KiCad,Pcbnew,(5.1.10)-1*%
%TF.CreationDate,2023-09-20T19:37:08-05:00*%
%TF.ProjectId,brs_flight_computer,6272735f-666c-4696-9768-745f636f6d70,A*%
%TF.SameCoordinates,Original*%
%TF.FileFunction,Soldermask,Top*%
%TF.FilePolarity,Negative*%
%FSLAX46Y46*%
G04 Gerber Fmt 4.6, Leading zero omitted, Abs format (unit mm)*
G04 Created by KiCad (PCBNEW (5.1.10)-1) date 2023-09-20 19:37:08*
%MOMM*%
%LPD*%
G01*
G04 APERTURE LIST*
%ADD10C,2.600000*%
%ADD11R,2.600000X2.600000*%
%ADD12O,1.700000X1.700000*%
%ADD13R,1.700000X1.700000*%
%ADD14O,0.800000X1.300000*%
G04 APERTURE END LIST*
%TO.C,R2*%
G36*
G01*
X162835000Y-81236000D02*
X162285000Y-81236000D01*
G75*
G02*
X162085000Y-81036000I0J200000D01*
G01*
X162085000Y-80636000D01*
G75*
G02*
X162285000Y-80436000I200000J0D01*
G01*
X162835000Y-80436000D01*
G75*
G02*
X163035000Y-80636000I0J-200000D01*
G01*
X163035000Y-81036000D01*
G75*
G02*
X162835000Y-81236000I-200000J0D01*
G01*
G37*
G36*
G01*
X162835000Y-82886000D02*
X162285000Y-82886000D01*
G75*
G02*
X162085000Y-82686000I0J200000D01*
G01*
X162085000Y-82286000D01*
G75*
G02*
X162285000Y-82086000I200000J0D01*
G01*
X162835000Y-82086000D01*
G75*
G02*
X163035000Y-82286000I0J-200000D01*
G01*
X163035000Y-82686000D01*
G75*
G02*
X162835000Y-82886000I-200000J0D01*
G01*
G37*
%TD*%
%TO.C,R1*%
G36*
G01*
X156104000Y-81236000D02*
X155554000Y-81236000D01*
G75*
G02*
X155354000Y-81036000I0J200000D01*
G01*
X155354000Y-80636000D01*
G75*
G02*
X155554000Y-80436000I200000J0D01*
G01*
X156104000Y-80436000D01*
G75*
G02*
X156304000Y-80636000I0J-200000D01*
G01*
X156304000Y-81036000D01*
G75*
G02*
X156104000Y-81236000I-200000J0D01*
G01*
G37*
G36*
G01*
X156104000Y-82886000D02*
X155554000Y-82886000D01*
G75*
G02*
X155354000Y-82686000I0J200000D01*
G01*
X155354000Y-82286000D01*
G75*
G02*
X155554000Y-82086000I200000J0D01*
G01*
X156104000Y-82086000D01*
G75*
G02*
X156304000Y-82286000I0J-200000D01*
G01*
X156304000Y-82686000D01*
G75*
G02*
X156104000Y-82886000I-200000J0D01*
G01*
G37*
%TD*%
%TO.C,C2*%
G36*
G01*
X164461000Y-81336000D02*
X163961000Y-81336000D01*
G75*
G02*
X163736000Y-81111000I0J225000D01*
G01*
X163736000Y-80661000D01*
G75*
G02*
X163961000Y-80436000I225000J0D01*
G01*
X164461000Y-80436000D01*
G75*
G02*
X164686000Y-80661000I0J-225000D01*
G01*
X164686000Y-81111000D01*
G75*
G02*
X164461000Y-81336000I-225000J0D01*
G01*
G37*
G36*
G01*
X164461000Y-82886000D02*
X163961000Y-82886000D01*
G75*
G02*
X163736000Y-82661000I0J225000D01*
G01*
X163736000Y-82211000D01*
G75*
G02*
X163961000Y-81986000I225000J0D01*
G01*
X164461000Y-81986000D01*
G75*
G02*
X164686000Y-82211000I0J-225000D01*
G01*
X164686000Y-82661000D01*
G75*
G02*
X164461000Y-82886000I-225000J0D01*
G01*
G37*
%TD*%
%TO.C,C1*%
G36*
G01*
X154428000Y-81336000D02*
X153928000Y-81336000D01*
G75*
G02*
X153703000Y-81111000I0J225000D01*
G01*
X153703000Y-80661000D01*
G75*
G02*
X153928000Y-80436000I225000J0D01*
G01*
X154428000Y-80436000D01*
G75*
G02*
X154653000Y-80661000I0J-225000D01*
G01*
X154653000Y-81111000D01*
G75*
G02*
X154428000Y-81336000I-225000J0D01*
G01*
G37*
G36*
G01*
X154428000Y-82886000D02*
X153928000Y-82886000D01*
G75*
G02*
X153703000Y-82661000I0J225000D01*
G01*
X153703000Y-82211000D01*
G75*
G02*
X153928000Y-81986000I225000J0D01*
G01*
X154428000Y-81986000D01*
G75*
G02*
X154653000Y-82211000I0J-225000D01*
G01*
X154653000Y-82661000D01*
G75*
G02*
X154428000Y-82886000I-225000J0D01*
G01*
G37*
%TD*%
D10*
%TO.C,J5*%
X154211000Y-88646000D03*
X159211000Y-88646000D03*
D11*
X164211000Y-88646000D03*
%TD*%
D12*
%TO.C,J8*%
X124612400Y-114960400D03*
X127152400Y-114960400D03*
X129692400Y-114960400D03*
X132232400Y-114960400D03*
X134772400Y-114960400D03*
D13*
X137312400Y-114960400D03*
%TD*%
D12*
%TO.C,J7*%
X124612400Y-127660400D03*
X127152400Y-127660400D03*
X129692400Y-127660400D03*
X132232400Y-127660400D03*
X134772400Y-127660400D03*
D13*
X137312400Y-127660400D03*
%TD*%
D12*
%TO.C,J6*%
X151609000Y-121920000D03*
X151609000Y-119380000D03*
X151609000Y-116840000D03*
X151609000Y-114300000D03*
X151609000Y-111760000D03*
X151609000Y-109220000D03*
X151609000Y-106680000D03*
X151609000Y-104140000D03*
X151609000Y-101600000D03*
X151609000Y-99060000D03*
X151609000Y-96520000D03*
D13*
X151609000Y-93980000D03*
%TD*%
D12*
%TO.C,J4*%
X166849000Y-132080000D03*
X166849000Y-129540000D03*
X166849000Y-127000000D03*
X166849000Y-124460000D03*
X166849000Y-121920000D03*
X166849000Y-119380000D03*
X166849000Y-116840000D03*
X166849000Y-114300000D03*
X166849000Y-111760000D03*
X166849000Y-109220000D03*
X166849000Y-106680000D03*
X166849000Y-104140000D03*
X166849000Y-101600000D03*
X166849000Y-99060000D03*
X166849000Y-96520000D03*
D13*
X166849000Y-93980000D03*
%TD*%
D14*
%TO.C,J3*%
X157554000Y-77216000D03*
X156304000Y-77216000D03*
X155054000Y-77216000D03*
X153804000Y-77216000D03*
X152554000Y-77216000D03*
X151304000Y-77216000D03*
X150054000Y-77216000D03*
X148804000Y-77216000D03*
X147554000Y-77216000D03*
G36*
G01*
X145904000Y-77666000D02*
X145904000Y-76766000D01*
G75*
G02*
X146104000Y-76566000I200000J0D01*
G01*
X146504000Y-76566000D01*
G75*
G02*
X146704000Y-76766000I0J-200000D01*
G01*
X146704000Y-77666000D01*
G75*
G02*
X146504000Y-77866000I-200000J0D01*
G01*
X146104000Y-77866000D01*
G75*
G02*
X145904000Y-77666000I0J200000D01*
G01*
G37*
%TD*%
D12*
%TO.C,J2*%
X124587000Y-95250000D03*
X127127000Y-95250000D03*
X129667000Y-95250000D03*
X132207000Y-95250000D03*
X134747000Y-95250000D03*
D13*
X137287000Y-95250000D03*
%TD*%
D12*
%TO.C,J1*%
X124587000Y-107950000D03*
X127127000Y-107950000D03*
X129667000Y-107950000D03*
X132207000Y-107950000D03*
X134747000Y-107950000D03*
D13*
X137287000Y-107950000D03*
%TD*%
M02*
