%TF.GenerationSoftware,KiCad,Pcbnew,(5.1.10)-1*%
%TF.CreationDate,2022-10-09T17:25:27-05:00*%
%TF.ProjectId,curve_tracer,63757276-655f-4747-9261-6365722e6b69,A*%
%TF.SameCoordinates,Original*%
%TF.FileFunction,Legend,Bot*%
%TF.FilePolarity,Positive*%
%FSLAX46Y46*%
G04 Gerber Fmt 4.6, Leading zero omitted, Abs format (unit mm)*
G04 Created by KiCad (PCBNEW (5.1.10)-1) date 2022-10-09 17:25:27*
%MOMM*%
%LPD*%
G01*
G04 APERTURE LIST*
%ADD10C,0.120000*%
%ADD11C,0.100000*%
G04 APERTURE END LIST*
D10*
%TO.C,J3*%
X171460000Y-133277500D02*
X172790000Y-133277500D01*
X171460000Y-131947500D02*
X171460000Y-133277500D01*
X171460000Y-130677500D02*
X174120000Y-130677500D01*
X174120000Y-130677500D02*
X174120000Y-107757500D01*
X171460000Y-130677500D02*
X171460000Y-107757500D01*
X171460000Y-107757500D02*
X174120000Y-107757500D01*
%TO.C,J2*%
X127620000Y-107757500D02*
X126290000Y-107757500D01*
X127620000Y-109087500D02*
X127620000Y-107757500D01*
X127620000Y-110357500D02*
X124960000Y-110357500D01*
X124960000Y-110357500D02*
X124960000Y-133277500D01*
X127620000Y-110357500D02*
X127620000Y-133277500D01*
X127620000Y-133277500D02*
X124960000Y-133277500D01*
%TO.C,J3*%
D11*
X172950166Y-106596690D02*
X172950166Y-106953833D01*
X172973976Y-107025261D01*
X173021595Y-107072880D01*
X173093023Y-107096690D01*
X173140642Y-107096690D01*
X172759690Y-106596690D02*
X172450166Y-106596690D01*
X172616833Y-106787166D01*
X172545404Y-106787166D01*
X172497785Y-106810976D01*
X172473976Y-106834785D01*
X172450166Y-106882404D01*
X172450166Y-107001452D01*
X172473976Y-107049071D01*
X172497785Y-107072880D01*
X172545404Y-107096690D01*
X172688261Y-107096690D01*
X172735880Y-107072880D01*
X172759690Y-107049071D01*
%TO.C,J2*%
X126456666Y-106483690D02*
X126456666Y-106840833D01*
X126480476Y-106912261D01*
X126528095Y-106959880D01*
X126599523Y-106983690D01*
X126647142Y-106983690D01*
X126242380Y-106531309D02*
X126218571Y-106507500D01*
X126170952Y-106483690D01*
X126051904Y-106483690D01*
X126004285Y-106507500D01*
X125980476Y-106531309D01*
X125956666Y-106578928D01*
X125956666Y-106626547D01*
X125980476Y-106697976D01*
X126266190Y-106983690D01*
X125956666Y-106983690D01*
%TD*%
M02*
