M48
; DRILL file {KiCad (5.1.10)-1} date 09/18/22 09:09:29
; FORMAT={-:-/ absolute / inch / decimal}
; #@! TF.CreationDate,2022-09-18T09:09:29-05:00
; #@! TF.GenerationSoftware,Kicad,Pcbnew,(5.1.10)-1
; #@! TF.FileFunction,Plated,1,2,PTH
FMAT,2
INCH
T1C0.0100
T2C0.0394
T3C0.0512
%
G90
G05
T1
X5.0925Y-3.69
X5.1475Y-3.75
X5.17Y-3.505
X5.1975Y-4.2975
X5.2905Y-3.627
X5.3375Y-4.2775
X5.3655Y-3.5645
X5.5075Y-4.2775
X5.6775Y-4.2775
X5.7075Y-4.5275
X5.8425Y-4.105
X5.8475Y-4.2775
X5.9575Y-4.725
X6.0175Y-4.2775
X6.0225Y-4.0775
X6.1275Y-3.95
X6.1825Y-4.6525
X6.1875Y-4.2775
X6.23Y-3.9675
X6.3575Y-4.2775
X6.5275Y-4.2775
X6.5325Y-4.235
X6.7Y-4.2975
X6.7Y-4.5925
T2
X4.972Y-4.2948
X4.972Y-4.3948
X4.972Y-4.4948
X4.972Y-4.5948
X4.972Y-4.6948
X4.972Y-4.7948
X4.972Y-4.8948
X4.972Y-4.9948
X4.972Y-5.0948
X4.972Y-5.1948
X6.8028Y-4.2948
X6.8028Y-4.3948
X6.8028Y-4.4948
X6.8028Y-4.5948
X6.8028Y-4.6948
X6.8028Y-4.7948
X6.8028Y-4.8948
X6.8028Y-4.9948
X6.8028Y-5.0948
X6.8028Y-5.1948
T3
X5.585Y-3.57
X5.785Y-3.57
X5.985Y-3.57
X6.185Y-3.57
T0
M30
