%TF.GenerationSoftware,KiCad,Pcbnew,(5.1.10)-1*%
%TF.CreationDate,2022-10-09T17:25:27-05:00*%
%TF.ProjectId,curve_tracer,63757276-655f-4747-9261-6365722e6b69,A*%
%TF.SameCoordinates,Original*%
%TF.FileFunction,Copper,L2,Bot*%
%TF.FilePolarity,Positive*%
%FSLAX46Y46*%
G04 Gerber Fmt 4.6, Leading zero omitted, Abs format (unit mm)*
G04 Created by KiCad (PCBNEW (5.1.10)-1) date 2022-10-09 17:25:27*
%MOMM*%
%LPD*%
G01*
G04 APERTURE LIST*
%TA.AperFunction,ComponentPad*%
%ADD10R,2.600000X2.600000*%
%TD*%
%TA.AperFunction,ComponentPad*%
%ADD11C,2.600000*%
%TD*%
%TA.AperFunction,ComponentPad*%
%ADD12R,1.700000X1.700000*%
%TD*%
%TA.AperFunction,ComponentPad*%
%ADD13O,1.700000X1.700000*%
%TD*%
%TA.AperFunction,ViaPad*%
%ADD14C,0.508000*%
%TD*%
%TA.AperFunction,Conductor*%
%ADD15C,0.254000*%
%TD*%
%TA.AperFunction,Conductor*%
%ADD16C,0.100000*%
%TD*%
G04 APERTURE END LIST*
D10*
%TO.P,J1,1*%
%TO.N,Net-(J1-Pad1)*%
X157099000Y-90678000D03*
D11*
%TO.P,J1,2*%
X152019000Y-90678000D03*
%TO.P,J1,3*%
%TO.N,GND*%
X146939000Y-90678000D03*
%TO.P,J1,4*%
X141859000Y-90678000D03*
%TD*%
D12*
%TO.P,J3,1*%
%TO.N,Net-(J3-Pad1)*%
X172790000Y-131947500D03*
D13*
%TO.P,J3,2*%
%TO.N,Net-(J3-Pad2)*%
X172790000Y-129407500D03*
%TO.P,J3,3*%
%TO.N,Net-(J3-Pad3)*%
X172790000Y-126867500D03*
%TO.P,J3,4*%
%TO.N,Net-(J3-Pad4)*%
X172790000Y-124327500D03*
%TO.P,J3,5*%
%TO.N,Net-(J3-Pad5)*%
X172790000Y-121787500D03*
%TO.P,J3,6*%
%TO.N,Net-(J3-Pad6)*%
X172790000Y-119247500D03*
%TO.P,J3,7*%
%TO.N,Net-(J3-Pad7)*%
X172790000Y-116707500D03*
%TO.P,J3,8*%
%TO.N,V_PANEL_MEASURE*%
X172790000Y-114167500D03*
%TO.P,J3,9*%
%TO.N,I_PANEL_MEASURE*%
X172790000Y-111627500D03*
%TO.P,J3,10*%
%TO.N,GND*%
X172790000Y-109087500D03*
%TD*%
D12*
%TO.P,J2,1*%
%TO.N,VBUS*%
X126290000Y-109087500D03*
D13*
%TO.P,J2,2*%
%TO.N,Net-(J2-Pad2)*%
X126290000Y-111627500D03*
%TO.P,J2,3*%
%TO.N,Net-(J2-Pad3)*%
X126290000Y-114167500D03*
%TO.P,J2,4*%
%TO.N,Net-(J2-Pad4)*%
X126290000Y-116707500D03*
%TO.P,J2,5*%
%TO.N,Net-(J2-Pad5)*%
X126290000Y-119247500D03*
%TO.P,J2,6*%
%TO.N,Net-(J2-Pad6)*%
X126290000Y-121787500D03*
%TO.P,J2,7*%
%TO.N,LADDER_RESET*%
X126290000Y-124327500D03*
%TO.P,J2,8*%
%TO.N,LADDER_CLOCK*%
X126290000Y-126867500D03*
%TO.P,J2,9*%
%TO.N,LADDER_EN*%
X126290000Y-129407500D03*
%TO.P,J2,10*%
%TO.N,LADDER_LATCH*%
X126290000Y-131947500D03*
%TD*%
D14*
%TO.N,GND*%
X144970500Y-114998500D03*
X157035500Y-118173500D03*
X135572500Y-108648500D03*
X139890500Y-108648500D03*
X144208500Y-108648500D03*
X148526500Y-108648500D03*
X152844500Y-108648500D03*
X157162500Y-108648500D03*
X161480500Y-108648500D03*
X165798500Y-108648500D03*
X132016500Y-109156500D03*
X155638500Y-100330000D03*
X152971500Y-103568500D03*
X148399500Y-104267000D03*
X170180000Y-109156500D03*
X134378700Y-92125800D03*
X136283700Y-90538300D03*
X158242000Y-100774500D03*
X165925500Y-107569000D03*
X131318000Y-89027000D03*
X129349500Y-93726000D03*
X130746500Y-95250000D03*
X170180000Y-116649500D03*
X151320500Y-120015000D03*
%TD*%
D15*
%TO.N,GND*%
X174219001Y-108689480D02*
X174186825Y-108583401D01*
X174061641Y-108320580D01*
X173887588Y-108087231D01*
X173671355Y-107892322D01*
X173421252Y-107743343D01*
X173146891Y-107646019D01*
X172917000Y-107766686D01*
X172917000Y-108960500D01*
X172937000Y-108960500D01*
X172937000Y-109214500D01*
X172917000Y-109214500D01*
X172917000Y-109234500D01*
X172663000Y-109234500D01*
X172663000Y-109214500D01*
X171469845Y-109214500D01*
X171348524Y-109444390D01*
X171393175Y-109591599D01*
X171518359Y-109854420D01*
X171692412Y-110087769D01*
X171908645Y-110282678D01*
X172158748Y-110431657D01*
X172321168Y-110489272D01*
X172206903Y-110536602D01*
X172005283Y-110671320D01*
X171833820Y-110842783D01*
X171699102Y-111044403D01*
X171606307Y-111268431D01*
X171559000Y-111506257D01*
X171559000Y-111748743D01*
X171606307Y-111986569D01*
X171699102Y-112210597D01*
X171833820Y-112412217D01*
X172005283Y-112583680D01*
X172206903Y-112718398D01*
X172430931Y-112811193D01*
X172668757Y-112858500D01*
X172911243Y-112858500D01*
X173149069Y-112811193D01*
X173373097Y-112718398D01*
X173574717Y-112583680D01*
X173746180Y-112412217D01*
X173880898Y-112210597D01*
X173973693Y-111986569D01*
X174021000Y-111748743D01*
X174021000Y-111506257D01*
X173973693Y-111268431D01*
X173880898Y-111044403D01*
X173746180Y-110842783D01*
X173574717Y-110671320D01*
X173373097Y-110536602D01*
X173258832Y-110489272D01*
X173421252Y-110431657D01*
X173671355Y-110282678D01*
X173887588Y-110087769D01*
X174061641Y-109854420D01*
X174186825Y-109591599D01*
X174219000Y-109485520D01*
X174219000Y-133325000D01*
X124866000Y-133325000D01*
X124866000Y-131826257D01*
X125059000Y-131826257D01*
X125059000Y-132068743D01*
X125106307Y-132306569D01*
X125199102Y-132530597D01*
X125333820Y-132732217D01*
X125505283Y-132903680D01*
X125706903Y-133038398D01*
X125930931Y-133131193D01*
X126168757Y-133178500D01*
X126411243Y-133178500D01*
X126649069Y-133131193D01*
X126873097Y-133038398D01*
X127074717Y-132903680D01*
X127246180Y-132732217D01*
X127380898Y-132530597D01*
X127473693Y-132306569D01*
X127521000Y-132068743D01*
X127521000Y-131826257D01*
X127473693Y-131588431D01*
X127380898Y-131364403D01*
X127246180Y-131162783D01*
X127180897Y-131097500D01*
X171557157Y-131097500D01*
X171557157Y-132797500D01*
X171564513Y-132872189D01*
X171586299Y-132944008D01*
X171621678Y-133010196D01*
X171669289Y-133068211D01*
X171727304Y-133115822D01*
X171793492Y-133151201D01*
X171865311Y-133172987D01*
X171940000Y-133180343D01*
X173640000Y-133180343D01*
X173714689Y-133172987D01*
X173786508Y-133151201D01*
X173852696Y-133115822D01*
X173910711Y-133068211D01*
X173958322Y-133010196D01*
X173993701Y-132944008D01*
X174015487Y-132872189D01*
X174022843Y-132797500D01*
X174022843Y-131097500D01*
X174015487Y-131022811D01*
X173993701Y-130950992D01*
X173958322Y-130884804D01*
X173910711Y-130826789D01*
X173852696Y-130779178D01*
X173786508Y-130743799D01*
X173714689Y-130722013D01*
X173640000Y-130714657D01*
X171940000Y-130714657D01*
X171865311Y-130722013D01*
X171793492Y-130743799D01*
X171727304Y-130779178D01*
X171669289Y-130826789D01*
X171621678Y-130884804D01*
X171586299Y-130950992D01*
X171564513Y-131022811D01*
X171557157Y-131097500D01*
X127180897Y-131097500D01*
X127074717Y-130991320D01*
X126873097Y-130856602D01*
X126649069Y-130763807D01*
X126411243Y-130716500D01*
X126168757Y-130716500D01*
X125930931Y-130763807D01*
X125706903Y-130856602D01*
X125505283Y-130991320D01*
X125333820Y-131162783D01*
X125199102Y-131364403D01*
X125106307Y-131588431D01*
X125059000Y-131826257D01*
X124866000Y-131826257D01*
X124866000Y-129286257D01*
X125059000Y-129286257D01*
X125059000Y-129528743D01*
X125106307Y-129766569D01*
X125199102Y-129990597D01*
X125333820Y-130192217D01*
X125505283Y-130363680D01*
X125706903Y-130498398D01*
X125930931Y-130591193D01*
X126168757Y-130638500D01*
X126411243Y-130638500D01*
X126649069Y-130591193D01*
X126873097Y-130498398D01*
X127074717Y-130363680D01*
X127246180Y-130192217D01*
X127380898Y-129990597D01*
X127473693Y-129766569D01*
X127521000Y-129528743D01*
X127521000Y-129286257D01*
X171559000Y-129286257D01*
X171559000Y-129528743D01*
X171606307Y-129766569D01*
X171699102Y-129990597D01*
X171833820Y-130192217D01*
X172005283Y-130363680D01*
X172206903Y-130498398D01*
X172430931Y-130591193D01*
X172668757Y-130638500D01*
X172911243Y-130638500D01*
X173149069Y-130591193D01*
X173373097Y-130498398D01*
X173574717Y-130363680D01*
X173746180Y-130192217D01*
X173880898Y-129990597D01*
X173973693Y-129766569D01*
X174021000Y-129528743D01*
X174021000Y-129286257D01*
X173973693Y-129048431D01*
X173880898Y-128824403D01*
X173746180Y-128622783D01*
X173574717Y-128451320D01*
X173373097Y-128316602D01*
X173149069Y-128223807D01*
X172911243Y-128176500D01*
X172668757Y-128176500D01*
X172430931Y-128223807D01*
X172206903Y-128316602D01*
X172005283Y-128451320D01*
X171833820Y-128622783D01*
X171699102Y-128824403D01*
X171606307Y-129048431D01*
X171559000Y-129286257D01*
X127521000Y-129286257D01*
X127473693Y-129048431D01*
X127380898Y-128824403D01*
X127246180Y-128622783D01*
X127074717Y-128451320D01*
X126873097Y-128316602D01*
X126649069Y-128223807D01*
X126411243Y-128176500D01*
X126168757Y-128176500D01*
X125930931Y-128223807D01*
X125706903Y-128316602D01*
X125505283Y-128451320D01*
X125333820Y-128622783D01*
X125199102Y-128824403D01*
X125106307Y-129048431D01*
X125059000Y-129286257D01*
X124866000Y-129286257D01*
X124866000Y-126746257D01*
X125059000Y-126746257D01*
X125059000Y-126988743D01*
X125106307Y-127226569D01*
X125199102Y-127450597D01*
X125333820Y-127652217D01*
X125505283Y-127823680D01*
X125706903Y-127958398D01*
X125930931Y-128051193D01*
X126168757Y-128098500D01*
X126411243Y-128098500D01*
X126649069Y-128051193D01*
X126873097Y-127958398D01*
X127074717Y-127823680D01*
X127246180Y-127652217D01*
X127380898Y-127450597D01*
X127473693Y-127226569D01*
X127521000Y-126988743D01*
X127521000Y-126746257D01*
X171559000Y-126746257D01*
X171559000Y-126988743D01*
X171606307Y-127226569D01*
X171699102Y-127450597D01*
X171833820Y-127652217D01*
X172005283Y-127823680D01*
X172206903Y-127958398D01*
X172430931Y-128051193D01*
X172668757Y-128098500D01*
X172911243Y-128098500D01*
X173149069Y-128051193D01*
X173373097Y-127958398D01*
X173574717Y-127823680D01*
X173746180Y-127652217D01*
X173880898Y-127450597D01*
X173973693Y-127226569D01*
X174021000Y-126988743D01*
X174021000Y-126746257D01*
X173973693Y-126508431D01*
X173880898Y-126284403D01*
X173746180Y-126082783D01*
X173574717Y-125911320D01*
X173373097Y-125776602D01*
X173149069Y-125683807D01*
X172911243Y-125636500D01*
X172668757Y-125636500D01*
X172430931Y-125683807D01*
X172206903Y-125776602D01*
X172005283Y-125911320D01*
X171833820Y-126082783D01*
X171699102Y-126284403D01*
X171606307Y-126508431D01*
X171559000Y-126746257D01*
X127521000Y-126746257D01*
X127473693Y-126508431D01*
X127380898Y-126284403D01*
X127246180Y-126082783D01*
X127074717Y-125911320D01*
X126873097Y-125776602D01*
X126649069Y-125683807D01*
X126411243Y-125636500D01*
X126168757Y-125636500D01*
X125930931Y-125683807D01*
X125706903Y-125776602D01*
X125505283Y-125911320D01*
X125333820Y-126082783D01*
X125199102Y-126284403D01*
X125106307Y-126508431D01*
X125059000Y-126746257D01*
X124866000Y-126746257D01*
X124866000Y-124206257D01*
X125059000Y-124206257D01*
X125059000Y-124448743D01*
X125106307Y-124686569D01*
X125199102Y-124910597D01*
X125333820Y-125112217D01*
X125505283Y-125283680D01*
X125706903Y-125418398D01*
X125930931Y-125511193D01*
X126168757Y-125558500D01*
X126411243Y-125558500D01*
X126649069Y-125511193D01*
X126873097Y-125418398D01*
X127074717Y-125283680D01*
X127246180Y-125112217D01*
X127380898Y-124910597D01*
X127473693Y-124686569D01*
X127521000Y-124448743D01*
X127521000Y-124206257D01*
X171559000Y-124206257D01*
X171559000Y-124448743D01*
X171606307Y-124686569D01*
X171699102Y-124910597D01*
X171833820Y-125112217D01*
X172005283Y-125283680D01*
X172206903Y-125418398D01*
X172430931Y-125511193D01*
X172668757Y-125558500D01*
X172911243Y-125558500D01*
X173149069Y-125511193D01*
X173373097Y-125418398D01*
X173574717Y-125283680D01*
X173746180Y-125112217D01*
X173880898Y-124910597D01*
X173973693Y-124686569D01*
X174021000Y-124448743D01*
X174021000Y-124206257D01*
X173973693Y-123968431D01*
X173880898Y-123744403D01*
X173746180Y-123542783D01*
X173574717Y-123371320D01*
X173373097Y-123236602D01*
X173149069Y-123143807D01*
X172911243Y-123096500D01*
X172668757Y-123096500D01*
X172430931Y-123143807D01*
X172206903Y-123236602D01*
X172005283Y-123371320D01*
X171833820Y-123542783D01*
X171699102Y-123744403D01*
X171606307Y-123968431D01*
X171559000Y-124206257D01*
X127521000Y-124206257D01*
X127473693Y-123968431D01*
X127380898Y-123744403D01*
X127246180Y-123542783D01*
X127074717Y-123371320D01*
X126873097Y-123236602D01*
X126649069Y-123143807D01*
X126411243Y-123096500D01*
X126168757Y-123096500D01*
X125930931Y-123143807D01*
X125706903Y-123236602D01*
X125505283Y-123371320D01*
X125333820Y-123542783D01*
X125199102Y-123744403D01*
X125106307Y-123968431D01*
X125059000Y-124206257D01*
X124866000Y-124206257D01*
X124866000Y-121666257D01*
X125059000Y-121666257D01*
X125059000Y-121908743D01*
X125106307Y-122146569D01*
X125199102Y-122370597D01*
X125333820Y-122572217D01*
X125505283Y-122743680D01*
X125706903Y-122878398D01*
X125930931Y-122971193D01*
X126168757Y-123018500D01*
X126411243Y-123018500D01*
X126649069Y-122971193D01*
X126873097Y-122878398D01*
X127074717Y-122743680D01*
X127246180Y-122572217D01*
X127380898Y-122370597D01*
X127473693Y-122146569D01*
X127521000Y-121908743D01*
X127521000Y-121666257D01*
X171559000Y-121666257D01*
X171559000Y-121908743D01*
X171606307Y-122146569D01*
X171699102Y-122370597D01*
X171833820Y-122572217D01*
X172005283Y-122743680D01*
X172206903Y-122878398D01*
X172430931Y-122971193D01*
X172668757Y-123018500D01*
X172911243Y-123018500D01*
X173149069Y-122971193D01*
X173373097Y-122878398D01*
X173574717Y-122743680D01*
X173746180Y-122572217D01*
X173880898Y-122370597D01*
X173973693Y-122146569D01*
X174021000Y-121908743D01*
X174021000Y-121666257D01*
X173973693Y-121428431D01*
X173880898Y-121204403D01*
X173746180Y-121002783D01*
X173574717Y-120831320D01*
X173373097Y-120696602D01*
X173149069Y-120603807D01*
X172911243Y-120556500D01*
X172668757Y-120556500D01*
X172430931Y-120603807D01*
X172206903Y-120696602D01*
X172005283Y-120831320D01*
X171833820Y-121002783D01*
X171699102Y-121204403D01*
X171606307Y-121428431D01*
X171559000Y-121666257D01*
X127521000Y-121666257D01*
X127473693Y-121428431D01*
X127380898Y-121204403D01*
X127246180Y-121002783D01*
X127074717Y-120831320D01*
X126873097Y-120696602D01*
X126649069Y-120603807D01*
X126411243Y-120556500D01*
X126168757Y-120556500D01*
X125930931Y-120603807D01*
X125706903Y-120696602D01*
X125505283Y-120831320D01*
X125333820Y-121002783D01*
X125199102Y-121204403D01*
X125106307Y-121428431D01*
X125059000Y-121666257D01*
X124866000Y-121666257D01*
X124866000Y-119126257D01*
X125059000Y-119126257D01*
X125059000Y-119368743D01*
X125106307Y-119606569D01*
X125199102Y-119830597D01*
X125333820Y-120032217D01*
X125505283Y-120203680D01*
X125706903Y-120338398D01*
X125930931Y-120431193D01*
X126168757Y-120478500D01*
X126411243Y-120478500D01*
X126649069Y-120431193D01*
X126873097Y-120338398D01*
X127074717Y-120203680D01*
X127246180Y-120032217D01*
X127380898Y-119830597D01*
X127473693Y-119606569D01*
X127521000Y-119368743D01*
X127521000Y-119126257D01*
X171559000Y-119126257D01*
X171559000Y-119368743D01*
X171606307Y-119606569D01*
X171699102Y-119830597D01*
X171833820Y-120032217D01*
X172005283Y-120203680D01*
X172206903Y-120338398D01*
X172430931Y-120431193D01*
X172668757Y-120478500D01*
X172911243Y-120478500D01*
X173149069Y-120431193D01*
X173373097Y-120338398D01*
X173574717Y-120203680D01*
X173746180Y-120032217D01*
X173880898Y-119830597D01*
X173973693Y-119606569D01*
X174021000Y-119368743D01*
X174021000Y-119126257D01*
X173973693Y-118888431D01*
X173880898Y-118664403D01*
X173746180Y-118462783D01*
X173574717Y-118291320D01*
X173373097Y-118156602D01*
X173149069Y-118063807D01*
X172911243Y-118016500D01*
X172668757Y-118016500D01*
X172430931Y-118063807D01*
X172206903Y-118156602D01*
X172005283Y-118291320D01*
X171833820Y-118462783D01*
X171699102Y-118664403D01*
X171606307Y-118888431D01*
X171559000Y-119126257D01*
X127521000Y-119126257D01*
X127473693Y-118888431D01*
X127380898Y-118664403D01*
X127246180Y-118462783D01*
X127074717Y-118291320D01*
X126873097Y-118156602D01*
X126649069Y-118063807D01*
X126411243Y-118016500D01*
X126168757Y-118016500D01*
X125930931Y-118063807D01*
X125706903Y-118156602D01*
X125505283Y-118291320D01*
X125333820Y-118462783D01*
X125199102Y-118664403D01*
X125106307Y-118888431D01*
X125059000Y-119126257D01*
X124866000Y-119126257D01*
X124866000Y-116586257D01*
X125059000Y-116586257D01*
X125059000Y-116828743D01*
X125106307Y-117066569D01*
X125199102Y-117290597D01*
X125333820Y-117492217D01*
X125505283Y-117663680D01*
X125706903Y-117798398D01*
X125930931Y-117891193D01*
X126168757Y-117938500D01*
X126411243Y-117938500D01*
X126649069Y-117891193D01*
X126873097Y-117798398D01*
X127074717Y-117663680D01*
X127246180Y-117492217D01*
X127380898Y-117290597D01*
X127473693Y-117066569D01*
X127521000Y-116828743D01*
X127521000Y-116586257D01*
X171559000Y-116586257D01*
X171559000Y-116828743D01*
X171606307Y-117066569D01*
X171699102Y-117290597D01*
X171833820Y-117492217D01*
X172005283Y-117663680D01*
X172206903Y-117798398D01*
X172430931Y-117891193D01*
X172668757Y-117938500D01*
X172911243Y-117938500D01*
X173149069Y-117891193D01*
X173373097Y-117798398D01*
X173574717Y-117663680D01*
X173746180Y-117492217D01*
X173880898Y-117290597D01*
X173973693Y-117066569D01*
X174021000Y-116828743D01*
X174021000Y-116586257D01*
X173973693Y-116348431D01*
X173880898Y-116124403D01*
X173746180Y-115922783D01*
X173574717Y-115751320D01*
X173373097Y-115616602D01*
X173149069Y-115523807D01*
X172911243Y-115476500D01*
X172668757Y-115476500D01*
X172430931Y-115523807D01*
X172206903Y-115616602D01*
X172005283Y-115751320D01*
X171833820Y-115922783D01*
X171699102Y-116124403D01*
X171606307Y-116348431D01*
X171559000Y-116586257D01*
X127521000Y-116586257D01*
X127473693Y-116348431D01*
X127380898Y-116124403D01*
X127246180Y-115922783D01*
X127074717Y-115751320D01*
X126873097Y-115616602D01*
X126649069Y-115523807D01*
X126411243Y-115476500D01*
X126168757Y-115476500D01*
X125930931Y-115523807D01*
X125706903Y-115616602D01*
X125505283Y-115751320D01*
X125333820Y-115922783D01*
X125199102Y-116124403D01*
X125106307Y-116348431D01*
X125059000Y-116586257D01*
X124866000Y-116586257D01*
X124866000Y-114046257D01*
X125059000Y-114046257D01*
X125059000Y-114288743D01*
X125106307Y-114526569D01*
X125199102Y-114750597D01*
X125333820Y-114952217D01*
X125505283Y-115123680D01*
X125706903Y-115258398D01*
X125930931Y-115351193D01*
X126168757Y-115398500D01*
X126411243Y-115398500D01*
X126649069Y-115351193D01*
X126873097Y-115258398D01*
X127074717Y-115123680D01*
X127246180Y-114952217D01*
X127380898Y-114750597D01*
X127473693Y-114526569D01*
X127521000Y-114288743D01*
X127521000Y-114046257D01*
X171559000Y-114046257D01*
X171559000Y-114288743D01*
X171606307Y-114526569D01*
X171699102Y-114750597D01*
X171833820Y-114952217D01*
X172005283Y-115123680D01*
X172206903Y-115258398D01*
X172430931Y-115351193D01*
X172668757Y-115398500D01*
X172911243Y-115398500D01*
X173149069Y-115351193D01*
X173373097Y-115258398D01*
X173574717Y-115123680D01*
X173746180Y-114952217D01*
X173880898Y-114750597D01*
X173973693Y-114526569D01*
X174021000Y-114288743D01*
X174021000Y-114046257D01*
X173973693Y-113808431D01*
X173880898Y-113584403D01*
X173746180Y-113382783D01*
X173574717Y-113211320D01*
X173373097Y-113076602D01*
X173149069Y-112983807D01*
X172911243Y-112936500D01*
X172668757Y-112936500D01*
X172430931Y-112983807D01*
X172206903Y-113076602D01*
X172005283Y-113211320D01*
X171833820Y-113382783D01*
X171699102Y-113584403D01*
X171606307Y-113808431D01*
X171559000Y-114046257D01*
X127521000Y-114046257D01*
X127473693Y-113808431D01*
X127380898Y-113584403D01*
X127246180Y-113382783D01*
X127074717Y-113211320D01*
X126873097Y-113076602D01*
X126649069Y-112983807D01*
X126411243Y-112936500D01*
X126168757Y-112936500D01*
X125930931Y-112983807D01*
X125706903Y-113076602D01*
X125505283Y-113211320D01*
X125333820Y-113382783D01*
X125199102Y-113584403D01*
X125106307Y-113808431D01*
X125059000Y-114046257D01*
X124866000Y-114046257D01*
X124866000Y-111506257D01*
X125059000Y-111506257D01*
X125059000Y-111748743D01*
X125106307Y-111986569D01*
X125199102Y-112210597D01*
X125333820Y-112412217D01*
X125505283Y-112583680D01*
X125706903Y-112718398D01*
X125930931Y-112811193D01*
X126168757Y-112858500D01*
X126411243Y-112858500D01*
X126649069Y-112811193D01*
X126873097Y-112718398D01*
X127074717Y-112583680D01*
X127246180Y-112412217D01*
X127380898Y-112210597D01*
X127473693Y-111986569D01*
X127521000Y-111748743D01*
X127521000Y-111506257D01*
X127473693Y-111268431D01*
X127380898Y-111044403D01*
X127246180Y-110842783D01*
X127074717Y-110671320D01*
X126873097Y-110536602D01*
X126649069Y-110443807D01*
X126411243Y-110396500D01*
X126168757Y-110396500D01*
X125930931Y-110443807D01*
X125706903Y-110536602D01*
X125505283Y-110671320D01*
X125333820Y-110842783D01*
X125199102Y-111044403D01*
X125106307Y-111268431D01*
X125059000Y-111506257D01*
X124866000Y-111506257D01*
X124866000Y-108237500D01*
X125057157Y-108237500D01*
X125057157Y-109937500D01*
X125064513Y-110012189D01*
X125086299Y-110084008D01*
X125121678Y-110150196D01*
X125169289Y-110208211D01*
X125227304Y-110255822D01*
X125293492Y-110291201D01*
X125365311Y-110312987D01*
X125440000Y-110320343D01*
X127140000Y-110320343D01*
X127214689Y-110312987D01*
X127286508Y-110291201D01*
X127352696Y-110255822D01*
X127410711Y-110208211D01*
X127458322Y-110150196D01*
X127493701Y-110084008D01*
X127515487Y-110012189D01*
X127522843Y-109937500D01*
X127522843Y-108730610D01*
X171348524Y-108730610D01*
X171469845Y-108960500D01*
X172663000Y-108960500D01*
X172663000Y-107766686D01*
X172433109Y-107646019D01*
X172158748Y-107743343D01*
X171908645Y-107892322D01*
X171692412Y-108087231D01*
X171518359Y-108320580D01*
X171393175Y-108583401D01*
X171348524Y-108730610D01*
X127522843Y-108730610D01*
X127522843Y-108237500D01*
X127515487Y-108162811D01*
X127493701Y-108090992D01*
X127458322Y-108024804D01*
X127410711Y-107966789D01*
X127352696Y-107919178D01*
X127286508Y-107883799D01*
X127214689Y-107862013D01*
X127140000Y-107854657D01*
X125440000Y-107854657D01*
X125365311Y-107862013D01*
X125293492Y-107883799D01*
X125227304Y-107919178D01*
X125169289Y-107966789D01*
X125121678Y-108024804D01*
X125086299Y-108090992D01*
X125064513Y-108162811D01*
X125057157Y-108237500D01*
X124866000Y-108237500D01*
X124866000Y-92027224D01*
X140689381Y-92027224D01*
X140821317Y-92322312D01*
X141162045Y-92493159D01*
X141529557Y-92594250D01*
X141909729Y-92621701D01*
X142287951Y-92574457D01*
X142649690Y-92454333D01*
X142896683Y-92322312D01*
X143028619Y-92027224D01*
X145769381Y-92027224D01*
X145901317Y-92322312D01*
X146242045Y-92493159D01*
X146609557Y-92594250D01*
X146989729Y-92621701D01*
X147367951Y-92574457D01*
X147729690Y-92454333D01*
X147976683Y-92322312D01*
X148108619Y-92027224D01*
X146939000Y-90857605D01*
X145769381Y-92027224D01*
X143028619Y-92027224D01*
X141859000Y-90857605D01*
X140689381Y-92027224D01*
X124866000Y-92027224D01*
X124866000Y-90728729D01*
X139915299Y-90728729D01*
X139962543Y-91106951D01*
X140082667Y-91468690D01*
X140214688Y-91715683D01*
X140509776Y-91847619D01*
X141679395Y-90678000D01*
X142038605Y-90678000D01*
X143208224Y-91847619D01*
X143503312Y-91715683D01*
X143674159Y-91374955D01*
X143775250Y-91007443D01*
X143795375Y-90728729D01*
X144995299Y-90728729D01*
X145042543Y-91106951D01*
X145162667Y-91468690D01*
X145294688Y-91715683D01*
X145589776Y-91847619D01*
X146759395Y-90678000D01*
X147118605Y-90678000D01*
X148288224Y-91847619D01*
X148583312Y-91715683D01*
X148754159Y-91374955D01*
X148855250Y-91007443D01*
X148882701Y-90627271D01*
X148868357Y-90512436D01*
X150338000Y-90512436D01*
X150338000Y-90843564D01*
X150402600Y-91168330D01*
X150529317Y-91474252D01*
X150713282Y-91749575D01*
X150947425Y-91983718D01*
X151222748Y-92167683D01*
X151528670Y-92294400D01*
X151853436Y-92359000D01*
X152184564Y-92359000D01*
X152509330Y-92294400D01*
X152815252Y-92167683D01*
X153090575Y-91983718D01*
X153324718Y-91749575D01*
X153508683Y-91474252D01*
X153635400Y-91168330D01*
X153700000Y-90843564D01*
X153700000Y-90512436D01*
X153635400Y-90187670D01*
X153508683Y-89881748D01*
X153324718Y-89606425D01*
X153096293Y-89378000D01*
X155416157Y-89378000D01*
X155416157Y-91978000D01*
X155423513Y-92052689D01*
X155445299Y-92124508D01*
X155480678Y-92190696D01*
X155528289Y-92248711D01*
X155586304Y-92296322D01*
X155652492Y-92331701D01*
X155724311Y-92353487D01*
X155799000Y-92360843D01*
X158399000Y-92360843D01*
X158473689Y-92353487D01*
X158545508Y-92331701D01*
X158611696Y-92296322D01*
X158669711Y-92248711D01*
X158717322Y-92190696D01*
X158752701Y-92124508D01*
X158774487Y-92052689D01*
X158781843Y-91978000D01*
X158781843Y-89378000D01*
X158774487Y-89303311D01*
X158752701Y-89231492D01*
X158717322Y-89165304D01*
X158669711Y-89107289D01*
X158611696Y-89059678D01*
X158545508Y-89024299D01*
X158473689Y-89002513D01*
X158399000Y-88995157D01*
X155799000Y-88995157D01*
X155724311Y-89002513D01*
X155652492Y-89024299D01*
X155586304Y-89059678D01*
X155528289Y-89107289D01*
X155480678Y-89165304D01*
X155445299Y-89231492D01*
X155423513Y-89303311D01*
X155416157Y-89378000D01*
X153096293Y-89378000D01*
X153090575Y-89372282D01*
X152815252Y-89188317D01*
X152509330Y-89061600D01*
X152184564Y-88997000D01*
X151853436Y-88997000D01*
X151528670Y-89061600D01*
X151222748Y-89188317D01*
X150947425Y-89372282D01*
X150713282Y-89606425D01*
X150529317Y-89881748D01*
X150402600Y-90187670D01*
X150338000Y-90512436D01*
X148868357Y-90512436D01*
X148835457Y-90249049D01*
X148715333Y-89887310D01*
X148583312Y-89640317D01*
X148288224Y-89508381D01*
X147118605Y-90678000D01*
X146759395Y-90678000D01*
X145589776Y-89508381D01*
X145294688Y-89640317D01*
X145123841Y-89981045D01*
X145022750Y-90348557D01*
X144995299Y-90728729D01*
X143795375Y-90728729D01*
X143802701Y-90627271D01*
X143755457Y-90249049D01*
X143635333Y-89887310D01*
X143503312Y-89640317D01*
X143208224Y-89508381D01*
X142038605Y-90678000D01*
X141679395Y-90678000D01*
X140509776Y-89508381D01*
X140214688Y-89640317D01*
X140043841Y-89981045D01*
X139942750Y-90348557D01*
X139915299Y-90728729D01*
X124866000Y-90728729D01*
X124866000Y-89328776D01*
X140689381Y-89328776D01*
X141859000Y-90498395D01*
X143028619Y-89328776D01*
X145769381Y-89328776D01*
X146939000Y-90498395D01*
X148108619Y-89328776D01*
X147976683Y-89033688D01*
X147635955Y-88862841D01*
X147268443Y-88761750D01*
X146888271Y-88734299D01*
X146510049Y-88781543D01*
X146148310Y-88901667D01*
X145901317Y-89033688D01*
X145769381Y-89328776D01*
X143028619Y-89328776D01*
X142896683Y-89033688D01*
X142555955Y-88862841D01*
X142188443Y-88761750D01*
X141808271Y-88734299D01*
X141430049Y-88781543D01*
X141068310Y-88901667D01*
X140821317Y-89033688D01*
X140689381Y-89328776D01*
X124866000Y-89328776D01*
X124866000Y-84860500D01*
X174219001Y-84860500D01*
X174219001Y-108689480D01*
%TA.AperFunction,Conductor*%
D16*
G36*
X174219001Y-108689480D02*
G01*
X174186825Y-108583401D01*
X174061641Y-108320580D01*
X173887588Y-108087231D01*
X173671355Y-107892322D01*
X173421252Y-107743343D01*
X173146891Y-107646019D01*
X172917000Y-107766686D01*
X172917000Y-108960500D01*
X172937000Y-108960500D01*
X172937000Y-109214500D01*
X172917000Y-109214500D01*
X172917000Y-109234500D01*
X172663000Y-109234500D01*
X172663000Y-109214500D01*
X171469845Y-109214500D01*
X171348524Y-109444390D01*
X171393175Y-109591599D01*
X171518359Y-109854420D01*
X171692412Y-110087769D01*
X171908645Y-110282678D01*
X172158748Y-110431657D01*
X172321168Y-110489272D01*
X172206903Y-110536602D01*
X172005283Y-110671320D01*
X171833820Y-110842783D01*
X171699102Y-111044403D01*
X171606307Y-111268431D01*
X171559000Y-111506257D01*
X171559000Y-111748743D01*
X171606307Y-111986569D01*
X171699102Y-112210597D01*
X171833820Y-112412217D01*
X172005283Y-112583680D01*
X172206903Y-112718398D01*
X172430931Y-112811193D01*
X172668757Y-112858500D01*
X172911243Y-112858500D01*
X173149069Y-112811193D01*
X173373097Y-112718398D01*
X173574717Y-112583680D01*
X173746180Y-112412217D01*
X173880898Y-112210597D01*
X173973693Y-111986569D01*
X174021000Y-111748743D01*
X174021000Y-111506257D01*
X173973693Y-111268431D01*
X173880898Y-111044403D01*
X173746180Y-110842783D01*
X173574717Y-110671320D01*
X173373097Y-110536602D01*
X173258832Y-110489272D01*
X173421252Y-110431657D01*
X173671355Y-110282678D01*
X173887588Y-110087769D01*
X174061641Y-109854420D01*
X174186825Y-109591599D01*
X174219000Y-109485520D01*
X174219000Y-133325000D01*
X124866000Y-133325000D01*
X124866000Y-131826257D01*
X125059000Y-131826257D01*
X125059000Y-132068743D01*
X125106307Y-132306569D01*
X125199102Y-132530597D01*
X125333820Y-132732217D01*
X125505283Y-132903680D01*
X125706903Y-133038398D01*
X125930931Y-133131193D01*
X126168757Y-133178500D01*
X126411243Y-133178500D01*
X126649069Y-133131193D01*
X126873097Y-133038398D01*
X127074717Y-132903680D01*
X127246180Y-132732217D01*
X127380898Y-132530597D01*
X127473693Y-132306569D01*
X127521000Y-132068743D01*
X127521000Y-131826257D01*
X127473693Y-131588431D01*
X127380898Y-131364403D01*
X127246180Y-131162783D01*
X127180897Y-131097500D01*
X171557157Y-131097500D01*
X171557157Y-132797500D01*
X171564513Y-132872189D01*
X171586299Y-132944008D01*
X171621678Y-133010196D01*
X171669289Y-133068211D01*
X171727304Y-133115822D01*
X171793492Y-133151201D01*
X171865311Y-133172987D01*
X171940000Y-133180343D01*
X173640000Y-133180343D01*
X173714689Y-133172987D01*
X173786508Y-133151201D01*
X173852696Y-133115822D01*
X173910711Y-133068211D01*
X173958322Y-133010196D01*
X173993701Y-132944008D01*
X174015487Y-132872189D01*
X174022843Y-132797500D01*
X174022843Y-131097500D01*
X174015487Y-131022811D01*
X173993701Y-130950992D01*
X173958322Y-130884804D01*
X173910711Y-130826789D01*
X173852696Y-130779178D01*
X173786508Y-130743799D01*
X173714689Y-130722013D01*
X173640000Y-130714657D01*
X171940000Y-130714657D01*
X171865311Y-130722013D01*
X171793492Y-130743799D01*
X171727304Y-130779178D01*
X171669289Y-130826789D01*
X171621678Y-130884804D01*
X171586299Y-130950992D01*
X171564513Y-131022811D01*
X171557157Y-131097500D01*
X127180897Y-131097500D01*
X127074717Y-130991320D01*
X126873097Y-130856602D01*
X126649069Y-130763807D01*
X126411243Y-130716500D01*
X126168757Y-130716500D01*
X125930931Y-130763807D01*
X125706903Y-130856602D01*
X125505283Y-130991320D01*
X125333820Y-131162783D01*
X125199102Y-131364403D01*
X125106307Y-131588431D01*
X125059000Y-131826257D01*
X124866000Y-131826257D01*
X124866000Y-129286257D01*
X125059000Y-129286257D01*
X125059000Y-129528743D01*
X125106307Y-129766569D01*
X125199102Y-129990597D01*
X125333820Y-130192217D01*
X125505283Y-130363680D01*
X125706903Y-130498398D01*
X125930931Y-130591193D01*
X126168757Y-130638500D01*
X126411243Y-130638500D01*
X126649069Y-130591193D01*
X126873097Y-130498398D01*
X127074717Y-130363680D01*
X127246180Y-130192217D01*
X127380898Y-129990597D01*
X127473693Y-129766569D01*
X127521000Y-129528743D01*
X127521000Y-129286257D01*
X171559000Y-129286257D01*
X171559000Y-129528743D01*
X171606307Y-129766569D01*
X171699102Y-129990597D01*
X171833820Y-130192217D01*
X172005283Y-130363680D01*
X172206903Y-130498398D01*
X172430931Y-130591193D01*
X172668757Y-130638500D01*
X172911243Y-130638500D01*
X173149069Y-130591193D01*
X173373097Y-130498398D01*
X173574717Y-130363680D01*
X173746180Y-130192217D01*
X173880898Y-129990597D01*
X173973693Y-129766569D01*
X174021000Y-129528743D01*
X174021000Y-129286257D01*
X173973693Y-129048431D01*
X173880898Y-128824403D01*
X173746180Y-128622783D01*
X173574717Y-128451320D01*
X173373097Y-128316602D01*
X173149069Y-128223807D01*
X172911243Y-128176500D01*
X172668757Y-128176500D01*
X172430931Y-128223807D01*
X172206903Y-128316602D01*
X172005283Y-128451320D01*
X171833820Y-128622783D01*
X171699102Y-128824403D01*
X171606307Y-129048431D01*
X171559000Y-129286257D01*
X127521000Y-129286257D01*
X127473693Y-129048431D01*
X127380898Y-128824403D01*
X127246180Y-128622783D01*
X127074717Y-128451320D01*
X126873097Y-128316602D01*
X126649069Y-128223807D01*
X126411243Y-128176500D01*
X126168757Y-128176500D01*
X125930931Y-128223807D01*
X125706903Y-128316602D01*
X125505283Y-128451320D01*
X125333820Y-128622783D01*
X125199102Y-128824403D01*
X125106307Y-129048431D01*
X125059000Y-129286257D01*
X124866000Y-129286257D01*
X124866000Y-126746257D01*
X125059000Y-126746257D01*
X125059000Y-126988743D01*
X125106307Y-127226569D01*
X125199102Y-127450597D01*
X125333820Y-127652217D01*
X125505283Y-127823680D01*
X125706903Y-127958398D01*
X125930931Y-128051193D01*
X126168757Y-128098500D01*
X126411243Y-128098500D01*
X126649069Y-128051193D01*
X126873097Y-127958398D01*
X127074717Y-127823680D01*
X127246180Y-127652217D01*
X127380898Y-127450597D01*
X127473693Y-127226569D01*
X127521000Y-126988743D01*
X127521000Y-126746257D01*
X171559000Y-126746257D01*
X171559000Y-126988743D01*
X171606307Y-127226569D01*
X171699102Y-127450597D01*
X171833820Y-127652217D01*
X172005283Y-127823680D01*
X172206903Y-127958398D01*
X172430931Y-128051193D01*
X172668757Y-128098500D01*
X172911243Y-128098500D01*
X173149069Y-128051193D01*
X173373097Y-127958398D01*
X173574717Y-127823680D01*
X173746180Y-127652217D01*
X173880898Y-127450597D01*
X173973693Y-127226569D01*
X174021000Y-126988743D01*
X174021000Y-126746257D01*
X173973693Y-126508431D01*
X173880898Y-126284403D01*
X173746180Y-126082783D01*
X173574717Y-125911320D01*
X173373097Y-125776602D01*
X173149069Y-125683807D01*
X172911243Y-125636500D01*
X172668757Y-125636500D01*
X172430931Y-125683807D01*
X172206903Y-125776602D01*
X172005283Y-125911320D01*
X171833820Y-126082783D01*
X171699102Y-126284403D01*
X171606307Y-126508431D01*
X171559000Y-126746257D01*
X127521000Y-126746257D01*
X127473693Y-126508431D01*
X127380898Y-126284403D01*
X127246180Y-126082783D01*
X127074717Y-125911320D01*
X126873097Y-125776602D01*
X126649069Y-125683807D01*
X126411243Y-125636500D01*
X126168757Y-125636500D01*
X125930931Y-125683807D01*
X125706903Y-125776602D01*
X125505283Y-125911320D01*
X125333820Y-126082783D01*
X125199102Y-126284403D01*
X125106307Y-126508431D01*
X125059000Y-126746257D01*
X124866000Y-126746257D01*
X124866000Y-124206257D01*
X125059000Y-124206257D01*
X125059000Y-124448743D01*
X125106307Y-124686569D01*
X125199102Y-124910597D01*
X125333820Y-125112217D01*
X125505283Y-125283680D01*
X125706903Y-125418398D01*
X125930931Y-125511193D01*
X126168757Y-125558500D01*
X126411243Y-125558500D01*
X126649069Y-125511193D01*
X126873097Y-125418398D01*
X127074717Y-125283680D01*
X127246180Y-125112217D01*
X127380898Y-124910597D01*
X127473693Y-124686569D01*
X127521000Y-124448743D01*
X127521000Y-124206257D01*
X171559000Y-124206257D01*
X171559000Y-124448743D01*
X171606307Y-124686569D01*
X171699102Y-124910597D01*
X171833820Y-125112217D01*
X172005283Y-125283680D01*
X172206903Y-125418398D01*
X172430931Y-125511193D01*
X172668757Y-125558500D01*
X172911243Y-125558500D01*
X173149069Y-125511193D01*
X173373097Y-125418398D01*
X173574717Y-125283680D01*
X173746180Y-125112217D01*
X173880898Y-124910597D01*
X173973693Y-124686569D01*
X174021000Y-124448743D01*
X174021000Y-124206257D01*
X173973693Y-123968431D01*
X173880898Y-123744403D01*
X173746180Y-123542783D01*
X173574717Y-123371320D01*
X173373097Y-123236602D01*
X173149069Y-123143807D01*
X172911243Y-123096500D01*
X172668757Y-123096500D01*
X172430931Y-123143807D01*
X172206903Y-123236602D01*
X172005283Y-123371320D01*
X171833820Y-123542783D01*
X171699102Y-123744403D01*
X171606307Y-123968431D01*
X171559000Y-124206257D01*
X127521000Y-124206257D01*
X127473693Y-123968431D01*
X127380898Y-123744403D01*
X127246180Y-123542783D01*
X127074717Y-123371320D01*
X126873097Y-123236602D01*
X126649069Y-123143807D01*
X126411243Y-123096500D01*
X126168757Y-123096500D01*
X125930931Y-123143807D01*
X125706903Y-123236602D01*
X125505283Y-123371320D01*
X125333820Y-123542783D01*
X125199102Y-123744403D01*
X125106307Y-123968431D01*
X125059000Y-124206257D01*
X124866000Y-124206257D01*
X124866000Y-121666257D01*
X125059000Y-121666257D01*
X125059000Y-121908743D01*
X125106307Y-122146569D01*
X125199102Y-122370597D01*
X125333820Y-122572217D01*
X125505283Y-122743680D01*
X125706903Y-122878398D01*
X125930931Y-122971193D01*
X126168757Y-123018500D01*
X126411243Y-123018500D01*
X126649069Y-122971193D01*
X126873097Y-122878398D01*
X127074717Y-122743680D01*
X127246180Y-122572217D01*
X127380898Y-122370597D01*
X127473693Y-122146569D01*
X127521000Y-121908743D01*
X127521000Y-121666257D01*
X171559000Y-121666257D01*
X171559000Y-121908743D01*
X171606307Y-122146569D01*
X171699102Y-122370597D01*
X171833820Y-122572217D01*
X172005283Y-122743680D01*
X172206903Y-122878398D01*
X172430931Y-122971193D01*
X172668757Y-123018500D01*
X172911243Y-123018500D01*
X173149069Y-122971193D01*
X173373097Y-122878398D01*
X173574717Y-122743680D01*
X173746180Y-122572217D01*
X173880898Y-122370597D01*
X173973693Y-122146569D01*
X174021000Y-121908743D01*
X174021000Y-121666257D01*
X173973693Y-121428431D01*
X173880898Y-121204403D01*
X173746180Y-121002783D01*
X173574717Y-120831320D01*
X173373097Y-120696602D01*
X173149069Y-120603807D01*
X172911243Y-120556500D01*
X172668757Y-120556500D01*
X172430931Y-120603807D01*
X172206903Y-120696602D01*
X172005283Y-120831320D01*
X171833820Y-121002783D01*
X171699102Y-121204403D01*
X171606307Y-121428431D01*
X171559000Y-121666257D01*
X127521000Y-121666257D01*
X127473693Y-121428431D01*
X127380898Y-121204403D01*
X127246180Y-121002783D01*
X127074717Y-120831320D01*
X126873097Y-120696602D01*
X126649069Y-120603807D01*
X126411243Y-120556500D01*
X126168757Y-120556500D01*
X125930931Y-120603807D01*
X125706903Y-120696602D01*
X125505283Y-120831320D01*
X125333820Y-121002783D01*
X125199102Y-121204403D01*
X125106307Y-121428431D01*
X125059000Y-121666257D01*
X124866000Y-121666257D01*
X124866000Y-119126257D01*
X125059000Y-119126257D01*
X125059000Y-119368743D01*
X125106307Y-119606569D01*
X125199102Y-119830597D01*
X125333820Y-120032217D01*
X125505283Y-120203680D01*
X125706903Y-120338398D01*
X125930931Y-120431193D01*
X126168757Y-120478500D01*
X126411243Y-120478500D01*
X126649069Y-120431193D01*
X126873097Y-120338398D01*
X127074717Y-120203680D01*
X127246180Y-120032217D01*
X127380898Y-119830597D01*
X127473693Y-119606569D01*
X127521000Y-119368743D01*
X127521000Y-119126257D01*
X171559000Y-119126257D01*
X171559000Y-119368743D01*
X171606307Y-119606569D01*
X171699102Y-119830597D01*
X171833820Y-120032217D01*
X172005283Y-120203680D01*
X172206903Y-120338398D01*
X172430931Y-120431193D01*
X172668757Y-120478500D01*
X172911243Y-120478500D01*
X173149069Y-120431193D01*
X173373097Y-120338398D01*
X173574717Y-120203680D01*
X173746180Y-120032217D01*
X173880898Y-119830597D01*
X173973693Y-119606569D01*
X174021000Y-119368743D01*
X174021000Y-119126257D01*
X173973693Y-118888431D01*
X173880898Y-118664403D01*
X173746180Y-118462783D01*
X173574717Y-118291320D01*
X173373097Y-118156602D01*
X173149069Y-118063807D01*
X172911243Y-118016500D01*
X172668757Y-118016500D01*
X172430931Y-118063807D01*
X172206903Y-118156602D01*
X172005283Y-118291320D01*
X171833820Y-118462783D01*
X171699102Y-118664403D01*
X171606307Y-118888431D01*
X171559000Y-119126257D01*
X127521000Y-119126257D01*
X127473693Y-118888431D01*
X127380898Y-118664403D01*
X127246180Y-118462783D01*
X127074717Y-118291320D01*
X126873097Y-118156602D01*
X126649069Y-118063807D01*
X126411243Y-118016500D01*
X126168757Y-118016500D01*
X125930931Y-118063807D01*
X125706903Y-118156602D01*
X125505283Y-118291320D01*
X125333820Y-118462783D01*
X125199102Y-118664403D01*
X125106307Y-118888431D01*
X125059000Y-119126257D01*
X124866000Y-119126257D01*
X124866000Y-116586257D01*
X125059000Y-116586257D01*
X125059000Y-116828743D01*
X125106307Y-117066569D01*
X125199102Y-117290597D01*
X125333820Y-117492217D01*
X125505283Y-117663680D01*
X125706903Y-117798398D01*
X125930931Y-117891193D01*
X126168757Y-117938500D01*
X126411243Y-117938500D01*
X126649069Y-117891193D01*
X126873097Y-117798398D01*
X127074717Y-117663680D01*
X127246180Y-117492217D01*
X127380898Y-117290597D01*
X127473693Y-117066569D01*
X127521000Y-116828743D01*
X127521000Y-116586257D01*
X171559000Y-116586257D01*
X171559000Y-116828743D01*
X171606307Y-117066569D01*
X171699102Y-117290597D01*
X171833820Y-117492217D01*
X172005283Y-117663680D01*
X172206903Y-117798398D01*
X172430931Y-117891193D01*
X172668757Y-117938500D01*
X172911243Y-117938500D01*
X173149069Y-117891193D01*
X173373097Y-117798398D01*
X173574717Y-117663680D01*
X173746180Y-117492217D01*
X173880898Y-117290597D01*
X173973693Y-117066569D01*
X174021000Y-116828743D01*
X174021000Y-116586257D01*
X173973693Y-116348431D01*
X173880898Y-116124403D01*
X173746180Y-115922783D01*
X173574717Y-115751320D01*
X173373097Y-115616602D01*
X173149069Y-115523807D01*
X172911243Y-115476500D01*
X172668757Y-115476500D01*
X172430931Y-115523807D01*
X172206903Y-115616602D01*
X172005283Y-115751320D01*
X171833820Y-115922783D01*
X171699102Y-116124403D01*
X171606307Y-116348431D01*
X171559000Y-116586257D01*
X127521000Y-116586257D01*
X127473693Y-116348431D01*
X127380898Y-116124403D01*
X127246180Y-115922783D01*
X127074717Y-115751320D01*
X126873097Y-115616602D01*
X126649069Y-115523807D01*
X126411243Y-115476500D01*
X126168757Y-115476500D01*
X125930931Y-115523807D01*
X125706903Y-115616602D01*
X125505283Y-115751320D01*
X125333820Y-115922783D01*
X125199102Y-116124403D01*
X125106307Y-116348431D01*
X125059000Y-116586257D01*
X124866000Y-116586257D01*
X124866000Y-114046257D01*
X125059000Y-114046257D01*
X125059000Y-114288743D01*
X125106307Y-114526569D01*
X125199102Y-114750597D01*
X125333820Y-114952217D01*
X125505283Y-115123680D01*
X125706903Y-115258398D01*
X125930931Y-115351193D01*
X126168757Y-115398500D01*
X126411243Y-115398500D01*
X126649069Y-115351193D01*
X126873097Y-115258398D01*
X127074717Y-115123680D01*
X127246180Y-114952217D01*
X127380898Y-114750597D01*
X127473693Y-114526569D01*
X127521000Y-114288743D01*
X127521000Y-114046257D01*
X171559000Y-114046257D01*
X171559000Y-114288743D01*
X171606307Y-114526569D01*
X171699102Y-114750597D01*
X171833820Y-114952217D01*
X172005283Y-115123680D01*
X172206903Y-115258398D01*
X172430931Y-115351193D01*
X172668757Y-115398500D01*
X172911243Y-115398500D01*
X173149069Y-115351193D01*
X173373097Y-115258398D01*
X173574717Y-115123680D01*
X173746180Y-114952217D01*
X173880898Y-114750597D01*
X173973693Y-114526569D01*
X174021000Y-114288743D01*
X174021000Y-114046257D01*
X173973693Y-113808431D01*
X173880898Y-113584403D01*
X173746180Y-113382783D01*
X173574717Y-113211320D01*
X173373097Y-113076602D01*
X173149069Y-112983807D01*
X172911243Y-112936500D01*
X172668757Y-112936500D01*
X172430931Y-112983807D01*
X172206903Y-113076602D01*
X172005283Y-113211320D01*
X171833820Y-113382783D01*
X171699102Y-113584403D01*
X171606307Y-113808431D01*
X171559000Y-114046257D01*
X127521000Y-114046257D01*
X127473693Y-113808431D01*
X127380898Y-113584403D01*
X127246180Y-113382783D01*
X127074717Y-113211320D01*
X126873097Y-113076602D01*
X126649069Y-112983807D01*
X126411243Y-112936500D01*
X126168757Y-112936500D01*
X125930931Y-112983807D01*
X125706903Y-113076602D01*
X125505283Y-113211320D01*
X125333820Y-113382783D01*
X125199102Y-113584403D01*
X125106307Y-113808431D01*
X125059000Y-114046257D01*
X124866000Y-114046257D01*
X124866000Y-111506257D01*
X125059000Y-111506257D01*
X125059000Y-111748743D01*
X125106307Y-111986569D01*
X125199102Y-112210597D01*
X125333820Y-112412217D01*
X125505283Y-112583680D01*
X125706903Y-112718398D01*
X125930931Y-112811193D01*
X126168757Y-112858500D01*
X126411243Y-112858500D01*
X126649069Y-112811193D01*
X126873097Y-112718398D01*
X127074717Y-112583680D01*
X127246180Y-112412217D01*
X127380898Y-112210597D01*
X127473693Y-111986569D01*
X127521000Y-111748743D01*
X127521000Y-111506257D01*
X127473693Y-111268431D01*
X127380898Y-111044403D01*
X127246180Y-110842783D01*
X127074717Y-110671320D01*
X126873097Y-110536602D01*
X126649069Y-110443807D01*
X126411243Y-110396500D01*
X126168757Y-110396500D01*
X125930931Y-110443807D01*
X125706903Y-110536602D01*
X125505283Y-110671320D01*
X125333820Y-110842783D01*
X125199102Y-111044403D01*
X125106307Y-111268431D01*
X125059000Y-111506257D01*
X124866000Y-111506257D01*
X124866000Y-108237500D01*
X125057157Y-108237500D01*
X125057157Y-109937500D01*
X125064513Y-110012189D01*
X125086299Y-110084008D01*
X125121678Y-110150196D01*
X125169289Y-110208211D01*
X125227304Y-110255822D01*
X125293492Y-110291201D01*
X125365311Y-110312987D01*
X125440000Y-110320343D01*
X127140000Y-110320343D01*
X127214689Y-110312987D01*
X127286508Y-110291201D01*
X127352696Y-110255822D01*
X127410711Y-110208211D01*
X127458322Y-110150196D01*
X127493701Y-110084008D01*
X127515487Y-110012189D01*
X127522843Y-109937500D01*
X127522843Y-108730610D01*
X171348524Y-108730610D01*
X171469845Y-108960500D01*
X172663000Y-108960500D01*
X172663000Y-107766686D01*
X172433109Y-107646019D01*
X172158748Y-107743343D01*
X171908645Y-107892322D01*
X171692412Y-108087231D01*
X171518359Y-108320580D01*
X171393175Y-108583401D01*
X171348524Y-108730610D01*
X127522843Y-108730610D01*
X127522843Y-108237500D01*
X127515487Y-108162811D01*
X127493701Y-108090992D01*
X127458322Y-108024804D01*
X127410711Y-107966789D01*
X127352696Y-107919178D01*
X127286508Y-107883799D01*
X127214689Y-107862013D01*
X127140000Y-107854657D01*
X125440000Y-107854657D01*
X125365311Y-107862013D01*
X125293492Y-107883799D01*
X125227304Y-107919178D01*
X125169289Y-107966789D01*
X125121678Y-108024804D01*
X125086299Y-108090992D01*
X125064513Y-108162811D01*
X125057157Y-108237500D01*
X124866000Y-108237500D01*
X124866000Y-92027224D01*
X140689381Y-92027224D01*
X140821317Y-92322312D01*
X141162045Y-92493159D01*
X141529557Y-92594250D01*
X141909729Y-92621701D01*
X142287951Y-92574457D01*
X142649690Y-92454333D01*
X142896683Y-92322312D01*
X143028619Y-92027224D01*
X145769381Y-92027224D01*
X145901317Y-92322312D01*
X146242045Y-92493159D01*
X146609557Y-92594250D01*
X146989729Y-92621701D01*
X147367951Y-92574457D01*
X147729690Y-92454333D01*
X147976683Y-92322312D01*
X148108619Y-92027224D01*
X146939000Y-90857605D01*
X145769381Y-92027224D01*
X143028619Y-92027224D01*
X141859000Y-90857605D01*
X140689381Y-92027224D01*
X124866000Y-92027224D01*
X124866000Y-90728729D01*
X139915299Y-90728729D01*
X139962543Y-91106951D01*
X140082667Y-91468690D01*
X140214688Y-91715683D01*
X140509776Y-91847619D01*
X141679395Y-90678000D01*
X142038605Y-90678000D01*
X143208224Y-91847619D01*
X143503312Y-91715683D01*
X143674159Y-91374955D01*
X143775250Y-91007443D01*
X143795375Y-90728729D01*
X144995299Y-90728729D01*
X145042543Y-91106951D01*
X145162667Y-91468690D01*
X145294688Y-91715683D01*
X145589776Y-91847619D01*
X146759395Y-90678000D01*
X147118605Y-90678000D01*
X148288224Y-91847619D01*
X148583312Y-91715683D01*
X148754159Y-91374955D01*
X148855250Y-91007443D01*
X148882701Y-90627271D01*
X148868357Y-90512436D01*
X150338000Y-90512436D01*
X150338000Y-90843564D01*
X150402600Y-91168330D01*
X150529317Y-91474252D01*
X150713282Y-91749575D01*
X150947425Y-91983718D01*
X151222748Y-92167683D01*
X151528670Y-92294400D01*
X151853436Y-92359000D01*
X152184564Y-92359000D01*
X152509330Y-92294400D01*
X152815252Y-92167683D01*
X153090575Y-91983718D01*
X153324718Y-91749575D01*
X153508683Y-91474252D01*
X153635400Y-91168330D01*
X153700000Y-90843564D01*
X153700000Y-90512436D01*
X153635400Y-90187670D01*
X153508683Y-89881748D01*
X153324718Y-89606425D01*
X153096293Y-89378000D01*
X155416157Y-89378000D01*
X155416157Y-91978000D01*
X155423513Y-92052689D01*
X155445299Y-92124508D01*
X155480678Y-92190696D01*
X155528289Y-92248711D01*
X155586304Y-92296322D01*
X155652492Y-92331701D01*
X155724311Y-92353487D01*
X155799000Y-92360843D01*
X158399000Y-92360843D01*
X158473689Y-92353487D01*
X158545508Y-92331701D01*
X158611696Y-92296322D01*
X158669711Y-92248711D01*
X158717322Y-92190696D01*
X158752701Y-92124508D01*
X158774487Y-92052689D01*
X158781843Y-91978000D01*
X158781843Y-89378000D01*
X158774487Y-89303311D01*
X158752701Y-89231492D01*
X158717322Y-89165304D01*
X158669711Y-89107289D01*
X158611696Y-89059678D01*
X158545508Y-89024299D01*
X158473689Y-89002513D01*
X158399000Y-88995157D01*
X155799000Y-88995157D01*
X155724311Y-89002513D01*
X155652492Y-89024299D01*
X155586304Y-89059678D01*
X155528289Y-89107289D01*
X155480678Y-89165304D01*
X155445299Y-89231492D01*
X155423513Y-89303311D01*
X155416157Y-89378000D01*
X153096293Y-89378000D01*
X153090575Y-89372282D01*
X152815252Y-89188317D01*
X152509330Y-89061600D01*
X152184564Y-88997000D01*
X151853436Y-88997000D01*
X151528670Y-89061600D01*
X151222748Y-89188317D01*
X150947425Y-89372282D01*
X150713282Y-89606425D01*
X150529317Y-89881748D01*
X150402600Y-90187670D01*
X150338000Y-90512436D01*
X148868357Y-90512436D01*
X148835457Y-90249049D01*
X148715333Y-89887310D01*
X148583312Y-89640317D01*
X148288224Y-89508381D01*
X147118605Y-90678000D01*
X146759395Y-90678000D01*
X145589776Y-89508381D01*
X145294688Y-89640317D01*
X145123841Y-89981045D01*
X145022750Y-90348557D01*
X144995299Y-90728729D01*
X143795375Y-90728729D01*
X143802701Y-90627271D01*
X143755457Y-90249049D01*
X143635333Y-89887310D01*
X143503312Y-89640317D01*
X143208224Y-89508381D01*
X142038605Y-90678000D01*
X141679395Y-90678000D01*
X140509776Y-89508381D01*
X140214688Y-89640317D01*
X140043841Y-89981045D01*
X139942750Y-90348557D01*
X139915299Y-90728729D01*
X124866000Y-90728729D01*
X124866000Y-89328776D01*
X140689381Y-89328776D01*
X141859000Y-90498395D01*
X143028619Y-89328776D01*
X145769381Y-89328776D01*
X146939000Y-90498395D01*
X148108619Y-89328776D01*
X147976683Y-89033688D01*
X147635955Y-88862841D01*
X147268443Y-88761750D01*
X146888271Y-88734299D01*
X146510049Y-88781543D01*
X146148310Y-88901667D01*
X145901317Y-89033688D01*
X145769381Y-89328776D01*
X143028619Y-89328776D01*
X142896683Y-89033688D01*
X142555955Y-88862841D01*
X142188443Y-88761750D01*
X141808271Y-88734299D01*
X141430049Y-88781543D01*
X141068310Y-88901667D01*
X140821317Y-89033688D01*
X140689381Y-89328776D01*
X124866000Y-89328776D01*
X124866000Y-84860500D01*
X174219001Y-84860500D01*
X174219001Y-108689480D01*
G37*
%TD.AperFunction*%
%TD*%
M02*
