%TF.GenerationSoftware,KiCad,Pcbnew,(5.1.10)-1*%
%TF.CreationDate,2022-09-18T09:09:27-05:00*%
%TF.ProjectId,curve_tracer,63757276-655f-4747-9261-6365722e6b69,A*%
%TF.SameCoordinates,Original*%
%TF.FileFunction,Paste,Top*%
%TF.FilePolarity,Positive*%
%FSLAX46Y46*%
G04 Gerber Fmt 4.6, Leading zero omitted, Abs format (unit mm)*
G04 Created by KiCad (PCBNEW (5.1.10)-1) date 2022-09-18 09:09:27*
%MOMM*%
%LPD*%
G01*
G04 APERTURE LIST*
%ADD10R,0.650000X1.060000*%
%ADD11R,0.355600X0.876300*%
G04 APERTURE END LIST*
D10*
%TO.C,U4*%
X132255300Y-87977800D03*
X131305300Y-87977800D03*
X130355300Y-87977800D03*
X130355300Y-90177800D03*
X132255300Y-90177800D03*
%TD*%
%TO.C,FB1*%
G36*
G01*
X134114250Y-96284500D02*
X133601750Y-96284500D01*
G75*
G02*
X133383000Y-96065750I0J218750D01*
G01*
X133383000Y-95628250D01*
G75*
G02*
X133601750Y-95409500I218750J0D01*
G01*
X134114250Y-95409500D01*
G75*
G02*
X134333000Y-95628250I0J-218750D01*
G01*
X134333000Y-96065750D01*
G75*
G02*
X134114250Y-96284500I-218750J0D01*
G01*
G37*
G36*
G01*
X134114250Y-94709500D02*
X133601750Y-94709500D01*
G75*
G02*
X133383000Y-94490750I0J218750D01*
G01*
X133383000Y-94053250D01*
G75*
G02*
X133601750Y-93834500I218750J0D01*
G01*
X134114250Y-93834500D01*
G75*
G02*
X134333000Y-94053250I0J-218750D01*
G01*
X134333000Y-94490750D01*
G75*
G02*
X134114250Y-94709500I-218750J0D01*
G01*
G37*
%TD*%
%TO.C,C4*%
G36*
G01*
X132847300Y-91602799D02*
X132847300Y-92902801D01*
G75*
G02*
X132597301Y-93152800I-249999J0D01*
G01*
X131947299Y-93152800D01*
G75*
G02*
X131697300Y-92902801I0J249999D01*
G01*
X131697300Y-91602799D01*
G75*
G02*
X131947299Y-91352800I249999J0D01*
G01*
X132597301Y-91352800D01*
G75*
G02*
X132847300Y-91602799I0J-249999D01*
G01*
G37*
G36*
G01*
X129897300Y-91602799D02*
X129897300Y-92902801D01*
G75*
G02*
X129647301Y-93152800I-249999J0D01*
G01*
X128997299Y-93152800D01*
G75*
G02*
X128747300Y-92902801I0J249999D01*
G01*
X128747300Y-91602799D01*
G75*
G02*
X128997299Y-91352800I249999J0D01*
G01*
X129647301Y-91352800D01*
G75*
G02*
X129897300Y-91602799I0J-249999D01*
G01*
G37*
%TD*%
%TO.C,C3*%
G36*
G01*
X132720800Y-94034800D02*
X132720800Y-94534800D01*
G75*
G02*
X132495800Y-94759800I-225000J0D01*
G01*
X132045800Y-94759800D01*
G75*
G02*
X131820800Y-94534800I0J225000D01*
G01*
X131820800Y-94034800D01*
G75*
G02*
X132045800Y-93809800I225000J0D01*
G01*
X132495800Y-93809800D01*
G75*
G02*
X132720800Y-94034800I0J-225000D01*
G01*
G37*
G36*
G01*
X131170800Y-94034800D02*
X131170800Y-94534800D01*
G75*
G02*
X130945800Y-94759800I-225000J0D01*
G01*
X130495800Y-94759800D01*
G75*
G02*
X130270800Y-94534800I0J225000D01*
G01*
X130270800Y-94034800D01*
G75*
G02*
X130495800Y-93809800I225000J0D01*
G01*
X130945800Y-93809800D01*
G75*
G02*
X131170800Y-94034800I0J-225000D01*
G01*
G37*
%TD*%
%TO.C,C2*%
G36*
G01*
X136033700Y-87535300D02*
X136533700Y-87535300D01*
G75*
G02*
X136758700Y-87760300I0J-225000D01*
G01*
X136758700Y-88210300D01*
G75*
G02*
X136533700Y-88435300I-225000J0D01*
G01*
X136033700Y-88435300D01*
G75*
G02*
X135808700Y-88210300I0J225000D01*
G01*
X135808700Y-87760300D01*
G75*
G02*
X136033700Y-87535300I225000J0D01*
G01*
G37*
G36*
G01*
X136033700Y-89085300D02*
X136533700Y-89085300D01*
G75*
G02*
X136758700Y-89310300I0J-225000D01*
G01*
X136758700Y-89760300D01*
G75*
G02*
X136533700Y-89985300I-225000J0D01*
G01*
X136033700Y-89985300D01*
G75*
G02*
X135808700Y-89760300I0J225000D01*
G01*
X135808700Y-89310300D01*
G75*
G02*
X136033700Y-89085300I225000J0D01*
G01*
G37*
%TD*%
%TO.C,C1*%
G36*
G01*
X133728699Y-87408800D02*
X135028701Y-87408800D01*
G75*
G02*
X135278700Y-87658799I0J-249999D01*
G01*
X135278700Y-88308801D01*
G75*
G02*
X135028701Y-88558800I-249999J0D01*
G01*
X133728699Y-88558800D01*
G75*
G02*
X133478700Y-88308801I0J249999D01*
G01*
X133478700Y-87658799D01*
G75*
G02*
X133728699Y-87408800I249999J0D01*
G01*
G37*
G36*
G01*
X133728699Y-90358800D02*
X135028701Y-90358800D01*
G75*
G02*
X135278700Y-90608799I0J-249999D01*
G01*
X135278700Y-91258801D01*
G75*
G02*
X135028701Y-91508800I-249999J0D01*
G01*
X133728699Y-91508800D01*
G75*
G02*
X133478700Y-91258801I0J249999D01*
G01*
X133478700Y-90608799D01*
G75*
G02*
X133728699Y-90358800I249999J0D01*
G01*
G37*
%TD*%
%TO.C,R20*%
G36*
G01*
X168381000Y-111296000D02*
X168931000Y-111296000D01*
G75*
G02*
X169131000Y-111496000I0J-200000D01*
G01*
X169131000Y-111896000D01*
G75*
G02*
X168931000Y-112096000I-200000J0D01*
G01*
X168381000Y-112096000D01*
G75*
G02*
X168181000Y-111896000I0J200000D01*
G01*
X168181000Y-111496000D01*
G75*
G02*
X168381000Y-111296000I200000J0D01*
G01*
G37*
G36*
G01*
X168381000Y-109646000D02*
X168931000Y-109646000D01*
G75*
G02*
X169131000Y-109846000I0J-200000D01*
G01*
X169131000Y-110246000D01*
G75*
G02*
X168931000Y-110446000I-200000J0D01*
G01*
X168381000Y-110446000D01*
G75*
G02*
X168181000Y-110246000I0J200000D01*
G01*
X168181000Y-109846000D01*
G75*
G02*
X168381000Y-109646000I200000J0D01*
G01*
G37*
%TD*%
%TO.C,R19*%
G36*
G01*
X168931000Y-114573500D02*
X168381000Y-114573500D01*
G75*
G02*
X168181000Y-114373500I0J200000D01*
G01*
X168181000Y-113973500D01*
G75*
G02*
X168381000Y-113773500I200000J0D01*
G01*
X168931000Y-113773500D01*
G75*
G02*
X169131000Y-113973500I0J-200000D01*
G01*
X169131000Y-114373500D01*
G75*
G02*
X168931000Y-114573500I-200000J0D01*
G01*
G37*
G36*
G01*
X168931000Y-116223500D02*
X168381000Y-116223500D01*
G75*
G02*
X168181000Y-116023500I0J200000D01*
G01*
X168181000Y-115623500D01*
G75*
G02*
X168381000Y-115423500I200000J0D01*
G01*
X168931000Y-115423500D01*
G75*
G02*
X169131000Y-115623500I0J-200000D01*
G01*
X169131000Y-116023500D01*
G75*
G02*
X168931000Y-116223500I-200000J0D01*
G01*
G37*
%TD*%
%TO.C,C18*%
G36*
G01*
X170430000Y-110546000D02*
X169930000Y-110546000D01*
G75*
G02*
X169705000Y-110321000I0J225000D01*
G01*
X169705000Y-109871000D01*
G75*
G02*
X169930000Y-109646000I225000J0D01*
G01*
X170430000Y-109646000D01*
G75*
G02*
X170655000Y-109871000I0J-225000D01*
G01*
X170655000Y-110321000D01*
G75*
G02*
X170430000Y-110546000I-225000J0D01*
G01*
G37*
G36*
G01*
X170430000Y-112096000D02*
X169930000Y-112096000D01*
G75*
G02*
X169705000Y-111871000I0J225000D01*
G01*
X169705000Y-111421000D01*
G75*
G02*
X169930000Y-111196000I225000J0D01*
G01*
X170430000Y-111196000D01*
G75*
G02*
X170655000Y-111421000I0J-225000D01*
G01*
X170655000Y-111871000D01*
G75*
G02*
X170430000Y-112096000I-225000J0D01*
G01*
G37*
%TD*%
%TO.C,C17*%
G36*
G01*
X169930000Y-115323500D02*
X170430000Y-115323500D01*
G75*
G02*
X170655000Y-115548500I0J-225000D01*
G01*
X170655000Y-115998500D01*
G75*
G02*
X170430000Y-116223500I-225000J0D01*
G01*
X169930000Y-116223500D01*
G75*
G02*
X169705000Y-115998500I0J225000D01*
G01*
X169705000Y-115548500D01*
G75*
G02*
X169930000Y-115323500I225000J0D01*
G01*
G37*
G36*
G01*
X169930000Y-113773500D02*
X170430000Y-113773500D01*
G75*
G02*
X170655000Y-113998500I0J-225000D01*
G01*
X170655000Y-114448500D01*
G75*
G02*
X170430000Y-114673500I-225000J0D01*
G01*
X169930000Y-114673500D01*
G75*
G02*
X169705000Y-114448500I0J225000D01*
G01*
X169705000Y-113998500D01*
G75*
G02*
X169930000Y-113773500I225000J0D01*
G01*
G37*
%TD*%
D11*
%TO.C,U13*%
X134063499Y-109251750D03*
X133413500Y-109251750D03*
X132763501Y-109251750D03*
X132763501Y-111474250D03*
X133413500Y-111474250D03*
X134063499Y-111474250D03*
%TD*%
%TO.C,U12*%
X138381499Y-109251750D03*
X137731500Y-109251750D03*
X137081501Y-109251750D03*
X137081501Y-111474250D03*
X137731500Y-111474250D03*
X138381499Y-111474250D03*
%TD*%
%TO.C,U11*%
X142699499Y-109251750D03*
X142049500Y-109251750D03*
X141399501Y-109251750D03*
X141399501Y-111474250D03*
X142049500Y-111474250D03*
X142699499Y-111474250D03*
%TD*%
%TO.C,U10*%
X147017499Y-109251750D03*
X146367500Y-109251750D03*
X145717501Y-109251750D03*
X145717501Y-111474250D03*
X146367500Y-111474250D03*
X147017499Y-111474250D03*
%TD*%
%TO.C,U9*%
X151335499Y-109251750D03*
X150685500Y-109251750D03*
X150035501Y-109251750D03*
X150035501Y-111474250D03*
X150685500Y-111474250D03*
X151335499Y-111474250D03*
%TD*%
%TO.C,U8*%
X155653499Y-109251750D03*
X155003500Y-109251750D03*
X154353501Y-109251750D03*
X154353501Y-111474250D03*
X155003500Y-111474250D03*
X155653499Y-111474250D03*
%TD*%
%TO.C,U7*%
X159971499Y-109251750D03*
X159321500Y-109251750D03*
X158671501Y-109251750D03*
X158671501Y-111474250D03*
X159321500Y-111474250D03*
X159971499Y-111474250D03*
%TD*%
%TO.C,U6*%
X164289499Y-109251750D03*
X163639500Y-109251750D03*
X162989501Y-109251750D03*
X162989501Y-111474250D03*
X163639500Y-111474250D03*
X164289499Y-111474250D03*
%TD*%
%TO.C,U5*%
G36*
G01*
X153710500Y-120499000D02*
X154010500Y-120499000D01*
G75*
G02*
X154160500Y-120649000I0J-150000D01*
G01*
X154160500Y-122299000D01*
G75*
G02*
X154010500Y-122449000I-150000J0D01*
G01*
X153710500Y-122449000D01*
G75*
G02*
X153560500Y-122299000I0J150000D01*
G01*
X153560500Y-120649000D01*
G75*
G02*
X153710500Y-120499000I150000J0D01*
G01*
G37*
G36*
G01*
X152440500Y-120499000D02*
X152740500Y-120499000D01*
G75*
G02*
X152890500Y-120649000I0J-150000D01*
G01*
X152890500Y-122299000D01*
G75*
G02*
X152740500Y-122449000I-150000J0D01*
G01*
X152440500Y-122449000D01*
G75*
G02*
X152290500Y-122299000I0J150000D01*
G01*
X152290500Y-120649000D01*
G75*
G02*
X152440500Y-120499000I150000J0D01*
G01*
G37*
G36*
G01*
X151170500Y-120499000D02*
X151470500Y-120499000D01*
G75*
G02*
X151620500Y-120649000I0J-150000D01*
G01*
X151620500Y-122299000D01*
G75*
G02*
X151470500Y-122449000I-150000J0D01*
G01*
X151170500Y-122449000D01*
G75*
G02*
X151020500Y-122299000I0J150000D01*
G01*
X151020500Y-120649000D01*
G75*
G02*
X151170500Y-120499000I150000J0D01*
G01*
G37*
G36*
G01*
X149900500Y-120499000D02*
X150200500Y-120499000D01*
G75*
G02*
X150350500Y-120649000I0J-150000D01*
G01*
X150350500Y-122299000D01*
G75*
G02*
X150200500Y-122449000I-150000J0D01*
G01*
X149900500Y-122449000D01*
G75*
G02*
X149750500Y-122299000I0J150000D01*
G01*
X149750500Y-120649000D01*
G75*
G02*
X149900500Y-120499000I150000J0D01*
G01*
G37*
G36*
G01*
X148630500Y-120499000D02*
X148930500Y-120499000D01*
G75*
G02*
X149080500Y-120649000I0J-150000D01*
G01*
X149080500Y-122299000D01*
G75*
G02*
X148930500Y-122449000I-150000J0D01*
G01*
X148630500Y-122449000D01*
G75*
G02*
X148480500Y-122299000I0J150000D01*
G01*
X148480500Y-120649000D01*
G75*
G02*
X148630500Y-120499000I150000J0D01*
G01*
G37*
G36*
G01*
X147360500Y-120499000D02*
X147660500Y-120499000D01*
G75*
G02*
X147810500Y-120649000I0J-150000D01*
G01*
X147810500Y-122299000D01*
G75*
G02*
X147660500Y-122449000I-150000J0D01*
G01*
X147360500Y-122449000D01*
G75*
G02*
X147210500Y-122299000I0J150000D01*
G01*
X147210500Y-120649000D01*
G75*
G02*
X147360500Y-120499000I150000J0D01*
G01*
G37*
G36*
G01*
X146090500Y-120499000D02*
X146390500Y-120499000D01*
G75*
G02*
X146540500Y-120649000I0J-150000D01*
G01*
X146540500Y-122299000D01*
G75*
G02*
X146390500Y-122449000I-150000J0D01*
G01*
X146090500Y-122449000D01*
G75*
G02*
X145940500Y-122299000I0J150000D01*
G01*
X145940500Y-120649000D01*
G75*
G02*
X146090500Y-120499000I150000J0D01*
G01*
G37*
G36*
G01*
X144820500Y-120499000D02*
X145120500Y-120499000D01*
G75*
G02*
X145270500Y-120649000I0J-150000D01*
G01*
X145270500Y-122299000D01*
G75*
G02*
X145120500Y-122449000I-150000J0D01*
G01*
X144820500Y-122449000D01*
G75*
G02*
X144670500Y-122299000I0J150000D01*
G01*
X144670500Y-120649000D01*
G75*
G02*
X144820500Y-120499000I150000J0D01*
G01*
G37*
G36*
G01*
X144820500Y-115549000D02*
X145120500Y-115549000D01*
G75*
G02*
X145270500Y-115699000I0J-150000D01*
G01*
X145270500Y-117349000D01*
G75*
G02*
X145120500Y-117499000I-150000J0D01*
G01*
X144820500Y-117499000D01*
G75*
G02*
X144670500Y-117349000I0J150000D01*
G01*
X144670500Y-115699000D01*
G75*
G02*
X144820500Y-115549000I150000J0D01*
G01*
G37*
G36*
G01*
X146090500Y-115549000D02*
X146390500Y-115549000D01*
G75*
G02*
X146540500Y-115699000I0J-150000D01*
G01*
X146540500Y-117349000D01*
G75*
G02*
X146390500Y-117499000I-150000J0D01*
G01*
X146090500Y-117499000D01*
G75*
G02*
X145940500Y-117349000I0J150000D01*
G01*
X145940500Y-115699000D01*
G75*
G02*
X146090500Y-115549000I150000J0D01*
G01*
G37*
G36*
G01*
X147360500Y-115549000D02*
X147660500Y-115549000D01*
G75*
G02*
X147810500Y-115699000I0J-150000D01*
G01*
X147810500Y-117349000D01*
G75*
G02*
X147660500Y-117499000I-150000J0D01*
G01*
X147360500Y-117499000D01*
G75*
G02*
X147210500Y-117349000I0J150000D01*
G01*
X147210500Y-115699000D01*
G75*
G02*
X147360500Y-115549000I150000J0D01*
G01*
G37*
G36*
G01*
X148630500Y-115549000D02*
X148930500Y-115549000D01*
G75*
G02*
X149080500Y-115699000I0J-150000D01*
G01*
X149080500Y-117349000D01*
G75*
G02*
X148930500Y-117499000I-150000J0D01*
G01*
X148630500Y-117499000D01*
G75*
G02*
X148480500Y-117349000I0J150000D01*
G01*
X148480500Y-115699000D01*
G75*
G02*
X148630500Y-115549000I150000J0D01*
G01*
G37*
G36*
G01*
X149900500Y-115549000D02*
X150200500Y-115549000D01*
G75*
G02*
X150350500Y-115699000I0J-150000D01*
G01*
X150350500Y-117349000D01*
G75*
G02*
X150200500Y-117499000I-150000J0D01*
G01*
X149900500Y-117499000D01*
G75*
G02*
X149750500Y-117349000I0J150000D01*
G01*
X149750500Y-115699000D01*
G75*
G02*
X149900500Y-115549000I150000J0D01*
G01*
G37*
G36*
G01*
X151170500Y-115549000D02*
X151470500Y-115549000D01*
G75*
G02*
X151620500Y-115699000I0J-150000D01*
G01*
X151620500Y-117349000D01*
G75*
G02*
X151470500Y-117499000I-150000J0D01*
G01*
X151170500Y-117499000D01*
G75*
G02*
X151020500Y-117349000I0J150000D01*
G01*
X151020500Y-115699000D01*
G75*
G02*
X151170500Y-115549000I150000J0D01*
G01*
G37*
G36*
G01*
X152440500Y-115549000D02*
X152740500Y-115549000D01*
G75*
G02*
X152890500Y-115699000I0J-150000D01*
G01*
X152890500Y-117349000D01*
G75*
G02*
X152740500Y-117499000I-150000J0D01*
G01*
X152440500Y-117499000D01*
G75*
G02*
X152290500Y-117349000I0J150000D01*
G01*
X152290500Y-115699000D01*
G75*
G02*
X152440500Y-115549000I150000J0D01*
G01*
G37*
G36*
G01*
X153710500Y-115549000D02*
X154010500Y-115549000D01*
G75*
G02*
X154160500Y-115699000I0J-150000D01*
G01*
X154160500Y-117349000D01*
G75*
G02*
X154010500Y-117499000I-150000J0D01*
G01*
X153710500Y-117499000D01*
G75*
G02*
X153560500Y-117349000I0J150000D01*
G01*
X153560500Y-115699000D01*
G75*
G02*
X153710500Y-115549000I150000J0D01*
G01*
G37*
%TD*%
D10*
%TO.C,U2*%
X152018000Y-103541000D03*
X150118000Y-103541000D03*
X150118000Y-101341000D03*
X151068000Y-101341000D03*
X152018000Y-101341000D03*
%TD*%
%TO.C,U1*%
G36*
G01*
X156382000Y-103202500D02*
X156795000Y-103202500D01*
G75*
G02*
X156883500Y-103291000I0J-88500D01*
G01*
X156883500Y-104324000D01*
G75*
G02*
X156795000Y-104412500I-88500J0D01*
G01*
X156382000Y-104412500D01*
G75*
G02*
X156293500Y-104324000I0J88500D01*
G01*
X156293500Y-103291000D01*
G75*
G02*
X156382000Y-103202500I88500J0D01*
G01*
G37*
G36*
G01*
X154482000Y-103202500D02*
X154895000Y-103202500D01*
G75*
G02*
X154983500Y-103291000I0J-88500D01*
G01*
X154983500Y-104324000D01*
G75*
G02*
X154895000Y-104412500I-88500J0D01*
G01*
X154482000Y-104412500D01*
G75*
G02*
X154393500Y-104324000I0J88500D01*
G01*
X154393500Y-103291000D01*
G75*
G02*
X154482000Y-103202500I88500J0D01*
G01*
G37*
G36*
G01*
X154482000Y-100692500D02*
X154895000Y-100692500D01*
G75*
G02*
X154983500Y-100781000I0J-88500D01*
G01*
X154983500Y-101814000D01*
G75*
G02*
X154895000Y-101902500I-88500J0D01*
G01*
X154482000Y-101902500D01*
G75*
G02*
X154393500Y-101814000I0J88500D01*
G01*
X154393500Y-100781000D01*
G75*
G02*
X154482000Y-100692500I88500J0D01*
G01*
G37*
G36*
G01*
X155432000Y-100692500D02*
X155845000Y-100692500D01*
G75*
G02*
X155933500Y-100781000I0J-88500D01*
G01*
X155933500Y-101814000D01*
G75*
G02*
X155845000Y-101902500I-88500J0D01*
G01*
X155432000Y-101902500D01*
G75*
G02*
X155343500Y-101814000I0J88500D01*
G01*
X155343500Y-100781000D01*
G75*
G02*
X155432000Y-100692500I88500J0D01*
G01*
G37*
G36*
G01*
X156382000Y-100692500D02*
X156795000Y-100692500D01*
G75*
G02*
X156883500Y-100781000I0J-88500D01*
G01*
X156883500Y-101814000D01*
G75*
G02*
X156795000Y-101902500I-88500J0D01*
G01*
X156382000Y-101902500D01*
G75*
G02*
X156293500Y-101814000I0J88500D01*
G01*
X156293500Y-100781000D01*
G75*
G02*
X156382000Y-100692500I88500J0D01*
G01*
G37*
%TD*%
%TO.C,R18*%
G36*
G01*
X134092500Y-107844000D02*
X134092500Y-107294000D01*
G75*
G02*
X134292500Y-107094000I200000J0D01*
G01*
X134692500Y-107094000D01*
G75*
G02*
X134892500Y-107294000I0J-200000D01*
G01*
X134892500Y-107844000D01*
G75*
G02*
X134692500Y-108044000I-200000J0D01*
G01*
X134292500Y-108044000D01*
G75*
G02*
X134092500Y-107844000I0J200000D01*
G01*
G37*
G36*
G01*
X132442500Y-107844000D02*
X132442500Y-107294000D01*
G75*
G02*
X132642500Y-107094000I200000J0D01*
G01*
X133042500Y-107094000D01*
G75*
G02*
X133242500Y-107294000I0J-200000D01*
G01*
X133242500Y-107844000D01*
G75*
G02*
X133042500Y-108044000I-200000J0D01*
G01*
X132642500Y-108044000D01*
G75*
G02*
X132442500Y-107844000I0J200000D01*
G01*
G37*
%TD*%
%TO.C,R17*%
G36*
G01*
X138410500Y-107844000D02*
X138410500Y-107294000D01*
G75*
G02*
X138610500Y-107094000I200000J0D01*
G01*
X139010500Y-107094000D01*
G75*
G02*
X139210500Y-107294000I0J-200000D01*
G01*
X139210500Y-107844000D01*
G75*
G02*
X139010500Y-108044000I-200000J0D01*
G01*
X138610500Y-108044000D01*
G75*
G02*
X138410500Y-107844000I0J200000D01*
G01*
G37*
G36*
G01*
X136760500Y-107844000D02*
X136760500Y-107294000D01*
G75*
G02*
X136960500Y-107094000I200000J0D01*
G01*
X137360500Y-107094000D01*
G75*
G02*
X137560500Y-107294000I0J-200000D01*
G01*
X137560500Y-107844000D01*
G75*
G02*
X137360500Y-108044000I-200000J0D01*
G01*
X136960500Y-108044000D01*
G75*
G02*
X136760500Y-107844000I0J200000D01*
G01*
G37*
%TD*%
%TO.C,R16*%
G36*
G01*
X142728500Y-107844000D02*
X142728500Y-107294000D01*
G75*
G02*
X142928500Y-107094000I200000J0D01*
G01*
X143328500Y-107094000D01*
G75*
G02*
X143528500Y-107294000I0J-200000D01*
G01*
X143528500Y-107844000D01*
G75*
G02*
X143328500Y-108044000I-200000J0D01*
G01*
X142928500Y-108044000D01*
G75*
G02*
X142728500Y-107844000I0J200000D01*
G01*
G37*
G36*
G01*
X141078500Y-107844000D02*
X141078500Y-107294000D01*
G75*
G02*
X141278500Y-107094000I200000J0D01*
G01*
X141678500Y-107094000D01*
G75*
G02*
X141878500Y-107294000I0J-200000D01*
G01*
X141878500Y-107844000D01*
G75*
G02*
X141678500Y-108044000I-200000J0D01*
G01*
X141278500Y-108044000D01*
G75*
G02*
X141078500Y-107844000I0J200000D01*
G01*
G37*
%TD*%
%TO.C,R15*%
G36*
G01*
X147046500Y-107844000D02*
X147046500Y-107294000D01*
G75*
G02*
X147246500Y-107094000I200000J0D01*
G01*
X147646500Y-107094000D01*
G75*
G02*
X147846500Y-107294000I0J-200000D01*
G01*
X147846500Y-107844000D01*
G75*
G02*
X147646500Y-108044000I-200000J0D01*
G01*
X147246500Y-108044000D01*
G75*
G02*
X147046500Y-107844000I0J200000D01*
G01*
G37*
G36*
G01*
X145396500Y-107844000D02*
X145396500Y-107294000D01*
G75*
G02*
X145596500Y-107094000I200000J0D01*
G01*
X145996500Y-107094000D01*
G75*
G02*
X146196500Y-107294000I0J-200000D01*
G01*
X146196500Y-107844000D01*
G75*
G02*
X145996500Y-108044000I-200000J0D01*
G01*
X145596500Y-108044000D01*
G75*
G02*
X145396500Y-107844000I0J200000D01*
G01*
G37*
%TD*%
%TO.C,R14*%
G36*
G01*
X151364500Y-107844000D02*
X151364500Y-107294000D01*
G75*
G02*
X151564500Y-107094000I200000J0D01*
G01*
X151964500Y-107094000D01*
G75*
G02*
X152164500Y-107294000I0J-200000D01*
G01*
X152164500Y-107844000D01*
G75*
G02*
X151964500Y-108044000I-200000J0D01*
G01*
X151564500Y-108044000D01*
G75*
G02*
X151364500Y-107844000I0J200000D01*
G01*
G37*
G36*
G01*
X149714500Y-107844000D02*
X149714500Y-107294000D01*
G75*
G02*
X149914500Y-107094000I200000J0D01*
G01*
X150314500Y-107094000D01*
G75*
G02*
X150514500Y-107294000I0J-200000D01*
G01*
X150514500Y-107844000D01*
G75*
G02*
X150314500Y-108044000I-200000J0D01*
G01*
X149914500Y-108044000D01*
G75*
G02*
X149714500Y-107844000I0J200000D01*
G01*
G37*
%TD*%
%TO.C,R13*%
G36*
G01*
X155682500Y-107844000D02*
X155682500Y-107294000D01*
G75*
G02*
X155882500Y-107094000I200000J0D01*
G01*
X156282500Y-107094000D01*
G75*
G02*
X156482500Y-107294000I0J-200000D01*
G01*
X156482500Y-107844000D01*
G75*
G02*
X156282500Y-108044000I-200000J0D01*
G01*
X155882500Y-108044000D01*
G75*
G02*
X155682500Y-107844000I0J200000D01*
G01*
G37*
G36*
G01*
X154032500Y-107844000D02*
X154032500Y-107294000D01*
G75*
G02*
X154232500Y-107094000I200000J0D01*
G01*
X154632500Y-107094000D01*
G75*
G02*
X154832500Y-107294000I0J-200000D01*
G01*
X154832500Y-107844000D01*
G75*
G02*
X154632500Y-108044000I-200000J0D01*
G01*
X154232500Y-108044000D01*
G75*
G02*
X154032500Y-107844000I0J200000D01*
G01*
G37*
%TD*%
%TO.C,R12*%
G36*
G01*
X160000500Y-107844000D02*
X160000500Y-107294000D01*
G75*
G02*
X160200500Y-107094000I200000J0D01*
G01*
X160600500Y-107094000D01*
G75*
G02*
X160800500Y-107294000I0J-200000D01*
G01*
X160800500Y-107844000D01*
G75*
G02*
X160600500Y-108044000I-200000J0D01*
G01*
X160200500Y-108044000D01*
G75*
G02*
X160000500Y-107844000I0J200000D01*
G01*
G37*
G36*
G01*
X158350500Y-107844000D02*
X158350500Y-107294000D01*
G75*
G02*
X158550500Y-107094000I200000J0D01*
G01*
X158950500Y-107094000D01*
G75*
G02*
X159150500Y-107294000I0J-200000D01*
G01*
X159150500Y-107844000D01*
G75*
G02*
X158950500Y-108044000I-200000J0D01*
G01*
X158550500Y-108044000D01*
G75*
G02*
X158350500Y-107844000I0J200000D01*
G01*
G37*
%TD*%
%TO.C,R11*%
G36*
G01*
X164381500Y-107844000D02*
X164381500Y-107294000D01*
G75*
G02*
X164581500Y-107094000I200000J0D01*
G01*
X164981500Y-107094000D01*
G75*
G02*
X165181500Y-107294000I0J-200000D01*
G01*
X165181500Y-107844000D01*
G75*
G02*
X164981500Y-108044000I-200000J0D01*
G01*
X164581500Y-108044000D01*
G75*
G02*
X164381500Y-107844000I0J200000D01*
G01*
G37*
G36*
G01*
X162731500Y-107844000D02*
X162731500Y-107294000D01*
G75*
G02*
X162931500Y-107094000I200000J0D01*
G01*
X163331500Y-107094000D01*
G75*
G02*
X163531500Y-107294000I0J-200000D01*
G01*
X163531500Y-107844000D01*
G75*
G02*
X163331500Y-108044000I-200000J0D01*
G01*
X162931500Y-108044000D01*
G75*
G02*
X162731500Y-107844000I0J200000D01*
G01*
G37*
%TD*%
%TO.C,R5*%
G36*
G01*
X144990000Y-123423000D02*
X144990000Y-123973000D01*
G75*
G02*
X144790000Y-124173000I-200000J0D01*
G01*
X144390000Y-124173000D01*
G75*
G02*
X144190000Y-123973000I0J200000D01*
G01*
X144190000Y-123423000D01*
G75*
G02*
X144390000Y-123223000I200000J0D01*
G01*
X144790000Y-123223000D01*
G75*
G02*
X144990000Y-123423000I0J-200000D01*
G01*
G37*
G36*
G01*
X146640000Y-123423000D02*
X146640000Y-123973000D01*
G75*
G02*
X146440000Y-124173000I-200000J0D01*
G01*
X146040000Y-124173000D01*
G75*
G02*
X145840000Y-123973000I0J200000D01*
G01*
X145840000Y-123423000D01*
G75*
G02*
X146040000Y-123223000I200000J0D01*
G01*
X146440000Y-123223000D01*
G75*
G02*
X146640000Y-123423000I0J-200000D01*
G01*
G37*
%TD*%
%TO.C,R3*%
G36*
G01*
X150031000Y-123973000D02*
X150031000Y-123423000D01*
G75*
G02*
X150231000Y-123223000I200000J0D01*
G01*
X150631000Y-123223000D01*
G75*
G02*
X150831000Y-123423000I0J-200000D01*
G01*
X150831000Y-123973000D01*
G75*
G02*
X150631000Y-124173000I-200000J0D01*
G01*
X150231000Y-124173000D01*
G75*
G02*
X150031000Y-123973000I0J200000D01*
G01*
G37*
G36*
G01*
X148381000Y-123973000D02*
X148381000Y-123423000D01*
G75*
G02*
X148581000Y-123223000I200000J0D01*
G01*
X148981000Y-123223000D01*
G75*
G02*
X149181000Y-123423000I0J-200000D01*
G01*
X149181000Y-123973000D01*
G75*
G02*
X148981000Y-124173000I-200000J0D01*
G01*
X148581000Y-124173000D01*
G75*
G02*
X148381000Y-123973000I0J200000D01*
G01*
G37*
%TD*%
%TO.C,R1*%
G36*
G01*
X156524000Y-99148001D02*
X156524000Y-97897999D01*
G75*
G02*
X156773999Y-97648000I249999J0D01*
G01*
X157399001Y-97648000D01*
G75*
G02*
X157649000Y-97897999I0J-249999D01*
G01*
X157649000Y-99148001D01*
G75*
G02*
X157399001Y-99398000I-249999J0D01*
G01*
X156773999Y-99398000D01*
G75*
G02*
X156524000Y-99148001I0J249999D01*
G01*
G37*
G36*
G01*
X153599000Y-99148001D02*
X153599000Y-97897999D01*
G75*
G02*
X153848999Y-97648000I249999J0D01*
G01*
X154474001Y-97648000D01*
G75*
G02*
X154724000Y-97897999I0J-249999D01*
G01*
X154724000Y-99148001D01*
G75*
G02*
X154474001Y-99398000I-249999J0D01*
G01*
X153848999Y-99398000D01*
G75*
G02*
X153599000Y-99148001I0J249999D01*
G01*
G37*
%TD*%
%TO.C,C16*%
G36*
G01*
X158492000Y-102227500D02*
X157992000Y-102227500D01*
G75*
G02*
X157767000Y-102002500I0J225000D01*
G01*
X157767000Y-101552500D01*
G75*
G02*
X157992000Y-101327500I225000J0D01*
G01*
X158492000Y-101327500D01*
G75*
G02*
X158717000Y-101552500I0J-225000D01*
G01*
X158717000Y-102002500D01*
G75*
G02*
X158492000Y-102227500I-225000J0D01*
G01*
G37*
G36*
G01*
X158492000Y-103777500D02*
X157992000Y-103777500D01*
G75*
G02*
X157767000Y-103552500I0J225000D01*
G01*
X157767000Y-103102500D01*
G75*
G02*
X157992000Y-102877500I225000J0D01*
G01*
X158492000Y-102877500D01*
G75*
G02*
X158717000Y-103102500I0J-225000D01*
G01*
X158717000Y-103552500D01*
G75*
G02*
X158492000Y-103777500I-225000J0D01*
G01*
G37*
%TD*%
%TO.C,C15*%
G36*
G01*
X148149500Y-102814000D02*
X148649500Y-102814000D01*
G75*
G02*
X148874500Y-103039000I0J-225000D01*
G01*
X148874500Y-103489000D01*
G75*
G02*
X148649500Y-103714000I-225000J0D01*
G01*
X148149500Y-103714000D01*
G75*
G02*
X147924500Y-103489000I0J225000D01*
G01*
X147924500Y-103039000D01*
G75*
G02*
X148149500Y-102814000I225000J0D01*
G01*
G37*
G36*
G01*
X148149500Y-101264000D02*
X148649500Y-101264000D01*
G75*
G02*
X148874500Y-101489000I0J-225000D01*
G01*
X148874500Y-101939000D01*
G75*
G02*
X148649500Y-102164000I-225000J0D01*
G01*
X148149500Y-102164000D01*
G75*
G02*
X147924500Y-101939000I0J225000D01*
G01*
X147924500Y-101489000D01*
G75*
G02*
X148149500Y-101264000I225000J0D01*
G01*
G37*
%TD*%
%TO.C,C14*%
G36*
G01*
X156269500Y-118674000D02*
X155769500Y-118674000D01*
G75*
G02*
X155544500Y-118449000I0J225000D01*
G01*
X155544500Y-117999000D01*
G75*
G02*
X155769500Y-117774000I225000J0D01*
G01*
X156269500Y-117774000D01*
G75*
G02*
X156494500Y-117999000I0J-225000D01*
G01*
X156494500Y-118449000D01*
G75*
G02*
X156269500Y-118674000I-225000J0D01*
G01*
G37*
G36*
G01*
X156269500Y-120224000D02*
X155769500Y-120224000D01*
G75*
G02*
X155544500Y-119999000I0J225000D01*
G01*
X155544500Y-119549000D01*
G75*
G02*
X155769500Y-119324000I225000J0D01*
G01*
X156269500Y-119324000D01*
G75*
G02*
X156494500Y-119549000I0J-225000D01*
G01*
X156494500Y-119999000D01*
G75*
G02*
X156269500Y-120224000I-225000J0D01*
G01*
G37*
%TD*%
%TO.C,C12*%
G36*
G01*
X140140500Y-110038000D02*
X139640500Y-110038000D01*
G75*
G02*
X139415500Y-109813000I0J225000D01*
G01*
X139415500Y-109363000D01*
G75*
G02*
X139640500Y-109138000I225000J0D01*
G01*
X140140500Y-109138000D01*
G75*
G02*
X140365500Y-109363000I0J-225000D01*
G01*
X140365500Y-109813000D01*
G75*
G02*
X140140500Y-110038000I-225000J0D01*
G01*
G37*
G36*
G01*
X140140500Y-111588000D02*
X139640500Y-111588000D01*
G75*
G02*
X139415500Y-111363000I0J225000D01*
G01*
X139415500Y-110913000D01*
G75*
G02*
X139640500Y-110688000I225000J0D01*
G01*
X140140500Y-110688000D01*
G75*
G02*
X140365500Y-110913000I0J-225000D01*
G01*
X140365500Y-111363000D01*
G75*
G02*
X140140500Y-111588000I-225000J0D01*
G01*
G37*
%TD*%
%TO.C,C11*%
G36*
G01*
X135822500Y-110038000D02*
X135322500Y-110038000D01*
G75*
G02*
X135097500Y-109813000I0J225000D01*
G01*
X135097500Y-109363000D01*
G75*
G02*
X135322500Y-109138000I225000J0D01*
G01*
X135822500Y-109138000D01*
G75*
G02*
X136047500Y-109363000I0J-225000D01*
G01*
X136047500Y-109813000D01*
G75*
G02*
X135822500Y-110038000I-225000J0D01*
G01*
G37*
G36*
G01*
X135822500Y-111588000D02*
X135322500Y-111588000D01*
G75*
G02*
X135097500Y-111363000I0J225000D01*
G01*
X135097500Y-110913000D01*
G75*
G02*
X135322500Y-110688000I225000J0D01*
G01*
X135822500Y-110688000D01*
G75*
G02*
X136047500Y-110913000I0J-225000D01*
G01*
X136047500Y-111363000D01*
G75*
G02*
X135822500Y-111588000I-225000J0D01*
G01*
G37*
%TD*%
%TO.C,C10*%
G36*
G01*
X153094500Y-110038000D02*
X152594500Y-110038000D01*
G75*
G02*
X152369500Y-109813000I0J225000D01*
G01*
X152369500Y-109363000D01*
G75*
G02*
X152594500Y-109138000I225000J0D01*
G01*
X153094500Y-109138000D01*
G75*
G02*
X153319500Y-109363000I0J-225000D01*
G01*
X153319500Y-109813000D01*
G75*
G02*
X153094500Y-110038000I-225000J0D01*
G01*
G37*
G36*
G01*
X153094500Y-111588000D02*
X152594500Y-111588000D01*
G75*
G02*
X152369500Y-111363000I0J225000D01*
G01*
X152369500Y-110913000D01*
G75*
G02*
X152594500Y-110688000I225000J0D01*
G01*
X153094500Y-110688000D01*
G75*
G02*
X153319500Y-110913000I0J-225000D01*
G01*
X153319500Y-111363000D01*
G75*
G02*
X153094500Y-111588000I-225000J0D01*
G01*
G37*
%TD*%
%TO.C,C9*%
G36*
G01*
X148776500Y-110038000D02*
X148276500Y-110038000D01*
G75*
G02*
X148051500Y-109813000I0J225000D01*
G01*
X148051500Y-109363000D01*
G75*
G02*
X148276500Y-109138000I225000J0D01*
G01*
X148776500Y-109138000D01*
G75*
G02*
X149001500Y-109363000I0J-225000D01*
G01*
X149001500Y-109813000D01*
G75*
G02*
X148776500Y-110038000I-225000J0D01*
G01*
G37*
G36*
G01*
X148776500Y-111588000D02*
X148276500Y-111588000D01*
G75*
G02*
X148051500Y-111363000I0J225000D01*
G01*
X148051500Y-110913000D01*
G75*
G02*
X148276500Y-110688000I225000J0D01*
G01*
X148776500Y-110688000D01*
G75*
G02*
X149001500Y-110913000I0J-225000D01*
G01*
X149001500Y-111363000D01*
G75*
G02*
X148776500Y-111588000I-225000J0D01*
G01*
G37*
%TD*%
%TO.C,C8*%
G36*
G01*
X157412500Y-110038000D02*
X156912500Y-110038000D01*
G75*
G02*
X156687500Y-109813000I0J225000D01*
G01*
X156687500Y-109363000D01*
G75*
G02*
X156912500Y-109138000I225000J0D01*
G01*
X157412500Y-109138000D01*
G75*
G02*
X157637500Y-109363000I0J-225000D01*
G01*
X157637500Y-109813000D01*
G75*
G02*
X157412500Y-110038000I-225000J0D01*
G01*
G37*
G36*
G01*
X157412500Y-111588000D02*
X156912500Y-111588000D01*
G75*
G02*
X156687500Y-111363000I0J225000D01*
G01*
X156687500Y-110913000D01*
G75*
G02*
X156912500Y-110688000I225000J0D01*
G01*
X157412500Y-110688000D01*
G75*
G02*
X157637500Y-110913000I0J-225000D01*
G01*
X157637500Y-111363000D01*
G75*
G02*
X157412500Y-111588000I-225000J0D01*
G01*
G37*
%TD*%
%TO.C,C7*%
G36*
G01*
X161730500Y-110038000D02*
X161230500Y-110038000D01*
G75*
G02*
X161005500Y-109813000I0J225000D01*
G01*
X161005500Y-109363000D01*
G75*
G02*
X161230500Y-109138000I225000J0D01*
G01*
X161730500Y-109138000D01*
G75*
G02*
X161955500Y-109363000I0J-225000D01*
G01*
X161955500Y-109813000D01*
G75*
G02*
X161730500Y-110038000I-225000J0D01*
G01*
G37*
G36*
G01*
X161730500Y-111588000D02*
X161230500Y-111588000D01*
G75*
G02*
X161005500Y-111363000I0J225000D01*
G01*
X161005500Y-110913000D01*
G75*
G02*
X161230500Y-110688000I225000J0D01*
G01*
X161730500Y-110688000D01*
G75*
G02*
X161955500Y-110913000I0J-225000D01*
G01*
X161955500Y-111363000D01*
G75*
G02*
X161730500Y-111588000I-225000J0D01*
G01*
G37*
%TD*%
%TO.C,C6*%
G36*
G01*
X166048500Y-110038000D02*
X165548500Y-110038000D01*
G75*
G02*
X165323500Y-109813000I0J225000D01*
G01*
X165323500Y-109363000D01*
G75*
G02*
X165548500Y-109138000I225000J0D01*
G01*
X166048500Y-109138000D01*
G75*
G02*
X166273500Y-109363000I0J-225000D01*
G01*
X166273500Y-109813000D01*
G75*
G02*
X166048500Y-110038000I-225000J0D01*
G01*
G37*
G36*
G01*
X166048500Y-111588000D02*
X165548500Y-111588000D01*
G75*
G02*
X165323500Y-111363000I0J225000D01*
G01*
X165323500Y-110913000D01*
G75*
G02*
X165548500Y-110688000I225000J0D01*
G01*
X166048500Y-110688000D01*
G75*
G02*
X166273500Y-110913000I0J-225000D01*
G01*
X166273500Y-111363000D01*
G75*
G02*
X166048500Y-111588000I-225000J0D01*
G01*
G37*
%TD*%
%TO.C,C5*%
G36*
G01*
X144458500Y-110038000D02*
X143958500Y-110038000D01*
G75*
G02*
X143733500Y-109813000I0J225000D01*
G01*
X143733500Y-109363000D01*
G75*
G02*
X143958500Y-109138000I225000J0D01*
G01*
X144458500Y-109138000D01*
G75*
G02*
X144683500Y-109363000I0J-225000D01*
G01*
X144683500Y-109813000D01*
G75*
G02*
X144458500Y-110038000I-225000J0D01*
G01*
G37*
G36*
G01*
X144458500Y-111588000D02*
X143958500Y-111588000D01*
G75*
G02*
X143733500Y-111363000I0J225000D01*
G01*
X143733500Y-110913000D01*
G75*
G02*
X143958500Y-110688000I225000J0D01*
G01*
X144458500Y-110688000D01*
G75*
G02*
X144683500Y-110913000I0J-225000D01*
G01*
X144683500Y-111363000D01*
G75*
G02*
X144458500Y-111588000I-225000J0D01*
G01*
G37*
%TD*%
M02*
