%TF.GenerationSoftware,KiCad,Pcbnew,(5.1.10)-1*%
%TF.CreationDate,2022-11-08T16:30:58-06:00*%
%TF.ProjectId,curve_tracer,63757276-655f-4747-9261-6365722e6b69,B*%
%TF.SameCoordinates,Original*%
%TF.FileFunction,Legend,Top*%
%TF.FilePolarity,Positive*%
%FSLAX46Y46*%
G04 Gerber Fmt 4.6, Leading zero omitted, Abs format (unit mm)*
G04 Created by KiCad (PCBNEW (5.1.10)-1) date 2022-11-08 16:30:58*
%MOMM*%
%LPD*%
G01*
G04 APERTURE LIST*
%ADD10C,0.100000*%
%ADD11C,0.150000*%
%ADD12C,0.300000*%
%ADD13C,0.120000*%
%ADD14C,0.200000*%
%ADD15C,0.127000*%
G04 APERTURE END LIST*
D10*
X165458241Y-131219041D02*
G75*
G03*
X165458241Y-131219041I-764641J0D01*
G01*
D11*
X143495238Y-126628380D02*
X143161904Y-126152190D01*
X142923809Y-126628380D02*
X142923809Y-125628380D01*
X143304761Y-125628380D01*
X143399999Y-125676000D01*
X143447619Y-125723619D01*
X143495238Y-125818857D01*
X143495238Y-125961714D01*
X143447619Y-126056952D01*
X143399999Y-126104571D01*
X143304761Y-126152190D01*
X142923809Y-126152190D01*
X144304761Y-126580761D02*
X144209523Y-126628380D01*
X144019047Y-126628380D01*
X143923809Y-126580761D01*
X143876190Y-126485523D01*
X143876190Y-126104571D01*
X143923809Y-126009333D01*
X144019047Y-125961714D01*
X144209523Y-125961714D01*
X144304761Y-126009333D01*
X144352380Y-126104571D01*
X144352380Y-126199809D01*
X143876190Y-126295047D01*
X144733333Y-126580761D02*
X144828571Y-126628380D01*
X145019047Y-126628380D01*
X145114285Y-126580761D01*
X145161904Y-126485523D01*
X145161904Y-126437904D01*
X145114285Y-126342666D01*
X145019047Y-126295047D01*
X144876190Y-126295047D01*
X144780952Y-126247428D01*
X144733333Y-126152190D01*
X144733333Y-126104571D01*
X144780952Y-126009333D01*
X144876190Y-125961714D01*
X145019047Y-125961714D01*
X145114285Y-126009333D01*
X145590476Y-126628380D02*
X145590476Y-125961714D01*
X145590476Y-125628380D02*
X145542857Y-125676000D01*
X145590476Y-125723619D01*
X145638095Y-125676000D01*
X145590476Y-125628380D01*
X145590476Y-125723619D01*
X146019047Y-126580761D02*
X146114285Y-126628380D01*
X146304761Y-126628380D01*
X146399999Y-126580761D01*
X146447619Y-126485523D01*
X146447619Y-126437904D01*
X146399999Y-126342666D01*
X146304761Y-126295047D01*
X146161904Y-126295047D01*
X146066666Y-126247428D01*
X146019047Y-126152190D01*
X146019047Y-126104571D01*
X146066666Y-126009333D01*
X146161904Y-125961714D01*
X146304761Y-125961714D01*
X146399999Y-126009333D01*
X146733333Y-125961714D02*
X147114285Y-125961714D01*
X146876190Y-125628380D02*
X146876190Y-126485523D01*
X146923809Y-126580761D01*
X147019047Y-126628380D01*
X147114285Y-126628380D01*
X147590476Y-126628380D02*
X147495238Y-126580761D01*
X147447619Y-126533142D01*
X147399999Y-126437904D01*
X147399999Y-126152190D01*
X147447619Y-126056952D01*
X147495238Y-126009333D01*
X147590476Y-125961714D01*
X147733333Y-125961714D01*
X147828571Y-126009333D01*
X147876190Y-126056952D01*
X147923809Y-126152190D01*
X147923809Y-126437904D01*
X147876190Y-126533142D01*
X147828571Y-126580761D01*
X147733333Y-126628380D01*
X147590476Y-126628380D01*
X148352380Y-126628380D02*
X148352380Y-125961714D01*
X148352380Y-126152190D02*
X148399999Y-126056952D01*
X148447619Y-126009333D01*
X148542857Y-125961714D01*
X148638095Y-125961714D01*
X150209523Y-126628380D02*
X149733333Y-126628380D01*
X149733333Y-125628380D01*
X150971428Y-126628380D02*
X150971428Y-126104571D01*
X150923809Y-126009333D01*
X150828571Y-125961714D01*
X150638095Y-125961714D01*
X150542857Y-126009333D01*
X150971428Y-126580761D02*
X150876190Y-126628380D01*
X150638095Y-126628380D01*
X150542857Y-126580761D01*
X150495238Y-126485523D01*
X150495238Y-126390285D01*
X150542857Y-126295047D01*
X150638095Y-126247428D01*
X150876190Y-126247428D01*
X150971428Y-126199809D01*
X151876190Y-126628380D02*
X151876190Y-125628380D01*
X151876190Y-126580761D02*
X151780952Y-126628380D01*
X151590476Y-126628380D01*
X151495238Y-126580761D01*
X151447619Y-126533142D01*
X151399999Y-126437904D01*
X151399999Y-126152190D01*
X151447619Y-126056952D01*
X151495238Y-126009333D01*
X151590476Y-125961714D01*
X151780952Y-125961714D01*
X151876190Y-126009333D01*
X152780952Y-126628380D02*
X152780952Y-125628380D01*
X152780952Y-126580761D02*
X152685714Y-126628380D01*
X152495238Y-126628380D01*
X152399999Y-126580761D01*
X152352380Y-126533142D01*
X152304761Y-126437904D01*
X152304761Y-126152190D01*
X152352380Y-126056952D01*
X152399999Y-126009333D01*
X152495238Y-125961714D01*
X152685714Y-125961714D01*
X152780952Y-126009333D01*
X153638095Y-126580761D02*
X153542857Y-126628380D01*
X153352380Y-126628380D01*
X153257142Y-126580761D01*
X153209523Y-126485523D01*
X153209523Y-126104571D01*
X153257142Y-126009333D01*
X153352380Y-125961714D01*
X153542857Y-125961714D01*
X153638095Y-126009333D01*
X153685714Y-126104571D01*
X153685714Y-126199809D01*
X153209523Y-126295047D01*
X154114285Y-126628380D02*
X154114285Y-125961714D01*
X154114285Y-126152190D02*
X154161904Y-126056952D01*
X154209523Y-126009333D01*
X154304761Y-125961714D01*
X154399999Y-125961714D01*
X156066666Y-126533142D02*
X156019047Y-126580761D01*
X155876190Y-126628380D01*
X155780952Y-126628380D01*
X155638095Y-126580761D01*
X155542857Y-126485523D01*
X155495238Y-126390285D01*
X155447619Y-126199809D01*
X155447619Y-126056952D01*
X155495238Y-125866476D01*
X155542857Y-125771238D01*
X155638095Y-125676000D01*
X155780952Y-125628380D01*
X155876190Y-125628380D01*
X156019047Y-125676000D01*
X156066666Y-125723619D01*
X156923809Y-125961714D02*
X156923809Y-126628380D01*
X156495238Y-125961714D02*
X156495238Y-126485523D01*
X156542857Y-126580761D01*
X156638095Y-126628380D01*
X156780952Y-126628380D01*
X156876190Y-126580761D01*
X156923809Y-126533142D01*
X157399999Y-126628380D02*
X157399999Y-125961714D01*
X157399999Y-126152190D02*
X157447619Y-126056952D01*
X157495238Y-126009333D01*
X157590476Y-125961714D01*
X157685714Y-125961714D01*
X157923809Y-125961714D02*
X158161904Y-126628380D01*
X158399999Y-125961714D01*
X159161904Y-126580761D02*
X159066666Y-126628380D01*
X158876190Y-126628380D01*
X158780952Y-126580761D01*
X158733333Y-126485523D01*
X158733333Y-126104571D01*
X158780952Y-126009333D01*
X158876190Y-125961714D01*
X159066666Y-125961714D01*
X159161904Y-126009333D01*
X159209523Y-126104571D01*
X159209523Y-126199809D01*
X158733333Y-126295047D01*
X160257142Y-125628380D02*
X160828571Y-125628380D01*
X160542857Y-126628380D02*
X160542857Y-125628380D01*
X161161904Y-126628380D02*
X161161904Y-125961714D01*
X161161904Y-126152190D02*
X161209523Y-126056952D01*
X161257142Y-126009333D01*
X161352380Y-125961714D01*
X161447619Y-125961714D01*
X162209523Y-126628380D02*
X162209523Y-126104571D01*
X162161904Y-126009333D01*
X162066666Y-125961714D01*
X161876190Y-125961714D01*
X161780952Y-126009333D01*
X162209523Y-126580761D02*
X162114285Y-126628380D01*
X161876190Y-126628380D01*
X161780952Y-126580761D01*
X161733333Y-126485523D01*
X161733333Y-126390285D01*
X161780952Y-126295047D01*
X161876190Y-126247428D01*
X162114285Y-126247428D01*
X162209523Y-126199809D01*
X163114285Y-126580761D02*
X163019047Y-126628380D01*
X162828571Y-126628380D01*
X162733333Y-126580761D01*
X162685714Y-126533142D01*
X162638095Y-126437904D01*
X162638095Y-126152190D01*
X162685714Y-126056952D01*
X162733333Y-126009333D01*
X162828571Y-125961714D01*
X163019047Y-125961714D01*
X163114285Y-126009333D01*
X163923809Y-126580761D02*
X163828571Y-126628380D01*
X163638095Y-126628380D01*
X163542857Y-126580761D01*
X163495238Y-126485523D01*
X163495238Y-126104571D01*
X163542857Y-126009333D01*
X163638095Y-125961714D01*
X163828571Y-125961714D01*
X163923809Y-126009333D01*
X163971428Y-126104571D01*
X163971428Y-126199809D01*
X163495238Y-126295047D01*
X164399999Y-126628380D02*
X164399999Y-125961714D01*
X164399999Y-126152190D02*
X164447619Y-126056952D01*
X164495238Y-126009333D01*
X164590476Y-125961714D01*
X164685714Y-125961714D01*
X165066666Y-126580761D02*
X165066666Y-126628380D01*
X165019047Y-126723619D01*
X164971428Y-126771238D01*
X166828571Y-126628380D02*
X166495238Y-126152190D01*
X166257142Y-126628380D02*
X166257142Y-125628380D01*
X166638095Y-125628380D01*
X166733333Y-125676000D01*
X166780952Y-125723619D01*
X166828571Y-125818857D01*
X166828571Y-125961714D01*
X166780952Y-126056952D01*
X166733333Y-126104571D01*
X166638095Y-126152190D01*
X166257142Y-126152190D01*
X167638095Y-126580761D02*
X167542857Y-126628380D01*
X167352380Y-126628380D01*
X167257142Y-126580761D01*
X167209523Y-126485523D01*
X167209523Y-126104571D01*
X167257142Y-126009333D01*
X167352380Y-125961714D01*
X167542857Y-125961714D01*
X167638095Y-126009333D01*
X167685714Y-126104571D01*
X167685714Y-126199809D01*
X167209523Y-126295047D01*
X168019047Y-125961714D02*
X168257142Y-126628380D01*
X168495238Y-125961714D01*
X169971428Y-126104571D02*
X170114285Y-126152190D01*
X170161904Y-126199809D01*
X170209523Y-126295047D01*
X170209523Y-126437904D01*
X170161904Y-126533142D01*
X170114285Y-126580761D01*
X170019047Y-126628380D01*
X169638095Y-126628380D01*
X169638095Y-125628380D01*
X169971428Y-125628380D01*
X170066666Y-125676000D01*
X170114285Y-125723619D01*
X170161904Y-125818857D01*
X170161904Y-125914095D01*
X170114285Y-126009333D01*
X170066666Y-126056952D01*
X169971428Y-126104571D01*
X169638095Y-126104571D01*
X145638095Y-127992666D02*
X146114285Y-127992666D01*
X145542857Y-128278380D02*
X145876190Y-127278380D01*
X146209523Y-128278380D01*
X146971428Y-128278380D02*
X146971428Y-127278380D01*
X146971428Y-128230761D02*
X146876190Y-128278380D01*
X146685714Y-128278380D01*
X146590476Y-128230761D01*
X146542857Y-128183142D01*
X146495238Y-128087904D01*
X146495238Y-127802190D01*
X146542857Y-127706952D01*
X146590476Y-127659333D01*
X146685714Y-127611714D01*
X146876190Y-127611714D01*
X146971428Y-127659333D01*
X147352380Y-127611714D02*
X147590476Y-128278380D01*
X147828571Y-127611714D01*
X148638095Y-128278380D02*
X148638095Y-127754571D01*
X148590476Y-127659333D01*
X148495238Y-127611714D01*
X148304761Y-127611714D01*
X148209523Y-127659333D01*
X148638095Y-128230761D02*
X148542857Y-128278380D01*
X148304761Y-128278380D01*
X148209523Y-128230761D01*
X148161904Y-128135523D01*
X148161904Y-128040285D01*
X148209523Y-127945047D01*
X148304761Y-127897428D01*
X148542857Y-127897428D01*
X148638095Y-127849809D01*
X149114285Y-127611714D02*
X149114285Y-128278380D01*
X149114285Y-127706952D02*
X149161904Y-127659333D01*
X149257142Y-127611714D01*
X149400000Y-127611714D01*
X149495238Y-127659333D01*
X149542857Y-127754571D01*
X149542857Y-128278380D01*
X150447619Y-128230761D02*
X150352380Y-128278380D01*
X150161904Y-128278380D01*
X150066666Y-128230761D01*
X150019047Y-128183142D01*
X149971428Y-128087904D01*
X149971428Y-127802190D01*
X150019047Y-127706952D01*
X150066666Y-127659333D01*
X150161904Y-127611714D01*
X150352380Y-127611714D01*
X150447619Y-127659333D01*
X151257142Y-128230761D02*
X151161904Y-128278380D01*
X150971428Y-128278380D01*
X150876190Y-128230761D01*
X150828571Y-128135523D01*
X150828571Y-127754571D01*
X150876190Y-127659333D01*
X150971428Y-127611714D01*
X151161904Y-127611714D01*
X151257142Y-127659333D01*
X151304761Y-127754571D01*
X151304761Y-127849809D01*
X150828571Y-127945047D01*
X152161904Y-128278380D02*
X152161904Y-127278380D01*
X152161904Y-128230761D02*
X152066666Y-128278380D01*
X151876190Y-128278380D01*
X151780952Y-128230761D01*
X151733333Y-128183142D01*
X151685714Y-128087904D01*
X151685714Y-127802190D01*
X151733333Y-127706952D01*
X151780952Y-127659333D01*
X151876190Y-127611714D01*
X152066666Y-127611714D01*
X152161904Y-127659333D01*
X153780952Y-128230761D02*
X153685714Y-128278380D01*
X153495238Y-128278380D01*
X153400000Y-128230761D01*
X153352380Y-128135523D01*
X153352380Y-127754571D01*
X153400000Y-127659333D01*
X153495238Y-127611714D01*
X153685714Y-127611714D01*
X153780952Y-127659333D01*
X153828571Y-127754571D01*
X153828571Y-127849809D01*
X153352380Y-127945047D01*
X154161904Y-127278380D02*
X154828571Y-128278380D01*
X154828571Y-127278380D02*
X154161904Y-128278380D01*
X155209523Y-127611714D02*
X155209523Y-128611714D01*
X155209523Y-127659333D02*
X155304761Y-127611714D01*
X155495238Y-127611714D01*
X155590476Y-127659333D01*
X155638095Y-127706952D01*
X155685714Y-127802190D01*
X155685714Y-128087904D01*
X155638095Y-128183142D01*
X155590476Y-128230761D01*
X155495238Y-128278380D01*
X155304761Y-128278380D01*
X155209523Y-128230761D01*
X156495238Y-128230761D02*
X156400000Y-128278380D01*
X156209523Y-128278380D01*
X156114285Y-128230761D01*
X156066666Y-128135523D01*
X156066666Y-127754571D01*
X156114285Y-127659333D01*
X156209523Y-127611714D01*
X156400000Y-127611714D01*
X156495238Y-127659333D01*
X156542857Y-127754571D01*
X156542857Y-127849809D01*
X156066666Y-127945047D01*
X156971428Y-128278380D02*
X156971428Y-127611714D01*
X156971428Y-127802190D02*
X157019047Y-127706952D01*
X157066666Y-127659333D01*
X157161904Y-127611714D01*
X157257142Y-127611714D01*
X157590476Y-128278380D02*
X157590476Y-127611714D01*
X157590476Y-127278380D02*
X157542857Y-127326000D01*
X157590476Y-127373619D01*
X157638095Y-127326000D01*
X157590476Y-127278380D01*
X157590476Y-127373619D01*
X158066666Y-128278380D02*
X158066666Y-127611714D01*
X158066666Y-127706952D02*
X158114285Y-127659333D01*
X158209523Y-127611714D01*
X158352380Y-127611714D01*
X158447619Y-127659333D01*
X158495238Y-127754571D01*
X158495238Y-128278380D01*
X158495238Y-127754571D02*
X158542857Y-127659333D01*
X158638095Y-127611714D01*
X158780952Y-127611714D01*
X158876190Y-127659333D01*
X158923809Y-127754571D01*
X158923809Y-128278380D01*
X159780952Y-128230761D02*
X159685714Y-128278380D01*
X159495238Y-128278380D01*
X159400000Y-128230761D01*
X159352380Y-128135523D01*
X159352380Y-127754571D01*
X159400000Y-127659333D01*
X159495238Y-127611714D01*
X159685714Y-127611714D01*
X159780952Y-127659333D01*
X159828571Y-127754571D01*
X159828571Y-127849809D01*
X159352380Y-127945047D01*
X160257142Y-127611714D02*
X160257142Y-128278380D01*
X160257142Y-127706952D02*
X160304761Y-127659333D01*
X160400000Y-127611714D01*
X160542857Y-127611714D01*
X160638095Y-127659333D01*
X160685714Y-127754571D01*
X160685714Y-128278380D01*
X161019047Y-127611714D02*
X161400000Y-127611714D01*
X161161904Y-127278380D02*
X161161904Y-128135523D01*
X161209523Y-128230761D01*
X161304761Y-128278380D01*
X161400000Y-128278380D01*
X162161904Y-128278380D02*
X162161904Y-127754571D01*
X162114285Y-127659333D01*
X162019047Y-127611714D01*
X161828571Y-127611714D01*
X161733333Y-127659333D01*
X162161904Y-128230761D02*
X162066666Y-128278380D01*
X161828571Y-128278380D01*
X161733333Y-128230761D01*
X161685714Y-128135523D01*
X161685714Y-128040285D01*
X161733333Y-127945047D01*
X161828571Y-127897428D01*
X162066666Y-127897428D01*
X162161904Y-127849809D01*
X162780952Y-128278380D02*
X162685714Y-128230761D01*
X162638095Y-128135523D01*
X162638095Y-127278380D01*
X163923809Y-128278380D02*
X163923809Y-127278380D01*
X164304761Y-127278380D01*
X164400000Y-127326000D01*
X164447619Y-127373619D01*
X164495238Y-127468857D01*
X164495238Y-127611714D01*
X164447619Y-127706952D01*
X164400000Y-127754571D01*
X164304761Y-127802190D01*
X163923809Y-127802190D01*
X165352380Y-128278380D02*
X165352380Y-127754571D01*
X165304761Y-127659333D01*
X165209523Y-127611714D01*
X165019047Y-127611714D01*
X164923809Y-127659333D01*
X165352380Y-128230761D02*
X165257142Y-128278380D01*
X165019047Y-128278380D01*
X164923809Y-128230761D01*
X164876190Y-128135523D01*
X164876190Y-128040285D01*
X164923809Y-127945047D01*
X165019047Y-127897428D01*
X165257142Y-127897428D01*
X165352380Y-127849809D01*
X165733333Y-127611714D02*
X165971428Y-128278380D01*
X166209523Y-127611714D02*
X165971428Y-128278380D01*
X165876190Y-128516476D01*
X165828571Y-128564095D01*
X165733333Y-128611714D01*
X166733333Y-128278380D02*
X166638095Y-128230761D01*
X166590476Y-128135523D01*
X166590476Y-127278380D01*
X167257142Y-128278380D02*
X167161904Y-128230761D01*
X167114285Y-128183142D01*
X167066666Y-128087904D01*
X167066666Y-127802190D01*
X167114285Y-127706952D01*
X167161904Y-127659333D01*
X167257142Y-127611714D01*
X167400000Y-127611714D01*
X167495238Y-127659333D01*
X167542857Y-127706952D01*
X167590476Y-127802190D01*
X167590476Y-128087904D01*
X167542857Y-128183142D01*
X167495238Y-128230761D01*
X167400000Y-128278380D01*
X167257142Y-128278380D01*
X168447619Y-128278380D02*
X168447619Y-127754571D01*
X168400000Y-127659333D01*
X168304761Y-127611714D01*
X168114285Y-127611714D01*
X168019047Y-127659333D01*
X168447619Y-128230761D02*
X168352380Y-128278380D01*
X168114285Y-128278380D01*
X168019047Y-128230761D01*
X167971428Y-128135523D01*
X167971428Y-128040285D01*
X168019047Y-127945047D01*
X168114285Y-127897428D01*
X168352380Y-127897428D01*
X168447619Y-127849809D01*
X169352380Y-128278380D02*
X169352380Y-127278380D01*
X169352380Y-128230761D02*
X169257142Y-128278380D01*
X169066666Y-128278380D01*
X168971428Y-128230761D01*
X168923809Y-128183142D01*
X168876190Y-128087904D01*
X168876190Y-127802190D01*
X168923809Y-127706952D01*
X168971428Y-127659333D01*
X169066666Y-127611714D01*
X169257142Y-127611714D01*
X169352380Y-127659333D01*
X169780952Y-128230761D02*
X169876190Y-128278380D01*
X170066666Y-128278380D01*
X170161904Y-128230761D01*
X170209523Y-128135523D01*
X170209523Y-128087904D01*
X170161904Y-127992666D01*
X170066666Y-127945047D01*
X169923809Y-127945047D01*
X169828571Y-127897428D01*
X169780952Y-127802190D01*
X169780952Y-127754571D01*
X169828571Y-127659333D01*
X169923809Y-127611714D01*
X170066666Y-127611714D01*
X170161904Y-127659333D01*
X155304761Y-128928380D02*
X155304761Y-129737904D01*
X155352380Y-129833142D01*
X155400000Y-129880761D01*
X155495238Y-129928380D01*
X155685714Y-129928380D01*
X155780952Y-129880761D01*
X155828571Y-129833142D01*
X155876190Y-129737904D01*
X155876190Y-128928380D01*
X156352380Y-129928380D02*
X156352380Y-128928380D01*
X156923809Y-129928380D01*
X156923809Y-128928380D01*
X157876190Y-129928380D02*
X157400000Y-129928380D01*
X157400000Y-128928380D01*
X158923809Y-129642666D02*
X159400000Y-129642666D01*
X158828571Y-129928380D02*
X159161904Y-128928380D01*
X159495238Y-129928380D01*
X160209523Y-129880761D02*
X160114285Y-129928380D01*
X159923809Y-129928380D01*
X159828571Y-129880761D01*
X159780952Y-129785523D01*
X159780952Y-129404571D01*
X159828571Y-129309333D01*
X159923809Y-129261714D01*
X160114285Y-129261714D01*
X160209523Y-129309333D01*
X160257142Y-129404571D01*
X160257142Y-129499809D01*
X159780952Y-129595047D01*
X160685714Y-129928380D02*
X160685714Y-129261714D01*
X160685714Y-129452190D02*
X160733333Y-129356952D01*
X160780952Y-129309333D01*
X160876190Y-129261714D01*
X160971428Y-129261714D01*
X161447619Y-129928380D02*
X161352380Y-129880761D01*
X161304761Y-129833142D01*
X161257142Y-129737904D01*
X161257142Y-129452190D01*
X161304761Y-129356952D01*
X161352380Y-129309333D01*
X161447619Y-129261714D01*
X161590476Y-129261714D01*
X161685714Y-129309333D01*
X161733333Y-129356952D01*
X161780952Y-129452190D01*
X161780952Y-129737904D01*
X161733333Y-129833142D01*
X161685714Y-129880761D01*
X161590476Y-129928380D01*
X161447619Y-129928380D01*
X162161904Y-129880761D02*
X162257142Y-129928380D01*
X162447619Y-129928380D01*
X162542857Y-129880761D01*
X162590476Y-129785523D01*
X162590476Y-129737904D01*
X162542857Y-129642666D01*
X162447619Y-129595047D01*
X162304761Y-129595047D01*
X162209523Y-129547428D01*
X162161904Y-129452190D01*
X162161904Y-129404571D01*
X162209523Y-129309333D01*
X162304761Y-129261714D01*
X162447619Y-129261714D01*
X162542857Y-129309333D01*
X163019047Y-129261714D02*
X163019047Y-130261714D01*
X163019047Y-129309333D02*
X163114285Y-129261714D01*
X163304761Y-129261714D01*
X163400000Y-129309333D01*
X163447619Y-129356952D01*
X163495238Y-129452190D01*
X163495238Y-129737904D01*
X163447619Y-129833142D01*
X163400000Y-129880761D01*
X163304761Y-129928380D01*
X163114285Y-129928380D01*
X163019047Y-129880761D01*
X164352380Y-129928380D02*
X164352380Y-129404571D01*
X164304761Y-129309333D01*
X164209523Y-129261714D01*
X164019047Y-129261714D01*
X163923809Y-129309333D01*
X164352380Y-129880761D02*
X164257142Y-129928380D01*
X164019047Y-129928380D01*
X163923809Y-129880761D01*
X163876190Y-129785523D01*
X163876190Y-129690285D01*
X163923809Y-129595047D01*
X164019047Y-129547428D01*
X164257142Y-129547428D01*
X164352380Y-129499809D01*
X165257142Y-129880761D02*
X165161904Y-129928380D01*
X164971428Y-129928380D01*
X164876190Y-129880761D01*
X164828571Y-129833142D01*
X164780952Y-129737904D01*
X164780952Y-129452190D01*
X164828571Y-129356952D01*
X164876190Y-129309333D01*
X164971428Y-129261714D01*
X165161904Y-129261714D01*
X165257142Y-129309333D01*
X166066666Y-129880761D02*
X165971428Y-129928380D01*
X165780952Y-129928380D01*
X165685714Y-129880761D01*
X165638095Y-129785523D01*
X165638095Y-129404571D01*
X165685714Y-129309333D01*
X165780952Y-129261714D01*
X165971428Y-129261714D01*
X166066666Y-129309333D01*
X166114285Y-129404571D01*
X166114285Y-129499809D01*
X165638095Y-129595047D01*
X167876190Y-129833142D02*
X167828571Y-129880761D01*
X167685714Y-129928380D01*
X167590476Y-129928380D01*
X167447619Y-129880761D01*
X167352380Y-129785523D01*
X167304761Y-129690285D01*
X167257142Y-129499809D01*
X167257142Y-129356952D01*
X167304761Y-129166476D01*
X167352380Y-129071238D01*
X167447619Y-128976000D01*
X167590476Y-128928380D01*
X167685714Y-128928380D01*
X167828571Y-128976000D01*
X167876190Y-129023619D01*
X168447619Y-129928380D02*
X168352380Y-129880761D01*
X168304761Y-129785523D01*
X168304761Y-128928380D01*
X169257142Y-129261714D02*
X169257142Y-129928380D01*
X168828571Y-129261714D02*
X168828571Y-129785523D01*
X168876190Y-129880761D01*
X168971428Y-129928380D01*
X169114285Y-129928380D01*
X169209523Y-129880761D01*
X169257142Y-129833142D01*
X169733333Y-129928380D02*
X169733333Y-128928380D01*
X169733333Y-129309333D02*
X169828571Y-129261714D01*
X170019047Y-129261714D01*
X170114285Y-129309333D01*
X170161904Y-129356952D01*
X170209523Y-129452190D01*
X170209523Y-129737904D01*
X170161904Y-129833142D01*
X170114285Y-129880761D01*
X170019047Y-129928380D01*
X169828571Y-129928380D01*
X169733333Y-129880761D01*
X156447619Y-131483142D02*
X156400000Y-131530761D01*
X156257142Y-131578380D01*
X156161904Y-131578380D01*
X156019047Y-131530761D01*
X155923809Y-131435523D01*
X155876190Y-131340285D01*
X155828571Y-131149809D01*
X155828571Y-131006952D01*
X155876190Y-130816476D01*
X155923809Y-130721238D01*
X156019047Y-130626000D01*
X156161904Y-130578380D01*
X156257142Y-130578380D01*
X156400000Y-130626000D01*
X156447619Y-130673619D01*
X157019047Y-131578380D02*
X156923809Y-131530761D01*
X156876190Y-131483142D01*
X156828571Y-131387904D01*
X156828571Y-131102190D01*
X156876190Y-131006952D01*
X156923809Y-130959333D01*
X157019047Y-130911714D01*
X157161904Y-130911714D01*
X157257142Y-130959333D01*
X157304761Y-131006952D01*
X157352380Y-131102190D01*
X157352380Y-131387904D01*
X157304761Y-131483142D01*
X157257142Y-131530761D01*
X157161904Y-131578380D01*
X157019047Y-131578380D01*
X157780952Y-130911714D02*
X157780952Y-131911714D01*
X157780952Y-130959333D02*
X157876190Y-130911714D01*
X158066666Y-130911714D01*
X158161904Y-130959333D01*
X158209523Y-131006952D01*
X158257142Y-131102190D01*
X158257142Y-131387904D01*
X158209523Y-131483142D01*
X158161904Y-131530761D01*
X158066666Y-131578380D01*
X157876190Y-131578380D01*
X157780952Y-131530761D01*
X158590476Y-130911714D02*
X158828571Y-131578380D01*
X159066666Y-130911714D02*
X158828571Y-131578380D01*
X158733333Y-131816476D01*
X158685714Y-131864095D01*
X158590476Y-131911714D01*
X159447619Y-131578380D02*
X159447619Y-130911714D01*
X159447619Y-131102190D02*
X159495238Y-131006952D01*
X159542857Y-130959333D01*
X159638095Y-130911714D01*
X159733333Y-130911714D01*
X160066666Y-131578380D02*
X160066666Y-130911714D01*
X160066666Y-130578380D02*
X160019047Y-130626000D01*
X160066666Y-130673619D01*
X160114285Y-130626000D01*
X160066666Y-130578380D01*
X160066666Y-130673619D01*
X160971428Y-130911714D02*
X160971428Y-131721238D01*
X160923809Y-131816476D01*
X160876190Y-131864095D01*
X160780952Y-131911714D01*
X160638095Y-131911714D01*
X160542857Y-131864095D01*
X160971428Y-131530761D02*
X160876190Y-131578380D01*
X160685714Y-131578380D01*
X160590476Y-131530761D01*
X160542857Y-131483142D01*
X160495238Y-131387904D01*
X160495238Y-131102190D01*
X160542857Y-131006952D01*
X160590476Y-130959333D01*
X160685714Y-130911714D01*
X160876190Y-130911714D01*
X160971428Y-130959333D01*
X161447619Y-131578380D02*
X161447619Y-130578380D01*
X161876190Y-131578380D02*
X161876190Y-131054571D01*
X161828571Y-130959333D01*
X161733333Y-130911714D01*
X161590476Y-130911714D01*
X161495238Y-130959333D01*
X161447619Y-131006952D01*
X162209523Y-130911714D02*
X162590476Y-130911714D01*
X162352380Y-130578380D02*
X162352380Y-131435523D01*
X162400000Y-131530761D01*
X162495238Y-131578380D01*
X162590476Y-131578380D01*
X164876190Y-131530761D02*
X164780952Y-131578380D01*
X164590476Y-131578380D01*
X164495238Y-131530761D01*
X164447619Y-131483142D01*
X164400000Y-131387904D01*
X164400000Y-131102190D01*
X164447619Y-131006952D01*
X164495238Y-130959333D01*
X164590476Y-130911714D01*
X164780952Y-130911714D01*
X164876190Y-130959333D01*
X166780952Y-130673619D02*
X166828571Y-130626000D01*
X166923809Y-130578380D01*
X167161904Y-130578380D01*
X167257142Y-130626000D01*
X167304761Y-130673619D01*
X167352380Y-130768857D01*
X167352380Y-130864095D01*
X167304761Y-131006952D01*
X166733333Y-131578380D01*
X167352380Y-131578380D01*
X167971428Y-130578380D02*
X168066666Y-130578380D01*
X168161904Y-130626000D01*
X168209523Y-130673619D01*
X168257142Y-130768857D01*
X168304761Y-130959333D01*
X168304761Y-131197428D01*
X168257142Y-131387904D01*
X168209523Y-131483142D01*
X168161904Y-131530761D01*
X168066666Y-131578380D01*
X167971428Y-131578380D01*
X167876190Y-131530761D01*
X167828571Y-131483142D01*
X167780952Y-131387904D01*
X167733333Y-131197428D01*
X167733333Y-130959333D01*
X167780952Y-130768857D01*
X167828571Y-130673619D01*
X167876190Y-130626000D01*
X167971428Y-130578380D01*
X168685714Y-130673619D02*
X168733333Y-130626000D01*
X168828571Y-130578380D01*
X169066666Y-130578380D01*
X169161904Y-130626000D01*
X169209523Y-130673619D01*
X169257142Y-130768857D01*
X169257142Y-130864095D01*
X169209523Y-131006952D01*
X168638095Y-131578380D01*
X169257142Y-131578380D01*
X169638095Y-130673619D02*
X169685714Y-130626000D01*
X169780952Y-130578380D01*
X170019047Y-130578380D01*
X170114285Y-130626000D01*
X170161904Y-130673619D01*
X170209523Y-130768857D01*
X170209523Y-130864095D01*
X170161904Y-131006952D01*
X169590476Y-131578380D01*
X170209523Y-131578380D01*
D12*
X160718571Y-86530642D02*
X161861428Y-86530642D01*
X161290000Y-87102071D02*
X161290000Y-85959214D01*
X137160071Y-86530642D02*
X138302928Y-86530642D01*
D13*
%TO.C,U2*%
X149456500Y-101716000D02*
X149456500Y-103516000D01*
X152676500Y-103516000D02*
X152676500Y-101066000D01*
D14*
%TO.C,U1*%
X156788500Y-100206000D02*
G75*
G03*
X156788500Y-100206000I-100000J0D01*
G01*
D15*
X157088500Y-102286000D02*
X157088500Y-102946000D01*
X155973500Y-103416000D02*
X155303500Y-103416000D01*
X154188500Y-102946000D02*
X154188500Y-102286000D01*
D13*
%TO.C,R20*%
X169178500Y-110759743D02*
X169178500Y-111234259D01*
X168133500Y-110759743D02*
X168133500Y-111234259D01*
%TO.C,R19*%
X168133500Y-115204257D02*
X168133500Y-114729741D01*
X169178500Y-115204257D02*
X169178500Y-114729741D01*
%TO.C,R1*%
X154911436Y-97705500D02*
X156365564Y-97705500D01*
X154911436Y-99525500D02*
X156365564Y-99525500D01*
%TO.C,J1*%
X159215500Y-90678000D02*
G75*
G03*
X159215500Y-90678000I-2180000J0D01*
G01*
X154135500Y-90678000D02*
G75*
G03*
X154135500Y-90678000I-2180000J0D01*
G01*
X149055500Y-90678000D02*
G75*
G03*
X149055500Y-90678000I-2180000J0D01*
G01*
X143975500Y-90678000D02*
G75*
G03*
X143975500Y-90678000I-2180000J0D01*
G01*
X159635500Y-85878000D02*
X139195500Y-85878000D01*
X159635500Y-88378000D02*
X139195500Y-88378000D01*
X159635500Y-94578000D02*
X139195500Y-94578000D01*
X159635500Y-96638000D02*
X139195500Y-96638000D01*
X159635500Y-85318000D02*
X139195500Y-85318000D01*
X159635500Y-96638000D02*
X159635500Y-85318000D01*
X139195500Y-96638000D02*
X139195500Y-85318000D01*
X155381500Y-92066000D02*
X155488500Y-91959000D01*
X158317500Y-89131000D02*
X158423500Y-89024000D01*
X155647500Y-92332000D02*
X155754500Y-92225000D01*
X158583500Y-89397000D02*
X158689500Y-89290000D01*
X150301500Y-92066000D02*
X150696500Y-91670000D01*
X152962500Y-89404000D02*
X153342500Y-89024000D01*
X150567500Y-92332000D02*
X150947500Y-91952000D01*
X153213500Y-89686000D02*
X153608500Y-89290000D01*
X145221500Y-92066000D02*
X145616500Y-91670000D01*
X147882500Y-89404000D02*
X148262500Y-89024000D01*
X145487500Y-92332000D02*
X145867500Y-91952000D01*
X148133500Y-89686000D02*
X148528500Y-89290000D01*
X140141500Y-92066000D02*
X140536500Y-91670000D01*
X142802500Y-89404000D02*
X143182500Y-89024000D01*
X140407500Y-92332000D02*
X140787500Y-91952000D01*
X143053500Y-89686000D02*
X143448500Y-89290000D01*
X159875500Y-85818000D02*
X159875500Y-85078000D01*
X159875500Y-85078000D02*
X159375500Y-85078000D01*
%TO.C,FB1*%
X130113500Y-88673721D02*
X130113500Y-88999279D01*
X129093500Y-88673721D02*
X129093500Y-88999279D01*
%TO.C,C18*%
X169670000Y-111137581D02*
X169670000Y-110856421D01*
X170690000Y-111137581D02*
X170690000Y-110856421D01*
%TO.C,C17*%
X170690000Y-114826419D02*
X170690000Y-115107579D01*
X169670000Y-114826419D02*
X169670000Y-115107579D01*
%TO.C,C16*%
X157732000Y-102756580D02*
X157732000Y-102475420D01*
X158752000Y-102756580D02*
X158752000Y-102475420D01*
%TO.C,C15*%
X148909500Y-102475420D02*
X148909500Y-102756580D01*
X147889500Y-102475420D02*
X147889500Y-102756580D01*
%TO.C,C4*%
X130352748Y-90784000D02*
X131775252Y-90784000D01*
X130352748Y-92604000D02*
X131775252Y-92604000D01*
%TO.C,C3*%
X130224920Y-93279500D02*
X130506080Y-93279500D01*
X130224920Y-94299500D02*
X130506080Y-94299500D01*
%TO.C,U13*%
X134645400Y-111163100D02*
X134645400Y-109562900D01*
X132181600Y-109562900D02*
X132181600Y-111163100D01*
%TO.C,U12*%
X138963400Y-111163100D02*
X138963400Y-109562900D01*
X136499600Y-109562900D02*
X136499600Y-111163100D01*
%TO.C,U11*%
X143281400Y-111163100D02*
X143281400Y-109562900D01*
X140817600Y-109562900D02*
X140817600Y-111163100D01*
%TO.C,U10*%
X147599400Y-111163100D02*
X147599400Y-109562900D01*
X145135600Y-109562900D02*
X145135600Y-111163100D01*
%TO.C,U9*%
X151917400Y-111163100D02*
X151917400Y-109562900D01*
X149453600Y-109562900D02*
X149453600Y-111163100D01*
%TO.C,U8*%
X156235400Y-111163100D02*
X156235400Y-109562900D01*
X153771600Y-109562900D02*
X153771600Y-111163100D01*
%TO.C,U7*%
X160553400Y-111163100D02*
X160553400Y-109562900D01*
X158089600Y-109562900D02*
X158089600Y-111163100D01*
%TO.C,U6*%
X164871400Y-111163100D02*
X164871400Y-109562900D01*
X162407600Y-109562900D02*
X162407600Y-111163100D01*
%TO.C,U5*%
X154475500Y-118999000D02*
X154475500Y-115549000D01*
X154475500Y-118999000D02*
X154475500Y-120949000D01*
X144355500Y-118999000D02*
X144355500Y-117049000D01*
X144355500Y-118999000D02*
X144355500Y-120949000D01*
%TO.C,R18*%
X133430242Y-108091500D02*
X133904758Y-108091500D01*
X133430242Y-107046500D02*
X133904758Y-107046500D01*
%TO.C,R17*%
X137748242Y-108091500D02*
X138222758Y-108091500D01*
X137748242Y-107046500D02*
X138222758Y-107046500D01*
%TO.C,R16*%
X142066242Y-108091500D02*
X142540758Y-108091500D01*
X142066242Y-107046500D02*
X142540758Y-107046500D01*
%TO.C,R15*%
X146384242Y-108091500D02*
X146858758Y-108091500D01*
X146384242Y-107046500D02*
X146858758Y-107046500D01*
%TO.C,R14*%
X150702242Y-108091500D02*
X151176758Y-108091500D01*
X150702242Y-107046500D02*
X151176758Y-107046500D01*
%TO.C,R13*%
X155020242Y-108091500D02*
X155494758Y-108091500D01*
X155020242Y-107046500D02*
X155494758Y-107046500D01*
%TO.C,R12*%
X159338242Y-108091500D02*
X159812758Y-108091500D01*
X159338242Y-107046500D02*
X159812758Y-107046500D01*
%TO.C,R11*%
X163719242Y-108091500D02*
X164193758Y-108091500D01*
X163719242Y-107046500D02*
X164193758Y-107046500D01*
%TO.C,R5*%
X145652258Y-123175500D02*
X145177742Y-123175500D01*
X145652258Y-124220500D02*
X145177742Y-124220500D01*
%TO.C,R3*%
X149368742Y-124220500D02*
X149843258Y-124220500D01*
X149368742Y-123175500D02*
X149843258Y-123175500D01*
%TO.C,C14*%
X156529500Y-119139580D02*
X156529500Y-118858420D01*
X155509500Y-119139580D02*
X155509500Y-118858420D01*
%TO.C,C12*%
X140400500Y-110503580D02*
X140400500Y-110222420D01*
X139380500Y-110503580D02*
X139380500Y-110222420D01*
%TO.C,C11*%
X136082500Y-110503580D02*
X136082500Y-110222420D01*
X135062500Y-110503580D02*
X135062500Y-110222420D01*
%TO.C,C10*%
X153354500Y-110503580D02*
X153354500Y-110222420D01*
X152334500Y-110503580D02*
X152334500Y-110222420D01*
%TO.C,C9*%
X149036500Y-110503580D02*
X149036500Y-110222420D01*
X148016500Y-110503580D02*
X148016500Y-110222420D01*
%TO.C,C8*%
X157672500Y-110503580D02*
X157672500Y-110222420D01*
X156652500Y-110503580D02*
X156652500Y-110222420D01*
%TO.C,C7*%
X161990500Y-110503580D02*
X161990500Y-110222420D01*
X160970500Y-110503580D02*
X160970500Y-110222420D01*
%TO.C,C6*%
X166308500Y-110503580D02*
X166308500Y-110222420D01*
X165288500Y-110503580D02*
X165288500Y-110222420D01*
%TO.C,C5*%
X144718500Y-110503580D02*
X144718500Y-110222420D01*
X143698500Y-110503580D02*
X143698500Y-110222420D01*
%TO.C,U2*%
D10*
X150685547Y-100119690D02*
X150685547Y-100524452D01*
X150709357Y-100572071D01*
X150733166Y-100595880D01*
X150780785Y-100619690D01*
X150876023Y-100619690D01*
X150923642Y-100595880D01*
X150947452Y-100572071D01*
X150971261Y-100524452D01*
X150971261Y-100119690D01*
X151185547Y-100167309D02*
X151209357Y-100143500D01*
X151256976Y-100119690D01*
X151376023Y-100119690D01*
X151423642Y-100143500D01*
X151447452Y-100167309D01*
X151471261Y-100214928D01*
X151471261Y-100262547D01*
X151447452Y-100333976D01*
X151161738Y-100619690D01*
X151471261Y-100619690D01*
%TO.C,U1*%
X155257547Y-104882190D02*
X155257547Y-105286952D01*
X155281357Y-105334571D01*
X155305166Y-105358380D01*
X155352785Y-105382190D01*
X155448023Y-105382190D01*
X155495642Y-105358380D01*
X155519452Y-105334571D01*
X155543261Y-105286952D01*
X155543261Y-104882190D01*
X156043261Y-105382190D02*
X155757547Y-105382190D01*
X155900404Y-105382190D02*
X155900404Y-104882190D01*
X155852785Y-104953619D01*
X155805166Y-105001238D01*
X155757547Y-105025047D01*
%TO.C,R20*%
X168334571Y-109382690D02*
X168167904Y-109144595D01*
X168048857Y-109382690D02*
X168048857Y-108882690D01*
X168239333Y-108882690D01*
X168286952Y-108906500D01*
X168310761Y-108930309D01*
X168334571Y-108977928D01*
X168334571Y-109049357D01*
X168310761Y-109096976D01*
X168286952Y-109120785D01*
X168239333Y-109144595D01*
X168048857Y-109144595D01*
X168525047Y-108930309D02*
X168548857Y-108906500D01*
X168596476Y-108882690D01*
X168715523Y-108882690D01*
X168763142Y-108906500D01*
X168786952Y-108930309D01*
X168810761Y-108977928D01*
X168810761Y-109025547D01*
X168786952Y-109096976D01*
X168501238Y-109382690D01*
X168810761Y-109382690D01*
X169120285Y-108882690D02*
X169167904Y-108882690D01*
X169215523Y-108906500D01*
X169239333Y-108930309D01*
X169263142Y-108977928D01*
X169286952Y-109073166D01*
X169286952Y-109192214D01*
X169263142Y-109287452D01*
X169239333Y-109335071D01*
X169215523Y-109358880D01*
X169167904Y-109382690D01*
X169120285Y-109382690D01*
X169072666Y-109358880D01*
X169048857Y-109335071D01*
X169025047Y-109287452D01*
X169001238Y-109192214D01*
X169001238Y-109073166D01*
X169025047Y-108977928D01*
X169048857Y-108930309D01*
X169072666Y-108906500D01*
X169120285Y-108882690D01*
%TO.C,R19*%
X168334571Y-113383190D02*
X168167904Y-113145095D01*
X168048857Y-113383190D02*
X168048857Y-112883190D01*
X168239333Y-112883190D01*
X168286952Y-112907000D01*
X168310761Y-112930809D01*
X168334571Y-112978428D01*
X168334571Y-113049857D01*
X168310761Y-113097476D01*
X168286952Y-113121285D01*
X168239333Y-113145095D01*
X168048857Y-113145095D01*
X168810761Y-113383190D02*
X168525047Y-113383190D01*
X168667904Y-113383190D02*
X168667904Y-112883190D01*
X168620285Y-112954619D01*
X168572666Y-113002238D01*
X168525047Y-113026047D01*
X169048857Y-113383190D02*
X169144095Y-113383190D01*
X169191714Y-113359380D01*
X169215523Y-113335571D01*
X169263142Y-113264142D01*
X169286952Y-113168904D01*
X169286952Y-112978428D01*
X169263142Y-112930809D01*
X169239333Y-112907000D01*
X169191714Y-112883190D01*
X169096476Y-112883190D01*
X169048857Y-112907000D01*
X169025047Y-112930809D01*
X169001238Y-112978428D01*
X169001238Y-113097476D01*
X169025047Y-113145095D01*
X169048857Y-113168904D01*
X169096476Y-113192714D01*
X169191714Y-113192714D01*
X169239333Y-113168904D01*
X169263142Y-113145095D01*
X169286952Y-113097476D01*
%TO.C,R1*%
X158595190Y-98698833D02*
X158357095Y-98865500D01*
X158595190Y-98984547D02*
X158095190Y-98984547D01*
X158095190Y-98794071D01*
X158119000Y-98746452D01*
X158142809Y-98722642D01*
X158190428Y-98698833D01*
X158261857Y-98698833D01*
X158309476Y-98722642D01*
X158333285Y-98746452D01*
X158357095Y-98794071D01*
X158357095Y-98984547D01*
X158595190Y-98222642D02*
X158595190Y-98508357D01*
X158595190Y-98365500D02*
X158095190Y-98365500D01*
X158166619Y-98413119D01*
X158214238Y-98460738D01*
X158238047Y-98508357D01*
%TO.C,J1*%
X160424833Y-90404190D02*
X160424833Y-90761333D01*
X160401023Y-90832761D01*
X160353404Y-90880380D01*
X160281976Y-90904190D01*
X160234357Y-90904190D01*
X160924833Y-90904190D02*
X160639119Y-90904190D01*
X160781976Y-90904190D02*
X160781976Y-90404190D01*
X160734357Y-90475619D01*
X160686738Y-90523238D01*
X160639119Y-90547047D01*
%TO.C,FB1*%
X129186833Y-87022785D02*
X129020166Y-87022785D01*
X129020166Y-87284690D02*
X129020166Y-86784690D01*
X129258261Y-86784690D01*
X129615404Y-87022785D02*
X129686833Y-87046595D01*
X129710642Y-87070404D01*
X129734452Y-87118023D01*
X129734452Y-87189452D01*
X129710642Y-87237071D01*
X129686833Y-87260880D01*
X129639214Y-87284690D01*
X129448738Y-87284690D01*
X129448738Y-86784690D01*
X129615404Y-86784690D01*
X129663023Y-86808500D01*
X129686833Y-86832309D01*
X129710642Y-86879928D01*
X129710642Y-86927547D01*
X129686833Y-86975166D01*
X129663023Y-86998976D01*
X129615404Y-87022785D01*
X129448738Y-87022785D01*
X130210642Y-87284690D02*
X129924928Y-87284690D01*
X130067785Y-87284690D02*
X130067785Y-86784690D01*
X130020166Y-86856119D01*
X129972547Y-86903738D01*
X129924928Y-86927547D01*
%TO.C,C18*%
X169858571Y-109335071D02*
X169834761Y-109358880D01*
X169763333Y-109382690D01*
X169715714Y-109382690D01*
X169644285Y-109358880D01*
X169596666Y-109311261D01*
X169572857Y-109263642D01*
X169549047Y-109168404D01*
X169549047Y-109096976D01*
X169572857Y-109001738D01*
X169596666Y-108954119D01*
X169644285Y-108906500D01*
X169715714Y-108882690D01*
X169763333Y-108882690D01*
X169834761Y-108906500D01*
X169858571Y-108930309D01*
X170334761Y-109382690D02*
X170049047Y-109382690D01*
X170191904Y-109382690D02*
X170191904Y-108882690D01*
X170144285Y-108954119D01*
X170096666Y-109001738D01*
X170049047Y-109025547D01*
X170620476Y-109096976D02*
X170572857Y-109073166D01*
X170549047Y-109049357D01*
X170525238Y-109001738D01*
X170525238Y-108977928D01*
X170549047Y-108930309D01*
X170572857Y-108906500D01*
X170620476Y-108882690D01*
X170715714Y-108882690D01*
X170763333Y-108906500D01*
X170787142Y-108930309D01*
X170810952Y-108977928D01*
X170810952Y-109001738D01*
X170787142Y-109049357D01*
X170763333Y-109073166D01*
X170715714Y-109096976D01*
X170620476Y-109096976D01*
X170572857Y-109120785D01*
X170549047Y-109144595D01*
X170525238Y-109192214D01*
X170525238Y-109287452D01*
X170549047Y-109335071D01*
X170572857Y-109358880D01*
X170620476Y-109382690D01*
X170715714Y-109382690D01*
X170763333Y-109358880D01*
X170787142Y-109335071D01*
X170810952Y-109287452D01*
X170810952Y-109192214D01*
X170787142Y-109144595D01*
X170763333Y-109120785D01*
X170715714Y-109096976D01*
%TO.C,C17*%
X169858571Y-113335571D02*
X169834761Y-113359380D01*
X169763333Y-113383190D01*
X169715714Y-113383190D01*
X169644285Y-113359380D01*
X169596666Y-113311761D01*
X169572857Y-113264142D01*
X169549047Y-113168904D01*
X169549047Y-113097476D01*
X169572857Y-113002238D01*
X169596666Y-112954619D01*
X169644285Y-112907000D01*
X169715714Y-112883190D01*
X169763333Y-112883190D01*
X169834761Y-112907000D01*
X169858571Y-112930809D01*
X170334761Y-113383190D02*
X170049047Y-113383190D01*
X170191904Y-113383190D02*
X170191904Y-112883190D01*
X170144285Y-112954619D01*
X170096666Y-113002238D01*
X170049047Y-113026047D01*
X170501428Y-112883190D02*
X170834761Y-112883190D01*
X170620476Y-113383190D01*
%TO.C,C16*%
X157920571Y-104636071D02*
X157896761Y-104659880D01*
X157825333Y-104683690D01*
X157777714Y-104683690D01*
X157706285Y-104659880D01*
X157658666Y-104612261D01*
X157634857Y-104564642D01*
X157611047Y-104469404D01*
X157611047Y-104397976D01*
X157634857Y-104302738D01*
X157658666Y-104255119D01*
X157706285Y-104207500D01*
X157777714Y-104183690D01*
X157825333Y-104183690D01*
X157896761Y-104207500D01*
X157920571Y-104231309D01*
X158396761Y-104683690D02*
X158111047Y-104683690D01*
X158253904Y-104683690D02*
X158253904Y-104183690D01*
X158206285Y-104255119D01*
X158158666Y-104302738D01*
X158111047Y-104326547D01*
X158825333Y-104183690D02*
X158730095Y-104183690D01*
X158682476Y-104207500D01*
X158658666Y-104231309D01*
X158611047Y-104302738D01*
X158587238Y-104397976D01*
X158587238Y-104588452D01*
X158611047Y-104636071D01*
X158634857Y-104659880D01*
X158682476Y-104683690D01*
X158777714Y-104683690D01*
X158825333Y-104659880D01*
X158849142Y-104636071D01*
X158872952Y-104588452D01*
X158872952Y-104469404D01*
X158849142Y-104421785D01*
X158825333Y-104397976D01*
X158777714Y-104374166D01*
X158682476Y-104374166D01*
X158634857Y-104397976D01*
X158611047Y-104421785D01*
X158587238Y-104469404D01*
%TO.C,C15*%
X148078071Y-100953071D02*
X148054261Y-100976880D01*
X147982833Y-101000690D01*
X147935214Y-101000690D01*
X147863785Y-100976880D01*
X147816166Y-100929261D01*
X147792357Y-100881642D01*
X147768547Y-100786404D01*
X147768547Y-100714976D01*
X147792357Y-100619738D01*
X147816166Y-100572119D01*
X147863785Y-100524500D01*
X147935214Y-100500690D01*
X147982833Y-100500690D01*
X148054261Y-100524500D01*
X148078071Y-100548309D01*
X148554261Y-101000690D02*
X148268547Y-101000690D01*
X148411404Y-101000690D02*
X148411404Y-100500690D01*
X148363785Y-100572119D01*
X148316166Y-100619738D01*
X148268547Y-100643547D01*
X149006642Y-100500690D02*
X148768547Y-100500690D01*
X148744738Y-100738785D01*
X148768547Y-100714976D01*
X148816166Y-100691166D01*
X148935214Y-100691166D01*
X148982833Y-100714976D01*
X149006642Y-100738785D01*
X149030452Y-100786404D01*
X149030452Y-100905452D01*
X149006642Y-100953071D01*
X148982833Y-100976880D01*
X148935214Y-101000690D01*
X148816166Y-101000690D01*
X148768547Y-100976880D01*
X148744738Y-100953071D01*
%TO.C,C4*%
X130980666Y-90348571D02*
X130956857Y-90372380D01*
X130885428Y-90396190D01*
X130837809Y-90396190D01*
X130766380Y-90372380D01*
X130718761Y-90324761D01*
X130694952Y-90277142D01*
X130671142Y-90181904D01*
X130671142Y-90110476D01*
X130694952Y-90015238D01*
X130718761Y-89967619D01*
X130766380Y-89920000D01*
X130837809Y-89896190D01*
X130885428Y-89896190D01*
X130956857Y-89920000D01*
X130980666Y-89943809D01*
X131409238Y-90062857D02*
X131409238Y-90396190D01*
X131290190Y-89872380D02*
X131171142Y-90229523D01*
X131480666Y-90229523D01*
%TO.C,C3*%
X130282166Y-95174571D02*
X130258357Y-95198380D01*
X130186928Y-95222190D01*
X130139309Y-95222190D01*
X130067880Y-95198380D01*
X130020261Y-95150761D01*
X129996452Y-95103142D01*
X129972642Y-95007904D01*
X129972642Y-94936476D01*
X129996452Y-94841238D01*
X130020261Y-94793619D01*
X130067880Y-94746000D01*
X130139309Y-94722190D01*
X130186928Y-94722190D01*
X130258357Y-94746000D01*
X130282166Y-94769809D01*
X130448833Y-94722190D02*
X130758357Y-94722190D01*
X130591690Y-94912666D01*
X130663119Y-94912666D01*
X130710738Y-94936476D01*
X130734547Y-94960285D01*
X130758357Y-95007904D01*
X130758357Y-95126952D01*
X130734547Y-95174571D01*
X130710738Y-95198380D01*
X130663119Y-95222190D01*
X130520261Y-95222190D01*
X130472642Y-95198380D01*
X130448833Y-95174571D01*
%TO.C,U13*%
X132794452Y-112375190D02*
X132794452Y-112779952D01*
X132818261Y-112827571D01*
X132842071Y-112851380D01*
X132889690Y-112875190D01*
X132984928Y-112875190D01*
X133032547Y-112851380D01*
X133056357Y-112827571D01*
X133080166Y-112779952D01*
X133080166Y-112375190D01*
X133580166Y-112875190D02*
X133294452Y-112875190D01*
X133437309Y-112875190D02*
X133437309Y-112375190D01*
X133389690Y-112446619D01*
X133342071Y-112494238D01*
X133294452Y-112518047D01*
X133746833Y-112375190D02*
X134056357Y-112375190D01*
X133889690Y-112565666D01*
X133961119Y-112565666D01*
X134008738Y-112589476D01*
X134032547Y-112613285D01*
X134056357Y-112660904D01*
X134056357Y-112779952D01*
X134032547Y-112827571D01*
X134008738Y-112851380D01*
X133961119Y-112875190D01*
X133818261Y-112875190D01*
X133770642Y-112851380D01*
X133746833Y-112827571D01*
X134155690Y-109220000D02*
X134274738Y-109220000D01*
X134227119Y-109339047D02*
X134274738Y-109220000D01*
X134227119Y-109100952D01*
X134369976Y-109291428D02*
X134274738Y-109220000D01*
X134369976Y-109148571D01*
%TO.C,U12*%
X137112452Y-112375190D02*
X137112452Y-112779952D01*
X137136261Y-112827571D01*
X137160071Y-112851380D01*
X137207690Y-112875190D01*
X137302928Y-112875190D01*
X137350547Y-112851380D01*
X137374357Y-112827571D01*
X137398166Y-112779952D01*
X137398166Y-112375190D01*
X137898166Y-112875190D02*
X137612452Y-112875190D01*
X137755309Y-112875190D02*
X137755309Y-112375190D01*
X137707690Y-112446619D01*
X137660071Y-112494238D01*
X137612452Y-112518047D01*
X138088642Y-112422809D02*
X138112452Y-112399000D01*
X138160071Y-112375190D01*
X138279119Y-112375190D01*
X138326738Y-112399000D01*
X138350547Y-112422809D01*
X138374357Y-112470428D01*
X138374357Y-112518047D01*
X138350547Y-112589476D01*
X138064833Y-112875190D01*
X138374357Y-112875190D01*
X138473690Y-109220000D02*
X138592738Y-109220000D01*
X138545119Y-109339047D02*
X138592738Y-109220000D01*
X138545119Y-109100952D01*
X138687976Y-109291428D02*
X138592738Y-109220000D01*
X138687976Y-109148571D01*
%TO.C,U11*%
X141430452Y-112375190D02*
X141430452Y-112779952D01*
X141454261Y-112827571D01*
X141478071Y-112851380D01*
X141525690Y-112875190D01*
X141620928Y-112875190D01*
X141668547Y-112851380D01*
X141692357Y-112827571D01*
X141716166Y-112779952D01*
X141716166Y-112375190D01*
X142216166Y-112875190D02*
X141930452Y-112875190D01*
X142073309Y-112875190D02*
X142073309Y-112375190D01*
X142025690Y-112446619D01*
X141978071Y-112494238D01*
X141930452Y-112518047D01*
X142692357Y-112875190D02*
X142406642Y-112875190D01*
X142549500Y-112875190D02*
X142549500Y-112375190D01*
X142501880Y-112446619D01*
X142454261Y-112494238D01*
X142406642Y-112518047D01*
X142791690Y-109220000D02*
X142910738Y-109220000D01*
X142863119Y-109339047D02*
X142910738Y-109220000D01*
X142863119Y-109100952D01*
X143005976Y-109291428D02*
X142910738Y-109220000D01*
X143005976Y-109148571D01*
%TO.C,U10*%
X145748452Y-112375190D02*
X145748452Y-112779952D01*
X145772261Y-112827571D01*
X145796071Y-112851380D01*
X145843690Y-112875190D01*
X145938928Y-112875190D01*
X145986547Y-112851380D01*
X146010357Y-112827571D01*
X146034166Y-112779952D01*
X146034166Y-112375190D01*
X146534166Y-112875190D02*
X146248452Y-112875190D01*
X146391309Y-112875190D02*
X146391309Y-112375190D01*
X146343690Y-112446619D01*
X146296071Y-112494238D01*
X146248452Y-112518047D01*
X146843690Y-112375190D02*
X146891309Y-112375190D01*
X146938928Y-112399000D01*
X146962738Y-112422809D01*
X146986547Y-112470428D01*
X147010357Y-112565666D01*
X147010357Y-112684714D01*
X146986547Y-112779952D01*
X146962738Y-112827571D01*
X146938928Y-112851380D01*
X146891309Y-112875190D01*
X146843690Y-112875190D01*
X146796071Y-112851380D01*
X146772261Y-112827571D01*
X146748452Y-112779952D01*
X146724642Y-112684714D01*
X146724642Y-112565666D01*
X146748452Y-112470428D01*
X146772261Y-112422809D01*
X146796071Y-112399000D01*
X146843690Y-112375190D01*
X147109690Y-109220000D02*
X147228738Y-109220000D01*
X147181119Y-109339047D02*
X147228738Y-109220000D01*
X147181119Y-109100952D01*
X147323976Y-109291428D02*
X147228738Y-109220000D01*
X147323976Y-109148571D01*
%TO.C,U9*%
X150304547Y-112375190D02*
X150304547Y-112779952D01*
X150328357Y-112827571D01*
X150352166Y-112851380D01*
X150399785Y-112875190D01*
X150495023Y-112875190D01*
X150542642Y-112851380D01*
X150566452Y-112827571D01*
X150590261Y-112779952D01*
X150590261Y-112375190D01*
X150852166Y-112875190D02*
X150947404Y-112875190D01*
X150995023Y-112851380D01*
X151018833Y-112827571D01*
X151066452Y-112756142D01*
X151090261Y-112660904D01*
X151090261Y-112470428D01*
X151066452Y-112422809D01*
X151042642Y-112399000D01*
X150995023Y-112375190D01*
X150899785Y-112375190D01*
X150852166Y-112399000D01*
X150828357Y-112422809D01*
X150804547Y-112470428D01*
X150804547Y-112589476D01*
X150828357Y-112637095D01*
X150852166Y-112660904D01*
X150899785Y-112684714D01*
X150995023Y-112684714D01*
X151042642Y-112660904D01*
X151066452Y-112637095D01*
X151090261Y-112589476D01*
X151427690Y-109220000D02*
X151546738Y-109220000D01*
X151499119Y-109339047D02*
X151546738Y-109220000D01*
X151499119Y-109100952D01*
X151641976Y-109291428D02*
X151546738Y-109220000D01*
X151641976Y-109148571D01*
%TO.C,U8*%
X154622547Y-112375190D02*
X154622547Y-112779952D01*
X154646357Y-112827571D01*
X154670166Y-112851380D01*
X154717785Y-112875190D01*
X154813023Y-112875190D01*
X154860642Y-112851380D01*
X154884452Y-112827571D01*
X154908261Y-112779952D01*
X154908261Y-112375190D01*
X155217785Y-112589476D02*
X155170166Y-112565666D01*
X155146357Y-112541857D01*
X155122547Y-112494238D01*
X155122547Y-112470428D01*
X155146357Y-112422809D01*
X155170166Y-112399000D01*
X155217785Y-112375190D01*
X155313023Y-112375190D01*
X155360642Y-112399000D01*
X155384452Y-112422809D01*
X155408261Y-112470428D01*
X155408261Y-112494238D01*
X155384452Y-112541857D01*
X155360642Y-112565666D01*
X155313023Y-112589476D01*
X155217785Y-112589476D01*
X155170166Y-112613285D01*
X155146357Y-112637095D01*
X155122547Y-112684714D01*
X155122547Y-112779952D01*
X155146357Y-112827571D01*
X155170166Y-112851380D01*
X155217785Y-112875190D01*
X155313023Y-112875190D01*
X155360642Y-112851380D01*
X155384452Y-112827571D01*
X155408261Y-112779952D01*
X155408261Y-112684714D01*
X155384452Y-112637095D01*
X155360642Y-112613285D01*
X155313023Y-112589476D01*
X155745690Y-109220000D02*
X155864738Y-109220000D01*
X155817119Y-109339047D02*
X155864738Y-109220000D01*
X155817119Y-109100952D01*
X155959976Y-109291428D02*
X155864738Y-109220000D01*
X155959976Y-109148571D01*
%TO.C,U7*%
X158940547Y-112375190D02*
X158940547Y-112779952D01*
X158964357Y-112827571D01*
X158988166Y-112851380D01*
X159035785Y-112875190D01*
X159131023Y-112875190D01*
X159178642Y-112851380D01*
X159202452Y-112827571D01*
X159226261Y-112779952D01*
X159226261Y-112375190D01*
X159416738Y-112375190D02*
X159750071Y-112375190D01*
X159535785Y-112875190D01*
X160063690Y-109220000D02*
X160182738Y-109220000D01*
X160135119Y-109339047D02*
X160182738Y-109220000D01*
X160135119Y-109100952D01*
X160277976Y-109291428D02*
X160182738Y-109220000D01*
X160277976Y-109148571D01*
%TO.C,U6*%
X163258547Y-112375190D02*
X163258547Y-112779952D01*
X163282357Y-112827571D01*
X163306166Y-112851380D01*
X163353785Y-112875190D01*
X163449023Y-112875190D01*
X163496642Y-112851380D01*
X163520452Y-112827571D01*
X163544261Y-112779952D01*
X163544261Y-112375190D01*
X163996642Y-112375190D02*
X163901404Y-112375190D01*
X163853785Y-112399000D01*
X163829976Y-112422809D01*
X163782357Y-112494238D01*
X163758547Y-112589476D01*
X163758547Y-112779952D01*
X163782357Y-112827571D01*
X163806166Y-112851380D01*
X163853785Y-112875190D01*
X163949023Y-112875190D01*
X163996642Y-112851380D01*
X164020452Y-112827571D01*
X164044261Y-112779952D01*
X164044261Y-112660904D01*
X164020452Y-112613285D01*
X163996642Y-112589476D01*
X163949023Y-112565666D01*
X163853785Y-112565666D01*
X163806166Y-112589476D01*
X163782357Y-112613285D01*
X163758547Y-112660904D01*
X164381690Y-109220000D02*
X164500738Y-109220000D01*
X164453119Y-109339047D02*
X164500738Y-109220000D01*
X164453119Y-109100952D01*
X164595976Y-109291428D02*
X164500738Y-109220000D01*
X164595976Y-109148571D01*
%TO.C,U5*%
X143617190Y-119379952D02*
X144021952Y-119379952D01*
X144069571Y-119356142D01*
X144093380Y-119332333D01*
X144117190Y-119284714D01*
X144117190Y-119189476D01*
X144093380Y-119141857D01*
X144069571Y-119118047D01*
X144021952Y-119094238D01*
X143617190Y-119094238D01*
X143617190Y-118618047D02*
X143617190Y-118856142D01*
X143855285Y-118879952D01*
X143831476Y-118856142D01*
X143807666Y-118808523D01*
X143807666Y-118689476D01*
X143831476Y-118641857D01*
X143855285Y-118618047D01*
X143902904Y-118594238D01*
X144021952Y-118594238D01*
X144069571Y-118618047D01*
X144093380Y-118641857D01*
X144117190Y-118689476D01*
X144117190Y-118808523D01*
X144093380Y-118856142D01*
X144069571Y-118879952D01*
%TO.C,R18*%
X133346071Y-106779190D02*
X133179404Y-106541095D01*
X133060357Y-106779190D02*
X133060357Y-106279190D01*
X133250833Y-106279190D01*
X133298452Y-106303000D01*
X133322261Y-106326809D01*
X133346071Y-106374428D01*
X133346071Y-106445857D01*
X133322261Y-106493476D01*
X133298452Y-106517285D01*
X133250833Y-106541095D01*
X133060357Y-106541095D01*
X133822261Y-106779190D02*
X133536547Y-106779190D01*
X133679404Y-106779190D02*
X133679404Y-106279190D01*
X133631785Y-106350619D01*
X133584166Y-106398238D01*
X133536547Y-106422047D01*
X134107976Y-106493476D02*
X134060357Y-106469666D01*
X134036547Y-106445857D01*
X134012738Y-106398238D01*
X134012738Y-106374428D01*
X134036547Y-106326809D01*
X134060357Y-106303000D01*
X134107976Y-106279190D01*
X134203214Y-106279190D01*
X134250833Y-106303000D01*
X134274642Y-106326809D01*
X134298452Y-106374428D01*
X134298452Y-106398238D01*
X134274642Y-106445857D01*
X134250833Y-106469666D01*
X134203214Y-106493476D01*
X134107976Y-106493476D01*
X134060357Y-106517285D01*
X134036547Y-106541095D01*
X134012738Y-106588714D01*
X134012738Y-106683952D01*
X134036547Y-106731571D01*
X134060357Y-106755380D01*
X134107976Y-106779190D01*
X134203214Y-106779190D01*
X134250833Y-106755380D01*
X134274642Y-106731571D01*
X134298452Y-106683952D01*
X134298452Y-106588714D01*
X134274642Y-106541095D01*
X134250833Y-106517285D01*
X134203214Y-106493476D01*
%TO.C,R17*%
X137664071Y-106779190D02*
X137497404Y-106541095D01*
X137378357Y-106779190D02*
X137378357Y-106279190D01*
X137568833Y-106279190D01*
X137616452Y-106303000D01*
X137640261Y-106326809D01*
X137664071Y-106374428D01*
X137664071Y-106445857D01*
X137640261Y-106493476D01*
X137616452Y-106517285D01*
X137568833Y-106541095D01*
X137378357Y-106541095D01*
X138140261Y-106779190D02*
X137854547Y-106779190D01*
X137997404Y-106779190D02*
X137997404Y-106279190D01*
X137949785Y-106350619D01*
X137902166Y-106398238D01*
X137854547Y-106422047D01*
X138306928Y-106279190D02*
X138640261Y-106279190D01*
X138425976Y-106779190D01*
%TO.C,R16*%
X141982071Y-106779190D02*
X141815404Y-106541095D01*
X141696357Y-106779190D02*
X141696357Y-106279190D01*
X141886833Y-106279190D01*
X141934452Y-106303000D01*
X141958261Y-106326809D01*
X141982071Y-106374428D01*
X141982071Y-106445857D01*
X141958261Y-106493476D01*
X141934452Y-106517285D01*
X141886833Y-106541095D01*
X141696357Y-106541095D01*
X142458261Y-106779190D02*
X142172547Y-106779190D01*
X142315404Y-106779190D02*
X142315404Y-106279190D01*
X142267785Y-106350619D01*
X142220166Y-106398238D01*
X142172547Y-106422047D01*
X142886833Y-106279190D02*
X142791595Y-106279190D01*
X142743976Y-106303000D01*
X142720166Y-106326809D01*
X142672547Y-106398238D01*
X142648738Y-106493476D01*
X142648738Y-106683952D01*
X142672547Y-106731571D01*
X142696357Y-106755380D01*
X142743976Y-106779190D01*
X142839214Y-106779190D01*
X142886833Y-106755380D01*
X142910642Y-106731571D01*
X142934452Y-106683952D01*
X142934452Y-106564904D01*
X142910642Y-106517285D01*
X142886833Y-106493476D01*
X142839214Y-106469666D01*
X142743976Y-106469666D01*
X142696357Y-106493476D01*
X142672547Y-106517285D01*
X142648738Y-106564904D01*
%TO.C,R15*%
X146300071Y-106779190D02*
X146133404Y-106541095D01*
X146014357Y-106779190D02*
X146014357Y-106279190D01*
X146204833Y-106279190D01*
X146252452Y-106303000D01*
X146276261Y-106326809D01*
X146300071Y-106374428D01*
X146300071Y-106445857D01*
X146276261Y-106493476D01*
X146252452Y-106517285D01*
X146204833Y-106541095D01*
X146014357Y-106541095D01*
X146776261Y-106779190D02*
X146490547Y-106779190D01*
X146633404Y-106779190D02*
X146633404Y-106279190D01*
X146585785Y-106350619D01*
X146538166Y-106398238D01*
X146490547Y-106422047D01*
X147228642Y-106279190D02*
X146990547Y-106279190D01*
X146966738Y-106517285D01*
X146990547Y-106493476D01*
X147038166Y-106469666D01*
X147157214Y-106469666D01*
X147204833Y-106493476D01*
X147228642Y-106517285D01*
X147252452Y-106564904D01*
X147252452Y-106683952D01*
X147228642Y-106731571D01*
X147204833Y-106755380D01*
X147157214Y-106779190D01*
X147038166Y-106779190D01*
X146990547Y-106755380D01*
X146966738Y-106731571D01*
%TO.C,R14*%
X150618071Y-106779190D02*
X150451404Y-106541095D01*
X150332357Y-106779190D02*
X150332357Y-106279190D01*
X150522833Y-106279190D01*
X150570452Y-106303000D01*
X150594261Y-106326809D01*
X150618071Y-106374428D01*
X150618071Y-106445857D01*
X150594261Y-106493476D01*
X150570452Y-106517285D01*
X150522833Y-106541095D01*
X150332357Y-106541095D01*
X151094261Y-106779190D02*
X150808547Y-106779190D01*
X150951404Y-106779190D02*
X150951404Y-106279190D01*
X150903785Y-106350619D01*
X150856166Y-106398238D01*
X150808547Y-106422047D01*
X151522833Y-106445857D02*
X151522833Y-106779190D01*
X151403785Y-106255380D02*
X151284738Y-106612523D01*
X151594261Y-106612523D01*
%TO.C,R13*%
X154936071Y-106779190D02*
X154769404Y-106541095D01*
X154650357Y-106779190D02*
X154650357Y-106279190D01*
X154840833Y-106279190D01*
X154888452Y-106303000D01*
X154912261Y-106326809D01*
X154936071Y-106374428D01*
X154936071Y-106445857D01*
X154912261Y-106493476D01*
X154888452Y-106517285D01*
X154840833Y-106541095D01*
X154650357Y-106541095D01*
X155412261Y-106779190D02*
X155126547Y-106779190D01*
X155269404Y-106779190D02*
X155269404Y-106279190D01*
X155221785Y-106350619D01*
X155174166Y-106398238D01*
X155126547Y-106422047D01*
X155578928Y-106279190D02*
X155888452Y-106279190D01*
X155721785Y-106469666D01*
X155793214Y-106469666D01*
X155840833Y-106493476D01*
X155864642Y-106517285D01*
X155888452Y-106564904D01*
X155888452Y-106683952D01*
X155864642Y-106731571D01*
X155840833Y-106755380D01*
X155793214Y-106779190D01*
X155650357Y-106779190D01*
X155602738Y-106755380D01*
X155578928Y-106731571D01*
%TO.C,R12*%
X159254071Y-106779190D02*
X159087404Y-106541095D01*
X158968357Y-106779190D02*
X158968357Y-106279190D01*
X159158833Y-106279190D01*
X159206452Y-106303000D01*
X159230261Y-106326809D01*
X159254071Y-106374428D01*
X159254071Y-106445857D01*
X159230261Y-106493476D01*
X159206452Y-106517285D01*
X159158833Y-106541095D01*
X158968357Y-106541095D01*
X159730261Y-106779190D02*
X159444547Y-106779190D01*
X159587404Y-106779190D02*
X159587404Y-106279190D01*
X159539785Y-106350619D01*
X159492166Y-106398238D01*
X159444547Y-106422047D01*
X159920738Y-106326809D02*
X159944547Y-106303000D01*
X159992166Y-106279190D01*
X160111214Y-106279190D01*
X160158833Y-106303000D01*
X160182642Y-106326809D01*
X160206452Y-106374428D01*
X160206452Y-106422047D01*
X160182642Y-106493476D01*
X159896928Y-106779190D01*
X160206452Y-106779190D01*
%TO.C,R11*%
X163635071Y-106779190D02*
X163468404Y-106541095D01*
X163349357Y-106779190D02*
X163349357Y-106279190D01*
X163539833Y-106279190D01*
X163587452Y-106303000D01*
X163611261Y-106326809D01*
X163635071Y-106374428D01*
X163635071Y-106445857D01*
X163611261Y-106493476D01*
X163587452Y-106517285D01*
X163539833Y-106541095D01*
X163349357Y-106541095D01*
X164111261Y-106779190D02*
X163825547Y-106779190D01*
X163968404Y-106779190D02*
X163968404Y-106279190D01*
X163920785Y-106350619D01*
X163873166Y-106398238D01*
X163825547Y-106422047D01*
X164587452Y-106779190D02*
X164301738Y-106779190D01*
X164444595Y-106779190D02*
X164444595Y-106279190D01*
X164396976Y-106350619D01*
X164349357Y-106398238D01*
X164301738Y-106422047D01*
%TO.C,R5*%
X143799690Y-123781333D02*
X143561595Y-123948000D01*
X143799690Y-124067047D02*
X143299690Y-124067047D01*
X143299690Y-123876571D01*
X143323500Y-123828952D01*
X143347309Y-123805142D01*
X143394928Y-123781333D01*
X143466357Y-123781333D01*
X143513976Y-123805142D01*
X143537785Y-123828952D01*
X143561595Y-123876571D01*
X143561595Y-124067047D01*
X143299690Y-123328952D02*
X143299690Y-123567047D01*
X143537785Y-123590857D01*
X143513976Y-123567047D01*
X143490166Y-123519428D01*
X143490166Y-123400380D01*
X143513976Y-123352761D01*
X143537785Y-123328952D01*
X143585404Y-123305142D01*
X143704452Y-123305142D01*
X143752071Y-123328952D01*
X143775880Y-123352761D01*
X143799690Y-123400380D01*
X143799690Y-123519428D01*
X143775880Y-123567047D01*
X143752071Y-123590857D01*
%TO.C,R3*%
X151800690Y-123781333D02*
X151562595Y-123948000D01*
X151800690Y-124067047D02*
X151300690Y-124067047D01*
X151300690Y-123876571D01*
X151324500Y-123828952D01*
X151348309Y-123805142D01*
X151395928Y-123781333D01*
X151467357Y-123781333D01*
X151514976Y-123805142D01*
X151538785Y-123828952D01*
X151562595Y-123876571D01*
X151562595Y-124067047D01*
X151300690Y-123614666D02*
X151300690Y-123305142D01*
X151491166Y-123471809D01*
X151491166Y-123400380D01*
X151514976Y-123352761D01*
X151538785Y-123328952D01*
X151586404Y-123305142D01*
X151705452Y-123305142D01*
X151753071Y-123328952D01*
X151776880Y-123352761D01*
X151800690Y-123400380D01*
X151800690Y-123543238D01*
X151776880Y-123590857D01*
X151753071Y-123614666D01*
%TO.C,C14*%
X155698071Y-117336071D02*
X155674261Y-117359880D01*
X155602833Y-117383690D01*
X155555214Y-117383690D01*
X155483785Y-117359880D01*
X155436166Y-117312261D01*
X155412357Y-117264642D01*
X155388547Y-117169404D01*
X155388547Y-117097976D01*
X155412357Y-117002738D01*
X155436166Y-116955119D01*
X155483785Y-116907500D01*
X155555214Y-116883690D01*
X155602833Y-116883690D01*
X155674261Y-116907500D01*
X155698071Y-116931309D01*
X156174261Y-117383690D02*
X155888547Y-117383690D01*
X156031404Y-117383690D02*
X156031404Y-116883690D01*
X155983785Y-116955119D01*
X155936166Y-117002738D01*
X155888547Y-117026547D01*
X156602833Y-117050357D02*
X156602833Y-117383690D01*
X156483785Y-116859880D02*
X156364738Y-117217023D01*
X156674261Y-117217023D01*
%TO.C,C12*%
X139569071Y-112446571D02*
X139545261Y-112470380D01*
X139473833Y-112494190D01*
X139426214Y-112494190D01*
X139354785Y-112470380D01*
X139307166Y-112422761D01*
X139283357Y-112375142D01*
X139259547Y-112279904D01*
X139259547Y-112208476D01*
X139283357Y-112113238D01*
X139307166Y-112065619D01*
X139354785Y-112018000D01*
X139426214Y-111994190D01*
X139473833Y-111994190D01*
X139545261Y-112018000D01*
X139569071Y-112041809D01*
X140045261Y-112494190D02*
X139759547Y-112494190D01*
X139902404Y-112494190D02*
X139902404Y-111994190D01*
X139854785Y-112065619D01*
X139807166Y-112113238D01*
X139759547Y-112137047D01*
X140235738Y-112041809D02*
X140259547Y-112018000D01*
X140307166Y-111994190D01*
X140426214Y-111994190D01*
X140473833Y-112018000D01*
X140497642Y-112041809D01*
X140521452Y-112089428D01*
X140521452Y-112137047D01*
X140497642Y-112208476D01*
X140211928Y-112494190D01*
X140521452Y-112494190D01*
%TO.C,C11*%
X135251071Y-112446571D02*
X135227261Y-112470380D01*
X135155833Y-112494190D01*
X135108214Y-112494190D01*
X135036785Y-112470380D01*
X134989166Y-112422761D01*
X134965357Y-112375142D01*
X134941547Y-112279904D01*
X134941547Y-112208476D01*
X134965357Y-112113238D01*
X134989166Y-112065619D01*
X135036785Y-112018000D01*
X135108214Y-111994190D01*
X135155833Y-111994190D01*
X135227261Y-112018000D01*
X135251071Y-112041809D01*
X135727261Y-112494190D02*
X135441547Y-112494190D01*
X135584404Y-112494190D02*
X135584404Y-111994190D01*
X135536785Y-112065619D01*
X135489166Y-112113238D01*
X135441547Y-112137047D01*
X136203452Y-112494190D02*
X135917738Y-112494190D01*
X136060595Y-112494190D02*
X136060595Y-111994190D01*
X136012976Y-112065619D01*
X135965357Y-112113238D01*
X135917738Y-112137047D01*
%TO.C,C10*%
X152523071Y-112446571D02*
X152499261Y-112470380D01*
X152427833Y-112494190D01*
X152380214Y-112494190D01*
X152308785Y-112470380D01*
X152261166Y-112422761D01*
X152237357Y-112375142D01*
X152213547Y-112279904D01*
X152213547Y-112208476D01*
X152237357Y-112113238D01*
X152261166Y-112065619D01*
X152308785Y-112018000D01*
X152380214Y-111994190D01*
X152427833Y-111994190D01*
X152499261Y-112018000D01*
X152523071Y-112041809D01*
X152999261Y-112494190D02*
X152713547Y-112494190D01*
X152856404Y-112494190D02*
X152856404Y-111994190D01*
X152808785Y-112065619D01*
X152761166Y-112113238D01*
X152713547Y-112137047D01*
X153308785Y-111994190D02*
X153356404Y-111994190D01*
X153404023Y-112018000D01*
X153427833Y-112041809D01*
X153451642Y-112089428D01*
X153475452Y-112184666D01*
X153475452Y-112303714D01*
X153451642Y-112398952D01*
X153427833Y-112446571D01*
X153404023Y-112470380D01*
X153356404Y-112494190D01*
X153308785Y-112494190D01*
X153261166Y-112470380D01*
X153237357Y-112446571D01*
X153213547Y-112398952D01*
X153189738Y-112303714D01*
X153189738Y-112184666D01*
X153213547Y-112089428D01*
X153237357Y-112041809D01*
X153261166Y-112018000D01*
X153308785Y-111994190D01*
%TO.C,C9*%
X148443166Y-112446571D02*
X148419357Y-112470380D01*
X148347928Y-112494190D01*
X148300309Y-112494190D01*
X148228880Y-112470380D01*
X148181261Y-112422761D01*
X148157452Y-112375142D01*
X148133642Y-112279904D01*
X148133642Y-112208476D01*
X148157452Y-112113238D01*
X148181261Y-112065619D01*
X148228880Y-112018000D01*
X148300309Y-111994190D01*
X148347928Y-111994190D01*
X148419357Y-112018000D01*
X148443166Y-112041809D01*
X148681261Y-112494190D02*
X148776500Y-112494190D01*
X148824119Y-112470380D01*
X148847928Y-112446571D01*
X148895547Y-112375142D01*
X148919357Y-112279904D01*
X148919357Y-112089428D01*
X148895547Y-112041809D01*
X148871738Y-112018000D01*
X148824119Y-111994190D01*
X148728880Y-111994190D01*
X148681261Y-112018000D01*
X148657452Y-112041809D01*
X148633642Y-112089428D01*
X148633642Y-112208476D01*
X148657452Y-112256095D01*
X148681261Y-112279904D01*
X148728880Y-112303714D01*
X148824119Y-112303714D01*
X148871738Y-112279904D01*
X148895547Y-112256095D01*
X148919357Y-112208476D01*
%TO.C,C8*%
X157079166Y-112446571D02*
X157055357Y-112470380D01*
X156983928Y-112494190D01*
X156936309Y-112494190D01*
X156864880Y-112470380D01*
X156817261Y-112422761D01*
X156793452Y-112375142D01*
X156769642Y-112279904D01*
X156769642Y-112208476D01*
X156793452Y-112113238D01*
X156817261Y-112065619D01*
X156864880Y-112018000D01*
X156936309Y-111994190D01*
X156983928Y-111994190D01*
X157055357Y-112018000D01*
X157079166Y-112041809D01*
X157364880Y-112208476D02*
X157317261Y-112184666D01*
X157293452Y-112160857D01*
X157269642Y-112113238D01*
X157269642Y-112089428D01*
X157293452Y-112041809D01*
X157317261Y-112018000D01*
X157364880Y-111994190D01*
X157460119Y-111994190D01*
X157507738Y-112018000D01*
X157531547Y-112041809D01*
X157555357Y-112089428D01*
X157555357Y-112113238D01*
X157531547Y-112160857D01*
X157507738Y-112184666D01*
X157460119Y-112208476D01*
X157364880Y-112208476D01*
X157317261Y-112232285D01*
X157293452Y-112256095D01*
X157269642Y-112303714D01*
X157269642Y-112398952D01*
X157293452Y-112446571D01*
X157317261Y-112470380D01*
X157364880Y-112494190D01*
X157460119Y-112494190D01*
X157507738Y-112470380D01*
X157531547Y-112446571D01*
X157555357Y-112398952D01*
X157555357Y-112303714D01*
X157531547Y-112256095D01*
X157507738Y-112232285D01*
X157460119Y-112208476D01*
%TO.C,C7*%
X161397166Y-112446571D02*
X161373357Y-112470380D01*
X161301928Y-112494190D01*
X161254309Y-112494190D01*
X161182880Y-112470380D01*
X161135261Y-112422761D01*
X161111452Y-112375142D01*
X161087642Y-112279904D01*
X161087642Y-112208476D01*
X161111452Y-112113238D01*
X161135261Y-112065619D01*
X161182880Y-112018000D01*
X161254309Y-111994190D01*
X161301928Y-111994190D01*
X161373357Y-112018000D01*
X161397166Y-112041809D01*
X161563833Y-111994190D02*
X161897166Y-111994190D01*
X161682880Y-112494190D01*
%TO.C,C6*%
X165715166Y-112446571D02*
X165691357Y-112470380D01*
X165619928Y-112494190D01*
X165572309Y-112494190D01*
X165500880Y-112470380D01*
X165453261Y-112422761D01*
X165429452Y-112375142D01*
X165405642Y-112279904D01*
X165405642Y-112208476D01*
X165429452Y-112113238D01*
X165453261Y-112065619D01*
X165500880Y-112018000D01*
X165572309Y-111994190D01*
X165619928Y-111994190D01*
X165691357Y-112018000D01*
X165715166Y-112041809D01*
X166143738Y-111994190D02*
X166048500Y-111994190D01*
X166000880Y-112018000D01*
X165977071Y-112041809D01*
X165929452Y-112113238D01*
X165905642Y-112208476D01*
X165905642Y-112398952D01*
X165929452Y-112446571D01*
X165953261Y-112470380D01*
X166000880Y-112494190D01*
X166096119Y-112494190D01*
X166143738Y-112470380D01*
X166167547Y-112446571D01*
X166191357Y-112398952D01*
X166191357Y-112279904D01*
X166167547Y-112232285D01*
X166143738Y-112208476D01*
X166096119Y-112184666D01*
X166000880Y-112184666D01*
X165953261Y-112208476D01*
X165929452Y-112232285D01*
X165905642Y-112279904D01*
%TO.C,C5*%
X144125166Y-112446571D02*
X144101357Y-112470380D01*
X144029928Y-112494190D01*
X143982309Y-112494190D01*
X143910880Y-112470380D01*
X143863261Y-112422761D01*
X143839452Y-112375142D01*
X143815642Y-112279904D01*
X143815642Y-112208476D01*
X143839452Y-112113238D01*
X143863261Y-112065619D01*
X143910880Y-112018000D01*
X143982309Y-111994190D01*
X144029928Y-111994190D01*
X144101357Y-112018000D01*
X144125166Y-112041809D01*
X144577547Y-111994190D02*
X144339452Y-111994190D01*
X144315642Y-112232285D01*
X144339452Y-112208476D01*
X144387071Y-112184666D01*
X144506119Y-112184666D01*
X144553738Y-112208476D01*
X144577547Y-112232285D01*
X144601357Y-112279904D01*
X144601357Y-112398952D01*
X144577547Y-112446571D01*
X144553738Y-112470380D01*
X144506119Y-112494190D01*
X144387071Y-112494190D01*
X144339452Y-112470380D01*
X144315642Y-112446571D01*
%TD*%
M02*
