%TF.GenerationSoftware,KiCad,Pcbnew,(5.1.10)-1*%
%TF.CreationDate,2022-12-02T20:43:51-06:00*%
%TF.ProjectId,expansion_board,65787061-6e73-4696-9f6e-5f626f617264,rev?*%
%TF.SameCoordinates,Original*%
%TF.FileFunction,Copper,L2,Bot*%
%TF.FilePolarity,Positive*%
%FSLAX46Y46*%
G04 Gerber Fmt 4.6, Leading zero omitted, Abs format (unit mm)*
G04 Created by KiCad (PCBNEW (5.1.10)-1) date 2022-12-02 20:43:51*
%MOMM*%
%LPD*%
G01*
G04 APERTURE LIST*
%TA.AperFunction,ComponentPad*%
%ADD10C,1.100000*%
%TD*%
%TA.AperFunction,ComponentPad*%
%ADD11C,2.400000*%
%TD*%
%TA.AperFunction,ComponentPad*%
%ADD12R,2.400000X2.400000*%
%TD*%
%TA.AperFunction,ComponentPad*%
%ADD13O,1.600000X1.600000*%
%TD*%
%TA.AperFunction,ComponentPad*%
%ADD14C,1.600000*%
%TD*%
%TA.AperFunction,ComponentPad*%
%ADD15O,1.700000X1.700000*%
%TD*%
%TA.AperFunction,ComponentPad*%
%ADD16R,1.700000X1.700000*%
%TD*%
%TA.AperFunction,ComponentPad*%
%ADD17C,1.800000*%
%TD*%
%TA.AperFunction,ComponentPad*%
%ADD18R,1.800000X1.800000*%
%TD*%
%TA.AperFunction,Conductor*%
%ADD19C,0.250000*%
%TD*%
%TA.AperFunction,Conductor*%
%ADD20C,0.254000*%
%TD*%
%TA.AperFunction,Conductor*%
%ADD21C,0.100000*%
%TD*%
G04 APERTURE END LIST*
D10*
%TO.P,J2,26*%
%TO.N,Net-(J2-Pad26)*%
X193020000Y-112409000D03*
%TO.P,J2,25*%
%TO.N,Net-(J2-Pad25)*%
X193020000Y-111159000D03*
%TO.P,J2,24*%
%TO.N,Net-(J2-Pad24)*%
X193020000Y-109909000D03*
%TO.P,J2,23*%
%TO.N,Net-(J2-Pad23)*%
X193020000Y-108659000D03*
%TO.P,J2,22*%
%TO.N,Net-(J2-Pad22)*%
X193020000Y-107409000D03*
%TO.P,J2,21*%
%TO.N,Net-(J2-Pad21)*%
X193020000Y-106159000D03*
%TO.P,J2,20*%
%TO.N,Net-(J2-Pad20)*%
X193020000Y-104909000D03*
%TO.P,J2,19*%
%TO.N,GND*%
X193020000Y-103659000D03*
%TO.P,J2,18*%
%TO.N,Net-(J2-Pad18)*%
X193020000Y-102409000D03*
%TO.P,J2,17*%
%TO.N,Net-(J2-Pad17)*%
X193020000Y-101159000D03*
%TO.P,J2,16*%
%TO.N,Net-(J2-Pad16)*%
X193020000Y-99909000D03*
%TO.P,J2,15*%
%TO.N,Net-(J2-Pad15)*%
X193020000Y-98659000D03*
%TO.P,J2,14*%
%TO.N,+3V3*%
X193020000Y-97409000D03*
%TO.P,J2,13*%
%TO.N,Net-(J2-Pad13)*%
X191770000Y-112409000D03*
%TO.P,J2,12*%
%TO.N,Net-(J2-Pad12)*%
X191770000Y-111159000D03*
%TO.P,J2,11*%
%TO.N,Net-(J2-Pad11)*%
X191770000Y-109909000D03*
%TO.P,J2,10*%
%TO.N,Net-(J2-Pad10)*%
X191770000Y-108659000D03*
%TO.P,J2,9*%
%TO.N,Net-(J2-Pad9)*%
X191770000Y-107409000D03*
%TO.P,J2,8*%
%TO.N,Net-(J2-Pad8)*%
X191770000Y-106159000D03*
%TO.P,J2,7*%
%TO.N,Net-(J2-Pad7)*%
X191770000Y-104909000D03*
%TO.P,J2,6*%
%TO.N,Net-(J2-Pad6)*%
X191770000Y-103659000D03*
%TO.P,J2,5*%
%TO.N,Net-(J2-Pad5)*%
X191770000Y-102409000D03*
%TO.P,J2,4*%
%TO.N,Net-(J2-Pad4)*%
X191770000Y-101159000D03*
%TO.P,J2,3*%
%TO.N,Net-(J2-Pad3)*%
X191770000Y-99909000D03*
%TO.P,J2,2*%
%TO.N,Net-(J2-Pad2)*%
X191770000Y-98659000D03*
%TO.P,J2,1*%
%TO.N,Net-(J2-Pad1)*%
X191770000Y-97409000D03*
%TD*%
D11*
%TO.P,J6,7*%
%TO.N,Net-(J2-Pad8)*%
X120097000Y-74549000D03*
%TO.P,J6,6*%
%TO.N,Net-(J2-Pad6)*%
X123597000Y-74549000D03*
%TO.P,J6,5*%
%TO.N,Net-(J2-Pad5)*%
X127097000Y-74549000D03*
%TO.P,J6,4*%
%TO.N,Net-(J2-Pad4)*%
X130597000Y-74549000D03*
%TO.P,J6,3*%
%TO.N,Net-(J2-Pad3)*%
X134097000Y-74549000D03*
%TO.P,J6,2*%
%TO.N,Net-(J2-Pad2)*%
X137597000Y-74549000D03*
D12*
%TO.P,J6,1*%
%TO.N,Net-(J2-Pad1)*%
X141097000Y-74549000D03*
%TD*%
D11*
%TO.P,J5,7*%
%TO.N,Net-(J2-Pad24)*%
X177501000Y-74549000D03*
%TO.P,J5,6*%
%TO.N,Net-(J2-Pad26)*%
X181001000Y-74549000D03*
%TO.P,J5,5*%
%TO.N,Net-(J2-Pad13)*%
X184501000Y-74549000D03*
%TO.P,J5,4*%
%TO.N,Net-(J2-Pad12)*%
X188001000Y-74549000D03*
%TO.P,J5,3*%
%TO.N,Net-(J2-Pad11)*%
X191501000Y-74549000D03*
%TO.P,J5,2*%
%TO.N,Net-(J2-Pad9)*%
X195001000Y-74549000D03*
D12*
%TO.P,J5,1*%
%TO.N,Net-(J2-Pad1)*%
X198501000Y-74549000D03*
%TD*%
D11*
%TO.P,J4,7*%
%TO.N,Net-(J2-Pad16)*%
X148799000Y-74549000D03*
%TO.P,J4,6*%
%TO.N,Net-(J2-Pad17)*%
X152299000Y-74549000D03*
%TO.P,J4,5*%
%TO.N,Net-(J2-Pad18)*%
X155799000Y-74549000D03*
%TO.P,J4,4*%
%TO.N,Net-(J2-Pad20)*%
X159299000Y-74549000D03*
%TO.P,J4,3*%
%TO.N,Net-(J2-Pad21)*%
X162799000Y-74549000D03*
%TO.P,J4,2*%
%TO.N,Net-(J2-Pad22)*%
X166299000Y-74549000D03*
D12*
%TO.P,J4,1*%
%TO.N,Net-(J2-Pad1)*%
X169799000Y-74549000D03*
%TD*%
D13*
%TO.P,FAULT,2*%
%TO.N,GND*%
X156210000Y-125095000D03*
D14*
%TO.P,FAULT,1*%
%TO.N,Net-(D1-Pad1)*%
X148590000Y-125095000D03*
%TD*%
D15*
%TO.P,J3,8*%
%TO.N,+3V3*%
X122301000Y-93599000D03*
%TO.P,J3,7*%
X122301000Y-96139000D03*
%TO.P,J3,6*%
%TO.N,Net-(D1-Pad2)*%
X122301000Y-98679000D03*
%TO.P,J3,5*%
%TO.N,Net-(J3-Pad5)*%
X122301000Y-101219000D03*
%TO.P,J3,4*%
%TO.N,Net-(J1-Pad4)*%
X122301000Y-103759000D03*
%TO.P,J3,3*%
%TO.N,Net-(J1-Pad5)*%
X122301000Y-106299000D03*
%TO.P,J3,2*%
%TO.N,GND*%
X122301000Y-108839000D03*
D16*
%TO.P,J3,1*%
X122301000Y-111379000D03*
%TD*%
D15*
%TO.P,J1,6*%
%TO.N,Net-(J1-Pad6)*%
X169926000Y-116459000D03*
%TO.P,J1,5*%
%TO.N,Net-(J1-Pad5)*%
X172466000Y-116459000D03*
%TO.P,J1,4*%
%TO.N,Net-(J1-Pad4)*%
X175006000Y-116459000D03*
%TO.P,J1,3*%
%TO.N,+3V3*%
X177546000Y-116459000D03*
%TO.P,J1,2*%
%TO.N,Net-(J1-Pad2)*%
X180086000Y-116459000D03*
D16*
%TO.P,J1,1*%
%TO.N,GND*%
X182626000Y-116459000D03*
%TD*%
D17*
%TO.P,D1,2*%
%TO.N,Net-(D1-Pad2)*%
X152450800Y-131597400D03*
D18*
%TO.P,D1,1*%
%TO.N,Net-(D1-Pad1)*%
X152450800Y-129057400D03*
%TD*%
D19*
%TO.N,+3V3*%
X193020000Y-97409000D02*
X194945000Y-97409000D01*
X194945000Y-97409000D02*
X195707000Y-98171000D01*
X195707000Y-98171000D02*
X195707000Y-118364000D01*
X195707000Y-118364000D02*
X194310000Y-119761000D01*
X194310000Y-119761000D02*
X178435000Y-119761000D01*
X177546000Y-118872000D02*
X177546000Y-116459000D01*
X178435000Y-119761000D02*
X177546000Y-118872000D01*
%TO.N,Net-(J2-Pad1)*%
X191770000Y-97409000D02*
X190246000Y-97409000D01*
X190246000Y-97409000D02*
X188341000Y-95504000D01*
X188341000Y-84709000D02*
X198501000Y-74549000D01*
X188341000Y-95504000D02*
X188341000Y-84709000D01*
%TD*%
D20*
%TO.N,GND*%
X119445917Y-62547067D02*
X119207467Y-62785517D01*
X119020119Y-63065903D01*
X118891071Y-63377452D01*
X118825283Y-63708191D01*
X118825283Y-64045409D01*
X118891071Y-64376148D01*
X119020119Y-64687697D01*
X119207467Y-64968083D01*
X119445917Y-65206533D01*
X119726303Y-65393881D01*
X120037852Y-65522929D01*
X120368591Y-65588717D01*
X120705809Y-65588717D01*
X121036548Y-65522929D01*
X121348097Y-65393881D01*
X121401510Y-65358191D01*
X134325283Y-65358191D01*
X134325283Y-65695409D01*
X134391071Y-66026148D01*
X134520119Y-66337697D01*
X134707467Y-66618083D01*
X134945917Y-66856533D01*
X135226303Y-67043881D01*
X135537852Y-67172929D01*
X135868591Y-67238717D01*
X136205809Y-67238717D01*
X136536548Y-67172929D01*
X136848097Y-67043881D01*
X137128483Y-66856533D01*
X137366933Y-66618083D01*
X137554281Y-66337697D01*
X137683329Y-66026148D01*
X137749117Y-65695409D01*
X137749117Y-65358191D01*
X181325284Y-65358191D01*
X181325284Y-65695409D01*
X181391072Y-66026147D01*
X181520120Y-66337696D01*
X181707468Y-66618083D01*
X181945917Y-66856532D01*
X182226304Y-67043880D01*
X182537853Y-67172928D01*
X182868591Y-67238716D01*
X183205809Y-67238716D01*
X183536547Y-67172928D01*
X183848096Y-67043880D01*
X184128483Y-66856532D01*
X184366932Y-66618083D01*
X184554280Y-66337696D01*
X184683328Y-66026147D01*
X184749116Y-65695409D01*
X184749116Y-65358191D01*
X184683328Y-65027453D01*
X184554280Y-64715904D01*
X184366932Y-64435517D01*
X184128483Y-64197068D01*
X183848096Y-64009720D01*
X183536547Y-63880672D01*
X183205809Y-63814884D01*
X182868591Y-63814884D01*
X182537853Y-63880672D01*
X182226304Y-64009720D01*
X181945917Y-64197068D01*
X181707468Y-64435517D01*
X181520120Y-64715904D01*
X181391072Y-65027453D01*
X181325284Y-65358191D01*
X137749117Y-65358191D01*
X137683329Y-65027452D01*
X137554281Y-64715903D01*
X137366933Y-64435517D01*
X137128483Y-64197067D01*
X136848097Y-64009719D01*
X136536548Y-63880671D01*
X136205809Y-63814883D01*
X135868591Y-63814883D01*
X135537852Y-63880671D01*
X135226303Y-64009719D01*
X134945917Y-64197067D01*
X134707467Y-64435517D01*
X134520119Y-64715903D01*
X134391071Y-65027452D01*
X134325283Y-65358191D01*
X121401510Y-65358191D01*
X121628483Y-65206533D01*
X121866933Y-64968083D01*
X122054281Y-64687697D01*
X122183329Y-64376148D01*
X122249117Y-64045409D01*
X122249117Y-63708191D01*
X122183329Y-63377452D01*
X122054281Y-63065903D01*
X121866933Y-62785517D01*
X121628483Y-62547067D01*
X121569716Y-62507800D01*
X202556601Y-62507800D01*
X202556600Y-136545799D01*
X116518200Y-136545799D01*
X116518200Y-133107190D01*
X118824487Y-133107190D01*
X118824487Y-133444564D01*
X118890306Y-133775457D01*
X119019414Y-134087151D01*
X119206849Y-134367668D01*
X119445409Y-134606228D01*
X119725926Y-134793663D01*
X120037620Y-134922771D01*
X120368513Y-134988590D01*
X120705887Y-134988590D01*
X121036780Y-134922771D01*
X121348474Y-134793663D01*
X121628991Y-134606228D01*
X121867551Y-134367668D01*
X122054986Y-134087151D01*
X122184094Y-133775457D01*
X122249913Y-133444564D01*
X122249913Y-133107190D01*
X196824487Y-133107190D01*
X196824487Y-133444564D01*
X196890306Y-133775457D01*
X197019414Y-134087151D01*
X197206849Y-134367668D01*
X197445409Y-134606228D01*
X197725926Y-134793663D01*
X198037620Y-134922771D01*
X198368513Y-134988590D01*
X198705887Y-134988590D01*
X199036780Y-134922771D01*
X199348474Y-134793663D01*
X199628991Y-134606228D01*
X199867551Y-134367668D01*
X200054986Y-134087151D01*
X200184094Y-133775457D01*
X200249913Y-133444564D01*
X200249913Y-133107190D01*
X200184094Y-132776297D01*
X200054986Y-132464603D01*
X199867551Y-132184086D01*
X199628991Y-131945526D01*
X199348474Y-131758091D01*
X199036780Y-131628983D01*
X198705887Y-131563164D01*
X198368513Y-131563164D01*
X198037620Y-131628983D01*
X197725926Y-131758091D01*
X197445409Y-131945526D01*
X197206849Y-132184086D01*
X197019414Y-132464603D01*
X196890306Y-132776297D01*
X196824487Y-133107190D01*
X122249913Y-133107190D01*
X122184094Y-132776297D01*
X122054986Y-132464603D01*
X121867551Y-132184086D01*
X121628991Y-131945526D01*
X121348474Y-131758091D01*
X121036780Y-131628983D01*
X120705887Y-131563164D01*
X120368513Y-131563164D01*
X120037620Y-131628983D01*
X119725926Y-131758091D01*
X119445409Y-131945526D01*
X119206849Y-132184086D01*
X119019414Y-132464603D01*
X118890306Y-132776297D01*
X118824487Y-133107190D01*
X116518200Y-133107190D01*
X116518200Y-128157400D01*
X151167957Y-128157400D01*
X151167957Y-129957400D01*
X151175313Y-130032089D01*
X151197099Y-130103908D01*
X151232478Y-130170096D01*
X151280089Y-130228111D01*
X151338104Y-130275722D01*
X151404292Y-130311101D01*
X151476111Y-130332887D01*
X151550800Y-130340243D01*
X152204766Y-130340243D01*
X152077146Y-130365628D01*
X151844019Y-130462193D01*
X151634210Y-130602382D01*
X151455782Y-130780810D01*
X151315593Y-130990619D01*
X151219028Y-131223746D01*
X151169800Y-131471233D01*
X151169800Y-131723567D01*
X151219028Y-131971054D01*
X151315593Y-132204181D01*
X151455782Y-132413990D01*
X151634210Y-132592418D01*
X151844019Y-132732607D01*
X152077146Y-132829172D01*
X152324633Y-132878400D01*
X152576967Y-132878400D01*
X152824454Y-132829172D01*
X153057581Y-132732607D01*
X153267390Y-132592418D01*
X153445818Y-132413990D01*
X153586007Y-132204181D01*
X153682572Y-131971054D01*
X153731800Y-131723567D01*
X153731800Y-131471233D01*
X153682572Y-131223746D01*
X153586007Y-130990619D01*
X153445818Y-130780810D01*
X153267390Y-130602382D01*
X153057581Y-130462193D01*
X152824454Y-130365628D01*
X152696834Y-130340243D01*
X153350800Y-130340243D01*
X153425489Y-130332887D01*
X153497308Y-130311101D01*
X153563496Y-130275722D01*
X153621511Y-130228111D01*
X153669122Y-130170096D01*
X153704501Y-130103908D01*
X153726287Y-130032089D01*
X153733643Y-129957400D01*
X153733643Y-128157400D01*
X153726287Y-128082711D01*
X153704501Y-128010892D01*
X153669122Y-127944704D01*
X153621511Y-127886689D01*
X153563496Y-127839078D01*
X153497308Y-127803699D01*
X153425489Y-127781913D01*
X153350800Y-127774557D01*
X151550800Y-127774557D01*
X151476111Y-127781913D01*
X151404292Y-127803699D01*
X151338104Y-127839078D01*
X151280089Y-127886689D01*
X151232478Y-127944704D01*
X151197099Y-128010892D01*
X151175313Y-128082711D01*
X151167957Y-128157400D01*
X116518200Y-128157400D01*
X116518200Y-124978682D01*
X147409000Y-124978682D01*
X147409000Y-125211318D01*
X147454386Y-125439485D01*
X147543412Y-125654413D01*
X147672658Y-125847843D01*
X147837157Y-126012342D01*
X148030587Y-126141588D01*
X148245515Y-126230614D01*
X148473682Y-126276000D01*
X148706318Y-126276000D01*
X148934485Y-126230614D01*
X149149413Y-126141588D01*
X149342843Y-126012342D01*
X149507342Y-125847843D01*
X149636588Y-125654413D01*
X149723727Y-125444039D01*
X154818096Y-125444039D01*
X154858754Y-125578087D01*
X154978963Y-125832420D01*
X155146481Y-126058414D01*
X155354869Y-126247385D01*
X155596119Y-126392070D01*
X155860960Y-126486909D01*
X156083000Y-126365624D01*
X156083000Y-125222000D01*
X156337000Y-125222000D01*
X156337000Y-126365624D01*
X156559040Y-126486909D01*
X156823881Y-126392070D01*
X157065131Y-126247385D01*
X157273519Y-126058414D01*
X157441037Y-125832420D01*
X157561246Y-125578087D01*
X157601904Y-125444039D01*
X157479915Y-125222000D01*
X156337000Y-125222000D01*
X156083000Y-125222000D01*
X154940085Y-125222000D01*
X154818096Y-125444039D01*
X149723727Y-125444039D01*
X149725614Y-125439485D01*
X149771000Y-125211318D01*
X149771000Y-124978682D01*
X149725614Y-124750515D01*
X149723728Y-124745961D01*
X154818096Y-124745961D01*
X154940085Y-124968000D01*
X156083000Y-124968000D01*
X156083000Y-123824376D01*
X156337000Y-123824376D01*
X156337000Y-124968000D01*
X157479915Y-124968000D01*
X157601904Y-124745961D01*
X157561246Y-124611913D01*
X157441037Y-124357580D01*
X157273519Y-124131586D01*
X157065131Y-123942615D01*
X156823881Y-123797930D01*
X156559040Y-123703091D01*
X156337000Y-123824376D01*
X156083000Y-123824376D01*
X155860960Y-123703091D01*
X155596119Y-123797930D01*
X155354869Y-123942615D01*
X155146481Y-124131586D01*
X154978963Y-124357580D01*
X154858754Y-124611913D01*
X154818096Y-124745961D01*
X149723728Y-124745961D01*
X149636588Y-124535587D01*
X149507342Y-124342157D01*
X149342843Y-124177658D01*
X149149413Y-124048412D01*
X148934485Y-123959386D01*
X148706318Y-123914000D01*
X148473682Y-123914000D01*
X148245515Y-123959386D01*
X148030587Y-124048412D01*
X147837157Y-124177658D01*
X147672658Y-124342157D01*
X147543412Y-124535587D01*
X147454386Y-124750515D01*
X147409000Y-124978682D01*
X116518200Y-124978682D01*
X116518200Y-122858190D01*
X124825283Y-122858190D01*
X124825283Y-123195408D01*
X124891071Y-123526147D01*
X125020119Y-123837696D01*
X125207467Y-124118082D01*
X125445917Y-124356532D01*
X125726303Y-124543880D01*
X126037852Y-124672928D01*
X126368591Y-124738716D01*
X126705809Y-124738716D01*
X127036548Y-124672928D01*
X127348097Y-124543880D01*
X127628483Y-124356532D01*
X127866933Y-124118082D01*
X128054281Y-123837696D01*
X128183329Y-123526147D01*
X128249117Y-123195408D01*
X128249117Y-122858190D01*
X190825283Y-122858190D01*
X190825283Y-123195408D01*
X190891071Y-123526147D01*
X191020119Y-123837696D01*
X191207467Y-124118082D01*
X191445917Y-124356532D01*
X191726303Y-124543880D01*
X192037852Y-124672928D01*
X192368591Y-124738716D01*
X192705809Y-124738716D01*
X193036548Y-124672928D01*
X193348097Y-124543880D01*
X193628483Y-124356532D01*
X193866933Y-124118082D01*
X194054281Y-123837696D01*
X194183329Y-123526147D01*
X194249117Y-123195408D01*
X194249117Y-122858190D01*
X194183329Y-122527451D01*
X194054281Y-122215902D01*
X193866933Y-121935516D01*
X193628483Y-121697066D01*
X193348097Y-121509718D01*
X193036548Y-121380670D01*
X192705809Y-121314882D01*
X192368591Y-121314882D01*
X192037852Y-121380670D01*
X191726303Y-121509718D01*
X191445917Y-121697066D01*
X191207467Y-121935516D01*
X191020119Y-122215902D01*
X190891071Y-122527451D01*
X190825283Y-122858190D01*
X128249117Y-122858190D01*
X128183329Y-122527451D01*
X128054281Y-122215902D01*
X127866933Y-121935516D01*
X127628483Y-121697066D01*
X127348097Y-121509718D01*
X127036548Y-121380670D01*
X126705809Y-121314882D01*
X126368591Y-121314882D01*
X126037852Y-121380670D01*
X125726303Y-121509718D01*
X125445917Y-121697066D01*
X125207467Y-121935516D01*
X125020119Y-122215902D01*
X124891071Y-122527451D01*
X124825283Y-122858190D01*
X116518200Y-122858190D01*
X116518200Y-116337757D01*
X168695000Y-116337757D01*
X168695000Y-116580243D01*
X168742307Y-116818069D01*
X168835102Y-117042097D01*
X168969820Y-117243717D01*
X169141283Y-117415180D01*
X169342903Y-117549898D01*
X169566931Y-117642693D01*
X169804757Y-117690000D01*
X170047243Y-117690000D01*
X170285069Y-117642693D01*
X170509097Y-117549898D01*
X170710717Y-117415180D01*
X170882180Y-117243717D01*
X171016898Y-117042097D01*
X171109693Y-116818069D01*
X171157000Y-116580243D01*
X171157000Y-116337757D01*
X171235000Y-116337757D01*
X171235000Y-116580243D01*
X171282307Y-116818069D01*
X171375102Y-117042097D01*
X171509820Y-117243717D01*
X171681283Y-117415180D01*
X171882903Y-117549898D01*
X172106931Y-117642693D01*
X172344757Y-117690000D01*
X172587243Y-117690000D01*
X172825069Y-117642693D01*
X173049097Y-117549898D01*
X173250717Y-117415180D01*
X173422180Y-117243717D01*
X173556898Y-117042097D01*
X173649693Y-116818069D01*
X173697000Y-116580243D01*
X173697000Y-116337757D01*
X173775000Y-116337757D01*
X173775000Y-116580243D01*
X173822307Y-116818069D01*
X173915102Y-117042097D01*
X174049820Y-117243717D01*
X174221283Y-117415180D01*
X174422903Y-117549898D01*
X174646931Y-117642693D01*
X174884757Y-117690000D01*
X175127243Y-117690000D01*
X175365069Y-117642693D01*
X175589097Y-117549898D01*
X175790717Y-117415180D01*
X175962180Y-117243717D01*
X176096898Y-117042097D01*
X176189693Y-116818069D01*
X176237000Y-116580243D01*
X176237000Y-116337757D01*
X176315000Y-116337757D01*
X176315000Y-116580243D01*
X176362307Y-116818069D01*
X176455102Y-117042097D01*
X176589820Y-117243717D01*
X176761283Y-117415180D01*
X176962903Y-117549898D01*
X177040001Y-117581833D01*
X177040000Y-118847154D01*
X177037553Y-118872000D01*
X177040000Y-118896846D01*
X177040000Y-118896853D01*
X177047322Y-118971192D01*
X177076255Y-119066574D01*
X177123241Y-119154479D01*
X177186473Y-119231527D01*
X177205785Y-119247376D01*
X178059628Y-120101220D01*
X178075473Y-120120527D01*
X178152521Y-120183759D01*
X178240425Y-120230745D01*
X178335807Y-120259678D01*
X178435000Y-120269448D01*
X178459854Y-120267000D01*
X194285154Y-120267000D01*
X194310000Y-120269447D01*
X194334846Y-120267000D01*
X194334854Y-120267000D01*
X194409193Y-120259678D01*
X194504575Y-120230745D01*
X194592479Y-120183759D01*
X194669527Y-120120527D01*
X194685376Y-120101215D01*
X196047220Y-118739372D01*
X196066527Y-118723527D01*
X196129759Y-118646479D01*
X196176745Y-118558575D01*
X196205678Y-118463193D01*
X196213000Y-118388854D01*
X196213000Y-118388847D01*
X196215447Y-118364001D01*
X196213000Y-118339155D01*
X196213000Y-98195854D01*
X196215448Y-98171000D01*
X196205678Y-98071807D01*
X196176745Y-97976425D01*
X196155054Y-97935845D01*
X196129759Y-97888521D01*
X196066527Y-97811473D01*
X196047220Y-97795628D01*
X195320376Y-97068785D01*
X195304527Y-97049473D01*
X195227479Y-96986241D01*
X195139575Y-96939255D01*
X195044193Y-96910322D01*
X194969854Y-96903000D01*
X194969846Y-96903000D01*
X194945000Y-96900553D01*
X194920154Y-96903000D01*
X193801606Y-96903000D01*
X193743155Y-96815522D01*
X193613478Y-96685845D01*
X193460994Y-96583958D01*
X193291563Y-96513778D01*
X193111696Y-96478000D01*
X192928304Y-96478000D01*
X192748437Y-96513778D01*
X192579006Y-96583958D01*
X192426522Y-96685845D01*
X192395000Y-96717367D01*
X192363478Y-96685845D01*
X192210994Y-96583958D01*
X192041563Y-96513778D01*
X191861696Y-96478000D01*
X191678304Y-96478000D01*
X191498437Y-96513778D01*
X191329006Y-96583958D01*
X191176522Y-96685845D01*
X191046845Y-96815522D01*
X190988394Y-96903000D01*
X190455592Y-96903000D01*
X188847000Y-95294409D01*
X188847000Y-86858191D01*
X190825283Y-86858191D01*
X190825283Y-87195409D01*
X190891071Y-87526148D01*
X191020119Y-87837697D01*
X191207467Y-88118083D01*
X191445917Y-88356533D01*
X191726303Y-88543881D01*
X192037852Y-88672929D01*
X192368591Y-88738717D01*
X192705809Y-88738717D01*
X193036548Y-88672929D01*
X193348097Y-88543881D01*
X193628483Y-88356533D01*
X193866933Y-88118083D01*
X194054281Y-87837697D01*
X194183329Y-87526148D01*
X194249117Y-87195409D01*
X194249117Y-86858191D01*
X194183329Y-86527452D01*
X194054281Y-86215903D01*
X193866933Y-85935517D01*
X193628483Y-85697067D01*
X193348097Y-85509719D01*
X193036548Y-85380671D01*
X192705809Y-85314883D01*
X192368591Y-85314883D01*
X192037852Y-85380671D01*
X191726303Y-85509719D01*
X191445917Y-85697067D01*
X191207467Y-85935517D01*
X191020119Y-86215903D01*
X190891071Y-86527452D01*
X190825283Y-86858191D01*
X188847000Y-86858191D01*
X188847000Y-84918591D01*
X197633749Y-76131843D01*
X199701000Y-76131843D01*
X199775689Y-76124487D01*
X199847508Y-76102701D01*
X199913696Y-76067322D01*
X199971711Y-76019711D01*
X200019322Y-75961696D01*
X200054701Y-75895508D01*
X200076487Y-75823689D01*
X200083843Y-75749000D01*
X200083843Y-73349000D01*
X200076487Y-73274311D01*
X200054701Y-73202492D01*
X200019322Y-73136304D01*
X199971711Y-73078289D01*
X199913696Y-73030678D01*
X199847508Y-72995299D01*
X199775689Y-72973513D01*
X199701000Y-72966157D01*
X197301000Y-72966157D01*
X197226311Y-72973513D01*
X197154492Y-72995299D01*
X197088304Y-73030678D01*
X197030289Y-73078289D01*
X196982678Y-73136304D01*
X196947299Y-73202492D01*
X196925513Y-73274311D01*
X196918157Y-73349000D01*
X196918157Y-75416251D01*
X188000781Y-84333628D01*
X187981474Y-84349473D01*
X187918242Y-84426521D01*
X187893127Y-84473508D01*
X187871255Y-84514426D01*
X187842322Y-84609808D01*
X187832553Y-84709000D01*
X187835001Y-84733856D01*
X187835000Y-95479154D01*
X187832553Y-95504000D01*
X187835000Y-95528846D01*
X187835000Y-95528853D01*
X187842322Y-95603192D01*
X187871255Y-95698574D01*
X187918241Y-95786479D01*
X187981473Y-95863527D01*
X188000785Y-95879376D01*
X189870628Y-97749220D01*
X189886473Y-97768527D01*
X189963521Y-97831759D01*
X190051425Y-97878745D01*
X190146807Y-97907678D01*
X190246000Y-97917448D01*
X190270854Y-97915000D01*
X190988394Y-97915000D01*
X191046845Y-98002478D01*
X191078367Y-98034000D01*
X191046845Y-98065522D01*
X190944958Y-98218006D01*
X190874778Y-98387437D01*
X190839000Y-98567304D01*
X190839000Y-98750696D01*
X190874778Y-98930563D01*
X190944958Y-99099994D01*
X191046845Y-99252478D01*
X191078367Y-99284000D01*
X191046845Y-99315522D01*
X190944958Y-99468006D01*
X190874778Y-99637437D01*
X190839000Y-99817304D01*
X190839000Y-100000696D01*
X190874778Y-100180563D01*
X190944958Y-100349994D01*
X191046845Y-100502478D01*
X191078367Y-100534000D01*
X191046845Y-100565522D01*
X190944958Y-100718006D01*
X190874778Y-100887437D01*
X190839000Y-101067304D01*
X190839000Y-101250696D01*
X190874778Y-101430563D01*
X190944958Y-101599994D01*
X191046845Y-101752478D01*
X191078367Y-101784000D01*
X191046845Y-101815522D01*
X190944958Y-101968006D01*
X190874778Y-102137437D01*
X190839000Y-102317304D01*
X190839000Y-102500696D01*
X190874778Y-102680563D01*
X190944958Y-102849994D01*
X191046845Y-103002478D01*
X191078367Y-103034000D01*
X191046845Y-103065522D01*
X190944958Y-103218006D01*
X190874778Y-103387437D01*
X190839000Y-103567304D01*
X190839000Y-103750696D01*
X190874778Y-103930563D01*
X190944958Y-104099994D01*
X191046845Y-104252478D01*
X191078367Y-104284000D01*
X191046845Y-104315522D01*
X190944958Y-104468006D01*
X190874778Y-104637437D01*
X190839000Y-104817304D01*
X190839000Y-105000696D01*
X190874778Y-105180563D01*
X190944958Y-105349994D01*
X191046845Y-105502478D01*
X191078367Y-105534000D01*
X191046845Y-105565522D01*
X190944958Y-105718006D01*
X190874778Y-105887437D01*
X190839000Y-106067304D01*
X190839000Y-106250696D01*
X190874778Y-106430563D01*
X190944958Y-106599994D01*
X191046845Y-106752478D01*
X191078367Y-106784000D01*
X191046845Y-106815522D01*
X190944958Y-106968006D01*
X190874778Y-107137437D01*
X190839000Y-107317304D01*
X190839000Y-107500696D01*
X190874778Y-107680563D01*
X190944958Y-107849994D01*
X191046845Y-108002478D01*
X191078367Y-108034000D01*
X191046845Y-108065522D01*
X190944958Y-108218006D01*
X190874778Y-108387437D01*
X190839000Y-108567304D01*
X190839000Y-108750696D01*
X190874778Y-108930563D01*
X190944958Y-109099994D01*
X191046845Y-109252478D01*
X191078367Y-109284000D01*
X191046845Y-109315522D01*
X190944958Y-109468006D01*
X190874778Y-109637437D01*
X190839000Y-109817304D01*
X190839000Y-110000696D01*
X190874778Y-110180563D01*
X190944958Y-110349994D01*
X191046845Y-110502478D01*
X191078367Y-110534000D01*
X191046845Y-110565522D01*
X190944958Y-110718006D01*
X190874778Y-110887437D01*
X190839000Y-111067304D01*
X190839000Y-111250696D01*
X190874778Y-111430563D01*
X190944958Y-111599994D01*
X191046845Y-111752478D01*
X191078367Y-111784000D01*
X191046845Y-111815522D01*
X190944958Y-111968006D01*
X190874778Y-112137437D01*
X190839000Y-112317304D01*
X190839000Y-112500696D01*
X190874778Y-112680563D01*
X190944958Y-112849994D01*
X191046845Y-113002478D01*
X191176522Y-113132155D01*
X191329006Y-113234042D01*
X191498437Y-113304222D01*
X191678304Y-113340000D01*
X191861696Y-113340000D01*
X192041563Y-113304222D01*
X192210994Y-113234042D01*
X192363478Y-113132155D01*
X192395000Y-113100633D01*
X192426522Y-113132155D01*
X192579006Y-113234042D01*
X192748437Y-113304222D01*
X192928304Y-113340000D01*
X193111696Y-113340000D01*
X193291563Y-113304222D01*
X193460994Y-113234042D01*
X193613478Y-113132155D01*
X193743155Y-113002478D01*
X193845042Y-112849994D01*
X193915222Y-112680563D01*
X193951000Y-112500696D01*
X193951000Y-112317304D01*
X193915222Y-112137437D01*
X193845042Y-111968006D01*
X193743155Y-111815522D01*
X193711633Y-111784000D01*
X193743155Y-111752478D01*
X193845042Y-111599994D01*
X193915222Y-111430563D01*
X193951000Y-111250696D01*
X193951000Y-111067304D01*
X193915222Y-110887437D01*
X193845042Y-110718006D01*
X193743155Y-110565522D01*
X193711633Y-110534000D01*
X193743155Y-110502478D01*
X193845042Y-110349994D01*
X193915222Y-110180563D01*
X193951000Y-110000696D01*
X193951000Y-109817304D01*
X193915222Y-109637437D01*
X193845042Y-109468006D01*
X193743155Y-109315522D01*
X193711633Y-109284000D01*
X193743155Y-109252478D01*
X193845042Y-109099994D01*
X193915222Y-108930563D01*
X193951000Y-108750696D01*
X193951000Y-108567304D01*
X193915222Y-108387437D01*
X193845042Y-108218006D01*
X193743155Y-108065522D01*
X193711633Y-108034000D01*
X193743155Y-108002478D01*
X193845042Y-107849994D01*
X193915222Y-107680563D01*
X193951000Y-107500696D01*
X193951000Y-107317304D01*
X193915222Y-107137437D01*
X193845042Y-106968006D01*
X193743155Y-106815522D01*
X193711633Y-106784000D01*
X193743155Y-106752478D01*
X193845042Y-106599994D01*
X193915222Y-106430563D01*
X193951000Y-106250696D01*
X193951000Y-106067304D01*
X193915222Y-105887437D01*
X193845042Y-105718006D01*
X193743155Y-105565522D01*
X193711633Y-105534000D01*
X193743155Y-105502478D01*
X193845042Y-105349994D01*
X193915222Y-105180563D01*
X193951000Y-105000696D01*
X193951000Y-104817304D01*
X193915222Y-104637437D01*
X193845042Y-104468006D01*
X193743155Y-104315522D01*
X193613478Y-104185845D01*
X193460994Y-104083958D01*
X193291563Y-104013778D01*
X193171239Y-103989844D01*
X193020000Y-103838605D01*
X193005858Y-103852748D01*
X192826253Y-103673143D01*
X192840395Y-103659000D01*
X193199605Y-103659000D01*
X193833979Y-104293374D01*
X194052478Y-104252159D01*
X194148359Y-104039335D01*
X194200878Y-103811895D01*
X194208016Y-103578579D01*
X194169500Y-103348354D01*
X194086808Y-103130066D01*
X194052478Y-103065841D01*
X193833979Y-103024626D01*
X193199605Y-103659000D01*
X192840395Y-103659000D01*
X192826253Y-103644858D01*
X193005858Y-103465253D01*
X193020000Y-103479395D01*
X193171239Y-103328156D01*
X193291563Y-103304222D01*
X193460994Y-103234042D01*
X193613478Y-103132155D01*
X193743155Y-103002478D01*
X193845042Y-102849994D01*
X193915222Y-102680563D01*
X193951000Y-102500696D01*
X193951000Y-102317304D01*
X193915222Y-102137437D01*
X193845042Y-101968006D01*
X193743155Y-101815522D01*
X193711633Y-101784000D01*
X193743155Y-101752478D01*
X193845042Y-101599994D01*
X193915222Y-101430563D01*
X193951000Y-101250696D01*
X193951000Y-101067304D01*
X193915222Y-100887437D01*
X193845042Y-100718006D01*
X193743155Y-100565522D01*
X193711633Y-100534000D01*
X193743155Y-100502478D01*
X193845042Y-100349994D01*
X193915222Y-100180563D01*
X193951000Y-100000696D01*
X193951000Y-99817304D01*
X193915222Y-99637437D01*
X193845042Y-99468006D01*
X193743155Y-99315522D01*
X193711633Y-99284000D01*
X193743155Y-99252478D01*
X193845042Y-99099994D01*
X193915222Y-98930563D01*
X193951000Y-98750696D01*
X193951000Y-98567304D01*
X193915222Y-98387437D01*
X193845042Y-98218006D01*
X193743155Y-98065522D01*
X193711633Y-98034000D01*
X193743155Y-98002478D01*
X193801606Y-97915000D01*
X194735409Y-97915000D01*
X195201000Y-98380592D01*
X195201001Y-118154407D01*
X194100409Y-119255000D01*
X178644592Y-119255000D01*
X178052000Y-118662409D01*
X178052000Y-117581832D01*
X178129097Y-117549898D01*
X178330717Y-117415180D01*
X178502180Y-117243717D01*
X178636898Y-117042097D01*
X178729693Y-116818069D01*
X178777000Y-116580243D01*
X178777000Y-116337757D01*
X178855000Y-116337757D01*
X178855000Y-116580243D01*
X178902307Y-116818069D01*
X178995102Y-117042097D01*
X179129820Y-117243717D01*
X179301283Y-117415180D01*
X179502903Y-117549898D01*
X179726931Y-117642693D01*
X179964757Y-117690000D01*
X180207243Y-117690000D01*
X180445069Y-117642693D01*
X180669097Y-117549898D01*
X180870717Y-117415180D01*
X181042180Y-117243717D01*
X181139073Y-117098706D01*
X181137928Y-117309000D01*
X181150188Y-117433482D01*
X181186498Y-117553180D01*
X181245463Y-117663494D01*
X181324815Y-117760185D01*
X181421506Y-117839537D01*
X181531820Y-117898502D01*
X181651518Y-117934812D01*
X181776000Y-117947072D01*
X182340250Y-117944000D01*
X182499000Y-117785250D01*
X182499000Y-116586000D01*
X182753000Y-116586000D01*
X182753000Y-117785250D01*
X182911750Y-117944000D01*
X183476000Y-117947072D01*
X183600482Y-117934812D01*
X183720180Y-117898502D01*
X183830494Y-117839537D01*
X183927185Y-117760185D01*
X184006537Y-117663494D01*
X184065502Y-117553180D01*
X184101812Y-117433482D01*
X184114072Y-117309000D01*
X184111000Y-116744750D01*
X183952250Y-116586000D01*
X182753000Y-116586000D01*
X182499000Y-116586000D01*
X182479000Y-116586000D01*
X182479000Y-116332000D01*
X182499000Y-116332000D01*
X182499000Y-115132750D01*
X182753000Y-115132750D01*
X182753000Y-116332000D01*
X183952250Y-116332000D01*
X184111000Y-116173250D01*
X184114072Y-115609000D01*
X184101812Y-115484518D01*
X184065502Y-115364820D01*
X184006537Y-115254506D01*
X183927185Y-115157815D01*
X183830494Y-115078463D01*
X183720180Y-115019498D01*
X183600482Y-114983188D01*
X183476000Y-114970928D01*
X182911750Y-114974000D01*
X182753000Y-115132750D01*
X182499000Y-115132750D01*
X182340250Y-114974000D01*
X181776000Y-114970928D01*
X181651518Y-114983188D01*
X181531820Y-115019498D01*
X181421506Y-115078463D01*
X181324815Y-115157815D01*
X181245463Y-115254506D01*
X181186498Y-115364820D01*
X181150188Y-115484518D01*
X181137928Y-115609000D01*
X181139073Y-115819294D01*
X181042180Y-115674283D01*
X180870717Y-115502820D01*
X180669097Y-115368102D01*
X180445069Y-115275307D01*
X180207243Y-115228000D01*
X179964757Y-115228000D01*
X179726931Y-115275307D01*
X179502903Y-115368102D01*
X179301283Y-115502820D01*
X179129820Y-115674283D01*
X178995102Y-115875903D01*
X178902307Y-116099931D01*
X178855000Y-116337757D01*
X178777000Y-116337757D01*
X178729693Y-116099931D01*
X178636898Y-115875903D01*
X178502180Y-115674283D01*
X178330717Y-115502820D01*
X178129097Y-115368102D01*
X177905069Y-115275307D01*
X177667243Y-115228000D01*
X177424757Y-115228000D01*
X177186931Y-115275307D01*
X176962903Y-115368102D01*
X176761283Y-115502820D01*
X176589820Y-115674283D01*
X176455102Y-115875903D01*
X176362307Y-116099931D01*
X176315000Y-116337757D01*
X176237000Y-116337757D01*
X176189693Y-116099931D01*
X176096898Y-115875903D01*
X175962180Y-115674283D01*
X175790717Y-115502820D01*
X175589097Y-115368102D01*
X175365069Y-115275307D01*
X175127243Y-115228000D01*
X174884757Y-115228000D01*
X174646931Y-115275307D01*
X174422903Y-115368102D01*
X174221283Y-115502820D01*
X174049820Y-115674283D01*
X173915102Y-115875903D01*
X173822307Y-116099931D01*
X173775000Y-116337757D01*
X173697000Y-116337757D01*
X173649693Y-116099931D01*
X173556898Y-115875903D01*
X173422180Y-115674283D01*
X173250717Y-115502820D01*
X173049097Y-115368102D01*
X172825069Y-115275307D01*
X172587243Y-115228000D01*
X172344757Y-115228000D01*
X172106931Y-115275307D01*
X171882903Y-115368102D01*
X171681283Y-115502820D01*
X171509820Y-115674283D01*
X171375102Y-115875903D01*
X171282307Y-116099931D01*
X171235000Y-116337757D01*
X171157000Y-116337757D01*
X171109693Y-116099931D01*
X171016898Y-115875903D01*
X170882180Y-115674283D01*
X170710717Y-115502820D01*
X170509097Y-115368102D01*
X170285069Y-115275307D01*
X170047243Y-115228000D01*
X169804757Y-115228000D01*
X169566931Y-115275307D01*
X169342903Y-115368102D01*
X169141283Y-115502820D01*
X168969820Y-115674283D01*
X168835102Y-115875903D01*
X168742307Y-116099931D01*
X168695000Y-116337757D01*
X116518200Y-116337757D01*
X116518200Y-112229000D01*
X120812928Y-112229000D01*
X120825188Y-112353482D01*
X120861498Y-112473180D01*
X120920463Y-112583494D01*
X120999815Y-112680185D01*
X121096506Y-112759537D01*
X121206820Y-112818502D01*
X121326518Y-112854812D01*
X121451000Y-112867072D01*
X122015250Y-112864000D01*
X122174000Y-112705250D01*
X122174000Y-111506000D01*
X122428000Y-111506000D01*
X122428000Y-112705250D01*
X122586750Y-112864000D01*
X123151000Y-112867072D01*
X123275482Y-112854812D01*
X123395180Y-112818502D01*
X123505494Y-112759537D01*
X123602185Y-112680185D01*
X123681537Y-112583494D01*
X123740502Y-112473180D01*
X123776812Y-112353482D01*
X123789072Y-112229000D01*
X123786000Y-111664750D01*
X123627250Y-111506000D01*
X122428000Y-111506000D01*
X122174000Y-111506000D01*
X120974750Y-111506000D01*
X120816000Y-111664750D01*
X120812928Y-112229000D01*
X116518200Y-112229000D01*
X116518200Y-110529000D01*
X120812928Y-110529000D01*
X120816000Y-111093250D01*
X120974750Y-111252000D01*
X122174000Y-111252000D01*
X122174000Y-108966000D01*
X122428000Y-108966000D01*
X122428000Y-111252000D01*
X123627250Y-111252000D01*
X123786000Y-111093250D01*
X123789072Y-110529000D01*
X123776812Y-110404518D01*
X123740502Y-110284820D01*
X123681537Y-110174506D01*
X123602185Y-110077815D01*
X123505494Y-109998463D01*
X123395180Y-109939498D01*
X123314534Y-109915034D01*
X123398588Y-109839269D01*
X123572641Y-109605920D01*
X123697825Y-109343099D01*
X123742476Y-109195890D01*
X123621155Y-108966000D01*
X122428000Y-108966000D01*
X122174000Y-108966000D01*
X120980845Y-108966000D01*
X120859524Y-109195890D01*
X120904175Y-109343099D01*
X121029359Y-109605920D01*
X121203412Y-109839269D01*
X121287466Y-109915034D01*
X121206820Y-109939498D01*
X121096506Y-109998463D01*
X120999815Y-110077815D01*
X120920463Y-110174506D01*
X120861498Y-110284820D01*
X120825188Y-110404518D01*
X120812928Y-110529000D01*
X116518200Y-110529000D01*
X116518200Y-108482110D01*
X120859524Y-108482110D01*
X120980845Y-108712000D01*
X122174000Y-108712000D01*
X122174000Y-108692000D01*
X122428000Y-108692000D01*
X122428000Y-108712000D01*
X123621155Y-108712000D01*
X123742476Y-108482110D01*
X123697825Y-108334901D01*
X123572641Y-108072080D01*
X123398588Y-107838731D01*
X123182355Y-107643822D01*
X122932252Y-107494843D01*
X122769832Y-107437228D01*
X122884097Y-107389898D01*
X123085717Y-107255180D01*
X123257180Y-107083717D01*
X123391898Y-106882097D01*
X123484693Y-106658069D01*
X123532000Y-106420243D01*
X123532000Y-106177757D01*
X123484693Y-105939931D01*
X123391898Y-105715903D01*
X123257180Y-105514283D01*
X123085717Y-105342820D01*
X122884097Y-105208102D01*
X122660069Y-105115307D01*
X122422243Y-105068000D01*
X122179757Y-105068000D01*
X121941931Y-105115307D01*
X121717903Y-105208102D01*
X121516283Y-105342820D01*
X121344820Y-105514283D01*
X121210102Y-105715903D01*
X121117307Y-105939931D01*
X121070000Y-106177757D01*
X121070000Y-106420243D01*
X121117307Y-106658069D01*
X121210102Y-106882097D01*
X121344820Y-107083717D01*
X121516283Y-107255180D01*
X121717903Y-107389898D01*
X121832168Y-107437228D01*
X121669748Y-107494843D01*
X121419645Y-107643822D01*
X121203412Y-107838731D01*
X121029359Y-108072080D01*
X120904175Y-108334901D01*
X120859524Y-108482110D01*
X116518200Y-108482110D01*
X116518200Y-103637757D01*
X121070000Y-103637757D01*
X121070000Y-103880243D01*
X121117307Y-104118069D01*
X121210102Y-104342097D01*
X121344820Y-104543717D01*
X121516283Y-104715180D01*
X121717903Y-104849898D01*
X121941931Y-104942693D01*
X122179757Y-104990000D01*
X122422243Y-104990000D01*
X122660069Y-104942693D01*
X122884097Y-104849898D01*
X123085717Y-104715180D01*
X123257180Y-104543717D01*
X123391898Y-104342097D01*
X123484693Y-104118069D01*
X123532000Y-103880243D01*
X123532000Y-103637757D01*
X123484693Y-103399931D01*
X123391898Y-103175903D01*
X123257180Y-102974283D01*
X123085717Y-102802820D01*
X122884097Y-102668102D01*
X122660069Y-102575307D01*
X122422243Y-102528000D01*
X122179757Y-102528000D01*
X121941931Y-102575307D01*
X121717903Y-102668102D01*
X121516283Y-102802820D01*
X121344820Y-102974283D01*
X121210102Y-103175903D01*
X121117307Y-103399931D01*
X121070000Y-103637757D01*
X116518200Y-103637757D01*
X116518200Y-101097757D01*
X121070000Y-101097757D01*
X121070000Y-101340243D01*
X121117307Y-101578069D01*
X121210102Y-101802097D01*
X121344820Y-102003717D01*
X121516283Y-102175180D01*
X121717903Y-102309898D01*
X121941931Y-102402693D01*
X122179757Y-102450000D01*
X122422243Y-102450000D01*
X122660069Y-102402693D01*
X122884097Y-102309898D01*
X123085717Y-102175180D01*
X123257180Y-102003717D01*
X123391898Y-101802097D01*
X123484693Y-101578069D01*
X123532000Y-101340243D01*
X123532000Y-101097757D01*
X123484693Y-100859931D01*
X123391898Y-100635903D01*
X123257180Y-100434283D01*
X123085717Y-100262820D01*
X122884097Y-100128102D01*
X122660069Y-100035307D01*
X122422243Y-99988000D01*
X122179757Y-99988000D01*
X121941931Y-100035307D01*
X121717903Y-100128102D01*
X121516283Y-100262820D01*
X121344820Y-100434283D01*
X121210102Y-100635903D01*
X121117307Y-100859931D01*
X121070000Y-101097757D01*
X116518200Y-101097757D01*
X116518200Y-98557757D01*
X121070000Y-98557757D01*
X121070000Y-98800243D01*
X121117307Y-99038069D01*
X121210102Y-99262097D01*
X121344820Y-99463717D01*
X121516283Y-99635180D01*
X121717903Y-99769898D01*
X121941931Y-99862693D01*
X122179757Y-99910000D01*
X122422243Y-99910000D01*
X122660069Y-99862693D01*
X122884097Y-99769898D01*
X123085717Y-99635180D01*
X123257180Y-99463717D01*
X123391898Y-99262097D01*
X123484693Y-99038069D01*
X123532000Y-98800243D01*
X123532000Y-98557757D01*
X123484693Y-98319931D01*
X123391898Y-98095903D01*
X123257180Y-97894283D01*
X123085717Y-97722820D01*
X122884097Y-97588102D01*
X122660069Y-97495307D01*
X122422243Y-97448000D01*
X122179757Y-97448000D01*
X121941931Y-97495307D01*
X121717903Y-97588102D01*
X121516283Y-97722820D01*
X121344820Y-97894283D01*
X121210102Y-98095903D01*
X121117307Y-98319931D01*
X121070000Y-98557757D01*
X116518200Y-98557757D01*
X116518200Y-96017757D01*
X121070000Y-96017757D01*
X121070000Y-96260243D01*
X121117307Y-96498069D01*
X121210102Y-96722097D01*
X121344820Y-96923717D01*
X121516283Y-97095180D01*
X121717903Y-97229898D01*
X121941931Y-97322693D01*
X122179757Y-97370000D01*
X122422243Y-97370000D01*
X122660069Y-97322693D01*
X122884097Y-97229898D01*
X123085717Y-97095180D01*
X123257180Y-96923717D01*
X123391898Y-96722097D01*
X123484693Y-96498069D01*
X123532000Y-96260243D01*
X123532000Y-96017757D01*
X123484693Y-95779931D01*
X123391898Y-95555903D01*
X123257180Y-95354283D01*
X123085717Y-95182820D01*
X122884097Y-95048102D01*
X122660069Y-94955307D01*
X122422243Y-94908000D01*
X122179757Y-94908000D01*
X121941931Y-94955307D01*
X121717903Y-95048102D01*
X121516283Y-95182820D01*
X121344820Y-95354283D01*
X121210102Y-95555903D01*
X121117307Y-95779931D01*
X121070000Y-96017757D01*
X116518200Y-96017757D01*
X116518200Y-93477757D01*
X121070000Y-93477757D01*
X121070000Y-93720243D01*
X121117307Y-93958069D01*
X121210102Y-94182097D01*
X121344820Y-94383717D01*
X121516283Y-94555180D01*
X121717903Y-94689898D01*
X121941931Y-94782693D01*
X122179757Y-94830000D01*
X122422243Y-94830000D01*
X122660069Y-94782693D01*
X122884097Y-94689898D01*
X123085717Y-94555180D01*
X123257180Y-94383717D01*
X123391898Y-94182097D01*
X123484693Y-93958069D01*
X123532000Y-93720243D01*
X123532000Y-93477757D01*
X123484693Y-93239931D01*
X123391898Y-93015903D01*
X123257180Y-92814283D01*
X123085717Y-92642820D01*
X122884097Y-92508102D01*
X122660069Y-92415307D01*
X122422243Y-92368000D01*
X122179757Y-92368000D01*
X121941931Y-92415307D01*
X121717903Y-92508102D01*
X121516283Y-92642820D01*
X121344820Y-92814283D01*
X121210102Y-93015903D01*
X121117307Y-93239931D01*
X121070000Y-93477757D01*
X116518200Y-93477757D01*
X116518200Y-86858191D01*
X124825283Y-86858191D01*
X124825283Y-87195409D01*
X124891071Y-87526148D01*
X125020119Y-87837697D01*
X125207467Y-88118083D01*
X125445917Y-88356533D01*
X125726303Y-88543881D01*
X126037852Y-88672929D01*
X126368591Y-88738717D01*
X126705809Y-88738717D01*
X127036548Y-88672929D01*
X127348097Y-88543881D01*
X127628483Y-88356533D01*
X127866933Y-88118083D01*
X128054281Y-87837697D01*
X128183329Y-87526148D01*
X128249117Y-87195409D01*
X128249117Y-86858191D01*
X128183329Y-86527452D01*
X128054281Y-86215903D01*
X127866933Y-85935517D01*
X127628483Y-85697067D01*
X127348097Y-85509719D01*
X127036548Y-85380671D01*
X126705809Y-85314883D01*
X126368591Y-85314883D01*
X126037852Y-85380671D01*
X125726303Y-85509719D01*
X125445917Y-85697067D01*
X125207467Y-85935517D01*
X125020119Y-86215903D01*
X124891071Y-86527452D01*
X124825283Y-86858191D01*
X116518200Y-86858191D01*
X116518200Y-74393285D01*
X118516000Y-74393285D01*
X118516000Y-74704715D01*
X118576757Y-75010161D01*
X118695936Y-75297884D01*
X118868957Y-75556829D01*
X119089171Y-75777043D01*
X119348116Y-75950064D01*
X119635839Y-76069243D01*
X119941285Y-76130000D01*
X120252715Y-76130000D01*
X120558161Y-76069243D01*
X120845884Y-75950064D01*
X121104829Y-75777043D01*
X121325043Y-75556829D01*
X121498064Y-75297884D01*
X121617243Y-75010161D01*
X121678000Y-74704715D01*
X121678000Y-74393285D01*
X122016000Y-74393285D01*
X122016000Y-74704715D01*
X122076757Y-75010161D01*
X122195936Y-75297884D01*
X122368957Y-75556829D01*
X122589171Y-75777043D01*
X122848116Y-75950064D01*
X123135839Y-76069243D01*
X123441285Y-76130000D01*
X123752715Y-76130000D01*
X124058161Y-76069243D01*
X124345884Y-75950064D01*
X124604829Y-75777043D01*
X124825043Y-75556829D01*
X124998064Y-75297884D01*
X125117243Y-75010161D01*
X125178000Y-74704715D01*
X125178000Y-74393285D01*
X125516000Y-74393285D01*
X125516000Y-74704715D01*
X125576757Y-75010161D01*
X125695936Y-75297884D01*
X125868957Y-75556829D01*
X126089171Y-75777043D01*
X126348116Y-75950064D01*
X126635839Y-76069243D01*
X126941285Y-76130000D01*
X127252715Y-76130000D01*
X127558161Y-76069243D01*
X127845884Y-75950064D01*
X128104829Y-75777043D01*
X128325043Y-75556829D01*
X128498064Y-75297884D01*
X128617243Y-75010161D01*
X128678000Y-74704715D01*
X128678000Y-74393285D01*
X129016000Y-74393285D01*
X129016000Y-74704715D01*
X129076757Y-75010161D01*
X129195936Y-75297884D01*
X129368957Y-75556829D01*
X129589171Y-75777043D01*
X129848116Y-75950064D01*
X130135839Y-76069243D01*
X130441285Y-76130000D01*
X130752715Y-76130000D01*
X131058161Y-76069243D01*
X131345884Y-75950064D01*
X131604829Y-75777043D01*
X131825043Y-75556829D01*
X131998064Y-75297884D01*
X132117243Y-75010161D01*
X132178000Y-74704715D01*
X132178000Y-74393285D01*
X132516000Y-74393285D01*
X132516000Y-74704715D01*
X132576757Y-75010161D01*
X132695936Y-75297884D01*
X132868957Y-75556829D01*
X133089171Y-75777043D01*
X133348116Y-75950064D01*
X133635839Y-76069243D01*
X133941285Y-76130000D01*
X134252715Y-76130000D01*
X134558161Y-76069243D01*
X134845884Y-75950064D01*
X135104829Y-75777043D01*
X135325043Y-75556829D01*
X135498064Y-75297884D01*
X135617243Y-75010161D01*
X135678000Y-74704715D01*
X135678000Y-74393285D01*
X136016000Y-74393285D01*
X136016000Y-74704715D01*
X136076757Y-75010161D01*
X136195936Y-75297884D01*
X136368957Y-75556829D01*
X136589171Y-75777043D01*
X136848116Y-75950064D01*
X137135839Y-76069243D01*
X137441285Y-76130000D01*
X137752715Y-76130000D01*
X138058161Y-76069243D01*
X138345884Y-75950064D01*
X138604829Y-75777043D01*
X138825043Y-75556829D01*
X138998064Y-75297884D01*
X139117243Y-75010161D01*
X139178000Y-74704715D01*
X139178000Y-74393285D01*
X139117243Y-74087839D01*
X138998064Y-73800116D01*
X138825043Y-73541171D01*
X138632872Y-73349000D01*
X139514157Y-73349000D01*
X139514157Y-75749000D01*
X139521513Y-75823689D01*
X139543299Y-75895508D01*
X139578678Y-75961696D01*
X139626289Y-76019711D01*
X139684304Y-76067322D01*
X139750492Y-76102701D01*
X139822311Y-76124487D01*
X139897000Y-76131843D01*
X142297000Y-76131843D01*
X142371689Y-76124487D01*
X142443508Y-76102701D01*
X142509696Y-76067322D01*
X142567711Y-76019711D01*
X142615322Y-75961696D01*
X142650701Y-75895508D01*
X142672487Y-75823689D01*
X142679843Y-75749000D01*
X142679843Y-74393285D01*
X147218000Y-74393285D01*
X147218000Y-74704715D01*
X147278757Y-75010161D01*
X147397936Y-75297884D01*
X147570957Y-75556829D01*
X147791171Y-75777043D01*
X148050116Y-75950064D01*
X148337839Y-76069243D01*
X148643285Y-76130000D01*
X148954715Y-76130000D01*
X149260161Y-76069243D01*
X149547884Y-75950064D01*
X149806829Y-75777043D01*
X150027043Y-75556829D01*
X150200064Y-75297884D01*
X150319243Y-75010161D01*
X150380000Y-74704715D01*
X150380000Y-74393285D01*
X150718000Y-74393285D01*
X150718000Y-74704715D01*
X150778757Y-75010161D01*
X150897936Y-75297884D01*
X151070957Y-75556829D01*
X151291171Y-75777043D01*
X151550116Y-75950064D01*
X151837839Y-76069243D01*
X152143285Y-76130000D01*
X152454715Y-76130000D01*
X152760161Y-76069243D01*
X153047884Y-75950064D01*
X153306829Y-75777043D01*
X153527043Y-75556829D01*
X153700064Y-75297884D01*
X153819243Y-75010161D01*
X153880000Y-74704715D01*
X153880000Y-74393285D01*
X154218000Y-74393285D01*
X154218000Y-74704715D01*
X154278757Y-75010161D01*
X154397936Y-75297884D01*
X154570957Y-75556829D01*
X154791171Y-75777043D01*
X155050116Y-75950064D01*
X155337839Y-76069243D01*
X155643285Y-76130000D01*
X155954715Y-76130000D01*
X156260161Y-76069243D01*
X156547884Y-75950064D01*
X156806829Y-75777043D01*
X157027043Y-75556829D01*
X157200064Y-75297884D01*
X157319243Y-75010161D01*
X157380000Y-74704715D01*
X157380000Y-74393285D01*
X157718000Y-74393285D01*
X157718000Y-74704715D01*
X157778757Y-75010161D01*
X157897936Y-75297884D01*
X158070957Y-75556829D01*
X158291171Y-75777043D01*
X158550116Y-75950064D01*
X158837839Y-76069243D01*
X159143285Y-76130000D01*
X159454715Y-76130000D01*
X159760161Y-76069243D01*
X160047884Y-75950064D01*
X160306829Y-75777043D01*
X160527043Y-75556829D01*
X160700064Y-75297884D01*
X160819243Y-75010161D01*
X160880000Y-74704715D01*
X160880000Y-74393285D01*
X161218000Y-74393285D01*
X161218000Y-74704715D01*
X161278757Y-75010161D01*
X161397936Y-75297884D01*
X161570957Y-75556829D01*
X161791171Y-75777043D01*
X162050116Y-75950064D01*
X162337839Y-76069243D01*
X162643285Y-76130000D01*
X162954715Y-76130000D01*
X163260161Y-76069243D01*
X163547884Y-75950064D01*
X163806829Y-75777043D01*
X164027043Y-75556829D01*
X164200064Y-75297884D01*
X164319243Y-75010161D01*
X164380000Y-74704715D01*
X164380000Y-74393285D01*
X164718000Y-74393285D01*
X164718000Y-74704715D01*
X164778757Y-75010161D01*
X164897936Y-75297884D01*
X165070957Y-75556829D01*
X165291171Y-75777043D01*
X165550116Y-75950064D01*
X165837839Y-76069243D01*
X166143285Y-76130000D01*
X166454715Y-76130000D01*
X166760161Y-76069243D01*
X167047884Y-75950064D01*
X167306829Y-75777043D01*
X167527043Y-75556829D01*
X167700064Y-75297884D01*
X167819243Y-75010161D01*
X167880000Y-74704715D01*
X167880000Y-74393285D01*
X167819243Y-74087839D01*
X167700064Y-73800116D01*
X167527043Y-73541171D01*
X167334872Y-73349000D01*
X168216157Y-73349000D01*
X168216157Y-75749000D01*
X168223513Y-75823689D01*
X168245299Y-75895508D01*
X168280678Y-75961696D01*
X168328289Y-76019711D01*
X168386304Y-76067322D01*
X168452492Y-76102701D01*
X168524311Y-76124487D01*
X168599000Y-76131843D01*
X170999000Y-76131843D01*
X171073689Y-76124487D01*
X171145508Y-76102701D01*
X171211696Y-76067322D01*
X171269711Y-76019711D01*
X171317322Y-75961696D01*
X171352701Y-75895508D01*
X171374487Y-75823689D01*
X171381843Y-75749000D01*
X171381843Y-74393285D01*
X175920000Y-74393285D01*
X175920000Y-74704715D01*
X175980757Y-75010161D01*
X176099936Y-75297884D01*
X176272957Y-75556829D01*
X176493171Y-75777043D01*
X176752116Y-75950064D01*
X177039839Y-76069243D01*
X177345285Y-76130000D01*
X177656715Y-76130000D01*
X177962161Y-76069243D01*
X178249884Y-75950064D01*
X178508829Y-75777043D01*
X178729043Y-75556829D01*
X178902064Y-75297884D01*
X179021243Y-75010161D01*
X179082000Y-74704715D01*
X179082000Y-74393285D01*
X179420000Y-74393285D01*
X179420000Y-74704715D01*
X179480757Y-75010161D01*
X179599936Y-75297884D01*
X179772957Y-75556829D01*
X179993171Y-75777043D01*
X180252116Y-75950064D01*
X180539839Y-76069243D01*
X180845285Y-76130000D01*
X181156715Y-76130000D01*
X181462161Y-76069243D01*
X181749884Y-75950064D01*
X182008829Y-75777043D01*
X182229043Y-75556829D01*
X182402064Y-75297884D01*
X182521243Y-75010161D01*
X182582000Y-74704715D01*
X182582000Y-74393285D01*
X182920000Y-74393285D01*
X182920000Y-74704715D01*
X182980757Y-75010161D01*
X183099936Y-75297884D01*
X183272957Y-75556829D01*
X183493171Y-75777043D01*
X183752116Y-75950064D01*
X184039839Y-76069243D01*
X184345285Y-76130000D01*
X184656715Y-76130000D01*
X184962161Y-76069243D01*
X185249884Y-75950064D01*
X185508829Y-75777043D01*
X185729043Y-75556829D01*
X185902064Y-75297884D01*
X186021243Y-75010161D01*
X186082000Y-74704715D01*
X186082000Y-74393285D01*
X186420000Y-74393285D01*
X186420000Y-74704715D01*
X186480757Y-75010161D01*
X186599936Y-75297884D01*
X186772957Y-75556829D01*
X186993171Y-75777043D01*
X187252116Y-75950064D01*
X187539839Y-76069243D01*
X187845285Y-76130000D01*
X188156715Y-76130000D01*
X188462161Y-76069243D01*
X188749884Y-75950064D01*
X189008829Y-75777043D01*
X189229043Y-75556829D01*
X189402064Y-75297884D01*
X189521243Y-75010161D01*
X189582000Y-74704715D01*
X189582000Y-74393285D01*
X189920000Y-74393285D01*
X189920000Y-74704715D01*
X189980757Y-75010161D01*
X190099936Y-75297884D01*
X190272957Y-75556829D01*
X190493171Y-75777043D01*
X190752116Y-75950064D01*
X191039839Y-76069243D01*
X191345285Y-76130000D01*
X191656715Y-76130000D01*
X191962161Y-76069243D01*
X192249884Y-75950064D01*
X192508829Y-75777043D01*
X192729043Y-75556829D01*
X192902064Y-75297884D01*
X193021243Y-75010161D01*
X193082000Y-74704715D01*
X193082000Y-74393285D01*
X193420000Y-74393285D01*
X193420000Y-74704715D01*
X193480757Y-75010161D01*
X193599936Y-75297884D01*
X193772957Y-75556829D01*
X193993171Y-75777043D01*
X194252116Y-75950064D01*
X194539839Y-76069243D01*
X194845285Y-76130000D01*
X195156715Y-76130000D01*
X195462161Y-76069243D01*
X195749884Y-75950064D01*
X196008829Y-75777043D01*
X196229043Y-75556829D01*
X196402064Y-75297884D01*
X196521243Y-75010161D01*
X196582000Y-74704715D01*
X196582000Y-74393285D01*
X196521243Y-74087839D01*
X196402064Y-73800116D01*
X196229043Y-73541171D01*
X196008829Y-73320957D01*
X195749884Y-73147936D01*
X195462161Y-73028757D01*
X195156715Y-72968000D01*
X194845285Y-72968000D01*
X194539839Y-73028757D01*
X194252116Y-73147936D01*
X193993171Y-73320957D01*
X193772957Y-73541171D01*
X193599936Y-73800116D01*
X193480757Y-74087839D01*
X193420000Y-74393285D01*
X193082000Y-74393285D01*
X193021243Y-74087839D01*
X192902064Y-73800116D01*
X192729043Y-73541171D01*
X192508829Y-73320957D01*
X192249884Y-73147936D01*
X191962161Y-73028757D01*
X191656715Y-72968000D01*
X191345285Y-72968000D01*
X191039839Y-73028757D01*
X190752116Y-73147936D01*
X190493171Y-73320957D01*
X190272957Y-73541171D01*
X190099936Y-73800116D01*
X189980757Y-74087839D01*
X189920000Y-74393285D01*
X189582000Y-74393285D01*
X189521243Y-74087839D01*
X189402064Y-73800116D01*
X189229043Y-73541171D01*
X189008829Y-73320957D01*
X188749884Y-73147936D01*
X188462161Y-73028757D01*
X188156715Y-72968000D01*
X187845285Y-72968000D01*
X187539839Y-73028757D01*
X187252116Y-73147936D01*
X186993171Y-73320957D01*
X186772957Y-73541171D01*
X186599936Y-73800116D01*
X186480757Y-74087839D01*
X186420000Y-74393285D01*
X186082000Y-74393285D01*
X186021243Y-74087839D01*
X185902064Y-73800116D01*
X185729043Y-73541171D01*
X185508829Y-73320957D01*
X185249884Y-73147936D01*
X184962161Y-73028757D01*
X184656715Y-72968000D01*
X184345285Y-72968000D01*
X184039839Y-73028757D01*
X183752116Y-73147936D01*
X183493171Y-73320957D01*
X183272957Y-73541171D01*
X183099936Y-73800116D01*
X182980757Y-74087839D01*
X182920000Y-74393285D01*
X182582000Y-74393285D01*
X182521243Y-74087839D01*
X182402064Y-73800116D01*
X182229043Y-73541171D01*
X182008829Y-73320957D01*
X181749884Y-73147936D01*
X181462161Y-73028757D01*
X181156715Y-72968000D01*
X180845285Y-72968000D01*
X180539839Y-73028757D01*
X180252116Y-73147936D01*
X179993171Y-73320957D01*
X179772957Y-73541171D01*
X179599936Y-73800116D01*
X179480757Y-74087839D01*
X179420000Y-74393285D01*
X179082000Y-74393285D01*
X179021243Y-74087839D01*
X178902064Y-73800116D01*
X178729043Y-73541171D01*
X178508829Y-73320957D01*
X178249884Y-73147936D01*
X177962161Y-73028757D01*
X177656715Y-72968000D01*
X177345285Y-72968000D01*
X177039839Y-73028757D01*
X176752116Y-73147936D01*
X176493171Y-73320957D01*
X176272957Y-73541171D01*
X176099936Y-73800116D01*
X175980757Y-74087839D01*
X175920000Y-74393285D01*
X171381843Y-74393285D01*
X171381843Y-73349000D01*
X171374487Y-73274311D01*
X171352701Y-73202492D01*
X171317322Y-73136304D01*
X171269711Y-73078289D01*
X171211696Y-73030678D01*
X171145508Y-72995299D01*
X171073689Y-72973513D01*
X170999000Y-72966157D01*
X168599000Y-72966157D01*
X168524311Y-72973513D01*
X168452492Y-72995299D01*
X168386304Y-73030678D01*
X168328289Y-73078289D01*
X168280678Y-73136304D01*
X168245299Y-73202492D01*
X168223513Y-73274311D01*
X168216157Y-73349000D01*
X167334872Y-73349000D01*
X167306829Y-73320957D01*
X167047884Y-73147936D01*
X166760161Y-73028757D01*
X166454715Y-72968000D01*
X166143285Y-72968000D01*
X165837839Y-73028757D01*
X165550116Y-73147936D01*
X165291171Y-73320957D01*
X165070957Y-73541171D01*
X164897936Y-73800116D01*
X164778757Y-74087839D01*
X164718000Y-74393285D01*
X164380000Y-74393285D01*
X164319243Y-74087839D01*
X164200064Y-73800116D01*
X164027043Y-73541171D01*
X163806829Y-73320957D01*
X163547884Y-73147936D01*
X163260161Y-73028757D01*
X162954715Y-72968000D01*
X162643285Y-72968000D01*
X162337839Y-73028757D01*
X162050116Y-73147936D01*
X161791171Y-73320957D01*
X161570957Y-73541171D01*
X161397936Y-73800116D01*
X161278757Y-74087839D01*
X161218000Y-74393285D01*
X160880000Y-74393285D01*
X160819243Y-74087839D01*
X160700064Y-73800116D01*
X160527043Y-73541171D01*
X160306829Y-73320957D01*
X160047884Y-73147936D01*
X159760161Y-73028757D01*
X159454715Y-72968000D01*
X159143285Y-72968000D01*
X158837839Y-73028757D01*
X158550116Y-73147936D01*
X158291171Y-73320957D01*
X158070957Y-73541171D01*
X157897936Y-73800116D01*
X157778757Y-74087839D01*
X157718000Y-74393285D01*
X157380000Y-74393285D01*
X157319243Y-74087839D01*
X157200064Y-73800116D01*
X157027043Y-73541171D01*
X156806829Y-73320957D01*
X156547884Y-73147936D01*
X156260161Y-73028757D01*
X155954715Y-72968000D01*
X155643285Y-72968000D01*
X155337839Y-73028757D01*
X155050116Y-73147936D01*
X154791171Y-73320957D01*
X154570957Y-73541171D01*
X154397936Y-73800116D01*
X154278757Y-74087839D01*
X154218000Y-74393285D01*
X153880000Y-74393285D01*
X153819243Y-74087839D01*
X153700064Y-73800116D01*
X153527043Y-73541171D01*
X153306829Y-73320957D01*
X153047884Y-73147936D01*
X152760161Y-73028757D01*
X152454715Y-72968000D01*
X152143285Y-72968000D01*
X151837839Y-73028757D01*
X151550116Y-73147936D01*
X151291171Y-73320957D01*
X151070957Y-73541171D01*
X150897936Y-73800116D01*
X150778757Y-74087839D01*
X150718000Y-74393285D01*
X150380000Y-74393285D01*
X150319243Y-74087839D01*
X150200064Y-73800116D01*
X150027043Y-73541171D01*
X149806829Y-73320957D01*
X149547884Y-73147936D01*
X149260161Y-73028757D01*
X148954715Y-72968000D01*
X148643285Y-72968000D01*
X148337839Y-73028757D01*
X148050116Y-73147936D01*
X147791171Y-73320957D01*
X147570957Y-73541171D01*
X147397936Y-73800116D01*
X147278757Y-74087839D01*
X147218000Y-74393285D01*
X142679843Y-74393285D01*
X142679843Y-73349000D01*
X142672487Y-73274311D01*
X142650701Y-73202492D01*
X142615322Y-73136304D01*
X142567711Y-73078289D01*
X142509696Y-73030678D01*
X142443508Y-72995299D01*
X142371689Y-72973513D01*
X142297000Y-72966157D01*
X139897000Y-72966157D01*
X139822311Y-72973513D01*
X139750492Y-72995299D01*
X139684304Y-73030678D01*
X139626289Y-73078289D01*
X139578678Y-73136304D01*
X139543299Y-73202492D01*
X139521513Y-73274311D01*
X139514157Y-73349000D01*
X138632872Y-73349000D01*
X138604829Y-73320957D01*
X138345884Y-73147936D01*
X138058161Y-73028757D01*
X137752715Y-72968000D01*
X137441285Y-72968000D01*
X137135839Y-73028757D01*
X136848116Y-73147936D01*
X136589171Y-73320957D01*
X136368957Y-73541171D01*
X136195936Y-73800116D01*
X136076757Y-74087839D01*
X136016000Y-74393285D01*
X135678000Y-74393285D01*
X135617243Y-74087839D01*
X135498064Y-73800116D01*
X135325043Y-73541171D01*
X135104829Y-73320957D01*
X134845884Y-73147936D01*
X134558161Y-73028757D01*
X134252715Y-72968000D01*
X133941285Y-72968000D01*
X133635839Y-73028757D01*
X133348116Y-73147936D01*
X133089171Y-73320957D01*
X132868957Y-73541171D01*
X132695936Y-73800116D01*
X132576757Y-74087839D01*
X132516000Y-74393285D01*
X132178000Y-74393285D01*
X132117243Y-74087839D01*
X131998064Y-73800116D01*
X131825043Y-73541171D01*
X131604829Y-73320957D01*
X131345884Y-73147936D01*
X131058161Y-73028757D01*
X130752715Y-72968000D01*
X130441285Y-72968000D01*
X130135839Y-73028757D01*
X129848116Y-73147936D01*
X129589171Y-73320957D01*
X129368957Y-73541171D01*
X129195936Y-73800116D01*
X129076757Y-74087839D01*
X129016000Y-74393285D01*
X128678000Y-74393285D01*
X128617243Y-74087839D01*
X128498064Y-73800116D01*
X128325043Y-73541171D01*
X128104829Y-73320957D01*
X127845884Y-73147936D01*
X127558161Y-73028757D01*
X127252715Y-72968000D01*
X126941285Y-72968000D01*
X126635839Y-73028757D01*
X126348116Y-73147936D01*
X126089171Y-73320957D01*
X125868957Y-73541171D01*
X125695936Y-73800116D01*
X125576757Y-74087839D01*
X125516000Y-74393285D01*
X125178000Y-74393285D01*
X125117243Y-74087839D01*
X124998064Y-73800116D01*
X124825043Y-73541171D01*
X124604829Y-73320957D01*
X124345884Y-73147936D01*
X124058161Y-73028757D01*
X123752715Y-72968000D01*
X123441285Y-72968000D01*
X123135839Y-73028757D01*
X122848116Y-73147936D01*
X122589171Y-73320957D01*
X122368957Y-73541171D01*
X122195936Y-73800116D01*
X122076757Y-74087839D01*
X122016000Y-74393285D01*
X121678000Y-74393285D01*
X121617243Y-74087839D01*
X121498064Y-73800116D01*
X121325043Y-73541171D01*
X121104829Y-73320957D01*
X120845884Y-73147936D01*
X120558161Y-73028757D01*
X120252715Y-72968000D01*
X119941285Y-72968000D01*
X119635839Y-73028757D01*
X119348116Y-73147936D01*
X119089171Y-73320957D01*
X118868957Y-73541171D01*
X118695936Y-73800116D01*
X118576757Y-74087839D01*
X118516000Y-74393285D01*
X116518200Y-74393285D01*
X116518200Y-62507800D01*
X119504684Y-62507800D01*
X119445917Y-62547067D01*
%TA.AperFunction,Conductor*%
D21*
G36*
X119445917Y-62547067D02*
G01*
X119207467Y-62785517D01*
X119020119Y-63065903D01*
X118891071Y-63377452D01*
X118825283Y-63708191D01*
X118825283Y-64045409D01*
X118891071Y-64376148D01*
X119020119Y-64687697D01*
X119207467Y-64968083D01*
X119445917Y-65206533D01*
X119726303Y-65393881D01*
X120037852Y-65522929D01*
X120368591Y-65588717D01*
X120705809Y-65588717D01*
X121036548Y-65522929D01*
X121348097Y-65393881D01*
X121401510Y-65358191D01*
X134325283Y-65358191D01*
X134325283Y-65695409D01*
X134391071Y-66026148D01*
X134520119Y-66337697D01*
X134707467Y-66618083D01*
X134945917Y-66856533D01*
X135226303Y-67043881D01*
X135537852Y-67172929D01*
X135868591Y-67238717D01*
X136205809Y-67238717D01*
X136536548Y-67172929D01*
X136848097Y-67043881D01*
X137128483Y-66856533D01*
X137366933Y-66618083D01*
X137554281Y-66337697D01*
X137683329Y-66026148D01*
X137749117Y-65695409D01*
X137749117Y-65358191D01*
X181325284Y-65358191D01*
X181325284Y-65695409D01*
X181391072Y-66026147D01*
X181520120Y-66337696D01*
X181707468Y-66618083D01*
X181945917Y-66856532D01*
X182226304Y-67043880D01*
X182537853Y-67172928D01*
X182868591Y-67238716D01*
X183205809Y-67238716D01*
X183536547Y-67172928D01*
X183848096Y-67043880D01*
X184128483Y-66856532D01*
X184366932Y-66618083D01*
X184554280Y-66337696D01*
X184683328Y-66026147D01*
X184749116Y-65695409D01*
X184749116Y-65358191D01*
X184683328Y-65027453D01*
X184554280Y-64715904D01*
X184366932Y-64435517D01*
X184128483Y-64197068D01*
X183848096Y-64009720D01*
X183536547Y-63880672D01*
X183205809Y-63814884D01*
X182868591Y-63814884D01*
X182537853Y-63880672D01*
X182226304Y-64009720D01*
X181945917Y-64197068D01*
X181707468Y-64435517D01*
X181520120Y-64715904D01*
X181391072Y-65027453D01*
X181325284Y-65358191D01*
X137749117Y-65358191D01*
X137683329Y-65027452D01*
X137554281Y-64715903D01*
X137366933Y-64435517D01*
X137128483Y-64197067D01*
X136848097Y-64009719D01*
X136536548Y-63880671D01*
X136205809Y-63814883D01*
X135868591Y-63814883D01*
X135537852Y-63880671D01*
X135226303Y-64009719D01*
X134945917Y-64197067D01*
X134707467Y-64435517D01*
X134520119Y-64715903D01*
X134391071Y-65027452D01*
X134325283Y-65358191D01*
X121401510Y-65358191D01*
X121628483Y-65206533D01*
X121866933Y-64968083D01*
X122054281Y-64687697D01*
X122183329Y-64376148D01*
X122249117Y-64045409D01*
X122249117Y-63708191D01*
X122183329Y-63377452D01*
X122054281Y-63065903D01*
X121866933Y-62785517D01*
X121628483Y-62547067D01*
X121569716Y-62507800D01*
X202556601Y-62507800D01*
X202556600Y-136545799D01*
X116518200Y-136545799D01*
X116518200Y-133107190D01*
X118824487Y-133107190D01*
X118824487Y-133444564D01*
X118890306Y-133775457D01*
X119019414Y-134087151D01*
X119206849Y-134367668D01*
X119445409Y-134606228D01*
X119725926Y-134793663D01*
X120037620Y-134922771D01*
X120368513Y-134988590D01*
X120705887Y-134988590D01*
X121036780Y-134922771D01*
X121348474Y-134793663D01*
X121628991Y-134606228D01*
X121867551Y-134367668D01*
X122054986Y-134087151D01*
X122184094Y-133775457D01*
X122249913Y-133444564D01*
X122249913Y-133107190D01*
X196824487Y-133107190D01*
X196824487Y-133444564D01*
X196890306Y-133775457D01*
X197019414Y-134087151D01*
X197206849Y-134367668D01*
X197445409Y-134606228D01*
X197725926Y-134793663D01*
X198037620Y-134922771D01*
X198368513Y-134988590D01*
X198705887Y-134988590D01*
X199036780Y-134922771D01*
X199348474Y-134793663D01*
X199628991Y-134606228D01*
X199867551Y-134367668D01*
X200054986Y-134087151D01*
X200184094Y-133775457D01*
X200249913Y-133444564D01*
X200249913Y-133107190D01*
X200184094Y-132776297D01*
X200054986Y-132464603D01*
X199867551Y-132184086D01*
X199628991Y-131945526D01*
X199348474Y-131758091D01*
X199036780Y-131628983D01*
X198705887Y-131563164D01*
X198368513Y-131563164D01*
X198037620Y-131628983D01*
X197725926Y-131758091D01*
X197445409Y-131945526D01*
X197206849Y-132184086D01*
X197019414Y-132464603D01*
X196890306Y-132776297D01*
X196824487Y-133107190D01*
X122249913Y-133107190D01*
X122184094Y-132776297D01*
X122054986Y-132464603D01*
X121867551Y-132184086D01*
X121628991Y-131945526D01*
X121348474Y-131758091D01*
X121036780Y-131628983D01*
X120705887Y-131563164D01*
X120368513Y-131563164D01*
X120037620Y-131628983D01*
X119725926Y-131758091D01*
X119445409Y-131945526D01*
X119206849Y-132184086D01*
X119019414Y-132464603D01*
X118890306Y-132776297D01*
X118824487Y-133107190D01*
X116518200Y-133107190D01*
X116518200Y-128157400D01*
X151167957Y-128157400D01*
X151167957Y-129957400D01*
X151175313Y-130032089D01*
X151197099Y-130103908D01*
X151232478Y-130170096D01*
X151280089Y-130228111D01*
X151338104Y-130275722D01*
X151404292Y-130311101D01*
X151476111Y-130332887D01*
X151550800Y-130340243D01*
X152204766Y-130340243D01*
X152077146Y-130365628D01*
X151844019Y-130462193D01*
X151634210Y-130602382D01*
X151455782Y-130780810D01*
X151315593Y-130990619D01*
X151219028Y-131223746D01*
X151169800Y-131471233D01*
X151169800Y-131723567D01*
X151219028Y-131971054D01*
X151315593Y-132204181D01*
X151455782Y-132413990D01*
X151634210Y-132592418D01*
X151844019Y-132732607D01*
X152077146Y-132829172D01*
X152324633Y-132878400D01*
X152576967Y-132878400D01*
X152824454Y-132829172D01*
X153057581Y-132732607D01*
X153267390Y-132592418D01*
X153445818Y-132413990D01*
X153586007Y-132204181D01*
X153682572Y-131971054D01*
X153731800Y-131723567D01*
X153731800Y-131471233D01*
X153682572Y-131223746D01*
X153586007Y-130990619D01*
X153445818Y-130780810D01*
X153267390Y-130602382D01*
X153057581Y-130462193D01*
X152824454Y-130365628D01*
X152696834Y-130340243D01*
X153350800Y-130340243D01*
X153425489Y-130332887D01*
X153497308Y-130311101D01*
X153563496Y-130275722D01*
X153621511Y-130228111D01*
X153669122Y-130170096D01*
X153704501Y-130103908D01*
X153726287Y-130032089D01*
X153733643Y-129957400D01*
X153733643Y-128157400D01*
X153726287Y-128082711D01*
X153704501Y-128010892D01*
X153669122Y-127944704D01*
X153621511Y-127886689D01*
X153563496Y-127839078D01*
X153497308Y-127803699D01*
X153425489Y-127781913D01*
X153350800Y-127774557D01*
X151550800Y-127774557D01*
X151476111Y-127781913D01*
X151404292Y-127803699D01*
X151338104Y-127839078D01*
X151280089Y-127886689D01*
X151232478Y-127944704D01*
X151197099Y-128010892D01*
X151175313Y-128082711D01*
X151167957Y-128157400D01*
X116518200Y-128157400D01*
X116518200Y-124978682D01*
X147409000Y-124978682D01*
X147409000Y-125211318D01*
X147454386Y-125439485D01*
X147543412Y-125654413D01*
X147672658Y-125847843D01*
X147837157Y-126012342D01*
X148030587Y-126141588D01*
X148245515Y-126230614D01*
X148473682Y-126276000D01*
X148706318Y-126276000D01*
X148934485Y-126230614D01*
X149149413Y-126141588D01*
X149342843Y-126012342D01*
X149507342Y-125847843D01*
X149636588Y-125654413D01*
X149723727Y-125444039D01*
X154818096Y-125444039D01*
X154858754Y-125578087D01*
X154978963Y-125832420D01*
X155146481Y-126058414D01*
X155354869Y-126247385D01*
X155596119Y-126392070D01*
X155860960Y-126486909D01*
X156083000Y-126365624D01*
X156083000Y-125222000D01*
X156337000Y-125222000D01*
X156337000Y-126365624D01*
X156559040Y-126486909D01*
X156823881Y-126392070D01*
X157065131Y-126247385D01*
X157273519Y-126058414D01*
X157441037Y-125832420D01*
X157561246Y-125578087D01*
X157601904Y-125444039D01*
X157479915Y-125222000D01*
X156337000Y-125222000D01*
X156083000Y-125222000D01*
X154940085Y-125222000D01*
X154818096Y-125444039D01*
X149723727Y-125444039D01*
X149725614Y-125439485D01*
X149771000Y-125211318D01*
X149771000Y-124978682D01*
X149725614Y-124750515D01*
X149723728Y-124745961D01*
X154818096Y-124745961D01*
X154940085Y-124968000D01*
X156083000Y-124968000D01*
X156083000Y-123824376D01*
X156337000Y-123824376D01*
X156337000Y-124968000D01*
X157479915Y-124968000D01*
X157601904Y-124745961D01*
X157561246Y-124611913D01*
X157441037Y-124357580D01*
X157273519Y-124131586D01*
X157065131Y-123942615D01*
X156823881Y-123797930D01*
X156559040Y-123703091D01*
X156337000Y-123824376D01*
X156083000Y-123824376D01*
X155860960Y-123703091D01*
X155596119Y-123797930D01*
X155354869Y-123942615D01*
X155146481Y-124131586D01*
X154978963Y-124357580D01*
X154858754Y-124611913D01*
X154818096Y-124745961D01*
X149723728Y-124745961D01*
X149636588Y-124535587D01*
X149507342Y-124342157D01*
X149342843Y-124177658D01*
X149149413Y-124048412D01*
X148934485Y-123959386D01*
X148706318Y-123914000D01*
X148473682Y-123914000D01*
X148245515Y-123959386D01*
X148030587Y-124048412D01*
X147837157Y-124177658D01*
X147672658Y-124342157D01*
X147543412Y-124535587D01*
X147454386Y-124750515D01*
X147409000Y-124978682D01*
X116518200Y-124978682D01*
X116518200Y-122858190D01*
X124825283Y-122858190D01*
X124825283Y-123195408D01*
X124891071Y-123526147D01*
X125020119Y-123837696D01*
X125207467Y-124118082D01*
X125445917Y-124356532D01*
X125726303Y-124543880D01*
X126037852Y-124672928D01*
X126368591Y-124738716D01*
X126705809Y-124738716D01*
X127036548Y-124672928D01*
X127348097Y-124543880D01*
X127628483Y-124356532D01*
X127866933Y-124118082D01*
X128054281Y-123837696D01*
X128183329Y-123526147D01*
X128249117Y-123195408D01*
X128249117Y-122858190D01*
X190825283Y-122858190D01*
X190825283Y-123195408D01*
X190891071Y-123526147D01*
X191020119Y-123837696D01*
X191207467Y-124118082D01*
X191445917Y-124356532D01*
X191726303Y-124543880D01*
X192037852Y-124672928D01*
X192368591Y-124738716D01*
X192705809Y-124738716D01*
X193036548Y-124672928D01*
X193348097Y-124543880D01*
X193628483Y-124356532D01*
X193866933Y-124118082D01*
X194054281Y-123837696D01*
X194183329Y-123526147D01*
X194249117Y-123195408D01*
X194249117Y-122858190D01*
X194183329Y-122527451D01*
X194054281Y-122215902D01*
X193866933Y-121935516D01*
X193628483Y-121697066D01*
X193348097Y-121509718D01*
X193036548Y-121380670D01*
X192705809Y-121314882D01*
X192368591Y-121314882D01*
X192037852Y-121380670D01*
X191726303Y-121509718D01*
X191445917Y-121697066D01*
X191207467Y-121935516D01*
X191020119Y-122215902D01*
X190891071Y-122527451D01*
X190825283Y-122858190D01*
X128249117Y-122858190D01*
X128183329Y-122527451D01*
X128054281Y-122215902D01*
X127866933Y-121935516D01*
X127628483Y-121697066D01*
X127348097Y-121509718D01*
X127036548Y-121380670D01*
X126705809Y-121314882D01*
X126368591Y-121314882D01*
X126037852Y-121380670D01*
X125726303Y-121509718D01*
X125445917Y-121697066D01*
X125207467Y-121935516D01*
X125020119Y-122215902D01*
X124891071Y-122527451D01*
X124825283Y-122858190D01*
X116518200Y-122858190D01*
X116518200Y-116337757D01*
X168695000Y-116337757D01*
X168695000Y-116580243D01*
X168742307Y-116818069D01*
X168835102Y-117042097D01*
X168969820Y-117243717D01*
X169141283Y-117415180D01*
X169342903Y-117549898D01*
X169566931Y-117642693D01*
X169804757Y-117690000D01*
X170047243Y-117690000D01*
X170285069Y-117642693D01*
X170509097Y-117549898D01*
X170710717Y-117415180D01*
X170882180Y-117243717D01*
X171016898Y-117042097D01*
X171109693Y-116818069D01*
X171157000Y-116580243D01*
X171157000Y-116337757D01*
X171235000Y-116337757D01*
X171235000Y-116580243D01*
X171282307Y-116818069D01*
X171375102Y-117042097D01*
X171509820Y-117243717D01*
X171681283Y-117415180D01*
X171882903Y-117549898D01*
X172106931Y-117642693D01*
X172344757Y-117690000D01*
X172587243Y-117690000D01*
X172825069Y-117642693D01*
X173049097Y-117549898D01*
X173250717Y-117415180D01*
X173422180Y-117243717D01*
X173556898Y-117042097D01*
X173649693Y-116818069D01*
X173697000Y-116580243D01*
X173697000Y-116337757D01*
X173775000Y-116337757D01*
X173775000Y-116580243D01*
X173822307Y-116818069D01*
X173915102Y-117042097D01*
X174049820Y-117243717D01*
X174221283Y-117415180D01*
X174422903Y-117549898D01*
X174646931Y-117642693D01*
X174884757Y-117690000D01*
X175127243Y-117690000D01*
X175365069Y-117642693D01*
X175589097Y-117549898D01*
X175790717Y-117415180D01*
X175962180Y-117243717D01*
X176096898Y-117042097D01*
X176189693Y-116818069D01*
X176237000Y-116580243D01*
X176237000Y-116337757D01*
X176315000Y-116337757D01*
X176315000Y-116580243D01*
X176362307Y-116818069D01*
X176455102Y-117042097D01*
X176589820Y-117243717D01*
X176761283Y-117415180D01*
X176962903Y-117549898D01*
X177040001Y-117581833D01*
X177040000Y-118847154D01*
X177037553Y-118872000D01*
X177040000Y-118896846D01*
X177040000Y-118896853D01*
X177047322Y-118971192D01*
X177076255Y-119066574D01*
X177123241Y-119154479D01*
X177186473Y-119231527D01*
X177205785Y-119247376D01*
X178059628Y-120101220D01*
X178075473Y-120120527D01*
X178152521Y-120183759D01*
X178240425Y-120230745D01*
X178335807Y-120259678D01*
X178435000Y-120269448D01*
X178459854Y-120267000D01*
X194285154Y-120267000D01*
X194310000Y-120269447D01*
X194334846Y-120267000D01*
X194334854Y-120267000D01*
X194409193Y-120259678D01*
X194504575Y-120230745D01*
X194592479Y-120183759D01*
X194669527Y-120120527D01*
X194685376Y-120101215D01*
X196047220Y-118739372D01*
X196066527Y-118723527D01*
X196129759Y-118646479D01*
X196176745Y-118558575D01*
X196205678Y-118463193D01*
X196213000Y-118388854D01*
X196213000Y-118388847D01*
X196215447Y-118364001D01*
X196213000Y-118339155D01*
X196213000Y-98195854D01*
X196215448Y-98171000D01*
X196205678Y-98071807D01*
X196176745Y-97976425D01*
X196155054Y-97935845D01*
X196129759Y-97888521D01*
X196066527Y-97811473D01*
X196047220Y-97795628D01*
X195320376Y-97068785D01*
X195304527Y-97049473D01*
X195227479Y-96986241D01*
X195139575Y-96939255D01*
X195044193Y-96910322D01*
X194969854Y-96903000D01*
X194969846Y-96903000D01*
X194945000Y-96900553D01*
X194920154Y-96903000D01*
X193801606Y-96903000D01*
X193743155Y-96815522D01*
X193613478Y-96685845D01*
X193460994Y-96583958D01*
X193291563Y-96513778D01*
X193111696Y-96478000D01*
X192928304Y-96478000D01*
X192748437Y-96513778D01*
X192579006Y-96583958D01*
X192426522Y-96685845D01*
X192395000Y-96717367D01*
X192363478Y-96685845D01*
X192210994Y-96583958D01*
X192041563Y-96513778D01*
X191861696Y-96478000D01*
X191678304Y-96478000D01*
X191498437Y-96513778D01*
X191329006Y-96583958D01*
X191176522Y-96685845D01*
X191046845Y-96815522D01*
X190988394Y-96903000D01*
X190455592Y-96903000D01*
X188847000Y-95294409D01*
X188847000Y-86858191D01*
X190825283Y-86858191D01*
X190825283Y-87195409D01*
X190891071Y-87526148D01*
X191020119Y-87837697D01*
X191207467Y-88118083D01*
X191445917Y-88356533D01*
X191726303Y-88543881D01*
X192037852Y-88672929D01*
X192368591Y-88738717D01*
X192705809Y-88738717D01*
X193036548Y-88672929D01*
X193348097Y-88543881D01*
X193628483Y-88356533D01*
X193866933Y-88118083D01*
X194054281Y-87837697D01*
X194183329Y-87526148D01*
X194249117Y-87195409D01*
X194249117Y-86858191D01*
X194183329Y-86527452D01*
X194054281Y-86215903D01*
X193866933Y-85935517D01*
X193628483Y-85697067D01*
X193348097Y-85509719D01*
X193036548Y-85380671D01*
X192705809Y-85314883D01*
X192368591Y-85314883D01*
X192037852Y-85380671D01*
X191726303Y-85509719D01*
X191445917Y-85697067D01*
X191207467Y-85935517D01*
X191020119Y-86215903D01*
X190891071Y-86527452D01*
X190825283Y-86858191D01*
X188847000Y-86858191D01*
X188847000Y-84918591D01*
X197633749Y-76131843D01*
X199701000Y-76131843D01*
X199775689Y-76124487D01*
X199847508Y-76102701D01*
X199913696Y-76067322D01*
X199971711Y-76019711D01*
X200019322Y-75961696D01*
X200054701Y-75895508D01*
X200076487Y-75823689D01*
X200083843Y-75749000D01*
X200083843Y-73349000D01*
X200076487Y-73274311D01*
X200054701Y-73202492D01*
X200019322Y-73136304D01*
X199971711Y-73078289D01*
X199913696Y-73030678D01*
X199847508Y-72995299D01*
X199775689Y-72973513D01*
X199701000Y-72966157D01*
X197301000Y-72966157D01*
X197226311Y-72973513D01*
X197154492Y-72995299D01*
X197088304Y-73030678D01*
X197030289Y-73078289D01*
X196982678Y-73136304D01*
X196947299Y-73202492D01*
X196925513Y-73274311D01*
X196918157Y-73349000D01*
X196918157Y-75416251D01*
X188000781Y-84333628D01*
X187981474Y-84349473D01*
X187918242Y-84426521D01*
X187893127Y-84473508D01*
X187871255Y-84514426D01*
X187842322Y-84609808D01*
X187832553Y-84709000D01*
X187835001Y-84733856D01*
X187835000Y-95479154D01*
X187832553Y-95504000D01*
X187835000Y-95528846D01*
X187835000Y-95528853D01*
X187842322Y-95603192D01*
X187871255Y-95698574D01*
X187918241Y-95786479D01*
X187981473Y-95863527D01*
X188000785Y-95879376D01*
X189870628Y-97749220D01*
X189886473Y-97768527D01*
X189963521Y-97831759D01*
X190051425Y-97878745D01*
X190146807Y-97907678D01*
X190246000Y-97917448D01*
X190270854Y-97915000D01*
X190988394Y-97915000D01*
X191046845Y-98002478D01*
X191078367Y-98034000D01*
X191046845Y-98065522D01*
X190944958Y-98218006D01*
X190874778Y-98387437D01*
X190839000Y-98567304D01*
X190839000Y-98750696D01*
X190874778Y-98930563D01*
X190944958Y-99099994D01*
X191046845Y-99252478D01*
X191078367Y-99284000D01*
X191046845Y-99315522D01*
X190944958Y-99468006D01*
X190874778Y-99637437D01*
X190839000Y-99817304D01*
X190839000Y-100000696D01*
X190874778Y-100180563D01*
X190944958Y-100349994D01*
X191046845Y-100502478D01*
X191078367Y-100534000D01*
X191046845Y-100565522D01*
X190944958Y-100718006D01*
X190874778Y-100887437D01*
X190839000Y-101067304D01*
X190839000Y-101250696D01*
X190874778Y-101430563D01*
X190944958Y-101599994D01*
X191046845Y-101752478D01*
X191078367Y-101784000D01*
X191046845Y-101815522D01*
X190944958Y-101968006D01*
X190874778Y-102137437D01*
X190839000Y-102317304D01*
X190839000Y-102500696D01*
X190874778Y-102680563D01*
X190944958Y-102849994D01*
X191046845Y-103002478D01*
X191078367Y-103034000D01*
X191046845Y-103065522D01*
X190944958Y-103218006D01*
X190874778Y-103387437D01*
X190839000Y-103567304D01*
X190839000Y-103750696D01*
X190874778Y-103930563D01*
X190944958Y-104099994D01*
X191046845Y-104252478D01*
X191078367Y-104284000D01*
X191046845Y-104315522D01*
X190944958Y-104468006D01*
X190874778Y-104637437D01*
X190839000Y-104817304D01*
X190839000Y-105000696D01*
X190874778Y-105180563D01*
X190944958Y-105349994D01*
X191046845Y-105502478D01*
X191078367Y-105534000D01*
X191046845Y-105565522D01*
X190944958Y-105718006D01*
X190874778Y-105887437D01*
X190839000Y-106067304D01*
X190839000Y-106250696D01*
X190874778Y-106430563D01*
X190944958Y-106599994D01*
X191046845Y-106752478D01*
X191078367Y-106784000D01*
X191046845Y-106815522D01*
X190944958Y-106968006D01*
X190874778Y-107137437D01*
X190839000Y-107317304D01*
X190839000Y-107500696D01*
X190874778Y-107680563D01*
X190944958Y-107849994D01*
X191046845Y-108002478D01*
X191078367Y-108034000D01*
X191046845Y-108065522D01*
X190944958Y-108218006D01*
X190874778Y-108387437D01*
X190839000Y-108567304D01*
X190839000Y-108750696D01*
X190874778Y-108930563D01*
X190944958Y-109099994D01*
X191046845Y-109252478D01*
X191078367Y-109284000D01*
X191046845Y-109315522D01*
X190944958Y-109468006D01*
X190874778Y-109637437D01*
X190839000Y-109817304D01*
X190839000Y-110000696D01*
X190874778Y-110180563D01*
X190944958Y-110349994D01*
X191046845Y-110502478D01*
X191078367Y-110534000D01*
X191046845Y-110565522D01*
X190944958Y-110718006D01*
X190874778Y-110887437D01*
X190839000Y-111067304D01*
X190839000Y-111250696D01*
X190874778Y-111430563D01*
X190944958Y-111599994D01*
X191046845Y-111752478D01*
X191078367Y-111784000D01*
X191046845Y-111815522D01*
X190944958Y-111968006D01*
X190874778Y-112137437D01*
X190839000Y-112317304D01*
X190839000Y-112500696D01*
X190874778Y-112680563D01*
X190944958Y-112849994D01*
X191046845Y-113002478D01*
X191176522Y-113132155D01*
X191329006Y-113234042D01*
X191498437Y-113304222D01*
X191678304Y-113340000D01*
X191861696Y-113340000D01*
X192041563Y-113304222D01*
X192210994Y-113234042D01*
X192363478Y-113132155D01*
X192395000Y-113100633D01*
X192426522Y-113132155D01*
X192579006Y-113234042D01*
X192748437Y-113304222D01*
X192928304Y-113340000D01*
X193111696Y-113340000D01*
X193291563Y-113304222D01*
X193460994Y-113234042D01*
X193613478Y-113132155D01*
X193743155Y-113002478D01*
X193845042Y-112849994D01*
X193915222Y-112680563D01*
X193951000Y-112500696D01*
X193951000Y-112317304D01*
X193915222Y-112137437D01*
X193845042Y-111968006D01*
X193743155Y-111815522D01*
X193711633Y-111784000D01*
X193743155Y-111752478D01*
X193845042Y-111599994D01*
X193915222Y-111430563D01*
X193951000Y-111250696D01*
X193951000Y-111067304D01*
X193915222Y-110887437D01*
X193845042Y-110718006D01*
X193743155Y-110565522D01*
X193711633Y-110534000D01*
X193743155Y-110502478D01*
X193845042Y-110349994D01*
X193915222Y-110180563D01*
X193951000Y-110000696D01*
X193951000Y-109817304D01*
X193915222Y-109637437D01*
X193845042Y-109468006D01*
X193743155Y-109315522D01*
X193711633Y-109284000D01*
X193743155Y-109252478D01*
X193845042Y-109099994D01*
X193915222Y-108930563D01*
X193951000Y-108750696D01*
X193951000Y-108567304D01*
X193915222Y-108387437D01*
X193845042Y-108218006D01*
X193743155Y-108065522D01*
X193711633Y-108034000D01*
X193743155Y-108002478D01*
X193845042Y-107849994D01*
X193915222Y-107680563D01*
X193951000Y-107500696D01*
X193951000Y-107317304D01*
X193915222Y-107137437D01*
X193845042Y-106968006D01*
X193743155Y-106815522D01*
X193711633Y-106784000D01*
X193743155Y-106752478D01*
X193845042Y-106599994D01*
X193915222Y-106430563D01*
X193951000Y-106250696D01*
X193951000Y-106067304D01*
X193915222Y-105887437D01*
X193845042Y-105718006D01*
X193743155Y-105565522D01*
X193711633Y-105534000D01*
X193743155Y-105502478D01*
X193845042Y-105349994D01*
X193915222Y-105180563D01*
X193951000Y-105000696D01*
X193951000Y-104817304D01*
X193915222Y-104637437D01*
X193845042Y-104468006D01*
X193743155Y-104315522D01*
X193613478Y-104185845D01*
X193460994Y-104083958D01*
X193291563Y-104013778D01*
X193171239Y-103989844D01*
X193020000Y-103838605D01*
X193005858Y-103852748D01*
X192826253Y-103673143D01*
X192840395Y-103659000D01*
X193199605Y-103659000D01*
X193833979Y-104293374D01*
X194052478Y-104252159D01*
X194148359Y-104039335D01*
X194200878Y-103811895D01*
X194208016Y-103578579D01*
X194169500Y-103348354D01*
X194086808Y-103130066D01*
X194052478Y-103065841D01*
X193833979Y-103024626D01*
X193199605Y-103659000D01*
X192840395Y-103659000D01*
X192826253Y-103644858D01*
X193005858Y-103465253D01*
X193020000Y-103479395D01*
X193171239Y-103328156D01*
X193291563Y-103304222D01*
X193460994Y-103234042D01*
X193613478Y-103132155D01*
X193743155Y-103002478D01*
X193845042Y-102849994D01*
X193915222Y-102680563D01*
X193951000Y-102500696D01*
X193951000Y-102317304D01*
X193915222Y-102137437D01*
X193845042Y-101968006D01*
X193743155Y-101815522D01*
X193711633Y-101784000D01*
X193743155Y-101752478D01*
X193845042Y-101599994D01*
X193915222Y-101430563D01*
X193951000Y-101250696D01*
X193951000Y-101067304D01*
X193915222Y-100887437D01*
X193845042Y-100718006D01*
X193743155Y-100565522D01*
X193711633Y-100534000D01*
X193743155Y-100502478D01*
X193845042Y-100349994D01*
X193915222Y-100180563D01*
X193951000Y-100000696D01*
X193951000Y-99817304D01*
X193915222Y-99637437D01*
X193845042Y-99468006D01*
X193743155Y-99315522D01*
X193711633Y-99284000D01*
X193743155Y-99252478D01*
X193845042Y-99099994D01*
X193915222Y-98930563D01*
X193951000Y-98750696D01*
X193951000Y-98567304D01*
X193915222Y-98387437D01*
X193845042Y-98218006D01*
X193743155Y-98065522D01*
X193711633Y-98034000D01*
X193743155Y-98002478D01*
X193801606Y-97915000D01*
X194735409Y-97915000D01*
X195201000Y-98380592D01*
X195201001Y-118154407D01*
X194100409Y-119255000D01*
X178644592Y-119255000D01*
X178052000Y-118662409D01*
X178052000Y-117581832D01*
X178129097Y-117549898D01*
X178330717Y-117415180D01*
X178502180Y-117243717D01*
X178636898Y-117042097D01*
X178729693Y-116818069D01*
X178777000Y-116580243D01*
X178777000Y-116337757D01*
X178855000Y-116337757D01*
X178855000Y-116580243D01*
X178902307Y-116818069D01*
X178995102Y-117042097D01*
X179129820Y-117243717D01*
X179301283Y-117415180D01*
X179502903Y-117549898D01*
X179726931Y-117642693D01*
X179964757Y-117690000D01*
X180207243Y-117690000D01*
X180445069Y-117642693D01*
X180669097Y-117549898D01*
X180870717Y-117415180D01*
X181042180Y-117243717D01*
X181139073Y-117098706D01*
X181137928Y-117309000D01*
X181150188Y-117433482D01*
X181186498Y-117553180D01*
X181245463Y-117663494D01*
X181324815Y-117760185D01*
X181421506Y-117839537D01*
X181531820Y-117898502D01*
X181651518Y-117934812D01*
X181776000Y-117947072D01*
X182340250Y-117944000D01*
X182499000Y-117785250D01*
X182499000Y-116586000D01*
X182753000Y-116586000D01*
X182753000Y-117785250D01*
X182911750Y-117944000D01*
X183476000Y-117947072D01*
X183600482Y-117934812D01*
X183720180Y-117898502D01*
X183830494Y-117839537D01*
X183927185Y-117760185D01*
X184006537Y-117663494D01*
X184065502Y-117553180D01*
X184101812Y-117433482D01*
X184114072Y-117309000D01*
X184111000Y-116744750D01*
X183952250Y-116586000D01*
X182753000Y-116586000D01*
X182499000Y-116586000D01*
X182479000Y-116586000D01*
X182479000Y-116332000D01*
X182499000Y-116332000D01*
X182499000Y-115132750D01*
X182753000Y-115132750D01*
X182753000Y-116332000D01*
X183952250Y-116332000D01*
X184111000Y-116173250D01*
X184114072Y-115609000D01*
X184101812Y-115484518D01*
X184065502Y-115364820D01*
X184006537Y-115254506D01*
X183927185Y-115157815D01*
X183830494Y-115078463D01*
X183720180Y-115019498D01*
X183600482Y-114983188D01*
X183476000Y-114970928D01*
X182911750Y-114974000D01*
X182753000Y-115132750D01*
X182499000Y-115132750D01*
X182340250Y-114974000D01*
X181776000Y-114970928D01*
X181651518Y-114983188D01*
X181531820Y-115019498D01*
X181421506Y-115078463D01*
X181324815Y-115157815D01*
X181245463Y-115254506D01*
X181186498Y-115364820D01*
X181150188Y-115484518D01*
X181137928Y-115609000D01*
X181139073Y-115819294D01*
X181042180Y-115674283D01*
X180870717Y-115502820D01*
X180669097Y-115368102D01*
X180445069Y-115275307D01*
X180207243Y-115228000D01*
X179964757Y-115228000D01*
X179726931Y-115275307D01*
X179502903Y-115368102D01*
X179301283Y-115502820D01*
X179129820Y-115674283D01*
X178995102Y-115875903D01*
X178902307Y-116099931D01*
X178855000Y-116337757D01*
X178777000Y-116337757D01*
X178729693Y-116099931D01*
X178636898Y-115875903D01*
X178502180Y-115674283D01*
X178330717Y-115502820D01*
X178129097Y-115368102D01*
X177905069Y-115275307D01*
X177667243Y-115228000D01*
X177424757Y-115228000D01*
X177186931Y-115275307D01*
X176962903Y-115368102D01*
X176761283Y-115502820D01*
X176589820Y-115674283D01*
X176455102Y-115875903D01*
X176362307Y-116099931D01*
X176315000Y-116337757D01*
X176237000Y-116337757D01*
X176189693Y-116099931D01*
X176096898Y-115875903D01*
X175962180Y-115674283D01*
X175790717Y-115502820D01*
X175589097Y-115368102D01*
X175365069Y-115275307D01*
X175127243Y-115228000D01*
X174884757Y-115228000D01*
X174646931Y-115275307D01*
X174422903Y-115368102D01*
X174221283Y-115502820D01*
X174049820Y-115674283D01*
X173915102Y-115875903D01*
X173822307Y-116099931D01*
X173775000Y-116337757D01*
X173697000Y-116337757D01*
X173649693Y-116099931D01*
X173556898Y-115875903D01*
X173422180Y-115674283D01*
X173250717Y-115502820D01*
X173049097Y-115368102D01*
X172825069Y-115275307D01*
X172587243Y-115228000D01*
X172344757Y-115228000D01*
X172106931Y-115275307D01*
X171882903Y-115368102D01*
X171681283Y-115502820D01*
X171509820Y-115674283D01*
X171375102Y-115875903D01*
X171282307Y-116099931D01*
X171235000Y-116337757D01*
X171157000Y-116337757D01*
X171109693Y-116099931D01*
X171016898Y-115875903D01*
X170882180Y-115674283D01*
X170710717Y-115502820D01*
X170509097Y-115368102D01*
X170285069Y-115275307D01*
X170047243Y-115228000D01*
X169804757Y-115228000D01*
X169566931Y-115275307D01*
X169342903Y-115368102D01*
X169141283Y-115502820D01*
X168969820Y-115674283D01*
X168835102Y-115875903D01*
X168742307Y-116099931D01*
X168695000Y-116337757D01*
X116518200Y-116337757D01*
X116518200Y-112229000D01*
X120812928Y-112229000D01*
X120825188Y-112353482D01*
X120861498Y-112473180D01*
X120920463Y-112583494D01*
X120999815Y-112680185D01*
X121096506Y-112759537D01*
X121206820Y-112818502D01*
X121326518Y-112854812D01*
X121451000Y-112867072D01*
X122015250Y-112864000D01*
X122174000Y-112705250D01*
X122174000Y-111506000D01*
X122428000Y-111506000D01*
X122428000Y-112705250D01*
X122586750Y-112864000D01*
X123151000Y-112867072D01*
X123275482Y-112854812D01*
X123395180Y-112818502D01*
X123505494Y-112759537D01*
X123602185Y-112680185D01*
X123681537Y-112583494D01*
X123740502Y-112473180D01*
X123776812Y-112353482D01*
X123789072Y-112229000D01*
X123786000Y-111664750D01*
X123627250Y-111506000D01*
X122428000Y-111506000D01*
X122174000Y-111506000D01*
X120974750Y-111506000D01*
X120816000Y-111664750D01*
X120812928Y-112229000D01*
X116518200Y-112229000D01*
X116518200Y-110529000D01*
X120812928Y-110529000D01*
X120816000Y-111093250D01*
X120974750Y-111252000D01*
X122174000Y-111252000D01*
X122174000Y-108966000D01*
X122428000Y-108966000D01*
X122428000Y-111252000D01*
X123627250Y-111252000D01*
X123786000Y-111093250D01*
X123789072Y-110529000D01*
X123776812Y-110404518D01*
X123740502Y-110284820D01*
X123681537Y-110174506D01*
X123602185Y-110077815D01*
X123505494Y-109998463D01*
X123395180Y-109939498D01*
X123314534Y-109915034D01*
X123398588Y-109839269D01*
X123572641Y-109605920D01*
X123697825Y-109343099D01*
X123742476Y-109195890D01*
X123621155Y-108966000D01*
X122428000Y-108966000D01*
X122174000Y-108966000D01*
X120980845Y-108966000D01*
X120859524Y-109195890D01*
X120904175Y-109343099D01*
X121029359Y-109605920D01*
X121203412Y-109839269D01*
X121287466Y-109915034D01*
X121206820Y-109939498D01*
X121096506Y-109998463D01*
X120999815Y-110077815D01*
X120920463Y-110174506D01*
X120861498Y-110284820D01*
X120825188Y-110404518D01*
X120812928Y-110529000D01*
X116518200Y-110529000D01*
X116518200Y-108482110D01*
X120859524Y-108482110D01*
X120980845Y-108712000D01*
X122174000Y-108712000D01*
X122174000Y-108692000D01*
X122428000Y-108692000D01*
X122428000Y-108712000D01*
X123621155Y-108712000D01*
X123742476Y-108482110D01*
X123697825Y-108334901D01*
X123572641Y-108072080D01*
X123398588Y-107838731D01*
X123182355Y-107643822D01*
X122932252Y-107494843D01*
X122769832Y-107437228D01*
X122884097Y-107389898D01*
X123085717Y-107255180D01*
X123257180Y-107083717D01*
X123391898Y-106882097D01*
X123484693Y-106658069D01*
X123532000Y-106420243D01*
X123532000Y-106177757D01*
X123484693Y-105939931D01*
X123391898Y-105715903D01*
X123257180Y-105514283D01*
X123085717Y-105342820D01*
X122884097Y-105208102D01*
X122660069Y-105115307D01*
X122422243Y-105068000D01*
X122179757Y-105068000D01*
X121941931Y-105115307D01*
X121717903Y-105208102D01*
X121516283Y-105342820D01*
X121344820Y-105514283D01*
X121210102Y-105715903D01*
X121117307Y-105939931D01*
X121070000Y-106177757D01*
X121070000Y-106420243D01*
X121117307Y-106658069D01*
X121210102Y-106882097D01*
X121344820Y-107083717D01*
X121516283Y-107255180D01*
X121717903Y-107389898D01*
X121832168Y-107437228D01*
X121669748Y-107494843D01*
X121419645Y-107643822D01*
X121203412Y-107838731D01*
X121029359Y-108072080D01*
X120904175Y-108334901D01*
X120859524Y-108482110D01*
X116518200Y-108482110D01*
X116518200Y-103637757D01*
X121070000Y-103637757D01*
X121070000Y-103880243D01*
X121117307Y-104118069D01*
X121210102Y-104342097D01*
X121344820Y-104543717D01*
X121516283Y-104715180D01*
X121717903Y-104849898D01*
X121941931Y-104942693D01*
X122179757Y-104990000D01*
X122422243Y-104990000D01*
X122660069Y-104942693D01*
X122884097Y-104849898D01*
X123085717Y-104715180D01*
X123257180Y-104543717D01*
X123391898Y-104342097D01*
X123484693Y-104118069D01*
X123532000Y-103880243D01*
X123532000Y-103637757D01*
X123484693Y-103399931D01*
X123391898Y-103175903D01*
X123257180Y-102974283D01*
X123085717Y-102802820D01*
X122884097Y-102668102D01*
X122660069Y-102575307D01*
X122422243Y-102528000D01*
X122179757Y-102528000D01*
X121941931Y-102575307D01*
X121717903Y-102668102D01*
X121516283Y-102802820D01*
X121344820Y-102974283D01*
X121210102Y-103175903D01*
X121117307Y-103399931D01*
X121070000Y-103637757D01*
X116518200Y-103637757D01*
X116518200Y-101097757D01*
X121070000Y-101097757D01*
X121070000Y-101340243D01*
X121117307Y-101578069D01*
X121210102Y-101802097D01*
X121344820Y-102003717D01*
X121516283Y-102175180D01*
X121717903Y-102309898D01*
X121941931Y-102402693D01*
X122179757Y-102450000D01*
X122422243Y-102450000D01*
X122660069Y-102402693D01*
X122884097Y-102309898D01*
X123085717Y-102175180D01*
X123257180Y-102003717D01*
X123391898Y-101802097D01*
X123484693Y-101578069D01*
X123532000Y-101340243D01*
X123532000Y-101097757D01*
X123484693Y-100859931D01*
X123391898Y-100635903D01*
X123257180Y-100434283D01*
X123085717Y-100262820D01*
X122884097Y-100128102D01*
X122660069Y-100035307D01*
X122422243Y-99988000D01*
X122179757Y-99988000D01*
X121941931Y-100035307D01*
X121717903Y-100128102D01*
X121516283Y-100262820D01*
X121344820Y-100434283D01*
X121210102Y-100635903D01*
X121117307Y-100859931D01*
X121070000Y-101097757D01*
X116518200Y-101097757D01*
X116518200Y-98557757D01*
X121070000Y-98557757D01*
X121070000Y-98800243D01*
X121117307Y-99038069D01*
X121210102Y-99262097D01*
X121344820Y-99463717D01*
X121516283Y-99635180D01*
X121717903Y-99769898D01*
X121941931Y-99862693D01*
X122179757Y-99910000D01*
X122422243Y-99910000D01*
X122660069Y-99862693D01*
X122884097Y-99769898D01*
X123085717Y-99635180D01*
X123257180Y-99463717D01*
X123391898Y-99262097D01*
X123484693Y-99038069D01*
X123532000Y-98800243D01*
X123532000Y-98557757D01*
X123484693Y-98319931D01*
X123391898Y-98095903D01*
X123257180Y-97894283D01*
X123085717Y-97722820D01*
X122884097Y-97588102D01*
X122660069Y-97495307D01*
X122422243Y-97448000D01*
X122179757Y-97448000D01*
X121941931Y-97495307D01*
X121717903Y-97588102D01*
X121516283Y-97722820D01*
X121344820Y-97894283D01*
X121210102Y-98095903D01*
X121117307Y-98319931D01*
X121070000Y-98557757D01*
X116518200Y-98557757D01*
X116518200Y-96017757D01*
X121070000Y-96017757D01*
X121070000Y-96260243D01*
X121117307Y-96498069D01*
X121210102Y-96722097D01*
X121344820Y-96923717D01*
X121516283Y-97095180D01*
X121717903Y-97229898D01*
X121941931Y-97322693D01*
X122179757Y-97370000D01*
X122422243Y-97370000D01*
X122660069Y-97322693D01*
X122884097Y-97229898D01*
X123085717Y-97095180D01*
X123257180Y-96923717D01*
X123391898Y-96722097D01*
X123484693Y-96498069D01*
X123532000Y-96260243D01*
X123532000Y-96017757D01*
X123484693Y-95779931D01*
X123391898Y-95555903D01*
X123257180Y-95354283D01*
X123085717Y-95182820D01*
X122884097Y-95048102D01*
X122660069Y-94955307D01*
X122422243Y-94908000D01*
X122179757Y-94908000D01*
X121941931Y-94955307D01*
X121717903Y-95048102D01*
X121516283Y-95182820D01*
X121344820Y-95354283D01*
X121210102Y-95555903D01*
X121117307Y-95779931D01*
X121070000Y-96017757D01*
X116518200Y-96017757D01*
X116518200Y-93477757D01*
X121070000Y-93477757D01*
X121070000Y-93720243D01*
X121117307Y-93958069D01*
X121210102Y-94182097D01*
X121344820Y-94383717D01*
X121516283Y-94555180D01*
X121717903Y-94689898D01*
X121941931Y-94782693D01*
X122179757Y-94830000D01*
X122422243Y-94830000D01*
X122660069Y-94782693D01*
X122884097Y-94689898D01*
X123085717Y-94555180D01*
X123257180Y-94383717D01*
X123391898Y-94182097D01*
X123484693Y-93958069D01*
X123532000Y-93720243D01*
X123532000Y-93477757D01*
X123484693Y-93239931D01*
X123391898Y-93015903D01*
X123257180Y-92814283D01*
X123085717Y-92642820D01*
X122884097Y-92508102D01*
X122660069Y-92415307D01*
X122422243Y-92368000D01*
X122179757Y-92368000D01*
X121941931Y-92415307D01*
X121717903Y-92508102D01*
X121516283Y-92642820D01*
X121344820Y-92814283D01*
X121210102Y-93015903D01*
X121117307Y-93239931D01*
X121070000Y-93477757D01*
X116518200Y-93477757D01*
X116518200Y-86858191D01*
X124825283Y-86858191D01*
X124825283Y-87195409D01*
X124891071Y-87526148D01*
X125020119Y-87837697D01*
X125207467Y-88118083D01*
X125445917Y-88356533D01*
X125726303Y-88543881D01*
X126037852Y-88672929D01*
X126368591Y-88738717D01*
X126705809Y-88738717D01*
X127036548Y-88672929D01*
X127348097Y-88543881D01*
X127628483Y-88356533D01*
X127866933Y-88118083D01*
X128054281Y-87837697D01*
X128183329Y-87526148D01*
X128249117Y-87195409D01*
X128249117Y-86858191D01*
X128183329Y-86527452D01*
X128054281Y-86215903D01*
X127866933Y-85935517D01*
X127628483Y-85697067D01*
X127348097Y-85509719D01*
X127036548Y-85380671D01*
X126705809Y-85314883D01*
X126368591Y-85314883D01*
X126037852Y-85380671D01*
X125726303Y-85509719D01*
X125445917Y-85697067D01*
X125207467Y-85935517D01*
X125020119Y-86215903D01*
X124891071Y-86527452D01*
X124825283Y-86858191D01*
X116518200Y-86858191D01*
X116518200Y-74393285D01*
X118516000Y-74393285D01*
X118516000Y-74704715D01*
X118576757Y-75010161D01*
X118695936Y-75297884D01*
X118868957Y-75556829D01*
X119089171Y-75777043D01*
X119348116Y-75950064D01*
X119635839Y-76069243D01*
X119941285Y-76130000D01*
X120252715Y-76130000D01*
X120558161Y-76069243D01*
X120845884Y-75950064D01*
X121104829Y-75777043D01*
X121325043Y-75556829D01*
X121498064Y-75297884D01*
X121617243Y-75010161D01*
X121678000Y-74704715D01*
X121678000Y-74393285D01*
X122016000Y-74393285D01*
X122016000Y-74704715D01*
X122076757Y-75010161D01*
X122195936Y-75297884D01*
X122368957Y-75556829D01*
X122589171Y-75777043D01*
X122848116Y-75950064D01*
X123135839Y-76069243D01*
X123441285Y-76130000D01*
X123752715Y-76130000D01*
X124058161Y-76069243D01*
X124345884Y-75950064D01*
X124604829Y-75777043D01*
X124825043Y-75556829D01*
X124998064Y-75297884D01*
X125117243Y-75010161D01*
X125178000Y-74704715D01*
X125178000Y-74393285D01*
X125516000Y-74393285D01*
X125516000Y-74704715D01*
X125576757Y-75010161D01*
X125695936Y-75297884D01*
X125868957Y-75556829D01*
X126089171Y-75777043D01*
X126348116Y-75950064D01*
X126635839Y-76069243D01*
X126941285Y-76130000D01*
X127252715Y-76130000D01*
X127558161Y-76069243D01*
X127845884Y-75950064D01*
X128104829Y-75777043D01*
X128325043Y-75556829D01*
X128498064Y-75297884D01*
X128617243Y-75010161D01*
X128678000Y-74704715D01*
X128678000Y-74393285D01*
X129016000Y-74393285D01*
X129016000Y-74704715D01*
X129076757Y-75010161D01*
X129195936Y-75297884D01*
X129368957Y-75556829D01*
X129589171Y-75777043D01*
X129848116Y-75950064D01*
X130135839Y-76069243D01*
X130441285Y-76130000D01*
X130752715Y-76130000D01*
X131058161Y-76069243D01*
X131345884Y-75950064D01*
X131604829Y-75777043D01*
X131825043Y-75556829D01*
X131998064Y-75297884D01*
X132117243Y-75010161D01*
X132178000Y-74704715D01*
X132178000Y-74393285D01*
X132516000Y-74393285D01*
X132516000Y-74704715D01*
X132576757Y-75010161D01*
X132695936Y-75297884D01*
X132868957Y-75556829D01*
X133089171Y-75777043D01*
X133348116Y-75950064D01*
X133635839Y-76069243D01*
X133941285Y-76130000D01*
X134252715Y-76130000D01*
X134558161Y-76069243D01*
X134845884Y-75950064D01*
X135104829Y-75777043D01*
X135325043Y-75556829D01*
X135498064Y-75297884D01*
X135617243Y-75010161D01*
X135678000Y-74704715D01*
X135678000Y-74393285D01*
X136016000Y-74393285D01*
X136016000Y-74704715D01*
X136076757Y-75010161D01*
X136195936Y-75297884D01*
X136368957Y-75556829D01*
X136589171Y-75777043D01*
X136848116Y-75950064D01*
X137135839Y-76069243D01*
X137441285Y-76130000D01*
X137752715Y-76130000D01*
X138058161Y-76069243D01*
X138345884Y-75950064D01*
X138604829Y-75777043D01*
X138825043Y-75556829D01*
X138998064Y-75297884D01*
X139117243Y-75010161D01*
X139178000Y-74704715D01*
X139178000Y-74393285D01*
X139117243Y-74087839D01*
X138998064Y-73800116D01*
X138825043Y-73541171D01*
X138632872Y-73349000D01*
X139514157Y-73349000D01*
X139514157Y-75749000D01*
X139521513Y-75823689D01*
X139543299Y-75895508D01*
X139578678Y-75961696D01*
X139626289Y-76019711D01*
X139684304Y-76067322D01*
X139750492Y-76102701D01*
X139822311Y-76124487D01*
X139897000Y-76131843D01*
X142297000Y-76131843D01*
X142371689Y-76124487D01*
X142443508Y-76102701D01*
X142509696Y-76067322D01*
X142567711Y-76019711D01*
X142615322Y-75961696D01*
X142650701Y-75895508D01*
X142672487Y-75823689D01*
X142679843Y-75749000D01*
X142679843Y-74393285D01*
X147218000Y-74393285D01*
X147218000Y-74704715D01*
X147278757Y-75010161D01*
X147397936Y-75297884D01*
X147570957Y-75556829D01*
X147791171Y-75777043D01*
X148050116Y-75950064D01*
X148337839Y-76069243D01*
X148643285Y-76130000D01*
X148954715Y-76130000D01*
X149260161Y-76069243D01*
X149547884Y-75950064D01*
X149806829Y-75777043D01*
X150027043Y-75556829D01*
X150200064Y-75297884D01*
X150319243Y-75010161D01*
X150380000Y-74704715D01*
X150380000Y-74393285D01*
X150718000Y-74393285D01*
X150718000Y-74704715D01*
X150778757Y-75010161D01*
X150897936Y-75297884D01*
X151070957Y-75556829D01*
X151291171Y-75777043D01*
X151550116Y-75950064D01*
X151837839Y-76069243D01*
X152143285Y-76130000D01*
X152454715Y-76130000D01*
X152760161Y-76069243D01*
X153047884Y-75950064D01*
X153306829Y-75777043D01*
X153527043Y-75556829D01*
X153700064Y-75297884D01*
X153819243Y-75010161D01*
X153880000Y-74704715D01*
X153880000Y-74393285D01*
X154218000Y-74393285D01*
X154218000Y-74704715D01*
X154278757Y-75010161D01*
X154397936Y-75297884D01*
X154570957Y-75556829D01*
X154791171Y-75777043D01*
X155050116Y-75950064D01*
X155337839Y-76069243D01*
X155643285Y-76130000D01*
X155954715Y-76130000D01*
X156260161Y-76069243D01*
X156547884Y-75950064D01*
X156806829Y-75777043D01*
X157027043Y-75556829D01*
X157200064Y-75297884D01*
X157319243Y-75010161D01*
X157380000Y-74704715D01*
X157380000Y-74393285D01*
X157718000Y-74393285D01*
X157718000Y-74704715D01*
X157778757Y-75010161D01*
X157897936Y-75297884D01*
X158070957Y-75556829D01*
X158291171Y-75777043D01*
X158550116Y-75950064D01*
X158837839Y-76069243D01*
X159143285Y-76130000D01*
X159454715Y-76130000D01*
X159760161Y-76069243D01*
X160047884Y-75950064D01*
X160306829Y-75777043D01*
X160527043Y-75556829D01*
X160700064Y-75297884D01*
X160819243Y-75010161D01*
X160880000Y-74704715D01*
X160880000Y-74393285D01*
X161218000Y-74393285D01*
X161218000Y-74704715D01*
X161278757Y-75010161D01*
X161397936Y-75297884D01*
X161570957Y-75556829D01*
X161791171Y-75777043D01*
X162050116Y-75950064D01*
X162337839Y-76069243D01*
X162643285Y-76130000D01*
X162954715Y-76130000D01*
X163260161Y-76069243D01*
X163547884Y-75950064D01*
X163806829Y-75777043D01*
X164027043Y-75556829D01*
X164200064Y-75297884D01*
X164319243Y-75010161D01*
X164380000Y-74704715D01*
X164380000Y-74393285D01*
X164718000Y-74393285D01*
X164718000Y-74704715D01*
X164778757Y-75010161D01*
X164897936Y-75297884D01*
X165070957Y-75556829D01*
X165291171Y-75777043D01*
X165550116Y-75950064D01*
X165837839Y-76069243D01*
X166143285Y-76130000D01*
X166454715Y-76130000D01*
X166760161Y-76069243D01*
X167047884Y-75950064D01*
X167306829Y-75777043D01*
X167527043Y-75556829D01*
X167700064Y-75297884D01*
X167819243Y-75010161D01*
X167880000Y-74704715D01*
X167880000Y-74393285D01*
X167819243Y-74087839D01*
X167700064Y-73800116D01*
X167527043Y-73541171D01*
X167334872Y-73349000D01*
X168216157Y-73349000D01*
X168216157Y-75749000D01*
X168223513Y-75823689D01*
X168245299Y-75895508D01*
X168280678Y-75961696D01*
X168328289Y-76019711D01*
X168386304Y-76067322D01*
X168452492Y-76102701D01*
X168524311Y-76124487D01*
X168599000Y-76131843D01*
X170999000Y-76131843D01*
X171073689Y-76124487D01*
X171145508Y-76102701D01*
X171211696Y-76067322D01*
X171269711Y-76019711D01*
X171317322Y-75961696D01*
X171352701Y-75895508D01*
X171374487Y-75823689D01*
X171381843Y-75749000D01*
X171381843Y-74393285D01*
X175920000Y-74393285D01*
X175920000Y-74704715D01*
X175980757Y-75010161D01*
X176099936Y-75297884D01*
X176272957Y-75556829D01*
X176493171Y-75777043D01*
X176752116Y-75950064D01*
X177039839Y-76069243D01*
X177345285Y-76130000D01*
X177656715Y-76130000D01*
X177962161Y-76069243D01*
X178249884Y-75950064D01*
X178508829Y-75777043D01*
X178729043Y-75556829D01*
X178902064Y-75297884D01*
X179021243Y-75010161D01*
X179082000Y-74704715D01*
X179082000Y-74393285D01*
X179420000Y-74393285D01*
X179420000Y-74704715D01*
X179480757Y-75010161D01*
X179599936Y-75297884D01*
X179772957Y-75556829D01*
X179993171Y-75777043D01*
X180252116Y-75950064D01*
X180539839Y-76069243D01*
X180845285Y-76130000D01*
X181156715Y-76130000D01*
X181462161Y-76069243D01*
X181749884Y-75950064D01*
X182008829Y-75777043D01*
X182229043Y-75556829D01*
X182402064Y-75297884D01*
X182521243Y-75010161D01*
X182582000Y-74704715D01*
X182582000Y-74393285D01*
X182920000Y-74393285D01*
X182920000Y-74704715D01*
X182980757Y-75010161D01*
X183099936Y-75297884D01*
X183272957Y-75556829D01*
X183493171Y-75777043D01*
X183752116Y-75950064D01*
X184039839Y-76069243D01*
X184345285Y-76130000D01*
X184656715Y-76130000D01*
X184962161Y-76069243D01*
X185249884Y-75950064D01*
X185508829Y-75777043D01*
X185729043Y-75556829D01*
X185902064Y-75297884D01*
X186021243Y-75010161D01*
X186082000Y-74704715D01*
X186082000Y-74393285D01*
X186420000Y-74393285D01*
X186420000Y-74704715D01*
X186480757Y-75010161D01*
X186599936Y-75297884D01*
X186772957Y-75556829D01*
X186993171Y-75777043D01*
X187252116Y-75950064D01*
X187539839Y-76069243D01*
X187845285Y-76130000D01*
X188156715Y-76130000D01*
X188462161Y-76069243D01*
X188749884Y-75950064D01*
X189008829Y-75777043D01*
X189229043Y-75556829D01*
X189402064Y-75297884D01*
X189521243Y-75010161D01*
X189582000Y-74704715D01*
X189582000Y-74393285D01*
X189920000Y-74393285D01*
X189920000Y-74704715D01*
X189980757Y-75010161D01*
X190099936Y-75297884D01*
X190272957Y-75556829D01*
X190493171Y-75777043D01*
X190752116Y-75950064D01*
X191039839Y-76069243D01*
X191345285Y-76130000D01*
X191656715Y-76130000D01*
X191962161Y-76069243D01*
X192249884Y-75950064D01*
X192508829Y-75777043D01*
X192729043Y-75556829D01*
X192902064Y-75297884D01*
X193021243Y-75010161D01*
X193082000Y-74704715D01*
X193082000Y-74393285D01*
X193420000Y-74393285D01*
X193420000Y-74704715D01*
X193480757Y-75010161D01*
X193599936Y-75297884D01*
X193772957Y-75556829D01*
X193993171Y-75777043D01*
X194252116Y-75950064D01*
X194539839Y-76069243D01*
X194845285Y-76130000D01*
X195156715Y-76130000D01*
X195462161Y-76069243D01*
X195749884Y-75950064D01*
X196008829Y-75777043D01*
X196229043Y-75556829D01*
X196402064Y-75297884D01*
X196521243Y-75010161D01*
X196582000Y-74704715D01*
X196582000Y-74393285D01*
X196521243Y-74087839D01*
X196402064Y-73800116D01*
X196229043Y-73541171D01*
X196008829Y-73320957D01*
X195749884Y-73147936D01*
X195462161Y-73028757D01*
X195156715Y-72968000D01*
X194845285Y-72968000D01*
X194539839Y-73028757D01*
X194252116Y-73147936D01*
X193993171Y-73320957D01*
X193772957Y-73541171D01*
X193599936Y-73800116D01*
X193480757Y-74087839D01*
X193420000Y-74393285D01*
X193082000Y-74393285D01*
X193021243Y-74087839D01*
X192902064Y-73800116D01*
X192729043Y-73541171D01*
X192508829Y-73320957D01*
X192249884Y-73147936D01*
X191962161Y-73028757D01*
X191656715Y-72968000D01*
X191345285Y-72968000D01*
X191039839Y-73028757D01*
X190752116Y-73147936D01*
X190493171Y-73320957D01*
X190272957Y-73541171D01*
X190099936Y-73800116D01*
X189980757Y-74087839D01*
X189920000Y-74393285D01*
X189582000Y-74393285D01*
X189521243Y-74087839D01*
X189402064Y-73800116D01*
X189229043Y-73541171D01*
X189008829Y-73320957D01*
X188749884Y-73147936D01*
X188462161Y-73028757D01*
X188156715Y-72968000D01*
X187845285Y-72968000D01*
X187539839Y-73028757D01*
X187252116Y-73147936D01*
X186993171Y-73320957D01*
X186772957Y-73541171D01*
X186599936Y-73800116D01*
X186480757Y-74087839D01*
X186420000Y-74393285D01*
X186082000Y-74393285D01*
X186021243Y-74087839D01*
X185902064Y-73800116D01*
X185729043Y-73541171D01*
X185508829Y-73320957D01*
X185249884Y-73147936D01*
X184962161Y-73028757D01*
X184656715Y-72968000D01*
X184345285Y-72968000D01*
X184039839Y-73028757D01*
X183752116Y-73147936D01*
X183493171Y-73320957D01*
X183272957Y-73541171D01*
X183099936Y-73800116D01*
X182980757Y-74087839D01*
X182920000Y-74393285D01*
X182582000Y-74393285D01*
X182521243Y-74087839D01*
X182402064Y-73800116D01*
X182229043Y-73541171D01*
X182008829Y-73320957D01*
X181749884Y-73147936D01*
X181462161Y-73028757D01*
X181156715Y-72968000D01*
X180845285Y-72968000D01*
X180539839Y-73028757D01*
X180252116Y-73147936D01*
X179993171Y-73320957D01*
X179772957Y-73541171D01*
X179599936Y-73800116D01*
X179480757Y-74087839D01*
X179420000Y-74393285D01*
X179082000Y-74393285D01*
X179021243Y-74087839D01*
X178902064Y-73800116D01*
X178729043Y-73541171D01*
X178508829Y-73320957D01*
X178249884Y-73147936D01*
X177962161Y-73028757D01*
X177656715Y-72968000D01*
X177345285Y-72968000D01*
X177039839Y-73028757D01*
X176752116Y-73147936D01*
X176493171Y-73320957D01*
X176272957Y-73541171D01*
X176099936Y-73800116D01*
X175980757Y-74087839D01*
X175920000Y-74393285D01*
X171381843Y-74393285D01*
X171381843Y-73349000D01*
X171374487Y-73274311D01*
X171352701Y-73202492D01*
X171317322Y-73136304D01*
X171269711Y-73078289D01*
X171211696Y-73030678D01*
X171145508Y-72995299D01*
X171073689Y-72973513D01*
X170999000Y-72966157D01*
X168599000Y-72966157D01*
X168524311Y-72973513D01*
X168452492Y-72995299D01*
X168386304Y-73030678D01*
X168328289Y-73078289D01*
X168280678Y-73136304D01*
X168245299Y-73202492D01*
X168223513Y-73274311D01*
X168216157Y-73349000D01*
X167334872Y-73349000D01*
X167306829Y-73320957D01*
X167047884Y-73147936D01*
X166760161Y-73028757D01*
X166454715Y-72968000D01*
X166143285Y-72968000D01*
X165837839Y-73028757D01*
X165550116Y-73147936D01*
X165291171Y-73320957D01*
X165070957Y-73541171D01*
X164897936Y-73800116D01*
X164778757Y-74087839D01*
X164718000Y-74393285D01*
X164380000Y-74393285D01*
X164319243Y-74087839D01*
X164200064Y-73800116D01*
X164027043Y-73541171D01*
X163806829Y-73320957D01*
X163547884Y-73147936D01*
X163260161Y-73028757D01*
X162954715Y-72968000D01*
X162643285Y-72968000D01*
X162337839Y-73028757D01*
X162050116Y-73147936D01*
X161791171Y-73320957D01*
X161570957Y-73541171D01*
X161397936Y-73800116D01*
X161278757Y-74087839D01*
X161218000Y-74393285D01*
X160880000Y-74393285D01*
X160819243Y-74087839D01*
X160700064Y-73800116D01*
X160527043Y-73541171D01*
X160306829Y-73320957D01*
X160047884Y-73147936D01*
X159760161Y-73028757D01*
X159454715Y-72968000D01*
X159143285Y-72968000D01*
X158837839Y-73028757D01*
X158550116Y-73147936D01*
X158291171Y-73320957D01*
X158070957Y-73541171D01*
X157897936Y-73800116D01*
X157778757Y-74087839D01*
X157718000Y-74393285D01*
X157380000Y-74393285D01*
X157319243Y-74087839D01*
X157200064Y-73800116D01*
X157027043Y-73541171D01*
X156806829Y-73320957D01*
X156547884Y-73147936D01*
X156260161Y-73028757D01*
X155954715Y-72968000D01*
X155643285Y-72968000D01*
X155337839Y-73028757D01*
X155050116Y-73147936D01*
X154791171Y-73320957D01*
X154570957Y-73541171D01*
X154397936Y-73800116D01*
X154278757Y-74087839D01*
X154218000Y-74393285D01*
X153880000Y-74393285D01*
X153819243Y-74087839D01*
X153700064Y-73800116D01*
X153527043Y-73541171D01*
X153306829Y-73320957D01*
X153047884Y-73147936D01*
X152760161Y-73028757D01*
X152454715Y-72968000D01*
X152143285Y-72968000D01*
X151837839Y-73028757D01*
X151550116Y-73147936D01*
X151291171Y-73320957D01*
X151070957Y-73541171D01*
X150897936Y-73800116D01*
X150778757Y-74087839D01*
X150718000Y-74393285D01*
X150380000Y-74393285D01*
X150319243Y-74087839D01*
X150200064Y-73800116D01*
X150027043Y-73541171D01*
X149806829Y-73320957D01*
X149547884Y-73147936D01*
X149260161Y-73028757D01*
X148954715Y-72968000D01*
X148643285Y-72968000D01*
X148337839Y-73028757D01*
X148050116Y-73147936D01*
X147791171Y-73320957D01*
X147570957Y-73541171D01*
X147397936Y-73800116D01*
X147278757Y-74087839D01*
X147218000Y-74393285D01*
X142679843Y-74393285D01*
X142679843Y-73349000D01*
X142672487Y-73274311D01*
X142650701Y-73202492D01*
X142615322Y-73136304D01*
X142567711Y-73078289D01*
X142509696Y-73030678D01*
X142443508Y-72995299D01*
X142371689Y-72973513D01*
X142297000Y-72966157D01*
X139897000Y-72966157D01*
X139822311Y-72973513D01*
X139750492Y-72995299D01*
X139684304Y-73030678D01*
X139626289Y-73078289D01*
X139578678Y-73136304D01*
X139543299Y-73202492D01*
X139521513Y-73274311D01*
X139514157Y-73349000D01*
X138632872Y-73349000D01*
X138604829Y-73320957D01*
X138345884Y-73147936D01*
X138058161Y-73028757D01*
X137752715Y-72968000D01*
X137441285Y-72968000D01*
X137135839Y-73028757D01*
X136848116Y-73147936D01*
X136589171Y-73320957D01*
X136368957Y-73541171D01*
X136195936Y-73800116D01*
X136076757Y-74087839D01*
X136016000Y-74393285D01*
X135678000Y-74393285D01*
X135617243Y-74087839D01*
X135498064Y-73800116D01*
X135325043Y-73541171D01*
X135104829Y-73320957D01*
X134845884Y-73147936D01*
X134558161Y-73028757D01*
X134252715Y-72968000D01*
X133941285Y-72968000D01*
X133635839Y-73028757D01*
X133348116Y-73147936D01*
X133089171Y-73320957D01*
X132868957Y-73541171D01*
X132695936Y-73800116D01*
X132576757Y-74087839D01*
X132516000Y-74393285D01*
X132178000Y-74393285D01*
X132117243Y-74087839D01*
X131998064Y-73800116D01*
X131825043Y-73541171D01*
X131604829Y-73320957D01*
X131345884Y-73147936D01*
X131058161Y-73028757D01*
X130752715Y-72968000D01*
X130441285Y-72968000D01*
X130135839Y-73028757D01*
X129848116Y-73147936D01*
X129589171Y-73320957D01*
X129368957Y-73541171D01*
X129195936Y-73800116D01*
X129076757Y-74087839D01*
X129016000Y-74393285D01*
X128678000Y-74393285D01*
X128617243Y-74087839D01*
X128498064Y-73800116D01*
X128325043Y-73541171D01*
X128104829Y-73320957D01*
X127845884Y-73147936D01*
X127558161Y-73028757D01*
X127252715Y-72968000D01*
X126941285Y-72968000D01*
X126635839Y-73028757D01*
X126348116Y-73147936D01*
X126089171Y-73320957D01*
X125868957Y-73541171D01*
X125695936Y-73800116D01*
X125576757Y-74087839D01*
X125516000Y-74393285D01*
X125178000Y-74393285D01*
X125117243Y-74087839D01*
X124998064Y-73800116D01*
X124825043Y-73541171D01*
X124604829Y-73320957D01*
X124345884Y-73147936D01*
X124058161Y-73028757D01*
X123752715Y-72968000D01*
X123441285Y-72968000D01*
X123135839Y-73028757D01*
X122848116Y-73147936D01*
X122589171Y-73320957D01*
X122368957Y-73541171D01*
X122195936Y-73800116D01*
X122076757Y-74087839D01*
X122016000Y-74393285D01*
X121678000Y-74393285D01*
X121617243Y-74087839D01*
X121498064Y-73800116D01*
X121325043Y-73541171D01*
X121104829Y-73320957D01*
X120845884Y-73147936D01*
X120558161Y-73028757D01*
X120252715Y-72968000D01*
X119941285Y-72968000D01*
X119635839Y-73028757D01*
X119348116Y-73147936D01*
X119089171Y-73320957D01*
X118868957Y-73541171D01*
X118695936Y-73800116D01*
X118576757Y-74087839D01*
X118516000Y-74393285D01*
X116518200Y-74393285D01*
X116518200Y-62507800D01*
X119504684Y-62507800D01*
X119445917Y-62547067D01*
G37*
%TD.AperFunction*%
%TD*%
M02*
