M48
; DRILL file {KiCad (5.1.10)-1} date 12/02/22 20:43:52
; FORMAT={-:-/ absolute / inch / decimal}
; #@! TF.CreationDate,2022-12-02T20:43:52-06:00
; #@! TF.GenerationSoftware,Kicad,Pcbnew,(5.1.10)-1
; #@! TF.FileFunction,Plated,1,2,PTH
FMAT,2
INCH
T1C0.0236
T2C0.0315
T3C0.0354
T4C0.0394
T5C0.0472
%
G90
G05
T1
X7.55Y-3.835
X7.55Y-3.8842
X7.55Y-3.9334
X7.55Y-3.9826
X7.55Y-4.0319
X7.55Y-4.0811
X7.55Y-4.1303
X7.55Y-4.1795
X7.55Y-4.2287
X7.55Y-4.2779
X7.55Y-4.3271
X7.55Y-4.3763
X7.55Y-4.4256
X7.5992Y-3.835
X7.5992Y-3.8842
X7.5992Y-3.9334
X7.5992Y-3.9826
X7.5992Y-4.0319
X7.5992Y-4.0811
X7.5992Y-4.1303
X7.5992Y-4.1795
X7.5992Y-4.2287
X7.5992Y-4.2779
X7.5992Y-4.3271
X7.5992Y-4.3763
X7.5992Y-4.4256
T2
X5.85Y-4.925
X6.15Y-4.925
T3
X6.002Y-5.081
X6.002Y-5.181
T4
X4.815Y-3.685
X4.815Y-3.785
X4.815Y-3.885
X4.815Y-3.985
X4.815Y-4.085
X4.815Y-4.185
X4.815Y-4.285
X4.815Y-4.385
X6.69Y-4.585
X6.79Y-4.585
X6.89Y-4.585
X6.99Y-4.585
X7.09Y-4.585
X7.19Y-4.585
T5
X4.7282Y-2.935
X4.866Y-2.935
X5.0038Y-2.935
X5.1416Y-2.935
X5.2794Y-2.935
X5.4172Y-2.935
X5.555Y-2.935
X5.8582Y-2.935
X5.996Y-2.935
X6.1338Y-2.935
X6.2716Y-2.935
X6.4094Y-2.935
X6.5472Y-2.935
X6.685Y-2.935
X6.9882Y-2.935
X7.126Y-2.935
X7.2638Y-2.935
X7.4016Y-2.935
X7.5394Y-2.935
X7.6772Y-2.935
X7.815Y-2.935
T0
M30
