%TF.GenerationSoftware,KiCad,Pcbnew,(5.1.10)-1*%
%TF.CreationDate,2022-12-02T20:43:51-06:00*%
%TF.ProjectId,expansion_board,65787061-6e73-4696-9f6e-5f626f617264,rev?*%
%TF.SameCoordinates,Original*%
%TF.FileFunction,Soldermask,Bot*%
%TF.FilePolarity,Negative*%
%FSLAX46Y46*%
G04 Gerber Fmt 4.6, Leading zero omitted, Abs format (unit mm)*
G04 Created by KiCad (PCBNEW (5.1.10)-1) date 2022-12-02 20:43:51*
%MOMM*%
%LPD*%
G01*
G04 APERTURE LIST*
%ADD10C,1.100000*%
%ADD11C,2.400000*%
%ADD12R,2.400000X2.400000*%
%ADD13O,1.600000X1.600000*%
%ADD14C,1.600000*%
%ADD15O,1.700000X1.700000*%
%ADD16R,1.700000X1.700000*%
%ADD17C,1.800000*%
%ADD18R,1.800000X1.800000*%
G04 APERTURE END LIST*
D10*
%TO.C,J2*%
X193020000Y-112409000D03*
X193020000Y-111159000D03*
X193020000Y-109909000D03*
X193020000Y-108659000D03*
X193020000Y-107409000D03*
X193020000Y-106159000D03*
X193020000Y-104909000D03*
X193020000Y-103659000D03*
X193020000Y-102409000D03*
X193020000Y-101159000D03*
X193020000Y-99909000D03*
X193020000Y-98659000D03*
X193020000Y-97409000D03*
X191770000Y-112409000D03*
X191770000Y-111159000D03*
X191770000Y-109909000D03*
X191770000Y-108659000D03*
X191770000Y-107409000D03*
X191770000Y-106159000D03*
X191770000Y-104909000D03*
X191770000Y-103659000D03*
X191770000Y-102409000D03*
X191770000Y-101159000D03*
X191770000Y-99909000D03*
X191770000Y-98659000D03*
X191770000Y-97409000D03*
%TD*%
D11*
%TO.C,J6*%
X120097000Y-74549000D03*
X123597000Y-74549000D03*
X127097000Y-74549000D03*
X130597000Y-74549000D03*
X134097000Y-74549000D03*
X137597000Y-74549000D03*
D12*
X141097000Y-74549000D03*
%TD*%
D11*
%TO.C,J5*%
X177501000Y-74549000D03*
X181001000Y-74549000D03*
X184501000Y-74549000D03*
X188001000Y-74549000D03*
X191501000Y-74549000D03*
X195001000Y-74549000D03*
D12*
X198501000Y-74549000D03*
%TD*%
D11*
%TO.C,J4*%
X148799000Y-74549000D03*
X152299000Y-74549000D03*
X155799000Y-74549000D03*
X159299000Y-74549000D03*
X162799000Y-74549000D03*
X166299000Y-74549000D03*
D12*
X169799000Y-74549000D03*
%TD*%
D13*
%TO.C,FAULT*%
X156210000Y-125095000D03*
D14*
X148590000Y-125095000D03*
%TD*%
D15*
%TO.C,J3*%
X122301000Y-93599000D03*
X122301000Y-96139000D03*
X122301000Y-98679000D03*
X122301000Y-101219000D03*
X122301000Y-103759000D03*
X122301000Y-106299000D03*
X122301000Y-108839000D03*
D16*
X122301000Y-111379000D03*
%TD*%
D15*
%TO.C,J1*%
X169926000Y-116459000D03*
X172466000Y-116459000D03*
X175006000Y-116459000D03*
X177546000Y-116459000D03*
X180086000Y-116459000D03*
D16*
X182626000Y-116459000D03*
%TD*%
D17*
%TO.C,D1*%
X152450800Y-131597400D03*
D18*
X152450800Y-129057400D03*
%TD*%
M02*
