%TF.GenerationSoftware,KiCad,Pcbnew,(5.1.10)-1*%
%TF.CreationDate,2022-09-18T09:06:00-05:00*%
%TF.ProjectId,digi_pot_tracer,64696769-5f70-46f7-945f-747261636572,A*%
%TF.SameCoordinates,Original*%
%TF.FileFunction,Copper,L2,Bot*%
%TF.FilePolarity,Positive*%
%FSLAX46Y46*%
G04 Gerber Fmt 4.6, Leading zero omitted, Abs format (unit mm)*
G04 Created by KiCad (PCBNEW (5.1.10)-1) date 2022-09-18 09:06:00*
%MOMM*%
%LPD*%
G01*
G04 APERTURE LIST*
%TA.AperFunction,ComponentPad*%
%ADD10O,1.700000X1.700000*%
%TD*%
%TA.AperFunction,ComponentPad*%
%ADD11R,1.700000X1.700000*%
%TD*%
%TA.AperFunction,ComponentPad*%
%ADD12C,2.600000*%
%TD*%
%TA.AperFunction,ComponentPad*%
%ADD13R,2.600000X2.600000*%
%TD*%
%TA.AperFunction,ViaPad*%
%ADD14C,0.508000*%
%TD*%
%TA.AperFunction,Conductor*%
%ADD15C,0.254000*%
%TD*%
%TA.AperFunction,Conductor*%
%ADD16C,0.100000*%
%TD*%
G04 APERTURE END LIST*
D10*
%TO.P,J3,10*%
%TO.N,GND*%
X204107000Y-73848000D03*
%TO.P,J3,9*%
%TO.N,PANEL_CURRENT*%
X204107000Y-76388000D03*
%TO.P,J3,8*%
%TO.N,Net-(J3-Pad8)*%
X204107000Y-78928000D03*
%TO.P,J3,7*%
%TO.N,Net-(J3-Pad7)*%
X204107000Y-81468000D03*
%TO.P,J3,6*%
%TO.N,Net-(J3-Pad6)*%
X204107000Y-84008000D03*
%TO.P,J3,5*%
%TO.N,Net-(J3-Pad5)*%
X204107000Y-86548000D03*
%TO.P,J3,4*%
%TO.N,Net-(J3-Pad4)*%
X204107000Y-89088000D03*
%TO.P,J3,3*%
%TO.N,Net-(J3-Pad3)*%
X204107000Y-91628000D03*
%TO.P,J3,2*%
%TO.N,Net-(J3-Pad2)*%
X204107000Y-94168000D03*
D11*
%TO.P,J3,1*%
%TO.N,Net-(J3-Pad1)*%
X204107000Y-96708000D03*
%TD*%
D10*
%TO.P,J2,10*%
%TO.N,Net-(J2-Pad10)*%
X157594000Y-96708000D03*
%TO.P,J2,9*%
%TO.N,Net-(J2-Pad9)*%
X157594000Y-94168000D03*
%TO.P,J2,8*%
%TO.N,Net-(J2-Pad8)*%
X157594000Y-91628000D03*
%TO.P,J2,7*%
%TO.N,Net-(J2-Pad7)*%
X157594000Y-89088000D03*
%TO.P,J2,6*%
%TO.N,PANEL_VOLTAGE*%
X157594000Y-86548000D03*
%TO.P,J2,5*%
%TO.N,Net-(J2-Pad5)*%
X157594000Y-84008000D03*
%TO.P,J2,4*%
%TO.N,Net-(J2-Pad4)*%
X157594000Y-81468000D03*
%TO.P,J2,3*%
%TO.N,Net-(J2-Pad3)*%
X157594000Y-78928000D03*
%TO.P,J2,2*%
%TO.N,Net-(J2-Pad2)*%
X157594000Y-76388000D03*
D11*
%TO.P,J2,1*%
%TO.N,VBUS*%
X157594000Y-73848000D03*
%TD*%
D12*
%TO.P,J1,4*%
%TO.N,GND*%
X173277500Y-63398500D03*
%TO.P,J1,3*%
X178357500Y-63398500D03*
%TO.P,J1,2*%
%TO.N,Net-(J1-Pad1)*%
X183437500Y-63398500D03*
D13*
%TO.P,J1,1*%
X188517500Y-63398500D03*
%TD*%
D14*
%TO.N,GND*%
X187134500Y-74676000D03*
X180213000Y-75946000D03*
X180213000Y-80899000D03*
X165100000Y-63119000D03*
X163512500Y-66294000D03*
X162052000Y-68389500D03*
X161861500Y-66230500D03*
X159829500Y-64706500D03*
X173736000Y-76390500D03*
X184404000Y-78740000D03*
X189788800Y-75438000D03*
X198755000Y-74803000D03*
X173228000Y-74549000D03*
X161798000Y-84074000D03*
%TD*%
D15*
%TO.N,GND*%
X205588001Y-73720998D02*
X205427156Y-73720998D01*
X205548476Y-73491110D01*
X205503825Y-73343901D01*
X205378641Y-73081080D01*
X205204588Y-72847731D01*
X204988355Y-72652822D01*
X204738252Y-72503843D01*
X204463891Y-72406519D01*
X204234000Y-72527186D01*
X204234000Y-73721000D01*
X204254000Y-73721000D01*
X204254000Y-73975000D01*
X204234000Y-73975000D01*
X204234000Y-73995000D01*
X203980000Y-73995000D01*
X203980000Y-73975000D01*
X202786845Y-73975000D01*
X202665524Y-74204890D01*
X202710175Y-74352099D01*
X202835359Y-74614920D01*
X203009412Y-74848269D01*
X203225645Y-75043178D01*
X203475748Y-75192157D01*
X203638168Y-75249772D01*
X203523903Y-75297102D01*
X203322283Y-75431820D01*
X203150820Y-75603283D01*
X203016102Y-75804903D01*
X202923307Y-76028931D01*
X202876000Y-76266757D01*
X202876000Y-76509243D01*
X202923307Y-76747069D01*
X203016102Y-76971097D01*
X203150820Y-77172717D01*
X203322283Y-77344180D01*
X203523903Y-77478898D01*
X203747931Y-77571693D01*
X203985757Y-77619000D01*
X204228243Y-77619000D01*
X204466069Y-77571693D01*
X204690097Y-77478898D01*
X204891717Y-77344180D01*
X205063180Y-77172717D01*
X205197898Y-76971097D01*
X205290693Y-76747069D01*
X205338000Y-76509243D01*
X205338000Y-76266757D01*
X205290693Y-76028931D01*
X205197898Y-75804903D01*
X205063180Y-75603283D01*
X204891717Y-75431820D01*
X204690097Y-75297102D01*
X204575832Y-75249772D01*
X204738252Y-75192157D01*
X204988355Y-75043178D01*
X205204588Y-74848269D01*
X205378641Y-74614920D01*
X205503825Y-74352099D01*
X205548476Y-74204890D01*
X205427156Y-73975002D01*
X205588001Y-73975002D01*
X205588000Y-98146000D01*
X156108000Y-98146000D01*
X156108000Y-96586757D01*
X156363000Y-96586757D01*
X156363000Y-96829243D01*
X156410307Y-97067069D01*
X156503102Y-97291097D01*
X156637820Y-97492717D01*
X156809283Y-97664180D01*
X157010903Y-97798898D01*
X157234931Y-97891693D01*
X157472757Y-97939000D01*
X157715243Y-97939000D01*
X157953069Y-97891693D01*
X158177097Y-97798898D01*
X158378717Y-97664180D01*
X158550180Y-97492717D01*
X158684898Y-97291097D01*
X158777693Y-97067069D01*
X158825000Y-96829243D01*
X158825000Y-96586757D01*
X158777693Y-96348931D01*
X158684898Y-96124903D01*
X158550180Y-95923283D01*
X158484897Y-95858000D01*
X202874157Y-95858000D01*
X202874157Y-97558000D01*
X202881513Y-97632689D01*
X202903299Y-97704508D01*
X202938678Y-97770696D01*
X202986289Y-97828711D01*
X203044304Y-97876322D01*
X203110492Y-97911701D01*
X203182311Y-97933487D01*
X203257000Y-97940843D01*
X204957000Y-97940843D01*
X205031689Y-97933487D01*
X205103508Y-97911701D01*
X205169696Y-97876322D01*
X205227711Y-97828711D01*
X205275322Y-97770696D01*
X205310701Y-97704508D01*
X205332487Y-97632689D01*
X205339843Y-97558000D01*
X205339843Y-95858000D01*
X205332487Y-95783311D01*
X205310701Y-95711492D01*
X205275322Y-95645304D01*
X205227711Y-95587289D01*
X205169696Y-95539678D01*
X205103508Y-95504299D01*
X205031689Y-95482513D01*
X204957000Y-95475157D01*
X203257000Y-95475157D01*
X203182311Y-95482513D01*
X203110492Y-95504299D01*
X203044304Y-95539678D01*
X202986289Y-95587289D01*
X202938678Y-95645304D01*
X202903299Y-95711492D01*
X202881513Y-95783311D01*
X202874157Y-95858000D01*
X158484897Y-95858000D01*
X158378717Y-95751820D01*
X158177097Y-95617102D01*
X157953069Y-95524307D01*
X157715243Y-95477000D01*
X157472757Y-95477000D01*
X157234931Y-95524307D01*
X157010903Y-95617102D01*
X156809283Y-95751820D01*
X156637820Y-95923283D01*
X156503102Y-96124903D01*
X156410307Y-96348931D01*
X156363000Y-96586757D01*
X156108000Y-96586757D01*
X156108000Y-94046757D01*
X156363000Y-94046757D01*
X156363000Y-94289243D01*
X156410307Y-94527069D01*
X156503102Y-94751097D01*
X156637820Y-94952717D01*
X156809283Y-95124180D01*
X157010903Y-95258898D01*
X157234931Y-95351693D01*
X157472757Y-95399000D01*
X157715243Y-95399000D01*
X157953069Y-95351693D01*
X158177097Y-95258898D01*
X158378717Y-95124180D01*
X158550180Y-94952717D01*
X158684898Y-94751097D01*
X158777693Y-94527069D01*
X158825000Y-94289243D01*
X158825000Y-94046757D01*
X202876000Y-94046757D01*
X202876000Y-94289243D01*
X202923307Y-94527069D01*
X203016102Y-94751097D01*
X203150820Y-94952717D01*
X203322283Y-95124180D01*
X203523903Y-95258898D01*
X203747931Y-95351693D01*
X203985757Y-95399000D01*
X204228243Y-95399000D01*
X204466069Y-95351693D01*
X204690097Y-95258898D01*
X204891717Y-95124180D01*
X205063180Y-94952717D01*
X205197898Y-94751097D01*
X205290693Y-94527069D01*
X205338000Y-94289243D01*
X205338000Y-94046757D01*
X205290693Y-93808931D01*
X205197898Y-93584903D01*
X205063180Y-93383283D01*
X204891717Y-93211820D01*
X204690097Y-93077102D01*
X204466069Y-92984307D01*
X204228243Y-92937000D01*
X203985757Y-92937000D01*
X203747931Y-92984307D01*
X203523903Y-93077102D01*
X203322283Y-93211820D01*
X203150820Y-93383283D01*
X203016102Y-93584903D01*
X202923307Y-93808931D01*
X202876000Y-94046757D01*
X158825000Y-94046757D01*
X158777693Y-93808931D01*
X158684898Y-93584903D01*
X158550180Y-93383283D01*
X158378717Y-93211820D01*
X158177097Y-93077102D01*
X157953069Y-92984307D01*
X157715243Y-92937000D01*
X157472757Y-92937000D01*
X157234931Y-92984307D01*
X157010903Y-93077102D01*
X156809283Y-93211820D01*
X156637820Y-93383283D01*
X156503102Y-93584903D01*
X156410307Y-93808931D01*
X156363000Y-94046757D01*
X156108000Y-94046757D01*
X156108000Y-91506757D01*
X156363000Y-91506757D01*
X156363000Y-91749243D01*
X156410307Y-91987069D01*
X156503102Y-92211097D01*
X156637820Y-92412717D01*
X156809283Y-92584180D01*
X157010903Y-92718898D01*
X157234931Y-92811693D01*
X157472757Y-92859000D01*
X157715243Y-92859000D01*
X157953069Y-92811693D01*
X158177097Y-92718898D01*
X158378717Y-92584180D01*
X158550180Y-92412717D01*
X158684898Y-92211097D01*
X158777693Y-91987069D01*
X158825000Y-91749243D01*
X158825000Y-91506757D01*
X202876000Y-91506757D01*
X202876000Y-91749243D01*
X202923307Y-91987069D01*
X203016102Y-92211097D01*
X203150820Y-92412717D01*
X203322283Y-92584180D01*
X203523903Y-92718898D01*
X203747931Y-92811693D01*
X203985757Y-92859000D01*
X204228243Y-92859000D01*
X204466069Y-92811693D01*
X204690097Y-92718898D01*
X204891717Y-92584180D01*
X205063180Y-92412717D01*
X205197898Y-92211097D01*
X205290693Y-91987069D01*
X205338000Y-91749243D01*
X205338000Y-91506757D01*
X205290693Y-91268931D01*
X205197898Y-91044903D01*
X205063180Y-90843283D01*
X204891717Y-90671820D01*
X204690097Y-90537102D01*
X204466069Y-90444307D01*
X204228243Y-90397000D01*
X203985757Y-90397000D01*
X203747931Y-90444307D01*
X203523903Y-90537102D01*
X203322283Y-90671820D01*
X203150820Y-90843283D01*
X203016102Y-91044903D01*
X202923307Y-91268931D01*
X202876000Y-91506757D01*
X158825000Y-91506757D01*
X158777693Y-91268931D01*
X158684898Y-91044903D01*
X158550180Y-90843283D01*
X158378717Y-90671820D01*
X158177097Y-90537102D01*
X157953069Y-90444307D01*
X157715243Y-90397000D01*
X157472757Y-90397000D01*
X157234931Y-90444307D01*
X157010903Y-90537102D01*
X156809283Y-90671820D01*
X156637820Y-90843283D01*
X156503102Y-91044903D01*
X156410307Y-91268931D01*
X156363000Y-91506757D01*
X156108000Y-91506757D01*
X156108000Y-88966757D01*
X156363000Y-88966757D01*
X156363000Y-89209243D01*
X156410307Y-89447069D01*
X156503102Y-89671097D01*
X156637820Y-89872717D01*
X156809283Y-90044180D01*
X157010903Y-90178898D01*
X157234931Y-90271693D01*
X157472757Y-90319000D01*
X157715243Y-90319000D01*
X157953069Y-90271693D01*
X158177097Y-90178898D01*
X158378717Y-90044180D01*
X158550180Y-89872717D01*
X158684898Y-89671097D01*
X158777693Y-89447069D01*
X158825000Y-89209243D01*
X158825000Y-88966757D01*
X202876000Y-88966757D01*
X202876000Y-89209243D01*
X202923307Y-89447069D01*
X203016102Y-89671097D01*
X203150820Y-89872717D01*
X203322283Y-90044180D01*
X203523903Y-90178898D01*
X203747931Y-90271693D01*
X203985757Y-90319000D01*
X204228243Y-90319000D01*
X204466069Y-90271693D01*
X204690097Y-90178898D01*
X204891717Y-90044180D01*
X205063180Y-89872717D01*
X205197898Y-89671097D01*
X205290693Y-89447069D01*
X205338000Y-89209243D01*
X205338000Y-88966757D01*
X205290693Y-88728931D01*
X205197898Y-88504903D01*
X205063180Y-88303283D01*
X204891717Y-88131820D01*
X204690097Y-87997102D01*
X204466069Y-87904307D01*
X204228243Y-87857000D01*
X203985757Y-87857000D01*
X203747931Y-87904307D01*
X203523903Y-87997102D01*
X203322283Y-88131820D01*
X203150820Y-88303283D01*
X203016102Y-88504903D01*
X202923307Y-88728931D01*
X202876000Y-88966757D01*
X158825000Y-88966757D01*
X158777693Y-88728931D01*
X158684898Y-88504903D01*
X158550180Y-88303283D01*
X158378717Y-88131820D01*
X158177097Y-87997102D01*
X157953069Y-87904307D01*
X157715243Y-87857000D01*
X157472757Y-87857000D01*
X157234931Y-87904307D01*
X157010903Y-87997102D01*
X156809283Y-88131820D01*
X156637820Y-88303283D01*
X156503102Y-88504903D01*
X156410307Y-88728931D01*
X156363000Y-88966757D01*
X156108000Y-88966757D01*
X156108000Y-86426757D01*
X156363000Y-86426757D01*
X156363000Y-86669243D01*
X156410307Y-86907069D01*
X156503102Y-87131097D01*
X156637820Y-87332717D01*
X156809283Y-87504180D01*
X157010903Y-87638898D01*
X157234931Y-87731693D01*
X157472757Y-87779000D01*
X157715243Y-87779000D01*
X157953069Y-87731693D01*
X158177097Y-87638898D01*
X158378717Y-87504180D01*
X158550180Y-87332717D01*
X158684898Y-87131097D01*
X158777693Y-86907069D01*
X158825000Y-86669243D01*
X158825000Y-86426757D01*
X202876000Y-86426757D01*
X202876000Y-86669243D01*
X202923307Y-86907069D01*
X203016102Y-87131097D01*
X203150820Y-87332717D01*
X203322283Y-87504180D01*
X203523903Y-87638898D01*
X203747931Y-87731693D01*
X203985757Y-87779000D01*
X204228243Y-87779000D01*
X204466069Y-87731693D01*
X204690097Y-87638898D01*
X204891717Y-87504180D01*
X205063180Y-87332717D01*
X205197898Y-87131097D01*
X205290693Y-86907069D01*
X205338000Y-86669243D01*
X205338000Y-86426757D01*
X205290693Y-86188931D01*
X205197898Y-85964903D01*
X205063180Y-85763283D01*
X204891717Y-85591820D01*
X204690097Y-85457102D01*
X204466069Y-85364307D01*
X204228243Y-85317000D01*
X203985757Y-85317000D01*
X203747931Y-85364307D01*
X203523903Y-85457102D01*
X203322283Y-85591820D01*
X203150820Y-85763283D01*
X203016102Y-85964903D01*
X202923307Y-86188931D01*
X202876000Y-86426757D01*
X158825000Y-86426757D01*
X158777693Y-86188931D01*
X158684898Y-85964903D01*
X158550180Y-85763283D01*
X158378717Y-85591820D01*
X158177097Y-85457102D01*
X157953069Y-85364307D01*
X157715243Y-85317000D01*
X157472757Y-85317000D01*
X157234931Y-85364307D01*
X157010903Y-85457102D01*
X156809283Y-85591820D01*
X156637820Y-85763283D01*
X156503102Y-85964903D01*
X156410307Y-86188931D01*
X156363000Y-86426757D01*
X156108000Y-86426757D01*
X156108000Y-83886757D01*
X156363000Y-83886757D01*
X156363000Y-84129243D01*
X156410307Y-84367069D01*
X156503102Y-84591097D01*
X156637820Y-84792717D01*
X156809283Y-84964180D01*
X157010903Y-85098898D01*
X157234931Y-85191693D01*
X157472757Y-85239000D01*
X157715243Y-85239000D01*
X157953069Y-85191693D01*
X158177097Y-85098898D01*
X158378717Y-84964180D01*
X158550180Y-84792717D01*
X158684898Y-84591097D01*
X158777693Y-84367069D01*
X158825000Y-84129243D01*
X158825000Y-83886757D01*
X202876000Y-83886757D01*
X202876000Y-84129243D01*
X202923307Y-84367069D01*
X203016102Y-84591097D01*
X203150820Y-84792717D01*
X203322283Y-84964180D01*
X203523903Y-85098898D01*
X203747931Y-85191693D01*
X203985757Y-85239000D01*
X204228243Y-85239000D01*
X204466069Y-85191693D01*
X204690097Y-85098898D01*
X204891717Y-84964180D01*
X205063180Y-84792717D01*
X205197898Y-84591097D01*
X205290693Y-84367069D01*
X205338000Y-84129243D01*
X205338000Y-83886757D01*
X205290693Y-83648931D01*
X205197898Y-83424903D01*
X205063180Y-83223283D01*
X204891717Y-83051820D01*
X204690097Y-82917102D01*
X204466069Y-82824307D01*
X204228243Y-82777000D01*
X203985757Y-82777000D01*
X203747931Y-82824307D01*
X203523903Y-82917102D01*
X203322283Y-83051820D01*
X203150820Y-83223283D01*
X203016102Y-83424903D01*
X202923307Y-83648931D01*
X202876000Y-83886757D01*
X158825000Y-83886757D01*
X158777693Y-83648931D01*
X158684898Y-83424903D01*
X158550180Y-83223283D01*
X158378717Y-83051820D01*
X158177097Y-82917102D01*
X157953069Y-82824307D01*
X157715243Y-82777000D01*
X157472757Y-82777000D01*
X157234931Y-82824307D01*
X157010903Y-82917102D01*
X156809283Y-83051820D01*
X156637820Y-83223283D01*
X156503102Y-83424903D01*
X156410307Y-83648931D01*
X156363000Y-83886757D01*
X156108000Y-83886757D01*
X156108000Y-81346757D01*
X156363000Y-81346757D01*
X156363000Y-81589243D01*
X156410307Y-81827069D01*
X156503102Y-82051097D01*
X156637820Y-82252717D01*
X156809283Y-82424180D01*
X157010903Y-82558898D01*
X157234931Y-82651693D01*
X157472757Y-82699000D01*
X157715243Y-82699000D01*
X157953069Y-82651693D01*
X158177097Y-82558898D01*
X158378717Y-82424180D01*
X158550180Y-82252717D01*
X158684898Y-82051097D01*
X158777693Y-81827069D01*
X158825000Y-81589243D01*
X158825000Y-81346757D01*
X202876000Y-81346757D01*
X202876000Y-81589243D01*
X202923307Y-81827069D01*
X203016102Y-82051097D01*
X203150820Y-82252717D01*
X203322283Y-82424180D01*
X203523903Y-82558898D01*
X203747931Y-82651693D01*
X203985757Y-82699000D01*
X204228243Y-82699000D01*
X204466069Y-82651693D01*
X204690097Y-82558898D01*
X204891717Y-82424180D01*
X205063180Y-82252717D01*
X205197898Y-82051097D01*
X205290693Y-81827069D01*
X205338000Y-81589243D01*
X205338000Y-81346757D01*
X205290693Y-81108931D01*
X205197898Y-80884903D01*
X205063180Y-80683283D01*
X204891717Y-80511820D01*
X204690097Y-80377102D01*
X204466069Y-80284307D01*
X204228243Y-80237000D01*
X203985757Y-80237000D01*
X203747931Y-80284307D01*
X203523903Y-80377102D01*
X203322283Y-80511820D01*
X203150820Y-80683283D01*
X203016102Y-80884903D01*
X202923307Y-81108931D01*
X202876000Y-81346757D01*
X158825000Y-81346757D01*
X158777693Y-81108931D01*
X158684898Y-80884903D01*
X158550180Y-80683283D01*
X158378717Y-80511820D01*
X158177097Y-80377102D01*
X157953069Y-80284307D01*
X157715243Y-80237000D01*
X157472757Y-80237000D01*
X157234931Y-80284307D01*
X157010903Y-80377102D01*
X156809283Y-80511820D01*
X156637820Y-80683283D01*
X156503102Y-80884903D01*
X156410307Y-81108931D01*
X156363000Y-81346757D01*
X156108000Y-81346757D01*
X156108000Y-78806757D01*
X156363000Y-78806757D01*
X156363000Y-79049243D01*
X156410307Y-79287069D01*
X156503102Y-79511097D01*
X156637820Y-79712717D01*
X156809283Y-79884180D01*
X157010903Y-80018898D01*
X157234931Y-80111693D01*
X157472757Y-80159000D01*
X157715243Y-80159000D01*
X157953069Y-80111693D01*
X158177097Y-80018898D01*
X158378717Y-79884180D01*
X158550180Y-79712717D01*
X158684898Y-79511097D01*
X158777693Y-79287069D01*
X158825000Y-79049243D01*
X158825000Y-78806757D01*
X202876000Y-78806757D01*
X202876000Y-79049243D01*
X202923307Y-79287069D01*
X203016102Y-79511097D01*
X203150820Y-79712717D01*
X203322283Y-79884180D01*
X203523903Y-80018898D01*
X203747931Y-80111693D01*
X203985757Y-80159000D01*
X204228243Y-80159000D01*
X204466069Y-80111693D01*
X204690097Y-80018898D01*
X204891717Y-79884180D01*
X205063180Y-79712717D01*
X205197898Y-79511097D01*
X205290693Y-79287069D01*
X205338000Y-79049243D01*
X205338000Y-78806757D01*
X205290693Y-78568931D01*
X205197898Y-78344903D01*
X205063180Y-78143283D01*
X204891717Y-77971820D01*
X204690097Y-77837102D01*
X204466069Y-77744307D01*
X204228243Y-77697000D01*
X203985757Y-77697000D01*
X203747931Y-77744307D01*
X203523903Y-77837102D01*
X203322283Y-77971820D01*
X203150820Y-78143283D01*
X203016102Y-78344903D01*
X202923307Y-78568931D01*
X202876000Y-78806757D01*
X158825000Y-78806757D01*
X158777693Y-78568931D01*
X158684898Y-78344903D01*
X158550180Y-78143283D01*
X158378717Y-77971820D01*
X158177097Y-77837102D01*
X157953069Y-77744307D01*
X157715243Y-77697000D01*
X157472757Y-77697000D01*
X157234931Y-77744307D01*
X157010903Y-77837102D01*
X156809283Y-77971820D01*
X156637820Y-78143283D01*
X156503102Y-78344903D01*
X156410307Y-78568931D01*
X156363000Y-78806757D01*
X156108000Y-78806757D01*
X156108000Y-76266757D01*
X156363000Y-76266757D01*
X156363000Y-76509243D01*
X156410307Y-76747069D01*
X156503102Y-76971097D01*
X156637820Y-77172717D01*
X156809283Y-77344180D01*
X157010903Y-77478898D01*
X157234931Y-77571693D01*
X157472757Y-77619000D01*
X157715243Y-77619000D01*
X157953069Y-77571693D01*
X158177097Y-77478898D01*
X158378717Y-77344180D01*
X158550180Y-77172717D01*
X158684898Y-76971097D01*
X158777693Y-76747069D01*
X158825000Y-76509243D01*
X158825000Y-76266757D01*
X158777693Y-76028931D01*
X158684898Y-75804903D01*
X158550180Y-75603283D01*
X158378717Y-75431820D01*
X158177097Y-75297102D01*
X157953069Y-75204307D01*
X157715243Y-75157000D01*
X157472757Y-75157000D01*
X157234931Y-75204307D01*
X157010903Y-75297102D01*
X156809283Y-75431820D01*
X156637820Y-75603283D01*
X156503102Y-75804903D01*
X156410307Y-76028931D01*
X156363000Y-76266757D01*
X156108000Y-76266757D01*
X156108000Y-72998000D01*
X156361157Y-72998000D01*
X156361157Y-74698000D01*
X156368513Y-74772689D01*
X156390299Y-74844508D01*
X156425678Y-74910696D01*
X156473289Y-74968711D01*
X156531304Y-75016322D01*
X156597492Y-75051701D01*
X156669311Y-75073487D01*
X156744000Y-75080843D01*
X158444000Y-75080843D01*
X158518689Y-75073487D01*
X158590508Y-75051701D01*
X158656696Y-75016322D01*
X158714711Y-74968711D01*
X158762322Y-74910696D01*
X158797701Y-74844508D01*
X158819487Y-74772689D01*
X158826843Y-74698000D01*
X158826843Y-73491110D01*
X202665524Y-73491110D01*
X202786845Y-73721000D01*
X203980000Y-73721000D01*
X203980000Y-72527186D01*
X203750109Y-72406519D01*
X203475748Y-72503843D01*
X203225645Y-72652822D01*
X203009412Y-72847731D01*
X202835359Y-73081080D01*
X202710175Y-73343901D01*
X202665524Y-73491110D01*
X158826843Y-73491110D01*
X158826843Y-72998000D01*
X158819487Y-72923311D01*
X158797701Y-72851492D01*
X158762322Y-72785304D01*
X158714711Y-72727289D01*
X158656696Y-72679678D01*
X158590508Y-72644299D01*
X158518689Y-72622513D01*
X158444000Y-72615157D01*
X156744000Y-72615157D01*
X156669311Y-72622513D01*
X156597492Y-72644299D01*
X156531304Y-72679678D01*
X156473289Y-72727289D01*
X156425678Y-72785304D01*
X156390299Y-72851492D01*
X156368513Y-72923311D01*
X156361157Y-72998000D01*
X156108000Y-72998000D01*
X156108000Y-64747724D01*
X172107881Y-64747724D01*
X172239817Y-65042812D01*
X172580545Y-65213659D01*
X172948057Y-65314750D01*
X173328229Y-65342201D01*
X173706451Y-65294957D01*
X174068190Y-65174833D01*
X174315183Y-65042812D01*
X174447119Y-64747724D01*
X177187881Y-64747724D01*
X177319817Y-65042812D01*
X177660545Y-65213659D01*
X178028057Y-65314750D01*
X178408229Y-65342201D01*
X178786451Y-65294957D01*
X179148190Y-65174833D01*
X179395183Y-65042812D01*
X179527119Y-64747724D01*
X178357500Y-63578105D01*
X177187881Y-64747724D01*
X174447119Y-64747724D01*
X173277500Y-63578105D01*
X172107881Y-64747724D01*
X156108000Y-64747724D01*
X156108000Y-63449229D01*
X171333799Y-63449229D01*
X171381043Y-63827451D01*
X171501167Y-64189190D01*
X171633188Y-64436183D01*
X171928276Y-64568119D01*
X173097895Y-63398500D01*
X173457105Y-63398500D01*
X174626724Y-64568119D01*
X174921812Y-64436183D01*
X175092659Y-64095455D01*
X175193750Y-63727943D01*
X175213875Y-63449229D01*
X176413799Y-63449229D01*
X176461043Y-63827451D01*
X176581167Y-64189190D01*
X176713188Y-64436183D01*
X177008276Y-64568119D01*
X178177895Y-63398500D01*
X178537105Y-63398500D01*
X179706724Y-64568119D01*
X180001812Y-64436183D01*
X180172659Y-64095455D01*
X180273750Y-63727943D01*
X180301201Y-63347771D01*
X180286857Y-63232936D01*
X181756500Y-63232936D01*
X181756500Y-63564064D01*
X181821100Y-63888830D01*
X181947817Y-64194752D01*
X182131782Y-64470075D01*
X182365925Y-64704218D01*
X182641248Y-64888183D01*
X182947170Y-65014900D01*
X183271936Y-65079500D01*
X183603064Y-65079500D01*
X183927830Y-65014900D01*
X184233752Y-64888183D01*
X184509075Y-64704218D01*
X184743218Y-64470075D01*
X184927183Y-64194752D01*
X185053900Y-63888830D01*
X185118500Y-63564064D01*
X185118500Y-63232936D01*
X185053900Y-62908170D01*
X184927183Y-62602248D01*
X184743218Y-62326925D01*
X184514793Y-62098500D01*
X186834657Y-62098500D01*
X186834657Y-64698500D01*
X186842013Y-64773189D01*
X186863799Y-64845008D01*
X186899178Y-64911196D01*
X186946789Y-64969211D01*
X187004804Y-65016822D01*
X187070992Y-65052201D01*
X187142811Y-65073987D01*
X187217500Y-65081343D01*
X189817500Y-65081343D01*
X189892189Y-65073987D01*
X189964008Y-65052201D01*
X190030196Y-65016822D01*
X190088211Y-64969211D01*
X190135822Y-64911196D01*
X190171201Y-64845008D01*
X190192987Y-64773189D01*
X190200343Y-64698500D01*
X190200343Y-62098500D01*
X190192987Y-62023811D01*
X190171201Y-61951992D01*
X190135822Y-61885804D01*
X190088211Y-61827789D01*
X190030196Y-61780178D01*
X189964008Y-61744799D01*
X189892189Y-61723013D01*
X189817500Y-61715657D01*
X187217500Y-61715657D01*
X187142811Y-61723013D01*
X187070992Y-61744799D01*
X187004804Y-61780178D01*
X186946789Y-61827789D01*
X186899178Y-61885804D01*
X186863799Y-61951992D01*
X186842013Y-62023811D01*
X186834657Y-62098500D01*
X184514793Y-62098500D01*
X184509075Y-62092782D01*
X184233752Y-61908817D01*
X183927830Y-61782100D01*
X183603064Y-61717500D01*
X183271936Y-61717500D01*
X182947170Y-61782100D01*
X182641248Y-61908817D01*
X182365925Y-62092782D01*
X182131782Y-62326925D01*
X181947817Y-62602248D01*
X181821100Y-62908170D01*
X181756500Y-63232936D01*
X180286857Y-63232936D01*
X180253957Y-62969549D01*
X180133833Y-62607810D01*
X180001812Y-62360817D01*
X179706724Y-62228881D01*
X178537105Y-63398500D01*
X178177895Y-63398500D01*
X177008276Y-62228881D01*
X176713188Y-62360817D01*
X176542341Y-62701545D01*
X176441250Y-63069057D01*
X176413799Y-63449229D01*
X175213875Y-63449229D01*
X175221201Y-63347771D01*
X175173957Y-62969549D01*
X175053833Y-62607810D01*
X174921812Y-62360817D01*
X174626724Y-62228881D01*
X173457105Y-63398500D01*
X173097895Y-63398500D01*
X171928276Y-62228881D01*
X171633188Y-62360817D01*
X171462341Y-62701545D01*
X171361250Y-63069057D01*
X171333799Y-63449229D01*
X156108000Y-63449229D01*
X156108000Y-62049276D01*
X172107881Y-62049276D01*
X173277500Y-63218895D01*
X174447119Y-62049276D01*
X177187881Y-62049276D01*
X178357500Y-63218895D01*
X179527119Y-62049276D01*
X179395183Y-61754188D01*
X179054455Y-61583341D01*
X178686943Y-61482250D01*
X178306771Y-61454799D01*
X177928549Y-61502043D01*
X177566810Y-61622167D01*
X177319817Y-61754188D01*
X177187881Y-62049276D01*
X174447119Y-62049276D01*
X174315183Y-61754188D01*
X173974455Y-61583341D01*
X173606943Y-61482250D01*
X173226771Y-61454799D01*
X172848549Y-61502043D01*
X172486810Y-61622167D01*
X172239817Y-61754188D01*
X172107881Y-62049276D01*
X156108000Y-62049276D01*
X156108000Y-57746500D01*
X205588001Y-57746500D01*
X205588001Y-73720998D01*
%TA.AperFunction,Conductor*%
D16*
G36*
X205588001Y-73720998D02*
G01*
X205427156Y-73720998D01*
X205548476Y-73491110D01*
X205503825Y-73343901D01*
X205378641Y-73081080D01*
X205204588Y-72847731D01*
X204988355Y-72652822D01*
X204738252Y-72503843D01*
X204463891Y-72406519D01*
X204234000Y-72527186D01*
X204234000Y-73721000D01*
X204254000Y-73721000D01*
X204254000Y-73975000D01*
X204234000Y-73975000D01*
X204234000Y-73995000D01*
X203980000Y-73995000D01*
X203980000Y-73975000D01*
X202786845Y-73975000D01*
X202665524Y-74204890D01*
X202710175Y-74352099D01*
X202835359Y-74614920D01*
X203009412Y-74848269D01*
X203225645Y-75043178D01*
X203475748Y-75192157D01*
X203638168Y-75249772D01*
X203523903Y-75297102D01*
X203322283Y-75431820D01*
X203150820Y-75603283D01*
X203016102Y-75804903D01*
X202923307Y-76028931D01*
X202876000Y-76266757D01*
X202876000Y-76509243D01*
X202923307Y-76747069D01*
X203016102Y-76971097D01*
X203150820Y-77172717D01*
X203322283Y-77344180D01*
X203523903Y-77478898D01*
X203747931Y-77571693D01*
X203985757Y-77619000D01*
X204228243Y-77619000D01*
X204466069Y-77571693D01*
X204690097Y-77478898D01*
X204891717Y-77344180D01*
X205063180Y-77172717D01*
X205197898Y-76971097D01*
X205290693Y-76747069D01*
X205338000Y-76509243D01*
X205338000Y-76266757D01*
X205290693Y-76028931D01*
X205197898Y-75804903D01*
X205063180Y-75603283D01*
X204891717Y-75431820D01*
X204690097Y-75297102D01*
X204575832Y-75249772D01*
X204738252Y-75192157D01*
X204988355Y-75043178D01*
X205204588Y-74848269D01*
X205378641Y-74614920D01*
X205503825Y-74352099D01*
X205548476Y-74204890D01*
X205427156Y-73975002D01*
X205588001Y-73975002D01*
X205588000Y-98146000D01*
X156108000Y-98146000D01*
X156108000Y-96586757D01*
X156363000Y-96586757D01*
X156363000Y-96829243D01*
X156410307Y-97067069D01*
X156503102Y-97291097D01*
X156637820Y-97492717D01*
X156809283Y-97664180D01*
X157010903Y-97798898D01*
X157234931Y-97891693D01*
X157472757Y-97939000D01*
X157715243Y-97939000D01*
X157953069Y-97891693D01*
X158177097Y-97798898D01*
X158378717Y-97664180D01*
X158550180Y-97492717D01*
X158684898Y-97291097D01*
X158777693Y-97067069D01*
X158825000Y-96829243D01*
X158825000Y-96586757D01*
X158777693Y-96348931D01*
X158684898Y-96124903D01*
X158550180Y-95923283D01*
X158484897Y-95858000D01*
X202874157Y-95858000D01*
X202874157Y-97558000D01*
X202881513Y-97632689D01*
X202903299Y-97704508D01*
X202938678Y-97770696D01*
X202986289Y-97828711D01*
X203044304Y-97876322D01*
X203110492Y-97911701D01*
X203182311Y-97933487D01*
X203257000Y-97940843D01*
X204957000Y-97940843D01*
X205031689Y-97933487D01*
X205103508Y-97911701D01*
X205169696Y-97876322D01*
X205227711Y-97828711D01*
X205275322Y-97770696D01*
X205310701Y-97704508D01*
X205332487Y-97632689D01*
X205339843Y-97558000D01*
X205339843Y-95858000D01*
X205332487Y-95783311D01*
X205310701Y-95711492D01*
X205275322Y-95645304D01*
X205227711Y-95587289D01*
X205169696Y-95539678D01*
X205103508Y-95504299D01*
X205031689Y-95482513D01*
X204957000Y-95475157D01*
X203257000Y-95475157D01*
X203182311Y-95482513D01*
X203110492Y-95504299D01*
X203044304Y-95539678D01*
X202986289Y-95587289D01*
X202938678Y-95645304D01*
X202903299Y-95711492D01*
X202881513Y-95783311D01*
X202874157Y-95858000D01*
X158484897Y-95858000D01*
X158378717Y-95751820D01*
X158177097Y-95617102D01*
X157953069Y-95524307D01*
X157715243Y-95477000D01*
X157472757Y-95477000D01*
X157234931Y-95524307D01*
X157010903Y-95617102D01*
X156809283Y-95751820D01*
X156637820Y-95923283D01*
X156503102Y-96124903D01*
X156410307Y-96348931D01*
X156363000Y-96586757D01*
X156108000Y-96586757D01*
X156108000Y-94046757D01*
X156363000Y-94046757D01*
X156363000Y-94289243D01*
X156410307Y-94527069D01*
X156503102Y-94751097D01*
X156637820Y-94952717D01*
X156809283Y-95124180D01*
X157010903Y-95258898D01*
X157234931Y-95351693D01*
X157472757Y-95399000D01*
X157715243Y-95399000D01*
X157953069Y-95351693D01*
X158177097Y-95258898D01*
X158378717Y-95124180D01*
X158550180Y-94952717D01*
X158684898Y-94751097D01*
X158777693Y-94527069D01*
X158825000Y-94289243D01*
X158825000Y-94046757D01*
X202876000Y-94046757D01*
X202876000Y-94289243D01*
X202923307Y-94527069D01*
X203016102Y-94751097D01*
X203150820Y-94952717D01*
X203322283Y-95124180D01*
X203523903Y-95258898D01*
X203747931Y-95351693D01*
X203985757Y-95399000D01*
X204228243Y-95399000D01*
X204466069Y-95351693D01*
X204690097Y-95258898D01*
X204891717Y-95124180D01*
X205063180Y-94952717D01*
X205197898Y-94751097D01*
X205290693Y-94527069D01*
X205338000Y-94289243D01*
X205338000Y-94046757D01*
X205290693Y-93808931D01*
X205197898Y-93584903D01*
X205063180Y-93383283D01*
X204891717Y-93211820D01*
X204690097Y-93077102D01*
X204466069Y-92984307D01*
X204228243Y-92937000D01*
X203985757Y-92937000D01*
X203747931Y-92984307D01*
X203523903Y-93077102D01*
X203322283Y-93211820D01*
X203150820Y-93383283D01*
X203016102Y-93584903D01*
X202923307Y-93808931D01*
X202876000Y-94046757D01*
X158825000Y-94046757D01*
X158777693Y-93808931D01*
X158684898Y-93584903D01*
X158550180Y-93383283D01*
X158378717Y-93211820D01*
X158177097Y-93077102D01*
X157953069Y-92984307D01*
X157715243Y-92937000D01*
X157472757Y-92937000D01*
X157234931Y-92984307D01*
X157010903Y-93077102D01*
X156809283Y-93211820D01*
X156637820Y-93383283D01*
X156503102Y-93584903D01*
X156410307Y-93808931D01*
X156363000Y-94046757D01*
X156108000Y-94046757D01*
X156108000Y-91506757D01*
X156363000Y-91506757D01*
X156363000Y-91749243D01*
X156410307Y-91987069D01*
X156503102Y-92211097D01*
X156637820Y-92412717D01*
X156809283Y-92584180D01*
X157010903Y-92718898D01*
X157234931Y-92811693D01*
X157472757Y-92859000D01*
X157715243Y-92859000D01*
X157953069Y-92811693D01*
X158177097Y-92718898D01*
X158378717Y-92584180D01*
X158550180Y-92412717D01*
X158684898Y-92211097D01*
X158777693Y-91987069D01*
X158825000Y-91749243D01*
X158825000Y-91506757D01*
X202876000Y-91506757D01*
X202876000Y-91749243D01*
X202923307Y-91987069D01*
X203016102Y-92211097D01*
X203150820Y-92412717D01*
X203322283Y-92584180D01*
X203523903Y-92718898D01*
X203747931Y-92811693D01*
X203985757Y-92859000D01*
X204228243Y-92859000D01*
X204466069Y-92811693D01*
X204690097Y-92718898D01*
X204891717Y-92584180D01*
X205063180Y-92412717D01*
X205197898Y-92211097D01*
X205290693Y-91987069D01*
X205338000Y-91749243D01*
X205338000Y-91506757D01*
X205290693Y-91268931D01*
X205197898Y-91044903D01*
X205063180Y-90843283D01*
X204891717Y-90671820D01*
X204690097Y-90537102D01*
X204466069Y-90444307D01*
X204228243Y-90397000D01*
X203985757Y-90397000D01*
X203747931Y-90444307D01*
X203523903Y-90537102D01*
X203322283Y-90671820D01*
X203150820Y-90843283D01*
X203016102Y-91044903D01*
X202923307Y-91268931D01*
X202876000Y-91506757D01*
X158825000Y-91506757D01*
X158777693Y-91268931D01*
X158684898Y-91044903D01*
X158550180Y-90843283D01*
X158378717Y-90671820D01*
X158177097Y-90537102D01*
X157953069Y-90444307D01*
X157715243Y-90397000D01*
X157472757Y-90397000D01*
X157234931Y-90444307D01*
X157010903Y-90537102D01*
X156809283Y-90671820D01*
X156637820Y-90843283D01*
X156503102Y-91044903D01*
X156410307Y-91268931D01*
X156363000Y-91506757D01*
X156108000Y-91506757D01*
X156108000Y-88966757D01*
X156363000Y-88966757D01*
X156363000Y-89209243D01*
X156410307Y-89447069D01*
X156503102Y-89671097D01*
X156637820Y-89872717D01*
X156809283Y-90044180D01*
X157010903Y-90178898D01*
X157234931Y-90271693D01*
X157472757Y-90319000D01*
X157715243Y-90319000D01*
X157953069Y-90271693D01*
X158177097Y-90178898D01*
X158378717Y-90044180D01*
X158550180Y-89872717D01*
X158684898Y-89671097D01*
X158777693Y-89447069D01*
X158825000Y-89209243D01*
X158825000Y-88966757D01*
X202876000Y-88966757D01*
X202876000Y-89209243D01*
X202923307Y-89447069D01*
X203016102Y-89671097D01*
X203150820Y-89872717D01*
X203322283Y-90044180D01*
X203523903Y-90178898D01*
X203747931Y-90271693D01*
X203985757Y-90319000D01*
X204228243Y-90319000D01*
X204466069Y-90271693D01*
X204690097Y-90178898D01*
X204891717Y-90044180D01*
X205063180Y-89872717D01*
X205197898Y-89671097D01*
X205290693Y-89447069D01*
X205338000Y-89209243D01*
X205338000Y-88966757D01*
X205290693Y-88728931D01*
X205197898Y-88504903D01*
X205063180Y-88303283D01*
X204891717Y-88131820D01*
X204690097Y-87997102D01*
X204466069Y-87904307D01*
X204228243Y-87857000D01*
X203985757Y-87857000D01*
X203747931Y-87904307D01*
X203523903Y-87997102D01*
X203322283Y-88131820D01*
X203150820Y-88303283D01*
X203016102Y-88504903D01*
X202923307Y-88728931D01*
X202876000Y-88966757D01*
X158825000Y-88966757D01*
X158777693Y-88728931D01*
X158684898Y-88504903D01*
X158550180Y-88303283D01*
X158378717Y-88131820D01*
X158177097Y-87997102D01*
X157953069Y-87904307D01*
X157715243Y-87857000D01*
X157472757Y-87857000D01*
X157234931Y-87904307D01*
X157010903Y-87997102D01*
X156809283Y-88131820D01*
X156637820Y-88303283D01*
X156503102Y-88504903D01*
X156410307Y-88728931D01*
X156363000Y-88966757D01*
X156108000Y-88966757D01*
X156108000Y-86426757D01*
X156363000Y-86426757D01*
X156363000Y-86669243D01*
X156410307Y-86907069D01*
X156503102Y-87131097D01*
X156637820Y-87332717D01*
X156809283Y-87504180D01*
X157010903Y-87638898D01*
X157234931Y-87731693D01*
X157472757Y-87779000D01*
X157715243Y-87779000D01*
X157953069Y-87731693D01*
X158177097Y-87638898D01*
X158378717Y-87504180D01*
X158550180Y-87332717D01*
X158684898Y-87131097D01*
X158777693Y-86907069D01*
X158825000Y-86669243D01*
X158825000Y-86426757D01*
X202876000Y-86426757D01*
X202876000Y-86669243D01*
X202923307Y-86907069D01*
X203016102Y-87131097D01*
X203150820Y-87332717D01*
X203322283Y-87504180D01*
X203523903Y-87638898D01*
X203747931Y-87731693D01*
X203985757Y-87779000D01*
X204228243Y-87779000D01*
X204466069Y-87731693D01*
X204690097Y-87638898D01*
X204891717Y-87504180D01*
X205063180Y-87332717D01*
X205197898Y-87131097D01*
X205290693Y-86907069D01*
X205338000Y-86669243D01*
X205338000Y-86426757D01*
X205290693Y-86188931D01*
X205197898Y-85964903D01*
X205063180Y-85763283D01*
X204891717Y-85591820D01*
X204690097Y-85457102D01*
X204466069Y-85364307D01*
X204228243Y-85317000D01*
X203985757Y-85317000D01*
X203747931Y-85364307D01*
X203523903Y-85457102D01*
X203322283Y-85591820D01*
X203150820Y-85763283D01*
X203016102Y-85964903D01*
X202923307Y-86188931D01*
X202876000Y-86426757D01*
X158825000Y-86426757D01*
X158777693Y-86188931D01*
X158684898Y-85964903D01*
X158550180Y-85763283D01*
X158378717Y-85591820D01*
X158177097Y-85457102D01*
X157953069Y-85364307D01*
X157715243Y-85317000D01*
X157472757Y-85317000D01*
X157234931Y-85364307D01*
X157010903Y-85457102D01*
X156809283Y-85591820D01*
X156637820Y-85763283D01*
X156503102Y-85964903D01*
X156410307Y-86188931D01*
X156363000Y-86426757D01*
X156108000Y-86426757D01*
X156108000Y-83886757D01*
X156363000Y-83886757D01*
X156363000Y-84129243D01*
X156410307Y-84367069D01*
X156503102Y-84591097D01*
X156637820Y-84792717D01*
X156809283Y-84964180D01*
X157010903Y-85098898D01*
X157234931Y-85191693D01*
X157472757Y-85239000D01*
X157715243Y-85239000D01*
X157953069Y-85191693D01*
X158177097Y-85098898D01*
X158378717Y-84964180D01*
X158550180Y-84792717D01*
X158684898Y-84591097D01*
X158777693Y-84367069D01*
X158825000Y-84129243D01*
X158825000Y-83886757D01*
X202876000Y-83886757D01*
X202876000Y-84129243D01*
X202923307Y-84367069D01*
X203016102Y-84591097D01*
X203150820Y-84792717D01*
X203322283Y-84964180D01*
X203523903Y-85098898D01*
X203747931Y-85191693D01*
X203985757Y-85239000D01*
X204228243Y-85239000D01*
X204466069Y-85191693D01*
X204690097Y-85098898D01*
X204891717Y-84964180D01*
X205063180Y-84792717D01*
X205197898Y-84591097D01*
X205290693Y-84367069D01*
X205338000Y-84129243D01*
X205338000Y-83886757D01*
X205290693Y-83648931D01*
X205197898Y-83424903D01*
X205063180Y-83223283D01*
X204891717Y-83051820D01*
X204690097Y-82917102D01*
X204466069Y-82824307D01*
X204228243Y-82777000D01*
X203985757Y-82777000D01*
X203747931Y-82824307D01*
X203523903Y-82917102D01*
X203322283Y-83051820D01*
X203150820Y-83223283D01*
X203016102Y-83424903D01*
X202923307Y-83648931D01*
X202876000Y-83886757D01*
X158825000Y-83886757D01*
X158777693Y-83648931D01*
X158684898Y-83424903D01*
X158550180Y-83223283D01*
X158378717Y-83051820D01*
X158177097Y-82917102D01*
X157953069Y-82824307D01*
X157715243Y-82777000D01*
X157472757Y-82777000D01*
X157234931Y-82824307D01*
X157010903Y-82917102D01*
X156809283Y-83051820D01*
X156637820Y-83223283D01*
X156503102Y-83424903D01*
X156410307Y-83648931D01*
X156363000Y-83886757D01*
X156108000Y-83886757D01*
X156108000Y-81346757D01*
X156363000Y-81346757D01*
X156363000Y-81589243D01*
X156410307Y-81827069D01*
X156503102Y-82051097D01*
X156637820Y-82252717D01*
X156809283Y-82424180D01*
X157010903Y-82558898D01*
X157234931Y-82651693D01*
X157472757Y-82699000D01*
X157715243Y-82699000D01*
X157953069Y-82651693D01*
X158177097Y-82558898D01*
X158378717Y-82424180D01*
X158550180Y-82252717D01*
X158684898Y-82051097D01*
X158777693Y-81827069D01*
X158825000Y-81589243D01*
X158825000Y-81346757D01*
X202876000Y-81346757D01*
X202876000Y-81589243D01*
X202923307Y-81827069D01*
X203016102Y-82051097D01*
X203150820Y-82252717D01*
X203322283Y-82424180D01*
X203523903Y-82558898D01*
X203747931Y-82651693D01*
X203985757Y-82699000D01*
X204228243Y-82699000D01*
X204466069Y-82651693D01*
X204690097Y-82558898D01*
X204891717Y-82424180D01*
X205063180Y-82252717D01*
X205197898Y-82051097D01*
X205290693Y-81827069D01*
X205338000Y-81589243D01*
X205338000Y-81346757D01*
X205290693Y-81108931D01*
X205197898Y-80884903D01*
X205063180Y-80683283D01*
X204891717Y-80511820D01*
X204690097Y-80377102D01*
X204466069Y-80284307D01*
X204228243Y-80237000D01*
X203985757Y-80237000D01*
X203747931Y-80284307D01*
X203523903Y-80377102D01*
X203322283Y-80511820D01*
X203150820Y-80683283D01*
X203016102Y-80884903D01*
X202923307Y-81108931D01*
X202876000Y-81346757D01*
X158825000Y-81346757D01*
X158777693Y-81108931D01*
X158684898Y-80884903D01*
X158550180Y-80683283D01*
X158378717Y-80511820D01*
X158177097Y-80377102D01*
X157953069Y-80284307D01*
X157715243Y-80237000D01*
X157472757Y-80237000D01*
X157234931Y-80284307D01*
X157010903Y-80377102D01*
X156809283Y-80511820D01*
X156637820Y-80683283D01*
X156503102Y-80884903D01*
X156410307Y-81108931D01*
X156363000Y-81346757D01*
X156108000Y-81346757D01*
X156108000Y-78806757D01*
X156363000Y-78806757D01*
X156363000Y-79049243D01*
X156410307Y-79287069D01*
X156503102Y-79511097D01*
X156637820Y-79712717D01*
X156809283Y-79884180D01*
X157010903Y-80018898D01*
X157234931Y-80111693D01*
X157472757Y-80159000D01*
X157715243Y-80159000D01*
X157953069Y-80111693D01*
X158177097Y-80018898D01*
X158378717Y-79884180D01*
X158550180Y-79712717D01*
X158684898Y-79511097D01*
X158777693Y-79287069D01*
X158825000Y-79049243D01*
X158825000Y-78806757D01*
X202876000Y-78806757D01*
X202876000Y-79049243D01*
X202923307Y-79287069D01*
X203016102Y-79511097D01*
X203150820Y-79712717D01*
X203322283Y-79884180D01*
X203523903Y-80018898D01*
X203747931Y-80111693D01*
X203985757Y-80159000D01*
X204228243Y-80159000D01*
X204466069Y-80111693D01*
X204690097Y-80018898D01*
X204891717Y-79884180D01*
X205063180Y-79712717D01*
X205197898Y-79511097D01*
X205290693Y-79287069D01*
X205338000Y-79049243D01*
X205338000Y-78806757D01*
X205290693Y-78568931D01*
X205197898Y-78344903D01*
X205063180Y-78143283D01*
X204891717Y-77971820D01*
X204690097Y-77837102D01*
X204466069Y-77744307D01*
X204228243Y-77697000D01*
X203985757Y-77697000D01*
X203747931Y-77744307D01*
X203523903Y-77837102D01*
X203322283Y-77971820D01*
X203150820Y-78143283D01*
X203016102Y-78344903D01*
X202923307Y-78568931D01*
X202876000Y-78806757D01*
X158825000Y-78806757D01*
X158777693Y-78568931D01*
X158684898Y-78344903D01*
X158550180Y-78143283D01*
X158378717Y-77971820D01*
X158177097Y-77837102D01*
X157953069Y-77744307D01*
X157715243Y-77697000D01*
X157472757Y-77697000D01*
X157234931Y-77744307D01*
X157010903Y-77837102D01*
X156809283Y-77971820D01*
X156637820Y-78143283D01*
X156503102Y-78344903D01*
X156410307Y-78568931D01*
X156363000Y-78806757D01*
X156108000Y-78806757D01*
X156108000Y-76266757D01*
X156363000Y-76266757D01*
X156363000Y-76509243D01*
X156410307Y-76747069D01*
X156503102Y-76971097D01*
X156637820Y-77172717D01*
X156809283Y-77344180D01*
X157010903Y-77478898D01*
X157234931Y-77571693D01*
X157472757Y-77619000D01*
X157715243Y-77619000D01*
X157953069Y-77571693D01*
X158177097Y-77478898D01*
X158378717Y-77344180D01*
X158550180Y-77172717D01*
X158684898Y-76971097D01*
X158777693Y-76747069D01*
X158825000Y-76509243D01*
X158825000Y-76266757D01*
X158777693Y-76028931D01*
X158684898Y-75804903D01*
X158550180Y-75603283D01*
X158378717Y-75431820D01*
X158177097Y-75297102D01*
X157953069Y-75204307D01*
X157715243Y-75157000D01*
X157472757Y-75157000D01*
X157234931Y-75204307D01*
X157010903Y-75297102D01*
X156809283Y-75431820D01*
X156637820Y-75603283D01*
X156503102Y-75804903D01*
X156410307Y-76028931D01*
X156363000Y-76266757D01*
X156108000Y-76266757D01*
X156108000Y-72998000D01*
X156361157Y-72998000D01*
X156361157Y-74698000D01*
X156368513Y-74772689D01*
X156390299Y-74844508D01*
X156425678Y-74910696D01*
X156473289Y-74968711D01*
X156531304Y-75016322D01*
X156597492Y-75051701D01*
X156669311Y-75073487D01*
X156744000Y-75080843D01*
X158444000Y-75080843D01*
X158518689Y-75073487D01*
X158590508Y-75051701D01*
X158656696Y-75016322D01*
X158714711Y-74968711D01*
X158762322Y-74910696D01*
X158797701Y-74844508D01*
X158819487Y-74772689D01*
X158826843Y-74698000D01*
X158826843Y-73491110D01*
X202665524Y-73491110D01*
X202786845Y-73721000D01*
X203980000Y-73721000D01*
X203980000Y-72527186D01*
X203750109Y-72406519D01*
X203475748Y-72503843D01*
X203225645Y-72652822D01*
X203009412Y-72847731D01*
X202835359Y-73081080D01*
X202710175Y-73343901D01*
X202665524Y-73491110D01*
X158826843Y-73491110D01*
X158826843Y-72998000D01*
X158819487Y-72923311D01*
X158797701Y-72851492D01*
X158762322Y-72785304D01*
X158714711Y-72727289D01*
X158656696Y-72679678D01*
X158590508Y-72644299D01*
X158518689Y-72622513D01*
X158444000Y-72615157D01*
X156744000Y-72615157D01*
X156669311Y-72622513D01*
X156597492Y-72644299D01*
X156531304Y-72679678D01*
X156473289Y-72727289D01*
X156425678Y-72785304D01*
X156390299Y-72851492D01*
X156368513Y-72923311D01*
X156361157Y-72998000D01*
X156108000Y-72998000D01*
X156108000Y-64747724D01*
X172107881Y-64747724D01*
X172239817Y-65042812D01*
X172580545Y-65213659D01*
X172948057Y-65314750D01*
X173328229Y-65342201D01*
X173706451Y-65294957D01*
X174068190Y-65174833D01*
X174315183Y-65042812D01*
X174447119Y-64747724D01*
X177187881Y-64747724D01*
X177319817Y-65042812D01*
X177660545Y-65213659D01*
X178028057Y-65314750D01*
X178408229Y-65342201D01*
X178786451Y-65294957D01*
X179148190Y-65174833D01*
X179395183Y-65042812D01*
X179527119Y-64747724D01*
X178357500Y-63578105D01*
X177187881Y-64747724D01*
X174447119Y-64747724D01*
X173277500Y-63578105D01*
X172107881Y-64747724D01*
X156108000Y-64747724D01*
X156108000Y-63449229D01*
X171333799Y-63449229D01*
X171381043Y-63827451D01*
X171501167Y-64189190D01*
X171633188Y-64436183D01*
X171928276Y-64568119D01*
X173097895Y-63398500D01*
X173457105Y-63398500D01*
X174626724Y-64568119D01*
X174921812Y-64436183D01*
X175092659Y-64095455D01*
X175193750Y-63727943D01*
X175213875Y-63449229D01*
X176413799Y-63449229D01*
X176461043Y-63827451D01*
X176581167Y-64189190D01*
X176713188Y-64436183D01*
X177008276Y-64568119D01*
X178177895Y-63398500D01*
X178537105Y-63398500D01*
X179706724Y-64568119D01*
X180001812Y-64436183D01*
X180172659Y-64095455D01*
X180273750Y-63727943D01*
X180301201Y-63347771D01*
X180286857Y-63232936D01*
X181756500Y-63232936D01*
X181756500Y-63564064D01*
X181821100Y-63888830D01*
X181947817Y-64194752D01*
X182131782Y-64470075D01*
X182365925Y-64704218D01*
X182641248Y-64888183D01*
X182947170Y-65014900D01*
X183271936Y-65079500D01*
X183603064Y-65079500D01*
X183927830Y-65014900D01*
X184233752Y-64888183D01*
X184509075Y-64704218D01*
X184743218Y-64470075D01*
X184927183Y-64194752D01*
X185053900Y-63888830D01*
X185118500Y-63564064D01*
X185118500Y-63232936D01*
X185053900Y-62908170D01*
X184927183Y-62602248D01*
X184743218Y-62326925D01*
X184514793Y-62098500D01*
X186834657Y-62098500D01*
X186834657Y-64698500D01*
X186842013Y-64773189D01*
X186863799Y-64845008D01*
X186899178Y-64911196D01*
X186946789Y-64969211D01*
X187004804Y-65016822D01*
X187070992Y-65052201D01*
X187142811Y-65073987D01*
X187217500Y-65081343D01*
X189817500Y-65081343D01*
X189892189Y-65073987D01*
X189964008Y-65052201D01*
X190030196Y-65016822D01*
X190088211Y-64969211D01*
X190135822Y-64911196D01*
X190171201Y-64845008D01*
X190192987Y-64773189D01*
X190200343Y-64698500D01*
X190200343Y-62098500D01*
X190192987Y-62023811D01*
X190171201Y-61951992D01*
X190135822Y-61885804D01*
X190088211Y-61827789D01*
X190030196Y-61780178D01*
X189964008Y-61744799D01*
X189892189Y-61723013D01*
X189817500Y-61715657D01*
X187217500Y-61715657D01*
X187142811Y-61723013D01*
X187070992Y-61744799D01*
X187004804Y-61780178D01*
X186946789Y-61827789D01*
X186899178Y-61885804D01*
X186863799Y-61951992D01*
X186842013Y-62023811D01*
X186834657Y-62098500D01*
X184514793Y-62098500D01*
X184509075Y-62092782D01*
X184233752Y-61908817D01*
X183927830Y-61782100D01*
X183603064Y-61717500D01*
X183271936Y-61717500D01*
X182947170Y-61782100D01*
X182641248Y-61908817D01*
X182365925Y-62092782D01*
X182131782Y-62326925D01*
X181947817Y-62602248D01*
X181821100Y-62908170D01*
X181756500Y-63232936D01*
X180286857Y-63232936D01*
X180253957Y-62969549D01*
X180133833Y-62607810D01*
X180001812Y-62360817D01*
X179706724Y-62228881D01*
X178537105Y-63398500D01*
X178177895Y-63398500D01*
X177008276Y-62228881D01*
X176713188Y-62360817D01*
X176542341Y-62701545D01*
X176441250Y-63069057D01*
X176413799Y-63449229D01*
X175213875Y-63449229D01*
X175221201Y-63347771D01*
X175173957Y-62969549D01*
X175053833Y-62607810D01*
X174921812Y-62360817D01*
X174626724Y-62228881D01*
X173457105Y-63398500D01*
X173097895Y-63398500D01*
X171928276Y-62228881D01*
X171633188Y-62360817D01*
X171462341Y-62701545D01*
X171361250Y-63069057D01*
X171333799Y-63449229D01*
X156108000Y-63449229D01*
X156108000Y-62049276D01*
X172107881Y-62049276D01*
X173277500Y-63218895D01*
X174447119Y-62049276D01*
X177187881Y-62049276D01*
X178357500Y-63218895D01*
X179527119Y-62049276D01*
X179395183Y-61754188D01*
X179054455Y-61583341D01*
X178686943Y-61482250D01*
X178306771Y-61454799D01*
X177928549Y-61502043D01*
X177566810Y-61622167D01*
X177319817Y-61754188D01*
X177187881Y-62049276D01*
X174447119Y-62049276D01*
X174315183Y-61754188D01*
X173974455Y-61583341D01*
X173606943Y-61482250D01*
X173226771Y-61454799D01*
X172848549Y-61502043D01*
X172486810Y-61622167D01*
X172239817Y-61754188D01*
X172107881Y-62049276D01*
X156108000Y-62049276D01*
X156108000Y-57746500D01*
X205588001Y-57746500D01*
X205588001Y-73720998D01*
G37*
%TD.AperFunction*%
%TD*%
M02*
