%TF.GenerationSoftware,KiCad,Pcbnew,(5.1.10)-1*%
%TF.CreationDate,2022-09-18T09:06:00-05:00*%
%TF.ProjectId,digi_pot_tracer,64696769-5f70-46f7-945f-747261636572,A*%
%TF.SameCoordinates,Original*%
%TF.FileFunction,Legend,Top*%
%TF.FilePolarity,Positive*%
%FSLAX46Y46*%
G04 Gerber Fmt 4.6, Leading zero omitted, Abs format (unit mm)*
G04 Created by KiCad (PCBNEW (5.1.10)-1) date 2022-09-18 09:06:00*
%MOMM*%
%LPD*%
G01*
G04 APERTURE LIST*
%ADD10C,0.100000*%
%ADD11C,0.127000*%
%ADD12C,0.250000*%
%ADD13C,0.152400*%
%ADD14C,0.200000*%
%ADD15C,0.120000*%
%ADD16C,0.150000*%
G04 APERTURE END LIST*
D10*
X197906957Y-97078800D02*
G75*
G03*
X197906957Y-97078800I-650557J0D01*
G01*
D11*
X181708878Y-93499214D02*
X181708878Y-92737214D01*
X181890307Y-92737214D01*
X181999164Y-92773500D01*
X182071735Y-92846071D01*
X182108021Y-92918642D01*
X182144307Y-93063785D01*
X182144307Y-93172642D01*
X182108021Y-93317785D01*
X182071735Y-93390357D01*
X181999164Y-93462928D01*
X181890307Y-93499214D01*
X181708878Y-93499214D01*
X182470878Y-93499214D02*
X182470878Y-92991214D01*
X182470878Y-92737214D02*
X182434592Y-92773500D01*
X182470878Y-92809785D01*
X182507164Y-92773500D01*
X182470878Y-92737214D01*
X182470878Y-92809785D01*
X183160307Y-92991214D02*
X183160307Y-93608071D01*
X183124021Y-93680642D01*
X183087735Y-93716928D01*
X183015164Y-93753214D01*
X182906307Y-93753214D01*
X182833735Y-93716928D01*
X183160307Y-93462928D02*
X183087735Y-93499214D01*
X182942592Y-93499214D01*
X182870021Y-93462928D01*
X182833735Y-93426642D01*
X182797450Y-93354071D01*
X182797450Y-93136357D01*
X182833735Y-93063785D01*
X182870021Y-93027500D01*
X182942592Y-92991214D01*
X183087735Y-92991214D01*
X183160307Y-93027500D01*
X183523164Y-93499214D02*
X183523164Y-92991214D01*
X183523164Y-92737214D02*
X183486878Y-92773500D01*
X183523164Y-92809785D01*
X183559450Y-92773500D01*
X183523164Y-92737214D01*
X183523164Y-92809785D01*
X183777164Y-92991214D02*
X184067450Y-92991214D01*
X183886021Y-92737214D02*
X183886021Y-93390357D01*
X183922307Y-93462928D01*
X183994878Y-93499214D01*
X184067450Y-93499214D01*
X184648021Y-93499214D02*
X184648021Y-93100071D01*
X184611735Y-93027500D01*
X184539164Y-92991214D01*
X184394021Y-92991214D01*
X184321450Y-93027500D01*
X184648021Y-93462928D02*
X184575450Y-93499214D01*
X184394021Y-93499214D01*
X184321450Y-93462928D01*
X184285164Y-93390357D01*
X184285164Y-93317785D01*
X184321450Y-93245214D01*
X184394021Y-93208928D01*
X184575450Y-93208928D01*
X184648021Y-93172642D01*
X185119735Y-93499214D02*
X185047164Y-93462928D01*
X185010878Y-93390357D01*
X185010878Y-92737214D01*
X185990592Y-93499214D02*
X185990592Y-92737214D01*
X186280878Y-92737214D01*
X186353450Y-92773500D01*
X186389735Y-92809785D01*
X186426021Y-92882357D01*
X186426021Y-92991214D01*
X186389735Y-93063785D01*
X186353450Y-93100071D01*
X186280878Y-93136357D01*
X185990592Y-93136357D01*
X186861450Y-93499214D02*
X186788878Y-93462928D01*
X186752592Y-93426642D01*
X186716307Y-93354071D01*
X186716307Y-93136357D01*
X186752592Y-93063785D01*
X186788878Y-93027500D01*
X186861450Y-92991214D01*
X186970307Y-92991214D01*
X187042878Y-93027500D01*
X187079164Y-93063785D01*
X187115450Y-93136357D01*
X187115450Y-93354071D01*
X187079164Y-93426642D01*
X187042878Y-93462928D01*
X186970307Y-93499214D01*
X186861450Y-93499214D01*
X187333164Y-92991214D02*
X187623450Y-92991214D01*
X187442021Y-92737214D02*
X187442021Y-93390357D01*
X187478307Y-93462928D01*
X187550878Y-93499214D01*
X187623450Y-93499214D01*
X188167735Y-93462928D02*
X188095164Y-93499214D01*
X187950021Y-93499214D01*
X187877450Y-93462928D01*
X187841164Y-93390357D01*
X187841164Y-93100071D01*
X187877450Y-93027500D01*
X187950021Y-92991214D01*
X188095164Y-92991214D01*
X188167735Y-93027500D01*
X188204021Y-93100071D01*
X188204021Y-93172642D01*
X187841164Y-93245214D01*
X188530592Y-92991214D02*
X188530592Y-93499214D01*
X188530592Y-93063785D02*
X188566878Y-93027500D01*
X188639450Y-92991214D01*
X188748307Y-92991214D01*
X188820878Y-93027500D01*
X188857164Y-93100071D01*
X188857164Y-93499214D01*
X189111164Y-92991214D02*
X189401450Y-92991214D01*
X189220021Y-92737214D02*
X189220021Y-93390357D01*
X189256307Y-93462928D01*
X189328878Y-93499214D01*
X189401450Y-93499214D01*
X189655450Y-93499214D02*
X189655450Y-92991214D01*
X189655450Y-92737214D02*
X189619164Y-92773500D01*
X189655450Y-92809785D01*
X189691735Y-92773500D01*
X189655450Y-92737214D01*
X189655450Y-92809785D01*
X190127164Y-93499214D02*
X190054592Y-93462928D01*
X190018307Y-93426642D01*
X189982021Y-93354071D01*
X189982021Y-93136357D01*
X190018307Y-93063785D01*
X190054592Y-93027500D01*
X190127164Y-92991214D01*
X190236021Y-92991214D01*
X190308592Y-93027500D01*
X190344878Y-93063785D01*
X190381164Y-93136357D01*
X190381164Y-93354071D01*
X190344878Y-93426642D01*
X190308592Y-93462928D01*
X190236021Y-93499214D01*
X190127164Y-93499214D01*
X190707735Y-93499214D02*
X190707735Y-92991214D01*
X190707735Y-93063785D02*
X190744021Y-93027500D01*
X190816592Y-92991214D01*
X190925450Y-92991214D01*
X190998021Y-93027500D01*
X191034307Y-93100071D01*
X191034307Y-93499214D01*
X191034307Y-93100071D02*
X191070592Y-93027500D01*
X191143164Y-92991214D01*
X191252021Y-92991214D01*
X191324592Y-93027500D01*
X191360878Y-93100071D01*
X191360878Y-93499214D01*
X192014021Y-93462928D02*
X191941450Y-93499214D01*
X191796307Y-93499214D01*
X191723735Y-93462928D01*
X191687450Y-93390357D01*
X191687450Y-93100071D01*
X191723735Y-93027500D01*
X191796307Y-92991214D01*
X191941450Y-92991214D01*
X192014021Y-93027500D01*
X192050307Y-93100071D01*
X192050307Y-93172642D01*
X191687450Y-93245214D01*
X192268021Y-92991214D02*
X192558307Y-92991214D01*
X192376878Y-92737214D02*
X192376878Y-93390357D01*
X192413164Y-93462928D01*
X192485735Y-93499214D01*
X192558307Y-93499214D01*
X193102592Y-93462928D02*
X193030021Y-93499214D01*
X192884878Y-93499214D01*
X192812307Y-93462928D01*
X192776021Y-93390357D01*
X192776021Y-93100071D01*
X192812307Y-93027500D01*
X192884878Y-92991214D01*
X193030021Y-92991214D01*
X193102592Y-93027500D01*
X193138878Y-93100071D01*
X193138878Y-93172642D01*
X192776021Y-93245214D01*
X193465450Y-93499214D02*
X193465450Y-92991214D01*
X193465450Y-93136357D02*
X193501735Y-93063785D01*
X193538021Y-93027500D01*
X193610592Y-92991214D01*
X193683164Y-92991214D01*
X194953164Y-93426642D02*
X194916878Y-93462928D01*
X194808021Y-93499214D01*
X194735450Y-93499214D01*
X194626592Y-93462928D01*
X194554021Y-93390357D01*
X194517735Y-93317785D01*
X194481450Y-93172642D01*
X194481450Y-93063785D01*
X194517735Y-92918642D01*
X194554021Y-92846071D01*
X194626592Y-92773500D01*
X194735450Y-92737214D01*
X194808021Y-92737214D01*
X194916878Y-92773500D01*
X194953164Y-92809785D01*
X195606307Y-92991214D02*
X195606307Y-93499214D01*
X195279735Y-92991214D02*
X195279735Y-93390357D01*
X195316021Y-93462928D01*
X195388592Y-93499214D01*
X195497450Y-93499214D01*
X195570021Y-93462928D01*
X195606307Y-93426642D01*
X195969164Y-93499214D02*
X195969164Y-92991214D01*
X195969164Y-93136357D02*
X196005450Y-93063785D01*
X196041735Y-93027500D01*
X196114307Y-92991214D01*
X196186878Y-92991214D01*
X196368307Y-92991214D02*
X196549735Y-93499214D01*
X196731164Y-92991214D01*
X197311735Y-93462928D02*
X197239164Y-93499214D01*
X197094021Y-93499214D01*
X197021450Y-93462928D01*
X196985164Y-93390357D01*
X196985164Y-93100071D01*
X197021450Y-93027500D01*
X197094021Y-92991214D01*
X197239164Y-92991214D01*
X197311735Y-93027500D01*
X197348021Y-93100071D01*
X197348021Y-93172642D01*
X196985164Y-93245214D01*
X198146307Y-92737214D02*
X198581735Y-92737214D01*
X198364021Y-93499214D02*
X198364021Y-92737214D01*
X198835735Y-93499214D02*
X198835735Y-92991214D01*
X198835735Y-93136357D02*
X198872021Y-93063785D01*
X198908307Y-93027500D01*
X198980878Y-92991214D01*
X199053450Y-92991214D01*
X199634021Y-93499214D02*
X199634021Y-93100071D01*
X199597735Y-93027500D01*
X199525164Y-92991214D01*
X199380021Y-92991214D01*
X199307450Y-93027500D01*
X199634021Y-93462928D02*
X199561450Y-93499214D01*
X199380021Y-93499214D01*
X199307450Y-93462928D01*
X199271164Y-93390357D01*
X199271164Y-93317785D01*
X199307450Y-93245214D01*
X199380021Y-93208928D01*
X199561450Y-93208928D01*
X199634021Y-93172642D01*
X200323450Y-93462928D02*
X200250878Y-93499214D01*
X200105735Y-93499214D01*
X200033164Y-93462928D01*
X199996878Y-93426642D01*
X199960592Y-93354071D01*
X199960592Y-93136357D01*
X199996878Y-93063785D01*
X200033164Y-93027500D01*
X200105735Y-92991214D01*
X200250878Y-92991214D01*
X200323450Y-93027500D01*
X200940307Y-93462928D02*
X200867735Y-93499214D01*
X200722592Y-93499214D01*
X200650021Y-93462928D01*
X200613735Y-93390357D01*
X200613735Y-93100071D01*
X200650021Y-93027500D01*
X200722592Y-92991214D01*
X200867735Y-92991214D01*
X200940307Y-93027500D01*
X200976592Y-93100071D01*
X200976592Y-93172642D01*
X200613735Y-93245214D01*
X201303164Y-93499214D02*
X201303164Y-92991214D01*
X201303164Y-93136357D02*
X201339450Y-93063785D01*
X201375735Y-93027500D01*
X201448307Y-92991214D01*
X201520878Y-92991214D01*
X182724878Y-94551500D02*
X183087735Y-94551500D01*
X182652307Y-94769214D02*
X182906307Y-94007214D01*
X183160307Y-94769214D01*
X183740878Y-94769214D02*
X183740878Y-94007214D01*
X183740878Y-94732928D02*
X183668307Y-94769214D01*
X183523164Y-94769214D01*
X183450592Y-94732928D01*
X183414307Y-94696642D01*
X183378021Y-94624071D01*
X183378021Y-94406357D01*
X183414307Y-94333785D01*
X183450592Y-94297500D01*
X183523164Y-94261214D01*
X183668307Y-94261214D01*
X183740878Y-94297500D01*
X184031164Y-94261214D02*
X184212592Y-94769214D01*
X184394021Y-94261214D01*
X185010878Y-94769214D02*
X185010878Y-94370071D01*
X184974592Y-94297500D01*
X184902021Y-94261214D01*
X184756878Y-94261214D01*
X184684307Y-94297500D01*
X185010878Y-94732928D02*
X184938307Y-94769214D01*
X184756878Y-94769214D01*
X184684307Y-94732928D01*
X184648021Y-94660357D01*
X184648021Y-94587785D01*
X184684307Y-94515214D01*
X184756878Y-94478928D01*
X184938307Y-94478928D01*
X185010878Y-94442642D01*
X185373735Y-94261214D02*
X185373735Y-94769214D01*
X185373735Y-94333785D02*
X185410021Y-94297500D01*
X185482592Y-94261214D01*
X185591450Y-94261214D01*
X185664021Y-94297500D01*
X185700307Y-94370071D01*
X185700307Y-94769214D01*
X186389735Y-94732928D02*
X186317164Y-94769214D01*
X186172021Y-94769214D01*
X186099450Y-94732928D01*
X186063164Y-94696642D01*
X186026878Y-94624071D01*
X186026878Y-94406357D01*
X186063164Y-94333785D01*
X186099450Y-94297500D01*
X186172021Y-94261214D01*
X186317164Y-94261214D01*
X186389735Y-94297500D01*
X187006592Y-94732928D02*
X186934021Y-94769214D01*
X186788878Y-94769214D01*
X186716307Y-94732928D01*
X186680021Y-94660357D01*
X186680021Y-94370071D01*
X186716307Y-94297500D01*
X186788878Y-94261214D01*
X186934021Y-94261214D01*
X187006592Y-94297500D01*
X187042878Y-94370071D01*
X187042878Y-94442642D01*
X186680021Y-94515214D01*
X187696021Y-94769214D02*
X187696021Y-94007214D01*
X187696021Y-94732928D02*
X187623450Y-94769214D01*
X187478307Y-94769214D01*
X187405735Y-94732928D01*
X187369450Y-94696642D01*
X187333164Y-94624071D01*
X187333164Y-94406357D01*
X187369450Y-94333785D01*
X187405735Y-94297500D01*
X187478307Y-94261214D01*
X187623450Y-94261214D01*
X187696021Y-94297500D01*
X188929735Y-94732928D02*
X188857164Y-94769214D01*
X188712021Y-94769214D01*
X188639450Y-94732928D01*
X188603164Y-94660357D01*
X188603164Y-94370071D01*
X188639450Y-94297500D01*
X188712021Y-94261214D01*
X188857164Y-94261214D01*
X188929735Y-94297500D01*
X188966021Y-94370071D01*
X188966021Y-94442642D01*
X188603164Y-94515214D01*
X189220021Y-94007214D02*
X189728021Y-94769214D01*
X189728021Y-94007214D02*
X189220021Y-94769214D01*
X190018307Y-94261214D02*
X190018307Y-95023214D01*
X190018307Y-94297500D02*
X190090878Y-94261214D01*
X190236021Y-94261214D01*
X190308592Y-94297500D01*
X190344878Y-94333785D01*
X190381164Y-94406357D01*
X190381164Y-94624071D01*
X190344878Y-94696642D01*
X190308592Y-94732928D01*
X190236021Y-94769214D01*
X190090878Y-94769214D01*
X190018307Y-94732928D01*
X190998021Y-94732928D02*
X190925450Y-94769214D01*
X190780307Y-94769214D01*
X190707735Y-94732928D01*
X190671450Y-94660357D01*
X190671450Y-94370071D01*
X190707735Y-94297500D01*
X190780307Y-94261214D01*
X190925450Y-94261214D01*
X190998021Y-94297500D01*
X191034307Y-94370071D01*
X191034307Y-94442642D01*
X190671450Y-94515214D01*
X191360878Y-94769214D02*
X191360878Y-94261214D01*
X191360878Y-94406357D02*
X191397164Y-94333785D01*
X191433450Y-94297500D01*
X191506021Y-94261214D01*
X191578592Y-94261214D01*
X191832592Y-94769214D02*
X191832592Y-94261214D01*
X191832592Y-94007214D02*
X191796307Y-94043500D01*
X191832592Y-94079785D01*
X191868878Y-94043500D01*
X191832592Y-94007214D01*
X191832592Y-94079785D01*
X192195450Y-94769214D02*
X192195450Y-94261214D01*
X192195450Y-94333785D02*
X192231735Y-94297500D01*
X192304307Y-94261214D01*
X192413164Y-94261214D01*
X192485735Y-94297500D01*
X192522021Y-94370071D01*
X192522021Y-94769214D01*
X192522021Y-94370071D02*
X192558307Y-94297500D01*
X192630878Y-94261214D01*
X192739735Y-94261214D01*
X192812307Y-94297500D01*
X192848592Y-94370071D01*
X192848592Y-94769214D01*
X193501735Y-94732928D02*
X193429164Y-94769214D01*
X193284021Y-94769214D01*
X193211450Y-94732928D01*
X193175164Y-94660357D01*
X193175164Y-94370071D01*
X193211450Y-94297500D01*
X193284021Y-94261214D01*
X193429164Y-94261214D01*
X193501735Y-94297500D01*
X193538021Y-94370071D01*
X193538021Y-94442642D01*
X193175164Y-94515214D01*
X193864592Y-94261214D02*
X193864592Y-94769214D01*
X193864592Y-94333785D02*
X193900878Y-94297500D01*
X193973450Y-94261214D01*
X194082307Y-94261214D01*
X194154878Y-94297500D01*
X194191164Y-94370071D01*
X194191164Y-94769214D01*
X194445164Y-94261214D02*
X194735450Y-94261214D01*
X194554021Y-94007214D02*
X194554021Y-94660357D01*
X194590307Y-94732928D01*
X194662878Y-94769214D01*
X194735450Y-94769214D01*
X195316021Y-94769214D02*
X195316021Y-94370071D01*
X195279735Y-94297500D01*
X195207164Y-94261214D01*
X195062021Y-94261214D01*
X194989449Y-94297500D01*
X195316021Y-94732928D02*
X195243449Y-94769214D01*
X195062021Y-94769214D01*
X194989449Y-94732928D01*
X194953164Y-94660357D01*
X194953164Y-94587785D01*
X194989449Y-94515214D01*
X195062021Y-94478928D01*
X195243449Y-94478928D01*
X195316021Y-94442642D01*
X195787735Y-94769214D02*
X195715164Y-94732928D01*
X195678878Y-94660357D01*
X195678878Y-94007214D01*
X196658592Y-94769214D02*
X196658592Y-94007214D01*
X196948878Y-94007214D01*
X197021449Y-94043500D01*
X197057735Y-94079785D01*
X197094021Y-94152357D01*
X197094021Y-94261214D01*
X197057735Y-94333785D01*
X197021449Y-94370071D01*
X196948878Y-94406357D01*
X196658592Y-94406357D01*
X197747164Y-94769214D02*
X197747164Y-94370071D01*
X197710878Y-94297500D01*
X197638307Y-94261214D01*
X197493164Y-94261214D01*
X197420592Y-94297500D01*
X197747164Y-94732928D02*
X197674592Y-94769214D01*
X197493164Y-94769214D01*
X197420592Y-94732928D01*
X197384307Y-94660357D01*
X197384307Y-94587785D01*
X197420592Y-94515214D01*
X197493164Y-94478928D01*
X197674592Y-94478928D01*
X197747164Y-94442642D01*
X198037449Y-94261214D02*
X198218878Y-94769214D01*
X198400307Y-94261214D02*
X198218878Y-94769214D01*
X198146307Y-94950642D01*
X198110021Y-94986928D01*
X198037449Y-95023214D01*
X198799449Y-94769214D02*
X198726878Y-94732928D01*
X198690592Y-94660357D01*
X198690592Y-94007214D01*
X199198592Y-94769214D02*
X199126021Y-94732928D01*
X199089735Y-94696642D01*
X199053449Y-94624071D01*
X199053449Y-94406357D01*
X199089735Y-94333785D01*
X199126021Y-94297500D01*
X199198592Y-94261214D01*
X199307449Y-94261214D01*
X199380021Y-94297500D01*
X199416307Y-94333785D01*
X199452592Y-94406357D01*
X199452592Y-94624071D01*
X199416307Y-94696642D01*
X199380021Y-94732928D01*
X199307449Y-94769214D01*
X199198592Y-94769214D01*
X200105735Y-94769214D02*
X200105735Y-94370071D01*
X200069450Y-94297500D01*
X199996878Y-94261214D01*
X199851735Y-94261214D01*
X199779164Y-94297500D01*
X200105735Y-94732928D02*
X200033164Y-94769214D01*
X199851735Y-94769214D01*
X199779164Y-94732928D01*
X199742878Y-94660357D01*
X199742878Y-94587785D01*
X199779164Y-94515214D01*
X199851735Y-94478928D01*
X200033164Y-94478928D01*
X200105735Y-94442642D01*
X200795164Y-94769214D02*
X200795164Y-94007214D01*
X200795164Y-94732928D02*
X200722592Y-94769214D01*
X200577449Y-94769214D01*
X200504878Y-94732928D01*
X200468592Y-94696642D01*
X200432307Y-94624071D01*
X200432307Y-94406357D01*
X200468592Y-94333785D01*
X200504878Y-94297500D01*
X200577449Y-94261214D01*
X200722592Y-94261214D01*
X200795164Y-94297500D01*
X201121735Y-94732928D02*
X201194307Y-94769214D01*
X201339449Y-94769214D01*
X201412021Y-94732928D01*
X201448307Y-94660357D01*
X201448307Y-94624071D01*
X201412021Y-94551500D01*
X201339449Y-94515214D01*
X201230592Y-94515214D01*
X201158021Y-94478928D01*
X201121735Y-94406357D01*
X201121735Y-94370071D01*
X201158021Y-94297500D01*
X201230592Y-94261214D01*
X201339449Y-94261214D01*
X201412021Y-94297500D01*
X190090878Y-95277214D02*
X190090878Y-95894071D01*
X190127164Y-95966642D01*
X190163450Y-96002928D01*
X190236021Y-96039214D01*
X190381164Y-96039214D01*
X190453735Y-96002928D01*
X190490021Y-95966642D01*
X190526307Y-95894071D01*
X190526307Y-95277214D01*
X190889164Y-96039214D02*
X190889164Y-95277214D01*
X191324592Y-96039214D01*
X191324592Y-95277214D01*
X192050307Y-96039214D02*
X191687450Y-96039214D01*
X191687450Y-95277214D01*
X192848592Y-95821500D02*
X193211450Y-95821500D01*
X192776021Y-96039214D02*
X193030021Y-95277214D01*
X193284021Y-96039214D01*
X193828307Y-96002928D02*
X193755735Y-96039214D01*
X193610592Y-96039214D01*
X193538021Y-96002928D01*
X193501735Y-95930357D01*
X193501735Y-95640071D01*
X193538021Y-95567500D01*
X193610592Y-95531214D01*
X193755735Y-95531214D01*
X193828307Y-95567500D01*
X193864592Y-95640071D01*
X193864592Y-95712642D01*
X193501735Y-95785214D01*
X194191164Y-96039214D02*
X194191164Y-95531214D01*
X194191164Y-95676357D02*
X194227450Y-95603785D01*
X194263735Y-95567500D01*
X194336307Y-95531214D01*
X194408878Y-95531214D01*
X194771735Y-96039214D02*
X194699164Y-96002928D01*
X194662878Y-95966642D01*
X194626592Y-95894071D01*
X194626592Y-95676357D01*
X194662878Y-95603785D01*
X194699164Y-95567500D01*
X194771735Y-95531214D01*
X194880592Y-95531214D01*
X194953164Y-95567500D01*
X194989450Y-95603785D01*
X195025735Y-95676357D01*
X195025735Y-95894071D01*
X194989450Y-95966642D01*
X194953164Y-96002928D01*
X194880592Y-96039214D01*
X194771735Y-96039214D01*
X195316021Y-96002928D02*
X195388592Y-96039214D01*
X195533735Y-96039214D01*
X195606307Y-96002928D01*
X195642592Y-95930357D01*
X195642592Y-95894071D01*
X195606307Y-95821500D01*
X195533735Y-95785214D01*
X195424878Y-95785214D01*
X195352307Y-95748928D01*
X195316021Y-95676357D01*
X195316021Y-95640071D01*
X195352307Y-95567500D01*
X195424878Y-95531214D01*
X195533735Y-95531214D01*
X195606307Y-95567500D01*
X195969164Y-95531214D02*
X195969164Y-96293214D01*
X195969164Y-95567500D02*
X196041735Y-95531214D01*
X196186878Y-95531214D01*
X196259450Y-95567500D01*
X196295735Y-95603785D01*
X196332021Y-95676357D01*
X196332021Y-95894071D01*
X196295735Y-95966642D01*
X196259450Y-96002928D01*
X196186878Y-96039214D01*
X196041735Y-96039214D01*
X195969164Y-96002928D01*
X196985164Y-96039214D02*
X196985164Y-95640071D01*
X196948878Y-95567500D01*
X196876307Y-95531214D01*
X196731164Y-95531214D01*
X196658592Y-95567500D01*
X196985164Y-96002928D02*
X196912592Y-96039214D01*
X196731164Y-96039214D01*
X196658592Y-96002928D01*
X196622307Y-95930357D01*
X196622307Y-95857785D01*
X196658592Y-95785214D01*
X196731164Y-95748928D01*
X196912592Y-95748928D01*
X196985164Y-95712642D01*
X197674592Y-96002928D02*
X197602021Y-96039214D01*
X197456878Y-96039214D01*
X197384307Y-96002928D01*
X197348021Y-95966642D01*
X197311735Y-95894071D01*
X197311735Y-95676357D01*
X197348021Y-95603785D01*
X197384307Y-95567500D01*
X197456878Y-95531214D01*
X197602021Y-95531214D01*
X197674592Y-95567500D01*
X198291450Y-96002928D02*
X198218878Y-96039214D01*
X198073735Y-96039214D01*
X198001164Y-96002928D01*
X197964878Y-95930357D01*
X197964878Y-95640071D01*
X198001164Y-95567500D01*
X198073735Y-95531214D01*
X198218878Y-95531214D01*
X198291450Y-95567500D01*
X198327735Y-95640071D01*
X198327735Y-95712642D01*
X197964878Y-95785214D01*
X199670307Y-95966642D02*
X199634021Y-96002928D01*
X199525164Y-96039214D01*
X199452592Y-96039214D01*
X199343735Y-96002928D01*
X199271164Y-95930357D01*
X199234878Y-95857785D01*
X199198592Y-95712642D01*
X199198592Y-95603785D01*
X199234878Y-95458642D01*
X199271164Y-95386071D01*
X199343735Y-95313500D01*
X199452592Y-95277214D01*
X199525164Y-95277214D01*
X199634021Y-95313500D01*
X199670307Y-95349785D01*
X200105735Y-96039214D02*
X200033164Y-96002928D01*
X199996878Y-95930357D01*
X199996878Y-95277214D01*
X200722592Y-95531214D02*
X200722592Y-96039214D01*
X200396021Y-95531214D02*
X200396021Y-95930357D01*
X200432307Y-96002928D01*
X200504878Y-96039214D01*
X200613735Y-96039214D01*
X200686307Y-96002928D01*
X200722592Y-95966642D01*
X201085450Y-96039214D02*
X201085450Y-95277214D01*
X201085450Y-95567500D02*
X201158021Y-95531214D01*
X201303164Y-95531214D01*
X201375735Y-95567500D01*
X201412021Y-95603785D01*
X201448307Y-95676357D01*
X201448307Y-95894071D01*
X201412021Y-95966642D01*
X201375735Y-96002928D01*
X201303164Y-96039214D01*
X201158021Y-96039214D01*
X201085450Y-96002928D01*
X190961735Y-97236642D02*
X190925450Y-97272928D01*
X190816592Y-97309214D01*
X190744021Y-97309214D01*
X190635164Y-97272928D01*
X190562592Y-97200357D01*
X190526307Y-97127785D01*
X190490021Y-96982642D01*
X190490021Y-96873785D01*
X190526307Y-96728642D01*
X190562592Y-96656071D01*
X190635164Y-96583500D01*
X190744021Y-96547214D01*
X190816592Y-96547214D01*
X190925450Y-96583500D01*
X190961735Y-96619785D01*
X191397164Y-97309214D02*
X191324592Y-97272928D01*
X191288307Y-97236642D01*
X191252021Y-97164071D01*
X191252021Y-96946357D01*
X191288307Y-96873785D01*
X191324592Y-96837500D01*
X191397164Y-96801214D01*
X191506021Y-96801214D01*
X191578592Y-96837500D01*
X191614878Y-96873785D01*
X191651164Y-96946357D01*
X191651164Y-97164071D01*
X191614878Y-97236642D01*
X191578592Y-97272928D01*
X191506021Y-97309214D01*
X191397164Y-97309214D01*
X191977735Y-96801214D02*
X191977735Y-97563214D01*
X191977735Y-96837500D02*
X192050307Y-96801214D01*
X192195450Y-96801214D01*
X192268021Y-96837500D01*
X192304307Y-96873785D01*
X192340592Y-96946357D01*
X192340592Y-97164071D01*
X192304307Y-97236642D01*
X192268021Y-97272928D01*
X192195450Y-97309214D01*
X192050307Y-97309214D01*
X191977735Y-97272928D01*
X192594592Y-96801214D02*
X192776021Y-97309214D01*
X192957450Y-96801214D02*
X192776021Y-97309214D01*
X192703450Y-97490642D01*
X192667164Y-97526928D01*
X192594592Y-97563214D01*
X193247735Y-97309214D02*
X193247735Y-96801214D01*
X193247735Y-96946357D02*
X193284021Y-96873785D01*
X193320307Y-96837500D01*
X193392878Y-96801214D01*
X193465450Y-96801214D01*
X193719450Y-97309214D02*
X193719450Y-96801214D01*
X193719450Y-96547214D02*
X193683164Y-96583500D01*
X193719450Y-96619785D01*
X193755735Y-96583500D01*
X193719450Y-96547214D01*
X193719450Y-96619785D01*
X194408878Y-96801214D02*
X194408878Y-97418071D01*
X194372592Y-97490642D01*
X194336307Y-97526928D01*
X194263735Y-97563214D01*
X194154878Y-97563214D01*
X194082307Y-97526928D01*
X194408878Y-97272928D02*
X194336307Y-97309214D01*
X194191164Y-97309214D01*
X194118592Y-97272928D01*
X194082307Y-97236642D01*
X194046021Y-97164071D01*
X194046021Y-96946357D01*
X194082307Y-96873785D01*
X194118592Y-96837500D01*
X194191164Y-96801214D01*
X194336307Y-96801214D01*
X194408878Y-96837500D01*
X194771735Y-97309214D02*
X194771735Y-96547214D01*
X195098307Y-97309214D02*
X195098307Y-96910071D01*
X195062021Y-96837500D01*
X194989450Y-96801214D01*
X194880592Y-96801214D01*
X194808021Y-96837500D01*
X194771735Y-96873785D01*
X195352307Y-96801214D02*
X195642592Y-96801214D01*
X195461164Y-96547214D02*
X195461164Y-97200357D01*
X195497450Y-97272928D01*
X195570021Y-97309214D01*
X195642592Y-97309214D01*
X197384307Y-97272928D02*
X197311735Y-97309214D01*
X197166592Y-97309214D01*
X197094021Y-97272928D01*
X197057735Y-97236642D01*
X197021450Y-97164071D01*
X197021450Y-96946357D01*
X197057735Y-96873785D01*
X197094021Y-96837500D01*
X197166592Y-96801214D01*
X197311735Y-96801214D01*
X197384307Y-96837500D01*
X198835735Y-96619785D02*
X198872021Y-96583500D01*
X198944592Y-96547214D01*
X199126021Y-96547214D01*
X199198592Y-96583500D01*
X199234878Y-96619785D01*
X199271164Y-96692357D01*
X199271164Y-96764928D01*
X199234878Y-96873785D01*
X198799450Y-97309214D01*
X199271164Y-97309214D01*
X199742878Y-96547214D02*
X199815450Y-96547214D01*
X199888021Y-96583500D01*
X199924307Y-96619785D01*
X199960592Y-96692357D01*
X199996878Y-96837500D01*
X199996878Y-97018928D01*
X199960592Y-97164071D01*
X199924307Y-97236642D01*
X199888021Y-97272928D01*
X199815450Y-97309214D01*
X199742878Y-97309214D01*
X199670307Y-97272928D01*
X199634021Y-97236642D01*
X199597735Y-97164071D01*
X199561450Y-97018928D01*
X199561450Y-96837500D01*
X199597735Y-96692357D01*
X199634021Y-96619785D01*
X199670307Y-96583500D01*
X199742878Y-96547214D01*
X200287164Y-96619785D02*
X200323450Y-96583500D01*
X200396021Y-96547214D01*
X200577450Y-96547214D01*
X200650021Y-96583500D01*
X200686307Y-96619785D01*
X200722592Y-96692357D01*
X200722592Y-96764928D01*
X200686307Y-96873785D01*
X200250878Y-97309214D01*
X200722592Y-97309214D01*
X201012878Y-96619785D02*
X201049164Y-96583500D01*
X201121735Y-96547214D01*
X201303164Y-96547214D01*
X201375735Y-96583500D01*
X201412021Y-96619785D01*
X201448307Y-96692357D01*
X201448307Y-96764928D01*
X201412021Y-96873785D01*
X200976592Y-97309214D01*
X201448307Y-97309214D01*
D12*
X169164047Y-58046928D02*
X169925952Y-58046928D01*
X191897047Y-58046928D02*
X192658952Y-58046928D01*
X192278000Y-58427880D02*
X192278000Y-57665976D01*
D13*
%TO.C,U4*%
X183337200Y-78460600D02*
X183337200Y-75717400D01*
X178358800Y-75717400D02*
X178358800Y-76784200D01*
X178358800Y-76784200D02*
X178358800Y-77393800D01*
X178358800Y-77393800D02*
X178358800Y-78460600D01*
X178358800Y-76784200D02*
G75*
G02*
X178358800Y-77393800I0J-304800D01*
G01*
D14*
%TO.C,U1*%
X188281500Y-74680500D02*
G75*
G03*
X188281500Y-74680500I-100000J0D01*
G01*
D11*
X188581500Y-76760500D02*
X188581500Y-77420500D01*
X187466500Y-77890500D02*
X186796500Y-77890500D01*
X185681500Y-77420500D02*
X185681500Y-76760500D01*
D15*
%TO.C,R7*%
X200422742Y-78408000D02*
X200897258Y-78408000D01*
X200422742Y-79453000D02*
X200897258Y-79453000D01*
%TO.C,R6*%
X200422742Y-86028000D02*
X200897258Y-86028000D01*
X200422742Y-87073000D02*
X200897258Y-87073000D01*
%TO.C,R5*%
X162860758Y-89613000D02*
X162386242Y-89613000D01*
X162860758Y-88568000D02*
X162386242Y-88568000D01*
%TO.C,U3*%
X176310500Y-72010500D02*
X174510500Y-72010500D01*
X174510500Y-75230500D02*
X176960500Y-75230500D01*
%TO.C,U2*%
X163490000Y-62409500D02*
X163490000Y-64209500D01*
X166710000Y-64209500D02*
X166710000Y-61759500D01*
%TO.C,R4*%
X180894758Y-82437500D02*
X180420242Y-82437500D01*
X180894758Y-81392500D02*
X180420242Y-81392500D01*
%TO.C,R3*%
X162926500Y-86089258D02*
X162926500Y-85614742D01*
X163971500Y-86089258D02*
X163971500Y-85614742D01*
%TO.C,R2*%
X200963000Y-75802258D02*
X200963000Y-75327742D01*
X202008000Y-75802258D02*
X202008000Y-75327742D01*
%TO.C,R1*%
X186407436Y-71797500D02*
X187861564Y-71797500D01*
X186407436Y-73617500D02*
X187861564Y-73617500D01*
%TO.C,J1*%
X190697500Y-63398500D02*
G75*
G03*
X190697500Y-63398500I-2180000J0D01*
G01*
X185617500Y-63398500D02*
G75*
G03*
X185617500Y-63398500I-2180000J0D01*
G01*
X180537500Y-63398500D02*
G75*
G03*
X180537500Y-63398500I-2180000J0D01*
G01*
X175457500Y-63398500D02*
G75*
G03*
X175457500Y-63398500I-2180000J0D01*
G01*
X191117500Y-58598500D02*
X170677500Y-58598500D01*
X191117500Y-61098500D02*
X170677500Y-61098500D01*
X191117500Y-67298500D02*
X170677500Y-67298500D01*
X191117500Y-69358500D02*
X170677500Y-69358500D01*
X191117500Y-58038500D02*
X170677500Y-58038500D01*
X191117500Y-69358500D02*
X191117500Y-58038500D01*
X170677500Y-69358500D02*
X170677500Y-58038500D01*
X186863500Y-64786500D02*
X186970500Y-64679500D01*
X189799500Y-61851500D02*
X189905500Y-61744500D01*
X187129500Y-65052500D02*
X187236500Y-64945500D01*
X190065500Y-62117500D02*
X190171500Y-62010500D01*
X181783500Y-64786500D02*
X182178500Y-64390500D01*
X184444500Y-62124500D02*
X184824500Y-61744500D01*
X182049500Y-65052500D02*
X182429500Y-64672500D01*
X184695500Y-62406500D02*
X185090500Y-62010500D01*
X176703500Y-64786500D02*
X177098500Y-64390500D01*
X179364500Y-62124500D02*
X179744500Y-61744500D01*
X176969500Y-65052500D02*
X177349500Y-64672500D01*
X179615500Y-62406500D02*
X180010500Y-62010500D01*
X171623500Y-64786500D02*
X172018500Y-64390500D01*
X174284500Y-62124500D02*
X174664500Y-61744500D01*
X171889500Y-65052500D02*
X172269500Y-64672500D01*
X174535500Y-62406500D02*
X174930500Y-62010500D01*
X191357500Y-58538500D02*
X191357500Y-57798500D01*
X191357500Y-57798500D02*
X190857500Y-57798500D01*
%TO.C,FB1*%
X168277000Y-69052221D02*
X168277000Y-69377779D01*
X167257000Y-69052221D02*
X167257000Y-69377779D01*
%TO.C,C9*%
X161288000Y-85992580D02*
X161288000Y-85711420D01*
X162308000Y-85992580D02*
X162308000Y-85711420D01*
%TO.C,C8*%
X162771500Y-62979248D02*
X162771500Y-64401752D01*
X160951500Y-62979248D02*
X160951500Y-64401752D01*
%TO.C,C7*%
X160339500Y-62851420D02*
X160339500Y-63132580D01*
X159319500Y-62851420D02*
X159319500Y-63132580D01*
%TO.C,C6*%
X165367580Y-66804000D02*
X165086420Y-66804000D01*
X165367580Y-65784000D02*
X165086420Y-65784000D01*
%TO.C,C5*%
X165239752Y-69299500D02*
X163817248Y-69299500D01*
X165239752Y-67479500D02*
X163817248Y-67479500D01*
%TO.C,C4*%
X199324500Y-75705580D02*
X199324500Y-75424420D01*
X200344500Y-75705580D02*
X200344500Y-75424420D01*
%TO.C,C3*%
X175591080Y-76900500D02*
X175309920Y-76900500D01*
X175591080Y-75880500D02*
X175309920Y-75880500D01*
%TO.C,C2*%
X189291500Y-77306080D02*
X189291500Y-77024920D01*
X190311500Y-77306080D02*
X190311500Y-77024920D01*
%TO.C,C1*%
X184914000Y-76948420D02*
X184914000Y-77229580D01*
X183894000Y-76948420D02*
X183894000Y-77229580D01*
%TO.C,U4*%
D10*
X177653190Y-77469952D02*
X178057952Y-77469952D01*
X178105571Y-77446142D01*
X178129380Y-77422333D01*
X178153190Y-77374714D01*
X178153190Y-77279476D01*
X178129380Y-77231857D01*
X178105571Y-77208047D01*
X178057952Y-77184238D01*
X177653190Y-77184238D01*
X177819857Y-76731857D02*
X178153190Y-76731857D01*
X177629380Y-76850904D02*
X177986523Y-76969952D01*
X177986523Y-76660428D01*
D16*
X177963580Y-80391000D02*
X178201676Y-80391000D01*
X178106438Y-80629095D02*
X178201676Y-80391000D01*
X178106438Y-80152904D01*
X178392152Y-80533857D02*
X178201676Y-80391000D01*
X178392152Y-80248142D01*
%TO.C,U1*%
D10*
X186753547Y-79291690D02*
X186753547Y-79696452D01*
X186777357Y-79744071D01*
X186801166Y-79767880D01*
X186848785Y-79791690D01*
X186944023Y-79791690D01*
X186991642Y-79767880D01*
X187015452Y-79744071D01*
X187039261Y-79696452D01*
X187039261Y-79291690D01*
X187539261Y-79791690D02*
X187253547Y-79791690D01*
X187396404Y-79791690D02*
X187396404Y-79291690D01*
X187348785Y-79363119D01*
X187301166Y-79410738D01*
X187253547Y-79434547D01*
%TO.C,R7*%
X200576666Y-80236190D02*
X200410000Y-79998095D01*
X200290952Y-80236190D02*
X200290952Y-79736190D01*
X200481428Y-79736190D01*
X200529047Y-79760000D01*
X200552857Y-79783809D01*
X200576666Y-79831428D01*
X200576666Y-79902857D01*
X200552857Y-79950476D01*
X200529047Y-79974285D01*
X200481428Y-79998095D01*
X200290952Y-79998095D01*
X200743333Y-79736190D02*
X201076666Y-79736190D01*
X200862380Y-80236190D01*
%TO.C,R6*%
X200576666Y-85697190D02*
X200410000Y-85459095D01*
X200290952Y-85697190D02*
X200290952Y-85197190D01*
X200481428Y-85197190D01*
X200529047Y-85221000D01*
X200552857Y-85244809D01*
X200576666Y-85292428D01*
X200576666Y-85363857D01*
X200552857Y-85411476D01*
X200529047Y-85435285D01*
X200481428Y-85459095D01*
X200290952Y-85459095D01*
X201005238Y-85197190D02*
X200910000Y-85197190D01*
X200862380Y-85221000D01*
X200838571Y-85244809D01*
X200790952Y-85316238D01*
X200767142Y-85411476D01*
X200767142Y-85601952D01*
X200790952Y-85649571D01*
X200814761Y-85673380D01*
X200862380Y-85697190D01*
X200957619Y-85697190D01*
X201005238Y-85673380D01*
X201029047Y-85649571D01*
X201052857Y-85601952D01*
X201052857Y-85482904D01*
X201029047Y-85435285D01*
X201005238Y-85411476D01*
X200957619Y-85387666D01*
X200862380Y-85387666D01*
X200814761Y-85411476D01*
X200790952Y-85435285D01*
X200767142Y-85482904D01*
%TO.C,R5*%
X162540166Y-90446990D02*
X162373500Y-90208895D01*
X162254452Y-90446990D02*
X162254452Y-89946990D01*
X162444928Y-89946990D01*
X162492547Y-89970800D01*
X162516357Y-89994609D01*
X162540166Y-90042228D01*
X162540166Y-90113657D01*
X162516357Y-90161276D01*
X162492547Y-90185085D01*
X162444928Y-90208895D01*
X162254452Y-90208895D01*
X162992547Y-89946990D02*
X162754452Y-89946990D01*
X162730642Y-90185085D01*
X162754452Y-90161276D01*
X162802071Y-90137466D01*
X162921119Y-90137466D01*
X162968738Y-90161276D01*
X162992547Y-90185085D01*
X163016357Y-90232704D01*
X163016357Y-90351752D01*
X162992547Y-90399371D01*
X162968738Y-90423180D01*
X162921119Y-90446990D01*
X162802071Y-90446990D01*
X162754452Y-90423180D01*
X162730642Y-90399371D01*
%TO.C,U3*%
X175029547Y-71163690D02*
X175029547Y-71568452D01*
X175053357Y-71616071D01*
X175077166Y-71639880D01*
X175124785Y-71663690D01*
X175220023Y-71663690D01*
X175267642Y-71639880D01*
X175291452Y-71616071D01*
X175315261Y-71568452D01*
X175315261Y-71163690D01*
X175505738Y-71163690D02*
X175815261Y-71163690D01*
X175648595Y-71354166D01*
X175720023Y-71354166D01*
X175767642Y-71377976D01*
X175791452Y-71401785D01*
X175815261Y-71449404D01*
X175815261Y-71568452D01*
X175791452Y-71616071D01*
X175767642Y-71639880D01*
X175720023Y-71663690D01*
X175577166Y-71663690D01*
X175529547Y-71639880D01*
X175505738Y-71616071D01*
%TO.C,U2*%
X167048690Y-63690452D02*
X167453452Y-63690452D01*
X167501071Y-63666642D01*
X167524880Y-63642833D01*
X167548690Y-63595214D01*
X167548690Y-63499976D01*
X167524880Y-63452357D01*
X167501071Y-63428547D01*
X167453452Y-63404738D01*
X167048690Y-63404738D01*
X167096309Y-63190452D02*
X167072500Y-63166642D01*
X167048690Y-63119023D01*
X167048690Y-62999976D01*
X167072500Y-62952357D01*
X167096309Y-62928547D01*
X167143928Y-62904738D01*
X167191547Y-62904738D01*
X167262976Y-62928547D01*
X167548690Y-63214261D01*
X167548690Y-62904738D01*
%TO.C,R4*%
X179042190Y-81998333D02*
X178804095Y-82165000D01*
X179042190Y-82284047D02*
X178542190Y-82284047D01*
X178542190Y-82093571D01*
X178566000Y-82045952D01*
X178589809Y-82022142D01*
X178637428Y-81998333D01*
X178708857Y-81998333D01*
X178756476Y-82022142D01*
X178780285Y-82045952D01*
X178804095Y-82093571D01*
X178804095Y-82284047D01*
X178708857Y-81569761D02*
X179042190Y-81569761D01*
X178518380Y-81688809D02*
X178875523Y-81807857D01*
X178875523Y-81498333D01*
%TO.C,R3*%
X163365666Y-87919690D02*
X163199000Y-87681595D01*
X163079952Y-87919690D02*
X163079952Y-87419690D01*
X163270428Y-87419690D01*
X163318047Y-87443500D01*
X163341857Y-87467309D01*
X163365666Y-87514928D01*
X163365666Y-87586357D01*
X163341857Y-87633976D01*
X163318047Y-87657785D01*
X163270428Y-87681595D01*
X163079952Y-87681595D01*
X163532333Y-87419690D02*
X163841857Y-87419690D01*
X163675190Y-87610166D01*
X163746619Y-87610166D01*
X163794238Y-87633976D01*
X163818047Y-87657785D01*
X163841857Y-87705404D01*
X163841857Y-87824452D01*
X163818047Y-87872071D01*
X163794238Y-87895880D01*
X163746619Y-87919690D01*
X163603761Y-87919690D01*
X163556142Y-87895880D01*
X163532333Y-87872071D01*
%TO.C,R2*%
X201402166Y-77632690D02*
X201235500Y-77394595D01*
X201116452Y-77632690D02*
X201116452Y-77132690D01*
X201306928Y-77132690D01*
X201354547Y-77156500D01*
X201378357Y-77180309D01*
X201402166Y-77227928D01*
X201402166Y-77299357D01*
X201378357Y-77346976D01*
X201354547Y-77370785D01*
X201306928Y-77394595D01*
X201116452Y-77394595D01*
X201592642Y-77180309D02*
X201616452Y-77156500D01*
X201664071Y-77132690D01*
X201783119Y-77132690D01*
X201830738Y-77156500D01*
X201854547Y-77180309D01*
X201878357Y-77227928D01*
X201878357Y-77275547D01*
X201854547Y-77346976D01*
X201568833Y-77632690D01*
X201878357Y-77632690D01*
%TO.C,R1*%
X187051166Y-71520690D02*
X186884500Y-71282595D01*
X186765452Y-71520690D02*
X186765452Y-71020690D01*
X186955928Y-71020690D01*
X187003547Y-71044500D01*
X187027357Y-71068309D01*
X187051166Y-71115928D01*
X187051166Y-71187357D01*
X187027357Y-71234976D01*
X187003547Y-71258785D01*
X186955928Y-71282595D01*
X186765452Y-71282595D01*
X187527357Y-71520690D02*
X187241642Y-71520690D01*
X187384500Y-71520690D02*
X187384500Y-71020690D01*
X187336880Y-71092119D01*
X187289261Y-71139738D01*
X187241642Y-71163547D01*
%TO.C,J1*%
X180730833Y-70084690D02*
X180730833Y-70441833D01*
X180707023Y-70513261D01*
X180659404Y-70560880D01*
X180587976Y-70584690D01*
X180540357Y-70584690D01*
X181230833Y-70584690D02*
X180945119Y-70584690D01*
X181087976Y-70584690D02*
X181087976Y-70084690D01*
X181040357Y-70156119D01*
X180992738Y-70203738D01*
X180945119Y-70227547D01*
%TO.C,FB1*%
X168874285Y-69631666D02*
X168874285Y-69798333D01*
X169136190Y-69798333D02*
X168636190Y-69798333D01*
X168636190Y-69560238D01*
X168874285Y-69203095D02*
X168898095Y-69131666D01*
X168921904Y-69107857D01*
X168969523Y-69084047D01*
X169040952Y-69084047D01*
X169088571Y-69107857D01*
X169112380Y-69131666D01*
X169136190Y-69179285D01*
X169136190Y-69369761D01*
X168636190Y-69369761D01*
X168636190Y-69203095D01*
X168660000Y-69155476D01*
X168683809Y-69131666D01*
X168731428Y-69107857D01*
X168779047Y-69107857D01*
X168826666Y-69131666D01*
X168850476Y-69155476D01*
X168874285Y-69203095D01*
X168874285Y-69369761D01*
X169136190Y-68607857D02*
X169136190Y-68893571D01*
X169136190Y-68750714D02*
X168636190Y-68750714D01*
X168707619Y-68798333D01*
X168755238Y-68845952D01*
X168779047Y-68893571D01*
%TO.C,C9*%
X161714666Y-87872071D02*
X161690857Y-87895880D01*
X161619428Y-87919690D01*
X161571809Y-87919690D01*
X161500380Y-87895880D01*
X161452761Y-87848261D01*
X161428952Y-87800642D01*
X161405142Y-87705404D01*
X161405142Y-87633976D01*
X161428952Y-87538738D01*
X161452761Y-87491119D01*
X161500380Y-87443500D01*
X161571809Y-87419690D01*
X161619428Y-87419690D01*
X161690857Y-87443500D01*
X161714666Y-87467309D01*
X161952761Y-87919690D02*
X162048000Y-87919690D01*
X162095619Y-87895880D01*
X162119428Y-87872071D01*
X162167047Y-87800642D01*
X162190857Y-87705404D01*
X162190857Y-87514928D01*
X162167047Y-87467309D01*
X162143238Y-87443500D01*
X162095619Y-87419690D01*
X162000380Y-87419690D01*
X161952761Y-87443500D01*
X161928952Y-87467309D01*
X161905142Y-87514928D01*
X161905142Y-87633976D01*
X161928952Y-87681595D01*
X161952761Y-87705404D01*
X162000380Y-87729214D01*
X162095619Y-87729214D01*
X162143238Y-87705404D01*
X162167047Y-87681595D01*
X162190857Y-87633976D01*
%TO.C,C8*%
X161778166Y-61265571D02*
X161754357Y-61289380D01*
X161682928Y-61313190D01*
X161635309Y-61313190D01*
X161563880Y-61289380D01*
X161516261Y-61241761D01*
X161492452Y-61194142D01*
X161468642Y-61098904D01*
X161468642Y-61027476D01*
X161492452Y-60932238D01*
X161516261Y-60884619D01*
X161563880Y-60837000D01*
X161635309Y-60813190D01*
X161682928Y-60813190D01*
X161754357Y-60837000D01*
X161778166Y-60860809D01*
X162063880Y-61027476D02*
X162016261Y-61003666D01*
X161992452Y-60979857D01*
X161968642Y-60932238D01*
X161968642Y-60908428D01*
X161992452Y-60860809D01*
X162016261Y-60837000D01*
X162063880Y-60813190D01*
X162159119Y-60813190D01*
X162206738Y-60837000D01*
X162230547Y-60860809D01*
X162254357Y-60908428D01*
X162254357Y-60932238D01*
X162230547Y-60979857D01*
X162206738Y-61003666D01*
X162159119Y-61027476D01*
X162063880Y-61027476D01*
X162016261Y-61051285D01*
X161992452Y-61075095D01*
X161968642Y-61122714D01*
X161968642Y-61217952D01*
X161992452Y-61265571D01*
X162016261Y-61289380D01*
X162063880Y-61313190D01*
X162159119Y-61313190D01*
X162206738Y-61289380D01*
X162230547Y-61265571D01*
X162254357Y-61217952D01*
X162254357Y-61122714D01*
X162230547Y-61075095D01*
X162206738Y-61051285D01*
X162159119Y-61027476D01*
%TO.C,C7*%
X159746166Y-61392571D02*
X159722357Y-61416380D01*
X159650928Y-61440190D01*
X159603309Y-61440190D01*
X159531880Y-61416380D01*
X159484261Y-61368761D01*
X159460452Y-61321142D01*
X159436642Y-61225904D01*
X159436642Y-61154476D01*
X159460452Y-61059238D01*
X159484261Y-61011619D01*
X159531880Y-60964000D01*
X159603309Y-60940190D01*
X159650928Y-60940190D01*
X159722357Y-60964000D01*
X159746166Y-60987809D01*
X159912833Y-60940190D02*
X160246166Y-60940190D01*
X160031880Y-61440190D01*
%TO.C,C6*%
X167247071Y-66377333D02*
X167270880Y-66401142D01*
X167294690Y-66472571D01*
X167294690Y-66520190D01*
X167270880Y-66591619D01*
X167223261Y-66639238D01*
X167175642Y-66663047D01*
X167080404Y-66686857D01*
X167008976Y-66686857D01*
X166913738Y-66663047D01*
X166866119Y-66639238D01*
X166818500Y-66591619D01*
X166794690Y-66520190D01*
X166794690Y-66472571D01*
X166818500Y-66401142D01*
X166842309Y-66377333D01*
X166794690Y-65948761D02*
X166794690Y-66044000D01*
X166818500Y-66091619D01*
X166842309Y-66115428D01*
X166913738Y-66163047D01*
X167008976Y-66186857D01*
X167199452Y-66186857D01*
X167247071Y-66163047D01*
X167270880Y-66139238D01*
X167294690Y-66091619D01*
X167294690Y-65996380D01*
X167270880Y-65948761D01*
X167247071Y-65924952D01*
X167199452Y-65901142D01*
X167080404Y-65901142D01*
X167032785Y-65924952D01*
X167008976Y-65948761D01*
X166985166Y-65996380D01*
X166985166Y-66091619D01*
X167008976Y-66139238D01*
X167032785Y-66163047D01*
X167080404Y-66186857D01*
%TO.C,C5*%
X162040071Y-68472833D02*
X162063880Y-68496642D01*
X162087690Y-68568071D01*
X162087690Y-68615690D01*
X162063880Y-68687119D01*
X162016261Y-68734738D01*
X161968642Y-68758547D01*
X161873404Y-68782357D01*
X161801976Y-68782357D01*
X161706738Y-68758547D01*
X161659119Y-68734738D01*
X161611500Y-68687119D01*
X161587690Y-68615690D01*
X161587690Y-68568071D01*
X161611500Y-68496642D01*
X161635309Y-68472833D01*
X161587690Y-68020452D02*
X161587690Y-68258547D01*
X161825785Y-68282357D01*
X161801976Y-68258547D01*
X161778166Y-68210928D01*
X161778166Y-68091880D01*
X161801976Y-68044261D01*
X161825785Y-68020452D01*
X161873404Y-67996642D01*
X161992452Y-67996642D01*
X162040071Y-68020452D01*
X162063880Y-68044261D01*
X162087690Y-68091880D01*
X162087690Y-68210928D01*
X162063880Y-68258547D01*
X162040071Y-68282357D01*
%TO.C,C4*%
X199751166Y-77585071D02*
X199727357Y-77608880D01*
X199655928Y-77632690D01*
X199608309Y-77632690D01*
X199536880Y-77608880D01*
X199489261Y-77561261D01*
X199465452Y-77513642D01*
X199441642Y-77418404D01*
X199441642Y-77346976D01*
X199465452Y-77251738D01*
X199489261Y-77204119D01*
X199536880Y-77156500D01*
X199608309Y-77132690D01*
X199655928Y-77132690D01*
X199727357Y-77156500D01*
X199751166Y-77180309D01*
X200179738Y-77299357D02*
X200179738Y-77632690D01*
X200060690Y-77108880D02*
X199941642Y-77466023D01*
X200251166Y-77466023D01*
%TO.C,C3*%
X175303666Y-77648571D02*
X175279857Y-77672380D01*
X175208428Y-77696190D01*
X175160809Y-77696190D01*
X175089380Y-77672380D01*
X175041761Y-77624761D01*
X175017952Y-77577142D01*
X174994142Y-77481904D01*
X174994142Y-77410476D01*
X175017952Y-77315238D01*
X175041761Y-77267619D01*
X175089380Y-77220000D01*
X175160809Y-77196190D01*
X175208428Y-77196190D01*
X175279857Y-77220000D01*
X175303666Y-77243809D01*
X175470333Y-77196190D02*
X175779857Y-77196190D01*
X175613190Y-77386666D01*
X175684619Y-77386666D01*
X175732238Y-77410476D01*
X175756047Y-77434285D01*
X175779857Y-77481904D01*
X175779857Y-77600952D01*
X175756047Y-77648571D01*
X175732238Y-77672380D01*
X175684619Y-77696190D01*
X175541761Y-77696190D01*
X175494142Y-77672380D01*
X175470333Y-77648571D01*
%TO.C,C2*%
X189718166Y-79236071D02*
X189694357Y-79259880D01*
X189622928Y-79283690D01*
X189575309Y-79283690D01*
X189503880Y-79259880D01*
X189456261Y-79212261D01*
X189432452Y-79164642D01*
X189408642Y-79069404D01*
X189408642Y-78997976D01*
X189432452Y-78902738D01*
X189456261Y-78855119D01*
X189503880Y-78807500D01*
X189575309Y-78783690D01*
X189622928Y-78783690D01*
X189694357Y-78807500D01*
X189718166Y-78831309D01*
X189908642Y-78831309D02*
X189932452Y-78807500D01*
X189980071Y-78783690D01*
X190099119Y-78783690D01*
X190146738Y-78807500D01*
X190170547Y-78831309D01*
X190194357Y-78878928D01*
X190194357Y-78926547D01*
X190170547Y-78997976D01*
X189884833Y-79283690D01*
X190194357Y-79283690D01*
%TO.C,C1*%
X184320666Y-75489571D02*
X184296857Y-75513380D01*
X184225428Y-75537190D01*
X184177809Y-75537190D01*
X184106380Y-75513380D01*
X184058761Y-75465761D01*
X184034952Y-75418142D01*
X184011142Y-75322904D01*
X184011142Y-75251476D01*
X184034952Y-75156238D01*
X184058761Y-75108619D01*
X184106380Y-75061000D01*
X184177809Y-75037190D01*
X184225428Y-75037190D01*
X184296857Y-75061000D01*
X184320666Y-75084809D01*
X184796857Y-75537190D02*
X184511142Y-75537190D01*
X184654000Y-75537190D02*
X184654000Y-75037190D01*
X184606380Y-75108619D01*
X184558761Y-75156238D01*
X184511142Y-75180047D01*
%TD*%
M02*
