M48
; DRILL file {KiCad (5.1.10)-1} date 09/18/22 09:06:02
; FORMAT={-:-/ absolute / inch / decimal}
; #@! TF.CreationDate,2022-09-18T09:06:02-05:00
; #@! TF.GenerationSoftware,Kicad,Pcbnew,(5.1.10)-1
; #@! TF.FileFunction,Plated,1,2,PTH
FMAT,2
INCH
T1C0.0100
T2C0.0394
T3C0.0512
%
G90
G05
T1
X6.2925Y-2.5475
X6.37Y-3.31
X6.3725Y-2.6075
X6.38Y-2.6925
X6.4375Y-2.61
X6.5Y-2.485
X6.82Y-2.935
X6.84Y-3.0075
X7.095Y-2.99
X7.095Y-3.185
X7.26Y-3.1
X7.3675Y-2.94
X7.472Y-2.97
X7.825Y-2.945
T2
X6.2045Y-2.9074
X6.2045Y-3.0074
X6.2045Y-3.1074
X6.2045Y-3.2074
X6.2045Y-3.3074
X6.2045Y-3.4074
X6.2045Y-3.5074
X6.2045Y-3.6074
X6.2045Y-3.7074
X6.2045Y-3.8074
X8.0357Y-2.9074
X8.0357Y-3.0074
X8.0357Y-3.1074
X8.0357Y-3.2074
X8.0357Y-3.3074
X8.0357Y-3.4074
X8.0357Y-3.5074
X8.0357Y-3.6074
X8.0357Y-3.7074
X8.0357Y-3.8074
T3
X6.8219Y-2.496
X7.0219Y-2.496
X7.2219Y-2.496
X7.4219Y-2.496
T0
M30
