%TF.GenerationSoftware,KiCad,Pcbnew,(5.1.10)-1*%
%TF.CreationDate,2022-09-18T09:06:00-05:00*%
%TF.ProjectId,digi_pot_tracer,64696769-5f70-46f7-945f-747261636572,A*%
%TF.SameCoordinates,Original*%
%TF.FileFunction,Legend,Bot*%
%TF.FilePolarity,Positive*%
%FSLAX46Y46*%
G04 Gerber Fmt 4.6, Leading zero omitted, Abs format (unit mm)*
G04 Created by KiCad (PCBNEW (5.1.10)-1) date 2022-09-18 09:06:00*
%MOMM*%
%LPD*%
G01*
G04 APERTURE LIST*
%ADD10C,0.120000*%
%ADD11C,0.100000*%
G04 APERTURE END LIST*
D10*
%TO.C,J3*%
X202777000Y-72518000D02*
X205437000Y-72518000D01*
X202777000Y-95438000D02*
X202777000Y-72518000D01*
X205437000Y-95438000D02*
X205437000Y-72518000D01*
X202777000Y-95438000D02*
X205437000Y-95438000D01*
X202777000Y-96708000D02*
X202777000Y-98038000D01*
X202777000Y-98038000D02*
X204107000Y-98038000D01*
%TO.C,J2*%
X158924000Y-98038000D02*
X156264000Y-98038000D01*
X158924000Y-75118000D02*
X158924000Y-98038000D01*
X156264000Y-75118000D02*
X156264000Y-98038000D01*
X158924000Y-75118000D02*
X156264000Y-75118000D01*
X158924000Y-73848000D02*
X158924000Y-72518000D01*
X158924000Y-72518000D02*
X157594000Y-72518000D01*
%TO.C,J3*%
D11*
X204273666Y-98764190D02*
X204273666Y-99121333D01*
X204297476Y-99192761D01*
X204345095Y-99240380D01*
X204416523Y-99264190D01*
X204464142Y-99264190D01*
X204083190Y-98764190D02*
X203773666Y-98764190D01*
X203940333Y-98954666D01*
X203868904Y-98954666D01*
X203821285Y-98978476D01*
X203797476Y-99002285D01*
X203773666Y-99049904D01*
X203773666Y-99168952D01*
X203797476Y-99216571D01*
X203821285Y-99240380D01*
X203868904Y-99264190D01*
X204011761Y-99264190D01*
X204059380Y-99240380D01*
X204083190Y-99216571D01*
%TO.C,J2*%
X157760666Y-71244190D02*
X157760666Y-71601333D01*
X157784476Y-71672761D01*
X157832095Y-71720380D01*
X157903523Y-71744190D01*
X157951142Y-71744190D01*
X157546380Y-71291809D02*
X157522571Y-71268000D01*
X157474952Y-71244190D01*
X157355904Y-71244190D01*
X157308285Y-71268000D01*
X157284476Y-71291809D01*
X157260666Y-71339428D01*
X157260666Y-71387047D01*
X157284476Y-71458476D01*
X157570190Y-71744190D01*
X157260666Y-71744190D01*
%TD*%
M02*
