%TF.GenerationSoftware,KiCad,Pcbnew,(5.1.10)-1*%
%TF.CreationDate,2022-09-18T09:06:00-05:00*%
%TF.ProjectId,digi_pot_tracer,64696769-5f70-46f7-945f-747261636572,A*%
%TF.SameCoordinates,Original*%
%TF.FileFunction,Copper,L1,Top*%
%TF.FilePolarity,Positive*%
%FSLAX46Y46*%
G04 Gerber Fmt 4.6, Leading zero omitted, Abs format (unit mm)*
G04 Created by KiCad (PCBNEW (5.1.10)-1) date 2022-09-18 09:06:00*
%MOMM*%
%LPD*%
G01*
G04 APERTURE LIST*
%TA.AperFunction,SMDPad,CuDef*%
%ADD10R,0.558800X1.981200*%
%TD*%
%TA.AperFunction,SMDPad,CuDef*%
%ADD11R,1.060000X0.650000*%
%TD*%
%TA.AperFunction,SMDPad,CuDef*%
%ADD12R,0.650000X1.060000*%
%TD*%
%TA.AperFunction,ComponentPad*%
%ADD13O,1.700000X1.700000*%
%TD*%
%TA.AperFunction,ComponentPad*%
%ADD14R,1.700000X1.700000*%
%TD*%
%TA.AperFunction,ComponentPad*%
%ADD15C,2.600000*%
%TD*%
%TA.AperFunction,ComponentPad*%
%ADD16R,2.600000X2.600000*%
%TD*%
%TA.AperFunction,ViaPad*%
%ADD17C,0.508000*%
%TD*%
%TA.AperFunction,Conductor*%
%ADD18C,0.152400*%
%TD*%
%TA.AperFunction,Conductor*%
%ADD19C,0.508000*%
%TD*%
%TA.AperFunction,Conductor*%
%ADD20C,0.254000*%
%TD*%
%TA.AperFunction,Conductor*%
%ADD21C,0.100000*%
%TD*%
G04 APERTURE END LIST*
D10*
%TO.P,U4,8*%
%TO.N,Net-(R1-Pad1)*%
X178943000Y-74625200D03*
%TO.P,U4,7*%
%TO.N,GND*%
X180213000Y-74625200D03*
%TO.P,U4,6*%
%TO.N,+3V3*%
X181483000Y-74625200D03*
%TO.P,U4,5*%
%TO.N,Net-(R5-Pad1)*%
X182753000Y-74625200D03*
%TO.P,U4,4*%
%TO.N,Net-(R6-Pad1)*%
X182753000Y-79552800D03*
%TO.P,U4,3*%
%TO.N,Net-(R4-Pad1)*%
X181483000Y-79552800D03*
%TO.P,U4,2*%
%TO.N,GND*%
X180213000Y-79552800D03*
%TO.P,U4,1*%
%TO.N,Net-(U4-Pad1)*%
X178943000Y-79552800D03*
%TD*%
%TO.P,U1,5*%
%TO.N,+3V3*%
%TA.AperFunction,SMDPad,CuDef*%
G36*
G01*
X187875000Y-77740500D02*
X188288000Y-77740500D01*
G75*
G02*
X188376500Y-77829000I0J-88500D01*
G01*
X188376500Y-78862000D01*
G75*
G02*
X188288000Y-78950500I-88500J0D01*
G01*
X187875000Y-78950500D01*
G75*
G02*
X187786500Y-78862000I0J88500D01*
G01*
X187786500Y-77829000D01*
G75*
G02*
X187875000Y-77740500I88500J0D01*
G01*
G37*
%TD.AperFunction*%
%TO.P,U1,4*%
%TO.N,Net-(R2-Pad2)*%
%TA.AperFunction,SMDPad,CuDef*%
G36*
G01*
X185975000Y-77740500D02*
X186388000Y-77740500D01*
G75*
G02*
X186476500Y-77829000I0J-88500D01*
G01*
X186476500Y-78862000D01*
G75*
G02*
X186388000Y-78950500I-88500J0D01*
G01*
X185975000Y-78950500D01*
G75*
G02*
X185886500Y-78862000I0J88500D01*
G01*
X185886500Y-77829000D01*
G75*
G02*
X185975000Y-77740500I88500J0D01*
G01*
G37*
%TD.AperFunction*%
%TO.P,U1,3*%
%TO.N,Net-(R1-Pad1)*%
%TA.AperFunction,SMDPad,CuDef*%
G36*
G01*
X185975000Y-75230500D02*
X186388000Y-75230500D01*
G75*
G02*
X186476500Y-75319000I0J-88500D01*
G01*
X186476500Y-76352000D01*
G75*
G02*
X186388000Y-76440500I-88500J0D01*
G01*
X185975000Y-76440500D01*
G75*
G02*
X185886500Y-76352000I0J88500D01*
G01*
X185886500Y-75319000D01*
G75*
G02*
X185975000Y-75230500I88500J0D01*
G01*
G37*
%TD.AperFunction*%
%TO.P,U1,2*%
%TO.N,GND*%
%TA.AperFunction,SMDPad,CuDef*%
G36*
G01*
X186925000Y-75230500D02*
X187338000Y-75230500D01*
G75*
G02*
X187426500Y-75319000I0J-88500D01*
G01*
X187426500Y-76352000D01*
G75*
G02*
X187338000Y-76440500I-88500J0D01*
G01*
X186925000Y-76440500D01*
G75*
G02*
X186836500Y-76352000I0J88500D01*
G01*
X186836500Y-75319000D01*
G75*
G02*
X186925000Y-75230500I88500J0D01*
G01*
G37*
%TD.AperFunction*%
%TO.P,U1,1*%
%TO.N,Net-(J1-Pad1)*%
%TA.AperFunction,SMDPad,CuDef*%
G36*
G01*
X187875000Y-75230500D02*
X188288000Y-75230500D01*
G75*
G02*
X188376500Y-75319000I0J-88500D01*
G01*
X188376500Y-76352000D01*
G75*
G02*
X188288000Y-76440500I-88500J0D01*
G01*
X187875000Y-76440500D01*
G75*
G02*
X187786500Y-76352000I0J88500D01*
G01*
X187786500Y-75319000D01*
G75*
G02*
X187875000Y-75230500I88500J0D01*
G01*
G37*
%TD.AperFunction*%
%TD*%
%TO.P,R7,2*%
%TO.N,Net-(J3-Pad8)*%
%TA.AperFunction,SMDPad,CuDef*%
G36*
G01*
X201085000Y-79205500D02*
X201085000Y-78655500D01*
G75*
G02*
X201285000Y-78455500I200000J0D01*
G01*
X201685000Y-78455500D01*
G75*
G02*
X201885000Y-78655500I0J-200000D01*
G01*
X201885000Y-79205500D01*
G75*
G02*
X201685000Y-79405500I-200000J0D01*
G01*
X201285000Y-79405500D01*
G75*
G02*
X201085000Y-79205500I0J200000D01*
G01*
G37*
%TD.AperFunction*%
%TO.P,R7,1*%
%TO.N,Net-(R4-Pad1)*%
%TA.AperFunction,SMDPad,CuDef*%
G36*
G01*
X199435000Y-79205500D02*
X199435000Y-78655500D01*
G75*
G02*
X199635000Y-78455500I200000J0D01*
G01*
X200035000Y-78455500D01*
G75*
G02*
X200235000Y-78655500I0J-200000D01*
G01*
X200235000Y-79205500D01*
G75*
G02*
X200035000Y-79405500I-200000J0D01*
G01*
X199635000Y-79405500D01*
G75*
G02*
X199435000Y-79205500I0J200000D01*
G01*
G37*
%TD.AperFunction*%
%TD*%
%TO.P,R6,2*%
%TO.N,Net-(J3-Pad5)*%
%TA.AperFunction,SMDPad,CuDef*%
G36*
G01*
X201085000Y-86825500D02*
X201085000Y-86275500D01*
G75*
G02*
X201285000Y-86075500I200000J0D01*
G01*
X201685000Y-86075500D01*
G75*
G02*
X201885000Y-86275500I0J-200000D01*
G01*
X201885000Y-86825500D01*
G75*
G02*
X201685000Y-87025500I-200000J0D01*
G01*
X201285000Y-87025500D01*
G75*
G02*
X201085000Y-86825500I0J200000D01*
G01*
G37*
%TD.AperFunction*%
%TO.P,R6,1*%
%TO.N,Net-(R6-Pad1)*%
%TA.AperFunction,SMDPad,CuDef*%
G36*
G01*
X199435000Y-86825500D02*
X199435000Y-86275500D01*
G75*
G02*
X199635000Y-86075500I200000J0D01*
G01*
X200035000Y-86075500D01*
G75*
G02*
X200235000Y-86275500I0J-200000D01*
G01*
X200235000Y-86825500D01*
G75*
G02*
X200035000Y-87025500I-200000J0D01*
G01*
X199635000Y-87025500D01*
G75*
G02*
X199435000Y-86825500I0J200000D01*
G01*
G37*
%TD.AperFunction*%
%TD*%
%TO.P,R5,2*%
%TO.N,Net-(J2-Pad7)*%
%TA.AperFunction,SMDPad,CuDef*%
G36*
G01*
X162198500Y-88815500D02*
X162198500Y-89365500D01*
G75*
G02*
X161998500Y-89565500I-200000J0D01*
G01*
X161598500Y-89565500D01*
G75*
G02*
X161398500Y-89365500I0J200000D01*
G01*
X161398500Y-88815500D01*
G75*
G02*
X161598500Y-88615500I200000J0D01*
G01*
X161998500Y-88615500D01*
G75*
G02*
X162198500Y-88815500I0J-200000D01*
G01*
G37*
%TD.AperFunction*%
%TO.P,R5,1*%
%TO.N,Net-(R5-Pad1)*%
%TA.AperFunction,SMDPad,CuDef*%
G36*
G01*
X163848500Y-88815500D02*
X163848500Y-89365500D01*
G75*
G02*
X163648500Y-89565500I-200000J0D01*
G01*
X163248500Y-89565500D01*
G75*
G02*
X163048500Y-89365500I0J200000D01*
G01*
X163048500Y-88815500D01*
G75*
G02*
X163248500Y-88615500I200000J0D01*
G01*
X163648500Y-88615500D01*
G75*
G02*
X163848500Y-88815500I0J-200000D01*
G01*
G37*
%TD.AperFunction*%
%TD*%
D11*
%TO.P,U3,5*%
%TO.N,GND*%
X174310500Y-74570500D03*
%TO.P,U3,4*%
%TO.N,Net-(R3-Pad2)*%
X174310500Y-72670500D03*
%TO.P,U3,3*%
%TO.N,Net-(R1-Pad1)*%
X176510500Y-72670500D03*
%TO.P,U3,2*%
%TO.N,+3V3*%
X176510500Y-73620500D03*
%TO.P,U3,1*%
%TO.N,Net-(R3-Pad2)*%
X176510500Y-74570500D03*
%TD*%
D12*
%TO.P,U2,5*%
%TO.N,Net-(C5-Pad1)*%
X166050000Y-64409500D03*
%TO.P,U2,4*%
%TO.N,Net-(U2-Pad4)*%
X164150000Y-64409500D03*
%TO.P,U2,3*%
%TO.N,VBUS*%
X164150000Y-62209500D03*
%TO.P,U2,2*%
%TO.N,GND*%
X165100000Y-62209500D03*
%TO.P,U2,1*%
%TO.N,VBUS*%
X166050000Y-62209500D03*
%TD*%
%TO.P,R4,2*%
%TO.N,+3V3*%
%TA.AperFunction,SMDPad,CuDef*%
G36*
G01*
X180232500Y-81640000D02*
X180232500Y-82190000D01*
G75*
G02*
X180032500Y-82390000I-200000J0D01*
G01*
X179632500Y-82390000D01*
G75*
G02*
X179432500Y-82190000I0J200000D01*
G01*
X179432500Y-81640000D01*
G75*
G02*
X179632500Y-81440000I200000J0D01*
G01*
X180032500Y-81440000D01*
G75*
G02*
X180232500Y-81640000I0J-200000D01*
G01*
G37*
%TD.AperFunction*%
%TO.P,R4,1*%
%TO.N,Net-(R4-Pad1)*%
%TA.AperFunction,SMDPad,CuDef*%
G36*
G01*
X181882500Y-81640000D02*
X181882500Y-82190000D01*
G75*
G02*
X181682500Y-82390000I-200000J0D01*
G01*
X181282500Y-82390000D01*
G75*
G02*
X181082500Y-82190000I0J200000D01*
G01*
X181082500Y-81640000D01*
G75*
G02*
X181282500Y-81440000I200000J0D01*
G01*
X181682500Y-81440000D01*
G75*
G02*
X181882500Y-81640000I0J-200000D01*
G01*
G37*
%TD.AperFunction*%
%TD*%
%TO.P,R3,2*%
%TO.N,Net-(R3-Pad2)*%
%TA.AperFunction,SMDPad,CuDef*%
G36*
G01*
X163724000Y-85427000D02*
X163174000Y-85427000D01*
G75*
G02*
X162974000Y-85227000I0J200000D01*
G01*
X162974000Y-84827000D01*
G75*
G02*
X163174000Y-84627000I200000J0D01*
G01*
X163724000Y-84627000D01*
G75*
G02*
X163924000Y-84827000I0J-200000D01*
G01*
X163924000Y-85227000D01*
G75*
G02*
X163724000Y-85427000I-200000J0D01*
G01*
G37*
%TD.AperFunction*%
%TO.P,R3,1*%
%TO.N,PANEL_VOLTAGE*%
%TA.AperFunction,SMDPad,CuDef*%
G36*
G01*
X163724000Y-87077000D02*
X163174000Y-87077000D01*
G75*
G02*
X162974000Y-86877000I0J200000D01*
G01*
X162974000Y-86477000D01*
G75*
G02*
X163174000Y-86277000I200000J0D01*
G01*
X163724000Y-86277000D01*
G75*
G02*
X163924000Y-86477000I0J-200000D01*
G01*
X163924000Y-86877000D01*
G75*
G02*
X163724000Y-87077000I-200000J0D01*
G01*
G37*
%TD.AperFunction*%
%TD*%
%TO.P,R2,2*%
%TO.N,Net-(R2-Pad2)*%
%TA.AperFunction,SMDPad,CuDef*%
G36*
G01*
X201760500Y-75140000D02*
X201210500Y-75140000D01*
G75*
G02*
X201010500Y-74940000I0J200000D01*
G01*
X201010500Y-74540000D01*
G75*
G02*
X201210500Y-74340000I200000J0D01*
G01*
X201760500Y-74340000D01*
G75*
G02*
X201960500Y-74540000I0J-200000D01*
G01*
X201960500Y-74940000D01*
G75*
G02*
X201760500Y-75140000I-200000J0D01*
G01*
G37*
%TD.AperFunction*%
%TO.P,R2,1*%
%TO.N,PANEL_CURRENT*%
%TA.AperFunction,SMDPad,CuDef*%
G36*
G01*
X201760500Y-76790000D02*
X201210500Y-76790000D01*
G75*
G02*
X201010500Y-76590000I0J200000D01*
G01*
X201010500Y-76190000D01*
G75*
G02*
X201210500Y-75990000I200000J0D01*
G01*
X201760500Y-75990000D01*
G75*
G02*
X201960500Y-76190000I0J-200000D01*
G01*
X201960500Y-76590000D01*
G75*
G02*
X201760500Y-76790000I-200000J0D01*
G01*
G37*
%TD.AperFunction*%
%TD*%
%TO.P,R1,2*%
%TO.N,Net-(J1-Pad1)*%
%TA.AperFunction,SMDPad,CuDef*%
G36*
G01*
X188034500Y-73332502D02*
X188034500Y-72082498D01*
G75*
G02*
X188284498Y-71832500I249998J0D01*
G01*
X188909502Y-71832500D01*
G75*
G02*
X189159500Y-72082498I0J-249998D01*
G01*
X189159500Y-73332502D01*
G75*
G02*
X188909502Y-73582500I-249998J0D01*
G01*
X188284498Y-73582500D01*
G75*
G02*
X188034500Y-73332502I0J249998D01*
G01*
G37*
%TD.AperFunction*%
%TO.P,R1,1*%
%TO.N,Net-(R1-Pad1)*%
%TA.AperFunction,SMDPad,CuDef*%
G36*
G01*
X185109500Y-73332502D02*
X185109500Y-72082498D01*
G75*
G02*
X185359498Y-71832500I249998J0D01*
G01*
X185984502Y-71832500D01*
G75*
G02*
X186234500Y-72082498I0J-249998D01*
G01*
X186234500Y-73332502D01*
G75*
G02*
X185984502Y-73582500I-249998J0D01*
G01*
X185359498Y-73582500D01*
G75*
G02*
X185109500Y-73332502I0J249998D01*
G01*
G37*
%TD.AperFunction*%
%TD*%
D13*
%TO.P,J3,10*%
%TO.N,GND*%
X204107000Y-73848000D03*
%TO.P,J3,9*%
%TO.N,PANEL_CURRENT*%
X204107000Y-76388000D03*
%TO.P,J3,8*%
%TO.N,Net-(J3-Pad8)*%
X204107000Y-78928000D03*
%TO.P,J3,7*%
%TO.N,Net-(J3-Pad7)*%
X204107000Y-81468000D03*
%TO.P,J3,6*%
%TO.N,Net-(J3-Pad6)*%
X204107000Y-84008000D03*
%TO.P,J3,5*%
%TO.N,Net-(J3-Pad5)*%
X204107000Y-86548000D03*
%TO.P,J3,4*%
%TO.N,Net-(J3-Pad4)*%
X204107000Y-89088000D03*
%TO.P,J3,3*%
%TO.N,Net-(J3-Pad3)*%
X204107000Y-91628000D03*
%TO.P,J3,2*%
%TO.N,Net-(J3-Pad2)*%
X204107000Y-94168000D03*
D14*
%TO.P,J3,1*%
%TO.N,Net-(J3-Pad1)*%
X204107000Y-96708000D03*
%TD*%
D13*
%TO.P,J2,10*%
%TO.N,Net-(J2-Pad10)*%
X157594000Y-96708000D03*
%TO.P,J2,9*%
%TO.N,Net-(J2-Pad9)*%
X157594000Y-94168000D03*
%TO.P,J2,8*%
%TO.N,Net-(J2-Pad8)*%
X157594000Y-91628000D03*
%TO.P,J2,7*%
%TO.N,Net-(J2-Pad7)*%
X157594000Y-89088000D03*
%TO.P,J2,6*%
%TO.N,PANEL_VOLTAGE*%
X157594000Y-86548000D03*
%TO.P,J2,5*%
%TO.N,Net-(J2-Pad5)*%
X157594000Y-84008000D03*
%TO.P,J2,4*%
%TO.N,Net-(J2-Pad4)*%
X157594000Y-81468000D03*
%TO.P,J2,3*%
%TO.N,Net-(J2-Pad3)*%
X157594000Y-78928000D03*
%TO.P,J2,2*%
%TO.N,Net-(J2-Pad2)*%
X157594000Y-76388000D03*
D14*
%TO.P,J2,1*%
%TO.N,VBUS*%
X157594000Y-73848000D03*
%TD*%
D15*
%TO.P,J1,4*%
%TO.N,GND*%
X173277500Y-63398500D03*
%TO.P,J1,3*%
X178357500Y-63398500D03*
%TO.P,J1,2*%
%TO.N,Net-(J1-Pad1)*%
X183437500Y-63398500D03*
D16*
%TO.P,J1,1*%
X188517500Y-63398500D03*
%TD*%
%TO.P,FB1,2*%
%TO.N,+3V3*%
%TA.AperFunction,SMDPad,CuDef*%
G36*
G01*
X167510750Y-69565000D02*
X168023250Y-69565000D01*
G75*
G02*
X168242000Y-69783750I0J-218750D01*
G01*
X168242000Y-70221250D01*
G75*
G02*
X168023250Y-70440000I-218750J0D01*
G01*
X167510750Y-70440000D01*
G75*
G02*
X167292000Y-70221250I0J218750D01*
G01*
X167292000Y-69783750D01*
G75*
G02*
X167510750Y-69565000I218750J0D01*
G01*
G37*
%TD.AperFunction*%
%TO.P,FB1,1*%
%TO.N,Net-(C5-Pad1)*%
%TA.AperFunction,SMDPad,CuDef*%
G36*
G01*
X167510750Y-67990000D02*
X168023250Y-67990000D01*
G75*
G02*
X168242000Y-68208750I0J-218750D01*
G01*
X168242000Y-68646250D01*
G75*
G02*
X168023250Y-68865000I-218750J0D01*
G01*
X167510750Y-68865000D01*
G75*
G02*
X167292000Y-68646250I0J218750D01*
G01*
X167292000Y-68208750D01*
G75*
G02*
X167510750Y-67990000I218750J0D01*
G01*
G37*
%TD.AperFunction*%
%TD*%
%TO.P,C9,2*%
%TO.N,GND*%
%TA.AperFunction,SMDPad,CuDef*%
G36*
G01*
X162048000Y-85527000D02*
X161548000Y-85527000D01*
G75*
G02*
X161323000Y-85302000I0J225000D01*
G01*
X161323000Y-84852000D01*
G75*
G02*
X161548000Y-84627000I225000J0D01*
G01*
X162048000Y-84627000D01*
G75*
G02*
X162273000Y-84852000I0J-225000D01*
G01*
X162273000Y-85302000D01*
G75*
G02*
X162048000Y-85527000I-225000J0D01*
G01*
G37*
%TD.AperFunction*%
%TO.P,C9,1*%
%TO.N,PANEL_VOLTAGE*%
%TA.AperFunction,SMDPad,CuDef*%
G36*
G01*
X162048000Y-87077000D02*
X161548000Y-87077000D01*
G75*
G02*
X161323000Y-86852000I0J225000D01*
G01*
X161323000Y-86402000D01*
G75*
G02*
X161548000Y-86177000I225000J0D01*
G01*
X162048000Y-86177000D01*
G75*
G02*
X162273000Y-86402000I0J-225000D01*
G01*
X162273000Y-86852000D01*
G75*
G02*
X162048000Y-87077000I-225000J0D01*
G01*
G37*
%TD.AperFunction*%
%TD*%
%TO.P,C8,2*%
%TO.N,GND*%
%TA.AperFunction,SMDPad,CuDef*%
G36*
G01*
X161211499Y-64590500D02*
X162511501Y-64590500D01*
G75*
G02*
X162761500Y-64840499I0J-249999D01*
G01*
X162761500Y-65490501D01*
G75*
G02*
X162511501Y-65740500I-249999J0D01*
G01*
X161211499Y-65740500D01*
G75*
G02*
X160961500Y-65490501I0J249999D01*
G01*
X160961500Y-64840499D01*
G75*
G02*
X161211499Y-64590500I249999J0D01*
G01*
G37*
%TD.AperFunction*%
%TO.P,C8,1*%
%TO.N,VBUS*%
%TA.AperFunction,SMDPad,CuDef*%
G36*
G01*
X161211499Y-61640500D02*
X162511501Y-61640500D01*
G75*
G02*
X162761500Y-61890499I0J-249999D01*
G01*
X162761500Y-62540501D01*
G75*
G02*
X162511501Y-62790500I-249999J0D01*
G01*
X161211499Y-62790500D01*
G75*
G02*
X160961500Y-62540501I0J249999D01*
G01*
X160961500Y-61890499D01*
G75*
G02*
X161211499Y-61640500I249999J0D01*
G01*
G37*
%TD.AperFunction*%
%TD*%
%TO.P,C7,2*%
%TO.N,GND*%
%TA.AperFunction,SMDPad,CuDef*%
G36*
G01*
X159579500Y-63317000D02*
X160079500Y-63317000D01*
G75*
G02*
X160304500Y-63542000I0J-225000D01*
G01*
X160304500Y-63992000D01*
G75*
G02*
X160079500Y-64217000I-225000J0D01*
G01*
X159579500Y-64217000D01*
G75*
G02*
X159354500Y-63992000I0J225000D01*
G01*
X159354500Y-63542000D01*
G75*
G02*
X159579500Y-63317000I225000J0D01*
G01*
G37*
%TD.AperFunction*%
%TO.P,C7,1*%
%TO.N,VBUS*%
%TA.AperFunction,SMDPad,CuDef*%
G36*
G01*
X159579500Y-61767000D02*
X160079500Y-61767000D01*
G75*
G02*
X160304500Y-61992000I0J-225000D01*
G01*
X160304500Y-62442000D01*
G75*
G02*
X160079500Y-62667000I-225000J0D01*
G01*
X159579500Y-62667000D01*
G75*
G02*
X159354500Y-62442000I0J225000D01*
G01*
X159354500Y-61992000D01*
G75*
G02*
X159579500Y-61767000I225000J0D01*
G01*
G37*
%TD.AperFunction*%
%TD*%
%TO.P,C6,2*%
%TO.N,GND*%
%TA.AperFunction,SMDPad,CuDef*%
G36*
G01*
X164902000Y-66044000D02*
X164902000Y-66544000D01*
G75*
G02*
X164677000Y-66769000I-225000J0D01*
G01*
X164227000Y-66769000D01*
G75*
G02*
X164002000Y-66544000I0J225000D01*
G01*
X164002000Y-66044000D01*
G75*
G02*
X164227000Y-65819000I225000J0D01*
G01*
X164677000Y-65819000D01*
G75*
G02*
X164902000Y-66044000I0J-225000D01*
G01*
G37*
%TD.AperFunction*%
%TO.P,C6,1*%
%TO.N,Net-(C5-Pad1)*%
%TA.AperFunction,SMDPad,CuDef*%
G36*
G01*
X166452000Y-66044000D02*
X166452000Y-66544000D01*
G75*
G02*
X166227000Y-66769000I-225000J0D01*
G01*
X165777000Y-66769000D01*
G75*
G02*
X165552000Y-66544000I0J225000D01*
G01*
X165552000Y-66044000D01*
G75*
G02*
X165777000Y-65819000I225000J0D01*
G01*
X166227000Y-65819000D01*
G75*
G02*
X166452000Y-66044000I0J-225000D01*
G01*
G37*
%TD.AperFunction*%
%TD*%
%TO.P,C5,2*%
%TO.N,GND*%
%TA.AperFunction,SMDPad,CuDef*%
G36*
G01*
X163628500Y-67739499D02*
X163628500Y-69039501D01*
G75*
G02*
X163378501Y-69289500I-249999J0D01*
G01*
X162728499Y-69289500D01*
G75*
G02*
X162478500Y-69039501I0J249999D01*
G01*
X162478500Y-67739499D01*
G75*
G02*
X162728499Y-67489500I249999J0D01*
G01*
X163378501Y-67489500D01*
G75*
G02*
X163628500Y-67739499I0J-249999D01*
G01*
G37*
%TD.AperFunction*%
%TO.P,C5,1*%
%TO.N,Net-(C5-Pad1)*%
%TA.AperFunction,SMDPad,CuDef*%
G36*
G01*
X166578500Y-67739499D02*
X166578500Y-69039501D01*
G75*
G02*
X166328501Y-69289500I-249999J0D01*
G01*
X165678499Y-69289500D01*
G75*
G02*
X165428500Y-69039501I0J249999D01*
G01*
X165428500Y-67739499D01*
G75*
G02*
X165678499Y-67489500I249999J0D01*
G01*
X166328501Y-67489500D01*
G75*
G02*
X166578500Y-67739499I0J-249999D01*
G01*
G37*
%TD.AperFunction*%
%TD*%
%TO.P,C4,2*%
%TO.N,GND*%
%TA.AperFunction,SMDPad,CuDef*%
G36*
G01*
X200084500Y-75240000D02*
X199584500Y-75240000D01*
G75*
G02*
X199359500Y-75015000I0J225000D01*
G01*
X199359500Y-74565000D01*
G75*
G02*
X199584500Y-74340000I225000J0D01*
G01*
X200084500Y-74340000D01*
G75*
G02*
X200309500Y-74565000I0J-225000D01*
G01*
X200309500Y-75015000D01*
G75*
G02*
X200084500Y-75240000I-225000J0D01*
G01*
G37*
%TD.AperFunction*%
%TO.P,C4,1*%
%TO.N,PANEL_CURRENT*%
%TA.AperFunction,SMDPad,CuDef*%
G36*
G01*
X200084500Y-76790000D02*
X199584500Y-76790000D01*
G75*
G02*
X199359500Y-76565000I0J225000D01*
G01*
X199359500Y-76115000D01*
G75*
G02*
X199584500Y-75890000I225000J0D01*
G01*
X200084500Y-75890000D01*
G75*
G02*
X200309500Y-76115000I0J-225000D01*
G01*
X200309500Y-76565000D01*
G75*
G02*
X200084500Y-76790000I-225000J0D01*
G01*
G37*
%TD.AperFunction*%
%TD*%
%TO.P,C3,2*%
%TO.N,GND*%
%TA.AperFunction,SMDPad,CuDef*%
G36*
G01*
X175125500Y-76140500D02*
X175125500Y-76640500D01*
G75*
G02*
X174900500Y-76865500I-225000J0D01*
G01*
X174450500Y-76865500D01*
G75*
G02*
X174225500Y-76640500I0J225000D01*
G01*
X174225500Y-76140500D01*
G75*
G02*
X174450500Y-75915500I225000J0D01*
G01*
X174900500Y-75915500D01*
G75*
G02*
X175125500Y-76140500I0J-225000D01*
G01*
G37*
%TD.AperFunction*%
%TO.P,C3,1*%
%TO.N,+3V3*%
%TA.AperFunction,SMDPad,CuDef*%
G36*
G01*
X176675500Y-76140500D02*
X176675500Y-76640500D01*
G75*
G02*
X176450500Y-76865500I-225000J0D01*
G01*
X176000500Y-76865500D01*
G75*
G02*
X175775500Y-76640500I0J225000D01*
G01*
X175775500Y-76140500D01*
G75*
G02*
X176000500Y-75915500I225000J0D01*
G01*
X176450500Y-75915500D01*
G75*
G02*
X176675500Y-76140500I0J-225000D01*
G01*
G37*
%TD.AperFunction*%
%TD*%
%TO.P,C2,2*%
%TO.N,GND*%
%TA.AperFunction,SMDPad,CuDef*%
G36*
G01*
X190051500Y-76840500D02*
X189551500Y-76840500D01*
G75*
G02*
X189326500Y-76615500I0J225000D01*
G01*
X189326500Y-76165500D01*
G75*
G02*
X189551500Y-75940500I225000J0D01*
G01*
X190051500Y-75940500D01*
G75*
G02*
X190276500Y-76165500I0J-225000D01*
G01*
X190276500Y-76615500D01*
G75*
G02*
X190051500Y-76840500I-225000J0D01*
G01*
G37*
%TD.AperFunction*%
%TO.P,C2,1*%
%TO.N,+3V3*%
%TA.AperFunction,SMDPad,CuDef*%
G36*
G01*
X190051500Y-78390500D02*
X189551500Y-78390500D01*
G75*
G02*
X189326500Y-78165500I0J225000D01*
G01*
X189326500Y-77715500D01*
G75*
G02*
X189551500Y-77490500I225000J0D01*
G01*
X190051500Y-77490500D01*
G75*
G02*
X190276500Y-77715500I0J-225000D01*
G01*
X190276500Y-78165500D01*
G75*
G02*
X190051500Y-78390500I-225000J0D01*
G01*
G37*
%TD.AperFunction*%
%TD*%
%TO.P,C1,2*%
%TO.N,GND*%
%TA.AperFunction,SMDPad,CuDef*%
G36*
G01*
X184154000Y-77414000D02*
X184654000Y-77414000D01*
G75*
G02*
X184879000Y-77639000I0J-225000D01*
G01*
X184879000Y-78089000D01*
G75*
G02*
X184654000Y-78314000I-225000J0D01*
G01*
X184154000Y-78314000D01*
G75*
G02*
X183929000Y-78089000I0J225000D01*
G01*
X183929000Y-77639000D01*
G75*
G02*
X184154000Y-77414000I225000J0D01*
G01*
G37*
%TD.AperFunction*%
%TO.P,C1,1*%
%TO.N,+3V3*%
%TA.AperFunction,SMDPad,CuDef*%
G36*
G01*
X184154000Y-75864000D02*
X184654000Y-75864000D01*
G75*
G02*
X184879000Y-76089000I0J-225000D01*
G01*
X184879000Y-76539000D01*
G75*
G02*
X184654000Y-76764000I-225000J0D01*
G01*
X184154000Y-76764000D01*
G75*
G02*
X183929000Y-76539000I0J225000D01*
G01*
X183929000Y-76089000D01*
G75*
G02*
X184154000Y-75864000I225000J0D01*
G01*
G37*
%TD.AperFunction*%
%TD*%
D17*
%TO.N,GND*%
X187134500Y-74676000D03*
X180213000Y-75946000D03*
X180213000Y-80899000D03*
X165100000Y-63119000D03*
X163512500Y-66294000D03*
X162052000Y-68389500D03*
X161861500Y-66230500D03*
X159829500Y-64706500D03*
X173736000Y-76390500D03*
X184404000Y-78740000D03*
X189788800Y-75438000D03*
X198755000Y-74803000D03*
X173228000Y-74549000D03*
X161798000Y-84074000D03*
%TD*%
D18*
%TO.N,GND*%
X187131500Y-74679000D02*
X187134500Y-74676000D01*
X187131500Y-75835500D02*
X187131500Y-74679000D01*
X180213000Y-74625200D02*
X180213000Y-75946000D01*
X180213000Y-79552800D02*
X180213000Y-80899000D01*
X165100000Y-62209500D02*
X165100000Y-63119000D01*
X164452000Y-66294000D02*
X163512500Y-66294000D01*
X163053500Y-68389500D02*
X162052000Y-68389500D01*
X161861500Y-65165500D02*
X161861500Y-66230500D01*
X159829500Y-63767000D02*
X159829500Y-64706500D01*
X174675500Y-76390500D02*
X173736000Y-76390500D01*
X184404000Y-77864000D02*
X184404000Y-78740000D01*
X189801500Y-75450700D02*
X189788800Y-75438000D01*
X189801500Y-76390500D02*
X189801500Y-75450700D01*
X198768000Y-74790000D02*
X198755000Y-74803000D01*
X199834500Y-74790000D02*
X198768000Y-74790000D01*
X173249500Y-74570500D02*
X173228000Y-74549000D01*
X174310500Y-74570500D02*
X173249500Y-74570500D01*
X161798000Y-85077000D02*
X161798000Y-84074000D01*
%TO.N,PANEL_CURRENT*%
X204059000Y-76340000D02*
X204107000Y-76388000D01*
X199834500Y-76340000D02*
X204059000Y-76340000D01*
D19*
%TO.N,Net-(C5-Pad1)*%
X166050000Y-66246000D02*
X166002000Y-66294000D01*
X166050000Y-64409500D02*
X166050000Y-66246000D01*
X166003500Y-66295500D02*
X166002000Y-66294000D01*
X166003500Y-68389500D02*
X166003500Y-66295500D01*
X166041500Y-68427500D02*
X166003500Y-68389500D01*
X167767000Y-68427500D02*
X166041500Y-68427500D01*
D18*
%TO.N,PANEL_VOLTAGE*%
X157647000Y-86601000D02*
X157594000Y-86548000D01*
X163449000Y-86601000D02*
X157647000Y-86601000D01*
%TO.N,Net-(J2-Pad7)*%
X161796000Y-89088000D02*
X161798500Y-89090500D01*
X157594000Y-89088000D02*
X161796000Y-89088000D01*
%TO.N,Net-(J3-Pad8)*%
X204104500Y-78930500D02*
X204107000Y-78928000D01*
X201485000Y-78930500D02*
X204104500Y-78930500D01*
%TO.N,Net-(J3-Pad5)*%
X204104500Y-86550500D02*
X204107000Y-86548000D01*
X201485000Y-86550500D02*
X204104500Y-86550500D01*
D19*
%TO.N,Net-(R1-Pad1)*%
X176547500Y-72707500D02*
X176510500Y-72670500D01*
X178943000Y-72771000D02*
X179006500Y-72707500D01*
X178943000Y-74625200D02*
X178943000Y-72771000D01*
X179006500Y-72707500D02*
X176547500Y-72707500D01*
X185672000Y-72707500D02*
X179006500Y-72707500D01*
D18*
X186181500Y-75835500D02*
X186181500Y-74930500D01*
X186181500Y-74930500D02*
X186880500Y-74231500D01*
X186880500Y-74231500D02*
X186880500Y-73152000D01*
X186436000Y-72707500D02*
X186880500Y-73152000D01*
X185672000Y-72707500D02*
X186436000Y-72707500D01*
%TO.N,Net-(R2-Pad2)*%
X186181500Y-78345500D02*
X186181500Y-79247500D01*
X186181500Y-79247500D02*
X186436000Y-79502000D01*
X186436000Y-79502000D02*
X192405000Y-79502000D01*
X192405000Y-79502000D02*
X192786000Y-79121000D01*
X192786000Y-79121000D02*
X192786000Y-73406000D01*
X192786000Y-73406000D02*
X193167000Y-73025000D01*
X193167000Y-73025000D02*
X201168000Y-73025000D01*
X201485500Y-73342500D02*
X201485500Y-74740000D01*
X201168000Y-73025000D02*
X201485500Y-73342500D01*
%TO.N,Net-(R3-Pad2)*%
X175828100Y-74570500D02*
X175387000Y-74129400D01*
X176510500Y-74570500D02*
X175828100Y-74570500D01*
X175387000Y-74129400D02*
X175387000Y-73088500D01*
X174969000Y-72670500D02*
X174310500Y-72670500D01*
X175387000Y-73088500D02*
X174969000Y-72670500D01*
X174310500Y-72670500D02*
X165073500Y-72670500D01*
X163449000Y-74295000D02*
X163449000Y-85027000D01*
X165073500Y-72670500D02*
X163449000Y-74295000D01*
%TO.N,Net-(J1-Pad1)*%
X187388500Y-74231500D02*
X187388500Y-73152000D01*
D19*
X188517500Y-72628000D02*
X188597000Y-72707500D01*
X188517500Y-63398500D02*
X188517500Y-72628000D01*
X183437500Y-63398500D02*
X188517500Y-63398500D01*
D18*
X188081500Y-75835500D02*
X188081500Y-74924500D01*
X188081500Y-74924500D02*
X187388500Y-74231500D01*
X187833000Y-72707500D02*
X187388500Y-73152000D01*
X188597000Y-72707500D02*
X187833000Y-72707500D01*
%TO.N,Net-(R4-Pad1)*%
X199835000Y-84138000D02*
X199835000Y-78930500D01*
X200212538Y-87254110D02*
X200463610Y-87003038D01*
X200463610Y-84766610D02*
X199835000Y-84138000D01*
X200463610Y-87003038D02*
X200463610Y-84766610D01*
X181483000Y-81914500D02*
X181482500Y-81915000D01*
X181483000Y-79552800D02*
X181483000Y-81914500D01*
X181482500Y-86179220D02*
X182557390Y-87254110D01*
X181482500Y-81915000D02*
X181482500Y-86179220D01*
X182557390Y-87254110D02*
X200212538Y-87254110D01*
%TO.N,Net-(R5-Pad1)*%
X182753000Y-74625200D02*
X182753000Y-77470000D01*
X182753000Y-77470000D02*
X182118000Y-78105000D01*
X182118000Y-78105000D02*
X177546000Y-78105000D01*
X177546000Y-78105000D02*
X176784000Y-78867000D01*
X176784000Y-78867000D02*
X176784000Y-88519000D01*
X176212500Y-89090500D02*
X163448500Y-89090500D01*
X176784000Y-88519000D02*
X176212500Y-89090500D01*
%TO.N,Net-(R6-Pad1)*%
X182753000Y-79552800D02*
X182753000Y-85788500D01*
X183515000Y-86550500D02*
X199835000Y-86550500D01*
X182753000Y-85788500D02*
X183515000Y-86550500D01*
%TD*%
D20*
%TO.N,+3V3*%
X205588000Y-98146000D02*
X156108000Y-98146000D01*
X156108000Y-96586757D01*
X156363000Y-96586757D01*
X156363000Y-96829243D01*
X156410307Y-97067069D01*
X156503102Y-97291097D01*
X156637820Y-97492717D01*
X156809283Y-97664180D01*
X157010903Y-97798898D01*
X157234931Y-97891693D01*
X157472757Y-97939000D01*
X157715243Y-97939000D01*
X157953069Y-97891693D01*
X158177097Y-97798898D01*
X158378717Y-97664180D01*
X158550180Y-97492717D01*
X158684898Y-97291097D01*
X158777693Y-97067069D01*
X158825000Y-96829243D01*
X158825000Y-96586757D01*
X158777693Y-96348931D01*
X158684898Y-96124903D01*
X158550180Y-95923283D01*
X158484897Y-95858000D01*
X202874157Y-95858000D01*
X202874157Y-97558000D01*
X202881513Y-97632689D01*
X202903299Y-97704508D01*
X202938678Y-97770696D01*
X202986289Y-97828711D01*
X203044304Y-97876322D01*
X203110492Y-97911701D01*
X203182311Y-97933487D01*
X203257000Y-97940843D01*
X204957000Y-97940843D01*
X205031689Y-97933487D01*
X205103508Y-97911701D01*
X205169696Y-97876322D01*
X205227711Y-97828711D01*
X205275322Y-97770696D01*
X205310701Y-97704508D01*
X205332487Y-97632689D01*
X205339843Y-97558000D01*
X205339843Y-95858000D01*
X205332487Y-95783311D01*
X205310701Y-95711492D01*
X205275322Y-95645304D01*
X205227711Y-95587289D01*
X205169696Y-95539678D01*
X205103508Y-95504299D01*
X205031689Y-95482513D01*
X204957000Y-95475157D01*
X203257000Y-95475157D01*
X203182311Y-95482513D01*
X203110492Y-95504299D01*
X203044304Y-95539678D01*
X202986289Y-95587289D01*
X202938678Y-95645304D01*
X202903299Y-95711492D01*
X202881513Y-95783311D01*
X202874157Y-95858000D01*
X158484897Y-95858000D01*
X158378717Y-95751820D01*
X158177097Y-95617102D01*
X157953069Y-95524307D01*
X157715243Y-95477000D01*
X157472757Y-95477000D01*
X157234931Y-95524307D01*
X157010903Y-95617102D01*
X156809283Y-95751820D01*
X156637820Y-95923283D01*
X156503102Y-96124903D01*
X156410307Y-96348931D01*
X156363000Y-96586757D01*
X156108000Y-96586757D01*
X156108000Y-94046757D01*
X156363000Y-94046757D01*
X156363000Y-94289243D01*
X156410307Y-94527069D01*
X156503102Y-94751097D01*
X156637820Y-94952717D01*
X156809283Y-95124180D01*
X157010903Y-95258898D01*
X157234931Y-95351693D01*
X157472757Y-95399000D01*
X157715243Y-95399000D01*
X157953069Y-95351693D01*
X158177097Y-95258898D01*
X158378717Y-95124180D01*
X158550180Y-94952717D01*
X158684898Y-94751097D01*
X158777693Y-94527069D01*
X158825000Y-94289243D01*
X158825000Y-94046757D01*
X202876000Y-94046757D01*
X202876000Y-94289243D01*
X202923307Y-94527069D01*
X203016102Y-94751097D01*
X203150820Y-94952717D01*
X203322283Y-95124180D01*
X203523903Y-95258898D01*
X203747931Y-95351693D01*
X203985757Y-95399000D01*
X204228243Y-95399000D01*
X204466069Y-95351693D01*
X204690097Y-95258898D01*
X204891717Y-95124180D01*
X205063180Y-94952717D01*
X205197898Y-94751097D01*
X205290693Y-94527069D01*
X205338000Y-94289243D01*
X205338000Y-94046757D01*
X205290693Y-93808931D01*
X205197898Y-93584903D01*
X205063180Y-93383283D01*
X204891717Y-93211820D01*
X204690097Y-93077102D01*
X204466069Y-92984307D01*
X204228243Y-92937000D01*
X203985757Y-92937000D01*
X203747931Y-92984307D01*
X203523903Y-93077102D01*
X203322283Y-93211820D01*
X203150820Y-93383283D01*
X203016102Y-93584903D01*
X202923307Y-93808931D01*
X202876000Y-94046757D01*
X158825000Y-94046757D01*
X158777693Y-93808931D01*
X158684898Y-93584903D01*
X158550180Y-93383283D01*
X158378717Y-93211820D01*
X158177097Y-93077102D01*
X157953069Y-92984307D01*
X157715243Y-92937000D01*
X157472757Y-92937000D01*
X157234931Y-92984307D01*
X157010903Y-93077102D01*
X156809283Y-93211820D01*
X156637820Y-93383283D01*
X156503102Y-93584903D01*
X156410307Y-93808931D01*
X156363000Y-94046757D01*
X156108000Y-94046757D01*
X156108000Y-91506757D01*
X156363000Y-91506757D01*
X156363000Y-91749243D01*
X156410307Y-91987069D01*
X156503102Y-92211097D01*
X156637820Y-92412717D01*
X156809283Y-92584180D01*
X157010903Y-92718898D01*
X157234931Y-92811693D01*
X157472757Y-92859000D01*
X157715243Y-92859000D01*
X157953069Y-92811693D01*
X158177097Y-92718898D01*
X158378717Y-92584180D01*
X158550180Y-92412717D01*
X158684898Y-92211097D01*
X158777693Y-91987069D01*
X158825000Y-91749243D01*
X158825000Y-91506757D01*
X202876000Y-91506757D01*
X202876000Y-91749243D01*
X202923307Y-91987069D01*
X203016102Y-92211097D01*
X203150820Y-92412717D01*
X203322283Y-92584180D01*
X203523903Y-92718898D01*
X203747931Y-92811693D01*
X203985757Y-92859000D01*
X204228243Y-92859000D01*
X204466069Y-92811693D01*
X204690097Y-92718898D01*
X204891717Y-92584180D01*
X205063180Y-92412717D01*
X205197898Y-92211097D01*
X205290693Y-91987069D01*
X205338000Y-91749243D01*
X205338000Y-91506757D01*
X205290693Y-91268931D01*
X205197898Y-91044903D01*
X205063180Y-90843283D01*
X204891717Y-90671820D01*
X204690097Y-90537102D01*
X204466069Y-90444307D01*
X204228243Y-90397000D01*
X203985757Y-90397000D01*
X203747931Y-90444307D01*
X203523903Y-90537102D01*
X203322283Y-90671820D01*
X203150820Y-90843283D01*
X203016102Y-91044903D01*
X202923307Y-91268931D01*
X202876000Y-91506757D01*
X158825000Y-91506757D01*
X158777693Y-91268931D01*
X158684898Y-91044903D01*
X158550180Y-90843283D01*
X158378717Y-90671820D01*
X158177097Y-90537102D01*
X157953069Y-90444307D01*
X157715243Y-90397000D01*
X157472757Y-90397000D01*
X157234931Y-90444307D01*
X157010903Y-90537102D01*
X156809283Y-90671820D01*
X156637820Y-90843283D01*
X156503102Y-91044903D01*
X156410307Y-91268931D01*
X156363000Y-91506757D01*
X156108000Y-91506757D01*
X156108000Y-88966757D01*
X156363000Y-88966757D01*
X156363000Y-89209243D01*
X156410307Y-89447069D01*
X156503102Y-89671097D01*
X156637820Y-89872717D01*
X156809283Y-90044180D01*
X157010903Y-90178898D01*
X157234931Y-90271693D01*
X157472757Y-90319000D01*
X157715243Y-90319000D01*
X157953069Y-90271693D01*
X158177097Y-90178898D01*
X158378717Y-90044180D01*
X158550180Y-89872717D01*
X158684898Y-89671097D01*
X158737046Y-89545200D01*
X161046875Y-89545200D01*
X161060023Y-89588544D01*
X161113884Y-89689310D01*
X161186368Y-89777632D01*
X161274690Y-89850116D01*
X161375456Y-89903977D01*
X161484793Y-89937144D01*
X161598500Y-89948343D01*
X161998500Y-89948343D01*
X162112207Y-89937144D01*
X162221544Y-89903977D01*
X162322310Y-89850116D01*
X162410632Y-89777632D01*
X162483116Y-89689310D01*
X162536977Y-89588544D01*
X162570144Y-89479207D01*
X162581343Y-89365500D01*
X162581343Y-88815500D01*
X162570144Y-88701793D01*
X162536977Y-88592456D01*
X162483116Y-88491690D01*
X162410632Y-88403368D01*
X162322310Y-88330884D01*
X162221544Y-88277023D01*
X162112207Y-88243856D01*
X161998500Y-88232657D01*
X161598500Y-88232657D01*
X161484793Y-88243856D01*
X161375456Y-88277023D01*
X161274690Y-88330884D01*
X161186368Y-88403368D01*
X161113884Y-88491690D01*
X161060023Y-88592456D01*
X161048391Y-88630800D01*
X158737046Y-88630800D01*
X158684898Y-88504903D01*
X158550180Y-88303283D01*
X158378717Y-88131820D01*
X158177097Y-87997102D01*
X157953069Y-87904307D01*
X157715243Y-87857000D01*
X157472757Y-87857000D01*
X157234931Y-87904307D01*
X157010903Y-87997102D01*
X156809283Y-88131820D01*
X156637820Y-88303283D01*
X156503102Y-88504903D01*
X156410307Y-88728931D01*
X156363000Y-88966757D01*
X156108000Y-88966757D01*
X156108000Y-86426757D01*
X156363000Y-86426757D01*
X156363000Y-86669243D01*
X156410307Y-86907069D01*
X156503102Y-87131097D01*
X156637820Y-87332717D01*
X156809283Y-87504180D01*
X157010903Y-87638898D01*
X157234931Y-87731693D01*
X157472757Y-87779000D01*
X157715243Y-87779000D01*
X157953069Y-87731693D01*
X158177097Y-87638898D01*
X158378717Y-87504180D01*
X158550180Y-87332717D01*
X158684898Y-87131097D01*
X158715093Y-87058200D01*
X160978414Y-87058200D01*
X160986426Y-87084611D01*
X161042597Y-87189699D01*
X161118190Y-87281810D01*
X161210301Y-87357403D01*
X161315389Y-87413574D01*
X161429416Y-87448163D01*
X161548000Y-87459843D01*
X162048000Y-87459843D01*
X162166584Y-87448163D01*
X162280611Y-87413574D01*
X162385699Y-87357403D01*
X162477810Y-87281810D01*
X162553403Y-87189699D01*
X162609574Y-87084611D01*
X162617586Y-87058200D01*
X162622830Y-87058200D01*
X162635523Y-87100044D01*
X162689384Y-87200810D01*
X162761868Y-87289132D01*
X162850190Y-87361616D01*
X162950956Y-87415477D01*
X163060293Y-87448644D01*
X163174000Y-87459843D01*
X163724000Y-87459843D01*
X163837707Y-87448644D01*
X163947044Y-87415477D01*
X164047810Y-87361616D01*
X164136132Y-87289132D01*
X164208616Y-87200810D01*
X164262477Y-87100044D01*
X164295644Y-86990707D01*
X164306843Y-86877000D01*
X164306843Y-86477000D01*
X164295644Y-86363293D01*
X164262477Y-86253956D01*
X164208616Y-86153190D01*
X164136132Y-86064868D01*
X164047810Y-85992384D01*
X163947044Y-85938523D01*
X163837707Y-85905356D01*
X163724000Y-85894157D01*
X163174000Y-85894157D01*
X163060293Y-85905356D01*
X162950956Y-85938523D01*
X162850190Y-85992384D01*
X162761868Y-86064868D01*
X162697090Y-86143800D01*
X162595896Y-86143800D01*
X162553403Y-86064301D01*
X162477810Y-85972190D01*
X162385699Y-85896597D01*
X162302264Y-85852000D01*
X162385699Y-85807403D01*
X162477810Y-85731810D01*
X162553403Y-85639699D01*
X162609574Y-85534611D01*
X162635375Y-85449555D01*
X162635523Y-85450044D01*
X162689384Y-85550810D01*
X162761868Y-85639132D01*
X162850190Y-85711616D01*
X162950956Y-85765477D01*
X163060293Y-85798644D01*
X163174000Y-85809843D01*
X163724000Y-85809843D01*
X163837707Y-85798644D01*
X163947044Y-85765477D01*
X164047810Y-85711616D01*
X164136132Y-85639132D01*
X164208616Y-85550810D01*
X164262477Y-85450044D01*
X164295644Y-85340707D01*
X164306843Y-85227000D01*
X164306843Y-84827000D01*
X164295644Y-84713293D01*
X164262477Y-84603956D01*
X164208616Y-84503190D01*
X164136132Y-84414868D01*
X164047810Y-84342384D01*
X163947044Y-84288523D01*
X163906200Y-84276133D01*
X163906200Y-76327958D01*
X173101000Y-76327958D01*
X173101000Y-76453042D01*
X173125403Y-76575723D01*
X173173271Y-76691285D01*
X173242764Y-76795289D01*
X173331211Y-76883736D01*
X173435215Y-76953229D01*
X173550777Y-77001097D01*
X173673458Y-77025500D01*
X173798542Y-77025500D01*
X173921223Y-77001097D01*
X173953065Y-76987908D01*
X174020690Y-77070310D01*
X174112801Y-77145903D01*
X174217889Y-77202074D01*
X174331916Y-77236663D01*
X174450500Y-77248343D01*
X174900500Y-77248343D01*
X175019084Y-77236663D01*
X175133111Y-77202074D01*
X175212657Y-77159555D01*
X175244963Y-77219994D01*
X175324315Y-77316685D01*
X175421006Y-77396037D01*
X175531320Y-77455002D01*
X175651018Y-77491312D01*
X175775500Y-77503572D01*
X175939750Y-77500500D01*
X176098500Y-77341750D01*
X176098500Y-76517500D01*
X176352500Y-76517500D01*
X176352500Y-77341750D01*
X176511250Y-77500500D01*
X176675500Y-77503572D01*
X176799982Y-77491312D01*
X176919680Y-77455002D01*
X177029994Y-77396037D01*
X177126685Y-77316685D01*
X177206037Y-77219994D01*
X177265002Y-77109680D01*
X177301312Y-76989982D01*
X177313572Y-76865500D01*
X177310500Y-76676250D01*
X177151750Y-76517500D01*
X176352500Y-76517500D01*
X176098500Y-76517500D01*
X176078500Y-76517500D01*
X176078500Y-76263500D01*
X176098500Y-76263500D01*
X176098500Y-75439250D01*
X175939750Y-75280500D01*
X175775500Y-75277428D01*
X175651018Y-75289688D01*
X175531320Y-75325998D01*
X175421006Y-75384963D01*
X175324315Y-75464315D01*
X175244963Y-75561006D01*
X175212657Y-75621445D01*
X175133111Y-75578926D01*
X175019084Y-75544337D01*
X174900500Y-75532657D01*
X174450500Y-75532657D01*
X174331916Y-75544337D01*
X174217889Y-75578926D01*
X174112801Y-75635097D01*
X174020690Y-75710690D01*
X173953065Y-75793092D01*
X173921223Y-75779903D01*
X173798542Y-75755500D01*
X173673458Y-75755500D01*
X173550777Y-75779903D01*
X173435215Y-75827771D01*
X173331211Y-75897264D01*
X173242764Y-75985711D01*
X173173271Y-76089715D01*
X173125403Y-76205277D01*
X173101000Y-76327958D01*
X163906200Y-76327958D01*
X163906200Y-74484377D01*
X165262878Y-73127700D01*
X173422459Y-73127700D01*
X173426799Y-73142008D01*
X173462178Y-73208196D01*
X173509789Y-73266211D01*
X173567804Y-73313822D01*
X173633992Y-73349201D01*
X173705811Y-73370987D01*
X173780500Y-73378343D01*
X174840500Y-73378343D01*
X174915189Y-73370987D01*
X174929801Y-73366555D01*
X174929800Y-73874445D01*
X174915189Y-73870013D01*
X174840500Y-73862657D01*
X173780500Y-73862657D01*
X173705811Y-73870013D01*
X173633992Y-73891799D01*
X173567804Y-73927178D01*
X173509789Y-73974789D01*
X173507576Y-73977486D01*
X173413223Y-73938403D01*
X173290542Y-73914000D01*
X173165458Y-73914000D01*
X173042777Y-73938403D01*
X172927215Y-73986271D01*
X172823211Y-74055764D01*
X172734764Y-74144211D01*
X172665271Y-74248215D01*
X172617403Y-74363777D01*
X172593000Y-74486458D01*
X172593000Y-74611542D01*
X172617403Y-74734223D01*
X172665271Y-74849785D01*
X172734764Y-74953789D01*
X172823211Y-75042236D01*
X172927215Y-75111729D01*
X173042777Y-75159597D01*
X173165458Y-75184000D01*
X173290542Y-75184000D01*
X173413223Y-75159597D01*
X173481240Y-75131423D01*
X173509789Y-75166211D01*
X173567804Y-75213822D01*
X173633992Y-75249201D01*
X173705811Y-75270987D01*
X173780500Y-75278343D01*
X174840500Y-75278343D01*
X174915189Y-75270987D01*
X174987008Y-75249201D01*
X175053196Y-75213822D01*
X175111211Y-75166211D01*
X175158822Y-75108196D01*
X175194201Y-75042008D01*
X175215987Y-74970189D01*
X175223343Y-74895500D01*
X175223343Y-74612321D01*
X175488934Y-74877913D01*
X175503247Y-74895353D01*
X175520686Y-74909665D01*
X175520692Y-74909671D01*
X175572864Y-74952487D01*
X175604959Y-74969642D01*
X175605013Y-74970189D01*
X175626799Y-75042008D01*
X175662178Y-75108196D01*
X175709789Y-75166211D01*
X175767804Y-75213822D01*
X175833992Y-75249201D01*
X175905811Y-75270987D01*
X175980500Y-75278343D01*
X176626578Y-75278343D01*
X176511250Y-75280500D01*
X176352500Y-75439250D01*
X176352500Y-76263500D01*
X177151750Y-76263500D01*
X177310500Y-76104750D01*
X177313572Y-75915500D01*
X177301312Y-75791018D01*
X177265002Y-75671320D01*
X177206037Y-75561006D01*
X177126685Y-75464315D01*
X177029994Y-75384963D01*
X176919680Y-75325998D01*
X176799982Y-75289688D01*
X176684790Y-75278343D01*
X177040500Y-75278343D01*
X177115189Y-75270987D01*
X177187008Y-75249201D01*
X177253196Y-75213822D01*
X177311211Y-75166211D01*
X177358822Y-75108196D01*
X177394201Y-75042008D01*
X177415987Y-74970189D01*
X177423343Y-74895500D01*
X177423343Y-74452772D01*
X177491685Y-74396685D01*
X177571037Y-74299994D01*
X177630002Y-74189680D01*
X177666312Y-74069982D01*
X177678572Y-73945500D01*
X177675500Y-73906250D01*
X177516750Y-73747500D01*
X176637500Y-73747500D01*
X176637500Y-73767500D01*
X176383500Y-73767500D01*
X176383500Y-73747500D01*
X176363500Y-73747500D01*
X176363500Y-73493500D01*
X176383500Y-73493500D01*
X176383500Y-73473500D01*
X176637500Y-73473500D01*
X176637500Y-73493500D01*
X177516750Y-73493500D01*
X177667750Y-73342500D01*
X178308001Y-73342500D01*
X178308001Y-73494350D01*
X178288113Y-73559911D01*
X178280757Y-73634600D01*
X178280757Y-75615800D01*
X178288113Y-75690489D01*
X178309899Y-75762308D01*
X178345278Y-75828496D01*
X178392889Y-75886511D01*
X178450904Y-75934122D01*
X178517092Y-75969501D01*
X178588911Y-75991287D01*
X178663600Y-75998643D01*
X179222400Y-75998643D01*
X179297089Y-75991287D01*
X179368908Y-75969501D01*
X179435096Y-75934122D01*
X179493111Y-75886511D01*
X179540722Y-75828496D01*
X179576101Y-75762308D01*
X179578000Y-75756048D01*
X179579899Y-75762308D01*
X179596078Y-75792576D01*
X179578000Y-75883458D01*
X179578000Y-76008542D01*
X179602403Y-76131223D01*
X179650271Y-76246785D01*
X179719764Y-76350789D01*
X179808211Y-76439236D01*
X179912215Y-76508729D01*
X180027777Y-76556597D01*
X180150458Y-76581000D01*
X180275542Y-76581000D01*
X180398223Y-76556597D01*
X180513785Y-76508729D01*
X180617789Y-76439236D01*
X180706236Y-76350789D01*
X180775729Y-76246785D01*
X180823597Y-76131223D01*
X180824575Y-76126304D01*
X180847820Y-76145475D01*
X180957990Y-76204707D01*
X181077600Y-76241308D01*
X181197250Y-76250800D01*
X181356000Y-76092050D01*
X181356000Y-74752200D01*
X181336000Y-74752200D01*
X181336000Y-74498200D01*
X181356000Y-74498200D01*
X181356000Y-74478200D01*
X181610000Y-74478200D01*
X181610000Y-74498200D01*
X181630000Y-74498200D01*
X181630000Y-74752200D01*
X181610000Y-74752200D01*
X181610000Y-76092050D01*
X181768750Y-76250800D01*
X181888400Y-76241308D01*
X182008010Y-76204707D01*
X182118180Y-76145475D01*
X182214679Y-76065889D01*
X182293796Y-75969005D01*
X182295800Y-75965233D01*
X182295801Y-77280621D01*
X181928623Y-77647800D01*
X177568450Y-77647800D01*
X177546000Y-77645589D01*
X177523550Y-77647800D01*
X177523540Y-77647800D01*
X177456373Y-77654415D01*
X177390249Y-77674474D01*
X177370190Y-77680559D01*
X177290764Y-77723013D01*
X177238592Y-77765829D01*
X177238586Y-77765835D01*
X177221147Y-77780147D01*
X177206835Y-77797587D01*
X176476597Y-78527826D01*
X176459147Y-78542147D01*
X176402013Y-78611765D01*
X176359559Y-78691192D01*
X176333415Y-78777374D01*
X176326800Y-78844541D01*
X176326800Y-78844550D01*
X176324589Y-78867000D01*
X176326800Y-78889450D01*
X176326801Y-88329621D01*
X176023123Y-88633300D01*
X164199367Y-88633300D01*
X164186977Y-88592456D01*
X164133116Y-88491690D01*
X164060632Y-88403368D01*
X163972310Y-88330884D01*
X163871544Y-88277023D01*
X163762207Y-88243856D01*
X163648500Y-88232657D01*
X163248500Y-88232657D01*
X163134793Y-88243856D01*
X163025456Y-88277023D01*
X162924690Y-88330884D01*
X162836368Y-88403368D01*
X162763884Y-88491690D01*
X162710023Y-88592456D01*
X162676856Y-88701793D01*
X162665657Y-88815500D01*
X162665657Y-89365500D01*
X162676856Y-89479207D01*
X162710023Y-89588544D01*
X162763884Y-89689310D01*
X162836368Y-89777632D01*
X162924690Y-89850116D01*
X163025456Y-89903977D01*
X163134793Y-89937144D01*
X163248500Y-89948343D01*
X163648500Y-89948343D01*
X163762207Y-89937144D01*
X163871544Y-89903977D01*
X163972310Y-89850116D01*
X164060632Y-89777632D01*
X164133116Y-89689310D01*
X164186977Y-89588544D01*
X164199367Y-89547700D01*
X176190050Y-89547700D01*
X176212500Y-89549911D01*
X176234950Y-89547700D01*
X176234960Y-89547700D01*
X176302127Y-89541085D01*
X176388309Y-89514941D01*
X176467736Y-89472487D01*
X176537353Y-89415353D01*
X176551674Y-89397903D01*
X176982820Y-88966757D01*
X202876000Y-88966757D01*
X202876000Y-89209243D01*
X202923307Y-89447069D01*
X203016102Y-89671097D01*
X203150820Y-89872717D01*
X203322283Y-90044180D01*
X203523903Y-90178898D01*
X203747931Y-90271693D01*
X203985757Y-90319000D01*
X204228243Y-90319000D01*
X204466069Y-90271693D01*
X204690097Y-90178898D01*
X204891717Y-90044180D01*
X205063180Y-89872717D01*
X205197898Y-89671097D01*
X205290693Y-89447069D01*
X205338000Y-89209243D01*
X205338000Y-88966757D01*
X205290693Y-88728931D01*
X205197898Y-88504903D01*
X205063180Y-88303283D01*
X204891717Y-88131820D01*
X204690097Y-87997102D01*
X204466069Y-87904307D01*
X204228243Y-87857000D01*
X203985757Y-87857000D01*
X203747931Y-87904307D01*
X203523903Y-87997102D01*
X203322283Y-88131820D01*
X203150820Y-88303283D01*
X203016102Y-88504903D01*
X202923307Y-88728931D01*
X202876000Y-88966757D01*
X176982820Y-88966757D01*
X177091408Y-88858170D01*
X177108853Y-88843853D01*
X177165987Y-88774236D01*
X177208441Y-88694809D01*
X177234585Y-88608627D01*
X177241200Y-88541460D01*
X177241200Y-88541451D01*
X177243411Y-88519001D01*
X177241200Y-88496551D01*
X177241200Y-82390000D01*
X178794428Y-82390000D01*
X178806688Y-82514482D01*
X178842998Y-82634180D01*
X178901963Y-82744494D01*
X178981315Y-82841185D01*
X179078006Y-82920537D01*
X179188320Y-82979502D01*
X179308018Y-83015812D01*
X179432500Y-83028072D01*
X179546750Y-83025000D01*
X179705500Y-82866250D01*
X179705500Y-82042000D01*
X178956250Y-82042000D01*
X178797500Y-82200750D01*
X178794428Y-82390000D01*
X177241200Y-82390000D01*
X177241200Y-79056377D01*
X177735379Y-78562200D01*
X178280757Y-78562200D01*
X178280757Y-80543400D01*
X178288113Y-80618089D01*
X178309899Y-80689908D01*
X178345278Y-80756096D01*
X178392889Y-80814111D01*
X178450904Y-80861722D01*
X178517092Y-80897101D01*
X178588911Y-80918887D01*
X178663600Y-80926243D01*
X179057559Y-80926243D01*
X178981315Y-80988815D01*
X178901963Y-81085506D01*
X178842998Y-81195820D01*
X178806688Y-81315518D01*
X178794428Y-81440000D01*
X178797500Y-81629250D01*
X178956250Y-81788000D01*
X179705500Y-81788000D01*
X179705500Y-81768000D01*
X179959500Y-81768000D01*
X179959500Y-81788000D01*
X179979500Y-81788000D01*
X179979500Y-82042000D01*
X179959500Y-82042000D01*
X179959500Y-82866250D01*
X180118250Y-83025000D01*
X180232500Y-83028072D01*
X180356982Y-83015812D01*
X180476680Y-82979502D01*
X180586994Y-82920537D01*
X180683685Y-82841185D01*
X180763037Y-82744494D01*
X180822002Y-82634180D01*
X180842153Y-82567752D01*
X180870368Y-82602132D01*
X180958690Y-82674616D01*
X181025300Y-82710220D01*
X181025301Y-86156760D01*
X181023089Y-86179220D01*
X181025301Y-86201680D01*
X181031916Y-86268847D01*
X181039172Y-86292765D01*
X181058060Y-86355029D01*
X181096399Y-86426757D01*
X181100514Y-86434456D01*
X181157648Y-86504073D01*
X181175093Y-86518390D01*
X182218220Y-87561518D01*
X182232537Y-87578963D01*
X182302154Y-87636097D01*
X182381581Y-87678551D01*
X182467763Y-87704695D01*
X182534930Y-87711310D01*
X182534939Y-87711310D01*
X182557389Y-87713521D01*
X182579839Y-87711310D01*
X200190088Y-87711310D01*
X200212538Y-87713521D01*
X200234988Y-87711310D01*
X200234998Y-87711310D01*
X200302165Y-87704695D01*
X200388347Y-87678551D01*
X200467774Y-87636097D01*
X200537391Y-87578963D01*
X200551712Y-87561513D01*
X200771014Y-87342211D01*
X200788463Y-87327891D01*
X200845597Y-87258274D01*
X200863035Y-87225650D01*
X200872868Y-87237632D01*
X200961190Y-87310116D01*
X201061956Y-87363977D01*
X201171293Y-87397144D01*
X201285000Y-87408343D01*
X201685000Y-87408343D01*
X201798707Y-87397144D01*
X201908044Y-87363977D01*
X202008810Y-87310116D01*
X202097132Y-87237632D01*
X202169616Y-87149310D01*
X202223477Y-87048544D01*
X202235867Y-87007700D01*
X202964990Y-87007700D01*
X203016102Y-87131097D01*
X203150820Y-87332717D01*
X203322283Y-87504180D01*
X203523903Y-87638898D01*
X203747931Y-87731693D01*
X203985757Y-87779000D01*
X204228243Y-87779000D01*
X204466069Y-87731693D01*
X204690097Y-87638898D01*
X204891717Y-87504180D01*
X205063180Y-87332717D01*
X205197898Y-87131097D01*
X205290693Y-86907069D01*
X205338000Y-86669243D01*
X205338000Y-86426757D01*
X205290693Y-86188931D01*
X205197898Y-85964903D01*
X205063180Y-85763283D01*
X204891717Y-85591820D01*
X204690097Y-85457102D01*
X204466069Y-85364307D01*
X204228243Y-85317000D01*
X203985757Y-85317000D01*
X203747931Y-85364307D01*
X203523903Y-85457102D01*
X203322283Y-85591820D01*
X203150820Y-85763283D01*
X203016102Y-85964903D01*
X202962918Y-86093300D01*
X202235867Y-86093300D01*
X202223477Y-86052456D01*
X202169616Y-85951690D01*
X202097132Y-85863368D01*
X202008810Y-85790884D01*
X201908044Y-85737023D01*
X201798707Y-85703856D01*
X201685000Y-85692657D01*
X201285000Y-85692657D01*
X201171293Y-85703856D01*
X201061956Y-85737023D01*
X200961190Y-85790884D01*
X200920810Y-85824023D01*
X200920810Y-84789060D01*
X200923021Y-84766610D01*
X200920810Y-84744160D01*
X200920810Y-84744150D01*
X200914195Y-84676983D01*
X200888051Y-84590801D01*
X200845597Y-84511374D01*
X200788463Y-84441757D01*
X200771018Y-84427440D01*
X200292200Y-83948623D01*
X200292200Y-83886757D01*
X202876000Y-83886757D01*
X202876000Y-84129243D01*
X202923307Y-84367069D01*
X203016102Y-84591097D01*
X203150820Y-84792717D01*
X203322283Y-84964180D01*
X203523903Y-85098898D01*
X203747931Y-85191693D01*
X203985757Y-85239000D01*
X204228243Y-85239000D01*
X204466069Y-85191693D01*
X204690097Y-85098898D01*
X204891717Y-84964180D01*
X205063180Y-84792717D01*
X205197898Y-84591097D01*
X205290693Y-84367069D01*
X205338000Y-84129243D01*
X205338000Y-83886757D01*
X205290693Y-83648931D01*
X205197898Y-83424903D01*
X205063180Y-83223283D01*
X204891717Y-83051820D01*
X204690097Y-82917102D01*
X204466069Y-82824307D01*
X204228243Y-82777000D01*
X203985757Y-82777000D01*
X203747931Y-82824307D01*
X203523903Y-82917102D01*
X203322283Y-83051820D01*
X203150820Y-83223283D01*
X203016102Y-83424903D01*
X202923307Y-83648931D01*
X202876000Y-83886757D01*
X200292200Y-83886757D01*
X200292200Y-81346757D01*
X202876000Y-81346757D01*
X202876000Y-81589243D01*
X202923307Y-81827069D01*
X203016102Y-82051097D01*
X203150820Y-82252717D01*
X203322283Y-82424180D01*
X203523903Y-82558898D01*
X203747931Y-82651693D01*
X203985757Y-82699000D01*
X204228243Y-82699000D01*
X204466069Y-82651693D01*
X204690097Y-82558898D01*
X204891717Y-82424180D01*
X205063180Y-82252717D01*
X205197898Y-82051097D01*
X205290693Y-81827069D01*
X205338000Y-81589243D01*
X205338000Y-81346757D01*
X205290693Y-81108931D01*
X205197898Y-80884903D01*
X205063180Y-80683283D01*
X204891717Y-80511820D01*
X204690097Y-80377102D01*
X204466069Y-80284307D01*
X204228243Y-80237000D01*
X203985757Y-80237000D01*
X203747931Y-80284307D01*
X203523903Y-80377102D01*
X203322283Y-80511820D01*
X203150820Y-80683283D01*
X203016102Y-80884903D01*
X202923307Y-81108931D01*
X202876000Y-81346757D01*
X200292200Y-81346757D01*
X200292200Y-79725720D01*
X200358810Y-79690116D01*
X200447132Y-79617632D01*
X200519616Y-79529310D01*
X200573477Y-79428544D01*
X200606644Y-79319207D01*
X200617843Y-79205500D01*
X200617843Y-78655500D01*
X200702157Y-78655500D01*
X200702157Y-79205500D01*
X200713356Y-79319207D01*
X200746523Y-79428544D01*
X200800384Y-79529310D01*
X200872868Y-79617632D01*
X200961190Y-79690116D01*
X201061956Y-79743977D01*
X201171293Y-79777144D01*
X201285000Y-79788343D01*
X201685000Y-79788343D01*
X201798707Y-79777144D01*
X201908044Y-79743977D01*
X202008810Y-79690116D01*
X202097132Y-79617632D01*
X202169616Y-79529310D01*
X202223477Y-79428544D01*
X202235867Y-79387700D01*
X202964990Y-79387700D01*
X203016102Y-79511097D01*
X203150820Y-79712717D01*
X203322283Y-79884180D01*
X203523903Y-80018898D01*
X203747931Y-80111693D01*
X203985757Y-80159000D01*
X204228243Y-80159000D01*
X204466069Y-80111693D01*
X204690097Y-80018898D01*
X204891717Y-79884180D01*
X205063180Y-79712717D01*
X205197898Y-79511097D01*
X205290693Y-79287069D01*
X205338000Y-79049243D01*
X205338000Y-78806757D01*
X205290693Y-78568931D01*
X205197898Y-78344903D01*
X205063180Y-78143283D01*
X204891717Y-77971820D01*
X204690097Y-77837102D01*
X204466069Y-77744307D01*
X204228243Y-77697000D01*
X203985757Y-77697000D01*
X203747931Y-77744307D01*
X203523903Y-77837102D01*
X203322283Y-77971820D01*
X203150820Y-78143283D01*
X203016102Y-78344903D01*
X202962918Y-78473300D01*
X202235867Y-78473300D01*
X202223477Y-78432456D01*
X202169616Y-78331690D01*
X202097132Y-78243368D01*
X202008810Y-78170884D01*
X201908044Y-78117023D01*
X201798707Y-78083856D01*
X201685000Y-78072657D01*
X201285000Y-78072657D01*
X201171293Y-78083856D01*
X201061956Y-78117023D01*
X200961190Y-78170884D01*
X200872868Y-78243368D01*
X200800384Y-78331690D01*
X200746523Y-78432456D01*
X200713356Y-78541793D01*
X200702157Y-78655500D01*
X200617843Y-78655500D01*
X200606644Y-78541793D01*
X200573477Y-78432456D01*
X200519616Y-78331690D01*
X200447132Y-78243368D01*
X200358810Y-78170884D01*
X200258044Y-78117023D01*
X200148707Y-78083856D01*
X200035000Y-78072657D01*
X199635000Y-78072657D01*
X199521293Y-78083856D01*
X199411956Y-78117023D01*
X199311190Y-78170884D01*
X199222868Y-78243368D01*
X199150384Y-78331690D01*
X199096523Y-78432456D01*
X199063356Y-78541793D01*
X199052157Y-78655500D01*
X199052157Y-79205500D01*
X199063356Y-79319207D01*
X199096523Y-79428544D01*
X199150384Y-79529310D01*
X199222868Y-79617632D01*
X199311190Y-79690116D01*
X199377801Y-79725721D01*
X199377800Y-84115550D01*
X199375589Y-84138000D01*
X199377800Y-84160450D01*
X199377800Y-84160459D01*
X199384415Y-84227626D01*
X199410559Y-84313808D01*
X199453013Y-84393235D01*
X199510147Y-84462853D01*
X199527597Y-84477174D01*
X200006411Y-84955989D01*
X200006411Y-85692657D01*
X199635000Y-85692657D01*
X199521293Y-85703856D01*
X199411956Y-85737023D01*
X199311190Y-85790884D01*
X199222868Y-85863368D01*
X199150384Y-85951690D01*
X199096523Y-86052456D01*
X199084133Y-86093300D01*
X183704379Y-86093300D01*
X183210200Y-85599123D01*
X183210200Y-80880375D01*
X183245096Y-80861722D01*
X183303111Y-80814111D01*
X183350722Y-80756096D01*
X183386101Y-80689908D01*
X183407887Y-80618089D01*
X183415243Y-80543400D01*
X183415243Y-78562200D01*
X183407887Y-78487511D01*
X183386101Y-78415692D01*
X183350722Y-78349504D01*
X183303111Y-78291489D01*
X183245096Y-78243878D01*
X183178908Y-78208499D01*
X183107089Y-78186713D01*
X183032400Y-78179357D01*
X182690221Y-78179357D01*
X183060413Y-77809166D01*
X183077853Y-77794853D01*
X183092165Y-77777414D01*
X183092171Y-77777408D01*
X183134987Y-77725236D01*
X183177441Y-77645810D01*
X183186478Y-77616018D01*
X183203585Y-77559627D01*
X183210200Y-77492460D01*
X183210200Y-77492450D01*
X183212411Y-77470000D01*
X183210200Y-77447550D01*
X183210200Y-75952775D01*
X183245096Y-75934122D01*
X183291527Y-75896018D01*
X183294000Y-76028250D01*
X183452750Y-76187000D01*
X184277000Y-76187000D01*
X184277000Y-75387750D01*
X184118250Y-75229000D01*
X183929000Y-75225928D01*
X183804518Y-75238188D01*
X183684820Y-75274498D01*
X183574506Y-75333463D01*
X183477815Y-75412815D01*
X183415243Y-75489059D01*
X183415243Y-73634600D01*
X183407887Y-73559911D01*
X183386101Y-73488092D01*
X183350722Y-73421904D01*
X183303111Y-73363889D01*
X183277048Y-73342500D01*
X184727642Y-73342500D01*
X184738817Y-73455963D01*
X184774829Y-73574680D01*
X184833310Y-73684090D01*
X184912012Y-73779988D01*
X185007910Y-73858690D01*
X185117320Y-73917171D01*
X185236037Y-73953183D01*
X185359498Y-73965343D01*
X185984502Y-73965343D01*
X186107963Y-73953183D01*
X186226680Y-73917171D01*
X186336090Y-73858690D01*
X186423300Y-73787118D01*
X186423300Y-74042122D01*
X185874092Y-74591331D01*
X185856648Y-74605647D01*
X185842331Y-74623092D01*
X185842330Y-74623093D01*
X185799513Y-74675265D01*
X185779144Y-74713374D01*
X185757060Y-74754691D01*
X185730916Y-74840873D01*
X185725536Y-74895500D01*
X185722941Y-74921852D01*
X185713136Y-74927093D01*
X185641710Y-74985710D01*
X185583093Y-75057136D01*
X185539536Y-75138625D01*
X185512714Y-75227046D01*
X185503657Y-75319000D01*
X185503657Y-75735710D01*
X185468502Y-75619820D01*
X185409537Y-75509506D01*
X185330185Y-75412815D01*
X185233494Y-75333463D01*
X185123180Y-75274498D01*
X185003482Y-75238188D01*
X184879000Y-75225928D01*
X184689750Y-75229000D01*
X184531000Y-75387750D01*
X184531000Y-76187000D01*
X184551000Y-76187000D01*
X184551000Y-76441000D01*
X184531000Y-76441000D01*
X184531000Y-76461000D01*
X184277000Y-76461000D01*
X184277000Y-76441000D01*
X183452750Y-76441000D01*
X183294000Y-76599750D01*
X183290928Y-76764000D01*
X183303188Y-76888482D01*
X183339498Y-77008180D01*
X183398463Y-77118494D01*
X183477815Y-77215185D01*
X183574506Y-77294537D01*
X183634945Y-77326843D01*
X183592426Y-77406389D01*
X183557837Y-77520416D01*
X183546157Y-77639000D01*
X183546157Y-78089000D01*
X183557837Y-78207584D01*
X183592426Y-78321611D01*
X183648597Y-78426699D01*
X183724190Y-78518810D01*
X183789840Y-78572687D01*
X183769000Y-78677458D01*
X183769000Y-78802542D01*
X183793403Y-78925223D01*
X183841271Y-79040785D01*
X183910764Y-79144789D01*
X183999211Y-79233236D01*
X184103215Y-79302729D01*
X184218777Y-79350597D01*
X184341458Y-79375000D01*
X184466542Y-79375000D01*
X184589223Y-79350597D01*
X184704785Y-79302729D01*
X184808789Y-79233236D01*
X184897236Y-79144789D01*
X184966729Y-79040785D01*
X185014597Y-78925223D01*
X185039000Y-78802542D01*
X185039000Y-78677458D01*
X185018160Y-78572687D01*
X185083810Y-78518810D01*
X185159403Y-78426699D01*
X185215574Y-78321611D01*
X185250163Y-78207584D01*
X185261843Y-78089000D01*
X185261843Y-77829000D01*
X185503657Y-77829000D01*
X185503657Y-78862000D01*
X185512714Y-78953954D01*
X185539536Y-79042375D01*
X185583093Y-79123864D01*
X185641710Y-79195290D01*
X185713136Y-79253907D01*
X185723253Y-79259314D01*
X185724301Y-79269960D01*
X185730916Y-79337127D01*
X185753743Y-79412374D01*
X185757060Y-79423309D01*
X185799513Y-79502735D01*
X185834562Y-79545441D01*
X185856648Y-79572353D01*
X185874093Y-79586670D01*
X186096826Y-79809403D01*
X186111147Y-79826853D01*
X186180764Y-79883987D01*
X186260191Y-79926441D01*
X186346373Y-79952585D01*
X186413540Y-79959200D01*
X186413549Y-79959200D01*
X186435999Y-79961411D01*
X186458449Y-79959200D01*
X192382550Y-79959200D01*
X192405000Y-79961411D01*
X192427450Y-79959200D01*
X192427460Y-79959200D01*
X192494627Y-79952585D01*
X192580809Y-79926441D01*
X192660236Y-79883987D01*
X192729853Y-79826853D01*
X192744174Y-79809403D01*
X193093409Y-79460169D01*
X193110853Y-79445853D01*
X193138330Y-79412373D01*
X193167987Y-79376237D01*
X193198469Y-79319207D01*
X193210441Y-79296809D01*
X193236585Y-79210627D01*
X193243200Y-79143460D01*
X193243200Y-79143451D01*
X193245411Y-79121001D01*
X193243200Y-79098551D01*
X193243200Y-73595377D01*
X193356378Y-73482200D01*
X200978623Y-73482200D01*
X201028300Y-73531878D01*
X201028300Y-73989133D01*
X200987456Y-74001523D01*
X200886690Y-74055384D01*
X200798368Y-74127868D01*
X200725884Y-74216190D01*
X200672023Y-74316956D01*
X200656708Y-74367444D01*
X200646074Y-74332389D01*
X200589903Y-74227301D01*
X200514310Y-74135190D01*
X200422199Y-74059597D01*
X200317111Y-74003426D01*
X200203084Y-73968837D01*
X200084500Y-73957157D01*
X199584500Y-73957157D01*
X199465916Y-73968837D01*
X199351889Y-74003426D01*
X199246801Y-74059597D01*
X199154690Y-74135190D01*
X199079097Y-74227301D01*
X199067854Y-74248335D01*
X199055785Y-74240271D01*
X198940223Y-74192403D01*
X198817542Y-74168000D01*
X198692458Y-74168000D01*
X198569777Y-74192403D01*
X198454215Y-74240271D01*
X198350211Y-74309764D01*
X198261764Y-74398211D01*
X198192271Y-74502215D01*
X198144403Y-74617777D01*
X198120000Y-74740458D01*
X198120000Y-74865542D01*
X198144403Y-74988223D01*
X198192271Y-75103785D01*
X198261764Y-75207789D01*
X198350211Y-75296236D01*
X198454215Y-75365729D01*
X198569777Y-75413597D01*
X198692458Y-75438000D01*
X198817542Y-75438000D01*
X198940223Y-75413597D01*
X199055785Y-75365729D01*
X199078094Y-75350823D01*
X199079097Y-75352699D01*
X199154690Y-75444810D01*
X199246801Y-75520403D01*
X199330236Y-75565000D01*
X199246801Y-75609597D01*
X199154690Y-75685190D01*
X199079097Y-75777301D01*
X199022926Y-75882389D01*
X198988337Y-75996416D01*
X198976657Y-76115000D01*
X198976657Y-76565000D01*
X198988337Y-76683584D01*
X199022926Y-76797611D01*
X199079097Y-76902699D01*
X199154690Y-76994810D01*
X199246801Y-77070403D01*
X199351889Y-77126574D01*
X199465916Y-77161163D01*
X199584500Y-77172843D01*
X200084500Y-77172843D01*
X200203084Y-77161163D01*
X200317111Y-77126574D01*
X200422199Y-77070403D01*
X200514310Y-76994810D01*
X200589903Y-76902699D01*
X200646074Y-76797611D01*
X200646199Y-76797200D01*
X200667217Y-76797200D01*
X200672023Y-76813044D01*
X200725884Y-76913810D01*
X200798368Y-77002132D01*
X200886690Y-77074616D01*
X200987456Y-77128477D01*
X201096793Y-77161644D01*
X201210500Y-77172843D01*
X201760500Y-77172843D01*
X201874207Y-77161644D01*
X201983544Y-77128477D01*
X202084310Y-77074616D01*
X202172632Y-77002132D01*
X202245116Y-76913810D01*
X202298977Y-76813044D01*
X202303783Y-76797200D01*
X202944072Y-76797200D01*
X203016102Y-76971097D01*
X203150820Y-77172717D01*
X203322283Y-77344180D01*
X203523903Y-77478898D01*
X203747931Y-77571693D01*
X203985757Y-77619000D01*
X204228243Y-77619000D01*
X204466069Y-77571693D01*
X204690097Y-77478898D01*
X204891717Y-77344180D01*
X205063180Y-77172717D01*
X205197898Y-76971097D01*
X205290693Y-76747069D01*
X205338000Y-76509243D01*
X205338000Y-76266757D01*
X205290693Y-76028931D01*
X205197898Y-75804903D01*
X205063180Y-75603283D01*
X204891717Y-75431820D01*
X204690097Y-75297102D01*
X204466069Y-75204307D01*
X204228243Y-75157000D01*
X203985757Y-75157000D01*
X203747931Y-75204307D01*
X203523903Y-75297102D01*
X203322283Y-75431820D01*
X203150820Y-75603283D01*
X203016102Y-75804903D01*
X202983836Y-75882800D01*
X202253994Y-75882800D01*
X202245116Y-75866190D01*
X202172632Y-75777868D01*
X202084310Y-75705384D01*
X201983544Y-75651523D01*
X201874207Y-75618356D01*
X201760500Y-75607157D01*
X201210500Y-75607157D01*
X201096793Y-75618356D01*
X200987456Y-75651523D01*
X200886690Y-75705384D01*
X200798368Y-75777868D01*
X200725884Y-75866190D01*
X200717006Y-75882800D01*
X200646199Y-75882800D01*
X200646074Y-75882389D01*
X200589903Y-75777301D01*
X200514310Y-75685190D01*
X200422199Y-75609597D01*
X200338764Y-75565000D01*
X200422199Y-75520403D01*
X200514310Y-75444810D01*
X200589903Y-75352699D01*
X200646074Y-75247611D01*
X200671875Y-75162555D01*
X200672023Y-75163044D01*
X200725884Y-75263810D01*
X200798368Y-75352132D01*
X200886690Y-75424616D01*
X200987456Y-75478477D01*
X201096793Y-75511644D01*
X201210500Y-75522843D01*
X201760500Y-75522843D01*
X201874207Y-75511644D01*
X201983544Y-75478477D01*
X202084310Y-75424616D01*
X202172632Y-75352132D01*
X202245116Y-75263810D01*
X202298977Y-75163044D01*
X202332144Y-75053707D01*
X202343343Y-74940000D01*
X202343343Y-74540000D01*
X202332144Y-74426293D01*
X202298977Y-74316956D01*
X202245116Y-74216190D01*
X202172632Y-74127868D01*
X202084310Y-74055384D01*
X201983544Y-74001523D01*
X201942700Y-73989133D01*
X201942700Y-73726757D01*
X202876000Y-73726757D01*
X202876000Y-73969243D01*
X202923307Y-74207069D01*
X203016102Y-74431097D01*
X203150820Y-74632717D01*
X203322283Y-74804180D01*
X203523903Y-74938898D01*
X203747931Y-75031693D01*
X203985757Y-75079000D01*
X204228243Y-75079000D01*
X204466069Y-75031693D01*
X204690097Y-74938898D01*
X204891717Y-74804180D01*
X205063180Y-74632717D01*
X205197898Y-74431097D01*
X205290693Y-74207069D01*
X205338000Y-73969243D01*
X205338000Y-73726757D01*
X205290693Y-73488931D01*
X205197898Y-73264903D01*
X205063180Y-73063283D01*
X204891717Y-72891820D01*
X204690097Y-72757102D01*
X204466069Y-72664307D01*
X204228243Y-72617000D01*
X203985757Y-72617000D01*
X203747931Y-72664307D01*
X203523903Y-72757102D01*
X203322283Y-72891820D01*
X203150820Y-73063283D01*
X203016102Y-73264903D01*
X202923307Y-73488931D01*
X202876000Y-73726757D01*
X201942700Y-73726757D01*
X201942700Y-73364950D01*
X201944911Y-73342500D01*
X201942700Y-73320050D01*
X201942700Y-73320040D01*
X201936085Y-73252873D01*
X201909941Y-73166691D01*
X201867487Y-73087264D01*
X201810353Y-73017647D01*
X201792909Y-73003331D01*
X201507174Y-72717597D01*
X201492853Y-72700147D01*
X201423236Y-72643013D01*
X201343809Y-72600559D01*
X201257627Y-72574415D01*
X201190460Y-72567800D01*
X201190450Y-72567800D01*
X201168000Y-72565589D01*
X201145550Y-72567800D01*
X193189449Y-72567800D01*
X193166999Y-72565589D01*
X193144549Y-72567800D01*
X193144540Y-72567800D01*
X193077373Y-72574415D01*
X192991191Y-72600559D01*
X192954217Y-72620322D01*
X192911763Y-72643013D01*
X192878271Y-72670500D01*
X192842147Y-72700147D01*
X192827830Y-72717592D01*
X192478592Y-73066831D01*
X192461148Y-73081147D01*
X192446831Y-73098592D01*
X192446830Y-73098593D01*
X192404013Y-73150765D01*
X192385976Y-73184511D01*
X192361560Y-73230191D01*
X192341293Y-73297002D01*
X192335416Y-73316374D01*
X192326589Y-73406000D01*
X192328801Y-73428460D01*
X192328800Y-78931622D01*
X192215623Y-79044800D01*
X189005285Y-79044800D01*
X189014572Y-78950500D01*
X189014507Y-78943755D01*
X189082320Y-78980002D01*
X189202018Y-79016312D01*
X189326500Y-79028572D01*
X189515750Y-79025500D01*
X189674500Y-78866750D01*
X189674500Y-78067500D01*
X189928500Y-78067500D01*
X189928500Y-78866750D01*
X190087250Y-79025500D01*
X190276500Y-79028572D01*
X190400982Y-79016312D01*
X190520680Y-78980002D01*
X190630994Y-78921037D01*
X190727685Y-78841685D01*
X190807037Y-78744994D01*
X190866002Y-78634680D01*
X190902312Y-78514982D01*
X190914572Y-78390500D01*
X190911500Y-78226250D01*
X190752750Y-78067500D01*
X189928500Y-78067500D01*
X189674500Y-78067500D01*
X189654500Y-78067500D01*
X189654500Y-77813500D01*
X189674500Y-77813500D01*
X189674500Y-77793500D01*
X189928500Y-77793500D01*
X189928500Y-77813500D01*
X190752750Y-77813500D01*
X190911500Y-77654750D01*
X190914572Y-77490500D01*
X190902312Y-77366018D01*
X190866002Y-77246320D01*
X190807037Y-77136006D01*
X190727685Y-77039315D01*
X190630994Y-76959963D01*
X190570555Y-76927657D01*
X190613074Y-76848111D01*
X190647663Y-76734084D01*
X190659343Y-76615500D01*
X190659343Y-76165500D01*
X190647663Y-76046916D01*
X190613074Y-75932889D01*
X190556903Y-75827801D01*
X190481310Y-75735690D01*
X190389199Y-75660097D01*
X190385043Y-75657876D01*
X190399397Y-75623223D01*
X190423800Y-75500542D01*
X190423800Y-75375458D01*
X190399397Y-75252777D01*
X190351529Y-75137215D01*
X190282036Y-75033211D01*
X190193589Y-74944764D01*
X190089585Y-74875271D01*
X189974023Y-74827403D01*
X189851342Y-74803000D01*
X189726258Y-74803000D01*
X189603577Y-74827403D01*
X189488015Y-74875271D01*
X189384011Y-74944764D01*
X189295564Y-75033211D01*
X189226071Y-75137215D01*
X189178203Y-75252777D01*
X189153800Y-75375458D01*
X189153800Y-75500542D01*
X189178203Y-75623223D01*
X189198633Y-75672545D01*
X189121690Y-75735690D01*
X189046097Y-75827801D01*
X188989926Y-75932889D01*
X188955337Y-76046916D01*
X188943657Y-76165500D01*
X188943657Y-76615500D01*
X188955337Y-76734084D01*
X188989926Y-76848111D01*
X189032445Y-76927657D01*
X188972006Y-76959963D01*
X188875315Y-77039315D01*
X188795963Y-77136006D01*
X188748675Y-77224474D01*
X188730994Y-77209963D01*
X188620680Y-77150998D01*
X188500982Y-77114688D01*
X188376500Y-77102428D01*
X188367250Y-77105500D01*
X188208500Y-77264250D01*
X188208500Y-78218500D01*
X188228500Y-78218500D01*
X188228500Y-78472500D01*
X188208500Y-78472500D01*
X188208500Y-78492500D01*
X187954500Y-78492500D01*
X187954500Y-78472500D01*
X187310250Y-78472500D01*
X187151500Y-78631250D01*
X187148428Y-78950500D01*
X187157715Y-79044800D01*
X186822168Y-79044800D01*
X186823464Y-79042375D01*
X186850286Y-78953954D01*
X186859343Y-78862000D01*
X186859343Y-77829000D01*
X186850627Y-77740500D01*
X187148428Y-77740500D01*
X187151500Y-78059750D01*
X187310250Y-78218500D01*
X187954500Y-78218500D01*
X187954500Y-77264250D01*
X187795750Y-77105500D01*
X187786500Y-77102428D01*
X187662018Y-77114688D01*
X187542320Y-77150998D01*
X187432006Y-77209963D01*
X187335315Y-77289315D01*
X187255963Y-77386006D01*
X187196998Y-77496320D01*
X187160688Y-77616018D01*
X187148428Y-77740500D01*
X186850627Y-77740500D01*
X186850286Y-77737046D01*
X186823464Y-77648625D01*
X186779907Y-77567136D01*
X186721290Y-77495710D01*
X186649864Y-77437093D01*
X186568375Y-77393536D01*
X186479954Y-77366714D01*
X186388000Y-77357657D01*
X185975000Y-77357657D01*
X185883046Y-77366714D01*
X185794625Y-77393536D01*
X185713136Y-77437093D01*
X185641710Y-77495710D01*
X185583093Y-77567136D01*
X185539536Y-77648625D01*
X185512714Y-77737046D01*
X185503657Y-77829000D01*
X185261843Y-77829000D01*
X185261843Y-77639000D01*
X185250163Y-77520416D01*
X185215574Y-77406389D01*
X185173055Y-77326843D01*
X185233494Y-77294537D01*
X185330185Y-77215185D01*
X185409537Y-77118494D01*
X185468502Y-77008180D01*
X185504812Y-76888482D01*
X185517072Y-76764000D01*
X185514000Y-76599750D01*
X185355252Y-76441002D01*
X185512423Y-76441002D01*
X185512714Y-76443954D01*
X185539536Y-76532375D01*
X185583093Y-76613864D01*
X185641710Y-76685290D01*
X185713136Y-76743907D01*
X185794625Y-76787464D01*
X185883046Y-76814286D01*
X185975000Y-76823343D01*
X186388000Y-76823343D01*
X186479954Y-76814286D01*
X186568375Y-76787464D01*
X186649864Y-76743907D01*
X186656500Y-76738461D01*
X186663136Y-76743907D01*
X186744625Y-76787464D01*
X186833046Y-76814286D01*
X186925000Y-76823343D01*
X187338000Y-76823343D01*
X187429954Y-76814286D01*
X187518375Y-76787464D01*
X187599864Y-76743907D01*
X187606500Y-76738461D01*
X187613136Y-76743907D01*
X187694625Y-76787464D01*
X187783046Y-76814286D01*
X187875000Y-76823343D01*
X188288000Y-76823343D01*
X188379954Y-76814286D01*
X188468375Y-76787464D01*
X188549864Y-76743907D01*
X188621290Y-76685290D01*
X188679907Y-76613864D01*
X188723464Y-76532375D01*
X188750286Y-76443954D01*
X188759343Y-76352000D01*
X188759343Y-75319000D01*
X188750286Y-75227046D01*
X188723464Y-75138625D01*
X188679907Y-75057136D01*
X188621290Y-74985710D01*
X188549864Y-74927093D01*
X188540683Y-74922186D01*
X188538700Y-74902050D01*
X188538700Y-74902040D01*
X188532085Y-74834873D01*
X188505941Y-74748691D01*
X188463487Y-74669264D01*
X188406353Y-74599647D01*
X188388908Y-74585330D01*
X187845700Y-74042123D01*
X187845700Y-73787118D01*
X187932910Y-73858690D01*
X188042320Y-73917171D01*
X188161037Y-73953183D01*
X188284498Y-73965343D01*
X188909502Y-73965343D01*
X189032963Y-73953183D01*
X189151680Y-73917171D01*
X189261090Y-73858690D01*
X189356988Y-73779988D01*
X189435690Y-73684090D01*
X189494171Y-73574680D01*
X189530183Y-73455963D01*
X189542343Y-73332502D01*
X189542343Y-72082498D01*
X189530183Y-71959037D01*
X189494171Y-71840320D01*
X189435690Y-71730910D01*
X189356988Y-71635012D01*
X189261090Y-71556310D01*
X189152500Y-71498267D01*
X189152500Y-65081343D01*
X189817500Y-65081343D01*
X189892189Y-65073987D01*
X189964008Y-65052201D01*
X190030196Y-65016822D01*
X190088211Y-64969211D01*
X190135822Y-64911196D01*
X190171201Y-64845008D01*
X190192987Y-64773189D01*
X190200343Y-64698500D01*
X190200343Y-62098500D01*
X190192987Y-62023811D01*
X190171201Y-61951992D01*
X190135822Y-61885804D01*
X190088211Y-61827789D01*
X190030196Y-61780178D01*
X189964008Y-61744799D01*
X189892189Y-61723013D01*
X189817500Y-61715657D01*
X187217500Y-61715657D01*
X187142811Y-61723013D01*
X187070992Y-61744799D01*
X187004804Y-61780178D01*
X186946789Y-61827789D01*
X186899178Y-61885804D01*
X186863799Y-61951992D01*
X186842013Y-62023811D01*
X186834657Y-62098500D01*
X186834657Y-62763500D01*
X184993976Y-62763500D01*
X184927183Y-62602248D01*
X184743218Y-62326925D01*
X184509075Y-62092782D01*
X184233752Y-61908817D01*
X183927830Y-61782100D01*
X183603064Y-61717500D01*
X183271936Y-61717500D01*
X182947170Y-61782100D01*
X182641248Y-61908817D01*
X182365925Y-62092782D01*
X182131782Y-62326925D01*
X181947817Y-62602248D01*
X181821100Y-62908170D01*
X181756500Y-63232936D01*
X181756500Y-63564064D01*
X181821100Y-63888830D01*
X181947817Y-64194752D01*
X182131782Y-64470075D01*
X182365925Y-64704218D01*
X182641248Y-64888183D01*
X182947170Y-65014900D01*
X183271936Y-65079500D01*
X183603064Y-65079500D01*
X183927830Y-65014900D01*
X184233752Y-64888183D01*
X184509075Y-64704218D01*
X184743218Y-64470075D01*
X184927183Y-64194752D01*
X184993976Y-64033500D01*
X186834657Y-64033500D01*
X186834657Y-64698500D01*
X186842013Y-64773189D01*
X186863799Y-64845008D01*
X186899178Y-64911196D01*
X186946789Y-64969211D01*
X187004804Y-65016822D01*
X187070992Y-65052201D01*
X187142811Y-65073987D01*
X187217500Y-65081343D01*
X187882500Y-65081343D01*
X187882501Y-71597680D01*
X187837012Y-71635012D01*
X187758310Y-71730910D01*
X187699829Y-71840320D01*
X187663817Y-71959037D01*
X187651657Y-72082498D01*
X187651657Y-72286017D01*
X187577764Y-72325513D01*
X187508147Y-72382647D01*
X187493830Y-72400092D01*
X187134500Y-72759422D01*
X186775174Y-72400097D01*
X186760853Y-72382647D01*
X186691236Y-72325513D01*
X186617343Y-72286017D01*
X186617343Y-72082498D01*
X186605183Y-71959037D01*
X186569171Y-71840320D01*
X186510690Y-71730910D01*
X186431988Y-71635012D01*
X186336090Y-71556310D01*
X186226680Y-71497829D01*
X186107963Y-71461817D01*
X185984502Y-71449657D01*
X185359498Y-71449657D01*
X185236037Y-71461817D01*
X185117320Y-71497829D01*
X185007910Y-71556310D01*
X184912012Y-71635012D01*
X184833310Y-71730910D01*
X184774829Y-71840320D01*
X184738817Y-71959037D01*
X184727642Y-72072500D01*
X179037689Y-72072500D01*
X179006500Y-72069428D01*
X178975311Y-72072500D01*
X177308422Y-72072500D01*
X177253196Y-72027178D01*
X177187008Y-71991799D01*
X177115189Y-71970013D01*
X177040500Y-71962657D01*
X175980500Y-71962657D01*
X175905811Y-71970013D01*
X175833992Y-71991799D01*
X175767804Y-72027178D01*
X175709789Y-72074789D01*
X175662178Y-72132804D01*
X175626799Y-72198992D01*
X175605013Y-72270811D01*
X175597657Y-72345500D01*
X175597657Y-72652579D01*
X175308174Y-72363097D01*
X175293853Y-72345647D01*
X175224236Y-72288513D01*
X175217369Y-72284843D01*
X175215987Y-72270811D01*
X175194201Y-72198992D01*
X175158822Y-72132804D01*
X175111211Y-72074789D01*
X175053196Y-72027178D01*
X174987008Y-71991799D01*
X174915189Y-71970013D01*
X174840500Y-71962657D01*
X173780500Y-71962657D01*
X173705811Y-71970013D01*
X173633992Y-71991799D01*
X173567804Y-72027178D01*
X173509789Y-72074789D01*
X173462178Y-72132804D01*
X173426799Y-72198992D01*
X173422459Y-72213300D01*
X165095950Y-72213300D01*
X165073500Y-72211089D01*
X165051050Y-72213300D01*
X165051040Y-72213300D01*
X164983873Y-72219915D01*
X164897691Y-72246059D01*
X164818264Y-72288513D01*
X164748647Y-72345647D01*
X164734330Y-72363092D01*
X163141597Y-73955826D01*
X163124147Y-73970147D01*
X163067013Y-74039765D01*
X163024559Y-74119192D01*
X162998415Y-74205374D01*
X162991800Y-74272541D01*
X162991800Y-74272550D01*
X162989589Y-74295000D01*
X162991800Y-74317450D01*
X162991801Y-84276133D01*
X162950956Y-84288523D01*
X162850190Y-84342384D01*
X162761868Y-84414868D01*
X162689384Y-84503190D01*
X162635523Y-84603956D01*
X162620208Y-84654444D01*
X162609574Y-84619389D01*
X162553403Y-84514301D01*
X162477810Y-84422190D01*
X162385699Y-84346597D01*
X162374815Y-84340779D01*
X162408597Y-84259223D01*
X162433000Y-84136542D01*
X162433000Y-84011458D01*
X162408597Y-83888777D01*
X162360729Y-83773215D01*
X162291236Y-83669211D01*
X162202789Y-83580764D01*
X162098785Y-83511271D01*
X161983223Y-83463403D01*
X161860542Y-83439000D01*
X161735458Y-83439000D01*
X161612777Y-83463403D01*
X161497215Y-83511271D01*
X161393211Y-83580764D01*
X161304764Y-83669211D01*
X161235271Y-83773215D01*
X161187403Y-83888777D01*
X161163000Y-84011458D01*
X161163000Y-84136542D01*
X161187403Y-84259223D01*
X161221185Y-84340779D01*
X161210301Y-84346597D01*
X161118190Y-84422190D01*
X161042597Y-84514301D01*
X160986426Y-84619389D01*
X160951837Y-84733416D01*
X160940157Y-84852000D01*
X160940157Y-85302000D01*
X160951837Y-85420584D01*
X160986426Y-85534611D01*
X161042597Y-85639699D01*
X161118190Y-85731810D01*
X161210301Y-85807403D01*
X161293736Y-85852000D01*
X161210301Y-85896597D01*
X161118190Y-85972190D01*
X161042597Y-86064301D01*
X161000104Y-86143800D01*
X158758999Y-86143800D01*
X158684898Y-85964903D01*
X158550180Y-85763283D01*
X158378717Y-85591820D01*
X158177097Y-85457102D01*
X157953069Y-85364307D01*
X157715243Y-85317000D01*
X157472757Y-85317000D01*
X157234931Y-85364307D01*
X157010903Y-85457102D01*
X156809283Y-85591820D01*
X156637820Y-85763283D01*
X156503102Y-85964903D01*
X156410307Y-86188931D01*
X156363000Y-86426757D01*
X156108000Y-86426757D01*
X156108000Y-83886757D01*
X156363000Y-83886757D01*
X156363000Y-84129243D01*
X156410307Y-84367069D01*
X156503102Y-84591097D01*
X156637820Y-84792717D01*
X156809283Y-84964180D01*
X157010903Y-85098898D01*
X157234931Y-85191693D01*
X157472757Y-85239000D01*
X157715243Y-85239000D01*
X157953069Y-85191693D01*
X158177097Y-85098898D01*
X158378717Y-84964180D01*
X158550180Y-84792717D01*
X158684898Y-84591097D01*
X158777693Y-84367069D01*
X158825000Y-84129243D01*
X158825000Y-83886757D01*
X158777693Y-83648931D01*
X158684898Y-83424903D01*
X158550180Y-83223283D01*
X158378717Y-83051820D01*
X158177097Y-82917102D01*
X157953069Y-82824307D01*
X157715243Y-82777000D01*
X157472757Y-82777000D01*
X157234931Y-82824307D01*
X157010903Y-82917102D01*
X156809283Y-83051820D01*
X156637820Y-83223283D01*
X156503102Y-83424903D01*
X156410307Y-83648931D01*
X156363000Y-83886757D01*
X156108000Y-83886757D01*
X156108000Y-81346757D01*
X156363000Y-81346757D01*
X156363000Y-81589243D01*
X156410307Y-81827069D01*
X156503102Y-82051097D01*
X156637820Y-82252717D01*
X156809283Y-82424180D01*
X157010903Y-82558898D01*
X157234931Y-82651693D01*
X157472757Y-82699000D01*
X157715243Y-82699000D01*
X157953069Y-82651693D01*
X158177097Y-82558898D01*
X158378717Y-82424180D01*
X158550180Y-82252717D01*
X158684898Y-82051097D01*
X158777693Y-81827069D01*
X158825000Y-81589243D01*
X158825000Y-81346757D01*
X158777693Y-81108931D01*
X158684898Y-80884903D01*
X158550180Y-80683283D01*
X158378717Y-80511820D01*
X158177097Y-80377102D01*
X157953069Y-80284307D01*
X157715243Y-80237000D01*
X157472757Y-80237000D01*
X157234931Y-80284307D01*
X157010903Y-80377102D01*
X156809283Y-80511820D01*
X156637820Y-80683283D01*
X156503102Y-80884903D01*
X156410307Y-81108931D01*
X156363000Y-81346757D01*
X156108000Y-81346757D01*
X156108000Y-78806757D01*
X156363000Y-78806757D01*
X156363000Y-79049243D01*
X156410307Y-79287069D01*
X156503102Y-79511097D01*
X156637820Y-79712717D01*
X156809283Y-79884180D01*
X157010903Y-80018898D01*
X157234931Y-80111693D01*
X157472757Y-80159000D01*
X157715243Y-80159000D01*
X157953069Y-80111693D01*
X158177097Y-80018898D01*
X158378717Y-79884180D01*
X158550180Y-79712717D01*
X158684898Y-79511097D01*
X158777693Y-79287069D01*
X158825000Y-79049243D01*
X158825000Y-78806757D01*
X158777693Y-78568931D01*
X158684898Y-78344903D01*
X158550180Y-78143283D01*
X158378717Y-77971820D01*
X158177097Y-77837102D01*
X157953069Y-77744307D01*
X157715243Y-77697000D01*
X157472757Y-77697000D01*
X157234931Y-77744307D01*
X157010903Y-77837102D01*
X156809283Y-77971820D01*
X156637820Y-78143283D01*
X156503102Y-78344903D01*
X156410307Y-78568931D01*
X156363000Y-78806757D01*
X156108000Y-78806757D01*
X156108000Y-75501500D01*
X156739603Y-75501500D01*
X156637820Y-75603283D01*
X156503102Y-75804903D01*
X156410307Y-76028931D01*
X156363000Y-76266757D01*
X156363000Y-76509243D01*
X156410307Y-76747069D01*
X156503102Y-76971097D01*
X156637820Y-77172717D01*
X156809283Y-77344180D01*
X157010903Y-77478898D01*
X157234931Y-77571693D01*
X157472757Y-77619000D01*
X157715243Y-77619000D01*
X157953069Y-77571693D01*
X158177097Y-77478898D01*
X158378717Y-77344180D01*
X158550180Y-77172717D01*
X158684898Y-76971097D01*
X158777693Y-76747069D01*
X158825000Y-76509243D01*
X158825000Y-76266757D01*
X158777693Y-76028931D01*
X158684898Y-75804903D01*
X158550180Y-75603283D01*
X158448397Y-75501500D01*
X159385000Y-75501500D01*
X159459329Y-75494179D01*
X159530802Y-75472498D01*
X159596672Y-75437290D01*
X159654408Y-75389908D01*
X159701790Y-75332172D01*
X159736998Y-75266302D01*
X159758679Y-75194829D01*
X159766000Y-75120500D01*
X159766000Y-70440000D01*
X166653928Y-70440000D01*
X166666188Y-70564482D01*
X166702498Y-70684180D01*
X166761463Y-70794494D01*
X166840815Y-70891185D01*
X166937506Y-70970537D01*
X167047820Y-71029502D01*
X167167518Y-71065812D01*
X167292000Y-71078072D01*
X167481250Y-71075000D01*
X167640000Y-70916250D01*
X167640000Y-70129500D01*
X167894000Y-70129500D01*
X167894000Y-70916250D01*
X168052750Y-71075000D01*
X168242000Y-71078072D01*
X168366482Y-71065812D01*
X168486180Y-71029502D01*
X168596494Y-70970537D01*
X168693185Y-70891185D01*
X168772537Y-70794494D01*
X168831502Y-70684180D01*
X168867812Y-70564482D01*
X168880072Y-70440000D01*
X168877000Y-70288250D01*
X168718250Y-70129500D01*
X167894000Y-70129500D01*
X167640000Y-70129500D01*
X166815750Y-70129500D01*
X166657000Y-70288250D01*
X166653928Y-70440000D01*
X159766000Y-70440000D01*
X159766000Y-68326958D01*
X161417000Y-68326958D01*
X161417000Y-68452042D01*
X161441403Y-68574723D01*
X161489271Y-68690285D01*
X161558764Y-68794289D01*
X161647211Y-68882736D01*
X161751215Y-68952229D01*
X161866777Y-69000097D01*
X161989458Y-69024500D01*
X162095657Y-69024500D01*
X162095657Y-69039501D01*
X162107817Y-69162962D01*
X162143829Y-69281679D01*
X162202310Y-69391089D01*
X162281012Y-69486988D01*
X162376911Y-69565690D01*
X162486321Y-69624171D01*
X162605038Y-69660183D01*
X162728499Y-69672343D01*
X163378501Y-69672343D01*
X163501962Y-69660183D01*
X163620679Y-69624171D01*
X163730089Y-69565690D01*
X163825988Y-69486988D01*
X163904690Y-69391089D01*
X163963171Y-69281679D01*
X163999183Y-69162962D01*
X164011343Y-69039501D01*
X164011343Y-67739499D01*
X163999183Y-67616038D01*
X163963171Y-67497321D01*
X163904690Y-67387911D01*
X163825988Y-67292012D01*
X163730089Y-67213310D01*
X163620679Y-67154829D01*
X163501962Y-67118817D01*
X163378501Y-67106657D01*
X162728499Y-67106657D01*
X162605038Y-67118817D01*
X162486321Y-67154829D01*
X162376911Y-67213310D01*
X162281012Y-67292012D01*
X162202310Y-67387911D01*
X162143829Y-67497321D01*
X162107817Y-67616038D01*
X162095657Y-67739499D01*
X162095657Y-67754500D01*
X161989458Y-67754500D01*
X161866777Y-67778903D01*
X161751215Y-67826771D01*
X161647211Y-67896264D01*
X161558764Y-67984711D01*
X161489271Y-68088715D01*
X161441403Y-68204277D01*
X161417000Y-68326958D01*
X159766000Y-68326958D01*
X159766000Y-65341309D01*
X159766958Y-65341500D01*
X159892042Y-65341500D01*
X160014723Y-65317097D01*
X160130285Y-65269229D01*
X160234289Y-65199736D01*
X160322736Y-65111289D01*
X160392229Y-65007285D01*
X160440097Y-64891723D01*
X160450286Y-64840499D01*
X160578657Y-64840499D01*
X160578657Y-65490501D01*
X160590817Y-65613962D01*
X160626829Y-65732679D01*
X160685310Y-65842089D01*
X160764012Y-65937988D01*
X160859911Y-66016690D01*
X160969321Y-66075171D01*
X161088038Y-66111183D01*
X161211499Y-66123343D01*
X161235375Y-66123343D01*
X161226500Y-66167958D01*
X161226500Y-66293042D01*
X161250903Y-66415723D01*
X161298771Y-66531285D01*
X161368264Y-66635289D01*
X161456711Y-66723736D01*
X161560715Y-66793229D01*
X161676277Y-66841097D01*
X161798958Y-66865500D01*
X161924042Y-66865500D01*
X162046723Y-66841097D01*
X162162285Y-66793229D01*
X162266289Y-66723736D01*
X162354736Y-66635289D01*
X162424229Y-66531285D01*
X162472097Y-66415723D01*
X162496500Y-66293042D01*
X162496500Y-66167958D01*
X162487625Y-66123343D01*
X162511501Y-66123343D01*
X162634962Y-66111183D01*
X162753679Y-66075171D01*
X162863089Y-66016690D01*
X162958988Y-65937988D01*
X163037690Y-65842089D01*
X163096171Y-65732679D01*
X163132183Y-65613962D01*
X163144343Y-65490501D01*
X163144343Y-64840499D01*
X163132183Y-64717038D01*
X163096171Y-64598321D01*
X163037690Y-64488911D01*
X162958988Y-64393012D01*
X162863089Y-64314310D01*
X162753679Y-64255829D01*
X162634962Y-64219817D01*
X162511501Y-64207657D01*
X161211499Y-64207657D01*
X161088038Y-64219817D01*
X160969321Y-64255829D01*
X160859911Y-64314310D01*
X160764012Y-64393012D01*
X160685310Y-64488911D01*
X160626829Y-64598321D01*
X160590817Y-64717038D01*
X160578657Y-64840499D01*
X160450286Y-64840499D01*
X160464500Y-64769042D01*
X160464500Y-64643958D01*
X160440097Y-64521277D01*
X160426908Y-64489435D01*
X160509310Y-64421810D01*
X160584903Y-64329699D01*
X160641074Y-64224611D01*
X160675663Y-64110584D01*
X160687343Y-63992000D01*
X160687343Y-63690500D01*
X163494012Y-63690500D01*
X163471299Y-63732992D01*
X163449513Y-63804811D01*
X163442157Y-63879500D01*
X163442157Y-64939500D01*
X163449513Y-65014189D01*
X163471299Y-65086008D01*
X163506678Y-65152196D01*
X163554289Y-65210211D01*
X163612304Y-65257822D01*
X163678492Y-65293201D01*
X163750311Y-65314987D01*
X163825000Y-65322343D01*
X164475000Y-65322343D01*
X164549689Y-65314987D01*
X164621508Y-65293201D01*
X164687696Y-65257822D01*
X164745711Y-65210211D01*
X164793322Y-65152196D01*
X164828701Y-65086008D01*
X164850487Y-65014189D01*
X164857843Y-64939500D01*
X164857843Y-63879500D01*
X164850487Y-63804811D01*
X164828701Y-63732992D01*
X164805988Y-63690500D01*
X164820390Y-63690500D01*
X164914777Y-63729597D01*
X165037458Y-63754000D01*
X165162542Y-63754000D01*
X165285223Y-63729597D01*
X165379610Y-63690500D01*
X165394012Y-63690500D01*
X165371299Y-63732992D01*
X165349513Y-63804811D01*
X165342157Y-63879500D01*
X165342157Y-64939500D01*
X165349513Y-65014189D01*
X165371299Y-65086008D01*
X165406678Y-65152196D01*
X165415000Y-65162337D01*
X165415001Y-65558540D01*
X165347190Y-65614190D01*
X165271597Y-65706301D01*
X165227000Y-65789736D01*
X165182403Y-65706301D01*
X165106810Y-65614190D01*
X165014699Y-65538597D01*
X164909611Y-65482426D01*
X164795584Y-65447837D01*
X164677000Y-65436157D01*
X164227000Y-65436157D01*
X164108416Y-65447837D01*
X163994389Y-65482426D01*
X163889301Y-65538597D01*
X163797190Y-65614190D01*
X163729565Y-65696592D01*
X163697723Y-65683403D01*
X163575042Y-65659000D01*
X163449958Y-65659000D01*
X163327277Y-65683403D01*
X163211715Y-65731271D01*
X163107711Y-65800764D01*
X163019264Y-65889211D01*
X162949771Y-65993215D01*
X162901903Y-66108777D01*
X162877500Y-66231458D01*
X162877500Y-66356542D01*
X162901903Y-66479223D01*
X162949771Y-66594785D01*
X163019264Y-66698789D01*
X163107711Y-66787236D01*
X163211715Y-66856729D01*
X163327277Y-66904597D01*
X163449958Y-66929000D01*
X163575042Y-66929000D01*
X163697723Y-66904597D01*
X163729565Y-66891408D01*
X163797190Y-66973810D01*
X163889301Y-67049403D01*
X163994389Y-67105574D01*
X164108416Y-67140163D01*
X164227000Y-67151843D01*
X164677000Y-67151843D01*
X164795584Y-67140163D01*
X164909611Y-67105574D01*
X165014699Y-67049403D01*
X165106810Y-66973810D01*
X165182403Y-66881699D01*
X165227000Y-66798264D01*
X165271597Y-66881699D01*
X165347190Y-66973810D01*
X165368501Y-66991299D01*
X165368501Y-67191080D01*
X165326911Y-67213310D01*
X165231012Y-67292012D01*
X165152310Y-67387911D01*
X165093829Y-67497321D01*
X165057817Y-67616038D01*
X165045657Y-67739499D01*
X165045657Y-69039501D01*
X165057817Y-69162962D01*
X165093829Y-69281679D01*
X165152310Y-69391089D01*
X165231012Y-69486988D01*
X165326911Y-69565690D01*
X165436321Y-69624171D01*
X165555038Y-69660183D01*
X165678499Y-69672343D01*
X166328501Y-69672343D01*
X166451962Y-69660183D01*
X166570679Y-69624171D01*
X166654222Y-69579516D01*
X166657000Y-69716750D01*
X166815750Y-69875500D01*
X167640000Y-69875500D01*
X167640000Y-69855500D01*
X167894000Y-69855500D01*
X167894000Y-69875500D01*
X168718250Y-69875500D01*
X168877000Y-69716750D01*
X168880072Y-69565000D01*
X168867812Y-69440518D01*
X168831502Y-69320820D01*
X168772537Y-69210506D01*
X168693185Y-69113815D01*
X168596494Y-69034463D01*
X168514930Y-68990866D01*
X168523456Y-68980477D01*
X168579049Y-68876470D01*
X168613284Y-68763615D01*
X168624843Y-68646250D01*
X168624843Y-68208750D01*
X168613284Y-68091385D01*
X168579049Y-67978530D01*
X168523456Y-67874523D01*
X168448640Y-67783360D01*
X168357477Y-67708544D01*
X168253470Y-67652951D01*
X168140615Y-67618716D01*
X168023250Y-67607157D01*
X167510750Y-67607157D01*
X167393385Y-67618716D01*
X167280530Y-67652951D01*
X167176523Y-67708544D01*
X167085360Y-67783360D01*
X167077859Y-67792500D01*
X166961343Y-67792500D01*
X166961343Y-67739499D01*
X166949183Y-67616038D01*
X166913171Y-67497321D01*
X166854690Y-67387911D01*
X166775988Y-67292012D01*
X166680089Y-67213310D01*
X166638500Y-67191080D01*
X166638500Y-66988837D01*
X166656810Y-66973810D01*
X166732403Y-66881699D01*
X166788574Y-66776611D01*
X166823163Y-66662584D01*
X166834843Y-66544000D01*
X166834843Y-66044000D01*
X166823163Y-65925416D01*
X166788574Y-65811389D01*
X166732403Y-65706301D01*
X166685000Y-65648540D01*
X166685000Y-65162337D01*
X166693322Y-65152196D01*
X166728701Y-65086008D01*
X166750487Y-65014189D01*
X166757843Y-64939500D01*
X166757843Y-63879500D01*
X166750487Y-63804811D01*
X166728701Y-63732992D01*
X166705988Y-63690500D01*
X168846500Y-63690500D01*
X168920829Y-63683179D01*
X168992302Y-63661498D01*
X169058172Y-63626290D01*
X169115908Y-63578908D01*
X169163290Y-63521172D01*
X169198498Y-63455302D01*
X169220179Y-63383829D01*
X169227500Y-63309500D01*
X169227500Y-63232936D01*
X171596500Y-63232936D01*
X171596500Y-63564064D01*
X171661100Y-63888830D01*
X171787817Y-64194752D01*
X171971782Y-64470075D01*
X172205925Y-64704218D01*
X172481248Y-64888183D01*
X172787170Y-65014900D01*
X173111936Y-65079500D01*
X173443064Y-65079500D01*
X173767830Y-65014900D01*
X174073752Y-64888183D01*
X174349075Y-64704218D01*
X174583218Y-64470075D01*
X174767183Y-64194752D01*
X174893900Y-63888830D01*
X174958500Y-63564064D01*
X174958500Y-63232936D01*
X176676500Y-63232936D01*
X176676500Y-63564064D01*
X176741100Y-63888830D01*
X176867817Y-64194752D01*
X177051782Y-64470075D01*
X177285925Y-64704218D01*
X177561248Y-64888183D01*
X177867170Y-65014900D01*
X178191936Y-65079500D01*
X178523064Y-65079500D01*
X178847830Y-65014900D01*
X179153752Y-64888183D01*
X179429075Y-64704218D01*
X179663218Y-64470075D01*
X179847183Y-64194752D01*
X179973900Y-63888830D01*
X180038500Y-63564064D01*
X180038500Y-63232936D01*
X179973900Y-62908170D01*
X179847183Y-62602248D01*
X179663218Y-62326925D01*
X179429075Y-62092782D01*
X179153752Y-61908817D01*
X178847830Y-61782100D01*
X178523064Y-61717500D01*
X178191936Y-61717500D01*
X177867170Y-61782100D01*
X177561248Y-61908817D01*
X177285925Y-62092782D01*
X177051782Y-62326925D01*
X176867817Y-62602248D01*
X176741100Y-62908170D01*
X176676500Y-63232936D01*
X174958500Y-63232936D01*
X174893900Y-62908170D01*
X174767183Y-62602248D01*
X174583218Y-62326925D01*
X174349075Y-62092782D01*
X174073752Y-61908817D01*
X173767830Y-61782100D01*
X173443064Y-61717500D01*
X173111936Y-61717500D01*
X172787170Y-61782100D01*
X172481248Y-61908817D01*
X172205925Y-62092782D01*
X171971782Y-62326925D01*
X171787817Y-62602248D01*
X171661100Y-62908170D01*
X171596500Y-63232936D01*
X169227500Y-63232936D01*
X169227500Y-57746500D01*
X205588001Y-57746500D01*
X205588000Y-98146000D01*
%TA.AperFunction,Conductor*%
D21*
G36*
X205588000Y-98146000D02*
G01*
X156108000Y-98146000D01*
X156108000Y-96586757D01*
X156363000Y-96586757D01*
X156363000Y-96829243D01*
X156410307Y-97067069D01*
X156503102Y-97291097D01*
X156637820Y-97492717D01*
X156809283Y-97664180D01*
X157010903Y-97798898D01*
X157234931Y-97891693D01*
X157472757Y-97939000D01*
X157715243Y-97939000D01*
X157953069Y-97891693D01*
X158177097Y-97798898D01*
X158378717Y-97664180D01*
X158550180Y-97492717D01*
X158684898Y-97291097D01*
X158777693Y-97067069D01*
X158825000Y-96829243D01*
X158825000Y-96586757D01*
X158777693Y-96348931D01*
X158684898Y-96124903D01*
X158550180Y-95923283D01*
X158484897Y-95858000D01*
X202874157Y-95858000D01*
X202874157Y-97558000D01*
X202881513Y-97632689D01*
X202903299Y-97704508D01*
X202938678Y-97770696D01*
X202986289Y-97828711D01*
X203044304Y-97876322D01*
X203110492Y-97911701D01*
X203182311Y-97933487D01*
X203257000Y-97940843D01*
X204957000Y-97940843D01*
X205031689Y-97933487D01*
X205103508Y-97911701D01*
X205169696Y-97876322D01*
X205227711Y-97828711D01*
X205275322Y-97770696D01*
X205310701Y-97704508D01*
X205332487Y-97632689D01*
X205339843Y-97558000D01*
X205339843Y-95858000D01*
X205332487Y-95783311D01*
X205310701Y-95711492D01*
X205275322Y-95645304D01*
X205227711Y-95587289D01*
X205169696Y-95539678D01*
X205103508Y-95504299D01*
X205031689Y-95482513D01*
X204957000Y-95475157D01*
X203257000Y-95475157D01*
X203182311Y-95482513D01*
X203110492Y-95504299D01*
X203044304Y-95539678D01*
X202986289Y-95587289D01*
X202938678Y-95645304D01*
X202903299Y-95711492D01*
X202881513Y-95783311D01*
X202874157Y-95858000D01*
X158484897Y-95858000D01*
X158378717Y-95751820D01*
X158177097Y-95617102D01*
X157953069Y-95524307D01*
X157715243Y-95477000D01*
X157472757Y-95477000D01*
X157234931Y-95524307D01*
X157010903Y-95617102D01*
X156809283Y-95751820D01*
X156637820Y-95923283D01*
X156503102Y-96124903D01*
X156410307Y-96348931D01*
X156363000Y-96586757D01*
X156108000Y-96586757D01*
X156108000Y-94046757D01*
X156363000Y-94046757D01*
X156363000Y-94289243D01*
X156410307Y-94527069D01*
X156503102Y-94751097D01*
X156637820Y-94952717D01*
X156809283Y-95124180D01*
X157010903Y-95258898D01*
X157234931Y-95351693D01*
X157472757Y-95399000D01*
X157715243Y-95399000D01*
X157953069Y-95351693D01*
X158177097Y-95258898D01*
X158378717Y-95124180D01*
X158550180Y-94952717D01*
X158684898Y-94751097D01*
X158777693Y-94527069D01*
X158825000Y-94289243D01*
X158825000Y-94046757D01*
X202876000Y-94046757D01*
X202876000Y-94289243D01*
X202923307Y-94527069D01*
X203016102Y-94751097D01*
X203150820Y-94952717D01*
X203322283Y-95124180D01*
X203523903Y-95258898D01*
X203747931Y-95351693D01*
X203985757Y-95399000D01*
X204228243Y-95399000D01*
X204466069Y-95351693D01*
X204690097Y-95258898D01*
X204891717Y-95124180D01*
X205063180Y-94952717D01*
X205197898Y-94751097D01*
X205290693Y-94527069D01*
X205338000Y-94289243D01*
X205338000Y-94046757D01*
X205290693Y-93808931D01*
X205197898Y-93584903D01*
X205063180Y-93383283D01*
X204891717Y-93211820D01*
X204690097Y-93077102D01*
X204466069Y-92984307D01*
X204228243Y-92937000D01*
X203985757Y-92937000D01*
X203747931Y-92984307D01*
X203523903Y-93077102D01*
X203322283Y-93211820D01*
X203150820Y-93383283D01*
X203016102Y-93584903D01*
X202923307Y-93808931D01*
X202876000Y-94046757D01*
X158825000Y-94046757D01*
X158777693Y-93808931D01*
X158684898Y-93584903D01*
X158550180Y-93383283D01*
X158378717Y-93211820D01*
X158177097Y-93077102D01*
X157953069Y-92984307D01*
X157715243Y-92937000D01*
X157472757Y-92937000D01*
X157234931Y-92984307D01*
X157010903Y-93077102D01*
X156809283Y-93211820D01*
X156637820Y-93383283D01*
X156503102Y-93584903D01*
X156410307Y-93808931D01*
X156363000Y-94046757D01*
X156108000Y-94046757D01*
X156108000Y-91506757D01*
X156363000Y-91506757D01*
X156363000Y-91749243D01*
X156410307Y-91987069D01*
X156503102Y-92211097D01*
X156637820Y-92412717D01*
X156809283Y-92584180D01*
X157010903Y-92718898D01*
X157234931Y-92811693D01*
X157472757Y-92859000D01*
X157715243Y-92859000D01*
X157953069Y-92811693D01*
X158177097Y-92718898D01*
X158378717Y-92584180D01*
X158550180Y-92412717D01*
X158684898Y-92211097D01*
X158777693Y-91987069D01*
X158825000Y-91749243D01*
X158825000Y-91506757D01*
X202876000Y-91506757D01*
X202876000Y-91749243D01*
X202923307Y-91987069D01*
X203016102Y-92211097D01*
X203150820Y-92412717D01*
X203322283Y-92584180D01*
X203523903Y-92718898D01*
X203747931Y-92811693D01*
X203985757Y-92859000D01*
X204228243Y-92859000D01*
X204466069Y-92811693D01*
X204690097Y-92718898D01*
X204891717Y-92584180D01*
X205063180Y-92412717D01*
X205197898Y-92211097D01*
X205290693Y-91987069D01*
X205338000Y-91749243D01*
X205338000Y-91506757D01*
X205290693Y-91268931D01*
X205197898Y-91044903D01*
X205063180Y-90843283D01*
X204891717Y-90671820D01*
X204690097Y-90537102D01*
X204466069Y-90444307D01*
X204228243Y-90397000D01*
X203985757Y-90397000D01*
X203747931Y-90444307D01*
X203523903Y-90537102D01*
X203322283Y-90671820D01*
X203150820Y-90843283D01*
X203016102Y-91044903D01*
X202923307Y-91268931D01*
X202876000Y-91506757D01*
X158825000Y-91506757D01*
X158777693Y-91268931D01*
X158684898Y-91044903D01*
X158550180Y-90843283D01*
X158378717Y-90671820D01*
X158177097Y-90537102D01*
X157953069Y-90444307D01*
X157715243Y-90397000D01*
X157472757Y-90397000D01*
X157234931Y-90444307D01*
X157010903Y-90537102D01*
X156809283Y-90671820D01*
X156637820Y-90843283D01*
X156503102Y-91044903D01*
X156410307Y-91268931D01*
X156363000Y-91506757D01*
X156108000Y-91506757D01*
X156108000Y-88966757D01*
X156363000Y-88966757D01*
X156363000Y-89209243D01*
X156410307Y-89447069D01*
X156503102Y-89671097D01*
X156637820Y-89872717D01*
X156809283Y-90044180D01*
X157010903Y-90178898D01*
X157234931Y-90271693D01*
X157472757Y-90319000D01*
X157715243Y-90319000D01*
X157953069Y-90271693D01*
X158177097Y-90178898D01*
X158378717Y-90044180D01*
X158550180Y-89872717D01*
X158684898Y-89671097D01*
X158737046Y-89545200D01*
X161046875Y-89545200D01*
X161060023Y-89588544D01*
X161113884Y-89689310D01*
X161186368Y-89777632D01*
X161274690Y-89850116D01*
X161375456Y-89903977D01*
X161484793Y-89937144D01*
X161598500Y-89948343D01*
X161998500Y-89948343D01*
X162112207Y-89937144D01*
X162221544Y-89903977D01*
X162322310Y-89850116D01*
X162410632Y-89777632D01*
X162483116Y-89689310D01*
X162536977Y-89588544D01*
X162570144Y-89479207D01*
X162581343Y-89365500D01*
X162581343Y-88815500D01*
X162570144Y-88701793D01*
X162536977Y-88592456D01*
X162483116Y-88491690D01*
X162410632Y-88403368D01*
X162322310Y-88330884D01*
X162221544Y-88277023D01*
X162112207Y-88243856D01*
X161998500Y-88232657D01*
X161598500Y-88232657D01*
X161484793Y-88243856D01*
X161375456Y-88277023D01*
X161274690Y-88330884D01*
X161186368Y-88403368D01*
X161113884Y-88491690D01*
X161060023Y-88592456D01*
X161048391Y-88630800D01*
X158737046Y-88630800D01*
X158684898Y-88504903D01*
X158550180Y-88303283D01*
X158378717Y-88131820D01*
X158177097Y-87997102D01*
X157953069Y-87904307D01*
X157715243Y-87857000D01*
X157472757Y-87857000D01*
X157234931Y-87904307D01*
X157010903Y-87997102D01*
X156809283Y-88131820D01*
X156637820Y-88303283D01*
X156503102Y-88504903D01*
X156410307Y-88728931D01*
X156363000Y-88966757D01*
X156108000Y-88966757D01*
X156108000Y-86426757D01*
X156363000Y-86426757D01*
X156363000Y-86669243D01*
X156410307Y-86907069D01*
X156503102Y-87131097D01*
X156637820Y-87332717D01*
X156809283Y-87504180D01*
X157010903Y-87638898D01*
X157234931Y-87731693D01*
X157472757Y-87779000D01*
X157715243Y-87779000D01*
X157953069Y-87731693D01*
X158177097Y-87638898D01*
X158378717Y-87504180D01*
X158550180Y-87332717D01*
X158684898Y-87131097D01*
X158715093Y-87058200D01*
X160978414Y-87058200D01*
X160986426Y-87084611D01*
X161042597Y-87189699D01*
X161118190Y-87281810D01*
X161210301Y-87357403D01*
X161315389Y-87413574D01*
X161429416Y-87448163D01*
X161548000Y-87459843D01*
X162048000Y-87459843D01*
X162166584Y-87448163D01*
X162280611Y-87413574D01*
X162385699Y-87357403D01*
X162477810Y-87281810D01*
X162553403Y-87189699D01*
X162609574Y-87084611D01*
X162617586Y-87058200D01*
X162622830Y-87058200D01*
X162635523Y-87100044D01*
X162689384Y-87200810D01*
X162761868Y-87289132D01*
X162850190Y-87361616D01*
X162950956Y-87415477D01*
X163060293Y-87448644D01*
X163174000Y-87459843D01*
X163724000Y-87459843D01*
X163837707Y-87448644D01*
X163947044Y-87415477D01*
X164047810Y-87361616D01*
X164136132Y-87289132D01*
X164208616Y-87200810D01*
X164262477Y-87100044D01*
X164295644Y-86990707D01*
X164306843Y-86877000D01*
X164306843Y-86477000D01*
X164295644Y-86363293D01*
X164262477Y-86253956D01*
X164208616Y-86153190D01*
X164136132Y-86064868D01*
X164047810Y-85992384D01*
X163947044Y-85938523D01*
X163837707Y-85905356D01*
X163724000Y-85894157D01*
X163174000Y-85894157D01*
X163060293Y-85905356D01*
X162950956Y-85938523D01*
X162850190Y-85992384D01*
X162761868Y-86064868D01*
X162697090Y-86143800D01*
X162595896Y-86143800D01*
X162553403Y-86064301D01*
X162477810Y-85972190D01*
X162385699Y-85896597D01*
X162302264Y-85852000D01*
X162385699Y-85807403D01*
X162477810Y-85731810D01*
X162553403Y-85639699D01*
X162609574Y-85534611D01*
X162635375Y-85449555D01*
X162635523Y-85450044D01*
X162689384Y-85550810D01*
X162761868Y-85639132D01*
X162850190Y-85711616D01*
X162950956Y-85765477D01*
X163060293Y-85798644D01*
X163174000Y-85809843D01*
X163724000Y-85809843D01*
X163837707Y-85798644D01*
X163947044Y-85765477D01*
X164047810Y-85711616D01*
X164136132Y-85639132D01*
X164208616Y-85550810D01*
X164262477Y-85450044D01*
X164295644Y-85340707D01*
X164306843Y-85227000D01*
X164306843Y-84827000D01*
X164295644Y-84713293D01*
X164262477Y-84603956D01*
X164208616Y-84503190D01*
X164136132Y-84414868D01*
X164047810Y-84342384D01*
X163947044Y-84288523D01*
X163906200Y-84276133D01*
X163906200Y-76327958D01*
X173101000Y-76327958D01*
X173101000Y-76453042D01*
X173125403Y-76575723D01*
X173173271Y-76691285D01*
X173242764Y-76795289D01*
X173331211Y-76883736D01*
X173435215Y-76953229D01*
X173550777Y-77001097D01*
X173673458Y-77025500D01*
X173798542Y-77025500D01*
X173921223Y-77001097D01*
X173953065Y-76987908D01*
X174020690Y-77070310D01*
X174112801Y-77145903D01*
X174217889Y-77202074D01*
X174331916Y-77236663D01*
X174450500Y-77248343D01*
X174900500Y-77248343D01*
X175019084Y-77236663D01*
X175133111Y-77202074D01*
X175212657Y-77159555D01*
X175244963Y-77219994D01*
X175324315Y-77316685D01*
X175421006Y-77396037D01*
X175531320Y-77455002D01*
X175651018Y-77491312D01*
X175775500Y-77503572D01*
X175939750Y-77500500D01*
X176098500Y-77341750D01*
X176098500Y-76517500D01*
X176352500Y-76517500D01*
X176352500Y-77341750D01*
X176511250Y-77500500D01*
X176675500Y-77503572D01*
X176799982Y-77491312D01*
X176919680Y-77455002D01*
X177029994Y-77396037D01*
X177126685Y-77316685D01*
X177206037Y-77219994D01*
X177265002Y-77109680D01*
X177301312Y-76989982D01*
X177313572Y-76865500D01*
X177310500Y-76676250D01*
X177151750Y-76517500D01*
X176352500Y-76517500D01*
X176098500Y-76517500D01*
X176078500Y-76517500D01*
X176078500Y-76263500D01*
X176098500Y-76263500D01*
X176098500Y-75439250D01*
X175939750Y-75280500D01*
X175775500Y-75277428D01*
X175651018Y-75289688D01*
X175531320Y-75325998D01*
X175421006Y-75384963D01*
X175324315Y-75464315D01*
X175244963Y-75561006D01*
X175212657Y-75621445D01*
X175133111Y-75578926D01*
X175019084Y-75544337D01*
X174900500Y-75532657D01*
X174450500Y-75532657D01*
X174331916Y-75544337D01*
X174217889Y-75578926D01*
X174112801Y-75635097D01*
X174020690Y-75710690D01*
X173953065Y-75793092D01*
X173921223Y-75779903D01*
X173798542Y-75755500D01*
X173673458Y-75755500D01*
X173550777Y-75779903D01*
X173435215Y-75827771D01*
X173331211Y-75897264D01*
X173242764Y-75985711D01*
X173173271Y-76089715D01*
X173125403Y-76205277D01*
X173101000Y-76327958D01*
X163906200Y-76327958D01*
X163906200Y-74484377D01*
X165262878Y-73127700D01*
X173422459Y-73127700D01*
X173426799Y-73142008D01*
X173462178Y-73208196D01*
X173509789Y-73266211D01*
X173567804Y-73313822D01*
X173633992Y-73349201D01*
X173705811Y-73370987D01*
X173780500Y-73378343D01*
X174840500Y-73378343D01*
X174915189Y-73370987D01*
X174929801Y-73366555D01*
X174929800Y-73874445D01*
X174915189Y-73870013D01*
X174840500Y-73862657D01*
X173780500Y-73862657D01*
X173705811Y-73870013D01*
X173633992Y-73891799D01*
X173567804Y-73927178D01*
X173509789Y-73974789D01*
X173507576Y-73977486D01*
X173413223Y-73938403D01*
X173290542Y-73914000D01*
X173165458Y-73914000D01*
X173042777Y-73938403D01*
X172927215Y-73986271D01*
X172823211Y-74055764D01*
X172734764Y-74144211D01*
X172665271Y-74248215D01*
X172617403Y-74363777D01*
X172593000Y-74486458D01*
X172593000Y-74611542D01*
X172617403Y-74734223D01*
X172665271Y-74849785D01*
X172734764Y-74953789D01*
X172823211Y-75042236D01*
X172927215Y-75111729D01*
X173042777Y-75159597D01*
X173165458Y-75184000D01*
X173290542Y-75184000D01*
X173413223Y-75159597D01*
X173481240Y-75131423D01*
X173509789Y-75166211D01*
X173567804Y-75213822D01*
X173633992Y-75249201D01*
X173705811Y-75270987D01*
X173780500Y-75278343D01*
X174840500Y-75278343D01*
X174915189Y-75270987D01*
X174987008Y-75249201D01*
X175053196Y-75213822D01*
X175111211Y-75166211D01*
X175158822Y-75108196D01*
X175194201Y-75042008D01*
X175215987Y-74970189D01*
X175223343Y-74895500D01*
X175223343Y-74612321D01*
X175488934Y-74877913D01*
X175503247Y-74895353D01*
X175520686Y-74909665D01*
X175520692Y-74909671D01*
X175572864Y-74952487D01*
X175604959Y-74969642D01*
X175605013Y-74970189D01*
X175626799Y-75042008D01*
X175662178Y-75108196D01*
X175709789Y-75166211D01*
X175767804Y-75213822D01*
X175833992Y-75249201D01*
X175905811Y-75270987D01*
X175980500Y-75278343D01*
X176626578Y-75278343D01*
X176511250Y-75280500D01*
X176352500Y-75439250D01*
X176352500Y-76263500D01*
X177151750Y-76263500D01*
X177310500Y-76104750D01*
X177313572Y-75915500D01*
X177301312Y-75791018D01*
X177265002Y-75671320D01*
X177206037Y-75561006D01*
X177126685Y-75464315D01*
X177029994Y-75384963D01*
X176919680Y-75325998D01*
X176799982Y-75289688D01*
X176684790Y-75278343D01*
X177040500Y-75278343D01*
X177115189Y-75270987D01*
X177187008Y-75249201D01*
X177253196Y-75213822D01*
X177311211Y-75166211D01*
X177358822Y-75108196D01*
X177394201Y-75042008D01*
X177415987Y-74970189D01*
X177423343Y-74895500D01*
X177423343Y-74452772D01*
X177491685Y-74396685D01*
X177571037Y-74299994D01*
X177630002Y-74189680D01*
X177666312Y-74069982D01*
X177678572Y-73945500D01*
X177675500Y-73906250D01*
X177516750Y-73747500D01*
X176637500Y-73747500D01*
X176637500Y-73767500D01*
X176383500Y-73767500D01*
X176383500Y-73747500D01*
X176363500Y-73747500D01*
X176363500Y-73493500D01*
X176383500Y-73493500D01*
X176383500Y-73473500D01*
X176637500Y-73473500D01*
X176637500Y-73493500D01*
X177516750Y-73493500D01*
X177667750Y-73342500D01*
X178308001Y-73342500D01*
X178308001Y-73494350D01*
X178288113Y-73559911D01*
X178280757Y-73634600D01*
X178280757Y-75615800D01*
X178288113Y-75690489D01*
X178309899Y-75762308D01*
X178345278Y-75828496D01*
X178392889Y-75886511D01*
X178450904Y-75934122D01*
X178517092Y-75969501D01*
X178588911Y-75991287D01*
X178663600Y-75998643D01*
X179222400Y-75998643D01*
X179297089Y-75991287D01*
X179368908Y-75969501D01*
X179435096Y-75934122D01*
X179493111Y-75886511D01*
X179540722Y-75828496D01*
X179576101Y-75762308D01*
X179578000Y-75756048D01*
X179579899Y-75762308D01*
X179596078Y-75792576D01*
X179578000Y-75883458D01*
X179578000Y-76008542D01*
X179602403Y-76131223D01*
X179650271Y-76246785D01*
X179719764Y-76350789D01*
X179808211Y-76439236D01*
X179912215Y-76508729D01*
X180027777Y-76556597D01*
X180150458Y-76581000D01*
X180275542Y-76581000D01*
X180398223Y-76556597D01*
X180513785Y-76508729D01*
X180617789Y-76439236D01*
X180706236Y-76350789D01*
X180775729Y-76246785D01*
X180823597Y-76131223D01*
X180824575Y-76126304D01*
X180847820Y-76145475D01*
X180957990Y-76204707D01*
X181077600Y-76241308D01*
X181197250Y-76250800D01*
X181356000Y-76092050D01*
X181356000Y-74752200D01*
X181336000Y-74752200D01*
X181336000Y-74498200D01*
X181356000Y-74498200D01*
X181356000Y-74478200D01*
X181610000Y-74478200D01*
X181610000Y-74498200D01*
X181630000Y-74498200D01*
X181630000Y-74752200D01*
X181610000Y-74752200D01*
X181610000Y-76092050D01*
X181768750Y-76250800D01*
X181888400Y-76241308D01*
X182008010Y-76204707D01*
X182118180Y-76145475D01*
X182214679Y-76065889D01*
X182293796Y-75969005D01*
X182295800Y-75965233D01*
X182295801Y-77280621D01*
X181928623Y-77647800D01*
X177568450Y-77647800D01*
X177546000Y-77645589D01*
X177523550Y-77647800D01*
X177523540Y-77647800D01*
X177456373Y-77654415D01*
X177390249Y-77674474D01*
X177370190Y-77680559D01*
X177290764Y-77723013D01*
X177238592Y-77765829D01*
X177238586Y-77765835D01*
X177221147Y-77780147D01*
X177206835Y-77797587D01*
X176476597Y-78527826D01*
X176459147Y-78542147D01*
X176402013Y-78611765D01*
X176359559Y-78691192D01*
X176333415Y-78777374D01*
X176326800Y-78844541D01*
X176326800Y-78844550D01*
X176324589Y-78867000D01*
X176326800Y-78889450D01*
X176326801Y-88329621D01*
X176023123Y-88633300D01*
X164199367Y-88633300D01*
X164186977Y-88592456D01*
X164133116Y-88491690D01*
X164060632Y-88403368D01*
X163972310Y-88330884D01*
X163871544Y-88277023D01*
X163762207Y-88243856D01*
X163648500Y-88232657D01*
X163248500Y-88232657D01*
X163134793Y-88243856D01*
X163025456Y-88277023D01*
X162924690Y-88330884D01*
X162836368Y-88403368D01*
X162763884Y-88491690D01*
X162710023Y-88592456D01*
X162676856Y-88701793D01*
X162665657Y-88815500D01*
X162665657Y-89365500D01*
X162676856Y-89479207D01*
X162710023Y-89588544D01*
X162763884Y-89689310D01*
X162836368Y-89777632D01*
X162924690Y-89850116D01*
X163025456Y-89903977D01*
X163134793Y-89937144D01*
X163248500Y-89948343D01*
X163648500Y-89948343D01*
X163762207Y-89937144D01*
X163871544Y-89903977D01*
X163972310Y-89850116D01*
X164060632Y-89777632D01*
X164133116Y-89689310D01*
X164186977Y-89588544D01*
X164199367Y-89547700D01*
X176190050Y-89547700D01*
X176212500Y-89549911D01*
X176234950Y-89547700D01*
X176234960Y-89547700D01*
X176302127Y-89541085D01*
X176388309Y-89514941D01*
X176467736Y-89472487D01*
X176537353Y-89415353D01*
X176551674Y-89397903D01*
X176982820Y-88966757D01*
X202876000Y-88966757D01*
X202876000Y-89209243D01*
X202923307Y-89447069D01*
X203016102Y-89671097D01*
X203150820Y-89872717D01*
X203322283Y-90044180D01*
X203523903Y-90178898D01*
X203747931Y-90271693D01*
X203985757Y-90319000D01*
X204228243Y-90319000D01*
X204466069Y-90271693D01*
X204690097Y-90178898D01*
X204891717Y-90044180D01*
X205063180Y-89872717D01*
X205197898Y-89671097D01*
X205290693Y-89447069D01*
X205338000Y-89209243D01*
X205338000Y-88966757D01*
X205290693Y-88728931D01*
X205197898Y-88504903D01*
X205063180Y-88303283D01*
X204891717Y-88131820D01*
X204690097Y-87997102D01*
X204466069Y-87904307D01*
X204228243Y-87857000D01*
X203985757Y-87857000D01*
X203747931Y-87904307D01*
X203523903Y-87997102D01*
X203322283Y-88131820D01*
X203150820Y-88303283D01*
X203016102Y-88504903D01*
X202923307Y-88728931D01*
X202876000Y-88966757D01*
X176982820Y-88966757D01*
X177091408Y-88858170D01*
X177108853Y-88843853D01*
X177165987Y-88774236D01*
X177208441Y-88694809D01*
X177234585Y-88608627D01*
X177241200Y-88541460D01*
X177241200Y-88541451D01*
X177243411Y-88519001D01*
X177241200Y-88496551D01*
X177241200Y-82390000D01*
X178794428Y-82390000D01*
X178806688Y-82514482D01*
X178842998Y-82634180D01*
X178901963Y-82744494D01*
X178981315Y-82841185D01*
X179078006Y-82920537D01*
X179188320Y-82979502D01*
X179308018Y-83015812D01*
X179432500Y-83028072D01*
X179546750Y-83025000D01*
X179705500Y-82866250D01*
X179705500Y-82042000D01*
X178956250Y-82042000D01*
X178797500Y-82200750D01*
X178794428Y-82390000D01*
X177241200Y-82390000D01*
X177241200Y-79056377D01*
X177735379Y-78562200D01*
X178280757Y-78562200D01*
X178280757Y-80543400D01*
X178288113Y-80618089D01*
X178309899Y-80689908D01*
X178345278Y-80756096D01*
X178392889Y-80814111D01*
X178450904Y-80861722D01*
X178517092Y-80897101D01*
X178588911Y-80918887D01*
X178663600Y-80926243D01*
X179057559Y-80926243D01*
X178981315Y-80988815D01*
X178901963Y-81085506D01*
X178842998Y-81195820D01*
X178806688Y-81315518D01*
X178794428Y-81440000D01*
X178797500Y-81629250D01*
X178956250Y-81788000D01*
X179705500Y-81788000D01*
X179705500Y-81768000D01*
X179959500Y-81768000D01*
X179959500Y-81788000D01*
X179979500Y-81788000D01*
X179979500Y-82042000D01*
X179959500Y-82042000D01*
X179959500Y-82866250D01*
X180118250Y-83025000D01*
X180232500Y-83028072D01*
X180356982Y-83015812D01*
X180476680Y-82979502D01*
X180586994Y-82920537D01*
X180683685Y-82841185D01*
X180763037Y-82744494D01*
X180822002Y-82634180D01*
X180842153Y-82567752D01*
X180870368Y-82602132D01*
X180958690Y-82674616D01*
X181025300Y-82710220D01*
X181025301Y-86156760D01*
X181023089Y-86179220D01*
X181025301Y-86201680D01*
X181031916Y-86268847D01*
X181039172Y-86292765D01*
X181058060Y-86355029D01*
X181096399Y-86426757D01*
X181100514Y-86434456D01*
X181157648Y-86504073D01*
X181175093Y-86518390D01*
X182218220Y-87561518D01*
X182232537Y-87578963D01*
X182302154Y-87636097D01*
X182381581Y-87678551D01*
X182467763Y-87704695D01*
X182534930Y-87711310D01*
X182534939Y-87711310D01*
X182557389Y-87713521D01*
X182579839Y-87711310D01*
X200190088Y-87711310D01*
X200212538Y-87713521D01*
X200234988Y-87711310D01*
X200234998Y-87711310D01*
X200302165Y-87704695D01*
X200388347Y-87678551D01*
X200467774Y-87636097D01*
X200537391Y-87578963D01*
X200551712Y-87561513D01*
X200771014Y-87342211D01*
X200788463Y-87327891D01*
X200845597Y-87258274D01*
X200863035Y-87225650D01*
X200872868Y-87237632D01*
X200961190Y-87310116D01*
X201061956Y-87363977D01*
X201171293Y-87397144D01*
X201285000Y-87408343D01*
X201685000Y-87408343D01*
X201798707Y-87397144D01*
X201908044Y-87363977D01*
X202008810Y-87310116D01*
X202097132Y-87237632D01*
X202169616Y-87149310D01*
X202223477Y-87048544D01*
X202235867Y-87007700D01*
X202964990Y-87007700D01*
X203016102Y-87131097D01*
X203150820Y-87332717D01*
X203322283Y-87504180D01*
X203523903Y-87638898D01*
X203747931Y-87731693D01*
X203985757Y-87779000D01*
X204228243Y-87779000D01*
X204466069Y-87731693D01*
X204690097Y-87638898D01*
X204891717Y-87504180D01*
X205063180Y-87332717D01*
X205197898Y-87131097D01*
X205290693Y-86907069D01*
X205338000Y-86669243D01*
X205338000Y-86426757D01*
X205290693Y-86188931D01*
X205197898Y-85964903D01*
X205063180Y-85763283D01*
X204891717Y-85591820D01*
X204690097Y-85457102D01*
X204466069Y-85364307D01*
X204228243Y-85317000D01*
X203985757Y-85317000D01*
X203747931Y-85364307D01*
X203523903Y-85457102D01*
X203322283Y-85591820D01*
X203150820Y-85763283D01*
X203016102Y-85964903D01*
X202962918Y-86093300D01*
X202235867Y-86093300D01*
X202223477Y-86052456D01*
X202169616Y-85951690D01*
X202097132Y-85863368D01*
X202008810Y-85790884D01*
X201908044Y-85737023D01*
X201798707Y-85703856D01*
X201685000Y-85692657D01*
X201285000Y-85692657D01*
X201171293Y-85703856D01*
X201061956Y-85737023D01*
X200961190Y-85790884D01*
X200920810Y-85824023D01*
X200920810Y-84789060D01*
X200923021Y-84766610D01*
X200920810Y-84744160D01*
X200920810Y-84744150D01*
X200914195Y-84676983D01*
X200888051Y-84590801D01*
X200845597Y-84511374D01*
X200788463Y-84441757D01*
X200771018Y-84427440D01*
X200292200Y-83948623D01*
X200292200Y-83886757D01*
X202876000Y-83886757D01*
X202876000Y-84129243D01*
X202923307Y-84367069D01*
X203016102Y-84591097D01*
X203150820Y-84792717D01*
X203322283Y-84964180D01*
X203523903Y-85098898D01*
X203747931Y-85191693D01*
X203985757Y-85239000D01*
X204228243Y-85239000D01*
X204466069Y-85191693D01*
X204690097Y-85098898D01*
X204891717Y-84964180D01*
X205063180Y-84792717D01*
X205197898Y-84591097D01*
X205290693Y-84367069D01*
X205338000Y-84129243D01*
X205338000Y-83886757D01*
X205290693Y-83648931D01*
X205197898Y-83424903D01*
X205063180Y-83223283D01*
X204891717Y-83051820D01*
X204690097Y-82917102D01*
X204466069Y-82824307D01*
X204228243Y-82777000D01*
X203985757Y-82777000D01*
X203747931Y-82824307D01*
X203523903Y-82917102D01*
X203322283Y-83051820D01*
X203150820Y-83223283D01*
X203016102Y-83424903D01*
X202923307Y-83648931D01*
X202876000Y-83886757D01*
X200292200Y-83886757D01*
X200292200Y-81346757D01*
X202876000Y-81346757D01*
X202876000Y-81589243D01*
X202923307Y-81827069D01*
X203016102Y-82051097D01*
X203150820Y-82252717D01*
X203322283Y-82424180D01*
X203523903Y-82558898D01*
X203747931Y-82651693D01*
X203985757Y-82699000D01*
X204228243Y-82699000D01*
X204466069Y-82651693D01*
X204690097Y-82558898D01*
X204891717Y-82424180D01*
X205063180Y-82252717D01*
X205197898Y-82051097D01*
X205290693Y-81827069D01*
X205338000Y-81589243D01*
X205338000Y-81346757D01*
X205290693Y-81108931D01*
X205197898Y-80884903D01*
X205063180Y-80683283D01*
X204891717Y-80511820D01*
X204690097Y-80377102D01*
X204466069Y-80284307D01*
X204228243Y-80237000D01*
X203985757Y-80237000D01*
X203747931Y-80284307D01*
X203523903Y-80377102D01*
X203322283Y-80511820D01*
X203150820Y-80683283D01*
X203016102Y-80884903D01*
X202923307Y-81108931D01*
X202876000Y-81346757D01*
X200292200Y-81346757D01*
X200292200Y-79725720D01*
X200358810Y-79690116D01*
X200447132Y-79617632D01*
X200519616Y-79529310D01*
X200573477Y-79428544D01*
X200606644Y-79319207D01*
X200617843Y-79205500D01*
X200617843Y-78655500D01*
X200702157Y-78655500D01*
X200702157Y-79205500D01*
X200713356Y-79319207D01*
X200746523Y-79428544D01*
X200800384Y-79529310D01*
X200872868Y-79617632D01*
X200961190Y-79690116D01*
X201061956Y-79743977D01*
X201171293Y-79777144D01*
X201285000Y-79788343D01*
X201685000Y-79788343D01*
X201798707Y-79777144D01*
X201908044Y-79743977D01*
X202008810Y-79690116D01*
X202097132Y-79617632D01*
X202169616Y-79529310D01*
X202223477Y-79428544D01*
X202235867Y-79387700D01*
X202964990Y-79387700D01*
X203016102Y-79511097D01*
X203150820Y-79712717D01*
X203322283Y-79884180D01*
X203523903Y-80018898D01*
X203747931Y-80111693D01*
X203985757Y-80159000D01*
X204228243Y-80159000D01*
X204466069Y-80111693D01*
X204690097Y-80018898D01*
X204891717Y-79884180D01*
X205063180Y-79712717D01*
X205197898Y-79511097D01*
X205290693Y-79287069D01*
X205338000Y-79049243D01*
X205338000Y-78806757D01*
X205290693Y-78568931D01*
X205197898Y-78344903D01*
X205063180Y-78143283D01*
X204891717Y-77971820D01*
X204690097Y-77837102D01*
X204466069Y-77744307D01*
X204228243Y-77697000D01*
X203985757Y-77697000D01*
X203747931Y-77744307D01*
X203523903Y-77837102D01*
X203322283Y-77971820D01*
X203150820Y-78143283D01*
X203016102Y-78344903D01*
X202962918Y-78473300D01*
X202235867Y-78473300D01*
X202223477Y-78432456D01*
X202169616Y-78331690D01*
X202097132Y-78243368D01*
X202008810Y-78170884D01*
X201908044Y-78117023D01*
X201798707Y-78083856D01*
X201685000Y-78072657D01*
X201285000Y-78072657D01*
X201171293Y-78083856D01*
X201061956Y-78117023D01*
X200961190Y-78170884D01*
X200872868Y-78243368D01*
X200800384Y-78331690D01*
X200746523Y-78432456D01*
X200713356Y-78541793D01*
X200702157Y-78655500D01*
X200617843Y-78655500D01*
X200606644Y-78541793D01*
X200573477Y-78432456D01*
X200519616Y-78331690D01*
X200447132Y-78243368D01*
X200358810Y-78170884D01*
X200258044Y-78117023D01*
X200148707Y-78083856D01*
X200035000Y-78072657D01*
X199635000Y-78072657D01*
X199521293Y-78083856D01*
X199411956Y-78117023D01*
X199311190Y-78170884D01*
X199222868Y-78243368D01*
X199150384Y-78331690D01*
X199096523Y-78432456D01*
X199063356Y-78541793D01*
X199052157Y-78655500D01*
X199052157Y-79205500D01*
X199063356Y-79319207D01*
X199096523Y-79428544D01*
X199150384Y-79529310D01*
X199222868Y-79617632D01*
X199311190Y-79690116D01*
X199377801Y-79725721D01*
X199377800Y-84115550D01*
X199375589Y-84138000D01*
X199377800Y-84160450D01*
X199377800Y-84160459D01*
X199384415Y-84227626D01*
X199410559Y-84313808D01*
X199453013Y-84393235D01*
X199510147Y-84462853D01*
X199527597Y-84477174D01*
X200006411Y-84955989D01*
X200006411Y-85692657D01*
X199635000Y-85692657D01*
X199521293Y-85703856D01*
X199411956Y-85737023D01*
X199311190Y-85790884D01*
X199222868Y-85863368D01*
X199150384Y-85951690D01*
X199096523Y-86052456D01*
X199084133Y-86093300D01*
X183704379Y-86093300D01*
X183210200Y-85599123D01*
X183210200Y-80880375D01*
X183245096Y-80861722D01*
X183303111Y-80814111D01*
X183350722Y-80756096D01*
X183386101Y-80689908D01*
X183407887Y-80618089D01*
X183415243Y-80543400D01*
X183415243Y-78562200D01*
X183407887Y-78487511D01*
X183386101Y-78415692D01*
X183350722Y-78349504D01*
X183303111Y-78291489D01*
X183245096Y-78243878D01*
X183178908Y-78208499D01*
X183107089Y-78186713D01*
X183032400Y-78179357D01*
X182690221Y-78179357D01*
X183060413Y-77809166D01*
X183077853Y-77794853D01*
X183092165Y-77777414D01*
X183092171Y-77777408D01*
X183134987Y-77725236D01*
X183177441Y-77645810D01*
X183186478Y-77616018D01*
X183203585Y-77559627D01*
X183210200Y-77492460D01*
X183210200Y-77492450D01*
X183212411Y-77470000D01*
X183210200Y-77447550D01*
X183210200Y-75952775D01*
X183245096Y-75934122D01*
X183291527Y-75896018D01*
X183294000Y-76028250D01*
X183452750Y-76187000D01*
X184277000Y-76187000D01*
X184277000Y-75387750D01*
X184118250Y-75229000D01*
X183929000Y-75225928D01*
X183804518Y-75238188D01*
X183684820Y-75274498D01*
X183574506Y-75333463D01*
X183477815Y-75412815D01*
X183415243Y-75489059D01*
X183415243Y-73634600D01*
X183407887Y-73559911D01*
X183386101Y-73488092D01*
X183350722Y-73421904D01*
X183303111Y-73363889D01*
X183277048Y-73342500D01*
X184727642Y-73342500D01*
X184738817Y-73455963D01*
X184774829Y-73574680D01*
X184833310Y-73684090D01*
X184912012Y-73779988D01*
X185007910Y-73858690D01*
X185117320Y-73917171D01*
X185236037Y-73953183D01*
X185359498Y-73965343D01*
X185984502Y-73965343D01*
X186107963Y-73953183D01*
X186226680Y-73917171D01*
X186336090Y-73858690D01*
X186423300Y-73787118D01*
X186423300Y-74042122D01*
X185874092Y-74591331D01*
X185856648Y-74605647D01*
X185842331Y-74623092D01*
X185842330Y-74623093D01*
X185799513Y-74675265D01*
X185779144Y-74713374D01*
X185757060Y-74754691D01*
X185730916Y-74840873D01*
X185725536Y-74895500D01*
X185722941Y-74921852D01*
X185713136Y-74927093D01*
X185641710Y-74985710D01*
X185583093Y-75057136D01*
X185539536Y-75138625D01*
X185512714Y-75227046D01*
X185503657Y-75319000D01*
X185503657Y-75735710D01*
X185468502Y-75619820D01*
X185409537Y-75509506D01*
X185330185Y-75412815D01*
X185233494Y-75333463D01*
X185123180Y-75274498D01*
X185003482Y-75238188D01*
X184879000Y-75225928D01*
X184689750Y-75229000D01*
X184531000Y-75387750D01*
X184531000Y-76187000D01*
X184551000Y-76187000D01*
X184551000Y-76441000D01*
X184531000Y-76441000D01*
X184531000Y-76461000D01*
X184277000Y-76461000D01*
X184277000Y-76441000D01*
X183452750Y-76441000D01*
X183294000Y-76599750D01*
X183290928Y-76764000D01*
X183303188Y-76888482D01*
X183339498Y-77008180D01*
X183398463Y-77118494D01*
X183477815Y-77215185D01*
X183574506Y-77294537D01*
X183634945Y-77326843D01*
X183592426Y-77406389D01*
X183557837Y-77520416D01*
X183546157Y-77639000D01*
X183546157Y-78089000D01*
X183557837Y-78207584D01*
X183592426Y-78321611D01*
X183648597Y-78426699D01*
X183724190Y-78518810D01*
X183789840Y-78572687D01*
X183769000Y-78677458D01*
X183769000Y-78802542D01*
X183793403Y-78925223D01*
X183841271Y-79040785D01*
X183910764Y-79144789D01*
X183999211Y-79233236D01*
X184103215Y-79302729D01*
X184218777Y-79350597D01*
X184341458Y-79375000D01*
X184466542Y-79375000D01*
X184589223Y-79350597D01*
X184704785Y-79302729D01*
X184808789Y-79233236D01*
X184897236Y-79144789D01*
X184966729Y-79040785D01*
X185014597Y-78925223D01*
X185039000Y-78802542D01*
X185039000Y-78677458D01*
X185018160Y-78572687D01*
X185083810Y-78518810D01*
X185159403Y-78426699D01*
X185215574Y-78321611D01*
X185250163Y-78207584D01*
X185261843Y-78089000D01*
X185261843Y-77829000D01*
X185503657Y-77829000D01*
X185503657Y-78862000D01*
X185512714Y-78953954D01*
X185539536Y-79042375D01*
X185583093Y-79123864D01*
X185641710Y-79195290D01*
X185713136Y-79253907D01*
X185723253Y-79259314D01*
X185724301Y-79269960D01*
X185730916Y-79337127D01*
X185753743Y-79412374D01*
X185757060Y-79423309D01*
X185799513Y-79502735D01*
X185834562Y-79545441D01*
X185856648Y-79572353D01*
X185874093Y-79586670D01*
X186096826Y-79809403D01*
X186111147Y-79826853D01*
X186180764Y-79883987D01*
X186260191Y-79926441D01*
X186346373Y-79952585D01*
X186413540Y-79959200D01*
X186413549Y-79959200D01*
X186435999Y-79961411D01*
X186458449Y-79959200D01*
X192382550Y-79959200D01*
X192405000Y-79961411D01*
X192427450Y-79959200D01*
X192427460Y-79959200D01*
X192494627Y-79952585D01*
X192580809Y-79926441D01*
X192660236Y-79883987D01*
X192729853Y-79826853D01*
X192744174Y-79809403D01*
X193093409Y-79460169D01*
X193110853Y-79445853D01*
X193138330Y-79412373D01*
X193167987Y-79376237D01*
X193198469Y-79319207D01*
X193210441Y-79296809D01*
X193236585Y-79210627D01*
X193243200Y-79143460D01*
X193243200Y-79143451D01*
X193245411Y-79121001D01*
X193243200Y-79098551D01*
X193243200Y-73595377D01*
X193356378Y-73482200D01*
X200978623Y-73482200D01*
X201028300Y-73531878D01*
X201028300Y-73989133D01*
X200987456Y-74001523D01*
X200886690Y-74055384D01*
X200798368Y-74127868D01*
X200725884Y-74216190D01*
X200672023Y-74316956D01*
X200656708Y-74367444D01*
X200646074Y-74332389D01*
X200589903Y-74227301D01*
X200514310Y-74135190D01*
X200422199Y-74059597D01*
X200317111Y-74003426D01*
X200203084Y-73968837D01*
X200084500Y-73957157D01*
X199584500Y-73957157D01*
X199465916Y-73968837D01*
X199351889Y-74003426D01*
X199246801Y-74059597D01*
X199154690Y-74135190D01*
X199079097Y-74227301D01*
X199067854Y-74248335D01*
X199055785Y-74240271D01*
X198940223Y-74192403D01*
X198817542Y-74168000D01*
X198692458Y-74168000D01*
X198569777Y-74192403D01*
X198454215Y-74240271D01*
X198350211Y-74309764D01*
X198261764Y-74398211D01*
X198192271Y-74502215D01*
X198144403Y-74617777D01*
X198120000Y-74740458D01*
X198120000Y-74865542D01*
X198144403Y-74988223D01*
X198192271Y-75103785D01*
X198261764Y-75207789D01*
X198350211Y-75296236D01*
X198454215Y-75365729D01*
X198569777Y-75413597D01*
X198692458Y-75438000D01*
X198817542Y-75438000D01*
X198940223Y-75413597D01*
X199055785Y-75365729D01*
X199078094Y-75350823D01*
X199079097Y-75352699D01*
X199154690Y-75444810D01*
X199246801Y-75520403D01*
X199330236Y-75565000D01*
X199246801Y-75609597D01*
X199154690Y-75685190D01*
X199079097Y-75777301D01*
X199022926Y-75882389D01*
X198988337Y-75996416D01*
X198976657Y-76115000D01*
X198976657Y-76565000D01*
X198988337Y-76683584D01*
X199022926Y-76797611D01*
X199079097Y-76902699D01*
X199154690Y-76994810D01*
X199246801Y-77070403D01*
X199351889Y-77126574D01*
X199465916Y-77161163D01*
X199584500Y-77172843D01*
X200084500Y-77172843D01*
X200203084Y-77161163D01*
X200317111Y-77126574D01*
X200422199Y-77070403D01*
X200514310Y-76994810D01*
X200589903Y-76902699D01*
X200646074Y-76797611D01*
X200646199Y-76797200D01*
X200667217Y-76797200D01*
X200672023Y-76813044D01*
X200725884Y-76913810D01*
X200798368Y-77002132D01*
X200886690Y-77074616D01*
X200987456Y-77128477D01*
X201096793Y-77161644D01*
X201210500Y-77172843D01*
X201760500Y-77172843D01*
X201874207Y-77161644D01*
X201983544Y-77128477D01*
X202084310Y-77074616D01*
X202172632Y-77002132D01*
X202245116Y-76913810D01*
X202298977Y-76813044D01*
X202303783Y-76797200D01*
X202944072Y-76797200D01*
X203016102Y-76971097D01*
X203150820Y-77172717D01*
X203322283Y-77344180D01*
X203523903Y-77478898D01*
X203747931Y-77571693D01*
X203985757Y-77619000D01*
X204228243Y-77619000D01*
X204466069Y-77571693D01*
X204690097Y-77478898D01*
X204891717Y-77344180D01*
X205063180Y-77172717D01*
X205197898Y-76971097D01*
X205290693Y-76747069D01*
X205338000Y-76509243D01*
X205338000Y-76266757D01*
X205290693Y-76028931D01*
X205197898Y-75804903D01*
X205063180Y-75603283D01*
X204891717Y-75431820D01*
X204690097Y-75297102D01*
X204466069Y-75204307D01*
X204228243Y-75157000D01*
X203985757Y-75157000D01*
X203747931Y-75204307D01*
X203523903Y-75297102D01*
X203322283Y-75431820D01*
X203150820Y-75603283D01*
X203016102Y-75804903D01*
X202983836Y-75882800D01*
X202253994Y-75882800D01*
X202245116Y-75866190D01*
X202172632Y-75777868D01*
X202084310Y-75705384D01*
X201983544Y-75651523D01*
X201874207Y-75618356D01*
X201760500Y-75607157D01*
X201210500Y-75607157D01*
X201096793Y-75618356D01*
X200987456Y-75651523D01*
X200886690Y-75705384D01*
X200798368Y-75777868D01*
X200725884Y-75866190D01*
X200717006Y-75882800D01*
X200646199Y-75882800D01*
X200646074Y-75882389D01*
X200589903Y-75777301D01*
X200514310Y-75685190D01*
X200422199Y-75609597D01*
X200338764Y-75565000D01*
X200422199Y-75520403D01*
X200514310Y-75444810D01*
X200589903Y-75352699D01*
X200646074Y-75247611D01*
X200671875Y-75162555D01*
X200672023Y-75163044D01*
X200725884Y-75263810D01*
X200798368Y-75352132D01*
X200886690Y-75424616D01*
X200987456Y-75478477D01*
X201096793Y-75511644D01*
X201210500Y-75522843D01*
X201760500Y-75522843D01*
X201874207Y-75511644D01*
X201983544Y-75478477D01*
X202084310Y-75424616D01*
X202172632Y-75352132D01*
X202245116Y-75263810D01*
X202298977Y-75163044D01*
X202332144Y-75053707D01*
X202343343Y-74940000D01*
X202343343Y-74540000D01*
X202332144Y-74426293D01*
X202298977Y-74316956D01*
X202245116Y-74216190D01*
X202172632Y-74127868D01*
X202084310Y-74055384D01*
X201983544Y-74001523D01*
X201942700Y-73989133D01*
X201942700Y-73726757D01*
X202876000Y-73726757D01*
X202876000Y-73969243D01*
X202923307Y-74207069D01*
X203016102Y-74431097D01*
X203150820Y-74632717D01*
X203322283Y-74804180D01*
X203523903Y-74938898D01*
X203747931Y-75031693D01*
X203985757Y-75079000D01*
X204228243Y-75079000D01*
X204466069Y-75031693D01*
X204690097Y-74938898D01*
X204891717Y-74804180D01*
X205063180Y-74632717D01*
X205197898Y-74431097D01*
X205290693Y-74207069D01*
X205338000Y-73969243D01*
X205338000Y-73726757D01*
X205290693Y-73488931D01*
X205197898Y-73264903D01*
X205063180Y-73063283D01*
X204891717Y-72891820D01*
X204690097Y-72757102D01*
X204466069Y-72664307D01*
X204228243Y-72617000D01*
X203985757Y-72617000D01*
X203747931Y-72664307D01*
X203523903Y-72757102D01*
X203322283Y-72891820D01*
X203150820Y-73063283D01*
X203016102Y-73264903D01*
X202923307Y-73488931D01*
X202876000Y-73726757D01*
X201942700Y-73726757D01*
X201942700Y-73364950D01*
X201944911Y-73342500D01*
X201942700Y-73320050D01*
X201942700Y-73320040D01*
X201936085Y-73252873D01*
X201909941Y-73166691D01*
X201867487Y-73087264D01*
X201810353Y-73017647D01*
X201792909Y-73003331D01*
X201507174Y-72717597D01*
X201492853Y-72700147D01*
X201423236Y-72643013D01*
X201343809Y-72600559D01*
X201257627Y-72574415D01*
X201190460Y-72567800D01*
X201190450Y-72567800D01*
X201168000Y-72565589D01*
X201145550Y-72567800D01*
X193189449Y-72567800D01*
X193166999Y-72565589D01*
X193144549Y-72567800D01*
X193144540Y-72567800D01*
X193077373Y-72574415D01*
X192991191Y-72600559D01*
X192954217Y-72620322D01*
X192911763Y-72643013D01*
X192878271Y-72670500D01*
X192842147Y-72700147D01*
X192827830Y-72717592D01*
X192478592Y-73066831D01*
X192461148Y-73081147D01*
X192446831Y-73098592D01*
X192446830Y-73098593D01*
X192404013Y-73150765D01*
X192385976Y-73184511D01*
X192361560Y-73230191D01*
X192341293Y-73297002D01*
X192335416Y-73316374D01*
X192326589Y-73406000D01*
X192328801Y-73428460D01*
X192328800Y-78931622D01*
X192215623Y-79044800D01*
X189005285Y-79044800D01*
X189014572Y-78950500D01*
X189014507Y-78943755D01*
X189082320Y-78980002D01*
X189202018Y-79016312D01*
X189326500Y-79028572D01*
X189515750Y-79025500D01*
X189674500Y-78866750D01*
X189674500Y-78067500D01*
X189928500Y-78067500D01*
X189928500Y-78866750D01*
X190087250Y-79025500D01*
X190276500Y-79028572D01*
X190400982Y-79016312D01*
X190520680Y-78980002D01*
X190630994Y-78921037D01*
X190727685Y-78841685D01*
X190807037Y-78744994D01*
X190866002Y-78634680D01*
X190902312Y-78514982D01*
X190914572Y-78390500D01*
X190911500Y-78226250D01*
X190752750Y-78067500D01*
X189928500Y-78067500D01*
X189674500Y-78067500D01*
X189654500Y-78067500D01*
X189654500Y-77813500D01*
X189674500Y-77813500D01*
X189674500Y-77793500D01*
X189928500Y-77793500D01*
X189928500Y-77813500D01*
X190752750Y-77813500D01*
X190911500Y-77654750D01*
X190914572Y-77490500D01*
X190902312Y-77366018D01*
X190866002Y-77246320D01*
X190807037Y-77136006D01*
X190727685Y-77039315D01*
X190630994Y-76959963D01*
X190570555Y-76927657D01*
X190613074Y-76848111D01*
X190647663Y-76734084D01*
X190659343Y-76615500D01*
X190659343Y-76165500D01*
X190647663Y-76046916D01*
X190613074Y-75932889D01*
X190556903Y-75827801D01*
X190481310Y-75735690D01*
X190389199Y-75660097D01*
X190385043Y-75657876D01*
X190399397Y-75623223D01*
X190423800Y-75500542D01*
X190423800Y-75375458D01*
X190399397Y-75252777D01*
X190351529Y-75137215D01*
X190282036Y-75033211D01*
X190193589Y-74944764D01*
X190089585Y-74875271D01*
X189974023Y-74827403D01*
X189851342Y-74803000D01*
X189726258Y-74803000D01*
X189603577Y-74827403D01*
X189488015Y-74875271D01*
X189384011Y-74944764D01*
X189295564Y-75033211D01*
X189226071Y-75137215D01*
X189178203Y-75252777D01*
X189153800Y-75375458D01*
X189153800Y-75500542D01*
X189178203Y-75623223D01*
X189198633Y-75672545D01*
X189121690Y-75735690D01*
X189046097Y-75827801D01*
X188989926Y-75932889D01*
X188955337Y-76046916D01*
X188943657Y-76165500D01*
X188943657Y-76615500D01*
X188955337Y-76734084D01*
X188989926Y-76848111D01*
X189032445Y-76927657D01*
X188972006Y-76959963D01*
X188875315Y-77039315D01*
X188795963Y-77136006D01*
X188748675Y-77224474D01*
X188730994Y-77209963D01*
X188620680Y-77150998D01*
X188500982Y-77114688D01*
X188376500Y-77102428D01*
X188367250Y-77105500D01*
X188208500Y-77264250D01*
X188208500Y-78218500D01*
X188228500Y-78218500D01*
X188228500Y-78472500D01*
X188208500Y-78472500D01*
X188208500Y-78492500D01*
X187954500Y-78492500D01*
X187954500Y-78472500D01*
X187310250Y-78472500D01*
X187151500Y-78631250D01*
X187148428Y-78950500D01*
X187157715Y-79044800D01*
X186822168Y-79044800D01*
X186823464Y-79042375D01*
X186850286Y-78953954D01*
X186859343Y-78862000D01*
X186859343Y-77829000D01*
X186850627Y-77740500D01*
X187148428Y-77740500D01*
X187151500Y-78059750D01*
X187310250Y-78218500D01*
X187954500Y-78218500D01*
X187954500Y-77264250D01*
X187795750Y-77105500D01*
X187786500Y-77102428D01*
X187662018Y-77114688D01*
X187542320Y-77150998D01*
X187432006Y-77209963D01*
X187335315Y-77289315D01*
X187255963Y-77386006D01*
X187196998Y-77496320D01*
X187160688Y-77616018D01*
X187148428Y-77740500D01*
X186850627Y-77740500D01*
X186850286Y-77737046D01*
X186823464Y-77648625D01*
X186779907Y-77567136D01*
X186721290Y-77495710D01*
X186649864Y-77437093D01*
X186568375Y-77393536D01*
X186479954Y-77366714D01*
X186388000Y-77357657D01*
X185975000Y-77357657D01*
X185883046Y-77366714D01*
X185794625Y-77393536D01*
X185713136Y-77437093D01*
X185641710Y-77495710D01*
X185583093Y-77567136D01*
X185539536Y-77648625D01*
X185512714Y-77737046D01*
X185503657Y-77829000D01*
X185261843Y-77829000D01*
X185261843Y-77639000D01*
X185250163Y-77520416D01*
X185215574Y-77406389D01*
X185173055Y-77326843D01*
X185233494Y-77294537D01*
X185330185Y-77215185D01*
X185409537Y-77118494D01*
X185468502Y-77008180D01*
X185504812Y-76888482D01*
X185517072Y-76764000D01*
X185514000Y-76599750D01*
X185355252Y-76441002D01*
X185512423Y-76441002D01*
X185512714Y-76443954D01*
X185539536Y-76532375D01*
X185583093Y-76613864D01*
X185641710Y-76685290D01*
X185713136Y-76743907D01*
X185794625Y-76787464D01*
X185883046Y-76814286D01*
X185975000Y-76823343D01*
X186388000Y-76823343D01*
X186479954Y-76814286D01*
X186568375Y-76787464D01*
X186649864Y-76743907D01*
X186656500Y-76738461D01*
X186663136Y-76743907D01*
X186744625Y-76787464D01*
X186833046Y-76814286D01*
X186925000Y-76823343D01*
X187338000Y-76823343D01*
X187429954Y-76814286D01*
X187518375Y-76787464D01*
X187599864Y-76743907D01*
X187606500Y-76738461D01*
X187613136Y-76743907D01*
X187694625Y-76787464D01*
X187783046Y-76814286D01*
X187875000Y-76823343D01*
X188288000Y-76823343D01*
X188379954Y-76814286D01*
X188468375Y-76787464D01*
X188549864Y-76743907D01*
X188621290Y-76685290D01*
X188679907Y-76613864D01*
X188723464Y-76532375D01*
X188750286Y-76443954D01*
X188759343Y-76352000D01*
X188759343Y-75319000D01*
X188750286Y-75227046D01*
X188723464Y-75138625D01*
X188679907Y-75057136D01*
X188621290Y-74985710D01*
X188549864Y-74927093D01*
X188540683Y-74922186D01*
X188538700Y-74902050D01*
X188538700Y-74902040D01*
X188532085Y-74834873D01*
X188505941Y-74748691D01*
X188463487Y-74669264D01*
X188406353Y-74599647D01*
X188388908Y-74585330D01*
X187845700Y-74042123D01*
X187845700Y-73787118D01*
X187932910Y-73858690D01*
X188042320Y-73917171D01*
X188161037Y-73953183D01*
X188284498Y-73965343D01*
X188909502Y-73965343D01*
X189032963Y-73953183D01*
X189151680Y-73917171D01*
X189261090Y-73858690D01*
X189356988Y-73779988D01*
X189435690Y-73684090D01*
X189494171Y-73574680D01*
X189530183Y-73455963D01*
X189542343Y-73332502D01*
X189542343Y-72082498D01*
X189530183Y-71959037D01*
X189494171Y-71840320D01*
X189435690Y-71730910D01*
X189356988Y-71635012D01*
X189261090Y-71556310D01*
X189152500Y-71498267D01*
X189152500Y-65081343D01*
X189817500Y-65081343D01*
X189892189Y-65073987D01*
X189964008Y-65052201D01*
X190030196Y-65016822D01*
X190088211Y-64969211D01*
X190135822Y-64911196D01*
X190171201Y-64845008D01*
X190192987Y-64773189D01*
X190200343Y-64698500D01*
X190200343Y-62098500D01*
X190192987Y-62023811D01*
X190171201Y-61951992D01*
X190135822Y-61885804D01*
X190088211Y-61827789D01*
X190030196Y-61780178D01*
X189964008Y-61744799D01*
X189892189Y-61723013D01*
X189817500Y-61715657D01*
X187217500Y-61715657D01*
X187142811Y-61723013D01*
X187070992Y-61744799D01*
X187004804Y-61780178D01*
X186946789Y-61827789D01*
X186899178Y-61885804D01*
X186863799Y-61951992D01*
X186842013Y-62023811D01*
X186834657Y-62098500D01*
X186834657Y-62763500D01*
X184993976Y-62763500D01*
X184927183Y-62602248D01*
X184743218Y-62326925D01*
X184509075Y-62092782D01*
X184233752Y-61908817D01*
X183927830Y-61782100D01*
X183603064Y-61717500D01*
X183271936Y-61717500D01*
X182947170Y-61782100D01*
X182641248Y-61908817D01*
X182365925Y-62092782D01*
X182131782Y-62326925D01*
X181947817Y-62602248D01*
X181821100Y-62908170D01*
X181756500Y-63232936D01*
X181756500Y-63564064D01*
X181821100Y-63888830D01*
X181947817Y-64194752D01*
X182131782Y-64470075D01*
X182365925Y-64704218D01*
X182641248Y-64888183D01*
X182947170Y-65014900D01*
X183271936Y-65079500D01*
X183603064Y-65079500D01*
X183927830Y-65014900D01*
X184233752Y-64888183D01*
X184509075Y-64704218D01*
X184743218Y-64470075D01*
X184927183Y-64194752D01*
X184993976Y-64033500D01*
X186834657Y-64033500D01*
X186834657Y-64698500D01*
X186842013Y-64773189D01*
X186863799Y-64845008D01*
X186899178Y-64911196D01*
X186946789Y-64969211D01*
X187004804Y-65016822D01*
X187070992Y-65052201D01*
X187142811Y-65073987D01*
X187217500Y-65081343D01*
X187882500Y-65081343D01*
X187882501Y-71597680D01*
X187837012Y-71635012D01*
X187758310Y-71730910D01*
X187699829Y-71840320D01*
X187663817Y-71959037D01*
X187651657Y-72082498D01*
X187651657Y-72286017D01*
X187577764Y-72325513D01*
X187508147Y-72382647D01*
X187493830Y-72400092D01*
X187134500Y-72759422D01*
X186775174Y-72400097D01*
X186760853Y-72382647D01*
X186691236Y-72325513D01*
X186617343Y-72286017D01*
X186617343Y-72082498D01*
X186605183Y-71959037D01*
X186569171Y-71840320D01*
X186510690Y-71730910D01*
X186431988Y-71635012D01*
X186336090Y-71556310D01*
X186226680Y-71497829D01*
X186107963Y-71461817D01*
X185984502Y-71449657D01*
X185359498Y-71449657D01*
X185236037Y-71461817D01*
X185117320Y-71497829D01*
X185007910Y-71556310D01*
X184912012Y-71635012D01*
X184833310Y-71730910D01*
X184774829Y-71840320D01*
X184738817Y-71959037D01*
X184727642Y-72072500D01*
X179037689Y-72072500D01*
X179006500Y-72069428D01*
X178975311Y-72072500D01*
X177308422Y-72072500D01*
X177253196Y-72027178D01*
X177187008Y-71991799D01*
X177115189Y-71970013D01*
X177040500Y-71962657D01*
X175980500Y-71962657D01*
X175905811Y-71970013D01*
X175833992Y-71991799D01*
X175767804Y-72027178D01*
X175709789Y-72074789D01*
X175662178Y-72132804D01*
X175626799Y-72198992D01*
X175605013Y-72270811D01*
X175597657Y-72345500D01*
X175597657Y-72652579D01*
X175308174Y-72363097D01*
X175293853Y-72345647D01*
X175224236Y-72288513D01*
X175217369Y-72284843D01*
X175215987Y-72270811D01*
X175194201Y-72198992D01*
X175158822Y-72132804D01*
X175111211Y-72074789D01*
X175053196Y-72027178D01*
X174987008Y-71991799D01*
X174915189Y-71970013D01*
X174840500Y-71962657D01*
X173780500Y-71962657D01*
X173705811Y-71970013D01*
X173633992Y-71991799D01*
X173567804Y-72027178D01*
X173509789Y-72074789D01*
X173462178Y-72132804D01*
X173426799Y-72198992D01*
X173422459Y-72213300D01*
X165095950Y-72213300D01*
X165073500Y-72211089D01*
X165051050Y-72213300D01*
X165051040Y-72213300D01*
X164983873Y-72219915D01*
X164897691Y-72246059D01*
X164818264Y-72288513D01*
X164748647Y-72345647D01*
X164734330Y-72363092D01*
X163141597Y-73955826D01*
X163124147Y-73970147D01*
X163067013Y-74039765D01*
X163024559Y-74119192D01*
X162998415Y-74205374D01*
X162991800Y-74272541D01*
X162991800Y-74272550D01*
X162989589Y-74295000D01*
X162991800Y-74317450D01*
X162991801Y-84276133D01*
X162950956Y-84288523D01*
X162850190Y-84342384D01*
X162761868Y-84414868D01*
X162689384Y-84503190D01*
X162635523Y-84603956D01*
X162620208Y-84654444D01*
X162609574Y-84619389D01*
X162553403Y-84514301D01*
X162477810Y-84422190D01*
X162385699Y-84346597D01*
X162374815Y-84340779D01*
X162408597Y-84259223D01*
X162433000Y-84136542D01*
X162433000Y-84011458D01*
X162408597Y-83888777D01*
X162360729Y-83773215D01*
X162291236Y-83669211D01*
X162202789Y-83580764D01*
X162098785Y-83511271D01*
X161983223Y-83463403D01*
X161860542Y-83439000D01*
X161735458Y-83439000D01*
X161612777Y-83463403D01*
X161497215Y-83511271D01*
X161393211Y-83580764D01*
X161304764Y-83669211D01*
X161235271Y-83773215D01*
X161187403Y-83888777D01*
X161163000Y-84011458D01*
X161163000Y-84136542D01*
X161187403Y-84259223D01*
X161221185Y-84340779D01*
X161210301Y-84346597D01*
X161118190Y-84422190D01*
X161042597Y-84514301D01*
X160986426Y-84619389D01*
X160951837Y-84733416D01*
X160940157Y-84852000D01*
X160940157Y-85302000D01*
X160951837Y-85420584D01*
X160986426Y-85534611D01*
X161042597Y-85639699D01*
X161118190Y-85731810D01*
X161210301Y-85807403D01*
X161293736Y-85852000D01*
X161210301Y-85896597D01*
X161118190Y-85972190D01*
X161042597Y-86064301D01*
X161000104Y-86143800D01*
X158758999Y-86143800D01*
X158684898Y-85964903D01*
X158550180Y-85763283D01*
X158378717Y-85591820D01*
X158177097Y-85457102D01*
X157953069Y-85364307D01*
X157715243Y-85317000D01*
X157472757Y-85317000D01*
X157234931Y-85364307D01*
X157010903Y-85457102D01*
X156809283Y-85591820D01*
X156637820Y-85763283D01*
X156503102Y-85964903D01*
X156410307Y-86188931D01*
X156363000Y-86426757D01*
X156108000Y-86426757D01*
X156108000Y-83886757D01*
X156363000Y-83886757D01*
X156363000Y-84129243D01*
X156410307Y-84367069D01*
X156503102Y-84591097D01*
X156637820Y-84792717D01*
X156809283Y-84964180D01*
X157010903Y-85098898D01*
X157234931Y-85191693D01*
X157472757Y-85239000D01*
X157715243Y-85239000D01*
X157953069Y-85191693D01*
X158177097Y-85098898D01*
X158378717Y-84964180D01*
X158550180Y-84792717D01*
X158684898Y-84591097D01*
X158777693Y-84367069D01*
X158825000Y-84129243D01*
X158825000Y-83886757D01*
X158777693Y-83648931D01*
X158684898Y-83424903D01*
X158550180Y-83223283D01*
X158378717Y-83051820D01*
X158177097Y-82917102D01*
X157953069Y-82824307D01*
X157715243Y-82777000D01*
X157472757Y-82777000D01*
X157234931Y-82824307D01*
X157010903Y-82917102D01*
X156809283Y-83051820D01*
X156637820Y-83223283D01*
X156503102Y-83424903D01*
X156410307Y-83648931D01*
X156363000Y-83886757D01*
X156108000Y-83886757D01*
X156108000Y-81346757D01*
X156363000Y-81346757D01*
X156363000Y-81589243D01*
X156410307Y-81827069D01*
X156503102Y-82051097D01*
X156637820Y-82252717D01*
X156809283Y-82424180D01*
X157010903Y-82558898D01*
X157234931Y-82651693D01*
X157472757Y-82699000D01*
X157715243Y-82699000D01*
X157953069Y-82651693D01*
X158177097Y-82558898D01*
X158378717Y-82424180D01*
X158550180Y-82252717D01*
X158684898Y-82051097D01*
X158777693Y-81827069D01*
X158825000Y-81589243D01*
X158825000Y-81346757D01*
X158777693Y-81108931D01*
X158684898Y-80884903D01*
X158550180Y-80683283D01*
X158378717Y-80511820D01*
X158177097Y-80377102D01*
X157953069Y-80284307D01*
X157715243Y-80237000D01*
X157472757Y-80237000D01*
X157234931Y-80284307D01*
X157010903Y-80377102D01*
X156809283Y-80511820D01*
X156637820Y-80683283D01*
X156503102Y-80884903D01*
X156410307Y-81108931D01*
X156363000Y-81346757D01*
X156108000Y-81346757D01*
X156108000Y-78806757D01*
X156363000Y-78806757D01*
X156363000Y-79049243D01*
X156410307Y-79287069D01*
X156503102Y-79511097D01*
X156637820Y-79712717D01*
X156809283Y-79884180D01*
X157010903Y-80018898D01*
X157234931Y-80111693D01*
X157472757Y-80159000D01*
X157715243Y-80159000D01*
X157953069Y-80111693D01*
X158177097Y-80018898D01*
X158378717Y-79884180D01*
X158550180Y-79712717D01*
X158684898Y-79511097D01*
X158777693Y-79287069D01*
X158825000Y-79049243D01*
X158825000Y-78806757D01*
X158777693Y-78568931D01*
X158684898Y-78344903D01*
X158550180Y-78143283D01*
X158378717Y-77971820D01*
X158177097Y-77837102D01*
X157953069Y-77744307D01*
X157715243Y-77697000D01*
X157472757Y-77697000D01*
X157234931Y-77744307D01*
X157010903Y-77837102D01*
X156809283Y-77971820D01*
X156637820Y-78143283D01*
X156503102Y-78344903D01*
X156410307Y-78568931D01*
X156363000Y-78806757D01*
X156108000Y-78806757D01*
X156108000Y-75501500D01*
X156739603Y-75501500D01*
X156637820Y-75603283D01*
X156503102Y-75804903D01*
X156410307Y-76028931D01*
X156363000Y-76266757D01*
X156363000Y-76509243D01*
X156410307Y-76747069D01*
X156503102Y-76971097D01*
X156637820Y-77172717D01*
X156809283Y-77344180D01*
X157010903Y-77478898D01*
X157234931Y-77571693D01*
X157472757Y-77619000D01*
X157715243Y-77619000D01*
X157953069Y-77571693D01*
X158177097Y-77478898D01*
X158378717Y-77344180D01*
X158550180Y-77172717D01*
X158684898Y-76971097D01*
X158777693Y-76747069D01*
X158825000Y-76509243D01*
X158825000Y-76266757D01*
X158777693Y-76028931D01*
X158684898Y-75804903D01*
X158550180Y-75603283D01*
X158448397Y-75501500D01*
X159385000Y-75501500D01*
X159459329Y-75494179D01*
X159530802Y-75472498D01*
X159596672Y-75437290D01*
X159654408Y-75389908D01*
X159701790Y-75332172D01*
X159736998Y-75266302D01*
X159758679Y-75194829D01*
X159766000Y-75120500D01*
X159766000Y-70440000D01*
X166653928Y-70440000D01*
X166666188Y-70564482D01*
X166702498Y-70684180D01*
X166761463Y-70794494D01*
X166840815Y-70891185D01*
X166937506Y-70970537D01*
X167047820Y-71029502D01*
X167167518Y-71065812D01*
X167292000Y-71078072D01*
X167481250Y-71075000D01*
X167640000Y-70916250D01*
X167640000Y-70129500D01*
X167894000Y-70129500D01*
X167894000Y-70916250D01*
X168052750Y-71075000D01*
X168242000Y-71078072D01*
X168366482Y-71065812D01*
X168486180Y-71029502D01*
X168596494Y-70970537D01*
X168693185Y-70891185D01*
X168772537Y-70794494D01*
X168831502Y-70684180D01*
X168867812Y-70564482D01*
X168880072Y-70440000D01*
X168877000Y-70288250D01*
X168718250Y-70129500D01*
X167894000Y-70129500D01*
X167640000Y-70129500D01*
X166815750Y-70129500D01*
X166657000Y-70288250D01*
X166653928Y-70440000D01*
X159766000Y-70440000D01*
X159766000Y-68326958D01*
X161417000Y-68326958D01*
X161417000Y-68452042D01*
X161441403Y-68574723D01*
X161489271Y-68690285D01*
X161558764Y-68794289D01*
X161647211Y-68882736D01*
X161751215Y-68952229D01*
X161866777Y-69000097D01*
X161989458Y-69024500D01*
X162095657Y-69024500D01*
X162095657Y-69039501D01*
X162107817Y-69162962D01*
X162143829Y-69281679D01*
X162202310Y-69391089D01*
X162281012Y-69486988D01*
X162376911Y-69565690D01*
X162486321Y-69624171D01*
X162605038Y-69660183D01*
X162728499Y-69672343D01*
X163378501Y-69672343D01*
X163501962Y-69660183D01*
X163620679Y-69624171D01*
X163730089Y-69565690D01*
X163825988Y-69486988D01*
X163904690Y-69391089D01*
X163963171Y-69281679D01*
X163999183Y-69162962D01*
X164011343Y-69039501D01*
X164011343Y-67739499D01*
X163999183Y-67616038D01*
X163963171Y-67497321D01*
X163904690Y-67387911D01*
X163825988Y-67292012D01*
X163730089Y-67213310D01*
X163620679Y-67154829D01*
X163501962Y-67118817D01*
X163378501Y-67106657D01*
X162728499Y-67106657D01*
X162605038Y-67118817D01*
X162486321Y-67154829D01*
X162376911Y-67213310D01*
X162281012Y-67292012D01*
X162202310Y-67387911D01*
X162143829Y-67497321D01*
X162107817Y-67616038D01*
X162095657Y-67739499D01*
X162095657Y-67754500D01*
X161989458Y-67754500D01*
X161866777Y-67778903D01*
X161751215Y-67826771D01*
X161647211Y-67896264D01*
X161558764Y-67984711D01*
X161489271Y-68088715D01*
X161441403Y-68204277D01*
X161417000Y-68326958D01*
X159766000Y-68326958D01*
X159766000Y-65341309D01*
X159766958Y-65341500D01*
X159892042Y-65341500D01*
X160014723Y-65317097D01*
X160130285Y-65269229D01*
X160234289Y-65199736D01*
X160322736Y-65111289D01*
X160392229Y-65007285D01*
X160440097Y-64891723D01*
X160450286Y-64840499D01*
X160578657Y-64840499D01*
X160578657Y-65490501D01*
X160590817Y-65613962D01*
X160626829Y-65732679D01*
X160685310Y-65842089D01*
X160764012Y-65937988D01*
X160859911Y-66016690D01*
X160969321Y-66075171D01*
X161088038Y-66111183D01*
X161211499Y-66123343D01*
X161235375Y-66123343D01*
X161226500Y-66167958D01*
X161226500Y-66293042D01*
X161250903Y-66415723D01*
X161298771Y-66531285D01*
X161368264Y-66635289D01*
X161456711Y-66723736D01*
X161560715Y-66793229D01*
X161676277Y-66841097D01*
X161798958Y-66865500D01*
X161924042Y-66865500D01*
X162046723Y-66841097D01*
X162162285Y-66793229D01*
X162266289Y-66723736D01*
X162354736Y-66635289D01*
X162424229Y-66531285D01*
X162472097Y-66415723D01*
X162496500Y-66293042D01*
X162496500Y-66167958D01*
X162487625Y-66123343D01*
X162511501Y-66123343D01*
X162634962Y-66111183D01*
X162753679Y-66075171D01*
X162863089Y-66016690D01*
X162958988Y-65937988D01*
X163037690Y-65842089D01*
X163096171Y-65732679D01*
X163132183Y-65613962D01*
X163144343Y-65490501D01*
X163144343Y-64840499D01*
X163132183Y-64717038D01*
X163096171Y-64598321D01*
X163037690Y-64488911D01*
X162958988Y-64393012D01*
X162863089Y-64314310D01*
X162753679Y-64255829D01*
X162634962Y-64219817D01*
X162511501Y-64207657D01*
X161211499Y-64207657D01*
X161088038Y-64219817D01*
X160969321Y-64255829D01*
X160859911Y-64314310D01*
X160764012Y-64393012D01*
X160685310Y-64488911D01*
X160626829Y-64598321D01*
X160590817Y-64717038D01*
X160578657Y-64840499D01*
X160450286Y-64840499D01*
X160464500Y-64769042D01*
X160464500Y-64643958D01*
X160440097Y-64521277D01*
X160426908Y-64489435D01*
X160509310Y-64421810D01*
X160584903Y-64329699D01*
X160641074Y-64224611D01*
X160675663Y-64110584D01*
X160687343Y-63992000D01*
X160687343Y-63690500D01*
X163494012Y-63690500D01*
X163471299Y-63732992D01*
X163449513Y-63804811D01*
X163442157Y-63879500D01*
X163442157Y-64939500D01*
X163449513Y-65014189D01*
X163471299Y-65086008D01*
X163506678Y-65152196D01*
X163554289Y-65210211D01*
X163612304Y-65257822D01*
X163678492Y-65293201D01*
X163750311Y-65314987D01*
X163825000Y-65322343D01*
X164475000Y-65322343D01*
X164549689Y-65314987D01*
X164621508Y-65293201D01*
X164687696Y-65257822D01*
X164745711Y-65210211D01*
X164793322Y-65152196D01*
X164828701Y-65086008D01*
X164850487Y-65014189D01*
X164857843Y-64939500D01*
X164857843Y-63879500D01*
X164850487Y-63804811D01*
X164828701Y-63732992D01*
X164805988Y-63690500D01*
X164820390Y-63690500D01*
X164914777Y-63729597D01*
X165037458Y-63754000D01*
X165162542Y-63754000D01*
X165285223Y-63729597D01*
X165379610Y-63690500D01*
X165394012Y-63690500D01*
X165371299Y-63732992D01*
X165349513Y-63804811D01*
X165342157Y-63879500D01*
X165342157Y-64939500D01*
X165349513Y-65014189D01*
X165371299Y-65086008D01*
X165406678Y-65152196D01*
X165415000Y-65162337D01*
X165415001Y-65558540D01*
X165347190Y-65614190D01*
X165271597Y-65706301D01*
X165227000Y-65789736D01*
X165182403Y-65706301D01*
X165106810Y-65614190D01*
X165014699Y-65538597D01*
X164909611Y-65482426D01*
X164795584Y-65447837D01*
X164677000Y-65436157D01*
X164227000Y-65436157D01*
X164108416Y-65447837D01*
X163994389Y-65482426D01*
X163889301Y-65538597D01*
X163797190Y-65614190D01*
X163729565Y-65696592D01*
X163697723Y-65683403D01*
X163575042Y-65659000D01*
X163449958Y-65659000D01*
X163327277Y-65683403D01*
X163211715Y-65731271D01*
X163107711Y-65800764D01*
X163019264Y-65889211D01*
X162949771Y-65993215D01*
X162901903Y-66108777D01*
X162877500Y-66231458D01*
X162877500Y-66356542D01*
X162901903Y-66479223D01*
X162949771Y-66594785D01*
X163019264Y-66698789D01*
X163107711Y-66787236D01*
X163211715Y-66856729D01*
X163327277Y-66904597D01*
X163449958Y-66929000D01*
X163575042Y-66929000D01*
X163697723Y-66904597D01*
X163729565Y-66891408D01*
X163797190Y-66973810D01*
X163889301Y-67049403D01*
X163994389Y-67105574D01*
X164108416Y-67140163D01*
X164227000Y-67151843D01*
X164677000Y-67151843D01*
X164795584Y-67140163D01*
X164909611Y-67105574D01*
X165014699Y-67049403D01*
X165106810Y-66973810D01*
X165182403Y-66881699D01*
X165227000Y-66798264D01*
X165271597Y-66881699D01*
X165347190Y-66973810D01*
X165368501Y-66991299D01*
X165368501Y-67191080D01*
X165326911Y-67213310D01*
X165231012Y-67292012D01*
X165152310Y-67387911D01*
X165093829Y-67497321D01*
X165057817Y-67616038D01*
X165045657Y-67739499D01*
X165045657Y-69039501D01*
X165057817Y-69162962D01*
X165093829Y-69281679D01*
X165152310Y-69391089D01*
X165231012Y-69486988D01*
X165326911Y-69565690D01*
X165436321Y-69624171D01*
X165555038Y-69660183D01*
X165678499Y-69672343D01*
X166328501Y-69672343D01*
X166451962Y-69660183D01*
X166570679Y-69624171D01*
X166654222Y-69579516D01*
X166657000Y-69716750D01*
X166815750Y-69875500D01*
X167640000Y-69875500D01*
X167640000Y-69855500D01*
X167894000Y-69855500D01*
X167894000Y-69875500D01*
X168718250Y-69875500D01*
X168877000Y-69716750D01*
X168880072Y-69565000D01*
X168867812Y-69440518D01*
X168831502Y-69320820D01*
X168772537Y-69210506D01*
X168693185Y-69113815D01*
X168596494Y-69034463D01*
X168514930Y-68990866D01*
X168523456Y-68980477D01*
X168579049Y-68876470D01*
X168613284Y-68763615D01*
X168624843Y-68646250D01*
X168624843Y-68208750D01*
X168613284Y-68091385D01*
X168579049Y-67978530D01*
X168523456Y-67874523D01*
X168448640Y-67783360D01*
X168357477Y-67708544D01*
X168253470Y-67652951D01*
X168140615Y-67618716D01*
X168023250Y-67607157D01*
X167510750Y-67607157D01*
X167393385Y-67618716D01*
X167280530Y-67652951D01*
X167176523Y-67708544D01*
X167085360Y-67783360D01*
X167077859Y-67792500D01*
X166961343Y-67792500D01*
X166961343Y-67739499D01*
X166949183Y-67616038D01*
X166913171Y-67497321D01*
X166854690Y-67387911D01*
X166775988Y-67292012D01*
X166680089Y-67213310D01*
X166638500Y-67191080D01*
X166638500Y-66988837D01*
X166656810Y-66973810D01*
X166732403Y-66881699D01*
X166788574Y-66776611D01*
X166823163Y-66662584D01*
X166834843Y-66544000D01*
X166834843Y-66044000D01*
X166823163Y-65925416D01*
X166788574Y-65811389D01*
X166732403Y-65706301D01*
X166685000Y-65648540D01*
X166685000Y-65162337D01*
X166693322Y-65152196D01*
X166728701Y-65086008D01*
X166750487Y-65014189D01*
X166757843Y-64939500D01*
X166757843Y-63879500D01*
X166750487Y-63804811D01*
X166728701Y-63732992D01*
X166705988Y-63690500D01*
X168846500Y-63690500D01*
X168920829Y-63683179D01*
X168992302Y-63661498D01*
X169058172Y-63626290D01*
X169115908Y-63578908D01*
X169163290Y-63521172D01*
X169198498Y-63455302D01*
X169220179Y-63383829D01*
X169227500Y-63309500D01*
X169227500Y-63232936D01*
X171596500Y-63232936D01*
X171596500Y-63564064D01*
X171661100Y-63888830D01*
X171787817Y-64194752D01*
X171971782Y-64470075D01*
X172205925Y-64704218D01*
X172481248Y-64888183D01*
X172787170Y-65014900D01*
X173111936Y-65079500D01*
X173443064Y-65079500D01*
X173767830Y-65014900D01*
X174073752Y-64888183D01*
X174349075Y-64704218D01*
X174583218Y-64470075D01*
X174767183Y-64194752D01*
X174893900Y-63888830D01*
X174958500Y-63564064D01*
X174958500Y-63232936D01*
X176676500Y-63232936D01*
X176676500Y-63564064D01*
X176741100Y-63888830D01*
X176867817Y-64194752D01*
X177051782Y-64470075D01*
X177285925Y-64704218D01*
X177561248Y-64888183D01*
X177867170Y-65014900D01*
X178191936Y-65079500D01*
X178523064Y-65079500D01*
X178847830Y-65014900D01*
X179153752Y-64888183D01*
X179429075Y-64704218D01*
X179663218Y-64470075D01*
X179847183Y-64194752D01*
X179973900Y-63888830D01*
X180038500Y-63564064D01*
X180038500Y-63232936D01*
X179973900Y-62908170D01*
X179847183Y-62602248D01*
X179663218Y-62326925D01*
X179429075Y-62092782D01*
X179153752Y-61908817D01*
X178847830Y-61782100D01*
X178523064Y-61717500D01*
X178191936Y-61717500D01*
X177867170Y-61782100D01*
X177561248Y-61908817D01*
X177285925Y-62092782D01*
X177051782Y-62326925D01*
X176867817Y-62602248D01*
X176741100Y-62908170D01*
X176676500Y-63232936D01*
X174958500Y-63232936D01*
X174893900Y-62908170D01*
X174767183Y-62602248D01*
X174583218Y-62326925D01*
X174349075Y-62092782D01*
X174073752Y-61908817D01*
X173767830Y-61782100D01*
X173443064Y-61717500D01*
X173111936Y-61717500D01*
X172787170Y-61782100D01*
X172481248Y-61908817D01*
X172205925Y-62092782D01*
X171971782Y-62326925D01*
X171787817Y-62602248D01*
X171661100Y-62908170D01*
X171596500Y-63232936D01*
X169227500Y-63232936D01*
X169227500Y-57746500D01*
X205588001Y-57746500D01*
X205588000Y-98146000D01*
G37*
%TD.AperFunction*%
%TD*%
D20*
%TO.N,VBUS*%
X168719500Y-63182500D02*
X166832902Y-63182500D01*
X166905537Y-63093994D01*
X166964502Y-62983680D01*
X167000812Y-62863982D01*
X167013072Y-62739500D01*
X167010000Y-62495250D01*
X166851250Y-62336500D01*
X166177000Y-62336500D01*
X166177000Y-62356500D01*
X165923000Y-62356500D01*
X165923000Y-62336500D01*
X165903000Y-62336500D01*
X165903000Y-62082500D01*
X165923000Y-62082500D01*
X165923000Y-61203250D01*
X166177000Y-61203250D01*
X166177000Y-62082500D01*
X166851250Y-62082500D01*
X167010000Y-61923750D01*
X167013072Y-61679500D01*
X167000812Y-61555018D01*
X166964502Y-61435320D01*
X166905537Y-61325006D01*
X166826185Y-61228315D01*
X166729494Y-61148963D01*
X166619180Y-61089998D01*
X166499482Y-61053688D01*
X166375000Y-61041428D01*
X166335750Y-61044500D01*
X166177000Y-61203250D01*
X165923000Y-61203250D01*
X165764250Y-61044500D01*
X165725000Y-61041428D01*
X165600518Y-61053688D01*
X165480820Y-61089998D01*
X165370506Y-61148963D01*
X165273815Y-61228315D01*
X165217728Y-61296657D01*
X164982272Y-61296657D01*
X164926185Y-61228315D01*
X164829494Y-61148963D01*
X164719180Y-61089998D01*
X164599482Y-61053688D01*
X164475000Y-61041428D01*
X164435750Y-61044500D01*
X164277000Y-61203250D01*
X164277000Y-62082500D01*
X164297000Y-62082500D01*
X164297000Y-62336500D01*
X164277000Y-62336500D01*
X164277000Y-62356500D01*
X164023000Y-62356500D01*
X164023000Y-62336500D01*
X163348750Y-62336500D01*
X163290250Y-62395000D01*
X163237750Y-62342500D01*
X161988500Y-62342500D01*
X161988500Y-62362500D01*
X161734500Y-62362500D01*
X161734500Y-62342500D01*
X160485250Y-62342500D01*
X160483750Y-62344000D01*
X159956500Y-62344000D01*
X159956500Y-62364000D01*
X159702500Y-62364000D01*
X159702500Y-62344000D01*
X158878250Y-62344000D01*
X158719500Y-62502750D01*
X158716428Y-62667000D01*
X158728688Y-62791482D01*
X158764998Y-62911180D01*
X158823963Y-63021494D01*
X158903315Y-63118185D01*
X159000006Y-63197537D01*
X159060445Y-63229843D01*
X159017926Y-63309389D01*
X158983337Y-63423416D01*
X158971657Y-63542000D01*
X158971657Y-63992000D01*
X158983337Y-64110584D01*
X159017926Y-64224611D01*
X159074097Y-64329699D01*
X159149690Y-64421810D01*
X159232092Y-64489435D01*
X159218903Y-64521277D01*
X159194500Y-64643958D01*
X159194500Y-64769042D01*
X159218903Y-64891723D01*
X159258000Y-64986110D01*
X159258000Y-74993500D01*
X159006070Y-74993500D01*
X159033502Y-74942180D01*
X159069812Y-74822482D01*
X159082072Y-74698000D01*
X159079000Y-74133750D01*
X158920250Y-73975000D01*
X157721000Y-73975000D01*
X157721000Y-73995000D01*
X157467000Y-73995000D01*
X157467000Y-73975000D01*
X156267750Y-73975000D01*
X156109000Y-74133750D01*
X156108000Y-74317425D01*
X156108000Y-73378575D01*
X156109000Y-73562250D01*
X156267750Y-73721000D01*
X157467000Y-73721000D01*
X157467000Y-72521750D01*
X157721000Y-72521750D01*
X157721000Y-73721000D01*
X158920250Y-73721000D01*
X159079000Y-73562250D01*
X159082072Y-72998000D01*
X159069812Y-72873518D01*
X159033502Y-72753820D01*
X158974537Y-72643506D01*
X158895185Y-72546815D01*
X158798494Y-72467463D01*
X158688180Y-72408498D01*
X158568482Y-72372188D01*
X158444000Y-72359928D01*
X157879750Y-72363000D01*
X157721000Y-72521750D01*
X157467000Y-72521750D01*
X157308250Y-72363000D01*
X156744000Y-72359928D01*
X156619518Y-72372188D01*
X156499820Y-72408498D01*
X156389506Y-72467463D01*
X156292815Y-72546815D01*
X156213463Y-72643506D01*
X156154498Y-72753820D01*
X156118188Y-72873518D01*
X156108000Y-72976962D01*
X156108000Y-61767000D01*
X158716428Y-61767000D01*
X158719500Y-61931250D01*
X158878250Y-62090000D01*
X159702500Y-62090000D01*
X159702500Y-61290750D01*
X159956500Y-61290750D01*
X159956500Y-62090000D01*
X160780750Y-62090000D01*
X160782250Y-62088500D01*
X161734500Y-62088500D01*
X161734500Y-61164250D01*
X161988500Y-61164250D01*
X161988500Y-62088500D01*
X163237750Y-62088500D01*
X163296250Y-62030000D01*
X163348750Y-62082500D01*
X164023000Y-62082500D01*
X164023000Y-61203250D01*
X163864250Y-61044500D01*
X163825000Y-61041428D01*
X163700518Y-61053688D01*
X163580820Y-61089998D01*
X163470506Y-61148963D01*
X163373815Y-61228315D01*
X163305618Y-61311414D01*
X163292037Y-61286006D01*
X163212685Y-61189315D01*
X163115994Y-61109963D01*
X163005680Y-61050998D01*
X162885982Y-61014688D01*
X162761500Y-61002428D01*
X162147250Y-61005500D01*
X161988500Y-61164250D01*
X161734500Y-61164250D01*
X161575750Y-61005500D01*
X160961500Y-61002428D01*
X160837018Y-61014688D01*
X160717320Y-61050998D01*
X160607006Y-61109963D01*
X160531182Y-61172190D01*
X160428982Y-61141188D01*
X160304500Y-61128928D01*
X160115250Y-61132000D01*
X159956500Y-61290750D01*
X159702500Y-61290750D01*
X159543750Y-61132000D01*
X159354500Y-61128928D01*
X159230018Y-61141188D01*
X159110320Y-61177498D01*
X159000006Y-61236463D01*
X158903315Y-61315815D01*
X158823963Y-61412506D01*
X158764998Y-61522820D01*
X158728688Y-61642518D01*
X158716428Y-61767000D01*
X156108000Y-61767000D01*
X156108000Y-57746500D01*
X168719500Y-57746500D01*
X168719500Y-63182500D01*
%TA.AperFunction,Conductor*%
D21*
G36*
X168719500Y-63182500D02*
G01*
X166832902Y-63182500D01*
X166905537Y-63093994D01*
X166964502Y-62983680D01*
X167000812Y-62863982D01*
X167013072Y-62739500D01*
X167010000Y-62495250D01*
X166851250Y-62336500D01*
X166177000Y-62336500D01*
X166177000Y-62356500D01*
X165923000Y-62356500D01*
X165923000Y-62336500D01*
X165903000Y-62336500D01*
X165903000Y-62082500D01*
X165923000Y-62082500D01*
X165923000Y-61203250D01*
X166177000Y-61203250D01*
X166177000Y-62082500D01*
X166851250Y-62082500D01*
X167010000Y-61923750D01*
X167013072Y-61679500D01*
X167000812Y-61555018D01*
X166964502Y-61435320D01*
X166905537Y-61325006D01*
X166826185Y-61228315D01*
X166729494Y-61148963D01*
X166619180Y-61089998D01*
X166499482Y-61053688D01*
X166375000Y-61041428D01*
X166335750Y-61044500D01*
X166177000Y-61203250D01*
X165923000Y-61203250D01*
X165764250Y-61044500D01*
X165725000Y-61041428D01*
X165600518Y-61053688D01*
X165480820Y-61089998D01*
X165370506Y-61148963D01*
X165273815Y-61228315D01*
X165217728Y-61296657D01*
X164982272Y-61296657D01*
X164926185Y-61228315D01*
X164829494Y-61148963D01*
X164719180Y-61089998D01*
X164599482Y-61053688D01*
X164475000Y-61041428D01*
X164435750Y-61044500D01*
X164277000Y-61203250D01*
X164277000Y-62082500D01*
X164297000Y-62082500D01*
X164297000Y-62336500D01*
X164277000Y-62336500D01*
X164277000Y-62356500D01*
X164023000Y-62356500D01*
X164023000Y-62336500D01*
X163348750Y-62336500D01*
X163290250Y-62395000D01*
X163237750Y-62342500D01*
X161988500Y-62342500D01*
X161988500Y-62362500D01*
X161734500Y-62362500D01*
X161734500Y-62342500D01*
X160485250Y-62342500D01*
X160483750Y-62344000D01*
X159956500Y-62344000D01*
X159956500Y-62364000D01*
X159702500Y-62364000D01*
X159702500Y-62344000D01*
X158878250Y-62344000D01*
X158719500Y-62502750D01*
X158716428Y-62667000D01*
X158728688Y-62791482D01*
X158764998Y-62911180D01*
X158823963Y-63021494D01*
X158903315Y-63118185D01*
X159000006Y-63197537D01*
X159060445Y-63229843D01*
X159017926Y-63309389D01*
X158983337Y-63423416D01*
X158971657Y-63542000D01*
X158971657Y-63992000D01*
X158983337Y-64110584D01*
X159017926Y-64224611D01*
X159074097Y-64329699D01*
X159149690Y-64421810D01*
X159232092Y-64489435D01*
X159218903Y-64521277D01*
X159194500Y-64643958D01*
X159194500Y-64769042D01*
X159218903Y-64891723D01*
X159258000Y-64986110D01*
X159258000Y-74993500D01*
X159006070Y-74993500D01*
X159033502Y-74942180D01*
X159069812Y-74822482D01*
X159082072Y-74698000D01*
X159079000Y-74133750D01*
X158920250Y-73975000D01*
X157721000Y-73975000D01*
X157721000Y-73995000D01*
X157467000Y-73995000D01*
X157467000Y-73975000D01*
X156267750Y-73975000D01*
X156109000Y-74133750D01*
X156108000Y-74317425D01*
X156108000Y-73378575D01*
X156109000Y-73562250D01*
X156267750Y-73721000D01*
X157467000Y-73721000D01*
X157467000Y-72521750D01*
X157721000Y-72521750D01*
X157721000Y-73721000D01*
X158920250Y-73721000D01*
X159079000Y-73562250D01*
X159082072Y-72998000D01*
X159069812Y-72873518D01*
X159033502Y-72753820D01*
X158974537Y-72643506D01*
X158895185Y-72546815D01*
X158798494Y-72467463D01*
X158688180Y-72408498D01*
X158568482Y-72372188D01*
X158444000Y-72359928D01*
X157879750Y-72363000D01*
X157721000Y-72521750D01*
X157467000Y-72521750D01*
X157308250Y-72363000D01*
X156744000Y-72359928D01*
X156619518Y-72372188D01*
X156499820Y-72408498D01*
X156389506Y-72467463D01*
X156292815Y-72546815D01*
X156213463Y-72643506D01*
X156154498Y-72753820D01*
X156118188Y-72873518D01*
X156108000Y-72976962D01*
X156108000Y-61767000D01*
X158716428Y-61767000D01*
X158719500Y-61931250D01*
X158878250Y-62090000D01*
X159702500Y-62090000D01*
X159702500Y-61290750D01*
X159956500Y-61290750D01*
X159956500Y-62090000D01*
X160780750Y-62090000D01*
X160782250Y-62088500D01*
X161734500Y-62088500D01*
X161734500Y-61164250D01*
X161988500Y-61164250D01*
X161988500Y-62088500D01*
X163237750Y-62088500D01*
X163296250Y-62030000D01*
X163348750Y-62082500D01*
X164023000Y-62082500D01*
X164023000Y-61203250D01*
X163864250Y-61044500D01*
X163825000Y-61041428D01*
X163700518Y-61053688D01*
X163580820Y-61089998D01*
X163470506Y-61148963D01*
X163373815Y-61228315D01*
X163305618Y-61311414D01*
X163292037Y-61286006D01*
X163212685Y-61189315D01*
X163115994Y-61109963D01*
X163005680Y-61050998D01*
X162885982Y-61014688D01*
X162761500Y-61002428D01*
X162147250Y-61005500D01*
X161988500Y-61164250D01*
X161734500Y-61164250D01*
X161575750Y-61005500D01*
X160961500Y-61002428D01*
X160837018Y-61014688D01*
X160717320Y-61050998D01*
X160607006Y-61109963D01*
X160531182Y-61172190D01*
X160428982Y-61141188D01*
X160304500Y-61128928D01*
X160115250Y-61132000D01*
X159956500Y-61290750D01*
X159702500Y-61290750D01*
X159543750Y-61132000D01*
X159354500Y-61128928D01*
X159230018Y-61141188D01*
X159110320Y-61177498D01*
X159000006Y-61236463D01*
X158903315Y-61315815D01*
X158823963Y-61412506D01*
X158764998Y-61522820D01*
X158728688Y-61642518D01*
X158716428Y-61767000D01*
X156108000Y-61767000D01*
X156108000Y-57746500D01*
X168719500Y-57746500D01*
X168719500Y-63182500D01*
G37*
%TD.AperFunction*%
%TD*%
M02*
