%TF.GenerationSoftware,KiCad,Pcbnew,(5.1.12)-1*%
%TF.CreationDate,2022-11-07T03:47:31-06:00*%
%TF.ProjectId,perovskite_contact_board,7065726f-7673-46b6-9974-655f636f6e74,rev?*%
%TF.SameCoordinates,Original*%
%TF.FileFunction,Profile,NP*%
%FSLAX46Y46*%
G04 Gerber Fmt 4.6, Leading zero omitted, Abs format (unit mm)*
G04 Created by KiCad (PCBNEW (5.1.12)-1) date 2022-11-07 03:47:31*
%MOMM*%
%LPD*%
G01*
G04 APERTURE LIST*
%TA.AperFunction,Profile*%
%ADD10C,0.050000*%
%TD*%
%TA.AperFunction,Profile*%
%ADD11C,0.200000*%
%TD*%
G04 APERTURE END LIST*
D10*
X175783666Y-80391000D02*
G75*
G03*
X175783666Y-80391000I-1666666J0D01*
G01*
X171617000Y-80391000D02*
X176617000Y-80391000D01*
X174117000Y-77891000D02*
X174117000Y-82891000D01*
X216040750Y-83015458D02*
X216040750Y-86215458D01*
X215040750Y-56215458D02*
X215040750Y-59415458D01*
X212040750Y-83015458D02*
X216040750Y-83015458D01*
X211040750Y-56215458D02*
X215040750Y-56215458D01*
X215040750Y-59415458D02*
X211040750Y-59415458D01*
X212040750Y-86215458D02*
X212040750Y-83015458D01*
X211040750Y-59415458D02*
X211040750Y-56215458D01*
X216040750Y-86215458D02*
X212040750Y-86215458D01*
X182697000Y-81428000D02*
X182697000Y-84628000D01*
D11*
X228997000Y-95815458D02*
G75*
G02*
X227497000Y-97315458I-1500000J0D01*
G01*
X228997000Y-95815458D02*
X228997000Y-46615458D01*
X195584500Y-68740541D02*
X173497000Y-68740541D01*
X227497000Y-45115458D02*
G75*
G02*
X228997000Y-46615458I0J-1500000D01*
G01*
X197084500Y-46615458D02*
X197084500Y-67240541D01*
X227497000Y-45115458D02*
X198584500Y-45115458D01*
D10*
X182697000Y-84628000D02*
X186697000Y-84628000D01*
D11*
X171997000Y-70240541D02*
G75*
G02*
X173497000Y-68740541I1500000J0D01*
G01*
X171997000Y-70240541D02*
X171997000Y-95815458D01*
X173497000Y-97315458D02*
X227497000Y-97315458D01*
X197084500Y-46615458D02*
G75*
G02*
X198584500Y-45115458I1500000J0D01*
G01*
D10*
X186690000Y-81428000D02*
X182697000Y-81428000D01*
D11*
X197084500Y-67240541D02*
G75*
G02*
X195584500Y-68740541I-1500000J0D01*
G01*
D10*
X186697000Y-84628000D02*
X186690000Y-81428000D01*
D11*
X173497000Y-97315458D02*
G75*
G02*
X171997000Y-95815458I0J1500000D01*
G01*
M02*
