M48
; DRILL file {KiCad (5.1.10)-1} date 12/01/22 07:21:37
; FORMAT={-:-/ absolute / inch / decimal}
; #@! TF.CreationDate,2022-12-01T07:21:37-06:00
; #@! TF.GenerationSoftware,Kicad,Pcbnew,(5.1.10)-1
; #@! TF.FileFunction,Plated,1,2,PTH
FMAT,2
INCH
T1C0.0100
%
G90
G05
T1
X4.8625Y-4.045
X4.93Y-4.4725
X4.9325Y-3.66
X5.2525Y-4.4625
X5.255Y-3.65
X5.5775Y-3.66
X5.58Y-4.4675
X5.66Y-4.045
X5.97Y-5.0325
X5.9825Y-4.0075
X6.025Y-4.6575
X6.04Y-5.46
X6.0425Y-3.6175
X6.0525Y-4.4325
X6.3625Y-5.4525
X6.365Y-4.6525
X6.3725Y-4.425
X6.375Y-3.625
X6.6775Y-4.4375
X6.6875Y-5.4475
X6.69Y-4.6475
X6.7Y-3.6225
X6.77Y-5.032
X6.7775Y-4.005
T0
M30
