%TF.GenerationSoftware,KiCad,Pcbnew,(5.1.10)-1*%
%TF.CreationDate,2022-11-26T15:59:38-06:00*%
%TF.ProjectId,perovskite_contact_board,7065726f-7673-46b6-9974-655f636f6e74,A*%
%TF.SameCoordinates,Original*%
%TF.FileFunction,Copper,L1,Top*%
%TF.FilePolarity,Positive*%
%FSLAX46Y46*%
G04 Gerber Fmt 4.6, Leading zero omitted, Abs format (unit mm)*
G04 Created by KiCad (PCBNEW (5.1.10)-1) date 2022-11-26 15:59:38*
%MOMM*%
%LPD*%
G01*
G04 APERTURE LIST*
%TA.AperFunction,SMDPad,CuDef*%
%ADD10R,4.000000X4.000000*%
%TD*%
%TA.AperFunction,SMDPad,CuDef*%
%ADD11R,7.400000X3.800000*%
%TD*%
%TA.AperFunction,ViaPad*%
%ADD12C,0.508000*%
%TD*%
%TA.AperFunction,ViaPad*%
%ADD13C,0.800000*%
%TD*%
G04 APERTURE END LIST*
D10*
%TO.P,U3,7*%
%TO.N,CP_3*%
X171898960Y-127860500D03*
X151698960Y-127860500D03*
%TO.P,U3,5*%
%TO.N,CELL_17*%
X161598960Y-138460500D03*
%TO.P,U3,2*%
%TO.N,CELL_14*%
X161648960Y-118160500D03*
D11*
%TO.P,U3,6*%
%TO.N,CELL_18*%
X153448960Y-138660500D03*
%TO.P,U3,4*%
%TO.N,CELL_16*%
X169898960Y-138660500D03*
%TO.P,U3,3*%
%TO.N,CELL_15*%
X169898960Y-118060500D03*
%TO.P,U3,1*%
%TO.N,CELL_13*%
X153448960Y-118060500D03*
%TD*%
%TO.P,U1,1*%
%TO.N,CELL_1*%
X125285500Y-92964000D03*
%TO.P,U1,3*%
%TO.N,CELL_3*%
X141735500Y-92964000D03*
%TO.P,U1,4*%
%TO.N,CELL_4*%
X141735500Y-113564000D03*
%TO.P,U1,6*%
%TO.N,CELL_6*%
X125285500Y-113564000D03*
D10*
%TO.P,U1,2*%
%TO.N,CELL_2*%
X133485500Y-93064000D03*
%TO.P,U1,5*%
%TO.N,CELL_5*%
X133435500Y-113364000D03*
%TO.P,U1,7*%
%TO.N,CP*%
X123535500Y-102764000D03*
X143735500Y-102764000D03*
%TD*%
D11*
%TO.P,U2,1*%
%TO.N,CELL_7*%
X153730000Y-91985500D03*
%TO.P,U2,3*%
%TO.N,CELL_9*%
X170180000Y-91985500D03*
%TO.P,U2,4*%
%TO.N,CELL_10*%
X170180000Y-112585500D03*
%TO.P,U2,6*%
%TO.N,CELL_12*%
X153730000Y-112585500D03*
D10*
%TO.P,U2,2*%
%TO.N,CELL_8*%
X161930000Y-92085500D03*
%TO.P,U2,5*%
%TO.N,CELL_11*%
X161880000Y-112385500D03*
%TO.P,U2,7*%
%TO.N,CP_2*%
X151980000Y-101785500D03*
X172180000Y-101785500D03*
%TD*%
D12*
%TO.N,CELL_2*%
X133477000Y-92710000D03*
%TO.N,CELL_16*%
X169862500Y-138366500D03*
%TO.N,CELL_17*%
X161607500Y-138493500D03*
%TO.N,CELL_18*%
X153416000Y-138684000D03*
%TO.N,CELL_9*%
X170180000Y-92011500D03*
%TO.N,CELL_8*%
X161925000Y-92075000D03*
%TO.N,CELL_7*%
X153479500Y-91884500D03*
%TO.N,CELL_11*%
X161861500Y-112395000D03*
%TO.N,CELL_10*%
X169608500Y-112712500D03*
%TO.N,CELL_15*%
X169926000Y-118046500D03*
%TO.N,CELL_14*%
X161671000Y-118173500D03*
%TO.N,CELL_13*%
X153035000Y-118300500D03*
%TO.N,CELL_12*%
X153733500Y-112585500D03*
%TO.N,CELL_4*%
X141732000Y-113474500D03*
%TO.N,CELL_5*%
X133413500Y-113347500D03*
%TO.N,CELL_6*%
X125222000Y-113601500D03*
%TO.N,CELL_3*%
X141668500Y-92964000D03*
%TO.N,CELL_1*%
X125285500Y-92964000D03*
%TO.N,CP_2*%
X172148500Y-101727000D03*
X151955500Y-101790500D03*
%TO.N,CP*%
X123507500Y-102743000D03*
X143764000Y-102743000D03*
%TO.N,CP_3*%
X151638000Y-127825500D03*
D13*
X171958000Y-127825500D03*
%TD*%
M02*
