%TF.GenerationSoftware,KiCad,Pcbnew,(5.1.10)-1*%
%TF.CreationDate,2022-12-01T07:21:36-06:00*%
%TF.ProjectId,perovskite_contact_board,7065726f-7673-46b6-9974-655f636f6e74,A*%
%TF.SameCoordinates,Original*%
%TF.FileFunction,Legend,Top*%
%TF.FilePolarity,Positive*%
%FSLAX46Y46*%
G04 Gerber Fmt 4.6, Leading zero omitted, Abs format (unit mm)*
G04 Created by KiCad (PCBNEW (5.1.10)-1) date 2022-12-01 07:21:36*
%MOMM*%
%LPD*%
G01*
G04 APERTURE LIST*
%ADD10C,0.120000*%
%ADD11C,0.100000*%
G04 APERTURE END LIST*
D10*
%TO.C,U3*%
X148898960Y-115460500D02*
X148898960Y-141110500D01*
X174548960Y-115460500D02*
X174548960Y-141110500D01*
X148898960Y-141110500D02*
X174548960Y-141110500D01*
X148898960Y-115460500D02*
X174548960Y-115460500D01*
%TO.C,U1*%
X120735500Y-90364000D02*
X146385500Y-90364000D01*
X120735500Y-116014000D02*
X146385500Y-116014000D01*
X146385500Y-90364000D02*
X146385500Y-116014000D01*
X120735500Y-90364000D02*
X120735500Y-116014000D01*
%TO.C,U2*%
X149180000Y-89385500D02*
X174830000Y-89385500D01*
X149180000Y-115035500D02*
X174830000Y-115035500D01*
X174830000Y-89385500D02*
X174830000Y-115035500D01*
X149180000Y-89385500D02*
X149180000Y-115035500D01*
%TO.C,U3*%
D11*
X170561047Y-120982690D02*
X170561047Y-121387452D01*
X170584857Y-121435071D01*
X170608666Y-121458880D01*
X170656285Y-121482690D01*
X170751523Y-121482690D01*
X170799142Y-121458880D01*
X170822952Y-121435071D01*
X170846761Y-121387452D01*
X170846761Y-120982690D01*
X171037238Y-120982690D02*
X171346761Y-120982690D01*
X171180095Y-121173166D01*
X171251523Y-121173166D01*
X171299142Y-121196976D01*
X171322952Y-121220785D01*
X171346761Y-121268404D01*
X171346761Y-121387452D01*
X171322952Y-121435071D01*
X171299142Y-121458880D01*
X171251523Y-121482690D01*
X171108666Y-121482690D01*
X171061047Y-121458880D01*
X171037238Y-121435071D01*
%TO.C,U1*%
X139752827Y-96094470D02*
X139752827Y-96499232D01*
X139776637Y-96546851D01*
X139800446Y-96570660D01*
X139848065Y-96594470D01*
X139943303Y-96594470D01*
X139990922Y-96570660D01*
X140014732Y-96546851D01*
X140038541Y-96499232D01*
X140038541Y-96094470D01*
X140538541Y-96594470D02*
X140252827Y-96594470D01*
X140395684Y-96594470D02*
X140395684Y-96094470D01*
X140348065Y-96165899D01*
X140300446Y-96213518D01*
X140252827Y-96237327D01*
%TO.C,U2*%
X169604487Y-95542690D02*
X169604487Y-95947452D01*
X169628297Y-95995071D01*
X169652106Y-96018880D01*
X169699725Y-96042690D01*
X169794963Y-96042690D01*
X169842582Y-96018880D01*
X169866392Y-95995071D01*
X169890201Y-95947452D01*
X169890201Y-95542690D01*
X170104487Y-95590309D02*
X170128297Y-95566500D01*
X170175916Y-95542690D01*
X170294963Y-95542690D01*
X170342582Y-95566500D01*
X170366392Y-95590309D01*
X170390201Y-95637928D01*
X170390201Y-95685547D01*
X170366392Y-95756976D01*
X170080678Y-96042690D01*
X170390201Y-96042690D01*
%TD*%
M02*
