%TF.GenerationSoftware,KiCad,Pcbnew,(5.1.10)-1*%
%TF.CreationDate,2023-08-16T20:39:55-05:00*%
%TF.ProjectId,brs_flight_computer,6272735f-666c-4696-9768-745f636f6d70,A*%
%TF.SameCoordinates,Original*%
%TF.FileFunction,Legend,Top*%
%TF.FilePolarity,Positive*%
%FSLAX46Y46*%
G04 Gerber Fmt 4.6, Leading zero omitted, Abs format (unit mm)*
G04 Created by KiCad (PCBNEW (5.1.10)-1) date 2023-08-16 20:39:55*
%MOMM*%
%LPD*%
G01*
G04 APERTURE LIST*
%ADD10C,0.120000*%
%ADD11C,0.150000*%
G04 APERTURE END LIST*
D10*
%TO.C,J6*%
X150279000Y-123250000D02*
X152939000Y-123250000D01*
X150279000Y-95250000D02*
X150279000Y-123250000D01*
X152939000Y-95250000D02*
X152939000Y-123250000D01*
X150279000Y-95250000D02*
X152939000Y-95250000D01*
X150279000Y-93980000D02*
X150279000Y-92650000D01*
X150279000Y-92650000D02*
X151609000Y-92650000D01*
%TO.C,J5*%
X164182195Y-86965747D02*
G75*
G02*
X164895000Y-87111000I28805J-1680253D01*
G01*
X165746426Y-87962958D02*
G75*
G02*
X165746000Y-89330000I-1535426J-683042D01*
G01*
X164894042Y-90181426D02*
G75*
G02*
X163527000Y-90181000I-683042J1535426D01*
G01*
X162675574Y-89329042D02*
G75*
G02*
X162676000Y-87962000I1535426J683042D01*
G01*
X163527682Y-87111244D02*
G75*
G02*
X164211000Y-86966000I683318J-1534756D01*
G01*
X160891000Y-88646000D02*
G75*
G03*
X160891000Y-88646000I-1680000J0D01*
G01*
X155891000Y-88646000D02*
G75*
G03*
X155891000Y-88646000I-1680000J0D01*
G01*
X166771000Y-84546000D02*
X151651000Y-84546000D01*
X166771000Y-86046000D02*
X151651000Y-86046000D01*
X166771000Y-90947000D02*
X151651000Y-90947000D01*
X166771000Y-93907000D02*
X151651000Y-93907000D01*
X166771000Y-83986000D02*
X151651000Y-83986000D01*
X166771000Y-93907000D02*
X166771000Y-83986000D01*
X151651000Y-93907000D02*
X151651000Y-83986000D01*
X157936000Y-89715000D02*
X157983000Y-89669000D01*
X160245000Y-87407000D02*
X160280000Y-87372000D01*
X158141000Y-89921000D02*
X158176000Y-89885000D01*
X160438000Y-87623000D02*
X160485000Y-87577000D01*
X152936000Y-89715000D02*
X152983000Y-89669000D01*
X155245000Y-87407000D02*
X155280000Y-87372000D01*
X153141000Y-89921000D02*
X153176000Y-89885000D01*
X155438000Y-87623000D02*
X155485000Y-87577000D01*
X167011000Y-84486000D02*
X167011000Y-83746000D01*
X167011000Y-83746000D02*
X166511000Y-83746000D01*
%TO.C,J4*%
X165519000Y-133410000D02*
X168179000Y-133410000D01*
X165519000Y-95250000D02*
X165519000Y-133410000D01*
X168179000Y-95250000D02*
X168179000Y-133410000D01*
X165519000Y-95250000D02*
X168179000Y-95250000D01*
X165519000Y-93980000D02*
X165519000Y-92650000D01*
X165519000Y-92650000D02*
X166849000Y-92650000D01*
%TO.C,J3*%
X144694000Y-75056000D02*
X144694000Y-78476000D01*
X144694000Y-78476000D02*
X159164000Y-78476000D01*
X159164000Y-78476000D02*
X159164000Y-75056000D01*
X159164000Y-75056000D02*
X144694000Y-75056000D01*
X151929000Y-77966000D02*
X145204000Y-77966000D01*
X145204000Y-77966000D02*
X145204000Y-77216000D01*
X145204000Y-77216000D02*
X145004000Y-77216000D01*
X145004000Y-77216000D02*
X145004000Y-76416000D01*
X145004000Y-76416000D02*
X145204000Y-76416000D01*
X145204000Y-76416000D02*
X145204000Y-75566000D01*
X145204000Y-75566000D02*
X151929000Y-75566000D01*
X151929000Y-77966000D02*
X158654000Y-77966000D01*
X158654000Y-77966000D02*
X158654000Y-77216000D01*
X158654000Y-77216000D02*
X158854000Y-77216000D01*
X158854000Y-77216000D02*
X158854000Y-76416000D01*
X158854000Y-76416000D02*
X158654000Y-76416000D01*
X158654000Y-76416000D02*
X158654000Y-75566000D01*
X158654000Y-75566000D02*
X151929000Y-75566000D01*
X144404000Y-78766000D02*
X144404000Y-77766000D01*
X144404000Y-78766000D02*
X145404000Y-78766000D01*
%TO.C,J2*%
X123257000Y-88840000D02*
X123257000Y-91500000D01*
X136017000Y-88840000D02*
X123257000Y-88840000D01*
X136017000Y-91500000D02*
X123257000Y-91500000D01*
X136017000Y-88840000D02*
X136017000Y-91500000D01*
X137287000Y-88840000D02*
X138617000Y-88840000D01*
X138617000Y-88840000D02*
X138617000Y-90170000D01*
%TO.C,J1*%
X123257000Y-106620000D02*
X123257000Y-109280000D01*
X136017000Y-106620000D02*
X123257000Y-106620000D01*
X136017000Y-109280000D02*
X123257000Y-109280000D01*
X136017000Y-106620000D02*
X136017000Y-109280000D01*
X137287000Y-106620000D02*
X138617000Y-106620000D01*
X138617000Y-106620000D02*
X138617000Y-107950000D01*
%TO.C,J6*%
D11*
X151275666Y-91102380D02*
X151275666Y-91816666D01*
X151228047Y-91959523D01*
X151132809Y-92054761D01*
X150989952Y-92102380D01*
X150894714Y-92102380D01*
X152180428Y-91102380D02*
X151989952Y-91102380D01*
X151894714Y-91150000D01*
X151847095Y-91197619D01*
X151751857Y-91340476D01*
X151704238Y-91530952D01*
X151704238Y-91911904D01*
X151751857Y-92007142D01*
X151799476Y-92054761D01*
X151894714Y-92102380D01*
X152085190Y-92102380D01*
X152180428Y-92054761D01*
X152228047Y-92007142D01*
X152275666Y-91911904D01*
X152275666Y-91673809D01*
X152228047Y-91578571D01*
X152180428Y-91530952D01*
X152085190Y-91483333D01*
X151894714Y-91483333D01*
X151799476Y-91530952D01*
X151751857Y-91578571D01*
X151704238Y-91673809D01*
%TO.C,J5*%
X158877666Y-94358380D02*
X158877666Y-95072666D01*
X158830047Y-95215523D01*
X158734809Y-95310761D01*
X158591952Y-95358380D01*
X158496714Y-95358380D01*
X159830047Y-94358380D02*
X159353857Y-94358380D01*
X159306238Y-94834571D01*
X159353857Y-94786952D01*
X159449095Y-94739333D01*
X159687190Y-94739333D01*
X159782428Y-94786952D01*
X159830047Y-94834571D01*
X159877666Y-94929809D01*
X159877666Y-95167904D01*
X159830047Y-95263142D01*
X159782428Y-95310761D01*
X159687190Y-95358380D01*
X159449095Y-95358380D01*
X159353857Y-95310761D01*
X159306238Y-95263142D01*
%TO.C,J4*%
X166515666Y-91102380D02*
X166515666Y-91816666D01*
X166468047Y-91959523D01*
X166372809Y-92054761D01*
X166229952Y-92102380D01*
X166134714Y-92102380D01*
X167420428Y-91435714D02*
X167420428Y-92102380D01*
X167182333Y-91054761D02*
X166944238Y-91769047D01*
X167563285Y-91769047D01*
%TO.C,J3*%
X151590666Y-73418380D02*
X151590666Y-74132666D01*
X151543047Y-74275523D01*
X151447809Y-74370761D01*
X151304952Y-74418380D01*
X151209714Y-74418380D01*
X151971619Y-73418380D02*
X152590666Y-73418380D01*
X152257333Y-73799333D01*
X152400190Y-73799333D01*
X152495428Y-73846952D01*
X152543047Y-73894571D01*
X152590666Y-73989809D01*
X152590666Y-74227904D01*
X152543047Y-74323142D01*
X152495428Y-74370761D01*
X152400190Y-74418380D01*
X152114476Y-74418380D01*
X152019238Y-74370761D01*
X151971619Y-74323142D01*
%TO.C,J2*%
X139069380Y-90503333D02*
X139783666Y-90503333D01*
X139926523Y-90550952D01*
X140021761Y-90646190D01*
X140069380Y-90789047D01*
X140069380Y-90884285D01*
X139164619Y-90074761D02*
X139117000Y-90027142D01*
X139069380Y-89931904D01*
X139069380Y-89693809D01*
X139117000Y-89598571D01*
X139164619Y-89550952D01*
X139259857Y-89503333D01*
X139355095Y-89503333D01*
X139497952Y-89550952D01*
X140069380Y-90122380D01*
X140069380Y-89503333D01*
%TO.C,J1*%
X139069380Y-108283333D02*
X139783666Y-108283333D01*
X139926523Y-108330952D01*
X140021761Y-108426190D01*
X140069380Y-108569047D01*
X140069380Y-108664285D01*
X140069380Y-107283333D02*
X140069380Y-107854761D01*
X140069380Y-107569047D02*
X139069380Y-107569047D01*
X139212238Y-107664285D01*
X139307476Y-107759523D01*
X139355095Y-107854761D01*
%TD*%
M02*
