%TF.GenerationSoftware,KiCad,Pcbnew,(5.1.10)-1*%
%TF.CreationDate,2023-08-16T20:39:55-05:00*%
%TF.ProjectId,brs_flight_computer,6272735f-666c-4696-9768-745f636f6d70,A*%
%TF.SameCoordinates,Original*%
%TF.FileFunction,Soldermask,Top*%
%TF.FilePolarity,Negative*%
%FSLAX46Y46*%
G04 Gerber Fmt 4.6, Leading zero omitted, Abs format (unit mm)*
G04 Created by KiCad (PCBNEW (5.1.10)-1) date 2023-08-16 20:39:55*
%MOMM*%
%LPD*%
G01*
G04 APERTURE LIST*
%ADD10O,1.700000X1.700000*%
%ADD11R,1.700000X1.700000*%
%ADD12C,2.600000*%
%ADD13R,2.600000X2.600000*%
%ADD14O,0.800000X1.300000*%
G04 APERTURE END LIST*
D10*
%TO.C,J6*%
X151609000Y-121920000D03*
X151609000Y-119380000D03*
X151609000Y-116840000D03*
X151609000Y-114300000D03*
X151609000Y-111760000D03*
X151609000Y-109220000D03*
X151609000Y-106680000D03*
X151609000Y-104140000D03*
X151609000Y-101600000D03*
X151609000Y-99060000D03*
X151609000Y-96520000D03*
D11*
X151609000Y-93980000D03*
%TD*%
D12*
%TO.C,J5*%
X154211000Y-88646000D03*
X159211000Y-88646000D03*
D13*
X164211000Y-88646000D03*
%TD*%
D10*
%TO.C,J4*%
X166849000Y-132080000D03*
X166849000Y-129540000D03*
X166849000Y-127000000D03*
X166849000Y-124460000D03*
X166849000Y-121920000D03*
X166849000Y-119380000D03*
X166849000Y-116840000D03*
X166849000Y-114300000D03*
X166849000Y-111760000D03*
X166849000Y-109220000D03*
X166849000Y-106680000D03*
X166849000Y-104140000D03*
X166849000Y-101600000D03*
X166849000Y-99060000D03*
X166849000Y-96520000D03*
D11*
X166849000Y-93980000D03*
%TD*%
D14*
%TO.C,J3*%
X157554000Y-77216000D03*
X156304000Y-77216000D03*
X155054000Y-77216000D03*
X153804000Y-77216000D03*
X152554000Y-77216000D03*
X151304000Y-77216000D03*
X150054000Y-77216000D03*
X148804000Y-77216000D03*
X147554000Y-77216000D03*
G36*
G01*
X145904000Y-77666000D02*
X145904000Y-76766000D01*
G75*
G02*
X146104000Y-76566000I200000J0D01*
G01*
X146504000Y-76566000D01*
G75*
G02*
X146704000Y-76766000I0J-200000D01*
G01*
X146704000Y-77666000D01*
G75*
G02*
X146504000Y-77866000I-200000J0D01*
G01*
X146104000Y-77866000D01*
G75*
G02*
X145904000Y-77666000I0J200000D01*
G01*
G37*
%TD*%
D10*
%TO.C,J2*%
X124587000Y-90170000D03*
X127127000Y-90170000D03*
X129667000Y-90170000D03*
X132207000Y-90170000D03*
X134747000Y-90170000D03*
D11*
X137287000Y-90170000D03*
%TD*%
D10*
%TO.C,J1*%
X124587000Y-107950000D03*
X127127000Y-107950000D03*
X129667000Y-107950000D03*
X132207000Y-107950000D03*
X134747000Y-107950000D03*
D11*
X137287000Y-107950000D03*
%TD*%
M02*
