%TF.GenerationSoftware,KiCad,Pcbnew,(5.1.10)-1*%
%TF.CreationDate,2023-09-09T18:53:20-05:00*%
%TF.ProjectId,brs_flight_computer,6272735f-666c-4696-9768-745f636f6d70,A*%
%TF.SameCoordinates,Original*%
%TF.FileFunction,Legend,Top*%
%TF.FilePolarity,Positive*%
%FSLAX46Y46*%
G04 Gerber Fmt 4.6, Leading zero omitted, Abs format (unit mm)*
G04 Created by KiCad (PCBNEW (5.1.10)-1) date 2023-09-09 18:53:20*
%MOMM*%
%LPD*%
G01*
G04 APERTURE LIST*
%ADD10C,0.120000*%
%ADD11C,0.150000*%
G04 APERTURE END LIST*
D10*
%TO.C,J5*%
X167011000Y-83746000D02*
X166511000Y-83746000D01*
X167011000Y-84486000D02*
X167011000Y-83746000D01*
X155438000Y-87623000D02*
X155485000Y-87577000D01*
X153141000Y-89921000D02*
X153176000Y-89885000D01*
X155245000Y-87407000D02*
X155280000Y-87372000D01*
X152936000Y-89715000D02*
X152983000Y-89669000D01*
X160438000Y-87623000D02*
X160485000Y-87577000D01*
X158141000Y-89921000D02*
X158176000Y-89885000D01*
X160245000Y-87407000D02*
X160280000Y-87372000D01*
X157936000Y-89715000D02*
X157983000Y-89669000D01*
X151651000Y-93907000D02*
X151651000Y-83986000D01*
X166771000Y-93907000D02*
X166771000Y-83986000D01*
X166771000Y-83986000D02*
X151651000Y-83986000D01*
X166771000Y-93907000D02*
X151651000Y-93907000D01*
X166771000Y-90947000D02*
X151651000Y-90947000D01*
X166771000Y-86046000D02*
X151651000Y-86046000D01*
X166771000Y-84546000D02*
X151651000Y-84546000D01*
X155891000Y-88646000D02*
G75*
G03*
X155891000Y-88646000I-1680000J0D01*
G01*
X160891000Y-88646000D02*
G75*
G03*
X160891000Y-88646000I-1680000J0D01*
G01*
X164182195Y-86965747D02*
G75*
G02*
X164895000Y-87111000I28805J-1680253D01*
G01*
X165746426Y-87962958D02*
G75*
G02*
X165746000Y-89330000I-1535426J-683042D01*
G01*
X164894042Y-90181426D02*
G75*
G02*
X163527000Y-90181000I-683042J1535426D01*
G01*
X162675574Y-89329042D02*
G75*
G02*
X162676000Y-87962000I1535426J683042D01*
G01*
X163527682Y-87111244D02*
G75*
G02*
X164211000Y-86966000I683318J-1534756D01*
G01*
%TO.C,R2*%
X176135000Y-117070000D02*
X176135000Y-113760000D01*
X176135000Y-103910000D02*
X176135000Y-107220000D01*
X177505000Y-113760000D02*
X177505000Y-107220000D01*
X174765000Y-113760000D02*
X177505000Y-113760000D01*
X174765000Y-107220000D02*
X174765000Y-113760000D01*
X177505000Y-107220000D02*
X174765000Y-107220000D01*
%TO.C,R1*%
X180185000Y-117070000D02*
X180185000Y-113760000D01*
X180185000Y-103910000D02*
X180185000Y-107220000D01*
X181555000Y-113760000D02*
X181555000Y-107220000D01*
X178815000Y-113760000D02*
X181555000Y-113760000D01*
X178815000Y-107220000D02*
X178815000Y-113760000D01*
X181555000Y-107220000D02*
X178815000Y-107220000D01*
%TO.C,C2*%
X171792000Y-107990000D02*
X171477000Y-107990000D01*
X174217000Y-107990000D02*
X173902000Y-107990000D01*
X171792000Y-102750000D02*
X171477000Y-102750000D01*
X174217000Y-102750000D02*
X173902000Y-102750000D01*
X171477000Y-102750000D02*
X171477000Y-107990000D01*
X174217000Y-102750000D02*
X174217000Y-107990000D01*
%TO.C,C1*%
X182460000Y-107990000D02*
X182145000Y-107990000D01*
X184885000Y-107990000D02*
X184570000Y-107990000D01*
X182460000Y-102750000D02*
X182145000Y-102750000D01*
X184885000Y-102750000D02*
X184570000Y-102750000D01*
X182145000Y-102750000D02*
X182145000Y-107990000D01*
X184885000Y-102750000D02*
X184885000Y-107990000D01*
%TO.C,J8*%
X123282400Y-113630400D02*
X123282400Y-116290400D01*
X136042400Y-113630400D02*
X123282400Y-113630400D01*
X136042400Y-116290400D02*
X123282400Y-116290400D01*
X136042400Y-113630400D02*
X136042400Y-116290400D01*
X137312400Y-113630400D02*
X138642400Y-113630400D01*
X138642400Y-113630400D02*
X138642400Y-114960400D01*
%TO.C,J7*%
X123282400Y-126330400D02*
X123282400Y-128990400D01*
X136042400Y-126330400D02*
X123282400Y-126330400D01*
X136042400Y-128990400D02*
X123282400Y-128990400D01*
X136042400Y-126330400D02*
X136042400Y-128990400D01*
X137312400Y-126330400D02*
X138642400Y-126330400D01*
X138642400Y-126330400D02*
X138642400Y-127660400D01*
%TO.C,J6*%
X150279000Y-92650000D02*
X151609000Y-92650000D01*
X150279000Y-93980000D02*
X150279000Y-92650000D01*
X150279000Y-95250000D02*
X152939000Y-95250000D01*
X152939000Y-95250000D02*
X152939000Y-123250000D01*
X150279000Y-95250000D02*
X150279000Y-123250000D01*
X150279000Y-123250000D02*
X152939000Y-123250000D01*
%TO.C,J4*%
X165519000Y-92650000D02*
X166849000Y-92650000D01*
X165519000Y-93980000D02*
X165519000Y-92650000D01*
X165519000Y-95250000D02*
X168179000Y-95250000D01*
X168179000Y-95250000D02*
X168179000Y-133410000D01*
X165519000Y-95250000D02*
X165519000Y-133410000D01*
X165519000Y-133410000D02*
X168179000Y-133410000D01*
%TO.C,J3*%
X144404000Y-78766000D02*
X145404000Y-78766000D01*
X144404000Y-78766000D02*
X144404000Y-77766000D01*
X158654000Y-75566000D02*
X151929000Y-75566000D01*
X158654000Y-76416000D02*
X158654000Y-75566000D01*
X158854000Y-76416000D02*
X158654000Y-76416000D01*
X158854000Y-77216000D02*
X158854000Y-76416000D01*
X158654000Y-77216000D02*
X158854000Y-77216000D01*
X158654000Y-77966000D02*
X158654000Y-77216000D01*
X151929000Y-77966000D02*
X158654000Y-77966000D01*
X145204000Y-75566000D02*
X151929000Y-75566000D01*
X145204000Y-76416000D02*
X145204000Y-75566000D01*
X145004000Y-76416000D02*
X145204000Y-76416000D01*
X145004000Y-77216000D02*
X145004000Y-76416000D01*
X145204000Y-77216000D02*
X145004000Y-77216000D01*
X145204000Y-77966000D02*
X145204000Y-77216000D01*
X151929000Y-77966000D02*
X145204000Y-77966000D01*
X159164000Y-75056000D02*
X144694000Y-75056000D01*
X159164000Y-78476000D02*
X159164000Y-75056000D01*
X144694000Y-78476000D02*
X159164000Y-78476000D01*
X144694000Y-75056000D02*
X144694000Y-78476000D01*
%TO.C,J2*%
X138617000Y-93920000D02*
X138617000Y-95250000D01*
X137287000Y-93920000D02*
X138617000Y-93920000D01*
X136017000Y-93920000D02*
X136017000Y-96580000D01*
X136017000Y-96580000D02*
X123257000Y-96580000D01*
X136017000Y-93920000D02*
X123257000Y-93920000D01*
X123257000Y-93920000D02*
X123257000Y-96580000D01*
%TO.C,J1*%
X138617000Y-106620000D02*
X138617000Y-107950000D01*
X137287000Y-106620000D02*
X138617000Y-106620000D01*
X136017000Y-106620000D02*
X136017000Y-109280000D01*
X136017000Y-109280000D02*
X123257000Y-109280000D01*
X136017000Y-106620000D02*
X123257000Y-106620000D01*
X123257000Y-106620000D02*
X123257000Y-109280000D01*
%TO.C,J5*%
D11*
X158877666Y-94358380D02*
X158877666Y-95072666D01*
X158830047Y-95215523D01*
X158734809Y-95310761D01*
X158591952Y-95358380D01*
X158496714Y-95358380D01*
X159830047Y-94358380D02*
X159353857Y-94358380D01*
X159306238Y-94834571D01*
X159353857Y-94786952D01*
X159449095Y-94739333D01*
X159687190Y-94739333D01*
X159782428Y-94786952D01*
X159830047Y-94834571D01*
X159877666Y-94929809D01*
X159877666Y-95167904D01*
X159830047Y-95263142D01*
X159782428Y-95310761D01*
X159687190Y-95358380D01*
X159449095Y-95358380D01*
X159353857Y-95310761D01*
X159306238Y-95263142D01*
%TO.C,R2*%
X176601380Y-110656666D02*
X176125190Y-110990000D01*
X176601380Y-111228095D02*
X175601380Y-111228095D01*
X175601380Y-110847142D01*
X175649000Y-110751904D01*
X175696619Y-110704285D01*
X175791857Y-110656666D01*
X175934714Y-110656666D01*
X176029952Y-110704285D01*
X176077571Y-110751904D01*
X176125190Y-110847142D01*
X176125190Y-111228095D01*
X175696619Y-110275714D02*
X175649000Y-110228095D01*
X175601380Y-110132857D01*
X175601380Y-109894761D01*
X175649000Y-109799523D01*
X175696619Y-109751904D01*
X175791857Y-109704285D01*
X175887095Y-109704285D01*
X176029952Y-109751904D01*
X176601380Y-110323333D01*
X176601380Y-109704285D01*
%TO.C,R1*%
X180665380Y-110656666D02*
X180189190Y-110990000D01*
X180665380Y-111228095D02*
X179665380Y-111228095D01*
X179665380Y-110847142D01*
X179713000Y-110751904D01*
X179760619Y-110704285D01*
X179855857Y-110656666D01*
X179998714Y-110656666D01*
X180093952Y-110704285D01*
X180141571Y-110751904D01*
X180189190Y-110847142D01*
X180189190Y-111228095D01*
X180665380Y-109704285D02*
X180665380Y-110275714D01*
X180665380Y-109990000D02*
X179665380Y-109990000D01*
X179808238Y-110085238D01*
X179903476Y-110180476D01*
X179951095Y-110275714D01*
%TO.C,C2*%
X173204142Y-105576666D02*
X173251761Y-105624285D01*
X173299380Y-105767142D01*
X173299380Y-105862380D01*
X173251761Y-106005238D01*
X173156523Y-106100476D01*
X173061285Y-106148095D01*
X172870809Y-106195714D01*
X172727952Y-106195714D01*
X172537476Y-106148095D01*
X172442238Y-106100476D01*
X172347000Y-106005238D01*
X172299380Y-105862380D01*
X172299380Y-105767142D01*
X172347000Y-105624285D01*
X172394619Y-105576666D01*
X172394619Y-105195714D02*
X172347000Y-105148095D01*
X172299380Y-105052857D01*
X172299380Y-104814761D01*
X172347000Y-104719523D01*
X172394619Y-104671904D01*
X172489857Y-104624285D01*
X172585095Y-104624285D01*
X172727952Y-104671904D01*
X173299380Y-105243333D01*
X173299380Y-104624285D01*
%TO.C,C1*%
X183872142Y-105576666D02*
X183919761Y-105624285D01*
X183967380Y-105767142D01*
X183967380Y-105862380D01*
X183919761Y-106005238D01*
X183824523Y-106100476D01*
X183729285Y-106148095D01*
X183538809Y-106195714D01*
X183395952Y-106195714D01*
X183205476Y-106148095D01*
X183110238Y-106100476D01*
X183015000Y-106005238D01*
X182967380Y-105862380D01*
X182967380Y-105767142D01*
X183015000Y-105624285D01*
X183062619Y-105576666D01*
X183967380Y-104624285D02*
X183967380Y-105195714D01*
X183967380Y-104910000D02*
X182967380Y-104910000D01*
X183110238Y-105005238D01*
X183205476Y-105100476D01*
X183253095Y-105195714D01*
%TO.C,J8*%
X139094780Y-115293733D02*
X139809066Y-115293733D01*
X139951923Y-115341352D01*
X140047161Y-115436590D01*
X140094780Y-115579447D01*
X140094780Y-115674685D01*
X139523352Y-114674685D02*
X139475733Y-114769923D01*
X139428114Y-114817542D01*
X139332876Y-114865161D01*
X139285257Y-114865161D01*
X139190019Y-114817542D01*
X139142400Y-114769923D01*
X139094780Y-114674685D01*
X139094780Y-114484209D01*
X139142400Y-114388971D01*
X139190019Y-114341352D01*
X139285257Y-114293733D01*
X139332876Y-114293733D01*
X139428114Y-114341352D01*
X139475733Y-114388971D01*
X139523352Y-114484209D01*
X139523352Y-114674685D01*
X139570971Y-114769923D01*
X139618590Y-114817542D01*
X139713828Y-114865161D01*
X139904304Y-114865161D01*
X139999542Y-114817542D01*
X140047161Y-114769923D01*
X140094780Y-114674685D01*
X140094780Y-114484209D01*
X140047161Y-114388971D01*
X139999542Y-114341352D01*
X139904304Y-114293733D01*
X139713828Y-114293733D01*
X139618590Y-114341352D01*
X139570971Y-114388971D01*
X139523352Y-114484209D01*
%TO.C,J7*%
X139094780Y-127993733D02*
X139809066Y-127993733D01*
X139951923Y-128041352D01*
X140047161Y-128136590D01*
X140094780Y-128279447D01*
X140094780Y-128374685D01*
X139094780Y-127612780D02*
X139094780Y-126946114D01*
X140094780Y-127374685D01*
%TO.C,J6*%
X151275666Y-91102380D02*
X151275666Y-91816666D01*
X151228047Y-91959523D01*
X151132809Y-92054761D01*
X150989952Y-92102380D01*
X150894714Y-92102380D01*
X152180428Y-91102380D02*
X151989952Y-91102380D01*
X151894714Y-91150000D01*
X151847095Y-91197619D01*
X151751857Y-91340476D01*
X151704238Y-91530952D01*
X151704238Y-91911904D01*
X151751857Y-92007142D01*
X151799476Y-92054761D01*
X151894714Y-92102380D01*
X152085190Y-92102380D01*
X152180428Y-92054761D01*
X152228047Y-92007142D01*
X152275666Y-91911904D01*
X152275666Y-91673809D01*
X152228047Y-91578571D01*
X152180428Y-91530952D01*
X152085190Y-91483333D01*
X151894714Y-91483333D01*
X151799476Y-91530952D01*
X151751857Y-91578571D01*
X151704238Y-91673809D01*
%TO.C,J4*%
X166515666Y-91102380D02*
X166515666Y-91816666D01*
X166468047Y-91959523D01*
X166372809Y-92054761D01*
X166229952Y-92102380D01*
X166134714Y-92102380D01*
X167420428Y-91435714D02*
X167420428Y-92102380D01*
X167182333Y-91054761D02*
X166944238Y-91769047D01*
X167563285Y-91769047D01*
%TO.C,J3*%
X151590666Y-73418380D02*
X151590666Y-74132666D01*
X151543047Y-74275523D01*
X151447809Y-74370761D01*
X151304952Y-74418380D01*
X151209714Y-74418380D01*
X151971619Y-73418380D02*
X152590666Y-73418380D01*
X152257333Y-73799333D01*
X152400190Y-73799333D01*
X152495428Y-73846952D01*
X152543047Y-73894571D01*
X152590666Y-73989809D01*
X152590666Y-74227904D01*
X152543047Y-74323142D01*
X152495428Y-74370761D01*
X152400190Y-74418380D01*
X152114476Y-74418380D01*
X152019238Y-74370761D01*
X151971619Y-74323142D01*
%TO.C,J2*%
X139069380Y-95583333D02*
X139783666Y-95583333D01*
X139926523Y-95630952D01*
X140021761Y-95726190D01*
X140069380Y-95869047D01*
X140069380Y-95964285D01*
X139164619Y-95154761D02*
X139117000Y-95107142D01*
X139069380Y-95011904D01*
X139069380Y-94773809D01*
X139117000Y-94678571D01*
X139164619Y-94630952D01*
X139259857Y-94583333D01*
X139355095Y-94583333D01*
X139497952Y-94630952D01*
X140069380Y-95202380D01*
X140069380Y-94583333D01*
%TO.C,J1*%
X139069380Y-108283333D02*
X139783666Y-108283333D01*
X139926523Y-108330952D01*
X140021761Y-108426190D01*
X140069380Y-108569047D01*
X140069380Y-108664285D01*
X140069380Y-107283333D02*
X140069380Y-107854761D01*
X140069380Y-107569047D02*
X139069380Y-107569047D01*
X139212238Y-107664285D01*
X139307476Y-107759523D01*
X139355095Y-107854761D01*
%TD*%
M02*
