%TF.GenerationSoftware,KiCad,Pcbnew,(5.1.10)-1*%
%TF.CreationDate,2023-08-16T20:39:55-05:00*%
%TF.ProjectId,brs_flight_computer,6272735f-666c-4696-9768-745f636f6d70,A*%
%TF.SameCoordinates,Original*%
%TF.FileFunction,Copper,L2,Bot*%
%TF.FilePolarity,Positive*%
%FSLAX46Y46*%
G04 Gerber Fmt 4.6, Leading zero omitted, Abs format (unit mm)*
G04 Created by KiCad (PCBNEW (5.1.10)-1) date 2023-08-16 20:39:55*
%MOMM*%
%LPD*%
G01*
G04 APERTURE LIST*
%TA.AperFunction,ComponentPad*%
%ADD10O,1.700000X1.700000*%
%TD*%
%TA.AperFunction,ComponentPad*%
%ADD11R,1.700000X1.700000*%
%TD*%
%TA.AperFunction,ComponentPad*%
%ADD12C,2.600000*%
%TD*%
%TA.AperFunction,ComponentPad*%
%ADD13R,2.600000X2.600000*%
%TD*%
%TA.AperFunction,ComponentPad*%
%ADD14O,0.800000X1.300000*%
%TD*%
%TA.AperFunction,Conductor*%
%ADD15C,0.304800*%
%TD*%
G04 APERTURE END LIST*
D10*
%TO.P,J6,12*%
%TO.N,Net-(J6-Pad12)*%
X151609000Y-121920000D03*
%TO.P,J6,11*%
%TO.N,Net-(J6-Pad11)*%
X151609000Y-119380000D03*
%TO.P,J6,10*%
%TO.N,Net-(J6-Pad10)*%
X151609000Y-116840000D03*
%TO.P,J6,9*%
%TO.N,Net-(J6-Pad9)*%
X151609000Y-114300000D03*
%TO.P,J6,8*%
%TO.N,Net-(J6-Pad8)*%
X151609000Y-111760000D03*
%TO.P,J6,7*%
%TO.N,Net-(J6-Pad7)*%
X151609000Y-109220000D03*
%TO.P,J6,6*%
%TO.N,Net-(J6-Pad6)*%
X151609000Y-106680000D03*
%TO.P,J6,5*%
%TO.N,Net-(J6-Pad5)*%
X151609000Y-104140000D03*
%TO.P,J6,4*%
%TO.N,Net-(J6-Pad4)*%
X151609000Y-101600000D03*
%TO.P,J6,3*%
%TO.N,Net-(J6-Pad3)*%
X151609000Y-99060000D03*
%TO.P,J6,2*%
%TO.N,Net-(J6-Pad2)*%
X151609000Y-96520000D03*
D11*
%TO.P,J6,1*%
%TO.N,Net-(J6-Pad1)*%
X151609000Y-93980000D03*
%TD*%
D12*
%TO.P,J5,3*%
%TO.N,/NC_V*%
X154211000Y-88646000D03*
%TO.P,J5,2*%
%TO.N,VPP*%
X159211000Y-88646000D03*
D13*
%TO.P,J5,1*%
%TO.N,/NO_V*%
X164211000Y-88646000D03*
%TD*%
D10*
%TO.P,J4,16*%
%TO.N,Net-(J4-Pad16)*%
X166849000Y-132080000D03*
%TO.P,J4,15*%
%TO.N,VPP*%
X166849000Y-129540000D03*
%TO.P,J4,14*%
%TO.N,Net-(J4-Pad14)*%
X166849000Y-127000000D03*
%TO.P,J4,13*%
%TO.N,GND*%
X166849000Y-124460000D03*
%TO.P,J4,12*%
%TO.N,Net-(J4-Pad12)*%
X166849000Y-121920000D03*
%TO.P,J4,11*%
%TO.N,/SET*%
X166849000Y-119380000D03*
%TO.P,J4,10*%
%TO.N,/UNSET*%
X166849000Y-116840000D03*
%TO.P,J4,9*%
%TO.N,Net-(J4-Pad9)*%
X166849000Y-114300000D03*
%TO.P,J4,8*%
%TO.N,Net-(J4-Pad8)*%
X166849000Y-111760000D03*
%TO.P,J4,7*%
%TO.N,Net-(J4-Pad7)*%
X166849000Y-109220000D03*
%TO.P,J4,6*%
%TO.N,Net-(J4-Pad6)*%
X166849000Y-106680000D03*
%TO.P,J4,5*%
%TO.N,Net-(J4-Pad5)*%
X166849000Y-104140000D03*
%TO.P,J4,4*%
%TO.N,Net-(J4-Pad4)*%
X166849000Y-101600000D03*
%TO.P,J4,3*%
%TO.N,Net-(J4-Pad3)*%
X166849000Y-99060000D03*
%TO.P,J4,2*%
%TO.N,Net-(J4-Pad2)*%
X166849000Y-96520000D03*
D11*
%TO.P,J4,1*%
%TO.N,Net-(J4-Pad1)*%
X166849000Y-93980000D03*
%TD*%
D14*
%TO.P,J3,10*%
%TO.N,/NC_V*%
X157554000Y-77216000D03*
%TO.P,J3,9*%
%TO.N,/NO_V*%
X156304000Y-77216000D03*
%TO.P,J3,8*%
%TO.N,/UNSET*%
X155054000Y-77216000D03*
%TO.P,J3,7*%
%TO.N,/SET*%
X153804000Y-77216000D03*
%TO.P,J3,6*%
%TO.N,/MAG_INT*%
X152554000Y-77216000D03*
%TO.P,J3,5*%
%TO.N,/SDA*%
X151304000Y-77216000D03*
%TO.P,J3,4*%
%TO.N,/SCL*%
X150054000Y-77216000D03*
%TO.P,J3,3*%
%TO.N,GND*%
X148804000Y-77216000D03*
%TO.P,J3,2*%
%TO.N,VPP*%
X147554000Y-77216000D03*
%TO.P,J3,1*%
%TO.N,VDDF*%
%TA.AperFunction,ComponentPad*%
G36*
G01*
X145904000Y-77666000D02*
X145904000Y-76766000D01*
G75*
G02*
X146104000Y-76566000I200000J0D01*
G01*
X146504000Y-76566000D01*
G75*
G02*
X146704000Y-76766000I0J-200000D01*
G01*
X146704000Y-77666000D01*
G75*
G02*
X146504000Y-77866000I-200000J0D01*
G01*
X146104000Y-77866000D01*
G75*
G02*
X145904000Y-77666000I0J200000D01*
G01*
G37*
%TD.AperFunction*%
%TD*%
D10*
%TO.P,J2,6*%
%TO.N,Net-(J2-Pad6)*%
X124587000Y-90170000D03*
%TO.P,J2,5*%
%TO.N,Net-(J2-Pad5)*%
X127127000Y-90170000D03*
%TO.P,J2,4*%
%TO.N,Net-(J2-Pad4)*%
X129667000Y-90170000D03*
%TO.P,J2,3*%
%TO.N,Net-(J2-Pad3)*%
X132207000Y-90170000D03*
%TO.P,J2,2*%
%TO.N,Net-(J2-Pad2)*%
X134747000Y-90170000D03*
D11*
%TO.P,J2,1*%
%TO.N,Net-(J2-Pad1)*%
X137287000Y-90170000D03*
%TD*%
D10*
%TO.P,J1,6*%
%TO.N,VDDF*%
X124587000Y-107950000D03*
%TO.P,J1,5*%
%TO.N,Net-(J1-Pad5)*%
X127127000Y-107950000D03*
%TO.P,J1,4*%
%TO.N,GND*%
X129667000Y-107950000D03*
%TO.P,J1,3*%
%TO.N,/SCL*%
X132207000Y-107950000D03*
%TO.P,J1,2*%
%TO.N,/SDA*%
X134747000Y-107950000D03*
D11*
%TO.P,J1,1*%
%TO.N,/MAG_INT*%
X137287000Y-107950000D03*
%TD*%
D15*
%TO.N,GND*%
X166849000Y-124460000D02*
X168021000Y-123288000D01*
X168021000Y-123288000D02*
X168021000Y-81915000D01*
X149758810Y-76261190D02*
X148804000Y-77216000D01*
X162367190Y-76261190D02*
X149758810Y-76261190D01*
X168021000Y-81915000D02*
X162367190Y-76261190D01*
%TO.N,VPP*%
X158984000Y-88646000D02*
X159211000Y-88646000D01*
X147554000Y-77216000D02*
X158984000Y-88646000D01*
%TO.N,/NO_V*%
X156304000Y-80739000D02*
X164211000Y-88646000D01*
X156304000Y-77216000D02*
X156304000Y-80739000D01*
%TD*%
M02*
