%TF.GenerationSoftware,KiCad,Pcbnew,(5.1.10)-1*%
%TF.CreationDate,2023-09-20T19:37:09-05:00*%
%TF.ProjectId,brs_flight_computer,6272735f-666c-4696-9768-745f636f6d70,A*%
%TF.SameCoordinates,Original*%
%TF.FileFunction,Profile,NP*%
%FSLAX46Y46*%
G04 Gerber Fmt 4.6, Leading zero omitted, Abs format (unit mm)*
G04 Created by KiCad (PCBNEW (5.1.10)-1) date 2023-09-20 19:37:09*
%MOMM*%
%LPD*%
G01*
G04 APERTURE LIST*
%TA.AperFunction,Profile*%
%ADD10C,0.200000*%
%TD*%
G04 APERTURE END LIST*
D10*
X177472383Y-88181318D02*
X180848000Y-88181318D01*
X177472383Y-88181318D02*
G75*
G02*
X175685200Y-86192673I212817J1988645D01*
G01*
X119253000Y-81724000D02*
X119253000Y-139597564D01*
X117253000Y-79724000D02*
G75*
G02*
X119253000Y-81724000I0J-2000000D01*
G01*
X119247729Y-144151600D02*
X119253000Y-139597564D01*
X117253000Y-79724000D02*
X111093000Y-79724000D01*
X109093000Y-77724000D02*
X109098271Y-73169964D01*
X111093000Y-79724000D02*
G75*
G02*
X109093000Y-77724000I0J2000000D01*
G01*
X178848000Y-146101342D02*
X121247729Y-146151600D01*
X124589000Y-142669963D02*
G75*
G03*
X124589000Y-142669963I-1375000J0D01*
G01*
X121247729Y-146151600D02*
G75*
G02*
X119247729Y-144151600I0J2000000D01*
G01*
X175685200Y-82232000D02*
G75*
G02*
X177685200Y-80232000I2000000J0D01*
G01*
X111098271Y-71169964D02*
X188214000Y-71169964D01*
X190214000Y-73169964D02*
X190214000Y-78232000D01*
X115747000Y-74920964D02*
G75*
G03*
X115747000Y-74920964I-1375000J0D01*
G01*
X187089000Y-74920886D02*
G75*
G03*
X187089000Y-74920886I-1375000J0D01*
G01*
X109098271Y-73169964D02*
G75*
G02*
X111098271Y-71169964I2000000J0D01*
G01*
X188214000Y-71169964D02*
G75*
G02*
X190214000Y-73169964I0J-2000000D01*
G01*
X178449700Y-142669963D02*
G75*
G03*
X178449700Y-142669963I-1375000J0D01*
G01*
X180848000Y-88181318D02*
X180848000Y-144101342D01*
X180848000Y-144101342D02*
G75*
G02*
X178848000Y-146101342I-2000000J0D01*
G01*
X188214000Y-80232000D02*
X177685200Y-80232000D01*
X175685200Y-82232000D02*
X175685200Y-86192673D01*
X190214000Y-78232000D02*
G75*
G02*
X188214000Y-80232000I-2000000J0D01*
G01*
M02*
