%TF.GenerationSoftware,KiCad,Pcbnew,(5.1.10)-1*%
%TF.CreationDate,2023-09-09T18:53:20-05:00*%
%TF.ProjectId,brs_flight_computer,6272735f-666c-4696-9768-745f636f6d70,A*%
%TF.SameCoordinates,Original*%
%TF.FileFunction,Copper,L1,Top*%
%TF.FilePolarity,Positive*%
%FSLAX46Y46*%
G04 Gerber Fmt 4.6, Leading zero omitted, Abs format (unit mm)*
G04 Created by KiCad (PCBNEW (5.1.10)-1) date 2023-09-09 18:53:20*
%MOMM*%
%LPD*%
G01*
G04 APERTURE LIST*
%TA.AperFunction,ComponentPad*%
%ADD10C,2.600000*%
%TD*%
%TA.AperFunction,ComponentPad*%
%ADD11R,2.600000X2.600000*%
%TD*%
%TA.AperFunction,ComponentPad*%
%ADD12O,1.600000X1.600000*%
%TD*%
%TA.AperFunction,ComponentPad*%
%ADD13C,1.600000*%
%TD*%
%TA.AperFunction,ComponentPad*%
%ADD14O,1.700000X1.700000*%
%TD*%
%TA.AperFunction,ComponentPad*%
%ADD15R,1.700000X1.700000*%
%TD*%
%TA.AperFunction,ComponentPad*%
%ADD16O,0.800000X1.300000*%
%TD*%
%TA.AperFunction,Conductor*%
%ADD17C,0.254000*%
%TD*%
%TA.AperFunction,Conductor*%
%ADD18C,0.304800*%
%TD*%
%TA.AperFunction,Conductor*%
%ADD19C,0.100000*%
%TD*%
G04 APERTURE END LIST*
D10*
%TO.P,J5,3*%
%TO.N,/NC_V*%
X154211000Y-88646000D03*
%TO.P,J5,2*%
%TO.N,VPP*%
X159211000Y-88646000D03*
D11*
%TO.P,J5,1*%
%TO.N,/NO_V*%
X164211000Y-88646000D03*
%TD*%
D12*
%TO.P,R2,2*%
%TO.N,GND*%
X176135000Y-118110000D03*
D13*
%TO.P,R2,1*%
%TO.N,/NO_V*%
X176135000Y-102870000D03*
%TD*%
D12*
%TO.P,R1,2*%
%TO.N,GND*%
X180185000Y-118110000D03*
D13*
%TO.P,R1,1*%
%TO.N,/NC_V*%
X180185000Y-102870000D03*
%TD*%
%TO.P,C2,2*%
%TO.N,GND*%
X172847000Y-107870000D03*
%TO.P,C2,1*%
%TO.N,/NO_V*%
X172847000Y-102870000D03*
%TD*%
%TO.P,C1,2*%
%TO.N,GND*%
X183515000Y-107870000D03*
%TO.P,C1,1*%
%TO.N,/NC_V*%
X183515000Y-102870000D03*
%TD*%
D14*
%TO.P,J8,6*%
%TO.N,Net-(J8-Pad6)*%
X124612400Y-114960400D03*
%TO.P,J8,5*%
%TO.N,Net-(J8-Pad5)*%
X127152400Y-114960400D03*
%TO.P,J8,4*%
%TO.N,Net-(J8-Pad4)*%
X129692400Y-114960400D03*
%TO.P,J8,3*%
%TO.N,Net-(J8-Pad3)*%
X132232400Y-114960400D03*
%TO.P,J8,2*%
%TO.N,Net-(J8-Pad2)*%
X134772400Y-114960400D03*
D15*
%TO.P,J8,1*%
%TO.N,Net-(J8-Pad1)*%
X137312400Y-114960400D03*
%TD*%
D14*
%TO.P,J7,6*%
%TO.N,VDDF*%
X124612400Y-127660400D03*
%TO.P,J7,5*%
%TO.N,Net-(J7-Pad5)*%
X127152400Y-127660400D03*
%TO.P,J7,4*%
%TO.N,GND*%
X129692400Y-127660400D03*
%TO.P,J7,3*%
%TO.N,/SCL*%
X132232400Y-127660400D03*
%TO.P,J7,2*%
%TO.N,/SDA*%
X134772400Y-127660400D03*
D15*
%TO.P,J7,1*%
%TO.N,Net-(J7-Pad1)*%
X137312400Y-127660400D03*
%TD*%
D14*
%TO.P,J6,12*%
%TO.N,Net-(J6-Pad12)*%
X151609000Y-121920000D03*
%TO.P,J6,11*%
%TO.N,Net-(J6-Pad11)*%
X151609000Y-119380000D03*
%TO.P,J6,10*%
%TO.N,Net-(J6-Pad10)*%
X151609000Y-116840000D03*
%TO.P,J6,9*%
%TO.N,Net-(J6-Pad9)*%
X151609000Y-114300000D03*
%TO.P,J6,8*%
%TO.N,Net-(J6-Pad8)*%
X151609000Y-111760000D03*
%TO.P,J6,7*%
%TO.N,Net-(J6-Pad7)*%
X151609000Y-109220000D03*
%TO.P,J6,6*%
%TO.N,Net-(J6-Pad6)*%
X151609000Y-106680000D03*
%TO.P,J6,5*%
%TO.N,Net-(J6-Pad5)*%
X151609000Y-104140000D03*
%TO.P,J6,4*%
%TO.N,Net-(J6-Pad4)*%
X151609000Y-101600000D03*
%TO.P,J6,3*%
%TO.N,Net-(J6-Pad3)*%
X151609000Y-99060000D03*
%TO.P,J6,2*%
%TO.N,Net-(J6-Pad2)*%
X151609000Y-96520000D03*
D15*
%TO.P,J6,1*%
%TO.N,Net-(J6-Pad1)*%
X151609000Y-93980000D03*
%TD*%
D14*
%TO.P,J4,16*%
%TO.N,Net-(J4-Pad16)*%
X166849000Y-132080000D03*
%TO.P,J4,15*%
%TO.N,VPP*%
X166849000Y-129540000D03*
%TO.P,J4,14*%
%TO.N,Net-(J4-Pad14)*%
X166849000Y-127000000D03*
%TO.P,J4,13*%
%TO.N,GND*%
X166849000Y-124460000D03*
%TO.P,J4,12*%
%TO.N,Net-(J4-Pad12)*%
X166849000Y-121920000D03*
%TO.P,J4,11*%
%TO.N,/SET*%
X166849000Y-119380000D03*
%TO.P,J4,10*%
%TO.N,/UNSET*%
X166849000Y-116840000D03*
%TO.P,J4,9*%
%TO.N,Net-(J4-Pad9)*%
X166849000Y-114300000D03*
%TO.P,J4,8*%
%TO.N,Net-(J4-Pad8)*%
X166849000Y-111760000D03*
%TO.P,J4,7*%
%TO.N,Net-(J4-Pad7)*%
X166849000Y-109220000D03*
%TO.P,J4,6*%
%TO.N,Net-(J4-Pad6)*%
X166849000Y-106680000D03*
%TO.P,J4,5*%
%TO.N,Net-(J4-Pad5)*%
X166849000Y-104140000D03*
%TO.P,J4,4*%
%TO.N,Net-(J4-Pad4)*%
X166849000Y-101600000D03*
%TO.P,J4,3*%
%TO.N,Net-(J4-Pad3)*%
X166849000Y-99060000D03*
%TO.P,J4,2*%
%TO.N,Net-(J4-Pad2)*%
X166849000Y-96520000D03*
D15*
%TO.P,J4,1*%
%TO.N,Net-(J4-Pad1)*%
X166849000Y-93980000D03*
%TD*%
D16*
%TO.P,J3,10*%
%TO.N,VDDF*%
X157554000Y-77216000D03*
%TO.P,J3,9*%
%TO.N,VPP*%
X156304000Y-77216000D03*
%TO.P,J3,8*%
%TO.N,GND*%
X155054000Y-77216000D03*
%TO.P,J3,7*%
%TO.N,/SCL*%
X153804000Y-77216000D03*
%TO.P,J3,6*%
%TO.N,/SDA*%
X152554000Y-77216000D03*
%TO.P,J3,5*%
%TO.N,/MAG_INT*%
X151304000Y-77216000D03*
%TO.P,J3,4*%
%TO.N,/SET*%
X150054000Y-77216000D03*
%TO.P,J3,3*%
%TO.N,/UNSET*%
X148804000Y-77216000D03*
%TO.P,J3,2*%
%TO.N,/NO_V*%
X147554000Y-77216000D03*
%TO.P,J3,1*%
%TO.N,/NC_V*%
%TA.AperFunction,ComponentPad*%
G36*
G01*
X145904000Y-77666000D02*
X145904000Y-76766000D01*
G75*
G02*
X146104000Y-76566000I200000J0D01*
G01*
X146504000Y-76566000D01*
G75*
G02*
X146704000Y-76766000I0J-200000D01*
G01*
X146704000Y-77666000D01*
G75*
G02*
X146504000Y-77866000I-200000J0D01*
G01*
X146104000Y-77866000D01*
G75*
G02*
X145904000Y-77666000I0J200000D01*
G01*
G37*
%TD.AperFunction*%
%TD*%
D14*
%TO.P,J2,6*%
%TO.N,Net-(J2-Pad6)*%
X124587000Y-95250000D03*
%TO.P,J2,5*%
%TO.N,Net-(J2-Pad5)*%
X127127000Y-95250000D03*
%TO.P,J2,4*%
%TO.N,Net-(J2-Pad4)*%
X129667000Y-95250000D03*
%TO.P,J2,3*%
%TO.N,Net-(J2-Pad3)*%
X132207000Y-95250000D03*
%TO.P,J2,2*%
%TO.N,Net-(J2-Pad2)*%
X134747000Y-95250000D03*
D15*
%TO.P,J2,1*%
%TO.N,Net-(J2-Pad1)*%
X137287000Y-95250000D03*
%TD*%
D14*
%TO.P,J1,6*%
%TO.N,VDDF*%
X124587000Y-107950000D03*
%TO.P,J1,5*%
%TO.N,Net-(J1-Pad5)*%
X127127000Y-107950000D03*
%TO.P,J1,4*%
%TO.N,GND*%
X129667000Y-107950000D03*
%TO.P,J1,3*%
%TO.N,/SCL*%
X132207000Y-107950000D03*
%TO.P,J1,2*%
%TO.N,/SDA*%
X134747000Y-107950000D03*
D15*
%TO.P,J1,1*%
%TO.N,/MAG_INT*%
X137287000Y-107950000D03*
%TD*%
D17*
%TO.N,GND*%
X128562999Y-126530999D02*
X129692400Y-127660400D01*
X128562999Y-109054001D02*
X128562999Y-126530999D01*
X129667000Y-107950000D02*
X128562999Y-109054001D01*
D18*
X172847000Y-114822000D02*
X176135000Y-118110000D01*
X172847000Y-107870000D02*
X172847000Y-114822000D01*
X183515000Y-114780000D02*
X180185000Y-118110000D01*
X183515000Y-107870000D02*
X183515000Y-114780000D01*
X155054000Y-77216000D02*
X155054000Y-81203500D01*
X155054000Y-81203500D02*
X158813500Y-84963000D01*
X158813500Y-84963000D02*
X170243500Y-84963000D01*
X170243500Y-84963000D02*
X178181000Y-92900500D01*
X178181000Y-118046500D02*
X178244500Y-118110000D01*
X178181000Y-92900500D02*
X178181000Y-118046500D01*
X178244500Y-118110000D02*
X180185000Y-118110000D01*
X176135000Y-118110000D02*
X178244500Y-118110000D01*
X129692400Y-127660400D02*
X129692400Y-130073400D01*
X129692400Y-130073400D02*
X131318000Y-131699000D01*
X159610000Y-131699000D02*
X166849000Y-124460000D01*
X131318000Y-131699000D02*
X159610000Y-131699000D01*
D17*
%TO.N,VDDF*%
X123482999Y-126530999D02*
X124612400Y-127660400D01*
X123482999Y-109054001D02*
X123482999Y-126530999D01*
X124587000Y-107950000D02*
X123482999Y-109054001D01*
D18*
X157554000Y-77216000D02*
X157554000Y-74623000D01*
X157554000Y-74623000D02*
X156337000Y-73406000D01*
X156337000Y-73406000D02*
X134048500Y-73406000D01*
X125741801Y-81712699D02*
X125741801Y-106795199D01*
X125741801Y-106795199D02*
X124587000Y-107950000D01*
X134048500Y-73406000D02*
X125741801Y-81712699D01*
%TO.N,VPP*%
X169672000Y-94554358D02*
X165368443Y-90250801D01*
X166849000Y-129540000D02*
X169672000Y-126717000D01*
X165368443Y-90250801D02*
X160815801Y-90250801D01*
X169672000Y-126717000D02*
X169672000Y-94554358D01*
X160815801Y-90250801D02*
X159211000Y-88646000D01*
D17*
%TO.N,/SCL*%
X130821801Y-126249801D02*
X132232400Y-127660400D01*
X130821801Y-109335199D02*
X130821801Y-126249801D01*
X132207000Y-107950000D02*
X130821801Y-109335199D01*
%TO.N,/SDA*%
X133361801Y-126249801D02*
X134772400Y-127660400D01*
X133361801Y-109335199D02*
X133361801Y-126249801D01*
X134747000Y-107950000D02*
X133361801Y-109335199D01*
D18*
%TO.N,/NC_V*%
X180185000Y-102870000D02*
X183515000Y-102870000D01*
X146304000Y-80739000D02*
X154211000Y-88646000D01*
X146304000Y-77216000D02*
X146304000Y-80739000D01*
%TO.N,/NO_V*%
X172847000Y-102870000D02*
X176135000Y-102870000D01*
X164211000Y-88646000D02*
X168783000Y-88646000D01*
X168783000Y-88646000D02*
X172847000Y-92710000D01*
X172847000Y-92710000D02*
X172847000Y-102870000D01*
%TO.N,/UNSET*%
X155815801Y-86231393D02*
X155815801Y-105806801D01*
X148804000Y-79219592D02*
X155815801Y-86231393D01*
X155815801Y-105806801D02*
X166849000Y-116840000D01*
X148804000Y-77216000D02*
X148804000Y-79219592D01*
%TO.N,/SET*%
X150054000Y-77216000D02*
X150054000Y-79823000D01*
X150054000Y-79823000D02*
X156273011Y-86042011D01*
X156273011Y-86042011D02*
X156273011Y-105617419D01*
X168003801Y-118225199D02*
X166849000Y-119380000D01*
X168003801Y-116285695D02*
X168003801Y-118225199D01*
X167403305Y-115685199D02*
X168003801Y-116285695D01*
X166340791Y-115685199D02*
X167403305Y-115685199D01*
X156273011Y-105617419D02*
X166340791Y-115685199D01*
%TD*%
D17*
%TO.N,GND*%
X188508592Y-71682156D02*
X188791971Y-71767713D01*
X189053325Y-71906678D01*
X189282715Y-72093764D01*
X189471396Y-72321841D01*
X189612183Y-72582222D01*
X189699715Y-72864990D01*
X189733000Y-73181675D01*
X189733001Y-78208468D01*
X189701808Y-78526592D01*
X189616253Y-78809967D01*
X189477287Y-79071324D01*
X189290202Y-79300713D01*
X189062124Y-79489396D01*
X188801744Y-79630183D01*
X188518974Y-79717715D01*
X188202288Y-79751000D01*
X177661574Y-79751000D01*
X177640091Y-79753116D01*
X177627642Y-79753029D01*
X177620958Y-79753684D01*
X177232765Y-79794485D01*
X177190065Y-79803251D01*
X177147238Y-79811420D01*
X177140808Y-79813361D01*
X176767934Y-79928785D01*
X176727733Y-79945684D01*
X176687324Y-79962010D01*
X176681394Y-79965163D01*
X176338039Y-80150814D01*
X176301902Y-80175189D01*
X176265417Y-80199064D01*
X176260212Y-80203309D01*
X175959457Y-80452116D01*
X175928738Y-80483050D01*
X175897592Y-80513551D01*
X175893311Y-80518726D01*
X175646610Y-80821211D01*
X175622479Y-80857531D01*
X175597855Y-80893493D01*
X175594660Y-80899401D01*
X175411411Y-81244043D01*
X175394819Y-81284299D01*
X175377623Y-81324420D01*
X175375637Y-81330835D01*
X175262819Y-81704507D01*
X175254354Y-81747261D01*
X175245288Y-81789914D01*
X175244586Y-81796593D01*
X175206496Y-82185062D01*
X175204200Y-82208375D01*
X175204201Y-86216299D01*
X175205330Y-86227757D01*
X175213932Y-86407118D01*
X175218528Y-86438447D01*
X175221119Y-86470010D01*
X175222365Y-86476610D01*
X175297457Y-86859650D01*
X175309971Y-86901383D01*
X175321915Y-86943338D01*
X175324420Y-86949570D01*
X175472480Y-87310729D01*
X175492864Y-87349241D01*
X175512729Y-87388073D01*
X175516395Y-87393699D01*
X175731786Y-87719222D01*
X175759269Y-87753049D01*
X175786290Y-87787274D01*
X175790980Y-87792082D01*
X176065497Y-88069570D01*
X176099000Y-88097392D01*
X176132181Y-88125740D01*
X176137716Y-88129545D01*
X176460901Y-88348427D01*
X176499240Y-88369250D01*
X176537227Y-88390575D01*
X176543390Y-88393230D01*
X176543394Y-88393232D01*
X176543398Y-88393233D01*
X176902941Y-88545171D01*
X176944553Y-88558138D01*
X176985997Y-88571691D01*
X176992564Y-88573100D01*
X177374774Y-88652310D01*
X177374776Y-88652310D01*
X177710806Y-88721950D01*
X177983463Y-88837171D01*
X178238731Y-89010055D01*
X178343430Y-89105663D01*
X189273263Y-100071642D01*
X189475738Y-100318971D01*
X189615187Y-100580076D01*
X189701264Y-100863291D01*
X189733000Y-101180947D01*
X189733001Y-144146431D01*
X189701808Y-144464555D01*
X189616253Y-144747930D01*
X189477287Y-145009287D01*
X189290202Y-145238676D01*
X189062124Y-145427359D01*
X188801744Y-145568146D01*
X188518974Y-145655678D01*
X188202314Y-145688960D01*
X121271321Y-145670607D01*
X120953137Y-145639408D01*
X120669762Y-145553853D01*
X120408405Y-145414887D01*
X120179016Y-145227802D01*
X119990333Y-144999724D01*
X119849546Y-144739344D01*
X119762014Y-144456574D01*
X119728742Y-144140015D01*
X119730656Y-142486083D01*
X121347033Y-142486083D01*
X121347033Y-142853843D01*
X121418780Y-143214537D01*
X121559516Y-143554303D01*
X121763832Y-143860085D01*
X122023878Y-144120131D01*
X122329660Y-144324447D01*
X122669426Y-144465183D01*
X123030120Y-144536930D01*
X123397880Y-144536930D01*
X123758574Y-144465183D01*
X124098340Y-144324447D01*
X124404122Y-144120131D01*
X124664168Y-143860085D01*
X124868484Y-143554303D01*
X125009220Y-143214537D01*
X125080967Y-142853843D01*
X125080967Y-142486083D01*
X175207733Y-142486083D01*
X175207733Y-142853843D01*
X175279480Y-143214537D01*
X175420216Y-143554303D01*
X175624532Y-143860085D01*
X175884578Y-144120131D01*
X176190360Y-144324447D01*
X176530126Y-144465183D01*
X176890820Y-144536930D01*
X177258580Y-144536930D01*
X177619274Y-144465183D01*
X177959040Y-144324447D01*
X178264822Y-144120131D01*
X178524868Y-143860085D01*
X178729184Y-143554303D01*
X178869920Y-143214537D01*
X178941667Y-142853843D01*
X178941667Y-142486083D01*
X178869920Y-142125389D01*
X178729184Y-141785623D01*
X178524868Y-141479841D01*
X178264822Y-141219795D01*
X177959040Y-141015479D01*
X177619274Y-140874743D01*
X177258580Y-140802996D01*
X176890820Y-140802996D01*
X176530126Y-140874743D01*
X176190360Y-141015479D01*
X175884578Y-141219795D01*
X175624532Y-141479841D01*
X175420216Y-141785623D01*
X175279480Y-142125389D01*
X175207733Y-142486083D01*
X125080967Y-142486083D01*
X125009220Y-142125389D01*
X124868484Y-141785623D01*
X124664168Y-141479841D01*
X124404122Y-141219795D01*
X124098340Y-141015479D01*
X123758574Y-140874743D01*
X123397880Y-140802996D01*
X123030120Y-140802996D01*
X122669426Y-140874743D01*
X122329660Y-141015479D01*
X122023878Y-141219795D01*
X121763832Y-141479841D01*
X121559516Y-141785623D01*
X121418780Y-142125389D01*
X121347033Y-142486083D01*
X119730656Y-142486083D01*
X119733973Y-139621468D01*
X119734000Y-139621190D01*
X119734000Y-139597821D01*
X119734027Y-139574495D01*
X119734000Y-139574218D01*
X119734000Y-131958757D01*
X165618000Y-131958757D01*
X165618000Y-132201243D01*
X165665307Y-132439069D01*
X165758102Y-132663097D01*
X165892820Y-132864717D01*
X166064283Y-133036180D01*
X166265903Y-133170898D01*
X166489931Y-133263693D01*
X166727757Y-133311000D01*
X166970243Y-133311000D01*
X167208069Y-133263693D01*
X167432097Y-133170898D01*
X167633717Y-133036180D01*
X167805180Y-132864717D01*
X167939898Y-132663097D01*
X168032693Y-132439069D01*
X168080000Y-132201243D01*
X168080000Y-131958757D01*
X168032693Y-131720931D01*
X167939898Y-131496903D01*
X167805180Y-131295283D01*
X167633717Y-131123820D01*
X167432097Y-130989102D01*
X167208069Y-130896307D01*
X166970243Y-130849000D01*
X166727757Y-130849000D01*
X166489931Y-130896307D01*
X166265903Y-130989102D01*
X166064283Y-131123820D01*
X165892820Y-131295283D01*
X165758102Y-131496903D01*
X165665307Y-131720931D01*
X165618000Y-131958757D01*
X119734000Y-131958757D01*
X119734000Y-109054001D01*
X122972542Y-109054001D01*
X122974999Y-109078945D01*
X122975000Y-126506045D01*
X122972542Y-126530999D01*
X122982351Y-126630583D01*
X123011399Y-126726342D01*
X123058570Y-126814594D01*
X123106149Y-126872569D01*
X123122052Y-126891947D01*
X123141429Y-126907849D01*
X123459813Y-127226234D01*
X123428707Y-127301331D01*
X123381400Y-127539157D01*
X123381400Y-127781643D01*
X123428707Y-128019469D01*
X123521502Y-128243497D01*
X123656220Y-128445117D01*
X123827683Y-128616580D01*
X124029303Y-128751298D01*
X124253331Y-128844093D01*
X124491157Y-128891400D01*
X124733643Y-128891400D01*
X124971469Y-128844093D01*
X125195497Y-128751298D01*
X125397117Y-128616580D01*
X125568580Y-128445117D01*
X125703298Y-128243497D01*
X125796093Y-128019469D01*
X125843400Y-127781643D01*
X125843400Y-127539157D01*
X125921400Y-127539157D01*
X125921400Y-127781643D01*
X125968707Y-128019469D01*
X126061502Y-128243497D01*
X126196220Y-128445117D01*
X126367683Y-128616580D01*
X126569303Y-128751298D01*
X126793331Y-128844093D01*
X127031157Y-128891400D01*
X127273643Y-128891400D01*
X127511469Y-128844093D01*
X127735497Y-128751298D01*
X127937117Y-128616580D01*
X128108580Y-128445117D01*
X128243298Y-128243497D01*
X128290628Y-128129232D01*
X128348243Y-128291652D01*
X128497222Y-128541755D01*
X128692131Y-128757988D01*
X128925480Y-128932041D01*
X129188301Y-129057225D01*
X129335510Y-129101876D01*
X129565400Y-128980555D01*
X129565400Y-127787400D01*
X129545400Y-127787400D01*
X129545400Y-127533400D01*
X129565400Y-127533400D01*
X129565400Y-126340245D01*
X129335510Y-126218924D01*
X129188301Y-126263575D01*
X128925480Y-126388759D01*
X128692131Y-126562812D01*
X128497222Y-126779045D01*
X128348243Y-127029148D01*
X128290628Y-127191568D01*
X128243298Y-127077303D01*
X128108580Y-126875683D01*
X127937117Y-126704220D01*
X127735497Y-126569502D01*
X127511469Y-126476707D01*
X127273643Y-126429400D01*
X127031157Y-126429400D01*
X126793331Y-126476707D01*
X126569303Y-126569502D01*
X126367683Y-126704220D01*
X126196220Y-126875683D01*
X126061502Y-127077303D01*
X125968707Y-127301331D01*
X125921400Y-127539157D01*
X125843400Y-127539157D01*
X125796093Y-127301331D01*
X125703298Y-127077303D01*
X125568580Y-126875683D01*
X125397117Y-126704220D01*
X125195497Y-126569502D01*
X124971469Y-126476707D01*
X124733643Y-126429400D01*
X124491157Y-126429400D01*
X124253331Y-126476707D01*
X124178234Y-126507813D01*
X123990999Y-126320579D01*
X123990999Y-116025704D01*
X124029303Y-116051298D01*
X124253331Y-116144093D01*
X124491157Y-116191400D01*
X124733643Y-116191400D01*
X124971469Y-116144093D01*
X125195497Y-116051298D01*
X125397117Y-115916580D01*
X125568580Y-115745117D01*
X125703298Y-115543497D01*
X125796093Y-115319469D01*
X125843400Y-115081643D01*
X125843400Y-114839157D01*
X125921400Y-114839157D01*
X125921400Y-115081643D01*
X125968707Y-115319469D01*
X126061502Y-115543497D01*
X126196220Y-115745117D01*
X126367683Y-115916580D01*
X126569303Y-116051298D01*
X126793331Y-116144093D01*
X127031157Y-116191400D01*
X127273643Y-116191400D01*
X127511469Y-116144093D01*
X127735497Y-116051298D01*
X127937117Y-115916580D01*
X128108580Y-115745117D01*
X128243298Y-115543497D01*
X128336093Y-115319469D01*
X128383400Y-115081643D01*
X128383400Y-114839157D01*
X128461400Y-114839157D01*
X128461400Y-115081643D01*
X128508707Y-115319469D01*
X128601502Y-115543497D01*
X128736220Y-115745117D01*
X128907683Y-115916580D01*
X129109303Y-116051298D01*
X129333331Y-116144093D01*
X129571157Y-116191400D01*
X129813643Y-116191400D01*
X130051469Y-116144093D01*
X130275497Y-116051298D01*
X130313801Y-116025704D01*
X130313802Y-126224847D01*
X130311344Y-126249801D01*
X130318421Y-126321647D01*
X130196499Y-126263575D01*
X130049290Y-126218924D01*
X129819400Y-126340245D01*
X129819400Y-127533400D01*
X129839400Y-127533400D01*
X129839400Y-127787400D01*
X129819400Y-127787400D01*
X129819400Y-128980555D01*
X130049290Y-129101876D01*
X130196499Y-129057225D01*
X130459320Y-128932041D01*
X130692669Y-128757988D01*
X130887578Y-128541755D01*
X131036557Y-128291652D01*
X131094172Y-128129232D01*
X131141502Y-128243497D01*
X131276220Y-128445117D01*
X131447683Y-128616580D01*
X131649303Y-128751298D01*
X131873331Y-128844093D01*
X132111157Y-128891400D01*
X132353643Y-128891400D01*
X132591469Y-128844093D01*
X132815497Y-128751298D01*
X133017117Y-128616580D01*
X133188580Y-128445117D01*
X133323298Y-128243497D01*
X133416093Y-128019469D01*
X133463400Y-127781643D01*
X133463400Y-127539157D01*
X133416093Y-127301331D01*
X133323298Y-127077303D01*
X133188580Y-126875683D01*
X133017117Y-126704220D01*
X132815497Y-126569502D01*
X132591469Y-126476707D01*
X132353643Y-126429400D01*
X132111157Y-126429400D01*
X131873331Y-126476707D01*
X131798234Y-126507813D01*
X131329801Y-126039381D01*
X131329801Y-115798698D01*
X131447683Y-115916580D01*
X131649303Y-116051298D01*
X131873331Y-116144093D01*
X132111157Y-116191400D01*
X132353643Y-116191400D01*
X132591469Y-116144093D01*
X132815497Y-116051298D01*
X132853801Y-116025704D01*
X132853802Y-126224847D01*
X132851344Y-126249801D01*
X132861153Y-126349385D01*
X132890201Y-126445144D01*
X132937372Y-126533396D01*
X132967004Y-126569502D01*
X133000854Y-126610749D01*
X133020231Y-126626651D01*
X133619813Y-127226234D01*
X133588707Y-127301331D01*
X133541400Y-127539157D01*
X133541400Y-127781643D01*
X133588707Y-128019469D01*
X133681502Y-128243497D01*
X133816220Y-128445117D01*
X133987683Y-128616580D01*
X134189303Y-128751298D01*
X134413331Y-128844093D01*
X134651157Y-128891400D01*
X134893643Y-128891400D01*
X135131469Y-128844093D01*
X135355497Y-128751298D01*
X135557117Y-128616580D01*
X135728580Y-128445117D01*
X135863298Y-128243497D01*
X135956093Y-128019469D01*
X136003400Y-127781643D01*
X136003400Y-127539157D01*
X135956093Y-127301331D01*
X135863298Y-127077303D01*
X135728580Y-126875683D01*
X135663297Y-126810400D01*
X136079557Y-126810400D01*
X136079557Y-128510400D01*
X136086913Y-128585089D01*
X136108699Y-128656908D01*
X136144078Y-128723096D01*
X136191689Y-128781111D01*
X136249704Y-128828722D01*
X136315892Y-128864101D01*
X136387711Y-128885887D01*
X136462400Y-128893243D01*
X138162400Y-128893243D01*
X138237089Y-128885887D01*
X138308908Y-128864101D01*
X138375096Y-128828722D01*
X138433111Y-128781111D01*
X138480722Y-128723096D01*
X138516101Y-128656908D01*
X138537887Y-128585089D01*
X138545243Y-128510400D01*
X138545243Y-126810400D01*
X138537887Y-126735711D01*
X138516101Y-126663892D01*
X138480722Y-126597704D01*
X138433111Y-126539689D01*
X138375096Y-126492078D01*
X138308908Y-126456699D01*
X138237089Y-126434913D01*
X138162400Y-126427557D01*
X136462400Y-126427557D01*
X136387711Y-126434913D01*
X136315892Y-126456699D01*
X136249704Y-126492078D01*
X136191689Y-126539689D01*
X136144078Y-126597704D01*
X136108699Y-126663892D01*
X136086913Y-126735711D01*
X136079557Y-126810400D01*
X135663297Y-126810400D01*
X135557117Y-126704220D01*
X135355497Y-126569502D01*
X135131469Y-126476707D01*
X134893643Y-126429400D01*
X134651157Y-126429400D01*
X134413331Y-126476707D01*
X134338234Y-126507813D01*
X133869801Y-126039381D01*
X133869801Y-124816890D01*
X165407524Y-124816890D01*
X165452175Y-124964099D01*
X165577359Y-125226920D01*
X165751412Y-125460269D01*
X165967645Y-125655178D01*
X166217748Y-125804157D01*
X166380168Y-125861772D01*
X166265903Y-125909102D01*
X166064283Y-126043820D01*
X165892820Y-126215283D01*
X165758102Y-126416903D01*
X165665307Y-126640931D01*
X165618000Y-126878757D01*
X165618000Y-127121243D01*
X165665307Y-127359069D01*
X165758102Y-127583097D01*
X165892820Y-127784717D01*
X166064283Y-127956180D01*
X166265903Y-128090898D01*
X166489931Y-128183693D01*
X166727757Y-128231000D01*
X166970243Y-128231000D01*
X167208069Y-128183693D01*
X167432097Y-128090898D01*
X167633717Y-127956180D01*
X167805180Y-127784717D01*
X167939898Y-127583097D01*
X168032693Y-127359069D01*
X168080000Y-127121243D01*
X168080000Y-126878757D01*
X168032693Y-126640931D01*
X167939898Y-126416903D01*
X167805180Y-126215283D01*
X167633717Y-126043820D01*
X167432097Y-125909102D01*
X167317832Y-125861772D01*
X167480252Y-125804157D01*
X167730355Y-125655178D01*
X167946588Y-125460269D01*
X168120641Y-125226920D01*
X168245825Y-124964099D01*
X168290476Y-124816890D01*
X168169155Y-124587000D01*
X166976000Y-124587000D01*
X166976000Y-124607000D01*
X166722000Y-124607000D01*
X166722000Y-124587000D01*
X165528845Y-124587000D01*
X165407524Y-124816890D01*
X133869801Y-124816890D01*
X133869801Y-124103110D01*
X165407524Y-124103110D01*
X165528845Y-124333000D01*
X166722000Y-124333000D01*
X166722000Y-124313000D01*
X166976000Y-124313000D01*
X166976000Y-124333000D01*
X168169155Y-124333000D01*
X168290476Y-124103110D01*
X168245825Y-123955901D01*
X168120641Y-123693080D01*
X167946588Y-123459731D01*
X167730355Y-123264822D01*
X167480252Y-123115843D01*
X167317832Y-123058228D01*
X167432097Y-123010898D01*
X167633717Y-122876180D01*
X167805180Y-122704717D01*
X167939898Y-122503097D01*
X168032693Y-122279069D01*
X168080000Y-122041243D01*
X168080000Y-121798757D01*
X168032693Y-121560931D01*
X167939898Y-121336903D01*
X167805180Y-121135283D01*
X167633717Y-120963820D01*
X167432097Y-120829102D01*
X167208069Y-120736307D01*
X166970243Y-120689000D01*
X166727757Y-120689000D01*
X166489931Y-120736307D01*
X166265903Y-120829102D01*
X166064283Y-120963820D01*
X165892820Y-121135283D01*
X165758102Y-121336903D01*
X165665307Y-121560931D01*
X165618000Y-121798757D01*
X165618000Y-122041243D01*
X165665307Y-122279069D01*
X165758102Y-122503097D01*
X165892820Y-122704717D01*
X166064283Y-122876180D01*
X166265903Y-123010898D01*
X166380168Y-123058228D01*
X166217748Y-123115843D01*
X165967645Y-123264822D01*
X165751412Y-123459731D01*
X165577359Y-123693080D01*
X165452175Y-123955901D01*
X165407524Y-124103110D01*
X133869801Y-124103110D01*
X133869801Y-121798757D01*
X150378000Y-121798757D01*
X150378000Y-122041243D01*
X150425307Y-122279069D01*
X150518102Y-122503097D01*
X150652820Y-122704717D01*
X150824283Y-122876180D01*
X151025903Y-123010898D01*
X151249931Y-123103693D01*
X151487757Y-123151000D01*
X151730243Y-123151000D01*
X151968069Y-123103693D01*
X152192097Y-123010898D01*
X152393717Y-122876180D01*
X152565180Y-122704717D01*
X152699898Y-122503097D01*
X152792693Y-122279069D01*
X152840000Y-122041243D01*
X152840000Y-121798757D01*
X152792693Y-121560931D01*
X152699898Y-121336903D01*
X152565180Y-121135283D01*
X152393717Y-120963820D01*
X152192097Y-120829102D01*
X151968069Y-120736307D01*
X151730243Y-120689000D01*
X151487757Y-120689000D01*
X151249931Y-120736307D01*
X151025903Y-120829102D01*
X150824283Y-120963820D01*
X150652820Y-121135283D01*
X150518102Y-121336903D01*
X150425307Y-121560931D01*
X150378000Y-121798757D01*
X133869801Y-121798757D01*
X133869801Y-119258757D01*
X150378000Y-119258757D01*
X150378000Y-119501243D01*
X150425307Y-119739069D01*
X150518102Y-119963097D01*
X150652820Y-120164717D01*
X150824283Y-120336180D01*
X151025903Y-120470898D01*
X151249931Y-120563693D01*
X151487757Y-120611000D01*
X151730243Y-120611000D01*
X151968069Y-120563693D01*
X152192097Y-120470898D01*
X152393717Y-120336180D01*
X152565180Y-120164717D01*
X152699898Y-119963097D01*
X152792693Y-119739069D01*
X152840000Y-119501243D01*
X152840000Y-119258757D01*
X152792693Y-119020931D01*
X152699898Y-118796903D01*
X152565180Y-118595283D01*
X152393717Y-118423820D01*
X152192097Y-118289102D01*
X151968069Y-118196307D01*
X151730243Y-118149000D01*
X151487757Y-118149000D01*
X151249931Y-118196307D01*
X151025903Y-118289102D01*
X150824283Y-118423820D01*
X150652820Y-118595283D01*
X150518102Y-118796903D01*
X150425307Y-119020931D01*
X150378000Y-119258757D01*
X133869801Y-119258757D01*
X133869801Y-116718757D01*
X150378000Y-116718757D01*
X150378000Y-116961243D01*
X150425307Y-117199069D01*
X150518102Y-117423097D01*
X150652820Y-117624717D01*
X150824283Y-117796180D01*
X151025903Y-117930898D01*
X151249931Y-118023693D01*
X151487757Y-118071000D01*
X151730243Y-118071000D01*
X151968069Y-118023693D01*
X152192097Y-117930898D01*
X152393717Y-117796180D01*
X152565180Y-117624717D01*
X152699898Y-117423097D01*
X152792693Y-117199069D01*
X152840000Y-116961243D01*
X152840000Y-116718757D01*
X152792693Y-116480931D01*
X152699898Y-116256903D01*
X152565180Y-116055283D01*
X152393717Y-115883820D01*
X152192097Y-115749102D01*
X151968069Y-115656307D01*
X151730243Y-115609000D01*
X151487757Y-115609000D01*
X151249931Y-115656307D01*
X151025903Y-115749102D01*
X150824283Y-115883820D01*
X150652820Y-116055283D01*
X150518102Y-116256903D01*
X150425307Y-116480931D01*
X150378000Y-116718757D01*
X133869801Y-116718757D01*
X133869801Y-115798698D01*
X133987683Y-115916580D01*
X134189303Y-116051298D01*
X134413331Y-116144093D01*
X134651157Y-116191400D01*
X134893643Y-116191400D01*
X135131469Y-116144093D01*
X135355497Y-116051298D01*
X135557117Y-115916580D01*
X135728580Y-115745117D01*
X135863298Y-115543497D01*
X135956093Y-115319469D01*
X136003400Y-115081643D01*
X136003400Y-114839157D01*
X135956093Y-114601331D01*
X135863298Y-114377303D01*
X135728580Y-114175683D01*
X135663297Y-114110400D01*
X136079557Y-114110400D01*
X136079557Y-115810400D01*
X136086913Y-115885089D01*
X136108699Y-115956908D01*
X136144078Y-116023096D01*
X136191689Y-116081111D01*
X136249704Y-116128722D01*
X136315892Y-116164101D01*
X136387711Y-116185887D01*
X136462400Y-116193243D01*
X138162400Y-116193243D01*
X138237089Y-116185887D01*
X138308908Y-116164101D01*
X138375096Y-116128722D01*
X138433111Y-116081111D01*
X138480722Y-116023096D01*
X138516101Y-115956908D01*
X138537887Y-115885089D01*
X138545243Y-115810400D01*
X138545243Y-114178757D01*
X150378000Y-114178757D01*
X150378000Y-114421243D01*
X150425307Y-114659069D01*
X150518102Y-114883097D01*
X150652820Y-115084717D01*
X150824283Y-115256180D01*
X151025903Y-115390898D01*
X151249931Y-115483693D01*
X151487757Y-115531000D01*
X151730243Y-115531000D01*
X151968069Y-115483693D01*
X152192097Y-115390898D01*
X152393717Y-115256180D01*
X152565180Y-115084717D01*
X152699898Y-114883097D01*
X152792693Y-114659069D01*
X152840000Y-114421243D01*
X152840000Y-114178757D01*
X152792693Y-113940931D01*
X152699898Y-113716903D01*
X152565180Y-113515283D01*
X152393717Y-113343820D01*
X152192097Y-113209102D01*
X151968069Y-113116307D01*
X151730243Y-113069000D01*
X151487757Y-113069000D01*
X151249931Y-113116307D01*
X151025903Y-113209102D01*
X150824283Y-113343820D01*
X150652820Y-113515283D01*
X150518102Y-113716903D01*
X150425307Y-113940931D01*
X150378000Y-114178757D01*
X138545243Y-114178757D01*
X138545243Y-114110400D01*
X138537887Y-114035711D01*
X138516101Y-113963892D01*
X138480722Y-113897704D01*
X138433111Y-113839689D01*
X138375096Y-113792078D01*
X138308908Y-113756699D01*
X138237089Y-113734913D01*
X138162400Y-113727557D01*
X136462400Y-113727557D01*
X136387711Y-113734913D01*
X136315892Y-113756699D01*
X136249704Y-113792078D01*
X136191689Y-113839689D01*
X136144078Y-113897704D01*
X136108699Y-113963892D01*
X136086913Y-114035711D01*
X136079557Y-114110400D01*
X135663297Y-114110400D01*
X135557117Y-114004220D01*
X135355497Y-113869502D01*
X135131469Y-113776707D01*
X134893643Y-113729400D01*
X134651157Y-113729400D01*
X134413331Y-113776707D01*
X134189303Y-113869502D01*
X133987683Y-114004220D01*
X133869801Y-114122102D01*
X133869801Y-111638757D01*
X150378000Y-111638757D01*
X150378000Y-111881243D01*
X150425307Y-112119069D01*
X150518102Y-112343097D01*
X150652820Y-112544717D01*
X150824283Y-112716180D01*
X151025903Y-112850898D01*
X151249931Y-112943693D01*
X151487757Y-112991000D01*
X151730243Y-112991000D01*
X151968069Y-112943693D01*
X152192097Y-112850898D01*
X152393717Y-112716180D01*
X152565180Y-112544717D01*
X152699898Y-112343097D01*
X152792693Y-112119069D01*
X152840000Y-111881243D01*
X152840000Y-111638757D01*
X152792693Y-111400931D01*
X152699898Y-111176903D01*
X152565180Y-110975283D01*
X152393717Y-110803820D01*
X152192097Y-110669102D01*
X151968069Y-110576307D01*
X151730243Y-110529000D01*
X151487757Y-110529000D01*
X151249931Y-110576307D01*
X151025903Y-110669102D01*
X150824283Y-110803820D01*
X150652820Y-110975283D01*
X150518102Y-111176903D01*
X150425307Y-111400931D01*
X150378000Y-111638757D01*
X133869801Y-111638757D01*
X133869801Y-109545619D01*
X134312834Y-109102587D01*
X134387931Y-109133693D01*
X134625757Y-109181000D01*
X134868243Y-109181000D01*
X135106069Y-109133693D01*
X135330097Y-109040898D01*
X135531717Y-108906180D01*
X135703180Y-108734717D01*
X135837898Y-108533097D01*
X135930693Y-108309069D01*
X135978000Y-108071243D01*
X135978000Y-107828757D01*
X135930693Y-107590931D01*
X135837898Y-107366903D01*
X135703180Y-107165283D01*
X135637897Y-107100000D01*
X136054157Y-107100000D01*
X136054157Y-108800000D01*
X136061513Y-108874689D01*
X136083299Y-108946508D01*
X136118678Y-109012696D01*
X136166289Y-109070711D01*
X136224304Y-109118322D01*
X136290492Y-109153701D01*
X136362311Y-109175487D01*
X136437000Y-109182843D01*
X138137000Y-109182843D01*
X138211689Y-109175487D01*
X138283508Y-109153701D01*
X138349696Y-109118322D01*
X138373536Y-109098757D01*
X150378000Y-109098757D01*
X150378000Y-109341243D01*
X150425307Y-109579069D01*
X150518102Y-109803097D01*
X150652820Y-110004717D01*
X150824283Y-110176180D01*
X151025903Y-110310898D01*
X151249931Y-110403693D01*
X151487757Y-110451000D01*
X151730243Y-110451000D01*
X151968069Y-110403693D01*
X152192097Y-110310898D01*
X152393717Y-110176180D01*
X152565180Y-110004717D01*
X152699898Y-109803097D01*
X152792693Y-109579069D01*
X152840000Y-109341243D01*
X152840000Y-109098757D01*
X152792693Y-108860931D01*
X152699898Y-108636903D01*
X152565180Y-108435283D01*
X152393717Y-108263820D01*
X152192097Y-108129102D01*
X151968069Y-108036307D01*
X151730243Y-107989000D01*
X151487757Y-107989000D01*
X151249931Y-108036307D01*
X151025903Y-108129102D01*
X150824283Y-108263820D01*
X150652820Y-108435283D01*
X150518102Y-108636903D01*
X150425307Y-108860931D01*
X150378000Y-109098757D01*
X138373536Y-109098757D01*
X138407711Y-109070711D01*
X138455322Y-109012696D01*
X138490701Y-108946508D01*
X138512487Y-108874689D01*
X138519843Y-108800000D01*
X138519843Y-107100000D01*
X138512487Y-107025311D01*
X138490701Y-106953492D01*
X138455322Y-106887304D01*
X138407711Y-106829289D01*
X138349696Y-106781678D01*
X138283508Y-106746299D01*
X138211689Y-106724513D01*
X138137000Y-106717157D01*
X136437000Y-106717157D01*
X136362311Y-106724513D01*
X136290492Y-106746299D01*
X136224304Y-106781678D01*
X136166289Y-106829289D01*
X136118678Y-106887304D01*
X136083299Y-106953492D01*
X136061513Y-107025311D01*
X136054157Y-107100000D01*
X135637897Y-107100000D01*
X135531717Y-106993820D01*
X135330097Y-106859102D01*
X135106069Y-106766307D01*
X134868243Y-106719000D01*
X134625757Y-106719000D01*
X134387931Y-106766307D01*
X134163903Y-106859102D01*
X133962283Y-106993820D01*
X133790820Y-107165283D01*
X133656102Y-107366903D01*
X133563307Y-107590931D01*
X133516000Y-107828757D01*
X133516000Y-108071243D01*
X133563307Y-108309069D01*
X133594413Y-108384166D01*
X133020236Y-108958344D01*
X133000853Y-108974251D01*
X132937372Y-109051604D01*
X132890200Y-109139857D01*
X132861152Y-109235615D01*
X132853805Y-109310217D01*
X132851344Y-109335199D01*
X132853801Y-109360143D01*
X132853801Y-113895096D01*
X132815497Y-113869502D01*
X132591469Y-113776707D01*
X132353643Y-113729400D01*
X132111157Y-113729400D01*
X131873331Y-113776707D01*
X131649303Y-113869502D01*
X131447683Y-114004220D01*
X131329801Y-114122102D01*
X131329801Y-109545619D01*
X131772834Y-109102587D01*
X131847931Y-109133693D01*
X132085757Y-109181000D01*
X132328243Y-109181000D01*
X132566069Y-109133693D01*
X132790097Y-109040898D01*
X132991717Y-108906180D01*
X133163180Y-108734717D01*
X133297898Y-108533097D01*
X133390693Y-108309069D01*
X133438000Y-108071243D01*
X133438000Y-107828757D01*
X133390693Y-107590931D01*
X133297898Y-107366903D01*
X133163180Y-107165283D01*
X132991717Y-106993820D01*
X132790097Y-106859102D01*
X132566069Y-106766307D01*
X132328243Y-106719000D01*
X132085757Y-106719000D01*
X131847931Y-106766307D01*
X131623903Y-106859102D01*
X131422283Y-106993820D01*
X131250820Y-107165283D01*
X131116102Y-107366903D01*
X131068772Y-107481168D01*
X131011157Y-107318748D01*
X130862178Y-107068645D01*
X130667269Y-106852412D01*
X130433920Y-106678359D01*
X130182819Y-106558757D01*
X150378000Y-106558757D01*
X150378000Y-106801243D01*
X150425307Y-107039069D01*
X150518102Y-107263097D01*
X150652820Y-107464717D01*
X150824283Y-107636180D01*
X151025903Y-107770898D01*
X151249931Y-107863693D01*
X151487757Y-107911000D01*
X151730243Y-107911000D01*
X151968069Y-107863693D01*
X152192097Y-107770898D01*
X152393717Y-107636180D01*
X152565180Y-107464717D01*
X152699898Y-107263097D01*
X152792693Y-107039069D01*
X152840000Y-106801243D01*
X152840000Y-106558757D01*
X152792693Y-106320931D01*
X152699898Y-106096903D01*
X152565180Y-105895283D01*
X152393717Y-105723820D01*
X152192097Y-105589102D01*
X151968069Y-105496307D01*
X151730243Y-105449000D01*
X151487757Y-105449000D01*
X151249931Y-105496307D01*
X151025903Y-105589102D01*
X150824283Y-105723820D01*
X150652820Y-105895283D01*
X150518102Y-106096903D01*
X150425307Y-106320931D01*
X150378000Y-106558757D01*
X130182819Y-106558757D01*
X130171099Y-106553175D01*
X130023890Y-106508524D01*
X129794000Y-106629845D01*
X129794000Y-107823000D01*
X129814000Y-107823000D01*
X129814000Y-108077000D01*
X129794000Y-108077000D01*
X129794000Y-109270155D01*
X130023890Y-109391476D01*
X130171099Y-109346825D01*
X130317046Y-109277309D01*
X130313805Y-109310217D01*
X130311344Y-109335199D01*
X130313801Y-109360143D01*
X130313801Y-113895096D01*
X130275497Y-113869502D01*
X130051469Y-113776707D01*
X129813643Y-113729400D01*
X129571157Y-113729400D01*
X129333331Y-113776707D01*
X129109303Y-113869502D01*
X128907683Y-114004220D01*
X128736220Y-114175683D01*
X128601502Y-114377303D01*
X128508707Y-114601331D01*
X128461400Y-114839157D01*
X128383400Y-114839157D01*
X128336093Y-114601331D01*
X128243298Y-114377303D01*
X128108580Y-114175683D01*
X127937117Y-114004220D01*
X127735497Y-113869502D01*
X127511469Y-113776707D01*
X127273643Y-113729400D01*
X127031157Y-113729400D01*
X126793331Y-113776707D01*
X126569303Y-113869502D01*
X126367683Y-114004220D01*
X126196220Y-114175683D01*
X126061502Y-114377303D01*
X125968707Y-114601331D01*
X125921400Y-114839157D01*
X125843400Y-114839157D01*
X125796093Y-114601331D01*
X125703298Y-114377303D01*
X125568580Y-114175683D01*
X125397117Y-114004220D01*
X125195497Y-113869502D01*
X124971469Y-113776707D01*
X124733643Y-113729400D01*
X124491157Y-113729400D01*
X124253331Y-113776707D01*
X124029303Y-113869502D01*
X123990999Y-113895096D01*
X123990999Y-109264421D01*
X124152834Y-109102587D01*
X124227931Y-109133693D01*
X124465757Y-109181000D01*
X124708243Y-109181000D01*
X124946069Y-109133693D01*
X125170097Y-109040898D01*
X125371717Y-108906180D01*
X125543180Y-108734717D01*
X125677898Y-108533097D01*
X125770693Y-108309069D01*
X125818000Y-108071243D01*
X125818000Y-107828757D01*
X125896000Y-107828757D01*
X125896000Y-108071243D01*
X125943307Y-108309069D01*
X126036102Y-108533097D01*
X126170820Y-108734717D01*
X126342283Y-108906180D01*
X126543903Y-109040898D01*
X126767931Y-109133693D01*
X127005757Y-109181000D01*
X127248243Y-109181000D01*
X127486069Y-109133693D01*
X127710097Y-109040898D01*
X127911717Y-108906180D01*
X128083180Y-108734717D01*
X128217898Y-108533097D01*
X128265228Y-108418832D01*
X128322843Y-108581252D01*
X128471822Y-108831355D01*
X128666731Y-109047588D01*
X128900080Y-109221641D01*
X129162901Y-109346825D01*
X129310110Y-109391476D01*
X129540000Y-109270155D01*
X129540000Y-108077000D01*
X129520000Y-108077000D01*
X129520000Y-107823000D01*
X129540000Y-107823000D01*
X129540000Y-106629845D01*
X129310110Y-106508524D01*
X129162901Y-106553175D01*
X128900080Y-106678359D01*
X128666731Y-106852412D01*
X128471822Y-107068645D01*
X128322843Y-107318748D01*
X128265228Y-107481168D01*
X128217898Y-107366903D01*
X128083180Y-107165283D01*
X127911717Y-106993820D01*
X127710097Y-106859102D01*
X127486069Y-106766307D01*
X127248243Y-106719000D01*
X127005757Y-106719000D01*
X126767931Y-106766307D01*
X126543903Y-106859102D01*
X126342283Y-106993820D01*
X126170820Y-107165283D01*
X126036102Y-107366903D01*
X125943307Y-107590931D01*
X125896000Y-107828757D01*
X125818000Y-107828757D01*
X125770693Y-107590931D01*
X125750108Y-107541234D01*
X126100452Y-107190890D01*
X126120796Y-107174194D01*
X126187452Y-107092974D01*
X126236982Y-107000310D01*
X126267482Y-106899764D01*
X126275201Y-106821394D01*
X126275201Y-106821387D01*
X126277780Y-106795200D01*
X126275201Y-106769013D01*
X126275201Y-104018757D01*
X150378000Y-104018757D01*
X150378000Y-104261243D01*
X150425307Y-104499069D01*
X150518102Y-104723097D01*
X150652820Y-104924717D01*
X150824283Y-105096180D01*
X151025903Y-105230898D01*
X151249931Y-105323693D01*
X151487757Y-105371000D01*
X151730243Y-105371000D01*
X151968069Y-105323693D01*
X152192097Y-105230898D01*
X152393717Y-105096180D01*
X152565180Y-104924717D01*
X152699898Y-104723097D01*
X152792693Y-104499069D01*
X152840000Y-104261243D01*
X152840000Y-104018757D01*
X152792693Y-103780931D01*
X152699898Y-103556903D01*
X152565180Y-103355283D01*
X152393717Y-103183820D01*
X152192097Y-103049102D01*
X151968069Y-102956307D01*
X151730243Y-102909000D01*
X151487757Y-102909000D01*
X151249931Y-102956307D01*
X151025903Y-103049102D01*
X150824283Y-103183820D01*
X150652820Y-103355283D01*
X150518102Y-103556903D01*
X150425307Y-103780931D01*
X150378000Y-104018757D01*
X126275201Y-104018757D01*
X126275201Y-101478757D01*
X150378000Y-101478757D01*
X150378000Y-101721243D01*
X150425307Y-101959069D01*
X150518102Y-102183097D01*
X150652820Y-102384717D01*
X150824283Y-102556180D01*
X151025903Y-102690898D01*
X151249931Y-102783693D01*
X151487757Y-102831000D01*
X151730243Y-102831000D01*
X151968069Y-102783693D01*
X152192097Y-102690898D01*
X152393717Y-102556180D01*
X152565180Y-102384717D01*
X152699898Y-102183097D01*
X152792693Y-101959069D01*
X152840000Y-101721243D01*
X152840000Y-101478757D01*
X152792693Y-101240931D01*
X152699898Y-101016903D01*
X152565180Y-100815283D01*
X152393717Y-100643820D01*
X152192097Y-100509102D01*
X151968069Y-100416307D01*
X151730243Y-100369000D01*
X151487757Y-100369000D01*
X151249931Y-100416307D01*
X151025903Y-100509102D01*
X150824283Y-100643820D01*
X150652820Y-100815283D01*
X150518102Y-101016903D01*
X150425307Y-101240931D01*
X150378000Y-101478757D01*
X126275201Y-101478757D01*
X126275201Y-98938757D01*
X150378000Y-98938757D01*
X150378000Y-99181243D01*
X150425307Y-99419069D01*
X150518102Y-99643097D01*
X150652820Y-99844717D01*
X150824283Y-100016180D01*
X151025903Y-100150898D01*
X151249931Y-100243693D01*
X151487757Y-100291000D01*
X151730243Y-100291000D01*
X151968069Y-100243693D01*
X152192097Y-100150898D01*
X152393717Y-100016180D01*
X152565180Y-99844717D01*
X152699898Y-99643097D01*
X152792693Y-99419069D01*
X152840000Y-99181243D01*
X152840000Y-98938757D01*
X152792693Y-98700931D01*
X152699898Y-98476903D01*
X152565180Y-98275283D01*
X152393717Y-98103820D01*
X152192097Y-97969102D01*
X151968069Y-97876307D01*
X151730243Y-97829000D01*
X151487757Y-97829000D01*
X151249931Y-97876307D01*
X151025903Y-97969102D01*
X150824283Y-98103820D01*
X150652820Y-98275283D01*
X150518102Y-98476903D01*
X150425307Y-98700931D01*
X150378000Y-98938757D01*
X126275201Y-98938757D01*
X126275201Y-96139098D01*
X126342283Y-96206180D01*
X126543903Y-96340898D01*
X126767931Y-96433693D01*
X127005757Y-96481000D01*
X127248243Y-96481000D01*
X127486069Y-96433693D01*
X127710097Y-96340898D01*
X127911717Y-96206180D01*
X128083180Y-96034717D01*
X128217898Y-95833097D01*
X128310693Y-95609069D01*
X128358000Y-95371243D01*
X128358000Y-95128757D01*
X128436000Y-95128757D01*
X128436000Y-95371243D01*
X128483307Y-95609069D01*
X128576102Y-95833097D01*
X128710820Y-96034717D01*
X128882283Y-96206180D01*
X129083903Y-96340898D01*
X129307931Y-96433693D01*
X129545757Y-96481000D01*
X129788243Y-96481000D01*
X130026069Y-96433693D01*
X130250097Y-96340898D01*
X130451717Y-96206180D01*
X130623180Y-96034717D01*
X130757898Y-95833097D01*
X130850693Y-95609069D01*
X130898000Y-95371243D01*
X130898000Y-95128757D01*
X130976000Y-95128757D01*
X130976000Y-95371243D01*
X131023307Y-95609069D01*
X131116102Y-95833097D01*
X131250820Y-96034717D01*
X131422283Y-96206180D01*
X131623903Y-96340898D01*
X131847931Y-96433693D01*
X132085757Y-96481000D01*
X132328243Y-96481000D01*
X132566069Y-96433693D01*
X132790097Y-96340898D01*
X132991717Y-96206180D01*
X133163180Y-96034717D01*
X133297898Y-95833097D01*
X133390693Y-95609069D01*
X133438000Y-95371243D01*
X133438000Y-95128757D01*
X133516000Y-95128757D01*
X133516000Y-95371243D01*
X133563307Y-95609069D01*
X133656102Y-95833097D01*
X133790820Y-96034717D01*
X133962283Y-96206180D01*
X134163903Y-96340898D01*
X134387931Y-96433693D01*
X134625757Y-96481000D01*
X134868243Y-96481000D01*
X135106069Y-96433693D01*
X135330097Y-96340898D01*
X135531717Y-96206180D01*
X135703180Y-96034717D01*
X135837898Y-95833097D01*
X135930693Y-95609069D01*
X135978000Y-95371243D01*
X135978000Y-95128757D01*
X135930693Y-94890931D01*
X135837898Y-94666903D01*
X135703180Y-94465283D01*
X135637897Y-94400000D01*
X136054157Y-94400000D01*
X136054157Y-96100000D01*
X136061513Y-96174689D01*
X136083299Y-96246508D01*
X136118678Y-96312696D01*
X136166289Y-96370711D01*
X136224304Y-96418322D01*
X136290492Y-96453701D01*
X136362311Y-96475487D01*
X136437000Y-96482843D01*
X138137000Y-96482843D01*
X138211689Y-96475487D01*
X138283508Y-96453701D01*
X138349696Y-96418322D01*
X138373536Y-96398757D01*
X150378000Y-96398757D01*
X150378000Y-96641243D01*
X150425307Y-96879069D01*
X150518102Y-97103097D01*
X150652820Y-97304717D01*
X150824283Y-97476180D01*
X151025903Y-97610898D01*
X151249931Y-97703693D01*
X151487757Y-97751000D01*
X151730243Y-97751000D01*
X151968069Y-97703693D01*
X152192097Y-97610898D01*
X152393717Y-97476180D01*
X152565180Y-97304717D01*
X152699898Y-97103097D01*
X152792693Y-96879069D01*
X152840000Y-96641243D01*
X152840000Y-96398757D01*
X152792693Y-96160931D01*
X152699898Y-95936903D01*
X152565180Y-95735283D01*
X152393717Y-95563820D01*
X152192097Y-95429102D01*
X151968069Y-95336307D01*
X151730243Y-95289000D01*
X151487757Y-95289000D01*
X151249931Y-95336307D01*
X151025903Y-95429102D01*
X150824283Y-95563820D01*
X150652820Y-95735283D01*
X150518102Y-95936903D01*
X150425307Y-96160931D01*
X150378000Y-96398757D01*
X138373536Y-96398757D01*
X138407711Y-96370711D01*
X138455322Y-96312696D01*
X138490701Y-96246508D01*
X138512487Y-96174689D01*
X138519843Y-96100000D01*
X138519843Y-94400000D01*
X138512487Y-94325311D01*
X138490701Y-94253492D01*
X138455322Y-94187304D01*
X138407711Y-94129289D01*
X138349696Y-94081678D01*
X138283508Y-94046299D01*
X138211689Y-94024513D01*
X138137000Y-94017157D01*
X136437000Y-94017157D01*
X136362311Y-94024513D01*
X136290492Y-94046299D01*
X136224304Y-94081678D01*
X136166289Y-94129289D01*
X136118678Y-94187304D01*
X136083299Y-94253492D01*
X136061513Y-94325311D01*
X136054157Y-94400000D01*
X135637897Y-94400000D01*
X135531717Y-94293820D01*
X135330097Y-94159102D01*
X135106069Y-94066307D01*
X134868243Y-94019000D01*
X134625757Y-94019000D01*
X134387931Y-94066307D01*
X134163903Y-94159102D01*
X133962283Y-94293820D01*
X133790820Y-94465283D01*
X133656102Y-94666903D01*
X133563307Y-94890931D01*
X133516000Y-95128757D01*
X133438000Y-95128757D01*
X133390693Y-94890931D01*
X133297898Y-94666903D01*
X133163180Y-94465283D01*
X132991717Y-94293820D01*
X132790097Y-94159102D01*
X132566069Y-94066307D01*
X132328243Y-94019000D01*
X132085757Y-94019000D01*
X131847931Y-94066307D01*
X131623903Y-94159102D01*
X131422283Y-94293820D01*
X131250820Y-94465283D01*
X131116102Y-94666903D01*
X131023307Y-94890931D01*
X130976000Y-95128757D01*
X130898000Y-95128757D01*
X130850693Y-94890931D01*
X130757898Y-94666903D01*
X130623180Y-94465283D01*
X130451717Y-94293820D01*
X130250097Y-94159102D01*
X130026069Y-94066307D01*
X129788243Y-94019000D01*
X129545757Y-94019000D01*
X129307931Y-94066307D01*
X129083903Y-94159102D01*
X128882283Y-94293820D01*
X128710820Y-94465283D01*
X128576102Y-94666903D01*
X128483307Y-94890931D01*
X128436000Y-95128757D01*
X128358000Y-95128757D01*
X128310693Y-94890931D01*
X128217898Y-94666903D01*
X128083180Y-94465283D01*
X127911717Y-94293820D01*
X127710097Y-94159102D01*
X127486069Y-94066307D01*
X127248243Y-94019000D01*
X127005757Y-94019000D01*
X126767931Y-94066307D01*
X126543903Y-94159102D01*
X126342283Y-94293820D01*
X126275201Y-94360902D01*
X126275201Y-93130000D01*
X150376157Y-93130000D01*
X150376157Y-94830000D01*
X150383513Y-94904689D01*
X150405299Y-94976508D01*
X150440678Y-95042696D01*
X150488289Y-95100711D01*
X150546304Y-95148322D01*
X150612492Y-95183701D01*
X150684311Y-95205487D01*
X150759000Y-95212843D01*
X152459000Y-95212843D01*
X152533689Y-95205487D01*
X152605508Y-95183701D01*
X152671696Y-95148322D01*
X152729711Y-95100711D01*
X152777322Y-95042696D01*
X152812701Y-94976508D01*
X152834487Y-94904689D01*
X152841843Y-94830000D01*
X152841843Y-93130000D01*
X152834487Y-93055311D01*
X152812701Y-92983492D01*
X152777322Y-92917304D01*
X152729711Y-92859289D01*
X152671696Y-92811678D01*
X152605508Y-92776299D01*
X152533689Y-92754513D01*
X152459000Y-92747157D01*
X150759000Y-92747157D01*
X150684311Y-92754513D01*
X150612492Y-92776299D01*
X150546304Y-92811678D01*
X150488289Y-92859289D01*
X150440678Y-92917304D01*
X150405299Y-92983492D01*
X150383513Y-93055311D01*
X150376157Y-93130000D01*
X126275201Y-93130000D01*
X126275201Y-81933640D01*
X131442841Y-76766000D01*
X145521157Y-76766000D01*
X145521157Y-77666000D01*
X145532356Y-77779707D01*
X145565523Y-77889044D01*
X145619384Y-77989810D01*
X145691868Y-78078132D01*
X145770600Y-78142746D01*
X145770601Y-80712803D01*
X145768021Y-80739000D01*
X145778319Y-80843564D01*
X145808819Y-80944110D01*
X145834147Y-80991495D01*
X145858350Y-81036775D01*
X145885674Y-81070069D01*
X145908307Y-81097648D01*
X145908310Y-81097651D01*
X145925006Y-81117995D01*
X145945350Y-81134691D01*
X152703477Y-87892818D01*
X152594600Y-88155670D01*
X152530000Y-88480436D01*
X152530000Y-88811564D01*
X152594600Y-89136330D01*
X152721317Y-89442252D01*
X152905282Y-89717575D01*
X153139425Y-89951718D01*
X153414748Y-90135683D01*
X153720670Y-90262400D01*
X154045436Y-90327000D01*
X154376564Y-90327000D01*
X154701330Y-90262400D01*
X155007252Y-90135683D01*
X155282401Y-89951834D01*
X155282402Y-105780604D01*
X155279822Y-105806801D01*
X155290120Y-105911365D01*
X155320620Y-106011911D01*
X155363754Y-106092608D01*
X155370151Y-106104576D01*
X155397475Y-106137870D01*
X155420108Y-106165449D01*
X155420111Y-106165452D01*
X155436807Y-106185796D01*
X155457151Y-106202492D01*
X165685892Y-116431233D01*
X165665307Y-116480931D01*
X165618000Y-116718757D01*
X165618000Y-116961243D01*
X165665307Y-117199069D01*
X165758102Y-117423097D01*
X165892820Y-117624717D01*
X166064283Y-117796180D01*
X166265903Y-117930898D01*
X166489931Y-118023693D01*
X166727757Y-118071000D01*
X166970243Y-118071000D01*
X167208069Y-118023693D01*
X167432097Y-117930898D01*
X167470402Y-117905304D01*
X167470402Y-118004256D01*
X167257766Y-118216892D01*
X167208069Y-118196307D01*
X166970243Y-118149000D01*
X166727757Y-118149000D01*
X166489931Y-118196307D01*
X166265903Y-118289102D01*
X166064283Y-118423820D01*
X165892820Y-118595283D01*
X165758102Y-118796903D01*
X165665307Y-119020931D01*
X165618000Y-119258757D01*
X165618000Y-119501243D01*
X165665307Y-119739069D01*
X165758102Y-119963097D01*
X165892820Y-120164717D01*
X166064283Y-120336180D01*
X166265903Y-120470898D01*
X166489931Y-120563693D01*
X166727757Y-120611000D01*
X166970243Y-120611000D01*
X167208069Y-120563693D01*
X167432097Y-120470898D01*
X167633717Y-120336180D01*
X167805180Y-120164717D01*
X167939898Y-119963097D01*
X168032693Y-119739069D01*
X168080000Y-119501243D01*
X168080000Y-119258757D01*
X168032693Y-119020931D01*
X168012108Y-118971234D01*
X168362452Y-118620890D01*
X168382796Y-118604194D01*
X168449452Y-118522974D01*
X168498982Y-118430310D01*
X168529482Y-118329764D01*
X168537201Y-118251394D01*
X168537201Y-118251387D01*
X168539780Y-118225200D01*
X168537201Y-118199013D01*
X168537201Y-116311889D01*
X168539781Y-116285695D01*
X168536945Y-116256903D01*
X168529482Y-116181130D01*
X168498982Y-116080584D01*
X168449452Y-115987920D01*
X168382796Y-115906700D01*
X168362446Y-115889999D01*
X167799001Y-115326554D01*
X167782300Y-115306204D01*
X167701080Y-115239548D01*
X167668020Y-115221877D01*
X167805180Y-115084717D01*
X167939898Y-114883097D01*
X168032693Y-114659069D01*
X168080000Y-114421243D01*
X168080000Y-114178757D01*
X168032693Y-113940931D01*
X167939898Y-113716903D01*
X167805180Y-113515283D01*
X167633717Y-113343820D01*
X167432097Y-113209102D01*
X167208069Y-113116307D01*
X166970243Y-113069000D01*
X166727757Y-113069000D01*
X166489931Y-113116307D01*
X166265903Y-113209102D01*
X166064283Y-113343820D01*
X165892820Y-113515283D01*
X165758102Y-113716903D01*
X165665307Y-113940931D01*
X165618000Y-114178757D01*
X165618000Y-114208066D01*
X163048691Y-111638757D01*
X165618000Y-111638757D01*
X165618000Y-111881243D01*
X165665307Y-112119069D01*
X165758102Y-112343097D01*
X165892820Y-112544717D01*
X166064283Y-112716180D01*
X166265903Y-112850898D01*
X166489931Y-112943693D01*
X166727757Y-112991000D01*
X166970243Y-112991000D01*
X167208069Y-112943693D01*
X167432097Y-112850898D01*
X167633717Y-112716180D01*
X167805180Y-112544717D01*
X167939898Y-112343097D01*
X168032693Y-112119069D01*
X168080000Y-111881243D01*
X168080000Y-111638757D01*
X168032693Y-111400931D01*
X167939898Y-111176903D01*
X167805180Y-110975283D01*
X167633717Y-110803820D01*
X167432097Y-110669102D01*
X167208069Y-110576307D01*
X166970243Y-110529000D01*
X166727757Y-110529000D01*
X166489931Y-110576307D01*
X166265903Y-110669102D01*
X166064283Y-110803820D01*
X165892820Y-110975283D01*
X165758102Y-111176903D01*
X165665307Y-111400931D01*
X165618000Y-111638757D01*
X163048691Y-111638757D01*
X160508691Y-109098757D01*
X165618000Y-109098757D01*
X165618000Y-109341243D01*
X165665307Y-109579069D01*
X165758102Y-109803097D01*
X165892820Y-110004717D01*
X166064283Y-110176180D01*
X166265903Y-110310898D01*
X166489931Y-110403693D01*
X166727757Y-110451000D01*
X166970243Y-110451000D01*
X167208069Y-110403693D01*
X167432097Y-110310898D01*
X167633717Y-110176180D01*
X167805180Y-110004717D01*
X167939898Y-109803097D01*
X168032693Y-109579069D01*
X168080000Y-109341243D01*
X168080000Y-109098757D01*
X168032693Y-108860931D01*
X167939898Y-108636903D01*
X167805180Y-108435283D01*
X167633717Y-108263820D01*
X167432097Y-108129102D01*
X167208069Y-108036307D01*
X166970243Y-107989000D01*
X166727757Y-107989000D01*
X166489931Y-108036307D01*
X166265903Y-108129102D01*
X166064283Y-108263820D01*
X165892820Y-108435283D01*
X165758102Y-108636903D01*
X165665307Y-108860931D01*
X165618000Y-109098757D01*
X160508691Y-109098757D01*
X157968691Y-106558757D01*
X165618000Y-106558757D01*
X165618000Y-106801243D01*
X165665307Y-107039069D01*
X165758102Y-107263097D01*
X165892820Y-107464717D01*
X166064283Y-107636180D01*
X166265903Y-107770898D01*
X166489931Y-107863693D01*
X166727757Y-107911000D01*
X166970243Y-107911000D01*
X167208069Y-107863693D01*
X167432097Y-107770898D01*
X167633717Y-107636180D01*
X167805180Y-107464717D01*
X167939898Y-107263097D01*
X168032693Y-107039069D01*
X168080000Y-106801243D01*
X168080000Y-106558757D01*
X168032693Y-106320931D01*
X167939898Y-106096903D01*
X167805180Y-105895283D01*
X167633717Y-105723820D01*
X167432097Y-105589102D01*
X167208069Y-105496307D01*
X166970243Y-105449000D01*
X166727757Y-105449000D01*
X166489931Y-105496307D01*
X166265903Y-105589102D01*
X166064283Y-105723820D01*
X165892820Y-105895283D01*
X165758102Y-106096903D01*
X165665307Y-106320931D01*
X165618000Y-106558757D01*
X157968691Y-106558757D01*
X156806411Y-105396478D01*
X156806411Y-104018757D01*
X165618000Y-104018757D01*
X165618000Y-104261243D01*
X165665307Y-104499069D01*
X165758102Y-104723097D01*
X165892820Y-104924717D01*
X166064283Y-105096180D01*
X166265903Y-105230898D01*
X166489931Y-105323693D01*
X166727757Y-105371000D01*
X166970243Y-105371000D01*
X167208069Y-105323693D01*
X167432097Y-105230898D01*
X167633717Y-105096180D01*
X167805180Y-104924717D01*
X167939898Y-104723097D01*
X168032693Y-104499069D01*
X168080000Y-104261243D01*
X168080000Y-104018757D01*
X168032693Y-103780931D01*
X167939898Y-103556903D01*
X167805180Y-103355283D01*
X167633717Y-103183820D01*
X167432097Y-103049102D01*
X167208069Y-102956307D01*
X166970243Y-102909000D01*
X166727757Y-102909000D01*
X166489931Y-102956307D01*
X166265903Y-103049102D01*
X166064283Y-103183820D01*
X165892820Y-103355283D01*
X165758102Y-103556903D01*
X165665307Y-103780931D01*
X165618000Y-104018757D01*
X156806411Y-104018757D01*
X156806411Y-101478757D01*
X165618000Y-101478757D01*
X165618000Y-101721243D01*
X165665307Y-101959069D01*
X165758102Y-102183097D01*
X165892820Y-102384717D01*
X166064283Y-102556180D01*
X166265903Y-102690898D01*
X166489931Y-102783693D01*
X166727757Y-102831000D01*
X166970243Y-102831000D01*
X167208069Y-102783693D01*
X167432097Y-102690898D01*
X167633717Y-102556180D01*
X167805180Y-102384717D01*
X167939898Y-102183097D01*
X168032693Y-101959069D01*
X168080000Y-101721243D01*
X168080000Y-101478757D01*
X168032693Y-101240931D01*
X167939898Y-101016903D01*
X167805180Y-100815283D01*
X167633717Y-100643820D01*
X167432097Y-100509102D01*
X167208069Y-100416307D01*
X166970243Y-100369000D01*
X166727757Y-100369000D01*
X166489931Y-100416307D01*
X166265903Y-100509102D01*
X166064283Y-100643820D01*
X165892820Y-100815283D01*
X165758102Y-101016903D01*
X165665307Y-101240931D01*
X165618000Y-101478757D01*
X156806411Y-101478757D01*
X156806411Y-98938757D01*
X165618000Y-98938757D01*
X165618000Y-99181243D01*
X165665307Y-99419069D01*
X165758102Y-99643097D01*
X165892820Y-99844717D01*
X166064283Y-100016180D01*
X166265903Y-100150898D01*
X166489931Y-100243693D01*
X166727757Y-100291000D01*
X166970243Y-100291000D01*
X167208069Y-100243693D01*
X167432097Y-100150898D01*
X167633717Y-100016180D01*
X167805180Y-99844717D01*
X167939898Y-99643097D01*
X168032693Y-99419069D01*
X168080000Y-99181243D01*
X168080000Y-98938757D01*
X168032693Y-98700931D01*
X167939898Y-98476903D01*
X167805180Y-98275283D01*
X167633717Y-98103820D01*
X167432097Y-97969102D01*
X167208069Y-97876307D01*
X166970243Y-97829000D01*
X166727757Y-97829000D01*
X166489931Y-97876307D01*
X166265903Y-97969102D01*
X166064283Y-98103820D01*
X165892820Y-98275283D01*
X165758102Y-98476903D01*
X165665307Y-98700931D01*
X165618000Y-98938757D01*
X156806411Y-98938757D01*
X156806411Y-96398757D01*
X165618000Y-96398757D01*
X165618000Y-96641243D01*
X165665307Y-96879069D01*
X165758102Y-97103097D01*
X165892820Y-97304717D01*
X166064283Y-97476180D01*
X166265903Y-97610898D01*
X166489931Y-97703693D01*
X166727757Y-97751000D01*
X166970243Y-97751000D01*
X167208069Y-97703693D01*
X167432097Y-97610898D01*
X167633717Y-97476180D01*
X167805180Y-97304717D01*
X167939898Y-97103097D01*
X168032693Y-96879069D01*
X168080000Y-96641243D01*
X168080000Y-96398757D01*
X168032693Y-96160931D01*
X167939898Y-95936903D01*
X167805180Y-95735283D01*
X167633717Y-95563820D01*
X167432097Y-95429102D01*
X167208069Y-95336307D01*
X166970243Y-95289000D01*
X166727757Y-95289000D01*
X166489931Y-95336307D01*
X166265903Y-95429102D01*
X166064283Y-95563820D01*
X165892820Y-95735283D01*
X165758102Y-95936903D01*
X165665307Y-96160931D01*
X165618000Y-96398757D01*
X156806411Y-96398757D01*
X156806411Y-88480436D01*
X157530000Y-88480436D01*
X157530000Y-88811564D01*
X157594600Y-89136330D01*
X157721317Y-89442252D01*
X157905282Y-89717575D01*
X158139425Y-89951718D01*
X158414748Y-90135683D01*
X158720670Y-90262400D01*
X159045436Y-90327000D01*
X159376564Y-90327000D01*
X159701330Y-90262400D01*
X159964182Y-90153523D01*
X160420110Y-90609452D01*
X160436806Y-90629796D01*
X160518026Y-90696452D01*
X160610690Y-90745982D01*
X160711236Y-90776482D01*
X160789606Y-90784201D01*
X160789613Y-90784201D01*
X160815800Y-90786780D01*
X160841987Y-90784201D01*
X165147502Y-90784201D01*
X167110458Y-92747157D01*
X165999000Y-92747157D01*
X165924311Y-92754513D01*
X165852492Y-92776299D01*
X165786304Y-92811678D01*
X165728289Y-92859289D01*
X165680678Y-92917304D01*
X165645299Y-92983492D01*
X165623513Y-93055311D01*
X165616157Y-93130000D01*
X165616157Y-94830000D01*
X165623513Y-94904689D01*
X165645299Y-94976508D01*
X165680678Y-95042696D01*
X165728289Y-95100711D01*
X165786304Y-95148322D01*
X165852492Y-95183701D01*
X165924311Y-95205487D01*
X165999000Y-95212843D01*
X167699000Y-95212843D01*
X167773689Y-95205487D01*
X167845508Y-95183701D01*
X167911696Y-95148322D01*
X167969711Y-95100711D01*
X168017322Y-95042696D01*
X168052701Y-94976508D01*
X168074487Y-94904689D01*
X168081843Y-94830000D01*
X168081843Y-93718542D01*
X169138601Y-94775300D01*
X169138600Y-126496058D01*
X167257766Y-128376892D01*
X167208069Y-128356307D01*
X166970243Y-128309000D01*
X166727757Y-128309000D01*
X166489931Y-128356307D01*
X166265903Y-128449102D01*
X166064283Y-128583820D01*
X165892820Y-128755283D01*
X165758102Y-128956903D01*
X165665307Y-129180931D01*
X165618000Y-129418757D01*
X165618000Y-129661243D01*
X165665307Y-129899069D01*
X165758102Y-130123097D01*
X165892820Y-130324717D01*
X166064283Y-130496180D01*
X166265903Y-130630898D01*
X166489931Y-130723693D01*
X166727757Y-130771000D01*
X166970243Y-130771000D01*
X167208069Y-130723693D01*
X167432097Y-130630898D01*
X167633717Y-130496180D01*
X167805180Y-130324717D01*
X167939898Y-130123097D01*
X168032693Y-129899069D01*
X168080000Y-129661243D01*
X168080000Y-129418757D01*
X168032693Y-129180931D01*
X168012108Y-129131234D01*
X170030651Y-127112691D01*
X170050995Y-127095995D01*
X170117651Y-127014775D01*
X170167181Y-126922111D01*
X170197681Y-126821565D01*
X170205400Y-126743195D01*
X170205400Y-126743187D01*
X170207979Y-126717000D01*
X170205400Y-126690813D01*
X170205400Y-118459040D01*
X174743091Y-118459040D01*
X174837930Y-118723881D01*
X174982615Y-118965131D01*
X175171586Y-119173519D01*
X175397580Y-119341037D01*
X175651913Y-119461246D01*
X175785961Y-119501904D01*
X176008000Y-119379915D01*
X176008000Y-118237000D01*
X176262000Y-118237000D01*
X176262000Y-119379915D01*
X176484039Y-119501904D01*
X176618087Y-119461246D01*
X176872420Y-119341037D01*
X177098414Y-119173519D01*
X177287385Y-118965131D01*
X177432070Y-118723881D01*
X177526909Y-118459040D01*
X178793091Y-118459040D01*
X178887930Y-118723881D01*
X179032615Y-118965131D01*
X179221586Y-119173519D01*
X179447580Y-119341037D01*
X179701913Y-119461246D01*
X179835961Y-119501904D01*
X180058000Y-119379915D01*
X180058000Y-118237000D01*
X180312000Y-118237000D01*
X180312000Y-119379915D01*
X180534039Y-119501904D01*
X180668087Y-119461246D01*
X180922420Y-119341037D01*
X181148414Y-119173519D01*
X181337385Y-118965131D01*
X181482070Y-118723881D01*
X181576909Y-118459040D01*
X181455624Y-118237000D01*
X180312000Y-118237000D01*
X180058000Y-118237000D01*
X178914376Y-118237000D01*
X178793091Y-118459040D01*
X177526909Y-118459040D01*
X177405624Y-118237000D01*
X176262000Y-118237000D01*
X176008000Y-118237000D01*
X174864376Y-118237000D01*
X174743091Y-118459040D01*
X170205400Y-118459040D01*
X170205400Y-117760960D01*
X174743091Y-117760960D01*
X174864376Y-117983000D01*
X176008000Y-117983000D01*
X176008000Y-116840085D01*
X176262000Y-116840085D01*
X176262000Y-117983000D01*
X177405624Y-117983000D01*
X177526909Y-117760960D01*
X178793091Y-117760960D01*
X178914376Y-117983000D01*
X180058000Y-117983000D01*
X180058000Y-116840085D01*
X180312000Y-116840085D01*
X180312000Y-117983000D01*
X181455624Y-117983000D01*
X181576909Y-117760960D01*
X181482070Y-117496119D01*
X181337385Y-117254869D01*
X181148414Y-117046481D01*
X180922420Y-116878963D01*
X180668087Y-116758754D01*
X180534039Y-116718096D01*
X180312000Y-116840085D01*
X180058000Y-116840085D01*
X179835961Y-116718096D01*
X179701913Y-116758754D01*
X179447580Y-116878963D01*
X179221586Y-117046481D01*
X179032615Y-117254869D01*
X178887930Y-117496119D01*
X178793091Y-117760960D01*
X177526909Y-117760960D01*
X177432070Y-117496119D01*
X177287385Y-117254869D01*
X177098414Y-117046481D01*
X176872420Y-116878963D01*
X176618087Y-116758754D01*
X176484039Y-116718096D01*
X176262000Y-116840085D01*
X176008000Y-116840085D01*
X175785961Y-116718096D01*
X175651913Y-116758754D01*
X175397580Y-116878963D01*
X175171586Y-117046481D01*
X174982615Y-117254869D01*
X174837930Y-117496119D01*
X174743091Y-117760960D01*
X170205400Y-117760960D01*
X170205400Y-108862702D01*
X172033903Y-108862702D01*
X172105486Y-109106671D01*
X172360996Y-109227571D01*
X172635184Y-109296300D01*
X172917512Y-109310217D01*
X173197130Y-109268787D01*
X173463292Y-109173603D01*
X173588514Y-109106671D01*
X173660097Y-108862702D01*
X182701903Y-108862702D01*
X182773486Y-109106671D01*
X183028996Y-109227571D01*
X183303184Y-109296300D01*
X183585512Y-109310217D01*
X183865130Y-109268787D01*
X184131292Y-109173603D01*
X184256514Y-109106671D01*
X184328097Y-108862702D01*
X183515000Y-108049605D01*
X182701903Y-108862702D01*
X173660097Y-108862702D01*
X172847000Y-108049605D01*
X172033903Y-108862702D01*
X170205400Y-108862702D01*
X170205400Y-107940512D01*
X171406783Y-107940512D01*
X171448213Y-108220130D01*
X171543397Y-108486292D01*
X171610329Y-108611514D01*
X171854298Y-108683097D01*
X172667395Y-107870000D01*
X173026605Y-107870000D01*
X173839702Y-108683097D01*
X174083671Y-108611514D01*
X174204571Y-108356004D01*
X174273300Y-108081816D01*
X174280265Y-107940512D01*
X182074783Y-107940512D01*
X182116213Y-108220130D01*
X182211397Y-108486292D01*
X182278329Y-108611514D01*
X182522298Y-108683097D01*
X183335395Y-107870000D01*
X183694605Y-107870000D01*
X184507702Y-108683097D01*
X184751671Y-108611514D01*
X184872571Y-108356004D01*
X184941300Y-108081816D01*
X184955217Y-107799488D01*
X184913787Y-107519870D01*
X184818603Y-107253708D01*
X184751671Y-107128486D01*
X184507702Y-107056903D01*
X183694605Y-107870000D01*
X183335395Y-107870000D01*
X182522298Y-107056903D01*
X182278329Y-107128486D01*
X182157429Y-107383996D01*
X182088700Y-107658184D01*
X182074783Y-107940512D01*
X174280265Y-107940512D01*
X174287217Y-107799488D01*
X174245787Y-107519870D01*
X174150603Y-107253708D01*
X174083671Y-107128486D01*
X173839702Y-107056903D01*
X173026605Y-107870000D01*
X172667395Y-107870000D01*
X171854298Y-107056903D01*
X171610329Y-107128486D01*
X171489429Y-107383996D01*
X171420700Y-107658184D01*
X171406783Y-107940512D01*
X170205400Y-107940512D01*
X170205400Y-106877298D01*
X172033903Y-106877298D01*
X172847000Y-107690395D01*
X173660097Y-106877298D01*
X182701903Y-106877298D01*
X183515000Y-107690395D01*
X184328097Y-106877298D01*
X184256514Y-106633329D01*
X184001004Y-106512429D01*
X183726816Y-106443700D01*
X183444488Y-106429783D01*
X183164870Y-106471213D01*
X182898708Y-106566397D01*
X182773486Y-106633329D01*
X182701903Y-106877298D01*
X173660097Y-106877298D01*
X173588514Y-106633329D01*
X173333004Y-106512429D01*
X173058816Y-106443700D01*
X172776488Y-106429783D01*
X172496870Y-106471213D01*
X172230708Y-106566397D01*
X172105486Y-106633329D01*
X172033903Y-106877298D01*
X170205400Y-106877298D01*
X170205400Y-94580552D01*
X170207980Y-94554358D01*
X170197681Y-94449794D01*
X170182577Y-94400000D01*
X170167181Y-94349247D01*
X170117651Y-94256583D01*
X170050995Y-94175363D01*
X170030645Y-94158662D01*
X165887042Y-90015059D01*
X165893843Y-89946000D01*
X165893843Y-89179400D01*
X168562059Y-89179400D01*
X172313600Y-92930942D01*
X172313601Y-101812637D01*
X172287587Y-101823412D01*
X172094157Y-101952658D01*
X171929658Y-102117157D01*
X171800412Y-102310587D01*
X171711386Y-102525515D01*
X171666000Y-102753682D01*
X171666000Y-102986318D01*
X171711386Y-103214485D01*
X171800412Y-103429413D01*
X171929658Y-103622843D01*
X172094157Y-103787342D01*
X172287587Y-103916588D01*
X172502515Y-104005614D01*
X172730682Y-104051000D01*
X172963318Y-104051000D01*
X173191485Y-104005614D01*
X173406413Y-103916588D01*
X173599843Y-103787342D01*
X173764342Y-103622843D01*
X173893588Y-103429413D01*
X173904363Y-103403400D01*
X175077637Y-103403400D01*
X175088412Y-103429413D01*
X175217658Y-103622843D01*
X175382157Y-103787342D01*
X175575587Y-103916588D01*
X175790515Y-104005614D01*
X176018682Y-104051000D01*
X176251318Y-104051000D01*
X176479485Y-104005614D01*
X176694413Y-103916588D01*
X176887843Y-103787342D01*
X177052342Y-103622843D01*
X177181588Y-103429413D01*
X177270614Y-103214485D01*
X177316000Y-102986318D01*
X177316000Y-102753682D01*
X179004000Y-102753682D01*
X179004000Y-102986318D01*
X179049386Y-103214485D01*
X179138412Y-103429413D01*
X179267658Y-103622843D01*
X179432157Y-103787342D01*
X179625587Y-103916588D01*
X179840515Y-104005614D01*
X180068682Y-104051000D01*
X180301318Y-104051000D01*
X180529485Y-104005614D01*
X180744413Y-103916588D01*
X180937843Y-103787342D01*
X181102342Y-103622843D01*
X181231588Y-103429413D01*
X181242363Y-103403400D01*
X182457637Y-103403400D01*
X182468412Y-103429413D01*
X182597658Y-103622843D01*
X182762157Y-103787342D01*
X182955587Y-103916588D01*
X183170515Y-104005614D01*
X183398682Y-104051000D01*
X183631318Y-104051000D01*
X183859485Y-104005614D01*
X184074413Y-103916588D01*
X184267843Y-103787342D01*
X184432342Y-103622843D01*
X184561588Y-103429413D01*
X184650614Y-103214485D01*
X184696000Y-102986318D01*
X184696000Y-102753682D01*
X184650614Y-102525515D01*
X184561588Y-102310587D01*
X184432342Y-102117157D01*
X184267843Y-101952658D01*
X184074413Y-101823412D01*
X183859485Y-101734386D01*
X183631318Y-101689000D01*
X183398682Y-101689000D01*
X183170515Y-101734386D01*
X182955587Y-101823412D01*
X182762157Y-101952658D01*
X182597658Y-102117157D01*
X182468412Y-102310587D01*
X182457637Y-102336600D01*
X181242363Y-102336600D01*
X181231588Y-102310587D01*
X181102342Y-102117157D01*
X180937843Y-101952658D01*
X180744413Y-101823412D01*
X180529485Y-101734386D01*
X180301318Y-101689000D01*
X180068682Y-101689000D01*
X179840515Y-101734386D01*
X179625587Y-101823412D01*
X179432157Y-101952658D01*
X179267658Y-102117157D01*
X179138412Y-102310587D01*
X179049386Y-102525515D01*
X179004000Y-102753682D01*
X177316000Y-102753682D01*
X177270614Y-102525515D01*
X177181588Y-102310587D01*
X177052342Y-102117157D01*
X176887843Y-101952658D01*
X176694413Y-101823412D01*
X176479485Y-101734386D01*
X176251318Y-101689000D01*
X176018682Y-101689000D01*
X175790515Y-101734386D01*
X175575587Y-101823412D01*
X175382157Y-101952658D01*
X175217658Y-102117157D01*
X175088412Y-102310587D01*
X175077637Y-102336600D01*
X173904363Y-102336600D01*
X173893588Y-102310587D01*
X173764342Y-102117157D01*
X173599843Y-101952658D01*
X173406413Y-101823412D01*
X173380400Y-101812637D01*
X173380400Y-92736187D01*
X173382979Y-92710000D01*
X173380400Y-92683813D01*
X173380400Y-92683805D01*
X173372681Y-92605435D01*
X173342181Y-92504889D01*
X173292651Y-92412225D01*
X173225995Y-92331005D01*
X173205651Y-92314309D01*
X169178693Y-88287352D01*
X169161995Y-88267005D01*
X169080775Y-88200349D01*
X168988111Y-88150819D01*
X168887565Y-88120319D01*
X168809195Y-88112600D01*
X168809187Y-88112600D01*
X168783000Y-88110021D01*
X168756813Y-88112600D01*
X165893843Y-88112600D01*
X165893843Y-87346000D01*
X165886487Y-87271311D01*
X165864701Y-87199492D01*
X165829322Y-87133304D01*
X165781711Y-87075289D01*
X165723696Y-87027678D01*
X165657508Y-86992299D01*
X165585689Y-86970513D01*
X165511000Y-86963157D01*
X162911000Y-86963157D01*
X162836311Y-86970513D01*
X162764492Y-86992299D01*
X162698304Y-87027678D01*
X162640289Y-87075289D01*
X162592678Y-87133304D01*
X162557299Y-87199492D01*
X162535513Y-87271311D01*
X162528157Y-87346000D01*
X162528157Y-89717401D01*
X161036743Y-89717401D01*
X160718523Y-89399182D01*
X160827400Y-89136330D01*
X160892000Y-88811564D01*
X160892000Y-88480436D01*
X160827400Y-88155670D01*
X160700683Y-87849748D01*
X160516718Y-87574425D01*
X160282575Y-87340282D01*
X160007252Y-87156317D01*
X159701330Y-87029600D01*
X159376564Y-86965000D01*
X159045436Y-86965000D01*
X158720670Y-87029600D01*
X158414748Y-87156317D01*
X158139425Y-87340282D01*
X157905282Y-87574425D01*
X157721317Y-87849748D01*
X157594600Y-88155670D01*
X157530000Y-88480436D01*
X156806411Y-88480436D01*
X156806411Y-86068205D01*
X156808991Y-86042011D01*
X156798692Y-85937447D01*
X156791302Y-85913083D01*
X156768192Y-85836900D01*
X156718662Y-85744236D01*
X156652006Y-85663016D01*
X156631656Y-85646315D01*
X150587400Y-79602059D01*
X150587400Y-78038585D01*
X150608922Y-78020922D01*
X150679000Y-77935531D01*
X150749079Y-78020922D01*
X150868002Y-78118519D01*
X151003679Y-78191040D01*
X151150898Y-78235699D01*
X151304000Y-78250778D01*
X151457103Y-78235699D01*
X151604322Y-78191040D01*
X151739999Y-78118519D01*
X151858922Y-78020922D01*
X151929000Y-77935531D01*
X151999079Y-78020922D01*
X152118002Y-78118519D01*
X152253679Y-78191040D01*
X152400898Y-78235699D01*
X152554000Y-78250778D01*
X152707103Y-78235699D01*
X152854322Y-78191040D01*
X152989999Y-78118519D01*
X153108922Y-78020922D01*
X153179000Y-77935531D01*
X153249079Y-78020922D01*
X153368002Y-78118519D01*
X153503679Y-78191040D01*
X153650898Y-78235699D01*
X153804000Y-78250778D01*
X153957103Y-78235699D01*
X154104322Y-78191040D01*
X154237461Y-78119876D01*
X154341717Y-78237112D01*
X154505840Y-78361255D01*
X154691028Y-78450994D01*
X154767877Y-78460666D01*
X154927000Y-78332998D01*
X154927000Y-77343000D01*
X154907000Y-77343000D01*
X154907000Y-77089000D01*
X154927000Y-77089000D01*
X154927000Y-76099002D01*
X154767877Y-75971334D01*
X154691028Y-75981006D01*
X154505840Y-76070745D01*
X154341717Y-76194888D01*
X154237461Y-76312125D01*
X154104321Y-76240960D01*
X153957102Y-76196301D01*
X153804000Y-76181222D01*
X153650897Y-76196301D01*
X153503678Y-76240960D01*
X153368001Y-76313481D01*
X153249078Y-76411078D01*
X153179000Y-76496469D01*
X153108922Y-76411078D01*
X152989998Y-76313481D01*
X152854321Y-76240960D01*
X152707102Y-76196301D01*
X152554000Y-76181222D01*
X152400897Y-76196301D01*
X152253678Y-76240960D01*
X152118001Y-76313481D01*
X151999078Y-76411078D01*
X151929000Y-76496469D01*
X151858922Y-76411078D01*
X151739998Y-76313481D01*
X151604321Y-76240960D01*
X151457102Y-76196301D01*
X151304000Y-76181222D01*
X151150897Y-76196301D01*
X151003678Y-76240960D01*
X150868001Y-76313481D01*
X150749078Y-76411078D01*
X150679000Y-76496469D01*
X150608922Y-76411078D01*
X150489998Y-76313481D01*
X150354321Y-76240960D01*
X150207102Y-76196301D01*
X150054000Y-76181222D01*
X149900897Y-76196301D01*
X149753678Y-76240960D01*
X149618001Y-76313481D01*
X149499078Y-76411078D01*
X149429000Y-76496469D01*
X149358922Y-76411078D01*
X149239998Y-76313481D01*
X149104321Y-76240960D01*
X148957102Y-76196301D01*
X148804000Y-76181222D01*
X148650897Y-76196301D01*
X148503678Y-76240960D01*
X148368001Y-76313481D01*
X148249078Y-76411078D01*
X148179000Y-76496469D01*
X148108922Y-76411078D01*
X147989998Y-76313481D01*
X147854321Y-76240960D01*
X147707102Y-76196301D01*
X147554000Y-76181222D01*
X147400897Y-76196301D01*
X147253678Y-76240960D01*
X147118001Y-76313481D01*
X146999078Y-76411078D01*
X146981081Y-76433008D01*
X146916132Y-76353868D01*
X146827810Y-76281384D01*
X146727044Y-76227523D01*
X146617707Y-76194356D01*
X146504000Y-76183157D01*
X146104000Y-76183157D01*
X145990293Y-76194356D01*
X145880956Y-76227523D01*
X145780190Y-76281384D01*
X145691868Y-76353868D01*
X145619384Y-76442190D01*
X145565523Y-76542956D01*
X145532356Y-76652293D01*
X145521157Y-76766000D01*
X131442841Y-76766000D01*
X134269442Y-73939400D01*
X156116059Y-73939400D01*
X157020601Y-74843943D01*
X157020600Y-76393415D01*
X156999078Y-76411078D01*
X156929000Y-76496469D01*
X156858922Y-76411078D01*
X156739998Y-76313481D01*
X156604321Y-76240960D01*
X156457102Y-76196301D01*
X156304000Y-76181222D01*
X156150897Y-76196301D01*
X156003678Y-76240960D01*
X155870539Y-76312124D01*
X155766283Y-76194888D01*
X155602160Y-76070745D01*
X155416972Y-75981006D01*
X155340123Y-75971334D01*
X155181000Y-76099002D01*
X155181000Y-77089000D01*
X155201000Y-77089000D01*
X155201000Y-77343000D01*
X155181000Y-77343000D01*
X155181000Y-78332998D01*
X155340123Y-78460666D01*
X155416972Y-78450994D01*
X155602160Y-78361255D01*
X155766283Y-78237112D01*
X155870539Y-78119875D01*
X156003679Y-78191040D01*
X156150898Y-78235699D01*
X156304000Y-78250778D01*
X156457103Y-78235699D01*
X156604322Y-78191040D01*
X156739999Y-78118519D01*
X156858922Y-78020922D01*
X156929000Y-77935531D01*
X156999079Y-78020922D01*
X157118002Y-78118519D01*
X157253679Y-78191040D01*
X157400898Y-78235699D01*
X157554000Y-78250778D01*
X157707103Y-78235699D01*
X157854322Y-78191040D01*
X157989999Y-78118519D01*
X158108922Y-78020922D01*
X158206519Y-77901999D01*
X158279040Y-77766322D01*
X158323699Y-77619103D01*
X158335000Y-77504360D01*
X158335000Y-76927640D01*
X158323699Y-76812897D01*
X158279040Y-76665678D01*
X158206519Y-76530001D01*
X158108922Y-76411078D01*
X158087400Y-76393416D01*
X158087400Y-74737006D01*
X183847033Y-74737006D01*
X183847033Y-75104766D01*
X183918780Y-75465460D01*
X184059516Y-75805226D01*
X184263832Y-76111008D01*
X184523878Y-76371054D01*
X184829660Y-76575370D01*
X185169426Y-76716106D01*
X185530120Y-76787853D01*
X185897880Y-76787853D01*
X186258574Y-76716106D01*
X186598340Y-76575370D01*
X186904122Y-76371054D01*
X187164168Y-76111008D01*
X187368484Y-75805226D01*
X187509220Y-75465460D01*
X187580967Y-75104766D01*
X187580967Y-74737006D01*
X187509220Y-74376312D01*
X187368484Y-74036546D01*
X187164168Y-73730764D01*
X186904122Y-73470718D01*
X186598340Y-73266402D01*
X186258574Y-73125666D01*
X185897880Y-73053919D01*
X185530120Y-73053919D01*
X185169426Y-73125666D01*
X184829660Y-73266402D01*
X184523878Y-73470718D01*
X184263832Y-73730764D01*
X184059516Y-74036546D01*
X183918780Y-74376312D01*
X183847033Y-74737006D01*
X158087400Y-74737006D01*
X158087400Y-74649187D01*
X158089979Y-74623000D01*
X158087400Y-74596813D01*
X158087400Y-74596805D01*
X158079681Y-74518435D01*
X158049181Y-74417889D01*
X157999651Y-74325225D01*
X157932995Y-74244005D01*
X157912651Y-74227309D01*
X156732695Y-73047354D01*
X156715995Y-73027005D01*
X156634775Y-72960349D01*
X156542111Y-72910819D01*
X156441565Y-72880319D01*
X156363195Y-72872600D01*
X156363187Y-72872600D01*
X156337000Y-72870021D01*
X156310813Y-72872600D01*
X134074686Y-72872600D01*
X134048499Y-72870021D01*
X134022312Y-72872600D01*
X134022305Y-72872600D01*
X133943935Y-72880319D01*
X133843389Y-72910819D01*
X133750725Y-72960349D01*
X133669505Y-73027005D01*
X133652809Y-73047349D01*
X125383156Y-81317003D01*
X125362806Y-81333704D01*
X125296150Y-81414924D01*
X125246620Y-81507589D01*
X125216120Y-81608135D01*
X125208401Y-81686505D01*
X125208401Y-81686512D01*
X125205822Y-81712699D01*
X125208401Y-81738886D01*
X125208401Y-94184696D01*
X125170097Y-94159102D01*
X124946069Y-94066307D01*
X124708243Y-94019000D01*
X124465757Y-94019000D01*
X124227931Y-94066307D01*
X124003903Y-94159102D01*
X123802283Y-94293820D01*
X123630820Y-94465283D01*
X123496102Y-94666903D01*
X123403307Y-94890931D01*
X123356000Y-95128757D01*
X123356000Y-95371243D01*
X123403307Y-95609069D01*
X123496102Y-95833097D01*
X123630820Y-96034717D01*
X123802283Y-96206180D01*
X124003903Y-96340898D01*
X124227931Y-96433693D01*
X124465757Y-96481000D01*
X124708243Y-96481000D01*
X124946069Y-96433693D01*
X125170097Y-96340898D01*
X125208402Y-96315304D01*
X125208402Y-106574256D01*
X124995766Y-106786892D01*
X124946069Y-106766307D01*
X124708243Y-106719000D01*
X124465757Y-106719000D01*
X124227931Y-106766307D01*
X124003903Y-106859102D01*
X123802283Y-106993820D01*
X123630820Y-107165283D01*
X123496102Y-107366903D01*
X123403307Y-107590931D01*
X123356000Y-107828757D01*
X123356000Y-108071243D01*
X123403307Y-108309069D01*
X123434413Y-108384166D01*
X123141434Y-108677146D01*
X123122051Y-108693053D01*
X123058570Y-108770406D01*
X123011398Y-108858659D01*
X122982350Y-108954417D01*
X122974999Y-109029054D01*
X122972542Y-109054001D01*
X119734000Y-109054001D01*
X119734000Y-81700374D01*
X119731884Y-81678891D01*
X119731971Y-81666442D01*
X119731316Y-81659758D01*
X119690515Y-81271565D01*
X119681749Y-81228865D01*
X119673580Y-81186038D01*
X119671639Y-81179608D01*
X119556215Y-80806734D01*
X119539316Y-80766533D01*
X119522990Y-80726124D01*
X119519837Y-80720194D01*
X119334186Y-80376839D01*
X119309811Y-80340702D01*
X119285936Y-80304217D01*
X119281691Y-80299012D01*
X119032884Y-79998257D01*
X119001950Y-79967538D01*
X118971449Y-79936392D01*
X118966274Y-79932111D01*
X118663789Y-79685410D01*
X118627469Y-79661279D01*
X118591507Y-79636655D01*
X118585599Y-79633460D01*
X118240957Y-79450211D01*
X118200701Y-79433619D01*
X118160580Y-79416423D01*
X118154165Y-79414437D01*
X117780493Y-79301619D01*
X117737739Y-79293154D01*
X117695086Y-79284088D01*
X117688407Y-79283386D01*
X117299938Y-79245296D01*
X117276626Y-79243000D01*
X111116522Y-79243000D01*
X110798408Y-79211808D01*
X110515033Y-79126253D01*
X110253676Y-78987287D01*
X110024287Y-78800202D01*
X109835604Y-78572124D01*
X109694817Y-78311744D01*
X109607285Y-78028974D01*
X109574013Y-77712415D01*
X109577457Y-74737084D01*
X112505033Y-74737084D01*
X112505033Y-75104844D01*
X112576780Y-75465538D01*
X112717516Y-75805304D01*
X112921832Y-76111086D01*
X113181878Y-76371132D01*
X113487660Y-76575448D01*
X113827426Y-76716184D01*
X114188120Y-76787931D01*
X114555880Y-76787931D01*
X114916574Y-76716184D01*
X115256340Y-76575448D01*
X115562122Y-76371132D01*
X115822168Y-76111086D01*
X116026484Y-75805304D01*
X116167220Y-75465538D01*
X116238967Y-75104844D01*
X116238967Y-74737084D01*
X116167220Y-74376390D01*
X116026484Y-74036624D01*
X115822168Y-73730842D01*
X115562122Y-73470796D01*
X115256340Y-73266480D01*
X114916574Y-73125744D01*
X114555880Y-73053997D01*
X114188120Y-73053997D01*
X113827426Y-73125744D01*
X113487660Y-73266480D01*
X113181878Y-73470796D01*
X112921832Y-73730842D01*
X112717516Y-74036624D01*
X112576780Y-74376390D01*
X112505033Y-74737084D01*
X109577457Y-74737084D01*
X109579244Y-73193764D01*
X109610463Y-72875372D01*
X109696020Y-72591993D01*
X109834985Y-72330639D01*
X110022071Y-72101249D01*
X110250148Y-71912568D01*
X110510529Y-71771781D01*
X110793297Y-71684249D01*
X111109982Y-71650964D01*
X188190478Y-71650964D01*
X188508592Y-71682156D01*
%TA.AperFunction,Conductor*%
D19*
G36*
X188508592Y-71682156D02*
G01*
X188791971Y-71767713D01*
X189053325Y-71906678D01*
X189282715Y-72093764D01*
X189471396Y-72321841D01*
X189612183Y-72582222D01*
X189699715Y-72864990D01*
X189733000Y-73181675D01*
X189733001Y-78208468D01*
X189701808Y-78526592D01*
X189616253Y-78809967D01*
X189477287Y-79071324D01*
X189290202Y-79300713D01*
X189062124Y-79489396D01*
X188801744Y-79630183D01*
X188518974Y-79717715D01*
X188202288Y-79751000D01*
X177661574Y-79751000D01*
X177640091Y-79753116D01*
X177627642Y-79753029D01*
X177620958Y-79753684D01*
X177232765Y-79794485D01*
X177190065Y-79803251D01*
X177147238Y-79811420D01*
X177140808Y-79813361D01*
X176767934Y-79928785D01*
X176727733Y-79945684D01*
X176687324Y-79962010D01*
X176681394Y-79965163D01*
X176338039Y-80150814D01*
X176301902Y-80175189D01*
X176265417Y-80199064D01*
X176260212Y-80203309D01*
X175959457Y-80452116D01*
X175928738Y-80483050D01*
X175897592Y-80513551D01*
X175893311Y-80518726D01*
X175646610Y-80821211D01*
X175622479Y-80857531D01*
X175597855Y-80893493D01*
X175594660Y-80899401D01*
X175411411Y-81244043D01*
X175394819Y-81284299D01*
X175377623Y-81324420D01*
X175375637Y-81330835D01*
X175262819Y-81704507D01*
X175254354Y-81747261D01*
X175245288Y-81789914D01*
X175244586Y-81796593D01*
X175206496Y-82185062D01*
X175204200Y-82208375D01*
X175204201Y-86216299D01*
X175205330Y-86227757D01*
X175213932Y-86407118D01*
X175218528Y-86438447D01*
X175221119Y-86470010D01*
X175222365Y-86476610D01*
X175297457Y-86859650D01*
X175309971Y-86901383D01*
X175321915Y-86943338D01*
X175324420Y-86949570D01*
X175472480Y-87310729D01*
X175492864Y-87349241D01*
X175512729Y-87388073D01*
X175516395Y-87393699D01*
X175731786Y-87719222D01*
X175759269Y-87753049D01*
X175786290Y-87787274D01*
X175790980Y-87792082D01*
X176065497Y-88069570D01*
X176099000Y-88097392D01*
X176132181Y-88125740D01*
X176137716Y-88129545D01*
X176460901Y-88348427D01*
X176499240Y-88369250D01*
X176537227Y-88390575D01*
X176543390Y-88393230D01*
X176543394Y-88393232D01*
X176543398Y-88393233D01*
X176902941Y-88545171D01*
X176944553Y-88558138D01*
X176985997Y-88571691D01*
X176992564Y-88573100D01*
X177374774Y-88652310D01*
X177374776Y-88652310D01*
X177710806Y-88721950D01*
X177983463Y-88837171D01*
X178238731Y-89010055D01*
X178343430Y-89105663D01*
X189273263Y-100071642D01*
X189475738Y-100318971D01*
X189615187Y-100580076D01*
X189701264Y-100863291D01*
X189733000Y-101180947D01*
X189733001Y-144146431D01*
X189701808Y-144464555D01*
X189616253Y-144747930D01*
X189477287Y-145009287D01*
X189290202Y-145238676D01*
X189062124Y-145427359D01*
X188801744Y-145568146D01*
X188518974Y-145655678D01*
X188202314Y-145688960D01*
X121271321Y-145670607D01*
X120953137Y-145639408D01*
X120669762Y-145553853D01*
X120408405Y-145414887D01*
X120179016Y-145227802D01*
X119990333Y-144999724D01*
X119849546Y-144739344D01*
X119762014Y-144456574D01*
X119728742Y-144140015D01*
X119730656Y-142486083D01*
X121347033Y-142486083D01*
X121347033Y-142853843D01*
X121418780Y-143214537D01*
X121559516Y-143554303D01*
X121763832Y-143860085D01*
X122023878Y-144120131D01*
X122329660Y-144324447D01*
X122669426Y-144465183D01*
X123030120Y-144536930D01*
X123397880Y-144536930D01*
X123758574Y-144465183D01*
X124098340Y-144324447D01*
X124404122Y-144120131D01*
X124664168Y-143860085D01*
X124868484Y-143554303D01*
X125009220Y-143214537D01*
X125080967Y-142853843D01*
X125080967Y-142486083D01*
X175207733Y-142486083D01*
X175207733Y-142853843D01*
X175279480Y-143214537D01*
X175420216Y-143554303D01*
X175624532Y-143860085D01*
X175884578Y-144120131D01*
X176190360Y-144324447D01*
X176530126Y-144465183D01*
X176890820Y-144536930D01*
X177258580Y-144536930D01*
X177619274Y-144465183D01*
X177959040Y-144324447D01*
X178264822Y-144120131D01*
X178524868Y-143860085D01*
X178729184Y-143554303D01*
X178869920Y-143214537D01*
X178941667Y-142853843D01*
X178941667Y-142486083D01*
X178869920Y-142125389D01*
X178729184Y-141785623D01*
X178524868Y-141479841D01*
X178264822Y-141219795D01*
X177959040Y-141015479D01*
X177619274Y-140874743D01*
X177258580Y-140802996D01*
X176890820Y-140802996D01*
X176530126Y-140874743D01*
X176190360Y-141015479D01*
X175884578Y-141219795D01*
X175624532Y-141479841D01*
X175420216Y-141785623D01*
X175279480Y-142125389D01*
X175207733Y-142486083D01*
X125080967Y-142486083D01*
X125009220Y-142125389D01*
X124868484Y-141785623D01*
X124664168Y-141479841D01*
X124404122Y-141219795D01*
X124098340Y-141015479D01*
X123758574Y-140874743D01*
X123397880Y-140802996D01*
X123030120Y-140802996D01*
X122669426Y-140874743D01*
X122329660Y-141015479D01*
X122023878Y-141219795D01*
X121763832Y-141479841D01*
X121559516Y-141785623D01*
X121418780Y-142125389D01*
X121347033Y-142486083D01*
X119730656Y-142486083D01*
X119733973Y-139621468D01*
X119734000Y-139621190D01*
X119734000Y-139597821D01*
X119734027Y-139574495D01*
X119734000Y-139574218D01*
X119734000Y-131958757D01*
X165618000Y-131958757D01*
X165618000Y-132201243D01*
X165665307Y-132439069D01*
X165758102Y-132663097D01*
X165892820Y-132864717D01*
X166064283Y-133036180D01*
X166265903Y-133170898D01*
X166489931Y-133263693D01*
X166727757Y-133311000D01*
X166970243Y-133311000D01*
X167208069Y-133263693D01*
X167432097Y-133170898D01*
X167633717Y-133036180D01*
X167805180Y-132864717D01*
X167939898Y-132663097D01*
X168032693Y-132439069D01*
X168080000Y-132201243D01*
X168080000Y-131958757D01*
X168032693Y-131720931D01*
X167939898Y-131496903D01*
X167805180Y-131295283D01*
X167633717Y-131123820D01*
X167432097Y-130989102D01*
X167208069Y-130896307D01*
X166970243Y-130849000D01*
X166727757Y-130849000D01*
X166489931Y-130896307D01*
X166265903Y-130989102D01*
X166064283Y-131123820D01*
X165892820Y-131295283D01*
X165758102Y-131496903D01*
X165665307Y-131720931D01*
X165618000Y-131958757D01*
X119734000Y-131958757D01*
X119734000Y-109054001D01*
X122972542Y-109054001D01*
X122974999Y-109078945D01*
X122975000Y-126506045D01*
X122972542Y-126530999D01*
X122982351Y-126630583D01*
X123011399Y-126726342D01*
X123058570Y-126814594D01*
X123106149Y-126872569D01*
X123122052Y-126891947D01*
X123141429Y-126907849D01*
X123459813Y-127226234D01*
X123428707Y-127301331D01*
X123381400Y-127539157D01*
X123381400Y-127781643D01*
X123428707Y-128019469D01*
X123521502Y-128243497D01*
X123656220Y-128445117D01*
X123827683Y-128616580D01*
X124029303Y-128751298D01*
X124253331Y-128844093D01*
X124491157Y-128891400D01*
X124733643Y-128891400D01*
X124971469Y-128844093D01*
X125195497Y-128751298D01*
X125397117Y-128616580D01*
X125568580Y-128445117D01*
X125703298Y-128243497D01*
X125796093Y-128019469D01*
X125843400Y-127781643D01*
X125843400Y-127539157D01*
X125921400Y-127539157D01*
X125921400Y-127781643D01*
X125968707Y-128019469D01*
X126061502Y-128243497D01*
X126196220Y-128445117D01*
X126367683Y-128616580D01*
X126569303Y-128751298D01*
X126793331Y-128844093D01*
X127031157Y-128891400D01*
X127273643Y-128891400D01*
X127511469Y-128844093D01*
X127735497Y-128751298D01*
X127937117Y-128616580D01*
X128108580Y-128445117D01*
X128243298Y-128243497D01*
X128290628Y-128129232D01*
X128348243Y-128291652D01*
X128497222Y-128541755D01*
X128692131Y-128757988D01*
X128925480Y-128932041D01*
X129188301Y-129057225D01*
X129335510Y-129101876D01*
X129565400Y-128980555D01*
X129565400Y-127787400D01*
X129545400Y-127787400D01*
X129545400Y-127533400D01*
X129565400Y-127533400D01*
X129565400Y-126340245D01*
X129335510Y-126218924D01*
X129188301Y-126263575D01*
X128925480Y-126388759D01*
X128692131Y-126562812D01*
X128497222Y-126779045D01*
X128348243Y-127029148D01*
X128290628Y-127191568D01*
X128243298Y-127077303D01*
X128108580Y-126875683D01*
X127937117Y-126704220D01*
X127735497Y-126569502D01*
X127511469Y-126476707D01*
X127273643Y-126429400D01*
X127031157Y-126429400D01*
X126793331Y-126476707D01*
X126569303Y-126569502D01*
X126367683Y-126704220D01*
X126196220Y-126875683D01*
X126061502Y-127077303D01*
X125968707Y-127301331D01*
X125921400Y-127539157D01*
X125843400Y-127539157D01*
X125796093Y-127301331D01*
X125703298Y-127077303D01*
X125568580Y-126875683D01*
X125397117Y-126704220D01*
X125195497Y-126569502D01*
X124971469Y-126476707D01*
X124733643Y-126429400D01*
X124491157Y-126429400D01*
X124253331Y-126476707D01*
X124178234Y-126507813D01*
X123990999Y-126320579D01*
X123990999Y-116025704D01*
X124029303Y-116051298D01*
X124253331Y-116144093D01*
X124491157Y-116191400D01*
X124733643Y-116191400D01*
X124971469Y-116144093D01*
X125195497Y-116051298D01*
X125397117Y-115916580D01*
X125568580Y-115745117D01*
X125703298Y-115543497D01*
X125796093Y-115319469D01*
X125843400Y-115081643D01*
X125843400Y-114839157D01*
X125921400Y-114839157D01*
X125921400Y-115081643D01*
X125968707Y-115319469D01*
X126061502Y-115543497D01*
X126196220Y-115745117D01*
X126367683Y-115916580D01*
X126569303Y-116051298D01*
X126793331Y-116144093D01*
X127031157Y-116191400D01*
X127273643Y-116191400D01*
X127511469Y-116144093D01*
X127735497Y-116051298D01*
X127937117Y-115916580D01*
X128108580Y-115745117D01*
X128243298Y-115543497D01*
X128336093Y-115319469D01*
X128383400Y-115081643D01*
X128383400Y-114839157D01*
X128461400Y-114839157D01*
X128461400Y-115081643D01*
X128508707Y-115319469D01*
X128601502Y-115543497D01*
X128736220Y-115745117D01*
X128907683Y-115916580D01*
X129109303Y-116051298D01*
X129333331Y-116144093D01*
X129571157Y-116191400D01*
X129813643Y-116191400D01*
X130051469Y-116144093D01*
X130275497Y-116051298D01*
X130313801Y-116025704D01*
X130313802Y-126224847D01*
X130311344Y-126249801D01*
X130318421Y-126321647D01*
X130196499Y-126263575D01*
X130049290Y-126218924D01*
X129819400Y-126340245D01*
X129819400Y-127533400D01*
X129839400Y-127533400D01*
X129839400Y-127787400D01*
X129819400Y-127787400D01*
X129819400Y-128980555D01*
X130049290Y-129101876D01*
X130196499Y-129057225D01*
X130459320Y-128932041D01*
X130692669Y-128757988D01*
X130887578Y-128541755D01*
X131036557Y-128291652D01*
X131094172Y-128129232D01*
X131141502Y-128243497D01*
X131276220Y-128445117D01*
X131447683Y-128616580D01*
X131649303Y-128751298D01*
X131873331Y-128844093D01*
X132111157Y-128891400D01*
X132353643Y-128891400D01*
X132591469Y-128844093D01*
X132815497Y-128751298D01*
X133017117Y-128616580D01*
X133188580Y-128445117D01*
X133323298Y-128243497D01*
X133416093Y-128019469D01*
X133463400Y-127781643D01*
X133463400Y-127539157D01*
X133416093Y-127301331D01*
X133323298Y-127077303D01*
X133188580Y-126875683D01*
X133017117Y-126704220D01*
X132815497Y-126569502D01*
X132591469Y-126476707D01*
X132353643Y-126429400D01*
X132111157Y-126429400D01*
X131873331Y-126476707D01*
X131798234Y-126507813D01*
X131329801Y-126039381D01*
X131329801Y-115798698D01*
X131447683Y-115916580D01*
X131649303Y-116051298D01*
X131873331Y-116144093D01*
X132111157Y-116191400D01*
X132353643Y-116191400D01*
X132591469Y-116144093D01*
X132815497Y-116051298D01*
X132853801Y-116025704D01*
X132853802Y-126224847D01*
X132851344Y-126249801D01*
X132861153Y-126349385D01*
X132890201Y-126445144D01*
X132937372Y-126533396D01*
X132967004Y-126569502D01*
X133000854Y-126610749D01*
X133020231Y-126626651D01*
X133619813Y-127226234D01*
X133588707Y-127301331D01*
X133541400Y-127539157D01*
X133541400Y-127781643D01*
X133588707Y-128019469D01*
X133681502Y-128243497D01*
X133816220Y-128445117D01*
X133987683Y-128616580D01*
X134189303Y-128751298D01*
X134413331Y-128844093D01*
X134651157Y-128891400D01*
X134893643Y-128891400D01*
X135131469Y-128844093D01*
X135355497Y-128751298D01*
X135557117Y-128616580D01*
X135728580Y-128445117D01*
X135863298Y-128243497D01*
X135956093Y-128019469D01*
X136003400Y-127781643D01*
X136003400Y-127539157D01*
X135956093Y-127301331D01*
X135863298Y-127077303D01*
X135728580Y-126875683D01*
X135663297Y-126810400D01*
X136079557Y-126810400D01*
X136079557Y-128510400D01*
X136086913Y-128585089D01*
X136108699Y-128656908D01*
X136144078Y-128723096D01*
X136191689Y-128781111D01*
X136249704Y-128828722D01*
X136315892Y-128864101D01*
X136387711Y-128885887D01*
X136462400Y-128893243D01*
X138162400Y-128893243D01*
X138237089Y-128885887D01*
X138308908Y-128864101D01*
X138375096Y-128828722D01*
X138433111Y-128781111D01*
X138480722Y-128723096D01*
X138516101Y-128656908D01*
X138537887Y-128585089D01*
X138545243Y-128510400D01*
X138545243Y-126810400D01*
X138537887Y-126735711D01*
X138516101Y-126663892D01*
X138480722Y-126597704D01*
X138433111Y-126539689D01*
X138375096Y-126492078D01*
X138308908Y-126456699D01*
X138237089Y-126434913D01*
X138162400Y-126427557D01*
X136462400Y-126427557D01*
X136387711Y-126434913D01*
X136315892Y-126456699D01*
X136249704Y-126492078D01*
X136191689Y-126539689D01*
X136144078Y-126597704D01*
X136108699Y-126663892D01*
X136086913Y-126735711D01*
X136079557Y-126810400D01*
X135663297Y-126810400D01*
X135557117Y-126704220D01*
X135355497Y-126569502D01*
X135131469Y-126476707D01*
X134893643Y-126429400D01*
X134651157Y-126429400D01*
X134413331Y-126476707D01*
X134338234Y-126507813D01*
X133869801Y-126039381D01*
X133869801Y-124816890D01*
X165407524Y-124816890D01*
X165452175Y-124964099D01*
X165577359Y-125226920D01*
X165751412Y-125460269D01*
X165967645Y-125655178D01*
X166217748Y-125804157D01*
X166380168Y-125861772D01*
X166265903Y-125909102D01*
X166064283Y-126043820D01*
X165892820Y-126215283D01*
X165758102Y-126416903D01*
X165665307Y-126640931D01*
X165618000Y-126878757D01*
X165618000Y-127121243D01*
X165665307Y-127359069D01*
X165758102Y-127583097D01*
X165892820Y-127784717D01*
X166064283Y-127956180D01*
X166265903Y-128090898D01*
X166489931Y-128183693D01*
X166727757Y-128231000D01*
X166970243Y-128231000D01*
X167208069Y-128183693D01*
X167432097Y-128090898D01*
X167633717Y-127956180D01*
X167805180Y-127784717D01*
X167939898Y-127583097D01*
X168032693Y-127359069D01*
X168080000Y-127121243D01*
X168080000Y-126878757D01*
X168032693Y-126640931D01*
X167939898Y-126416903D01*
X167805180Y-126215283D01*
X167633717Y-126043820D01*
X167432097Y-125909102D01*
X167317832Y-125861772D01*
X167480252Y-125804157D01*
X167730355Y-125655178D01*
X167946588Y-125460269D01*
X168120641Y-125226920D01*
X168245825Y-124964099D01*
X168290476Y-124816890D01*
X168169155Y-124587000D01*
X166976000Y-124587000D01*
X166976000Y-124607000D01*
X166722000Y-124607000D01*
X166722000Y-124587000D01*
X165528845Y-124587000D01*
X165407524Y-124816890D01*
X133869801Y-124816890D01*
X133869801Y-124103110D01*
X165407524Y-124103110D01*
X165528845Y-124333000D01*
X166722000Y-124333000D01*
X166722000Y-124313000D01*
X166976000Y-124313000D01*
X166976000Y-124333000D01*
X168169155Y-124333000D01*
X168290476Y-124103110D01*
X168245825Y-123955901D01*
X168120641Y-123693080D01*
X167946588Y-123459731D01*
X167730355Y-123264822D01*
X167480252Y-123115843D01*
X167317832Y-123058228D01*
X167432097Y-123010898D01*
X167633717Y-122876180D01*
X167805180Y-122704717D01*
X167939898Y-122503097D01*
X168032693Y-122279069D01*
X168080000Y-122041243D01*
X168080000Y-121798757D01*
X168032693Y-121560931D01*
X167939898Y-121336903D01*
X167805180Y-121135283D01*
X167633717Y-120963820D01*
X167432097Y-120829102D01*
X167208069Y-120736307D01*
X166970243Y-120689000D01*
X166727757Y-120689000D01*
X166489931Y-120736307D01*
X166265903Y-120829102D01*
X166064283Y-120963820D01*
X165892820Y-121135283D01*
X165758102Y-121336903D01*
X165665307Y-121560931D01*
X165618000Y-121798757D01*
X165618000Y-122041243D01*
X165665307Y-122279069D01*
X165758102Y-122503097D01*
X165892820Y-122704717D01*
X166064283Y-122876180D01*
X166265903Y-123010898D01*
X166380168Y-123058228D01*
X166217748Y-123115843D01*
X165967645Y-123264822D01*
X165751412Y-123459731D01*
X165577359Y-123693080D01*
X165452175Y-123955901D01*
X165407524Y-124103110D01*
X133869801Y-124103110D01*
X133869801Y-121798757D01*
X150378000Y-121798757D01*
X150378000Y-122041243D01*
X150425307Y-122279069D01*
X150518102Y-122503097D01*
X150652820Y-122704717D01*
X150824283Y-122876180D01*
X151025903Y-123010898D01*
X151249931Y-123103693D01*
X151487757Y-123151000D01*
X151730243Y-123151000D01*
X151968069Y-123103693D01*
X152192097Y-123010898D01*
X152393717Y-122876180D01*
X152565180Y-122704717D01*
X152699898Y-122503097D01*
X152792693Y-122279069D01*
X152840000Y-122041243D01*
X152840000Y-121798757D01*
X152792693Y-121560931D01*
X152699898Y-121336903D01*
X152565180Y-121135283D01*
X152393717Y-120963820D01*
X152192097Y-120829102D01*
X151968069Y-120736307D01*
X151730243Y-120689000D01*
X151487757Y-120689000D01*
X151249931Y-120736307D01*
X151025903Y-120829102D01*
X150824283Y-120963820D01*
X150652820Y-121135283D01*
X150518102Y-121336903D01*
X150425307Y-121560931D01*
X150378000Y-121798757D01*
X133869801Y-121798757D01*
X133869801Y-119258757D01*
X150378000Y-119258757D01*
X150378000Y-119501243D01*
X150425307Y-119739069D01*
X150518102Y-119963097D01*
X150652820Y-120164717D01*
X150824283Y-120336180D01*
X151025903Y-120470898D01*
X151249931Y-120563693D01*
X151487757Y-120611000D01*
X151730243Y-120611000D01*
X151968069Y-120563693D01*
X152192097Y-120470898D01*
X152393717Y-120336180D01*
X152565180Y-120164717D01*
X152699898Y-119963097D01*
X152792693Y-119739069D01*
X152840000Y-119501243D01*
X152840000Y-119258757D01*
X152792693Y-119020931D01*
X152699898Y-118796903D01*
X152565180Y-118595283D01*
X152393717Y-118423820D01*
X152192097Y-118289102D01*
X151968069Y-118196307D01*
X151730243Y-118149000D01*
X151487757Y-118149000D01*
X151249931Y-118196307D01*
X151025903Y-118289102D01*
X150824283Y-118423820D01*
X150652820Y-118595283D01*
X150518102Y-118796903D01*
X150425307Y-119020931D01*
X150378000Y-119258757D01*
X133869801Y-119258757D01*
X133869801Y-116718757D01*
X150378000Y-116718757D01*
X150378000Y-116961243D01*
X150425307Y-117199069D01*
X150518102Y-117423097D01*
X150652820Y-117624717D01*
X150824283Y-117796180D01*
X151025903Y-117930898D01*
X151249931Y-118023693D01*
X151487757Y-118071000D01*
X151730243Y-118071000D01*
X151968069Y-118023693D01*
X152192097Y-117930898D01*
X152393717Y-117796180D01*
X152565180Y-117624717D01*
X152699898Y-117423097D01*
X152792693Y-117199069D01*
X152840000Y-116961243D01*
X152840000Y-116718757D01*
X152792693Y-116480931D01*
X152699898Y-116256903D01*
X152565180Y-116055283D01*
X152393717Y-115883820D01*
X152192097Y-115749102D01*
X151968069Y-115656307D01*
X151730243Y-115609000D01*
X151487757Y-115609000D01*
X151249931Y-115656307D01*
X151025903Y-115749102D01*
X150824283Y-115883820D01*
X150652820Y-116055283D01*
X150518102Y-116256903D01*
X150425307Y-116480931D01*
X150378000Y-116718757D01*
X133869801Y-116718757D01*
X133869801Y-115798698D01*
X133987683Y-115916580D01*
X134189303Y-116051298D01*
X134413331Y-116144093D01*
X134651157Y-116191400D01*
X134893643Y-116191400D01*
X135131469Y-116144093D01*
X135355497Y-116051298D01*
X135557117Y-115916580D01*
X135728580Y-115745117D01*
X135863298Y-115543497D01*
X135956093Y-115319469D01*
X136003400Y-115081643D01*
X136003400Y-114839157D01*
X135956093Y-114601331D01*
X135863298Y-114377303D01*
X135728580Y-114175683D01*
X135663297Y-114110400D01*
X136079557Y-114110400D01*
X136079557Y-115810400D01*
X136086913Y-115885089D01*
X136108699Y-115956908D01*
X136144078Y-116023096D01*
X136191689Y-116081111D01*
X136249704Y-116128722D01*
X136315892Y-116164101D01*
X136387711Y-116185887D01*
X136462400Y-116193243D01*
X138162400Y-116193243D01*
X138237089Y-116185887D01*
X138308908Y-116164101D01*
X138375096Y-116128722D01*
X138433111Y-116081111D01*
X138480722Y-116023096D01*
X138516101Y-115956908D01*
X138537887Y-115885089D01*
X138545243Y-115810400D01*
X138545243Y-114178757D01*
X150378000Y-114178757D01*
X150378000Y-114421243D01*
X150425307Y-114659069D01*
X150518102Y-114883097D01*
X150652820Y-115084717D01*
X150824283Y-115256180D01*
X151025903Y-115390898D01*
X151249931Y-115483693D01*
X151487757Y-115531000D01*
X151730243Y-115531000D01*
X151968069Y-115483693D01*
X152192097Y-115390898D01*
X152393717Y-115256180D01*
X152565180Y-115084717D01*
X152699898Y-114883097D01*
X152792693Y-114659069D01*
X152840000Y-114421243D01*
X152840000Y-114178757D01*
X152792693Y-113940931D01*
X152699898Y-113716903D01*
X152565180Y-113515283D01*
X152393717Y-113343820D01*
X152192097Y-113209102D01*
X151968069Y-113116307D01*
X151730243Y-113069000D01*
X151487757Y-113069000D01*
X151249931Y-113116307D01*
X151025903Y-113209102D01*
X150824283Y-113343820D01*
X150652820Y-113515283D01*
X150518102Y-113716903D01*
X150425307Y-113940931D01*
X150378000Y-114178757D01*
X138545243Y-114178757D01*
X138545243Y-114110400D01*
X138537887Y-114035711D01*
X138516101Y-113963892D01*
X138480722Y-113897704D01*
X138433111Y-113839689D01*
X138375096Y-113792078D01*
X138308908Y-113756699D01*
X138237089Y-113734913D01*
X138162400Y-113727557D01*
X136462400Y-113727557D01*
X136387711Y-113734913D01*
X136315892Y-113756699D01*
X136249704Y-113792078D01*
X136191689Y-113839689D01*
X136144078Y-113897704D01*
X136108699Y-113963892D01*
X136086913Y-114035711D01*
X136079557Y-114110400D01*
X135663297Y-114110400D01*
X135557117Y-114004220D01*
X135355497Y-113869502D01*
X135131469Y-113776707D01*
X134893643Y-113729400D01*
X134651157Y-113729400D01*
X134413331Y-113776707D01*
X134189303Y-113869502D01*
X133987683Y-114004220D01*
X133869801Y-114122102D01*
X133869801Y-111638757D01*
X150378000Y-111638757D01*
X150378000Y-111881243D01*
X150425307Y-112119069D01*
X150518102Y-112343097D01*
X150652820Y-112544717D01*
X150824283Y-112716180D01*
X151025903Y-112850898D01*
X151249931Y-112943693D01*
X151487757Y-112991000D01*
X151730243Y-112991000D01*
X151968069Y-112943693D01*
X152192097Y-112850898D01*
X152393717Y-112716180D01*
X152565180Y-112544717D01*
X152699898Y-112343097D01*
X152792693Y-112119069D01*
X152840000Y-111881243D01*
X152840000Y-111638757D01*
X152792693Y-111400931D01*
X152699898Y-111176903D01*
X152565180Y-110975283D01*
X152393717Y-110803820D01*
X152192097Y-110669102D01*
X151968069Y-110576307D01*
X151730243Y-110529000D01*
X151487757Y-110529000D01*
X151249931Y-110576307D01*
X151025903Y-110669102D01*
X150824283Y-110803820D01*
X150652820Y-110975283D01*
X150518102Y-111176903D01*
X150425307Y-111400931D01*
X150378000Y-111638757D01*
X133869801Y-111638757D01*
X133869801Y-109545619D01*
X134312834Y-109102587D01*
X134387931Y-109133693D01*
X134625757Y-109181000D01*
X134868243Y-109181000D01*
X135106069Y-109133693D01*
X135330097Y-109040898D01*
X135531717Y-108906180D01*
X135703180Y-108734717D01*
X135837898Y-108533097D01*
X135930693Y-108309069D01*
X135978000Y-108071243D01*
X135978000Y-107828757D01*
X135930693Y-107590931D01*
X135837898Y-107366903D01*
X135703180Y-107165283D01*
X135637897Y-107100000D01*
X136054157Y-107100000D01*
X136054157Y-108800000D01*
X136061513Y-108874689D01*
X136083299Y-108946508D01*
X136118678Y-109012696D01*
X136166289Y-109070711D01*
X136224304Y-109118322D01*
X136290492Y-109153701D01*
X136362311Y-109175487D01*
X136437000Y-109182843D01*
X138137000Y-109182843D01*
X138211689Y-109175487D01*
X138283508Y-109153701D01*
X138349696Y-109118322D01*
X138373536Y-109098757D01*
X150378000Y-109098757D01*
X150378000Y-109341243D01*
X150425307Y-109579069D01*
X150518102Y-109803097D01*
X150652820Y-110004717D01*
X150824283Y-110176180D01*
X151025903Y-110310898D01*
X151249931Y-110403693D01*
X151487757Y-110451000D01*
X151730243Y-110451000D01*
X151968069Y-110403693D01*
X152192097Y-110310898D01*
X152393717Y-110176180D01*
X152565180Y-110004717D01*
X152699898Y-109803097D01*
X152792693Y-109579069D01*
X152840000Y-109341243D01*
X152840000Y-109098757D01*
X152792693Y-108860931D01*
X152699898Y-108636903D01*
X152565180Y-108435283D01*
X152393717Y-108263820D01*
X152192097Y-108129102D01*
X151968069Y-108036307D01*
X151730243Y-107989000D01*
X151487757Y-107989000D01*
X151249931Y-108036307D01*
X151025903Y-108129102D01*
X150824283Y-108263820D01*
X150652820Y-108435283D01*
X150518102Y-108636903D01*
X150425307Y-108860931D01*
X150378000Y-109098757D01*
X138373536Y-109098757D01*
X138407711Y-109070711D01*
X138455322Y-109012696D01*
X138490701Y-108946508D01*
X138512487Y-108874689D01*
X138519843Y-108800000D01*
X138519843Y-107100000D01*
X138512487Y-107025311D01*
X138490701Y-106953492D01*
X138455322Y-106887304D01*
X138407711Y-106829289D01*
X138349696Y-106781678D01*
X138283508Y-106746299D01*
X138211689Y-106724513D01*
X138137000Y-106717157D01*
X136437000Y-106717157D01*
X136362311Y-106724513D01*
X136290492Y-106746299D01*
X136224304Y-106781678D01*
X136166289Y-106829289D01*
X136118678Y-106887304D01*
X136083299Y-106953492D01*
X136061513Y-107025311D01*
X136054157Y-107100000D01*
X135637897Y-107100000D01*
X135531717Y-106993820D01*
X135330097Y-106859102D01*
X135106069Y-106766307D01*
X134868243Y-106719000D01*
X134625757Y-106719000D01*
X134387931Y-106766307D01*
X134163903Y-106859102D01*
X133962283Y-106993820D01*
X133790820Y-107165283D01*
X133656102Y-107366903D01*
X133563307Y-107590931D01*
X133516000Y-107828757D01*
X133516000Y-108071243D01*
X133563307Y-108309069D01*
X133594413Y-108384166D01*
X133020236Y-108958344D01*
X133000853Y-108974251D01*
X132937372Y-109051604D01*
X132890200Y-109139857D01*
X132861152Y-109235615D01*
X132853805Y-109310217D01*
X132851344Y-109335199D01*
X132853801Y-109360143D01*
X132853801Y-113895096D01*
X132815497Y-113869502D01*
X132591469Y-113776707D01*
X132353643Y-113729400D01*
X132111157Y-113729400D01*
X131873331Y-113776707D01*
X131649303Y-113869502D01*
X131447683Y-114004220D01*
X131329801Y-114122102D01*
X131329801Y-109545619D01*
X131772834Y-109102587D01*
X131847931Y-109133693D01*
X132085757Y-109181000D01*
X132328243Y-109181000D01*
X132566069Y-109133693D01*
X132790097Y-109040898D01*
X132991717Y-108906180D01*
X133163180Y-108734717D01*
X133297898Y-108533097D01*
X133390693Y-108309069D01*
X133438000Y-108071243D01*
X133438000Y-107828757D01*
X133390693Y-107590931D01*
X133297898Y-107366903D01*
X133163180Y-107165283D01*
X132991717Y-106993820D01*
X132790097Y-106859102D01*
X132566069Y-106766307D01*
X132328243Y-106719000D01*
X132085757Y-106719000D01*
X131847931Y-106766307D01*
X131623903Y-106859102D01*
X131422283Y-106993820D01*
X131250820Y-107165283D01*
X131116102Y-107366903D01*
X131068772Y-107481168D01*
X131011157Y-107318748D01*
X130862178Y-107068645D01*
X130667269Y-106852412D01*
X130433920Y-106678359D01*
X130182819Y-106558757D01*
X150378000Y-106558757D01*
X150378000Y-106801243D01*
X150425307Y-107039069D01*
X150518102Y-107263097D01*
X150652820Y-107464717D01*
X150824283Y-107636180D01*
X151025903Y-107770898D01*
X151249931Y-107863693D01*
X151487757Y-107911000D01*
X151730243Y-107911000D01*
X151968069Y-107863693D01*
X152192097Y-107770898D01*
X152393717Y-107636180D01*
X152565180Y-107464717D01*
X152699898Y-107263097D01*
X152792693Y-107039069D01*
X152840000Y-106801243D01*
X152840000Y-106558757D01*
X152792693Y-106320931D01*
X152699898Y-106096903D01*
X152565180Y-105895283D01*
X152393717Y-105723820D01*
X152192097Y-105589102D01*
X151968069Y-105496307D01*
X151730243Y-105449000D01*
X151487757Y-105449000D01*
X151249931Y-105496307D01*
X151025903Y-105589102D01*
X150824283Y-105723820D01*
X150652820Y-105895283D01*
X150518102Y-106096903D01*
X150425307Y-106320931D01*
X150378000Y-106558757D01*
X130182819Y-106558757D01*
X130171099Y-106553175D01*
X130023890Y-106508524D01*
X129794000Y-106629845D01*
X129794000Y-107823000D01*
X129814000Y-107823000D01*
X129814000Y-108077000D01*
X129794000Y-108077000D01*
X129794000Y-109270155D01*
X130023890Y-109391476D01*
X130171099Y-109346825D01*
X130317046Y-109277309D01*
X130313805Y-109310217D01*
X130311344Y-109335199D01*
X130313801Y-109360143D01*
X130313801Y-113895096D01*
X130275497Y-113869502D01*
X130051469Y-113776707D01*
X129813643Y-113729400D01*
X129571157Y-113729400D01*
X129333331Y-113776707D01*
X129109303Y-113869502D01*
X128907683Y-114004220D01*
X128736220Y-114175683D01*
X128601502Y-114377303D01*
X128508707Y-114601331D01*
X128461400Y-114839157D01*
X128383400Y-114839157D01*
X128336093Y-114601331D01*
X128243298Y-114377303D01*
X128108580Y-114175683D01*
X127937117Y-114004220D01*
X127735497Y-113869502D01*
X127511469Y-113776707D01*
X127273643Y-113729400D01*
X127031157Y-113729400D01*
X126793331Y-113776707D01*
X126569303Y-113869502D01*
X126367683Y-114004220D01*
X126196220Y-114175683D01*
X126061502Y-114377303D01*
X125968707Y-114601331D01*
X125921400Y-114839157D01*
X125843400Y-114839157D01*
X125796093Y-114601331D01*
X125703298Y-114377303D01*
X125568580Y-114175683D01*
X125397117Y-114004220D01*
X125195497Y-113869502D01*
X124971469Y-113776707D01*
X124733643Y-113729400D01*
X124491157Y-113729400D01*
X124253331Y-113776707D01*
X124029303Y-113869502D01*
X123990999Y-113895096D01*
X123990999Y-109264421D01*
X124152834Y-109102587D01*
X124227931Y-109133693D01*
X124465757Y-109181000D01*
X124708243Y-109181000D01*
X124946069Y-109133693D01*
X125170097Y-109040898D01*
X125371717Y-108906180D01*
X125543180Y-108734717D01*
X125677898Y-108533097D01*
X125770693Y-108309069D01*
X125818000Y-108071243D01*
X125818000Y-107828757D01*
X125896000Y-107828757D01*
X125896000Y-108071243D01*
X125943307Y-108309069D01*
X126036102Y-108533097D01*
X126170820Y-108734717D01*
X126342283Y-108906180D01*
X126543903Y-109040898D01*
X126767931Y-109133693D01*
X127005757Y-109181000D01*
X127248243Y-109181000D01*
X127486069Y-109133693D01*
X127710097Y-109040898D01*
X127911717Y-108906180D01*
X128083180Y-108734717D01*
X128217898Y-108533097D01*
X128265228Y-108418832D01*
X128322843Y-108581252D01*
X128471822Y-108831355D01*
X128666731Y-109047588D01*
X128900080Y-109221641D01*
X129162901Y-109346825D01*
X129310110Y-109391476D01*
X129540000Y-109270155D01*
X129540000Y-108077000D01*
X129520000Y-108077000D01*
X129520000Y-107823000D01*
X129540000Y-107823000D01*
X129540000Y-106629845D01*
X129310110Y-106508524D01*
X129162901Y-106553175D01*
X128900080Y-106678359D01*
X128666731Y-106852412D01*
X128471822Y-107068645D01*
X128322843Y-107318748D01*
X128265228Y-107481168D01*
X128217898Y-107366903D01*
X128083180Y-107165283D01*
X127911717Y-106993820D01*
X127710097Y-106859102D01*
X127486069Y-106766307D01*
X127248243Y-106719000D01*
X127005757Y-106719000D01*
X126767931Y-106766307D01*
X126543903Y-106859102D01*
X126342283Y-106993820D01*
X126170820Y-107165283D01*
X126036102Y-107366903D01*
X125943307Y-107590931D01*
X125896000Y-107828757D01*
X125818000Y-107828757D01*
X125770693Y-107590931D01*
X125750108Y-107541234D01*
X126100452Y-107190890D01*
X126120796Y-107174194D01*
X126187452Y-107092974D01*
X126236982Y-107000310D01*
X126267482Y-106899764D01*
X126275201Y-106821394D01*
X126275201Y-106821387D01*
X126277780Y-106795200D01*
X126275201Y-106769013D01*
X126275201Y-104018757D01*
X150378000Y-104018757D01*
X150378000Y-104261243D01*
X150425307Y-104499069D01*
X150518102Y-104723097D01*
X150652820Y-104924717D01*
X150824283Y-105096180D01*
X151025903Y-105230898D01*
X151249931Y-105323693D01*
X151487757Y-105371000D01*
X151730243Y-105371000D01*
X151968069Y-105323693D01*
X152192097Y-105230898D01*
X152393717Y-105096180D01*
X152565180Y-104924717D01*
X152699898Y-104723097D01*
X152792693Y-104499069D01*
X152840000Y-104261243D01*
X152840000Y-104018757D01*
X152792693Y-103780931D01*
X152699898Y-103556903D01*
X152565180Y-103355283D01*
X152393717Y-103183820D01*
X152192097Y-103049102D01*
X151968069Y-102956307D01*
X151730243Y-102909000D01*
X151487757Y-102909000D01*
X151249931Y-102956307D01*
X151025903Y-103049102D01*
X150824283Y-103183820D01*
X150652820Y-103355283D01*
X150518102Y-103556903D01*
X150425307Y-103780931D01*
X150378000Y-104018757D01*
X126275201Y-104018757D01*
X126275201Y-101478757D01*
X150378000Y-101478757D01*
X150378000Y-101721243D01*
X150425307Y-101959069D01*
X150518102Y-102183097D01*
X150652820Y-102384717D01*
X150824283Y-102556180D01*
X151025903Y-102690898D01*
X151249931Y-102783693D01*
X151487757Y-102831000D01*
X151730243Y-102831000D01*
X151968069Y-102783693D01*
X152192097Y-102690898D01*
X152393717Y-102556180D01*
X152565180Y-102384717D01*
X152699898Y-102183097D01*
X152792693Y-101959069D01*
X152840000Y-101721243D01*
X152840000Y-101478757D01*
X152792693Y-101240931D01*
X152699898Y-101016903D01*
X152565180Y-100815283D01*
X152393717Y-100643820D01*
X152192097Y-100509102D01*
X151968069Y-100416307D01*
X151730243Y-100369000D01*
X151487757Y-100369000D01*
X151249931Y-100416307D01*
X151025903Y-100509102D01*
X150824283Y-100643820D01*
X150652820Y-100815283D01*
X150518102Y-101016903D01*
X150425307Y-101240931D01*
X150378000Y-101478757D01*
X126275201Y-101478757D01*
X126275201Y-98938757D01*
X150378000Y-98938757D01*
X150378000Y-99181243D01*
X150425307Y-99419069D01*
X150518102Y-99643097D01*
X150652820Y-99844717D01*
X150824283Y-100016180D01*
X151025903Y-100150898D01*
X151249931Y-100243693D01*
X151487757Y-100291000D01*
X151730243Y-100291000D01*
X151968069Y-100243693D01*
X152192097Y-100150898D01*
X152393717Y-100016180D01*
X152565180Y-99844717D01*
X152699898Y-99643097D01*
X152792693Y-99419069D01*
X152840000Y-99181243D01*
X152840000Y-98938757D01*
X152792693Y-98700931D01*
X152699898Y-98476903D01*
X152565180Y-98275283D01*
X152393717Y-98103820D01*
X152192097Y-97969102D01*
X151968069Y-97876307D01*
X151730243Y-97829000D01*
X151487757Y-97829000D01*
X151249931Y-97876307D01*
X151025903Y-97969102D01*
X150824283Y-98103820D01*
X150652820Y-98275283D01*
X150518102Y-98476903D01*
X150425307Y-98700931D01*
X150378000Y-98938757D01*
X126275201Y-98938757D01*
X126275201Y-96139098D01*
X126342283Y-96206180D01*
X126543903Y-96340898D01*
X126767931Y-96433693D01*
X127005757Y-96481000D01*
X127248243Y-96481000D01*
X127486069Y-96433693D01*
X127710097Y-96340898D01*
X127911717Y-96206180D01*
X128083180Y-96034717D01*
X128217898Y-95833097D01*
X128310693Y-95609069D01*
X128358000Y-95371243D01*
X128358000Y-95128757D01*
X128436000Y-95128757D01*
X128436000Y-95371243D01*
X128483307Y-95609069D01*
X128576102Y-95833097D01*
X128710820Y-96034717D01*
X128882283Y-96206180D01*
X129083903Y-96340898D01*
X129307931Y-96433693D01*
X129545757Y-96481000D01*
X129788243Y-96481000D01*
X130026069Y-96433693D01*
X130250097Y-96340898D01*
X130451717Y-96206180D01*
X130623180Y-96034717D01*
X130757898Y-95833097D01*
X130850693Y-95609069D01*
X130898000Y-95371243D01*
X130898000Y-95128757D01*
X130976000Y-95128757D01*
X130976000Y-95371243D01*
X131023307Y-95609069D01*
X131116102Y-95833097D01*
X131250820Y-96034717D01*
X131422283Y-96206180D01*
X131623903Y-96340898D01*
X131847931Y-96433693D01*
X132085757Y-96481000D01*
X132328243Y-96481000D01*
X132566069Y-96433693D01*
X132790097Y-96340898D01*
X132991717Y-96206180D01*
X133163180Y-96034717D01*
X133297898Y-95833097D01*
X133390693Y-95609069D01*
X133438000Y-95371243D01*
X133438000Y-95128757D01*
X133516000Y-95128757D01*
X133516000Y-95371243D01*
X133563307Y-95609069D01*
X133656102Y-95833097D01*
X133790820Y-96034717D01*
X133962283Y-96206180D01*
X134163903Y-96340898D01*
X134387931Y-96433693D01*
X134625757Y-96481000D01*
X134868243Y-96481000D01*
X135106069Y-96433693D01*
X135330097Y-96340898D01*
X135531717Y-96206180D01*
X135703180Y-96034717D01*
X135837898Y-95833097D01*
X135930693Y-95609069D01*
X135978000Y-95371243D01*
X135978000Y-95128757D01*
X135930693Y-94890931D01*
X135837898Y-94666903D01*
X135703180Y-94465283D01*
X135637897Y-94400000D01*
X136054157Y-94400000D01*
X136054157Y-96100000D01*
X136061513Y-96174689D01*
X136083299Y-96246508D01*
X136118678Y-96312696D01*
X136166289Y-96370711D01*
X136224304Y-96418322D01*
X136290492Y-96453701D01*
X136362311Y-96475487D01*
X136437000Y-96482843D01*
X138137000Y-96482843D01*
X138211689Y-96475487D01*
X138283508Y-96453701D01*
X138349696Y-96418322D01*
X138373536Y-96398757D01*
X150378000Y-96398757D01*
X150378000Y-96641243D01*
X150425307Y-96879069D01*
X150518102Y-97103097D01*
X150652820Y-97304717D01*
X150824283Y-97476180D01*
X151025903Y-97610898D01*
X151249931Y-97703693D01*
X151487757Y-97751000D01*
X151730243Y-97751000D01*
X151968069Y-97703693D01*
X152192097Y-97610898D01*
X152393717Y-97476180D01*
X152565180Y-97304717D01*
X152699898Y-97103097D01*
X152792693Y-96879069D01*
X152840000Y-96641243D01*
X152840000Y-96398757D01*
X152792693Y-96160931D01*
X152699898Y-95936903D01*
X152565180Y-95735283D01*
X152393717Y-95563820D01*
X152192097Y-95429102D01*
X151968069Y-95336307D01*
X151730243Y-95289000D01*
X151487757Y-95289000D01*
X151249931Y-95336307D01*
X151025903Y-95429102D01*
X150824283Y-95563820D01*
X150652820Y-95735283D01*
X150518102Y-95936903D01*
X150425307Y-96160931D01*
X150378000Y-96398757D01*
X138373536Y-96398757D01*
X138407711Y-96370711D01*
X138455322Y-96312696D01*
X138490701Y-96246508D01*
X138512487Y-96174689D01*
X138519843Y-96100000D01*
X138519843Y-94400000D01*
X138512487Y-94325311D01*
X138490701Y-94253492D01*
X138455322Y-94187304D01*
X138407711Y-94129289D01*
X138349696Y-94081678D01*
X138283508Y-94046299D01*
X138211689Y-94024513D01*
X138137000Y-94017157D01*
X136437000Y-94017157D01*
X136362311Y-94024513D01*
X136290492Y-94046299D01*
X136224304Y-94081678D01*
X136166289Y-94129289D01*
X136118678Y-94187304D01*
X136083299Y-94253492D01*
X136061513Y-94325311D01*
X136054157Y-94400000D01*
X135637897Y-94400000D01*
X135531717Y-94293820D01*
X135330097Y-94159102D01*
X135106069Y-94066307D01*
X134868243Y-94019000D01*
X134625757Y-94019000D01*
X134387931Y-94066307D01*
X134163903Y-94159102D01*
X133962283Y-94293820D01*
X133790820Y-94465283D01*
X133656102Y-94666903D01*
X133563307Y-94890931D01*
X133516000Y-95128757D01*
X133438000Y-95128757D01*
X133390693Y-94890931D01*
X133297898Y-94666903D01*
X133163180Y-94465283D01*
X132991717Y-94293820D01*
X132790097Y-94159102D01*
X132566069Y-94066307D01*
X132328243Y-94019000D01*
X132085757Y-94019000D01*
X131847931Y-94066307D01*
X131623903Y-94159102D01*
X131422283Y-94293820D01*
X131250820Y-94465283D01*
X131116102Y-94666903D01*
X131023307Y-94890931D01*
X130976000Y-95128757D01*
X130898000Y-95128757D01*
X130850693Y-94890931D01*
X130757898Y-94666903D01*
X130623180Y-94465283D01*
X130451717Y-94293820D01*
X130250097Y-94159102D01*
X130026069Y-94066307D01*
X129788243Y-94019000D01*
X129545757Y-94019000D01*
X129307931Y-94066307D01*
X129083903Y-94159102D01*
X128882283Y-94293820D01*
X128710820Y-94465283D01*
X128576102Y-94666903D01*
X128483307Y-94890931D01*
X128436000Y-95128757D01*
X128358000Y-95128757D01*
X128310693Y-94890931D01*
X128217898Y-94666903D01*
X128083180Y-94465283D01*
X127911717Y-94293820D01*
X127710097Y-94159102D01*
X127486069Y-94066307D01*
X127248243Y-94019000D01*
X127005757Y-94019000D01*
X126767931Y-94066307D01*
X126543903Y-94159102D01*
X126342283Y-94293820D01*
X126275201Y-94360902D01*
X126275201Y-93130000D01*
X150376157Y-93130000D01*
X150376157Y-94830000D01*
X150383513Y-94904689D01*
X150405299Y-94976508D01*
X150440678Y-95042696D01*
X150488289Y-95100711D01*
X150546304Y-95148322D01*
X150612492Y-95183701D01*
X150684311Y-95205487D01*
X150759000Y-95212843D01*
X152459000Y-95212843D01*
X152533689Y-95205487D01*
X152605508Y-95183701D01*
X152671696Y-95148322D01*
X152729711Y-95100711D01*
X152777322Y-95042696D01*
X152812701Y-94976508D01*
X152834487Y-94904689D01*
X152841843Y-94830000D01*
X152841843Y-93130000D01*
X152834487Y-93055311D01*
X152812701Y-92983492D01*
X152777322Y-92917304D01*
X152729711Y-92859289D01*
X152671696Y-92811678D01*
X152605508Y-92776299D01*
X152533689Y-92754513D01*
X152459000Y-92747157D01*
X150759000Y-92747157D01*
X150684311Y-92754513D01*
X150612492Y-92776299D01*
X150546304Y-92811678D01*
X150488289Y-92859289D01*
X150440678Y-92917304D01*
X150405299Y-92983492D01*
X150383513Y-93055311D01*
X150376157Y-93130000D01*
X126275201Y-93130000D01*
X126275201Y-81933640D01*
X131442841Y-76766000D01*
X145521157Y-76766000D01*
X145521157Y-77666000D01*
X145532356Y-77779707D01*
X145565523Y-77889044D01*
X145619384Y-77989810D01*
X145691868Y-78078132D01*
X145770600Y-78142746D01*
X145770601Y-80712803D01*
X145768021Y-80739000D01*
X145778319Y-80843564D01*
X145808819Y-80944110D01*
X145834147Y-80991495D01*
X145858350Y-81036775D01*
X145885674Y-81070069D01*
X145908307Y-81097648D01*
X145908310Y-81097651D01*
X145925006Y-81117995D01*
X145945350Y-81134691D01*
X152703477Y-87892818D01*
X152594600Y-88155670D01*
X152530000Y-88480436D01*
X152530000Y-88811564D01*
X152594600Y-89136330D01*
X152721317Y-89442252D01*
X152905282Y-89717575D01*
X153139425Y-89951718D01*
X153414748Y-90135683D01*
X153720670Y-90262400D01*
X154045436Y-90327000D01*
X154376564Y-90327000D01*
X154701330Y-90262400D01*
X155007252Y-90135683D01*
X155282401Y-89951834D01*
X155282402Y-105780604D01*
X155279822Y-105806801D01*
X155290120Y-105911365D01*
X155320620Y-106011911D01*
X155363754Y-106092608D01*
X155370151Y-106104576D01*
X155397475Y-106137870D01*
X155420108Y-106165449D01*
X155420111Y-106165452D01*
X155436807Y-106185796D01*
X155457151Y-106202492D01*
X165685892Y-116431233D01*
X165665307Y-116480931D01*
X165618000Y-116718757D01*
X165618000Y-116961243D01*
X165665307Y-117199069D01*
X165758102Y-117423097D01*
X165892820Y-117624717D01*
X166064283Y-117796180D01*
X166265903Y-117930898D01*
X166489931Y-118023693D01*
X166727757Y-118071000D01*
X166970243Y-118071000D01*
X167208069Y-118023693D01*
X167432097Y-117930898D01*
X167470402Y-117905304D01*
X167470402Y-118004256D01*
X167257766Y-118216892D01*
X167208069Y-118196307D01*
X166970243Y-118149000D01*
X166727757Y-118149000D01*
X166489931Y-118196307D01*
X166265903Y-118289102D01*
X166064283Y-118423820D01*
X165892820Y-118595283D01*
X165758102Y-118796903D01*
X165665307Y-119020931D01*
X165618000Y-119258757D01*
X165618000Y-119501243D01*
X165665307Y-119739069D01*
X165758102Y-119963097D01*
X165892820Y-120164717D01*
X166064283Y-120336180D01*
X166265903Y-120470898D01*
X166489931Y-120563693D01*
X166727757Y-120611000D01*
X166970243Y-120611000D01*
X167208069Y-120563693D01*
X167432097Y-120470898D01*
X167633717Y-120336180D01*
X167805180Y-120164717D01*
X167939898Y-119963097D01*
X168032693Y-119739069D01*
X168080000Y-119501243D01*
X168080000Y-119258757D01*
X168032693Y-119020931D01*
X168012108Y-118971234D01*
X168362452Y-118620890D01*
X168382796Y-118604194D01*
X168449452Y-118522974D01*
X168498982Y-118430310D01*
X168529482Y-118329764D01*
X168537201Y-118251394D01*
X168537201Y-118251387D01*
X168539780Y-118225200D01*
X168537201Y-118199013D01*
X168537201Y-116311889D01*
X168539781Y-116285695D01*
X168536945Y-116256903D01*
X168529482Y-116181130D01*
X168498982Y-116080584D01*
X168449452Y-115987920D01*
X168382796Y-115906700D01*
X168362446Y-115889999D01*
X167799001Y-115326554D01*
X167782300Y-115306204D01*
X167701080Y-115239548D01*
X167668020Y-115221877D01*
X167805180Y-115084717D01*
X167939898Y-114883097D01*
X168032693Y-114659069D01*
X168080000Y-114421243D01*
X168080000Y-114178757D01*
X168032693Y-113940931D01*
X167939898Y-113716903D01*
X167805180Y-113515283D01*
X167633717Y-113343820D01*
X167432097Y-113209102D01*
X167208069Y-113116307D01*
X166970243Y-113069000D01*
X166727757Y-113069000D01*
X166489931Y-113116307D01*
X166265903Y-113209102D01*
X166064283Y-113343820D01*
X165892820Y-113515283D01*
X165758102Y-113716903D01*
X165665307Y-113940931D01*
X165618000Y-114178757D01*
X165618000Y-114208066D01*
X163048691Y-111638757D01*
X165618000Y-111638757D01*
X165618000Y-111881243D01*
X165665307Y-112119069D01*
X165758102Y-112343097D01*
X165892820Y-112544717D01*
X166064283Y-112716180D01*
X166265903Y-112850898D01*
X166489931Y-112943693D01*
X166727757Y-112991000D01*
X166970243Y-112991000D01*
X167208069Y-112943693D01*
X167432097Y-112850898D01*
X167633717Y-112716180D01*
X167805180Y-112544717D01*
X167939898Y-112343097D01*
X168032693Y-112119069D01*
X168080000Y-111881243D01*
X168080000Y-111638757D01*
X168032693Y-111400931D01*
X167939898Y-111176903D01*
X167805180Y-110975283D01*
X167633717Y-110803820D01*
X167432097Y-110669102D01*
X167208069Y-110576307D01*
X166970243Y-110529000D01*
X166727757Y-110529000D01*
X166489931Y-110576307D01*
X166265903Y-110669102D01*
X166064283Y-110803820D01*
X165892820Y-110975283D01*
X165758102Y-111176903D01*
X165665307Y-111400931D01*
X165618000Y-111638757D01*
X163048691Y-111638757D01*
X160508691Y-109098757D01*
X165618000Y-109098757D01*
X165618000Y-109341243D01*
X165665307Y-109579069D01*
X165758102Y-109803097D01*
X165892820Y-110004717D01*
X166064283Y-110176180D01*
X166265903Y-110310898D01*
X166489931Y-110403693D01*
X166727757Y-110451000D01*
X166970243Y-110451000D01*
X167208069Y-110403693D01*
X167432097Y-110310898D01*
X167633717Y-110176180D01*
X167805180Y-110004717D01*
X167939898Y-109803097D01*
X168032693Y-109579069D01*
X168080000Y-109341243D01*
X168080000Y-109098757D01*
X168032693Y-108860931D01*
X167939898Y-108636903D01*
X167805180Y-108435283D01*
X167633717Y-108263820D01*
X167432097Y-108129102D01*
X167208069Y-108036307D01*
X166970243Y-107989000D01*
X166727757Y-107989000D01*
X166489931Y-108036307D01*
X166265903Y-108129102D01*
X166064283Y-108263820D01*
X165892820Y-108435283D01*
X165758102Y-108636903D01*
X165665307Y-108860931D01*
X165618000Y-109098757D01*
X160508691Y-109098757D01*
X157968691Y-106558757D01*
X165618000Y-106558757D01*
X165618000Y-106801243D01*
X165665307Y-107039069D01*
X165758102Y-107263097D01*
X165892820Y-107464717D01*
X166064283Y-107636180D01*
X166265903Y-107770898D01*
X166489931Y-107863693D01*
X166727757Y-107911000D01*
X166970243Y-107911000D01*
X167208069Y-107863693D01*
X167432097Y-107770898D01*
X167633717Y-107636180D01*
X167805180Y-107464717D01*
X167939898Y-107263097D01*
X168032693Y-107039069D01*
X168080000Y-106801243D01*
X168080000Y-106558757D01*
X168032693Y-106320931D01*
X167939898Y-106096903D01*
X167805180Y-105895283D01*
X167633717Y-105723820D01*
X167432097Y-105589102D01*
X167208069Y-105496307D01*
X166970243Y-105449000D01*
X166727757Y-105449000D01*
X166489931Y-105496307D01*
X166265903Y-105589102D01*
X166064283Y-105723820D01*
X165892820Y-105895283D01*
X165758102Y-106096903D01*
X165665307Y-106320931D01*
X165618000Y-106558757D01*
X157968691Y-106558757D01*
X156806411Y-105396478D01*
X156806411Y-104018757D01*
X165618000Y-104018757D01*
X165618000Y-104261243D01*
X165665307Y-104499069D01*
X165758102Y-104723097D01*
X165892820Y-104924717D01*
X166064283Y-105096180D01*
X166265903Y-105230898D01*
X166489931Y-105323693D01*
X166727757Y-105371000D01*
X166970243Y-105371000D01*
X167208069Y-105323693D01*
X167432097Y-105230898D01*
X167633717Y-105096180D01*
X167805180Y-104924717D01*
X167939898Y-104723097D01*
X168032693Y-104499069D01*
X168080000Y-104261243D01*
X168080000Y-104018757D01*
X168032693Y-103780931D01*
X167939898Y-103556903D01*
X167805180Y-103355283D01*
X167633717Y-103183820D01*
X167432097Y-103049102D01*
X167208069Y-102956307D01*
X166970243Y-102909000D01*
X166727757Y-102909000D01*
X166489931Y-102956307D01*
X166265903Y-103049102D01*
X166064283Y-103183820D01*
X165892820Y-103355283D01*
X165758102Y-103556903D01*
X165665307Y-103780931D01*
X165618000Y-104018757D01*
X156806411Y-104018757D01*
X156806411Y-101478757D01*
X165618000Y-101478757D01*
X165618000Y-101721243D01*
X165665307Y-101959069D01*
X165758102Y-102183097D01*
X165892820Y-102384717D01*
X166064283Y-102556180D01*
X166265903Y-102690898D01*
X166489931Y-102783693D01*
X166727757Y-102831000D01*
X166970243Y-102831000D01*
X167208069Y-102783693D01*
X167432097Y-102690898D01*
X167633717Y-102556180D01*
X167805180Y-102384717D01*
X167939898Y-102183097D01*
X168032693Y-101959069D01*
X168080000Y-101721243D01*
X168080000Y-101478757D01*
X168032693Y-101240931D01*
X167939898Y-101016903D01*
X167805180Y-100815283D01*
X167633717Y-100643820D01*
X167432097Y-100509102D01*
X167208069Y-100416307D01*
X166970243Y-100369000D01*
X166727757Y-100369000D01*
X166489931Y-100416307D01*
X166265903Y-100509102D01*
X166064283Y-100643820D01*
X165892820Y-100815283D01*
X165758102Y-101016903D01*
X165665307Y-101240931D01*
X165618000Y-101478757D01*
X156806411Y-101478757D01*
X156806411Y-98938757D01*
X165618000Y-98938757D01*
X165618000Y-99181243D01*
X165665307Y-99419069D01*
X165758102Y-99643097D01*
X165892820Y-99844717D01*
X166064283Y-100016180D01*
X166265903Y-100150898D01*
X166489931Y-100243693D01*
X166727757Y-100291000D01*
X166970243Y-100291000D01*
X167208069Y-100243693D01*
X167432097Y-100150898D01*
X167633717Y-100016180D01*
X167805180Y-99844717D01*
X167939898Y-99643097D01*
X168032693Y-99419069D01*
X168080000Y-99181243D01*
X168080000Y-98938757D01*
X168032693Y-98700931D01*
X167939898Y-98476903D01*
X167805180Y-98275283D01*
X167633717Y-98103820D01*
X167432097Y-97969102D01*
X167208069Y-97876307D01*
X166970243Y-97829000D01*
X166727757Y-97829000D01*
X166489931Y-97876307D01*
X166265903Y-97969102D01*
X166064283Y-98103820D01*
X165892820Y-98275283D01*
X165758102Y-98476903D01*
X165665307Y-98700931D01*
X165618000Y-98938757D01*
X156806411Y-98938757D01*
X156806411Y-96398757D01*
X165618000Y-96398757D01*
X165618000Y-96641243D01*
X165665307Y-96879069D01*
X165758102Y-97103097D01*
X165892820Y-97304717D01*
X166064283Y-97476180D01*
X166265903Y-97610898D01*
X166489931Y-97703693D01*
X166727757Y-97751000D01*
X166970243Y-97751000D01*
X167208069Y-97703693D01*
X167432097Y-97610898D01*
X167633717Y-97476180D01*
X167805180Y-97304717D01*
X167939898Y-97103097D01*
X168032693Y-96879069D01*
X168080000Y-96641243D01*
X168080000Y-96398757D01*
X168032693Y-96160931D01*
X167939898Y-95936903D01*
X167805180Y-95735283D01*
X167633717Y-95563820D01*
X167432097Y-95429102D01*
X167208069Y-95336307D01*
X166970243Y-95289000D01*
X166727757Y-95289000D01*
X166489931Y-95336307D01*
X166265903Y-95429102D01*
X166064283Y-95563820D01*
X165892820Y-95735283D01*
X165758102Y-95936903D01*
X165665307Y-96160931D01*
X165618000Y-96398757D01*
X156806411Y-96398757D01*
X156806411Y-88480436D01*
X157530000Y-88480436D01*
X157530000Y-88811564D01*
X157594600Y-89136330D01*
X157721317Y-89442252D01*
X157905282Y-89717575D01*
X158139425Y-89951718D01*
X158414748Y-90135683D01*
X158720670Y-90262400D01*
X159045436Y-90327000D01*
X159376564Y-90327000D01*
X159701330Y-90262400D01*
X159964182Y-90153523D01*
X160420110Y-90609452D01*
X160436806Y-90629796D01*
X160518026Y-90696452D01*
X160610690Y-90745982D01*
X160711236Y-90776482D01*
X160789606Y-90784201D01*
X160789613Y-90784201D01*
X160815800Y-90786780D01*
X160841987Y-90784201D01*
X165147502Y-90784201D01*
X167110458Y-92747157D01*
X165999000Y-92747157D01*
X165924311Y-92754513D01*
X165852492Y-92776299D01*
X165786304Y-92811678D01*
X165728289Y-92859289D01*
X165680678Y-92917304D01*
X165645299Y-92983492D01*
X165623513Y-93055311D01*
X165616157Y-93130000D01*
X165616157Y-94830000D01*
X165623513Y-94904689D01*
X165645299Y-94976508D01*
X165680678Y-95042696D01*
X165728289Y-95100711D01*
X165786304Y-95148322D01*
X165852492Y-95183701D01*
X165924311Y-95205487D01*
X165999000Y-95212843D01*
X167699000Y-95212843D01*
X167773689Y-95205487D01*
X167845508Y-95183701D01*
X167911696Y-95148322D01*
X167969711Y-95100711D01*
X168017322Y-95042696D01*
X168052701Y-94976508D01*
X168074487Y-94904689D01*
X168081843Y-94830000D01*
X168081843Y-93718542D01*
X169138601Y-94775300D01*
X169138600Y-126496058D01*
X167257766Y-128376892D01*
X167208069Y-128356307D01*
X166970243Y-128309000D01*
X166727757Y-128309000D01*
X166489931Y-128356307D01*
X166265903Y-128449102D01*
X166064283Y-128583820D01*
X165892820Y-128755283D01*
X165758102Y-128956903D01*
X165665307Y-129180931D01*
X165618000Y-129418757D01*
X165618000Y-129661243D01*
X165665307Y-129899069D01*
X165758102Y-130123097D01*
X165892820Y-130324717D01*
X166064283Y-130496180D01*
X166265903Y-130630898D01*
X166489931Y-130723693D01*
X166727757Y-130771000D01*
X166970243Y-130771000D01*
X167208069Y-130723693D01*
X167432097Y-130630898D01*
X167633717Y-130496180D01*
X167805180Y-130324717D01*
X167939898Y-130123097D01*
X168032693Y-129899069D01*
X168080000Y-129661243D01*
X168080000Y-129418757D01*
X168032693Y-129180931D01*
X168012108Y-129131234D01*
X170030651Y-127112691D01*
X170050995Y-127095995D01*
X170117651Y-127014775D01*
X170167181Y-126922111D01*
X170197681Y-126821565D01*
X170205400Y-126743195D01*
X170205400Y-126743187D01*
X170207979Y-126717000D01*
X170205400Y-126690813D01*
X170205400Y-118459040D01*
X174743091Y-118459040D01*
X174837930Y-118723881D01*
X174982615Y-118965131D01*
X175171586Y-119173519D01*
X175397580Y-119341037D01*
X175651913Y-119461246D01*
X175785961Y-119501904D01*
X176008000Y-119379915D01*
X176008000Y-118237000D01*
X176262000Y-118237000D01*
X176262000Y-119379915D01*
X176484039Y-119501904D01*
X176618087Y-119461246D01*
X176872420Y-119341037D01*
X177098414Y-119173519D01*
X177287385Y-118965131D01*
X177432070Y-118723881D01*
X177526909Y-118459040D01*
X178793091Y-118459040D01*
X178887930Y-118723881D01*
X179032615Y-118965131D01*
X179221586Y-119173519D01*
X179447580Y-119341037D01*
X179701913Y-119461246D01*
X179835961Y-119501904D01*
X180058000Y-119379915D01*
X180058000Y-118237000D01*
X180312000Y-118237000D01*
X180312000Y-119379915D01*
X180534039Y-119501904D01*
X180668087Y-119461246D01*
X180922420Y-119341037D01*
X181148414Y-119173519D01*
X181337385Y-118965131D01*
X181482070Y-118723881D01*
X181576909Y-118459040D01*
X181455624Y-118237000D01*
X180312000Y-118237000D01*
X180058000Y-118237000D01*
X178914376Y-118237000D01*
X178793091Y-118459040D01*
X177526909Y-118459040D01*
X177405624Y-118237000D01*
X176262000Y-118237000D01*
X176008000Y-118237000D01*
X174864376Y-118237000D01*
X174743091Y-118459040D01*
X170205400Y-118459040D01*
X170205400Y-117760960D01*
X174743091Y-117760960D01*
X174864376Y-117983000D01*
X176008000Y-117983000D01*
X176008000Y-116840085D01*
X176262000Y-116840085D01*
X176262000Y-117983000D01*
X177405624Y-117983000D01*
X177526909Y-117760960D01*
X178793091Y-117760960D01*
X178914376Y-117983000D01*
X180058000Y-117983000D01*
X180058000Y-116840085D01*
X180312000Y-116840085D01*
X180312000Y-117983000D01*
X181455624Y-117983000D01*
X181576909Y-117760960D01*
X181482070Y-117496119D01*
X181337385Y-117254869D01*
X181148414Y-117046481D01*
X180922420Y-116878963D01*
X180668087Y-116758754D01*
X180534039Y-116718096D01*
X180312000Y-116840085D01*
X180058000Y-116840085D01*
X179835961Y-116718096D01*
X179701913Y-116758754D01*
X179447580Y-116878963D01*
X179221586Y-117046481D01*
X179032615Y-117254869D01*
X178887930Y-117496119D01*
X178793091Y-117760960D01*
X177526909Y-117760960D01*
X177432070Y-117496119D01*
X177287385Y-117254869D01*
X177098414Y-117046481D01*
X176872420Y-116878963D01*
X176618087Y-116758754D01*
X176484039Y-116718096D01*
X176262000Y-116840085D01*
X176008000Y-116840085D01*
X175785961Y-116718096D01*
X175651913Y-116758754D01*
X175397580Y-116878963D01*
X175171586Y-117046481D01*
X174982615Y-117254869D01*
X174837930Y-117496119D01*
X174743091Y-117760960D01*
X170205400Y-117760960D01*
X170205400Y-108862702D01*
X172033903Y-108862702D01*
X172105486Y-109106671D01*
X172360996Y-109227571D01*
X172635184Y-109296300D01*
X172917512Y-109310217D01*
X173197130Y-109268787D01*
X173463292Y-109173603D01*
X173588514Y-109106671D01*
X173660097Y-108862702D01*
X182701903Y-108862702D01*
X182773486Y-109106671D01*
X183028996Y-109227571D01*
X183303184Y-109296300D01*
X183585512Y-109310217D01*
X183865130Y-109268787D01*
X184131292Y-109173603D01*
X184256514Y-109106671D01*
X184328097Y-108862702D01*
X183515000Y-108049605D01*
X182701903Y-108862702D01*
X173660097Y-108862702D01*
X172847000Y-108049605D01*
X172033903Y-108862702D01*
X170205400Y-108862702D01*
X170205400Y-107940512D01*
X171406783Y-107940512D01*
X171448213Y-108220130D01*
X171543397Y-108486292D01*
X171610329Y-108611514D01*
X171854298Y-108683097D01*
X172667395Y-107870000D01*
X173026605Y-107870000D01*
X173839702Y-108683097D01*
X174083671Y-108611514D01*
X174204571Y-108356004D01*
X174273300Y-108081816D01*
X174280265Y-107940512D01*
X182074783Y-107940512D01*
X182116213Y-108220130D01*
X182211397Y-108486292D01*
X182278329Y-108611514D01*
X182522298Y-108683097D01*
X183335395Y-107870000D01*
X183694605Y-107870000D01*
X184507702Y-108683097D01*
X184751671Y-108611514D01*
X184872571Y-108356004D01*
X184941300Y-108081816D01*
X184955217Y-107799488D01*
X184913787Y-107519870D01*
X184818603Y-107253708D01*
X184751671Y-107128486D01*
X184507702Y-107056903D01*
X183694605Y-107870000D01*
X183335395Y-107870000D01*
X182522298Y-107056903D01*
X182278329Y-107128486D01*
X182157429Y-107383996D01*
X182088700Y-107658184D01*
X182074783Y-107940512D01*
X174280265Y-107940512D01*
X174287217Y-107799488D01*
X174245787Y-107519870D01*
X174150603Y-107253708D01*
X174083671Y-107128486D01*
X173839702Y-107056903D01*
X173026605Y-107870000D01*
X172667395Y-107870000D01*
X171854298Y-107056903D01*
X171610329Y-107128486D01*
X171489429Y-107383996D01*
X171420700Y-107658184D01*
X171406783Y-107940512D01*
X170205400Y-107940512D01*
X170205400Y-106877298D01*
X172033903Y-106877298D01*
X172847000Y-107690395D01*
X173660097Y-106877298D01*
X182701903Y-106877298D01*
X183515000Y-107690395D01*
X184328097Y-106877298D01*
X184256514Y-106633329D01*
X184001004Y-106512429D01*
X183726816Y-106443700D01*
X183444488Y-106429783D01*
X183164870Y-106471213D01*
X182898708Y-106566397D01*
X182773486Y-106633329D01*
X182701903Y-106877298D01*
X173660097Y-106877298D01*
X173588514Y-106633329D01*
X173333004Y-106512429D01*
X173058816Y-106443700D01*
X172776488Y-106429783D01*
X172496870Y-106471213D01*
X172230708Y-106566397D01*
X172105486Y-106633329D01*
X172033903Y-106877298D01*
X170205400Y-106877298D01*
X170205400Y-94580552D01*
X170207980Y-94554358D01*
X170197681Y-94449794D01*
X170182577Y-94400000D01*
X170167181Y-94349247D01*
X170117651Y-94256583D01*
X170050995Y-94175363D01*
X170030645Y-94158662D01*
X165887042Y-90015059D01*
X165893843Y-89946000D01*
X165893843Y-89179400D01*
X168562059Y-89179400D01*
X172313600Y-92930942D01*
X172313601Y-101812637D01*
X172287587Y-101823412D01*
X172094157Y-101952658D01*
X171929658Y-102117157D01*
X171800412Y-102310587D01*
X171711386Y-102525515D01*
X171666000Y-102753682D01*
X171666000Y-102986318D01*
X171711386Y-103214485D01*
X171800412Y-103429413D01*
X171929658Y-103622843D01*
X172094157Y-103787342D01*
X172287587Y-103916588D01*
X172502515Y-104005614D01*
X172730682Y-104051000D01*
X172963318Y-104051000D01*
X173191485Y-104005614D01*
X173406413Y-103916588D01*
X173599843Y-103787342D01*
X173764342Y-103622843D01*
X173893588Y-103429413D01*
X173904363Y-103403400D01*
X175077637Y-103403400D01*
X175088412Y-103429413D01*
X175217658Y-103622843D01*
X175382157Y-103787342D01*
X175575587Y-103916588D01*
X175790515Y-104005614D01*
X176018682Y-104051000D01*
X176251318Y-104051000D01*
X176479485Y-104005614D01*
X176694413Y-103916588D01*
X176887843Y-103787342D01*
X177052342Y-103622843D01*
X177181588Y-103429413D01*
X177270614Y-103214485D01*
X177316000Y-102986318D01*
X177316000Y-102753682D01*
X179004000Y-102753682D01*
X179004000Y-102986318D01*
X179049386Y-103214485D01*
X179138412Y-103429413D01*
X179267658Y-103622843D01*
X179432157Y-103787342D01*
X179625587Y-103916588D01*
X179840515Y-104005614D01*
X180068682Y-104051000D01*
X180301318Y-104051000D01*
X180529485Y-104005614D01*
X180744413Y-103916588D01*
X180937843Y-103787342D01*
X181102342Y-103622843D01*
X181231588Y-103429413D01*
X181242363Y-103403400D01*
X182457637Y-103403400D01*
X182468412Y-103429413D01*
X182597658Y-103622843D01*
X182762157Y-103787342D01*
X182955587Y-103916588D01*
X183170515Y-104005614D01*
X183398682Y-104051000D01*
X183631318Y-104051000D01*
X183859485Y-104005614D01*
X184074413Y-103916588D01*
X184267843Y-103787342D01*
X184432342Y-103622843D01*
X184561588Y-103429413D01*
X184650614Y-103214485D01*
X184696000Y-102986318D01*
X184696000Y-102753682D01*
X184650614Y-102525515D01*
X184561588Y-102310587D01*
X184432342Y-102117157D01*
X184267843Y-101952658D01*
X184074413Y-101823412D01*
X183859485Y-101734386D01*
X183631318Y-101689000D01*
X183398682Y-101689000D01*
X183170515Y-101734386D01*
X182955587Y-101823412D01*
X182762157Y-101952658D01*
X182597658Y-102117157D01*
X182468412Y-102310587D01*
X182457637Y-102336600D01*
X181242363Y-102336600D01*
X181231588Y-102310587D01*
X181102342Y-102117157D01*
X180937843Y-101952658D01*
X180744413Y-101823412D01*
X180529485Y-101734386D01*
X180301318Y-101689000D01*
X180068682Y-101689000D01*
X179840515Y-101734386D01*
X179625587Y-101823412D01*
X179432157Y-101952658D01*
X179267658Y-102117157D01*
X179138412Y-102310587D01*
X179049386Y-102525515D01*
X179004000Y-102753682D01*
X177316000Y-102753682D01*
X177270614Y-102525515D01*
X177181588Y-102310587D01*
X177052342Y-102117157D01*
X176887843Y-101952658D01*
X176694413Y-101823412D01*
X176479485Y-101734386D01*
X176251318Y-101689000D01*
X176018682Y-101689000D01*
X175790515Y-101734386D01*
X175575587Y-101823412D01*
X175382157Y-101952658D01*
X175217658Y-102117157D01*
X175088412Y-102310587D01*
X175077637Y-102336600D01*
X173904363Y-102336600D01*
X173893588Y-102310587D01*
X173764342Y-102117157D01*
X173599843Y-101952658D01*
X173406413Y-101823412D01*
X173380400Y-101812637D01*
X173380400Y-92736187D01*
X173382979Y-92710000D01*
X173380400Y-92683813D01*
X173380400Y-92683805D01*
X173372681Y-92605435D01*
X173342181Y-92504889D01*
X173292651Y-92412225D01*
X173225995Y-92331005D01*
X173205651Y-92314309D01*
X169178693Y-88287352D01*
X169161995Y-88267005D01*
X169080775Y-88200349D01*
X168988111Y-88150819D01*
X168887565Y-88120319D01*
X168809195Y-88112600D01*
X168809187Y-88112600D01*
X168783000Y-88110021D01*
X168756813Y-88112600D01*
X165893843Y-88112600D01*
X165893843Y-87346000D01*
X165886487Y-87271311D01*
X165864701Y-87199492D01*
X165829322Y-87133304D01*
X165781711Y-87075289D01*
X165723696Y-87027678D01*
X165657508Y-86992299D01*
X165585689Y-86970513D01*
X165511000Y-86963157D01*
X162911000Y-86963157D01*
X162836311Y-86970513D01*
X162764492Y-86992299D01*
X162698304Y-87027678D01*
X162640289Y-87075289D01*
X162592678Y-87133304D01*
X162557299Y-87199492D01*
X162535513Y-87271311D01*
X162528157Y-87346000D01*
X162528157Y-89717401D01*
X161036743Y-89717401D01*
X160718523Y-89399182D01*
X160827400Y-89136330D01*
X160892000Y-88811564D01*
X160892000Y-88480436D01*
X160827400Y-88155670D01*
X160700683Y-87849748D01*
X160516718Y-87574425D01*
X160282575Y-87340282D01*
X160007252Y-87156317D01*
X159701330Y-87029600D01*
X159376564Y-86965000D01*
X159045436Y-86965000D01*
X158720670Y-87029600D01*
X158414748Y-87156317D01*
X158139425Y-87340282D01*
X157905282Y-87574425D01*
X157721317Y-87849748D01*
X157594600Y-88155670D01*
X157530000Y-88480436D01*
X156806411Y-88480436D01*
X156806411Y-86068205D01*
X156808991Y-86042011D01*
X156798692Y-85937447D01*
X156791302Y-85913083D01*
X156768192Y-85836900D01*
X156718662Y-85744236D01*
X156652006Y-85663016D01*
X156631656Y-85646315D01*
X150587400Y-79602059D01*
X150587400Y-78038585D01*
X150608922Y-78020922D01*
X150679000Y-77935531D01*
X150749079Y-78020922D01*
X150868002Y-78118519D01*
X151003679Y-78191040D01*
X151150898Y-78235699D01*
X151304000Y-78250778D01*
X151457103Y-78235699D01*
X151604322Y-78191040D01*
X151739999Y-78118519D01*
X151858922Y-78020922D01*
X151929000Y-77935531D01*
X151999079Y-78020922D01*
X152118002Y-78118519D01*
X152253679Y-78191040D01*
X152400898Y-78235699D01*
X152554000Y-78250778D01*
X152707103Y-78235699D01*
X152854322Y-78191040D01*
X152989999Y-78118519D01*
X153108922Y-78020922D01*
X153179000Y-77935531D01*
X153249079Y-78020922D01*
X153368002Y-78118519D01*
X153503679Y-78191040D01*
X153650898Y-78235699D01*
X153804000Y-78250778D01*
X153957103Y-78235699D01*
X154104322Y-78191040D01*
X154237461Y-78119876D01*
X154341717Y-78237112D01*
X154505840Y-78361255D01*
X154691028Y-78450994D01*
X154767877Y-78460666D01*
X154927000Y-78332998D01*
X154927000Y-77343000D01*
X154907000Y-77343000D01*
X154907000Y-77089000D01*
X154927000Y-77089000D01*
X154927000Y-76099002D01*
X154767877Y-75971334D01*
X154691028Y-75981006D01*
X154505840Y-76070745D01*
X154341717Y-76194888D01*
X154237461Y-76312125D01*
X154104321Y-76240960D01*
X153957102Y-76196301D01*
X153804000Y-76181222D01*
X153650897Y-76196301D01*
X153503678Y-76240960D01*
X153368001Y-76313481D01*
X153249078Y-76411078D01*
X153179000Y-76496469D01*
X153108922Y-76411078D01*
X152989998Y-76313481D01*
X152854321Y-76240960D01*
X152707102Y-76196301D01*
X152554000Y-76181222D01*
X152400897Y-76196301D01*
X152253678Y-76240960D01*
X152118001Y-76313481D01*
X151999078Y-76411078D01*
X151929000Y-76496469D01*
X151858922Y-76411078D01*
X151739998Y-76313481D01*
X151604321Y-76240960D01*
X151457102Y-76196301D01*
X151304000Y-76181222D01*
X151150897Y-76196301D01*
X151003678Y-76240960D01*
X150868001Y-76313481D01*
X150749078Y-76411078D01*
X150679000Y-76496469D01*
X150608922Y-76411078D01*
X150489998Y-76313481D01*
X150354321Y-76240960D01*
X150207102Y-76196301D01*
X150054000Y-76181222D01*
X149900897Y-76196301D01*
X149753678Y-76240960D01*
X149618001Y-76313481D01*
X149499078Y-76411078D01*
X149429000Y-76496469D01*
X149358922Y-76411078D01*
X149239998Y-76313481D01*
X149104321Y-76240960D01*
X148957102Y-76196301D01*
X148804000Y-76181222D01*
X148650897Y-76196301D01*
X148503678Y-76240960D01*
X148368001Y-76313481D01*
X148249078Y-76411078D01*
X148179000Y-76496469D01*
X148108922Y-76411078D01*
X147989998Y-76313481D01*
X147854321Y-76240960D01*
X147707102Y-76196301D01*
X147554000Y-76181222D01*
X147400897Y-76196301D01*
X147253678Y-76240960D01*
X147118001Y-76313481D01*
X146999078Y-76411078D01*
X146981081Y-76433008D01*
X146916132Y-76353868D01*
X146827810Y-76281384D01*
X146727044Y-76227523D01*
X146617707Y-76194356D01*
X146504000Y-76183157D01*
X146104000Y-76183157D01*
X145990293Y-76194356D01*
X145880956Y-76227523D01*
X145780190Y-76281384D01*
X145691868Y-76353868D01*
X145619384Y-76442190D01*
X145565523Y-76542956D01*
X145532356Y-76652293D01*
X145521157Y-76766000D01*
X131442841Y-76766000D01*
X134269442Y-73939400D01*
X156116059Y-73939400D01*
X157020601Y-74843943D01*
X157020600Y-76393415D01*
X156999078Y-76411078D01*
X156929000Y-76496469D01*
X156858922Y-76411078D01*
X156739998Y-76313481D01*
X156604321Y-76240960D01*
X156457102Y-76196301D01*
X156304000Y-76181222D01*
X156150897Y-76196301D01*
X156003678Y-76240960D01*
X155870539Y-76312124D01*
X155766283Y-76194888D01*
X155602160Y-76070745D01*
X155416972Y-75981006D01*
X155340123Y-75971334D01*
X155181000Y-76099002D01*
X155181000Y-77089000D01*
X155201000Y-77089000D01*
X155201000Y-77343000D01*
X155181000Y-77343000D01*
X155181000Y-78332998D01*
X155340123Y-78460666D01*
X155416972Y-78450994D01*
X155602160Y-78361255D01*
X155766283Y-78237112D01*
X155870539Y-78119875D01*
X156003679Y-78191040D01*
X156150898Y-78235699D01*
X156304000Y-78250778D01*
X156457103Y-78235699D01*
X156604322Y-78191040D01*
X156739999Y-78118519D01*
X156858922Y-78020922D01*
X156929000Y-77935531D01*
X156999079Y-78020922D01*
X157118002Y-78118519D01*
X157253679Y-78191040D01*
X157400898Y-78235699D01*
X157554000Y-78250778D01*
X157707103Y-78235699D01*
X157854322Y-78191040D01*
X157989999Y-78118519D01*
X158108922Y-78020922D01*
X158206519Y-77901999D01*
X158279040Y-77766322D01*
X158323699Y-77619103D01*
X158335000Y-77504360D01*
X158335000Y-76927640D01*
X158323699Y-76812897D01*
X158279040Y-76665678D01*
X158206519Y-76530001D01*
X158108922Y-76411078D01*
X158087400Y-76393416D01*
X158087400Y-74737006D01*
X183847033Y-74737006D01*
X183847033Y-75104766D01*
X183918780Y-75465460D01*
X184059516Y-75805226D01*
X184263832Y-76111008D01*
X184523878Y-76371054D01*
X184829660Y-76575370D01*
X185169426Y-76716106D01*
X185530120Y-76787853D01*
X185897880Y-76787853D01*
X186258574Y-76716106D01*
X186598340Y-76575370D01*
X186904122Y-76371054D01*
X187164168Y-76111008D01*
X187368484Y-75805226D01*
X187509220Y-75465460D01*
X187580967Y-75104766D01*
X187580967Y-74737006D01*
X187509220Y-74376312D01*
X187368484Y-74036546D01*
X187164168Y-73730764D01*
X186904122Y-73470718D01*
X186598340Y-73266402D01*
X186258574Y-73125666D01*
X185897880Y-73053919D01*
X185530120Y-73053919D01*
X185169426Y-73125666D01*
X184829660Y-73266402D01*
X184523878Y-73470718D01*
X184263832Y-73730764D01*
X184059516Y-74036546D01*
X183918780Y-74376312D01*
X183847033Y-74737006D01*
X158087400Y-74737006D01*
X158087400Y-74649187D01*
X158089979Y-74623000D01*
X158087400Y-74596813D01*
X158087400Y-74596805D01*
X158079681Y-74518435D01*
X158049181Y-74417889D01*
X157999651Y-74325225D01*
X157932995Y-74244005D01*
X157912651Y-74227309D01*
X156732695Y-73047354D01*
X156715995Y-73027005D01*
X156634775Y-72960349D01*
X156542111Y-72910819D01*
X156441565Y-72880319D01*
X156363195Y-72872600D01*
X156363187Y-72872600D01*
X156337000Y-72870021D01*
X156310813Y-72872600D01*
X134074686Y-72872600D01*
X134048499Y-72870021D01*
X134022312Y-72872600D01*
X134022305Y-72872600D01*
X133943935Y-72880319D01*
X133843389Y-72910819D01*
X133750725Y-72960349D01*
X133669505Y-73027005D01*
X133652809Y-73047349D01*
X125383156Y-81317003D01*
X125362806Y-81333704D01*
X125296150Y-81414924D01*
X125246620Y-81507589D01*
X125216120Y-81608135D01*
X125208401Y-81686505D01*
X125208401Y-81686512D01*
X125205822Y-81712699D01*
X125208401Y-81738886D01*
X125208401Y-94184696D01*
X125170097Y-94159102D01*
X124946069Y-94066307D01*
X124708243Y-94019000D01*
X124465757Y-94019000D01*
X124227931Y-94066307D01*
X124003903Y-94159102D01*
X123802283Y-94293820D01*
X123630820Y-94465283D01*
X123496102Y-94666903D01*
X123403307Y-94890931D01*
X123356000Y-95128757D01*
X123356000Y-95371243D01*
X123403307Y-95609069D01*
X123496102Y-95833097D01*
X123630820Y-96034717D01*
X123802283Y-96206180D01*
X124003903Y-96340898D01*
X124227931Y-96433693D01*
X124465757Y-96481000D01*
X124708243Y-96481000D01*
X124946069Y-96433693D01*
X125170097Y-96340898D01*
X125208402Y-96315304D01*
X125208402Y-106574256D01*
X124995766Y-106786892D01*
X124946069Y-106766307D01*
X124708243Y-106719000D01*
X124465757Y-106719000D01*
X124227931Y-106766307D01*
X124003903Y-106859102D01*
X123802283Y-106993820D01*
X123630820Y-107165283D01*
X123496102Y-107366903D01*
X123403307Y-107590931D01*
X123356000Y-107828757D01*
X123356000Y-108071243D01*
X123403307Y-108309069D01*
X123434413Y-108384166D01*
X123141434Y-108677146D01*
X123122051Y-108693053D01*
X123058570Y-108770406D01*
X123011398Y-108858659D01*
X122982350Y-108954417D01*
X122974999Y-109029054D01*
X122972542Y-109054001D01*
X119734000Y-109054001D01*
X119734000Y-81700374D01*
X119731884Y-81678891D01*
X119731971Y-81666442D01*
X119731316Y-81659758D01*
X119690515Y-81271565D01*
X119681749Y-81228865D01*
X119673580Y-81186038D01*
X119671639Y-81179608D01*
X119556215Y-80806734D01*
X119539316Y-80766533D01*
X119522990Y-80726124D01*
X119519837Y-80720194D01*
X119334186Y-80376839D01*
X119309811Y-80340702D01*
X119285936Y-80304217D01*
X119281691Y-80299012D01*
X119032884Y-79998257D01*
X119001950Y-79967538D01*
X118971449Y-79936392D01*
X118966274Y-79932111D01*
X118663789Y-79685410D01*
X118627469Y-79661279D01*
X118591507Y-79636655D01*
X118585599Y-79633460D01*
X118240957Y-79450211D01*
X118200701Y-79433619D01*
X118160580Y-79416423D01*
X118154165Y-79414437D01*
X117780493Y-79301619D01*
X117737739Y-79293154D01*
X117695086Y-79284088D01*
X117688407Y-79283386D01*
X117299938Y-79245296D01*
X117276626Y-79243000D01*
X111116522Y-79243000D01*
X110798408Y-79211808D01*
X110515033Y-79126253D01*
X110253676Y-78987287D01*
X110024287Y-78800202D01*
X109835604Y-78572124D01*
X109694817Y-78311744D01*
X109607285Y-78028974D01*
X109574013Y-77712415D01*
X109577457Y-74737084D01*
X112505033Y-74737084D01*
X112505033Y-75104844D01*
X112576780Y-75465538D01*
X112717516Y-75805304D01*
X112921832Y-76111086D01*
X113181878Y-76371132D01*
X113487660Y-76575448D01*
X113827426Y-76716184D01*
X114188120Y-76787931D01*
X114555880Y-76787931D01*
X114916574Y-76716184D01*
X115256340Y-76575448D01*
X115562122Y-76371132D01*
X115822168Y-76111086D01*
X116026484Y-75805304D01*
X116167220Y-75465538D01*
X116238967Y-75104844D01*
X116238967Y-74737084D01*
X116167220Y-74376390D01*
X116026484Y-74036624D01*
X115822168Y-73730842D01*
X115562122Y-73470796D01*
X115256340Y-73266480D01*
X114916574Y-73125744D01*
X114555880Y-73053997D01*
X114188120Y-73053997D01*
X113827426Y-73125744D01*
X113487660Y-73266480D01*
X113181878Y-73470796D01*
X112921832Y-73730842D01*
X112717516Y-74036624D01*
X112576780Y-74376390D01*
X112505033Y-74737084D01*
X109577457Y-74737084D01*
X109579244Y-73193764D01*
X109610463Y-72875372D01*
X109696020Y-72591993D01*
X109834985Y-72330639D01*
X110022071Y-72101249D01*
X110250148Y-71912568D01*
X110510529Y-71771781D01*
X110793297Y-71684249D01*
X111109982Y-71650964D01*
X188190478Y-71650964D01*
X188508592Y-71682156D01*
G37*
%TD.AperFunction*%
%TD*%
M02*
