M48
; DRILL file {KiCad (5.1.10)-1} date 09/20/23 19:37:10
; FORMAT={-:-/ absolute / inch / decimal}
; #@! TF.CreationDate,2023-09-20T19:37:10-05:00
; #@! TF.GenerationSoftware,Kicad,Pcbnew,(5.1.10)-1
; #@! TF.FileFunction,Plated,1,2,PTH
FMAT,2
INCH
T1C0.0100
T2C0.0197
T3C0.0394
T4C0.0512
%
G90
G05
T1
X5.88Y-3.17
T2
X5.76Y-3.04
X5.8092Y-3.04
X5.8584Y-3.04
X5.9076Y-3.04
X5.9569Y-3.04
X6.0061Y-3.04
X6.0553Y-3.04
X6.1045Y-3.04
X6.1537Y-3.04
X6.2029Y-3.04
T3
X4.905Y-3.75
X4.905Y-4.25
X4.906Y-4.526
X4.906Y-5.026
X5.005Y-3.75
X5.005Y-4.25
X5.006Y-4.526
X5.006Y-5.026
X5.105Y-3.75
X5.105Y-4.25
X5.106Y-4.526
X5.106Y-5.026
X5.205Y-3.75
X5.205Y-4.25
X5.206Y-4.526
X5.206Y-5.026
X5.305Y-3.75
X5.305Y-4.25
X5.306Y-4.526
X5.306Y-5.026
X5.405Y-3.75
X5.405Y-4.25
X5.406Y-4.526
X5.406Y-5.026
X5.9689Y-3.7
X5.9689Y-3.8
X5.9689Y-3.9
X5.9689Y-4.0
X5.9689Y-4.1
X5.9689Y-4.2
X5.9689Y-4.3
X5.9689Y-4.4
X5.9689Y-4.5
X5.9689Y-4.6
X5.9689Y-4.7
X5.9689Y-4.8
X6.5689Y-3.7
X6.5689Y-3.8
X6.5689Y-3.9
X6.5689Y-4.0
X6.5689Y-4.1
X6.5689Y-4.2
X6.5689Y-4.3
X6.5689Y-4.4
X6.5689Y-4.5
X6.5689Y-4.6
X6.5689Y-4.7
X6.5689Y-4.8
X6.5689Y-4.9
X6.5689Y-5.0
X6.5689Y-5.1
X6.5689Y-5.2
T4
X6.0713Y-3.49
X6.2681Y-3.49
X6.465Y-3.49
T0
M30
