%TF.GenerationSoftware,KiCad,Pcbnew,(5.1.10)-1*%
%TF.CreationDate,2023-09-20T19:37:08-05:00*%
%TF.ProjectId,brs_flight_computer,6272735f-666c-4696-9768-745f636f6d70,A*%
%TF.SameCoordinates,Original*%
%TF.FileFunction,Legend,Top*%
%TF.FilePolarity,Positive*%
%FSLAX46Y46*%
G04 Gerber Fmt 4.6, Leading zero omitted, Abs format (unit mm)*
G04 Created by KiCad (PCBNEW (5.1.10)-1) date 2023-09-20 19:37:08*
%MOMM*%
%LPD*%
G01*
G04 APERTURE LIST*
%ADD10C,0.120000*%
%ADD11C,0.100000*%
G04 APERTURE END LIST*
D10*
%TO.C,R2*%
X162037500Y-81898258D02*
X162037500Y-81423742D01*
X163082500Y-81898258D02*
X163082500Y-81423742D01*
%TO.C,R1*%
X155306500Y-81898258D02*
X155306500Y-81423742D01*
X156351500Y-81898258D02*
X156351500Y-81423742D01*
%TO.C,C2*%
X163701000Y-81801580D02*
X163701000Y-81520420D01*
X164721000Y-81801580D02*
X164721000Y-81520420D01*
%TO.C,C1*%
X153668000Y-81801580D02*
X153668000Y-81520420D01*
X154688000Y-81801580D02*
X154688000Y-81520420D01*
%TO.C,J5*%
X160891000Y-88646000D02*
G75*
G03*
X160891000Y-88646000I-1680000J0D01*
G01*
X155891000Y-88646000D02*
G75*
G03*
X155891000Y-88646000I-1680000J0D01*
G01*
X166771000Y-84546000D02*
X151651000Y-84546000D01*
X166771000Y-86046000D02*
X151651000Y-86046000D01*
X166771000Y-90947000D02*
X151651000Y-90947000D01*
X166771000Y-93907000D02*
X151651000Y-93907000D01*
X166771000Y-83986000D02*
X151651000Y-83986000D01*
X166771000Y-93907000D02*
X166771000Y-83986000D01*
X151651000Y-93907000D02*
X151651000Y-83986000D01*
X157936000Y-89715000D02*
X157983000Y-89669000D01*
X160245000Y-87407000D02*
X160280000Y-87372000D01*
X158141000Y-89921000D02*
X158176000Y-89885000D01*
X160438000Y-87623000D02*
X160485000Y-87577000D01*
X152936000Y-89715000D02*
X152983000Y-89669000D01*
X155245000Y-87407000D02*
X155280000Y-87372000D01*
X153141000Y-89921000D02*
X153176000Y-89885000D01*
X155438000Y-87623000D02*
X155485000Y-87577000D01*
X167011000Y-84486000D02*
X167011000Y-83746000D01*
X167011000Y-83746000D02*
X166511000Y-83746000D01*
X164182195Y-86965747D02*
G75*
G02*
X164895000Y-87111000I28805J-1680253D01*
G01*
X165746426Y-87962958D02*
G75*
G02*
X165746000Y-89330000I-1535426J-683042D01*
G01*
X164894042Y-90181426D02*
G75*
G02*
X163527000Y-90181000I-683042J1535426D01*
G01*
X162675574Y-89329042D02*
G75*
G02*
X162676000Y-87962000I1535426J683042D01*
G01*
X163527682Y-87111244D02*
G75*
G02*
X164211000Y-86966000I683318J-1534756D01*
G01*
%TO.C,J8*%
X138642400Y-113630400D02*
X138642400Y-114960400D01*
X137312400Y-113630400D02*
X138642400Y-113630400D01*
X136042400Y-113630400D02*
X136042400Y-116290400D01*
X136042400Y-116290400D02*
X123282400Y-116290400D01*
X136042400Y-113630400D02*
X123282400Y-113630400D01*
X123282400Y-113630400D02*
X123282400Y-116290400D01*
%TO.C,J7*%
X138642400Y-126330400D02*
X138642400Y-127660400D01*
X137312400Y-126330400D02*
X138642400Y-126330400D01*
X136042400Y-126330400D02*
X136042400Y-128990400D01*
X136042400Y-128990400D02*
X123282400Y-128990400D01*
X136042400Y-126330400D02*
X123282400Y-126330400D01*
X123282400Y-126330400D02*
X123282400Y-128990400D01*
%TO.C,J6*%
X150279000Y-123250000D02*
X152939000Y-123250000D01*
X150279000Y-95250000D02*
X150279000Y-123250000D01*
X152939000Y-95250000D02*
X152939000Y-123250000D01*
X150279000Y-95250000D02*
X152939000Y-95250000D01*
X150279000Y-93980000D02*
X150279000Y-92650000D01*
X150279000Y-92650000D02*
X151609000Y-92650000D01*
%TO.C,J4*%
X165519000Y-133410000D02*
X168179000Y-133410000D01*
X165519000Y-95250000D02*
X165519000Y-133410000D01*
X168179000Y-95250000D02*
X168179000Y-133410000D01*
X165519000Y-95250000D02*
X168179000Y-95250000D01*
X165519000Y-93980000D02*
X165519000Y-92650000D01*
X165519000Y-92650000D02*
X166849000Y-92650000D01*
%TO.C,J3*%
X144694000Y-75056000D02*
X144694000Y-78476000D01*
X144694000Y-78476000D02*
X159164000Y-78476000D01*
X159164000Y-78476000D02*
X159164000Y-75056000D01*
X159164000Y-75056000D02*
X144694000Y-75056000D01*
X151929000Y-77966000D02*
X145204000Y-77966000D01*
X145204000Y-77966000D02*
X145204000Y-77216000D01*
X145204000Y-77216000D02*
X145004000Y-77216000D01*
X145004000Y-77216000D02*
X145004000Y-76416000D01*
X145004000Y-76416000D02*
X145204000Y-76416000D01*
X145204000Y-76416000D02*
X145204000Y-75566000D01*
X145204000Y-75566000D02*
X151929000Y-75566000D01*
X151929000Y-77966000D02*
X158654000Y-77966000D01*
X158654000Y-77966000D02*
X158654000Y-77216000D01*
X158654000Y-77216000D02*
X158854000Y-77216000D01*
X158854000Y-77216000D02*
X158854000Y-76416000D01*
X158854000Y-76416000D02*
X158654000Y-76416000D01*
X158654000Y-76416000D02*
X158654000Y-75566000D01*
X158654000Y-75566000D02*
X151929000Y-75566000D01*
X144404000Y-78766000D02*
X144404000Y-77766000D01*
X144404000Y-78766000D02*
X145404000Y-78766000D01*
%TO.C,J2*%
X123257000Y-93920000D02*
X123257000Y-96580000D01*
X136017000Y-93920000D02*
X123257000Y-93920000D01*
X136017000Y-96580000D02*
X123257000Y-96580000D01*
X136017000Y-93920000D02*
X136017000Y-96580000D01*
X137287000Y-93920000D02*
X138617000Y-93920000D01*
X138617000Y-93920000D02*
X138617000Y-95250000D01*
%TO.C,J1*%
X123257000Y-106620000D02*
X123257000Y-109280000D01*
X136017000Y-106620000D02*
X123257000Y-106620000D01*
X136017000Y-109280000D02*
X123257000Y-109280000D01*
X136017000Y-106620000D02*
X136017000Y-109280000D01*
X137287000Y-106620000D02*
X138617000Y-106620000D01*
X138617000Y-106620000D02*
X138617000Y-107950000D01*
%TO.C,R2*%
D11*
X162476666Y-79982190D02*
X162310000Y-79744095D01*
X162190952Y-79982190D02*
X162190952Y-79482190D01*
X162381428Y-79482190D01*
X162429047Y-79506000D01*
X162452857Y-79529809D01*
X162476666Y-79577428D01*
X162476666Y-79648857D01*
X162452857Y-79696476D01*
X162429047Y-79720285D01*
X162381428Y-79744095D01*
X162190952Y-79744095D01*
X162667142Y-79529809D02*
X162690952Y-79506000D01*
X162738571Y-79482190D01*
X162857619Y-79482190D01*
X162905238Y-79506000D01*
X162929047Y-79529809D01*
X162952857Y-79577428D01*
X162952857Y-79625047D01*
X162929047Y-79696476D01*
X162643333Y-79982190D01*
X162952857Y-79982190D01*
%TO.C,R1*%
X155745666Y-79982190D02*
X155579000Y-79744095D01*
X155459952Y-79982190D02*
X155459952Y-79482190D01*
X155650428Y-79482190D01*
X155698047Y-79506000D01*
X155721857Y-79529809D01*
X155745666Y-79577428D01*
X155745666Y-79648857D01*
X155721857Y-79696476D01*
X155698047Y-79720285D01*
X155650428Y-79744095D01*
X155459952Y-79744095D01*
X156221857Y-79982190D02*
X155936142Y-79982190D01*
X156079000Y-79982190D02*
X156079000Y-79482190D01*
X156031380Y-79553619D01*
X155983761Y-79601238D01*
X155936142Y-79625047D01*
%TO.C,C2*%
X164127666Y-79934571D02*
X164103857Y-79958380D01*
X164032428Y-79982190D01*
X163984809Y-79982190D01*
X163913380Y-79958380D01*
X163865761Y-79910761D01*
X163841952Y-79863142D01*
X163818142Y-79767904D01*
X163818142Y-79696476D01*
X163841952Y-79601238D01*
X163865761Y-79553619D01*
X163913380Y-79506000D01*
X163984809Y-79482190D01*
X164032428Y-79482190D01*
X164103857Y-79506000D01*
X164127666Y-79529809D01*
X164318142Y-79529809D02*
X164341952Y-79506000D01*
X164389571Y-79482190D01*
X164508619Y-79482190D01*
X164556238Y-79506000D01*
X164580047Y-79529809D01*
X164603857Y-79577428D01*
X164603857Y-79625047D01*
X164580047Y-79696476D01*
X164294333Y-79982190D01*
X164603857Y-79982190D01*
%TO.C,C1*%
X154094666Y-79934571D02*
X154070857Y-79958380D01*
X153999428Y-79982190D01*
X153951809Y-79982190D01*
X153880380Y-79958380D01*
X153832761Y-79910761D01*
X153808952Y-79863142D01*
X153785142Y-79767904D01*
X153785142Y-79696476D01*
X153808952Y-79601238D01*
X153832761Y-79553619D01*
X153880380Y-79506000D01*
X153951809Y-79482190D01*
X153999428Y-79482190D01*
X154070857Y-79506000D01*
X154094666Y-79529809D01*
X154570857Y-79982190D02*
X154285142Y-79982190D01*
X154428000Y-79982190D02*
X154428000Y-79482190D01*
X154380380Y-79553619D01*
X154332761Y-79601238D01*
X154285142Y-79625047D01*
%TO.C,J5*%
X159044333Y-94632190D02*
X159044333Y-94989333D01*
X159020523Y-95060761D01*
X158972904Y-95108380D01*
X158901476Y-95132190D01*
X158853857Y-95132190D01*
X159520523Y-94632190D02*
X159282428Y-94632190D01*
X159258619Y-94870285D01*
X159282428Y-94846476D01*
X159330047Y-94822666D01*
X159449095Y-94822666D01*
X159496714Y-94846476D01*
X159520523Y-94870285D01*
X159544333Y-94917904D01*
X159544333Y-95036952D01*
X159520523Y-95084571D01*
X159496714Y-95108380D01*
X159449095Y-95132190D01*
X159330047Y-95132190D01*
X159282428Y-95108380D01*
X159258619Y-95084571D01*
%TO.C,J8*%
X139368590Y-115127066D02*
X139725733Y-115127066D01*
X139797161Y-115150876D01*
X139844780Y-115198495D01*
X139868590Y-115269923D01*
X139868590Y-115317542D01*
X139582876Y-114817542D02*
X139559066Y-114865161D01*
X139535257Y-114888971D01*
X139487638Y-114912780D01*
X139463828Y-114912780D01*
X139416209Y-114888971D01*
X139392400Y-114865161D01*
X139368590Y-114817542D01*
X139368590Y-114722304D01*
X139392400Y-114674685D01*
X139416209Y-114650876D01*
X139463828Y-114627066D01*
X139487638Y-114627066D01*
X139535257Y-114650876D01*
X139559066Y-114674685D01*
X139582876Y-114722304D01*
X139582876Y-114817542D01*
X139606685Y-114865161D01*
X139630495Y-114888971D01*
X139678114Y-114912780D01*
X139773352Y-114912780D01*
X139820971Y-114888971D01*
X139844780Y-114865161D01*
X139868590Y-114817542D01*
X139868590Y-114722304D01*
X139844780Y-114674685D01*
X139820971Y-114650876D01*
X139773352Y-114627066D01*
X139678114Y-114627066D01*
X139630495Y-114650876D01*
X139606685Y-114674685D01*
X139582876Y-114722304D01*
%TO.C,J7*%
X139368590Y-127827066D02*
X139725733Y-127827066D01*
X139797161Y-127850876D01*
X139844780Y-127898495D01*
X139868590Y-127969923D01*
X139868590Y-128017542D01*
X139368590Y-127636590D02*
X139368590Y-127303257D01*
X139868590Y-127517542D01*
%TO.C,J6*%
X151442333Y-91376190D02*
X151442333Y-91733333D01*
X151418523Y-91804761D01*
X151370904Y-91852380D01*
X151299476Y-91876190D01*
X151251857Y-91876190D01*
X151894714Y-91376190D02*
X151799476Y-91376190D01*
X151751857Y-91400000D01*
X151728047Y-91423809D01*
X151680428Y-91495238D01*
X151656619Y-91590476D01*
X151656619Y-91780952D01*
X151680428Y-91828571D01*
X151704238Y-91852380D01*
X151751857Y-91876190D01*
X151847095Y-91876190D01*
X151894714Y-91852380D01*
X151918523Y-91828571D01*
X151942333Y-91780952D01*
X151942333Y-91661904D01*
X151918523Y-91614285D01*
X151894714Y-91590476D01*
X151847095Y-91566666D01*
X151751857Y-91566666D01*
X151704238Y-91590476D01*
X151680428Y-91614285D01*
X151656619Y-91661904D01*
%TO.C,J4*%
X166682333Y-91376190D02*
X166682333Y-91733333D01*
X166658523Y-91804761D01*
X166610904Y-91852380D01*
X166539476Y-91876190D01*
X166491857Y-91876190D01*
X167134714Y-91542857D02*
X167134714Y-91876190D01*
X167015666Y-91352380D02*
X166896619Y-91709523D01*
X167206142Y-91709523D01*
%TO.C,J3*%
X151757333Y-73692190D02*
X151757333Y-74049333D01*
X151733523Y-74120761D01*
X151685904Y-74168380D01*
X151614476Y-74192190D01*
X151566857Y-74192190D01*
X151947809Y-73692190D02*
X152257333Y-73692190D01*
X152090666Y-73882666D01*
X152162095Y-73882666D01*
X152209714Y-73906476D01*
X152233523Y-73930285D01*
X152257333Y-73977904D01*
X152257333Y-74096952D01*
X152233523Y-74144571D01*
X152209714Y-74168380D01*
X152162095Y-74192190D01*
X152019238Y-74192190D01*
X151971619Y-74168380D01*
X151947809Y-74144571D01*
%TO.C,J2*%
X139343190Y-95416666D02*
X139700333Y-95416666D01*
X139771761Y-95440476D01*
X139819380Y-95488095D01*
X139843190Y-95559523D01*
X139843190Y-95607142D01*
X139390809Y-95202380D02*
X139367000Y-95178571D01*
X139343190Y-95130952D01*
X139343190Y-95011904D01*
X139367000Y-94964285D01*
X139390809Y-94940476D01*
X139438428Y-94916666D01*
X139486047Y-94916666D01*
X139557476Y-94940476D01*
X139843190Y-95226190D01*
X139843190Y-94916666D01*
%TO.C,J1*%
X139343190Y-108116666D02*
X139700333Y-108116666D01*
X139771761Y-108140476D01*
X139819380Y-108188095D01*
X139843190Y-108259523D01*
X139843190Y-108307142D01*
X139843190Y-107616666D02*
X139843190Y-107902380D01*
X139843190Y-107759523D02*
X139343190Y-107759523D01*
X139414619Y-107807142D01*
X139462238Y-107854761D01*
X139486047Y-107902380D01*
%TD*%
M02*
