%TF.GenerationSoftware,KiCad,Pcbnew,(5.1.10)-1*%
%TF.CreationDate,2023-07-09T15:29:34-05:00*%
%TF.ProjectId,multiplexer cell tester,6d756c74-6970-46c6-9578-65722063656c,A*%
%TF.SameCoordinates,Original*%
%TF.FileFunction,Soldermask,Top*%
%TF.FilePolarity,Negative*%
%FSLAX46Y46*%
G04 Gerber Fmt 4.6, Leading zero omitted, Abs format (unit mm)*
G04 Created by KiCad (PCBNEW (5.1.10)-1) date 2023-07-09 15:29:34*
%MOMM*%
%LPD*%
G01*
G04 APERTURE LIST*
%ADD10C,11.000000*%
%ADD11R,0.650000X1.060000*%
%ADD12R,1.060000X0.650000*%
%ADD13R,1.450000X0.450000*%
%ADD14C,1.400000*%
%ADD15R,0.876300X0.508000*%
%ADD16R,0.508000X0.876300*%
%ADD17R,1.700000X1.700000*%
%ADD18R,0.457200X1.003300*%
%ADD19R,0.355600X0.876300*%
%ADD20R,2.311400X0.558800*%
%ADD21R,2.184400X0.558800*%
%ADD22O,1.000000X1.000000*%
%ADD23R,1.000000X1.000000*%
%ADD24R,0.600000X0.850000*%
%ADD25R,0.700000X0.800000*%
%ADD26O,1.700000X1.700000*%
G04 APERTURE END LIST*
%TO.C,R8*%
G36*
G01*
X175748500Y-74062000D02*
X175748500Y-73512000D01*
G75*
G02*
X175948500Y-73312000I200000J0D01*
G01*
X176348500Y-73312000D01*
G75*
G02*
X176548500Y-73512000I0J-200000D01*
G01*
X176548500Y-74062000D01*
G75*
G02*
X176348500Y-74262000I-200000J0D01*
G01*
X175948500Y-74262000D01*
G75*
G02*
X175748500Y-74062000I0J200000D01*
G01*
G37*
G36*
G01*
X174098500Y-74062000D02*
X174098500Y-73512000D01*
G75*
G02*
X174298500Y-73312000I200000J0D01*
G01*
X174698500Y-73312000D01*
G75*
G02*
X174898500Y-73512000I0J-200000D01*
G01*
X174898500Y-74062000D01*
G75*
G02*
X174698500Y-74262000I-200000J0D01*
G01*
X174298500Y-74262000D01*
G75*
G02*
X174098500Y-74062000I0J200000D01*
G01*
G37*
%TD*%
D10*
%TO.C,REF\u002A\u002A*%
X86360000Y-42240000D03*
%TD*%
%TO.C,REF\u002A\u002A*%
X211360000Y-42240000D03*
%TD*%
%TO.C,REF\u002A\u002A*%
X211360000Y-142240000D03*
%TD*%
%TO.C,REF\u002A\u002A*%
X86360000Y-142240000D03*
%TD*%
%TO.C,C10*%
G36*
G01*
X130675500Y-48899000D02*
X130675500Y-49399000D01*
G75*
G02*
X130450500Y-49624000I-225000J0D01*
G01*
X130000500Y-49624000D01*
G75*
G02*
X129775500Y-49399000I0J225000D01*
G01*
X129775500Y-48899000D01*
G75*
G02*
X130000500Y-48674000I225000J0D01*
G01*
X130450500Y-48674000D01*
G75*
G02*
X130675500Y-48899000I0J-225000D01*
G01*
G37*
G36*
G01*
X132225500Y-48899000D02*
X132225500Y-49399000D01*
G75*
G02*
X132000500Y-49624000I-225000J0D01*
G01*
X131550500Y-49624000D01*
G75*
G02*
X131325500Y-49399000I0J225000D01*
G01*
X131325500Y-48899000D01*
G75*
G02*
X131550500Y-48674000I225000J0D01*
G01*
X132000500Y-48674000D01*
G75*
G02*
X132225500Y-48899000I0J-225000D01*
G01*
G37*
%TD*%
D11*
%TO.C,U2*%
X167866100Y-47556600D03*
X165966100Y-47556600D03*
X165966100Y-45356600D03*
X166916100Y-45356600D03*
X167866100Y-45356600D03*
%TD*%
D12*
%TO.C,U1*%
X132100500Y-50993000D03*
X132100500Y-52893000D03*
X129900500Y-52893000D03*
X129900500Y-51943000D03*
X129900500Y-50993000D03*
%TD*%
D13*
%TO.C,U23*%
X142262500Y-76159000D03*
X142262500Y-75509000D03*
X142262500Y-74859000D03*
X142262500Y-74209000D03*
X146662500Y-74209000D03*
X146662500Y-74859000D03*
X146662500Y-75509000D03*
X146662500Y-76159000D03*
%TD*%
D14*
%TO.C,TP17*%
X144665700Y-82092800D03*
X147205700Y-82092800D03*
%TD*%
%TO.C,TP16*%
X144665700Y-82092800D03*
X142125700Y-82092800D03*
%TD*%
%TO.C,R28*%
G36*
G01*
X141880000Y-68599500D02*
X141330000Y-68599500D01*
G75*
G02*
X141130000Y-68399500I0J200000D01*
G01*
X141130000Y-67999500D01*
G75*
G02*
X141330000Y-67799500I200000J0D01*
G01*
X141880000Y-67799500D01*
G75*
G02*
X142080000Y-67999500I0J-200000D01*
G01*
X142080000Y-68399500D01*
G75*
G02*
X141880000Y-68599500I-200000J0D01*
G01*
G37*
G36*
G01*
X141880000Y-70249500D02*
X141330000Y-70249500D01*
G75*
G02*
X141130000Y-70049500I0J200000D01*
G01*
X141130000Y-69649500D01*
G75*
G02*
X141330000Y-69449500I200000J0D01*
G01*
X141880000Y-69449500D01*
G75*
G02*
X142080000Y-69649500I0J-200000D01*
G01*
X142080000Y-70049500D01*
G75*
G02*
X141880000Y-70249500I-200000J0D01*
G01*
G37*
%TD*%
%TO.C,R20*%
G36*
G01*
X139975000Y-75902000D02*
X139425000Y-75902000D01*
G75*
G02*
X139225000Y-75702000I0J200000D01*
G01*
X139225000Y-75302000D01*
G75*
G02*
X139425000Y-75102000I200000J0D01*
G01*
X139975000Y-75102000D01*
G75*
G02*
X140175000Y-75302000I0J-200000D01*
G01*
X140175000Y-75702000D01*
G75*
G02*
X139975000Y-75902000I-200000J0D01*
G01*
G37*
G36*
G01*
X139975000Y-77552000D02*
X139425000Y-77552000D01*
G75*
G02*
X139225000Y-77352000I0J200000D01*
G01*
X139225000Y-76952000D01*
G75*
G02*
X139425000Y-76752000I200000J0D01*
G01*
X139975000Y-76752000D01*
G75*
G02*
X140175000Y-76952000I0J-200000D01*
G01*
X140175000Y-77352000D01*
G75*
G02*
X139975000Y-77552000I-200000J0D01*
G01*
G37*
%TD*%
%TO.C,R18*%
G36*
G01*
X138551100Y-78274500D02*
X138551100Y-78824500D01*
G75*
G02*
X138351100Y-79024500I-200000J0D01*
G01*
X137951100Y-79024500D01*
G75*
G02*
X137751100Y-78824500I0J200000D01*
G01*
X137751100Y-78274500D01*
G75*
G02*
X137951100Y-78074500I200000J0D01*
G01*
X138351100Y-78074500D01*
G75*
G02*
X138551100Y-78274500I0J-200000D01*
G01*
G37*
G36*
G01*
X140201100Y-78274500D02*
X140201100Y-78824500D01*
G75*
G02*
X140001100Y-79024500I-200000J0D01*
G01*
X139601100Y-79024500D01*
G75*
G02*
X139401100Y-78824500I0J200000D01*
G01*
X139401100Y-78274500D01*
G75*
G02*
X139601100Y-78074500I200000J0D01*
G01*
X140001100Y-78074500D01*
G75*
G02*
X140201100Y-78274500I0J-200000D01*
G01*
G37*
%TD*%
%TO.C,C30*%
G36*
G01*
X138489500Y-76002000D02*
X137989500Y-76002000D01*
G75*
G02*
X137764500Y-75777000I0J225000D01*
G01*
X137764500Y-75327000D01*
G75*
G02*
X137989500Y-75102000I225000J0D01*
G01*
X138489500Y-75102000D01*
G75*
G02*
X138714500Y-75327000I0J-225000D01*
G01*
X138714500Y-75777000D01*
G75*
G02*
X138489500Y-76002000I-225000J0D01*
G01*
G37*
G36*
G01*
X138489500Y-77552000D02*
X137989500Y-77552000D01*
G75*
G02*
X137764500Y-77327000I0J225000D01*
G01*
X137764500Y-76877000D01*
G75*
G02*
X137989500Y-76652000I225000J0D01*
G01*
X138489500Y-76652000D01*
G75*
G02*
X138714500Y-76877000I0J-225000D01*
G01*
X138714500Y-77327000D01*
G75*
G02*
X138489500Y-77552000I-225000J0D01*
G01*
G37*
%TD*%
%TO.C,C28*%
G36*
G01*
X138651100Y-79760000D02*
X138651100Y-80260000D01*
G75*
G02*
X138426100Y-80485000I-225000J0D01*
G01*
X137976100Y-80485000D01*
G75*
G02*
X137751100Y-80260000I0J225000D01*
G01*
X137751100Y-79760000D01*
G75*
G02*
X137976100Y-79535000I225000J0D01*
G01*
X138426100Y-79535000D01*
G75*
G02*
X138651100Y-79760000I0J-225000D01*
G01*
G37*
G36*
G01*
X140201100Y-79760000D02*
X140201100Y-80260000D01*
G75*
G02*
X139976100Y-80485000I-225000J0D01*
G01*
X139526100Y-80485000D01*
G75*
G02*
X139301100Y-80260000I0J225000D01*
G01*
X139301100Y-79760000D01*
G75*
G02*
X139526100Y-79535000I225000J0D01*
G01*
X139976100Y-79535000D01*
G75*
G02*
X140201100Y-79760000I0J-225000D01*
G01*
G37*
%TD*%
D15*
%TO.C,U28*%
X115804950Y-137479999D03*
X115804950Y-138430000D03*
X115804950Y-139380001D03*
X113176050Y-139380001D03*
X113176050Y-138430000D03*
X113176050Y-137479999D03*
%TD*%
D16*
%TO.C,U27*%
X154624999Y-80219550D03*
X155575000Y-80219550D03*
X156525001Y-80219550D03*
X156525001Y-82848450D03*
X155575000Y-82848450D03*
X154624999Y-82848450D03*
%TD*%
D14*
%TO.C,TP15*%
X120713500Y-137477500D03*
X118173500Y-137477500D03*
%TD*%
D17*
%TO.C,J17*%
X120713500Y-140652500D03*
%TD*%
%TO.C,C51*%
G36*
G01*
X114165500Y-140910500D02*
X114165500Y-141410500D01*
G75*
G02*
X113940500Y-141635500I-225000J0D01*
G01*
X113490500Y-141635500D01*
G75*
G02*
X113265500Y-141410500I0J225000D01*
G01*
X113265500Y-140910500D01*
G75*
G02*
X113490500Y-140685500I225000J0D01*
G01*
X113940500Y-140685500D01*
G75*
G02*
X114165500Y-140910500I0J-225000D01*
G01*
G37*
G36*
G01*
X115715500Y-140910500D02*
X115715500Y-141410500D01*
G75*
G02*
X115490500Y-141635500I-225000J0D01*
G01*
X115040500Y-141635500D01*
G75*
G02*
X114815500Y-141410500I0J225000D01*
G01*
X114815500Y-140910500D01*
G75*
G02*
X115040500Y-140685500I225000J0D01*
G01*
X115490500Y-140685500D01*
G75*
G02*
X115715500Y-140910500I0J-225000D01*
G01*
G37*
%TD*%
D18*
%TO.C,U26*%
X160677499Y-143249650D03*
X160027501Y-143249650D03*
X159377499Y-143249650D03*
X158727501Y-143249650D03*
X158727501Y-140595350D03*
X159377499Y-140595350D03*
X160027501Y-140595350D03*
X160677499Y-140595350D03*
%TD*%
%TO.C,U25*%
X179092499Y-143186150D03*
X178442501Y-143186150D03*
X177792499Y-143186150D03*
X177142501Y-143186150D03*
X177142501Y-140531850D03*
X177792499Y-140531850D03*
X178442501Y-140531850D03*
X179092499Y-140531850D03*
%TD*%
%TO.C,U24*%
X197380499Y-143186150D03*
X196730501Y-143186150D03*
X196080499Y-143186150D03*
X195430501Y-143186150D03*
X195430501Y-140531850D03*
X196080499Y-140531850D03*
X196730501Y-140531850D03*
X197380499Y-140531850D03*
%TD*%
%TO.C,U22*%
X155870001Y-70618350D03*
X156519999Y-70618350D03*
X157170001Y-70618350D03*
X157819999Y-70618350D03*
X157819999Y-73272650D03*
X157170001Y-73272650D03*
X156519999Y-73272650D03*
X155870001Y-73272650D03*
%TD*%
D19*
%TO.C,U21*%
X134795501Y-63722250D03*
X135445500Y-63722250D03*
X136095499Y-63722250D03*
X136095499Y-65944750D03*
X135445500Y-65944750D03*
X134795501Y-65944750D03*
%TD*%
%TO.C,U20*%
X131239501Y-63722250D03*
X131889500Y-63722250D03*
X132539499Y-63722250D03*
X132539499Y-65944750D03*
X131889500Y-65944750D03*
X131239501Y-65944750D03*
%TD*%
%TO.C,U19*%
X127683501Y-63722250D03*
X128333500Y-63722250D03*
X128983499Y-63722250D03*
X128983499Y-65944750D03*
X128333500Y-65944750D03*
X127683501Y-65944750D03*
%TD*%
%TO.C,U18*%
X124127501Y-63722250D03*
X124777500Y-63722250D03*
X125427499Y-63722250D03*
X125427499Y-65944750D03*
X124777500Y-65944750D03*
X124127501Y-65944750D03*
%TD*%
%TO.C,U17*%
X120571501Y-63722250D03*
X121221500Y-63722250D03*
X121871499Y-63722250D03*
X121871499Y-65944750D03*
X121221500Y-65944750D03*
X120571501Y-65944750D03*
%TD*%
%TO.C,U16*%
X117015501Y-63722250D03*
X117665500Y-63722250D03*
X118315499Y-63722250D03*
X118315499Y-65944750D03*
X117665500Y-65944750D03*
X117015501Y-65944750D03*
%TD*%
%TO.C,U15*%
X113459501Y-63722250D03*
X114109500Y-63722250D03*
X114759499Y-63722250D03*
X114759499Y-65944750D03*
X114109500Y-65944750D03*
X113459501Y-65944750D03*
%TD*%
%TO.C,U14*%
X109903501Y-63722250D03*
X110553500Y-63722250D03*
X111203499Y-63722250D03*
X111203499Y-65944750D03*
X110553500Y-65944750D03*
X109903501Y-65944750D03*
%TD*%
%TO.C,U13*%
G36*
G01*
X118704500Y-50379500D02*
X118404500Y-50379500D01*
G75*
G02*
X118254500Y-50229500I0J150000D01*
G01*
X118254500Y-48579500D01*
G75*
G02*
X118404500Y-48429500I150000J0D01*
G01*
X118704500Y-48429500D01*
G75*
G02*
X118854500Y-48579500I0J-150000D01*
G01*
X118854500Y-50229500D01*
G75*
G02*
X118704500Y-50379500I-150000J0D01*
G01*
G37*
G36*
G01*
X119974500Y-50379500D02*
X119674500Y-50379500D01*
G75*
G02*
X119524500Y-50229500I0J150000D01*
G01*
X119524500Y-48579500D01*
G75*
G02*
X119674500Y-48429500I150000J0D01*
G01*
X119974500Y-48429500D01*
G75*
G02*
X120124500Y-48579500I0J-150000D01*
G01*
X120124500Y-50229500D01*
G75*
G02*
X119974500Y-50379500I-150000J0D01*
G01*
G37*
G36*
G01*
X121244500Y-50379500D02*
X120944500Y-50379500D01*
G75*
G02*
X120794500Y-50229500I0J150000D01*
G01*
X120794500Y-48579500D01*
G75*
G02*
X120944500Y-48429500I150000J0D01*
G01*
X121244500Y-48429500D01*
G75*
G02*
X121394500Y-48579500I0J-150000D01*
G01*
X121394500Y-50229500D01*
G75*
G02*
X121244500Y-50379500I-150000J0D01*
G01*
G37*
G36*
G01*
X122514500Y-50379500D02*
X122214500Y-50379500D01*
G75*
G02*
X122064500Y-50229500I0J150000D01*
G01*
X122064500Y-48579500D01*
G75*
G02*
X122214500Y-48429500I150000J0D01*
G01*
X122514500Y-48429500D01*
G75*
G02*
X122664500Y-48579500I0J-150000D01*
G01*
X122664500Y-50229500D01*
G75*
G02*
X122514500Y-50379500I-150000J0D01*
G01*
G37*
G36*
G01*
X123784500Y-50379500D02*
X123484500Y-50379500D01*
G75*
G02*
X123334500Y-50229500I0J150000D01*
G01*
X123334500Y-48579500D01*
G75*
G02*
X123484500Y-48429500I150000J0D01*
G01*
X123784500Y-48429500D01*
G75*
G02*
X123934500Y-48579500I0J-150000D01*
G01*
X123934500Y-50229500D01*
G75*
G02*
X123784500Y-50379500I-150000J0D01*
G01*
G37*
G36*
G01*
X125054500Y-50379500D02*
X124754500Y-50379500D01*
G75*
G02*
X124604500Y-50229500I0J150000D01*
G01*
X124604500Y-48579500D01*
G75*
G02*
X124754500Y-48429500I150000J0D01*
G01*
X125054500Y-48429500D01*
G75*
G02*
X125204500Y-48579500I0J-150000D01*
G01*
X125204500Y-50229500D01*
G75*
G02*
X125054500Y-50379500I-150000J0D01*
G01*
G37*
G36*
G01*
X126324500Y-50379500D02*
X126024500Y-50379500D01*
G75*
G02*
X125874500Y-50229500I0J150000D01*
G01*
X125874500Y-48579500D01*
G75*
G02*
X126024500Y-48429500I150000J0D01*
G01*
X126324500Y-48429500D01*
G75*
G02*
X126474500Y-48579500I0J-150000D01*
G01*
X126474500Y-50229500D01*
G75*
G02*
X126324500Y-50379500I-150000J0D01*
G01*
G37*
G36*
G01*
X127594500Y-50379500D02*
X127294500Y-50379500D01*
G75*
G02*
X127144500Y-50229500I0J150000D01*
G01*
X127144500Y-48579500D01*
G75*
G02*
X127294500Y-48429500I150000J0D01*
G01*
X127594500Y-48429500D01*
G75*
G02*
X127744500Y-48579500I0J-150000D01*
G01*
X127744500Y-50229500D01*
G75*
G02*
X127594500Y-50379500I-150000J0D01*
G01*
G37*
G36*
G01*
X127594500Y-55329500D02*
X127294500Y-55329500D01*
G75*
G02*
X127144500Y-55179500I0J150000D01*
G01*
X127144500Y-53529500D01*
G75*
G02*
X127294500Y-53379500I150000J0D01*
G01*
X127594500Y-53379500D01*
G75*
G02*
X127744500Y-53529500I0J-150000D01*
G01*
X127744500Y-55179500D01*
G75*
G02*
X127594500Y-55329500I-150000J0D01*
G01*
G37*
G36*
G01*
X126324500Y-55329500D02*
X126024500Y-55329500D01*
G75*
G02*
X125874500Y-55179500I0J150000D01*
G01*
X125874500Y-53529500D01*
G75*
G02*
X126024500Y-53379500I150000J0D01*
G01*
X126324500Y-53379500D01*
G75*
G02*
X126474500Y-53529500I0J-150000D01*
G01*
X126474500Y-55179500D01*
G75*
G02*
X126324500Y-55329500I-150000J0D01*
G01*
G37*
G36*
G01*
X125054500Y-55329500D02*
X124754500Y-55329500D01*
G75*
G02*
X124604500Y-55179500I0J150000D01*
G01*
X124604500Y-53529500D01*
G75*
G02*
X124754500Y-53379500I150000J0D01*
G01*
X125054500Y-53379500D01*
G75*
G02*
X125204500Y-53529500I0J-150000D01*
G01*
X125204500Y-55179500D01*
G75*
G02*
X125054500Y-55329500I-150000J0D01*
G01*
G37*
G36*
G01*
X123784500Y-55329500D02*
X123484500Y-55329500D01*
G75*
G02*
X123334500Y-55179500I0J150000D01*
G01*
X123334500Y-53529500D01*
G75*
G02*
X123484500Y-53379500I150000J0D01*
G01*
X123784500Y-53379500D01*
G75*
G02*
X123934500Y-53529500I0J-150000D01*
G01*
X123934500Y-55179500D01*
G75*
G02*
X123784500Y-55329500I-150000J0D01*
G01*
G37*
G36*
G01*
X122514500Y-55329500D02*
X122214500Y-55329500D01*
G75*
G02*
X122064500Y-55179500I0J150000D01*
G01*
X122064500Y-53529500D01*
G75*
G02*
X122214500Y-53379500I150000J0D01*
G01*
X122514500Y-53379500D01*
G75*
G02*
X122664500Y-53529500I0J-150000D01*
G01*
X122664500Y-55179500D01*
G75*
G02*
X122514500Y-55329500I-150000J0D01*
G01*
G37*
G36*
G01*
X121244500Y-55329500D02*
X120944500Y-55329500D01*
G75*
G02*
X120794500Y-55179500I0J150000D01*
G01*
X120794500Y-53529500D01*
G75*
G02*
X120944500Y-53379500I150000J0D01*
G01*
X121244500Y-53379500D01*
G75*
G02*
X121394500Y-53529500I0J-150000D01*
G01*
X121394500Y-55179500D01*
G75*
G02*
X121244500Y-55329500I-150000J0D01*
G01*
G37*
G36*
G01*
X119974500Y-55329500D02*
X119674500Y-55329500D01*
G75*
G02*
X119524500Y-55179500I0J150000D01*
G01*
X119524500Y-53529500D01*
G75*
G02*
X119674500Y-53379500I150000J0D01*
G01*
X119974500Y-53379500D01*
G75*
G02*
X120124500Y-53529500I0J-150000D01*
G01*
X120124500Y-55179500D01*
G75*
G02*
X119974500Y-55329500I-150000J0D01*
G01*
G37*
G36*
G01*
X118704500Y-55329500D02*
X118404500Y-55329500D01*
G75*
G02*
X118254500Y-55179500I0J150000D01*
G01*
X118254500Y-53529500D01*
G75*
G02*
X118404500Y-53379500I150000J0D01*
G01*
X118704500Y-53379500D01*
G75*
G02*
X118854500Y-53529500I0J-150000D01*
G01*
X118854500Y-55179500D01*
G75*
G02*
X118704500Y-55329500I-150000J0D01*
G01*
G37*
%TD*%
%TO.C,U12*%
X169090099Y-69157850D03*
X168440100Y-69157850D03*
X167790101Y-69157850D03*
X167790101Y-66935350D03*
X168440100Y-66935350D03*
X169090099Y-66935350D03*
%TD*%
%TO.C,U11*%
X173662099Y-69157850D03*
X173012100Y-69157850D03*
X172362101Y-69157850D03*
X172362101Y-66935350D03*
X173012100Y-66935350D03*
X173662099Y-66935350D03*
%TD*%
%TO.C,U10*%
X201094099Y-69157850D03*
X200444100Y-69157850D03*
X199794101Y-69157850D03*
X199794101Y-66935350D03*
X200444100Y-66935350D03*
X201094099Y-66935350D03*
%TD*%
%TO.C,U9*%
X196522099Y-69157850D03*
X195872100Y-69157850D03*
X195222101Y-69157850D03*
X195222101Y-66935350D03*
X195872100Y-66935350D03*
X196522099Y-66935350D03*
%TD*%
%TO.C,U8*%
X191950099Y-69157850D03*
X191300100Y-69157850D03*
X190650101Y-69157850D03*
X190650101Y-66935350D03*
X191300100Y-66935350D03*
X191950099Y-66935350D03*
%TD*%
%TO.C,U7*%
X182806099Y-69157850D03*
X182156100Y-69157850D03*
X181506101Y-69157850D03*
X181506101Y-66935350D03*
X182156100Y-66935350D03*
X182806099Y-66935350D03*
%TD*%
%TO.C,U6*%
X187378099Y-69157850D03*
X186728100Y-69157850D03*
X186078101Y-69157850D03*
X186078101Y-66935350D03*
X186728100Y-66935350D03*
X187378099Y-66935350D03*
%TD*%
%TO.C,U5*%
X178234099Y-69157850D03*
X177584100Y-69157850D03*
X176934101Y-69157850D03*
X176934101Y-66935350D03*
X177584100Y-66935350D03*
X178234099Y-66935350D03*
%TD*%
D20*
%TO.C,U4*%
X176618900Y-61823600D03*
X176618900Y-60553600D03*
X176618900Y-59283600D03*
X176618900Y-58013600D03*
X176618900Y-56743600D03*
X176618900Y-55473600D03*
X176618900Y-54203600D03*
X176618900Y-52933600D03*
X176618900Y-51663600D03*
X176618900Y-50393600D03*
X176618900Y-49123600D03*
X176618900Y-47853600D03*
X185661300Y-47853600D03*
X185661300Y-49123600D03*
X185661300Y-50393600D03*
X185661300Y-51663600D03*
X185661300Y-52933600D03*
X185661300Y-54203600D03*
X185661300Y-55473600D03*
X185661300Y-56743600D03*
X185661300Y-58013600D03*
X185661300Y-59283600D03*
X185661300Y-60553600D03*
X185661300Y-61823600D03*
%TD*%
D21*
%TO.C,U3*%
X164553900Y-59283600D03*
X164553900Y-58013600D03*
X164553900Y-56743600D03*
X164553900Y-55473600D03*
X164553900Y-54203600D03*
X164553900Y-52933600D03*
X164553900Y-51663600D03*
X164553900Y-50393600D03*
X169278300Y-50393600D03*
X169278300Y-51663600D03*
X169278300Y-52933600D03*
X169278300Y-54203600D03*
X169278300Y-55473600D03*
X169278300Y-56743600D03*
X169278300Y-58013600D03*
X169278300Y-59283600D03*
%TD*%
D14*
%TO.C,TP14*%
X156897100Y-136107100D03*
X159437100Y-136107100D03*
%TD*%
%TO.C,TP13*%
X161977100Y-136107100D03*
X159437100Y-136107100D03*
%TD*%
%TO.C,TP12*%
X175274900Y-136107400D03*
X177814900Y-136107400D03*
%TD*%
%TO.C,TP11*%
X180354900Y-136107400D03*
X177814900Y-136107400D03*
%TD*%
%TO.C,TP10*%
X193514100Y-136053600D03*
X196054100Y-136053600D03*
%TD*%
%TO.C,TP9*%
X198594100Y-136053600D03*
X196054100Y-136053600D03*
%TD*%
%TO.C,TP8*%
X156273500Y-145986500D03*
X153733500Y-145986500D03*
%TD*%
%TO.C,TP7*%
X174688500Y-145923000D03*
X172148500Y-145923000D03*
%TD*%
%TO.C,TP6*%
X192976500Y-145923000D03*
X190436500Y-145923000D03*
%TD*%
%TO.C,TP5*%
X159702500Y-77216000D03*
X157162500Y-77216000D03*
%TD*%
%TO.C,TP4*%
X154622500Y-77216000D03*
X157162500Y-77216000D03*
%TD*%
D17*
%TO.C,TP3*%
X139065000Y-70866000D03*
%TD*%
%TO.C,TP2*%
X144145000Y-70866000D03*
%TD*%
D14*
%TO.C,TP1*%
X160528000Y-68199000D03*
X163068000Y-68199000D03*
%TD*%
%TO.C,R40*%
G36*
G01*
X96095000Y-123169000D02*
X96095000Y-123719000D01*
G75*
G02*
X95895000Y-123919000I-200000J0D01*
G01*
X95495000Y-123919000D01*
G75*
G02*
X95295000Y-123719000I0J200000D01*
G01*
X95295000Y-123169000D01*
G75*
G02*
X95495000Y-122969000I200000J0D01*
G01*
X95895000Y-122969000D01*
G75*
G02*
X96095000Y-123169000I0J-200000D01*
G01*
G37*
G36*
G01*
X97745000Y-123169000D02*
X97745000Y-123719000D01*
G75*
G02*
X97545000Y-123919000I-200000J0D01*
G01*
X97145000Y-123919000D01*
G75*
G02*
X96945000Y-123719000I0J200000D01*
G01*
X96945000Y-123169000D01*
G75*
G02*
X97145000Y-122969000I200000J0D01*
G01*
X97545000Y-122969000D01*
G75*
G02*
X97745000Y-123169000I0J-200000D01*
G01*
G37*
%TD*%
%TO.C,R39*%
G36*
G01*
X96095000Y-120629000D02*
X96095000Y-121179000D01*
G75*
G02*
X95895000Y-121379000I-200000J0D01*
G01*
X95495000Y-121379000D01*
G75*
G02*
X95295000Y-121179000I0J200000D01*
G01*
X95295000Y-120629000D01*
G75*
G02*
X95495000Y-120429000I200000J0D01*
G01*
X95895000Y-120429000D01*
G75*
G02*
X96095000Y-120629000I0J-200000D01*
G01*
G37*
G36*
G01*
X97745000Y-120629000D02*
X97745000Y-121179000D01*
G75*
G02*
X97545000Y-121379000I-200000J0D01*
G01*
X97145000Y-121379000D01*
G75*
G02*
X96945000Y-121179000I0J200000D01*
G01*
X96945000Y-120629000D01*
G75*
G02*
X97145000Y-120429000I200000J0D01*
G01*
X97545000Y-120429000D01*
G75*
G02*
X97745000Y-120629000I0J-200000D01*
G01*
G37*
%TD*%
%TO.C,R38*%
G36*
G01*
X159437500Y-145361498D02*
X159437500Y-146611502D01*
G75*
G02*
X159187502Y-146861500I-249998J0D01*
G01*
X158562498Y-146861500D01*
G75*
G02*
X158312500Y-146611502I0J249998D01*
G01*
X158312500Y-145361498D01*
G75*
G02*
X158562498Y-145111500I249998J0D01*
G01*
X159187502Y-145111500D01*
G75*
G02*
X159437500Y-145361498I0J-249998D01*
G01*
G37*
G36*
G01*
X162362500Y-145361498D02*
X162362500Y-146611502D01*
G75*
G02*
X162112502Y-146861500I-249998J0D01*
G01*
X161487498Y-146861500D01*
G75*
G02*
X161237500Y-146611502I0J249998D01*
G01*
X161237500Y-145361498D01*
G75*
G02*
X161487498Y-145111500I249998J0D01*
G01*
X162112502Y-145111500D01*
G75*
G02*
X162362500Y-145361498I0J-249998D01*
G01*
G37*
%TD*%
%TO.C,R37*%
G36*
G01*
X177852500Y-145297998D02*
X177852500Y-146548002D01*
G75*
G02*
X177602502Y-146798000I-249998J0D01*
G01*
X176977498Y-146798000D01*
G75*
G02*
X176727500Y-146548002I0J249998D01*
G01*
X176727500Y-145297998D01*
G75*
G02*
X176977498Y-145048000I249998J0D01*
G01*
X177602502Y-145048000D01*
G75*
G02*
X177852500Y-145297998I0J-249998D01*
G01*
G37*
G36*
G01*
X180777500Y-145297998D02*
X180777500Y-146548002D01*
G75*
G02*
X180527502Y-146798000I-249998J0D01*
G01*
X179902498Y-146798000D01*
G75*
G02*
X179652500Y-146548002I0J249998D01*
G01*
X179652500Y-145297998D01*
G75*
G02*
X179902498Y-145048000I249998J0D01*
G01*
X180527502Y-145048000D01*
G75*
G02*
X180777500Y-145297998I0J-249998D01*
G01*
G37*
%TD*%
%TO.C,R36*%
G36*
G01*
X196140500Y-145297998D02*
X196140500Y-146548002D01*
G75*
G02*
X195890502Y-146798000I-249998J0D01*
G01*
X195265498Y-146798000D01*
G75*
G02*
X195015500Y-146548002I0J249998D01*
G01*
X195015500Y-145297998D01*
G75*
G02*
X195265498Y-145048000I249998J0D01*
G01*
X195890502Y-145048000D01*
G75*
G02*
X196140500Y-145297998I0J-249998D01*
G01*
G37*
G36*
G01*
X199065500Y-145297998D02*
X199065500Y-146548002D01*
G75*
G02*
X198815502Y-146798000I-249998J0D01*
G01*
X198190498Y-146798000D01*
G75*
G02*
X197940500Y-146548002I0J249998D01*
G01*
X197940500Y-145297998D01*
G75*
G02*
X198190498Y-145048000I249998J0D01*
G01*
X198815502Y-145048000D01*
G75*
G02*
X199065500Y-145297998I0J-249998D01*
G01*
G37*
%TD*%
%TO.C,R35*%
G36*
G01*
X152950500Y-142855500D02*
X153500500Y-142855500D01*
G75*
G02*
X153700500Y-143055500I0J-200000D01*
G01*
X153700500Y-143455500D01*
G75*
G02*
X153500500Y-143655500I-200000J0D01*
G01*
X152950500Y-143655500D01*
G75*
G02*
X152750500Y-143455500I0J200000D01*
G01*
X152750500Y-143055500D01*
G75*
G02*
X152950500Y-142855500I200000J0D01*
G01*
G37*
G36*
G01*
X152950500Y-141205500D02*
X153500500Y-141205500D01*
G75*
G02*
X153700500Y-141405500I0J-200000D01*
G01*
X153700500Y-141805500D01*
G75*
G02*
X153500500Y-142005500I-200000J0D01*
G01*
X152950500Y-142005500D01*
G75*
G02*
X152750500Y-141805500I0J200000D01*
G01*
X152750500Y-141405500D01*
G75*
G02*
X152950500Y-141205500I200000J0D01*
G01*
G37*
%TD*%
%TO.C,R34*%
G36*
G01*
X171365500Y-142855500D02*
X171915500Y-142855500D01*
G75*
G02*
X172115500Y-143055500I0J-200000D01*
G01*
X172115500Y-143455500D01*
G75*
G02*
X171915500Y-143655500I-200000J0D01*
G01*
X171365500Y-143655500D01*
G75*
G02*
X171165500Y-143455500I0J200000D01*
G01*
X171165500Y-143055500D01*
G75*
G02*
X171365500Y-142855500I200000J0D01*
G01*
G37*
G36*
G01*
X171365500Y-141205500D02*
X171915500Y-141205500D01*
G75*
G02*
X172115500Y-141405500I0J-200000D01*
G01*
X172115500Y-141805500D01*
G75*
G02*
X171915500Y-142005500I-200000J0D01*
G01*
X171365500Y-142005500D01*
G75*
G02*
X171165500Y-141805500I0J200000D01*
G01*
X171165500Y-141405500D01*
G75*
G02*
X171365500Y-141205500I200000J0D01*
G01*
G37*
%TD*%
%TO.C,R33*%
G36*
G01*
X189717000Y-142855500D02*
X190267000Y-142855500D01*
G75*
G02*
X190467000Y-143055500I0J-200000D01*
G01*
X190467000Y-143455500D01*
G75*
G02*
X190267000Y-143655500I-200000J0D01*
G01*
X189717000Y-143655500D01*
G75*
G02*
X189517000Y-143455500I0J200000D01*
G01*
X189517000Y-143055500D01*
G75*
G02*
X189717000Y-142855500I200000J0D01*
G01*
G37*
G36*
G01*
X189717000Y-141205500D02*
X190267000Y-141205500D01*
G75*
G02*
X190467000Y-141405500I0J-200000D01*
G01*
X190467000Y-141805500D01*
G75*
G02*
X190267000Y-142005500I-200000J0D01*
G01*
X189717000Y-142005500D01*
G75*
G02*
X189517000Y-141805500I0J200000D01*
G01*
X189517000Y-141405500D01*
G75*
G02*
X189717000Y-141205500I200000J0D01*
G01*
G37*
%TD*%
%TO.C,R31*%
G36*
G01*
X151428000Y-140483000D02*
X151428000Y-139933000D01*
G75*
G02*
X151628000Y-139733000I200000J0D01*
G01*
X152028000Y-139733000D01*
G75*
G02*
X152228000Y-139933000I0J-200000D01*
G01*
X152228000Y-140483000D01*
G75*
G02*
X152028000Y-140683000I-200000J0D01*
G01*
X151628000Y-140683000D01*
G75*
G02*
X151428000Y-140483000I0J200000D01*
G01*
G37*
G36*
G01*
X149778000Y-140483000D02*
X149778000Y-139933000D01*
G75*
G02*
X149978000Y-139733000I200000J0D01*
G01*
X150378000Y-139733000D01*
G75*
G02*
X150578000Y-139933000I0J-200000D01*
G01*
X150578000Y-140483000D01*
G75*
G02*
X150378000Y-140683000I-200000J0D01*
G01*
X149978000Y-140683000D01*
G75*
G02*
X149778000Y-140483000I0J200000D01*
G01*
G37*
%TD*%
%TO.C,R29*%
G36*
G01*
X169843000Y-140483000D02*
X169843000Y-139933000D01*
G75*
G02*
X170043000Y-139733000I200000J0D01*
G01*
X170443000Y-139733000D01*
G75*
G02*
X170643000Y-139933000I0J-200000D01*
G01*
X170643000Y-140483000D01*
G75*
G02*
X170443000Y-140683000I-200000J0D01*
G01*
X170043000Y-140683000D01*
G75*
G02*
X169843000Y-140483000I0J200000D01*
G01*
G37*
G36*
G01*
X168193000Y-140483000D02*
X168193000Y-139933000D01*
G75*
G02*
X168393000Y-139733000I200000J0D01*
G01*
X168793000Y-139733000D01*
G75*
G02*
X168993000Y-139933000I0J-200000D01*
G01*
X168993000Y-140483000D01*
G75*
G02*
X168793000Y-140683000I-200000J0D01*
G01*
X168393000Y-140683000D01*
G75*
G02*
X168193000Y-140483000I0J200000D01*
G01*
G37*
%TD*%
%TO.C,R27*%
G36*
G01*
X188194500Y-140483000D02*
X188194500Y-139933000D01*
G75*
G02*
X188394500Y-139733000I200000J0D01*
G01*
X188794500Y-139733000D01*
G75*
G02*
X188994500Y-139933000I0J-200000D01*
G01*
X188994500Y-140483000D01*
G75*
G02*
X188794500Y-140683000I-200000J0D01*
G01*
X188394500Y-140683000D01*
G75*
G02*
X188194500Y-140483000I0J200000D01*
G01*
G37*
G36*
G01*
X186544500Y-140483000D02*
X186544500Y-139933000D01*
G75*
G02*
X186744500Y-139733000I200000J0D01*
G01*
X187144500Y-139733000D01*
G75*
G02*
X187344500Y-139933000I0J-200000D01*
G01*
X187344500Y-140483000D01*
G75*
G02*
X187144500Y-140683000I-200000J0D01*
G01*
X186744500Y-140683000D01*
G75*
G02*
X186544500Y-140483000I0J200000D01*
G01*
G37*
%TD*%
%TO.C,R26*%
G36*
G01*
X149563500Y-71647500D02*
X149013500Y-71647500D01*
G75*
G02*
X148813500Y-71447500I0J200000D01*
G01*
X148813500Y-71047500D01*
G75*
G02*
X149013500Y-70847500I200000J0D01*
G01*
X149563500Y-70847500D01*
G75*
G02*
X149763500Y-71047500I0J-200000D01*
G01*
X149763500Y-71447500D01*
G75*
G02*
X149563500Y-71647500I-200000J0D01*
G01*
G37*
G36*
G01*
X149563500Y-73297500D02*
X149013500Y-73297500D01*
G75*
G02*
X148813500Y-73097500I0J200000D01*
G01*
X148813500Y-72697500D01*
G75*
G02*
X149013500Y-72497500I200000J0D01*
G01*
X149563500Y-72497500D01*
G75*
G02*
X149763500Y-72697500I0J-200000D01*
G01*
X149763500Y-73097500D01*
G75*
G02*
X149563500Y-73297500I-200000J0D01*
G01*
G37*
%TD*%
%TO.C,R25*%
G36*
G01*
X149563500Y-68599500D02*
X149013500Y-68599500D01*
G75*
G02*
X148813500Y-68399500I0J200000D01*
G01*
X148813500Y-67999500D01*
G75*
G02*
X149013500Y-67799500I200000J0D01*
G01*
X149563500Y-67799500D01*
G75*
G02*
X149763500Y-67999500I0J-200000D01*
G01*
X149763500Y-68399500D01*
G75*
G02*
X149563500Y-68599500I-200000J0D01*
G01*
G37*
G36*
G01*
X149563500Y-70249500D02*
X149013500Y-70249500D01*
G75*
G02*
X148813500Y-70049500I0J200000D01*
G01*
X148813500Y-69649500D01*
G75*
G02*
X149013500Y-69449500I200000J0D01*
G01*
X149563500Y-69449500D01*
G75*
G02*
X149763500Y-69649500I0J-200000D01*
G01*
X149763500Y-70049500D01*
G75*
G02*
X149563500Y-70249500I-200000J0D01*
G01*
G37*
%TD*%
%TO.C,R24*%
G36*
G01*
X146960000Y-70441000D02*
X146410000Y-70441000D01*
G75*
G02*
X146210000Y-70241000I0J200000D01*
G01*
X146210000Y-69841000D01*
G75*
G02*
X146410000Y-69641000I200000J0D01*
G01*
X146960000Y-69641000D01*
G75*
G02*
X147160000Y-69841000I0J-200000D01*
G01*
X147160000Y-70241000D01*
G75*
G02*
X146960000Y-70441000I-200000J0D01*
G01*
G37*
G36*
G01*
X146960000Y-72091000D02*
X146410000Y-72091000D01*
G75*
G02*
X146210000Y-71891000I0J200000D01*
G01*
X146210000Y-71491000D01*
G75*
G02*
X146410000Y-71291000I200000J0D01*
G01*
X146960000Y-71291000D01*
G75*
G02*
X147160000Y-71491000I0J-200000D01*
G01*
X147160000Y-71891000D01*
G75*
G02*
X146960000Y-72091000I-200000J0D01*
G01*
G37*
%TD*%
%TO.C,R23*%
G36*
G01*
X157110000Y-68824002D02*
X157110000Y-67573998D01*
G75*
G02*
X157359998Y-67324000I249998J0D01*
G01*
X157985002Y-67324000D01*
G75*
G02*
X158235000Y-67573998I0J-249998D01*
G01*
X158235000Y-68824002D01*
G75*
G02*
X157985002Y-69074000I-249998J0D01*
G01*
X157359998Y-69074000D01*
G75*
G02*
X157110000Y-68824002I0J249998D01*
G01*
G37*
G36*
G01*
X154185000Y-68824002D02*
X154185000Y-67573998D01*
G75*
G02*
X154434998Y-67324000I249998J0D01*
G01*
X155060002Y-67324000D01*
G75*
G02*
X155310000Y-67573998I0J-249998D01*
G01*
X155310000Y-68824002D01*
G75*
G02*
X155060002Y-69074000I-249998J0D01*
G01*
X154434998Y-69074000D01*
G75*
G02*
X154185000Y-68824002I0J249998D01*
G01*
G37*
%TD*%
%TO.C,R22*%
G36*
G01*
X149500000Y-75902000D02*
X148950000Y-75902000D01*
G75*
G02*
X148750000Y-75702000I0J200000D01*
G01*
X148750000Y-75302000D01*
G75*
G02*
X148950000Y-75102000I200000J0D01*
G01*
X149500000Y-75102000D01*
G75*
G02*
X149700000Y-75302000I0J-200000D01*
G01*
X149700000Y-75702000D01*
G75*
G02*
X149500000Y-75902000I-200000J0D01*
G01*
G37*
G36*
G01*
X149500000Y-77552000D02*
X148950000Y-77552000D01*
G75*
G02*
X148750000Y-77352000I0J200000D01*
G01*
X148750000Y-76952000D01*
G75*
G02*
X148950000Y-76752000I200000J0D01*
G01*
X149500000Y-76752000D01*
G75*
G02*
X149700000Y-76952000I0J-200000D01*
G01*
X149700000Y-77352000D01*
G75*
G02*
X149500000Y-77552000I-200000J0D01*
G01*
G37*
%TD*%
%TO.C,R21*%
G36*
G01*
X161501500Y-71012000D02*
X160951500Y-71012000D01*
G75*
G02*
X160751500Y-70812000I0J200000D01*
G01*
X160751500Y-70412000D01*
G75*
G02*
X160951500Y-70212000I200000J0D01*
G01*
X161501500Y-70212000D01*
G75*
G02*
X161701500Y-70412000I0J-200000D01*
G01*
X161701500Y-70812000D01*
G75*
G02*
X161501500Y-71012000I-200000J0D01*
G01*
G37*
G36*
G01*
X161501500Y-72662000D02*
X160951500Y-72662000D01*
G75*
G02*
X160751500Y-72462000I0J200000D01*
G01*
X160751500Y-72062000D01*
G75*
G02*
X160951500Y-71862000I200000J0D01*
G01*
X161501500Y-71862000D01*
G75*
G02*
X161701500Y-72062000I0J-200000D01*
G01*
X161701500Y-72462000D01*
G75*
G02*
X161501500Y-72662000I-200000J0D01*
G01*
G37*
%TD*%
%TO.C,R19*%
G36*
G01*
X149523900Y-78287200D02*
X149523900Y-78837200D01*
G75*
G02*
X149323900Y-79037200I-200000J0D01*
G01*
X148923900Y-79037200D01*
G75*
G02*
X148723900Y-78837200I0J200000D01*
G01*
X148723900Y-78287200D01*
G75*
G02*
X148923900Y-78087200I200000J0D01*
G01*
X149323900Y-78087200D01*
G75*
G02*
X149523900Y-78287200I0J-200000D01*
G01*
G37*
G36*
G01*
X151173900Y-78287200D02*
X151173900Y-78837200D01*
G75*
G02*
X150973900Y-79037200I-200000J0D01*
G01*
X150573900Y-79037200D01*
G75*
G02*
X150373900Y-78837200I0J200000D01*
G01*
X150373900Y-78287200D01*
G75*
G02*
X150573900Y-78087200I200000J0D01*
G01*
X150973900Y-78087200D01*
G75*
G02*
X151173900Y-78287200I0J-200000D01*
G01*
G37*
%TD*%
%TO.C,R17*%
G36*
G01*
X163024000Y-73385000D02*
X163024000Y-73935000D01*
G75*
G02*
X162824000Y-74135000I-200000J0D01*
G01*
X162424000Y-74135000D01*
G75*
G02*
X162224000Y-73935000I0J200000D01*
G01*
X162224000Y-73385000D01*
G75*
G02*
X162424000Y-73185000I200000J0D01*
G01*
X162824000Y-73185000D01*
G75*
G02*
X163024000Y-73385000I0J-200000D01*
G01*
G37*
G36*
G01*
X164674000Y-73385000D02*
X164674000Y-73935000D01*
G75*
G02*
X164474000Y-74135000I-200000J0D01*
G01*
X164074000Y-74135000D01*
G75*
G02*
X163874000Y-73935000I0J200000D01*
G01*
X163874000Y-73385000D01*
G75*
G02*
X164074000Y-73185000I200000J0D01*
G01*
X164474000Y-73185000D01*
G75*
G02*
X164674000Y-73385000I0J-200000D01*
G01*
G37*
%TD*%
%TO.C,R16*%
G36*
G01*
X134703000Y-67924000D02*
X134703000Y-68474000D01*
G75*
G02*
X134503000Y-68674000I-200000J0D01*
G01*
X134103000Y-68674000D01*
G75*
G02*
X133903000Y-68474000I0J200000D01*
G01*
X133903000Y-67924000D01*
G75*
G02*
X134103000Y-67724000I200000J0D01*
G01*
X134503000Y-67724000D01*
G75*
G02*
X134703000Y-67924000I0J-200000D01*
G01*
G37*
G36*
G01*
X136353000Y-67924000D02*
X136353000Y-68474000D01*
G75*
G02*
X136153000Y-68674000I-200000J0D01*
G01*
X135753000Y-68674000D01*
G75*
G02*
X135553000Y-68474000I0J200000D01*
G01*
X135553000Y-67924000D01*
G75*
G02*
X135753000Y-67724000I200000J0D01*
G01*
X136153000Y-67724000D01*
G75*
G02*
X136353000Y-67924000I0J-200000D01*
G01*
G37*
%TD*%
%TO.C,R15*%
G36*
G01*
X131147000Y-67924000D02*
X131147000Y-68474000D01*
G75*
G02*
X130947000Y-68674000I-200000J0D01*
G01*
X130547000Y-68674000D01*
G75*
G02*
X130347000Y-68474000I0J200000D01*
G01*
X130347000Y-67924000D01*
G75*
G02*
X130547000Y-67724000I200000J0D01*
G01*
X130947000Y-67724000D01*
G75*
G02*
X131147000Y-67924000I0J-200000D01*
G01*
G37*
G36*
G01*
X132797000Y-67924000D02*
X132797000Y-68474000D01*
G75*
G02*
X132597000Y-68674000I-200000J0D01*
G01*
X132197000Y-68674000D01*
G75*
G02*
X131997000Y-68474000I0J200000D01*
G01*
X131997000Y-67924000D01*
G75*
G02*
X132197000Y-67724000I200000J0D01*
G01*
X132597000Y-67724000D01*
G75*
G02*
X132797000Y-67924000I0J-200000D01*
G01*
G37*
%TD*%
%TO.C,R14*%
G36*
G01*
X127591000Y-67924000D02*
X127591000Y-68474000D01*
G75*
G02*
X127391000Y-68674000I-200000J0D01*
G01*
X126991000Y-68674000D01*
G75*
G02*
X126791000Y-68474000I0J200000D01*
G01*
X126791000Y-67924000D01*
G75*
G02*
X126991000Y-67724000I200000J0D01*
G01*
X127391000Y-67724000D01*
G75*
G02*
X127591000Y-67924000I0J-200000D01*
G01*
G37*
G36*
G01*
X129241000Y-67924000D02*
X129241000Y-68474000D01*
G75*
G02*
X129041000Y-68674000I-200000J0D01*
G01*
X128641000Y-68674000D01*
G75*
G02*
X128441000Y-68474000I0J200000D01*
G01*
X128441000Y-67924000D01*
G75*
G02*
X128641000Y-67724000I200000J0D01*
G01*
X129041000Y-67724000D01*
G75*
G02*
X129241000Y-67924000I0J-200000D01*
G01*
G37*
%TD*%
%TO.C,R13*%
G36*
G01*
X124035000Y-67924000D02*
X124035000Y-68474000D01*
G75*
G02*
X123835000Y-68674000I-200000J0D01*
G01*
X123435000Y-68674000D01*
G75*
G02*
X123235000Y-68474000I0J200000D01*
G01*
X123235000Y-67924000D01*
G75*
G02*
X123435000Y-67724000I200000J0D01*
G01*
X123835000Y-67724000D01*
G75*
G02*
X124035000Y-67924000I0J-200000D01*
G01*
G37*
G36*
G01*
X125685000Y-67924000D02*
X125685000Y-68474000D01*
G75*
G02*
X125485000Y-68674000I-200000J0D01*
G01*
X125085000Y-68674000D01*
G75*
G02*
X124885000Y-68474000I0J200000D01*
G01*
X124885000Y-67924000D01*
G75*
G02*
X125085000Y-67724000I200000J0D01*
G01*
X125485000Y-67724000D01*
G75*
G02*
X125685000Y-67924000I0J-200000D01*
G01*
G37*
%TD*%
%TO.C,R12*%
G36*
G01*
X120479000Y-67924000D02*
X120479000Y-68474000D01*
G75*
G02*
X120279000Y-68674000I-200000J0D01*
G01*
X119879000Y-68674000D01*
G75*
G02*
X119679000Y-68474000I0J200000D01*
G01*
X119679000Y-67924000D01*
G75*
G02*
X119879000Y-67724000I200000J0D01*
G01*
X120279000Y-67724000D01*
G75*
G02*
X120479000Y-67924000I0J-200000D01*
G01*
G37*
G36*
G01*
X122129000Y-67924000D02*
X122129000Y-68474000D01*
G75*
G02*
X121929000Y-68674000I-200000J0D01*
G01*
X121529000Y-68674000D01*
G75*
G02*
X121329000Y-68474000I0J200000D01*
G01*
X121329000Y-67924000D01*
G75*
G02*
X121529000Y-67724000I200000J0D01*
G01*
X121929000Y-67724000D01*
G75*
G02*
X122129000Y-67924000I0J-200000D01*
G01*
G37*
%TD*%
%TO.C,R11*%
G36*
G01*
X116923000Y-67924000D02*
X116923000Y-68474000D01*
G75*
G02*
X116723000Y-68674000I-200000J0D01*
G01*
X116323000Y-68674000D01*
G75*
G02*
X116123000Y-68474000I0J200000D01*
G01*
X116123000Y-67924000D01*
G75*
G02*
X116323000Y-67724000I200000J0D01*
G01*
X116723000Y-67724000D01*
G75*
G02*
X116923000Y-67924000I0J-200000D01*
G01*
G37*
G36*
G01*
X118573000Y-67924000D02*
X118573000Y-68474000D01*
G75*
G02*
X118373000Y-68674000I-200000J0D01*
G01*
X117973000Y-68674000D01*
G75*
G02*
X117773000Y-68474000I0J200000D01*
G01*
X117773000Y-67924000D01*
G75*
G02*
X117973000Y-67724000I200000J0D01*
G01*
X118373000Y-67724000D01*
G75*
G02*
X118573000Y-67924000I0J-200000D01*
G01*
G37*
%TD*%
%TO.C,R10*%
G36*
G01*
X113367000Y-67924000D02*
X113367000Y-68474000D01*
G75*
G02*
X113167000Y-68674000I-200000J0D01*
G01*
X112767000Y-68674000D01*
G75*
G02*
X112567000Y-68474000I0J200000D01*
G01*
X112567000Y-67924000D01*
G75*
G02*
X112767000Y-67724000I200000J0D01*
G01*
X113167000Y-67724000D01*
G75*
G02*
X113367000Y-67924000I0J-200000D01*
G01*
G37*
G36*
G01*
X115017000Y-67924000D02*
X115017000Y-68474000D01*
G75*
G02*
X114817000Y-68674000I-200000J0D01*
G01*
X114417000Y-68674000D01*
G75*
G02*
X114217000Y-68474000I0J200000D01*
G01*
X114217000Y-67924000D01*
G75*
G02*
X114417000Y-67724000I200000J0D01*
G01*
X114817000Y-67724000D01*
G75*
G02*
X115017000Y-67924000I0J-200000D01*
G01*
G37*
%TD*%
%TO.C,R9*%
G36*
G01*
X109811000Y-67924000D02*
X109811000Y-68474000D01*
G75*
G02*
X109611000Y-68674000I-200000J0D01*
G01*
X109211000Y-68674000D01*
G75*
G02*
X109011000Y-68474000I0J200000D01*
G01*
X109011000Y-67924000D01*
G75*
G02*
X109211000Y-67724000I200000J0D01*
G01*
X109611000Y-67724000D01*
G75*
G02*
X109811000Y-67924000I0J-200000D01*
G01*
G37*
G36*
G01*
X111461000Y-67924000D02*
X111461000Y-68474000D01*
G75*
G02*
X111261000Y-68674000I-200000J0D01*
G01*
X110861000Y-68674000D01*
G75*
G02*
X110661000Y-68474000I0J200000D01*
G01*
X110661000Y-67924000D01*
G75*
G02*
X110861000Y-67724000I200000J0D01*
G01*
X111261000Y-67724000D01*
G75*
G02*
X111461000Y-67924000I0J-200000D01*
G01*
G37*
%TD*%
%TO.C,R7*%
G36*
G01*
X149816000Y-113009000D02*
X149816000Y-113559000D01*
G75*
G02*
X149616000Y-113759000I-200000J0D01*
G01*
X149216000Y-113759000D01*
G75*
G02*
X149016000Y-113559000I0J200000D01*
G01*
X149016000Y-113009000D01*
G75*
G02*
X149216000Y-112809000I200000J0D01*
G01*
X149616000Y-112809000D01*
G75*
G02*
X149816000Y-113009000I0J-200000D01*
G01*
G37*
G36*
G01*
X151466000Y-113009000D02*
X151466000Y-113559000D01*
G75*
G02*
X151266000Y-113759000I-200000J0D01*
G01*
X150866000Y-113759000D01*
G75*
G02*
X150666000Y-113559000I0J200000D01*
G01*
X150666000Y-113009000D01*
G75*
G02*
X150866000Y-112809000I200000J0D01*
G01*
X151266000Y-112809000D01*
G75*
G02*
X151466000Y-113009000I0J-200000D01*
G01*
G37*
%TD*%
%TO.C,R6*%
G36*
G01*
X149816000Y-115549000D02*
X149816000Y-116099000D01*
G75*
G02*
X149616000Y-116299000I-200000J0D01*
G01*
X149216000Y-116299000D01*
G75*
G02*
X149016000Y-116099000I0J200000D01*
G01*
X149016000Y-115549000D01*
G75*
G02*
X149216000Y-115349000I200000J0D01*
G01*
X149616000Y-115349000D01*
G75*
G02*
X149816000Y-115549000I0J-200000D01*
G01*
G37*
G36*
G01*
X151466000Y-115549000D02*
X151466000Y-116099000D01*
G75*
G02*
X151266000Y-116299000I-200000J0D01*
G01*
X150866000Y-116299000D01*
G75*
G02*
X150666000Y-116099000I0J200000D01*
G01*
X150666000Y-115549000D01*
G75*
G02*
X150866000Y-115349000I200000J0D01*
G01*
X151266000Y-115349000D01*
G75*
G02*
X151466000Y-115549000I0J-200000D01*
G01*
G37*
%TD*%
%TO.C,R5*%
G36*
G01*
X149816000Y-118089000D02*
X149816000Y-118639000D01*
G75*
G02*
X149616000Y-118839000I-200000J0D01*
G01*
X149216000Y-118839000D01*
G75*
G02*
X149016000Y-118639000I0J200000D01*
G01*
X149016000Y-118089000D01*
G75*
G02*
X149216000Y-117889000I200000J0D01*
G01*
X149616000Y-117889000D01*
G75*
G02*
X149816000Y-118089000I0J-200000D01*
G01*
G37*
G36*
G01*
X151466000Y-118089000D02*
X151466000Y-118639000D01*
G75*
G02*
X151266000Y-118839000I-200000J0D01*
G01*
X150866000Y-118839000D01*
G75*
G02*
X150666000Y-118639000I0J200000D01*
G01*
X150666000Y-118089000D01*
G75*
G02*
X150866000Y-117889000I200000J0D01*
G01*
X151266000Y-117889000D01*
G75*
G02*
X151466000Y-118089000I0J-200000D01*
G01*
G37*
%TD*%
%TO.C,R4*%
G36*
G01*
X150666000Y-121179000D02*
X150666000Y-120629000D01*
G75*
G02*
X150866000Y-120429000I200000J0D01*
G01*
X151266000Y-120429000D01*
G75*
G02*
X151466000Y-120629000I0J-200000D01*
G01*
X151466000Y-121179000D01*
G75*
G02*
X151266000Y-121379000I-200000J0D01*
G01*
X150866000Y-121379000D01*
G75*
G02*
X150666000Y-121179000I0J200000D01*
G01*
G37*
G36*
G01*
X149016000Y-121179000D02*
X149016000Y-120629000D01*
G75*
G02*
X149216000Y-120429000I200000J0D01*
G01*
X149616000Y-120429000D01*
G75*
G02*
X149816000Y-120629000I0J-200000D01*
G01*
X149816000Y-121179000D01*
G75*
G02*
X149616000Y-121379000I-200000J0D01*
G01*
X149216000Y-121379000D01*
G75*
G02*
X149016000Y-121179000I0J200000D01*
G01*
G37*
%TD*%
%TO.C,R3*%
G36*
G01*
X150666000Y-123719000D02*
X150666000Y-123169000D01*
G75*
G02*
X150866000Y-122969000I200000J0D01*
G01*
X151266000Y-122969000D01*
G75*
G02*
X151466000Y-123169000I0J-200000D01*
G01*
X151466000Y-123719000D01*
G75*
G02*
X151266000Y-123919000I-200000J0D01*
G01*
X150866000Y-123919000D01*
G75*
G02*
X150666000Y-123719000I0J200000D01*
G01*
G37*
G36*
G01*
X149016000Y-123719000D02*
X149016000Y-123169000D01*
G75*
G02*
X149216000Y-122969000I200000J0D01*
G01*
X149616000Y-122969000D01*
G75*
G02*
X149816000Y-123169000I0J-200000D01*
G01*
X149816000Y-123719000D01*
G75*
G02*
X149616000Y-123919000I-200000J0D01*
G01*
X149216000Y-123919000D01*
G75*
G02*
X149016000Y-123719000I0J200000D01*
G01*
G37*
%TD*%
%TO.C,R2*%
G36*
G01*
X96095000Y-118089000D02*
X96095000Y-118639000D01*
G75*
G02*
X95895000Y-118839000I-200000J0D01*
G01*
X95495000Y-118839000D01*
G75*
G02*
X95295000Y-118639000I0J200000D01*
G01*
X95295000Y-118089000D01*
G75*
G02*
X95495000Y-117889000I200000J0D01*
G01*
X95895000Y-117889000D01*
G75*
G02*
X96095000Y-118089000I0J-200000D01*
G01*
G37*
G36*
G01*
X97745000Y-118089000D02*
X97745000Y-118639000D01*
G75*
G02*
X97545000Y-118839000I-200000J0D01*
G01*
X97145000Y-118839000D01*
G75*
G02*
X96945000Y-118639000I0J200000D01*
G01*
X96945000Y-118089000D01*
G75*
G02*
X97145000Y-117889000I200000J0D01*
G01*
X97545000Y-117889000D01*
G75*
G02*
X97745000Y-118089000I0J-200000D01*
G01*
G37*
%TD*%
%TO.C,R1*%
G36*
G01*
X96095000Y-115549000D02*
X96095000Y-116099000D01*
G75*
G02*
X95895000Y-116299000I-200000J0D01*
G01*
X95495000Y-116299000D01*
G75*
G02*
X95295000Y-116099000I0J200000D01*
G01*
X95295000Y-115549000D01*
G75*
G02*
X95495000Y-115349000I200000J0D01*
G01*
X95895000Y-115349000D01*
G75*
G02*
X96095000Y-115549000I0J-200000D01*
G01*
G37*
G36*
G01*
X97745000Y-115549000D02*
X97745000Y-116099000D01*
G75*
G02*
X97545000Y-116299000I-200000J0D01*
G01*
X97145000Y-116299000D01*
G75*
G02*
X96945000Y-116099000I0J200000D01*
G01*
X96945000Y-115549000D01*
G75*
G02*
X97145000Y-115349000I200000J0D01*
G01*
X97545000Y-115349000D01*
G75*
G02*
X97745000Y-115549000I0J-200000D01*
G01*
G37*
%TD*%
D22*
%TO.C,J16*%
X144780000Y-148082000D03*
D23*
X146050000Y-148082000D03*
%TD*%
D22*
%TO.C,J15*%
X133985000Y-148082000D03*
X135255000Y-148082000D03*
X136525000Y-148082000D03*
X137795000Y-148082000D03*
X139065000Y-148082000D03*
D23*
X140335000Y-148082000D03*
%TD*%
D24*
%TO.C,J14*%
X125835000Y-144970500D03*
D25*
X124685000Y-148745500D03*
X130585000Y-148745500D03*
D24*
X127035000Y-144970500D03*
X128235000Y-144970500D03*
X129435000Y-144970500D03*
%TD*%
D22*
%TO.C,J13*%
X164655500Y-148526500D03*
X164655500Y-147256500D03*
D23*
X164655500Y-145986500D03*
%TD*%
D22*
%TO.C,J12*%
X183070500Y-148463000D03*
X183070500Y-147193000D03*
D23*
X183070500Y-145923000D03*
%TD*%
D22*
%TO.C,J11*%
X201358500Y-148463000D03*
X201358500Y-147193000D03*
D23*
X201358500Y-145923000D03*
%TD*%
D22*
%TO.C,J10*%
X150558500Y-148526500D03*
X150558500Y-147256500D03*
D23*
X150558500Y-145986500D03*
%TD*%
D22*
%TO.C,J9*%
X168973500Y-148522400D03*
X168973500Y-147252400D03*
D23*
X168973500Y-145982400D03*
%TD*%
D22*
%TO.C,J8*%
X187261500Y-148463000D03*
X187261500Y-147193000D03*
D23*
X187261500Y-145923000D03*
%TD*%
D26*
%TO.C,J7*%
X197548500Y-80632300D03*
X200088500Y-80632300D03*
D17*
X202628500Y-80632300D03*
%TD*%
D26*
%TO.C,J6*%
X197548500Y-85077300D03*
X200088500Y-85077300D03*
D17*
X202628500Y-85077300D03*
%TD*%
D26*
%TO.C,J5*%
X197548500Y-89522300D03*
X200088500Y-89522300D03*
D17*
X202628500Y-89522300D03*
%TD*%
D26*
%TO.C,J4*%
X206666000Y-103501500D03*
X206666000Y-100961500D03*
X206666000Y-98421500D03*
X206666000Y-95881500D03*
X206666000Y-93341500D03*
X206666000Y-90801500D03*
X206666000Y-88261500D03*
X206666000Y-85721500D03*
X206666000Y-83181500D03*
D17*
X206666000Y-80641500D03*
%TD*%
D26*
%TO.C,J3*%
X165166000Y-103501500D03*
X165166000Y-100961500D03*
X165166000Y-98421500D03*
X165166000Y-95881500D03*
X165166000Y-93341500D03*
X165166000Y-90801500D03*
X165166000Y-88261500D03*
X165166000Y-85721500D03*
X165166000Y-83181500D03*
D17*
X165166000Y-80641500D03*
%TD*%
D26*
%TO.C,J2*%
X146718200Y-123498600D03*
X146718200Y-120958600D03*
X146718200Y-118418600D03*
X146718200Y-115878600D03*
X146718200Y-113338600D03*
X146718200Y-110798600D03*
X146718200Y-108258600D03*
X146718200Y-105718600D03*
X146718200Y-103178600D03*
D17*
X146718200Y-100638600D03*
%TD*%
D26*
%TO.C,J1*%
X100218200Y-123498600D03*
X100218200Y-120958600D03*
X100218200Y-118418600D03*
X100218200Y-115878600D03*
X100218200Y-113338600D03*
X100218200Y-110798600D03*
X100218200Y-108258600D03*
X100218200Y-105718600D03*
X100218200Y-103178600D03*
D17*
X100218200Y-100638600D03*
%TD*%
%TO.C,FB1*%
G36*
G01*
X96870000Y-100840250D02*
X96870000Y-100327750D01*
G75*
G02*
X97088750Y-100109000I218750J0D01*
G01*
X97526250Y-100109000D01*
G75*
G02*
X97745000Y-100327750I0J-218750D01*
G01*
X97745000Y-100840250D01*
G75*
G02*
X97526250Y-101059000I-218750J0D01*
G01*
X97088750Y-101059000D01*
G75*
G02*
X96870000Y-100840250I0J218750D01*
G01*
G37*
G36*
G01*
X95295000Y-100840250D02*
X95295000Y-100327750D01*
G75*
G02*
X95513750Y-100109000I218750J0D01*
G01*
X95951250Y-100109000D01*
G75*
G02*
X96170000Y-100327750I0J-218750D01*
G01*
X96170000Y-100840250D01*
G75*
G02*
X95951250Y-101059000I-218750J0D01*
G01*
X95513750Y-101059000D01*
G75*
G02*
X95295000Y-100840250I0J218750D01*
G01*
G37*
%TD*%
%TO.C,C50*%
G36*
G01*
X158234500Y-138243500D02*
X158234500Y-138743500D01*
G75*
G02*
X158009500Y-138968500I-225000J0D01*
G01*
X157559500Y-138968500D01*
G75*
G02*
X157334500Y-138743500I0J225000D01*
G01*
X157334500Y-138243500D01*
G75*
G02*
X157559500Y-138018500I225000J0D01*
G01*
X158009500Y-138018500D01*
G75*
G02*
X158234500Y-138243500I0J-225000D01*
G01*
G37*
G36*
G01*
X159784500Y-138243500D02*
X159784500Y-138743500D01*
G75*
G02*
X159559500Y-138968500I-225000J0D01*
G01*
X159109500Y-138968500D01*
G75*
G02*
X158884500Y-138743500I0J225000D01*
G01*
X158884500Y-138243500D01*
G75*
G02*
X159109500Y-138018500I225000J0D01*
G01*
X159559500Y-138018500D01*
G75*
G02*
X159784500Y-138243500I0J-225000D01*
G01*
G37*
%TD*%
%TO.C,C49*%
G36*
G01*
X176649500Y-138180000D02*
X176649500Y-138680000D01*
G75*
G02*
X176424500Y-138905000I-225000J0D01*
G01*
X175974500Y-138905000D01*
G75*
G02*
X175749500Y-138680000I0J225000D01*
G01*
X175749500Y-138180000D01*
G75*
G02*
X175974500Y-137955000I225000J0D01*
G01*
X176424500Y-137955000D01*
G75*
G02*
X176649500Y-138180000I0J-225000D01*
G01*
G37*
G36*
G01*
X178199500Y-138180000D02*
X178199500Y-138680000D01*
G75*
G02*
X177974500Y-138905000I-225000J0D01*
G01*
X177524500Y-138905000D01*
G75*
G02*
X177299500Y-138680000I0J225000D01*
G01*
X177299500Y-138180000D01*
G75*
G02*
X177524500Y-137955000I225000J0D01*
G01*
X177974500Y-137955000D01*
G75*
G02*
X178199500Y-138180000I0J-225000D01*
G01*
G37*
%TD*%
%TO.C,C48*%
G36*
G01*
X194937500Y-138053000D02*
X194937500Y-138553000D01*
G75*
G02*
X194712500Y-138778000I-225000J0D01*
G01*
X194262500Y-138778000D01*
G75*
G02*
X194037500Y-138553000I0J225000D01*
G01*
X194037500Y-138053000D01*
G75*
G02*
X194262500Y-137828000I225000J0D01*
G01*
X194712500Y-137828000D01*
G75*
G02*
X194937500Y-138053000I0J-225000D01*
G01*
G37*
G36*
G01*
X196487500Y-138053000D02*
X196487500Y-138553000D01*
G75*
G02*
X196262500Y-138778000I-225000J0D01*
G01*
X195812500Y-138778000D01*
G75*
G02*
X195587500Y-138553000I0J225000D01*
G01*
X195587500Y-138053000D01*
G75*
G02*
X195812500Y-137828000I225000J0D01*
G01*
X196262500Y-137828000D01*
G75*
G02*
X196487500Y-138053000I0J-225000D01*
G01*
G37*
%TD*%
%TO.C,C47*%
G36*
G01*
X151515000Y-142755500D02*
X152015000Y-142755500D01*
G75*
G02*
X152240000Y-142980500I0J-225000D01*
G01*
X152240000Y-143430500D01*
G75*
G02*
X152015000Y-143655500I-225000J0D01*
G01*
X151515000Y-143655500D01*
G75*
G02*
X151290000Y-143430500I0J225000D01*
G01*
X151290000Y-142980500D01*
G75*
G02*
X151515000Y-142755500I225000J0D01*
G01*
G37*
G36*
G01*
X151515000Y-141205500D02*
X152015000Y-141205500D01*
G75*
G02*
X152240000Y-141430500I0J-225000D01*
G01*
X152240000Y-141880500D01*
G75*
G02*
X152015000Y-142105500I-225000J0D01*
G01*
X151515000Y-142105500D01*
G75*
G02*
X151290000Y-141880500I0J225000D01*
G01*
X151290000Y-141430500D01*
G75*
G02*
X151515000Y-141205500I225000J0D01*
G01*
G37*
%TD*%
%TO.C,C46*%
G36*
G01*
X169930000Y-142755500D02*
X170430000Y-142755500D01*
G75*
G02*
X170655000Y-142980500I0J-225000D01*
G01*
X170655000Y-143430500D01*
G75*
G02*
X170430000Y-143655500I-225000J0D01*
G01*
X169930000Y-143655500D01*
G75*
G02*
X169705000Y-143430500I0J225000D01*
G01*
X169705000Y-142980500D01*
G75*
G02*
X169930000Y-142755500I225000J0D01*
G01*
G37*
G36*
G01*
X169930000Y-141205500D02*
X170430000Y-141205500D01*
G75*
G02*
X170655000Y-141430500I0J-225000D01*
G01*
X170655000Y-141880500D01*
G75*
G02*
X170430000Y-142105500I-225000J0D01*
G01*
X169930000Y-142105500D01*
G75*
G02*
X169705000Y-141880500I0J225000D01*
G01*
X169705000Y-141430500D01*
G75*
G02*
X169930000Y-141205500I225000J0D01*
G01*
G37*
%TD*%
%TO.C,C45*%
G36*
G01*
X188281500Y-142755500D02*
X188781500Y-142755500D01*
G75*
G02*
X189006500Y-142980500I0J-225000D01*
G01*
X189006500Y-143430500D01*
G75*
G02*
X188781500Y-143655500I-225000J0D01*
G01*
X188281500Y-143655500D01*
G75*
G02*
X188056500Y-143430500I0J225000D01*
G01*
X188056500Y-142980500D01*
G75*
G02*
X188281500Y-142755500I225000J0D01*
G01*
G37*
G36*
G01*
X188281500Y-141205500D02*
X188781500Y-141205500D01*
G75*
G02*
X189006500Y-141430500I0J-225000D01*
G01*
X189006500Y-141880500D01*
G75*
G02*
X188781500Y-142105500I-225000J0D01*
G01*
X188281500Y-142105500D01*
G75*
G02*
X188056500Y-141880500I0J225000D01*
G01*
X188056500Y-141430500D01*
G75*
G02*
X188281500Y-141205500I225000J0D01*
G01*
G37*
%TD*%
%TO.C,C43*%
G36*
G01*
X151328000Y-138997500D02*
X151328000Y-138497500D01*
G75*
G02*
X151553000Y-138272500I225000J0D01*
G01*
X152003000Y-138272500D01*
G75*
G02*
X152228000Y-138497500I0J-225000D01*
G01*
X152228000Y-138997500D01*
G75*
G02*
X152003000Y-139222500I-225000J0D01*
G01*
X151553000Y-139222500D01*
G75*
G02*
X151328000Y-138997500I0J225000D01*
G01*
G37*
G36*
G01*
X149778000Y-138997500D02*
X149778000Y-138497500D01*
G75*
G02*
X150003000Y-138272500I225000J0D01*
G01*
X150453000Y-138272500D01*
G75*
G02*
X150678000Y-138497500I0J-225000D01*
G01*
X150678000Y-138997500D01*
G75*
G02*
X150453000Y-139222500I-225000J0D01*
G01*
X150003000Y-139222500D01*
G75*
G02*
X149778000Y-138997500I0J225000D01*
G01*
G37*
%TD*%
%TO.C,C41*%
G36*
G01*
X169743000Y-138997500D02*
X169743000Y-138497500D01*
G75*
G02*
X169968000Y-138272500I225000J0D01*
G01*
X170418000Y-138272500D01*
G75*
G02*
X170643000Y-138497500I0J-225000D01*
G01*
X170643000Y-138997500D01*
G75*
G02*
X170418000Y-139222500I-225000J0D01*
G01*
X169968000Y-139222500D01*
G75*
G02*
X169743000Y-138997500I0J225000D01*
G01*
G37*
G36*
G01*
X168193000Y-138997500D02*
X168193000Y-138497500D01*
G75*
G02*
X168418000Y-138272500I225000J0D01*
G01*
X168868000Y-138272500D01*
G75*
G02*
X169093000Y-138497500I0J-225000D01*
G01*
X169093000Y-138997500D01*
G75*
G02*
X168868000Y-139222500I-225000J0D01*
G01*
X168418000Y-139222500D01*
G75*
G02*
X168193000Y-138997500I0J225000D01*
G01*
G37*
%TD*%
%TO.C,C39*%
G36*
G01*
X188094500Y-138997500D02*
X188094500Y-138497500D01*
G75*
G02*
X188319500Y-138272500I225000J0D01*
G01*
X188769500Y-138272500D01*
G75*
G02*
X188994500Y-138497500I0J-225000D01*
G01*
X188994500Y-138997500D01*
G75*
G02*
X188769500Y-139222500I-225000J0D01*
G01*
X188319500Y-139222500D01*
G75*
G02*
X188094500Y-138997500I0J225000D01*
G01*
G37*
G36*
G01*
X186544500Y-138997500D02*
X186544500Y-138497500D01*
G75*
G02*
X186769500Y-138272500I225000J0D01*
G01*
X187219500Y-138272500D01*
G75*
G02*
X187444500Y-138497500I0J-225000D01*
G01*
X187444500Y-138997500D01*
G75*
G02*
X187219500Y-139222500I-225000J0D01*
G01*
X186769500Y-139222500D01*
G75*
G02*
X186544500Y-138997500I0J225000D01*
G01*
G37*
%TD*%
%TO.C,C38*%
G36*
G01*
X162246500Y-142247500D02*
X162746500Y-142247500D01*
G75*
G02*
X162971500Y-142472500I0J-225000D01*
G01*
X162971500Y-142922500D01*
G75*
G02*
X162746500Y-143147500I-225000J0D01*
G01*
X162246500Y-143147500D01*
G75*
G02*
X162021500Y-142922500I0J225000D01*
G01*
X162021500Y-142472500D01*
G75*
G02*
X162246500Y-142247500I225000J0D01*
G01*
G37*
G36*
G01*
X162246500Y-140697500D02*
X162746500Y-140697500D01*
G75*
G02*
X162971500Y-140922500I0J-225000D01*
G01*
X162971500Y-141372500D01*
G75*
G02*
X162746500Y-141597500I-225000J0D01*
G01*
X162246500Y-141597500D01*
G75*
G02*
X162021500Y-141372500I0J225000D01*
G01*
X162021500Y-140922500D01*
G75*
G02*
X162246500Y-140697500I225000J0D01*
G01*
G37*
%TD*%
%TO.C,C37*%
G36*
G01*
X180534500Y-142184000D02*
X181034500Y-142184000D01*
G75*
G02*
X181259500Y-142409000I0J-225000D01*
G01*
X181259500Y-142859000D01*
G75*
G02*
X181034500Y-143084000I-225000J0D01*
G01*
X180534500Y-143084000D01*
G75*
G02*
X180309500Y-142859000I0J225000D01*
G01*
X180309500Y-142409000D01*
G75*
G02*
X180534500Y-142184000I225000J0D01*
G01*
G37*
G36*
G01*
X180534500Y-140634000D02*
X181034500Y-140634000D01*
G75*
G02*
X181259500Y-140859000I0J-225000D01*
G01*
X181259500Y-141309000D01*
G75*
G02*
X181034500Y-141534000I-225000J0D01*
G01*
X180534500Y-141534000D01*
G75*
G02*
X180309500Y-141309000I0J225000D01*
G01*
X180309500Y-140859000D01*
G75*
G02*
X180534500Y-140634000I225000J0D01*
G01*
G37*
%TD*%
%TO.C,C36*%
G36*
G01*
X198822500Y-142184000D02*
X199322500Y-142184000D01*
G75*
G02*
X199547500Y-142409000I0J-225000D01*
G01*
X199547500Y-142859000D01*
G75*
G02*
X199322500Y-143084000I-225000J0D01*
G01*
X198822500Y-143084000D01*
G75*
G02*
X198597500Y-142859000I0J225000D01*
G01*
X198597500Y-142409000D01*
G75*
G02*
X198822500Y-142184000I225000J0D01*
G01*
G37*
G36*
G01*
X198822500Y-140634000D02*
X199322500Y-140634000D01*
G75*
G02*
X199547500Y-140859000I0J-225000D01*
G01*
X199547500Y-141309000D01*
G75*
G02*
X199322500Y-141534000I-225000J0D01*
G01*
X198822500Y-141534000D01*
G75*
G02*
X198597500Y-141309000I0J225000D01*
G01*
X198597500Y-140859000D01*
G75*
G02*
X198822500Y-140634000I225000J0D01*
G01*
G37*
%TD*%
%TO.C,C35*%
G36*
G01*
X140712000Y-144455000D02*
X140212000Y-144455000D01*
G75*
G02*
X139987000Y-144230000I0J225000D01*
G01*
X139987000Y-143780000D01*
G75*
G02*
X140212000Y-143555000I225000J0D01*
G01*
X140712000Y-143555000D01*
G75*
G02*
X140937000Y-143780000I0J-225000D01*
G01*
X140937000Y-144230000D01*
G75*
G02*
X140712000Y-144455000I-225000J0D01*
G01*
G37*
G36*
G01*
X140712000Y-146005000D02*
X140212000Y-146005000D01*
G75*
G02*
X139987000Y-145780000I0J225000D01*
G01*
X139987000Y-145330000D01*
G75*
G02*
X140212000Y-145105000I225000J0D01*
G01*
X140712000Y-145105000D01*
G75*
G02*
X140937000Y-145330000I0J-225000D01*
G01*
X140937000Y-145780000D01*
G75*
G02*
X140712000Y-146005000I-225000J0D01*
G01*
G37*
%TD*%
%TO.C,C34*%
G36*
G01*
X126154000Y-142752000D02*
X126154000Y-143252000D01*
G75*
G02*
X125929000Y-143477000I-225000J0D01*
G01*
X125479000Y-143477000D01*
G75*
G02*
X125254000Y-143252000I0J225000D01*
G01*
X125254000Y-142752000D01*
G75*
G02*
X125479000Y-142527000I225000J0D01*
G01*
X125929000Y-142527000D01*
G75*
G02*
X126154000Y-142752000I0J-225000D01*
G01*
G37*
G36*
G01*
X127704000Y-142752000D02*
X127704000Y-143252000D01*
G75*
G02*
X127479000Y-143477000I-225000J0D01*
G01*
X127029000Y-143477000D01*
G75*
G02*
X126804000Y-143252000I0J225000D01*
G01*
X126804000Y-142752000D01*
G75*
G02*
X127029000Y-142527000I225000J0D01*
G01*
X127479000Y-142527000D01*
G75*
G02*
X127704000Y-142752000I0J-225000D01*
G01*
G37*
%TD*%
%TO.C,C33*%
G36*
G01*
X158313000Y-75370500D02*
X158313000Y-74870500D01*
G75*
G02*
X158538000Y-74645500I225000J0D01*
G01*
X158988000Y-74645500D01*
G75*
G02*
X159213000Y-74870500I0J-225000D01*
G01*
X159213000Y-75370500D01*
G75*
G02*
X158988000Y-75595500I-225000J0D01*
G01*
X158538000Y-75595500D01*
G75*
G02*
X158313000Y-75370500I0J225000D01*
G01*
G37*
G36*
G01*
X156763000Y-75370500D02*
X156763000Y-74870500D01*
G75*
G02*
X156988000Y-74645500I225000J0D01*
G01*
X157438000Y-74645500D01*
G75*
G02*
X157663000Y-74870500I0J-225000D01*
G01*
X157663000Y-75370500D01*
G75*
G02*
X157438000Y-75595500I-225000J0D01*
G01*
X156988000Y-75595500D01*
G75*
G02*
X156763000Y-75370500I0J225000D01*
G01*
G37*
%TD*%
%TO.C,C32*%
G36*
G01*
X150935500Y-76002000D02*
X150435500Y-76002000D01*
G75*
G02*
X150210500Y-75777000I0J225000D01*
G01*
X150210500Y-75327000D01*
G75*
G02*
X150435500Y-75102000I225000J0D01*
G01*
X150935500Y-75102000D01*
G75*
G02*
X151160500Y-75327000I0J-225000D01*
G01*
X151160500Y-75777000D01*
G75*
G02*
X150935500Y-76002000I-225000J0D01*
G01*
G37*
G36*
G01*
X150935500Y-77552000D02*
X150435500Y-77552000D01*
G75*
G02*
X150210500Y-77327000I0J225000D01*
G01*
X150210500Y-76877000D01*
G75*
G02*
X150435500Y-76652000I225000J0D01*
G01*
X150935500Y-76652000D01*
G75*
G02*
X151160500Y-76877000I0J-225000D01*
G01*
X151160500Y-77327000D01*
G75*
G02*
X150935500Y-77552000I-225000J0D01*
G01*
G37*
%TD*%
%TO.C,C31*%
G36*
G01*
X162937000Y-71112500D02*
X162437000Y-71112500D01*
G75*
G02*
X162212000Y-70887500I0J225000D01*
G01*
X162212000Y-70437500D01*
G75*
G02*
X162437000Y-70212500I225000J0D01*
G01*
X162937000Y-70212500D01*
G75*
G02*
X163162000Y-70437500I0J-225000D01*
G01*
X163162000Y-70887500D01*
G75*
G02*
X162937000Y-71112500I-225000J0D01*
G01*
G37*
G36*
G01*
X162937000Y-72662500D02*
X162437000Y-72662500D01*
G75*
G02*
X162212000Y-72437500I0J225000D01*
G01*
X162212000Y-71987500D01*
G75*
G02*
X162437000Y-71762500I225000J0D01*
G01*
X162937000Y-71762500D01*
G75*
G02*
X163162000Y-71987500I0J-225000D01*
G01*
X163162000Y-72437500D01*
G75*
G02*
X162937000Y-72662500I-225000J0D01*
G01*
G37*
%TD*%
%TO.C,C29*%
G36*
G01*
X149623900Y-79785400D02*
X149623900Y-80285400D01*
G75*
G02*
X149398900Y-80510400I-225000J0D01*
G01*
X148948900Y-80510400D01*
G75*
G02*
X148723900Y-80285400I0J225000D01*
G01*
X148723900Y-79785400D01*
G75*
G02*
X148948900Y-79560400I225000J0D01*
G01*
X149398900Y-79560400D01*
G75*
G02*
X149623900Y-79785400I0J-225000D01*
G01*
G37*
G36*
G01*
X151173900Y-79785400D02*
X151173900Y-80285400D01*
G75*
G02*
X150948900Y-80510400I-225000J0D01*
G01*
X150498900Y-80510400D01*
G75*
G02*
X150273900Y-80285400I0J225000D01*
G01*
X150273900Y-79785400D01*
G75*
G02*
X150498900Y-79560400I225000J0D01*
G01*
X150948900Y-79560400D01*
G75*
G02*
X151173900Y-79785400I0J-225000D01*
G01*
G37*
%TD*%
%TO.C,C27*%
G36*
G01*
X163124000Y-74870500D02*
X163124000Y-75370500D01*
G75*
G02*
X162899000Y-75595500I-225000J0D01*
G01*
X162449000Y-75595500D01*
G75*
G02*
X162224000Y-75370500I0J225000D01*
G01*
X162224000Y-74870500D01*
G75*
G02*
X162449000Y-74645500I225000J0D01*
G01*
X162899000Y-74645500D01*
G75*
G02*
X163124000Y-74870500I0J-225000D01*
G01*
G37*
G36*
G01*
X164674000Y-74870500D02*
X164674000Y-75370500D01*
G75*
G02*
X164449000Y-75595500I-225000J0D01*
G01*
X163999000Y-75595500D01*
G75*
G02*
X163774000Y-75370500I0J225000D01*
G01*
X163774000Y-74870500D01*
G75*
G02*
X163999000Y-74645500I225000J0D01*
G01*
X164449000Y-74645500D01*
G75*
G02*
X164674000Y-74870500I0J-225000D01*
G01*
G37*
%TD*%
%TO.C,C26*%
G36*
G01*
X144787500Y-78101000D02*
X144787500Y-77601000D01*
G75*
G02*
X145012500Y-77376000I225000J0D01*
G01*
X145462500Y-77376000D01*
G75*
G02*
X145687500Y-77601000I0J-225000D01*
G01*
X145687500Y-78101000D01*
G75*
G02*
X145462500Y-78326000I-225000J0D01*
G01*
X145012500Y-78326000D01*
G75*
G02*
X144787500Y-78101000I0J225000D01*
G01*
G37*
G36*
G01*
X143237500Y-78101000D02*
X143237500Y-77601000D01*
G75*
G02*
X143462500Y-77376000I225000J0D01*
G01*
X143912500Y-77376000D01*
G75*
G02*
X144137500Y-77601000I0J-225000D01*
G01*
X144137500Y-78101000D01*
G75*
G02*
X143912500Y-78326000I-225000J0D01*
G01*
X143462500Y-78326000D01*
G75*
G02*
X143237500Y-78101000I0J225000D01*
G01*
G37*
%TD*%
%TO.C,C25*%
G36*
G01*
X157865000Y-81859000D02*
X158365000Y-81859000D01*
G75*
G02*
X158590000Y-82084000I0J-225000D01*
G01*
X158590000Y-82534000D01*
G75*
G02*
X158365000Y-82759000I-225000J0D01*
G01*
X157865000Y-82759000D01*
G75*
G02*
X157640000Y-82534000I0J225000D01*
G01*
X157640000Y-82084000D01*
G75*
G02*
X157865000Y-81859000I225000J0D01*
G01*
G37*
G36*
G01*
X157865000Y-80309000D02*
X158365000Y-80309000D01*
G75*
G02*
X158590000Y-80534000I0J-225000D01*
G01*
X158590000Y-80984000D01*
G75*
G02*
X158365000Y-81209000I-225000J0D01*
G01*
X157865000Y-81209000D01*
G75*
G02*
X157640000Y-80984000I0J225000D01*
G01*
X157640000Y-80534000D01*
G75*
G02*
X157865000Y-80309000I225000J0D01*
G01*
G37*
%TD*%
%TO.C,C24*%
G36*
G01*
X154428000Y-71620500D02*
X153928000Y-71620500D01*
G75*
G02*
X153703000Y-71395500I0J225000D01*
G01*
X153703000Y-70945500D01*
G75*
G02*
X153928000Y-70720500I225000J0D01*
G01*
X154428000Y-70720500D01*
G75*
G02*
X154653000Y-70945500I0J-225000D01*
G01*
X154653000Y-71395500D01*
G75*
G02*
X154428000Y-71620500I-225000J0D01*
G01*
G37*
G36*
G01*
X154428000Y-73170500D02*
X153928000Y-73170500D01*
G75*
G02*
X153703000Y-72945500I0J225000D01*
G01*
X153703000Y-72495500D01*
G75*
G02*
X153928000Y-72270500I225000J0D01*
G01*
X154428000Y-72270500D01*
G75*
G02*
X154653000Y-72495500I0J-225000D01*
G01*
X154653000Y-72945500D01*
G75*
G02*
X154428000Y-73170500I-225000J0D01*
G01*
G37*
%TD*%
%TO.C,C23*%
G36*
G01*
X135060500Y-60952500D02*
X134560500Y-60952500D01*
G75*
G02*
X134335500Y-60727500I0J225000D01*
G01*
X134335500Y-60277500D01*
G75*
G02*
X134560500Y-60052500I225000J0D01*
G01*
X135060500Y-60052500D01*
G75*
G02*
X135285500Y-60277500I0J-225000D01*
G01*
X135285500Y-60727500D01*
G75*
G02*
X135060500Y-60952500I-225000J0D01*
G01*
G37*
G36*
G01*
X135060500Y-62502500D02*
X134560500Y-62502500D01*
G75*
G02*
X134335500Y-62277500I0J225000D01*
G01*
X134335500Y-61827500D01*
G75*
G02*
X134560500Y-61602500I225000J0D01*
G01*
X135060500Y-61602500D01*
G75*
G02*
X135285500Y-61827500I0J-225000D01*
G01*
X135285500Y-62277500D01*
G75*
G02*
X135060500Y-62502500I-225000J0D01*
G01*
G37*
%TD*%
%TO.C,C22*%
G36*
G01*
X131504500Y-60952500D02*
X131004500Y-60952500D01*
G75*
G02*
X130779500Y-60727500I0J225000D01*
G01*
X130779500Y-60277500D01*
G75*
G02*
X131004500Y-60052500I225000J0D01*
G01*
X131504500Y-60052500D01*
G75*
G02*
X131729500Y-60277500I0J-225000D01*
G01*
X131729500Y-60727500D01*
G75*
G02*
X131504500Y-60952500I-225000J0D01*
G01*
G37*
G36*
G01*
X131504500Y-62502500D02*
X131004500Y-62502500D01*
G75*
G02*
X130779500Y-62277500I0J225000D01*
G01*
X130779500Y-61827500D01*
G75*
G02*
X131004500Y-61602500I225000J0D01*
G01*
X131504500Y-61602500D01*
G75*
G02*
X131729500Y-61827500I0J-225000D01*
G01*
X131729500Y-62277500D01*
G75*
G02*
X131504500Y-62502500I-225000J0D01*
G01*
G37*
%TD*%
%TO.C,C21*%
G36*
G01*
X127948500Y-60939500D02*
X127448500Y-60939500D01*
G75*
G02*
X127223500Y-60714500I0J225000D01*
G01*
X127223500Y-60264500D01*
G75*
G02*
X127448500Y-60039500I225000J0D01*
G01*
X127948500Y-60039500D01*
G75*
G02*
X128173500Y-60264500I0J-225000D01*
G01*
X128173500Y-60714500D01*
G75*
G02*
X127948500Y-60939500I-225000J0D01*
G01*
G37*
G36*
G01*
X127948500Y-62489500D02*
X127448500Y-62489500D01*
G75*
G02*
X127223500Y-62264500I0J225000D01*
G01*
X127223500Y-61814500D01*
G75*
G02*
X127448500Y-61589500I225000J0D01*
G01*
X127948500Y-61589500D01*
G75*
G02*
X128173500Y-61814500I0J-225000D01*
G01*
X128173500Y-62264500D01*
G75*
G02*
X127948500Y-62489500I-225000J0D01*
G01*
G37*
%TD*%
%TO.C,C20*%
G36*
G01*
X124392500Y-60939500D02*
X123892500Y-60939500D01*
G75*
G02*
X123667500Y-60714500I0J225000D01*
G01*
X123667500Y-60264500D01*
G75*
G02*
X123892500Y-60039500I225000J0D01*
G01*
X124392500Y-60039500D01*
G75*
G02*
X124617500Y-60264500I0J-225000D01*
G01*
X124617500Y-60714500D01*
G75*
G02*
X124392500Y-60939500I-225000J0D01*
G01*
G37*
G36*
G01*
X124392500Y-62489500D02*
X123892500Y-62489500D01*
G75*
G02*
X123667500Y-62264500I0J225000D01*
G01*
X123667500Y-61814500D01*
G75*
G02*
X123892500Y-61589500I225000J0D01*
G01*
X124392500Y-61589500D01*
G75*
G02*
X124617500Y-61814500I0J-225000D01*
G01*
X124617500Y-62264500D01*
G75*
G02*
X124392500Y-62489500I-225000J0D01*
G01*
G37*
%TD*%
%TO.C,C19*%
G36*
G01*
X120836500Y-60939500D02*
X120336500Y-60939500D01*
G75*
G02*
X120111500Y-60714500I0J225000D01*
G01*
X120111500Y-60264500D01*
G75*
G02*
X120336500Y-60039500I225000J0D01*
G01*
X120836500Y-60039500D01*
G75*
G02*
X121061500Y-60264500I0J-225000D01*
G01*
X121061500Y-60714500D01*
G75*
G02*
X120836500Y-60939500I-225000J0D01*
G01*
G37*
G36*
G01*
X120836500Y-62489500D02*
X120336500Y-62489500D01*
G75*
G02*
X120111500Y-62264500I0J225000D01*
G01*
X120111500Y-61814500D01*
G75*
G02*
X120336500Y-61589500I225000J0D01*
G01*
X120836500Y-61589500D01*
G75*
G02*
X121061500Y-61814500I0J-225000D01*
G01*
X121061500Y-62264500D01*
G75*
G02*
X120836500Y-62489500I-225000J0D01*
G01*
G37*
%TD*%
%TO.C,C18*%
G36*
G01*
X117280500Y-60939500D02*
X116780500Y-60939500D01*
G75*
G02*
X116555500Y-60714500I0J225000D01*
G01*
X116555500Y-60264500D01*
G75*
G02*
X116780500Y-60039500I225000J0D01*
G01*
X117280500Y-60039500D01*
G75*
G02*
X117505500Y-60264500I0J-225000D01*
G01*
X117505500Y-60714500D01*
G75*
G02*
X117280500Y-60939500I-225000J0D01*
G01*
G37*
G36*
G01*
X117280500Y-62489500D02*
X116780500Y-62489500D01*
G75*
G02*
X116555500Y-62264500I0J225000D01*
G01*
X116555500Y-61814500D01*
G75*
G02*
X116780500Y-61589500I225000J0D01*
G01*
X117280500Y-61589500D01*
G75*
G02*
X117505500Y-61814500I0J-225000D01*
G01*
X117505500Y-62264500D01*
G75*
G02*
X117280500Y-62489500I-225000J0D01*
G01*
G37*
%TD*%
%TO.C,C17*%
G36*
G01*
X113724500Y-60939500D02*
X113224500Y-60939500D01*
G75*
G02*
X112999500Y-60714500I0J225000D01*
G01*
X112999500Y-60264500D01*
G75*
G02*
X113224500Y-60039500I225000J0D01*
G01*
X113724500Y-60039500D01*
G75*
G02*
X113949500Y-60264500I0J-225000D01*
G01*
X113949500Y-60714500D01*
G75*
G02*
X113724500Y-60939500I-225000J0D01*
G01*
G37*
G36*
G01*
X113724500Y-62489500D02*
X113224500Y-62489500D01*
G75*
G02*
X112999500Y-62264500I0J225000D01*
G01*
X112999500Y-61814500D01*
G75*
G02*
X113224500Y-61589500I225000J0D01*
G01*
X113724500Y-61589500D01*
G75*
G02*
X113949500Y-61814500I0J-225000D01*
G01*
X113949500Y-62264500D01*
G75*
G02*
X113724500Y-62489500I-225000J0D01*
G01*
G37*
%TD*%
%TO.C,C16*%
G36*
G01*
X110168500Y-60939500D02*
X109668500Y-60939500D01*
G75*
G02*
X109443500Y-60714500I0J225000D01*
G01*
X109443500Y-60264500D01*
G75*
G02*
X109668500Y-60039500I225000J0D01*
G01*
X110168500Y-60039500D01*
G75*
G02*
X110393500Y-60264500I0J-225000D01*
G01*
X110393500Y-60714500D01*
G75*
G02*
X110168500Y-60939500I-225000J0D01*
G01*
G37*
G36*
G01*
X110168500Y-62489500D02*
X109668500Y-62489500D01*
G75*
G02*
X109443500Y-62264500I0J225000D01*
G01*
X109443500Y-61814500D01*
G75*
G02*
X109668500Y-61589500I225000J0D01*
G01*
X110168500Y-61589500D01*
G75*
G02*
X110393500Y-61814500I0J-225000D01*
G01*
X110393500Y-62264500D01*
G75*
G02*
X110168500Y-62489500I-225000J0D01*
G01*
G37*
%TD*%
%TO.C,C15*%
G36*
G01*
X116590000Y-52204500D02*
X117090000Y-52204500D01*
G75*
G02*
X117315000Y-52429500I0J-225000D01*
G01*
X117315000Y-52879500D01*
G75*
G02*
X117090000Y-53104500I-225000J0D01*
G01*
X116590000Y-53104500D01*
G75*
G02*
X116365000Y-52879500I0J225000D01*
G01*
X116365000Y-52429500D01*
G75*
G02*
X116590000Y-52204500I225000J0D01*
G01*
G37*
G36*
G01*
X116590000Y-50654500D02*
X117090000Y-50654500D01*
G75*
G02*
X117315000Y-50879500I0J-225000D01*
G01*
X117315000Y-51329500D01*
G75*
G02*
X117090000Y-51554500I-225000J0D01*
G01*
X116590000Y-51554500D01*
G75*
G02*
X116365000Y-51329500I0J225000D01*
G01*
X116365000Y-50879500D01*
G75*
G02*
X116590000Y-50654500I225000J0D01*
G01*
G37*
%TD*%
%TO.C,C14*%
G36*
G01*
X206942500Y-76954500D02*
X206442500Y-76954500D01*
G75*
G02*
X206217500Y-76729500I0J225000D01*
G01*
X206217500Y-76279500D01*
G75*
G02*
X206442500Y-76054500I225000J0D01*
G01*
X206942500Y-76054500D01*
G75*
G02*
X207167500Y-76279500I0J-225000D01*
G01*
X207167500Y-76729500D01*
G75*
G02*
X206942500Y-76954500I-225000J0D01*
G01*
G37*
G36*
G01*
X206942500Y-78504500D02*
X206442500Y-78504500D01*
G75*
G02*
X206217500Y-78279500I0J225000D01*
G01*
X206217500Y-77829500D01*
G75*
G02*
X206442500Y-77604500I225000J0D01*
G01*
X206942500Y-77604500D01*
G75*
G02*
X207167500Y-77829500I0J-225000D01*
G01*
X207167500Y-78279500D01*
G75*
G02*
X206942500Y-78504500I-225000J0D01*
G01*
G37*
%TD*%
%TO.C,C13*%
G36*
G01*
X173740000Y-63063000D02*
X174240000Y-63063000D01*
G75*
G02*
X174465000Y-63288000I0J-225000D01*
G01*
X174465000Y-63738000D01*
G75*
G02*
X174240000Y-63963000I-225000J0D01*
G01*
X173740000Y-63963000D01*
G75*
G02*
X173515000Y-63738000I0J225000D01*
G01*
X173515000Y-63288000D01*
G75*
G02*
X173740000Y-63063000I225000J0D01*
G01*
G37*
G36*
G01*
X173740000Y-61513000D02*
X174240000Y-61513000D01*
G75*
G02*
X174465000Y-61738000I0J-225000D01*
G01*
X174465000Y-62188000D01*
G75*
G02*
X174240000Y-62413000I-225000J0D01*
G01*
X173740000Y-62413000D01*
G75*
G02*
X173515000Y-62188000I0J225000D01*
G01*
X173515000Y-61738000D01*
G75*
G02*
X173740000Y-61513000I225000J0D01*
G01*
G37*
%TD*%
%TO.C,C11*%
G36*
G01*
X167241100Y-61565600D02*
X167241100Y-61065600D01*
G75*
G02*
X167466100Y-60840600I225000J0D01*
G01*
X167916100Y-60840600D01*
G75*
G02*
X168141100Y-61065600I0J-225000D01*
G01*
X168141100Y-61565600D01*
G75*
G02*
X167916100Y-61790600I-225000J0D01*
G01*
X167466100Y-61790600D01*
G75*
G02*
X167241100Y-61565600I0J225000D01*
G01*
G37*
G36*
G01*
X165691100Y-61565600D02*
X165691100Y-61065600D01*
G75*
G02*
X165916100Y-60840600I225000J0D01*
G01*
X166366100Y-60840600D01*
G75*
G02*
X166591100Y-61065600I0J-225000D01*
G01*
X166591100Y-61565600D01*
G75*
G02*
X166366100Y-61790600I-225000J0D01*
G01*
X165916100Y-61790600D01*
G75*
G02*
X165691100Y-61565600I0J225000D01*
G01*
G37*
%TD*%
%TO.C,C9*%
G36*
G01*
X169960100Y-46131600D02*
X169460100Y-46131600D01*
G75*
G02*
X169235100Y-45906600I0J225000D01*
G01*
X169235100Y-45456600D01*
G75*
G02*
X169460100Y-45231600I225000J0D01*
G01*
X169960100Y-45231600D01*
G75*
G02*
X170185100Y-45456600I0J-225000D01*
G01*
X170185100Y-45906600D01*
G75*
G02*
X169960100Y-46131600I-225000J0D01*
G01*
G37*
G36*
G01*
X169960100Y-47681600D02*
X169460100Y-47681600D01*
G75*
G02*
X169235100Y-47456600I0J225000D01*
G01*
X169235100Y-47006600D01*
G75*
G02*
X169460100Y-46781600I225000J0D01*
G01*
X169960100Y-46781600D01*
G75*
G02*
X170185100Y-47006600I0J-225000D01*
G01*
X170185100Y-47456600D01*
G75*
G02*
X169960100Y-47681600I-225000J0D01*
G01*
G37*
%TD*%
%TO.C,C8*%
G36*
G01*
X170899900Y-70185400D02*
X170399900Y-70185400D01*
G75*
G02*
X170174900Y-69960400I0J225000D01*
G01*
X170174900Y-69510400D01*
G75*
G02*
X170399900Y-69285400I225000J0D01*
G01*
X170899900Y-69285400D01*
G75*
G02*
X171124900Y-69510400I0J-225000D01*
G01*
X171124900Y-69960400D01*
G75*
G02*
X170899900Y-70185400I-225000J0D01*
G01*
G37*
G36*
G01*
X170899900Y-71735400D02*
X170399900Y-71735400D01*
G75*
G02*
X170174900Y-71510400I0J225000D01*
G01*
X170174900Y-71060400D01*
G75*
G02*
X170399900Y-70835400I225000J0D01*
G01*
X170899900Y-70835400D01*
G75*
G02*
X171124900Y-71060400I0J-225000D01*
G01*
X171124900Y-71510400D01*
G75*
G02*
X170899900Y-71735400I-225000J0D01*
G01*
G37*
%TD*%
%TO.C,C7*%
G36*
G01*
X175048100Y-70911600D02*
X175548100Y-70911600D01*
G75*
G02*
X175773100Y-71136600I0J-225000D01*
G01*
X175773100Y-71586600D01*
G75*
G02*
X175548100Y-71811600I-225000J0D01*
G01*
X175048100Y-71811600D01*
G75*
G02*
X174823100Y-71586600I0J225000D01*
G01*
X174823100Y-71136600D01*
G75*
G02*
X175048100Y-70911600I225000J0D01*
G01*
G37*
G36*
G01*
X175048100Y-69361600D02*
X175548100Y-69361600D01*
G75*
G02*
X175773100Y-69586600I0J-225000D01*
G01*
X175773100Y-70036600D01*
G75*
G02*
X175548100Y-70261600I-225000J0D01*
G01*
X175048100Y-70261600D01*
G75*
G02*
X174823100Y-70036600I0J225000D01*
G01*
X174823100Y-69586600D01*
G75*
G02*
X175048100Y-69361600I225000J0D01*
G01*
G37*
%TD*%
%TO.C,C6*%
G36*
G01*
X179620100Y-70911600D02*
X180120100Y-70911600D01*
G75*
G02*
X180345100Y-71136600I0J-225000D01*
G01*
X180345100Y-71586600D01*
G75*
G02*
X180120100Y-71811600I-225000J0D01*
G01*
X179620100Y-71811600D01*
G75*
G02*
X179395100Y-71586600I0J225000D01*
G01*
X179395100Y-71136600D01*
G75*
G02*
X179620100Y-70911600I225000J0D01*
G01*
G37*
G36*
G01*
X179620100Y-69361600D02*
X180120100Y-69361600D01*
G75*
G02*
X180345100Y-69586600I0J-225000D01*
G01*
X180345100Y-70036600D01*
G75*
G02*
X180120100Y-70261600I-225000J0D01*
G01*
X179620100Y-70261600D01*
G75*
G02*
X179395100Y-70036600I0J225000D01*
G01*
X179395100Y-69586600D01*
G75*
G02*
X179620100Y-69361600I225000J0D01*
G01*
G37*
%TD*%
%TO.C,C5*%
G36*
G01*
X184192100Y-70911600D02*
X184692100Y-70911600D01*
G75*
G02*
X184917100Y-71136600I0J-225000D01*
G01*
X184917100Y-71586600D01*
G75*
G02*
X184692100Y-71811600I-225000J0D01*
G01*
X184192100Y-71811600D01*
G75*
G02*
X183967100Y-71586600I0J225000D01*
G01*
X183967100Y-71136600D01*
G75*
G02*
X184192100Y-70911600I225000J0D01*
G01*
G37*
G36*
G01*
X184192100Y-69361600D02*
X184692100Y-69361600D01*
G75*
G02*
X184917100Y-69586600I0J-225000D01*
G01*
X184917100Y-70036600D01*
G75*
G02*
X184692100Y-70261600I-225000J0D01*
G01*
X184192100Y-70261600D01*
G75*
G02*
X183967100Y-70036600I0J225000D01*
G01*
X183967100Y-69586600D01*
G75*
G02*
X184192100Y-69361600I225000J0D01*
G01*
G37*
%TD*%
%TO.C,C4*%
G36*
G01*
X188764100Y-70911600D02*
X189264100Y-70911600D01*
G75*
G02*
X189489100Y-71136600I0J-225000D01*
G01*
X189489100Y-71586600D01*
G75*
G02*
X189264100Y-71811600I-225000J0D01*
G01*
X188764100Y-71811600D01*
G75*
G02*
X188539100Y-71586600I0J225000D01*
G01*
X188539100Y-71136600D01*
G75*
G02*
X188764100Y-70911600I225000J0D01*
G01*
G37*
G36*
G01*
X188764100Y-69361600D02*
X189264100Y-69361600D01*
G75*
G02*
X189489100Y-69586600I0J-225000D01*
G01*
X189489100Y-70036600D01*
G75*
G02*
X189264100Y-70261600I-225000J0D01*
G01*
X188764100Y-70261600D01*
G75*
G02*
X188539100Y-70036600I0J225000D01*
G01*
X188539100Y-69586600D01*
G75*
G02*
X188764100Y-69361600I225000J0D01*
G01*
G37*
%TD*%
%TO.C,C3*%
G36*
G01*
X193336100Y-70911600D02*
X193836100Y-70911600D01*
G75*
G02*
X194061100Y-71136600I0J-225000D01*
G01*
X194061100Y-71586600D01*
G75*
G02*
X193836100Y-71811600I-225000J0D01*
G01*
X193336100Y-71811600D01*
G75*
G02*
X193111100Y-71586600I0J225000D01*
G01*
X193111100Y-71136600D01*
G75*
G02*
X193336100Y-70911600I225000J0D01*
G01*
G37*
G36*
G01*
X193336100Y-69361600D02*
X193836100Y-69361600D01*
G75*
G02*
X194061100Y-69586600I0J-225000D01*
G01*
X194061100Y-70036600D01*
G75*
G02*
X193836100Y-70261600I-225000J0D01*
G01*
X193336100Y-70261600D01*
G75*
G02*
X193111100Y-70036600I0J225000D01*
G01*
X193111100Y-69586600D01*
G75*
G02*
X193336100Y-69361600I225000J0D01*
G01*
G37*
%TD*%
%TO.C,C2*%
G36*
G01*
X197908100Y-70911600D02*
X198408100Y-70911600D01*
G75*
G02*
X198633100Y-71136600I0J-225000D01*
G01*
X198633100Y-71586600D01*
G75*
G02*
X198408100Y-71811600I-225000J0D01*
G01*
X197908100Y-71811600D01*
G75*
G02*
X197683100Y-71586600I0J225000D01*
G01*
X197683100Y-71136600D01*
G75*
G02*
X197908100Y-70911600I225000J0D01*
G01*
G37*
G36*
G01*
X197908100Y-69361600D02*
X198408100Y-69361600D01*
G75*
G02*
X198633100Y-69586600I0J-225000D01*
G01*
X198633100Y-70036600D01*
G75*
G02*
X198408100Y-70261600I-225000J0D01*
G01*
X197908100Y-70261600D01*
G75*
G02*
X197683100Y-70036600I0J225000D01*
G01*
X197683100Y-69586600D01*
G75*
G02*
X197908100Y-69361600I225000J0D01*
G01*
G37*
%TD*%
%TO.C,C1*%
G36*
G01*
X202480100Y-70911600D02*
X202980100Y-70911600D01*
G75*
G02*
X203205100Y-71136600I0J-225000D01*
G01*
X203205100Y-71586600D01*
G75*
G02*
X202980100Y-71811600I-225000J0D01*
G01*
X202480100Y-71811600D01*
G75*
G02*
X202255100Y-71586600I0J225000D01*
G01*
X202255100Y-71136600D01*
G75*
G02*
X202480100Y-70911600I225000J0D01*
G01*
G37*
G36*
G01*
X202480100Y-69361600D02*
X202980100Y-69361600D01*
G75*
G02*
X203205100Y-69586600I0J-225000D01*
G01*
X203205100Y-70036600D01*
G75*
G02*
X202980100Y-70261600I-225000J0D01*
G01*
X202480100Y-70261600D01*
G75*
G02*
X202255100Y-70036600I0J225000D01*
G01*
X202255100Y-69586600D01*
G75*
G02*
X202480100Y-69361600I225000J0D01*
G01*
G37*
%TD*%
M02*
