M48
; DRILL file {KiCad (5.1.10)-1} date 07/09/23 15:29:36
; FORMAT={-:-/ absolute / inch / decimal}
; #@! TF.CreationDate,2023-07-09T15:29:36-05:00
; #@! TF.GenerationSoftware,Kicad,Pcbnew,(5.1.10)-1
; #@! TF.FileFunction,Plated,1,2,PTH
FMAT,2
INCH
T1C0.0100
T2C0.0256
T3C0.0315
T4C0.0394
T5C0.2520
%
G90
G05
T1
X4.27Y-2.685
X4.29Y-2.38
X4.38Y-2.63
X4.41Y-5.4
X4.43Y-2.38
X4.44Y-5.555
X4.52Y-2.63
X4.565Y-2.07
X4.57Y-2.38
X4.66Y-2.63
X4.705Y-2.38
X4.77Y-1.885
X4.8Y-2.63
X4.85Y-2.38
X4.87Y-1.885
X4.875Y-5.855
X4.905Y-5.63
X4.94Y-2.63
X4.985Y-2.38
X5.02Y-2.195
X5.08Y-2.63
X5.085Y-1.935
X5.09Y-4.86
X5.115Y-2.115
X5.13Y-2.38
X5.19Y-1.89
X5.22Y-2.63
X5.27Y-2.38
X5.3Y-1.89
X5.36Y-2.63
X5.4Y-2.975
X5.4Y-3.15
X5.57Y-5.67
X5.72Y-3.1
X5.775Y-2.895
X5.81Y-5.25
X5.84Y-2.87
X5.84Y-3.15
X5.975Y-2.975
X5.975Y-5.675
X6.02Y-5.465
X6.07Y-2.765
X6.125Y-3.295
X6.175Y-5.45
X6.22Y-5.525
X6.225Y-3.275
X6.245Y-2.885
X6.285Y-2.96
X6.4Y-5.655
X6.405Y-2.995
X6.445Y-2.775
X6.46Y-5.2
X6.48Y-1.62
X6.48Y-1.925
X6.53Y-1.74
X6.5725Y-1.64
X6.5725Y-1.7375
X6.605Y-2.5975
X6.64Y-2.41
X6.7Y-5.67
X6.72Y-1.8
X6.72Y-2.7075
X6.73Y-1.98
X6.735Y-5.465
X6.7475Y-2.38
X6.78Y-1.66
X6.78Y-1.92
X6.785Y-2.595
X6.85Y-1.59
X6.85Y-1.74
X6.85Y-2.54
X6.87Y-2.72
X6.9Y-5.45
X6.9025Y-2.8475
X6.94Y-5.525
X6.9625Y-2.765
X6.965Y-2.595
X7.0825Y-2.8475
X7.12Y-5.65
X7.145Y-2.595
X7.145Y-2.765
X7.26Y-2.8475
X7.3Y-5.28
X7.325Y-2.595
X7.325Y-2.765
X7.38Y-1.89
X7.425Y-5.67
X7.4425Y-2.8475
X7.45Y-2.94
X7.465Y-5.465
X7.505Y-2.595
X7.505Y-2.765
X7.55Y-2.27
X7.59Y-2.93
X7.62Y-5.445
X7.6225Y-2.8475
X7.665Y-5.525
X7.685Y-2.595
X7.6875Y-2.765
X7.79Y-2.93
X7.8025Y-2.8475
X7.835Y-5.65
X7.865Y-2.595
X7.865Y-2.765
X7.9825Y-2.8475
X8.175Y-3.01
T2
X5.275Y-5.83
X5.325Y-5.83
X5.375Y-5.83
X5.425Y-5.83
X5.475Y-5.83
X5.525Y-5.83
X5.7Y-5.83
X5.75Y-5.83
X5.9275Y-5.7475
X5.9275Y-5.7975
X5.9275Y-5.8475
X6.4825Y-5.7475
X6.4825Y-5.7975
X6.4825Y-5.8475
X6.6525Y-5.7473
X6.6525Y-5.7973
X6.6525Y-5.8473
X7.2075Y-5.745
X7.2075Y-5.795
X7.2075Y-5.845
X7.3725Y-5.745
X7.3725Y-5.795
X7.3725Y-5.845
X7.9275Y-5.745
X7.9275Y-5.795
X7.9275Y-5.845
T3
X4.6525Y-5.4125
X4.7525Y-5.4125
X5.5955Y-3.232
X5.6955Y-3.232
X5.6955Y-3.232
X5.7955Y-3.232
X6.0525Y-5.7475
X6.0875Y-3.04
X6.1525Y-5.7475
X6.1771Y-5.3585
X6.1875Y-3.04
X6.1875Y-3.04
X6.2771Y-5.3585
X6.2771Y-5.3585
X6.2875Y-3.04
X6.32Y-2.685
X6.3771Y-5.3585
X6.42Y-2.685
X6.7775Y-5.745
X6.8775Y-5.745
X6.9006Y-5.3586
X7.0006Y-5.3586
X7.0006Y-5.3586
X7.1006Y-5.3586
X7.4975Y-5.745
X7.5975Y-5.745
X7.6187Y-5.3564
X7.7187Y-5.3564
X7.7187Y-5.3564
X7.8187Y-5.3564
T4
X3.9456Y-3.9621
X3.9456Y-4.0621
X3.9456Y-4.1621
X3.9456Y-4.2621
X3.9456Y-4.3621
X3.9456Y-4.4621
X3.9456Y-4.5621
X3.9456Y-4.6621
X3.9456Y-4.7621
X3.9456Y-4.8621
X4.7525Y-5.5375
X5.475Y-2.79
X5.675Y-2.79
X5.7763Y-3.9621
X5.7763Y-4.0621
X5.7763Y-4.1621
X5.7763Y-4.2621
X5.7763Y-4.3621
X5.7763Y-4.4621
X5.7763Y-4.5621
X5.7763Y-4.6621
X5.7763Y-4.7621
X5.7763Y-4.8621
X6.5026Y-3.1749
X6.5026Y-3.2749
X6.5026Y-3.3749
X6.5026Y-3.4749
X6.5026Y-3.5749
X6.5026Y-3.6749
X6.5026Y-3.7749
X6.5026Y-3.8749
X6.5026Y-3.9749
X6.5026Y-4.0749
X7.7775Y-3.1745
X7.7775Y-3.3495
X7.7775Y-3.5245
X7.8775Y-3.1745
X7.8775Y-3.3495
X7.8775Y-3.5245
X7.9775Y-3.1745
X7.9775Y-3.3495
X7.9775Y-3.5245
X8.1365Y-3.1749
X8.1365Y-3.2749
X8.1365Y-3.3749
X8.1365Y-3.4749
X8.1365Y-3.5749
X8.1365Y-3.6749
X8.1365Y-3.7749
X8.1365Y-3.8749
X8.1365Y-3.9749
X8.1365Y-4.0749
T5
X3.4Y-1.663
X3.4Y-5.6
X8.3213Y-1.663
X8.3213Y-5.6
T0
M30
