%TF.GenerationSoftware,KiCad,Pcbnew,(5.1.12)-1*%
%TF.CreationDate,2023-04-24T20:04:47-05:00*%
%TF.ProjectId,Tag Connector,54616720-436f-46e6-9e65-63746f722e6b,rev?*%
%TF.SameCoordinates,Original*%
%TF.FileFunction,Copper,L2,Bot*%
%TF.FilePolarity,Positive*%
%FSLAX46Y46*%
G04 Gerber Fmt 4.6, Leading zero omitted, Abs format (unit mm)*
G04 Created by KiCad (PCBNEW (5.1.12)-1) date 2023-04-24 20:04:47*
%MOMM*%
%LPD*%
G01*
G04 APERTURE LIST*
%TA.AperFunction,ConnectorPad*%
%ADD10C,3.800000*%
%TD*%
%TA.AperFunction,ComponentPad*%
%ADD11C,2.600000*%
%TD*%
%TA.AperFunction,ViaPad*%
%ADD12C,0.800000*%
%TD*%
%TA.AperFunction,Conductor*%
%ADD13C,0.250000*%
%TD*%
G04 APERTURE END LIST*
D10*
%TO.P,,1*%
%TO.N,N/C*%
X136885680Y-57561440D03*
D11*
X136885680Y-57561440D03*
%TD*%
D10*
%TO.P,REF\u002A\u002A,1*%
%TO.N,N/C*%
X175385679Y-77561440D03*
D11*
X175385679Y-77561440D03*
%TD*%
D10*
%TO.P,REF\u002A\u002A,1*%
%TO.N,N/C*%
X175385679Y-57561440D03*
D11*
X175385679Y-57561440D03*
%TD*%
%TO.P,REF\u002A\u002A,1*%
%TO.N,N/C*%
X136885680Y-77561440D03*
D10*
X136885680Y-77561440D03*
%TD*%
%TO.P,J2,MP*%
%TO.N,N/C*%
%TA.AperFunction,SMDPad,CuDef*%
G36*
G01*
X169805160Y-71193160D02*
X172305160Y-71193160D01*
G75*
G02*
X172555160Y-71443160I0J-250000D01*
G01*
X172555160Y-73043160D01*
G75*
G02*
X172305160Y-73293160I-250000J0D01*
G01*
X169805160Y-73293160D01*
G75*
G02*
X169555160Y-73043160I0J250000D01*
G01*
X169555160Y-71443160D01*
G75*
G02*
X169805160Y-71193160I250000J0D01*
G01*
G37*
%TD.AperFunction*%
%TA.AperFunction,SMDPad,CuDef*%
G36*
G01*
X169805160Y-61093160D02*
X172305160Y-61093160D01*
G75*
G02*
X172555160Y-61343160I0J-250000D01*
G01*
X172555160Y-62943160D01*
G75*
G02*
X172305160Y-63193160I-250000J0D01*
G01*
X169805160Y-63193160D01*
G75*
G02*
X169555160Y-62943160I0J250000D01*
G01*
X169555160Y-61343160D01*
G75*
G02*
X169805160Y-61093160I250000J0D01*
G01*
G37*
%TD.AperFunction*%
%TO.P,J2,5*%
%TO.N,GND*%
%TA.AperFunction,SMDPad,CuDef*%
G36*
G01*
X167855160Y-69293160D02*
X168755160Y-69293160D01*
G75*
G02*
X168955160Y-69493160I0J-200000D01*
G01*
X168955160Y-69893160D01*
G75*
G02*
X168755160Y-70093160I-200000J0D01*
G01*
X167855160Y-70093160D01*
G75*
G02*
X167655160Y-69893160I0J200000D01*
G01*
X167655160Y-69493160D01*
G75*
G02*
X167855160Y-69293160I200000J0D01*
G01*
G37*
%TD.AperFunction*%
%TO.P,J2,4*%
%TO.N,Tx*%
%TA.AperFunction,SMDPad,CuDef*%
G36*
G01*
X167855160Y-68043160D02*
X168755160Y-68043160D01*
G75*
G02*
X168955160Y-68243160I0J-200000D01*
G01*
X168955160Y-68643160D01*
G75*
G02*
X168755160Y-68843160I-200000J0D01*
G01*
X167855160Y-68843160D01*
G75*
G02*
X167655160Y-68643160I0J200000D01*
G01*
X167655160Y-68243160D01*
G75*
G02*
X167855160Y-68043160I200000J0D01*
G01*
G37*
%TD.AperFunction*%
%TO.P,J2,3*%
%TO.N,Net-(J2-Pad3)*%
%TA.AperFunction,SMDPad,CuDef*%
G36*
G01*
X167855160Y-66793160D02*
X168755160Y-66793160D01*
G75*
G02*
X168955160Y-66993160I0J-200000D01*
G01*
X168955160Y-67393160D01*
G75*
G02*
X168755160Y-67593160I-200000J0D01*
G01*
X167855160Y-67593160D01*
G75*
G02*
X167655160Y-67393160I0J200000D01*
G01*
X167655160Y-66993160D01*
G75*
G02*
X167855160Y-66793160I200000J0D01*
G01*
G37*
%TD.AperFunction*%
%TO.P,J2,2*%
%TO.N,Net-(J2-Pad2)*%
%TA.AperFunction,SMDPad,CuDef*%
G36*
G01*
X167855160Y-65543160D02*
X168755160Y-65543160D01*
G75*
G02*
X168955160Y-65743160I0J-200000D01*
G01*
X168955160Y-66143160D01*
G75*
G02*
X168755160Y-66343160I-200000J0D01*
G01*
X167855160Y-66343160D01*
G75*
G02*
X167655160Y-66143160I0J200000D01*
G01*
X167655160Y-65743160D01*
G75*
G02*
X167855160Y-65543160I200000J0D01*
G01*
G37*
%TD.AperFunction*%
%TO.P,J2,1*%
%TO.N,Net-(J2-Pad1)*%
%TA.AperFunction,SMDPad,CuDef*%
G36*
G01*
X167855160Y-64293160D02*
X168755160Y-64293160D01*
G75*
G02*
X168955160Y-64493160I0J-200000D01*
G01*
X168955160Y-64893160D01*
G75*
G02*
X168755160Y-65093160I-200000J0D01*
G01*
X167855160Y-65093160D01*
G75*
G02*
X167655160Y-64893160I0J200000D01*
G01*
X167655160Y-64493160D01*
G75*
G02*
X167855160Y-64293160I200000J0D01*
G01*
G37*
%TD.AperFunction*%
%TD*%
%TO.P,J1,1*%
%TO.N,+3V3*%
%TA.AperFunction,SMDPad,CuDef*%
G36*
G01*
X155253160Y-70093160D02*
X154353160Y-70093160D01*
G75*
G02*
X154153160Y-69893160I0J200000D01*
G01*
X154153160Y-69493160D01*
G75*
G02*
X154353160Y-69293160I200000J0D01*
G01*
X155253160Y-69293160D01*
G75*
G02*
X155453160Y-69493160I0J-200000D01*
G01*
X155453160Y-69893160D01*
G75*
G02*
X155253160Y-70093160I-200000J0D01*
G01*
G37*
%TD.AperFunction*%
%TO.P,J1,2*%
%TO.N,TDO-TDI*%
%TA.AperFunction,SMDPad,CuDef*%
G36*
G01*
X155253160Y-68843160D02*
X154353160Y-68843160D01*
G75*
G02*
X154153160Y-68643160I0J200000D01*
G01*
X154153160Y-68243160D01*
G75*
G02*
X154353160Y-68043160I200000J0D01*
G01*
X155253160Y-68043160D01*
G75*
G02*
X155453160Y-68243160I0J-200000D01*
G01*
X155453160Y-68643160D01*
G75*
G02*
X155253160Y-68843160I-200000J0D01*
G01*
G37*
%TD.AperFunction*%
%TO.P,J1,3*%
%TO.N,TESTVPP*%
%TA.AperFunction,SMDPad,CuDef*%
G36*
G01*
X155253160Y-67593160D02*
X154353160Y-67593160D01*
G75*
G02*
X154153160Y-67393160I0J200000D01*
G01*
X154153160Y-66993160D01*
G75*
G02*
X154353160Y-66793160I200000J0D01*
G01*
X155253160Y-66793160D01*
G75*
G02*
X155453160Y-66993160I0J-200000D01*
G01*
X155453160Y-67393160D01*
G75*
G02*
X155253160Y-67593160I-200000J0D01*
G01*
G37*
%TD.AperFunction*%
%TO.P,J1,4*%
%TO.N,TCK*%
%TA.AperFunction,SMDPad,CuDef*%
G36*
G01*
X155253160Y-66343160D02*
X154353160Y-66343160D01*
G75*
G02*
X154153160Y-66143160I0J200000D01*
G01*
X154153160Y-65743160D01*
G75*
G02*
X154353160Y-65543160I200000J0D01*
G01*
X155253160Y-65543160D01*
G75*
G02*
X155453160Y-65743160I0J-200000D01*
G01*
X155453160Y-66143160D01*
G75*
G02*
X155253160Y-66343160I-200000J0D01*
G01*
G37*
%TD.AperFunction*%
%TO.P,J1,5*%
%TO.N,Rx*%
%TA.AperFunction,SMDPad,CuDef*%
G36*
G01*
X155253160Y-65093160D02*
X154353160Y-65093160D01*
G75*
G02*
X154153160Y-64893160I0J200000D01*
G01*
X154153160Y-64493160D01*
G75*
G02*
X154353160Y-64293160I200000J0D01*
G01*
X155253160Y-64293160D01*
G75*
G02*
X155453160Y-64493160I0J-200000D01*
G01*
X155453160Y-64893160D01*
G75*
G02*
X155253160Y-65093160I-200000J0D01*
G01*
G37*
%TD.AperFunction*%
%TO.P,J1,MP*%
%TO.N,N/C*%
%TA.AperFunction,SMDPad,CuDef*%
G36*
G01*
X153303160Y-73293160D02*
X150803160Y-73293160D01*
G75*
G02*
X150553160Y-73043160I0J250000D01*
G01*
X150553160Y-71443160D01*
G75*
G02*
X150803160Y-71193160I250000J0D01*
G01*
X153303160Y-71193160D01*
G75*
G02*
X153553160Y-71443160I0J-250000D01*
G01*
X153553160Y-73043160D01*
G75*
G02*
X153303160Y-73293160I-250000J0D01*
G01*
G37*
%TD.AperFunction*%
%TA.AperFunction,SMDPad,CuDef*%
G36*
G01*
X153303160Y-63193160D02*
X150803160Y-63193160D01*
G75*
G02*
X150553160Y-62943160I0J250000D01*
G01*
X150553160Y-61343160D01*
G75*
G02*
X150803160Y-61093160I250000J0D01*
G01*
X153303160Y-61093160D01*
G75*
G02*
X153553160Y-61343160I0J-250000D01*
G01*
X153553160Y-62943160D01*
G75*
G02*
X153303160Y-63193160I-250000J0D01*
G01*
G37*
%TD.AperFunction*%
%TD*%
D12*
%TO.N,+3V3*%
X158887160Y-70749160D03*
%TO.N,TDO-TDI*%
X159903160Y-71257160D03*
%TO.N,TESTVPP*%
X152537160Y-68717160D03*
%TO.N,TCK*%
X151521160Y-68717160D03*
%TO.N,Rx*%
X150521157Y-68717160D03*
%TO.N,GND*%
X166507160Y-68717160D03*
%TO.N,Tx*%
X161935160Y-62801160D03*
%TO.N,Net-(J2-Pad1)*%
X159141160Y-64145160D03*
%TO.N,Net-(J2-Pad2)*%
X160161813Y-62625813D03*
%TO.N,Net-(J2-Pad3)*%
X164497124Y-62076160D03*
%TD*%
D13*
%TO.N,*%
X163775910Y-62150159D02*
X163775909Y-62150160D01*
%TO.N,+3V3*%
X154823160Y-71511160D02*
X158887160Y-71511160D01*
X154803160Y-71491160D02*
X154823160Y-71511160D01*
X154803160Y-69693160D02*
X154803160Y-71491160D01*
X158887160Y-71511160D02*
X158887160Y-71294160D01*
X158887160Y-71294160D02*
X158887160Y-70749160D01*
%TO.N,TDO-TDI*%
X154153160Y-68443160D02*
X154133160Y-68463160D01*
X154803160Y-68443160D02*
X154153160Y-68443160D01*
X154803160Y-68443160D02*
X153319160Y-68443160D01*
X154694750Y-72019160D02*
X159141160Y-72019160D01*
X153319160Y-70643570D02*
X154694750Y-72019160D01*
X153319160Y-68443160D02*
X153319160Y-70643570D01*
X159141160Y-72019160D02*
X159903160Y-71257160D01*
%TO.N,TESTVPP*%
X154803160Y-67193160D02*
X152537160Y-67193160D01*
X152537160Y-67193160D02*
X152537160Y-68717160D01*
%TO.N,TCK*%
X154803160Y-65943160D02*
X152049160Y-65943160D01*
X152049160Y-65943160D02*
X152029160Y-65923160D01*
X152029160Y-65923160D02*
X151521160Y-65923160D01*
X151521160Y-65923160D02*
X151521160Y-68717160D01*
%TO.N,Rx*%
X154803160Y-64693160D02*
X150799160Y-64693160D01*
X150521157Y-64971163D02*
X150521157Y-68717160D01*
X150799160Y-64693160D02*
X150521157Y-64971163D01*
%TO.N,GND*%
X167483160Y-69693160D02*
X166507160Y-68717160D01*
X168305160Y-69693160D02*
X167483160Y-69693160D01*
%TO.N,Tx*%
X168305160Y-68443160D02*
X167741206Y-68443160D01*
X165803461Y-66591461D02*
X165803461Y-62933461D01*
X167655160Y-68443160D02*
X165803461Y-66591461D01*
X168305160Y-68443160D02*
X167655160Y-68443160D01*
X165671160Y-62801160D02*
X161935160Y-62801160D01*
X165803461Y-62933461D02*
X165671160Y-62801160D01*
%TO.N,Net-(J2-Pad1)*%
X158887160Y-63891160D02*
X159141160Y-64145160D01*
X168285160Y-60843160D02*
X158887160Y-60843160D01*
X168305160Y-60863160D02*
X168285160Y-60843160D01*
X158887160Y-60843160D02*
X158887160Y-63891160D01*
X168305160Y-64693160D02*
X168305160Y-60863160D01*
%TO.N,Net-(J2-Pad2)*%
X168305160Y-65943160D02*
X167655160Y-65943160D01*
X160157160Y-62621160D02*
X160161813Y-62625813D01*
X160157160Y-61351160D02*
X160157160Y-62621160D01*
X167269160Y-61351160D02*
X160157160Y-61351160D01*
X168162682Y-65943160D02*
X167269160Y-65049638D01*
X167269160Y-65049638D02*
X167269160Y-61351160D01*
X168305160Y-65943160D02*
X168162682Y-65943160D01*
%TO.N,Net-(J2-Pad3)*%
X167655160Y-67193160D02*
X166507160Y-66045160D01*
X168305160Y-67193160D02*
X167655160Y-67193160D01*
X166507160Y-66045160D02*
X166507160Y-61859160D01*
X166507160Y-61859160D02*
X165491160Y-61859160D01*
X165491160Y-61859160D02*
X164475160Y-61859160D01*
X164475160Y-62054196D02*
X164497124Y-62076160D01*
X164475160Y-61859160D02*
X164475160Y-62054196D01*
%TD*%
M02*
