%TF.GenerationSoftware,KiCad,Pcbnew,(5.1.12)-1*%
%TF.CreationDate,2023-04-24T20:04:47-05:00*%
%TF.ProjectId,Tag Connector,54616720-436f-46e6-9e65-63746f722e6b,rev?*%
%TF.SameCoordinates,Original*%
%TF.FileFunction,Legend,Bot*%
%TF.FilePolarity,Positive*%
%FSLAX46Y46*%
G04 Gerber Fmt 4.6, Leading zero omitted, Abs format (unit mm)*
G04 Created by KiCad (PCBNEW (5.1.12)-1) date 2023-04-24 20:04:47*
%MOMM*%
%LPD*%
G01*
G04 APERTURE LIST*
%ADD10C,0.120000*%
%ADD11C,0.150000*%
G04 APERTURE END LIST*
D10*
%TO.C,J2*%
X172265160Y-63453160D02*
X172265160Y-70933160D01*
X168345160Y-71303160D02*
X168345160Y-70353160D01*
X169295160Y-71303160D02*
X168345160Y-71303160D01*
X168345160Y-64033160D02*
X167655160Y-64033160D01*
X168345160Y-63083160D02*
X168345160Y-64033160D01*
X169295160Y-63083160D02*
X168345160Y-63083160D01*
%TO.C,J1*%
X153813160Y-71303160D02*
X154763160Y-71303160D01*
X154763160Y-71303160D02*
X154763160Y-70353160D01*
X154763160Y-70353160D02*
X155453160Y-70353160D01*
X153813160Y-63083160D02*
X154763160Y-63083160D01*
X154763160Y-63083160D02*
X154763160Y-64033160D01*
X150843160Y-70933160D02*
X150843160Y-63453160D01*
%TO.C,J2*%
D11*
X166467540Y-63557826D02*
X167181826Y-63557826D01*
X167324683Y-63510207D01*
X167419921Y-63414969D01*
X167467540Y-63272112D01*
X167467540Y-63176874D01*
X166562779Y-63986398D02*
X166515160Y-64034017D01*
X166467540Y-64129255D01*
X166467540Y-64367350D01*
X166515160Y-64462588D01*
X166562779Y-64510207D01*
X166658017Y-64557826D01*
X166753255Y-64557826D01*
X166896112Y-64510207D01*
X167467540Y-63938779D01*
X167467540Y-64557826D01*
%TO.C,J1*%
X156132779Y-72098493D02*
X155418493Y-72098493D01*
X155275636Y-72146112D01*
X155180398Y-72241350D01*
X155132779Y-72384207D01*
X155132779Y-72479445D01*
X155132779Y-71098493D02*
X155132779Y-71669921D01*
X155132779Y-71384207D02*
X156132779Y-71384207D01*
X155989921Y-71479445D01*
X155894683Y-71574683D01*
X155847064Y-71669921D01*
%TD*%
M02*
