0
SECTION
2
HEADER
9
$INSUNITS
70
4
9
$ACADVER
1
AC1014
9
$HANDSEED
5
FFFF
0
ENDSEC
0
SECTION
2
TABLES
0
TABLE
2
VPORT
5
8
100
AcDbSymbolTable
0
ENDTAB
0
TABLE
2
LTYPE
5
5
100
AcDbSymbolTable
0
LTYPE
5
14
100
AcDbSymbolTableRecord
100
AcDbLinetypeTableRecord
2
BYBLOCK
70
0
0
LTYPE
5
15
100
AcDbSymbolTableRecord
100
AcDbLinetypeTableRecord
2
BYLAYER
70
0
0
ENDTAB
0
TABLE
2
LAYER
5
2
100
AcDbSymbolTable
70
2
0
LAYER
5
50
100
AcDbSymbolTableRecord
100
AcDbLayerTableRecord
2
0
70
0
6
CONTINUOUS
0
ENDTAB
0
TABLE
2
STYLE
5
3
100
AcDbSymbolTable
70
1
0
STYLE
5
11
100
AcDbSymbolTableRecord
100
AcDbTextStyleTableRecord
2
STANDARD
70
0
0
ENDTAB
0
TABLE
2
VIEW
5
6
100
AcDbSymbolTable
70
0
0
ENDTAB
0
TABLE
2
UCS
5
7
100
AcDbSymbolTable
70
0
0
ENDTAB
0
TABLE
2
APPID
5
9
100
AcDbSymbolTable
70
2
0
APPID
5
12
100
AcDbSymbolTableRecord
100
AcDbRegAppTableRecord
2
ACAD
70
0
0
ENDTAB
0
TABLE
2
DIMSTYLE
5
A
100
AcDbSymbolTable
70
1
0
ENDTAB
0
TABLE
2
BLOCK_RECORD
5
1
100
AcDbSymbolTable
70
1
0
BLOCK_RECORD
5
1F
100
AcDbSymbolTableRecord
100
AcDbBlockTableRecord
2
*MODEL_SPACE
0
BLOCK_RECORD
5
1B
100
AcDbSymbolTableRecord
100
AcDbBlockTableRecord
2
*PAPER_SPACE
0
ENDTAB
0
ENDSEC
0
SECTION
2
BLOCKS
0
BLOCK
5
20
100
AcDbEntity
100
AcDbBlockBegin
2
*MODEL_SPACE
0
ENDBLK
5
21
100
AcDbEntity
100
AcDbBlockEnd
0
BLOCK
5
1C
100
AcDbEntity
100
AcDbBlockBegin
2
*PAPER_SPACE
0
ENDBLK
5
1D
100
AcDbEntity
100
AcDbBlockEnd
0
ENDSEC
0
SECTION
2
ENTITIES
0
LWPOLYLINE
5
100
100
AcDbEntity
8
0
100
AcDbPolyline
90
17
70
1
43
0.0
10
-128.41307074873581
20
119.63334445132918
42
0.38332190639713193
10
-126.62588730869976
20
117.64469940713353
42
-0.17176974097572162
10
-125.42215780485479
20
117.06793157045519
10
-114.46772468492708
20
106.0772738598119
42
-0.1984834020259742
10
-113.88427074873579
20
104.66539665229419
10
-113.88427074873576
20
61.656054362937176
42
-0.41421356237309503
10
-115.88427074873577
20
59.656054362937176
10
-192.9999999999998
20
59.656054362937148
42
-0.41421356237309503
10
-194.99999999999977
20
61.656054362937141
10
-194.99999999999983
20
132.65605336293714
42
-0.41421356237309503
10
-192.99999999999983
20
134.65605336293714
10
-115.88427074873579
20
134.65605336293717
42
-0.41421356237309503
10
-113.88427074873579
20
132.65605336293717
10
-113.88427074873582
20
127.59401769097818
42
-0.41421356237309503
10
-115.88427074873579
20
125.59401769097819
10
-126.41307074873581
20
125.59401769097818
42
0.41421356237309503
10
-128.41307074873581
20
123.59401769097818
0
CIRCLE
5
101
100
AcDbEntity
8
0
100
AcDbCircle
10
-118.38427074873579
20
130.9051313629372
30
0
40
1.3749999999999902
210
0
220
0
230
1
0
CIRCLE
5
102
100
AcDbEntity
8
0
100
AcDbCircle
10
-180.88427074873579
20
63.156054362937155
30
0
40
1.3749999999999902
210
0
220
0
230
1
0
CIRCLE
5
103
100
AcDbEntity
8
0
100
AcDbCircle
10
-189.72627074873586
20
130.90505336293717
30
0
40
1.3749999999999902
210
0
220
0
230
1
0
CIRCLE
5
104
100
AcDbEntity
8
0
100
AcDbCircle
10
-127.02357074873578
20
63.156054362937184
30
0
40
1.3749999999999902
210
0
220
0
230
1
0
CIRCLE
5
105
100
AcDbEntity
8
0
100
AcDbCircle
10
-127.02357074873578
20
63.156054362937184
30
0
40
1.3749999999999902
210
-0
220
0
230
1
0
LWPOLYLINE
5
106
100
AcDbEntity
8
0
100
AcDbPolyline
90
17
70
1
43
0.0
10
-115.88427074873577
20
59.656054362937176
10
-192.99999999999977
20
59.656054362937155
42
-0.41421356237309892
10
-194.99999999999977
20
61.656054362937141
10
-194.99999999999977
20
132.65605336293714
42
-0.41421356237309764
10
-192.99999999999983
20
134.65605336293714
10
-115.88427074873579
20
134.65605336293717
42
-0.41421356237309503
10
-113.88427074873579
20
132.65605336293717
10
-113.88427074873579
20
127.59401769097818
42
-0.41421356237309503
10
-115.88427074873579
20
125.59401769097818
10
-126.41307074873581
20
125.59401769097819
42
0.41421356237309503
10
-128.41307074873581
20
123.59401769097818
10
-128.41307074873581
20
119.63334445132918
42
0.3833219063971367
10
-126.62588730869979
20
117.64469940713313
42
-0.17176974097572939
10
-125.42215780485506
20
117.0679315704549
10
-114.46772468492705
20
106.07727385981191
42
-0.19848340202596784
10
-113.88427074873579
20
104.66539665229419
10
-113.88427074873579
20
61.656054362937176
42
-0.41421356237309243
0
CIRCLE
5
107
100
AcDbEntity
8
0
100
AcDbCircle
10
-180.88427074873579
20
63.156054362937155
30
0
40
1.3749999999999902
210
-0
220
0
230
1
0
CIRCLE
5
108
100
AcDbEntity
8
0
100
AcDbCircle
10
-189.72627074873586
20
130.90505336293717
30
0
40
1.3749999999999902
210
-0
220
0
230
1
0
CIRCLE
5
109
100
AcDbEntity
8
0
100
AcDbCircle
10
-118.38427074873579
20
130.9051313629372
30
0
40
1.3749999999999902
210
-0
220
0
230
1
0
ENDSEC
0
SECTION
2
OBJECTS
0
DICTIONARY
5
C
100
AcDbDictionary
3
ACAD_GROUP
350
D
3
ACAD_MLINESTYLE
350
17
0
DICTIONARY
5
D
100
AcDbDictionary
0
DICTIONARY
5
1A
330
C
100
AcDbDictionary
0
DICTIONARY
5
17
100
AcDbDictionary
0
ENDSEC
0
EOF
