%TF.GenerationSoftware,KiCad,Pcbnew,(5.1.10)-1*%
%TF.CreationDate,2023-09-14T18:46:52-05:00*%
%TF.ProjectId,perovskite_contact_board,7065726f-7673-46b6-9974-655f636f6e74,V3*%
%TF.SameCoordinates,Original*%
%TF.FileFunction,Copper,L1,Top*%
%TF.FilePolarity,Positive*%
%FSLAX46Y46*%
G04 Gerber Fmt 4.6, Leading zero omitted, Abs format (unit mm)*
G04 Created by KiCad (PCBNEW (5.1.10)-1) date 2023-09-14 18:46:52*
%MOMM*%
%LPD*%
G01*
G04 APERTURE LIST*
%TA.AperFunction,ViaPad*%
%ADD10C,0.508000*%
%TD*%
%TA.AperFunction,Conductor*%
%ADD11C,0.152400*%
%TD*%
%TA.AperFunction,Conductor*%
%ADD12C,0.254000*%
%TD*%
%TA.AperFunction,Conductor*%
%ADD13C,0.100000*%
%TD*%
G04 APERTURE END LIST*
%TO.P,U6,8*%
%TO.N,VDDF*%
%TA.AperFunction,SMDPad,CuDef*%
G36*
G01*
X165638000Y-109615000D02*
X165638000Y-109415000D01*
G75*
G02*
X165738000Y-109315000I100000J0D01*
G01*
X167163000Y-109315000D01*
G75*
G02*
X167263000Y-109415000I0J-100000D01*
G01*
X167263000Y-109615000D01*
G75*
G02*
X167163000Y-109715000I-100000J0D01*
G01*
X165738000Y-109715000D01*
G75*
G02*
X165638000Y-109615000I0J100000D01*
G01*
G37*
%TD.AperFunction*%
%TO.P,U6,7*%
%TO.N,Net-(JP3-Pad2)*%
%TA.AperFunction,SMDPad,CuDef*%
G36*
G01*
X165638000Y-110265000D02*
X165638000Y-110065000D01*
G75*
G02*
X165738000Y-109965000I100000J0D01*
G01*
X167163000Y-109965000D01*
G75*
G02*
X167263000Y-110065000I0J-100000D01*
G01*
X167263000Y-110265000D01*
G75*
G02*
X167163000Y-110365000I-100000J0D01*
G01*
X165738000Y-110365000D01*
G75*
G02*
X165638000Y-110265000I0J100000D01*
G01*
G37*
%TD.AperFunction*%
%TO.P,U6,6*%
%TO.N,Net-(JP2-Pad2)*%
%TA.AperFunction,SMDPad,CuDef*%
G36*
G01*
X165638000Y-110915000D02*
X165638000Y-110715000D01*
G75*
G02*
X165738000Y-110615000I100000J0D01*
G01*
X167163000Y-110615000D01*
G75*
G02*
X167263000Y-110715000I0J-100000D01*
G01*
X167263000Y-110915000D01*
G75*
G02*
X167163000Y-111015000I-100000J0D01*
G01*
X165738000Y-111015000D01*
G75*
G02*
X165638000Y-110915000I0J100000D01*
G01*
G37*
%TD.AperFunction*%
%TO.P,U6,5*%
%TO.N,Net-(JP1-Pad2)*%
%TA.AperFunction,SMDPad,CuDef*%
G36*
G01*
X165638000Y-111565000D02*
X165638000Y-111365000D01*
G75*
G02*
X165738000Y-111265000I100000J0D01*
G01*
X167163000Y-111265000D01*
G75*
G02*
X167263000Y-111365000I0J-100000D01*
G01*
X167263000Y-111565000D01*
G75*
G02*
X167163000Y-111665000I-100000J0D01*
G01*
X165738000Y-111665000D01*
G75*
G02*
X165638000Y-111565000I0J100000D01*
G01*
G37*
%TD.AperFunction*%
%TO.P,U6,4*%
%TO.N,GND*%
%TA.AperFunction,SMDPad,CuDef*%
G36*
G01*
X161413000Y-111565000D02*
X161413000Y-111365000D01*
G75*
G02*
X161513000Y-111265000I100000J0D01*
G01*
X162938000Y-111265000D01*
G75*
G02*
X163038000Y-111365000I0J-100000D01*
G01*
X163038000Y-111565000D01*
G75*
G02*
X162938000Y-111665000I-100000J0D01*
G01*
X161513000Y-111665000D01*
G75*
G02*
X161413000Y-111565000I0J100000D01*
G01*
G37*
%TD.AperFunction*%
%TO.P,U6,3*%
%TO.N,Net-(U6-Pad3)*%
%TA.AperFunction,SMDPad,CuDef*%
G36*
G01*
X161413000Y-110915000D02*
X161413000Y-110715000D01*
G75*
G02*
X161513000Y-110615000I100000J0D01*
G01*
X162938000Y-110615000D01*
G75*
G02*
X163038000Y-110715000I0J-100000D01*
G01*
X163038000Y-110915000D01*
G75*
G02*
X162938000Y-111015000I-100000J0D01*
G01*
X161513000Y-111015000D01*
G75*
G02*
X161413000Y-110915000I0J100000D01*
G01*
G37*
%TD.AperFunction*%
%TO.P,U6,2*%
%TO.N,SCL*%
%TA.AperFunction,SMDPad,CuDef*%
G36*
G01*
X161413000Y-110265000D02*
X161413000Y-110065000D01*
G75*
G02*
X161513000Y-109965000I100000J0D01*
G01*
X162938000Y-109965000D01*
G75*
G02*
X163038000Y-110065000I0J-100000D01*
G01*
X163038000Y-110265000D01*
G75*
G02*
X162938000Y-110365000I-100000J0D01*
G01*
X161513000Y-110365000D01*
G75*
G02*
X161413000Y-110265000I0J100000D01*
G01*
G37*
%TD.AperFunction*%
%TO.P,U6,1*%
%TO.N,SDA*%
%TA.AperFunction,SMDPad,CuDef*%
G36*
G01*
X161413000Y-109615000D02*
X161413000Y-109415000D01*
G75*
G02*
X161513000Y-109315000I100000J0D01*
G01*
X162938000Y-109315000D01*
G75*
G02*
X163038000Y-109415000I0J-100000D01*
G01*
X163038000Y-109615000D01*
G75*
G02*
X162938000Y-109715000I-100000J0D01*
G01*
X161513000Y-109715000D01*
G75*
G02*
X161413000Y-109615000I0J100000D01*
G01*
G37*
%TD.AperFunction*%
%TD*%
D10*
%TO.N,GND*%
X163195000Y-112903000D03*
%TO.N,VDDF*%
X165608000Y-106426000D03*
X162306000Y-112776000D03*
%TO.N,Net-(JP1-Pad2)*%
X168910000Y-111760000D03*
%TO.N,Net-(JP2-Pad2)*%
X168910000Y-109093000D03*
%TO.N,Net-(JP3-Pad2)*%
X168910000Y-106680000D03*
%TO.N,SDA*%
X159766000Y-108712000D03*
%TO.N,SCL*%
X158750000Y-111506000D03*
%TD*%
D11*
%TO.N,GND*%
X162225500Y-111933500D02*
X163195000Y-112903000D01*
X162225500Y-111465000D02*
X162225500Y-111933500D01*
%TO.N,Net-(JP1-Pad2)*%
X168615000Y-111465000D02*
X168910000Y-111760000D01*
X166450500Y-111465000D02*
X168615000Y-111465000D01*
%TO.N,Net-(JP2-Pad2)*%
X167188000Y-110815000D02*
X168910000Y-109093000D01*
X166450500Y-110815000D02*
X167188000Y-110815000D01*
%TO.N,Net-(JP3-Pad2)*%
X168910000Y-108332726D02*
X168910000Y-106680000D01*
X167077726Y-110165000D02*
X168910000Y-108332726D01*
X166450500Y-110165000D02*
X167077726Y-110165000D01*
%TO.N,SDA*%
X160569000Y-109515000D02*
X159766000Y-108712000D01*
X162225500Y-109515000D02*
X160569000Y-109515000D01*
%TO.N,SCL*%
X160091000Y-110165000D02*
X158750000Y-111506000D01*
X162225500Y-110165000D02*
X160091000Y-110165000D01*
%TD*%
D12*
%TO.N,VDDF*%
X170130001Y-115520000D02*
X158165000Y-115520000D01*
X158165000Y-111753019D01*
X158187271Y-111806785D01*
X158256764Y-111910789D01*
X158345211Y-111999236D01*
X158449215Y-112068729D01*
X158564777Y-112116597D01*
X158687458Y-112141000D01*
X158812542Y-112141000D01*
X158935223Y-112116597D01*
X159050785Y-112068729D01*
X159154789Y-111999236D01*
X159243236Y-111910789D01*
X159312729Y-111806785D01*
X159360597Y-111691223D01*
X159385000Y-111568542D01*
X159385000Y-111517577D01*
X160280378Y-110622200D01*
X161039297Y-110622200D01*
X161030157Y-110715000D01*
X161030157Y-110915000D01*
X161039435Y-111009198D01*
X161066911Y-111099776D01*
X161088411Y-111140000D01*
X161066911Y-111180224D01*
X161039435Y-111270802D01*
X161030157Y-111365000D01*
X161030157Y-111565000D01*
X161039435Y-111659198D01*
X161066911Y-111749776D01*
X161111531Y-111833253D01*
X161171578Y-111906422D01*
X161244747Y-111966469D01*
X161328224Y-112011089D01*
X161418802Y-112038565D01*
X161513000Y-112047843D01*
X161782414Y-112047843D01*
X161801060Y-112109309D01*
X161843513Y-112188735D01*
X161868689Y-112219411D01*
X161900648Y-112258353D01*
X161918093Y-112272670D01*
X162560000Y-112914578D01*
X162560000Y-112965542D01*
X162584403Y-113088223D01*
X162632271Y-113203785D01*
X162701764Y-113307789D01*
X162790211Y-113396236D01*
X162894215Y-113465729D01*
X163009777Y-113513597D01*
X163132458Y-113538000D01*
X163257542Y-113538000D01*
X163380223Y-113513597D01*
X163495785Y-113465729D01*
X163599789Y-113396236D01*
X163688236Y-113307789D01*
X163757729Y-113203785D01*
X163805597Y-113088223D01*
X163830000Y-112965542D01*
X163830000Y-112840458D01*
X163805597Y-112717777D01*
X163757729Y-112602215D01*
X163688236Y-112498211D01*
X163599789Y-112409764D01*
X163495785Y-112340271D01*
X163380223Y-112292403D01*
X163257542Y-112268000D01*
X163206578Y-112268000D01*
X162982079Y-112043501D01*
X163032198Y-112038565D01*
X163122776Y-112011089D01*
X163206253Y-111966469D01*
X163279422Y-111906422D01*
X163339469Y-111833253D01*
X163384089Y-111749776D01*
X163411565Y-111659198D01*
X163420843Y-111565000D01*
X163420843Y-111365000D01*
X163411565Y-111270802D01*
X163384089Y-111180224D01*
X163362589Y-111140000D01*
X163384089Y-111099776D01*
X163411565Y-111009198D01*
X163420843Y-110915000D01*
X163420843Y-110715000D01*
X163411565Y-110620802D01*
X163384089Y-110530224D01*
X163362589Y-110490000D01*
X163384089Y-110449776D01*
X163411565Y-110359198D01*
X163420843Y-110265000D01*
X163420843Y-110065000D01*
X163411565Y-109970802D01*
X163384089Y-109880224D01*
X163362589Y-109840000D01*
X163384089Y-109799776D01*
X163400173Y-109746750D01*
X165003000Y-109746750D01*
X165013999Y-109848260D01*
X165051987Y-109967436D01*
X165112495Y-110076911D01*
X165193197Y-110172478D01*
X165255157Y-110221887D01*
X165255157Y-110265000D01*
X165264435Y-110359198D01*
X165291911Y-110449776D01*
X165313411Y-110490000D01*
X165291911Y-110530224D01*
X165264435Y-110620802D01*
X165255157Y-110715000D01*
X165255157Y-110915000D01*
X165264435Y-111009198D01*
X165291911Y-111099776D01*
X165313411Y-111140000D01*
X165291911Y-111180224D01*
X165264435Y-111270802D01*
X165255157Y-111365000D01*
X165255157Y-111565000D01*
X165264435Y-111659198D01*
X165291911Y-111749776D01*
X165336531Y-111833253D01*
X165396578Y-111906422D01*
X165469747Y-111966469D01*
X165553224Y-112011089D01*
X165643802Y-112038565D01*
X165738000Y-112047843D01*
X167163000Y-112047843D01*
X167257198Y-112038565D01*
X167347776Y-112011089D01*
X167431253Y-111966469D01*
X167485196Y-111922200D01*
X168294823Y-111922200D01*
X168299403Y-111945223D01*
X168347271Y-112060785D01*
X168416764Y-112164789D01*
X168505211Y-112253236D01*
X168609215Y-112322729D01*
X168724777Y-112370597D01*
X168847458Y-112395000D01*
X168972542Y-112395000D01*
X169095223Y-112370597D01*
X169210785Y-112322729D01*
X169314789Y-112253236D01*
X169403236Y-112164789D01*
X169472729Y-112060785D01*
X169520597Y-111945223D01*
X169545000Y-111822542D01*
X169545000Y-111697458D01*
X169520597Y-111574777D01*
X169472729Y-111459215D01*
X169403236Y-111355211D01*
X169314789Y-111266764D01*
X169210785Y-111197271D01*
X169095223Y-111149403D01*
X168972542Y-111125000D01*
X168921397Y-111125000D01*
X168870236Y-111083013D01*
X168790809Y-111040559D01*
X168704627Y-111014415D01*
X168637460Y-111007800D01*
X168637450Y-111007800D01*
X168615000Y-111005589D01*
X168592550Y-111007800D01*
X167641777Y-111007800D01*
X168921579Y-109728000D01*
X168972542Y-109728000D01*
X169095223Y-109703597D01*
X169210785Y-109655729D01*
X169314789Y-109586236D01*
X169403236Y-109497789D01*
X169472729Y-109393785D01*
X169520597Y-109278223D01*
X169545000Y-109155542D01*
X169545000Y-109030458D01*
X169520597Y-108907777D01*
X169472729Y-108792215D01*
X169403236Y-108688211D01*
X169314789Y-108599764D01*
X169293339Y-108585432D01*
X169334441Y-108508536D01*
X169349771Y-108458000D01*
X169360585Y-108422353D01*
X169367200Y-108355186D01*
X169367200Y-108355176D01*
X169369411Y-108332726D01*
X169367200Y-108310276D01*
X169367200Y-107120825D01*
X169403236Y-107084789D01*
X169472729Y-106980785D01*
X169520597Y-106865223D01*
X169545000Y-106742542D01*
X169545000Y-106617458D01*
X169520597Y-106494777D01*
X169472729Y-106379215D01*
X169403236Y-106275211D01*
X169314789Y-106186764D01*
X169210785Y-106117271D01*
X169095223Y-106069403D01*
X168972542Y-106045000D01*
X168847458Y-106045000D01*
X168724777Y-106069403D01*
X168609215Y-106117271D01*
X168505211Y-106186764D01*
X168416764Y-106275211D01*
X168347271Y-106379215D01*
X168299403Y-106494777D01*
X168275000Y-106617458D01*
X168275000Y-106742542D01*
X168299403Y-106865223D01*
X168347271Y-106980785D01*
X168416764Y-107084789D01*
X168452801Y-107120826D01*
X168452800Y-108143347D01*
X167721915Y-108874233D01*
X167707803Y-108857522D01*
X167610006Y-108779535D01*
X167498875Y-108722126D01*
X167378678Y-108687501D01*
X167254037Y-108676991D01*
X166736250Y-108680000D01*
X166577500Y-108838750D01*
X166577500Y-109442000D01*
X166597500Y-109442000D01*
X166597500Y-109582157D01*
X165738000Y-109582157D01*
X165678677Y-109588000D01*
X165161750Y-109588000D01*
X165003000Y-109746750D01*
X163400173Y-109746750D01*
X163411565Y-109709198D01*
X163420843Y-109615000D01*
X163420843Y-109415000D01*
X163411565Y-109320802D01*
X163400174Y-109283250D01*
X165003000Y-109283250D01*
X165161750Y-109442000D01*
X166323500Y-109442000D01*
X166323500Y-108838750D01*
X166164750Y-108680000D01*
X165646963Y-108676991D01*
X165522322Y-108687501D01*
X165402125Y-108722126D01*
X165290994Y-108779535D01*
X165193197Y-108857522D01*
X165112495Y-108953089D01*
X165051987Y-109062564D01*
X165013999Y-109181740D01*
X165003000Y-109283250D01*
X163400174Y-109283250D01*
X163384089Y-109230224D01*
X163339469Y-109146747D01*
X163279422Y-109073578D01*
X163206253Y-109013531D01*
X163122776Y-108968911D01*
X163032198Y-108941435D01*
X162938000Y-108932157D01*
X161513000Y-108932157D01*
X161418802Y-108941435D01*
X161328224Y-108968911D01*
X161244747Y-109013531D01*
X161190804Y-109057800D01*
X160758378Y-109057800D01*
X160401000Y-108700423D01*
X160401000Y-108649458D01*
X160376597Y-108526777D01*
X160328729Y-108411215D01*
X160259236Y-108307211D01*
X160170789Y-108218764D01*
X160066785Y-108149271D01*
X159951223Y-108101403D01*
X159828542Y-108077000D01*
X159703458Y-108077000D01*
X159580777Y-108101403D01*
X159465215Y-108149271D01*
X159361211Y-108218764D01*
X159272764Y-108307211D01*
X159203271Y-108411215D01*
X159155403Y-108526777D01*
X159131000Y-108649458D01*
X159131000Y-108774542D01*
X159155403Y-108897223D01*
X159203271Y-109012785D01*
X159272764Y-109116789D01*
X159361211Y-109205236D01*
X159465215Y-109274729D01*
X159580777Y-109322597D01*
X159703458Y-109347000D01*
X159754423Y-109347000D01*
X160115222Y-109707800D01*
X160113449Y-109707800D01*
X160090999Y-109705589D01*
X160068549Y-109707800D01*
X160068540Y-109707800D01*
X160001373Y-109714415D01*
X159915191Y-109740559D01*
X159878217Y-109760322D01*
X159835763Y-109783013D01*
X159783592Y-109825830D01*
X159766147Y-109840147D01*
X159751830Y-109857592D01*
X158738423Y-110871000D01*
X158687458Y-110871000D01*
X158564777Y-110895403D01*
X158449215Y-110943271D01*
X158345211Y-111012764D01*
X158256764Y-111101211D01*
X158187271Y-111205215D01*
X158165000Y-111258981D01*
X158165000Y-105460000D01*
X170130000Y-105460000D01*
X170130001Y-115520000D01*
%TA.AperFunction,Conductor*%
D13*
G36*
X170130001Y-115520000D02*
G01*
X158165000Y-115520000D01*
X158165000Y-111753019D01*
X158187271Y-111806785D01*
X158256764Y-111910789D01*
X158345211Y-111999236D01*
X158449215Y-112068729D01*
X158564777Y-112116597D01*
X158687458Y-112141000D01*
X158812542Y-112141000D01*
X158935223Y-112116597D01*
X159050785Y-112068729D01*
X159154789Y-111999236D01*
X159243236Y-111910789D01*
X159312729Y-111806785D01*
X159360597Y-111691223D01*
X159385000Y-111568542D01*
X159385000Y-111517577D01*
X160280378Y-110622200D01*
X161039297Y-110622200D01*
X161030157Y-110715000D01*
X161030157Y-110915000D01*
X161039435Y-111009198D01*
X161066911Y-111099776D01*
X161088411Y-111140000D01*
X161066911Y-111180224D01*
X161039435Y-111270802D01*
X161030157Y-111365000D01*
X161030157Y-111565000D01*
X161039435Y-111659198D01*
X161066911Y-111749776D01*
X161111531Y-111833253D01*
X161171578Y-111906422D01*
X161244747Y-111966469D01*
X161328224Y-112011089D01*
X161418802Y-112038565D01*
X161513000Y-112047843D01*
X161782414Y-112047843D01*
X161801060Y-112109309D01*
X161843513Y-112188735D01*
X161868689Y-112219411D01*
X161900648Y-112258353D01*
X161918093Y-112272670D01*
X162560000Y-112914578D01*
X162560000Y-112965542D01*
X162584403Y-113088223D01*
X162632271Y-113203785D01*
X162701764Y-113307789D01*
X162790211Y-113396236D01*
X162894215Y-113465729D01*
X163009777Y-113513597D01*
X163132458Y-113538000D01*
X163257542Y-113538000D01*
X163380223Y-113513597D01*
X163495785Y-113465729D01*
X163599789Y-113396236D01*
X163688236Y-113307789D01*
X163757729Y-113203785D01*
X163805597Y-113088223D01*
X163830000Y-112965542D01*
X163830000Y-112840458D01*
X163805597Y-112717777D01*
X163757729Y-112602215D01*
X163688236Y-112498211D01*
X163599789Y-112409764D01*
X163495785Y-112340271D01*
X163380223Y-112292403D01*
X163257542Y-112268000D01*
X163206578Y-112268000D01*
X162982079Y-112043501D01*
X163032198Y-112038565D01*
X163122776Y-112011089D01*
X163206253Y-111966469D01*
X163279422Y-111906422D01*
X163339469Y-111833253D01*
X163384089Y-111749776D01*
X163411565Y-111659198D01*
X163420843Y-111565000D01*
X163420843Y-111365000D01*
X163411565Y-111270802D01*
X163384089Y-111180224D01*
X163362589Y-111140000D01*
X163384089Y-111099776D01*
X163411565Y-111009198D01*
X163420843Y-110915000D01*
X163420843Y-110715000D01*
X163411565Y-110620802D01*
X163384089Y-110530224D01*
X163362589Y-110490000D01*
X163384089Y-110449776D01*
X163411565Y-110359198D01*
X163420843Y-110265000D01*
X163420843Y-110065000D01*
X163411565Y-109970802D01*
X163384089Y-109880224D01*
X163362589Y-109840000D01*
X163384089Y-109799776D01*
X163400173Y-109746750D01*
X165003000Y-109746750D01*
X165013999Y-109848260D01*
X165051987Y-109967436D01*
X165112495Y-110076911D01*
X165193197Y-110172478D01*
X165255157Y-110221887D01*
X165255157Y-110265000D01*
X165264435Y-110359198D01*
X165291911Y-110449776D01*
X165313411Y-110490000D01*
X165291911Y-110530224D01*
X165264435Y-110620802D01*
X165255157Y-110715000D01*
X165255157Y-110915000D01*
X165264435Y-111009198D01*
X165291911Y-111099776D01*
X165313411Y-111140000D01*
X165291911Y-111180224D01*
X165264435Y-111270802D01*
X165255157Y-111365000D01*
X165255157Y-111565000D01*
X165264435Y-111659198D01*
X165291911Y-111749776D01*
X165336531Y-111833253D01*
X165396578Y-111906422D01*
X165469747Y-111966469D01*
X165553224Y-112011089D01*
X165643802Y-112038565D01*
X165738000Y-112047843D01*
X167163000Y-112047843D01*
X167257198Y-112038565D01*
X167347776Y-112011089D01*
X167431253Y-111966469D01*
X167485196Y-111922200D01*
X168294823Y-111922200D01*
X168299403Y-111945223D01*
X168347271Y-112060785D01*
X168416764Y-112164789D01*
X168505211Y-112253236D01*
X168609215Y-112322729D01*
X168724777Y-112370597D01*
X168847458Y-112395000D01*
X168972542Y-112395000D01*
X169095223Y-112370597D01*
X169210785Y-112322729D01*
X169314789Y-112253236D01*
X169403236Y-112164789D01*
X169472729Y-112060785D01*
X169520597Y-111945223D01*
X169545000Y-111822542D01*
X169545000Y-111697458D01*
X169520597Y-111574777D01*
X169472729Y-111459215D01*
X169403236Y-111355211D01*
X169314789Y-111266764D01*
X169210785Y-111197271D01*
X169095223Y-111149403D01*
X168972542Y-111125000D01*
X168921397Y-111125000D01*
X168870236Y-111083013D01*
X168790809Y-111040559D01*
X168704627Y-111014415D01*
X168637460Y-111007800D01*
X168637450Y-111007800D01*
X168615000Y-111005589D01*
X168592550Y-111007800D01*
X167641777Y-111007800D01*
X168921579Y-109728000D01*
X168972542Y-109728000D01*
X169095223Y-109703597D01*
X169210785Y-109655729D01*
X169314789Y-109586236D01*
X169403236Y-109497789D01*
X169472729Y-109393785D01*
X169520597Y-109278223D01*
X169545000Y-109155542D01*
X169545000Y-109030458D01*
X169520597Y-108907777D01*
X169472729Y-108792215D01*
X169403236Y-108688211D01*
X169314789Y-108599764D01*
X169293339Y-108585432D01*
X169334441Y-108508536D01*
X169349771Y-108458000D01*
X169360585Y-108422353D01*
X169367200Y-108355186D01*
X169367200Y-108355176D01*
X169369411Y-108332726D01*
X169367200Y-108310276D01*
X169367200Y-107120825D01*
X169403236Y-107084789D01*
X169472729Y-106980785D01*
X169520597Y-106865223D01*
X169545000Y-106742542D01*
X169545000Y-106617458D01*
X169520597Y-106494777D01*
X169472729Y-106379215D01*
X169403236Y-106275211D01*
X169314789Y-106186764D01*
X169210785Y-106117271D01*
X169095223Y-106069403D01*
X168972542Y-106045000D01*
X168847458Y-106045000D01*
X168724777Y-106069403D01*
X168609215Y-106117271D01*
X168505211Y-106186764D01*
X168416764Y-106275211D01*
X168347271Y-106379215D01*
X168299403Y-106494777D01*
X168275000Y-106617458D01*
X168275000Y-106742542D01*
X168299403Y-106865223D01*
X168347271Y-106980785D01*
X168416764Y-107084789D01*
X168452801Y-107120826D01*
X168452800Y-108143347D01*
X167721915Y-108874233D01*
X167707803Y-108857522D01*
X167610006Y-108779535D01*
X167498875Y-108722126D01*
X167378678Y-108687501D01*
X167254037Y-108676991D01*
X166736250Y-108680000D01*
X166577500Y-108838750D01*
X166577500Y-109442000D01*
X166597500Y-109442000D01*
X166597500Y-109582157D01*
X165738000Y-109582157D01*
X165678677Y-109588000D01*
X165161750Y-109588000D01*
X165003000Y-109746750D01*
X163400173Y-109746750D01*
X163411565Y-109709198D01*
X163420843Y-109615000D01*
X163420843Y-109415000D01*
X163411565Y-109320802D01*
X163400174Y-109283250D01*
X165003000Y-109283250D01*
X165161750Y-109442000D01*
X166323500Y-109442000D01*
X166323500Y-108838750D01*
X166164750Y-108680000D01*
X165646963Y-108676991D01*
X165522322Y-108687501D01*
X165402125Y-108722126D01*
X165290994Y-108779535D01*
X165193197Y-108857522D01*
X165112495Y-108953089D01*
X165051987Y-109062564D01*
X165013999Y-109181740D01*
X165003000Y-109283250D01*
X163400174Y-109283250D01*
X163384089Y-109230224D01*
X163339469Y-109146747D01*
X163279422Y-109073578D01*
X163206253Y-109013531D01*
X163122776Y-108968911D01*
X163032198Y-108941435D01*
X162938000Y-108932157D01*
X161513000Y-108932157D01*
X161418802Y-108941435D01*
X161328224Y-108968911D01*
X161244747Y-109013531D01*
X161190804Y-109057800D01*
X160758378Y-109057800D01*
X160401000Y-108700423D01*
X160401000Y-108649458D01*
X160376597Y-108526777D01*
X160328729Y-108411215D01*
X160259236Y-108307211D01*
X160170789Y-108218764D01*
X160066785Y-108149271D01*
X159951223Y-108101403D01*
X159828542Y-108077000D01*
X159703458Y-108077000D01*
X159580777Y-108101403D01*
X159465215Y-108149271D01*
X159361211Y-108218764D01*
X159272764Y-108307211D01*
X159203271Y-108411215D01*
X159155403Y-108526777D01*
X159131000Y-108649458D01*
X159131000Y-108774542D01*
X159155403Y-108897223D01*
X159203271Y-109012785D01*
X159272764Y-109116789D01*
X159361211Y-109205236D01*
X159465215Y-109274729D01*
X159580777Y-109322597D01*
X159703458Y-109347000D01*
X159754423Y-109347000D01*
X160115222Y-109707800D01*
X160113449Y-109707800D01*
X160090999Y-109705589D01*
X160068549Y-109707800D01*
X160068540Y-109707800D01*
X160001373Y-109714415D01*
X159915191Y-109740559D01*
X159878217Y-109760322D01*
X159835763Y-109783013D01*
X159783592Y-109825830D01*
X159766147Y-109840147D01*
X159751830Y-109857592D01*
X158738423Y-110871000D01*
X158687458Y-110871000D01*
X158564777Y-110895403D01*
X158449215Y-110943271D01*
X158345211Y-111012764D01*
X158256764Y-111101211D01*
X158187271Y-111205215D01*
X158165000Y-111258981D01*
X158165000Y-105460000D01*
X170130000Y-105460000D01*
X170130001Y-115520000D01*
G37*
%TD.AperFunction*%
%TD*%
M02*
