%TF.GenerationSoftware,KiCad,Pcbnew,(5.1.10)-1*%
%TF.CreationDate,2023-09-14T18:46:52-05:00*%
%TF.ProjectId,perovskite_contact_board,7065726f-7673-46b6-9974-655f636f6e74,V3*%
%TF.SameCoordinates,Original*%
%TF.FileFunction,Legend,Bot*%
%TF.FilePolarity,Positive*%
%FSLAX46Y46*%
G04 Gerber Fmt 4.6, Leading zero omitted, Abs format (unit mm)*
G04 Created by KiCad (PCBNEW (5.1.10)-1) date 2023-09-14 18:46:52*
%MOMM*%
%LPD*%
G01*
G04 APERTURE LIST*
%ADD10C,0.100000*%
%ADD11C,0.120000*%
G04 APERTURE END LIST*
D10*
X160373142Y-105866380D02*
X160301714Y-105890190D01*
X160182666Y-105890190D01*
X160135047Y-105866380D01*
X160111238Y-105842571D01*
X160087428Y-105794952D01*
X160087428Y-105747333D01*
X160111238Y-105699714D01*
X160135047Y-105675904D01*
X160182666Y-105652095D01*
X160277904Y-105628285D01*
X160325523Y-105604476D01*
X160349333Y-105580666D01*
X160373142Y-105533047D01*
X160373142Y-105485428D01*
X160349333Y-105437809D01*
X160325523Y-105414000D01*
X160277904Y-105390190D01*
X160158857Y-105390190D01*
X160087428Y-105414000D01*
X159873142Y-105890190D02*
X159873142Y-105390190D01*
X159754095Y-105390190D01*
X159682666Y-105414000D01*
X159635047Y-105461619D01*
X159611238Y-105509238D01*
X159587428Y-105604476D01*
X159587428Y-105675904D01*
X159611238Y-105771142D01*
X159635047Y-105818761D01*
X159682666Y-105866380D01*
X159754095Y-105890190D01*
X159873142Y-105890190D01*
X159396952Y-105747333D02*
X159158857Y-105747333D01*
X159444571Y-105890190D02*
X159277904Y-105390190D01*
X159111238Y-105890190D01*
X163961000Y-114173047D02*
X163937190Y-114125428D01*
X163937190Y-114054000D01*
X163961000Y-113982571D01*
X164008619Y-113934952D01*
X164056238Y-113911142D01*
X164151476Y-113887333D01*
X164222904Y-113887333D01*
X164318142Y-113911142D01*
X164365761Y-113934952D01*
X164413380Y-113982571D01*
X164437190Y-114054000D01*
X164437190Y-114101619D01*
X164413380Y-114173047D01*
X164389571Y-114196857D01*
X164222904Y-114196857D01*
X164222904Y-114101619D01*
X164437190Y-114411142D02*
X163937190Y-114411142D01*
X164437190Y-114696857D01*
X163937190Y-114696857D01*
X164437190Y-114934952D02*
X163937190Y-114934952D01*
X163937190Y-115054000D01*
X163961000Y-115125428D01*
X164008619Y-115173047D01*
X164056238Y-115196857D01*
X164151476Y-115220666D01*
X164222904Y-115220666D01*
X164318142Y-115196857D01*
X164365761Y-115173047D01*
X164413380Y-115125428D01*
X164437190Y-115054000D01*
X164437190Y-114934952D01*
X163607666Y-105390190D02*
X163441000Y-105890190D01*
X163274333Y-105390190D01*
X163107666Y-105890190D02*
X163107666Y-105390190D01*
X162988619Y-105390190D01*
X162917190Y-105414000D01*
X162869571Y-105461619D01*
X162845761Y-105509238D01*
X162821952Y-105604476D01*
X162821952Y-105675904D01*
X162845761Y-105771142D01*
X162869571Y-105818761D01*
X162917190Y-105866380D01*
X162988619Y-105890190D01*
X163107666Y-105890190D01*
X162607666Y-105890190D02*
X162607666Y-105390190D01*
X162488619Y-105390190D01*
X162417190Y-105414000D01*
X162369571Y-105461619D01*
X162345761Y-105509238D01*
X162321952Y-105604476D01*
X162321952Y-105675904D01*
X162345761Y-105771142D01*
X162369571Y-105818761D01*
X162417190Y-105866380D01*
X162488619Y-105890190D01*
X162607666Y-105890190D01*
X158698380Y-113958761D02*
X158722190Y-114030190D01*
X158722190Y-114149238D01*
X158698380Y-114196857D01*
X158674571Y-114220666D01*
X158626952Y-114244476D01*
X158579333Y-114244476D01*
X158531714Y-114220666D01*
X158507904Y-114196857D01*
X158484095Y-114149238D01*
X158460285Y-114054000D01*
X158436476Y-114006380D01*
X158412666Y-113982571D01*
X158365047Y-113958761D01*
X158317428Y-113958761D01*
X158269809Y-113982571D01*
X158246000Y-114006380D01*
X158222190Y-114054000D01*
X158222190Y-114173047D01*
X158246000Y-114244476D01*
X158674571Y-114744476D02*
X158698380Y-114720666D01*
X158722190Y-114649238D01*
X158722190Y-114601619D01*
X158698380Y-114530190D01*
X158650761Y-114482571D01*
X158603142Y-114458761D01*
X158507904Y-114434952D01*
X158436476Y-114434952D01*
X158341238Y-114458761D01*
X158293619Y-114482571D01*
X158246000Y-114530190D01*
X158222190Y-114601619D01*
X158222190Y-114649238D01*
X158246000Y-114720666D01*
X158269809Y-114744476D01*
X158722190Y-115196857D02*
X158722190Y-114958761D01*
X158222190Y-114958761D01*
D11*
%TO.C,C2*%
X160795580Y-112266000D02*
X160514420Y-112266000D01*
X160795580Y-113286000D02*
X160514420Y-113286000D01*
%TO.C,JP103.12*%
X160466000Y-106934000D02*
G75*
G03*
X160466000Y-106934000I-700000J0D01*
G01*
%TO.C,JP103.11*%
X160466000Y-114554000D02*
G75*
G03*
X160466000Y-114554000I-700000J0D01*
G01*
%TO.C,JP103.10*%
X163641000Y-106934000D02*
G75*
G03*
X163641000Y-106934000I-700000J0D01*
G01*
%TO.C,JP103.1*%
X163641000Y-114554000D02*
G75*
G03*
X163641000Y-114554000I-700000J0D01*
G01*
D10*
%TO.C,U1*%
X162015000Y-109140000D02*
X162015000Y-109290000D01*
X162005000Y-109140000D02*
X161855000Y-109140000D01*
X162005000Y-111840000D02*
X161855000Y-111840000D01*
X162005000Y-111840000D02*
X162005000Y-111690000D01*
X159305000Y-111690000D02*
X159305000Y-111840000D01*
X159305000Y-111840000D02*
X159455000Y-111840000D01*
X159455000Y-109140000D02*
X159205000Y-109140000D01*
D11*
%TO.C,A0*%
X168928000Y-106950000D02*
X164828000Y-106950000D01*
X164828000Y-106950000D02*
X164828000Y-108950000D01*
X164828000Y-108950000D02*
X168928000Y-108950000D01*
X168928000Y-108950000D02*
X168928000Y-106950000D01*
X168178000Y-109150000D02*
X168478000Y-109450000D01*
X168478000Y-109450000D02*
X167878000Y-109450000D01*
X168178000Y-109150000D02*
X167878000Y-109450000D01*
%TO.C,A1*%
X168928000Y-109490000D02*
X164828000Y-109490000D01*
X164828000Y-109490000D02*
X164828000Y-111490000D01*
X164828000Y-111490000D02*
X168928000Y-111490000D01*
X168928000Y-111490000D02*
X168928000Y-109490000D01*
X168178000Y-111690000D02*
X168478000Y-111990000D01*
X168478000Y-111990000D02*
X167878000Y-111990000D01*
X168178000Y-111690000D02*
X167878000Y-111990000D01*
%TO.C,A2*%
X168928000Y-112030000D02*
X164828000Y-112030000D01*
X164828000Y-112030000D02*
X164828000Y-114030000D01*
X164828000Y-114030000D02*
X168928000Y-114030000D01*
X168928000Y-114030000D02*
X168928000Y-112030000D01*
X168178000Y-114230000D02*
X168478000Y-114530000D01*
X168478000Y-114530000D02*
X167878000Y-114530000D01*
X168178000Y-114230000D02*
X167878000Y-114530000D01*
%TO.C,C5*%
X163578000Y-110349420D02*
X163578000Y-110630580D01*
X162558000Y-110349420D02*
X162558000Y-110630580D01*
%TO.C,C2*%
D10*
X162738571Y-112692666D02*
X162762380Y-112668857D01*
X162786190Y-112597428D01*
X162786190Y-112549809D01*
X162762380Y-112478380D01*
X162714761Y-112430761D01*
X162667142Y-112406952D01*
X162571904Y-112383142D01*
X162500476Y-112383142D01*
X162405238Y-112406952D01*
X162357619Y-112430761D01*
X162310000Y-112478380D01*
X162286190Y-112549809D01*
X162286190Y-112597428D01*
X162310000Y-112668857D01*
X162333809Y-112692666D01*
X162333809Y-112883142D02*
X162310000Y-112906952D01*
X162286190Y-112954571D01*
X162286190Y-113073619D01*
X162310000Y-113121238D01*
X162333809Y-113145047D01*
X162381428Y-113168857D01*
X162429047Y-113168857D01*
X162500476Y-113145047D01*
X162786190Y-112859333D01*
X162786190Y-113168857D01*
%TO.C,U1*%
X158476190Y-110109047D02*
X158880952Y-110109047D01*
X158928571Y-110132857D01*
X158952380Y-110156666D01*
X158976190Y-110204285D01*
X158976190Y-110299523D01*
X158952380Y-110347142D01*
X158928571Y-110370952D01*
X158880952Y-110394761D01*
X158476190Y-110394761D01*
X158976190Y-110894761D02*
X158976190Y-110609047D01*
X158976190Y-110751904D02*
X158476190Y-110751904D01*
X158547619Y-110704285D01*
X158595238Y-110656666D01*
X158619047Y-110609047D01*
%TO.C,A0*%
X169628333Y-107592857D02*
X169628333Y-107830952D01*
X169771190Y-107545238D02*
X169271190Y-107711904D01*
X169771190Y-107878571D01*
X169271190Y-108140476D02*
X169271190Y-108188095D01*
X169295000Y-108235714D01*
X169318809Y-108259523D01*
X169366428Y-108283333D01*
X169461666Y-108307142D01*
X169580714Y-108307142D01*
X169675952Y-108283333D01*
X169723571Y-108259523D01*
X169747380Y-108235714D01*
X169771190Y-108188095D01*
X169771190Y-108140476D01*
X169747380Y-108092857D01*
X169723571Y-108069047D01*
X169675952Y-108045238D01*
X169580714Y-108021428D01*
X169461666Y-108021428D01*
X169366428Y-108045238D01*
X169318809Y-108069047D01*
X169295000Y-108092857D01*
X169271190Y-108140476D01*
%TO.C,A1*%
X169628333Y-110132857D02*
X169628333Y-110370952D01*
X169771190Y-110085238D02*
X169271190Y-110251904D01*
X169771190Y-110418571D01*
X169771190Y-110847142D02*
X169771190Y-110561428D01*
X169771190Y-110704285D02*
X169271190Y-110704285D01*
X169342619Y-110656666D01*
X169390238Y-110609047D01*
X169414047Y-110561428D01*
%TO.C,A2*%
X169628333Y-112672857D02*
X169628333Y-112910952D01*
X169771190Y-112625238D02*
X169271190Y-112791904D01*
X169771190Y-112958571D01*
X169318809Y-113101428D02*
X169295000Y-113125238D01*
X169271190Y-113172857D01*
X169271190Y-113291904D01*
X169295000Y-113339523D01*
X169318809Y-113363333D01*
X169366428Y-113387142D01*
X169414047Y-113387142D01*
X169485476Y-113363333D01*
X169771190Y-113077619D01*
X169771190Y-113387142D01*
%TO.C,C5*%
X163151333Y-108890571D02*
X163175142Y-108914380D01*
X163246571Y-108938190D01*
X163294190Y-108938190D01*
X163365619Y-108914380D01*
X163413238Y-108866761D01*
X163437047Y-108819142D01*
X163460857Y-108723904D01*
X163460857Y-108652476D01*
X163437047Y-108557238D01*
X163413238Y-108509619D01*
X163365619Y-108462000D01*
X163294190Y-108438190D01*
X163246571Y-108438190D01*
X163175142Y-108462000D01*
X163151333Y-108485809D01*
X162698952Y-108438190D02*
X162937047Y-108438190D01*
X162960857Y-108676285D01*
X162937047Y-108652476D01*
X162889428Y-108628666D01*
X162770380Y-108628666D01*
X162722761Y-108652476D01*
X162698952Y-108676285D01*
X162675142Y-108723904D01*
X162675142Y-108842952D01*
X162698952Y-108890571D01*
X162722761Y-108914380D01*
X162770380Y-108938190D01*
X162889428Y-108938190D01*
X162937047Y-108914380D01*
X162960857Y-108890571D01*
%TD*%
M02*
