%TF.GenerationSoftware,KiCad,Pcbnew,(5.1.10)-1*%
%TF.CreationDate,2023-09-10T10:41:42-05:00*%
%TF.ProjectId,perovskite_contact_board,7065726f-7673-46b6-9974-655f636f6e74,V3*%
%TF.SameCoordinates,Original*%
%TF.FileFunction,Soldermask,Top*%
%TF.FilePolarity,Negative*%
%FSLAX46Y46*%
G04 Gerber Fmt 4.6, Leading zero omitted, Abs format (unit mm)*
G04 Created by KiCad (PCBNEW (5.1.10)-1) date 2023-09-10 10:41:42*
%MOMM*%
%LPD*%
G01*
G04 APERTURE LIST*
%ADD10R,1.700000X1.700000*%
%ADD11R,4.000000X4.000000*%
%ADD12R,3.800000X7.400000*%
%ADD13C,0.254000*%
%ADD14C,0.100000*%
G04 APERTURE END LIST*
D10*
%TO.C,JP102.7*%
X162560000Y-100584000D03*
%TD*%
%TO.C,JP102.6*%
X173228000Y-119126000D03*
%TD*%
%TO.C,JP102.5*%
X173228000Y-110744000D03*
%TD*%
%TO.C,JP102.4*%
X173482000Y-102616000D03*
%TD*%
%TO.C,JP102.3*%
X152908000Y-102616000D03*
%TD*%
%TO.C,JP102.2*%
X152908000Y-110744000D03*
%TD*%
%TO.C,JP102.1*%
X152908000Y-119126000D03*
%TD*%
%TO.C,JP102.8*%
X162560000Y-120396000D03*
%TD*%
D11*
%TO.C,U3*%
X162577500Y-100463000D03*
X162577500Y-120663000D03*
X173177500Y-110763000D03*
X152877500Y-110713000D03*
D12*
X173377500Y-118913000D03*
X173377500Y-102463000D03*
X152777500Y-102463000D03*
X152777500Y-118913000D03*
%TD*%
D13*
X175133000Y-122555000D02*
X151003000Y-122555000D01*
X151003000Y-108839000D01*
X160909000Y-108839000D01*
X160909000Y-112141000D01*
X164973000Y-112141000D01*
X164973000Y-108839000D01*
X160909000Y-108839000D01*
X151003000Y-108839000D01*
X151003000Y-98933000D01*
X175133000Y-98933000D01*
X175133000Y-122555000D01*
D14*
G36*
X175133000Y-122555000D02*
G01*
X151003000Y-122555000D01*
X151003000Y-108839000D01*
X160909000Y-108839000D01*
X160909000Y-112141000D01*
X164973000Y-112141000D01*
X164973000Y-108839000D01*
X160909000Y-108839000D01*
X151003000Y-108839000D01*
X151003000Y-98933000D01*
X175133000Y-98933000D01*
X175133000Y-122555000D01*
G37*
M02*
