%TF.GenerationSoftware,KiCad,Pcbnew,(5.1.10)-1*%
%TF.CreationDate,2023-09-09T18:44:11-05:00*%
%TF.ProjectId,perovskite_router,7065726f-7673-46b6-9974-655f726f7574,A*%
%TF.SameCoordinates,Original*%
%TF.FileFunction,Copper,L1,Top*%
%TF.FilePolarity,Positive*%
%FSLAX46Y46*%
G04 Gerber Fmt 4.6, Leading zero omitted, Abs format (unit mm)*
G04 Created by KiCad (PCBNEW (5.1.10)-1) date 2023-09-09 18:44:11*
%MOMM*%
%LPD*%
G01*
G04 APERTURE LIST*
%TA.AperFunction,ComponentPad*%
%ADD10O,1.000000X1.000000*%
%TD*%
%TA.AperFunction,ComponentPad*%
%ADD11R,1.000000X1.000000*%
%TD*%
%TA.AperFunction,ComponentPad*%
%ADD12O,1.700000X1.700000*%
%TD*%
%TA.AperFunction,ComponentPad*%
%ADD13R,1.700000X1.700000*%
%TD*%
%TA.AperFunction,Conductor*%
%ADD14C,0.152400*%
%TD*%
G04 APERTURE END LIST*
D10*
%TO.P,J3,11*%
%TO.N,+3V3*%
X155702000Y-104394000D03*
%TO.P,J3,10*%
%TO.N,GND*%
X155702000Y-103124000D03*
%TO.P,J3,9*%
%TO.N,SCL*%
X155702000Y-101854000D03*
%TO.P,J3,8*%
%TO.N,SDA*%
X155702000Y-100584000D03*
%TO.P,J3,7*%
%TO.N,COMMON_1*%
X155702000Y-99314000D03*
%TO.P,J3,6*%
%TO.N,CELL_1*%
X155702000Y-98044000D03*
%TO.P,J3,5*%
%TO.N,CELL_2*%
X155702000Y-96774000D03*
%TO.P,J3,4*%
%TO.N,CELL_3*%
X155702000Y-95504000D03*
%TO.P,J3,3*%
%TO.N,CELL_6*%
X155702000Y-94234000D03*
%TO.P,J3,2*%
%TO.N,CELL_5*%
X155702000Y-92964000D03*
D11*
%TO.P,J3,1*%
%TO.N,CELL_4*%
X155702000Y-91694000D03*
%TD*%
D12*
%TO.P,J2,10*%
%TO.N,+3V3*%
X175866000Y-86360000D03*
%TO.P,J2,9*%
%TO.N,A0*%
X175866000Y-88900000D03*
%TO.P,J2,8*%
%TO.N,A1*%
X175866000Y-91440000D03*
%TO.P,J2,7*%
%TO.N,A2*%
X175866000Y-93980000D03*
%TO.P,J2,6*%
%TO.N,Net-(J2-Pad6)*%
X175866000Y-96520000D03*
%TO.P,J2,5*%
%TO.N,CELL_4*%
X175866000Y-99060000D03*
%TO.P,J2,4*%
%TO.N,CELL_5*%
X175866000Y-101600000D03*
%TO.P,J2,3*%
%TO.N,CELL_6*%
X175866000Y-104140000D03*
%TO.P,J2,2*%
%TO.N,Net-(J2-Pad2)*%
X175866000Y-106680000D03*
D13*
%TO.P,J2,1*%
%TO.N,COMMON_1*%
X175866000Y-109220000D03*
%TD*%
D12*
%TO.P,J1,10*%
%TO.N,COMMON_1*%
X134366000Y-86360000D03*
%TO.P,J1,9*%
%TO.N,Net-(J1-Pad9)*%
X134366000Y-88900000D03*
%TO.P,J1,8*%
%TO.N,SDA*%
X134366000Y-91440000D03*
%TO.P,J1,7*%
%TO.N,SCL*%
X134366000Y-93980000D03*
%TO.P,J1,6*%
%TO.N,ALERT*%
X134366000Y-96520000D03*
%TO.P,J1,5*%
%TO.N,GND*%
X134366000Y-99060000D03*
%TO.P,J1,4*%
%TO.N,Net-(J1-Pad4)*%
X134366000Y-101600000D03*
%TO.P,J1,3*%
%TO.N,CELL_3*%
X134366000Y-104140000D03*
%TO.P,J1,2*%
%TO.N,CELL_2*%
X134366000Y-106680000D03*
D13*
%TO.P,J1,1*%
%TO.N,CELL_1*%
X134366000Y-109220000D03*
%TD*%
D14*
%TO.N,CELL_3*%
X155702000Y-95504000D02*
X149606000Y-95504000D01*
X140970000Y-104140000D02*
X134366000Y-104140000D01*
X149606000Y-95504000D02*
X140970000Y-104140000D01*
%TO.N,CELL_2*%
X155702000Y-96774000D02*
X151130000Y-96774000D01*
X141224000Y-106680000D02*
X134366000Y-106680000D01*
X151130000Y-96774000D02*
X141224000Y-106680000D01*
%TO.N,CELL_1*%
X155702000Y-98044000D02*
X153416000Y-98044000D01*
X142240000Y-109220000D02*
X134366000Y-109220000D01*
X153416000Y-98044000D02*
X142240000Y-109220000D01*
%TO.N,CELL_4*%
X155702000Y-91694000D02*
X162814000Y-91694000D01*
X170180000Y-99060000D02*
X175866000Y-99060000D01*
X162814000Y-91694000D02*
X170180000Y-99060000D01*
%TO.N,CELL_5*%
X155702000Y-92964000D02*
X161798000Y-92964000D01*
X170434000Y-101600000D02*
X175866000Y-101600000D01*
X161798000Y-92964000D02*
X170434000Y-101600000D01*
%TO.N,CELL_6*%
X155702000Y-94234000D02*
X160274000Y-94234000D01*
X170180000Y-104140000D02*
X175866000Y-104140000D01*
X160274000Y-94234000D02*
X170180000Y-104140000D01*
%TO.N,COMMON_1*%
X155702000Y-99314000D02*
X160845500Y-99314000D01*
X170751500Y-109220000D02*
X175866000Y-109220000D01*
X160845500Y-99314000D02*
X170751500Y-109220000D01*
%TD*%
M02*
