%TF.GenerationSoftware,KiCad,Pcbnew,(5.1.10)-1*%
%TF.CreationDate,2023-08-12T08:02:15-05:00*%
%TF.ProjectId,perovskite_router,7065726f-7673-46b6-9974-655f726f7574,A*%
%TF.SameCoordinates,Original*%
%TF.FileFunction,OtherDrawing,Comment*%
%FSLAX46Y46*%
G04 Gerber Fmt 4.6, Leading zero omitted, Abs format (unit mm)*
G04 Created by KiCad (PCBNEW (5.1.10)-1) date 2023-08-12 08:02:15*
%MOMM*%
%LPD*%
G01*
G04 APERTURE LIST*
%ADD10C,0.150000*%
%ADD11C,0.200000*%
G04 APERTURE END LIST*
D10*
X182793784Y-109375995D02*
X182794094Y-110042661D01*
X181793895Y-109614555D01*
X181889509Y-110424034D02*
X181841913Y-110471675D01*
X181794271Y-110424078D01*
X181841868Y-110376437D01*
X181889509Y-110424034D01*
X181794271Y-110424078D01*
X182794448Y-110804566D02*
X182794758Y-111471233D01*
X181794559Y-111043126D01*
X182461801Y-112280911D02*
X181795134Y-112281221D01*
X182842643Y-112042639D02*
X182128246Y-111804876D01*
X182128534Y-112423923D01*
X182795333Y-112709328D02*
X182795643Y-113375994D01*
X181795444Y-112947888D01*
X181796174Y-114519316D02*
X182462841Y-114519006D01*
X182367603Y-114519050D02*
X182415244Y-114566647D01*
X182462907Y-114661863D01*
X182462974Y-114804720D01*
X182415399Y-114899981D01*
X182320183Y-114947644D01*
X181796374Y-114947887D01*
X182320183Y-114947644D02*
X182415443Y-114995219D01*
X182463107Y-115090435D01*
X182463173Y-115233292D01*
X182415598Y-115328552D01*
X182320382Y-115376215D01*
X181796573Y-115376459D01*
X181796794Y-115852649D02*
X182463461Y-115852339D01*
X182368223Y-115852384D02*
X182415864Y-115899981D01*
X182463527Y-115995197D01*
X182463593Y-116138054D01*
X182416019Y-116233314D01*
X182320803Y-116280977D01*
X181796993Y-116281221D01*
X182320803Y-116280977D02*
X182416063Y-116328552D01*
X182463726Y-116423768D01*
X182463793Y-116566625D01*
X182416218Y-116661885D01*
X182321002Y-116709549D01*
X181797192Y-116709792D01*
X180946092Y-109217639D02*
X180949692Y-116964639D01*
X175866000Y-109220000D02*
X181532513Y-109217367D01*
X175869600Y-116967000D02*
X181536113Y-116964367D01*
X180949692Y-116964639D02*
X180362748Y-115838408D01*
X180949692Y-116964639D02*
X181535589Y-115837863D01*
X180946092Y-109217639D02*
X180360195Y-110344415D01*
X180946092Y-109217639D02*
X181533036Y-110343870D01*
X151463833Y-72399714D02*
X151463833Y-73066380D01*
X151225738Y-72018761D02*
X150987642Y-72733047D01*
X151606690Y-72733047D01*
X152463833Y-72066380D02*
X151987642Y-72066380D01*
X151940023Y-72542571D01*
X151987642Y-72494952D01*
X152082880Y-72447333D01*
X152320976Y-72447333D01*
X152416214Y-72494952D01*
X152463833Y-72542571D01*
X152511452Y-72637809D01*
X152511452Y-72875904D01*
X152463833Y-72971142D01*
X152416214Y-73018761D01*
X152320976Y-73066380D01*
X152082880Y-73066380D01*
X151987642Y-73018761D01*
X151940023Y-72971142D01*
X152940023Y-72971142D02*
X152987642Y-73018761D01*
X152940023Y-73066380D01*
X152892404Y-73018761D01*
X152940023Y-72971142D01*
X152940023Y-73066380D01*
X153606690Y-72066380D02*
X153701928Y-72066380D01*
X153797166Y-72114000D01*
X153844785Y-72161619D01*
X153892404Y-72256857D01*
X153940023Y-72447333D01*
X153940023Y-72685428D01*
X153892404Y-72875904D01*
X153844785Y-72971142D01*
X153797166Y-73018761D01*
X153701928Y-73066380D01*
X153606690Y-73066380D01*
X153511452Y-73018761D01*
X153463833Y-72971142D01*
X153416214Y-72875904D01*
X153368595Y-72685428D01*
X153368595Y-72447333D01*
X153416214Y-72256857D01*
X153463833Y-72161619D01*
X153511452Y-72114000D01*
X153606690Y-72066380D01*
X154511452Y-72494952D02*
X154416214Y-72447333D01*
X154368595Y-72399714D01*
X154320976Y-72304476D01*
X154320976Y-72256857D01*
X154368595Y-72161619D01*
X154416214Y-72114000D01*
X154511452Y-72066380D01*
X154701928Y-72066380D01*
X154797166Y-72114000D01*
X154844785Y-72161619D01*
X154892404Y-72256857D01*
X154892404Y-72304476D01*
X154844785Y-72399714D01*
X154797166Y-72447333D01*
X154701928Y-72494952D01*
X154511452Y-72494952D01*
X154416214Y-72542571D01*
X154368595Y-72590190D01*
X154320976Y-72685428D01*
X154320976Y-72875904D01*
X154368595Y-72971142D01*
X154416214Y-73018761D01*
X154511452Y-73066380D01*
X154701928Y-73066380D01*
X154797166Y-73018761D01*
X154844785Y-72971142D01*
X154892404Y-72875904D01*
X154892404Y-72685428D01*
X154844785Y-72590190D01*
X154797166Y-72542571D01*
X154701928Y-72494952D01*
X155797166Y-72066380D02*
X155320976Y-72066380D01*
X155273357Y-72542571D01*
X155320976Y-72494952D01*
X155416214Y-72447333D01*
X155654309Y-72447333D01*
X155749547Y-72494952D01*
X155797166Y-72542571D01*
X155844785Y-72637809D01*
X155844785Y-72875904D01*
X155797166Y-72971142D01*
X155749547Y-73018761D01*
X155654309Y-73066380D01*
X155416214Y-73066380D01*
X155320976Y-73018761D01*
X155273357Y-72971142D01*
X157035261Y-73066380D02*
X157035261Y-72399714D01*
X157035261Y-72494952D02*
X157082880Y-72447333D01*
X157178119Y-72399714D01*
X157320976Y-72399714D01*
X157416214Y-72447333D01*
X157463833Y-72542571D01*
X157463833Y-73066380D01*
X157463833Y-72542571D02*
X157511452Y-72447333D01*
X157606690Y-72399714D01*
X157749547Y-72399714D01*
X157844785Y-72447333D01*
X157892404Y-72542571D01*
X157892404Y-73066380D01*
X158368595Y-73066380D02*
X158368595Y-72399714D01*
X158368595Y-72494952D02*
X158416214Y-72447333D01*
X158511452Y-72399714D01*
X158654309Y-72399714D01*
X158749547Y-72447333D01*
X158797166Y-72542571D01*
X158797166Y-73066380D01*
X158797166Y-72542571D02*
X158844785Y-72447333D01*
X158940023Y-72399714D01*
X159082880Y-72399714D01*
X159178119Y-72447333D01*
X159225738Y-72542571D01*
X159225738Y-73066380D01*
X177673000Y-73914000D02*
X132588000Y-73914000D01*
X177673000Y-81280000D02*
X177673000Y-73327579D01*
X132588000Y-81280000D02*
X132588000Y-73327579D01*
X132588000Y-73914000D02*
X133714504Y-73327579D01*
X132588000Y-73914000D02*
X133714504Y-74500421D01*
X177673000Y-73914000D02*
X176546496Y-73327579D01*
X177673000Y-73914000D02*
X176546496Y-74500421D01*
X181044619Y-93599523D02*
X181044619Y-94218571D01*
X180663666Y-93885238D01*
X180663666Y-94028095D01*
X180616047Y-94123333D01*
X180568428Y-94170952D01*
X180473190Y-94218571D01*
X180235095Y-94218571D01*
X180139857Y-94170952D01*
X180092238Y-94123333D01*
X180044619Y-94028095D01*
X180044619Y-93742380D01*
X180092238Y-93647142D01*
X180139857Y-93599523D01*
X180616047Y-94790000D02*
X180663666Y-94694761D01*
X180711285Y-94647142D01*
X180806523Y-94599523D01*
X180854142Y-94599523D01*
X180949380Y-94647142D01*
X180997000Y-94694761D01*
X181044619Y-94790000D01*
X181044619Y-94980476D01*
X180997000Y-95075714D01*
X180949380Y-95123333D01*
X180854142Y-95170952D01*
X180806523Y-95170952D01*
X180711285Y-95123333D01*
X180663666Y-95075714D01*
X180616047Y-94980476D01*
X180616047Y-94790000D01*
X180568428Y-94694761D01*
X180520809Y-94647142D01*
X180425571Y-94599523D01*
X180235095Y-94599523D01*
X180139857Y-94647142D01*
X180092238Y-94694761D01*
X180044619Y-94790000D01*
X180044619Y-94980476D01*
X180092238Y-95075714D01*
X180139857Y-95123333D01*
X180235095Y-95170952D01*
X180425571Y-95170952D01*
X180520809Y-95123333D01*
X180568428Y-95075714D01*
X180616047Y-94980476D01*
X180139857Y-95599523D02*
X180092238Y-95647142D01*
X180044619Y-95599523D01*
X180092238Y-95551904D01*
X180139857Y-95599523D01*
X180044619Y-95599523D01*
X181044619Y-95980476D02*
X181044619Y-96599523D01*
X180663666Y-96266190D01*
X180663666Y-96409047D01*
X180616047Y-96504285D01*
X180568428Y-96551904D01*
X180473190Y-96599523D01*
X180235095Y-96599523D01*
X180139857Y-96551904D01*
X180092238Y-96504285D01*
X180044619Y-96409047D01*
X180044619Y-96123333D01*
X180092238Y-96028095D01*
X180139857Y-95980476D01*
X181044619Y-97504285D02*
X181044619Y-97028095D01*
X180568428Y-96980476D01*
X180616047Y-97028095D01*
X180663666Y-97123333D01*
X180663666Y-97361428D01*
X180616047Y-97456666D01*
X180568428Y-97504285D01*
X180473190Y-97551904D01*
X180235095Y-97551904D01*
X180139857Y-97504285D01*
X180092238Y-97456666D01*
X180044619Y-97361428D01*
X180044619Y-97123333D01*
X180092238Y-97028095D01*
X180139857Y-96980476D01*
X180711285Y-98409047D02*
X180044619Y-98409047D01*
X181092238Y-98170952D02*
X180377952Y-97932857D01*
X180377952Y-98551904D01*
X180044619Y-99694761D02*
X180711285Y-99694761D01*
X180616047Y-99694761D02*
X180663666Y-99742380D01*
X180711285Y-99837619D01*
X180711285Y-99980476D01*
X180663666Y-100075714D01*
X180568428Y-100123333D01*
X180044619Y-100123333D01*
X180568428Y-100123333D02*
X180663666Y-100170952D01*
X180711285Y-100266190D01*
X180711285Y-100409047D01*
X180663666Y-100504285D01*
X180568428Y-100551904D01*
X180044619Y-100551904D01*
X180044619Y-101028095D02*
X180711285Y-101028095D01*
X180616047Y-101028095D02*
X180663666Y-101075714D01*
X180711285Y-101170952D01*
X180711285Y-101313809D01*
X180663666Y-101409047D01*
X180568428Y-101456666D01*
X180044619Y-101456666D01*
X180568428Y-101456666D02*
X180663666Y-101504285D01*
X180711285Y-101599523D01*
X180711285Y-101742380D01*
X180663666Y-101837619D01*
X180568428Y-101885238D01*
X180044619Y-101885238D01*
X179197000Y-78613000D02*
X179197000Y-116967000D01*
X175006000Y-78613000D02*
X179783421Y-78613000D01*
X175006000Y-116967000D02*
X179783421Y-116967000D01*
X179197000Y-116967000D02*
X178610579Y-115840496D01*
X179197000Y-116967000D02*
X179783421Y-115840496D01*
X179197000Y-78613000D02*
X178610579Y-79739504D01*
X179197000Y-78613000D02*
X179783421Y-79739504D01*
X151014527Y-74860380D02*
X151633575Y-74860380D01*
X151300242Y-75241333D01*
X151443099Y-75241333D01*
X151538337Y-75288952D01*
X151585956Y-75336571D01*
X151633575Y-75431809D01*
X151633575Y-75669904D01*
X151585956Y-75765142D01*
X151538337Y-75812761D01*
X151443099Y-75860380D01*
X151157384Y-75860380D01*
X151062146Y-75812761D01*
X151014527Y-75765142D01*
X152252623Y-74860380D02*
X152347861Y-74860380D01*
X152443099Y-74908000D01*
X152490718Y-74955619D01*
X152538337Y-75050857D01*
X152585956Y-75241333D01*
X152585956Y-75479428D01*
X152538337Y-75669904D01*
X152490718Y-75765142D01*
X152443099Y-75812761D01*
X152347861Y-75860380D01*
X152252623Y-75860380D01*
X152157384Y-75812761D01*
X152109765Y-75765142D01*
X152062146Y-75669904D01*
X152014527Y-75479428D01*
X152014527Y-75241333D01*
X152062146Y-75050857D01*
X152109765Y-74955619D01*
X152157384Y-74908000D01*
X152252623Y-74860380D01*
X153014527Y-75765142D02*
X153062146Y-75812761D01*
X153014527Y-75860380D01*
X152966908Y-75812761D01*
X153014527Y-75765142D01*
X153014527Y-75860380D01*
X153681194Y-74860380D02*
X153776432Y-74860380D01*
X153871670Y-74908000D01*
X153919289Y-74955619D01*
X153966908Y-75050857D01*
X154014527Y-75241333D01*
X154014527Y-75479428D01*
X153966908Y-75669904D01*
X153919289Y-75765142D01*
X153871670Y-75812761D01*
X153776432Y-75860380D01*
X153681194Y-75860380D01*
X153585956Y-75812761D01*
X153538337Y-75765142D01*
X153490718Y-75669904D01*
X153443099Y-75479428D01*
X153443099Y-75241333D01*
X153490718Y-75050857D01*
X153538337Y-74955619D01*
X153585956Y-74908000D01*
X153681194Y-74860380D01*
X154633575Y-74860380D02*
X154728813Y-74860380D01*
X154824051Y-74908000D01*
X154871670Y-74955619D01*
X154919289Y-75050857D01*
X154966908Y-75241333D01*
X154966908Y-75479428D01*
X154919289Y-75669904D01*
X154871670Y-75765142D01*
X154824051Y-75812761D01*
X154728813Y-75860380D01*
X154633575Y-75860380D01*
X154538337Y-75812761D01*
X154490718Y-75765142D01*
X154443099Y-75669904D01*
X154395480Y-75479428D01*
X154395480Y-75241333D01*
X154443099Y-75050857D01*
X154490718Y-74955619D01*
X154538337Y-74908000D01*
X154633575Y-74860380D01*
X155585956Y-74860380D02*
X155681194Y-74860380D01*
X155776432Y-74908000D01*
X155824051Y-74955619D01*
X155871670Y-75050857D01*
X155919289Y-75241333D01*
X155919289Y-75479428D01*
X155871670Y-75669904D01*
X155824051Y-75765142D01*
X155776432Y-75812761D01*
X155681194Y-75860380D01*
X155585956Y-75860380D01*
X155490718Y-75812761D01*
X155443099Y-75765142D01*
X155395480Y-75669904D01*
X155347861Y-75479428D01*
X155347861Y-75241333D01*
X155395480Y-75050857D01*
X155443099Y-74955619D01*
X155490718Y-74908000D01*
X155585956Y-74860380D01*
X157109765Y-75860380D02*
X157109765Y-75193714D01*
X157109765Y-75288952D02*
X157157384Y-75241333D01*
X157252623Y-75193714D01*
X157395480Y-75193714D01*
X157490718Y-75241333D01*
X157538337Y-75336571D01*
X157538337Y-75860380D01*
X157538337Y-75336571D02*
X157585956Y-75241333D01*
X157681194Y-75193714D01*
X157824051Y-75193714D01*
X157919289Y-75241333D01*
X157966908Y-75336571D01*
X157966908Y-75860380D01*
X158443099Y-75860380D02*
X158443099Y-75193714D01*
X158443099Y-75288952D02*
X158490718Y-75241333D01*
X158585956Y-75193714D01*
X158728813Y-75193714D01*
X158824051Y-75241333D01*
X158871670Y-75336571D01*
X158871670Y-75860380D01*
X158871670Y-75336571D02*
X158919289Y-75241333D01*
X159014527Y-75193714D01*
X159157384Y-75193714D01*
X159252623Y-75241333D01*
X159300242Y-75336571D01*
X159300242Y-75860380D01*
X140205004Y-76708000D02*
X170205004Y-76708000D01*
X140205004Y-82816000D02*
X140205004Y-76121579D01*
X170205004Y-82816000D02*
X170205004Y-76121579D01*
X170205004Y-76708000D02*
X169078500Y-77294421D01*
X170205004Y-76708000D02*
X169078500Y-76121579D01*
X140205004Y-76708000D02*
X141331508Y-77294421D01*
X140205004Y-76708000D02*
X141331508Y-76121579D01*
X151449333Y-119703714D02*
X151449333Y-120370380D01*
X151211238Y-119322761D02*
X150973142Y-120037047D01*
X151592190Y-120037047D01*
X152496952Y-120370380D02*
X151925523Y-120370380D01*
X152211238Y-120370380D02*
X152211238Y-119370380D01*
X152116000Y-119513238D01*
X152020761Y-119608476D01*
X151925523Y-119656095D01*
X152925523Y-120275142D02*
X152973142Y-120322761D01*
X152925523Y-120370380D01*
X152877904Y-120322761D01*
X152925523Y-120275142D01*
X152925523Y-120370380D01*
X153877904Y-119370380D02*
X153401714Y-119370380D01*
X153354095Y-119846571D01*
X153401714Y-119798952D01*
X153496952Y-119751333D01*
X153735047Y-119751333D01*
X153830285Y-119798952D01*
X153877904Y-119846571D01*
X153925523Y-119941809D01*
X153925523Y-120179904D01*
X153877904Y-120275142D01*
X153830285Y-120322761D01*
X153735047Y-120370380D01*
X153496952Y-120370380D01*
X153401714Y-120322761D01*
X153354095Y-120275142D01*
X154544571Y-119370380D02*
X154639809Y-119370380D01*
X154735047Y-119418000D01*
X154782666Y-119465619D01*
X154830285Y-119560857D01*
X154877904Y-119751333D01*
X154877904Y-119989428D01*
X154830285Y-120179904D01*
X154782666Y-120275142D01*
X154735047Y-120322761D01*
X154639809Y-120370380D01*
X154544571Y-120370380D01*
X154449333Y-120322761D01*
X154401714Y-120275142D01*
X154354095Y-120179904D01*
X154306476Y-119989428D01*
X154306476Y-119751333D01*
X154354095Y-119560857D01*
X154401714Y-119465619D01*
X154449333Y-119418000D01*
X154544571Y-119370380D01*
X155496952Y-119370380D02*
X155592190Y-119370380D01*
X155687428Y-119418000D01*
X155735047Y-119465619D01*
X155782666Y-119560857D01*
X155830285Y-119751333D01*
X155830285Y-119989428D01*
X155782666Y-120179904D01*
X155735047Y-120275142D01*
X155687428Y-120322761D01*
X155592190Y-120370380D01*
X155496952Y-120370380D01*
X155401714Y-120322761D01*
X155354095Y-120275142D01*
X155306476Y-120179904D01*
X155258857Y-119989428D01*
X155258857Y-119751333D01*
X155306476Y-119560857D01*
X155354095Y-119465619D01*
X155401714Y-119418000D01*
X155496952Y-119370380D01*
X157020761Y-120370380D02*
X157020761Y-119703714D01*
X157020761Y-119798952D02*
X157068380Y-119751333D01*
X157163619Y-119703714D01*
X157306476Y-119703714D01*
X157401714Y-119751333D01*
X157449333Y-119846571D01*
X157449333Y-120370380D01*
X157449333Y-119846571D02*
X157496952Y-119751333D01*
X157592190Y-119703714D01*
X157735047Y-119703714D01*
X157830285Y-119751333D01*
X157877904Y-119846571D01*
X157877904Y-120370380D01*
X158354095Y-120370380D02*
X158354095Y-119703714D01*
X158354095Y-119798952D02*
X158401714Y-119751333D01*
X158496952Y-119703714D01*
X158639809Y-119703714D01*
X158735047Y-119751333D01*
X158782666Y-119846571D01*
X158782666Y-120370380D01*
X158782666Y-119846571D02*
X158830285Y-119751333D01*
X158925523Y-119703714D01*
X159068380Y-119703714D01*
X159163619Y-119751333D01*
X159211238Y-119846571D01*
X159211238Y-120370380D01*
X134366000Y-118618000D02*
X175866000Y-118618000D01*
X134366000Y-109220000D02*
X134366000Y-119204421D01*
X175866000Y-109220000D02*
X175866000Y-119204421D01*
X175866000Y-118618000D02*
X174739496Y-119204421D01*
X175866000Y-118618000D02*
X174739496Y-118031579D01*
X134366000Y-118618000D02*
X135492504Y-119204421D01*
X134366000Y-118618000D02*
X135492504Y-118031579D01*
D11*
X161555004Y-85116000D02*
X148855004Y-85116000D01*
X167905004Y-104166000D02*
X167905004Y-91466000D01*
X148855004Y-110516000D02*
X161555004Y-110516000D01*
X142505004Y-91466000D02*
X142505004Y-104166000D01*
M02*
