M48
; DRILL file {KiCad (5.1.10)-1} date 08/16/23 20:15:23
; FORMAT={-:-/ absolute / inch / decimal}
; #@! TF.CreationDate,2023-08-16T20:15:23-05:00
; #@! TF.GenerationSoftware,Kicad,Pcbnew,(5.1.10)-1
; #@! TF.FileFunction,Plated,1,2,PTH
FMAT,2
INCH
T1C0.0256
T2C0.0394
%
G90
G05
T1
X6.13Y-3.61
X6.13Y-3.66
X6.13Y-3.71
X6.13Y-3.76
X6.13Y-3.81
X6.13Y-3.86
X6.13Y-3.91
X6.13Y-3.96
X6.13Y-4.01
X6.13Y-4.06
X6.13Y-4.11
T2
X5.29Y-3.4
X5.29Y-3.5
X5.29Y-3.6
X5.29Y-3.7
X5.29Y-3.8
X5.29Y-3.9
X5.29Y-4.0
X5.29Y-4.1
X5.29Y-4.2
X5.29Y-4.3
X6.9239Y-3.4
X6.9239Y-3.5
X6.9239Y-3.6
X6.9239Y-3.7
X6.9239Y-3.8
X6.9239Y-3.9
X6.9239Y-4.0
X6.9239Y-4.1
X6.9239Y-4.2
X6.9239Y-4.3
T0
M30
