%TF.GenerationSoftware,KiCad,Pcbnew,(5.1.10)-1*%
%TF.CreationDate,2023-08-16T20:15:21-05:00*%
%TF.ProjectId,perovskite_router,7065726f-7673-46b6-9974-655f726f7574,A*%
%TF.SameCoordinates,Original*%
%TF.FileFunction,Legend,Bot*%
%TF.FilePolarity,Positive*%
%FSLAX46Y46*%
G04 Gerber Fmt 4.6, Leading zero omitted, Abs format (unit mm)*
G04 Created by KiCad (PCBNEW (5.1.10)-1) date 2023-08-16 20:15:21*
%MOMM*%
%LPD*%
G01*
G04 APERTURE LIST*
%ADD10C,0.120000*%
%ADD11C,0.100000*%
G04 APERTURE END LIST*
D10*
%TO.C,J2*%
X174536000Y-110550000D02*
X175866000Y-110550000D01*
X174536000Y-109220000D02*
X174536000Y-110550000D01*
X174536000Y-107950000D02*
X177196000Y-107950000D01*
X177196000Y-107950000D02*
X177196000Y-85030000D01*
X174536000Y-107950000D02*
X174536000Y-85030000D01*
X174536000Y-85030000D02*
X177196000Y-85030000D01*
%TO.C,J1*%
X133036000Y-110550000D02*
X134366000Y-110550000D01*
X133036000Y-109220000D02*
X133036000Y-110550000D01*
X133036000Y-107950000D02*
X135696000Y-107950000D01*
X135696000Y-107950000D02*
X135696000Y-85030000D01*
X133036000Y-107950000D02*
X133036000Y-85030000D01*
X133036000Y-85030000D02*
X135696000Y-85030000D01*
%TO.C,J2*%
D11*
X176032666Y-111276190D02*
X176032666Y-111633333D01*
X176056476Y-111704761D01*
X176104095Y-111752380D01*
X176175523Y-111776190D01*
X176223142Y-111776190D01*
X175818380Y-111323809D02*
X175794571Y-111300000D01*
X175746952Y-111276190D01*
X175627904Y-111276190D01*
X175580285Y-111300000D01*
X175556476Y-111323809D01*
X175532666Y-111371428D01*
X175532666Y-111419047D01*
X175556476Y-111490476D01*
X175842190Y-111776190D01*
X175532666Y-111776190D01*
%TO.C,J1*%
X134532666Y-111276190D02*
X134532666Y-111633333D01*
X134556476Y-111704761D01*
X134604095Y-111752380D01*
X134675523Y-111776190D01*
X134723142Y-111776190D01*
X134032666Y-111776190D02*
X134318380Y-111776190D01*
X134175523Y-111776190D02*
X134175523Y-111276190D01*
X134223142Y-111347619D01*
X134270761Y-111395238D01*
X134318380Y-111419047D01*
%TD*%
M02*
