%TF.GenerationSoftware,KiCad,Pcbnew,(5.1.10)-1*%
%TF.CreationDate,2023-08-12T08:02:15-05:00*%
%TF.ProjectId,perovskite_router,7065726f-7673-46b6-9974-655f726f7574,A*%
%TF.SameCoordinates,Original*%
%TF.FileFunction,Soldermask,Top*%
%TF.FilePolarity,Negative*%
%FSLAX46Y46*%
G04 Gerber Fmt 4.6, Leading zero omitted, Abs format (unit mm)*
G04 Created by KiCad (PCBNEW (5.1.10)-1) date 2023-08-12 08:02:15*
%MOMM*%
%LPD*%
G01*
G04 APERTURE LIST*
%ADD10O,1.000000X1.000000*%
%ADD11R,1.000000X1.000000*%
%ADD12O,1.700000X1.700000*%
%ADD13R,1.700000X1.700000*%
%ADD14C,0.254000*%
%ADD15C,0.100000*%
G04 APERTURE END LIST*
D10*
%TO.C,J3*%
X155702000Y-104394000D03*
X155702000Y-103124000D03*
X155702000Y-101854000D03*
X155702000Y-100584000D03*
X155702000Y-99314000D03*
X155702000Y-98044000D03*
X155702000Y-96774000D03*
X155702000Y-95504000D03*
X155702000Y-94234000D03*
X155702000Y-92964000D03*
D11*
X155702000Y-91694000D03*
%TD*%
D12*
%TO.C,J2*%
X175866000Y-86360000D03*
X175866000Y-88900000D03*
X175866000Y-91440000D03*
X175866000Y-93980000D03*
X175866000Y-96520000D03*
X175866000Y-99060000D03*
X175866000Y-101600000D03*
X175866000Y-104140000D03*
X175866000Y-106680000D03*
D13*
X175866000Y-109220000D03*
%TD*%
D12*
%TO.C,J1*%
X134366000Y-86360000D03*
X134366000Y-88900000D03*
X134366000Y-91440000D03*
X134366000Y-93980000D03*
X134366000Y-96520000D03*
X134366000Y-99060000D03*
X134366000Y-101600000D03*
X134366000Y-104140000D03*
X134366000Y-106680000D03*
D13*
X134366000Y-109220000D03*
%TD*%
D14*
X175951731Y-78786312D02*
X176245417Y-78918489D01*
X176521029Y-79085102D01*
X176774548Y-79283722D01*
X177002278Y-79511452D01*
X177200898Y-79764971D01*
X177367511Y-80040583D01*
X177499688Y-80334269D01*
X177520600Y-80401378D01*
X177520600Y-115178622D01*
X177499688Y-115245731D01*
X177367511Y-115539417D01*
X177200898Y-115815029D01*
X177002278Y-116068548D01*
X176774548Y-116296278D01*
X176521029Y-116494898D01*
X176245417Y-116661511D01*
X175951731Y-116793688D01*
X175803112Y-116840000D01*
X134457888Y-116840000D01*
X134309269Y-116793688D01*
X134015583Y-116661511D01*
X133739971Y-116494898D01*
X133486452Y-116296278D01*
X133258722Y-116068548D01*
X133060102Y-115815029D01*
X132893489Y-115539417D01*
X132761312Y-115245731D01*
X132689600Y-115015601D01*
X132689600Y-112816000D01*
X139175004Y-112816000D01*
X139194795Y-113016943D01*
X139253408Y-113210164D01*
X139348590Y-113388237D01*
X139476684Y-113544320D01*
X139632767Y-113672414D01*
X139810840Y-113767596D01*
X140004061Y-113826209D01*
X140205004Y-113846000D01*
X140405947Y-113826209D01*
X140599168Y-113767596D01*
X140777241Y-113672414D01*
X140933324Y-113544320D01*
X141061418Y-113388237D01*
X141156600Y-113210164D01*
X141215213Y-113016943D01*
X141235004Y-112816000D01*
X169175004Y-112816000D01*
X169194795Y-113016943D01*
X169253408Y-113210164D01*
X169348590Y-113388237D01*
X169476684Y-113544320D01*
X169632767Y-113672414D01*
X169810840Y-113767596D01*
X170004061Y-113826209D01*
X170205004Y-113846000D01*
X170405947Y-113826209D01*
X170599168Y-113767596D01*
X170777241Y-113672414D01*
X170933324Y-113544320D01*
X171061418Y-113388237D01*
X171156600Y-113210164D01*
X171215213Y-113016943D01*
X171235004Y-112816000D01*
X171215213Y-112615057D01*
X171156600Y-112421836D01*
X171061418Y-112243763D01*
X170933324Y-112087680D01*
X170777241Y-111959586D01*
X170599168Y-111864404D01*
X170405947Y-111805791D01*
X170205004Y-111786000D01*
X170004061Y-111805791D01*
X169810840Y-111864404D01*
X169632767Y-111959586D01*
X169476684Y-112087680D01*
X169348590Y-112243763D01*
X169253408Y-112421836D01*
X169194795Y-112615057D01*
X169175004Y-112816000D01*
X141235004Y-112816000D01*
X141215213Y-112615057D01*
X141156600Y-112421836D01*
X141061418Y-112243763D01*
X140933324Y-112087680D01*
X140777241Y-111959586D01*
X140599168Y-111864404D01*
X140405947Y-111805791D01*
X140205004Y-111786000D01*
X140004061Y-111805791D01*
X139810840Y-111864404D01*
X139632767Y-111959586D01*
X139476684Y-112087680D01*
X139348590Y-112243763D01*
X139253408Y-112421836D01*
X139194795Y-112615057D01*
X139175004Y-112816000D01*
X132689600Y-112816000D01*
X132689600Y-82816000D01*
X139175004Y-82816000D01*
X139194795Y-83016943D01*
X139253408Y-83210164D01*
X139348590Y-83388237D01*
X139476684Y-83544320D01*
X139632767Y-83672414D01*
X139810840Y-83767596D01*
X140004061Y-83826209D01*
X140205004Y-83846000D01*
X140405947Y-83826209D01*
X140599168Y-83767596D01*
X140777241Y-83672414D01*
X140933324Y-83544320D01*
X141061418Y-83388237D01*
X141156600Y-83210164D01*
X141215213Y-83016943D01*
X141235004Y-82816000D01*
X169175004Y-82816000D01*
X169194795Y-83016943D01*
X169253408Y-83210164D01*
X169348590Y-83388237D01*
X169476684Y-83544320D01*
X169632767Y-83672414D01*
X169810840Y-83767596D01*
X170004061Y-83826209D01*
X170205004Y-83846000D01*
X170405947Y-83826209D01*
X170599168Y-83767596D01*
X170777241Y-83672414D01*
X170933324Y-83544320D01*
X171061418Y-83388237D01*
X171156600Y-83210164D01*
X171215213Y-83016943D01*
X171235004Y-82816000D01*
X171215213Y-82615057D01*
X171156600Y-82421836D01*
X171061418Y-82243763D01*
X170933324Y-82087680D01*
X170777241Y-81959586D01*
X170599168Y-81864404D01*
X170405947Y-81805791D01*
X170205004Y-81786000D01*
X170004061Y-81805791D01*
X169810840Y-81864404D01*
X169632767Y-81959586D01*
X169476684Y-82087680D01*
X169348590Y-82243763D01*
X169253408Y-82421836D01*
X169194795Y-82615057D01*
X169175004Y-82816000D01*
X141235004Y-82816000D01*
X141215213Y-82615057D01*
X141156600Y-82421836D01*
X141061418Y-82243763D01*
X140933324Y-82087680D01*
X140777241Y-81959586D01*
X140599168Y-81864404D01*
X140405947Y-81805791D01*
X140205004Y-81786000D01*
X140004061Y-81805791D01*
X139810840Y-81864404D01*
X139632767Y-81959586D01*
X139476684Y-82087680D01*
X139348590Y-82243763D01*
X139253408Y-82421836D01*
X139194795Y-82615057D01*
X139175004Y-82816000D01*
X132689600Y-82816000D01*
X132689600Y-80564399D01*
X132761312Y-80334269D01*
X132893489Y-80040583D01*
X133060102Y-79764971D01*
X133258722Y-79511452D01*
X133486452Y-79283722D01*
X133739971Y-79085102D01*
X134015583Y-78918489D01*
X134309269Y-78786312D01*
X134457888Y-78740000D01*
X175803112Y-78740000D01*
X175951731Y-78786312D01*
D15*
G36*
X175951731Y-78786312D02*
G01*
X176245417Y-78918489D01*
X176521029Y-79085102D01*
X176774548Y-79283722D01*
X177002278Y-79511452D01*
X177200898Y-79764971D01*
X177367511Y-80040583D01*
X177499688Y-80334269D01*
X177520600Y-80401378D01*
X177520600Y-115178622D01*
X177499688Y-115245731D01*
X177367511Y-115539417D01*
X177200898Y-115815029D01*
X177002278Y-116068548D01*
X176774548Y-116296278D01*
X176521029Y-116494898D01*
X176245417Y-116661511D01*
X175951731Y-116793688D01*
X175803112Y-116840000D01*
X134457888Y-116840000D01*
X134309269Y-116793688D01*
X134015583Y-116661511D01*
X133739971Y-116494898D01*
X133486452Y-116296278D01*
X133258722Y-116068548D01*
X133060102Y-115815029D01*
X132893489Y-115539417D01*
X132761312Y-115245731D01*
X132689600Y-115015601D01*
X132689600Y-112816000D01*
X139175004Y-112816000D01*
X139194795Y-113016943D01*
X139253408Y-113210164D01*
X139348590Y-113388237D01*
X139476684Y-113544320D01*
X139632767Y-113672414D01*
X139810840Y-113767596D01*
X140004061Y-113826209D01*
X140205004Y-113846000D01*
X140405947Y-113826209D01*
X140599168Y-113767596D01*
X140777241Y-113672414D01*
X140933324Y-113544320D01*
X141061418Y-113388237D01*
X141156600Y-113210164D01*
X141215213Y-113016943D01*
X141235004Y-112816000D01*
X169175004Y-112816000D01*
X169194795Y-113016943D01*
X169253408Y-113210164D01*
X169348590Y-113388237D01*
X169476684Y-113544320D01*
X169632767Y-113672414D01*
X169810840Y-113767596D01*
X170004061Y-113826209D01*
X170205004Y-113846000D01*
X170405947Y-113826209D01*
X170599168Y-113767596D01*
X170777241Y-113672414D01*
X170933324Y-113544320D01*
X171061418Y-113388237D01*
X171156600Y-113210164D01*
X171215213Y-113016943D01*
X171235004Y-112816000D01*
X171215213Y-112615057D01*
X171156600Y-112421836D01*
X171061418Y-112243763D01*
X170933324Y-112087680D01*
X170777241Y-111959586D01*
X170599168Y-111864404D01*
X170405947Y-111805791D01*
X170205004Y-111786000D01*
X170004061Y-111805791D01*
X169810840Y-111864404D01*
X169632767Y-111959586D01*
X169476684Y-112087680D01*
X169348590Y-112243763D01*
X169253408Y-112421836D01*
X169194795Y-112615057D01*
X169175004Y-112816000D01*
X141235004Y-112816000D01*
X141215213Y-112615057D01*
X141156600Y-112421836D01*
X141061418Y-112243763D01*
X140933324Y-112087680D01*
X140777241Y-111959586D01*
X140599168Y-111864404D01*
X140405947Y-111805791D01*
X140205004Y-111786000D01*
X140004061Y-111805791D01*
X139810840Y-111864404D01*
X139632767Y-111959586D01*
X139476684Y-112087680D01*
X139348590Y-112243763D01*
X139253408Y-112421836D01*
X139194795Y-112615057D01*
X139175004Y-112816000D01*
X132689600Y-112816000D01*
X132689600Y-82816000D01*
X139175004Y-82816000D01*
X139194795Y-83016943D01*
X139253408Y-83210164D01*
X139348590Y-83388237D01*
X139476684Y-83544320D01*
X139632767Y-83672414D01*
X139810840Y-83767596D01*
X140004061Y-83826209D01*
X140205004Y-83846000D01*
X140405947Y-83826209D01*
X140599168Y-83767596D01*
X140777241Y-83672414D01*
X140933324Y-83544320D01*
X141061418Y-83388237D01*
X141156600Y-83210164D01*
X141215213Y-83016943D01*
X141235004Y-82816000D01*
X169175004Y-82816000D01*
X169194795Y-83016943D01*
X169253408Y-83210164D01*
X169348590Y-83388237D01*
X169476684Y-83544320D01*
X169632767Y-83672414D01*
X169810840Y-83767596D01*
X170004061Y-83826209D01*
X170205004Y-83846000D01*
X170405947Y-83826209D01*
X170599168Y-83767596D01*
X170777241Y-83672414D01*
X170933324Y-83544320D01*
X171061418Y-83388237D01*
X171156600Y-83210164D01*
X171215213Y-83016943D01*
X171235004Y-82816000D01*
X171215213Y-82615057D01*
X171156600Y-82421836D01*
X171061418Y-82243763D01*
X170933324Y-82087680D01*
X170777241Y-81959586D01*
X170599168Y-81864404D01*
X170405947Y-81805791D01*
X170205004Y-81786000D01*
X170004061Y-81805791D01*
X169810840Y-81864404D01*
X169632767Y-81959586D01*
X169476684Y-82087680D01*
X169348590Y-82243763D01*
X169253408Y-82421836D01*
X169194795Y-82615057D01*
X169175004Y-82816000D01*
X141235004Y-82816000D01*
X141215213Y-82615057D01*
X141156600Y-82421836D01*
X141061418Y-82243763D01*
X140933324Y-82087680D01*
X140777241Y-81959586D01*
X140599168Y-81864404D01*
X140405947Y-81805791D01*
X140205004Y-81786000D01*
X140004061Y-81805791D01*
X139810840Y-81864404D01*
X139632767Y-81959586D01*
X139476684Y-82087680D01*
X139348590Y-82243763D01*
X139253408Y-82421836D01*
X139194795Y-82615057D01*
X139175004Y-82816000D01*
X132689600Y-82816000D01*
X132689600Y-80564399D01*
X132761312Y-80334269D01*
X132893489Y-80040583D01*
X133060102Y-79764971D01*
X133258722Y-79511452D01*
X133486452Y-79283722D01*
X133739971Y-79085102D01*
X134015583Y-78918489D01*
X134309269Y-78786312D01*
X134457888Y-78740000D01*
X175803112Y-78740000D01*
X175951731Y-78786312D01*
G37*
M02*
