M48
; DRILL file {KiCad (5.1.10)-1} date 05/11/23 10:09:19
; FORMAT={-:-/ absolute / inch / decimal}
; #@! TF.CreationDate,2023-05-11T10:09:19-05:00
; #@! TF.GenerationSoftware,Kicad,Pcbnew,(5.1.10)-1
; #@! TF.FileFunction,Plated,1,2,PTH
FMAT,2
INCH
T1C0.0100
T2C0.0394
%
G90
G05
T1
X5.49Y-3.37
X5.56Y-2.985
X5.56Y-3.8
X5.88Y-3.79
X5.885Y-2.99
X6.11Y-3.8
X6.12Y-2.985
X6.285Y-3.37
T2
X5.435Y-2.57
X5.435Y-4.2039
X5.535Y-2.57
X5.535Y-4.2039
X5.635Y-2.57
X5.635Y-4.2039
X5.735Y-2.57
X5.735Y-4.2039
X5.835Y-2.57
X5.835Y-4.2039
X5.935Y-2.57
X5.935Y-4.2039
X6.035Y-2.57
X6.035Y-4.2039
X6.135Y-2.57
X6.135Y-4.2039
X6.235Y-2.57
X6.235Y-4.2039
X6.335Y-2.57
X6.335Y-4.2039
T0
M30
