%TF.GenerationSoftware,KiCad,Pcbnew,(5.1.10)-1*%
%TF.CreationDate,2023-05-11T10:09:18-05:00*%
%TF.ProjectId,perovskite_router,7065726f-7673-46b6-9974-655f726f7574,rev?*%
%TF.SameCoordinates,Original*%
%TF.FileFunction,Legend,Top*%
%TF.FilePolarity,Positive*%
%FSLAX46Y46*%
G04 Gerber Fmt 4.6, Leading zero omitted, Abs format (unit mm)*
G04 Created by KiCad (PCBNEW (5.1.10)-1) date 2023-05-11 10:09:18*
%MOMM*%
%LPD*%
G01*
G04 APERTURE LIST*
%ADD10C,0.200000*%
%ADD11C,0.120000*%
%ADD12C,0.100000*%
G04 APERTURE END LIST*
D10*
X164453000Y-68617004D02*
G75*
G02*
X166953000Y-71117004I0J-2500000D01*
G01*
X131953000Y-71117004D02*
G75*
G02*
X134453000Y-68617004I2500000J0D01*
G01*
X134453000Y-103617004D02*
X164453000Y-103617004D01*
X166953000Y-101117004D02*
G75*
G02*
X164453000Y-103617004I-2500000J0D01*
G01*
X131953000Y-71117004D02*
X131953000Y-101117004D01*
X166953000Y-101117004D02*
X166953000Y-71117004D01*
X134453000Y-103617004D02*
G75*
G02*
X131953000Y-101117004I0J2500000D01*
G01*
X164453000Y-68617004D02*
X134453000Y-68617004D01*
D11*
%TO.C,U1*%
X136652000Y-73246000D02*
X162302000Y-73246000D01*
X136652000Y-98896000D02*
X162302000Y-98896000D01*
X162302000Y-73246000D02*
X162302000Y-98896000D01*
X136652000Y-73246000D02*
X136652000Y-98896000D01*
D12*
X137287047Y-72116190D02*
X137287047Y-72520952D01*
X137310857Y-72568571D01*
X137334666Y-72592380D01*
X137382285Y-72616190D01*
X137477523Y-72616190D01*
X137525142Y-72592380D01*
X137548952Y-72568571D01*
X137572761Y-72520952D01*
X137572761Y-72116190D01*
X138072761Y-72616190D02*
X137787047Y-72616190D01*
X137929904Y-72616190D02*
X137929904Y-72116190D01*
X137882285Y-72187619D01*
X137834666Y-72235238D01*
X137787047Y-72259047D01*
%TD*%
M02*
