%TF.GenerationSoftware,KiCad,Pcbnew,(5.1.10)-1*%
%TF.CreationDate,2023-05-11T10:09:18-05:00*%
%TF.ProjectId,perovskite_router,7065726f-7673-46b6-9974-655f726f7574,rev?*%
%TF.SameCoordinates,Original*%
%TF.FileFunction,Copper,L2,Bot*%
%TF.FilePolarity,Positive*%
%FSLAX46Y46*%
G04 Gerber Fmt 4.6, Leading zero omitted, Abs format (unit mm)*
G04 Created by KiCad (PCBNEW (5.1.10)-1) date 2023-05-11 10:09:18*
%MOMM*%
%LPD*%
G01*
G04 APERTURE LIST*
%TA.AperFunction,ComponentPad*%
%ADD10O,1.700000X1.700000*%
%TD*%
%TA.AperFunction,ComponentPad*%
%ADD11R,1.700000X1.700000*%
%TD*%
%TA.AperFunction,SMDPad,CuDef*%
%ADD12R,0.220000X2.200000*%
%TD*%
%TA.AperFunction,ViaPad*%
%ADD13C,0.508000*%
%TD*%
%TA.AperFunction,Conductor*%
%ADD14C,0.254000*%
%TD*%
%TA.AperFunction,Conductor*%
%ADD15C,0.152400*%
%TD*%
G04 APERTURE END LIST*
%TO.P,C1,2*%
%TO.N,Net-(C1-Pad2)*%
%TA.AperFunction,SMDPad,CuDef*%
G36*
G01*
X152383500Y-85755600D02*
X151908500Y-85755600D01*
G75*
G02*
X151671000Y-85518100I0J237500D01*
G01*
X151671000Y-84918100D01*
G75*
G02*
X151908500Y-84680600I237500J0D01*
G01*
X152383500Y-84680600D01*
G75*
G02*
X152621000Y-84918100I0J-237500D01*
G01*
X152621000Y-85518100D01*
G75*
G02*
X152383500Y-85755600I-237500J0D01*
G01*
G37*
%TD.AperFunction*%
%TO.P,C1,1*%
%TO.N,Net-(C1-Pad1)*%
%TA.AperFunction,SMDPad,CuDef*%
G36*
G01*
X152383500Y-87480600D02*
X151908500Y-87480600D01*
G75*
G02*
X151671000Y-87243100I0J237500D01*
G01*
X151671000Y-86643100D01*
G75*
G02*
X151908500Y-86405600I237500J0D01*
G01*
X152383500Y-86405600D01*
G75*
G02*
X152621000Y-86643100I0J-237500D01*
G01*
X152621000Y-87243100D01*
G75*
G02*
X152383500Y-87480600I-237500J0D01*
G01*
G37*
%TD.AperFunction*%
%TD*%
D10*
%TO.P,J2,10*%
%TO.N,Net-(C1-Pad1)*%
X160909000Y-106778000D03*
%TO.P,J2,9*%
%TO.N,Net-(J2-Pad9)*%
X158369000Y-106778000D03*
%TO.P,J2,8*%
%TO.N,Net-(J2-Pad8)*%
X155829000Y-106778000D03*
%TO.P,J2,7*%
%TO.N,Net-(J2-Pad7)*%
X153289000Y-106778000D03*
%TO.P,J2,6*%
%TO.N,Net-(J2-Pad6)*%
X150749000Y-106778000D03*
%TO.P,J2,5*%
%TO.N,Net-(J2-Pad5)*%
X148209000Y-106778000D03*
%TO.P,J2,4*%
%TO.N,Net-(J2-Pad4)*%
X145669000Y-106778000D03*
%TO.P,J2,3*%
%TO.N,Net-(J2-Pad3)*%
X143129000Y-106778000D03*
%TO.P,J2,2*%
%TO.N,Net-(J2-Pad2)*%
X140589000Y-106778000D03*
D11*
%TO.P,J2,1*%
%TO.N,Net-(J2-Pad1)*%
X138049000Y-106778000D03*
%TD*%
D10*
%TO.P,J1,10*%
%TO.N,Net-(J1-Pad10)*%
X160909000Y-65278000D03*
%TO.P,J1,9*%
%TO.N,Net-(J1-Pad9)*%
X158369000Y-65278000D03*
%TO.P,J1,8*%
%TO.N,Net-(J1-Pad8)*%
X155829000Y-65278000D03*
%TO.P,J1,7*%
%TO.N,Net-(J1-Pad7)*%
X153289000Y-65278000D03*
%TO.P,J1,6*%
%TO.N,Net-(J1-Pad6)*%
X150749000Y-65278000D03*
%TO.P,J1,5*%
%TO.N,Net-(C1-Pad2)*%
X148209000Y-65278000D03*
%TO.P,J1,4*%
%TO.N,Net-(J1-Pad4)*%
X145669000Y-65278000D03*
%TO.P,J1,3*%
%TO.N,Net-(J1-Pad3)*%
X143129000Y-65278000D03*
%TO.P,J1,2*%
%TO.N,Net-(J1-Pad2)*%
X140589000Y-65278000D03*
D11*
%TO.P,J1,1*%
%TO.N,Net-(J1-Pad1)*%
X138049000Y-65278000D03*
%TD*%
D12*
%TO.P,U2,5*%
%TO.N,Net-(J2-Pad7)*%
X148504000Y-89180600D03*
%TO.P,U2,4*%
%TO.N,Net-(C1-Pad2)*%
X148504000Y-82980600D03*
%TO.P,U2,6*%
%TO.N,Net-(J2-Pad8)*%
X149154000Y-89180600D03*
%TO.P,U2,3*%
%TO.N,Net-(J1-Pad6)*%
X149154000Y-82980600D03*
%TO.P,U2,7*%
%TO.N,Net-(J2-Pad9)*%
X149804000Y-89180600D03*
%TO.P,U2,2*%
%TO.N,Net-(J1-Pad7)*%
X149804000Y-82980600D03*
%TO.P,U2,8*%
%TO.N,Net-(C1-Pad1)*%
X150454000Y-89180600D03*
%TO.P,U2,1*%
%TO.N,Net-(J1-Pad8)*%
X150454000Y-82980600D03*
%TD*%
D13*
%TO.N,Net-(J1-Pad10)*%
X159639000Y-85598000D03*
%TO.N,Net-(J1-Pad3)*%
X155448000Y-75819000D03*
%TO.N,Net-(J1-Pad2)*%
X149479000Y-75946000D03*
%TO.N,Net-(J1-Pad1)*%
X141224000Y-75819000D03*
%TO.N,Net-(J2-Pad5)*%
X155194000Y-96520000D03*
%TO.N,Net-(J2-Pad4)*%
X149352000Y-96266000D03*
%TO.N,Net-(J2-Pad3)*%
X141224000Y-96520000D03*
%TO.N,Net-(J2-Pad1)*%
X139446000Y-85598000D03*
%TD*%
D14*
%TO.N,Net-(J1-Pad10)*%
X160909000Y-84328000D02*
X159639000Y-85598000D01*
X160909000Y-65278000D02*
X160909000Y-84328000D01*
D15*
%TO.N,Net-(J1-Pad8)*%
X150454000Y-82980600D02*
X150454000Y-81321000D01*
X150454000Y-81321000D02*
X151587172Y-80187828D01*
X157032897Y-80187827D02*
X158800828Y-78419892D01*
X151587172Y-80187828D02*
X157032897Y-80187827D01*
X158800828Y-78419892D02*
X158800827Y-74361103D01*
X155829000Y-71389276D02*
X155829000Y-65278000D01*
X158800827Y-74361103D02*
X155829000Y-71389276D01*
%TO.N,Net-(J1-Pad7)*%
X149804000Y-82980600D02*
X149804000Y-80523219D01*
X158445219Y-78272595D02*
X158445218Y-74508402D01*
X156885598Y-79832218D02*
X158445219Y-78272595D01*
X150495001Y-79832218D02*
X156885598Y-79832218D01*
X149804000Y-80523219D02*
X150495001Y-79832218D01*
X153289000Y-69352184D02*
X153289000Y-65278000D01*
X158445218Y-74508402D02*
X153289000Y-69352184D01*
%TO.N,Net-(J1-Pad6)*%
X149154000Y-82980600D02*
X149154000Y-80202908D01*
X149154000Y-80202908D02*
X149880298Y-79476610D01*
X158089610Y-78125298D02*
X158089609Y-74655701D01*
X156738299Y-79476609D02*
X158089610Y-78125298D01*
X149880298Y-79476610D02*
X156738299Y-79476609D01*
X150749000Y-67315092D02*
X150749000Y-65278000D01*
X158089609Y-74655701D02*
X150749000Y-67315092D01*
D14*
%TO.N,Net-(J1-Pad3)*%
X153670000Y-75819000D02*
X155448000Y-75819000D01*
X143129000Y-65278000D02*
X153670000Y-75819000D01*
%TO.N,Net-(J1-Pad2)*%
X140589000Y-67056000D02*
X149479000Y-75946000D01*
X140589000Y-65278000D02*
X140589000Y-67056000D01*
%TO.N,Net-(J1-Pad1)*%
X138049000Y-72644000D02*
X141224000Y-75819000D01*
X138049000Y-65278000D02*
X138049000Y-72644000D01*
D15*
%TO.N,Net-(J2-Pad9)*%
X149804000Y-89180600D02*
X149804000Y-91307781D01*
X151003000Y-92506781D02*
X155869598Y-92506782D01*
X149804000Y-91307781D02*
X151003000Y-92506781D01*
X158064219Y-106473219D02*
X158369000Y-106778000D01*
X158064219Y-94701405D02*
X158064219Y-106473219D01*
X155869598Y-92506782D02*
X158064219Y-94701405D01*
%TO.N,Net-(J2-Pad8)*%
X149154000Y-89180600D02*
X149154000Y-91501092D01*
X150515298Y-92862390D02*
X155722299Y-92862391D01*
X149154000Y-91501092D02*
X150515298Y-92862390D01*
X157708610Y-94848702D02*
X157708609Y-102861299D01*
X155722299Y-92862391D02*
X157708610Y-94848702D01*
X155829000Y-104740908D02*
X155829000Y-106778000D01*
X157708609Y-102861299D02*
X155829000Y-104740908D01*
%TO.N,Net-(J2-Pad7)*%
X148504000Y-89180600D02*
X148504000Y-91354000D01*
X148504000Y-91354000D02*
X150368000Y-93218000D01*
X150368000Y-93218000D02*
X155575000Y-93218000D01*
X155575000Y-93218000D02*
X157353000Y-94996000D01*
X157353000Y-102714000D02*
X153289000Y-106778000D01*
X157353000Y-94996000D02*
X157353000Y-102714000D01*
D14*
%TO.N,Net-(J2-Pad5)*%
X148209000Y-103505000D02*
X155194000Y-96520000D01*
X148209000Y-106778000D02*
X148209000Y-103505000D01*
%TO.N,Net-(J2-Pad4)*%
X145669000Y-99949000D02*
X149352000Y-96266000D01*
X145669000Y-106778000D02*
X145669000Y-99949000D01*
%TO.N,Net-(J2-Pad3)*%
X143129000Y-98425000D02*
X141224000Y-96520000D01*
X143129000Y-106778000D02*
X143129000Y-98425000D01*
%TO.N,Net-(J2-Pad1)*%
X138049000Y-86995000D02*
X139446000Y-85598000D01*
X138049000Y-106778000D02*
X138049000Y-86995000D01*
D15*
%TO.N,Net-(C1-Pad2)*%
X148504000Y-82980600D02*
X148504000Y-80350000D01*
X148504000Y-80350000D02*
X149733000Y-79121000D01*
X149733000Y-79121000D02*
X156591000Y-79121000D01*
X156591000Y-79121000D02*
X157734000Y-77978000D01*
X157734000Y-74803000D02*
X148209000Y-65278000D01*
X157734000Y-77978000D02*
X157734000Y-74803000D01*
X152146000Y-85218100D02*
X152146000Y-81661000D01*
X152146000Y-81661000D02*
X153263564Y-80543436D01*
X157180196Y-80543435D02*
X159156437Y-78567189D01*
X153263564Y-80543436D02*
X157180196Y-80543435D01*
X159156437Y-78567189D02*
X159156436Y-74213804D01*
X149338401Y-64148599D02*
X148209000Y-65278000D01*
X156371113Y-64148599D02*
X149338401Y-64148599D01*
X156958401Y-64735887D02*
X156371113Y-64148599D01*
X156958401Y-72015769D02*
X156958401Y-64735887D01*
X159156436Y-74213804D02*
X156958401Y-72015769D01*
D14*
%TO.N,Net-(C1-Pad1)*%
X150454000Y-89180600D02*
X151611400Y-89180600D01*
X152146000Y-88646000D02*
X152146000Y-86943100D01*
X151611400Y-89180600D02*
X152146000Y-88646000D01*
D15*
X150454000Y-89180600D02*
X150454000Y-90967172D01*
X150454000Y-90967172D02*
X151638000Y-92151172D01*
X156016897Y-92151173D02*
X158419829Y-94554107D01*
X151638000Y-92151172D02*
X156016897Y-92151173D01*
X158419829Y-104288829D02*
X160909000Y-106778000D01*
X158419829Y-94554107D02*
X158419829Y-104288829D01*
%TD*%
M02*
