%TF.GenerationSoftware,KiCad,Pcbnew,(5.1.10)-1*%
%TF.CreationDate,2023-09-08T21:34:54-05:00*%
%TF.ProjectId,brs_flight_computer,6272735f-666c-4696-9768-745f636f6d70,A*%
%TF.SameCoordinates,Original*%
%TF.FileFunction,Paste,Bot*%
%TF.FilePolarity,Positive*%
%FSLAX46Y46*%
G04 Gerber Fmt 4.6, Leading zero omitted, Abs format (unit mm)*
G04 Created by KiCad (PCBNEW (5.1.10)-1) date 2023-09-08 21:34:54*
%MOMM*%
%LPD*%
G01*
G04 APERTURE LIST*
%ADD10R,0.900000X0.800000*%
G04 APERTURE END LIST*
%TO.C,R48*%
G36*
G01*
X118408000Y-117877000D02*
X118408000Y-117327000D01*
G75*
G02*
X118608000Y-117127000I200000J0D01*
G01*
X119008000Y-117127000D01*
G75*
G02*
X119208000Y-117327000I0J-200000D01*
G01*
X119208000Y-117877000D01*
G75*
G02*
X119008000Y-118077000I-200000J0D01*
G01*
X118608000Y-118077000D01*
G75*
G02*
X118408000Y-117877000I0J200000D01*
G01*
G37*
G36*
G01*
X116758000Y-117877000D02*
X116758000Y-117327000D01*
G75*
G02*
X116958000Y-117127000I200000J0D01*
G01*
X117358000Y-117127000D01*
G75*
G02*
X117558000Y-117327000I0J-200000D01*
G01*
X117558000Y-117877000D01*
G75*
G02*
X117358000Y-118077000I-200000J0D01*
G01*
X116958000Y-118077000D01*
G75*
G02*
X116758000Y-117877000I0J200000D01*
G01*
G37*
%TD*%
%TO.C,R47*%
G36*
G01*
X118408000Y-120925000D02*
X118408000Y-120375000D01*
G75*
G02*
X118608000Y-120175000I200000J0D01*
G01*
X119008000Y-120175000D01*
G75*
G02*
X119208000Y-120375000I0J-200000D01*
G01*
X119208000Y-120925000D01*
G75*
G02*
X119008000Y-121125000I-200000J0D01*
G01*
X118608000Y-121125000D01*
G75*
G02*
X118408000Y-120925000I0J200000D01*
G01*
G37*
G36*
G01*
X116758000Y-120925000D02*
X116758000Y-120375000D01*
G75*
G02*
X116958000Y-120175000I200000J0D01*
G01*
X117358000Y-120175000D01*
G75*
G02*
X117558000Y-120375000I0J-200000D01*
G01*
X117558000Y-120925000D01*
G75*
G02*
X117358000Y-121125000I-200000J0D01*
G01*
X116958000Y-121125000D01*
G75*
G02*
X116758000Y-120925000I0J200000D01*
G01*
G37*
%TD*%
%TO.C,R45*%
G36*
G01*
X118408000Y-123973000D02*
X118408000Y-123423000D01*
G75*
G02*
X118608000Y-123223000I200000J0D01*
G01*
X119008000Y-123223000D01*
G75*
G02*
X119208000Y-123423000I0J-200000D01*
G01*
X119208000Y-123973000D01*
G75*
G02*
X119008000Y-124173000I-200000J0D01*
G01*
X118608000Y-124173000D01*
G75*
G02*
X118408000Y-123973000I0J200000D01*
G01*
G37*
G36*
G01*
X116758000Y-123973000D02*
X116758000Y-123423000D01*
G75*
G02*
X116958000Y-123223000I200000J0D01*
G01*
X117358000Y-123223000D01*
G75*
G02*
X117558000Y-123423000I0J-200000D01*
G01*
X117558000Y-123973000D01*
G75*
G02*
X117358000Y-124173000I-200000J0D01*
G01*
X116958000Y-124173000D01*
G75*
G02*
X116758000Y-123973000I0J200000D01*
G01*
G37*
%TD*%
%TO.C,R44*%
G36*
G01*
X118408000Y-127021000D02*
X118408000Y-126471000D01*
G75*
G02*
X118608000Y-126271000I200000J0D01*
G01*
X119008000Y-126271000D01*
G75*
G02*
X119208000Y-126471000I0J-200000D01*
G01*
X119208000Y-127021000D01*
G75*
G02*
X119008000Y-127221000I-200000J0D01*
G01*
X118608000Y-127221000D01*
G75*
G02*
X118408000Y-127021000I0J200000D01*
G01*
G37*
G36*
G01*
X116758000Y-127021000D02*
X116758000Y-126471000D01*
G75*
G02*
X116958000Y-126271000I200000J0D01*
G01*
X117358000Y-126271000D01*
G75*
G02*
X117558000Y-126471000I0J-200000D01*
G01*
X117558000Y-127021000D01*
G75*
G02*
X117358000Y-127221000I-200000J0D01*
G01*
X116958000Y-127221000D01*
G75*
G02*
X116758000Y-127021000I0J200000D01*
G01*
G37*
%TD*%
%TO.C,R41*%
G36*
G01*
X118408000Y-130069000D02*
X118408000Y-129519000D01*
G75*
G02*
X118608000Y-129319000I200000J0D01*
G01*
X119008000Y-129319000D01*
G75*
G02*
X119208000Y-129519000I0J-200000D01*
G01*
X119208000Y-130069000D01*
G75*
G02*
X119008000Y-130269000I-200000J0D01*
G01*
X118608000Y-130269000D01*
G75*
G02*
X118408000Y-130069000I0J200000D01*
G01*
G37*
G36*
G01*
X116758000Y-130069000D02*
X116758000Y-129519000D01*
G75*
G02*
X116958000Y-129319000I200000J0D01*
G01*
X117358000Y-129319000D01*
G75*
G02*
X117558000Y-129519000I0J-200000D01*
G01*
X117558000Y-130069000D01*
G75*
G02*
X117358000Y-130269000I-200000J0D01*
G01*
X116958000Y-130269000D01*
G75*
G02*
X116758000Y-130069000I0J200000D01*
G01*
G37*
%TD*%
%TO.C,R40*%
G36*
G01*
X118408000Y-99589000D02*
X118408000Y-99039000D01*
G75*
G02*
X118608000Y-98839000I200000J0D01*
G01*
X119008000Y-98839000D01*
G75*
G02*
X119208000Y-99039000I0J-200000D01*
G01*
X119208000Y-99589000D01*
G75*
G02*
X119008000Y-99789000I-200000J0D01*
G01*
X118608000Y-99789000D01*
G75*
G02*
X118408000Y-99589000I0J200000D01*
G01*
G37*
G36*
G01*
X116758000Y-99589000D02*
X116758000Y-99039000D01*
G75*
G02*
X116958000Y-98839000I200000J0D01*
G01*
X117358000Y-98839000D01*
G75*
G02*
X117558000Y-99039000I0J-200000D01*
G01*
X117558000Y-99589000D01*
G75*
G02*
X117358000Y-99789000I-200000J0D01*
G01*
X116958000Y-99789000D01*
G75*
G02*
X116758000Y-99589000I0J200000D01*
G01*
G37*
%TD*%
%TO.C,R39*%
G36*
G01*
X118408000Y-102637000D02*
X118408000Y-102087000D01*
G75*
G02*
X118608000Y-101887000I200000J0D01*
G01*
X119008000Y-101887000D01*
G75*
G02*
X119208000Y-102087000I0J-200000D01*
G01*
X119208000Y-102637000D01*
G75*
G02*
X119008000Y-102837000I-200000J0D01*
G01*
X118608000Y-102837000D01*
G75*
G02*
X118408000Y-102637000I0J200000D01*
G01*
G37*
G36*
G01*
X116758000Y-102637000D02*
X116758000Y-102087000D01*
G75*
G02*
X116958000Y-101887000I200000J0D01*
G01*
X117358000Y-101887000D01*
G75*
G02*
X117558000Y-102087000I0J-200000D01*
G01*
X117558000Y-102637000D01*
G75*
G02*
X117358000Y-102837000I-200000J0D01*
G01*
X116958000Y-102837000D01*
G75*
G02*
X116758000Y-102637000I0J200000D01*
G01*
G37*
%TD*%
%TO.C,R38*%
G36*
G01*
X118408000Y-105685000D02*
X118408000Y-105135000D01*
G75*
G02*
X118608000Y-104935000I200000J0D01*
G01*
X119008000Y-104935000D01*
G75*
G02*
X119208000Y-105135000I0J-200000D01*
G01*
X119208000Y-105685000D01*
G75*
G02*
X119008000Y-105885000I-200000J0D01*
G01*
X118608000Y-105885000D01*
G75*
G02*
X118408000Y-105685000I0J200000D01*
G01*
G37*
G36*
G01*
X116758000Y-105685000D02*
X116758000Y-105135000D01*
G75*
G02*
X116958000Y-104935000I200000J0D01*
G01*
X117358000Y-104935000D01*
G75*
G02*
X117558000Y-105135000I0J-200000D01*
G01*
X117558000Y-105685000D01*
G75*
G02*
X117358000Y-105885000I-200000J0D01*
G01*
X116958000Y-105885000D01*
G75*
G02*
X116758000Y-105685000I0J200000D01*
G01*
G37*
%TD*%
%TO.C,R29*%
G36*
G01*
X118408000Y-108733000D02*
X118408000Y-108183000D01*
G75*
G02*
X118608000Y-107983000I200000J0D01*
G01*
X119008000Y-107983000D01*
G75*
G02*
X119208000Y-108183000I0J-200000D01*
G01*
X119208000Y-108733000D01*
G75*
G02*
X119008000Y-108933000I-200000J0D01*
G01*
X118608000Y-108933000D01*
G75*
G02*
X118408000Y-108733000I0J200000D01*
G01*
G37*
G36*
G01*
X116758000Y-108733000D02*
X116758000Y-108183000D01*
G75*
G02*
X116958000Y-107983000I200000J0D01*
G01*
X117358000Y-107983000D01*
G75*
G02*
X117558000Y-108183000I0J-200000D01*
G01*
X117558000Y-108733000D01*
G75*
G02*
X117358000Y-108933000I-200000J0D01*
G01*
X116958000Y-108933000D01*
G75*
G02*
X116758000Y-108733000I0J200000D01*
G01*
G37*
%TD*%
%TO.C,R28*%
G36*
G01*
X118408000Y-111781000D02*
X118408000Y-111231000D01*
G75*
G02*
X118608000Y-111031000I200000J0D01*
G01*
X119008000Y-111031000D01*
G75*
G02*
X119208000Y-111231000I0J-200000D01*
G01*
X119208000Y-111781000D01*
G75*
G02*
X119008000Y-111981000I-200000J0D01*
G01*
X118608000Y-111981000D01*
G75*
G02*
X118408000Y-111781000I0J200000D01*
G01*
G37*
G36*
G01*
X116758000Y-111781000D02*
X116758000Y-111231000D01*
G75*
G02*
X116958000Y-111031000I200000J0D01*
G01*
X117358000Y-111031000D01*
G75*
G02*
X117558000Y-111231000I0J-200000D01*
G01*
X117558000Y-111781000D01*
G75*
G02*
X117358000Y-111981000I-200000J0D01*
G01*
X116958000Y-111981000D01*
G75*
G02*
X116758000Y-111781000I0J200000D01*
G01*
G37*
%TD*%
%TO.C,R27*%
G36*
G01*
X118408000Y-81301000D02*
X118408000Y-80751000D01*
G75*
G02*
X118608000Y-80551000I200000J0D01*
G01*
X119008000Y-80551000D01*
G75*
G02*
X119208000Y-80751000I0J-200000D01*
G01*
X119208000Y-81301000D01*
G75*
G02*
X119008000Y-81501000I-200000J0D01*
G01*
X118608000Y-81501000D01*
G75*
G02*
X118408000Y-81301000I0J200000D01*
G01*
G37*
G36*
G01*
X116758000Y-81301000D02*
X116758000Y-80751000D01*
G75*
G02*
X116958000Y-80551000I200000J0D01*
G01*
X117358000Y-80551000D01*
G75*
G02*
X117558000Y-80751000I0J-200000D01*
G01*
X117558000Y-81301000D01*
G75*
G02*
X117358000Y-81501000I-200000J0D01*
G01*
X116958000Y-81501000D01*
G75*
G02*
X116758000Y-81301000I0J200000D01*
G01*
G37*
%TD*%
%TO.C,R26*%
G36*
G01*
X118408000Y-84349000D02*
X118408000Y-83799000D01*
G75*
G02*
X118608000Y-83599000I200000J0D01*
G01*
X119008000Y-83599000D01*
G75*
G02*
X119208000Y-83799000I0J-200000D01*
G01*
X119208000Y-84349000D01*
G75*
G02*
X119008000Y-84549000I-200000J0D01*
G01*
X118608000Y-84549000D01*
G75*
G02*
X118408000Y-84349000I0J200000D01*
G01*
G37*
G36*
G01*
X116758000Y-84349000D02*
X116758000Y-83799000D01*
G75*
G02*
X116958000Y-83599000I200000J0D01*
G01*
X117358000Y-83599000D01*
G75*
G02*
X117558000Y-83799000I0J-200000D01*
G01*
X117558000Y-84349000D01*
G75*
G02*
X117358000Y-84549000I-200000J0D01*
G01*
X116958000Y-84549000D01*
G75*
G02*
X116758000Y-84349000I0J200000D01*
G01*
G37*
%TD*%
%TO.C,R13*%
G36*
G01*
X118408000Y-87397000D02*
X118408000Y-86847000D01*
G75*
G02*
X118608000Y-86647000I200000J0D01*
G01*
X119008000Y-86647000D01*
G75*
G02*
X119208000Y-86847000I0J-200000D01*
G01*
X119208000Y-87397000D01*
G75*
G02*
X119008000Y-87597000I-200000J0D01*
G01*
X118608000Y-87597000D01*
G75*
G02*
X118408000Y-87397000I0J200000D01*
G01*
G37*
G36*
G01*
X116758000Y-87397000D02*
X116758000Y-86847000D01*
G75*
G02*
X116958000Y-86647000I200000J0D01*
G01*
X117358000Y-86647000D01*
G75*
G02*
X117558000Y-86847000I0J-200000D01*
G01*
X117558000Y-87397000D01*
G75*
G02*
X117358000Y-87597000I-200000J0D01*
G01*
X116958000Y-87597000D01*
G75*
G02*
X116758000Y-87397000I0J200000D01*
G01*
G37*
%TD*%
%TO.C,R12*%
G36*
G01*
X118408000Y-90445000D02*
X118408000Y-89895000D01*
G75*
G02*
X118608000Y-89695000I200000J0D01*
G01*
X119008000Y-89695000D01*
G75*
G02*
X119208000Y-89895000I0J-200000D01*
G01*
X119208000Y-90445000D01*
G75*
G02*
X119008000Y-90645000I-200000J0D01*
G01*
X118608000Y-90645000D01*
G75*
G02*
X118408000Y-90445000I0J200000D01*
G01*
G37*
G36*
G01*
X116758000Y-90445000D02*
X116758000Y-89895000D01*
G75*
G02*
X116958000Y-89695000I200000J0D01*
G01*
X117358000Y-89695000D01*
G75*
G02*
X117558000Y-89895000I0J-200000D01*
G01*
X117558000Y-90445000D01*
G75*
G02*
X117358000Y-90645000I-200000J0D01*
G01*
X116958000Y-90645000D01*
G75*
G02*
X116758000Y-90445000I0J200000D01*
G01*
G37*
%TD*%
%TO.C,R11*%
G36*
G01*
X118408000Y-93493000D02*
X118408000Y-92943000D01*
G75*
G02*
X118608000Y-92743000I200000J0D01*
G01*
X119008000Y-92743000D01*
G75*
G02*
X119208000Y-92943000I0J-200000D01*
G01*
X119208000Y-93493000D01*
G75*
G02*
X119008000Y-93693000I-200000J0D01*
G01*
X118608000Y-93693000D01*
G75*
G02*
X118408000Y-93493000I0J200000D01*
G01*
G37*
G36*
G01*
X116758000Y-93493000D02*
X116758000Y-92943000D01*
G75*
G02*
X116958000Y-92743000I200000J0D01*
G01*
X117358000Y-92743000D01*
G75*
G02*
X117558000Y-92943000I0J-200000D01*
G01*
X117558000Y-93493000D01*
G75*
G02*
X117358000Y-93693000I-200000J0D01*
G01*
X116958000Y-93693000D01*
G75*
G02*
X116758000Y-93493000I0J200000D01*
G01*
G37*
%TD*%
%TO.C,R10*%
G36*
G01*
X185907000Y-118027000D02*
X186457000Y-118027000D01*
G75*
G02*
X186657000Y-118227000I0J-200000D01*
G01*
X186657000Y-118627000D01*
G75*
G02*
X186457000Y-118827000I-200000J0D01*
G01*
X185907000Y-118827000D01*
G75*
G02*
X185707000Y-118627000I0J200000D01*
G01*
X185707000Y-118227000D01*
G75*
G02*
X185907000Y-118027000I200000J0D01*
G01*
G37*
G36*
G01*
X185907000Y-116377000D02*
X186457000Y-116377000D01*
G75*
G02*
X186657000Y-116577000I0J-200000D01*
G01*
X186657000Y-116977000D01*
G75*
G02*
X186457000Y-117177000I-200000J0D01*
G01*
X185907000Y-117177000D01*
G75*
G02*
X185707000Y-116977000I0J200000D01*
G01*
X185707000Y-116577000D01*
G75*
G02*
X185907000Y-116377000I200000J0D01*
G01*
G37*
%TD*%
%TO.C,C30*%
G36*
G01*
X133735000Y-97035500D02*
X134235000Y-97035500D01*
G75*
G02*
X134460000Y-97260500I0J-225000D01*
G01*
X134460000Y-97710500D01*
G75*
G02*
X134235000Y-97935500I-225000J0D01*
G01*
X133735000Y-97935500D01*
G75*
G02*
X133510000Y-97710500I0J225000D01*
G01*
X133510000Y-97260500D01*
G75*
G02*
X133735000Y-97035500I225000J0D01*
G01*
G37*
G36*
G01*
X133735000Y-95485500D02*
X134235000Y-95485500D01*
G75*
G02*
X134460000Y-95710500I0J-225000D01*
G01*
X134460000Y-96160500D01*
G75*
G02*
X134235000Y-96385500I-225000J0D01*
G01*
X133735000Y-96385500D01*
G75*
G02*
X133510000Y-96160500I0J225000D01*
G01*
X133510000Y-95710500D01*
G75*
G02*
X133735000Y-95485500I225000J0D01*
G01*
G37*
%TD*%
%TO.C,C1*%
G36*
G01*
X187368000Y-104652000D02*
X187368000Y-105152000D01*
G75*
G02*
X187143000Y-105377000I-225000J0D01*
G01*
X186693000Y-105377000D01*
G75*
G02*
X186468000Y-105152000I0J225000D01*
G01*
X186468000Y-104652000D01*
G75*
G02*
X186693000Y-104427000I225000J0D01*
G01*
X187143000Y-104427000D01*
G75*
G02*
X187368000Y-104652000I0J-225000D01*
G01*
G37*
G36*
G01*
X188918000Y-104652000D02*
X188918000Y-105152000D01*
G75*
G02*
X188693000Y-105377000I-225000J0D01*
G01*
X188243000Y-105377000D01*
G75*
G02*
X188018000Y-105152000I0J225000D01*
G01*
X188018000Y-104652000D01*
G75*
G02*
X188243000Y-104427000I225000J0D01*
G01*
X188693000Y-104427000D01*
G75*
G02*
X188918000Y-104652000I0J-225000D01*
G01*
G37*
%TD*%
%TO.C,C29*%
G36*
G01*
X115066000Y-127452000D02*
X115566000Y-127452000D01*
G75*
G02*
X115791000Y-127677000I0J-225000D01*
G01*
X115791000Y-128127000D01*
G75*
G02*
X115566000Y-128352000I-225000J0D01*
G01*
X115066000Y-128352000D01*
G75*
G02*
X114841000Y-128127000I0J225000D01*
G01*
X114841000Y-127677000D01*
G75*
G02*
X115066000Y-127452000I225000J0D01*
G01*
G37*
G36*
G01*
X115066000Y-125902000D02*
X115566000Y-125902000D01*
G75*
G02*
X115791000Y-126127000I0J-225000D01*
G01*
X115791000Y-126577000D01*
G75*
G02*
X115566000Y-126802000I-225000J0D01*
G01*
X115066000Y-126802000D01*
G75*
G02*
X114841000Y-126577000I0J225000D01*
G01*
X114841000Y-126127000D01*
G75*
G02*
X115066000Y-125902000I225000J0D01*
G01*
G37*
%TD*%
%TO.C,C28*%
G36*
G01*
X118308000Y-94992000D02*
X118308000Y-94492000D01*
G75*
G02*
X118533000Y-94267000I225000J0D01*
G01*
X118983000Y-94267000D01*
G75*
G02*
X119208000Y-94492000I0J-225000D01*
G01*
X119208000Y-94992000D01*
G75*
G02*
X118983000Y-95217000I-225000J0D01*
G01*
X118533000Y-95217000D01*
G75*
G02*
X118308000Y-94992000I0J225000D01*
G01*
G37*
G36*
G01*
X116758000Y-94992000D02*
X116758000Y-94492000D01*
G75*
G02*
X116983000Y-94267000I225000J0D01*
G01*
X117433000Y-94267000D01*
G75*
G02*
X117658000Y-94492000I0J-225000D01*
G01*
X117658000Y-94992000D01*
G75*
G02*
X117433000Y-95217000I-225000J0D01*
G01*
X116983000Y-95217000D01*
G75*
G02*
X116758000Y-94992000I0J225000D01*
G01*
G37*
%TD*%
%TO.C,C17*%
G36*
G01*
X118308000Y-113280000D02*
X118308000Y-112780000D01*
G75*
G02*
X118533000Y-112555000I225000J0D01*
G01*
X118983000Y-112555000D01*
G75*
G02*
X119208000Y-112780000I0J-225000D01*
G01*
X119208000Y-113280000D01*
G75*
G02*
X118983000Y-113505000I-225000J0D01*
G01*
X118533000Y-113505000D01*
G75*
G02*
X118308000Y-113280000I0J225000D01*
G01*
G37*
G36*
G01*
X116758000Y-113280000D02*
X116758000Y-112780000D01*
G75*
G02*
X116983000Y-112555000I225000J0D01*
G01*
X117433000Y-112555000D01*
G75*
G02*
X117658000Y-112780000I0J-225000D01*
G01*
X117658000Y-113280000D01*
G75*
G02*
X117433000Y-113505000I-225000J0D01*
G01*
X116983000Y-113505000D01*
G75*
G02*
X116758000Y-113280000I0J225000D01*
G01*
G37*
%TD*%
%TO.C,R80*%
G36*
G01*
X175674700Y-79191300D02*
X175124700Y-79191300D01*
G75*
G02*
X174924700Y-78991300I0J200000D01*
G01*
X174924700Y-78591300D01*
G75*
G02*
X175124700Y-78391300I200000J0D01*
G01*
X175674700Y-78391300D01*
G75*
G02*
X175874700Y-78591300I0J-200000D01*
G01*
X175874700Y-78991300D01*
G75*
G02*
X175674700Y-79191300I-200000J0D01*
G01*
G37*
G36*
G01*
X175674700Y-80841300D02*
X175124700Y-80841300D01*
G75*
G02*
X174924700Y-80641300I0J200000D01*
G01*
X174924700Y-80241300D01*
G75*
G02*
X175124700Y-80041300I200000J0D01*
G01*
X175674700Y-80041300D01*
G75*
G02*
X175874700Y-80241300I0J-200000D01*
G01*
X175874700Y-80641300D01*
G75*
G02*
X175674700Y-80841300I-200000J0D01*
G01*
G37*
%TD*%
%TO.C,R78*%
G36*
G01*
X170044700Y-80041300D02*
X170594700Y-80041300D01*
G75*
G02*
X170794700Y-80241300I0J-200000D01*
G01*
X170794700Y-80641300D01*
G75*
G02*
X170594700Y-80841300I-200000J0D01*
G01*
X170044700Y-80841300D01*
G75*
G02*
X169844700Y-80641300I0J200000D01*
G01*
X169844700Y-80241300D01*
G75*
G02*
X170044700Y-80041300I200000J0D01*
G01*
G37*
G36*
G01*
X170044700Y-78391300D02*
X170594700Y-78391300D01*
G75*
G02*
X170794700Y-78591300I0J-200000D01*
G01*
X170794700Y-78991300D01*
G75*
G02*
X170594700Y-79191300I-200000J0D01*
G01*
X170044700Y-79191300D01*
G75*
G02*
X169844700Y-78991300I0J200000D01*
G01*
X169844700Y-78591300D01*
G75*
G02*
X170044700Y-78391300I200000J0D01*
G01*
G37*
%TD*%
%TO.C,R77*%
G36*
G01*
X175674700Y-82747300D02*
X175124700Y-82747300D01*
G75*
G02*
X174924700Y-82547300I0J200000D01*
G01*
X174924700Y-82147300D01*
G75*
G02*
X175124700Y-81947300I200000J0D01*
G01*
X175674700Y-81947300D01*
G75*
G02*
X175874700Y-82147300I0J-200000D01*
G01*
X175874700Y-82547300D01*
G75*
G02*
X175674700Y-82747300I-200000J0D01*
G01*
G37*
G36*
G01*
X175674700Y-84397300D02*
X175124700Y-84397300D01*
G75*
G02*
X174924700Y-84197300I0J200000D01*
G01*
X174924700Y-83797300D01*
G75*
G02*
X175124700Y-83597300I200000J0D01*
G01*
X175674700Y-83597300D01*
G75*
G02*
X175874700Y-83797300I0J-200000D01*
G01*
X175874700Y-84197300D01*
G75*
G02*
X175674700Y-84397300I-200000J0D01*
G01*
G37*
%TD*%
%TO.C,R76*%
G36*
G01*
X170044700Y-83597300D02*
X170594700Y-83597300D01*
G75*
G02*
X170794700Y-83797300I0J-200000D01*
G01*
X170794700Y-84197300D01*
G75*
G02*
X170594700Y-84397300I-200000J0D01*
G01*
X170044700Y-84397300D01*
G75*
G02*
X169844700Y-84197300I0J200000D01*
G01*
X169844700Y-83797300D01*
G75*
G02*
X170044700Y-83597300I200000J0D01*
G01*
G37*
G36*
G01*
X170044700Y-81947300D02*
X170594700Y-81947300D01*
G75*
G02*
X170794700Y-82147300I0J-200000D01*
G01*
X170794700Y-82547300D01*
G75*
G02*
X170594700Y-82747300I-200000J0D01*
G01*
X170044700Y-82747300D01*
G75*
G02*
X169844700Y-82547300I0J200000D01*
G01*
X169844700Y-82147300D01*
G75*
G02*
X170044700Y-81947300I200000J0D01*
G01*
G37*
%TD*%
%TO.C,R75*%
G36*
G01*
X175674700Y-86303300D02*
X175124700Y-86303300D01*
G75*
G02*
X174924700Y-86103300I0J200000D01*
G01*
X174924700Y-85703300D01*
G75*
G02*
X175124700Y-85503300I200000J0D01*
G01*
X175674700Y-85503300D01*
G75*
G02*
X175874700Y-85703300I0J-200000D01*
G01*
X175874700Y-86103300D01*
G75*
G02*
X175674700Y-86303300I-200000J0D01*
G01*
G37*
G36*
G01*
X175674700Y-87953300D02*
X175124700Y-87953300D01*
G75*
G02*
X174924700Y-87753300I0J200000D01*
G01*
X174924700Y-87353300D01*
G75*
G02*
X175124700Y-87153300I200000J0D01*
G01*
X175674700Y-87153300D01*
G75*
G02*
X175874700Y-87353300I0J-200000D01*
G01*
X175874700Y-87753300D01*
G75*
G02*
X175674700Y-87953300I-200000J0D01*
G01*
G37*
%TD*%
%TO.C,R74*%
G36*
G01*
X170044700Y-87153300D02*
X170594700Y-87153300D01*
G75*
G02*
X170794700Y-87353300I0J-200000D01*
G01*
X170794700Y-87753300D01*
G75*
G02*
X170594700Y-87953300I-200000J0D01*
G01*
X170044700Y-87953300D01*
G75*
G02*
X169844700Y-87753300I0J200000D01*
G01*
X169844700Y-87353300D01*
G75*
G02*
X170044700Y-87153300I200000J0D01*
G01*
G37*
G36*
G01*
X170044700Y-85503300D02*
X170594700Y-85503300D01*
G75*
G02*
X170794700Y-85703300I0J-200000D01*
G01*
X170794700Y-86103300D01*
G75*
G02*
X170594700Y-86303300I-200000J0D01*
G01*
X170044700Y-86303300D01*
G75*
G02*
X169844700Y-86103300I0J200000D01*
G01*
X169844700Y-85703300D01*
G75*
G02*
X170044700Y-85503300I200000J0D01*
G01*
G37*
%TD*%
%TO.C,R73*%
G36*
G01*
X118408000Y-114829000D02*
X118408000Y-114279000D01*
G75*
G02*
X118608000Y-114079000I200000J0D01*
G01*
X119008000Y-114079000D01*
G75*
G02*
X119208000Y-114279000I0J-200000D01*
G01*
X119208000Y-114829000D01*
G75*
G02*
X119008000Y-115029000I-200000J0D01*
G01*
X118608000Y-115029000D01*
G75*
G02*
X118408000Y-114829000I0J200000D01*
G01*
G37*
G36*
G01*
X116758000Y-114829000D02*
X116758000Y-114279000D01*
G75*
G02*
X116958000Y-114079000I200000J0D01*
G01*
X117358000Y-114079000D01*
G75*
G02*
X117558000Y-114279000I0J-200000D01*
G01*
X117558000Y-114829000D01*
G75*
G02*
X117358000Y-115029000I-200000J0D01*
G01*
X116958000Y-115029000D01*
G75*
G02*
X116758000Y-114829000I0J200000D01*
G01*
G37*
%TD*%
%TO.C,R72*%
G36*
G01*
X118408000Y-96541000D02*
X118408000Y-95991000D01*
G75*
G02*
X118608000Y-95791000I200000J0D01*
G01*
X119008000Y-95791000D01*
G75*
G02*
X119208000Y-95991000I0J-200000D01*
G01*
X119208000Y-96541000D01*
G75*
G02*
X119008000Y-96741000I-200000J0D01*
G01*
X118608000Y-96741000D01*
G75*
G02*
X118408000Y-96541000I0J200000D01*
G01*
G37*
G36*
G01*
X116758000Y-96541000D02*
X116758000Y-95991000D01*
G75*
G02*
X116958000Y-95791000I200000J0D01*
G01*
X117358000Y-95791000D01*
G75*
G02*
X117558000Y-95991000I0J-200000D01*
G01*
X117558000Y-96541000D01*
G75*
G02*
X117358000Y-96741000I-200000J0D01*
G01*
X116958000Y-96741000D01*
G75*
G02*
X116758000Y-96541000I0J200000D01*
G01*
G37*
%TD*%
%TO.C,R71*%
G36*
G01*
X118408000Y-78189500D02*
X118408000Y-77639500D01*
G75*
G02*
X118608000Y-77439500I200000J0D01*
G01*
X119008000Y-77439500D01*
G75*
G02*
X119208000Y-77639500I0J-200000D01*
G01*
X119208000Y-78189500D01*
G75*
G02*
X119008000Y-78389500I-200000J0D01*
G01*
X118608000Y-78389500D01*
G75*
G02*
X118408000Y-78189500I0J200000D01*
G01*
G37*
G36*
G01*
X116758000Y-78189500D02*
X116758000Y-77639500D01*
G75*
G02*
X116958000Y-77439500I200000J0D01*
G01*
X117358000Y-77439500D01*
G75*
G02*
X117558000Y-77639500I0J-200000D01*
G01*
X117558000Y-78189500D01*
G75*
G02*
X117358000Y-78389500I-200000J0D01*
G01*
X116958000Y-78389500D01*
G75*
G02*
X116758000Y-78189500I0J200000D01*
G01*
G37*
%TD*%
%TO.C,R3*%
G36*
G01*
X175851000Y-109453000D02*
X175851000Y-110003000D01*
G75*
G02*
X175651000Y-110203000I-200000J0D01*
G01*
X175251000Y-110203000D01*
G75*
G02*
X175051000Y-110003000I0J200000D01*
G01*
X175051000Y-109453000D01*
G75*
G02*
X175251000Y-109253000I200000J0D01*
G01*
X175651000Y-109253000D01*
G75*
G02*
X175851000Y-109453000I0J-200000D01*
G01*
G37*
G36*
G01*
X177501000Y-109453000D02*
X177501000Y-110003000D01*
G75*
G02*
X177301000Y-110203000I-200000J0D01*
G01*
X176901000Y-110203000D01*
G75*
G02*
X176701000Y-110003000I0J200000D01*
G01*
X176701000Y-109453000D01*
G75*
G02*
X176901000Y-109253000I200000J0D01*
G01*
X177301000Y-109253000D01*
G75*
G02*
X177501000Y-109453000I0J-200000D01*
G01*
G37*
%TD*%
%TO.C,R2*%
G36*
G01*
X184383000Y-118027000D02*
X184933000Y-118027000D01*
G75*
G02*
X185133000Y-118227000I0J-200000D01*
G01*
X185133000Y-118627000D01*
G75*
G02*
X184933000Y-118827000I-200000J0D01*
G01*
X184383000Y-118827000D01*
G75*
G02*
X184183000Y-118627000I0J200000D01*
G01*
X184183000Y-118227000D01*
G75*
G02*
X184383000Y-118027000I200000J0D01*
G01*
G37*
G36*
G01*
X184383000Y-116377000D02*
X184933000Y-116377000D01*
G75*
G02*
X185133000Y-116577000I0J-200000D01*
G01*
X185133000Y-116977000D01*
G75*
G02*
X184933000Y-117177000I-200000J0D01*
G01*
X184383000Y-117177000D01*
G75*
G02*
X184183000Y-116977000I0J200000D01*
G01*
X184183000Y-116577000D01*
G75*
G02*
X184383000Y-116377000I200000J0D01*
G01*
G37*
%TD*%
%TO.C,R1*%
G36*
G01*
X182859000Y-118027000D02*
X183409000Y-118027000D01*
G75*
G02*
X183609000Y-118227000I0J-200000D01*
G01*
X183609000Y-118627000D01*
G75*
G02*
X183409000Y-118827000I-200000J0D01*
G01*
X182859000Y-118827000D01*
G75*
G02*
X182659000Y-118627000I0J200000D01*
G01*
X182659000Y-118227000D01*
G75*
G02*
X182859000Y-118027000I200000J0D01*
G01*
G37*
G36*
G01*
X182859000Y-116377000D02*
X183409000Y-116377000D01*
G75*
G02*
X183609000Y-116577000I0J-200000D01*
G01*
X183609000Y-116977000D01*
G75*
G02*
X183409000Y-117177000I-200000J0D01*
G01*
X182859000Y-117177000D01*
G75*
G02*
X182659000Y-116977000I0J200000D01*
G01*
X182659000Y-116577000D01*
G75*
G02*
X182859000Y-116377000I200000J0D01*
G01*
G37*
%TD*%
D10*
%TO.C,Q3*%
X173875700Y-79616300D03*
X171875700Y-78666300D03*
X171875700Y-80566300D03*
%TD*%
%TO.C,Q2*%
X173875700Y-83172300D03*
X171875700Y-82222300D03*
X171875700Y-84122300D03*
%TD*%
%TO.C,Q1*%
X173875700Y-86728300D03*
X171875700Y-85778300D03*
X171875700Y-87678300D03*
%TD*%
%TO.C,C110*%
G36*
G01*
X155198000Y-78430000D02*
X155698000Y-78430000D01*
G75*
G02*
X155923000Y-78655000I0J-225000D01*
G01*
X155923000Y-79105000D01*
G75*
G02*
X155698000Y-79330000I-225000J0D01*
G01*
X155198000Y-79330000D01*
G75*
G02*
X154973000Y-79105000I0J225000D01*
G01*
X154973000Y-78655000D01*
G75*
G02*
X155198000Y-78430000I225000J0D01*
G01*
G37*
G36*
G01*
X155198000Y-76880000D02*
X155698000Y-76880000D01*
G75*
G02*
X155923000Y-77105000I0J-225000D01*
G01*
X155923000Y-77555000D01*
G75*
G02*
X155698000Y-77780000I-225000J0D01*
G01*
X155198000Y-77780000D01*
G75*
G02*
X154973000Y-77555000I0J225000D01*
G01*
X154973000Y-77105000D01*
G75*
G02*
X155198000Y-76880000I225000J0D01*
G01*
G37*
%TD*%
%TO.C,C109*%
G36*
G01*
X162310000Y-78430000D02*
X162810000Y-78430000D01*
G75*
G02*
X163035000Y-78655000I0J-225000D01*
G01*
X163035000Y-79105000D01*
G75*
G02*
X162810000Y-79330000I-225000J0D01*
G01*
X162310000Y-79330000D01*
G75*
G02*
X162085000Y-79105000I0J225000D01*
G01*
X162085000Y-78655000D01*
G75*
G02*
X162310000Y-78430000I225000J0D01*
G01*
G37*
G36*
G01*
X162310000Y-76880000D02*
X162810000Y-76880000D01*
G75*
G02*
X163035000Y-77105000I0J-225000D01*
G01*
X163035000Y-77555000D01*
G75*
G02*
X162810000Y-77780000I-225000J0D01*
G01*
X162310000Y-77780000D01*
G75*
G02*
X162085000Y-77555000I0J225000D01*
G01*
X162085000Y-77105000D01*
G75*
G02*
X162310000Y-76880000I225000J0D01*
G01*
G37*
%TD*%
%TO.C,C108*%
G36*
G01*
X157979000Y-83101000D02*
X160029000Y-83101000D01*
G75*
G02*
X160279000Y-83351000I0J-250000D01*
G01*
X160279000Y-84926000D01*
G75*
G02*
X160029000Y-85176000I-250000J0D01*
G01*
X157979000Y-85176000D01*
G75*
G02*
X157729000Y-84926000I0J250000D01*
G01*
X157729000Y-83351000D01*
G75*
G02*
X157979000Y-83101000I250000J0D01*
G01*
G37*
G36*
G01*
X157979000Y-76876000D02*
X160029000Y-76876000D01*
G75*
G02*
X160279000Y-77126000I0J-250000D01*
G01*
X160279000Y-78701000D01*
G75*
G02*
X160029000Y-78951000I-250000J0D01*
G01*
X157979000Y-78951000D01*
G75*
G02*
X157729000Y-78701000I0J250000D01*
G01*
X157729000Y-77126000D01*
G75*
G02*
X157979000Y-76876000I250000J0D01*
G01*
G37*
%TD*%
%TO.C,C107*%
G36*
G01*
X130052000Y-78430000D02*
X130552000Y-78430000D01*
G75*
G02*
X130777000Y-78655000I0J-225000D01*
G01*
X130777000Y-79105000D01*
G75*
G02*
X130552000Y-79330000I-225000J0D01*
G01*
X130052000Y-79330000D01*
G75*
G02*
X129827000Y-79105000I0J225000D01*
G01*
X129827000Y-78655000D01*
G75*
G02*
X130052000Y-78430000I225000J0D01*
G01*
G37*
G36*
G01*
X130052000Y-76880000D02*
X130552000Y-76880000D01*
G75*
G02*
X130777000Y-77105000I0J-225000D01*
G01*
X130777000Y-77555000D01*
G75*
G02*
X130552000Y-77780000I-225000J0D01*
G01*
X130052000Y-77780000D01*
G75*
G02*
X129827000Y-77555000I0J225000D01*
G01*
X129827000Y-77105000D01*
G75*
G02*
X130052000Y-76880000I225000J0D01*
G01*
G37*
%TD*%
%TO.C,C106*%
G36*
G01*
X137037000Y-78430000D02*
X137537000Y-78430000D01*
G75*
G02*
X137762000Y-78655000I0J-225000D01*
G01*
X137762000Y-79105000D01*
G75*
G02*
X137537000Y-79330000I-225000J0D01*
G01*
X137037000Y-79330000D01*
G75*
G02*
X136812000Y-79105000I0J225000D01*
G01*
X136812000Y-78655000D01*
G75*
G02*
X137037000Y-78430000I225000J0D01*
G01*
G37*
G36*
G01*
X137037000Y-76880000D02*
X137537000Y-76880000D01*
G75*
G02*
X137762000Y-77105000I0J-225000D01*
G01*
X137762000Y-77555000D01*
G75*
G02*
X137537000Y-77780000I-225000J0D01*
G01*
X137037000Y-77780000D01*
G75*
G02*
X136812000Y-77555000I0J225000D01*
G01*
X136812000Y-77105000D01*
G75*
G02*
X137037000Y-76880000I225000J0D01*
G01*
G37*
%TD*%
%TO.C,C105*%
G36*
G01*
X132833000Y-83101000D02*
X134883000Y-83101000D01*
G75*
G02*
X135133000Y-83351000I0J-250000D01*
G01*
X135133000Y-84926000D01*
G75*
G02*
X134883000Y-85176000I-250000J0D01*
G01*
X132833000Y-85176000D01*
G75*
G02*
X132583000Y-84926000I0J250000D01*
G01*
X132583000Y-83351000D01*
G75*
G02*
X132833000Y-83101000I250000J0D01*
G01*
G37*
G36*
G01*
X132833000Y-76876000D02*
X134883000Y-76876000D01*
G75*
G02*
X135133000Y-77126000I0J-250000D01*
G01*
X135133000Y-78701000D01*
G75*
G02*
X134883000Y-78951000I-250000J0D01*
G01*
X132833000Y-78951000D01*
G75*
G02*
X132583000Y-78701000I0J250000D01*
G01*
X132583000Y-77126000D01*
G75*
G02*
X132833000Y-76876000I250000J0D01*
G01*
G37*
%TD*%
%TO.C,C104*%
G36*
G01*
X171327000Y-75572500D02*
X171827000Y-75572500D01*
G75*
G02*
X172052000Y-75797500I0J-225000D01*
G01*
X172052000Y-76247500D01*
G75*
G02*
X171827000Y-76472500I-225000J0D01*
G01*
X171327000Y-76472500D01*
G75*
G02*
X171102000Y-76247500I0J225000D01*
G01*
X171102000Y-75797500D01*
G75*
G02*
X171327000Y-75572500I225000J0D01*
G01*
G37*
G36*
G01*
X171327000Y-74022500D02*
X171827000Y-74022500D01*
G75*
G02*
X172052000Y-74247500I0J-225000D01*
G01*
X172052000Y-74697500D01*
G75*
G02*
X171827000Y-74922500I-225000J0D01*
G01*
X171327000Y-74922500D01*
G75*
G02*
X171102000Y-74697500I0J225000D01*
G01*
X171102000Y-74247500D01*
G75*
G02*
X171327000Y-74022500I225000J0D01*
G01*
G37*
%TD*%
%TO.C,C99*%
G36*
G01*
X133735000Y-119768500D02*
X134235000Y-119768500D01*
G75*
G02*
X134460000Y-119993500I0J-225000D01*
G01*
X134460000Y-120443500D01*
G75*
G02*
X134235000Y-120668500I-225000J0D01*
G01*
X133735000Y-120668500D01*
G75*
G02*
X133510000Y-120443500I0J225000D01*
G01*
X133510000Y-119993500D01*
G75*
G02*
X133735000Y-119768500I225000J0D01*
G01*
G37*
G36*
G01*
X133735000Y-118218500D02*
X134235000Y-118218500D01*
G75*
G02*
X134460000Y-118443500I0J-225000D01*
G01*
X134460000Y-118893500D01*
G75*
G02*
X134235000Y-119118500I-225000J0D01*
G01*
X133735000Y-119118500D01*
G75*
G02*
X133510000Y-118893500I0J225000D01*
G01*
X133510000Y-118443500D01*
G75*
G02*
X133735000Y-118218500I225000J0D01*
G01*
G37*
%TD*%
%TO.C,C97*%
G36*
G01*
X122357000Y-108843000D02*
X122357000Y-109343000D01*
G75*
G02*
X122132000Y-109568000I-225000J0D01*
G01*
X121682000Y-109568000D01*
G75*
G02*
X121457000Y-109343000I0J225000D01*
G01*
X121457000Y-108843000D01*
G75*
G02*
X121682000Y-108618000I225000J0D01*
G01*
X122132000Y-108618000D01*
G75*
G02*
X122357000Y-108843000I0J-225000D01*
G01*
G37*
G36*
G01*
X123907000Y-108843000D02*
X123907000Y-109343000D01*
G75*
G02*
X123682000Y-109568000I-225000J0D01*
G01*
X123232000Y-109568000D01*
G75*
G02*
X123007000Y-109343000I0J225000D01*
G01*
X123007000Y-108843000D01*
G75*
G02*
X123232000Y-108618000I225000J0D01*
G01*
X123682000Y-108618000D01*
G75*
G02*
X123907000Y-108843000I0J-225000D01*
G01*
G37*
%TD*%
%TO.C,C96*%
G36*
G01*
X122357000Y-93603000D02*
X122357000Y-94103000D01*
G75*
G02*
X122132000Y-94328000I-225000J0D01*
G01*
X121682000Y-94328000D01*
G75*
G02*
X121457000Y-94103000I0J225000D01*
G01*
X121457000Y-93603000D01*
G75*
G02*
X121682000Y-93378000I225000J0D01*
G01*
X122132000Y-93378000D01*
G75*
G02*
X122357000Y-93603000I0J-225000D01*
G01*
G37*
G36*
G01*
X123907000Y-93603000D02*
X123907000Y-94103000D01*
G75*
G02*
X123682000Y-94328000I-225000J0D01*
G01*
X123232000Y-94328000D01*
G75*
G02*
X123007000Y-94103000I0J225000D01*
G01*
X123007000Y-93603000D01*
G75*
G02*
X123232000Y-93378000I225000J0D01*
G01*
X123682000Y-93378000D01*
G75*
G02*
X123907000Y-93603000I0J-225000D01*
G01*
G37*
%TD*%
%TO.C,C93*%
G36*
G01*
X122357000Y-130179000D02*
X122357000Y-130679000D01*
G75*
G02*
X122132000Y-130904000I-225000J0D01*
G01*
X121682000Y-130904000D01*
G75*
G02*
X121457000Y-130679000I0J225000D01*
G01*
X121457000Y-130179000D01*
G75*
G02*
X121682000Y-129954000I225000J0D01*
G01*
X122132000Y-129954000D01*
G75*
G02*
X122357000Y-130179000I0J-225000D01*
G01*
G37*
G36*
G01*
X123907000Y-130179000D02*
X123907000Y-130679000D01*
G75*
G02*
X123682000Y-130904000I-225000J0D01*
G01*
X123232000Y-130904000D01*
G75*
G02*
X123007000Y-130679000I0J225000D01*
G01*
X123007000Y-130179000D01*
G75*
G02*
X123232000Y-129954000I225000J0D01*
G01*
X123682000Y-129954000D01*
G75*
G02*
X123907000Y-130179000I0J-225000D01*
G01*
G37*
%TD*%
%TO.C,C92*%
G36*
G01*
X122370000Y-90555000D02*
X122370000Y-91055000D01*
G75*
G02*
X122145000Y-91280000I-225000J0D01*
G01*
X121695000Y-91280000D01*
G75*
G02*
X121470000Y-91055000I0J225000D01*
G01*
X121470000Y-90555000D01*
G75*
G02*
X121695000Y-90330000I225000J0D01*
G01*
X122145000Y-90330000D01*
G75*
G02*
X122370000Y-90555000I0J-225000D01*
G01*
G37*
G36*
G01*
X123920000Y-90555000D02*
X123920000Y-91055000D01*
G75*
G02*
X123695000Y-91280000I-225000J0D01*
G01*
X123245000Y-91280000D01*
G75*
G02*
X123020000Y-91055000I0J225000D01*
G01*
X123020000Y-90555000D01*
G75*
G02*
X123245000Y-90330000I225000J0D01*
G01*
X123695000Y-90330000D01*
G75*
G02*
X123920000Y-90555000I0J-225000D01*
G01*
G37*
%TD*%
%TO.C,C91*%
G36*
G01*
X133735000Y-103766500D02*
X134235000Y-103766500D01*
G75*
G02*
X134460000Y-103991500I0J-225000D01*
G01*
X134460000Y-104441500D01*
G75*
G02*
X134235000Y-104666500I-225000J0D01*
G01*
X133735000Y-104666500D01*
G75*
G02*
X133510000Y-104441500I0J225000D01*
G01*
X133510000Y-103991500D01*
G75*
G02*
X133735000Y-103766500I225000J0D01*
G01*
G37*
G36*
G01*
X133735000Y-102216500D02*
X134235000Y-102216500D01*
G75*
G02*
X134460000Y-102441500I0J-225000D01*
G01*
X134460000Y-102891500D01*
G75*
G02*
X134235000Y-103116500I-225000J0D01*
G01*
X133735000Y-103116500D01*
G75*
G02*
X133510000Y-102891500I0J225000D01*
G01*
X133510000Y-102441500D01*
G75*
G02*
X133735000Y-102216500I225000J0D01*
G01*
G37*
%TD*%
%TO.C,C90*%
G36*
G01*
X122357000Y-121035000D02*
X122357000Y-121535000D01*
G75*
G02*
X122132000Y-121760000I-225000J0D01*
G01*
X121682000Y-121760000D01*
G75*
G02*
X121457000Y-121535000I0J225000D01*
G01*
X121457000Y-121035000D01*
G75*
G02*
X121682000Y-120810000I225000J0D01*
G01*
X122132000Y-120810000D01*
G75*
G02*
X122357000Y-121035000I0J-225000D01*
G01*
G37*
G36*
G01*
X123907000Y-121035000D02*
X123907000Y-121535000D01*
G75*
G02*
X123682000Y-121760000I-225000J0D01*
G01*
X123232000Y-121760000D01*
G75*
G02*
X123007000Y-121535000I0J225000D01*
G01*
X123007000Y-121035000D01*
G75*
G02*
X123232000Y-120810000I225000J0D01*
G01*
X123682000Y-120810000D01*
G75*
G02*
X123907000Y-121035000I0J-225000D01*
G01*
G37*
%TD*%
%TO.C,C89*%
G36*
G01*
X122357000Y-105795000D02*
X122357000Y-106295000D01*
G75*
G02*
X122132000Y-106520000I-225000J0D01*
G01*
X121682000Y-106520000D01*
G75*
G02*
X121457000Y-106295000I0J225000D01*
G01*
X121457000Y-105795000D01*
G75*
G02*
X121682000Y-105570000I225000J0D01*
G01*
X122132000Y-105570000D01*
G75*
G02*
X122357000Y-105795000I0J-225000D01*
G01*
G37*
G36*
G01*
X123907000Y-105795000D02*
X123907000Y-106295000D01*
G75*
G02*
X123682000Y-106520000I-225000J0D01*
G01*
X123232000Y-106520000D01*
G75*
G02*
X123007000Y-106295000I0J225000D01*
G01*
X123007000Y-105795000D01*
G75*
G02*
X123232000Y-105570000I225000J0D01*
G01*
X123682000Y-105570000D01*
G75*
G02*
X123907000Y-105795000I0J-225000D01*
G01*
G37*
%TD*%
%TO.C,C88*%
G36*
G01*
X122357000Y-87507000D02*
X122357000Y-88007000D01*
G75*
G02*
X122132000Y-88232000I-225000J0D01*
G01*
X121682000Y-88232000D01*
G75*
G02*
X121457000Y-88007000I0J225000D01*
G01*
X121457000Y-87507000D01*
G75*
G02*
X121682000Y-87282000I225000J0D01*
G01*
X122132000Y-87282000D01*
G75*
G02*
X122357000Y-87507000I0J-225000D01*
G01*
G37*
G36*
G01*
X123907000Y-87507000D02*
X123907000Y-88007000D01*
G75*
G02*
X123682000Y-88232000I-225000J0D01*
G01*
X123232000Y-88232000D01*
G75*
G02*
X123007000Y-88007000I0J225000D01*
G01*
X123007000Y-87507000D01*
G75*
G02*
X123232000Y-87282000I225000J0D01*
G01*
X123682000Y-87282000D01*
G75*
G02*
X123907000Y-87507000I0J-225000D01*
G01*
G37*
%TD*%
%TO.C,C86*%
G36*
G01*
X122357000Y-117987000D02*
X122357000Y-118487000D01*
G75*
G02*
X122132000Y-118712000I-225000J0D01*
G01*
X121682000Y-118712000D01*
G75*
G02*
X121457000Y-118487000I0J225000D01*
G01*
X121457000Y-117987000D01*
G75*
G02*
X121682000Y-117762000I225000J0D01*
G01*
X122132000Y-117762000D01*
G75*
G02*
X122357000Y-117987000I0J-225000D01*
G01*
G37*
G36*
G01*
X123907000Y-117987000D02*
X123907000Y-118487000D01*
G75*
G02*
X123682000Y-118712000I-225000J0D01*
G01*
X123232000Y-118712000D01*
G75*
G02*
X123007000Y-118487000I0J225000D01*
G01*
X123007000Y-117987000D01*
G75*
G02*
X123232000Y-117762000I225000J0D01*
G01*
X123682000Y-117762000D01*
G75*
G02*
X123907000Y-117987000I0J-225000D01*
G01*
G37*
%TD*%
%TO.C,C85*%
G36*
G01*
X122357000Y-102747000D02*
X122357000Y-103247000D01*
G75*
G02*
X122132000Y-103472000I-225000J0D01*
G01*
X121682000Y-103472000D01*
G75*
G02*
X121457000Y-103247000I0J225000D01*
G01*
X121457000Y-102747000D01*
G75*
G02*
X121682000Y-102522000I225000J0D01*
G01*
X122132000Y-102522000D01*
G75*
G02*
X122357000Y-102747000I0J-225000D01*
G01*
G37*
G36*
G01*
X123907000Y-102747000D02*
X123907000Y-103247000D01*
G75*
G02*
X123682000Y-103472000I-225000J0D01*
G01*
X123232000Y-103472000D01*
G75*
G02*
X123007000Y-103247000I0J225000D01*
G01*
X123007000Y-102747000D01*
G75*
G02*
X123232000Y-102522000I225000J0D01*
G01*
X123682000Y-102522000D01*
G75*
G02*
X123907000Y-102747000I0J-225000D01*
G01*
G37*
%TD*%
%TO.C,C84*%
G36*
G01*
X122357000Y-84459000D02*
X122357000Y-84959000D01*
G75*
G02*
X122132000Y-85184000I-225000J0D01*
G01*
X121682000Y-85184000D01*
G75*
G02*
X121457000Y-84959000I0J225000D01*
G01*
X121457000Y-84459000D01*
G75*
G02*
X121682000Y-84234000I225000J0D01*
G01*
X122132000Y-84234000D01*
G75*
G02*
X122357000Y-84459000I0J-225000D01*
G01*
G37*
G36*
G01*
X123907000Y-84459000D02*
X123907000Y-84959000D01*
G75*
G02*
X123682000Y-85184000I-225000J0D01*
G01*
X123232000Y-85184000D01*
G75*
G02*
X123007000Y-84959000I0J225000D01*
G01*
X123007000Y-84459000D01*
G75*
G02*
X123232000Y-84234000I225000J0D01*
G01*
X123682000Y-84234000D01*
G75*
G02*
X123907000Y-84459000I0J-225000D01*
G01*
G37*
%TD*%
%TO.C,C83*%
G36*
G01*
X133735000Y-110497500D02*
X134235000Y-110497500D01*
G75*
G02*
X134460000Y-110722500I0J-225000D01*
G01*
X134460000Y-111172500D01*
G75*
G02*
X134235000Y-111397500I-225000J0D01*
G01*
X133735000Y-111397500D01*
G75*
G02*
X133510000Y-111172500I0J225000D01*
G01*
X133510000Y-110722500D01*
G75*
G02*
X133735000Y-110497500I225000J0D01*
G01*
G37*
G36*
G01*
X133735000Y-108947500D02*
X134235000Y-108947500D01*
G75*
G02*
X134460000Y-109172500I0J-225000D01*
G01*
X134460000Y-109622500D01*
G75*
G02*
X134235000Y-109847500I-225000J0D01*
G01*
X133735000Y-109847500D01*
G75*
G02*
X133510000Y-109622500I0J225000D01*
G01*
X133510000Y-109172500D01*
G75*
G02*
X133735000Y-108947500I225000J0D01*
G01*
G37*
%TD*%
%TO.C,C82*%
G36*
G01*
X122357000Y-127131000D02*
X122357000Y-127631000D01*
G75*
G02*
X122132000Y-127856000I-225000J0D01*
G01*
X121682000Y-127856000D01*
G75*
G02*
X121457000Y-127631000I0J225000D01*
G01*
X121457000Y-127131000D01*
G75*
G02*
X121682000Y-126906000I225000J0D01*
G01*
X122132000Y-126906000D01*
G75*
G02*
X122357000Y-127131000I0J-225000D01*
G01*
G37*
G36*
G01*
X123907000Y-127131000D02*
X123907000Y-127631000D01*
G75*
G02*
X123682000Y-127856000I-225000J0D01*
G01*
X123232000Y-127856000D01*
G75*
G02*
X123007000Y-127631000I0J225000D01*
G01*
X123007000Y-127131000D01*
G75*
G02*
X123232000Y-126906000I225000J0D01*
G01*
X123682000Y-126906000D01*
G75*
G02*
X123907000Y-127131000I0J-225000D01*
G01*
G37*
%TD*%
%TO.C,C81*%
G36*
G01*
X122357000Y-114939000D02*
X122357000Y-115439000D01*
G75*
G02*
X122132000Y-115664000I-225000J0D01*
G01*
X121682000Y-115664000D01*
G75*
G02*
X121457000Y-115439000I0J225000D01*
G01*
X121457000Y-114939000D01*
G75*
G02*
X121682000Y-114714000I225000J0D01*
G01*
X122132000Y-114714000D01*
G75*
G02*
X122357000Y-114939000I0J-225000D01*
G01*
G37*
G36*
G01*
X123907000Y-114939000D02*
X123907000Y-115439000D01*
G75*
G02*
X123682000Y-115664000I-225000J0D01*
G01*
X123232000Y-115664000D01*
G75*
G02*
X123007000Y-115439000I0J225000D01*
G01*
X123007000Y-114939000D01*
G75*
G02*
X123232000Y-114714000I225000J0D01*
G01*
X123682000Y-114714000D01*
G75*
G02*
X123907000Y-114939000I0J-225000D01*
G01*
G37*
%TD*%
%TO.C,C80*%
G36*
G01*
X122357000Y-99699000D02*
X122357000Y-100199000D01*
G75*
G02*
X122132000Y-100424000I-225000J0D01*
G01*
X121682000Y-100424000D01*
G75*
G02*
X121457000Y-100199000I0J225000D01*
G01*
X121457000Y-99699000D01*
G75*
G02*
X121682000Y-99474000I225000J0D01*
G01*
X122132000Y-99474000D01*
G75*
G02*
X122357000Y-99699000I0J-225000D01*
G01*
G37*
G36*
G01*
X123907000Y-99699000D02*
X123907000Y-100199000D01*
G75*
G02*
X123682000Y-100424000I-225000J0D01*
G01*
X123232000Y-100424000D01*
G75*
G02*
X123007000Y-100199000I0J225000D01*
G01*
X123007000Y-99699000D01*
G75*
G02*
X123232000Y-99474000I225000J0D01*
G01*
X123682000Y-99474000D01*
G75*
G02*
X123907000Y-99699000I0J-225000D01*
G01*
G37*
%TD*%
%TO.C,C79*%
G36*
G01*
X122357000Y-81411000D02*
X122357000Y-81911000D01*
G75*
G02*
X122132000Y-82136000I-225000J0D01*
G01*
X121682000Y-82136000D01*
G75*
G02*
X121457000Y-81911000I0J225000D01*
G01*
X121457000Y-81411000D01*
G75*
G02*
X121682000Y-81186000I225000J0D01*
G01*
X122132000Y-81186000D01*
G75*
G02*
X122357000Y-81411000I0J-225000D01*
G01*
G37*
G36*
G01*
X123907000Y-81411000D02*
X123907000Y-81911000D01*
G75*
G02*
X123682000Y-82136000I-225000J0D01*
G01*
X123232000Y-82136000D01*
G75*
G02*
X123007000Y-81911000I0J225000D01*
G01*
X123007000Y-81411000D01*
G75*
G02*
X123232000Y-81186000I225000J0D01*
G01*
X123682000Y-81186000D01*
G75*
G02*
X123907000Y-81411000I0J-225000D01*
G01*
G37*
%TD*%
%TO.C,C77*%
G36*
G01*
X122357000Y-124083000D02*
X122357000Y-124583000D01*
G75*
G02*
X122132000Y-124808000I-225000J0D01*
G01*
X121682000Y-124808000D01*
G75*
G02*
X121457000Y-124583000I0J225000D01*
G01*
X121457000Y-124083000D01*
G75*
G02*
X121682000Y-123858000I225000J0D01*
G01*
X122132000Y-123858000D01*
G75*
G02*
X122357000Y-124083000I0J-225000D01*
G01*
G37*
G36*
G01*
X123907000Y-124083000D02*
X123907000Y-124583000D01*
G75*
G02*
X123682000Y-124808000I-225000J0D01*
G01*
X123232000Y-124808000D01*
G75*
G02*
X123007000Y-124583000I0J225000D01*
G01*
X123007000Y-124083000D01*
G75*
G02*
X123232000Y-123858000I225000J0D01*
G01*
X123682000Y-123858000D01*
G75*
G02*
X123907000Y-124083000I0J-225000D01*
G01*
G37*
%TD*%
%TO.C,C76*%
G36*
G01*
X122357000Y-111891000D02*
X122357000Y-112391000D01*
G75*
G02*
X122132000Y-112616000I-225000J0D01*
G01*
X121682000Y-112616000D01*
G75*
G02*
X121457000Y-112391000I0J225000D01*
G01*
X121457000Y-111891000D01*
G75*
G02*
X121682000Y-111666000I225000J0D01*
G01*
X122132000Y-111666000D01*
G75*
G02*
X122357000Y-111891000I0J-225000D01*
G01*
G37*
G36*
G01*
X123907000Y-111891000D02*
X123907000Y-112391000D01*
G75*
G02*
X123682000Y-112616000I-225000J0D01*
G01*
X123232000Y-112616000D01*
G75*
G02*
X123007000Y-112391000I0J225000D01*
G01*
X123007000Y-111891000D01*
G75*
G02*
X123232000Y-111666000I225000J0D01*
G01*
X123682000Y-111666000D01*
G75*
G02*
X123907000Y-111891000I0J-225000D01*
G01*
G37*
%TD*%
%TO.C,C75*%
G36*
G01*
X122357000Y-96651000D02*
X122357000Y-97151000D01*
G75*
G02*
X122132000Y-97376000I-225000J0D01*
G01*
X121682000Y-97376000D01*
G75*
G02*
X121457000Y-97151000I0J225000D01*
G01*
X121457000Y-96651000D01*
G75*
G02*
X121682000Y-96426000I225000J0D01*
G01*
X122132000Y-96426000D01*
G75*
G02*
X122357000Y-96651000I0J-225000D01*
G01*
G37*
G36*
G01*
X123907000Y-96651000D02*
X123907000Y-97151000D01*
G75*
G02*
X123682000Y-97376000I-225000J0D01*
G01*
X123232000Y-97376000D01*
G75*
G02*
X123007000Y-97151000I0J225000D01*
G01*
X123007000Y-96651000D01*
G75*
G02*
X123232000Y-96426000I225000J0D01*
G01*
X123682000Y-96426000D01*
G75*
G02*
X123907000Y-96651000I0J-225000D01*
G01*
G37*
%TD*%
%TO.C,C74*%
G36*
G01*
X122357000Y-78363000D02*
X122357000Y-78863000D01*
G75*
G02*
X122132000Y-79088000I-225000J0D01*
G01*
X121682000Y-79088000D01*
G75*
G02*
X121457000Y-78863000I0J225000D01*
G01*
X121457000Y-78363000D01*
G75*
G02*
X121682000Y-78138000I225000J0D01*
G01*
X122132000Y-78138000D01*
G75*
G02*
X122357000Y-78363000I0J-225000D01*
G01*
G37*
G36*
G01*
X123907000Y-78363000D02*
X123907000Y-78863000D01*
G75*
G02*
X123682000Y-79088000I-225000J0D01*
G01*
X123232000Y-79088000D01*
G75*
G02*
X123007000Y-78863000I0J225000D01*
G01*
X123007000Y-78363000D01*
G75*
G02*
X123232000Y-78138000I225000J0D01*
G01*
X123682000Y-78138000D01*
G75*
G02*
X123907000Y-78363000I0J-225000D01*
G01*
G37*
%TD*%
%TO.C,C71*%
G36*
G01*
X168600000Y-123059000D02*
X168600000Y-122559000D01*
G75*
G02*
X168825000Y-122334000I225000J0D01*
G01*
X169275000Y-122334000D01*
G75*
G02*
X169500000Y-122559000I0J-225000D01*
G01*
X169500000Y-123059000D01*
G75*
G02*
X169275000Y-123284000I-225000J0D01*
G01*
X168825000Y-123284000D01*
G75*
G02*
X168600000Y-123059000I0J225000D01*
G01*
G37*
G36*
G01*
X167050000Y-123059000D02*
X167050000Y-122559000D01*
G75*
G02*
X167275000Y-122334000I225000J0D01*
G01*
X167725000Y-122334000D01*
G75*
G02*
X167950000Y-122559000I0J-225000D01*
G01*
X167950000Y-123059000D01*
G75*
G02*
X167725000Y-123284000I-225000J0D01*
G01*
X167275000Y-123284000D01*
G75*
G02*
X167050000Y-123059000I0J225000D01*
G01*
G37*
%TD*%
%TO.C,C70*%
G36*
G01*
X168600000Y-110867000D02*
X168600000Y-110367000D01*
G75*
G02*
X168825000Y-110142000I225000J0D01*
G01*
X169275000Y-110142000D01*
G75*
G02*
X169500000Y-110367000I0J-225000D01*
G01*
X169500000Y-110867000D01*
G75*
G02*
X169275000Y-111092000I-225000J0D01*
G01*
X168825000Y-111092000D01*
G75*
G02*
X168600000Y-110867000I0J225000D01*
G01*
G37*
G36*
G01*
X167050000Y-110867000D02*
X167050000Y-110367000D01*
G75*
G02*
X167275000Y-110142000I225000J0D01*
G01*
X167725000Y-110142000D01*
G75*
G02*
X167950000Y-110367000I0J-225000D01*
G01*
X167950000Y-110867000D01*
G75*
G02*
X167725000Y-111092000I-225000J0D01*
G01*
X167275000Y-111092000D01*
G75*
G02*
X167050000Y-110867000I0J225000D01*
G01*
G37*
%TD*%
%TO.C,C69*%
G36*
G01*
X160330000Y-114939000D02*
X160330000Y-115439000D01*
G75*
G02*
X160105000Y-115664000I-225000J0D01*
G01*
X159655000Y-115664000D01*
G75*
G02*
X159430000Y-115439000I0J225000D01*
G01*
X159430000Y-114939000D01*
G75*
G02*
X159655000Y-114714000I225000J0D01*
G01*
X160105000Y-114714000D01*
G75*
G02*
X160330000Y-114939000I0J-225000D01*
G01*
G37*
G36*
G01*
X161880000Y-114939000D02*
X161880000Y-115439000D01*
G75*
G02*
X161655000Y-115664000I-225000J0D01*
G01*
X161205000Y-115664000D01*
G75*
G02*
X160980000Y-115439000I0J225000D01*
G01*
X160980000Y-114939000D01*
G75*
G02*
X161205000Y-114714000I225000J0D01*
G01*
X161655000Y-114714000D01*
G75*
G02*
X161880000Y-114939000I0J-225000D01*
G01*
G37*
%TD*%
%TO.C,C68*%
G36*
G01*
X168600000Y-116963000D02*
X168600000Y-116463000D01*
G75*
G02*
X168825000Y-116238000I225000J0D01*
G01*
X169275000Y-116238000D01*
G75*
G02*
X169500000Y-116463000I0J-225000D01*
G01*
X169500000Y-116963000D01*
G75*
G02*
X169275000Y-117188000I-225000J0D01*
G01*
X168825000Y-117188000D01*
G75*
G02*
X168600000Y-116963000I0J225000D01*
G01*
G37*
G36*
G01*
X167050000Y-116963000D02*
X167050000Y-116463000D01*
G75*
G02*
X167275000Y-116238000I225000J0D01*
G01*
X167725000Y-116238000D01*
G75*
G02*
X167950000Y-116463000I0J-225000D01*
G01*
X167950000Y-116963000D01*
G75*
G02*
X167725000Y-117188000I-225000J0D01*
G01*
X167275000Y-117188000D01*
G75*
G02*
X167050000Y-116963000I0J225000D01*
G01*
G37*
%TD*%
%TO.C,C67*%
G36*
G01*
X160330000Y-111891000D02*
X160330000Y-112391000D01*
G75*
G02*
X160105000Y-112616000I-225000J0D01*
G01*
X159655000Y-112616000D01*
G75*
G02*
X159430000Y-112391000I0J225000D01*
G01*
X159430000Y-111891000D01*
G75*
G02*
X159655000Y-111666000I225000J0D01*
G01*
X160105000Y-111666000D01*
G75*
G02*
X160330000Y-111891000I0J-225000D01*
G01*
G37*
G36*
G01*
X161880000Y-111891000D02*
X161880000Y-112391000D01*
G75*
G02*
X161655000Y-112616000I-225000J0D01*
G01*
X161205000Y-112616000D01*
G75*
G02*
X160980000Y-112391000I0J225000D01*
G01*
X160980000Y-111891000D01*
G75*
G02*
X161205000Y-111666000I225000J0D01*
G01*
X161655000Y-111666000D01*
G75*
G02*
X161880000Y-111891000I0J-225000D01*
G01*
G37*
%TD*%
%TO.C,C66*%
G36*
G01*
X160330000Y-136275000D02*
X160330000Y-136775000D01*
G75*
G02*
X160105000Y-137000000I-225000J0D01*
G01*
X159655000Y-137000000D01*
G75*
G02*
X159430000Y-136775000I0J225000D01*
G01*
X159430000Y-136275000D01*
G75*
G02*
X159655000Y-136050000I225000J0D01*
G01*
X160105000Y-136050000D01*
G75*
G02*
X160330000Y-136275000I0J-225000D01*
G01*
G37*
G36*
G01*
X161880000Y-136275000D02*
X161880000Y-136775000D01*
G75*
G02*
X161655000Y-137000000I-225000J0D01*
G01*
X161205000Y-137000000D01*
G75*
G02*
X160980000Y-136775000I0J225000D01*
G01*
X160980000Y-136275000D01*
G75*
G02*
X161205000Y-136050000I225000J0D01*
G01*
X161655000Y-136050000D01*
G75*
G02*
X161880000Y-136275000I0J-225000D01*
G01*
G37*
%TD*%
%TO.C,C65*%
G36*
G01*
X168600000Y-129155000D02*
X168600000Y-128655000D01*
G75*
G02*
X168825000Y-128430000I225000J0D01*
G01*
X169275000Y-128430000D01*
G75*
G02*
X169500000Y-128655000I0J-225000D01*
G01*
X169500000Y-129155000D01*
G75*
G02*
X169275000Y-129380000I-225000J0D01*
G01*
X168825000Y-129380000D01*
G75*
G02*
X168600000Y-129155000I0J225000D01*
G01*
G37*
G36*
G01*
X167050000Y-129155000D02*
X167050000Y-128655000D01*
G75*
G02*
X167275000Y-128430000I225000J0D01*
G01*
X167725000Y-128430000D01*
G75*
G02*
X167950000Y-128655000I0J-225000D01*
G01*
X167950000Y-129155000D01*
G75*
G02*
X167725000Y-129380000I-225000J0D01*
G01*
X167275000Y-129380000D01*
G75*
G02*
X167050000Y-129155000I0J225000D01*
G01*
G37*
%TD*%
%TO.C,C64*%
G36*
G01*
X168600000Y-104771000D02*
X168600000Y-104271000D01*
G75*
G02*
X168825000Y-104046000I225000J0D01*
G01*
X169275000Y-104046000D01*
G75*
G02*
X169500000Y-104271000I0J-225000D01*
G01*
X169500000Y-104771000D01*
G75*
G02*
X169275000Y-104996000I-225000J0D01*
G01*
X168825000Y-104996000D01*
G75*
G02*
X168600000Y-104771000I0J225000D01*
G01*
G37*
G36*
G01*
X167050000Y-104771000D02*
X167050000Y-104271000D01*
G75*
G02*
X167275000Y-104046000I225000J0D01*
G01*
X167725000Y-104046000D01*
G75*
G02*
X167950000Y-104271000I0J-225000D01*
G01*
X167950000Y-104771000D01*
G75*
G02*
X167725000Y-104996000I-225000J0D01*
G01*
X167275000Y-104996000D01*
G75*
G02*
X167050000Y-104771000I0J225000D01*
G01*
G37*
%TD*%
%TO.C,C63*%
G36*
G01*
X160330000Y-108843000D02*
X160330000Y-109343000D01*
G75*
G02*
X160105000Y-109568000I-225000J0D01*
G01*
X159655000Y-109568000D01*
G75*
G02*
X159430000Y-109343000I0J225000D01*
G01*
X159430000Y-108843000D01*
G75*
G02*
X159655000Y-108618000I225000J0D01*
G01*
X160105000Y-108618000D01*
G75*
G02*
X160330000Y-108843000I0J-225000D01*
G01*
G37*
G36*
G01*
X161880000Y-108843000D02*
X161880000Y-109343000D01*
G75*
G02*
X161655000Y-109568000I-225000J0D01*
G01*
X161205000Y-109568000D01*
G75*
G02*
X160980000Y-109343000I0J225000D01*
G01*
X160980000Y-108843000D01*
G75*
G02*
X161205000Y-108618000I225000J0D01*
G01*
X161655000Y-108618000D01*
G75*
G02*
X161880000Y-108843000I0J-225000D01*
G01*
G37*
%TD*%
%TO.C,C62*%
G36*
G01*
X160330000Y-133227000D02*
X160330000Y-133727000D01*
G75*
G02*
X160105000Y-133952000I-225000J0D01*
G01*
X159655000Y-133952000D01*
G75*
G02*
X159430000Y-133727000I0J225000D01*
G01*
X159430000Y-133227000D01*
G75*
G02*
X159655000Y-133002000I225000J0D01*
G01*
X160105000Y-133002000D01*
G75*
G02*
X160330000Y-133227000I0J-225000D01*
G01*
G37*
G36*
G01*
X161880000Y-133227000D02*
X161880000Y-133727000D01*
G75*
G02*
X161655000Y-133952000I-225000J0D01*
G01*
X161205000Y-133952000D01*
G75*
G02*
X160980000Y-133727000I0J225000D01*
G01*
X160980000Y-133227000D01*
G75*
G02*
X161205000Y-133002000I225000J0D01*
G01*
X161655000Y-133002000D01*
G75*
G02*
X161880000Y-133227000I0J-225000D01*
G01*
G37*
%TD*%
%TO.C,C61*%
G36*
G01*
X160330000Y-105795000D02*
X160330000Y-106295000D01*
G75*
G02*
X160105000Y-106520000I-225000J0D01*
G01*
X159655000Y-106520000D01*
G75*
G02*
X159430000Y-106295000I0J225000D01*
G01*
X159430000Y-105795000D01*
G75*
G02*
X159655000Y-105570000I225000J0D01*
G01*
X160105000Y-105570000D01*
G75*
G02*
X160330000Y-105795000I0J-225000D01*
G01*
G37*
G36*
G01*
X161880000Y-105795000D02*
X161880000Y-106295000D01*
G75*
G02*
X161655000Y-106520000I-225000J0D01*
G01*
X161205000Y-106520000D01*
G75*
G02*
X160980000Y-106295000I0J225000D01*
G01*
X160980000Y-105795000D01*
G75*
G02*
X161205000Y-105570000I225000J0D01*
G01*
X161655000Y-105570000D01*
G75*
G02*
X161880000Y-105795000I0J-225000D01*
G01*
G37*
%TD*%
%TO.C,C60*%
G36*
G01*
X160330000Y-130179000D02*
X160330000Y-130679000D01*
G75*
G02*
X160105000Y-130904000I-225000J0D01*
G01*
X159655000Y-130904000D01*
G75*
G02*
X159430000Y-130679000I0J225000D01*
G01*
X159430000Y-130179000D01*
G75*
G02*
X159655000Y-129954000I225000J0D01*
G01*
X160105000Y-129954000D01*
G75*
G02*
X160330000Y-130179000I0J-225000D01*
G01*
G37*
G36*
G01*
X161880000Y-130179000D02*
X161880000Y-130679000D01*
G75*
G02*
X161655000Y-130904000I-225000J0D01*
G01*
X161205000Y-130904000D01*
G75*
G02*
X160980000Y-130679000I0J225000D01*
G01*
X160980000Y-130179000D01*
G75*
G02*
X161205000Y-129954000I225000J0D01*
G01*
X161655000Y-129954000D01*
G75*
G02*
X161880000Y-130179000I0J-225000D01*
G01*
G37*
%TD*%
%TO.C,C59*%
G36*
G01*
X160330000Y-102747000D02*
X160330000Y-103247000D01*
G75*
G02*
X160105000Y-103472000I-225000J0D01*
G01*
X159655000Y-103472000D01*
G75*
G02*
X159430000Y-103247000I0J225000D01*
G01*
X159430000Y-102747000D01*
G75*
G02*
X159655000Y-102522000I225000J0D01*
G01*
X160105000Y-102522000D01*
G75*
G02*
X160330000Y-102747000I0J-225000D01*
G01*
G37*
G36*
G01*
X161880000Y-102747000D02*
X161880000Y-103247000D01*
G75*
G02*
X161655000Y-103472000I-225000J0D01*
G01*
X161205000Y-103472000D01*
G75*
G02*
X160980000Y-103247000I0J225000D01*
G01*
X160980000Y-102747000D01*
G75*
G02*
X161205000Y-102522000I225000J0D01*
G01*
X161655000Y-102522000D01*
G75*
G02*
X161880000Y-102747000I0J-225000D01*
G01*
G37*
%TD*%
%TO.C,C58*%
G36*
G01*
X160330000Y-127131000D02*
X160330000Y-127631000D01*
G75*
G02*
X160105000Y-127856000I-225000J0D01*
G01*
X159655000Y-127856000D01*
G75*
G02*
X159430000Y-127631000I0J225000D01*
G01*
X159430000Y-127131000D01*
G75*
G02*
X159655000Y-126906000I225000J0D01*
G01*
X160105000Y-126906000D01*
G75*
G02*
X160330000Y-127131000I0J-225000D01*
G01*
G37*
G36*
G01*
X161880000Y-127131000D02*
X161880000Y-127631000D01*
G75*
G02*
X161655000Y-127856000I-225000J0D01*
G01*
X161205000Y-127856000D01*
G75*
G02*
X160980000Y-127631000I0J225000D01*
G01*
X160980000Y-127131000D01*
G75*
G02*
X161205000Y-126906000I225000J0D01*
G01*
X161655000Y-126906000D01*
G75*
G02*
X161880000Y-127131000I0J-225000D01*
G01*
G37*
%TD*%
%TO.C,C57*%
G36*
G01*
X160330000Y-99699000D02*
X160330000Y-100199000D01*
G75*
G02*
X160105000Y-100424000I-225000J0D01*
G01*
X159655000Y-100424000D01*
G75*
G02*
X159430000Y-100199000I0J225000D01*
G01*
X159430000Y-99699000D01*
G75*
G02*
X159655000Y-99474000I225000J0D01*
G01*
X160105000Y-99474000D01*
G75*
G02*
X160330000Y-99699000I0J-225000D01*
G01*
G37*
G36*
G01*
X161880000Y-99699000D02*
X161880000Y-100199000D01*
G75*
G02*
X161655000Y-100424000I-225000J0D01*
G01*
X161205000Y-100424000D01*
G75*
G02*
X160980000Y-100199000I0J225000D01*
G01*
X160980000Y-99699000D01*
G75*
G02*
X161205000Y-99474000I225000J0D01*
G01*
X161655000Y-99474000D01*
G75*
G02*
X161880000Y-99699000I0J-225000D01*
G01*
G37*
%TD*%
%TO.C,C56*%
G36*
G01*
X160330000Y-124083000D02*
X160330000Y-124583000D01*
G75*
G02*
X160105000Y-124808000I-225000J0D01*
G01*
X159655000Y-124808000D01*
G75*
G02*
X159430000Y-124583000I0J225000D01*
G01*
X159430000Y-124083000D01*
G75*
G02*
X159655000Y-123858000I225000J0D01*
G01*
X160105000Y-123858000D01*
G75*
G02*
X160330000Y-124083000I0J-225000D01*
G01*
G37*
G36*
G01*
X161880000Y-124083000D02*
X161880000Y-124583000D01*
G75*
G02*
X161655000Y-124808000I-225000J0D01*
G01*
X161205000Y-124808000D01*
G75*
G02*
X160980000Y-124583000I0J225000D01*
G01*
X160980000Y-124083000D01*
G75*
G02*
X161205000Y-123858000I225000J0D01*
G01*
X161655000Y-123858000D01*
G75*
G02*
X161880000Y-124083000I0J-225000D01*
G01*
G37*
%TD*%
%TO.C,C55*%
G36*
G01*
X160330000Y-96651000D02*
X160330000Y-97151000D01*
G75*
G02*
X160105000Y-97376000I-225000J0D01*
G01*
X159655000Y-97376000D01*
G75*
G02*
X159430000Y-97151000I0J225000D01*
G01*
X159430000Y-96651000D01*
G75*
G02*
X159655000Y-96426000I225000J0D01*
G01*
X160105000Y-96426000D01*
G75*
G02*
X160330000Y-96651000I0J-225000D01*
G01*
G37*
G36*
G01*
X161880000Y-96651000D02*
X161880000Y-97151000D01*
G75*
G02*
X161655000Y-97376000I-225000J0D01*
G01*
X161205000Y-97376000D01*
G75*
G02*
X160980000Y-97151000I0J225000D01*
G01*
X160980000Y-96651000D01*
G75*
G02*
X161205000Y-96426000I225000J0D01*
G01*
X161655000Y-96426000D01*
G75*
G02*
X161880000Y-96651000I0J-225000D01*
G01*
G37*
%TD*%
%TO.C,C54*%
G36*
G01*
X160330000Y-121035000D02*
X160330000Y-121535000D01*
G75*
G02*
X160105000Y-121760000I-225000J0D01*
G01*
X159655000Y-121760000D01*
G75*
G02*
X159430000Y-121535000I0J225000D01*
G01*
X159430000Y-121035000D01*
G75*
G02*
X159655000Y-120810000I225000J0D01*
G01*
X160105000Y-120810000D01*
G75*
G02*
X160330000Y-121035000I0J-225000D01*
G01*
G37*
G36*
G01*
X161880000Y-121035000D02*
X161880000Y-121535000D01*
G75*
G02*
X161655000Y-121760000I-225000J0D01*
G01*
X161205000Y-121760000D01*
G75*
G02*
X160980000Y-121535000I0J225000D01*
G01*
X160980000Y-121035000D01*
G75*
G02*
X161205000Y-120810000I225000J0D01*
G01*
X161655000Y-120810000D01*
G75*
G02*
X161880000Y-121035000I0J-225000D01*
G01*
G37*
%TD*%
%TO.C,C53*%
G36*
G01*
X160330000Y-93603000D02*
X160330000Y-94103000D01*
G75*
G02*
X160105000Y-94328000I-225000J0D01*
G01*
X159655000Y-94328000D01*
G75*
G02*
X159430000Y-94103000I0J225000D01*
G01*
X159430000Y-93603000D01*
G75*
G02*
X159655000Y-93378000I225000J0D01*
G01*
X160105000Y-93378000D01*
G75*
G02*
X160330000Y-93603000I0J-225000D01*
G01*
G37*
G36*
G01*
X161880000Y-93603000D02*
X161880000Y-94103000D01*
G75*
G02*
X161655000Y-94328000I-225000J0D01*
G01*
X161205000Y-94328000D01*
G75*
G02*
X160980000Y-94103000I0J225000D01*
G01*
X160980000Y-93603000D01*
G75*
G02*
X161205000Y-93378000I225000J0D01*
G01*
X161655000Y-93378000D01*
G75*
G02*
X161880000Y-93603000I0J-225000D01*
G01*
G37*
%TD*%
%TO.C,C52*%
G36*
G01*
X160330000Y-117987000D02*
X160330000Y-118487000D01*
G75*
G02*
X160105000Y-118712000I-225000J0D01*
G01*
X159655000Y-118712000D01*
G75*
G02*
X159430000Y-118487000I0J225000D01*
G01*
X159430000Y-117987000D01*
G75*
G02*
X159655000Y-117762000I225000J0D01*
G01*
X160105000Y-117762000D01*
G75*
G02*
X160330000Y-117987000I0J-225000D01*
G01*
G37*
G36*
G01*
X161880000Y-117987000D02*
X161880000Y-118487000D01*
G75*
G02*
X161655000Y-118712000I-225000J0D01*
G01*
X161205000Y-118712000D01*
G75*
G02*
X160980000Y-118487000I0J225000D01*
G01*
X160980000Y-117987000D01*
G75*
G02*
X161205000Y-117762000I225000J0D01*
G01*
X161655000Y-117762000D01*
G75*
G02*
X161880000Y-117987000I0J-225000D01*
G01*
G37*
%TD*%
%TO.C,C51*%
G36*
G01*
X160330000Y-90555000D02*
X160330000Y-91055000D01*
G75*
G02*
X160105000Y-91280000I-225000J0D01*
G01*
X159655000Y-91280000D01*
G75*
G02*
X159430000Y-91055000I0J225000D01*
G01*
X159430000Y-90555000D01*
G75*
G02*
X159655000Y-90330000I225000J0D01*
G01*
X160105000Y-90330000D01*
G75*
G02*
X160330000Y-90555000I0J-225000D01*
G01*
G37*
G36*
G01*
X161880000Y-90555000D02*
X161880000Y-91055000D01*
G75*
G02*
X161655000Y-91280000I-225000J0D01*
G01*
X161205000Y-91280000D01*
G75*
G02*
X160980000Y-91055000I0J225000D01*
G01*
X160980000Y-90555000D01*
G75*
G02*
X161205000Y-90330000I225000J0D01*
G01*
X161655000Y-90330000D01*
G75*
G02*
X161880000Y-90555000I0J-225000D01*
G01*
G37*
%TD*%
%TO.C,C47*%
G36*
G01*
X179328000Y-130627000D02*
X179828000Y-130627000D01*
G75*
G02*
X180053000Y-130852000I0J-225000D01*
G01*
X180053000Y-131302000D01*
G75*
G02*
X179828000Y-131527000I-225000J0D01*
G01*
X179328000Y-131527000D01*
G75*
G02*
X179103000Y-131302000I0J225000D01*
G01*
X179103000Y-130852000D01*
G75*
G02*
X179328000Y-130627000I225000J0D01*
G01*
G37*
G36*
G01*
X179328000Y-129077000D02*
X179828000Y-129077000D01*
G75*
G02*
X180053000Y-129302000I0J-225000D01*
G01*
X180053000Y-129752000D01*
G75*
G02*
X179828000Y-129977000I-225000J0D01*
G01*
X179328000Y-129977000D01*
G75*
G02*
X179103000Y-129752000I0J225000D01*
G01*
X179103000Y-129302000D01*
G75*
G02*
X179328000Y-129077000I225000J0D01*
G01*
G37*
%TD*%
%TO.C,C46*%
G36*
G01*
X179903000Y-125980000D02*
X179903000Y-125480000D01*
G75*
G02*
X180128000Y-125255000I225000J0D01*
G01*
X180578000Y-125255000D01*
G75*
G02*
X180803000Y-125480000I0J-225000D01*
G01*
X180803000Y-125980000D01*
G75*
G02*
X180578000Y-126205000I-225000J0D01*
G01*
X180128000Y-126205000D01*
G75*
G02*
X179903000Y-125980000I0J225000D01*
G01*
G37*
G36*
G01*
X178353000Y-125980000D02*
X178353000Y-125480000D01*
G75*
G02*
X178578000Y-125255000I225000J0D01*
G01*
X179028000Y-125255000D01*
G75*
G02*
X179253000Y-125480000I0J-225000D01*
G01*
X179253000Y-125980000D01*
G75*
G02*
X179028000Y-126205000I-225000J0D01*
G01*
X178578000Y-126205000D01*
G75*
G02*
X178353000Y-125980000I0J225000D01*
G01*
G37*
%TD*%
%TO.C,C23*%
G36*
G01*
X150372000Y-112339000D02*
X150872000Y-112339000D01*
G75*
G02*
X151097000Y-112564000I0J-225000D01*
G01*
X151097000Y-113014000D01*
G75*
G02*
X150872000Y-113239000I-225000J0D01*
G01*
X150372000Y-113239000D01*
G75*
G02*
X150147000Y-113014000I0J225000D01*
G01*
X150147000Y-112564000D01*
G75*
G02*
X150372000Y-112339000I225000J0D01*
G01*
G37*
G36*
G01*
X150372000Y-110789000D02*
X150872000Y-110789000D01*
G75*
G02*
X151097000Y-111014000I0J-225000D01*
G01*
X151097000Y-111464000D01*
G75*
G02*
X150872000Y-111689000I-225000J0D01*
G01*
X150372000Y-111689000D01*
G75*
G02*
X150147000Y-111464000I0J225000D01*
G01*
X150147000Y-111014000D01*
G75*
G02*
X150372000Y-110789000I225000J0D01*
G01*
G37*
%TD*%
%TO.C,C22*%
G36*
G01*
X150372000Y-87574000D02*
X150872000Y-87574000D01*
G75*
G02*
X151097000Y-87799000I0J-225000D01*
G01*
X151097000Y-88249000D01*
G75*
G02*
X150872000Y-88474000I-225000J0D01*
G01*
X150372000Y-88474000D01*
G75*
G02*
X150147000Y-88249000I0J225000D01*
G01*
X150147000Y-87799000D01*
G75*
G02*
X150372000Y-87574000I225000J0D01*
G01*
G37*
G36*
G01*
X150372000Y-86024000D02*
X150872000Y-86024000D01*
G75*
G02*
X151097000Y-86249000I0J-225000D01*
G01*
X151097000Y-86699000D01*
G75*
G02*
X150872000Y-86924000I-225000J0D01*
G01*
X150372000Y-86924000D01*
G75*
G02*
X150147000Y-86699000I0J225000D01*
G01*
X150147000Y-86249000D01*
G75*
G02*
X150372000Y-86024000I225000J0D01*
G01*
G37*
%TD*%
%TO.C,C21*%
G36*
G01*
X150551000Y-96905000D02*
X150551000Y-97405000D01*
G75*
G02*
X150326000Y-97630000I-225000J0D01*
G01*
X149876000Y-97630000D01*
G75*
G02*
X149651000Y-97405000I0J225000D01*
G01*
X149651000Y-96905000D01*
G75*
G02*
X149876000Y-96680000I225000J0D01*
G01*
X150326000Y-96680000D01*
G75*
G02*
X150551000Y-96905000I0J-225000D01*
G01*
G37*
G36*
G01*
X152101000Y-96905000D02*
X152101000Y-97405000D01*
G75*
G02*
X151876000Y-97630000I-225000J0D01*
G01*
X151426000Y-97630000D01*
G75*
G02*
X151201000Y-97405000I0J225000D01*
G01*
X151201000Y-96905000D01*
G75*
G02*
X151426000Y-96680000I225000J0D01*
G01*
X151876000Y-96680000D01*
G75*
G02*
X152101000Y-96905000I0J-225000D01*
G01*
G37*
%TD*%
%TO.C,C20*%
G36*
G01*
X151126000Y-135311000D02*
X150626000Y-135311000D01*
G75*
G02*
X150401000Y-135086000I0J225000D01*
G01*
X150401000Y-134636000D01*
G75*
G02*
X150626000Y-134411000I225000J0D01*
G01*
X151126000Y-134411000D01*
G75*
G02*
X151351000Y-134636000I0J-225000D01*
G01*
X151351000Y-135086000D01*
G75*
G02*
X151126000Y-135311000I-225000J0D01*
G01*
G37*
G36*
G01*
X151126000Y-136861000D02*
X150626000Y-136861000D01*
G75*
G02*
X150401000Y-136636000I0J225000D01*
G01*
X150401000Y-136186000D01*
G75*
G02*
X150626000Y-135961000I225000J0D01*
G01*
X151126000Y-135961000D01*
G75*
G02*
X151351000Y-136186000I0J-225000D01*
G01*
X151351000Y-136636000D01*
G75*
G02*
X151126000Y-136861000I-225000J0D01*
G01*
G37*
%TD*%
%TO.C,C19*%
G36*
G01*
X150551000Y-121289000D02*
X150551000Y-121789000D01*
G75*
G02*
X150326000Y-122014000I-225000J0D01*
G01*
X149876000Y-122014000D01*
G75*
G02*
X149651000Y-121789000I0J225000D01*
G01*
X149651000Y-121289000D01*
G75*
G02*
X149876000Y-121064000I225000J0D01*
G01*
X150326000Y-121064000D01*
G75*
G02*
X150551000Y-121289000I0J-225000D01*
G01*
G37*
G36*
G01*
X152101000Y-121289000D02*
X152101000Y-121789000D01*
G75*
G02*
X151876000Y-122014000I-225000J0D01*
G01*
X151426000Y-122014000D01*
G75*
G02*
X151201000Y-121789000I0J225000D01*
G01*
X151201000Y-121289000D01*
G75*
G02*
X151426000Y-121064000I225000J0D01*
G01*
X151876000Y-121064000D01*
G75*
G02*
X152101000Y-121289000I0J-225000D01*
G01*
G37*
%TD*%
%TO.C,C16*%
G36*
G01*
X168600000Y-98802000D02*
X168600000Y-98302000D01*
G75*
G02*
X168825000Y-98077000I225000J0D01*
G01*
X169275000Y-98077000D01*
G75*
G02*
X169500000Y-98302000I0J-225000D01*
G01*
X169500000Y-98802000D01*
G75*
G02*
X169275000Y-99027000I-225000J0D01*
G01*
X168825000Y-99027000D01*
G75*
G02*
X168600000Y-98802000I0J225000D01*
G01*
G37*
G36*
G01*
X167050000Y-98802000D02*
X167050000Y-98302000D01*
G75*
G02*
X167275000Y-98077000I225000J0D01*
G01*
X167725000Y-98077000D01*
G75*
G02*
X167950000Y-98302000I0J-225000D01*
G01*
X167950000Y-98802000D01*
G75*
G02*
X167725000Y-99027000I-225000J0D01*
G01*
X167275000Y-99027000D01*
G75*
G02*
X167050000Y-98802000I0J225000D01*
G01*
G37*
%TD*%
%TO.C,C15*%
G36*
G01*
X150372000Y-104312000D02*
X150872000Y-104312000D01*
G75*
G02*
X151097000Y-104537000I0J-225000D01*
G01*
X151097000Y-104987000D01*
G75*
G02*
X150872000Y-105212000I-225000J0D01*
G01*
X150372000Y-105212000D01*
G75*
G02*
X150147000Y-104987000I0J225000D01*
G01*
X150147000Y-104537000D01*
G75*
G02*
X150372000Y-104312000I225000J0D01*
G01*
G37*
G36*
G01*
X150372000Y-105862000D02*
X150872000Y-105862000D01*
G75*
G02*
X151097000Y-106087000I0J-225000D01*
G01*
X151097000Y-106537000D01*
G75*
G02*
X150872000Y-106762000I-225000J0D01*
G01*
X150372000Y-106762000D01*
G75*
G02*
X150147000Y-106537000I0J225000D01*
G01*
X150147000Y-106087000D01*
G75*
G02*
X150372000Y-105862000I225000J0D01*
G01*
G37*
%TD*%
%TO.C,C14*%
G36*
G01*
X150372000Y-130500000D02*
X150872000Y-130500000D01*
G75*
G02*
X151097000Y-130725000I0J-225000D01*
G01*
X151097000Y-131175000D01*
G75*
G02*
X150872000Y-131400000I-225000J0D01*
G01*
X150372000Y-131400000D01*
G75*
G02*
X150147000Y-131175000I0J225000D01*
G01*
X150147000Y-130725000D01*
G75*
G02*
X150372000Y-130500000I225000J0D01*
G01*
G37*
G36*
G01*
X150372000Y-128950000D02*
X150872000Y-128950000D01*
G75*
G02*
X151097000Y-129175000I0J-225000D01*
G01*
X151097000Y-129625000D01*
G75*
G02*
X150872000Y-129850000I-225000J0D01*
G01*
X150372000Y-129850000D01*
G75*
G02*
X150147000Y-129625000I0J225000D01*
G01*
X150147000Y-129175000D01*
G75*
G02*
X150372000Y-128950000I225000J0D01*
G01*
G37*
%TD*%
%TO.C,C11*%
G36*
G01*
X188905000Y-116590000D02*
X188905000Y-117090000D01*
G75*
G02*
X188680000Y-117315000I-225000J0D01*
G01*
X188230000Y-117315000D01*
G75*
G02*
X188005000Y-117090000I0J225000D01*
G01*
X188005000Y-116590000D01*
G75*
G02*
X188230000Y-116365000I225000J0D01*
G01*
X188680000Y-116365000D01*
G75*
G02*
X188905000Y-116590000I0J-225000D01*
G01*
G37*
G36*
G01*
X190455000Y-116590000D02*
X190455000Y-117090000D01*
G75*
G02*
X190230000Y-117315000I-225000J0D01*
G01*
X189780000Y-117315000D01*
G75*
G02*
X189555000Y-117090000I0J225000D01*
G01*
X189555000Y-116590000D01*
G75*
G02*
X189780000Y-116365000I225000J0D01*
G01*
X190230000Y-116365000D01*
G75*
G02*
X190455000Y-116590000I0J-225000D01*
G01*
G37*
%TD*%
%TO.C,C10*%
G36*
G01*
X188905000Y-115066000D02*
X188905000Y-115566000D01*
G75*
G02*
X188680000Y-115791000I-225000J0D01*
G01*
X188230000Y-115791000D01*
G75*
G02*
X188005000Y-115566000I0J225000D01*
G01*
X188005000Y-115066000D01*
G75*
G02*
X188230000Y-114841000I225000J0D01*
G01*
X188680000Y-114841000D01*
G75*
G02*
X188905000Y-115066000I0J-225000D01*
G01*
G37*
G36*
G01*
X190455000Y-115066000D02*
X190455000Y-115566000D01*
G75*
G02*
X190230000Y-115791000I-225000J0D01*
G01*
X189780000Y-115791000D01*
G75*
G02*
X189555000Y-115566000I0J225000D01*
G01*
X189555000Y-115066000D01*
G75*
G02*
X189780000Y-114841000I225000J0D01*
G01*
X190230000Y-114841000D01*
G75*
G02*
X190455000Y-115066000I0J-225000D01*
G01*
G37*
%TD*%
%TO.C,C9*%
G36*
G01*
X188905000Y-118114000D02*
X188905000Y-118614000D01*
G75*
G02*
X188680000Y-118839000I-225000J0D01*
G01*
X188230000Y-118839000D01*
G75*
G02*
X188005000Y-118614000I0J225000D01*
G01*
X188005000Y-118114000D01*
G75*
G02*
X188230000Y-117889000I225000J0D01*
G01*
X188680000Y-117889000D01*
G75*
G02*
X188905000Y-118114000I0J-225000D01*
G01*
G37*
G36*
G01*
X190455000Y-118114000D02*
X190455000Y-118614000D01*
G75*
G02*
X190230000Y-118839000I-225000J0D01*
G01*
X189780000Y-118839000D01*
G75*
G02*
X189555000Y-118614000I0J225000D01*
G01*
X189555000Y-118114000D01*
G75*
G02*
X189780000Y-117889000I225000J0D01*
G01*
X190230000Y-117889000D01*
G75*
G02*
X190455000Y-118114000I0J-225000D01*
G01*
G37*
%TD*%
%TO.C,C8*%
G36*
G01*
X177249000Y-100067000D02*
X177249000Y-102117000D01*
G75*
G02*
X176999000Y-102367000I-250000J0D01*
G01*
X175424000Y-102367000D01*
G75*
G02*
X175174000Y-102117000I0J250000D01*
G01*
X175174000Y-100067000D01*
G75*
G02*
X175424000Y-99817000I250000J0D01*
G01*
X176999000Y-99817000D01*
G75*
G02*
X177249000Y-100067000I0J-250000D01*
G01*
G37*
G36*
G01*
X183474000Y-100067000D02*
X183474000Y-102117000D01*
G75*
G02*
X183224000Y-102367000I-250000J0D01*
G01*
X181649000Y-102367000D01*
G75*
G02*
X181399000Y-102117000I0J250000D01*
G01*
X181399000Y-100067000D01*
G75*
G02*
X181649000Y-99817000I250000J0D01*
G01*
X183224000Y-99817000D01*
G75*
G02*
X183474000Y-100067000I0J-250000D01*
G01*
G37*
%TD*%
%TO.C,C7*%
G36*
G01*
X189555000Y-114042000D02*
X189555000Y-113542000D01*
G75*
G02*
X189780000Y-113317000I225000J0D01*
G01*
X190230000Y-113317000D01*
G75*
G02*
X190455000Y-113542000I0J-225000D01*
G01*
X190455000Y-114042000D01*
G75*
G02*
X190230000Y-114267000I-225000J0D01*
G01*
X189780000Y-114267000D01*
G75*
G02*
X189555000Y-114042000I0J225000D01*
G01*
G37*
G36*
G01*
X188005000Y-114042000D02*
X188005000Y-113542000D01*
G75*
G02*
X188230000Y-113317000I225000J0D01*
G01*
X188680000Y-113317000D01*
G75*
G02*
X188905000Y-113542000I0J-225000D01*
G01*
X188905000Y-114042000D01*
G75*
G02*
X188680000Y-114267000I-225000J0D01*
G01*
X188230000Y-114267000D01*
G75*
G02*
X188005000Y-114042000I0J225000D01*
G01*
G37*
%TD*%
%TO.C,C6*%
G36*
G01*
X189555000Y-112518000D02*
X189555000Y-112018000D01*
G75*
G02*
X189780000Y-111793000I225000J0D01*
G01*
X190230000Y-111793000D01*
G75*
G02*
X190455000Y-112018000I0J-225000D01*
G01*
X190455000Y-112518000D01*
G75*
G02*
X190230000Y-112743000I-225000J0D01*
G01*
X189780000Y-112743000D01*
G75*
G02*
X189555000Y-112518000I0J225000D01*
G01*
G37*
G36*
G01*
X188005000Y-112518000D02*
X188005000Y-112018000D01*
G75*
G02*
X188230000Y-111793000I225000J0D01*
G01*
X188680000Y-111793000D01*
G75*
G02*
X188905000Y-112018000I0J-225000D01*
G01*
X188905000Y-112518000D01*
G75*
G02*
X188680000Y-112743000I-225000J0D01*
G01*
X188230000Y-112743000D01*
G75*
G02*
X188005000Y-112518000I0J225000D01*
G01*
G37*
%TD*%
%TO.C,C5*%
G36*
G01*
X191766000Y-103815000D02*
X191266000Y-103815000D01*
G75*
G02*
X191041000Y-103590000I0J225000D01*
G01*
X191041000Y-103140000D01*
G75*
G02*
X191266000Y-102915000I225000J0D01*
G01*
X191766000Y-102915000D01*
G75*
G02*
X191991000Y-103140000I0J-225000D01*
G01*
X191991000Y-103590000D01*
G75*
G02*
X191766000Y-103815000I-225000J0D01*
G01*
G37*
G36*
G01*
X191766000Y-105365000D02*
X191266000Y-105365000D01*
G75*
G02*
X191041000Y-105140000I0J225000D01*
G01*
X191041000Y-104690000D01*
G75*
G02*
X191266000Y-104465000I225000J0D01*
G01*
X191766000Y-104465000D01*
G75*
G02*
X191991000Y-104690000I0J-225000D01*
G01*
X191991000Y-105140000D01*
G75*
G02*
X191766000Y-105365000I-225000J0D01*
G01*
G37*
%TD*%
%TO.C,C4*%
G36*
G01*
X187381000Y-106176000D02*
X187381000Y-106676000D01*
G75*
G02*
X187156000Y-106901000I-225000J0D01*
G01*
X186706000Y-106901000D01*
G75*
G02*
X186481000Y-106676000I0J225000D01*
G01*
X186481000Y-106176000D01*
G75*
G02*
X186706000Y-105951000I225000J0D01*
G01*
X187156000Y-105951000D01*
G75*
G02*
X187381000Y-106176000I0J-225000D01*
G01*
G37*
G36*
G01*
X188931000Y-106176000D02*
X188931000Y-106676000D01*
G75*
G02*
X188706000Y-106901000I-225000J0D01*
G01*
X188256000Y-106901000D01*
G75*
G02*
X188031000Y-106676000I0J225000D01*
G01*
X188031000Y-106176000D01*
G75*
G02*
X188256000Y-105951000I225000J0D01*
G01*
X188706000Y-105951000D01*
G75*
G02*
X188931000Y-106176000I0J-225000D01*
G01*
G37*
%TD*%
%TO.C,C3*%
G36*
G01*
X187381000Y-107700000D02*
X187381000Y-108200000D01*
G75*
G02*
X187156000Y-108425000I-225000J0D01*
G01*
X186706000Y-108425000D01*
G75*
G02*
X186481000Y-108200000I0J225000D01*
G01*
X186481000Y-107700000D01*
G75*
G02*
X186706000Y-107475000I225000J0D01*
G01*
X187156000Y-107475000D01*
G75*
G02*
X187381000Y-107700000I0J-225000D01*
G01*
G37*
G36*
G01*
X188931000Y-107700000D02*
X188931000Y-108200000D01*
G75*
G02*
X188706000Y-108425000I-225000J0D01*
G01*
X188256000Y-108425000D01*
G75*
G02*
X188031000Y-108200000I0J225000D01*
G01*
X188031000Y-107700000D01*
G75*
G02*
X188256000Y-107475000I225000J0D01*
G01*
X188706000Y-107475000D01*
G75*
G02*
X188931000Y-107700000I0J-225000D01*
G01*
G37*
%TD*%
%TO.C,C2*%
G36*
G01*
X176601000Y-111502000D02*
X176601000Y-111002000D01*
G75*
G02*
X176826000Y-110777000I225000J0D01*
G01*
X177276000Y-110777000D01*
G75*
G02*
X177501000Y-111002000I0J-225000D01*
G01*
X177501000Y-111502000D01*
G75*
G02*
X177276000Y-111727000I-225000J0D01*
G01*
X176826000Y-111727000D01*
G75*
G02*
X176601000Y-111502000I0J225000D01*
G01*
G37*
G36*
G01*
X175051000Y-111502000D02*
X175051000Y-111002000D01*
G75*
G02*
X175276000Y-110777000I225000J0D01*
G01*
X175726000Y-110777000D01*
G75*
G02*
X175951000Y-111002000I0J-225000D01*
G01*
X175951000Y-111502000D01*
G75*
G02*
X175726000Y-111727000I-225000J0D01*
G01*
X175276000Y-111727000D01*
G75*
G02*
X175051000Y-111502000I0J225000D01*
G01*
G37*
%TD*%
M02*
