M48
; DRILL file {KiCad (5.1.10)-1} date 09/08/23 21:34:56
; FORMAT={-:-/ absolute / inch / decimal}
; #@! TF.CreationDate,2023-09-08T21:34:56-05:00
; #@! TF.GenerationSoftware,Kicad,Pcbnew,(5.1.10)-1
; #@! TF.FileFunction,Plated,1,4,PTH
FMAT,2
INCH
T1C0.0100
T2C0.0197
T3C0.0315
%
G90
G05
T1
X4.66Y-5.3
X4.7334Y-4.3841
X4.7347Y-4.2653
X4.735Y-4.1475
X4.735Y-4.625
X4.7359Y-4.0291
X4.7372Y-4.8628
X4.7375Y-3.07
X4.7375Y-3.305
X4.7375Y-3.425
X4.7375Y-3.79
X4.7384Y-4.5041
X4.7384Y-4.7441
X4.7397Y-4.9828
X4.74Y-3.55
X4.74Y-3.67
X4.7409Y-3.1841
X4.7409Y-5.1016
X4.7459Y-3.9066
X4.75Y-3.135
X4.75Y-3.255
X4.75Y-3.375
X4.75Y-3.495
X4.75Y-3.615
X4.75Y-3.735
X4.75Y-3.855
X4.75Y-3.975
X4.75Y-4.095
X4.75Y-4.215
X4.75Y-4.335
X4.75Y-4.455
X4.75Y-4.57
X4.75Y-4.695
X4.75Y-4.815
X4.75Y-4.935
X4.75Y-5.055
X4.75Y-5.175
X4.76Y-5.3025
X4.7875Y-2.79
X4.8Y-5.635
X4.8925Y-2.9975
X4.9025Y-4.175
X4.9025Y-4.2975
X4.9025Y-4.4175
X4.9025Y-4.535
X4.9025Y-4.655
X4.9025Y-4.775
X4.9025Y-4.8925
X4.9025Y-5.015
X4.9025Y-5.135
X4.9029Y-4.0529
X4.9041Y-3.5741
X4.905Y-3.05
X4.905Y-3.175
X4.905Y-3.295
X4.905Y-3.41
X4.905Y-3.53
X4.905Y-3.65
X4.905Y-3.695
X4.905Y-3.77
X4.905Y-3.815
X4.905Y-3.89
X4.905Y-3.9375
X4.905Y-4.01
X4.905Y-4.13
X4.905Y-4.25
X4.905Y-4.37
X4.905Y-4.49
X4.905Y-4.61
X4.905Y-4.73
X4.905Y-4.85
X4.905Y-4.97
X4.905Y-5.09
X4.9075Y-3.095
X4.9075Y-3.215
X4.9075Y-3.335
X4.9075Y-3.455
X4.9175Y-2.8925
X4.93Y-2.98
X4.94Y-5.6525
X5.11Y-3.8975
X5.11Y-4.1625
X5.11Y-4.4275
X5.1175Y-4.8775
X5.118Y-4.528
X5.118Y-4.576
X5.1625Y-3.685
X5.1625Y-3.95
X5.1625Y-4.2125
X5.2525Y-4.645
X5.27Y-3.0675
X5.275Y-3.7375
X5.275Y-4.0025
X5.275Y-4.265
X5.434Y-4.578
X5.434Y-4.878
X5.435Y-4.8275
X5.4425Y-3.7175
X5.4425Y-3.77
X5.4425Y-3.796
X5.445Y-3.9825
X5.445Y-4.035
X5.445Y-4.085
X5.445Y-4.2475
X5.445Y-4.3
X5.445Y-4.35
X5.47Y-3.8975
X5.47Y-4.1625
X5.47Y-4.4275
X5.5025Y-3.8725
X5.5025Y-4.135
X5.5025Y-4.4
X5.535Y-3.8475
X5.535Y-4.11
X5.535Y-4.375
X5.73Y-3.79
X5.73Y-3.915
X5.77Y-5.28
X5.815Y-3.59
X5.835Y-4.115
X5.835Y-4.195
X5.835Y-4.365
X5.835Y-4.46
X5.84Y-5.075
X5.84Y-5.175
X5.845Y-3.375
X5.845Y-3.495
X5.86Y-3.7
X5.86Y-4.9
X5.865Y-5.305
X5.87Y-3.92
X5.87Y-4.66
X5.88Y-3.825
X5.88Y-4.7
X5.9Y-3.685
X5.93Y-4.52
X5.94Y-5.265
X5.96Y-4.3
X5.98Y-3.6
X5.99Y-5.25
X6.005Y-3.91
X6.005Y-4.82
X6.005Y-5.38
X6.01Y-4.87
X6.02Y-5.295
X6.03Y-4.69
X6.06Y-3.74
X6.105Y-3.53
X6.105Y-4.25
X6.105Y-4.5
X6.105Y-5.22
X6.25Y-3.605
X6.25Y-3.725
X6.25Y-3.845
X6.25Y-3.975
X6.25Y-4.095
X6.25Y-4.215
X6.25Y-4.335
X6.25Y-4.45
X6.25Y-4.575
X6.25Y-4.695
X6.25Y-4.815
X6.25Y-4.94
X6.25Y-5.055
X6.25Y-5.175
X6.25Y-5.3
X6.25Y-5.415
X6.26Y-3.0675
X6.405Y-3.53
X6.405Y-3.65
X6.405Y-3.77
X6.405Y-3.89
X6.405Y-4.01
X6.405Y-4.13
X6.405Y-4.25
X6.405Y-4.37
X6.405Y-4.49
X6.405Y-4.61
X6.405Y-4.73
X6.405Y-4.85
X6.405Y-4.97
X6.405Y-5.09
X6.405Y-5.21
X6.405Y-5.33
X6.41Y-4.575
X6.4175Y-4.8125
X6.42Y-5.06
X6.42Y-5.415
X6.4275Y-5.2925
X6.435Y-3.6
X6.435Y-3.72
X6.435Y-3.84
X6.435Y-3.9625
X6.435Y-4.08
X6.4375Y-4.6
X6.4462Y-4.8855
X6.45Y-4.98
X6.455Y-5.0825
X6.46Y-4.1025
X6.46Y-4.1275
X6.46Y-4.205
X6.46Y-4.27
X6.46Y-4.3425
X6.46Y-4.3675
X6.46Y-4.445
X6.46Y-4.685
X6.46Y-4.782
X6.46Y-4.808
X6.46Y-4.834
X6.46Y-4.86
X6.46Y-4.91
X6.465Y-4.61
X6.465Y-5.165
X6.51Y-3.7464
X6.56Y-3.82
X6.565Y-3.005
X6.575Y-4.0525
X6.575Y-4.29
X6.575Y-4.53
X6.575Y-5.01
X6.5825Y-3.74
X6.595Y-4.08
X6.595Y-4.39
X6.595Y-4.63
X6.595Y-4.87
X6.595Y-5.0375
X6.6075Y-5.1175
X6.61Y-3.74
X6.62Y-4.315
X6.62Y-4.465
X6.6275Y-5.015
X6.63Y-3.9453
X6.63Y-4.025
X6.63Y-4.29
X6.63Y-4.79
X6.6316Y-4.161
X6.6325Y-3.7984
X6.649Y-4.06
X6.65Y-4.18
X6.65Y-4.42
X6.65Y-4.66
X6.65Y-5.14
X6.661Y-3.7107
X6.67Y-3.17
X6.67Y-3.31
X6.67Y-3.45
X6.6825Y-5.1275
X6.6875Y-4.4175
X6.6875Y-4.6575
X6.6875Y-4.7925
X6.69Y-4.18
X6.699Y-3.71
X6.73Y-3.71
X6.7612Y-3.7088
X6.765Y-3.415
X6.785Y-4.91
X6.7875Y-3.79
X6.7875Y-4.3675
X6.7875Y-4.8225
X6.79Y-3.71
X6.79Y-4.595
X6.7901Y-3.8159
X6.791Y-4.121
X6.7925Y-5.115
X6.795Y-3.845
X6.8Y-3.97
X6.8Y-4.0875
X6.8125Y-5.165
X6.82Y-3.1
X6.85Y-2.95
X6.85Y-3.235
X6.9Y-4.285
X6.91Y-4.415
X6.945Y-3.165
X6.95Y-3.485
X6.955Y-3.31
X6.955Y-3.445
X6.995Y-4.905
X6.9951Y-4.2803
X6.9989Y-4.2546
X7.0Y-5.195
X7.0001Y-4.2286
X7.0133Y-4.3277
X7.0135Y-4.3786
X7.015Y-4.3
X7.0305Y-5.0655
X7.086Y-4.53
X7.105Y-4.5725
X7.1119Y-4.0768
X7.119Y-4.0258
X7.13Y-4.5525
X7.1375Y-4.0713
X7.15Y-4.95
X7.16Y-4.54
X7.1632Y-4.0668
X7.21Y-4.56
X7.215Y-4.07
X7.235Y-4.05
X7.2375Y-3.98
X7.255Y-4.07
X7.27Y-4.56
X7.275Y-4.05
X7.2825Y-5.595
X7.2932Y-4.0708
X7.295Y-3.89
X7.3075Y-4.5575
X7.315Y-3.825
X7.325Y-4.2
X7.325Y-4.26
X7.33Y-4.32
X7.33Y-4.54
X7.39Y-4.42
X7.4195Y-4.5105
X7.4195Y-4.6305
X7.445Y-4.19
X7.4825Y-5.595
X7.54Y-4.16
T2
X4.54Y-3.11
X4.54Y-3.1592
X4.54Y-3.2084
X4.54Y-3.2576
X4.54Y-3.3069
X4.54Y-3.3561
X4.54Y-3.4053
X4.54Y-3.4545
X4.54Y-3.5037
X4.54Y-3.5529
X4.54Y-3.6021
X4.54Y-3.76
X4.54Y-3.8092
X4.54Y-3.8584
X4.54Y-3.9076
X4.54Y-3.9569
X4.54Y-4.0061
X4.54Y-4.0553
X4.54Y-4.1045
X4.54Y-4.1537
X4.54Y-4.2029
X4.54Y-4.2521
X4.54Y-4.41
X4.54Y-4.4592
X4.54Y-4.5084
X4.54Y-4.5576
X4.54Y-4.6069
X4.54Y-4.6561
X4.54Y-4.7053
X4.54Y-4.7545
X4.54Y-4.8037
X4.54Y-4.8529
X4.54Y-4.9021
X5.57Y-3.12
X5.6192Y-3.12
X5.6684Y-3.12
X5.7176Y-3.12
X5.7669Y-3.12
X5.8161Y-3.12
X5.8653Y-3.12
X5.9145Y-3.12
X5.9637Y-3.12
X6.0129Y-3.12
X7.0275Y-3.6031
X7.0275Y-3.6524
X7.0275Y-3.7016
X7.0275Y-3.7508
X7.0275Y-3.8
X7.195Y-3.6031
X7.195Y-3.6524
X7.195Y-3.7016
X7.195Y-3.7508
X7.195Y-3.8
T3
X5.69Y-5.475
X5.69Y-5.565
X5.79Y-5.475
X5.79Y-5.565
X5.89Y-5.475
X5.89Y-5.565
X5.99Y-5.475
X5.99Y-5.565
X7.305Y-5.4175
X7.405Y-5.4175
T0
M30
