%TF.GenerationSoftware,KiCad,Pcbnew,(5.1.10)-1*%
%TF.CreationDate,2023-09-08T21:34:54-05:00*%
%TF.ProjectId,brs_flight_computer,6272735f-666c-4696-9768-745f636f6d70,A*%
%TF.SameCoordinates,Original*%
%TF.FileFunction,Profile,NP*%
%FSLAX46Y46*%
G04 Gerber Fmt 4.6, Leading zero omitted, Abs format (unit mm)*
G04 Created by KiCad (PCBNEW (5.1.10)-1) date 2023-09-08 21:34:54*
%MOMM*%
%LPD*%
G01*
G04 APERTURE LIST*
%TA.AperFunction,Profile*%
%ADD10C,0.200000*%
%TD*%
G04 APERTURE END LIST*
D10*
X113316000Y-143103999D02*
X113316000Y-72104000D01*
X181690112Y-87115354D02*
G75*
G02*
X179902929Y-85126709I212817J1988645D01*
G01*
X194431729Y-77166036D02*
G75*
G02*
X192431729Y-79166036I-2000000J0D01*
G01*
X192431729Y-70104000D02*
G75*
G02*
X194431729Y-72104000I0J-2000000D01*
G01*
X179902929Y-81166036D02*
X179902929Y-85126709D01*
X179902929Y-81166036D02*
G75*
G02*
X181902929Y-79166036I2000000J0D01*
G01*
X192431729Y-79166036D02*
X181902929Y-79166036D01*
X182667429Y-141603999D02*
G75*
G03*
X182667429Y-141603999I-1375000J0D01*
G01*
X194431729Y-72104000D02*
X194431729Y-77166036D01*
X119964729Y-73855000D02*
G75*
G03*
X119964729Y-73855000I-1375000J0D01*
G01*
X191306729Y-73854922D02*
G75*
G03*
X191306729Y-73854922I-1375000J0D01*
G01*
X193848275Y-98682780D02*
G75*
G02*
X194431729Y-100094657I-1416546J-1411877D01*
G01*
X128806729Y-141603999D02*
G75*
G03*
X128806729Y-141603999I-1375000J0D01*
G01*
X194431729Y-100094657D02*
X194431729Y-143103999D01*
X113316000Y-72104000D02*
G75*
G02*
X115316000Y-70104000I2000000J0D01*
G01*
X115316000Y-145103999D02*
G75*
G02*
X113316000Y-143103999I0J2000000D01*
G01*
X194431729Y-143103999D02*
G75*
G02*
X192431729Y-145103999I-2000000J0D01*
G01*
X181690113Y-87115354D02*
G75*
G02*
X182893842Y-87692122I-212817J-1988645D01*
G01*
X182893842Y-87692122D02*
X193848275Y-98682780D01*
X192431729Y-145103999D02*
X115316000Y-145103999D01*
X115316000Y-70104000D02*
X192431729Y-70104000D01*
M02*
