%TF.GenerationSoftware,KiCad,Pcbnew,(5.1.10)-1*%
%TF.CreationDate,2023-09-09T18:40:58-05:00*%
%TF.ProjectId,brs_flight_computer,6272735f-666c-4696-9768-745f636f6d70,A*%
%TF.SameCoordinates,Original*%
%TF.FileFunction,Soldermask,Top*%
%TF.FilePolarity,Negative*%
%FSLAX46Y46*%
G04 Gerber Fmt 4.6, Leading zero omitted, Abs format (unit mm)*
G04 Created by KiCad (PCBNEW (5.1.10)-1) date 2023-09-09 18:40:58*
%MOMM*%
%LPD*%
G01*
G04 APERTURE LIST*
%ADD10R,0.700000X1.800000*%
%ADD11R,1.600000X2.200000*%
%ADD12R,1.800000X1.000000*%
%ADD13R,1.000000X1.000000*%
%ADD14O,0.800000X1.300000*%
%ADD15C,1.400000*%
%ADD16R,0.650000X1.060000*%
%ADD17O,1.300000X0.800000*%
%ADD18R,0.450000X1.450000*%
%ADD19R,0.876300X0.355600*%
%ADD20R,2.184400X0.558800*%
%ADD21R,1.003300X0.457200*%
%ADD22R,1.060000X0.650000*%
%ADD23R,0.600000X0.850000*%
%ADD24R,0.700000X0.800000*%
G04 APERTURE END LIST*
D10*
%TO.C,J4*%
X163522500Y-81269500D03*
X164772500Y-81269500D03*
D11*
X167022500Y-78569500D03*
X161272500Y-78569500D03*
%TD*%
%TO.C,U5*%
G36*
G01*
X131860000Y-105616500D02*
X131860000Y-105816500D01*
G75*
G02*
X131760000Y-105916500I-100000J0D01*
G01*
X130485000Y-105916500D01*
G75*
G02*
X130385000Y-105816500I0J100000D01*
G01*
X130385000Y-105616500D01*
G75*
G02*
X130485000Y-105516500I100000J0D01*
G01*
X131760000Y-105516500D01*
G75*
G02*
X131860000Y-105616500I0J-100000D01*
G01*
G37*
G36*
G01*
X131860000Y-104966500D02*
X131860000Y-105166500D01*
G75*
G02*
X131760000Y-105266500I-100000J0D01*
G01*
X130485000Y-105266500D01*
G75*
G02*
X130385000Y-105166500I0J100000D01*
G01*
X130385000Y-104966500D01*
G75*
G02*
X130485000Y-104866500I100000J0D01*
G01*
X131760000Y-104866500D01*
G75*
G02*
X131860000Y-104966500I0J-100000D01*
G01*
G37*
G36*
G01*
X131860000Y-104316500D02*
X131860000Y-104516500D01*
G75*
G02*
X131760000Y-104616500I-100000J0D01*
G01*
X130485000Y-104616500D01*
G75*
G02*
X130385000Y-104516500I0J100000D01*
G01*
X130385000Y-104316500D01*
G75*
G02*
X130485000Y-104216500I100000J0D01*
G01*
X131760000Y-104216500D01*
G75*
G02*
X131860000Y-104316500I0J-100000D01*
G01*
G37*
G36*
G01*
X131860000Y-103666500D02*
X131860000Y-103866500D01*
G75*
G02*
X131760000Y-103966500I-100000J0D01*
G01*
X130485000Y-103966500D01*
G75*
G02*
X130385000Y-103866500I0J100000D01*
G01*
X130385000Y-103666500D01*
G75*
G02*
X130485000Y-103566500I100000J0D01*
G01*
X131760000Y-103566500D01*
G75*
G02*
X131860000Y-103666500I0J-100000D01*
G01*
G37*
G36*
G01*
X131860000Y-103016500D02*
X131860000Y-103216500D01*
G75*
G02*
X131760000Y-103316500I-100000J0D01*
G01*
X130485000Y-103316500D01*
G75*
G02*
X130385000Y-103216500I0J100000D01*
G01*
X130385000Y-103016500D01*
G75*
G02*
X130485000Y-102916500I100000J0D01*
G01*
X131760000Y-102916500D01*
G75*
G02*
X131860000Y-103016500I0J-100000D01*
G01*
G37*
G36*
G01*
X131860000Y-102366500D02*
X131860000Y-102566500D01*
G75*
G02*
X131760000Y-102666500I-100000J0D01*
G01*
X130485000Y-102666500D01*
G75*
G02*
X130385000Y-102566500I0J100000D01*
G01*
X130385000Y-102366500D01*
G75*
G02*
X130485000Y-102266500I100000J0D01*
G01*
X131760000Y-102266500D01*
G75*
G02*
X131860000Y-102366500I0J-100000D01*
G01*
G37*
G36*
G01*
X131860000Y-101716500D02*
X131860000Y-101916500D01*
G75*
G02*
X131760000Y-102016500I-100000J0D01*
G01*
X130485000Y-102016500D01*
G75*
G02*
X130385000Y-101916500I0J100000D01*
G01*
X130385000Y-101716500D01*
G75*
G02*
X130485000Y-101616500I100000J0D01*
G01*
X131760000Y-101616500D01*
G75*
G02*
X131860000Y-101716500I0J-100000D01*
G01*
G37*
G36*
G01*
X131860000Y-101066500D02*
X131860000Y-101266500D01*
G75*
G02*
X131760000Y-101366500I-100000J0D01*
G01*
X130485000Y-101366500D01*
G75*
G02*
X130385000Y-101266500I0J100000D01*
G01*
X130385000Y-101066500D01*
G75*
G02*
X130485000Y-100966500I100000J0D01*
G01*
X131760000Y-100966500D01*
G75*
G02*
X131860000Y-101066500I0J-100000D01*
G01*
G37*
G36*
G01*
X137585000Y-101066500D02*
X137585000Y-101266500D01*
G75*
G02*
X137485000Y-101366500I-100000J0D01*
G01*
X136210000Y-101366500D01*
G75*
G02*
X136110000Y-101266500I0J100000D01*
G01*
X136110000Y-101066500D01*
G75*
G02*
X136210000Y-100966500I100000J0D01*
G01*
X137485000Y-100966500D01*
G75*
G02*
X137585000Y-101066500I0J-100000D01*
G01*
G37*
G36*
G01*
X137585000Y-101716500D02*
X137585000Y-101916500D01*
G75*
G02*
X137485000Y-102016500I-100000J0D01*
G01*
X136210000Y-102016500D01*
G75*
G02*
X136110000Y-101916500I0J100000D01*
G01*
X136110000Y-101716500D01*
G75*
G02*
X136210000Y-101616500I100000J0D01*
G01*
X137485000Y-101616500D01*
G75*
G02*
X137585000Y-101716500I0J-100000D01*
G01*
G37*
G36*
G01*
X137585000Y-102366500D02*
X137585000Y-102566500D01*
G75*
G02*
X137485000Y-102666500I-100000J0D01*
G01*
X136210000Y-102666500D01*
G75*
G02*
X136110000Y-102566500I0J100000D01*
G01*
X136110000Y-102366500D01*
G75*
G02*
X136210000Y-102266500I100000J0D01*
G01*
X137485000Y-102266500D01*
G75*
G02*
X137585000Y-102366500I0J-100000D01*
G01*
G37*
G36*
G01*
X137585000Y-103016500D02*
X137585000Y-103216500D01*
G75*
G02*
X137485000Y-103316500I-100000J0D01*
G01*
X136210000Y-103316500D01*
G75*
G02*
X136110000Y-103216500I0J100000D01*
G01*
X136110000Y-103016500D01*
G75*
G02*
X136210000Y-102916500I100000J0D01*
G01*
X137485000Y-102916500D01*
G75*
G02*
X137585000Y-103016500I0J-100000D01*
G01*
G37*
G36*
G01*
X137585000Y-103666500D02*
X137585000Y-103866500D01*
G75*
G02*
X137485000Y-103966500I-100000J0D01*
G01*
X136210000Y-103966500D01*
G75*
G02*
X136110000Y-103866500I0J100000D01*
G01*
X136110000Y-103666500D01*
G75*
G02*
X136210000Y-103566500I100000J0D01*
G01*
X137485000Y-103566500D01*
G75*
G02*
X137585000Y-103666500I0J-100000D01*
G01*
G37*
G36*
G01*
X137585000Y-104316500D02*
X137585000Y-104516500D01*
G75*
G02*
X137485000Y-104616500I-100000J0D01*
G01*
X136210000Y-104616500D01*
G75*
G02*
X136110000Y-104516500I0J100000D01*
G01*
X136110000Y-104316500D01*
G75*
G02*
X136210000Y-104216500I100000J0D01*
G01*
X137485000Y-104216500D01*
G75*
G02*
X137585000Y-104316500I0J-100000D01*
G01*
G37*
G36*
G01*
X137585000Y-104966500D02*
X137585000Y-105166500D01*
G75*
G02*
X137485000Y-105266500I-100000J0D01*
G01*
X136210000Y-105266500D01*
G75*
G02*
X136110000Y-105166500I0J100000D01*
G01*
X136110000Y-104966500D01*
G75*
G02*
X136210000Y-104866500I100000J0D01*
G01*
X137485000Y-104866500D01*
G75*
G02*
X137585000Y-104966500I0J-100000D01*
G01*
G37*
G36*
G01*
X137585000Y-105616500D02*
X137585000Y-105816500D01*
G75*
G02*
X137485000Y-105916500I-100000J0D01*
G01*
X136210000Y-105916500D01*
G75*
G02*
X136110000Y-105816500I0J100000D01*
G01*
X136110000Y-105616500D01*
G75*
G02*
X136210000Y-105516500I100000J0D01*
G01*
X137485000Y-105516500D01*
G75*
G02*
X137585000Y-105616500I0J-100000D01*
G01*
G37*
%TD*%
%TO.C,U15*%
G36*
G01*
X131860000Y-112347500D02*
X131860000Y-112547500D01*
G75*
G02*
X131760000Y-112647500I-100000J0D01*
G01*
X130485000Y-112647500D01*
G75*
G02*
X130385000Y-112547500I0J100000D01*
G01*
X130385000Y-112347500D01*
G75*
G02*
X130485000Y-112247500I100000J0D01*
G01*
X131760000Y-112247500D01*
G75*
G02*
X131860000Y-112347500I0J-100000D01*
G01*
G37*
G36*
G01*
X131860000Y-111697500D02*
X131860000Y-111897500D01*
G75*
G02*
X131760000Y-111997500I-100000J0D01*
G01*
X130485000Y-111997500D01*
G75*
G02*
X130385000Y-111897500I0J100000D01*
G01*
X130385000Y-111697500D01*
G75*
G02*
X130485000Y-111597500I100000J0D01*
G01*
X131760000Y-111597500D01*
G75*
G02*
X131860000Y-111697500I0J-100000D01*
G01*
G37*
G36*
G01*
X131860000Y-111047500D02*
X131860000Y-111247500D01*
G75*
G02*
X131760000Y-111347500I-100000J0D01*
G01*
X130485000Y-111347500D01*
G75*
G02*
X130385000Y-111247500I0J100000D01*
G01*
X130385000Y-111047500D01*
G75*
G02*
X130485000Y-110947500I100000J0D01*
G01*
X131760000Y-110947500D01*
G75*
G02*
X131860000Y-111047500I0J-100000D01*
G01*
G37*
G36*
G01*
X131860000Y-110397500D02*
X131860000Y-110597500D01*
G75*
G02*
X131760000Y-110697500I-100000J0D01*
G01*
X130485000Y-110697500D01*
G75*
G02*
X130385000Y-110597500I0J100000D01*
G01*
X130385000Y-110397500D01*
G75*
G02*
X130485000Y-110297500I100000J0D01*
G01*
X131760000Y-110297500D01*
G75*
G02*
X131860000Y-110397500I0J-100000D01*
G01*
G37*
G36*
G01*
X131860000Y-109747500D02*
X131860000Y-109947500D01*
G75*
G02*
X131760000Y-110047500I-100000J0D01*
G01*
X130485000Y-110047500D01*
G75*
G02*
X130385000Y-109947500I0J100000D01*
G01*
X130385000Y-109747500D01*
G75*
G02*
X130485000Y-109647500I100000J0D01*
G01*
X131760000Y-109647500D01*
G75*
G02*
X131860000Y-109747500I0J-100000D01*
G01*
G37*
G36*
G01*
X131860000Y-109097500D02*
X131860000Y-109297500D01*
G75*
G02*
X131760000Y-109397500I-100000J0D01*
G01*
X130485000Y-109397500D01*
G75*
G02*
X130385000Y-109297500I0J100000D01*
G01*
X130385000Y-109097500D01*
G75*
G02*
X130485000Y-108997500I100000J0D01*
G01*
X131760000Y-108997500D01*
G75*
G02*
X131860000Y-109097500I0J-100000D01*
G01*
G37*
G36*
G01*
X131860000Y-108447500D02*
X131860000Y-108647500D01*
G75*
G02*
X131760000Y-108747500I-100000J0D01*
G01*
X130485000Y-108747500D01*
G75*
G02*
X130385000Y-108647500I0J100000D01*
G01*
X130385000Y-108447500D01*
G75*
G02*
X130485000Y-108347500I100000J0D01*
G01*
X131760000Y-108347500D01*
G75*
G02*
X131860000Y-108447500I0J-100000D01*
G01*
G37*
G36*
G01*
X131860000Y-107797500D02*
X131860000Y-107997500D01*
G75*
G02*
X131760000Y-108097500I-100000J0D01*
G01*
X130485000Y-108097500D01*
G75*
G02*
X130385000Y-107997500I0J100000D01*
G01*
X130385000Y-107797500D01*
G75*
G02*
X130485000Y-107697500I100000J0D01*
G01*
X131760000Y-107697500D01*
G75*
G02*
X131860000Y-107797500I0J-100000D01*
G01*
G37*
G36*
G01*
X137585000Y-107797500D02*
X137585000Y-107997500D01*
G75*
G02*
X137485000Y-108097500I-100000J0D01*
G01*
X136210000Y-108097500D01*
G75*
G02*
X136110000Y-107997500I0J100000D01*
G01*
X136110000Y-107797500D01*
G75*
G02*
X136210000Y-107697500I100000J0D01*
G01*
X137485000Y-107697500D01*
G75*
G02*
X137585000Y-107797500I0J-100000D01*
G01*
G37*
G36*
G01*
X137585000Y-108447500D02*
X137585000Y-108647500D01*
G75*
G02*
X137485000Y-108747500I-100000J0D01*
G01*
X136210000Y-108747500D01*
G75*
G02*
X136110000Y-108647500I0J100000D01*
G01*
X136110000Y-108447500D01*
G75*
G02*
X136210000Y-108347500I100000J0D01*
G01*
X137485000Y-108347500D01*
G75*
G02*
X137585000Y-108447500I0J-100000D01*
G01*
G37*
G36*
G01*
X137585000Y-109097500D02*
X137585000Y-109297500D01*
G75*
G02*
X137485000Y-109397500I-100000J0D01*
G01*
X136210000Y-109397500D01*
G75*
G02*
X136110000Y-109297500I0J100000D01*
G01*
X136110000Y-109097500D01*
G75*
G02*
X136210000Y-108997500I100000J0D01*
G01*
X137485000Y-108997500D01*
G75*
G02*
X137585000Y-109097500I0J-100000D01*
G01*
G37*
G36*
G01*
X137585000Y-109747500D02*
X137585000Y-109947500D01*
G75*
G02*
X137485000Y-110047500I-100000J0D01*
G01*
X136210000Y-110047500D01*
G75*
G02*
X136110000Y-109947500I0J100000D01*
G01*
X136110000Y-109747500D01*
G75*
G02*
X136210000Y-109647500I100000J0D01*
G01*
X137485000Y-109647500D01*
G75*
G02*
X137585000Y-109747500I0J-100000D01*
G01*
G37*
G36*
G01*
X137585000Y-110397500D02*
X137585000Y-110597500D01*
G75*
G02*
X137485000Y-110697500I-100000J0D01*
G01*
X136210000Y-110697500D01*
G75*
G02*
X136110000Y-110597500I0J100000D01*
G01*
X136110000Y-110397500D01*
G75*
G02*
X136210000Y-110297500I100000J0D01*
G01*
X137485000Y-110297500D01*
G75*
G02*
X137585000Y-110397500I0J-100000D01*
G01*
G37*
G36*
G01*
X137585000Y-111047500D02*
X137585000Y-111247500D01*
G75*
G02*
X137485000Y-111347500I-100000J0D01*
G01*
X136210000Y-111347500D01*
G75*
G02*
X136110000Y-111247500I0J100000D01*
G01*
X136110000Y-111047500D01*
G75*
G02*
X136210000Y-110947500I100000J0D01*
G01*
X137485000Y-110947500D01*
G75*
G02*
X137585000Y-111047500I0J-100000D01*
G01*
G37*
G36*
G01*
X137585000Y-111697500D02*
X137585000Y-111897500D01*
G75*
G02*
X137485000Y-111997500I-100000J0D01*
G01*
X136210000Y-111997500D01*
G75*
G02*
X136110000Y-111897500I0J100000D01*
G01*
X136110000Y-111697500D01*
G75*
G02*
X136210000Y-111597500I100000J0D01*
G01*
X137485000Y-111597500D01*
G75*
G02*
X137585000Y-111697500I0J-100000D01*
G01*
G37*
G36*
G01*
X137585000Y-112347500D02*
X137585000Y-112547500D01*
G75*
G02*
X137485000Y-112647500I-100000J0D01*
G01*
X136210000Y-112647500D01*
G75*
G02*
X136110000Y-112547500I0J100000D01*
G01*
X136110000Y-112347500D01*
G75*
G02*
X136210000Y-112247500I100000J0D01*
G01*
X137485000Y-112247500D01*
G75*
G02*
X137585000Y-112347500I0J-100000D01*
G01*
G37*
%TD*%
%TO.C,U4*%
G36*
G01*
X131860000Y-98885500D02*
X131860000Y-99085500D01*
G75*
G02*
X131760000Y-99185500I-100000J0D01*
G01*
X130485000Y-99185500D01*
G75*
G02*
X130385000Y-99085500I0J100000D01*
G01*
X130385000Y-98885500D01*
G75*
G02*
X130485000Y-98785500I100000J0D01*
G01*
X131760000Y-98785500D01*
G75*
G02*
X131860000Y-98885500I0J-100000D01*
G01*
G37*
G36*
G01*
X131860000Y-98235500D02*
X131860000Y-98435500D01*
G75*
G02*
X131760000Y-98535500I-100000J0D01*
G01*
X130485000Y-98535500D01*
G75*
G02*
X130385000Y-98435500I0J100000D01*
G01*
X130385000Y-98235500D01*
G75*
G02*
X130485000Y-98135500I100000J0D01*
G01*
X131760000Y-98135500D01*
G75*
G02*
X131860000Y-98235500I0J-100000D01*
G01*
G37*
G36*
G01*
X131860000Y-97585500D02*
X131860000Y-97785500D01*
G75*
G02*
X131760000Y-97885500I-100000J0D01*
G01*
X130485000Y-97885500D01*
G75*
G02*
X130385000Y-97785500I0J100000D01*
G01*
X130385000Y-97585500D01*
G75*
G02*
X130485000Y-97485500I100000J0D01*
G01*
X131760000Y-97485500D01*
G75*
G02*
X131860000Y-97585500I0J-100000D01*
G01*
G37*
G36*
G01*
X131860000Y-96935500D02*
X131860000Y-97135500D01*
G75*
G02*
X131760000Y-97235500I-100000J0D01*
G01*
X130485000Y-97235500D01*
G75*
G02*
X130385000Y-97135500I0J100000D01*
G01*
X130385000Y-96935500D01*
G75*
G02*
X130485000Y-96835500I100000J0D01*
G01*
X131760000Y-96835500D01*
G75*
G02*
X131860000Y-96935500I0J-100000D01*
G01*
G37*
G36*
G01*
X131860000Y-96285500D02*
X131860000Y-96485500D01*
G75*
G02*
X131760000Y-96585500I-100000J0D01*
G01*
X130485000Y-96585500D01*
G75*
G02*
X130385000Y-96485500I0J100000D01*
G01*
X130385000Y-96285500D01*
G75*
G02*
X130485000Y-96185500I100000J0D01*
G01*
X131760000Y-96185500D01*
G75*
G02*
X131860000Y-96285500I0J-100000D01*
G01*
G37*
G36*
G01*
X131860000Y-95635500D02*
X131860000Y-95835500D01*
G75*
G02*
X131760000Y-95935500I-100000J0D01*
G01*
X130485000Y-95935500D01*
G75*
G02*
X130385000Y-95835500I0J100000D01*
G01*
X130385000Y-95635500D01*
G75*
G02*
X130485000Y-95535500I100000J0D01*
G01*
X131760000Y-95535500D01*
G75*
G02*
X131860000Y-95635500I0J-100000D01*
G01*
G37*
G36*
G01*
X131860000Y-94985500D02*
X131860000Y-95185500D01*
G75*
G02*
X131760000Y-95285500I-100000J0D01*
G01*
X130485000Y-95285500D01*
G75*
G02*
X130385000Y-95185500I0J100000D01*
G01*
X130385000Y-94985500D01*
G75*
G02*
X130485000Y-94885500I100000J0D01*
G01*
X131760000Y-94885500D01*
G75*
G02*
X131860000Y-94985500I0J-100000D01*
G01*
G37*
G36*
G01*
X131860000Y-94335500D02*
X131860000Y-94535500D01*
G75*
G02*
X131760000Y-94635500I-100000J0D01*
G01*
X130485000Y-94635500D01*
G75*
G02*
X130385000Y-94535500I0J100000D01*
G01*
X130385000Y-94335500D01*
G75*
G02*
X130485000Y-94235500I100000J0D01*
G01*
X131760000Y-94235500D01*
G75*
G02*
X131860000Y-94335500I0J-100000D01*
G01*
G37*
G36*
G01*
X137585000Y-94335500D02*
X137585000Y-94535500D01*
G75*
G02*
X137485000Y-94635500I-100000J0D01*
G01*
X136210000Y-94635500D01*
G75*
G02*
X136110000Y-94535500I0J100000D01*
G01*
X136110000Y-94335500D01*
G75*
G02*
X136210000Y-94235500I100000J0D01*
G01*
X137485000Y-94235500D01*
G75*
G02*
X137585000Y-94335500I0J-100000D01*
G01*
G37*
G36*
G01*
X137585000Y-94985500D02*
X137585000Y-95185500D01*
G75*
G02*
X137485000Y-95285500I-100000J0D01*
G01*
X136210000Y-95285500D01*
G75*
G02*
X136110000Y-95185500I0J100000D01*
G01*
X136110000Y-94985500D01*
G75*
G02*
X136210000Y-94885500I100000J0D01*
G01*
X137485000Y-94885500D01*
G75*
G02*
X137585000Y-94985500I0J-100000D01*
G01*
G37*
G36*
G01*
X137585000Y-95635500D02*
X137585000Y-95835500D01*
G75*
G02*
X137485000Y-95935500I-100000J0D01*
G01*
X136210000Y-95935500D01*
G75*
G02*
X136110000Y-95835500I0J100000D01*
G01*
X136110000Y-95635500D01*
G75*
G02*
X136210000Y-95535500I100000J0D01*
G01*
X137485000Y-95535500D01*
G75*
G02*
X137585000Y-95635500I0J-100000D01*
G01*
G37*
G36*
G01*
X137585000Y-96285500D02*
X137585000Y-96485500D01*
G75*
G02*
X137485000Y-96585500I-100000J0D01*
G01*
X136210000Y-96585500D01*
G75*
G02*
X136110000Y-96485500I0J100000D01*
G01*
X136110000Y-96285500D01*
G75*
G02*
X136210000Y-96185500I100000J0D01*
G01*
X137485000Y-96185500D01*
G75*
G02*
X137585000Y-96285500I0J-100000D01*
G01*
G37*
G36*
G01*
X137585000Y-96935500D02*
X137585000Y-97135500D01*
G75*
G02*
X137485000Y-97235500I-100000J0D01*
G01*
X136210000Y-97235500D01*
G75*
G02*
X136110000Y-97135500I0J100000D01*
G01*
X136110000Y-96935500D01*
G75*
G02*
X136210000Y-96835500I100000J0D01*
G01*
X137485000Y-96835500D01*
G75*
G02*
X137585000Y-96935500I0J-100000D01*
G01*
G37*
G36*
G01*
X137585000Y-97585500D02*
X137585000Y-97785500D01*
G75*
G02*
X137485000Y-97885500I-100000J0D01*
G01*
X136210000Y-97885500D01*
G75*
G02*
X136110000Y-97785500I0J100000D01*
G01*
X136110000Y-97585500D01*
G75*
G02*
X136210000Y-97485500I100000J0D01*
G01*
X137485000Y-97485500D01*
G75*
G02*
X137585000Y-97585500I0J-100000D01*
G01*
G37*
G36*
G01*
X137585000Y-98235500D02*
X137585000Y-98435500D01*
G75*
G02*
X137485000Y-98535500I-100000J0D01*
G01*
X136210000Y-98535500D01*
G75*
G02*
X136110000Y-98435500I0J100000D01*
G01*
X136110000Y-98235500D01*
G75*
G02*
X136210000Y-98135500I100000J0D01*
G01*
X137485000Y-98135500D01*
G75*
G02*
X137585000Y-98235500I0J-100000D01*
G01*
G37*
G36*
G01*
X137585000Y-98885500D02*
X137585000Y-99085500D01*
G75*
G02*
X137485000Y-99185500I-100000J0D01*
G01*
X136210000Y-99185500D01*
G75*
G02*
X136110000Y-99085500I0J100000D01*
G01*
X136110000Y-98885500D01*
G75*
G02*
X136210000Y-98785500I100000J0D01*
G01*
X137485000Y-98785500D01*
G75*
G02*
X137585000Y-98885500I0J-100000D01*
G01*
G37*
%TD*%
%TO.C,U8*%
G36*
G01*
X187015000Y-106066000D02*
X188340000Y-106066000D01*
G75*
G02*
X188415000Y-106141000I0J-75000D01*
G01*
X188415000Y-106291000D01*
G75*
G02*
X188340000Y-106366000I-75000J0D01*
G01*
X187015000Y-106366000D01*
G75*
G02*
X186940000Y-106291000I0J75000D01*
G01*
X186940000Y-106141000D01*
G75*
G02*
X187015000Y-106066000I75000J0D01*
G01*
G37*
G36*
G01*
X187015000Y-106566000D02*
X188340000Y-106566000D01*
G75*
G02*
X188415000Y-106641000I0J-75000D01*
G01*
X188415000Y-106791000D01*
G75*
G02*
X188340000Y-106866000I-75000J0D01*
G01*
X187015000Y-106866000D01*
G75*
G02*
X186940000Y-106791000I0J75000D01*
G01*
X186940000Y-106641000D01*
G75*
G02*
X187015000Y-106566000I75000J0D01*
G01*
G37*
G36*
G01*
X187015000Y-107066000D02*
X188340000Y-107066000D01*
G75*
G02*
X188415000Y-107141000I0J-75000D01*
G01*
X188415000Y-107291000D01*
G75*
G02*
X188340000Y-107366000I-75000J0D01*
G01*
X187015000Y-107366000D01*
G75*
G02*
X186940000Y-107291000I0J75000D01*
G01*
X186940000Y-107141000D01*
G75*
G02*
X187015000Y-107066000I75000J0D01*
G01*
G37*
G36*
G01*
X187015000Y-107566000D02*
X188340000Y-107566000D01*
G75*
G02*
X188415000Y-107641000I0J-75000D01*
G01*
X188415000Y-107791000D01*
G75*
G02*
X188340000Y-107866000I-75000J0D01*
G01*
X187015000Y-107866000D01*
G75*
G02*
X186940000Y-107791000I0J75000D01*
G01*
X186940000Y-107641000D01*
G75*
G02*
X187015000Y-107566000I75000J0D01*
G01*
G37*
G36*
G01*
X187015000Y-108066000D02*
X188340000Y-108066000D01*
G75*
G02*
X188415000Y-108141000I0J-75000D01*
G01*
X188415000Y-108291000D01*
G75*
G02*
X188340000Y-108366000I-75000J0D01*
G01*
X187015000Y-108366000D01*
G75*
G02*
X186940000Y-108291000I0J75000D01*
G01*
X186940000Y-108141000D01*
G75*
G02*
X187015000Y-108066000I75000J0D01*
G01*
G37*
G36*
G01*
X187015000Y-108566000D02*
X188340000Y-108566000D01*
G75*
G02*
X188415000Y-108641000I0J-75000D01*
G01*
X188415000Y-108791000D01*
G75*
G02*
X188340000Y-108866000I-75000J0D01*
G01*
X187015000Y-108866000D01*
G75*
G02*
X186940000Y-108791000I0J75000D01*
G01*
X186940000Y-108641000D01*
G75*
G02*
X187015000Y-108566000I75000J0D01*
G01*
G37*
G36*
G01*
X187015000Y-109066000D02*
X188340000Y-109066000D01*
G75*
G02*
X188415000Y-109141000I0J-75000D01*
G01*
X188415000Y-109291000D01*
G75*
G02*
X188340000Y-109366000I-75000J0D01*
G01*
X187015000Y-109366000D01*
G75*
G02*
X186940000Y-109291000I0J75000D01*
G01*
X186940000Y-109141000D01*
G75*
G02*
X187015000Y-109066000I75000J0D01*
G01*
G37*
G36*
G01*
X187015000Y-109566000D02*
X188340000Y-109566000D01*
G75*
G02*
X188415000Y-109641000I0J-75000D01*
G01*
X188415000Y-109791000D01*
G75*
G02*
X188340000Y-109866000I-75000J0D01*
G01*
X187015000Y-109866000D01*
G75*
G02*
X186940000Y-109791000I0J75000D01*
G01*
X186940000Y-109641000D01*
G75*
G02*
X187015000Y-109566000I75000J0D01*
G01*
G37*
G36*
G01*
X187015000Y-110066000D02*
X188340000Y-110066000D01*
G75*
G02*
X188415000Y-110141000I0J-75000D01*
G01*
X188415000Y-110291000D01*
G75*
G02*
X188340000Y-110366000I-75000J0D01*
G01*
X187015000Y-110366000D01*
G75*
G02*
X186940000Y-110291000I0J75000D01*
G01*
X186940000Y-110141000D01*
G75*
G02*
X187015000Y-110066000I75000J0D01*
G01*
G37*
G36*
G01*
X187015000Y-110566000D02*
X188340000Y-110566000D01*
G75*
G02*
X188415000Y-110641000I0J-75000D01*
G01*
X188415000Y-110791000D01*
G75*
G02*
X188340000Y-110866000I-75000J0D01*
G01*
X187015000Y-110866000D01*
G75*
G02*
X186940000Y-110791000I0J75000D01*
G01*
X186940000Y-110641000D01*
G75*
G02*
X187015000Y-110566000I75000J0D01*
G01*
G37*
G36*
G01*
X187015000Y-111066000D02*
X188340000Y-111066000D01*
G75*
G02*
X188415000Y-111141000I0J-75000D01*
G01*
X188415000Y-111291000D01*
G75*
G02*
X188340000Y-111366000I-75000J0D01*
G01*
X187015000Y-111366000D01*
G75*
G02*
X186940000Y-111291000I0J75000D01*
G01*
X186940000Y-111141000D01*
G75*
G02*
X187015000Y-111066000I75000J0D01*
G01*
G37*
G36*
G01*
X187015000Y-111566000D02*
X188340000Y-111566000D01*
G75*
G02*
X188415000Y-111641000I0J-75000D01*
G01*
X188415000Y-111791000D01*
G75*
G02*
X188340000Y-111866000I-75000J0D01*
G01*
X187015000Y-111866000D01*
G75*
G02*
X186940000Y-111791000I0J75000D01*
G01*
X186940000Y-111641000D01*
G75*
G02*
X187015000Y-111566000I75000J0D01*
G01*
G37*
G36*
G01*
X186190000Y-112391000D02*
X186340000Y-112391000D01*
G75*
G02*
X186415000Y-112466000I0J-75000D01*
G01*
X186415000Y-113791000D01*
G75*
G02*
X186340000Y-113866000I-75000J0D01*
G01*
X186190000Y-113866000D01*
G75*
G02*
X186115000Y-113791000I0J75000D01*
G01*
X186115000Y-112466000D01*
G75*
G02*
X186190000Y-112391000I75000J0D01*
G01*
G37*
G36*
G01*
X185690000Y-112391000D02*
X185840000Y-112391000D01*
G75*
G02*
X185915000Y-112466000I0J-75000D01*
G01*
X185915000Y-113791000D01*
G75*
G02*
X185840000Y-113866000I-75000J0D01*
G01*
X185690000Y-113866000D01*
G75*
G02*
X185615000Y-113791000I0J75000D01*
G01*
X185615000Y-112466000D01*
G75*
G02*
X185690000Y-112391000I75000J0D01*
G01*
G37*
G36*
G01*
X185190000Y-112391000D02*
X185340000Y-112391000D01*
G75*
G02*
X185415000Y-112466000I0J-75000D01*
G01*
X185415000Y-113791000D01*
G75*
G02*
X185340000Y-113866000I-75000J0D01*
G01*
X185190000Y-113866000D01*
G75*
G02*
X185115000Y-113791000I0J75000D01*
G01*
X185115000Y-112466000D01*
G75*
G02*
X185190000Y-112391000I75000J0D01*
G01*
G37*
G36*
G01*
X184690000Y-112391000D02*
X184840000Y-112391000D01*
G75*
G02*
X184915000Y-112466000I0J-75000D01*
G01*
X184915000Y-113791000D01*
G75*
G02*
X184840000Y-113866000I-75000J0D01*
G01*
X184690000Y-113866000D01*
G75*
G02*
X184615000Y-113791000I0J75000D01*
G01*
X184615000Y-112466000D01*
G75*
G02*
X184690000Y-112391000I75000J0D01*
G01*
G37*
G36*
G01*
X184190000Y-112391000D02*
X184340000Y-112391000D01*
G75*
G02*
X184415000Y-112466000I0J-75000D01*
G01*
X184415000Y-113791000D01*
G75*
G02*
X184340000Y-113866000I-75000J0D01*
G01*
X184190000Y-113866000D01*
G75*
G02*
X184115000Y-113791000I0J75000D01*
G01*
X184115000Y-112466000D01*
G75*
G02*
X184190000Y-112391000I75000J0D01*
G01*
G37*
G36*
G01*
X183690000Y-112391000D02*
X183840000Y-112391000D01*
G75*
G02*
X183915000Y-112466000I0J-75000D01*
G01*
X183915000Y-113791000D01*
G75*
G02*
X183840000Y-113866000I-75000J0D01*
G01*
X183690000Y-113866000D01*
G75*
G02*
X183615000Y-113791000I0J75000D01*
G01*
X183615000Y-112466000D01*
G75*
G02*
X183690000Y-112391000I75000J0D01*
G01*
G37*
G36*
G01*
X183190000Y-112391000D02*
X183340000Y-112391000D01*
G75*
G02*
X183415000Y-112466000I0J-75000D01*
G01*
X183415000Y-113791000D01*
G75*
G02*
X183340000Y-113866000I-75000J0D01*
G01*
X183190000Y-113866000D01*
G75*
G02*
X183115000Y-113791000I0J75000D01*
G01*
X183115000Y-112466000D01*
G75*
G02*
X183190000Y-112391000I75000J0D01*
G01*
G37*
G36*
G01*
X182690000Y-112391000D02*
X182840000Y-112391000D01*
G75*
G02*
X182915000Y-112466000I0J-75000D01*
G01*
X182915000Y-113791000D01*
G75*
G02*
X182840000Y-113866000I-75000J0D01*
G01*
X182690000Y-113866000D01*
G75*
G02*
X182615000Y-113791000I0J75000D01*
G01*
X182615000Y-112466000D01*
G75*
G02*
X182690000Y-112391000I75000J0D01*
G01*
G37*
G36*
G01*
X182190000Y-112391000D02*
X182340000Y-112391000D01*
G75*
G02*
X182415000Y-112466000I0J-75000D01*
G01*
X182415000Y-113791000D01*
G75*
G02*
X182340000Y-113866000I-75000J0D01*
G01*
X182190000Y-113866000D01*
G75*
G02*
X182115000Y-113791000I0J75000D01*
G01*
X182115000Y-112466000D01*
G75*
G02*
X182190000Y-112391000I75000J0D01*
G01*
G37*
G36*
G01*
X181690000Y-112391000D02*
X181840000Y-112391000D01*
G75*
G02*
X181915000Y-112466000I0J-75000D01*
G01*
X181915000Y-113791000D01*
G75*
G02*
X181840000Y-113866000I-75000J0D01*
G01*
X181690000Y-113866000D01*
G75*
G02*
X181615000Y-113791000I0J75000D01*
G01*
X181615000Y-112466000D01*
G75*
G02*
X181690000Y-112391000I75000J0D01*
G01*
G37*
G36*
G01*
X181190000Y-112391000D02*
X181340000Y-112391000D01*
G75*
G02*
X181415000Y-112466000I0J-75000D01*
G01*
X181415000Y-113791000D01*
G75*
G02*
X181340000Y-113866000I-75000J0D01*
G01*
X181190000Y-113866000D01*
G75*
G02*
X181115000Y-113791000I0J75000D01*
G01*
X181115000Y-112466000D01*
G75*
G02*
X181190000Y-112391000I75000J0D01*
G01*
G37*
G36*
G01*
X180690000Y-112391000D02*
X180840000Y-112391000D01*
G75*
G02*
X180915000Y-112466000I0J-75000D01*
G01*
X180915000Y-113791000D01*
G75*
G02*
X180840000Y-113866000I-75000J0D01*
G01*
X180690000Y-113866000D01*
G75*
G02*
X180615000Y-113791000I0J75000D01*
G01*
X180615000Y-112466000D01*
G75*
G02*
X180690000Y-112391000I75000J0D01*
G01*
G37*
G36*
G01*
X178690000Y-111566000D02*
X180015000Y-111566000D01*
G75*
G02*
X180090000Y-111641000I0J-75000D01*
G01*
X180090000Y-111791000D01*
G75*
G02*
X180015000Y-111866000I-75000J0D01*
G01*
X178690000Y-111866000D01*
G75*
G02*
X178615000Y-111791000I0J75000D01*
G01*
X178615000Y-111641000D01*
G75*
G02*
X178690000Y-111566000I75000J0D01*
G01*
G37*
G36*
G01*
X178690000Y-111066000D02*
X180015000Y-111066000D01*
G75*
G02*
X180090000Y-111141000I0J-75000D01*
G01*
X180090000Y-111291000D01*
G75*
G02*
X180015000Y-111366000I-75000J0D01*
G01*
X178690000Y-111366000D01*
G75*
G02*
X178615000Y-111291000I0J75000D01*
G01*
X178615000Y-111141000D01*
G75*
G02*
X178690000Y-111066000I75000J0D01*
G01*
G37*
G36*
G01*
X178690000Y-110566000D02*
X180015000Y-110566000D01*
G75*
G02*
X180090000Y-110641000I0J-75000D01*
G01*
X180090000Y-110791000D01*
G75*
G02*
X180015000Y-110866000I-75000J0D01*
G01*
X178690000Y-110866000D01*
G75*
G02*
X178615000Y-110791000I0J75000D01*
G01*
X178615000Y-110641000D01*
G75*
G02*
X178690000Y-110566000I75000J0D01*
G01*
G37*
G36*
G01*
X178690000Y-110066000D02*
X180015000Y-110066000D01*
G75*
G02*
X180090000Y-110141000I0J-75000D01*
G01*
X180090000Y-110291000D01*
G75*
G02*
X180015000Y-110366000I-75000J0D01*
G01*
X178690000Y-110366000D01*
G75*
G02*
X178615000Y-110291000I0J75000D01*
G01*
X178615000Y-110141000D01*
G75*
G02*
X178690000Y-110066000I75000J0D01*
G01*
G37*
G36*
G01*
X178690000Y-109566000D02*
X180015000Y-109566000D01*
G75*
G02*
X180090000Y-109641000I0J-75000D01*
G01*
X180090000Y-109791000D01*
G75*
G02*
X180015000Y-109866000I-75000J0D01*
G01*
X178690000Y-109866000D01*
G75*
G02*
X178615000Y-109791000I0J75000D01*
G01*
X178615000Y-109641000D01*
G75*
G02*
X178690000Y-109566000I75000J0D01*
G01*
G37*
G36*
G01*
X178690000Y-109066000D02*
X180015000Y-109066000D01*
G75*
G02*
X180090000Y-109141000I0J-75000D01*
G01*
X180090000Y-109291000D01*
G75*
G02*
X180015000Y-109366000I-75000J0D01*
G01*
X178690000Y-109366000D01*
G75*
G02*
X178615000Y-109291000I0J75000D01*
G01*
X178615000Y-109141000D01*
G75*
G02*
X178690000Y-109066000I75000J0D01*
G01*
G37*
G36*
G01*
X178690000Y-108566000D02*
X180015000Y-108566000D01*
G75*
G02*
X180090000Y-108641000I0J-75000D01*
G01*
X180090000Y-108791000D01*
G75*
G02*
X180015000Y-108866000I-75000J0D01*
G01*
X178690000Y-108866000D01*
G75*
G02*
X178615000Y-108791000I0J75000D01*
G01*
X178615000Y-108641000D01*
G75*
G02*
X178690000Y-108566000I75000J0D01*
G01*
G37*
G36*
G01*
X178690000Y-108066000D02*
X180015000Y-108066000D01*
G75*
G02*
X180090000Y-108141000I0J-75000D01*
G01*
X180090000Y-108291000D01*
G75*
G02*
X180015000Y-108366000I-75000J0D01*
G01*
X178690000Y-108366000D01*
G75*
G02*
X178615000Y-108291000I0J75000D01*
G01*
X178615000Y-108141000D01*
G75*
G02*
X178690000Y-108066000I75000J0D01*
G01*
G37*
G36*
G01*
X178690000Y-107566000D02*
X180015000Y-107566000D01*
G75*
G02*
X180090000Y-107641000I0J-75000D01*
G01*
X180090000Y-107791000D01*
G75*
G02*
X180015000Y-107866000I-75000J0D01*
G01*
X178690000Y-107866000D01*
G75*
G02*
X178615000Y-107791000I0J75000D01*
G01*
X178615000Y-107641000D01*
G75*
G02*
X178690000Y-107566000I75000J0D01*
G01*
G37*
G36*
G01*
X178690000Y-107066000D02*
X180015000Y-107066000D01*
G75*
G02*
X180090000Y-107141000I0J-75000D01*
G01*
X180090000Y-107291000D01*
G75*
G02*
X180015000Y-107366000I-75000J0D01*
G01*
X178690000Y-107366000D01*
G75*
G02*
X178615000Y-107291000I0J75000D01*
G01*
X178615000Y-107141000D01*
G75*
G02*
X178690000Y-107066000I75000J0D01*
G01*
G37*
G36*
G01*
X178690000Y-106566000D02*
X180015000Y-106566000D01*
G75*
G02*
X180090000Y-106641000I0J-75000D01*
G01*
X180090000Y-106791000D01*
G75*
G02*
X180015000Y-106866000I-75000J0D01*
G01*
X178690000Y-106866000D01*
G75*
G02*
X178615000Y-106791000I0J75000D01*
G01*
X178615000Y-106641000D01*
G75*
G02*
X178690000Y-106566000I75000J0D01*
G01*
G37*
G36*
G01*
X178690000Y-106066000D02*
X180015000Y-106066000D01*
G75*
G02*
X180090000Y-106141000I0J-75000D01*
G01*
X180090000Y-106291000D01*
G75*
G02*
X180015000Y-106366000I-75000J0D01*
G01*
X178690000Y-106366000D01*
G75*
G02*
X178615000Y-106291000I0J75000D01*
G01*
X178615000Y-106141000D01*
G75*
G02*
X178690000Y-106066000I75000J0D01*
G01*
G37*
G36*
G01*
X180690000Y-104066000D02*
X180840000Y-104066000D01*
G75*
G02*
X180915000Y-104141000I0J-75000D01*
G01*
X180915000Y-105466000D01*
G75*
G02*
X180840000Y-105541000I-75000J0D01*
G01*
X180690000Y-105541000D01*
G75*
G02*
X180615000Y-105466000I0J75000D01*
G01*
X180615000Y-104141000D01*
G75*
G02*
X180690000Y-104066000I75000J0D01*
G01*
G37*
G36*
G01*
X181190000Y-104066000D02*
X181340000Y-104066000D01*
G75*
G02*
X181415000Y-104141000I0J-75000D01*
G01*
X181415000Y-105466000D01*
G75*
G02*
X181340000Y-105541000I-75000J0D01*
G01*
X181190000Y-105541000D01*
G75*
G02*
X181115000Y-105466000I0J75000D01*
G01*
X181115000Y-104141000D01*
G75*
G02*
X181190000Y-104066000I75000J0D01*
G01*
G37*
G36*
G01*
X181690000Y-104066000D02*
X181840000Y-104066000D01*
G75*
G02*
X181915000Y-104141000I0J-75000D01*
G01*
X181915000Y-105466000D01*
G75*
G02*
X181840000Y-105541000I-75000J0D01*
G01*
X181690000Y-105541000D01*
G75*
G02*
X181615000Y-105466000I0J75000D01*
G01*
X181615000Y-104141000D01*
G75*
G02*
X181690000Y-104066000I75000J0D01*
G01*
G37*
G36*
G01*
X182190000Y-104066000D02*
X182340000Y-104066000D01*
G75*
G02*
X182415000Y-104141000I0J-75000D01*
G01*
X182415000Y-105466000D01*
G75*
G02*
X182340000Y-105541000I-75000J0D01*
G01*
X182190000Y-105541000D01*
G75*
G02*
X182115000Y-105466000I0J75000D01*
G01*
X182115000Y-104141000D01*
G75*
G02*
X182190000Y-104066000I75000J0D01*
G01*
G37*
G36*
G01*
X182690000Y-104066000D02*
X182840000Y-104066000D01*
G75*
G02*
X182915000Y-104141000I0J-75000D01*
G01*
X182915000Y-105466000D01*
G75*
G02*
X182840000Y-105541000I-75000J0D01*
G01*
X182690000Y-105541000D01*
G75*
G02*
X182615000Y-105466000I0J75000D01*
G01*
X182615000Y-104141000D01*
G75*
G02*
X182690000Y-104066000I75000J0D01*
G01*
G37*
G36*
G01*
X183190000Y-104066000D02*
X183340000Y-104066000D01*
G75*
G02*
X183415000Y-104141000I0J-75000D01*
G01*
X183415000Y-105466000D01*
G75*
G02*
X183340000Y-105541000I-75000J0D01*
G01*
X183190000Y-105541000D01*
G75*
G02*
X183115000Y-105466000I0J75000D01*
G01*
X183115000Y-104141000D01*
G75*
G02*
X183190000Y-104066000I75000J0D01*
G01*
G37*
G36*
G01*
X183690000Y-104066000D02*
X183840000Y-104066000D01*
G75*
G02*
X183915000Y-104141000I0J-75000D01*
G01*
X183915000Y-105466000D01*
G75*
G02*
X183840000Y-105541000I-75000J0D01*
G01*
X183690000Y-105541000D01*
G75*
G02*
X183615000Y-105466000I0J75000D01*
G01*
X183615000Y-104141000D01*
G75*
G02*
X183690000Y-104066000I75000J0D01*
G01*
G37*
G36*
G01*
X184190000Y-104066000D02*
X184340000Y-104066000D01*
G75*
G02*
X184415000Y-104141000I0J-75000D01*
G01*
X184415000Y-105466000D01*
G75*
G02*
X184340000Y-105541000I-75000J0D01*
G01*
X184190000Y-105541000D01*
G75*
G02*
X184115000Y-105466000I0J75000D01*
G01*
X184115000Y-104141000D01*
G75*
G02*
X184190000Y-104066000I75000J0D01*
G01*
G37*
G36*
G01*
X184690000Y-104066000D02*
X184840000Y-104066000D01*
G75*
G02*
X184915000Y-104141000I0J-75000D01*
G01*
X184915000Y-105466000D01*
G75*
G02*
X184840000Y-105541000I-75000J0D01*
G01*
X184690000Y-105541000D01*
G75*
G02*
X184615000Y-105466000I0J75000D01*
G01*
X184615000Y-104141000D01*
G75*
G02*
X184690000Y-104066000I75000J0D01*
G01*
G37*
G36*
G01*
X185190000Y-104066000D02*
X185340000Y-104066000D01*
G75*
G02*
X185415000Y-104141000I0J-75000D01*
G01*
X185415000Y-105466000D01*
G75*
G02*
X185340000Y-105541000I-75000J0D01*
G01*
X185190000Y-105541000D01*
G75*
G02*
X185115000Y-105466000I0J75000D01*
G01*
X185115000Y-104141000D01*
G75*
G02*
X185190000Y-104066000I75000J0D01*
G01*
G37*
G36*
G01*
X185690000Y-104066000D02*
X185840000Y-104066000D01*
G75*
G02*
X185915000Y-104141000I0J-75000D01*
G01*
X185915000Y-105466000D01*
G75*
G02*
X185840000Y-105541000I-75000J0D01*
G01*
X185690000Y-105541000D01*
G75*
G02*
X185615000Y-105466000I0J75000D01*
G01*
X185615000Y-104141000D01*
G75*
G02*
X185690000Y-104066000I75000J0D01*
G01*
G37*
G36*
G01*
X186190000Y-104066000D02*
X186340000Y-104066000D01*
G75*
G02*
X186415000Y-104141000I0J-75000D01*
G01*
X186415000Y-105466000D01*
G75*
G02*
X186340000Y-105541000I-75000J0D01*
G01*
X186190000Y-105541000D01*
G75*
G02*
X186115000Y-105466000I0J75000D01*
G01*
X186115000Y-104141000D01*
G75*
G02*
X186190000Y-104066000I75000J0D01*
G01*
G37*
%TD*%
D12*
%TO.C,Y1*%
X190754000Y-111994000D03*
X190754000Y-109494000D03*
%TD*%
%TO.C,C18*%
G36*
G01*
X187127000Y-96905000D02*
X187127000Y-97405000D01*
G75*
G02*
X186902000Y-97630000I-225000J0D01*
G01*
X186452000Y-97630000D01*
G75*
G02*
X186227000Y-97405000I0J225000D01*
G01*
X186227000Y-96905000D01*
G75*
G02*
X186452000Y-96680000I225000J0D01*
G01*
X186902000Y-96680000D01*
G75*
G02*
X187127000Y-96905000I0J-225000D01*
G01*
G37*
G36*
G01*
X188677000Y-96905000D02*
X188677000Y-97405000D01*
G75*
G02*
X188452000Y-97630000I-225000J0D01*
G01*
X188002000Y-97630000D01*
G75*
G02*
X187777000Y-97405000I0J225000D01*
G01*
X187777000Y-96905000D01*
G75*
G02*
X188002000Y-96680000I225000J0D01*
G01*
X188452000Y-96680000D01*
G75*
G02*
X188677000Y-96905000I0J-225000D01*
G01*
G37*
%TD*%
D13*
%TO.C,TP11*%
X182626000Y-123063000D03*
%TD*%
%TO.C,TP9*%
X144653000Y-135636000D03*
%TD*%
D14*
%TO.C,J3*%
X152728000Y-79248000D03*
X151478000Y-79248000D03*
X150228000Y-79248000D03*
X148978000Y-79248000D03*
X147728000Y-79248000D03*
X146478000Y-79248000D03*
X145228000Y-79248000D03*
X143978000Y-79248000D03*
X142728000Y-79248000D03*
G36*
G01*
X141078000Y-79698000D02*
X141078000Y-78798000D01*
G75*
G02*
X141278000Y-78598000I200000J0D01*
G01*
X141678000Y-78598000D01*
G75*
G02*
X141878000Y-78798000I0J-200000D01*
G01*
X141878000Y-79698000D01*
G75*
G02*
X141678000Y-79898000I-200000J0D01*
G01*
X141278000Y-79898000D01*
G75*
G02*
X141078000Y-79698000I0J200000D01*
G01*
G37*
%TD*%
D15*
%TO.C,TP24*%
X185547000Y-137604500D03*
X188087000Y-137604500D03*
%TD*%
%TO.C,TP17*%
X152146000Y-141351000D03*
X149606000Y-141351000D03*
%TD*%
%TO.C,TP16*%
X147066000Y-141351000D03*
X144526000Y-141351000D03*
%TD*%
%TO.C,TP7*%
X147066000Y-139065000D03*
X144526000Y-139065000D03*
%TD*%
%TO.C,TP6*%
X152146000Y-139065000D03*
X149606000Y-139065000D03*
%TD*%
D13*
%TO.C,TP26*%
X188849000Y-142113000D03*
%TD*%
%TO.C,TP25*%
X186182000Y-142113000D03*
%TD*%
%TO.C,TP20*%
X147955000Y-116840000D03*
%TD*%
%TO.C,TP18*%
X147383500Y-102108000D03*
%TD*%
%TO.C,TP15*%
X144526000Y-119126000D03*
%TD*%
%TO.C,TP14*%
X145669000Y-114808000D03*
%TD*%
%TO.C,TP13*%
X144653000Y-97790000D03*
%TD*%
%TO.C,TP12*%
X146431000Y-107696000D03*
%TD*%
%TO.C,TP10*%
X144653000Y-92202000D03*
%TD*%
%TO.C,TP8*%
X148209000Y-126238000D03*
%TD*%
%TO.C,TP5*%
X144653000Y-94742000D03*
%TD*%
%TO.C,TP4*%
X146431000Y-89916000D03*
%TD*%
%TO.C,TP3*%
X144526000Y-123698000D03*
%TD*%
%TO.C,TP2*%
X145669000Y-132842000D03*
%TD*%
%TO.C,TP1*%
X184404000Y-99504500D03*
%TD*%
D16*
%TO.C,U3*%
X178628000Y-124630000D03*
X180528000Y-124630000D03*
X180528000Y-126830000D03*
X179578000Y-126830000D03*
X178628000Y-126830000D03*
%TD*%
D17*
%TO.C,J2*%
X178498500Y-91520000D03*
X178498500Y-92770000D03*
X178498500Y-94020000D03*
X178498500Y-95270000D03*
G36*
G01*
X178948500Y-96920000D02*
X178048500Y-96920000D01*
G75*
G02*
X177848500Y-96720000I0J200000D01*
G01*
X177848500Y-96320000D01*
G75*
G02*
X178048500Y-96120000I200000J0D01*
G01*
X178948500Y-96120000D01*
G75*
G02*
X179148500Y-96320000I0J-200000D01*
G01*
X179148500Y-96720000D01*
G75*
G02*
X178948500Y-96920000I-200000J0D01*
G01*
G37*
%TD*%
%TO.C,J1*%
X182753000Y-91520000D03*
X182753000Y-92770000D03*
X182753000Y-94020000D03*
X182753000Y-95270000D03*
G36*
G01*
X183203000Y-96920000D02*
X182303000Y-96920000D01*
G75*
G02*
X182103000Y-96720000I0J200000D01*
G01*
X182103000Y-96320000D01*
G75*
G02*
X182303000Y-96120000I200000J0D01*
G01*
X183203000Y-96120000D01*
G75*
G02*
X183403000Y-96320000I0J-200000D01*
G01*
X183403000Y-96720000D01*
G75*
G02*
X183203000Y-96920000I-200000J0D01*
G01*
G37*
%TD*%
%TO.C,C111*%
G36*
G01*
X186746000Y-102239000D02*
X186746000Y-102739000D01*
G75*
G02*
X186521000Y-102964000I-225000J0D01*
G01*
X186071000Y-102964000D01*
G75*
G02*
X185846000Y-102739000I0J225000D01*
G01*
X185846000Y-102239000D01*
G75*
G02*
X186071000Y-102014000I225000J0D01*
G01*
X186521000Y-102014000D01*
G75*
G02*
X186746000Y-102239000I0J-225000D01*
G01*
G37*
G36*
G01*
X188296000Y-102239000D02*
X188296000Y-102739000D01*
G75*
G02*
X188071000Y-102964000I-225000J0D01*
G01*
X187621000Y-102964000D01*
G75*
G02*
X187396000Y-102739000I0J225000D01*
G01*
X187396000Y-102239000D01*
G75*
G02*
X187621000Y-102014000I225000J0D01*
G01*
X188071000Y-102014000D01*
G75*
G02*
X188296000Y-102239000I0J-225000D01*
G01*
G37*
%TD*%
D18*
%TO.C,U2*%
X151851000Y-123739000D03*
X151201000Y-123739000D03*
X150551000Y-123739000D03*
X149901000Y-123739000D03*
X149901000Y-119339000D03*
X150551000Y-119339000D03*
X151201000Y-119339000D03*
X151851000Y-119339000D03*
%TD*%
D11*
%TO.C,J8*%
X192857000Y-127488000D03*
X185857000Y-127488000D03*
D10*
X188107000Y-124788000D03*
X189357000Y-124788000D03*
X190607000Y-124788000D03*
%TD*%
D11*
%TO.C,J5*%
X185857000Y-131973000D03*
X192857000Y-131973000D03*
D10*
X190607000Y-134673000D03*
X189357000Y-134673000D03*
X188107000Y-134673000D03*
%TD*%
D17*
%TO.C,J14*%
X115316000Y-108004000D03*
X115316000Y-106754000D03*
X115316000Y-105504000D03*
X115316000Y-104254000D03*
X115316000Y-103004000D03*
X115316000Y-101754000D03*
X115316000Y-100504000D03*
X115316000Y-99254000D03*
X115316000Y-98004000D03*
X115316000Y-96754000D03*
G36*
G01*
X114866000Y-95104000D02*
X115766000Y-95104000D01*
G75*
G02*
X115966000Y-95304000I0J-200000D01*
G01*
X115966000Y-95704000D01*
G75*
G02*
X115766000Y-95904000I-200000J0D01*
G01*
X114866000Y-95904000D01*
G75*
G02*
X114666000Y-95704000I0J200000D01*
G01*
X114666000Y-95304000D01*
G75*
G02*
X114866000Y-95104000I200000J0D01*
G01*
G37*
%TD*%
%TO.C,J13*%
X115316000Y-91494000D03*
X115316000Y-90244000D03*
X115316000Y-88994000D03*
X115316000Y-87744000D03*
X115316000Y-86494000D03*
X115316000Y-85244000D03*
X115316000Y-83994000D03*
X115316000Y-82744000D03*
X115316000Y-81494000D03*
X115316000Y-80244000D03*
G36*
G01*
X114866000Y-78594000D02*
X115766000Y-78594000D01*
G75*
G02*
X115966000Y-78794000I0J-200000D01*
G01*
X115966000Y-79194000D01*
G75*
G02*
X115766000Y-79394000I-200000J0D01*
G01*
X114866000Y-79394000D01*
G75*
G02*
X114666000Y-79194000I0J200000D01*
G01*
X114666000Y-78794000D01*
G75*
G02*
X114866000Y-78594000I200000J0D01*
G01*
G37*
%TD*%
%TO.C,J10*%
X115316000Y-124514000D03*
X115316000Y-123264000D03*
X115316000Y-122014000D03*
X115316000Y-120764000D03*
X115316000Y-119514000D03*
X115316000Y-118264000D03*
X115316000Y-117014000D03*
X115316000Y-115764000D03*
X115316000Y-114514000D03*
X115316000Y-113264000D03*
G36*
G01*
X114866000Y-111614000D02*
X115766000Y-111614000D01*
G75*
G02*
X115966000Y-111814000I0J-200000D01*
G01*
X115966000Y-112214000D01*
G75*
G02*
X115766000Y-112414000I-200000J0D01*
G01*
X114866000Y-112414000D01*
G75*
G02*
X114666000Y-112214000I0J200000D01*
G01*
X114666000Y-111814000D01*
G75*
G02*
X114866000Y-111614000I200000J0D01*
G01*
G37*
%TD*%
D19*
%TO.C,U59*%
X121570750Y-131078999D03*
X121570750Y-130429000D03*
X121570750Y-129779001D03*
X123793250Y-129779001D03*
X123793250Y-130429000D03*
X123793250Y-131078999D03*
%TD*%
%TO.C,U58*%
X121570750Y-128030999D03*
X121570750Y-127381000D03*
X121570750Y-126731001D03*
X123793250Y-126731001D03*
X123793250Y-127381000D03*
X123793250Y-128030999D03*
%TD*%
%TO.C,U57*%
X121570750Y-124982999D03*
X121570750Y-124333000D03*
X121570750Y-123683001D03*
X123793250Y-123683001D03*
X123793250Y-124333000D03*
X123793250Y-124982999D03*
%TD*%
%TO.C,U56*%
X121570750Y-121934999D03*
X121570750Y-121285000D03*
X121570750Y-120635001D03*
X123793250Y-120635001D03*
X123793250Y-121285000D03*
X123793250Y-121934999D03*
%TD*%
%TO.C,U55*%
X121570750Y-118886999D03*
X121570750Y-118237000D03*
X121570750Y-117587001D03*
X123793250Y-117587001D03*
X123793250Y-118237000D03*
X123793250Y-118886999D03*
%TD*%
%TO.C,U54*%
X121570750Y-115838999D03*
X121570750Y-115189000D03*
X121570750Y-114539001D03*
X123793250Y-114539001D03*
X123793250Y-115189000D03*
X123793250Y-115838999D03*
%TD*%
%TO.C,U53*%
X121570750Y-109742999D03*
X121570750Y-109093000D03*
X121570750Y-108443001D03*
X123793250Y-108443001D03*
X123793250Y-109093000D03*
X123793250Y-109742999D03*
%TD*%
%TO.C,U52*%
X121570750Y-112790999D03*
X121570750Y-112141000D03*
X121570750Y-111491001D03*
X123793250Y-111491001D03*
X123793250Y-112141000D03*
X123793250Y-112790999D03*
%TD*%
%TO.C,U51*%
X121570750Y-100598999D03*
X121570750Y-99949000D03*
X121570750Y-99299001D03*
X123793250Y-99299001D03*
X123793250Y-99949000D03*
X123793250Y-100598999D03*
%TD*%
%TO.C,U50*%
X121570750Y-103646999D03*
X121570750Y-102997000D03*
X121570750Y-102347001D03*
X123793250Y-102347001D03*
X123793250Y-102997000D03*
X123793250Y-103646999D03*
%TD*%
%TO.C,U49*%
X121570750Y-106694999D03*
X121570750Y-106045000D03*
X121570750Y-105395001D03*
X123793250Y-105395001D03*
X123793250Y-106045000D03*
X123793250Y-106694999D03*
%TD*%
%TO.C,U48*%
X121570750Y-97550999D03*
X121570750Y-96901000D03*
X121570750Y-96251001D03*
X123793250Y-96251001D03*
X123793250Y-96901000D03*
X123793250Y-97550999D03*
%TD*%
%TO.C,U47*%
X121570750Y-94502999D03*
X121570750Y-93853000D03*
X121570750Y-93203001D03*
X123793250Y-93203001D03*
X123793250Y-93853000D03*
X123793250Y-94502999D03*
%TD*%
%TO.C,U46*%
X121570750Y-91454999D03*
X121570750Y-90805000D03*
X121570750Y-90155001D03*
X123793250Y-90155001D03*
X123793250Y-90805000D03*
X123793250Y-91454999D03*
%TD*%
%TO.C,U45*%
X121570750Y-88406999D03*
X121570750Y-87757000D03*
X121570750Y-87107001D03*
X123793250Y-87107001D03*
X123793250Y-87757000D03*
X123793250Y-88406999D03*
%TD*%
%TO.C,U44*%
X121570750Y-85358999D03*
X121570750Y-84709000D03*
X121570750Y-84059001D03*
X123793250Y-84059001D03*
X123793250Y-84709000D03*
X123793250Y-85358999D03*
%TD*%
%TO.C,U43*%
X121570750Y-79262999D03*
X121570750Y-78613000D03*
X121570750Y-77963001D03*
X123793250Y-77963001D03*
X123793250Y-78613000D03*
X123793250Y-79262999D03*
%TD*%
%TO.C,U42*%
X121570750Y-82310999D03*
X121570750Y-81661000D03*
X121570750Y-81011001D03*
X123793250Y-81011001D03*
X123793250Y-81661000D03*
X123793250Y-82310999D03*
%TD*%
D20*
%TO.C,U38*%
X131622800Y-123888500D03*
X131622800Y-122618500D03*
X131622800Y-121348500D03*
X131622800Y-120078500D03*
X131622800Y-118808500D03*
X131622800Y-117538500D03*
X131622800Y-116268500D03*
X131622800Y-114998500D03*
X136347200Y-114998500D03*
X136347200Y-116268500D03*
X136347200Y-117538500D03*
X136347200Y-118808500D03*
X136347200Y-120078500D03*
X136347200Y-121348500D03*
X136347200Y-122618500D03*
X136347200Y-123888500D03*
%TD*%
D19*
%TO.C,U37*%
X161766250Y-135875001D03*
X161766250Y-136525000D03*
X161766250Y-137174999D03*
X159543750Y-137174999D03*
X159543750Y-136525000D03*
X159543750Y-135875001D03*
%TD*%
%TO.C,U36*%
G36*
G01*
X171875000Y-131080000D02*
X171875000Y-131280000D01*
G75*
G02*
X171775000Y-131380000I-100000J0D01*
G01*
X170500000Y-131380000D01*
G75*
G02*
X170400000Y-131280000I0J100000D01*
G01*
X170400000Y-131080000D01*
G75*
G02*
X170500000Y-130980000I100000J0D01*
G01*
X171775000Y-130980000D01*
G75*
G02*
X171875000Y-131080000I0J-100000D01*
G01*
G37*
G36*
G01*
X171875000Y-130430000D02*
X171875000Y-130630000D01*
G75*
G02*
X171775000Y-130730000I-100000J0D01*
G01*
X170500000Y-130730000D01*
G75*
G02*
X170400000Y-130630000I0J100000D01*
G01*
X170400000Y-130430000D01*
G75*
G02*
X170500000Y-130330000I100000J0D01*
G01*
X171775000Y-130330000D01*
G75*
G02*
X171875000Y-130430000I0J-100000D01*
G01*
G37*
G36*
G01*
X171875000Y-129780000D02*
X171875000Y-129980000D01*
G75*
G02*
X171775000Y-130080000I-100000J0D01*
G01*
X170500000Y-130080000D01*
G75*
G02*
X170400000Y-129980000I0J100000D01*
G01*
X170400000Y-129780000D01*
G75*
G02*
X170500000Y-129680000I100000J0D01*
G01*
X171775000Y-129680000D01*
G75*
G02*
X171875000Y-129780000I0J-100000D01*
G01*
G37*
G36*
G01*
X171875000Y-129130000D02*
X171875000Y-129330000D01*
G75*
G02*
X171775000Y-129430000I-100000J0D01*
G01*
X170500000Y-129430000D01*
G75*
G02*
X170400000Y-129330000I0J100000D01*
G01*
X170400000Y-129130000D01*
G75*
G02*
X170500000Y-129030000I100000J0D01*
G01*
X171775000Y-129030000D01*
G75*
G02*
X171875000Y-129130000I0J-100000D01*
G01*
G37*
G36*
G01*
X171875000Y-128480000D02*
X171875000Y-128680000D01*
G75*
G02*
X171775000Y-128780000I-100000J0D01*
G01*
X170500000Y-128780000D01*
G75*
G02*
X170400000Y-128680000I0J100000D01*
G01*
X170400000Y-128480000D01*
G75*
G02*
X170500000Y-128380000I100000J0D01*
G01*
X171775000Y-128380000D01*
G75*
G02*
X171875000Y-128480000I0J-100000D01*
G01*
G37*
G36*
G01*
X171875000Y-127830000D02*
X171875000Y-128030000D01*
G75*
G02*
X171775000Y-128130000I-100000J0D01*
G01*
X170500000Y-128130000D01*
G75*
G02*
X170400000Y-128030000I0J100000D01*
G01*
X170400000Y-127830000D01*
G75*
G02*
X170500000Y-127730000I100000J0D01*
G01*
X171775000Y-127730000D01*
G75*
G02*
X171875000Y-127830000I0J-100000D01*
G01*
G37*
G36*
G01*
X171875000Y-127180000D02*
X171875000Y-127380000D01*
G75*
G02*
X171775000Y-127480000I-100000J0D01*
G01*
X170500000Y-127480000D01*
G75*
G02*
X170400000Y-127380000I0J100000D01*
G01*
X170400000Y-127180000D01*
G75*
G02*
X170500000Y-127080000I100000J0D01*
G01*
X171775000Y-127080000D01*
G75*
G02*
X171875000Y-127180000I0J-100000D01*
G01*
G37*
G36*
G01*
X171875000Y-126530000D02*
X171875000Y-126730000D01*
G75*
G02*
X171775000Y-126830000I-100000J0D01*
G01*
X170500000Y-126830000D01*
G75*
G02*
X170400000Y-126730000I0J100000D01*
G01*
X170400000Y-126530000D01*
G75*
G02*
X170500000Y-126430000I100000J0D01*
G01*
X171775000Y-126430000D01*
G75*
G02*
X171875000Y-126530000I0J-100000D01*
G01*
G37*
G36*
G01*
X166150000Y-126530000D02*
X166150000Y-126730000D01*
G75*
G02*
X166050000Y-126830000I-100000J0D01*
G01*
X164775000Y-126830000D01*
G75*
G02*
X164675000Y-126730000I0J100000D01*
G01*
X164675000Y-126530000D01*
G75*
G02*
X164775000Y-126430000I100000J0D01*
G01*
X166050000Y-126430000D01*
G75*
G02*
X166150000Y-126530000I0J-100000D01*
G01*
G37*
G36*
G01*
X166150000Y-127180000D02*
X166150000Y-127380000D01*
G75*
G02*
X166050000Y-127480000I-100000J0D01*
G01*
X164775000Y-127480000D01*
G75*
G02*
X164675000Y-127380000I0J100000D01*
G01*
X164675000Y-127180000D01*
G75*
G02*
X164775000Y-127080000I100000J0D01*
G01*
X166050000Y-127080000D01*
G75*
G02*
X166150000Y-127180000I0J-100000D01*
G01*
G37*
G36*
G01*
X166150000Y-127830000D02*
X166150000Y-128030000D01*
G75*
G02*
X166050000Y-128130000I-100000J0D01*
G01*
X164775000Y-128130000D01*
G75*
G02*
X164675000Y-128030000I0J100000D01*
G01*
X164675000Y-127830000D01*
G75*
G02*
X164775000Y-127730000I100000J0D01*
G01*
X166050000Y-127730000D01*
G75*
G02*
X166150000Y-127830000I0J-100000D01*
G01*
G37*
G36*
G01*
X166150000Y-128480000D02*
X166150000Y-128680000D01*
G75*
G02*
X166050000Y-128780000I-100000J0D01*
G01*
X164775000Y-128780000D01*
G75*
G02*
X164675000Y-128680000I0J100000D01*
G01*
X164675000Y-128480000D01*
G75*
G02*
X164775000Y-128380000I100000J0D01*
G01*
X166050000Y-128380000D01*
G75*
G02*
X166150000Y-128480000I0J-100000D01*
G01*
G37*
G36*
G01*
X166150000Y-129130000D02*
X166150000Y-129330000D01*
G75*
G02*
X166050000Y-129430000I-100000J0D01*
G01*
X164775000Y-129430000D01*
G75*
G02*
X164675000Y-129330000I0J100000D01*
G01*
X164675000Y-129130000D01*
G75*
G02*
X164775000Y-129030000I100000J0D01*
G01*
X166050000Y-129030000D01*
G75*
G02*
X166150000Y-129130000I0J-100000D01*
G01*
G37*
G36*
G01*
X166150000Y-129780000D02*
X166150000Y-129980000D01*
G75*
G02*
X166050000Y-130080000I-100000J0D01*
G01*
X164775000Y-130080000D01*
G75*
G02*
X164675000Y-129980000I0J100000D01*
G01*
X164675000Y-129780000D01*
G75*
G02*
X164775000Y-129680000I100000J0D01*
G01*
X166050000Y-129680000D01*
G75*
G02*
X166150000Y-129780000I0J-100000D01*
G01*
G37*
G36*
G01*
X166150000Y-130430000D02*
X166150000Y-130630000D01*
G75*
G02*
X166050000Y-130730000I-100000J0D01*
G01*
X164775000Y-130730000D01*
G75*
G02*
X164675000Y-130630000I0J100000D01*
G01*
X164675000Y-130430000D01*
G75*
G02*
X164775000Y-130330000I100000J0D01*
G01*
X166050000Y-130330000D01*
G75*
G02*
X166150000Y-130430000I0J-100000D01*
G01*
G37*
G36*
G01*
X166150000Y-131080000D02*
X166150000Y-131280000D01*
G75*
G02*
X166050000Y-131380000I-100000J0D01*
G01*
X164775000Y-131380000D01*
G75*
G02*
X164675000Y-131280000I0J100000D01*
G01*
X164675000Y-131080000D01*
G75*
G02*
X164775000Y-130980000I100000J0D01*
G01*
X166050000Y-130980000D01*
G75*
G02*
X166150000Y-131080000I0J-100000D01*
G01*
G37*
%TD*%
%TO.C,U35*%
X161766250Y-132827001D03*
X161766250Y-133477000D03*
X161766250Y-134126999D03*
X159543750Y-134126999D03*
X159543750Y-133477000D03*
X159543750Y-132827001D03*
%TD*%
%TO.C,U34*%
X161766250Y-129779001D03*
X161766250Y-130429000D03*
X161766250Y-131078999D03*
X159543750Y-131078999D03*
X159543750Y-130429000D03*
X159543750Y-129779001D03*
%TD*%
%TO.C,U33*%
X161766250Y-126731001D03*
X161766250Y-127381000D03*
X161766250Y-128030999D03*
X159543750Y-128030999D03*
X159543750Y-127381000D03*
X159543750Y-126731001D03*
%TD*%
%TO.C,U32*%
X161766250Y-123683001D03*
X161766250Y-124333000D03*
X161766250Y-124982999D03*
X159543750Y-124982999D03*
X159543750Y-124333000D03*
X159543750Y-123683001D03*
%TD*%
%TO.C,U31*%
G36*
G01*
X171875000Y-118888000D02*
X171875000Y-119088000D01*
G75*
G02*
X171775000Y-119188000I-100000J0D01*
G01*
X170500000Y-119188000D01*
G75*
G02*
X170400000Y-119088000I0J100000D01*
G01*
X170400000Y-118888000D01*
G75*
G02*
X170500000Y-118788000I100000J0D01*
G01*
X171775000Y-118788000D01*
G75*
G02*
X171875000Y-118888000I0J-100000D01*
G01*
G37*
G36*
G01*
X171875000Y-118238000D02*
X171875000Y-118438000D01*
G75*
G02*
X171775000Y-118538000I-100000J0D01*
G01*
X170500000Y-118538000D01*
G75*
G02*
X170400000Y-118438000I0J100000D01*
G01*
X170400000Y-118238000D01*
G75*
G02*
X170500000Y-118138000I100000J0D01*
G01*
X171775000Y-118138000D01*
G75*
G02*
X171875000Y-118238000I0J-100000D01*
G01*
G37*
G36*
G01*
X171875000Y-117588000D02*
X171875000Y-117788000D01*
G75*
G02*
X171775000Y-117888000I-100000J0D01*
G01*
X170500000Y-117888000D01*
G75*
G02*
X170400000Y-117788000I0J100000D01*
G01*
X170400000Y-117588000D01*
G75*
G02*
X170500000Y-117488000I100000J0D01*
G01*
X171775000Y-117488000D01*
G75*
G02*
X171875000Y-117588000I0J-100000D01*
G01*
G37*
G36*
G01*
X171875000Y-116938000D02*
X171875000Y-117138000D01*
G75*
G02*
X171775000Y-117238000I-100000J0D01*
G01*
X170500000Y-117238000D01*
G75*
G02*
X170400000Y-117138000I0J100000D01*
G01*
X170400000Y-116938000D01*
G75*
G02*
X170500000Y-116838000I100000J0D01*
G01*
X171775000Y-116838000D01*
G75*
G02*
X171875000Y-116938000I0J-100000D01*
G01*
G37*
G36*
G01*
X171875000Y-116288000D02*
X171875000Y-116488000D01*
G75*
G02*
X171775000Y-116588000I-100000J0D01*
G01*
X170500000Y-116588000D01*
G75*
G02*
X170400000Y-116488000I0J100000D01*
G01*
X170400000Y-116288000D01*
G75*
G02*
X170500000Y-116188000I100000J0D01*
G01*
X171775000Y-116188000D01*
G75*
G02*
X171875000Y-116288000I0J-100000D01*
G01*
G37*
G36*
G01*
X171875000Y-115638000D02*
X171875000Y-115838000D01*
G75*
G02*
X171775000Y-115938000I-100000J0D01*
G01*
X170500000Y-115938000D01*
G75*
G02*
X170400000Y-115838000I0J100000D01*
G01*
X170400000Y-115638000D01*
G75*
G02*
X170500000Y-115538000I100000J0D01*
G01*
X171775000Y-115538000D01*
G75*
G02*
X171875000Y-115638000I0J-100000D01*
G01*
G37*
G36*
G01*
X171875000Y-114988000D02*
X171875000Y-115188000D01*
G75*
G02*
X171775000Y-115288000I-100000J0D01*
G01*
X170500000Y-115288000D01*
G75*
G02*
X170400000Y-115188000I0J100000D01*
G01*
X170400000Y-114988000D01*
G75*
G02*
X170500000Y-114888000I100000J0D01*
G01*
X171775000Y-114888000D01*
G75*
G02*
X171875000Y-114988000I0J-100000D01*
G01*
G37*
G36*
G01*
X171875000Y-114338000D02*
X171875000Y-114538000D01*
G75*
G02*
X171775000Y-114638000I-100000J0D01*
G01*
X170500000Y-114638000D01*
G75*
G02*
X170400000Y-114538000I0J100000D01*
G01*
X170400000Y-114338000D01*
G75*
G02*
X170500000Y-114238000I100000J0D01*
G01*
X171775000Y-114238000D01*
G75*
G02*
X171875000Y-114338000I0J-100000D01*
G01*
G37*
G36*
G01*
X166150000Y-114338000D02*
X166150000Y-114538000D01*
G75*
G02*
X166050000Y-114638000I-100000J0D01*
G01*
X164775000Y-114638000D01*
G75*
G02*
X164675000Y-114538000I0J100000D01*
G01*
X164675000Y-114338000D01*
G75*
G02*
X164775000Y-114238000I100000J0D01*
G01*
X166050000Y-114238000D01*
G75*
G02*
X166150000Y-114338000I0J-100000D01*
G01*
G37*
G36*
G01*
X166150000Y-114988000D02*
X166150000Y-115188000D01*
G75*
G02*
X166050000Y-115288000I-100000J0D01*
G01*
X164775000Y-115288000D01*
G75*
G02*
X164675000Y-115188000I0J100000D01*
G01*
X164675000Y-114988000D01*
G75*
G02*
X164775000Y-114888000I100000J0D01*
G01*
X166050000Y-114888000D01*
G75*
G02*
X166150000Y-114988000I0J-100000D01*
G01*
G37*
G36*
G01*
X166150000Y-115638000D02*
X166150000Y-115838000D01*
G75*
G02*
X166050000Y-115938000I-100000J0D01*
G01*
X164775000Y-115938000D01*
G75*
G02*
X164675000Y-115838000I0J100000D01*
G01*
X164675000Y-115638000D01*
G75*
G02*
X164775000Y-115538000I100000J0D01*
G01*
X166050000Y-115538000D01*
G75*
G02*
X166150000Y-115638000I0J-100000D01*
G01*
G37*
G36*
G01*
X166150000Y-116288000D02*
X166150000Y-116488000D01*
G75*
G02*
X166050000Y-116588000I-100000J0D01*
G01*
X164775000Y-116588000D01*
G75*
G02*
X164675000Y-116488000I0J100000D01*
G01*
X164675000Y-116288000D01*
G75*
G02*
X164775000Y-116188000I100000J0D01*
G01*
X166050000Y-116188000D01*
G75*
G02*
X166150000Y-116288000I0J-100000D01*
G01*
G37*
G36*
G01*
X166150000Y-116938000D02*
X166150000Y-117138000D01*
G75*
G02*
X166050000Y-117238000I-100000J0D01*
G01*
X164775000Y-117238000D01*
G75*
G02*
X164675000Y-117138000I0J100000D01*
G01*
X164675000Y-116938000D01*
G75*
G02*
X164775000Y-116838000I100000J0D01*
G01*
X166050000Y-116838000D01*
G75*
G02*
X166150000Y-116938000I0J-100000D01*
G01*
G37*
G36*
G01*
X166150000Y-117588000D02*
X166150000Y-117788000D01*
G75*
G02*
X166050000Y-117888000I-100000J0D01*
G01*
X164775000Y-117888000D01*
G75*
G02*
X164675000Y-117788000I0J100000D01*
G01*
X164675000Y-117588000D01*
G75*
G02*
X164775000Y-117488000I100000J0D01*
G01*
X166050000Y-117488000D01*
G75*
G02*
X166150000Y-117588000I0J-100000D01*
G01*
G37*
G36*
G01*
X166150000Y-118238000D02*
X166150000Y-118438000D01*
G75*
G02*
X166050000Y-118538000I-100000J0D01*
G01*
X164775000Y-118538000D01*
G75*
G02*
X164675000Y-118438000I0J100000D01*
G01*
X164675000Y-118238000D01*
G75*
G02*
X164775000Y-118138000I100000J0D01*
G01*
X166050000Y-118138000D01*
G75*
G02*
X166150000Y-118238000I0J-100000D01*
G01*
G37*
G36*
G01*
X166150000Y-118888000D02*
X166150000Y-119088000D01*
G75*
G02*
X166050000Y-119188000I-100000J0D01*
G01*
X164775000Y-119188000D01*
G75*
G02*
X164675000Y-119088000I0J100000D01*
G01*
X164675000Y-118888000D01*
G75*
G02*
X164775000Y-118788000I100000J0D01*
G01*
X166050000Y-118788000D01*
G75*
G02*
X166150000Y-118888000I0J-100000D01*
G01*
G37*
%TD*%
%TO.C,U30*%
X161766250Y-120635001D03*
X161766250Y-121285000D03*
X161766250Y-121934999D03*
X159543750Y-121934999D03*
X159543750Y-121285000D03*
X159543750Y-120635001D03*
%TD*%
%TO.C,U29*%
X161766250Y-117587001D03*
X161766250Y-118237000D03*
X161766250Y-118886999D03*
X159543750Y-118886999D03*
X159543750Y-118237000D03*
X159543750Y-117587001D03*
%TD*%
%TO.C,U28*%
X161766250Y-114539001D03*
X161766250Y-115189000D03*
X161766250Y-115838999D03*
X159543750Y-115838999D03*
X159543750Y-115189000D03*
X159543750Y-114539001D03*
%TD*%
%TO.C,U27*%
X161766250Y-111491001D03*
X161766250Y-112141000D03*
X161766250Y-112790999D03*
X159543750Y-112790999D03*
X159543750Y-112141000D03*
X159543750Y-111491001D03*
%TD*%
%TO.C,U26*%
G36*
G01*
X171875000Y-112792000D02*
X171875000Y-112992000D01*
G75*
G02*
X171775000Y-113092000I-100000J0D01*
G01*
X170500000Y-113092000D01*
G75*
G02*
X170400000Y-112992000I0J100000D01*
G01*
X170400000Y-112792000D01*
G75*
G02*
X170500000Y-112692000I100000J0D01*
G01*
X171775000Y-112692000D01*
G75*
G02*
X171875000Y-112792000I0J-100000D01*
G01*
G37*
G36*
G01*
X171875000Y-112142000D02*
X171875000Y-112342000D01*
G75*
G02*
X171775000Y-112442000I-100000J0D01*
G01*
X170500000Y-112442000D01*
G75*
G02*
X170400000Y-112342000I0J100000D01*
G01*
X170400000Y-112142000D01*
G75*
G02*
X170500000Y-112042000I100000J0D01*
G01*
X171775000Y-112042000D01*
G75*
G02*
X171875000Y-112142000I0J-100000D01*
G01*
G37*
G36*
G01*
X171875000Y-111492000D02*
X171875000Y-111692000D01*
G75*
G02*
X171775000Y-111792000I-100000J0D01*
G01*
X170500000Y-111792000D01*
G75*
G02*
X170400000Y-111692000I0J100000D01*
G01*
X170400000Y-111492000D01*
G75*
G02*
X170500000Y-111392000I100000J0D01*
G01*
X171775000Y-111392000D01*
G75*
G02*
X171875000Y-111492000I0J-100000D01*
G01*
G37*
G36*
G01*
X171875000Y-110842000D02*
X171875000Y-111042000D01*
G75*
G02*
X171775000Y-111142000I-100000J0D01*
G01*
X170500000Y-111142000D01*
G75*
G02*
X170400000Y-111042000I0J100000D01*
G01*
X170400000Y-110842000D01*
G75*
G02*
X170500000Y-110742000I100000J0D01*
G01*
X171775000Y-110742000D01*
G75*
G02*
X171875000Y-110842000I0J-100000D01*
G01*
G37*
G36*
G01*
X171875000Y-110192000D02*
X171875000Y-110392000D01*
G75*
G02*
X171775000Y-110492000I-100000J0D01*
G01*
X170500000Y-110492000D01*
G75*
G02*
X170400000Y-110392000I0J100000D01*
G01*
X170400000Y-110192000D01*
G75*
G02*
X170500000Y-110092000I100000J0D01*
G01*
X171775000Y-110092000D01*
G75*
G02*
X171875000Y-110192000I0J-100000D01*
G01*
G37*
G36*
G01*
X171875000Y-109542000D02*
X171875000Y-109742000D01*
G75*
G02*
X171775000Y-109842000I-100000J0D01*
G01*
X170500000Y-109842000D01*
G75*
G02*
X170400000Y-109742000I0J100000D01*
G01*
X170400000Y-109542000D01*
G75*
G02*
X170500000Y-109442000I100000J0D01*
G01*
X171775000Y-109442000D01*
G75*
G02*
X171875000Y-109542000I0J-100000D01*
G01*
G37*
G36*
G01*
X171875000Y-108892000D02*
X171875000Y-109092000D01*
G75*
G02*
X171775000Y-109192000I-100000J0D01*
G01*
X170500000Y-109192000D01*
G75*
G02*
X170400000Y-109092000I0J100000D01*
G01*
X170400000Y-108892000D01*
G75*
G02*
X170500000Y-108792000I100000J0D01*
G01*
X171775000Y-108792000D01*
G75*
G02*
X171875000Y-108892000I0J-100000D01*
G01*
G37*
G36*
G01*
X171875000Y-108242000D02*
X171875000Y-108442000D01*
G75*
G02*
X171775000Y-108542000I-100000J0D01*
G01*
X170500000Y-108542000D01*
G75*
G02*
X170400000Y-108442000I0J100000D01*
G01*
X170400000Y-108242000D01*
G75*
G02*
X170500000Y-108142000I100000J0D01*
G01*
X171775000Y-108142000D01*
G75*
G02*
X171875000Y-108242000I0J-100000D01*
G01*
G37*
G36*
G01*
X166150000Y-108242000D02*
X166150000Y-108442000D01*
G75*
G02*
X166050000Y-108542000I-100000J0D01*
G01*
X164775000Y-108542000D01*
G75*
G02*
X164675000Y-108442000I0J100000D01*
G01*
X164675000Y-108242000D01*
G75*
G02*
X164775000Y-108142000I100000J0D01*
G01*
X166050000Y-108142000D01*
G75*
G02*
X166150000Y-108242000I0J-100000D01*
G01*
G37*
G36*
G01*
X166150000Y-108892000D02*
X166150000Y-109092000D01*
G75*
G02*
X166050000Y-109192000I-100000J0D01*
G01*
X164775000Y-109192000D01*
G75*
G02*
X164675000Y-109092000I0J100000D01*
G01*
X164675000Y-108892000D01*
G75*
G02*
X164775000Y-108792000I100000J0D01*
G01*
X166050000Y-108792000D01*
G75*
G02*
X166150000Y-108892000I0J-100000D01*
G01*
G37*
G36*
G01*
X166150000Y-109542000D02*
X166150000Y-109742000D01*
G75*
G02*
X166050000Y-109842000I-100000J0D01*
G01*
X164775000Y-109842000D01*
G75*
G02*
X164675000Y-109742000I0J100000D01*
G01*
X164675000Y-109542000D01*
G75*
G02*
X164775000Y-109442000I100000J0D01*
G01*
X166050000Y-109442000D01*
G75*
G02*
X166150000Y-109542000I0J-100000D01*
G01*
G37*
G36*
G01*
X166150000Y-110192000D02*
X166150000Y-110392000D01*
G75*
G02*
X166050000Y-110492000I-100000J0D01*
G01*
X164775000Y-110492000D01*
G75*
G02*
X164675000Y-110392000I0J100000D01*
G01*
X164675000Y-110192000D01*
G75*
G02*
X164775000Y-110092000I100000J0D01*
G01*
X166050000Y-110092000D01*
G75*
G02*
X166150000Y-110192000I0J-100000D01*
G01*
G37*
G36*
G01*
X166150000Y-110842000D02*
X166150000Y-111042000D01*
G75*
G02*
X166050000Y-111142000I-100000J0D01*
G01*
X164775000Y-111142000D01*
G75*
G02*
X164675000Y-111042000I0J100000D01*
G01*
X164675000Y-110842000D01*
G75*
G02*
X164775000Y-110742000I100000J0D01*
G01*
X166050000Y-110742000D01*
G75*
G02*
X166150000Y-110842000I0J-100000D01*
G01*
G37*
G36*
G01*
X166150000Y-111492000D02*
X166150000Y-111692000D01*
G75*
G02*
X166050000Y-111792000I-100000J0D01*
G01*
X164775000Y-111792000D01*
G75*
G02*
X164675000Y-111692000I0J100000D01*
G01*
X164675000Y-111492000D01*
G75*
G02*
X164775000Y-111392000I100000J0D01*
G01*
X166050000Y-111392000D01*
G75*
G02*
X166150000Y-111492000I0J-100000D01*
G01*
G37*
G36*
G01*
X166150000Y-112142000D02*
X166150000Y-112342000D01*
G75*
G02*
X166050000Y-112442000I-100000J0D01*
G01*
X164775000Y-112442000D01*
G75*
G02*
X164675000Y-112342000I0J100000D01*
G01*
X164675000Y-112142000D01*
G75*
G02*
X164775000Y-112042000I100000J0D01*
G01*
X166050000Y-112042000D01*
G75*
G02*
X166150000Y-112142000I0J-100000D01*
G01*
G37*
G36*
G01*
X166150000Y-112792000D02*
X166150000Y-112992000D01*
G75*
G02*
X166050000Y-113092000I-100000J0D01*
G01*
X164775000Y-113092000D01*
G75*
G02*
X164675000Y-112992000I0J100000D01*
G01*
X164675000Y-112792000D01*
G75*
G02*
X164775000Y-112692000I100000J0D01*
G01*
X166050000Y-112692000D01*
G75*
G02*
X166150000Y-112792000I0J-100000D01*
G01*
G37*
%TD*%
%TO.C,U25*%
X161766250Y-108443001D03*
X161766250Y-109093000D03*
X161766250Y-109742999D03*
X159543750Y-109742999D03*
X159543750Y-109093000D03*
X159543750Y-108443001D03*
%TD*%
%TO.C,U24*%
X161766250Y-105395001D03*
X161766250Y-106045000D03*
X161766250Y-106694999D03*
X159543750Y-106694999D03*
X159543750Y-106045000D03*
X159543750Y-105395001D03*
%TD*%
%TO.C,U23*%
X161766250Y-102347001D03*
X161766250Y-102997000D03*
X161766250Y-103646999D03*
X159543750Y-103646999D03*
X159543750Y-102997000D03*
X159543750Y-102347001D03*
%TD*%
%TO.C,U22*%
X161766250Y-99299001D03*
X161766250Y-99949000D03*
X161766250Y-100598999D03*
X159543750Y-100598999D03*
X159543750Y-99949000D03*
X159543750Y-99299001D03*
%TD*%
%TO.C,U21*%
G36*
G01*
X171875000Y-106696000D02*
X171875000Y-106896000D01*
G75*
G02*
X171775000Y-106996000I-100000J0D01*
G01*
X170500000Y-106996000D01*
G75*
G02*
X170400000Y-106896000I0J100000D01*
G01*
X170400000Y-106696000D01*
G75*
G02*
X170500000Y-106596000I100000J0D01*
G01*
X171775000Y-106596000D01*
G75*
G02*
X171875000Y-106696000I0J-100000D01*
G01*
G37*
G36*
G01*
X171875000Y-106046000D02*
X171875000Y-106246000D01*
G75*
G02*
X171775000Y-106346000I-100000J0D01*
G01*
X170500000Y-106346000D01*
G75*
G02*
X170400000Y-106246000I0J100000D01*
G01*
X170400000Y-106046000D01*
G75*
G02*
X170500000Y-105946000I100000J0D01*
G01*
X171775000Y-105946000D01*
G75*
G02*
X171875000Y-106046000I0J-100000D01*
G01*
G37*
G36*
G01*
X171875000Y-105396000D02*
X171875000Y-105596000D01*
G75*
G02*
X171775000Y-105696000I-100000J0D01*
G01*
X170500000Y-105696000D01*
G75*
G02*
X170400000Y-105596000I0J100000D01*
G01*
X170400000Y-105396000D01*
G75*
G02*
X170500000Y-105296000I100000J0D01*
G01*
X171775000Y-105296000D01*
G75*
G02*
X171875000Y-105396000I0J-100000D01*
G01*
G37*
G36*
G01*
X171875000Y-104746000D02*
X171875000Y-104946000D01*
G75*
G02*
X171775000Y-105046000I-100000J0D01*
G01*
X170500000Y-105046000D01*
G75*
G02*
X170400000Y-104946000I0J100000D01*
G01*
X170400000Y-104746000D01*
G75*
G02*
X170500000Y-104646000I100000J0D01*
G01*
X171775000Y-104646000D01*
G75*
G02*
X171875000Y-104746000I0J-100000D01*
G01*
G37*
G36*
G01*
X171875000Y-104096000D02*
X171875000Y-104296000D01*
G75*
G02*
X171775000Y-104396000I-100000J0D01*
G01*
X170500000Y-104396000D01*
G75*
G02*
X170400000Y-104296000I0J100000D01*
G01*
X170400000Y-104096000D01*
G75*
G02*
X170500000Y-103996000I100000J0D01*
G01*
X171775000Y-103996000D01*
G75*
G02*
X171875000Y-104096000I0J-100000D01*
G01*
G37*
G36*
G01*
X171875000Y-103446000D02*
X171875000Y-103646000D01*
G75*
G02*
X171775000Y-103746000I-100000J0D01*
G01*
X170500000Y-103746000D01*
G75*
G02*
X170400000Y-103646000I0J100000D01*
G01*
X170400000Y-103446000D01*
G75*
G02*
X170500000Y-103346000I100000J0D01*
G01*
X171775000Y-103346000D01*
G75*
G02*
X171875000Y-103446000I0J-100000D01*
G01*
G37*
G36*
G01*
X171875000Y-102796000D02*
X171875000Y-102996000D01*
G75*
G02*
X171775000Y-103096000I-100000J0D01*
G01*
X170500000Y-103096000D01*
G75*
G02*
X170400000Y-102996000I0J100000D01*
G01*
X170400000Y-102796000D01*
G75*
G02*
X170500000Y-102696000I100000J0D01*
G01*
X171775000Y-102696000D01*
G75*
G02*
X171875000Y-102796000I0J-100000D01*
G01*
G37*
G36*
G01*
X171875000Y-102146000D02*
X171875000Y-102346000D01*
G75*
G02*
X171775000Y-102446000I-100000J0D01*
G01*
X170500000Y-102446000D01*
G75*
G02*
X170400000Y-102346000I0J100000D01*
G01*
X170400000Y-102146000D01*
G75*
G02*
X170500000Y-102046000I100000J0D01*
G01*
X171775000Y-102046000D01*
G75*
G02*
X171875000Y-102146000I0J-100000D01*
G01*
G37*
G36*
G01*
X166150000Y-102146000D02*
X166150000Y-102346000D01*
G75*
G02*
X166050000Y-102446000I-100000J0D01*
G01*
X164775000Y-102446000D01*
G75*
G02*
X164675000Y-102346000I0J100000D01*
G01*
X164675000Y-102146000D01*
G75*
G02*
X164775000Y-102046000I100000J0D01*
G01*
X166050000Y-102046000D01*
G75*
G02*
X166150000Y-102146000I0J-100000D01*
G01*
G37*
G36*
G01*
X166150000Y-102796000D02*
X166150000Y-102996000D01*
G75*
G02*
X166050000Y-103096000I-100000J0D01*
G01*
X164775000Y-103096000D01*
G75*
G02*
X164675000Y-102996000I0J100000D01*
G01*
X164675000Y-102796000D01*
G75*
G02*
X164775000Y-102696000I100000J0D01*
G01*
X166050000Y-102696000D01*
G75*
G02*
X166150000Y-102796000I0J-100000D01*
G01*
G37*
G36*
G01*
X166150000Y-103446000D02*
X166150000Y-103646000D01*
G75*
G02*
X166050000Y-103746000I-100000J0D01*
G01*
X164775000Y-103746000D01*
G75*
G02*
X164675000Y-103646000I0J100000D01*
G01*
X164675000Y-103446000D01*
G75*
G02*
X164775000Y-103346000I100000J0D01*
G01*
X166050000Y-103346000D01*
G75*
G02*
X166150000Y-103446000I0J-100000D01*
G01*
G37*
G36*
G01*
X166150000Y-104096000D02*
X166150000Y-104296000D01*
G75*
G02*
X166050000Y-104396000I-100000J0D01*
G01*
X164775000Y-104396000D01*
G75*
G02*
X164675000Y-104296000I0J100000D01*
G01*
X164675000Y-104096000D01*
G75*
G02*
X164775000Y-103996000I100000J0D01*
G01*
X166050000Y-103996000D01*
G75*
G02*
X166150000Y-104096000I0J-100000D01*
G01*
G37*
G36*
G01*
X166150000Y-104746000D02*
X166150000Y-104946000D01*
G75*
G02*
X166050000Y-105046000I-100000J0D01*
G01*
X164775000Y-105046000D01*
G75*
G02*
X164675000Y-104946000I0J100000D01*
G01*
X164675000Y-104746000D01*
G75*
G02*
X164775000Y-104646000I100000J0D01*
G01*
X166050000Y-104646000D01*
G75*
G02*
X166150000Y-104746000I0J-100000D01*
G01*
G37*
G36*
G01*
X166150000Y-105396000D02*
X166150000Y-105596000D01*
G75*
G02*
X166050000Y-105696000I-100000J0D01*
G01*
X164775000Y-105696000D01*
G75*
G02*
X164675000Y-105596000I0J100000D01*
G01*
X164675000Y-105396000D01*
G75*
G02*
X164775000Y-105296000I100000J0D01*
G01*
X166050000Y-105296000D01*
G75*
G02*
X166150000Y-105396000I0J-100000D01*
G01*
G37*
G36*
G01*
X166150000Y-106046000D02*
X166150000Y-106246000D01*
G75*
G02*
X166050000Y-106346000I-100000J0D01*
G01*
X164775000Y-106346000D01*
G75*
G02*
X164675000Y-106246000I0J100000D01*
G01*
X164675000Y-106046000D01*
G75*
G02*
X164775000Y-105946000I100000J0D01*
G01*
X166050000Y-105946000D01*
G75*
G02*
X166150000Y-106046000I0J-100000D01*
G01*
G37*
G36*
G01*
X166150000Y-106696000D02*
X166150000Y-106896000D01*
G75*
G02*
X166050000Y-106996000I-100000J0D01*
G01*
X164775000Y-106996000D01*
G75*
G02*
X164675000Y-106896000I0J100000D01*
G01*
X164675000Y-106696000D01*
G75*
G02*
X164775000Y-106596000I100000J0D01*
G01*
X166050000Y-106596000D01*
G75*
G02*
X166150000Y-106696000I0J-100000D01*
G01*
G37*
%TD*%
%TO.C,U20*%
X161766250Y-96251001D03*
X161766250Y-96901000D03*
X161766250Y-97550999D03*
X159543750Y-97550999D03*
X159543750Y-96901000D03*
X159543750Y-96251001D03*
%TD*%
%TO.C,U19*%
X161766250Y-93203001D03*
X161766250Y-93853000D03*
X161766250Y-94502999D03*
X159543750Y-94502999D03*
X159543750Y-93853000D03*
X159543750Y-93203001D03*
%TD*%
%TO.C,U18*%
X161766250Y-90155001D03*
X161766250Y-90805000D03*
X161766250Y-91454999D03*
X159543750Y-91454999D03*
X159543750Y-90805000D03*
X159543750Y-90155001D03*
%TD*%
D21*
%TO.C,U17*%
X180905150Y-129327001D03*
X180905150Y-129976999D03*
X180905150Y-130627001D03*
X180905150Y-131276999D03*
X178250850Y-131276999D03*
X178250850Y-130627001D03*
X178250850Y-129976999D03*
X178250850Y-129327001D03*
%TD*%
%TO.C,U14*%
X151949150Y-111039001D03*
X151949150Y-111688999D03*
X151949150Y-112339001D03*
X151949150Y-112988999D03*
X149294850Y-112988999D03*
X149294850Y-112339001D03*
X149294850Y-111688999D03*
X149294850Y-111039001D03*
%TD*%
%TO.C,U13*%
X151949150Y-104562001D03*
X151949150Y-105211999D03*
X151949150Y-105862001D03*
X151949150Y-106511999D03*
X149294850Y-106511999D03*
X149294850Y-105862001D03*
X149294850Y-105211999D03*
X149294850Y-104562001D03*
%TD*%
%TO.C,U12*%
X151949150Y-86274001D03*
X151949150Y-86923999D03*
X151949150Y-87574001D03*
X151949150Y-88223999D03*
X149294850Y-88223999D03*
X149294850Y-87574001D03*
X149294850Y-86923999D03*
X149294850Y-86274001D03*
%TD*%
%TO.C,U11*%
X151949150Y-129200001D03*
X151949150Y-129849999D03*
X151949150Y-130500001D03*
X151949150Y-131149999D03*
X149294850Y-131149999D03*
X149294850Y-130500001D03*
X149294850Y-129849999D03*
X149294850Y-129200001D03*
%TD*%
D16*
%TO.C,U10*%
X151826000Y-136736000D03*
X149926000Y-136736000D03*
X149926000Y-134536000D03*
X150876000Y-134536000D03*
X151826000Y-134536000D03*
%TD*%
%TO.C,U9*%
G36*
G01*
X170400000Y-96377000D02*
X170400000Y-96177000D01*
G75*
G02*
X170500000Y-96077000I100000J0D01*
G01*
X171775000Y-96077000D01*
G75*
G02*
X171875000Y-96177000I0J-100000D01*
G01*
X171875000Y-96377000D01*
G75*
G02*
X171775000Y-96477000I-100000J0D01*
G01*
X170500000Y-96477000D01*
G75*
G02*
X170400000Y-96377000I0J100000D01*
G01*
G37*
G36*
G01*
X170400000Y-97027000D02*
X170400000Y-96827000D01*
G75*
G02*
X170500000Y-96727000I100000J0D01*
G01*
X171775000Y-96727000D01*
G75*
G02*
X171875000Y-96827000I0J-100000D01*
G01*
X171875000Y-97027000D01*
G75*
G02*
X171775000Y-97127000I-100000J0D01*
G01*
X170500000Y-97127000D01*
G75*
G02*
X170400000Y-97027000I0J100000D01*
G01*
G37*
G36*
G01*
X170400000Y-97677000D02*
X170400000Y-97477000D01*
G75*
G02*
X170500000Y-97377000I100000J0D01*
G01*
X171775000Y-97377000D01*
G75*
G02*
X171875000Y-97477000I0J-100000D01*
G01*
X171875000Y-97677000D01*
G75*
G02*
X171775000Y-97777000I-100000J0D01*
G01*
X170500000Y-97777000D01*
G75*
G02*
X170400000Y-97677000I0J100000D01*
G01*
G37*
G36*
G01*
X170400000Y-98327000D02*
X170400000Y-98127000D01*
G75*
G02*
X170500000Y-98027000I100000J0D01*
G01*
X171775000Y-98027000D01*
G75*
G02*
X171875000Y-98127000I0J-100000D01*
G01*
X171875000Y-98327000D01*
G75*
G02*
X171775000Y-98427000I-100000J0D01*
G01*
X170500000Y-98427000D01*
G75*
G02*
X170400000Y-98327000I0J100000D01*
G01*
G37*
G36*
G01*
X170400000Y-98977000D02*
X170400000Y-98777000D01*
G75*
G02*
X170500000Y-98677000I100000J0D01*
G01*
X171775000Y-98677000D01*
G75*
G02*
X171875000Y-98777000I0J-100000D01*
G01*
X171875000Y-98977000D01*
G75*
G02*
X171775000Y-99077000I-100000J0D01*
G01*
X170500000Y-99077000D01*
G75*
G02*
X170400000Y-98977000I0J100000D01*
G01*
G37*
G36*
G01*
X170400000Y-99627000D02*
X170400000Y-99427000D01*
G75*
G02*
X170500000Y-99327000I100000J0D01*
G01*
X171775000Y-99327000D01*
G75*
G02*
X171875000Y-99427000I0J-100000D01*
G01*
X171875000Y-99627000D01*
G75*
G02*
X171775000Y-99727000I-100000J0D01*
G01*
X170500000Y-99727000D01*
G75*
G02*
X170400000Y-99627000I0J100000D01*
G01*
G37*
G36*
G01*
X170400000Y-100277000D02*
X170400000Y-100077000D01*
G75*
G02*
X170500000Y-99977000I100000J0D01*
G01*
X171775000Y-99977000D01*
G75*
G02*
X171875000Y-100077000I0J-100000D01*
G01*
X171875000Y-100277000D01*
G75*
G02*
X171775000Y-100377000I-100000J0D01*
G01*
X170500000Y-100377000D01*
G75*
G02*
X170400000Y-100277000I0J100000D01*
G01*
G37*
G36*
G01*
X170400000Y-100927000D02*
X170400000Y-100727000D01*
G75*
G02*
X170500000Y-100627000I100000J0D01*
G01*
X171775000Y-100627000D01*
G75*
G02*
X171875000Y-100727000I0J-100000D01*
G01*
X171875000Y-100927000D01*
G75*
G02*
X171775000Y-101027000I-100000J0D01*
G01*
X170500000Y-101027000D01*
G75*
G02*
X170400000Y-100927000I0J100000D01*
G01*
G37*
G36*
G01*
X164675000Y-100927000D02*
X164675000Y-100727000D01*
G75*
G02*
X164775000Y-100627000I100000J0D01*
G01*
X166050000Y-100627000D01*
G75*
G02*
X166150000Y-100727000I0J-100000D01*
G01*
X166150000Y-100927000D01*
G75*
G02*
X166050000Y-101027000I-100000J0D01*
G01*
X164775000Y-101027000D01*
G75*
G02*
X164675000Y-100927000I0J100000D01*
G01*
G37*
G36*
G01*
X164675000Y-100277000D02*
X164675000Y-100077000D01*
G75*
G02*
X164775000Y-99977000I100000J0D01*
G01*
X166050000Y-99977000D01*
G75*
G02*
X166150000Y-100077000I0J-100000D01*
G01*
X166150000Y-100277000D01*
G75*
G02*
X166050000Y-100377000I-100000J0D01*
G01*
X164775000Y-100377000D01*
G75*
G02*
X164675000Y-100277000I0J100000D01*
G01*
G37*
G36*
G01*
X164675000Y-99627000D02*
X164675000Y-99427000D01*
G75*
G02*
X164775000Y-99327000I100000J0D01*
G01*
X166050000Y-99327000D01*
G75*
G02*
X166150000Y-99427000I0J-100000D01*
G01*
X166150000Y-99627000D01*
G75*
G02*
X166050000Y-99727000I-100000J0D01*
G01*
X164775000Y-99727000D01*
G75*
G02*
X164675000Y-99627000I0J100000D01*
G01*
G37*
G36*
G01*
X164675000Y-98977000D02*
X164675000Y-98777000D01*
G75*
G02*
X164775000Y-98677000I100000J0D01*
G01*
X166050000Y-98677000D01*
G75*
G02*
X166150000Y-98777000I0J-100000D01*
G01*
X166150000Y-98977000D01*
G75*
G02*
X166050000Y-99077000I-100000J0D01*
G01*
X164775000Y-99077000D01*
G75*
G02*
X164675000Y-98977000I0J100000D01*
G01*
G37*
G36*
G01*
X164675000Y-98327000D02*
X164675000Y-98127000D01*
G75*
G02*
X164775000Y-98027000I100000J0D01*
G01*
X166050000Y-98027000D01*
G75*
G02*
X166150000Y-98127000I0J-100000D01*
G01*
X166150000Y-98327000D01*
G75*
G02*
X166050000Y-98427000I-100000J0D01*
G01*
X164775000Y-98427000D01*
G75*
G02*
X164675000Y-98327000I0J100000D01*
G01*
G37*
G36*
G01*
X164675000Y-97677000D02*
X164675000Y-97477000D01*
G75*
G02*
X164775000Y-97377000I100000J0D01*
G01*
X166050000Y-97377000D01*
G75*
G02*
X166150000Y-97477000I0J-100000D01*
G01*
X166150000Y-97677000D01*
G75*
G02*
X166050000Y-97777000I-100000J0D01*
G01*
X164775000Y-97777000D01*
G75*
G02*
X164675000Y-97677000I0J100000D01*
G01*
G37*
G36*
G01*
X164675000Y-97027000D02*
X164675000Y-96827000D01*
G75*
G02*
X164775000Y-96727000I100000J0D01*
G01*
X166050000Y-96727000D01*
G75*
G02*
X166150000Y-96827000I0J-100000D01*
G01*
X166150000Y-97027000D01*
G75*
G02*
X166050000Y-97127000I-100000J0D01*
G01*
X164775000Y-97127000D01*
G75*
G02*
X164675000Y-97027000I0J100000D01*
G01*
G37*
G36*
G01*
X164675000Y-96377000D02*
X164675000Y-96177000D01*
G75*
G02*
X164775000Y-96077000I100000J0D01*
G01*
X166050000Y-96077000D01*
G75*
G02*
X166150000Y-96177000I0J-100000D01*
G01*
X166150000Y-96377000D01*
G75*
G02*
X166050000Y-96477000I-100000J0D01*
G01*
X164775000Y-96477000D01*
G75*
G02*
X164675000Y-96377000I0J100000D01*
G01*
G37*
%TD*%
D22*
%TO.C,U7*%
X188552000Y-100772000D03*
X188552000Y-99822000D03*
X188552000Y-98872000D03*
X186352000Y-98872000D03*
X186352000Y-100772000D03*
X186352000Y-99822000D03*
%TD*%
%TO.C,U6*%
G36*
G01*
X171875000Y-124659000D02*
X171875000Y-124859000D01*
G75*
G02*
X171775000Y-124959000I-100000J0D01*
G01*
X170500000Y-124959000D01*
G75*
G02*
X170400000Y-124859000I0J100000D01*
G01*
X170400000Y-124659000D01*
G75*
G02*
X170500000Y-124559000I100000J0D01*
G01*
X171775000Y-124559000D01*
G75*
G02*
X171875000Y-124659000I0J-100000D01*
G01*
G37*
G36*
G01*
X171875000Y-124009000D02*
X171875000Y-124209000D01*
G75*
G02*
X171775000Y-124309000I-100000J0D01*
G01*
X170500000Y-124309000D01*
G75*
G02*
X170400000Y-124209000I0J100000D01*
G01*
X170400000Y-124009000D01*
G75*
G02*
X170500000Y-123909000I100000J0D01*
G01*
X171775000Y-123909000D01*
G75*
G02*
X171875000Y-124009000I0J-100000D01*
G01*
G37*
G36*
G01*
X171875000Y-123359000D02*
X171875000Y-123559000D01*
G75*
G02*
X171775000Y-123659000I-100000J0D01*
G01*
X170500000Y-123659000D01*
G75*
G02*
X170400000Y-123559000I0J100000D01*
G01*
X170400000Y-123359000D01*
G75*
G02*
X170500000Y-123259000I100000J0D01*
G01*
X171775000Y-123259000D01*
G75*
G02*
X171875000Y-123359000I0J-100000D01*
G01*
G37*
G36*
G01*
X171875000Y-122709000D02*
X171875000Y-122909000D01*
G75*
G02*
X171775000Y-123009000I-100000J0D01*
G01*
X170500000Y-123009000D01*
G75*
G02*
X170400000Y-122909000I0J100000D01*
G01*
X170400000Y-122709000D01*
G75*
G02*
X170500000Y-122609000I100000J0D01*
G01*
X171775000Y-122609000D01*
G75*
G02*
X171875000Y-122709000I0J-100000D01*
G01*
G37*
G36*
G01*
X171875000Y-122059000D02*
X171875000Y-122259000D01*
G75*
G02*
X171775000Y-122359000I-100000J0D01*
G01*
X170500000Y-122359000D01*
G75*
G02*
X170400000Y-122259000I0J100000D01*
G01*
X170400000Y-122059000D01*
G75*
G02*
X170500000Y-121959000I100000J0D01*
G01*
X171775000Y-121959000D01*
G75*
G02*
X171875000Y-122059000I0J-100000D01*
G01*
G37*
G36*
G01*
X171875000Y-121409000D02*
X171875000Y-121609000D01*
G75*
G02*
X171775000Y-121709000I-100000J0D01*
G01*
X170500000Y-121709000D01*
G75*
G02*
X170400000Y-121609000I0J100000D01*
G01*
X170400000Y-121409000D01*
G75*
G02*
X170500000Y-121309000I100000J0D01*
G01*
X171775000Y-121309000D01*
G75*
G02*
X171875000Y-121409000I0J-100000D01*
G01*
G37*
G36*
G01*
X171875000Y-120759000D02*
X171875000Y-120959000D01*
G75*
G02*
X171775000Y-121059000I-100000J0D01*
G01*
X170500000Y-121059000D01*
G75*
G02*
X170400000Y-120959000I0J100000D01*
G01*
X170400000Y-120759000D01*
G75*
G02*
X170500000Y-120659000I100000J0D01*
G01*
X171775000Y-120659000D01*
G75*
G02*
X171875000Y-120759000I0J-100000D01*
G01*
G37*
G36*
G01*
X166150000Y-120759000D02*
X166150000Y-120959000D01*
G75*
G02*
X166050000Y-121059000I-100000J0D01*
G01*
X164775000Y-121059000D01*
G75*
G02*
X164675000Y-120959000I0J100000D01*
G01*
X164675000Y-120759000D01*
G75*
G02*
X164775000Y-120659000I100000J0D01*
G01*
X166050000Y-120659000D01*
G75*
G02*
X166150000Y-120759000I0J-100000D01*
G01*
G37*
G36*
G01*
X166150000Y-121409000D02*
X166150000Y-121609000D01*
G75*
G02*
X166050000Y-121709000I-100000J0D01*
G01*
X164775000Y-121709000D01*
G75*
G02*
X164675000Y-121609000I0J100000D01*
G01*
X164675000Y-121409000D01*
G75*
G02*
X164775000Y-121309000I100000J0D01*
G01*
X166050000Y-121309000D01*
G75*
G02*
X166150000Y-121409000I0J-100000D01*
G01*
G37*
G36*
G01*
X166150000Y-122059000D02*
X166150000Y-122259000D01*
G75*
G02*
X166050000Y-122359000I-100000J0D01*
G01*
X164775000Y-122359000D01*
G75*
G02*
X164675000Y-122259000I0J100000D01*
G01*
X164675000Y-122059000D01*
G75*
G02*
X164775000Y-121959000I100000J0D01*
G01*
X166050000Y-121959000D01*
G75*
G02*
X166150000Y-122059000I0J-100000D01*
G01*
G37*
G36*
G01*
X166150000Y-122709000D02*
X166150000Y-122909000D01*
G75*
G02*
X166050000Y-123009000I-100000J0D01*
G01*
X164775000Y-123009000D01*
G75*
G02*
X164675000Y-122909000I0J100000D01*
G01*
X164675000Y-122709000D01*
G75*
G02*
X164775000Y-122609000I100000J0D01*
G01*
X166050000Y-122609000D01*
G75*
G02*
X166150000Y-122709000I0J-100000D01*
G01*
G37*
G36*
G01*
X166150000Y-123359000D02*
X166150000Y-123559000D01*
G75*
G02*
X166050000Y-123659000I-100000J0D01*
G01*
X164775000Y-123659000D01*
G75*
G02*
X164675000Y-123559000I0J100000D01*
G01*
X164675000Y-123359000D01*
G75*
G02*
X164775000Y-123259000I100000J0D01*
G01*
X166050000Y-123259000D01*
G75*
G02*
X166150000Y-123359000I0J-100000D01*
G01*
G37*
G36*
G01*
X166150000Y-124009000D02*
X166150000Y-124209000D01*
G75*
G02*
X166050000Y-124309000I-100000J0D01*
G01*
X164775000Y-124309000D01*
G75*
G02*
X164675000Y-124209000I0J100000D01*
G01*
X164675000Y-124009000D01*
G75*
G02*
X164775000Y-123909000I100000J0D01*
G01*
X166050000Y-123909000D01*
G75*
G02*
X166150000Y-124009000I0J-100000D01*
G01*
G37*
G36*
G01*
X166150000Y-124659000D02*
X166150000Y-124859000D01*
G75*
G02*
X166050000Y-124959000I-100000J0D01*
G01*
X164775000Y-124959000D01*
G75*
G02*
X164675000Y-124859000I0J100000D01*
G01*
X164675000Y-124659000D01*
G75*
G02*
X164775000Y-124559000I100000J0D01*
G01*
X166050000Y-124559000D01*
G75*
G02*
X166150000Y-124659000I0J-100000D01*
G01*
G37*
%TD*%
D18*
%TO.C,U1*%
X151851000Y-99355000D03*
X151201000Y-99355000D03*
X150551000Y-99355000D03*
X149901000Y-99355000D03*
X149901000Y-94955000D03*
X150551000Y-94955000D03*
X151201000Y-94955000D03*
X151851000Y-94955000D03*
%TD*%
%TO.C,R81*%
G36*
G01*
X164536800Y-84055400D02*
X163986800Y-84055400D01*
G75*
G02*
X163786800Y-83855400I0J200000D01*
G01*
X163786800Y-83455400D01*
G75*
G02*
X163986800Y-83255400I200000J0D01*
G01*
X164536800Y-83255400D01*
G75*
G02*
X164736800Y-83455400I0J-200000D01*
G01*
X164736800Y-83855400D01*
G75*
G02*
X164536800Y-84055400I-200000J0D01*
G01*
G37*
G36*
G01*
X164536800Y-85705400D02*
X163986800Y-85705400D01*
G75*
G02*
X163786800Y-85505400I0J200000D01*
G01*
X163786800Y-85105400D01*
G75*
G02*
X163986800Y-84905400I200000J0D01*
G01*
X164536800Y-84905400D01*
G75*
G02*
X164736800Y-85105400I0J-200000D01*
G01*
X164736800Y-85505400D01*
G75*
G02*
X164536800Y-85705400I-200000J0D01*
G01*
G37*
%TD*%
%TO.C,R79*%
G36*
G01*
X166162400Y-84055400D02*
X165612400Y-84055400D01*
G75*
G02*
X165412400Y-83855400I0J200000D01*
G01*
X165412400Y-83455400D01*
G75*
G02*
X165612400Y-83255400I200000J0D01*
G01*
X166162400Y-83255400D01*
G75*
G02*
X166362400Y-83455400I0J-200000D01*
G01*
X166362400Y-83855400D01*
G75*
G02*
X166162400Y-84055400I-200000J0D01*
G01*
G37*
G36*
G01*
X166162400Y-85705400D02*
X165612400Y-85705400D01*
G75*
G02*
X165412400Y-85505400I0J200000D01*
G01*
X165412400Y-85105400D01*
G75*
G02*
X165612400Y-84905400I200000J0D01*
G01*
X166162400Y-84905400D01*
G75*
G02*
X166362400Y-85105400I0J-200000D01*
G01*
X166362400Y-85505400D01*
G75*
G02*
X166162400Y-85705400I-200000J0D01*
G01*
G37*
%TD*%
%TO.C,R70*%
G36*
G01*
X157882000Y-135782500D02*
X157332000Y-135782500D01*
G75*
G02*
X157132000Y-135582500I0J200000D01*
G01*
X157132000Y-135182500D01*
G75*
G02*
X157332000Y-134982500I200000J0D01*
G01*
X157882000Y-134982500D01*
G75*
G02*
X158082000Y-135182500I0J-200000D01*
G01*
X158082000Y-135582500D01*
G75*
G02*
X157882000Y-135782500I-200000J0D01*
G01*
G37*
G36*
G01*
X157882000Y-137432500D02*
X157332000Y-137432500D01*
G75*
G02*
X157132000Y-137232500I0J200000D01*
G01*
X157132000Y-136832500D01*
G75*
G02*
X157332000Y-136632500I200000J0D01*
G01*
X157882000Y-136632500D01*
G75*
G02*
X158082000Y-136832500I0J-200000D01*
G01*
X158082000Y-137232500D01*
G75*
G02*
X157882000Y-137432500I-200000J0D01*
G01*
G37*
%TD*%
%TO.C,R69*%
G36*
G01*
X157882000Y-132734500D02*
X157332000Y-132734500D01*
G75*
G02*
X157132000Y-132534500I0J200000D01*
G01*
X157132000Y-132134500D01*
G75*
G02*
X157332000Y-131934500I200000J0D01*
G01*
X157882000Y-131934500D01*
G75*
G02*
X158082000Y-132134500I0J-200000D01*
G01*
X158082000Y-132534500D01*
G75*
G02*
X157882000Y-132734500I-200000J0D01*
G01*
G37*
G36*
G01*
X157882000Y-134384500D02*
X157332000Y-134384500D01*
G75*
G02*
X157132000Y-134184500I0J200000D01*
G01*
X157132000Y-133784500D01*
G75*
G02*
X157332000Y-133584500I200000J0D01*
G01*
X157882000Y-133584500D01*
G75*
G02*
X158082000Y-133784500I0J-200000D01*
G01*
X158082000Y-134184500D01*
G75*
G02*
X157882000Y-134384500I-200000J0D01*
G01*
G37*
%TD*%
%TO.C,R68*%
G36*
G01*
X157882000Y-129686500D02*
X157332000Y-129686500D01*
G75*
G02*
X157132000Y-129486500I0J200000D01*
G01*
X157132000Y-129086500D01*
G75*
G02*
X157332000Y-128886500I200000J0D01*
G01*
X157882000Y-128886500D01*
G75*
G02*
X158082000Y-129086500I0J-200000D01*
G01*
X158082000Y-129486500D01*
G75*
G02*
X157882000Y-129686500I-200000J0D01*
G01*
G37*
G36*
G01*
X157882000Y-131336500D02*
X157332000Y-131336500D01*
G75*
G02*
X157132000Y-131136500I0J200000D01*
G01*
X157132000Y-130736500D01*
G75*
G02*
X157332000Y-130536500I200000J0D01*
G01*
X157882000Y-130536500D01*
G75*
G02*
X158082000Y-130736500I0J-200000D01*
G01*
X158082000Y-131136500D01*
G75*
G02*
X157882000Y-131336500I-200000J0D01*
G01*
G37*
%TD*%
%TO.C,R67*%
G36*
G01*
X157882000Y-126638500D02*
X157332000Y-126638500D01*
G75*
G02*
X157132000Y-126438500I0J200000D01*
G01*
X157132000Y-126038500D01*
G75*
G02*
X157332000Y-125838500I200000J0D01*
G01*
X157882000Y-125838500D01*
G75*
G02*
X158082000Y-126038500I0J-200000D01*
G01*
X158082000Y-126438500D01*
G75*
G02*
X157882000Y-126638500I-200000J0D01*
G01*
G37*
G36*
G01*
X157882000Y-128288500D02*
X157332000Y-128288500D01*
G75*
G02*
X157132000Y-128088500I0J200000D01*
G01*
X157132000Y-127688500D01*
G75*
G02*
X157332000Y-127488500I200000J0D01*
G01*
X157882000Y-127488500D01*
G75*
G02*
X158082000Y-127688500I0J-200000D01*
G01*
X158082000Y-128088500D01*
G75*
G02*
X157882000Y-128288500I-200000J0D01*
G01*
G37*
%TD*%
%TO.C,R66*%
G36*
G01*
X157882000Y-123590500D02*
X157332000Y-123590500D01*
G75*
G02*
X157132000Y-123390500I0J200000D01*
G01*
X157132000Y-122990500D01*
G75*
G02*
X157332000Y-122790500I200000J0D01*
G01*
X157882000Y-122790500D01*
G75*
G02*
X158082000Y-122990500I0J-200000D01*
G01*
X158082000Y-123390500D01*
G75*
G02*
X157882000Y-123590500I-200000J0D01*
G01*
G37*
G36*
G01*
X157882000Y-125240500D02*
X157332000Y-125240500D01*
G75*
G02*
X157132000Y-125040500I0J200000D01*
G01*
X157132000Y-124640500D01*
G75*
G02*
X157332000Y-124440500I200000J0D01*
G01*
X157882000Y-124440500D01*
G75*
G02*
X158082000Y-124640500I0J-200000D01*
G01*
X158082000Y-125040500D01*
G75*
G02*
X157882000Y-125240500I-200000J0D01*
G01*
G37*
%TD*%
%TO.C,R65*%
G36*
G01*
X157882000Y-120542500D02*
X157332000Y-120542500D01*
G75*
G02*
X157132000Y-120342500I0J200000D01*
G01*
X157132000Y-119942500D01*
G75*
G02*
X157332000Y-119742500I200000J0D01*
G01*
X157882000Y-119742500D01*
G75*
G02*
X158082000Y-119942500I0J-200000D01*
G01*
X158082000Y-120342500D01*
G75*
G02*
X157882000Y-120542500I-200000J0D01*
G01*
G37*
G36*
G01*
X157882000Y-122192500D02*
X157332000Y-122192500D01*
G75*
G02*
X157132000Y-121992500I0J200000D01*
G01*
X157132000Y-121592500D01*
G75*
G02*
X157332000Y-121392500I200000J0D01*
G01*
X157882000Y-121392500D01*
G75*
G02*
X158082000Y-121592500I0J-200000D01*
G01*
X158082000Y-121992500D01*
G75*
G02*
X157882000Y-122192500I-200000J0D01*
G01*
G37*
%TD*%
%TO.C,R64*%
G36*
G01*
X157882000Y-117494500D02*
X157332000Y-117494500D01*
G75*
G02*
X157132000Y-117294500I0J200000D01*
G01*
X157132000Y-116894500D01*
G75*
G02*
X157332000Y-116694500I200000J0D01*
G01*
X157882000Y-116694500D01*
G75*
G02*
X158082000Y-116894500I0J-200000D01*
G01*
X158082000Y-117294500D01*
G75*
G02*
X157882000Y-117494500I-200000J0D01*
G01*
G37*
G36*
G01*
X157882000Y-119144500D02*
X157332000Y-119144500D01*
G75*
G02*
X157132000Y-118944500I0J200000D01*
G01*
X157132000Y-118544500D01*
G75*
G02*
X157332000Y-118344500I200000J0D01*
G01*
X157882000Y-118344500D01*
G75*
G02*
X158082000Y-118544500I0J-200000D01*
G01*
X158082000Y-118944500D01*
G75*
G02*
X157882000Y-119144500I-200000J0D01*
G01*
G37*
%TD*%
%TO.C,R63*%
G36*
G01*
X157882000Y-114446500D02*
X157332000Y-114446500D01*
G75*
G02*
X157132000Y-114246500I0J200000D01*
G01*
X157132000Y-113846500D01*
G75*
G02*
X157332000Y-113646500I200000J0D01*
G01*
X157882000Y-113646500D01*
G75*
G02*
X158082000Y-113846500I0J-200000D01*
G01*
X158082000Y-114246500D01*
G75*
G02*
X157882000Y-114446500I-200000J0D01*
G01*
G37*
G36*
G01*
X157882000Y-116096500D02*
X157332000Y-116096500D01*
G75*
G02*
X157132000Y-115896500I0J200000D01*
G01*
X157132000Y-115496500D01*
G75*
G02*
X157332000Y-115296500I200000J0D01*
G01*
X157882000Y-115296500D01*
G75*
G02*
X158082000Y-115496500I0J-200000D01*
G01*
X158082000Y-115896500D01*
G75*
G02*
X157882000Y-116096500I-200000J0D01*
G01*
G37*
%TD*%
%TO.C,R62*%
G36*
G01*
X157882000Y-111398500D02*
X157332000Y-111398500D01*
G75*
G02*
X157132000Y-111198500I0J200000D01*
G01*
X157132000Y-110798500D01*
G75*
G02*
X157332000Y-110598500I200000J0D01*
G01*
X157882000Y-110598500D01*
G75*
G02*
X158082000Y-110798500I0J-200000D01*
G01*
X158082000Y-111198500D01*
G75*
G02*
X157882000Y-111398500I-200000J0D01*
G01*
G37*
G36*
G01*
X157882000Y-113048500D02*
X157332000Y-113048500D01*
G75*
G02*
X157132000Y-112848500I0J200000D01*
G01*
X157132000Y-112448500D01*
G75*
G02*
X157332000Y-112248500I200000J0D01*
G01*
X157882000Y-112248500D01*
G75*
G02*
X158082000Y-112448500I0J-200000D01*
G01*
X158082000Y-112848500D01*
G75*
G02*
X157882000Y-113048500I-200000J0D01*
G01*
G37*
%TD*%
%TO.C,R61*%
G36*
G01*
X157882000Y-108350500D02*
X157332000Y-108350500D01*
G75*
G02*
X157132000Y-108150500I0J200000D01*
G01*
X157132000Y-107750500D01*
G75*
G02*
X157332000Y-107550500I200000J0D01*
G01*
X157882000Y-107550500D01*
G75*
G02*
X158082000Y-107750500I0J-200000D01*
G01*
X158082000Y-108150500D01*
G75*
G02*
X157882000Y-108350500I-200000J0D01*
G01*
G37*
G36*
G01*
X157882000Y-110000500D02*
X157332000Y-110000500D01*
G75*
G02*
X157132000Y-109800500I0J200000D01*
G01*
X157132000Y-109400500D01*
G75*
G02*
X157332000Y-109200500I200000J0D01*
G01*
X157882000Y-109200500D01*
G75*
G02*
X158082000Y-109400500I0J-200000D01*
G01*
X158082000Y-109800500D01*
G75*
G02*
X157882000Y-110000500I-200000J0D01*
G01*
G37*
%TD*%
%TO.C,R60*%
G36*
G01*
X157882000Y-105302500D02*
X157332000Y-105302500D01*
G75*
G02*
X157132000Y-105102500I0J200000D01*
G01*
X157132000Y-104702500D01*
G75*
G02*
X157332000Y-104502500I200000J0D01*
G01*
X157882000Y-104502500D01*
G75*
G02*
X158082000Y-104702500I0J-200000D01*
G01*
X158082000Y-105102500D01*
G75*
G02*
X157882000Y-105302500I-200000J0D01*
G01*
G37*
G36*
G01*
X157882000Y-106952500D02*
X157332000Y-106952500D01*
G75*
G02*
X157132000Y-106752500I0J200000D01*
G01*
X157132000Y-106352500D01*
G75*
G02*
X157332000Y-106152500I200000J0D01*
G01*
X157882000Y-106152500D01*
G75*
G02*
X158082000Y-106352500I0J-200000D01*
G01*
X158082000Y-106752500D01*
G75*
G02*
X157882000Y-106952500I-200000J0D01*
G01*
G37*
%TD*%
%TO.C,R59*%
G36*
G01*
X157882000Y-102254500D02*
X157332000Y-102254500D01*
G75*
G02*
X157132000Y-102054500I0J200000D01*
G01*
X157132000Y-101654500D01*
G75*
G02*
X157332000Y-101454500I200000J0D01*
G01*
X157882000Y-101454500D01*
G75*
G02*
X158082000Y-101654500I0J-200000D01*
G01*
X158082000Y-102054500D01*
G75*
G02*
X157882000Y-102254500I-200000J0D01*
G01*
G37*
G36*
G01*
X157882000Y-103904500D02*
X157332000Y-103904500D01*
G75*
G02*
X157132000Y-103704500I0J200000D01*
G01*
X157132000Y-103304500D01*
G75*
G02*
X157332000Y-103104500I200000J0D01*
G01*
X157882000Y-103104500D01*
G75*
G02*
X158082000Y-103304500I0J-200000D01*
G01*
X158082000Y-103704500D01*
G75*
G02*
X157882000Y-103904500I-200000J0D01*
G01*
G37*
%TD*%
%TO.C,R58*%
G36*
G01*
X157882000Y-99206500D02*
X157332000Y-99206500D01*
G75*
G02*
X157132000Y-99006500I0J200000D01*
G01*
X157132000Y-98606500D01*
G75*
G02*
X157332000Y-98406500I200000J0D01*
G01*
X157882000Y-98406500D01*
G75*
G02*
X158082000Y-98606500I0J-200000D01*
G01*
X158082000Y-99006500D01*
G75*
G02*
X157882000Y-99206500I-200000J0D01*
G01*
G37*
G36*
G01*
X157882000Y-100856500D02*
X157332000Y-100856500D01*
G75*
G02*
X157132000Y-100656500I0J200000D01*
G01*
X157132000Y-100256500D01*
G75*
G02*
X157332000Y-100056500I200000J0D01*
G01*
X157882000Y-100056500D01*
G75*
G02*
X158082000Y-100256500I0J-200000D01*
G01*
X158082000Y-100656500D01*
G75*
G02*
X157882000Y-100856500I-200000J0D01*
G01*
G37*
%TD*%
%TO.C,R57*%
G36*
G01*
X157882000Y-96158500D02*
X157332000Y-96158500D01*
G75*
G02*
X157132000Y-95958500I0J200000D01*
G01*
X157132000Y-95558500D01*
G75*
G02*
X157332000Y-95358500I200000J0D01*
G01*
X157882000Y-95358500D01*
G75*
G02*
X158082000Y-95558500I0J-200000D01*
G01*
X158082000Y-95958500D01*
G75*
G02*
X157882000Y-96158500I-200000J0D01*
G01*
G37*
G36*
G01*
X157882000Y-97808500D02*
X157332000Y-97808500D01*
G75*
G02*
X157132000Y-97608500I0J200000D01*
G01*
X157132000Y-97208500D01*
G75*
G02*
X157332000Y-97008500I200000J0D01*
G01*
X157882000Y-97008500D01*
G75*
G02*
X158082000Y-97208500I0J-200000D01*
G01*
X158082000Y-97608500D01*
G75*
G02*
X157882000Y-97808500I-200000J0D01*
G01*
G37*
%TD*%
%TO.C,R56*%
G36*
G01*
X157882000Y-93110500D02*
X157332000Y-93110500D01*
G75*
G02*
X157132000Y-92910500I0J200000D01*
G01*
X157132000Y-92510500D01*
G75*
G02*
X157332000Y-92310500I200000J0D01*
G01*
X157882000Y-92310500D01*
G75*
G02*
X158082000Y-92510500I0J-200000D01*
G01*
X158082000Y-92910500D01*
G75*
G02*
X157882000Y-93110500I-200000J0D01*
G01*
G37*
G36*
G01*
X157882000Y-94760500D02*
X157332000Y-94760500D01*
G75*
G02*
X157132000Y-94560500I0J200000D01*
G01*
X157132000Y-94160500D01*
G75*
G02*
X157332000Y-93960500I200000J0D01*
G01*
X157882000Y-93960500D01*
G75*
G02*
X158082000Y-94160500I0J-200000D01*
G01*
X158082000Y-94560500D01*
G75*
G02*
X157882000Y-94760500I-200000J0D01*
G01*
G37*
%TD*%
%TO.C,R55*%
G36*
G01*
X157882000Y-90062500D02*
X157332000Y-90062500D01*
G75*
G02*
X157132000Y-89862500I0J200000D01*
G01*
X157132000Y-89462500D01*
G75*
G02*
X157332000Y-89262500I200000J0D01*
G01*
X157882000Y-89262500D01*
G75*
G02*
X158082000Y-89462500I0J-200000D01*
G01*
X158082000Y-89862500D01*
G75*
G02*
X157882000Y-90062500I-200000J0D01*
G01*
G37*
G36*
G01*
X157882000Y-91712500D02*
X157332000Y-91712500D01*
G75*
G02*
X157132000Y-91512500I0J200000D01*
G01*
X157132000Y-91112500D01*
G75*
G02*
X157332000Y-90912500I200000J0D01*
G01*
X157882000Y-90912500D01*
G75*
G02*
X158082000Y-91112500I0J-200000D01*
G01*
X158082000Y-91512500D01*
G75*
G02*
X157882000Y-91712500I-200000J0D01*
G01*
G37*
%TD*%
%TO.C,R52*%
G36*
G01*
X182508997Y-130567000D02*
X183759003Y-130567000D01*
G75*
G02*
X184009000Y-130816997I0J-249997D01*
G01*
X184009000Y-131442003D01*
G75*
G02*
X183759003Y-131692000I-249997J0D01*
G01*
X182508997Y-131692000D01*
G75*
G02*
X182259000Y-131442003I0J249997D01*
G01*
X182259000Y-130816997D01*
G75*
G02*
X182508997Y-130567000I249997J0D01*
G01*
G37*
G36*
G01*
X182508997Y-127642000D02*
X183759003Y-127642000D01*
G75*
G02*
X184009000Y-127891997I0J-249997D01*
G01*
X184009000Y-128517003D01*
G75*
G02*
X183759003Y-128767000I-249997J0D01*
G01*
X182508997Y-128767000D01*
G75*
G02*
X182259000Y-128517003I0J249997D01*
G01*
X182259000Y-127891997D01*
G75*
G02*
X182508997Y-127642000I249997J0D01*
G01*
G37*
%TD*%
%TO.C,R46*%
G36*
G01*
X180003000Y-133244000D02*
X180003000Y-132694000D01*
G75*
G02*
X180203000Y-132494000I200000J0D01*
G01*
X180603000Y-132494000D01*
G75*
G02*
X180803000Y-132694000I0J-200000D01*
G01*
X180803000Y-133244000D01*
G75*
G02*
X180603000Y-133444000I-200000J0D01*
G01*
X180203000Y-133444000D01*
G75*
G02*
X180003000Y-133244000I0J200000D01*
G01*
G37*
G36*
G01*
X178353000Y-133244000D02*
X178353000Y-132694000D01*
G75*
G02*
X178553000Y-132494000I200000J0D01*
G01*
X178953000Y-132494000D01*
G75*
G02*
X179153000Y-132694000I0J-200000D01*
G01*
X179153000Y-133244000D01*
G75*
G02*
X178953000Y-133444000I-200000J0D01*
G01*
X178553000Y-133444000D01*
G75*
G02*
X178353000Y-133244000I0J200000D01*
G01*
G37*
%TD*%
%TO.C,R43*%
G36*
G01*
X179089500Y-121200500D02*
X179089500Y-121750500D01*
G75*
G02*
X178889500Y-121950500I-200000J0D01*
G01*
X178489500Y-121950500D01*
G75*
G02*
X178289500Y-121750500I0J200000D01*
G01*
X178289500Y-121200500D01*
G75*
G02*
X178489500Y-121000500I200000J0D01*
G01*
X178889500Y-121000500D01*
G75*
G02*
X179089500Y-121200500I0J-200000D01*
G01*
G37*
G36*
G01*
X180739500Y-121200500D02*
X180739500Y-121750500D01*
G75*
G02*
X180539500Y-121950500I-200000J0D01*
G01*
X180139500Y-121950500D01*
G75*
G02*
X179939500Y-121750500I0J200000D01*
G01*
X179939500Y-121200500D01*
G75*
G02*
X180139500Y-121000500I200000J0D01*
G01*
X180539500Y-121000500D01*
G75*
G02*
X180739500Y-121200500I0J-200000D01*
G01*
G37*
%TD*%
%TO.C,R42*%
G36*
G01*
X179939500Y-123274500D02*
X179939500Y-122724500D01*
G75*
G02*
X180139500Y-122524500I200000J0D01*
G01*
X180539500Y-122524500D01*
G75*
G02*
X180739500Y-122724500I0J-200000D01*
G01*
X180739500Y-123274500D01*
G75*
G02*
X180539500Y-123474500I-200000J0D01*
G01*
X180139500Y-123474500D01*
G75*
G02*
X179939500Y-123274500I0J200000D01*
G01*
G37*
G36*
G01*
X178289500Y-123274500D02*
X178289500Y-122724500D01*
G75*
G02*
X178489500Y-122524500I200000J0D01*
G01*
X178889500Y-122524500D01*
G75*
G02*
X179089500Y-122724500I0J-200000D01*
G01*
X179089500Y-123274500D01*
G75*
G02*
X178889500Y-123474500I-200000J0D01*
G01*
X178489500Y-123474500D01*
G75*
G02*
X178289500Y-123274500I0J200000D01*
G01*
G37*
%TD*%
%TO.C,R37*%
G36*
G01*
X155111000Y-118639000D02*
X155111000Y-118089000D01*
G75*
G02*
X155311000Y-117889000I200000J0D01*
G01*
X155711000Y-117889000D01*
G75*
G02*
X155911000Y-118089000I0J-200000D01*
G01*
X155911000Y-118639000D01*
G75*
G02*
X155711000Y-118839000I-200000J0D01*
G01*
X155311000Y-118839000D01*
G75*
G02*
X155111000Y-118639000I0J200000D01*
G01*
G37*
G36*
G01*
X153461000Y-118639000D02*
X153461000Y-118089000D01*
G75*
G02*
X153661000Y-117889000I200000J0D01*
G01*
X154061000Y-117889000D01*
G75*
G02*
X154261000Y-118089000I0J-200000D01*
G01*
X154261000Y-118639000D01*
G75*
G02*
X154061000Y-118839000I-200000J0D01*
G01*
X153661000Y-118839000D01*
G75*
G02*
X153461000Y-118639000I0J200000D01*
G01*
G37*
%TD*%
%TO.C,R36*%
G36*
G01*
X155111000Y-117115000D02*
X155111000Y-116565000D01*
G75*
G02*
X155311000Y-116365000I200000J0D01*
G01*
X155711000Y-116365000D01*
G75*
G02*
X155911000Y-116565000I0J-200000D01*
G01*
X155911000Y-117115000D01*
G75*
G02*
X155711000Y-117315000I-200000J0D01*
G01*
X155311000Y-117315000D01*
G75*
G02*
X155111000Y-117115000I0J200000D01*
G01*
G37*
G36*
G01*
X153461000Y-117115000D02*
X153461000Y-116565000D01*
G75*
G02*
X153661000Y-116365000I200000J0D01*
G01*
X154061000Y-116365000D01*
G75*
G02*
X154261000Y-116565000I0J-200000D01*
G01*
X154261000Y-117115000D01*
G75*
G02*
X154061000Y-117315000I-200000J0D01*
G01*
X153661000Y-117315000D01*
G75*
G02*
X153461000Y-117115000I0J200000D01*
G01*
G37*
%TD*%
%TO.C,R35*%
G36*
G01*
X154324500Y-99928000D02*
X154324500Y-100478000D01*
G75*
G02*
X154124500Y-100678000I-200000J0D01*
G01*
X153724500Y-100678000D01*
G75*
G02*
X153524500Y-100478000I0J200000D01*
G01*
X153524500Y-99928000D01*
G75*
G02*
X153724500Y-99728000I200000J0D01*
G01*
X154124500Y-99728000D01*
G75*
G02*
X154324500Y-99928000I0J-200000D01*
G01*
G37*
G36*
G01*
X155974500Y-99928000D02*
X155974500Y-100478000D01*
G75*
G02*
X155774500Y-100678000I-200000J0D01*
G01*
X155374500Y-100678000D01*
G75*
G02*
X155174500Y-100478000I0J200000D01*
G01*
X155174500Y-99928000D01*
G75*
G02*
X155374500Y-99728000I200000J0D01*
G01*
X155774500Y-99728000D01*
G75*
G02*
X155974500Y-99928000I0J-200000D01*
G01*
G37*
%TD*%
%TO.C,R34*%
G36*
G01*
X155174500Y-102002000D02*
X155174500Y-101452000D01*
G75*
G02*
X155374500Y-101252000I200000J0D01*
G01*
X155774500Y-101252000D01*
G75*
G02*
X155974500Y-101452000I0J-200000D01*
G01*
X155974500Y-102002000D01*
G75*
G02*
X155774500Y-102202000I-200000J0D01*
G01*
X155374500Y-102202000D01*
G75*
G02*
X155174500Y-102002000I0J200000D01*
G01*
G37*
G36*
G01*
X153524500Y-102002000D02*
X153524500Y-101452000D01*
G75*
G02*
X153724500Y-101252000I200000J0D01*
G01*
X154124500Y-101252000D01*
G75*
G02*
X154324500Y-101452000I0J-200000D01*
G01*
X154324500Y-102002000D01*
G75*
G02*
X154124500Y-102202000I-200000J0D01*
G01*
X153724500Y-102202000D01*
G75*
G02*
X153524500Y-102002000I0J200000D01*
G01*
G37*
%TD*%
%TO.C,R33*%
G36*
G01*
X155692003Y-110479000D02*
X154441997Y-110479000D01*
G75*
G02*
X154192000Y-110229003I0J249997D01*
G01*
X154192000Y-109603997D01*
G75*
G02*
X154441997Y-109354000I249997J0D01*
G01*
X155692003Y-109354000D01*
G75*
G02*
X155942000Y-109603997I0J-249997D01*
G01*
X155942000Y-110229003D01*
G75*
G02*
X155692003Y-110479000I-249997J0D01*
G01*
G37*
G36*
G01*
X155692003Y-113404000D02*
X154441997Y-113404000D01*
G75*
G02*
X154192000Y-113154003I0J249997D01*
G01*
X154192000Y-112528997D01*
G75*
G02*
X154441997Y-112279000I249997J0D01*
G01*
X155692003Y-112279000D01*
G75*
G02*
X155942000Y-112528997I0J-249997D01*
G01*
X155942000Y-113154003D01*
G75*
G02*
X155692003Y-113404000I-249997J0D01*
G01*
G37*
%TD*%
%TO.C,R32*%
G36*
G01*
X154441997Y-105929000D02*
X155692003Y-105929000D01*
G75*
G02*
X155942000Y-106178997I0J-249997D01*
G01*
X155942000Y-106804003D01*
G75*
G02*
X155692003Y-107054000I-249997J0D01*
G01*
X154441997Y-107054000D01*
G75*
G02*
X154192000Y-106804003I0J249997D01*
G01*
X154192000Y-106178997D01*
G75*
G02*
X154441997Y-105929000I249997J0D01*
G01*
G37*
G36*
G01*
X154441997Y-103004000D02*
X155692003Y-103004000D01*
G75*
G02*
X155942000Y-103253997I0J-249997D01*
G01*
X155942000Y-103879003D01*
G75*
G02*
X155692003Y-104129000I-249997J0D01*
G01*
X154441997Y-104129000D01*
G75*
G02*
X154192000Y-103879003I0J249997D01*
G01*
X154192000Y-103253997D01*
G75*
G02*
X154441997Y-103004000I249997J0D01*
G01*
G37*
%TD*%
%TO.C,R31*%
G36*
G01*
X151301000Y-117115000D02*
X151301000Y-116565000D01*
G75*
G02*
X151501000Y-116365000I200000J0D01*
G01*
X151901000Y-116365000D01*
G75*
G02*
X152101000Y-116565000I0J-200000D01*
G01*
X152101000Y-117115000D01*
G75*
G02*
X151901000Y-117315000I-200000J0D01*
G01*
X151501000Y-117315000D01*
G75*
G02*
X151301000Y-117115000I0J200000D01*
G01*
G37*
G36*
G01*
X149651000Y-117115000D02*
X149651000Y-116565000D01*
G75*
G02*
X149851000Y-116365000I200000J0D01*
G01*
X150251000Y-116365000D01*
G75*
G02*
X150451000Y-116565000I0J-200000D01*
G01*
X150451000Y-117115000D01*
G75*
G02*
X150251000Y-117315000I-200000J0D01*
G01*
X149851000Y-117315000D01*
G75*
G02*
X149651000Y-117115000I0J200000D01*
G01*
G37*
%TD*%
%TO.C,R30*%
G36*
G01*
X151301000Y-102002000D02*
X151301000Y-101452000D01*
G75*
G02*
X151501000Y-101252000I200000J0D01*
G01*
X151901000Y-101252000D01*
G75*
G02*
X152101000Y-101452000I0J-200000D01*
G01*
X152101000Y-102002000D01*
G75*
G02*
X151901000Y-102202000I-200000J0D01*
G01*
X151501000Y-102202000D01*
G75*
G02*
X151301000Y-102002000I0J200000D01*
G01*
G37*
G36*
G01*
X149651000Y-102002000D02*
X149651000Y-101452000D01*
G75*
G02*
X149851000Y-101252000I200000J0D01*
G01*
X150251000Y-101252000D01*
G75*
G02*
X150451000Y-101452000I0J-200000D01*
G01*
X150451000Y-102002000D01*
G75*
G02*
X150251000Y-102202000I-200000J0D01*
G01*
X149851000Y-102202000D01*
G75*
G02*
X149651000Y-102002000I0J200000D01*
G01*
G37*
%TD*%
%TO.C,R25*%
G36*
G01*
X152571000Y-115083000D02*
X152571000Y-114533000D01*
G75*
G02*
X152771000Y-114333000I200000J0D01*
G01*
X153171000Y-114333000D01*
G75*
G02*
X153371000Y-114533000I0J-200000D01*
G01*
X153371000Y-115083000D01*
G75*
G02*
X153171000Y-115283000I-200000J0D01*
G01*
X152771000Y-115283000D01*
G75*
G02*
X152571000Y-115083000I0J200000D01*
G01*
G37*
G36*
G01*
X150921000Y-115083000D02*
X150921000Y-114533000D01*
G75*
G02*
X151121000Y-114333000I200000J0D01*
G01*
X151521000Y-114333000D01*
G75*
G02*
X151721000Y-114533000I0J-200000D01*
G01*
X151721000Y-115083000D01*
G75*
G02*
X151521000Y-115283000I-200000J0D01*
G01*
X151121000Y-115283000D01*
G75*
G02*
X150921000Y-115083000I0J200000D01*
G01*
G37*
%TD*%
%TO.C,R24*%
G36*
G01*
X152571000Y-108479000D02*
X152571000Y-107929000D01*
G75*
G02*
X152771000Y-107729000I200000J0D01*
G01*
X153171000Y-107729000D01*
G75*
G02*
X153371000Y-107929000I0J-200000D01*
G01*
X153371000Y-108479000D01*
G75*
G02*
X153171000Y-108679000I-200000J0D01*
G01*
X152771000Y-108679000D01*
G75*
G02*
X152571000Y-108479000I0J200000D01*
G01*
G37*
G36*
G01*
X150921000Y-108479000D02*
X150921000Y-107929000D01*
G75*
G02*
X151121000Y-107729000I200000J0D01*
G01*
X151521000Y-107729000D01*
G75*
G02*
X151721000Y-107929000I0J-200000D01*
G01*
X151721000Y-108479000D01*
G75*
G02*
X151521000Y-108679000I-200000J0D01*
G01*
X151121000Y-108679000D01*
G75*
G02*
X150921000Y-108479000I0J200000D01*
G01*
G37*
%TD*%
%TO.C,R23*%
G36*
G01*
X147807000Y-120313000D02*
X148357000Y-120313000D01*
G75*
G02*
X148557000Y-120513000I0J-200000D01*
G01*
X148557000Y-120913000D01*
G75*
G02*
X148357000Y-121113000I-200000J0D01*
G01*
X147807000Y-121113000D01*
G75*
G02*
X147607000Y-120913000I0J200000D01*
G01*
X147607000Y-120513000D01*
G75*
G02*
X147807000Y-120313000I200000J0D01*
G01*
G37*
G36*
G01*
X147807000Y-118663000D02*
X148357000Y-118663000D01*
G75*
G02*
X148557000Y-118863000I0J-200000D01*
G01*
X148557000Y-119263000D01*
G75*
G02*
X148357000Y-119463000I-200000J0D01*
G01*
X147807000Y-119463000D01*
G75*
G02*
X147607000Y-119263000I0J200000D01*
G01*
X147607000Y-118863000D01*
G75*
G02*
X147807000Y-118663000I200000J0D01*
G01*
G37*
%TD*%
%TO.C,R22*%
G36*
G01*
X148357000Y-98127000D02*
X147807000Y-98127000D01*
G75*
G02*
X147607000Y-97927000I0J200000D01*
G01*
X147607000Y-97527000D01*
G75*
G02*
X147807000Y-97327000I200000J0D01*
G01*
X148357000Y-97327000D01*
G75*
G02*
X148557000Y-97527000I0J-200000D01*
G01*
X148557000Y-97927000D01*
G75*
G02*
X148357000Y-98127000I-200000J0D01*
G01*
G37*
G36*
G01*
X148357000Y-99777000D02*
X147807000Y-99777000D01*
G75*
G02*
X147607000Y-99577000I0J200000D01*
G01*
X147607000Y-99177000D01*
G75*
G02*
X147807000Y-98977000I200000J0D01*
G01*
X148357000Y-98977000D01*
G75*
G02*
X148557000Y-99177000I0J-200000D01*
G01*
X148557000Y-99577000D01*
G75*
G02*
X148357000Y-99777000I-200000J0D01*
G01*
G37*
%TD*%
%TO.C,R21*%
G36*
G01*
X155174000Y-94382000D02*
X155174000Y-93832000D01*
G75*
G02*
X155374000Y-93632000I200000J0D01*
G01*
X155774000Y-93632000D01*
G75*
G02*
X155974000Y-93832000I0J-200000D01*
G01*
X155974000Y-94382000D01*
G75*
G02*
X155774000Y-94582000I-200000J0D01*
G01*
X155374000Y-94582000D01*
G75*
G02*
X155174000Y-94382000I0J200000D01*
G01*
G37*
G36*
G01*
X153524000Y-94382000D02*
X153524000Y-93832000D01*
G75*
G02*
X153724000Y-93632000I200000J0D01*
G01*
X154124000Y-93632000D01*
G75*
G02*
X154324000Y-93832000I0J-200000D01*
G01*
X154324000Y-94382000D01*
G75*
G02*
X154124000Y-94582000I-200000J0D01*
G01*
X153724000Y-94582000D01*
G75*
G02*
X153524000Y-94382000I0J200000D01*
G01*
G37*
%TD*%
%TO.C,R20*%
G36*
G01*
X155174000Y-92858000D02*
X155174000Y-92308000D01*
G75*
G02*
X155374000Y-92108000I200000J0D01*
G01*
X155774000Y-92108000D01*
G75*
G02*
X155974000Y-92308000I0J-200000D01*
G01*
X155974000Y-92858000D01*
G75*
G02*
X155774000Y-93058000I-200000J0D01*
G01*
X155374000Y-93058000D01*
G75*
G02*
X155174000Y-92858000I0J200000D01*
G01*
G37*
G36*
G01*
X153524000Y-92858000D02*
X153524000Y-92308000D01*
G75*
G02*
X153724000Y-92108000I200000J0D01*
G01*
X154124000Y-92108000D01*
G75*
G02*
X154324000Y-92308000I0J-200000D01*
G01*
X154324000Y-92858000D01*
G75*
G02*
X154124000Y-93058000I-200000J0D01*
G01*
X153724000Y-93058000D01*
G75*
G02*
X153524000Y-92858000I0J200000D01*
G01*
G37*
%TD*%
%TO.C,R19*%
G36*
G01*
X154261000Y-124439000D02*
X154261000Y-124989000D01*
G75*
G02*
X154061000Y-125189000I-200000J0D01*
G01*
X153661000Y-125189000D01*
G75*
G02*
X153461000Y-124989000I0J200000D01*
G01*
X153461000Y-124439000D01*
G75*
G02*
X153661000Y-124239000I200000J0D01*
G01*
X154061000Y-124239000D01*
G75*
G02*
X154261000Y-124439000I0J-200000D01*
G01*
G37*
G36*
G01*
X155911000Y-124439000D02*
X155911000Y-124989000D01*
G75*
G02*
X155711000Y-125189000I-200000J0D01*
G01*
X155311000Y-125189000D01*
G75*
G02*
X155111000Y-124989000I0J200000D01*
G01*
X155111000Y-124439000D01*
G75*
G02*
X155311000Y-124239000I200000J0D01*
G01*
X155711000Y-124239000D01*
G75*
G02*
X155911000Y-124439000I0J-200000D01*
G01*
G37*
%TD*%
%TO.C,R18*%
G36*
G01*
X155111000Y-126513000D02*
X155111000Y-125963000D01*
G75*
G02*
X155311000Y-125763000I200000J0D01*
G01*
X155711000Y-125763000D01*
G75*
G02*
X155911000Y-125963000I0J-200000D01*
G01*
X155911000Y-126513000D01*
G75*
G02*
X155711000Y-126713000I-200000J0D01*
G01*
X155311000Y-126713000D01*
G75*
G02*
X155111000Y-126513000I0J200000D01*
G01*
G37*
G36*
G01*
X153461000Y-126513000D02*
X153461000Y-125963000D01*
G75*
G02*
X153661000Y-125763000I200000J0D01*
G01*
X154061000Y-125763000D01*
G75*
G02*
X154261000Y-125963000I0J-200000D01*
G01*
X154261000Y-126513000D01*
G75*
G02*
X154061000Y-126713000I-200000J0D01*
G01*
X153661000Y-126713000D01*
G75*
G02*
X153461000Y-126513000I0J200000D01*
G01*
G37*
%TD*%
%TO.C,R17*%
G36*
G01*
X155692003Y-85841000D02*
X154441997Y-85841000D01*
G75*
G02*
X154192000Y-85591003I0J249997D01*
G01*
X154192000Y-84965997D01*
G75*
G02*
X154441997Y-84716000I249997J0D01*
G01*
X155692003Y-84716000D01*
G75*
G02*
X155942000Y-84965997I0J-249997D01*
G01*
X155942000Y-85591003D01*
G75*
G02*
X155692003Y-85841000I-249997J0D01*
G01*
G37*
G36*
G01*
X155692003Y-88766000D02*
X154441997Y-88766000D01*
G75*
G02*
X154192000Y-88516003I0J249997D01*
G01*
X154192000Y-87890997D01*
G75*
G02*
X154441997Y-87641000I249997J0D01*
G01*
X155692003Y-87641000D01*
G75*
G02*
X155942000Y-87890997I0J-249997D01*
G01*
X155942000Y-88516003D01*
G75*
G02*
X155692003Y-88766000I-249997J0D01*
G01*
G37*
%TD*%
%TO.C,R16*%
G36*
G01*
X154441997Y-130440000D02*
X155692003Y-130440000D01*
G75*
G02*
X155942000Y-130689997I0J-249997D01*
G01*
X155942000Y-131315003D01*
G75*
G02*
X155692003Y-131565000I-249997J0D01*
G01*
X154441997Y-131565000D01*
G75*
G02*
X154192000Y-131315003I0J249997D01*
G01*
X154192000Y-130689997D01*
G75*
G02*
X154441997Y-130440000I249997J0D01*
G01*
G37*
G36*
G01*
X154441997Y-127515000D02*
X155692003Y-127515000D01*
G75*
G02*
X155942000Y-127764997I0J-249997D01*
G01*
X155942000Y-128390003D01*
G75*
G02*
X155692003Y-128640000I-249997J0D01*
G01*
X154441997Y-128640000D01*
G75*
G02*
X154192000Y-128390003I0J249997D01*
G01*
X154192000Y-127764997D01*
G75*
G02*
X154441997Y-127515000I249997J0D01*
G01*
G37*
%TD*%
%TO.C,R15*%
G36*
G01*
X151301000Y-92858000D02*
X151301000Y-92308000D01*
G75*
G02*
X151501000Y-92108000I200000J0D01*
G01*
X151901000Y-92108000D01*
G75*
G02*
X152101000Y-92308000I0J-200000D01*
G01*
X152101000Y-92858000D01*
G75*
G02*
X151901000Y-93058000I-200000J0D01*
G01*
X151501000Y-93058000D01*
G75*
G02*
X151301000Y-92858000I0J200000D01*
G01*
G37*
G36*
G01*
X149651000Y-92858000D02*
X149651000Y-92308000D01*
G75*
G02*
X149851000Y-92108000I200000J0D01*
G01*
X150251000Y-92108000D01*
G75*
G02*
X150451000Y-92308000I0J-200000D01*
G01*
X150451000Y-92858000D01*
G75*
G02*
X150251000Y-93058000I-200000J0D01*
G01*
X149851000Y-93058000D01*
G75*
G02*
X149651000Y-92858000I0J200000D01*
G01*
G37*
%TD*%
%TO.C,R14*%
G36*
G01*
X151301000Y-126513000D02*
X151301000Y-125963000D01*
G75*
G02*
X151501000Y-125763000I200000J0D01*
G01*
X151901000Y-125763000D01*
G75*
G02*
X152101000Y-125963000I0J-200000D01*
G01*
X152101000Y-126513000D01*
G75*
G02*
X151901000Y-126713000I-200000J0D01*
G01*
X151501000Y-126713000D01*
G75*
G02*
X151301000Y-126513000I0J200000D01*
G01*
G37*
G36*
G01*
X149651000Y-126513000D02*
X149651000Y-125963000D01*
G75*
G02*
X149851000Y-125763000I200000J0D01*
G01*
X150251000Y-125763000D01*
G75*
G02*
X150451000Y-125963000I0J-200000D01*
G01*
X150451000Y-126513000D01*
G75*
G02*
X150251000Y-126713000I-200000J0D01*
G01*
X149851000Y-126713000D01*
G75*
G02*
X149651000Y-126513000I0J200000D01*
G01*
G37*
%TD*%
%TO.C,R9*%
G36*
G01*
X152571000Y-90826000D02*
X152571000Y-90276000D01*
G75*
G02*
X152771000Y-90076000I200000J0D01*
G01*
X153171000Y-90076000D01*
G75*
G02*
X153371000Y-90276000I0J-200000D01*
G01*
X153371000Y-90826000D01*
G75*
G02*
X153171000Y-91026000I-200000J0D01*
G01*
X152771000Y-91026000D01*
G75*
G02*
X152571000Y-90826000I0J200000D01*
G01*
G37*
G36*
G01*
X150921000Y-90826000D02*
X150921000Y-90276000D01*
G75*
G02*
X151121000Y-90076000I200000J0D01*
G01*
X151521000Y-90076000D01*
G75*
G02*
X151721000Y-90276000I0J-200000D01*
G01*
X151721000Y-90826000D01*
G75*
G02*
X151521000Y-91026000I-200000J0D01*
G01*
X151121000Y-91026000D01*
G75*
G02*
X150921000Y-90826000I0J200000D01*
G01*
G37*
%TD*%
%TO.C,R8*%
G36*
G01*
X152571000Y-133117000D02*
X152571000Y-132567000D01*
G75*
G02*
X152771000Y-132367000I200000J0D01*
G01*
X153171000Y-132367000D01*
G75*
G02*
X153371000Y-132567000I0J-200000D01*
G01*
X153371000Y-133117000D01*
G75*
G02*
X153171000Y-133317000I-200000J0D01*
G01*
X152771000Y-133317000D01*
G75*
G02*
X152571000Y-133117000I0J200000D01*
G01*
G37*
G36*
G01*
X150921000Y-133117000D02*
X150921000Y-132567000D01*
G75*
G02*
X151121000Y-132367000I200000J0D01*
G01*
X151521000Y-132367000D01*
G75*
G02*
X151721000Y-132567000I0J-200000D01*
G01*
X151721000Y-133117000D01*
G75*
G02*
X151521000Y-133317000I-200000J0D01*
G01*
X151121000Y-133317000D01*
G75*
G02*
X150921000Y-133117000I0J200000D01*
G01*
G37*
%TD*%
%TO.C,R7*%
G36*
G01*
X147807000Y-95929000D02*
X148357000Y-95929000D01*
G75*
G02*
X148557000Y-96129000I0J-200000D01*
G01*
X148557000Y-96529000D01*
G75*
G02*
X148357000Y-96729000I-200000J0D01*
G01*
X147807000Y-96729000D01*
G75*
G02*
X147607000Y-96529000I0J200000D01*
G01*
X147607000Y-96129000D01*
G75*
G02*
X147807000Y-95929000I200000J0D01*
G01*
G37*
G36*
G01*
X147807000Y-94279000D02*
X148357000Y-94279000D01*
G75*
G02*
X148557000Y-94479000I0J-200000D01*
G01*
X148557000Y-94879000D01*
G75*
G02*
X148357000Y-95079000I-200000J0D01*
G01*
X147807000Y-95079000D01*
G75*
G02*
X147607000Y-94879000I0J200000D01*
G01*
X147607000Y-94479000D01*
G75*
G02*
X147807000Y-94279000I200000J0D01*
G01*
G37*
%TD*%
%TO.C,R6*%
G36*
G01*
X148357000Y-122511000D02*
X147807000Y-122511000D01*
G75*
G02*
X147607000Y-122311000I0J200000D01*
G01*
X147607000Y-121911000D01*
G75*
G02*
X147807000Y-121711000I200000J0D01*
G01*
X148357000Y-121711000D01*
G75*
G02*
X148557000Y-121911000I0J-200000D01*
G01*
X148557000Y-122311000D01*
G75*
G02*
X148357000Y-122511000I-200000J0D01*
G01*
G37*
G36*
G01*
X148357000Y-124161000D02*
X147807000Y-124161000D01*
G75*
G02*
X147607000Y-123961000I0J200000D01*
G01*
X147607000Y-123561000D01*
G75*
G02*
X147807000Y-123361000I200000J0D01*
G01*
X148357000Y-123361000D01*
G75*
G02*
X148557000Y-123561000I0J-200000D01*
G01*
X148557000Y-123961000D01*
G75*
G02*
X148357000Y-124161000I-200000J0D01*
G01*
G37*
%TD*%
%TO.C,R5*%
G36*
G01*
X146833000Y-135211000D02*
X146283000Y-135211000D01*
G75*
G02*
X146083000Y-135011000I0J200000D01*
G01*
X146083000Y-134611000D01*
G75*
G02*
X146283000Y-134411000I200000J0D01*
G01*
X146833000Y-134411000D01*
G75*
G02*
X147033000Y-134611000I0J-200000D01*
G01*
X147033000Y-135011000D01*
G75*
G02*
X146833000Y-135211000I-200000J0D01*
G01*
G37*
G36*
G01*
X146833000Y-136861000D02*
X146283000Y-136861000D01*
G75*
G02*
X146083000Y-136661000I0J200000D01*
G01*
X146083000Y-136261000D01*
G75*
G02*
X146283000Y-136061000I200000J0D01*
G01*
X146833000Y-136061000D01*
G75*
G02*
X147033000Y-136261000I0J-200000D01*
G01*
X147033000Y-136661000D01*
G75*
G02*
X146833000Y-136861000I-200000J0D01*
G01*
G37*
%TD*%
%TO.C,R4*%
G36*
G01*
X147807000Y-136061000D02*
X148357000Y-136061000D01*
G75*
G02*
X148557000Y-136261000I0J-200000D01*
G01*
X148557000Y-136661000D01*
G75*
G02*
X148357000Y-136861000I-200000J0D01*
G01*
X147807000Y-136861000D01*
G75*
G02*
X147607000Y-136661000I0J200000D01*
G01*
X147607000Y-136261000D01*
G75*
G02*
X147807000Y-136061000I200000J0D01*
G01*
G37*
G36*
G01*
X147807000Y-134411000D02*
X148357000Y-134411000D01*
G75*
G02*
X148557000Y-134611000I0J-200000D01*
G01*
X148557000Y-135011000D01*
G75*
G02*
X148357000Y-135211000I-200000J0D01*
G01*
X147807000Y-135211000D01*
G75*
G02*
X147607000Y-135011000I0J200000D01*
G01*
X147607000Y-134611000D01*
G75*
G02*
X147807000Y-134411000I200000J0D01*
G01*
G37*
%TD*%
D11*
%TO.C,J22*%
X164511000Y-72262000D03*
X170261000Y-72262000D03*
D10*
X168011000Y-74962000D03*
X166761000Y-74962000D03*
%TD*%
D11*
%TO.C,J21*%
X172882200Y-72257600D03*
X183632200Y-72257600D03*
D10*
X181382200Y-74957600D03*
X180132200Y-74957600D03*
X178882200Y-74957600D03*
X177632200Y-74957600D03*
X176382200Y-74957600D03*
X175132200Y-74957600D03*
%TD*%
D11*
%TO.C,J19*%
X156129000Y-72262000D03*
X161879000Y-72262000D03*
D10*
X159629000Y-74962000D03*
X158379000Y-74962000D03*
%TD*%
D11*
%TO.C,J18*%
X130983000Y-72257600D03*
X136733000Y-72257600D03*
D10*
X134483000Y-74957600D03*
X133233000Y-74957600D03*
%TD*%
D11*
%TO.C,J16*%
X139339600Y-72257600D03*
X145089600Y-72257600D03*
D10*
X142839600Y-74957600D03*
X141589600Y-74957600D03*
%TD*%
D11*
%TO.C,J15*%
X147747000Y-72257600D03*
X153497000Y-72257600D03*
D10*
X151247000Y-74957600D03*
X149997000Y-74957600D03*
%TD*%
D11*
%TO.C,J12*%
X116134000Y-140736000D03*
X123134000Y-140736000D03*
D10*
X120884000Y-143436000D03*
X119634000Y-143436000D03*
X118384000Y-143436000D03*
%TD*%
D11*
%TO.C,J11*%
X123134000Y-136124000D03*
X116134000Y-136124000D03*
D10*
X118384000Y-133424000D03*
X119634000Y-133424000D03*
X120884000Y-133424000D03*
%TD*%
D23*
%TO.C,J9*%
X127276000Y-74676000D03*
D24*
X128426000Y-70901000D03*
X122526000Y-70901000D03*
D23*
X126076000Y-74676000D03*
X124876000Y-74676000D03*
X123676000Y-74676000D03*
%TD*%
%TO.C,FB1*%
G36*
G01*
X190785000Y-106169750D02*
X190785000Y-106682250D01*
G75*
G02*
X190566250Y-106901000I-218750J0D01*
G01*
X190128750Y-106901000D01*
G75*
G02*
X189910000Y-106682250I0J218750D01*
G01*
X189910000Y-106169750D01*
G75*
G02*
X190128750Y-105951000I218750J0D01*
G01*
X190566250Y-105951000D01*
G75*
G02*
X190785000Y-106169750I0J-218750D01*
G01*
G37*
G36*
G01*
X192360000Y-106169750D02*
X192360000Y-106682250D01*
G75*
G02*
X192141250Y-106901000I-218750J0D01*
G01*
X191703750Y-106901000D01*
G75*
G02*
X191485000Y-106682250I0J218750D01*
G01*
X191485000Y-106169750D01*
G75*
G02*
X191703750Y-105951000I218750J0D01*
G01*
X192141250Y-105951000D01*
G75*
G02*
X192360000Y-106169750I0J-218750D01*
G01*
G37*
%TD*%
%TO.C,C101*%
G36*
G01*
X142879000Y-83129000D02*
X143379000Y-83129000D01*
G75*
G02*
X143604000Y-83354000I0J-225000D01*
G01*
X143604000Y-83804000D01*
G75*
G02*
X143379000Y-84029000I-225000J0D01*
G01*
X142879000Y-84029000D01*
G75*
G02*
X142654000Y-83804000I0J225000D01*
G01*
X142654000Y-83354000D01*
G75*
G02*
X142879000Y-83129000I225000J0D01*
G01*
G37*
G36*
G01*
X142879000Y-81579000D02*
X143379000Y-81579000D01*
G75*
G02*
X143604000Y-81804000I0J-225000D01*
G01*
X143604000Y-82254000D01*
G75*
G02*
X143379000Y-82479000I-225000J0D01*
G01*
X142879000Y-82479000D01*
G75*
G02*
X142654000Y-82254000I0J225000D01*
G01*
X142654000Y-81804000D01*
G75*
G02*
X142879000Y-81579000I225000J0D01*
G01*
G37*
%TD*%
%TO.C,C100*%
G36*
G01*
X141228000Y-83129000D02*
X141728000Y-83129000D01*
G75*
G02*
X141953000Y-83354000I0J-225000D01*
G01*
X141953000Y-83804000D01*
G75*
G02*
X141728000Y-84029000I-225000J0D01*
G01*
X141228000Y-84029000D01*
G75*
G02*
X141003000Y-83804000I0J225000D01*
G01*
X141003000Y-83354000D01*
G75*
G02*
X141228000Y-83129000I225000J0D01*
G01*
G37*
G36*
G01*
X141228000Y-81579000D02*
X141728000Y-81579000D01*
G75*
G02*
X141953000Y-81804000I0J-225000D01*
G01*
X141953000Y-82254000D01*
G75*
G02*
X141728000Y-82479000I-225000J0D01*
G01*
X141228000Y-82479000D01*
G75*
G02*
X141003000Y-82254000I0J225000D01*
G01*
X141003000Y-81804000D01*
G75*
G02*
X141228000Y-81579000I225000J0D01*
G01*
G37*
%TD*%
%TO.C,C42*%
G36*
G01*
X179903000Y-134870000D02*
X179903000Y-134370000D01*
G75*
G02*
X180128000Y-134145000I225000J0D01*
G01*
X180578000Y-134145000D01*
G75*
G02*
X180803000Y-134370000I0J-225000D01*
G01*
X180803000Y-134870000D01*
G75*
G02*
X180578000Y-135095000I-225000J0D01*
G01*
X180128000Y-135095000D01*
G75*
G02*
X179903000Y-134870000I0J225000D01*
G01*
G37*
G36*
G01*
X178353000Y-134870000D02*
X178353000Y-134370000D01*
G75*
G02*
X178578000Y-134145000I225000J0D01*
G01*
X179028000Y-134145000D01*
G75*
G02*
X179253000Y-134370000I0J-225000D01*
G01*
X179253000Y-134870000D01*
G75*
G02*
X179028000Y-135095000I-225000J0D01*
G01*
X178578000Y-135095000D01*
G75*
G02*
X178353000Y-134870000I0J225000D01*
G01*
G37*
%TD*%
%TO.C,C35*%
G36*
G01*
X148786000Y-114558000D02*
X148786000Y-115058000D01*
G75*
G02*
X148561000Y-115283000I-225000J0D01*
G01*
X148111000Y-115283000D01*
G75*
G02*
X147886000Y-115058000I0J225000D01*
G01*
X147886000Y-114558000D01*
G75*
G02*
X148111000Y-114333000I225000J0D01*
G01*
X148561000Y-114333000D01*
G75*
G02*
X148786000Y-114558000I0J-225000D01*
G01*
G37*
G36*
G01*
X150336000Y-114558000D02*
X150336000Y-115058000D01*
G75*
G02*
X150111000Y-115283000I-225000J0D01*
G01*
X149661000Y-115283000D01*
G75*
G02*
X149436000Y-115058000I0J225000D01*
G01*
X149436000Y-114558000D01*
G75*
G02*
X149661000Y-114333000I225000J0D01*
G01*
X150111000Y-114333000D01*
G75*
G02*
X150336000Y-114558000I0J-225000D01*
G01*
G37*
%TD*%
%TO.C,C34*%
G36*
G01*
X148773000Y-107954000D02*
X148773000Y-108454000D01*
G75*
G02*
X148548000Y-108679000I-225000J0D01*
G01*
X148098000Y-108679000D01*
G75*
G02*
X147873000Y-108454000I0J225000D01*
G01*
X147873000Y-107954000D01*
G75*
G02*
X148098000Y-107729000I225000J0D01*
G01*
X148548000Y-107729000D01*
G75*
G02*
X148773000Y-107954000I0J-225000D01*
G01*
G37*
G36*
G01*
X150323000Y-107954000D02*
X150323000Y-108454000D01*
G75*
G02*
X150098000Y-108679000I-225000J0D01*
G01*
X149648000Y-108679000D01*
G75*
G02*
X149423000Y-108454000I0J225000D01*
G01*
X149423000Y-107954000D01*
G75*
G02*
X149648000Y-107729000I225000J0D01*
G01*
X150098000Y-107729000D01*
G75*
G02*
X150323000Y-107954000I0J-225000D01*
G01*
G37*
%TD*%
%TO.C,C33*%
G36*
G01*
X146308000Y-120213000D02*
X146808000Y-120213000D01*
G75*
G02*
X147033000Y-120438000I0J-225000D01*
G01*
X147033000Y-120888000D01*
G75*
G02*
X146808000Y-121113000I-225000J0D01*
G01*
X146308000Y-121113000D01*
G75*
G02*
X146083000Y-120888000I0J225000D01*
G01*
X146083000Y-120438000D01*
G75*
G02*
X146308000Y-120213000I225000J0D01*
G01*
G37*
G36*
G01*
X146308000Y-118663000D02*
X146808000Y-118663000D01*
G75*
G02*
X147033000Y-118888000I0J-225000D01*
G01*
X147033000Y-119338000D01*
G75*
G02*
X146808000Y-119563000I-225000J0D01*
G01*
X146308000Y-119563000D01*
G75*
G02*
X146083000Y-119338000I0J225000D01*
G01*
X146083000Y-118888000D01*
G75*
G02*
X146308000Y-118663000I225000J0D01*
G01*
G37*
%TD*%
%TO.C,C32*%
G36*
G01*
X146308000Y-98877000D02*
X146808000Y-98877000D01*
G75*
G02*
X147033000Y-99102000I0J-225000D01*
G01*
X147033000Y-99552000D01*
G75*
G02*
X146808000Y-99777000I-225000J0D01*
G01*
X146308000Y-99777000D01*
G75*
G02*
X146083000Y-99552000I0J225000D01*
G01*
X146083000Y-99102000D01*
G75*
G02*
X146308000Y-98877000I225000J0D01*
G01*
G37*
G36*
G01*
X146308000Y-97327000D02*
X146808000Y-97327000D01*
G75*
G02*
X147033000Y-97552000I0J-225000D01*
G01*
X147033000Y-98002000D01*
G75*
G02*
X146808000Y-98227000I-225000J0D01*
G01*
X146308000Y-98227000D01*
G75*
G02*
X146083000Y-98002000I0J225000D01*
G01*
X146083000Y-97552000D01*
G75*
G02*
X146308000Y-97327000I225000J0D01*
G01*
G37*
%TD*%
%TO.C,C27*%
G36*
G01*
X148773000Y-90301000D02*
X148773000Y-90801000D01*
G75*
G02*
X148548000Y-91026000I-225000J0D01*
G01*
X148098000Y-91026000D01*
G75*
G02*
X147873000Y-90801000I0J225000D01*
G01*
X147873000Y-90301000D01*
G75*
G02*
X148098000Y-90076000I225000J0D01*
G01*
X148548000Y-90076000D01*
G75*
G02*
X148773000Y-90301000I0J-225000D01*
G01*
G37*
G36*
G01*
X150323000Y-90301000D02*
X150323000Y-90801000D01*
G75*
G02*
X150098000Y-91026000I-225000J0D01*
G01*
X149648000Y-91026000D01*
G75*
G02*
X149423000Y-90801000I0J225000D01*
G01*
X149423000Y-90301000D01*
G75*
G02*
X149648000Y-90076000I225000J0D01*
G01*
X150098000Y-90076000D01*
G75*
G02*
X150323000Y-90301000I0J-225000D01*
G01*
G37*
%TD*%
%TO.C,C26*%
G36*
G01*
X148773000Y-132592000D02*
X148773000Y-133092000D01*
G75*
G02*
X148548000Y-133317000I-225000J0D01*
G01*
X148098000Y-133317000D01*
G75*
G02*
X147873000Y-133092000I0J225000D01*
G01*
X147873000Y-132592000D01*
G75*
G02*
X148098000Y-132367000I225000J0D01*
G01*
X148548000Y-132367000D01*
G75*
G02*
X148773000Y-132592000I0J-225000D01*
G01*
G37*
G36*
G01*
X150323000Y-132592000D02*
X150323000Y-133092000D01*
G75*
G02*
X150098000Y-133317000I-225000J0D01*
G01*
X149648000Y-133317000D01*
G75*
G02*
X149423000Y-133092000I0J225000D01*
G01*
X149423000Y-132592000D01*
G75*
G02*
X149648000Y-132367000I225000J0D01*
G01*
X150098000Y-132367000D01*
G75*
G02*
X150323000Y-132592000I0J-225000D01*
G01*
G37*
%TD*%
%TO.C,C25*%
G36*
G01*
X146308000Y-95829000D02*
X146808000Y-95829000D01*
G75*
G02*
X147033000Y-96054000I0J-225000D01*
G01*
X147033000Y-96504000D01*
G75*
G02*
X146808000Y-96729000I-225000J0D01*
G01*
X146308000Y-96729000D01*
G75*
G02*
X146083000Y-96504000I0J225000D01*
G01*
X146083000Y-96054000D01*
G75*
G02*
X146308000Y-95829000I225000J0D01*
G01*
G37*
G36*
G01*
X146308000Y-94279000D02*
X146808000Y-94279000D01*
G75*
G02*
X147033000Y-94504000I0J-225000D01*
G01*
X147033000Y-94954000D01*
G75*
G02*
X146808000Y-95179000I-225000J0D01*
G01*
X146308000Y-95179000D01*
G75*
G02*
X146083000Y-94954000I0J225000D01*
G01*
X146083000Y-94504000D01*
G75*
G02*
X146308000Y-94279000I225000J0D01*
G01*
G37*
%TD*%
%TO.C,C24*%
G36*
G01*
X146808000Y-122611000D02*
X146308000Y-122611000D01*
G75*
G02*
X146083000Y-122386000I0J225000D01*
G01*
X146083000Y-121936000D01*
G75*
G02*
X146308000Y-121711000I225000J0D01*
G01*
X146808000Y-121711000D01*
G75*
G02*
X147033000Y-121936000I0J-225000D01*
G01*
X147033000Y-122386000D01*
G75*
G02*
X146808000Y-122611000I-225000J0D01*
G01*
G37*
G36*
G01*
X146808000Y-124161000D02*
X146308000Y-124161000D01*
G75*
G02*
X146083000Y-123936000I0J225000D01*
G01*
X146083000Y-123486000D01*
G75*
G02*
X146308000Y-123261000I225000J0D01*
G01*
X146808000Y-123261000D01*
G75*
G02*
X147033000Y-123486000I0J-225000D01*
G01*
X147033000Y-123936000D01*
G75*
G02*
X146808000Y-124161000I-225000J0D01*
G01*
G37*
%TD*%
%TO.C,C13*%
G36*
G01*
X190810000Y-107700000D02*
X190810000Y-108200000D01*
G75*
G02*
X190585000Y-108425000I-225000J0D01*
G01*
X190135000Y-108425000D01*
G75*
G02*
X189910000Y-108200000I0J225000D01*
G01*
X189910000Y-107700000D01*
G75*
G02*
X190135000Y-107475000I225000J0D01*
G01*
X190585000Y-107475000D01*
G75*
G02*
X190810000Y-107700000I0J-225000D01*
G01*
G37*
G36*
G01*
X192360000Y-107700000D02*
X192360000Y-108200000D01*
G75*
G02*
X192135000Y-108425000I-225000J0D01*
G01*
X191685000Y-108425000D01*
G75*
G02*
X191460000Y-108200000I0J225000D01*
G01*
X191460000Y-107700000D01*
G75*
G02*
X191685000Y-107475000I225000J0D01*
G01*
X192135000Y-107475000D01*
G75*
G02*
X192360000Y-107700000I0J-225000D01*
G01*
G37*
%TD*%
%TO.C,C12*%
G36*
G01*
X191460000Y-113788000D02*
X191460000Y-113288000D01*
G75*
G02*
X191685000Y-113063000I225000J0D01*
G01*
X192135000Y-113063000D01*
G75*
G02*
X192360000Y-113288000I0J-225000D01*
G01*
X192360000Y-113788000D01*
G75*
G02*
X192135000Y-114013000I-225000J0D01*
G01*
X191685000Y-114013000D01*
G75*
G02*
X191460000Y-113788000I0J225000D01*
G01*
G37*
G36*
G01*
X189910000Y-113788000D02*
X189910000Y-113288000D01*
G75*
G02*
X190135000Y-113063000I225000J0D01*
G01*
X190585000Y-113063000D01*
G75*
G02*
X190810000Y-113288000I0J-225000D01*
G01*
X190810000Y-113788000D01*
G75*
G02*
X190585000Y-114013000I-225000J0D01*
G01*
X190135000Y-114013000D01*
G75*
G02*
X189910000Y-113788000I0J225000D01*
G01*
G37*
%TD*%
M02*
