%TF.GenerationSoftware,KiCad,Pcbnew,(5.1.12)-1*%
%TF.CreationDate,2023-02-16T02:19:06-06:00*%
%TF.ProjectId,perovskite_routing_board,7065726f-7673-46b6-9974-655f726f7574,A*%
%TF.SameCoordinates,Original*%
%TF.FileFunction,Copper,L2,Bot*%
%TF.FilePolarity,Positive*%
%FSLAX46Y46*%
G04 Gerber Fmt 4.6, Leading zero omitted, Abs format (unit mm)*
G04 Created by KiCad (PCBNEW (5.1.12)-1) date 2023-02-16 02:19:06*
%MOMM*%
%LPD*%
G01*
G04 APERTURE LIST*
%TA.AperFunction,ComponentPad*%
%ADD10R,1.700000X1.700000*%
%TD*%
%TA.AperFunction,ComponentPad*%
%ADD11O,1.700000X1.700000*%
%TD*%
%TA.AperFunction,ComponentPad*%
%ADD12C,1.100000*%
%TD*%
%TA.AperFunction,ViaPad*%
%ADD13C,0.508000*%
%TD*%
%TA.AperFunction,Conductor*%
%ADD14C,0.152400*%
%TD*%
%TA.AperFunction,Conductor*%
%ADD15C,0.508000*%
%TD*%
%TA.AperFunction,Conductor*%
%ADD16C,0.254000*%
%TD*%
%TA.AperFunction,Conductor*%
%ADD17C,0.100000*%
%TD*%
G04 APERTURE END LIST*
D10*
%TO.P,J2,1*%
%TO.N,CELL_1*%
X124104400Y-79730600D03*
D11*
%TO.P,J2,2*%
%TO.N,ALERT1*%
X126644400Y-79730600D03*
%TO.P,J2,3*%
%TO.N,CELL_2*%
X129184400Y-79730600D03*
%TO.P,J2,4*%
%TO.N,GND*%
X131724400Y-79730600D03*
%TO.P,J2,5*%
%TO.N,CELL_3*%
X134264400Y-79730600D03*
%TO.P,J2,6*%
%TO.N,GND*%
X136804400Y-79730600D03*
%TO.P,J2,7*%
X139344400Y-79730600D03*
%TO.P,J2,8*%
X141884400Y-79730600D03*
%TD*%
D12*
%TO.P,J7,1*%
%TO.N,CP*%
X119354600Y-97981800D03*
%TO.P,J7,2*%
%TO.N,CELL_6*%
X119354600Y-96731800D03*
%TO.P,J7,3*%
%TO.N,CELL_5*%
X119354600Y-95481800D03*
%TO.P,J7,4*%
%TO.N,CELL_4*%
X119354600Y-94231800D03*
%TO.P,J7,5*%
%TO.N,CELL_16*%
X119354600Y-92981800D03*
%TO.P,J7,6*%
%TO.N,CELL_15*%
X119354600Y-91731800D03*
%TO.P,J7,7*%
%TO.N,ALERT3*%
X119354600Y-90481800D03*
%TO.P,J7,8*%
%TO.N,CELL_14*%
X119354600Y-89231800D03*
%TO.P,J7,9*%
%TO.N,CELL_1*%
X119354600Y-87981800D03*
%TO.P,J7,10*%
%TO.N,ALERT1*%
X119354600Y-86731800D03*
%TO.P,J7,11*%
%TO.N,CELL_2*%
X119354600Y-85481800D03*
%TO.P,J7,12*%
%TO.N,CELL_3*%
X119354600Y-84231800D03*
%TO.P,J7,13*%
%TO.N,CELL_7*%
X119354600Y-82981800D03*
%TO.P,J7,14*%
%TO.N,VDD*%
X120604600Y-97981800D03*
%TO.P,J7,15*%
%TO.N,SDA*%
X120604600Y-96731800D03*
%TO.P,J7,16*%
%TO.N,CELL_17*%
X120604600Y-95481800D03*
%TO.P,J7,17*%
%TO.N,CELL_18*%
X120604600Y-94231800D03*
%TO.P,J7,18*%
%TO.N,CELL_13*%
X120604600Y-92981800D03*
%TO.P,J7,19*%
%TO.N,GND*%
X120604600Y-91731800D03*
%TO.P,J7,20*%
%TO.N,CELL_12*%
X120604600Y-90481800D03*
%TO.P,J7,21*%
%TO.N,CELL_11*%
X120604600Y-89231800D03*
%TO.P,J7,22*%
%TO.N,CELL_10*%
X120604600Y-87981800D03*
%TO.P,J7,23*%
%TO.N,SCL*%
X120604600Y-86731800D03*
%TO.P,J7,24*%
%TO.N,CELL_9*%
X120604600Y-85481800D03*
%TO.P,J7,25*%
%TO.N,ALERT2*%
X120604600Y-84231800D03*
%TO.P,J7,26*%
%TO.N,CELL_8*%
X120604600Y-82981800D03*
%TD*%
D11*
%TO.P,J5,8*%
%TO.N,VDD*%
X146456400Y-124815600D03*
%TO.P,J5,7*%
%TO.N,CELL_18*%
X148996400Y-124815600D03*
%TO.P,J5,6*%
%TO.N,GND*%
X151536400Y-124815600D03*
%TO.P,J5,5*%
%TO.N,CELL_17*%
X154076400Y-124815600D03*
%TO.P,J5,4*%
%TO.N,SDA*%
X156616400Y-124815600D03*
%TO.P,J5,3*%
%TO.N,GND*%
X159156400Y-124815600D03*
%TO.P,J5,2*%
%TO.N,SCL*%
X161696400Y-124815600D03*
D10*
%TO.P,J5,1*%
%TO.N,CELL_16*%
X164236400Y-124815600D03*
%TD*%
%TO.P,J4,1*%
%TO.N,CP*%
X164744400Y-99009200D03*
D11*
%TO.P,J4,2*%
%TO.N,SCL*%
X162204400Y-99009200D03*
%TO.P,J4,3*%
%TO.N,CELL_10*%
X159664400Y-99009200D03*
%TO.P,J4,4*%
%TO.N,SDA*%
X157124400Y-99009200D03*
%TO.P,J4,5*%
%TO.N,CELL_11*%
X154584400Y-99009200D03*
%TO.P,J4,6*%
%TO.N,GND*%
X152044400Y-99009200D03*
%TO.P,J4,7*%
%TO.N,CELL_12*%
X149504400Y-99009200D03*
%TO.P,J4,8*%
%TO.N,VDD*%
X146964400Y-99009200D03*
%TD*%
%TO.P,J3,8*%
%TO.N,CELL_7*%
X147523200Y-79070200D03*
%TO.P,J3,7*%
%TO.N,VDD*%
X150063200Y-79070200D03*
%TO.P,J3,6*%
%TO.N,GND*%
X152603200Y-79070200D03*
%TO.P,J3,5*%
X155143200Y-79070200D03*
%TO.P,J3,4*%
%TO.N,CELL_8*%
X157683200Y-79070200D03*
%TO.P,J3,3*%
%TO.N,ALERT2*%
X160223200Y-79070200D03*
%TO.P,J3,2*%
%TO.N,CELL_9*%
X162763200Y-79070200D03*
D10*
%TO.P,J3,1*%
%TO.N,GND*%
X165303200Y-79070200D03*
%TD*%
%TO.P,J6,1*%
%TO.N,GND*%
X164871400Y-105308400D03*
D11*
%TO.P,J6,2*%
%TO.N,CELL_15*%
X162331400Y-105308400D03*
%TO.P,J6,3*%
%TO.N,ALERT3*%
X159791400Y-105308400D03*
%TO.P,J6,4*%
%TO.N,GND*%
X157251400Y-105308400D03*
%TO.P,J6,5*%
X154711400Y-105308400D03*
%TO.P,J6,6*%
%TO.N,CELL_14*%
X152171400Y-105308400D03*
%TO.P,J6,7*%
%TO.N,VDD*%
X149631400Y-105308400D03*
%TO.P,J6,8*%
%TO.N,CELL_13*%
X147091400Y-105308400D03*
%TD*%
D10*
%TO.P,J1,1*%
%TO.N,CP*%
X124269500Y-100901500D03*
D11*
%TO.P,J1,2*%
%TO.N,CELL_6*%
X126809500Y-100901500D03*
%TO.P,J1,3*%
%TO.N,VDD*%
X129349500Y-100901500D03*
%TO.P,J1,4*%
%TO.N,CELL_5*%
X131889500Y-100901500D03*
%TO.P,J1,5*%
%TO.N,SDA*%
X134429500Y-100901500D03*
%TO.P,J1,6*%
%TO.N,CELL_4*%
X136969500Y-100901500D03*
%TO.P,J1,7*%
%TO.N,SCL*%
X139509500Y-100901500D03*
%TO.P,J1,8*%
%TO.N,CP*%
X142049500Y-100901500D03*
%TD*%
D13*
%TO.N,VDD*%
X156591000Y-119634000D03*
X161671000Y-119634000D03*
X168148000Y-81026000D03*
X139319000Y-86741000D03*
X159766000Y-110807500D03*
%TO.N,ALERT1*%
X139319000Y-83312000D03*
%TD*%
D14*
%TO.N,CP*%
X142494000Y-100457000D02*
X142049500Y-100901500D01*
X125395701Y-102027701D02*
X124269500Y-100901500D01*
X140923299Y-102027701D02*
X125395701Y-102027701D01*
X142049500Y-100901500D02*
X140923299Y-102027701D01*
X162852100Y-100901500D02*
X164744400Y-99009200D01*
X142049500Y-100901500D02*
X162852100Y-100901500D01*
%TO.N,SDA*%
X157124400Y-99009200D02*
X155841720Y-100291880D01*
X155841720Y-100291880D02*
X143401946Y-100291880D01*
X135812911Y-99518089D02*
X134429500Y-100901500D01*
X142628155Y-99518089D02*
X135812911Y-99518089D01*
X143401946Y-100291880D02*
X142628155Y-99518089D01*
%TO.N,SCL*%
X142501899Y-99822899D02*
X143275690Y-100596690D01*
X140588101Y-99822899D02*
X142501899Y-99822899D01*
X139509500Y-100901500D02*
X140588101Y-99822899D01*
X160616910Y-100596690D02*
X162204400Y-99009200D01*
X143275690Y-100596690D02*
X160616910Y-100596690D01*
%TO.N,GND*%
X152603200Y-98450400D02*
X152044400Y-99009200D01*
D15*
X121382417Y-91731800D02*
X120604600Y-91731800D01*
X131724400Y-81389817D02*
X121382417Y-91731800D01*
X131724400Y-79730600D02*
X131724400Y-81389817D01*
D14*
%TO.N,ALERT1*%
X139344400Y-83286600D02*
X139319000Y-83312000D01*
X132242129Y-78651999D02*
X133185799Y-79595669D01*
X127723001Y-78651999D02*
X132242129Y-78651999D01*
X133185799Y-79595669D02*
X133185799Y-80734799D01*
X126644400Y-79730600D02*
X127723001Y-78651999D01*
X135763000Y-83312000D02*
X139319000Y-83312000D01*
X133185799Y-80734799D02*
X135763000Y-83312000D01*
%TO.N,CELL_15*%
X159385000Y-102362000D02*
X162331400Y-105308400D01*
X121930000Y-102362000D02*
X159385000Y-102362000D01*
X117970000Y-98402000D02*
X121930000Y-102362000D01*
X117970000Y-93116400D02*
X117970000Y-98402000D01*
X119354600Y-91731800D02*
X117970000Y-93116400D01*
%TO.N,ALERT3*%
X119354600Y-90481800D02*
X117665190Y-92171210D01*
X117665190Y-92171210D02*
X117665191Y-98528257D01*
X117665191Y-98528257D02*
X121803744Y-102666810D01*
X157149810Y-102666810D02*
X159791400Y-105308400D01*
X121803744Y-102666810D02*
X157149810Y-102666810D01*
%TO.N,CELL_14*%
X152171400Y-105308400D02*
X149834620Y-102971620D01*
X121677487Y-102971619D02*
X117360382Y-98654512D01*
X149834620Y-102971620D02*
X121677487Y-102971619D01*
X119354600Y-89231800D02*
X117360382Y-91226018D01*
X117360382Y-91226018D02*
X117360382Y-98654512D01*
%TD*%
D16*
%TO.N,VDD*%
X170197611Y-76320786D02*
X170401648Y-76382389D01*
X170589836Y-76482450D01*
X170754995Y-76617151D01*
X170890852Y-76781373D01*
X170992224Y-76968856D01*
X171055248Y-77172453D01*
X171079501Y-77403209D01*
X171079500Y-126572188D01*
X171056756Y-126804151D01*
X170995153Y-127008189D01*
X170895092Y-127196377D01*
X170760391Y-127361536D01*
X170596166Y-127497395D01*
X170408687Y-127598765D01*
X170205089Y-127661789D01*
X169974342Y-127686041D01*
X141092853Y-127686041D01*
X140860890Y-127663297D01*
X140656852Y-127601694D01*
X140468664Y-127501633D01*
X140303505Y-127366932D01*
X140167646Y-127202707D01*
X140066276Y-127015228D01*
X140003252Y-126811630D01*
X139979000Y-126580883D01*
X139979000Y-125132581D01*
X145266905Y-125132581D01*
X145351601Y-125358549D01*
X145478753Y-125563652D01*
X145643476Y-125740008D01*
X145839439Y-125880839D01*
X146059112Y-125980734D01*
X146139420Y-126005089D01*
X146329400Y-125944227D01*
X146329400Y-124942600D01*
X146583400Y-124942600D01*
X146583400Y-125944227D01*
X146773380Y-126005089D01*
X146853688Y-125980734D01*
X147073361Y-125880839D01*
X147269324Y-125740008D01*
X147434047Y-125563652D01*
X147561199Y-125358549D01*
X147645895Y-125132581D01*
X147585587Y-124942600D01*
X146583400Y-124942600D01*
X146329400Y-124942600D01*
X145327213Y-124942600D01*
X145266905Y-125132581D01*
X139979000Y-125132581D01*
X139979000Y-124694357D01*
X147765400Y-124694357D01*
X147765400Y-124936843D01*
X147812707Y-125174669D01*
X147905502Y-125398697D01*
X148040220Y-125600317D01*
X148211683Y-125771780D01*
X148413303Y-125906498D01*
X148637331Y-125999293D01*
X148875157Y-126046600D01*
X149117643Y-126046600D01*
X149355469Y-125999293D01*
X149579497Y-125906498D01*
X149781117Y-125771780D01*
X149952580Y-125600317D01*
X150087298Y-125398697D01*
X150180093Y-125174669D01*
X150227400Y-124936843D01*
X150227400Y-124694357D01*
X150305400Y-124694357D01*
X150305400Y-124936843D01*
X150352707Y-125174669D01*
X150445502Y-125398697D01*
X150580220Y-125600317D01*
X150751683Y-125771780D01*
X150953303Y-125906498D01*
X151177331Y-125999293D01*
X151415157Y-126046600D01*
X151657643Y-126046600D01*
X151895469Y-125999293D01*
X152119497Y-125906498D01*
X152321117Y-125771780D01*
X152492580Y-125600317D01*
X152627298Y-125398697D01*
X152720093Y-125174669D01*
X152767400Y-124936843D01*
X152767400Y-124694357D01*
X152845400Y-124694357D01*
X152845400Y-124936843D01*
X152892707Y-125174669D01*
X152985502Y-125398697D01*
X153120220Y-125600317D01*
X153291683Y-125771780D01*
X153493303Y-125906498D01*
X153717331Y-125999293D01*
X153955157Y-126046600D01*
X154197643Y-126046600D01*
X154435469Y-125999293D01*
X154659497Y-125906498D01*
X154861117Y-125771780D01*
X155032580Y-125600317D01*
X155167298Y-125398697D01*
X155260093Y-125174669D01*
X155307400Y-124936843D01*
X155307400Y-124694357D01*
X155385400Y-124694357D01*
X155385400Y-124936843D01*
X155432707Y-125174669D01*
X155525502Y-125398697D01*
X155660220Y-125600317D01*
X155831683Y-125771780D01*
X156033303Y-125906498D01*
X156257331Y-125999293D01*
X156495157Y-126046600D01*
X156737643Y-126046600D01*
X156975469Y-125999293D01*
X157199497Y-125906498D01*
X157401117Y-125771780D01*
X157572580Y-125600317D01*
X157707298Y-125398697D01*
X157800093Y-125174669D01*
X157847400Y-124936843D01*
X157847400Y-124694357D01*
X157925400Y-124694357D01*
X157925400Y-124936843D01*
X157972707Y-125174669D01*
X158065502Y-125398697D01*
X158200220Y-125600317D01*
X158371683Y-125771780D01*
X158573303Y-125906498D01*
X158797331Y-125999293D01*
X159035157Y-126046600D01*
X159277643Y-126046600D01*
X159515469Y-125999293D01*
X159739497Y-125906498D01*
X159941117Y-125771780D01*
X160112580Y-125600317D01*
X160247298Y-125398697D01*
X160340093Y-125174669D01*
X160387400Y-124936843D01*
X160387400Y-124694357D01*
X160465400Y-124694357D01*
X160465400Y-124936843D01*
X160512707Y-125174669D01*
X160605502Y-125398697D01*
X160740220Y-125600317D01*
X160911683Y-125771780D01*
X161113303Y-125906498D01*
X161337331Y-125999293D01*
X161575157Y-126046600D01*
X161817643Y-126046600D01*
X162055469Y-125999293D01*
X162279497Y-125906498D01*
X162481117Y-125771780D01*
X162652580Y-125600317D01*
X162787298Y-125398697D01*
X162880093Y-125174669D01*
X162927400Y-124936843D01*
X162927400Y-124694357D01*
X162880093Y-124456531D01*
X162787298Y-124232503D01*
X162652580Y-124030883D01*
X162587297Y-123965600D01*
X163003557Y-123965600D01*
X163003557Y-125665600D01*
X163010913Y-125740289D01*
X163032699Y-125812108D01*
X163068078Y-125878296D01*
X163115689Y-125936311D01*
X163173704Y-125983922D01*
X163239892Y-126019301D01*
X163311711Y-126041087D01*
X163386400Y-126048443D01*
X165086400Y-126048443D01*
X165161089Y-126041087D01*
X165232908Y-126019301D01*
X165299096Y-125983922D01*
X165357111Y-125936311D01*
X165404722Y-125878296D01*
X165440101Y-125812108D01*
X165461887Y-125740289D01*
X165469243Y-125665600D01*
X165469243Y-123965600D01*
X165461887Y-123890911D01*
X165440101Y-123819092D01*
X165404722Y-123752904D01*
X165357111Y-123694889D01*
X165299096Y-123647278D01*
X165232908Y-123611899D01*
X165161089Y-123590113D01*
X165086400Y-123582757D01*
X163386400Y-123582757D01*
X163311711Y-123590113D01*
X163239892Y-123611899D01*
X163173704Y-123647278D01*
X163115689Y-123694889D01*
X163068078Y-123752904D01*
X163032699Y-123819092D01*
X163010913Y-123890911D01*
X163003557Y-123965600D01*
X162587297Y-123965600D01*
X162481117Y-123859420D01*
X162279497Y-123724702D01*
X162055469Y-123631907D01*
X161817643Y-123584600D01*
X161575157Y-123584600D01*
X161337331Y-123631907D01*
X161113303Y-123724702D01*
X160911683Y-123859420D01*
X160740220Y-124030883D01*
X160605502Y-124232503D01*
X160512707Y-124456531D01*
X160465400Y-124694357D01*
X160387400Y-124694357D01*
X160340093Y-124456531D01*
X160247298Y-124232503D01*
X160112580Y-124030883D01*
X159941117Y-123859420D01*
X159739497Y-123724702D01*
X159515469Y-123631907D01*
X159277643Y-123584600D01*
X159035157Y-123584600D01*
X158797331Y-123631907D01*
X158573303Y-123724702D01*
X158371683Y-123859420D01*
X158200220Y-124030883D01*
X158065502Y-124232503D01*
X157972707Y-124456531D01*
X157925400Y-124694357D01*
X157847400Y-124694357D01*
X157800093Y-124456531D01*
X157707298Y-124232503D01*
X157572580Y-124030883D01*
X157401117Y-123859420D01*
X157199497Y-123724702D01*
X156975469Y-123631907D01*
X156737643Y-123584600D01*
X156495157Y-123584600D01*
X156257331Y-123631907D01*
X156033303Y-123724702D01*
X155831683Y-123859420D01*
X155660220Y-124030883D01*
X155525502Y-124232503D01*
X155432707Y-124456531D01*
X155385400Y-124694357D01*
X155307400Y-124694357D01*
X155260093Y-124456531D01*
X155167298Y-124232503D01*
X155032580Y-124030883D01*
X154861117Y-123859420D01*
X154659497Y-123724702D01*
X154435469Y-123631907D01*
X154197643Y-123584600D01*
X153955157Y-123584600D01*
X153717331Y-123631907D01*
X153493303Y-123724702D01*
X153291683Y-123859420D01*
X153120220Y-124030883D01*
X152985502Y-124232503D01*
X152892707Y-124456531D01*
X152845400Y-124694357D01*
X152767400Y-124694357D01*
X152720093Y-124456531D01*
X152627298Y-124232503D01*
X152492580Y-124030883D01*
X152321117Y-123859420D01*
X152119497Y-123724702D01*
X151895469Y-123631907D01*
X151657643Y-123584600D01*
X151415157Y-123584600D01*
X151177331Y-123631907D01*
X150953303Y-123724702D01*
X150751683Y-123859420D01*
X150580220Y-124030883D01*
X150445502Y-124232503D01*
X150352707Y-124456531D01*
X150305400Y-124694357D01*
X150227400Y-124694357D01*
X150180093Y-124456531D01*
X150087298Y-124232503D01*
X149952580Y-124030883D01*
X149781117Y-123859420D01*
X149579497Y-123724702D01*
X149355469Y-123631907D01*
X149117643Y-123584600D01*
X148875157Y-123584600D01*
X148637331Y-123631907D01*
X148413303Y-123724702D01*
X148211683Y-123859420D01*
X148040220Y-124030883D01*
X147905502Y-124232503D01*
X147812707Y-124456531D01*
X147765400Y-124694357D01*
X139979000Y-124694357D01*
X139979000Y-124498619D01*
X145266905Y-124498619D01*
X145327213Y-124688600D01*
X146329400Y-124688600D01*
X146329400Y-123686973D01*
X146583400Y-123686973D01*
X146583400Y-124688600D01*
X147585587Y-124688600D01*
X147645895Y-124498619D01*
X147561199Y-124272651D01*
X147434047Y-124067548D01*
X147269324Y-123891192D01*
X147073361Y-123750361D01*
X146853688Y-123650466D01*
X146773380Y-123626111D01*
X146583400Y-123686973D01*
X146329400Y-123686973D01*
X146139420Y-123626111D01*
X146059112Y-123650466D01*
X145839439Y-123750361D01*
X145643476Y-123891192D01*
X145478753Y-124067548D01*
X145351601Y-124272651D01*
X145266905Y-124498619D01*
X139979000Y-124498619D01*
X139979000Y-114816433D01*
X151914979Y-114816433D01*
X151914979Y-115507649D01*
X152049828Y-116185585D01*
X152314346Y-116824186D01*
X152698365Y-117398912D01*
X153187129Y-117887676D01*
X153761855Y-118271695D01*
X154400456Y-118536213D01*
X155078392Y-118671062D01*
X155769608Y-118671062D01*
X156447544Y-118536213D01*
X157086145Y-118271695D01*
X157660871Y-117887676D01*
X158149635Y-117398912D01*
X158533654Y-116824186D01*
X158798172Y-116185585D01*
X158933021Y-115507649D01*
X158933021Y-114816433D01*
X158798172Y-114138497D01*
X158533654Y-113499896D01*
X158149635Y-112925170D01*
X157660871Y-112436406D01*
X157086145Y-112052387D01*
X156447544Y-111787869D01*
X155769608Y-111653020D01*
X155078392Y-111653020D01*
X154400456Y-111787869D01*
X153761855Y-112052387D01*
X153187129Y-112436406D01*
X152698365Y-112925170D01*
X152314346Y-113499896D01*
X152049828Y-114138497D01*
X151914979Y-114816433D01*
X139979000Y-114816433D01*
X139979000Y-105947018D01*
X139977227Y-105929016D01*
X139977292Y-105919692D01*
X139976739Y-105914050D01*
X139946139Y-105622904D01*
X139938736Y-105586838D01*
X139931844Y-105550712D01*
X139930206Y-105545284D01*
X139843638Y-105265629D01*
X139829366Y-105231677D01*
X139815593Y-105197588D01*
X139812932Y-105192582D01*
X139809999Y-105187157D01*
X145860400Y-105187157D01*
X145860400Y-105429643D01*
X145907707Y-105667469D01*
X146000502Y-105891497D01*
X146135220Y-106093117D01*
X146306683Y-106264580D01*
X146508303Y-106399298D01*
X146732331Y-106492093D01*
X146970157Y-106539400D01*
X147212643Y-106539400D01*
X147450469Y-106492093D01*
X147674497Y-106399298D01*
X147876117Y-106264580D01*
X148047580Y-106093117D01*
X148182298Y-105891497D01*
X148275093Y-105667469D01*
X148283464Y-105625381D01*
X148441905Y-105625381D01*
X148526601Y-105851349D01*
X148653753Y-106056452D01*
X148818476Y-106232808D01*
X149014439Y-106373639D01*
X149234112Y-106473534D01*
X149314420Y-106497889D01*
X149504400Y-106437027D01*
X149504400Y-105435400D01*
X149758400Y-105435400D01*
X149758400Y-106437027D01*
X149948380Y-106497889D01*
X150028688Y-106473534D01*
X150248361Y-106373639D01*
X150444324Y-106232808D01*
X150609047Y-106056452D01*
X150736199Y-105851349D01*
X150820895Y-105625381D01*
X150760587Y-105435400D01*
X149758400Y-105435400D01*
X149504400Y-105435400D01*
X148502213Y-105435400D01*
X148441905Y-105625381D01*
X148283464Y-105625381D01*
X148322400Y-105429643D01*
X148322400Y-105187157D01*
X148283465Y-104991419D01*
X148441905Y-104991419D01*
X148502213Y-105181400D01*
X149504400Y-105181400D01*
X149504400Y-104179773D01*
X149758400Y-104179773D01*
X149758400Y-105181400D01*
X150760587Y-105181400D01*
X150820895Y-104991419D01*
X150736199Y-104765451D01*
X150609047Y-104560348D01*
X150444324Y-104383992D01*
X150248361Y-104243161D01*
X150028688Y-104143266D01*
X149948380Y-104118911D01*
X149758400Y-104179773D01*
X149504400Y-104179773D01*
X149314420Y-104118911D01*
X149234112Y-104143266D01*
X149014439Y-104243161D01*
X148818476Y-104383992D01*
X148653753Y-104560348D01*
X148526601Y-104765451D01*
X148441905Y-104991419D01*
X148283465Y-104991419D01*
X148275093Y-104949331D01*
X148182298Y-104725303D01*
X148047580Y-104523683D01*
X147876117Y-104352220D01*
X147674497Y-104217502D01*
X147450469Y-104124707D01*
X147212643Y-104077400D01*
X146970157Y-104077400D01*
X146732331Y-104124707D01*
X146508303Y-104217502D01*
X146306683Y-104352220D01*
X146135220Y-104523683D01*
X146000502Y-104725303D01*
X145907707Y-104949331D01*
X145860400Y-105187157D01*
X139809999Y-105187157D01*
X139673693Y-104935066D01*
X139653098Y-104904533D01*
X139632967Y-104873770D01*
X139629385Y-104869376D01*
X139442780Y-104643809D01*
X139416644Y-104617855D01*
X139390923Y-104591590D01*
X139386555Y-104587976D01*
X139159691Y-104402950D01*
X139129026Y-104382576D01*
X139098679Y-104361797D01*
X139093693Y-104359100D01*
X138835212Y-104221663D01*
X138801149Y-104207623D01*
X138767369Y-104193145D01*
X138761954Y-104191468D01*
X138481699Y-104106854D01*
X138445578Y-104099702D01*
X138409608Y-104092057D01*
X138403972Y-104091464D01*
X138403970Y-104091464D01*
X138112618Y-104062897D01*
X138092941Y-104060959D01*
X116005353Y-104060959D01*
X115773390Y-104038215D01*
X115569352Y-103976612D01*
X115381164Y-103876551D01*
X115216005Y-103741850D01*
X115080146Y-103577625D01*
X114978776Y-103390146D01*
X114915752Y-103186548D01*
X114891500Y-102955801D01*
X114891500Y-91226018D01*
X116900971Y-91226018D01*
X116903182Y-91248468D01*
X116903183Y-98632052D01*
X116900971Y-98654512D01*
X116903183Y-98676972D01*
X116909798Y-98744139D01*
X116928989Y-98807400D01*
X116935942Y-98830321D01*
X116978395Y-98909747D01*
X117013645Y-98952698D01*
X117035530Y-98979365D01*
X117052975Y-98993682D01*
X121338322Y-103279032D01*
X121352634Y-103296471D01*
X121370073Y-103310783D01*
X121370079Y-103310789D01*
X121422251Y-103353606D01*
X121501677Y-103396059D01*
X121587860Y-103422203D01*
X121677486Y-103431030D01*
X121699946Y-103428818D01*
X149645243Y-103428820D01*
X151039855Y-104823433D01*
X150987707Y-104949331D01*
X150940400Y-105187157D01*
X150940400Y-105429643D01*
X150987707Y-105667469D01*
X151080502Y-105891497D01*
X151215220Y-106093117D01*
X151386683Y-106264580D01*
X151588303Y-106399298D01*
X151812331Y-106492093D01*
X152050157Y-106539400D01*
X152292643Y-106539400D01*
X152530469Y-106492093D01*
X152754497Y-106399298D01*
X152956117Y-106264580D01*
X153127580Y-106093117D01*
X153262298Y-105891497D01*
X153355093Y-105667469D01*
X153402400Y-105429643D01*
X153402400Y-105187157D01*
X153480400Y-105187157D01*
X153480400Y-105429643D01*
X153527707Y-105667469D01*
X153620502Y-105891497D01*
X153755220Y-106093117D01*
X153926683Y-106264580D01*
X154128303Y-106399298D01*
X154352331Y-106492093D01*
X154590157Y-106539400D01*
X154832643Y-106539400D01*
X155070469Y-106492093D01*
X155294497Y-106399298D01*
X155496117Y-106264580D01*
X155667580Y-106093117D01*
X155802298Y-105891497D01*
X155895093Y-105667469D01*
X155942400Y-105429643D01*
X155942400Y-105187157D01*
X156020400Y-105187157D01*
X156020400Y-105429643D01*
X156067707Y-105667469D01*
X156160502Y-105891497D01*
X156295220Y-106093117D01*
X156466683Y-106264580D01*
X156668303Y-106399298D01*
X156892331Y-106492093D01*
X157130157Y-106539400D01*
X157372643Y-106539400D01*
X157610469Y-106492093D01*
X157834497Y-106399298D01*
X158036117Y-106264580D01*
X158207580Y-106093117D01*
X158342298Y-105891497D01*
X158435093Y-105667469D01*
X158482400Y-105429643D01*
X158482400Y-105187157D01*
X158435093Y-104949331D01*
X158342298Y-104725303D01*
X158207580Y-104523683D01*
X158036117Y-104352220D01*
X157834497Y-104217502D01*
X157610469Y-104124707D01*
X157372643Y-104077400D01*
X157130157Y-104077400D01*
X156892331Y-104124707D01*
X156668303Y-104217502D01*
X156466683Y-104352220D01*
X156295220Y-104523683D01*
X156160502Y-104725303D01*
X156067707Y-104949331D01*
X156020400Y-105187157D01*
X155942400Y-105187157D01*
X155895093Y-104949331D01*
X155802298Y-104725303D01*
X155667580Y-104523683D01*
X155496117Y-104352220D01*
X155294497Y-104217502D01*
X155070469Y-104124707D01*
X154832643Y-104077400D01*
X154590157Y-104077400D01*
X154352331Y-104124707D01*
X154128303Y-104217502D01*
X153926683Y-104352220D01*
X153755220Y-104523683D01*
X153620502Y-104725303D01*
X153527707Y-104949331D01*
X153480400Y-105187157D01*
X153402400Y-105187157D01*
X153355093Y-104949331D01*
X153262298Y-104725303D01*
X153127580Y-104523683D01*
X152956117Y-104352220D01*
X152754497Y-104217502D01*
X152530469Y-104124707D01*
X152292643Y-104077400D01*
X152050157Y-104077400D01*
X151812331Y-104124707D01*
X151686433Y-104176855D01*
X150633587Y-103124010D01*
X156960433Y-103124010D01*
X158659855Y-104823433D01*
X158607707Y-104949331D01*
X158560400Y-105187157D01*
X158560400Y-105429643D01*
X158607707Y-105667469D01*
X158700502Y-105891497D01*
X158835220Y-106093117D01*
X159006683Y-106264580D01*
X159208303Y-106399298D01*
X159432331Y-106492093D01*
X159670157Y-106539400D01*
X159912643Y-106539400D01*
X160150469Y-106492093D01*
X160374497Y-106399298D01*
X160576117Y-106264580D01*
X160747580Y-106093117D01*
X160882298Y-105891497D01*
X160975093Y-105667469D01*
X161022400Y-105429643D01*
X161022400Y-105187157D01*
X160975093Y-104949331D01*
X160882298Y-104725303D01*
X160747580Y-104523683D01*
X160576117Y-104352220D01*
X160374497Y-104217502D01*
X160150469Y-104124707D01*
X159912643Y-104077400D01*
X159670157Y-104077400D01*
X159432331Y-104124707D01*
X159306433Y-104176855D01*
X157948777Y-102819200D01*
X159195623Y-102819200D01*
X161199855Y-104823433D01*
X161147707Y-104949331D01*
X161100400Y-105187157D01*
X161100400Y-105429643D01*
X161147707Y-105667469D01*
X161240502Y-105891497D01*
X161375220Y-106093117D01*
X161546683Y-106264580D01*
X161748303Y-106399298D01*
X161972331Y-106492093D01*
X162210157Y-106539400D01*
X162452643Y-106539400D01*
X162690469Y-106492093D01*
X162914497Y-106399298D01*
X163116117Y-106264580D01*
X163287580Y-106093117D01*
X163422298Y-105891497D01*
X163515093Y-105667469D01*
X163562400Y-105429643D01*
X163562400Y-105187157D01*
X163515093Y-104949331D01*
X163422298Y-104725303D01*
X163287580Y-104523683D01*
X163222297Y-104458400D01*
X163638557Y-104458400D01*
X163638557Y-106158400D01*
X163645913Y-106233089D01*
X163667699Y-106304908D01*
X163703078Y-106371096D01*
X163750689Y-106429111D01*
X163808704Y-106476722D01*
X163874892Y-106512101D01*
X163946711Y-106533887D01*
X164021400Y-106541243D01*
X165721400Y-106541243D01*
X165796089Y-106533887D01*
X165867908Y-106512101D01*
X165934096Y-106476722D01*
X165992111Y-106429111D01*
X166039722Y-106371096D01*
X166075101Y-106304908D01*
X166096887Y-106233089D01*
X166104243Y-106158400D01*
X166104243Y-104458400D01*
X166096887Y-104383711D01*
X166075101Y-104311892D01*
X166039722Y-104245704D01*
X165992111Y-104187689D01*
X165934096Y-104140078D01*
X165867908Y-104104699D01*
X165796089Y-104082913D01*
X165721400Y-104075557D01*
X164021400Y-104075557D01*
X163946711Y-104082913D01*
X163874892Y-104104699D01*
X163808704Y-104140078D01*
X163750689Y-104187689D01*
X163703078Y-104245704D01*
X163667699Y-104311892D01*
X163645913Y-104383711D01*
X163638557Y-104458400D01*
X163222297Y-104458400D01*
X163116117Y-104352220D01*
X162914497Y-104217502D01*
X162690469Y-104124707D01*
X162452643Y-104077400D01*
X162210157Y-104077400D01*
X161972331Y-104124707D01*
X161846433Y-104176855D01*
X159724174Y-102054597D01*
X159709853Y-102037147D01*
X159640236Y-101980013D01*
X159560809Y-101937559D01*
X159474627Y-101911415D01*
X159407460Y-101904800D01*
X159407450Y-101904800D01*
X159385000Y-101902589D01*
X159362550Y-101904800D01*
X142763697Y-101904800D01*
X142834217Y-101857680D01*
X143005680Y-101686217D01*
X143140398Y-101484597D01*
X143192546Y-101358700D01*
X162829650Y-101358700D01*
X162852100Y-101360911D01*
X162874550Y-101358700D01*
X162874560Y-101358700D01*
X162941727Y-101352085D01*
X163027909Y-101325941D01*
X163107336Y-101283487D01*
X163176953Y-101226353D01*
X163191274Y-101208903D01*
X164158135Y-100242043D01*
X165594400Y-100242043D01*
X165669089Y-100234687D01*
X165740908Y-100212901D01*
X165807096Y-100177522D01*
X165865111Y-100129911D01*
X165912722Y-100071896D01*
X165948101Y-100005708D01*
X165969887Y-99933889D01*
X165977243Y-99859200D01*
X165977243Y-98159200D01*
X165969887Y-98084511D01*
X165948101Y-98012692D01*
X165912722Y-97946504D01*
X165865111Y-97888489D01*
X165807096Y-97840878D01*
X165740908Y-97805499D01*
X165669089Y-97783713D01*
X165594400Y-97776357D01*
X163894400Y-97776357D01*
X163819711Y-97783713D01*
X163747892Y-97805499D01*
X163681704Y-97840878D01*
X163623689Y-97888489D01*
X163576078Y-97946504D01*
X163540699Y-98012692D01*
X163518913Y-98084511D01*
X163511557Y-98159200D01*
X163511557Y-99595465D01*
X162662723Y-100444300D01*
X161415877Y-100444300D01*
X161719433Y-100140745D01*
X161845331Y-100192893D01*
X162083157Y-100240200D01*
X162325643Y-100240200D01*
X162563469Y-100192893D01*
X162787497Y-100100098D01*
X162989117Y-99965380D01*
X163160580Y-99793917D01*
X163295298Y-99592297D01*
X163388093Y-99368269D01*
X163435400Y-99130443D01*
X163435400Y-98887957D01*
X163388093Y-98650131D01*
X163295298Y-98426103D01*
X163160580Y-98224483D01*
X162989117Y-98053020D01*
X162787497Y-97918302D01*
X162563469Y-97825507D01*
X162325643Y-97778200D01*
X162083157Y-97778200D01*
X161845331Y-97825507D01*
X161621303Y-97918302D01*
X161419683Y-98053020D01*
X161248220Y-98224483D01*
X161113502Y-98426103D01*
X161020707Y-98650131D01*
X160973400Y-98887957D01*
X160973400Y-99130443D01*
X161020707Y-99368269D01*
X161072855Y-99494167D01*
X160427533Y-100139490D01*
X160152396Y-100139490D01*
X160247497Y-100100098D01*
X160449117Y-99965380D01*
X160620580Y-99793917D01*
X160755298Y-99592297D01*
X160848093Y-99368269D01*
X160895400Y-99130443D01*
X160895400Y-98887957D01*
X160848093Y-98650131D01*
X160755298Y-98426103D01*
X160620580Y-98224483D01*
X160449117Y-98053020D01*
X160247497Y-97918302D01*
X160023469Y-97825507D01*
X159785643Y-97778200D01*
X159543157Y-97778200D01*
X159305331Y-97825507D01*
X159081303Y-97918302D01*
X158879683Y-98053020D01*
X158708220Y-98224483D01*
X158573502Y-98426103D01*
X158480707Y-98650131D01*
X158433400Y-98887957D01*
X158433400Y-99130443D01*
X158480707Y-99368269D01*
X158573502Y-99592297D01*
X158708220Y-99793917D01*
X158879683Y-99965380D01*
X159081303Y-100100098D01*
X159176404Y-100139490D01*
X157612396Y-100139490D01*
X157707497Y-100100098D01*
X157909117Y-99965380D01*
X158080580Y-99793917D01*
X158215298Y-99592297D01*
X158308093Y-99368269D01*
X158355400Y-99130443D01*
X158355400Y-98887957D01*
X158308093Y-98650131D01*
X158215298Y-98426103D01*
X158080580Y-98224483D01*
X157909117Y-98053020D01*
X157707497Y-97918302D01*
X157483469Y-97825507D01*
X157245643Y-97778200D01*
X157003157Y-97778200D01*
X156765331Y-97825507D01*
X156541303Y-97918302D01*
X156339683Y-98053020D01*
X156168220Y-98224483D01*
X156033502Y-98426103D01*
X155940707Y-98650131D01*
X155893400Y-98887957D01*
X155893400Y-99130443D01*
X155940707Y-99368269D01*
X155992855Y-99494167D01*
X155652343Y-99834680D01*
X155499817Y-99834680D01*
X155540580Y-99793917D01*
X155675298Y-99592297D01*
X155768093Y-99368269D01*
X155815400Y-99130443D01*
X155815400Y-98887957D01*
X155768093Y-98650131D01*
X155675298Y-98426103D01*
X155540580Y-98224483D01*
X155369117Y-98053020D01*
X155167497Y-97918302D01*
X154943469Y-97825507D01*
X154705643Y-97778200D01*
X154463157Y-97778200D01*
X154225331Y-97825507D01*
X154001303Y-97918302D01*
X153799683Y-98053020D01*
X153628220Y-98224483D01*
X153493502Y-98426103D01*
X153400707Y-98650131D01*
X153353400Y-98887957D01*
X153353400Y-99130443D01*
X153400707Y-99368269D01*
X153493502Y-99592297D01*
X153628220Y-99793917D01*
X153668983Y-99834680D01*
X152959817Y-99834680D01*
X153000580Y-99793917D01*
X153135298Y-99592297D01*
X153228093Y-99368269D01*
X153275400Y-99130443D01*
X153275400Y-98887957D01*
X153228093Y-98650131D01*
X153135298Y-98426103D01*
X153001970Y-98226563D01*
X152985187Y-98195164D01*
X152928053Y-98125547D01*
X152858436Y-98068413D01*
X152827037Y-98051630D01*
X152627497Y-97918302D01*
X152403469Y-97825507D01*
X152165643Y-97778200D01*
X151923157Y-97778200D01*
X151685331Y-97825507D01*
X151461303Y-97918302D01*
X151259683Y-98053020D01*
X151088220Y-98224483D01*
X150953502Y-98426103D01*
X150860707Y-98650131D01*
X150813400Y-98887957D01*
X150813400Y-99130443D01*
X150860707Y-99368269D01*
X150953502Y-99592297D01*
X151088220Y-99793917D01*
X151128983Y-99834680D01*
X150419817Y-99834680D01*
X150460580Y-99793917D01*
X150595298Y-99592297D01*
X150688093Y-99368269D01*
X150735400Y-99130443D01*
X150735400Y-98887957D01*
X150688093Y-98650131D01*
X150595298Y-98426103D01*
X150460580Y-98224483D01*
X150289117Y-98053020D01*
X150087497Y-97918302D01*
X149863469Y-97825507D01*
X149625643Y-97778200D01*
X149383157Y-97778200D01*
X149145331Y-97825507D01*
X148921303Y-97918302D01*
X148719683Y-98053020D01*
X148548220Y-98224483D01*
X148413502Y-98426103D01*
X148320707Y-98650131D01*
X148273400Y-98887957D01*
X148273400Y-99130443D01*
X148320707Y-99368269D01*
X148413502Y-99592297D01*
X148548220Y-99793917D01*
X148588983Y-99834680D01*
X147869726Y-99834680D01*
X147942047Y-99757252D01*
X148069199Y-99552149D01*
X148153895Y-99326181D01*
X148093587Y-99136200D01*
X147091400Y-99136200D01*
X147091400Y-99156200D01*
X146837400Y-99156200D01*
X146837400Y-99136200D01*
X145835213Y-99136200D01*
X145774905Y-99326181D01*
X145859601Y-99552149D01*
X145986753Y-99757252D01*
X146059074Y-99834680D01*
X143591325Y-99834680D01*
X142967329Y-99210686D01*
X142953008Y-99193236D01*
X142883391Y-99136102D01*
X142803964Y-99093648D01*
X142717782Y-99067504D01*
X142650615Y-99060889D01*
X142650605Y-99060889D01*
X142628155Y-99058678D01*
X142605705Y-99060889D01*
X135835361Y-99060889D01*
X135812911Y-99058678D01*
X135790461Y-99060889D01*
X135790451Y-99060889D01*
X135723284Y-99067504D01*
X135657160Y-99087563D01*
X135637101Y-99093648D01*
X135557675Y-99136102D01*
X135505503Y-99178918D01*
X135505497Y-99178924D01*
X135488058Y-99193236D01*
X135473746Y-99210675D01*
X134914467Y-99769955D01*
X134788569Y-99717807D01*
X134550743Y-99670500D01*
X134308257Y-99670500D01*
X134070431Y-99717807D01*
X133846403Y-99810602D01*
X133644783Y-99945320D01*
X133473320Y-100116783D01*
X133338602Y-100318403D01*
X133245807Y-100542431D01*
X133198500Y-100780257D01*
X133198500Y-101022743D01*
X133245807Y-101260569D01*
X133338602Y-101484597D01*
X133396001Y-101570501D01*
X132922999Y-101570501D01*
X132980398Y-101484597D01*
X133073193Y-101260569D01*
X133120500Y-101022743D01*
X133120500Y-100780257D01*
X133073193Y-100542431D01*
X132980398Y-100318403D01*
X132845680Y-100116783D01*
X132674217Y-99945320D01*
X132472597Y-99810602D01*
X132248569Y-99717807D01*
X132010743Y-99670500D01*
X131768257Y-99670500D01*
X131530431Y-99717807D01*
X131306403Y-99810602D01*
X131104783Y-99945320D01*
X130933320Y-100116783D01*
X130798602Y-100318403D01*
X130705807Y-100542431D01*
X130658500Y-100780257D01*
X130658500Y-101022743D01*
X130705807Y-101260569D01*
X130798602Y-101484597D01*
X130856001Y-101570501D01*
X130376154Y-101570501D01*
X130454299Y-101444449D01*
X130538995Y-101218481D01*
X130478687Y-101028500D01*
X129476500Y-101028500D01*
X129476500Y-101048500D01*
X129222500Y-101048500D01*
X129222500Y-101028500D01*
X128220313Y-101028500D01*
X128160005Y-101218481D01*
X128244701Y-101444449D01*
X128322846Y-101570501D01*
X127842999Y-101570501D01*
X127900398Y-101484597D01*
X127993193Y-101260569D01*
X128040500Y-101022743D01*
X128040500Y-100780257D01*
X128001565Y-100584519D01*
X128160005Y-100584519D01*
X128220313Y-100774500D01*
X129222500Y-100774500D01*
X129222500Y-99772873D01*
X129476500Y-99772873D01*
X129476500Y-100774500D01*
X130478687Y-100774500D01*
X130538995Y-100584519D01*
X130454299Y-100358551D01*
X130327147Y-100153448D01*
X130162424Y-99977092D01*
X129966461Y-99836261D01*
X129746788Y-99736366D01*
X129666480Y-99712011D01*
X129476500Y-99772873D01*
X129222500Y-99772873D01*
X129032520Y-99712011D01*
X128952212Y-99736366D01*
X128732539Y-99836261D01*
X128536576Y-99977092D01*
X128371853Y-100153448D01*
X128244701Y-100358551D01*
X128160005Y-100584519D01*
X128001565Y-100584519D01*
X127993193Y-100542431D01*
X127900398Y-100318403D01*
X127765680Y-100116783D01*
X127594217Y-99945320D01*
X127392597Y-99810602D01*
X127168569Y-99717807D01*
X126930743Y-99670500D01*
X126688257Y-99670500D01*
X126450431Y-99717807D01*
X126226403Y-99810602D01*
X126024783Y-99945320D01*
X125853320Y-100116783D01*
X125718602Y-100318403D01*
X125625807Y-100542431D01*
X125578500Y-100780257D01*
X125578500Y-101022743D01*
X125625807Y-101260569D01*
X125718602Y-101484597D01*
X125776001Y-101570501D01*
X125585080Y-101570501D01*
X125502343Y-101487764D01*
X125502343Y-100051500D01*
X125494987Y-99976811D01*
X125473201Y-99904992D01*
X125437822Y-99838804D01*
X125390211Y-99780789D01*
X125332196Y-99733178D01*
X125266008Y-99697799D01*
X125194189Y-99676013D01*
X125119500Y-99668657D01*
X123419500Y-99668657D01*
X123344811Y-99676013D01*
X123272992Y-99697799D01*
X123206804Y-99733178D01*
X123148789Y-99780789D01*
X123101178Y-99838804D01*
X123065799Y-99904992D01*
X123044013Y-99976811D01*
X123036657Y-100051500D01*
X123036657Y-101751500D01*
X123044013Y-101826189D01*
X123065799Y-101898008D01*
X123069429Y-101904800D01*
X122119379Y-101904800D01*
X119093725Y-98879148D01*
X119262904Y-98912800D01*
X119446296Y-98912800D01*
X119626163Y-98877022D01*
X119795594Y-98806842D01*
X119948078Y-98704955D01*
X119976850Y-98676184D01*
X120033337Y-98732671D01*
X120107079Y-98658929D01*
X120162560Y-98806282D01*
X120331902Y-98876677D01*
X120511724Y-98912683D01*
X120695114Y-98912915D01*
X120875027Y-98877366D01*
X121044547Y-98807400D01*
X121046640Y-98806282D01*
X121089586Y-98692219D01*
X145774905Y-98692219D01*
X145835213Y-98882200D01*
X146837400Y-98882200D01*
X146837400Y-97880573D01*
X147091400Y-97880573D01*
X147091400Y-98882200D01*
X148093587Y-98882200D01*
X148153895Y-98692219D01*
X148069199Y-98466251D01*
X147942047Y-98261148D01*
X147777324Y-98084792D01*
X147581361Y-97943961D01*
X147361688Y-97844066D01*
X147281380Y-97819711D01*
X147091400Y-97880573D01*
X146837400Y-97880573D01*
X146647420Y-97819711D01*
X146567112Y-97844066D01*
X146347439Y-97943961D01*
X146151476Y-98084792D01*
X145986753Y-98261148D01*
X145859601Y-98466251D01*
X145774905Y-98692219D01*
X121089586Y-98692219D01*
X121102122Y-98658927D01*
X120604600Y-98161405D01*
X120590458Y-98175548D01*
X120410853Y-97995943D01*
X120424995Y-97981800D01*
X120410853Y-97967658D01*
X120590458Y-97788053D01*
X120604600Y-97802195D01*
X120618743Y-97788053D01*
X120798348Y-97967658D01*
X120784205Y-97981800D01*
X121281727Y-98479322D01*
X121429082Y-98423840D01*
X121499477Y-98254498D01*
X121535483Y-98074676D01*
X121535715Y-97891286D01*
X121500166Y-97711373D01*
X121430200Y-97541853D01*
X121429082Y-97539760D01*
X121281729Y-97484279D01*
X121355471Y-97410537D01*
X121298984Y-97354050D01*
X121327755Y-97325278D01*
X121429642Y-97172794D01*
X121499822Y-97003363D01*
X121535600Y-96823496D01*
X121535600Y-96640104D01*
X121499822Y-96460237D01*
X121429642Y-96290806D01*
X121327755Y-96138322D01*
X121296233Y-96106800D01*
X121327755Y-96075278D01*
X121429642Y-95922794D01*
X121499822Y-95753363D01*
X121535600Y-95573496D01*
X121535600Y-95390104D01*
X121499822Y-95210237D01*
X121429642Y-95040806D01*
X121327755Y-94888322D01*
X121296233Y-94856800D01*
X121327755Y-94825278D01*
X121429642Y-94672794D01*
X121499822Y-94503363D01*
X121535600Y-94323496D01*
X121535600Y-94140104D01*
X121499822Y-93960237D01*
X121429642Y-93790806D01*
X121327755Y-93638322D01*
X121296233Y-93606800D01*
X121327755Y-93575278D01*
X121429642Y-93422794D01*
X121499822Y-93253363D01*
X121535600Y-93073496D01*
X121535600Y-92890104D01*
X121499822Y-92710237D01*
X121429642Y-92540806D01*
X121327755Y-92388322D01*
X121306233Y-92366800D01*
X121351236Y-92366800D01*
X121382417Y-92369871D01*
X121413598Y-92366800D01*
X121413609Y-92366800D01*
X121506899Y-92357612D01*
X121626597Y-92321302D01*
X121736911Y-92262337D01*
X121833602Y-92182985D01*
X121853491Y-92158750D01*
X124468807Y-89543434D01*
X129054979Y-89543434D01*
X129054979Y-90234650D01*
X129189828Y-90912586D01*
X129454346Y-91551187D01*
X129838365Y-92125913D01*
X130327129Y-92614677D01*
X130901855Y-92998696D01*
X131540456Y-93263214D01*
X132218392Y-93398063D01*
X132909608Y-93398063D01*
X133587544Y-93263214D01*
X134226145Y-92998696D01*
X134800871Y-92614677D01*
X135289635Y-92125913D01*
X135673654Y-91551187D01*
X135938172Y-90912586D01*
X136073021Y-90234650D01*
X136073021Y-89543434D01*
X135938172Y-88865498D01*
X135673654Y-88226897D01*
X135535032Y-88019434D01*
X152930979Y-88019434D01*
X152930979Y-88710650D01*
X153065828Y-89388586D01*
X153330346Y-90027187D01*
X153714365Y-90601913D01*
X154203129Y-91090677D01*
X154777855Y-91474696D01*
X155416456Y-91739214D01*
X156094392Y-91874063D01*
X156785608Y-91874063D01*
X157463544Y-91739214D01*
X158102145Y-91474696D01*
X158676871Y-91090677D01*
X159165635Y-90601913D01*
X159549654Y-90027187D01*
X159814172Y-89388586D01*
X159949021Y-88710650D01*
X159949021Y-88019434D01*
X159814172Y-87341498D01*
X159549654Y-86702897D01*
X159165635Y-86128171D01*
X158676871Y-85639407D01*
X158102145Y-85255388D01*
X157463544Y-84990870D01*
X156785608Y-84856021D01*
X156094392Y-84856021D01*
X155416456Y-84990870D01*
X154777855Y-85255388D01*
X154203129Y-85639407D01*
X153714365Y-86128171D01*
X153330346Y-86702897D01*
X153065828Y-87341498D01*
X152930979Y-88019434D01*
X135535032Y-88019434D01*
X135289635Y-87652171D01*
X134800871Y-87163407D01*
X134226145Y-86779388D01*
X133587544Y-86514870D01*
X132909608Y-86380021D01*
X132218392Y-86380021D01*
X131540456Y-86514870D01*
X130901855Y-86779388D01*
X130327129Y-87163407D01*
X129838365Y-87652171D01*
X129454346Y-88226897D01*
X129189828Y-88865498D01*
X129054979Y-89543434D01*
X124468807Y-89543434D01*
X132151361Y-81860882D01*
X132175585Y-81841002D01*
X132195465Y-81816778D01*
X132195469Y-81816774D01*
X132254938Y-81744311D01*
X132313902Y-81633997D01*
X132350212Y-81514299D01*
X132359400Y-81421009D01*
X132359400Y-81421006D01*
X132362472Y-81389817D01*
X132359400Y-81358628D01*
X132359400Y-80786818D01*
X132509117Y-80686780D01*
X132680580Y-80515317D01*
X132728600Y-80443450D01*
X132728600Y-80712340D01*
X132726388Y-80734799D01*
X132728600Y-80757259D01*
X132729265Y-80764006D01*
X132735215Y-80824425D01*
X132761359Y-80910608D01*
X132785668Y-80956087D01*
X132803813Y-80990035D01*
X132860947Y-81059652D01*
X132878392Y-81073969D01*
X135423835Y-83619414D01*
X135438147Y-83636853D01*
X135455586Y-83651165D01*
X135455592Y-83651171D01*
X135507764Y-83693987D01*
X135587190Y-83736441D01*
X135607249Y-83742526D01*
X135673373Y-83762585D01*
X135740540Y-83769200D01*
X135740550Y-83769200D01*
X135763000Y-83771411D01*
X135785450Y-83769200D01*
X138878175Y-83769200D01*
X138914211Y-83805236D01*
X139018215Y-83874729D01*
X139133777Y-83922597D01*
X139256458Y-83947000D01*
X139381542Y-83947000D01*
X139504223Y-83922597D01*
X139619785Y-83874729D01*
X139723789Y-83805236D01*
X139812236Y-83716789D01*
X139881729Y-83612785D01*
X139929597Y-83497223D01*
X139954000Y-83374542D01*
X139954000Y-83249458D01*
X139929597Y-83126777D01*
X139881729Y-83011215D01*
X139812236Y-82907211D01*
X139723789Y-82818764D01*
X139619785Y-82749271D01*
X139504223Y-82701403D01*
X139381542Y-82677000D01*
X139256458Y-82677000D01*
X139133777Y-82701403D01*
X139018215Y-82749271D01*
X138914211Y-82818764D01*
X138878175Y-82854800D01*
X135952379Y-82854800D01*
X134038325Y-80940747D01*
X134143157Y-80961600D01*
X134385643Y-80961600D01*
X134623469Y-80914293D01*
X134847497Y-80821498D01*
X135049117Y-80686780D01*
X135220580Y-80515317D01*
X135355298Y-80313697D01*
X135448093Y-80089669D01*
X135495400Y-79851843D01*
X135495400Y-79609357D01*
X135573400Y-79609357D01*
X135573400Y-79851843D01*
X135620707Y-80089669D01*
X135713502Y-80313697D01*
X135848220Y-80515317D01*
X136019683Y-80686780D01*
X136221303Y-80821498D01*
X136445331Y-80914293D01*
X136683157Y-80961600D01*
X136925643Y-80961600D01*
X137163469Y-80914293D01*
X137387497Y-80821498D01*
X137589117Y-80686780D01*
X137760580Y-80515317D01*
X137895298Y-80313697D01*
X137988093Y-80089669D01*
X138035400Y-79851843D01*
X138035400Y-79609357D01*
X138113400Y-79609357D01*
X138113400Y-79851843D01*
X138160707Y-80089669D01*
X138253502Y-80313697D01*
X138388220Y-80515317D01*
X138559683Y-80686780D01*
X138761303Y-80821498D01*
X138985331Y-80914293D01*
X139223157Y-80961600D01*
X139465643Y-80961600D01*
X139703469Y-80914293D01*
X139927497Y-80821498D01*
X140129117Y-80686780D01*
X140300580Y-80515317D01*
X140435298Y-80313697D01*
X140528093Y-80089669D01*
X140575400Y-79851843D01*
X140575400Y-79609357D01*
X140653400Y-79609357D01*
X140653400Y-79851843D01*
X140700707Y-80089669D01*
X140793502Y-80313697D01*
X140928220Y-80515317D01*
X141099683Y-80686780D01*
X141301303Y-80821498D01*
X141525331Y-80914293D01*
X141763157Y-80961600D01*
X142005643Y-80961600D01*
X142243469Y-80914293D01*
X142467497Y-80821498D01*
X142669117Y-80686780D01*
X142840580Y-80515317D01*
X142975298Y-80313697D01*
X143068093Y-80089669D01*
X143115400Y-79851843D01*
X143115400Y-79609357D01*
X143068093Y-79371531D01*
X142975298Y-79147503D01*
X142842634Y-78948957D01*
X146292200Y-78948957D01*
X146292200Y-79191443D01*
X146339507Y-79429269D01*
X146432302Y-79653297D01*
X146567020Y-79854917D01*
X146738483Y-80026380D01*
X146940103Y-80161098D01*
X147164131Y-80253893D01*
X147401957Y-80301200D01*
X147644443Y-80301200D01*
X147882269Y-80253893D01*
X148106297Y-80161098D01*
X148307917Y-80026380D01*
X148479380Y-79854917D01*
X148614098Y-79653297D01*
X148706893Y-79429269D01*
X148715264Y-79387181D01*
X148873705Y-79387181D01*
X148958401Y-79613149D01*
X149085553Y-79818252D01*
X149250276Y-79994608D01*
X149446239Y-80135439D01*
X149665912Y-80235334D01*
X149746220Y-80259689D01*
X149936200Y-80198827D01*
X149936200Y-79197200D01*
X150190200Y-79197200D01*
X150190200Y-80198827D01*
X150380180Y-80259689D01*
X150460488Y-80235334D01*
X150680161Y-80135439D01*
X150876124Y-79994608D01*
X151040847Y-79818252D01*
X151167999Y-79613149D01*
X151252695Y-79387181D01*
X151192387Y-79197200D01*
X150190200Y-79197200D01*
X149936200Y-79197200D01*
X148934013Y-79197200D01*
X148873705Y-79387181D01*
X148715264Y-79387181D01*
X148754200Y-79191443D01*
X148754200Y-78948957D01*
X151372200Y-78948957D01*
X151372200Y-79191443D01*
X151419507Y-79429269D01*
X151512302Y-79653297D01*
X151647020Y-79854917D01*
X151818483Y-80026380D01*
X152020103Y-80161098D01*
X152244131Y-80253893D01*
X152481957Y-80301200D01*
X152724443Y-80301200D01*
X152962269Y-80253893D01*
X153186297Y-80161098D01*
X153387917Y-80026380D01*
X153559380Y-79854917D01*
X153694098Y-79653297D01*
X153786893Y-79429269D01*
X153834200Y-79191443D01*
X153834200Y-78948957D01*
X153912200Y-78948957D01*
X153912200Y-79191443D01*
X153959507Y-79429269D01*
X154052302Y-79653297D01*
X154187020Y-79854917D01*
X154358483Y-80026380D01*
X154560103Y-80161098D01*
X154784131Y-80253893D01*
X155021957Y-80301200D01*
X155264443Y-80301200D01*
X155502269Y-80253893D01*
X155726297Y-80161098D01*
X155927917Y-80026380D01*
X156099380Y-79854917D01*
X156234098Y-79653297D01*
X156326893Y-79429269D01*
X156374200Y-79191443D01*
X156374200Y-78948957D01*
X156452200Y-78948957D01*
X156452200Y-79191443D01*
X156499507Y-79429269D01*
X156592302Y-79653297D01*
X156727020Y-79854917D01*
X156898483Y-80026380D01*
X157100103Y-80161098D01*
X157324131Y-80253893D01*
X157561957Y-80301200D01*
X157804443Y-80301200D01*
X158042269Y-80253893D01*
X158266297Y-80161098D01*
X158467917Y-80026380D01*
X158639380Y-79854917D01*
X158774098Y-79653297D01*
X158866893Y-79429269D01*
X158914200Y-79191443D01*
X158914200Y-78948957D01*
X158992200Y-78948957D01*
X158992200Y-79191443D01*
X159039507Y-79429269D01*
X159132302Y-79653297D01*
X159267020Y-79854917D01*
X159438483Y-80026380D01*
X159640103Y-80161098D01*
X159864131Y-80253893D01*
X160101957Y-80301200D01*
X160344443Y-80301200D01*
X160582269Y-80253893D01*
X160806297Y-80161098D01*
X161007917Y-80026380D01*
X161179380Y-79854917D01*
X161314098Y-79653297D01*
X161406893Y-79429269D01*
X161454200Y-79191443D01*
X161454200Y-78948957D01*
X161532200Y-78948957D01*
X161532200Y-79191443D01*
X161579507Y-79429269D01*
X161672302Y-79653297D01*
X161807020Y-79854917D01*
X161978483Y-80026380D01*
X162180103Y-80161098D01*
X162404131Y-80253893D01*
X162641957Y-80301200D01*
X162884443Y-80301200D01*
X163122269Y-80253893D01*
X163346297Y-80161098D01*
X163547917Y-80026380D01*
X163719380Y-79854917D01*
X163854098Y-79653297D01*
X163946893Y-79429269D01*
X163994200Y-79191443D01*
X163994200Y-78948957D01*
X163946893Y-78711131D01*
X163854098Y-78487103D01*
X163719380Y-78285483D01*
X163654097Y-78220200D01*
X164070357Y-78220200D01*
X164070357Y-79920200D01*
X164077713Y-79994889D01*
X164099499Y-80066708D01*
X164134878Y-80132896D01*
X164182489Y-80190911D01*
X164240504Y-80238522D01*
X164306692Y-80273901D01*
X164378511Y-80295687D01*
X164453200Y-80303043D01*
X166153200Y-80303043D01*
X166227889Y-80295687D01*
X166299708Y-80273901D01*
X166365896Y-80238522D01*
X166423911Y-80190911D01*
X166471522Y-80132896D01*
X166506901Y-80066708D01*
X166528687Y-79994889D01*
X166536043Y-79920200D01*
X166536043Y-78220200D01*
X166528687Y-78145511D01*
X166506901Y-78073692D01*
X166471522Y-78007504D01*
X166423911Y-77949489D01*
X166365896Y-77901878D01*
X166299708Y-77866499D01*
X166227889Y-77844713D01*
X166153200Y-77837357D01*
X164453200Y-77837357D01*
X164378511Y-77844713D01*
X164306692Y-77866499D01*
X164240504Y-77901878D01*
X164182489Y-77949489D01*
X164134878Y-78007504D01*
X164099499Y-78073692D01*
X164077713Y-78145511D01*
X164070357Y-78220200D01*
X163654097Y-78220200D01*
X163547917Y-78114020D01*
X163346297Y-77979302D01*
X163122269Y-77886507D01*
X162884443Y-77839200D01*
X162641957Y-77839200D01*
X162404131Y-77886507D01*
X162180103Y-77979302D01*
X161978483Y-78114020D01*
X161807020Y-78285483D01*
X161672302Y-78487103D01*
X161579507Y-78711131D01*
X161532200Y-78948957D01*
X161454200Y-78948957D01*
X161406893Y-78711131D01*
X161314098Y-78487103D01*
X161179380Y-78285483D01*
X161007917Y-78114020D01*
X160806297Y-77979302D01*
X160582269Y-77886507D01*
X160344443Y-77839200D01*
X160101957Y-77839200D01*
X159864131Y-77886507D01*
X159640103Y-77979302D01*
X159438483Y-78114020D01*
X159267020Y-78285483D01*
X159132302Y-78487103D01*
X159039507Y-78711131D01*
X158992200Y-78948957D01*
X158914200Y-78948957D01*
X158866893Y-78711131D01*
X158774098Y-78487103D01*
X158639380Y-78285483D01*
X158467917Y-78114020D01*
X158266297Y-77979302D01*
X158042269Y-77886507D01*
X157804443Y-77839200D01*
X157561957Y-77839200D01*
X157324131Y-77886507D01*
X157100103Y-77979302D01*
X156898483Y-78114020D01*
X156727020Y-78285483D01*
X156592302Y-78487103D01*
X156499507Y-78711131D01*
X156452200Y-78948957D01*
X156374200Y-78948957D01*
X156326893Y-78711131D01*
X156234098Y-78487103D01*
X156099380Y-78285483D01*
X155927917Y-78114020D01*
X155726297Y-77979302D01*
X155502269Y-77886507D01*
X155264443Y-77839200D01*
X155021957Y-77839200D01*
X154784131Y-77886507D01*
X154560103Y-77979302D01*
X154358483Y-78114020D01*
X154187020Y-78285483D01*
X154052302Y-78487103D01*
X153959507Y-78711131D01*
X153912200Y-78948957D01*
X153834200Y-78948957D01*
X153786893Y-78711131D01*
X153694098Y-78487103D01*
X153559380Y-78285483D01*
X153387917Y-78114020D01*
X153186297Y-77979302D01*
X152962269Y-77886507D01*
X152724443Y-77839200D01*
X152481957Y-77839200D01*
X152244131Y-77886507D01*
X152020103Y-77979302D01*
X151818483Y-78114020D01*
X151647020Y-78285483D01*
X151512302Y-78487103D01*
X151419507Y-78711131D01*
X151372200Y-78948957D01*
X148754200Y-78948957D01*
X148715265Y-78753219D01*
X148873705Y-78753219D01*
X148934013Y-78943200D01*
X149936200Y-78943200D01*
X149936200Y-77941573D01*
X150190200Y-77941573D01*
X150190200Y-78943200D01*
X151192387Y-78943200D01*
X151252695Y-78753219D01*
X151167999Y-78527251D01*
X151040847Y-78322148D01*
X150876124Y-78145792D01*
X150680161Y-78004961D01*
X150460488Y-77905066D01*
X150380180Y-77880711D01*
X150190200Y-77941573D01*
X149936200Y-77941573D01*
X149746220Y-77880711D01*
X149665912Y-77905066D01*
X149446239Y-78004961D01*
X149250276Y-78145792D01*
X149085553Y-78322148D01*
X148958401Y-78527251D01*
X148873705Y-78753219D01*
X148715265Y-78753219D01*
X148706893Y-78711131D01*
X148614098Y-78487103D01*
X148479380Y-78285483D01*
X148307917Y-78114020D01*
X148106297Y-77979302D01*
X147882269Y-77886507D01*
X147644443Y-77839200D01*
X147401957Y-77839200D01*
X147164131Y-77886507D01*
X146940103Y-77979302D01*
X146738483Y-78114020D01*
X146567020Y-78285483D01*
X146432302Y-78487103D01*
X146339507Y-78711131D01*
X146292200Y-78948957D01*
X142842634Y-78948957D01*
X142840580Y-78945883D01*
X142669117Y-78774420D01*
X142467497Y-78639702D01*
X142243469Y-78546907D01*
X142005643Y-78499600D01*
X141763157Y-78499600D01*
X141525331Y-78546907D01*
X141301303Y-78639702D01*
X141099683Y-78774420D01*
X140928220Y-78945883D01*
X140793502Y-79147503D01*
X140700707Y-79371531D01*
X140653400Y-79609357D01*
X140575400Y-79609357D01*
X140528093Y-79371531D01*
X140435298Y-79147503D01*
X140300580Y-78945883D01*
X140129117Y-78774420D01*
X139927497Y-78639702D01*
X139703469Y-78546907D01*
X139465643Y-78499600D01*
X139223157Y-78499600D01*
X138985331Y-78546907D01*
X138761303Y-78639702D01*
X138559683Y-78774420D01*
X138388220Y-78945883D01*
X138253502Y-79147503D01*
X138160707Y-79371531D01*
X138113400Y-79609357D01*
X138035400Y-79609357D01*
X137988093Y-79371531D01*
X137895298Y-79147503D01*
X137760580Y-78945883D01*
X137589117Y-78774420D01*
X137387497Y-78639702D01*
X137163469Y-78546907D01*
X136925643Y-78499600D01*
X136683157Y-78499600D01*
X136445331Y-78546907D01*
X136221303Y-78639702D01*
X136019683Y-78774420D01*
X135848220Y-78945883D01*
X135713502Y-79147503D01*
X135620707Y-79371531D01*
X135573400Y-79609357D01*
X135495400Y-79609357D01*
X135448093Y-79371531D01*
X135355298Y-79147503D01*
X135220580Y-78945883D01*
X135049117Y-78774420D01*
X134847497Y-78639702D01*
X134623469Y-78546907D01*
X134385643Y-78499600D01*
X134143157Y-78499600D01*
X133905331Y-78546907D01*
X133681303Y-78639702D01*
X133479683Y-78774420D01*
X133308220Y-78945883D01*
X133257900Y-79021192D01*
X132581303Y-78344596D01*
X132566982Y-78327146D01*
X132497365Y-78270012D01*
X132417938Y-78227558D01*
X132331756Y-78201414D01*
X132264589Y-78194799D01*
X132264579Y-78194799D01*
X132242129Y-78192588D01*
X132219679Y-78194799D01*
X127745450Y-78194799D01*
X127723000Y-78192588D01*
X127700550Y-78194799D01*
X127700541Y-78194799D01*
X127633374Y-78201414D01*
X127547192Y-78227558D01*
X127467765Y-78270012D01*
X127398148Y-78327146D01*
X127383831Y-78344591D01*
X127129367Y-78599055D01*
X127003469Y-78546907D01*
X126765643Y-78499600D01*
X126523157Y-78499600D01*
X126285331Y-78546907D01*
X126061303Y-78639702D01*
X125859683Y-78774420D01*
X125688220Y-78945883D01*
X125553502Y-79147503D01*
X125460707Y-79371531D01*
X125413400Y-79609357D01*
X125413400Y-79851843D01*
X125460707Y-80089669D01*
X125553502Y-80313697D01*
X125688220Y-80515317D01*
X125859683Y-80686780D01*
X126061303Y-80821498D01*
X126285331Y-80914293D01*
X126523157Y-80961600D01*
X126765643Y-80961600D01*
X127003469Y-80914293D01*
X127227497Y-80821498D01*
X127429117Y-80686780D01*
X127600580Y-80515317D01*
X127735298Y-80313697D01*
X127828093Y-80089669D01*
X127875400Y-79851843D01*
X127875400Y-79609357D01*
X127828093Y-79371531D01*
X127775945Y-79245633D01*
X127912379Y-79109199D01*
X128119096Y-79109199D01*
X128093502Y-79147503D01*
X128000707Y-79371531D01*
X127953400Y-79609357D01*
X127953400Y-79851843D01*
X128000707Y-80089669D01*
X128093502Y-80313697D01*
X128228220Y-80515317D01*
X128399683Y-80686780D01*
X128601303Y-80821498D01*
X128825331Y-80914293D01*
X129063157Y-80961600D01*
X129305643Y-80961600D01*
X129543469Y-80914293D01*
X129767497Y-80821498D01*
X129969117Y-80686780D01*
X130140580Y-80515317D01*
X130275298Y-80313697D01*
X130368093Y-80089669D01*
X130415400Y-79851843D01*
X130415400Y-79609357D01*
X130368093Y-79371531D01*
X130275298Y-79147503D01*
X130249704Y-79109199D01*
X130659096Y-79109199D01*
X130633502Y-79147503D01*
X130540707Y-79371531D01*
X130493400Y-79609357D01*
X130493400Y-79851843D01*
X130540707Y-80089669D01*
X130633502Y-80313697D01*
X130768220Y-80515317D01*
X130939683Y-80686780D01*
X131089401Y-80786818D01*
X131089401Y-81126790D01*
X121509007Y-90707186D01*
X121535600Y-90573496D01*
X121535600Y-90390104D01*
X121499822Y-90210237D01*
X121429642Y-90040806D01*
X121327755Y-89888322D01*
X121296233Y-89856800D01*
X121327755Y-89825278D01*
X121429642Y-89672794D01*
X121499822Y-89503363D01*
X121535600Y-89323496D01*
X121535600Y-89140104D01*
X121499822Y-88960237D01*
X121429642Y-88790806D01*
X121327755Y-88638322D01*
X121296233Y-88606800D01*
X121327755Y-88575278D01*
X121429642Y-88422794D01*
X121499822Y-88253363D01*
X121535600Y-88073496D01*
X121535600Y-87890104D01*
X121499822Y-87710237D01*
X121429642Y-87540806D01*
X121327755Y-87388322D01*
X121296233Y-87356800D01*
X121327755Y-87325278D01*
X121429642Y-87172794D01*
X121499822Y-87003363D01*
X121535600Y-86823496D01*
X121535600Y-86640104D01*
X121499822Y-86460237D01*
X121429642Y-86290806D01*
X121327755Y-86138322D01*
X121296233Y-86106800D01*
X121327755Y-86075278D01*
X121429642Y-85922794D01*
X121499822Y-85753363D01*
X121535600Y-85573496D01*
X121535600Y-85390104D01*
X121499822Y-85210237D01*
X121429642Y-85040806D01*
X121327755Y-84888322D01*
X121296233Y-84856800D01*
X121327755Y-84825278D01*
X121429642Y-84672794D01*
X121499822Y-84503363D01*
X121535600Y-84323496D01*
X121535600Y-84140104D01*
X121499822Y-83960237D01*
X121429642Y-83790806D01*
X121327755Y-83638322D01*
X121296233Y-83606800D01*
X121327755Y-83575278D01*
X121429642Y-83422794D01*
X121499822Y-83253363D01*
X121535600Y-83073496D01*
X121535600Y-82890104D01*
X121499822Y-82710237D01*
X121429642Y-82540806D01*
X121327755Y-82388322D01*
X121198078Y-82258645D01*
X121045594Y-82156758D01*
X120876163Y-82086578D01*
X120696296Y-82050800D01*
X120512904Y-82050800D01*
X120333037Y-82086578D01*
X120163606Y-82156758D01*
X120011122Y-82258645D01*
X119979600Y-82290167D01*
X119948078Y-82258645D01*
X119795594Y-82156758D01*
X119626163Y-82086578D01*
X119446296Y-82050800D01*
X119262904Y-82050800D01*
X119083037Y-82086578D01*
X118913606Y-82156758D01*
X118761122Y-82258645D01*
X118631445Y-82388322D01*
X118529558Y-82540806D01*
X118459378Y-82710237D01*
X118423600Y-82890104D01*
X118423600Y-83073496D01*
X118459378Y-83253363D01*
X118529558Y-83422794D01*
X118631445Y-83575278D01*
X118662967Y-83606800D01*
X118631445Y-83638322D01*
X118529558Y-83790806D01*
X118459378Y-83960237D01*
X118423600Y-84140104D01*
X118423600Y-84323496D01*
X118459378Y-84503363D01*
X118529558Y-84672794D01*
X118631445Y-84825278D01*
X118662967Y-84856800D01*
X118631445Y-84888322D01*
X118529558Y-85040806D01*
X118459378Y-85210237D01*
X118423600Y-85390104D01*
X118423600Y-85573496D01*
X118459378Y-85753363D01*
X118529558Y-85922794D01*
X118631445Y-86075278D01*
X118662967Y-86106800D01*
X118631445Y-86138322D01*
X118529558Y-86290806D01*
X118459378Y-86460237D01*
X118423600Y-86640104D01*
X118423600Y-86823496D01*
X118459378Y-87003363D01*
X118529558Y-87172794D01*
X118631445Y-87325278D01*
X118662967Y-87356800D01*
X118631445Y-87388322D01*
X118529558Y-87540806D01*
X118459378Y-87710237D01*
X118423600Y-87890104D01*
X118423600Y-88073496D01*
X118459378Y-88253363D01*
X118529558Y-88422794D01*
X118631445Y-88575278D01*
X118662967Y-88606800D01*
X118631445Y-88638322D01*
X118529558Y-88790806D01*
X118459378Y-88960237D01*
X118423600Y-89140104D01*
X118423600Y-89323496D01*
X118455576Y-89484247D01*
X117052979Y-90886844D01*
X117035529Y-90901165D01*
X116978395Y-90970783D01*
X116935941Y-91050210D01*
X116909797Y-91136392D01*
X116903182Y-91203559D01*
X116903182Y-91203568D01*
X116900971Y-91226018D01*
X114891500Y-91226018D01*
X114891500Y-78880600D01*
X122871557Y-78880600D01*
X122871557Y-80580600D01*
X122878913Y-80655289D01*
X122900699Y-80727108D01*
X122936078Y-80793296D01*
X122983689Y-80851311D01*
X123041704Y-80898922D01*
X123107892Y-80934301D01*
X123179711Y-80956087D01*
X123254400Y-80963443D01*
X124954400Y-80963443D01*
X125029089Y-80956087D01*
X125100908Y-80934301D01*
X125167096Y-80898922D01*
X125225111Y-80851311D01*
X125272722Y-80793296D01*
X125308101Y-80727108D01*
X125329887Y-80655289D01*
X125337243Y-80580600D01*
X125337243Y-78880600D01*
X125329887Y-78805911D01*
X125308101Y-78734092D01*
X125272722Y-78667904D01*
X125225111Y-78609889D01*
X125167096Y-78562278D01*
X125100908Y-78526899D01*
X125029089Y-78505113D01*
X124954400Y-78497757D01*
X123254400Y-78497757D01*
X123179711Y-78505113D01*
X123107892Y-78526899D01*
X123041704Y-78562278D01*
X122983689Y-78609889D01*
X122936078Y-78667904D01*
X122900699Y-78734092D01*
X122878913Y-78805911D01*
X122871557Y-78880600D01*
X114891500Y-78880600D01*
X114891500Y-77411895D01*
X114914244Y-77179931D01*
X114975847Y-76975894D01*
X115075908Y-76787706D01*
X115210609Y-76622547D01*
X115374831Y-76486690D01*
X115562314Y-76385318D01*
X115765911Y-76322294D01*
X115996658Y-76298042D01*
X169965647Y-76298042D01*
X170197611Y-76320786D01*
%TA.AperFunction,Conductor*%
D17*
G36*
X170197611Y-76320786D02*
G01*
X170401648Y-76382389D01*
X170589836Y-76482450D01*
X170754995Y-76617151D01*
X170890852Y-76781373D01*
X170992224Y-76968856D01*
X171055248Y-77172453D01*
X171079501Y-77403209D01*
X171079500Y-126572188D01*
X171056756Y-126804151D01*
X170995153Y-127008189D01*
X170895092Y-127196377D01*
X170760391Y-127361536D01*
X170596166Y-127497395D01*
X170408687Y-127598765D01*
X170205089Y-127661789D01*
X169974342Y-127686041D01*
X141092853Y-127686041D01*
X140860890Y-127663297D01*
X140656852Y-127601694D01*
X140468664Y-127501633D01*
X140303505Y-127366932D01*
X140167646Y-127202707D01*
X140066276Y-127015228D01*
X140003252Y-126811630D01*
X139979000Y-126580883D01*
X139979000Y-125132581D01*
X145266905Y-125132581D01*
X145351601Y-125358549D01*
X145478753Y-125563652D01*
X145643476Y-125740008D01*
X145839439Y-125880839D01*
X146059112Y-125980734D01*
X146139420Y-126005089D01*
X146329400Y-125944227D01*
X146329400Y-124942600D01*
X146583400Y-124942600D01*
X146583400Y-125944227D01*
X146773380Y-126005089D01*
X146853688Y-125980734D01*
X147073361Y-125880839D01*
X147269324Y-125740008D01*
X147434047Y-125563652D01*
X147561199Y-125358549D01*
X147645895Y-125132581D01*
X147585587Y-124942600D01*
X146583400Y-124942600D01*
X146329400Y-124942600D01*
X145327213Y-124942600D01*
X145266905Y-125132581D01*
X139979000Y-125132581D01*
X139979000Y-124694357D01*
X147765400Y-124694357D01*
X147765400Y-124936843D01*
X147812707Y-125174669D01*
X147905502Y-125398697D01*
X148040220Y-125600317D01*
X148211683Y-125771780D01*
X148413303Y-125906498D01*
X148637331Y-125999293D01*
X148875157Y-126046600D01*
X149117643Y-126046600D01*
X149355469Y-125999293D01*
X149579497Y-125906498D01*
X149781117Y-125771780D01*
X149952580Y-125600317D01*
X150087298Y-125398697D01*
X150180093Y-125174669D01*
X150227400Y-124936843D01*
X150227400Y-124694357D01*
X150305400Y-124694357D01*
X150305400Y-124936843D01*
X150352707Y-125174669D01*
X150445502Y-125398697D01*
X150580220Y-125600317D01*
X150751683Y-125771780D01*
X150953303Y-125906498D01*
X151177331Y-125999293D01*
X151415157Y-126046600D01*
X151657643Y-126046600D01*
X151895469Y-125999293D01*
X152119497Y-125906498D01*
X152321117Y-125771780D01*
X152492580Y-125600317D01*
X152627298Y-125398697D01*
X152720093Y-125174669D01*
X152767400Y-124936843D01*
X152767400Y-124694357D01*
X152845400Y-124694357D01*
X152845400Y-124936843D01*
X152892707Y-125174669D01*
X152985502Y-125398697D01*
X153120220Y-125600317D01*
X153291683Y-125771780D01*
X153493303Y-125906498D01*
X153717331Y-125999293D01*
X153955157Y-126046600D01*
X154197643Y-126046600D01*
X154435469Y-125999293D01*
X154659497Y-125906498D01*
X154861117Y-125771780D01*
X155032580Y-125600317D01*
X155167298Y-125398697D01*
X155260093Y-125174669D01*
X155307400Y-124936843D01*
X155307400Y-124694357D01*
X155385400Y-124694357D01*
X155385400Y-124936843D01*
X155432707Y-125174669D01*
X155525502Y-125398697D01*
X155660220Y-125600317D01*
X155831683Y-125771780D01*
X156033303Y-125906498D01*
X156257331Y-125999293D01*
X156495157Y-126046600D01*
X156737643Y-126046600D01*
X156975469Y-125999293D01*
X157199497Y-125906498D01*
X157401117Y-125771780D01*
X157572580Y-125600317D01*
X157707298Y-125398697D01*
X157800093Y-125174669D01*
X157847400Y-124936843D01*
X157847400Y-124694357D01*
X157925400Y-124694357D01*
X157925400Y-124936843D01*
X157972707Y-125174669D01*
X158065502Y-125398697D01*
X158200220Y-125600317D01*
X158371683Y-125771780D01*
X158573303Y-125906498D01*
X158797331Y-125999293D01*
X159035157Y-126046600D01*
X159277643Y-126046600D01*
X159515469Y-125999293D01*
X159739497Y-125906498D01*
X159941117Y-125771780D01*
X160112580Y-125600317D01*
X160247298Y-125398697D01*
X160340093Y-125174669D01*
X160387400Y-124936843D01*
X160387400Y-124694357D01*
X160465400Y-124694357D01*
X160465400Y-124936843D01*
X160512707Y-125174669D01*
X160605502Y-125398697D01*
X160740220Y-125600317D01*
X160911683Y-125771780D01*
X161113303Y-125906498D01*
X161337331Y-125999293D01*
X161575157Y-126046600D01*
X161817643Y-126046600D01*
X162055469Y-125999293D01*
X162279497Y-125906498D01*
X162481117Y-125771780D01*
X162652580Y-125600317D01*
X162787298Y-125398697D01*
X162880093Y-125174669D01*
X162927400Y-124936843D01*
X162927400Y-124694357D01*
X162880093Y-124456531D01*
X162787298Y-124232503D01*
X162652580Y-124030883D01*
X162587297Y-123965600D01*
X163003557Y-123965600D01*
X163003557Y-125665600D01*
X163010913Y-125740289D01*
X163032699Y-125812108D01*
X163068078Y-125878296D01*
X163115689Y-125936311D01*
X163173704Y-125983922D01*
X163239892Y-126019301D01*
X163311711Y-126041087D01*
X163386400Y-126048443D01*
X165086400Y-126048443D01*
X165161089Y-126041087D01*
X165232908Y-126019301D01*
X165299096Y-125983922D01*
X165357111Y-125936311D01*
X165404722Y-125878296D01*
X165440101Y-125812108D01*
X165461887Y-125740289D01*
X165469243Y-125665600D01*
X165469243Y-123965600D01*
X165461887Y-123890911D01*
X165440101Y-123819092D01*
X165404722Y-123752904D01*
X165357111Y-123694889D01*
X165299096Y-123647278D01*
X165232908Y-123611899D01*
X165161089Y-123590113D01*
X165086400Y-123582757D01*
X163386400Y-123582757D01*
X163311711Y-123590113D01*
X163239892Y-123611899D01*
X163173704Y-123647278D01*
X163115689Y-123694889D01*
X163068078Y-123752904D01*
X163032699Y-123819092D01*
X163010913Y-123890911D01*
X163003557Y-123965600D01*
X162587297Y-123965600D01*
X162481117Y-123859420D01*
X162279497Y-123724702D01*
X162055469Y-123631907D01*
X161817643Y-123584600D01*
X161575157Y-123584600D01*
X161337331Y-123631907D01*
X161113303Y-123724702D01*
X160911683Y-123859420D01*
X160740220Y-124030883D01*
X160605502Y-124232503D01*
X160512707Y-124456531D01*
X160465400Y-124694357D01*
X160387400Y-124694357D01*
X160340093Y-124456531D01*
X160247298Y-124232503D01*
X160112580Y-124030883D01*
X159941117Y-123859420D01*
X159739497Y-123724702D01*
X159515469Y-123631907D01*
X159277643Y-123584600D01*
X159035157Y-123584600D01*
X158797331Y-123631907D01*
X158573303Y-123724702D01*
X158371683Y-123859420D01*
X158200220Y-124030883D01*
X158065502Y-124232503D01*
X157972707Y-124456531D01*
X157925400Y-124694357D01*
X157847400Y-124694357D01*
X157800093Y-124456531D01*
X157707298Y-124232503D01*
X157572580Y-124030883D01*
X157401117Y-123859420D01*
X157199497Y-123724702D01*
X156975469Y-123631907D01*
X156737643Y-123584600D01*
X156495157Y-123584600D01*
X156257331Y-123631907D01*
X156033303Y-123724702D01*
X155831683Y-123859420D01*
X155660220Y-124030883D01*
X155525502Y-124232503D01*
X155432707Y-124456531D01*
X155385400Y-124694357D01*
X155307400Y-124694357D01*
X155260093Y-124456531D01*
X155167298Y-124232503D01*
X155032580Y-124030883D01*
X154861117Y-123859420D01*
X154659497Y-123724702D01*
X154435469Y-123631907D01*
X154197643Y-123584600D01*
X153955157Y-123584600D01*
X153717331Y-123631907D01*
X153493303Y-123724702D01*
X153291683Y-123859420D01*
X153120220Y-124030883D01*
X152985502Y-124232503D01*
X152892707Y-124456531D01*
X152845400Y-124694357D01*
X152767400Y-124694357D01*
X152720093Y-124456531D01*
X152627298Y-124232503D01*
X152492580Y-124030883D01*
X152321117Y-123859420D01*
X152119497Y-123724702D01*
X151895469Y-123631907D01*
X151657643Y-123584600D01*
X151415157Y-123584600D01*
X151177331Y-123631907D01*
X150953303Y-123724702D01*
X150751683Y-123859420D01*
X150580220Y-124030883D01*
X150445502Y-124232503D01*
X150352707Y-124456531D01*
X150305400Y-124694357D01*
X150227400Y-124694357D01*
X150180093Y-124456531D01*
X150087298Y-124232503D01*
X149952580Y-124030883D01*
X149781117Y-123859420D01*
X149579497Y-123724702D01*
X149355469Y-123631907D01*
X149117643Y-123584600D01*
X148875157Y-123584600D01*
X148637331Y-123631907D01*
X148413303Y-123724702D01*
X148211683Y-123859420D01*
X148040220Y-124030883D01*
X147905502Y-124232503D01*
X147812707Y-124456531D01*
X147765400Y-124694357D01*
X139979000Y-124694357D01*
X139979000Y-124498619D01*
X145266905Y-124498619D01*
X145327213Y-124688600D01*
X146329400Y-124688600D01*
X146329400Y-123686973D01*
X146583400Y-123686973D01*
X146583400Y-124688600D01*
X147585587Y-124688600D01*
X147645895Y-124498619D01*
X147561199Y-124272651D01*
X147434047Y-124067548D01*
X147269324Y-123891192D01*
X147073361Y-123750361D01*
X146853688Y-123650466D01*
X146773380Y-123626111D01*
X146583400Y-123686973D01*
X146329400Y-123686973D01*
X146139420Y-123626111D01*
X146059112Y-123650466D01*
X145839439Y-123750361D01*
X145643476Y-123891192D01*
X145478753Y-124067548D01*
X145351601Y-124272651D01*
X145266905Y-124498619D01*
X139979000Y-124498619D01*
X139979000Y-114816433D01*
X151914979Y-114816433D01*
X151914979Y-115507649D01*
X152049828Y-116185585D01*
X152314346Y-116824186D01*
X152698365Y-117398912D01*
X153187129Y-117887676D01*
X153761855Y-118271695D01*
X154400456Y-118536213D01*
X155078392Y-118671062D01*
X155769608Y-118671062D01*
X156447544Y-118536213D01*
X157086145Y-118271695D01*
X157660871Y-117887676D01*
X158149635Y-117398912D01*
X158533654Y-116824186D01*
X158798172Y-116185585D01*
X158933021Y-115507649D01*
X158933021Y-114816433D01*
X158798172Y-114138497D01*
X158533654Y-113499896D01*
X158149635Y-112925170D01*
X157660871Y-112436406D01*
X157086145Y-112052387D01*
X156447544Y-111787869D01*
X155769608Y-111653020D01*
X155078392Y-111653020D01*
X154400456Y-111787869D01*
X153761855Y-112052387D01*
X153187129Y-112436406D01*
X152698365Y-112925170D01*
X152314346Y-113499896D01*
X152049828Y-114138497D01*
X151914979Y-114816433D01*
X139979000Y-114816433D01*
X139979000Y-105947018D01*
X139977227Y-105929016D01*
X139977292Y-105919692D01*
X139976739Y-105914050D01*
X139946139Y-105622904D01*
X139938736Y-105586838D01*
X139931844Y-105550712D01*
X139930206Y-105545284D01*
X139843638Y-105265629D01*
X139829366Y-105231677D01*
X139815593Y-105197588D01*
X139812932Y-105192582D01*
X139809999Y-105187157D01*
X145860400Y-105187157D01*
X145860400Y-105429643D01*
X145907707Y-105667469D01*
X146000502Y-105891497D01*
X146135220Y-106093117D01*
X146306683Y-106264580D01*
X146508303Y-106399298D01*
X146732331Y-106492093D01*
X146970157Y-106539400D01*
X147212643Y-106539400D01*
X147450469Y-106492093D01*
X147674497Y-106399298D01*
X147876117Y-106264580D01*
X148047580Y-106093117D01*
X148182298Y-105891497D01*
X148275093Y-105667469D01*
X148283464Y-105625381D01*
X148441905Y-105625381D01*
X148526601Y-105851349D01*
X148653753Y-106056452D01*
X148818476Y-106232808D01*
X149014439Y-106373639D01*
X149234112Y-106473534D01*
X149314420Y-106497889D01*
X149504400Y-106437027D01*
X149504400Y-105435400D01*
X149758400Y-105435400D01*
X149758400Y-106437027D01*
X149948380Y-106497889D01*
X150028688Y-106473534D01*
X150248361Y-106373639D01*
X150444324Y-106232808D01*
X150609047Y-106056452D01*
X150736199Y-105851349D01*
X150820895Y-105625381D01*
X150760587Y-105435400D01*
X149758400Y-105435400D01*
X149504400Y-105435400D01*
X148502213Y-105435400D01*
X148441905Y-105625381D01*
X148283464Y-105625381D01*
X148322400Y-105429643D01*
X148322400Y-105187157D01*
X148283465Y-104991419D01*
X148441905Y-104991419D01*
X148502213Y-105181400D01*
X149504400Y-105181400D01*
X149504400Y-104179773D01*
X149758400Y-104179773D01*
X149758400Y-105181400D01*
X150760587Y-105181400D01*
X150820895Y-104991419D01*
X150736199Y-104765451D01*
X150609047Y-104560348D01*
X150444324Y-104383992D01*
X150248361Y-104243161D01*
X150028688Y-104143266D01*
X149948380Y-104118911D01*
X149758400Y-104179773D01*
X149504400Y-104179773D01*
X149314420Y-104118911D01*
X149234112Y-104143266D01*
X149014439Y-104243161D01*
X148818476Y-104383992D01*
X148653753Y-104560348D01*
X148526601Y-104765451D01*
X148441905Y-104991419D01*
X148283465Y-104991419D01*
X148275093Y-104949331D01*
X148182298Y-104725303D01*
X148047580Y-104523683D01*
X147876117Y-104352220D01*
X147674497Y-104217502D01*
X147450469Y-104124707D01*
X147212643Y-104077400D01*
X146970157Y-104077400D01*
X146732331Y-104124707D01*
X146508303Y-104217502D01*
X146306683Y-104352220D01*
X146135220Y-104523683D01*
X146000502Y-104725303D01*
X145907707Y-104949331D01*
X145860400Y-105187157D01*
X139809999Y-105187157D01*
X139673693Y-104935066D01*
X139653098Y-104904533D01*
X139632967Y-104873770D01*
X139629385Y-104869376D01*
X139442780Y-104643809D01*
X139416644Y-104617855D01*
X139390923Y-104591590D01*
X139386555Y-104587976D01*
X139159691Y-104402950D01*
X139129026Y-104382576D01*
X139098679Y-104361797D01*
X139093693Y-104359100D01*
X138835212Y-104221663D01*
X138801149Y-104207623D01*
X138767369Y-104193145D01*
X138761954Y-104191468D01*
X138481699Y-104106854D01*
X138445578Y-104099702D01*
X138409608Y-104092057D01*
X138403972Y-104091464D01*
X138403970Y-104091464D01*
X138112618Y-104062897D01*
X138092941Y-104060959D01*
X116005353Y-104060959D01*
X115773390Y-104038215D01*
X115569352Y-103976612D01*
X115381164Y-103876551D01*
X115216005Y-103741850D01*
X115080146Y-103577625D01*
X114978776Y-103390146D01*
X114915752Y-103186548D01*
X114891500Y-102955801D01*
X114891500Y-91226018D01*
X116900971Y-91226018D01*
X116903182Y-91248468D01*
X116903183Y-98632052D01*
X116900971Y-98654512D01*
X116903183Y-98676972D01*
X116909798Y-98744139D01*
X116928989Y-98807400D01*
X116935942Y-98830321D01*
X116978395Y-98909747D01*
X117013645Y-98952698D01*
X117035530Y-98979365D01*
X117052975Y-98993682D01*
X121338322Y-103279032D01*
X121352634Y-103296471D01*
X121370073Y-103310783D01*
X121370079Y-103310789D01*
X121422251Y-103353606D01*
X121501677Y-103396059D01*
X121587860Y-103422203D01*
X121677486Y-103431030D01*
X121699946Y-103428818D01*
X149645243Y-103428820D01*
X151039855Y-104823433D01*
X150987707Y-104949331D01*
X150940400Y-105187157D01*
X150940400Y-105429643D01*
X150987707Y-105667469D01*
X151080502Y-105891497D01*
X151215220Y-106093117D01*
X151386683Y-106264580D01*
X151588303Y-106399298D01*
X151812331Y-106492093D01*
X152050157Y-106539400D01*
X152292643Y-106539400D01*
X152530469Y-106492093D01*
X152754497Y-106399298D01*
X152956117Y-106264580D01*
X153127580Y-106093117D01*
X153262298Y-105891497D01*
X153355093Y-105667469D01*
X153402400Y-105429643D01*
X153402400Y-105187157D01*
X153480400Y-105187157D01*
X153480400Y-105429643D01*
X153527707Y-105667469D01*
X153620502Y-105891497D01*
X153755220Y-106093117D01*
X153926683Y-106264580D01*
X154128303Y-106399298D01*
X154352331Y-106492093D01*
X154590157Y-106539400D01*
X154832643Y-106539400D01*
X155070469Y-106492093D01*
X155294497Y-106399298D01*
X155496117Y-106264580D01*
X155667580Y-106093117D01*
X155802298Y-105891497D01*
X155895093Y-105667469D01*
X155942400Y-105429643D01*
X155942400Y-105187157D01*
X156020400Y-105187157D01*
X156020400Y-105429643D01*
X156067707Y-105667469D01*
X156160502Y-105891497D01*
X156295220Y-106093117D01*
X156466683Y-106264580D01*
X156668303Y-106399298D01*
X156892331Y-106492093D01*
X157130157Y-106539400D01*
X157372643Y-106539400D01*
X157610469Y-106492093D01*
X157834497Y-106399298D01*
X158036117Y-106264580D01*
X158207580Y-106093117D01*
X158342298Y-105891497D01*
X158435093Y-105667469D01*
X158482400Y-105429643D01*
X158482400Y-105187157D01*
X158435093Y-104949331D01*
X158342298Y-104725303D01*
X158207580Y-104523683D01*
X158036117Y-104352220D01*
X157834497Y-104217502D01*
X157610469Y-104124707D01*
X157372643Y-104077400D01*
X157130157Y-104077400D01*
X156892331Y-104124707D01*
X156668303Y-104217502D01*
X156466683Y-104352220D01*
X156295220Y-104523683D01*
X156160502Y-104725303D01*
X156067707Y-104949331D01*
X156020400Y-105187157D01*
X155942400Y-105187157D01*
X155895093Y-104949331D01*
X155802298Y-104725303D01*
X155667580Y-104523683D01*
X155496117Y-104352220D01*
X155294497Y-104217502D01*
X155070469Y-104124707D01*
X154832643Y-104077400D01*
X154590157Y-104077400D01*
X154352331Y-104124707D01*
X154128303Y-104217502D01*
X153926683Y-104352220D01*
X153755220Y-104523683D01*
X153620502Y-104725303D01*
X153527707Y-104949331D01*
X153480400Y-105187157D01*
X153402400Y-105187157D01*
X153355093Y-104949331D01*
X153262298Y-104725303D01*
X153127580Y-104523683D01*
X152956117Y-104352220D01*
X152754497Y-104217502D01*
X152530469Y-104124707D01*
X152292643Y-104077400D01*
X152050157Y-104077400D01*
X151812331Y-104124707D01*
X151686433Y-104176855D01*
X150633587Y-103124010D01*
X156960433Y-103124010D01*
X158659855Y-104823433D01*
X158607707Y-104949331D01*
X158560400Y-105187157D01*
X158560400Y-105429643D01*
X158607707Y-105667469D01*
X158700502Y-105891497D01*
X158835220Y-106093117D01*
X159006683Y-106264580D01*
X159208303Y-106399298D01*
X159432331Y-106492093D01*
X159670157Y-106539400D01*
X159912643Y-106539400D01*
X160150469Y-106492093D01*
X160374497Y-106399298D01*
X160576117Y-106264580D01*
X160747580Y-106093117D01*
X160882298Y-105891497D01*
X160975093Y-105667469D01*
X161022400Y-105429643D01*
X161022400Y-105187157D01*
X160975093Y-104949331D01*
X160882298Y-104725303D01*
X160747580Y-104523683D01*
X160576117Y-104352220D01*
X160374497Y-104217502D01*
X160150469Y-104124707D01*
X159912643Y-104077400D01*
X159670157Y-104077400D01*
X159432331Y-104124707D01*
X159306433Y-104176855D01*
X157948777Y-102819200D01*
X159195623Y-102819200D01*
X161199855Y-104823433D01*
X161147707Y-104949331D01*
X161100400Y-105187157D01*
X161100400Y-105429643D01*
X161147707Y-105667469D01*
X161240502Y-105891497D01*
X161375220Y-106093117D01*
X161546683Y-106264580D01*
X161748303Y-106399298D01*
X161972331Y-106492093D01*
X162210157Y-106539400D01*
X162452643Y-106539400D01*
X162690469Y-106492093D01*
X162914497Y-106399298D01*
X163116117Y-106264580D01*
X163287580Y-106093117D01*
X163422298Y-105891497D01*
X163515093Y-105667469D01*
X163562400Y-105429643D01*
X163562400Y-105187157D01*
X163515093Y-104949331D01*
X163422298Y-104725303D01*
X163287580Y-104523683D01*
X163222297Y-104458400D01*
X163638557Y-104458400D01*
X163638557Y-106158400D01*
X163645913Y-106233089D01*
X163667699Y-106304908D01*
X163703078Y-106371096D01*
X163750689Y-106429111D01*
X163808704Y-106476722D01*
X163874892Y-106512101D01*
X163946711Y-106533887D01*
X164021400Y-106541243D01*
X165721400Y-106541243D01*
X165796089Y-106533887D01*
X165867908Y-106512101D01*
X165934096Y-106476722D01*
X165992111Y-106429111D01*
X166039722Y-106371096D01*
X166075101Y-106304908D01*
X166096887Y-106233089D01*
X166104243Y-106158400D01*
X166104243Y-104458400D01*
X166096887Y-104383711D01*
X166075101Y-104311892D01*
X166039722Y-104245704D01*
X165992111Y-104187689D01*
X165934096Y-104140078D01*
X165867908Y-104104699D01*
X165796089Y-104082913D01*
X165721400Y-104075557D01*
X164021400Y-104075557D01*
X163946711Y-104082913D01*
X163874892Y-104104699D01*
X163808704Y-104140078D01*
X163750689Y-104187689D01*
X163703078Y-104245704D01*
X163667699Y-104311892D01*
X163645913Y-104383711D01*
X163638557Y-104458400D01*
X163222297Y-104458400D01*
X163116117Y-104352220D01*
X162914497Y-104217502D01*
X162690469Y-104124707D01*
X162452643Y-104077400D01*
X162210157Y-104077400D01*
X161972331Y-104124707D01*
X161846433Y-104176855D01*
X159724174Y-102054597D01*
X159709853Y-102037147D01*
X159640236Y-101980013D01*
X159560809Y-101937559D01*
X159474627Y-101911415D01*
X159407460Y-101904800D01*
X159407450Y-101904800D01*
X159385000Y-101902589D01*
X159362550Y-101904800D01*
X142763697Y-101904800D01*
X142834217Y-101857680D01*
X143005680Y-101686217D01*
X143140398Y-101484597D01*
X143192546Y-101358700D01*
X162829650Y-101358700D01*
X162852100Y-101360911D01*
X162874550Y-101358700D01*
X162874560Y-101358700D01*
X162941727Y-101352085D01*
X163027909Y-101325941D01*
X163107336Y-101283487D01*
X163176953Y-101226353D01*
X163191274Y-101208903D01*
X164158135Y-100242043D01*
X165594400Y-100242043D01*
X165669089Y-100234687D01*
X165740908Y-100212901D01*
X165807096Y-100177522D01*
X165865111Y-100129911D01*
X165912722Y-100071896D01*
X165948101Y-100005708D01*
X165969887Y-99933889D01*
X165977243Y-99859200D01*
X165977243Y-98159200D01*
X165969887Y-98084511D01*
X165948101Y-98012692D01*
X165912722Y-97946504D01*
X165865111Y-97888489D01*
X165807096Y-97840878D01*
X165740908Y-97805499D01*
X165669089Y-97783713D01*
X165594400Y-97776357D01*
X163894400Y-97776357D01*
X163819711Y-97783713D01*
X163747892Y-97805499D01*
X163681704Y-97840878D01*
X163623689Y-97888489D01*
X163576078Y-97946504D01*
X163540699Y-98012692D01*
X163518913Y-98084511D01*
X163511557Y-98159200D01*
X163511557Y-99595465D01*
X162662723Y-100444300D01*
X161415877Y-100444300D01*
X161719433Y-100140745D01*
X161845331Y-100192893D01*
X162083157Y-100240200D01*
X162325643Y-100240200D01*
X162563469Y-100192893D01*
X162787497Y-100100098D01*
X162989117Y-99965380D01*
X163160580Y-99793917D01*
X163295298Y-99592297D01*
X163388093Y-99368269D01*
X163435400Y-99130443D01*
X163435400Y-98887957D01*
X163388093Y-98650131D01*
X163295298Y-98426103D01*
X163160580Y-98224483D01*
X162989117Y-98053020D01*
X162787497Y-97918302D01*
X162563469Y-97825507D01*
X162325643Y-97778200D01*
X162083157Y-97778200D01*
X161845331Y-97825507D01*
X161621303Y-97918302D01*
X161419683Y-98053020D01*
X161248220Y-98224483D01*
X161113502Y-98426103D01*
X161020707Y-98650131D01*
X160973400Y-98887957D01*
X160973400Y-99130443D01*
X161020707Y-99368269D01*
X161072855Y-99494167D01*
X160427533Y-100139490D01*
X160152396Y-100139490D01*
X160247497Y-100100098D01*
X160449117Y-99965380D01*
X160620580Y-99793917D01*
X160755298Y-99592297D01*
X160848093Y-99368269D01*
X160895400Y-99130443D01*
X160895400Y-98887957D01*
X160848093Y-98650131D01*
X160755298Y-98426103D01*
X160620580Y-98224483D01*
X160449117Y-98053020D01*
X160247497Y-97918302D01*
X160023469Y-97825507D01*
X159785643Y-97778200D01*
X159543157Y-97778200D01*
X159305331Y-97825507D01*
X159081303Y-97918302D01*
X158879683Y-98053020D01*
X158708220Y-98224483D01*
X158573502Y-98426103D01*
X158480707Y-98650131D01*
X158433400Y-98887957D01*
X158433400Y-99130443D01*
X158480707Y-99368269D01*
X158573502Y-99592297D01*
X158708220Y-99793917D01*
X158879683Y-99965380D01*
X159081303Y-100100098D01*
X159176404Y-100139490D01*
X157612396Y-100139490D01*
X157707497Y-100100098D01*
X157909117Y-99965380D01*
X158080580Y-99793917D01*
X158215298Y-99592297D01*
X158308093Y-99368269D01*
X158355400Y-99130443D01*
X158355400Y-98887957D01*
X158308093Y-98650131D01*
X158215298Y-98426103D01*
X158080580Y-98224483D01*
X157909117Y-98053020D01*
X157707497Y-97918302D01*
X157483469Y-97825507D01*
X157245643Y-97778200D01*
X157003157Y-97778200D01*
X156765331Y-97825507D01*
X156541303Y-97918302D01*
X156339683Y-98053020D01*
X156168220Y-98224483D01*
X156033502Y-98426103D01*
X155940707Y-98650131D01*
X155893400Y-98887957D01*
X155893400Y-99130443D01*
X155940707Y-99368269D01*
X155992855Y-99494167D01*
X155652343Y-99834680D01*
X155499817Y-99834680D01*
X155540580Y-99793917D01*
X155675298Y-99592297D01*
X155768093Y-99368269D01*
X155815400Y-99130443D01*
X155815400Y-98887957D01*
X155768093Y-98650131D01*
X155675298Y-98426103D01*
X155540580Y-98224483D01*
X155369117Y-98053020D01*
X155167497Y-97918302D01*
X154943469Y-97825507D01*
X154705643Y-97778200D01*
X154463157Y-97778200D01*
X154225331Y-97825507D01*
X154001303Y-97918302D01*
X153799683Y-98053020D01*
X153628220Y-98224483D01*
X153493502Y-98426103D01*
X153400707Y-98650131D01*
X153353400Y-98887957D01*
X153353400Y-99130443D01*
X153400707Y-99368269D01*
X153493502Y-99592297D01*
X153628220Y-99793917D01*
X153668983Y-99834680D01*
X152959817Y-99834680D01*
X153000580Y-99793917D01*
X153135298Y-99592297D01*
X153228093Y-99368269D01*
X153275400Y-99130443D01*
X153275400Y-98887957D01*
X153228093Y-98650131D01*
X153135298Y-98426103D01*
X153001970Y-98226563D01*
X152985187Y-98195164D01*
X152928053Y-98125547D01*
X152858436Y-98068413D01*
X152827037Y-98051630D01*
X152627497Y-97918302D01*
X152403469Y-97825507D01*
X152165643Y-97778200D01*
X151923157Y-97778200D01*
X151685331Y-97825507D01*
X151461303Y-97918302D01*
X151259683Y-98053020D01*
X151088220Y-98224483D01*
X150953502Y-98426103D01*
X150860707Y-98650131D01*
X150813400Y-98887957D01*
X150813400Y-99130443D01*
X150860707Y-99368269D01*
X150953502Y-99592297D01*
X151088220Y-99793917D01*
X151128983Y-99834680D01*
X150419817Y-99834680D01*
X150460580Y-99793917D01*
X150595298Y-99592297D01*
X150688093Y-99368269D01*
X150735400Y-99130443D01*
X150735400Y-98887957D01*
X150688093Y-98650131D01*
X150595298Y-98426103D01*
X150460580Y-98224483D01*
X150289117Y-98053020D01*
X150087497Y-97918302D01*
X149863469Y-97825507D01*
X149625643Y-97778200D01*
X149383157Y-97778200D01*
X149145331Y-97825507D01*
X148921303Y-97918302D01*
X148719683Y-98053020D01*
X148548220Y-98224483D01*
X148413502Y-98426103D01*
X148320707Y-98650131D01*
X148273400Y-98887957D01*
X148273400Y-99130443D01*
X148320707Y-99368269D01*
X148413502Y-99592297D01*
X148548220Y-99793917D01*
X148588983Y-99834680D01*
X147869726Y-99834680D01*
X147942047Y-99757252D01*
X148069199Y-99552149D01*
X148153895Y-99326181D01*
X148093587Y-99136200D01*
X147091400Y-99136200D01*
X147091400Y-99156200D01*
X146837400Y-99156200D01*
X146837400Y-99136200D01*
X145835213Y-99136200D01*
X145774905Y-99326181D01*
X145859601Y-99552149D01*
X145986753Y-99757252D01*
X146059074Y-99834680D01*
X143591325Y-99834680D01*
X142967329Y-99210686D01*
X142953008Y-99193236D01*
X142883391Y-99136102D01*
X142803964Y-99093648D01*
X142717782Y-99067504D01*
X142650615Y-99060889D01*
X142650605Y-99060889D01*
X142628155Y-99058678D01*
X142605705Y-99060889D01*
X135835361Y-99060889D01*
X135812911Y-99058678D01*
X135790461Y-99060889D01*
X135790451Y-99060889D01*
X135723284Y-99067504D01*
X135657160Y-99087563D01*
X135637101Y-99093648D01*
X135557675Y-99136102D01*
X135505503Y-99178918D01*
X135505497Y-99178924D01*
X135488058Y-99193236D01*
X135473746Y-99210675D01*
X134914467Y-99769955D01*
X134788569Y-99717807D01*
X134550743Y-99670500D01*
X134308257Y-99670500D01*
X134070431Y-99717807D01*
X133846403Y-99810602D01*
X133644783Y-99945320D01*
X133473320Y-100116783D01*
X133338602Y-100318403D01*
X133245807Y-100542431D01*
X133198500Y-100780257D01*
X133198500Y-101022743D01*
X133245807Y-101260569D01*
X133338602Y-101484597D01*
X133396001Y-101570501D01*
X132922999Y-101570501D01*
X132980398Y-101484597D01*
X133073193Y-101260569D01*
X133120500Y-101022743D01*
X133120500Y-100780257D01*
X133073193Y-100542431D01*
X132980398Y-100318403D01*
X132845680Y-100116783D01*
X132674217Y-99945320D01*
X132472597Y-99810602D01*
X132248569Y-99717807D01*
X132010743Y-99670500D01*
X131768257Y-99670500D01*
X131530431Y-99717807D01*
X131306403Y-99810602D01*
X131104783Y-99945320D01*
X130933320Y-100116783D01*
X130798602Y-100318403D01*
X130705807Y-100542431D01*
X130658500Y-100780257D01*
X130658500Y-101022743D01*
X130705807Y-101260569D01*
X130798602Y-101484597D01*
X130856001Y-101570501D01*
X130376154Y-101570501D01*
X130454299Y-101444449D01*
X130538995Y-101218481D01*
X130478687Y-101028500D01*
X129476500Y-101028500D01*
X129476500Y-101048500D01*
X129222500Y-101048500D01*
X129222500Y-101028500D01*
X128220313Y-101028500D01*
X128160005Y-101218481D01*
X128244701Y-101444449D01*
X128322846Y-101570501D01*
X127842999Y-101570501D01*
X127900398Y-101484597D01*
X127993193Y-101260569D01*
X128040500Y-101022743D01*
X128040500Y-100780257D01*
X128001565Y-100584519D01*
X128160005Y-100584519D01*
X128220313Y-100774500D01*
X129222500Y-100774500D01*
X129222500Y-99772873D01*
X129476500Y-99772873D01*
X129476500Y-100774500D01*
X130478687Y-100774500D01*
X130538995Y-100584519D01*
X130454299Y-100358551D01*
X130327147Y-100153448D01*
X130162424Y-99977092D01*
X129966461Y-99836261D01*
X129746788Y-99736366D01*
X129666480Y-99712011D01*
X129476500Y-99772873D01*
X129222500Y-99772873D01*
X129032520Y-99712011D01*
X128952212Y-99736366D01*
X128732539Y-99836261D01*
X128536576Y-99977092D01*
X128371853Y-100153448D01*
X128244701Y-100358551D01*
X128160005Y-100584519D01*
X128001565Y-100584519D01*
X127993193Y-100542431D01*
X127900398Y-100318403D01*
X127765680Y-100116783D01*
X127594217Y-99945320D01*
X127392597Y-99810602D01*
X127168569Y-99717807D01*
X126930743Y-99670500D01*
X126688257Y-99670500D01*
X126450431Y-99717807D01*
X126226403Y-99810602D01*
X126024783Y-99945320D01*
X125853320Y-100116783D01*
X125718602Y-100318403D01*
X125625807Y-100542431D01*
X125578500Y-100780257D01*
X125578500Y-101022743D01*
X125625807Y-101260569D01*
X125718602Y-101484597D01*
X125776001Y-101570501D01*
X125585080Y-101570501D01*
X125502343Y-101487764D01*
X125502343Y-100051500D01*
X125494987Y-99976811D01*
X125473201Y-99904992D01*
X125437822Y-99838804D01*
X125390211Y-99780789D01*
X125332196Y-99733178D01*
X125266008Y-99697799D01*
X125194189Y-99676013D01*
X125119500Y-99668657D01*
X123419500Y-99668657D01*
X123344811Y-99676013D01*
X123272992Y-99697799D01*
X123206804Y-99733178D01*
X123148789Y-99780789D01*
X123101178Y-99838804D01*
X123065799Y-99904992D01*
X123044013Y-99976811D01*
X123036657Y-100051500D01*
X123036657Y-101751500D01*
X123044013Y-101826189D01*
X123065799Y-101898008D01*
X123069429Y-101904800D01*
X122119379Y-101904800D01*
X119093725Y-98879148D01*
X119262904Y-98912800D01*
X119446296Y-98912800D01*
X119626163Y-98877022D01*
X119795594Y-98806842D01*
X119948078Y-98704955D01*
X119976850Y-98676184D01*
X120033337Y-98732671D01*
X120107079Y-98658929D01*
X120162560Y-98806282D01*
X120331902Y-98876677D01*
X120511724Y-98912683D01*
X120695114Y-98912915D01*
X120875027Y-98877366D01*
X121044547Y-98807400D01*
X121046640Y-98806282D01*
X121089586Y-98692219D01*
X145774905Y-98692219D01*
X145835213Y-98882200D01*
X146837400Y-98882200D01*
X146837400Y-97880573D01*
X147091400Y-97880573D01*
X147091400Y-98882200D01*
X148093587Y-98882200D01*
X148153895Y-98692219D01*
X148069199Y-98466251D01*
X147942047Y-98261148D01*
X147777324Y-98084792D01*
X147581361Y-97943961D01*
X147361688Y-97844066D01*
X147281380Y-97819711D01*
X147091400Y-97880573D01*
X146837400Y-97880573D01*
X146647420Y-97819711D01*
X146567112Y-97844066D01*
X146347439Y-97943961D01*
X146151476Y-98084792D01*
X145986753Y-98261148D01*
X145859601Y-98466251D01*
X145774905Y-98692219D01*
X121089586Y-98692219D01*
X121102122Y-98658927D01*
X120604600Y-98161405D01*
X120590458Y-98175548D01*
X120410853Y-97995943D01*
X120424995Y-97981800D01*
X120410853Y-97967658D01*
X120590458Y-97788053D01*
X120604600Y-97802195D01*
X120618743Y-97788053D01*
X120798348Y-97967658D01*
X120784205Y-97981800D01*
X121281727Y-98479322D01*
X121429082Y-98423840D01*
X121499477Y-98254498D01*
X121535483Y-98074676D01*
X121535715Y-97891286D01*
X121500166Y-97711373D01*
X121430200Y-97541853D01*
X121429082Y-97539760D01*
X121281729Y-97484279D01*
X121355471Y-97410537D01*
X121298984Y-97354050D01*
X121327755Y-97325278D01*
X121429642Y-97172794D01*
X121499822Y-97003363D01*
X121535600Y-96823496D01*
X121535600Y-96640104D01*
X121499822Y-96460237D01*
X121429642Y-96290806D01*
X121327755Y-96138322D01*
X121296233Y-96106800D01*
X121327755Y-96075278D01*
X121429642Y-95922794D01*
X121499822Y-95753363D01*
X121535600Y-95573496D01*
X121535600Y-95390104D01*
X121499822Y-95210237D01*
X121429642Y-95040806D01*
X121327755Y-94888322D01*
X121296233Y-94856800D01*
X121327755Y-94825278D01*
X121429642Y-94672794D01*
X121499822Y-94503363D01*
X121535600Y-94323496D01*
X121535600Y-94140104D01*
X121499822Y-93960237D01*
X121429642Y-93790806D01*
X121327755Y-93638322D01*
X121296233Y-93606800D01*
X121327755Y-93575278D01*
X121429642Y-93422794D01*
X121499822Y-93253363D01*
X121535600Y-93073496D01*
X121535600Y-92890104D01*
X121499822Y-92710237D01*
X121429642Y-92540806D01*
X121327755Y-92388322D01*
X121306233Y-92366800D01*
X121351236Y-92366800D01*
X121382417Y-92369871D01*
X121413598Y-92366800D01*
X121413609Y-92366800D01*
X121506899Y-92357612D01*
X121626597Y-92321302D01*
X121736911Y-92262337D01*
X121833602Y-92182985D01*
X121853491Y-92158750D01*
X124468807Y-89543434D01*
X129054979Y-89543434D01*
X129054979Y-90234650D01*
X129189828Y-90912586D01*
X129454346Y-91551187D01*
X129838365Y-92125913D01*
X130327129Y-92614677D01*
X130901855Y-92998696D01*
X131540456Y-93263214D01*
X132218392Y-93398063D01*
X132909608Y-93398063D01*
X133587544Y-93263214D01*
X134226145Y-92998696D01*
X134800871Y-92614677D01*
X135289635Y-92125913D01*
X135673654Y-91551187D01*
X135938172Y-90912586D01*
X136073021Y-90234650D01*
X136073021Y-89543434D01*
X135938172Y-88865498D01*
X135673654Y-88226897D01*
X135535032Y-88019434D01*
X152930979Y-88019434D01*
X152930979Y-88710650D01*
X153065828Y-89388586D01*
X153330346Y-90027187D01*
X153714365Y-90601913D01*
X154203129Y-91090677D01*
X154777855Y-91474696D01*
X155416456Y-91739214D01*
X156094392Y-91874063D01*
X156785608Y-91874063D01*
X157463544Y-91739214D01*
X158102145Y-91474696D01*
X158676871Y-91090677D01*
X159165635Y-90601913D01*
X159549654Y-90027187D01*
X159814172Y-89388586D01*
X159949021Y-88710650D01*
X159949021Y-88019434D01*
X159814172Y-87341498D01*
X159549654Y-86702897D01*
X159165635Y-86128171D01*
X158676871Y-85639407D01*
X158102145Y-85255388D01*
X157463544Y-84990870D01*
X156785608Y-84856021D01*
X156094392Y-84856021D01*
X155416456Y-84990870D01*
X154777855Y-85255388D01*
X154203129Y-85639407D01*
X153714365Y-86128171D01*
X153330346Y-86702897D01*
X153065828Y-87341498D01*
X152930979Y-88019434D01*
X135535032Y-88019434D01*
X135289635Y-87652171D01*
X134800871Y-87163407D01*
X134226145Y-86779388D01*
X133587544Y-86514870D01*
X132909608Y-86380021D01*
X132218392Y-86380021D01*
X131540456Y-86514870D01*
X130901855Y-86779388D01*
X130327129Y-87163407D01*
X129838365Y-87652171D01*
X129454346Y-88226897D01*
X129189828Y-88865498D01*
X129054979Y-89543434D01*
X124468807Y-89543434D01*
X132151361Y-81860882D01*
X132175585Y-81841002D01*
X132195465Y-81816778D01*
X132195469Y-81816774D01*
X132254938Y-81744311D01*
X132313902Y-81633997D01*
X132350212Y-81514299D01*
X132359400Y-81421009D01*
X132359400Y-81421006D01*
X132362472Y-81389817D01*
X132359400Y-81358628D01*
X132359400Y-80786818D01*
X132509117Y-80686780D01*
X132680580Y-80515317D01*
X132728600Y-80443450D01*
X132728600Y-80712340D01*
X132726388Y-80734799D01*
X132728600Y-80757259D01*
X132729265Y-80764006D01*
X132735215Y-80824425D01*
X132761359Y-80910608D01*
X132785668Y-80956087D01*
X132803813Y-80990035D01*
X132860947Y-81059652D01*
X132878392Y-81073969D01*
X135423835Y-83619414D01*
X135438147Y-83636853D01*
X135455586Y-83651165D01*
X135455592Y-83651171D01*
X135507764Y-83693987D01*
X135587190Y-83736441D01*
X135607249Y-83742526D01*
X135673373Y-83762585D01*
X135740540Y-83769200D01*
X135740550Y-83769200D01*
X135763000Y-83771411D01*
X135785450Y-83769200D01*
X138878175Y-83769200D01*
X138914211Y-83805236D01*
X139018215Y-83874729D01*
X139133777Y-83922597D01*
X139256458Y-83947000D01*
X139381542Y-83947000D01*
X139504223Y-83922597D01*
X139619785Y-83874729D01*
X139723789Y-83805236D01*
X139812236Y-83716789D01*
X139881729Y-83612785D01*
X139929597Y-83497223D01*
X139954000Y-83374542D01*
X139954000Y-83249458D01*
X139929597Y-83126777D01*
X139881729Y-83011215D01*
X139812236Y-82907211D01*
X139723789Y-82818764D01*
X139619785Y-82749271D01*
X139504223Y-82701403D01*
X139381542Y-82677000D01*
X139256458Y-82677000D01*
X139133777Y-82701403D01*
X139018215Y-82749271D01*
X138914211Y-82818764D01*
X138878175Y-82854800D01*
X135952379Y-82854800D01*
X134038325Y-80940747D01*
X134143157Y-80961600D01*
X134385643Y-80961600D01*
X134623469Y-80914293D01*
X134847497Y-80821498D01*
X135049117Y-80686780D01*
X135220580Y-80515317D01*
X135355298Y-80313697D01*
X135448093Y-80089669D01*
X135495400Y-79851843D01*
X135495400Y-79609357D01*
X135573400Y-79609357D01*
X135573400Y-79851843D01*
X135620707Y-80089669D01*
X135713502Y-80313697D01*
X135848220Y-80515317D01*
X136019683Y-80686780D01*
X136221303Y-80821498D01*
X136445331Y-80914293D01*
X136683157Y-80961600D01*
X136925643Y-80961600D01*
X137163469Y-80914293D01*
X137387497Y-80821498D01*
X137589117Y-80686780D01*
X137760580Y-80515317D01*
X137895298Y-80313697D01*
X137988093Y-80089669D01*
X138035400Y-79851843D01*
X138035400Y-79609357D01*
X138113400Y-79609357D01*
X138113400Y-79851843D01*
X138160707Y-80089669D01*
X138253502Y-80313697D01*
X138388220Y-80515317D01*
X138559683Y-80686780D01*
X138761303Y-80821498D01*
X138985331Y-80914293D01*
X139223157Y-80961600D01*
X139465643Y-80961600D01*
X139703469Y-80914293D01*
X139927497Y-80821498D01*
X140129117Y-80686780D01*
X140300580Y-80515317D01*
X140435298Y-80313697D01*
X140528093Y-80089669D01*
X140575400Y-79851843D01*
X140575400Y-79609357D01*
X140653400Y-79609357D01*
X140653400Y-79851843D01*
X140700707Y-80089669D01*
X140793502Y-80313697D01*
X140928220Y-80515317D01*
X141099683Y-80686780D01*
X141301303Y-80821498D01*
X141525331Y-80914293D01*
X141763157Y-80961600D01*
X142005643Y-80961600D01*
X142243469Y-80914293D01*
X142467497Y-80821498D01*
X142669117Y-80686780D01*
X142840580Y-80515317D01*
X142975298Y-80313697D01*
X143068093Y-80089669D01*
X143115400Y-79851843D01*
X143115400Y-79609357D01*
X143068093Y-79371531D01*
X142975298Y-79147503D01*
X142842634Y-78948957D01*
X146292200Y-78948957D01*
X146292200Y-79191443D01*
X146339507Y-79429269D01*
X146432302Y-79653297D01*
X146567020Y-79854917D01*
X146738483Y-80026380D01*
X146940103Y-80161098D01*
X147164131Y-80253893D01*
X147401957Y-80301200D01*
X147644443Y-80301200D01*
X147882269Y-80253893D01*
X148106297Y-80161098D01*
X148307917Y-80026380D01*
X148479380Y-79854917D01*
X148614098Y-79653297D01*
X148706893Y-79429269D01*
X148715264Y-79387181D01*
X148873705Y-79387181D01*
X148958401Y-79613149D01*
X149085553Y-79818252D01*
X149250276Y-79994608D01*
X149446239Y-80135439D01*
X149665912Y-80235334D01*
X149746220Y-80259689D01*
X149936200Y-80198827D01*
X149936200Y-79197200D01*
X150190200Y-79197200D01*
X150190200Y-80198827D01*
X150380180Y-80259689D01*
X150460488Y-80235334D01*
X150680161Y-80135439D01*
X150876124Y-79994608D01*
X151040847Y-79818252D01*
X151167999Y-79613149D01*
X151252695Y-79387181D01*
X151192387Y-79197200D01*
X150190200Y-79197200D01*
X149936200Y-79197200D01*
X148934013Y-79197200D01*
X148873705Y-79387181D01*
X148715264Y-79387181D01*
X148754200Y-79191443D01*
X148754200Y-78948957D01*
X151372200Y-78948957D01*
X151372200Y-79191443D01*
X151419507Y-79429269D01*
X151512302Y-79653297D01*
X151647020Y-79854917D01*
X151818483Y-80026380D01*
X152020103Y-80161098D01*
X152244131Y-80253893D01*
X152481957Y-80301200D01*
X152724443Y-80301200D01*
X152962269Y-80253893D01*
X153186297Y-80161098D01*
X153387917Y-80026380D01*
X153559380Y-79854917D01*
X153694098Y-79653297D01*
X153786893Y-79429269D01*
X153834200Y-79191443D01*
X153834200Y-78948957D01*
X153912200Y-78948957D01*
X153912200Y-79191443D01*
X153959507Y-79429269D01*
X154052302Y-79653297D01*
X154187020Y-79854917D01*
X154358483Y-80026380D01*
X154560103Y-80161098D01*
X154784131Y-80253893D01*
X155021957Y-80301200D01*
X155264443Y-80301200D01*
X155502269Y-80253893D01*
X155726297Y-80161098D01*
X155927917Y-80026380D01*
X156099380Y-79854917D01*
X156234098Y-79653297D01*
X156326893Y-79429269D01*
X156374200Y-79191443D01*
X156374200Y-78948957D01*
X156452200Y-78948957D01*
X156452200Y-79191443D01*
X156499507Y-79429269D01*
X156592302Y-79653297D01*
X156727020Y-79854917D01*
X156898483Y-80026380D01*
X157100103Y-80161098D01*
X157324131Y-80253893D01*
X157561957Y-80301200D01*
X157804443Y-80301200D01*
X158042269Y-80253893D01*
X158266297Y-80161098D01*
X158467917Y-80026380D01*
X158639380Y-79854917D01*
X158774098Y-79653297D01*
X158866893Y-79429269D01*
X158914200Y-79191443D01*
X158914200Y-78948957D01*
X158992200Y-78948957D01*
X158992200Y-79191443D01*
X159039507Y-79429269D01*
X159132302Y-79653297D01*
X159267020Y-79854917D01*
X159438483Y-80026380D01*
X159640103Y-80161098D01*
X159864131Y-80253893D01*
X160101957Y-80301200D01*
X160344443Y-80301200D01*
X160582269Y-80253893D01*
X160806297Y-80161098D01*
X161007917Y-80026380D01*
X161179380Y-79854917D01*
X161314098Y-79653297D01*
X161406893Y-79429269D01*
X161454200Y-79191443D01*
X161454200Y-78948957D01*
X161532200Y-78948957D01*
X161532200Y-79191443D01*
X161579507Y-79429269D01*
X161672302Y-79653297D01*
X161807020Y-79854917D01*
X161978483Y-80026380D01*
X162180103Y-80161098D01*
X162404131Y-80253893D01*
X162641957Y-80301200D01*
X162884443Y-80301200D01*
X163122269Y-80253893D01*
X163346297Y-80161098D01*
X163547917Y-80026380D01*
X163719380Y-79854917D01*
X163854098Y-79653297D01*
X163946893Y-79429269D01*
X163994200Y-79191443D01*
X163994200Y-78948957D01*
X163946893Y-78711131D01*
X163854098Y-78487103D01*
X163719380Y-78285483D01*
X163654097Y-78220200D01*
X164070357Y-78220200D01*
X164070357Y-79920200D01*
X164077713Y-79994889D01*
X164099499Y-80066708D01*
X164134878Y-80132896D01*
X164182489Y-80190911D01*
X164240504Y-80238522D01*
X164306692Y-80273901D01*
X164378511Y-80295687D01*
X164453200Y-80303043D01*
X166153200Y-80303043D01*
X166227889Y-80295687D01*
X166299708Y-80273901D01*
X166365896Y-80238522D01*
X166423911Y-80190911D01*
X166471522Y-80132896D01*
X166506901Y-80066708D01*
X166528687Y-79994889D01*
X166536043Y-79920200D01*
X166536043Y-78220200D01*
X166528687Y-78145511D01*
X166506901Y-78073692D01*
X166471522Y-78007504D01*
X166423911Y-77949489D01*
X166365896Y-77901878D01*
X166299708Y-77866499D01*
X166227889Y-77844713D01*
X166153200Y-77837357D01*
X164453200Y-77837357D01*
X164378511Y-77844713D01*
X164306692Y-77866499D01*
X164240504Y-77901878D01*
X164182489Y-77949489D01*
X164134878Y-78007504D01*
X164099499Y-78073692D01*
X164077713Y-78145511D01*
X164070357Y-78220200D01*
X163654097Y-78220200D01*
X163547917Y-78114020D01*
X163346297Y-77979302D01*
X163122269Y-77886507D01*
X162884443Y-77839200D01*
X162641957Y-77839200D01*
X162404131Y-77886507D01*
X162180103Y-77979302D01*
X161978483Y-78114020D01*
X161807020Y-78285483D01*
X161672302Y-78487103D01*
X161579507Y-78711131D01*
X161532200Y-78948957D01*
X161454200Y-78948957D01*
X161406893Y-78711131D01*
X161314098Y-78487103D01*
X161179380Y-78285483D01*
X161007917Y-78114020D01*
X160806297Y-77979302D01*
X160582269Y-77886507D01*
X160344443Y-77839200D01*
X160101957Y-77839200D01*
X159864131Y-77886507D01*
X159640103Y-77979302D01*
X159438483Y-78114020D01*
X159267020Y-78285483D01*
X159132302Y-78487103D01*
X159039507Y-78711131D01*
X158992200Y-78948957D01*
X158914200Y-78948957D01*
X158866893Y-78711131D01*
X158774098Y-78487103D01*
X158639380Y-78285483D01*
X158467917Y-78114020D01*
X158266297Y-77979302D01*
X158042269Y-77886507D01*
X157804443Y-77839200D01*
X157561957Y-77839200D01*
X157324131Y-77886507D01*
X157100103Y-77979302D01*
X156898483Y-78114020D01*
X156727020Y-78285483D01*
X156592302Y-78487103D01*
X156499507Y-78711131D01*
X156452200Y-78948957D01*
X156374200Y-78948957D01*
X156326893Y-78711131D01*
X156234098Y-78487103D01*
X156099380Y-78285483D01*
X155927917Y-78114020D01*
X155726297Y-77979302D01*
X155502269Y-77886507D01*
X155264443Y-77839200D01*
X155021957Y-77839200D01*
X154784131Y-77886507D01*
X154560103Y-77979302D01*
X154358483Y-78114020D01*
X154187020Y-78285483D01*
X154052302Y-78487103D01*
X153959507Y-78711131D01*
X153912200Y-78948957D01*
X153834200Y-78948957D01*
X153786893Y-78711131D01*
X153694098Y-78487103D01*
X153559380Y-78285483D01*
X153387917Y-78114020D01*
X153186297Y-77979302D01*
X152962269Y-77886507D01*
X152724443Y-77839200D01*
X152481957Y-77839200D01*
X152244131Y-77886507D01*
X152020103Y-77979302D01*
X151818483Y-78114020D01*
X151647020Y-78285483D01*
X151512302Y-78487103D01*
X151419507Y-78711131D01*
X151372200Y-78948957D01*
X148754200Y-78948957D01*
X148715265Y-78753219D01*
X148873705Y-78753219D01*
X148934013Y-78943200D01*
X149936200Y-78943200D01*
X149936200Y-77941573D01*
X150190200Y-77941573D01*
X150190200Y-78943200D01*
X151192387Y-78943200D01*
X151252695Y-78753219D01*
X151167999Y-78527251D01*
X151040847Y-78322148D01*
X150876124Y-78145792D01*
X150680161Y-78004961D01*
X150460488Y-77905066D01*
X150380180Y-77880711D01*
X150190200Y-77941573D01*
X149936200Y-77941573D01*
X149746220Y-77880711D01*
X149665912Y-77905066D01*
X149446239Y-78004961D01*
X149250276Y-78145792D01*
X149085553Y-78322148D01*
X148958401Y-78527251D01*
X148873705Y-78753219D01*
X148715265Y-78753219D01*
X148706893Y-78711131D01*
X148614098Y-78487103D01*
X148479380Y-78285483D01*
X148307917Y-78114020D01*
X148106297Y-77979302D01*
X147882269Y-77886507D01*
X147644443Y-77839200D01*
X147401957Y-77839200D01*
X147164131Y-77886507D01*
X146940103Y-77979302D01*
X146738483Y-78114020D01*
X146567020Y-78285483D01*
X146432302Y-78487103D01*
X146339507Y-78711131D01*
X146292200Y-78948957D01*
X142842634Y-78948957D01*
X142840580Y-78945883D01*
X142669117Y-78774420D01*
X142467497Y-78639702D01*
X142243469Y-78546907D01*
X142005643Y-78499600D01*
X141763157Y-78499600D01*
X141525331Y-78546907D01*
X141301303Y-78639702D01*
X141099683Y-78774420D01*
X140928220Y-78945883D01*
X140793502Y-79147503D01*
X140700707Y-79371531D01*
X140653400Y-79609357D01*
X140575400Y-79609357D01*
X140528093Y-79371531D01*
X140435298Y-79147503D01*
X140300580Y-78945883D01*
X140129117Y-78774420D01*
X139927497Y-78639702D01*
X139703469Y-78546907D01*
X139465643Y-78499600D01*
X139223157Y-78499600D01*
X138985331Y-78546907D01*
X138761303Y-78639702D01*
X138559683Y-78774420D01*
X138388220Y-78945883D01*
X138253502Y-79147503D01*
X138160707Y-79371531D01*
X138113400Y-79609357D01*
X138035400Y-79609357D01*
X137988093Y-79371531D01*
X137895298Y-79147503D01*
X137760580Y-78945883D01*
X137589117Y-78774420D01*
X137387497Y-78639702D01*
X137163469Y-78546907D01*
X136925643Y-78499600D01*
X136683157Y-78499600D01*
X136445331Y-78546907D01*
X136221303Y-78639702D01*
X136019683Y-78774420D01*
X135848220Y-78945883D01*
X135713502Y-79147503D01*
X135620707Y-79371531D01*
X135573400Y-79609357D01*
X135495400Y-79609357D01*
X135448093Y-79371531D01*
X135355298Y-79147503D01*
X135220580Y-78945883D01*
X135049117Y-78774420D01*
X134847497Y-78639702D01*
X134623469Y-78546907D01*
X134385643Y-78499600D01*
X134143157Y-78499600D01*
X133905331Y-78546907D01*
X133681303Y-78639702D01*
X133479683Y-78774420D01*
X133308220Y-78945883D01*
X133257900Y-79021192D01*
X132581303Y-78344596D01*
X132566982Y-78327146D01*
X132497365Y-78270012D01*
X132417938Y-78227558D01*
X132331756Y-78201414D01*
X132264589Y-78194799D01*
X132264579Y-78194799D01*
X132242129Y-78192588D01*
X132219679Y-78194799D01*
X127745450Y-78194799D01*
X127723000Y-78192588D01*
X127700550Y-78194799D01*
X127700541Y-78194799D01*
X127633374Y-78201414D01*
X127547192Y-78227558D01*
X127467765Y-78270012D01*
X127398148Y-78327146D01*
X127383831Y-78344591D01*
X127129367Y-78599055D01*
X127003469Y-78546907D01*
X126765643Y-78499600D01*
X126523157Y-78499600D01*
X126285331Y-78546907D01*
X126061303Y-78639702D01*
X125859683Y-78774420D01*
X125688220Y-78945883D01*
X125553502Y-79147503D01*
X125460707Y-79371531D01*
X125413400Y-79609357D01*
X125413400Y-79851843D01*
X125460707Y-80089669D01*
X125553502Y-80313697D01*
X125688220Y-80515317D01*
X125859683Y-80686780D01*
X126061303Y-80821498D01*
X126285331Y-80914293D01*
X126523157Y-80961600D01*
X126765643Y-80961600D01*
X127003469Y-80914293D01*
X127227497Y-80821498D01*
X127429117Y-80686780D01*
X127600580Y-80515317D01*
X127735298Y-80313697D01*
X127828093Y-80089669D01*
X127875400Y-79851843D01*
X127875400Y-79609357D01*
X127828093Y-79371531D01*
X127775945Y-79245633D01*
X127912379Y-79109199D01*
X128119096Y-79109199D01*
X128093502Y-79147503D01*
X128000707Y-79371531D01*
X127953400Y-79609357D01*
X127953400Y-79851843D01*
X128000707Y-80089669D01*
X128093502Y-80313697D01*
X128228220Y-80515317D01*
X128399683Y-80686780D01*
X128601303Y-80821498D01*
X128825331Y-80914293D01*
X129063157Y-80961600D01*
X129305643Y-80961600D01*
X129543469Y-80914293D01*
X129767497Y-80821498D01*
X129969117Y-80686780D01*
X130140580Y-80515317D01*
X130275298Y-80313697D01*
X130368093Y-80089669D01*
X130415400Y-79851843D01*
X130415400Y-79609357D01*
X130368093Y-79371531D01*
X130275298Y-79147503D01*
X130249704Y-79109199D01*
X130659096Y-79109199D01*
X130633502Y-79147503D01*
X130540707Y-79371531D01*
X130493400Y-79609357D01*
X130493400Y-79851843D01*
X130540707Y-80089669D01*
X130633502Y-80313697D01*
X130768220Y-80515317D01*
X130939683Y-80686780D01*
X131089401Y-80786818D01*
X131089401Y-81126790D01*
X121509007Y-90707186D01*
X121535600Y-90573496D01*
X121535600Y-90390104D01*
X121499822Y-90210237D01*
X121429642Y-90040806D01*
X121327755Y-89888322D01*
X121296233Y-89856800D01*
X121327755Y-89825278D01*
X121429642Y-89672794D01*
X121499822Y-89503363D01*
X121535600Y-89323496D01*
X121535600Y-89140104D01*
X121499822Y-88960237D01*
X121429642Y-88790806D01*
X121327755Y-88638322D01*
X121296233Y-88606800D01*
X121327755Y-88575278D01*
X121429642Y-88422794D01*
X121499822Y-88253363D01*
X121535600Y-88073496D01*
X121535600Y-87890104D01*
X121499822Y-87710237D01*
X121429642Y-87540806D01*
X121327755Y-87388322D01*
X121296233Y-87356800D01*
X121327755Y-87325278D01*
X121429642Y-87172794D01*
X121499822Y-87003363D01*
X121535600Y-86823496D01*
X121535600Y-86640104D01*
X121499822Y-86460237D01*
X121429642Y-86290806D01*
X121327755Y-86138322D01*
X121296233Y-86106800D01*
X121327755Y-86075278D01*
X121429642Y-85922794D01*
X121499822Y-85753363D01*
X121535600Y-85573496D01*
X121535600Y-85390104D01*
X121499822Y-85210237D01*
X121429642Y-85040806D01*
X121327755Y-84888322D01*
X121296233Y-84856800D01*
X121327755Y-84825278D01*
X121429642Y-84672794D01*
X121499822Y-84503363D01*
X121535600Y-84323496D01*
X121535600Y-84140104D01*
X121499822Y-83960237D01*
X121429642Y-83790806D01*
X121327755Y-83638322D01*
X121296233Y-83606800D01*
X121327755Y-83575278D01*
X121429642Y-83422794D01*
X121499822Y-83253363D01*
X121535600Y-83073496D01*
X121535600Y-82890104D01*
X121499822Y-82710237D01*
X121429642Y-82540806D01*
X121327755Y-82388322D01*
X121198078Y-82258645D01*
X121045594Y-82156758D01*
X120876163Y-82086578D01*
X120696296Y-82050800D01*
X120512904Y-82050800D01*
X120333037Y-82086578D01*
X120163606Y-82156758D01*
X120011122Y-82258645D01*
X119979600Y-82290167D01*
X119948078Y-82258645D01*
X119795594Y-82156758D01*
X119626163Y-82086578D01*
X119446296Y-82050800D01*
X119262904Y-82050800D01*
X119083037Y-82086578D01*
X118913606Y-82156758D01*
X118761122Y-82258645D01*
X118631445Y-82388322D01*
X118529558Y-82540806D01*
X118459378Y-82710237D01*
X118423600Y-82890104D01*
X118423600Y-83073496D01*
X118459378Y-83253363D01*
X118529558Y-83422794D01*
X118631445Y-83575278D01*
X118662967Y-83606800D01*
X118631445Y-83638322D01*
X118529558Y-83790806D01*
X118459378Y-83960237D01*
X118423600Y-84140104D01*
X118423600Y-84323496D01*
X118459378Y-84503363D01*
X118529558Y-84672794D01*
X118631445Y-84825278D01*
X118662967Y-84856800D01*
X118631445Y-84888322D01*
X118529558Y-85040806D01*
X118459378Y-85210237D01*
X118423600Y-85390104D01*
X118423600Y-85573496D01*
X118459378Y-85753363D01*
X118529558Y-85922794D01*
X118631445Y-86075278D01*
X118662967Y-86106800D01*
X118631445Y-86138322D01*
X118529558Y-86290806D01*
X118459378Y-86460237D01*
X118423600Y-86640104D01*
X118423600Y-86823496D01*
X118459378Y-87003363D01*
X118529558Y-87172794D01*
X118631445Y-87325278D01*
X118662967Y-87356800D01*
X118631445Y-87388322D01*
X118529558Y-87540806D01*
X118459378Y-87710237D01*
X118423600Y-87890104D01*
X118423600Y-88073496D01*
X118459378Y-88253363D01*
X118529558Y-88422794D01*
X118631445Y-88575278D01*
X118662967Y-88606800D01*
X118631445Y-88638322D01*
X118529558Y-88790806D01*
X118459378Y-88960237D01*
X118423600Y-89140104D01*
X118423600Y-89323496D01*
X118455576Y-89484247D01*
X117052979Y-90886844D01*
X117035529Y-90901165D01*
X116978395Y-90970783D01*
X116935941Y-91050210D01*
X116909797Y-91136392D01*
X116903182Y-91203559D01*
X116903182Y-91203568D01*
X116900971Y-91226018D01*
X114891500Y-91226018D01*
X114891500Y-78880600D01*
X122871557Y-78880600D01*
X122871557Y-80580600D01*
X122878913Y-80655289D01*
X122900699Y-80727108D01*
X122936078Y-80793296D01*
X122983689Y-80851311D01*
X123041704Y-80898922D01*
X123107892Y-80934301D01*
X123179711Y-80956087D01*
X123254400Y-80963443D01*
X124954400Y-80963443D01*
X125029089Y-80956087D01*
X125100908Y-80934301D01*
X125167096Y-80898922D01*
X125225111Y-80851311D01*
X125272722Y-80793296D01*
X125308101Y-80727108D01*
X125329887Y-80655289D01*
X125337243Y-80580600D01*
X125337243Y-78880600D01*
X125329887Y-78805911D01*
X125308101Y-78734092D01*
X125272722Y-78667904D01*
X125225111Y-78609889D01*
X125167096Y-78562278D01*
X125100908Y-78526899D01*
X125029089Y-78505113D01*
X124954400Y-78497757D01*
X123254400Y-78497757D01*
X123179711Y-78505113D01*
X123107892Y-78526899D01*
X123041704Y-78562278D01*
X122983689Y-78609889D01*
X122936078Y-78667904D01*
X122900699Y-78734092D01*
X122878913Y-78805911D01*
X122871557Y-78880600D01*
X114891500Y-78880600D01*
X114891500Y-77411895D01*
X114914244Y-77179931D01*
X114975847Y-76975894D01*
X115075908Y-76787706D01*
X115210609Y-76622547D01*
X115374831Y-76486690D01*
X115562314Y-76385318D01*
X115765911Y-76322294D01*
X115996658Y-76298042D01*
X169965647Y-76298042D01*
X170197611Y-76320786D01*
G37*
%TD.AperFunction*%
%TD*%
M02*
