%TF.GenerationSoftware,KiCad,Pcbnew,(5.1.12)-1*%
%TF.CreationDate,2023-02-16T02:19:06-06:00*%
%TF.ProjectId,perovskite_routing_board,7065726f-7673-46b6-9974-655f726f7574,A*%
%TF.SameCoordinates,Original*%
%TF.FileFunction,Paste,Top*%
%TF.FilePolarity,Positive*%
%FSLAX46Y46*%
G04 Gerber Fmt 4.6, Leading zero omitted, Abs format (unit mm)*
G04 Created by KiCad (PCBNEW (5.1.12)-1) date 2023-02-16 02:19:06*
%MOMM*%
%LPD*%
G01*
G04 APERTURE LIST*
G04 APERTURE END LIST*
%TO.C,C2*%
G36*
G01*
X144403000Y-79382500D02*
X144903000Y-79382500D01*
G75*
G02*
X145128000Y-79607500I0J-225000D01*
G01*
X145128000Y-80057500D01*
G75*
G02*
X144903000Y-80282500I-225000J0D01*
G01*
X144403000Y-80282500D01*
G75*
G02*
X144178000Y-80057500I0J225000D01*
G01*
X144178000Y-79607500D01*
G75*
G02*
X144403000Y-79382500I225000J0D01*
G01*
G37*
G36*
G01*
X144403000Y-77832500D02*
X144903000Y-77832500D01*
G75*
G02*
X145128000Y-78057500I0J-225000D01*
G01*
X145128000Y-78507500D01*
G75*
G02*
X144903000Y-78732500I-225000J0D01*
G01*
X144403000Y-78732500D01*
G75*
G02*
X144178000Y-78507500I0J225000D01*
G01*
X144178000Y-78057500D01*
G75*
G02*
X144403000Y-77832500I225000J0D01*
G01*
G37*
%TD*%
%TO.C,C1*%
G36*
G01*
X147518000Y-109660500D02*
X147518000Y-109160500D01*
G75*
G02*
X147743000Y-108935500I225000J0D01*
G01*
X148193000Y-108935500D01*
G75*
G02*
X148418000Y-109160500I0J-225000D01*
G01*
X148418000Y-109660500D01*
G75*
G02*
X148193000Y-109885500I-225000J0D01*
G01*
X147743000Y-109885500D01*
G75*
G02*
X147518000Y-109660500I0J225000D01*
G01*
G37*
G36*
G01*
X145968000Y-109660500D02*
X145968000Y-109160500D01*
G75*
G02*
X146193000Y-108935500I225000J0D01*
G01*
X146643000Y-108935500D01*
G75*
G02*
X146868000Y-109160500I0J-225000D01*
G01*
X146868000Y-109660500D01*
G75*
G02*
X146643000Y-109885500I-225000J0D01*
G01*
X146193000Y-109885500D01*
G75*
G02*
X145968000Y-109660500I0J225000D01*
G01*
G37*
%TD*%
%TO.C,R5*%
G36*
G01*
X160041000Y-108541000D02*
X159491000Y-108541000D01*
G75*
G02*
X159291000Y-108341000I0J200000D01*
G01*
X159291000Y-107941000D01*
G75*
G02*
X159491000Y-107741000I200000J0D01*
G01*
X160041000Y-107741000D01*
G75*
G02*
X160241000Y-107941000I0J-200000D01*
G01*
X160241000Y-108341000D01*
G75*
G02*
X160041000Y-108541000I-200000J0D01*
G01*
G37*
G36*
G01*
X160041000Y-110191000D02*
X159491000Y-110191000D01*
G75*
G02*
X159291000Y-109991000I0J200000D01*
G01*
X159291000Y-109591000D01*
G75*
G02*
X159491000Y-109391000I200000J0D01*
G01*
X160041000Y-109391000D01*
G75*
G02*
X160241000Y-109591000I0J-200000D01*
G01*
X160241000Y-109991000D01*
G75*
G02*
X160041000Y-110191000I-200000J0D01*
G01*
G37*
%TD*%
%TO.C,R4*%
G36*
G01*
X139594000Y-84538000D02*
X139044000Y-84538000D01*
G75*
G02*
X138844000Y-84338000I0J200000D01*
G01*
X138844000Y-83938000D01*
G75*
G02*
X139044000Y-83738000I200000J0D01*
G01*
X139594000Y-83738000D01*
G75*
G02*
X139794000Y-83938000I0J-200000D01*
G01*
X139794000Y-84338000D01*
G75*
G02*
X139594000Y-84538000I-200000J0D01*
G01*
G37*
G36*
G01*
X139594000Y-86188000D02*
X139044000Y-86188000D01*
G75*
G02*
X138844000Y-85988000I0J200000D01*
G01*
X138844000Y-85588000D01*
G75*
G02*
X139044000Y-85388000I200000J0D01*
G01*
X139594000Y-85388000D01*
G75*
G02*
X139794000Y-85588000I0J-200000D01*
G01*
X139794000Y-85988000D01*
G75*
G02*
X139594000Y-86188000I-200000J0D01*
G01*
G37*
%TD*%
%TO.C,R3*%
G36*
G01*
X168423000Y-78696000D02*
X167873000Y-78696000D01*
G75*
G02*
X167673000Y-78496000I0J200000D01*
G01*
X167673000Y-78096000D01*
G75*
G02*
X167873000Y-77896000I200000J0D01*
G01*
X168423000Y-77896000D01*
G75*
G02*
X168623000Y-78096000I0J-200000D01*
G01*
X168623000Y-78496000D01*
G75*
G02*
X168423000Y-78696000I-200000J0D01*
G01*
G37*
G36*
G01*
X168423000Y-80346000D02*
X167873000Y-80346000D01*
G75*
G02*
X167673000Y-80146000I0J200000D01*
G01*
X167673000Y-79746000D01*
G75*
G02*
X167873000Y-79546000I200000J0D01*
G01*
X168423000Y-79546000D01*
G75*
G02*
X168623000Y-79746000I0J-200000D01*
G01*
X168623000Y-80146000D01*
G75*
G02*
X168423000Y-80346000I-200000J0D01*
G01*
G37*
%TD*%
%TO.C,R1*%
G36*
G01*
X161396000Y-120187000D02*
X161946000Y-120187000D01*
G75*
G02*
X162146000Y-120387000I0J-200000D01*
G01*
X162146000Y-120787000D01*
G75*
G02*
X161946000Y-120987000I-200000J0D01*
G01*
X161396000Y-120987000D01*
G75*
G02*
X161196000Y-120787000I0J200000D01*
G01*
X161196000Y-120387000D01*
G75*
G02*
X161396000Y-120187000I200000J0D01*
G01*
G37*
G36*
G01*
X161396000Y-121837000D02*
X161946000Y-121837000D01*
G75*
G02*
X162146000Y-122037000I0J-200000D01*
G01*
X162146000Y-122437000D01*
G75*
G02*
X161946000Y-122637000I-200000J0D01*
G01*
X161396000Y-122637000D01*
G75*
G02*
X161196000Y-122437000I0J200000D01*
G01*
X161196000Y-122037000D01*
G75*
G02*
X161396000Y-121837000I200000J0D01*
G01*
G37*
%TD*%
%TO.C,R2*%
G36*
G01*
X156316000Y-120187000D02*
X156866000Y-120187000D01*
G75*
G02*
X157066000Y-120387000I0J-200000D01*
G01*
X157066000Y-120787000D01*
G75*
G02*
X156866000Y-120987000I-200000J0D01*
G01*
X156316000Y-120987000D01*
G75*
G02*
X156116000Y-120787000I0J200000D01*
G01*
X156116000Y-120387000D01*
G75*
G02*
X156316000Y-120187000I200000J0D01*
G01*
G37*
G36*
G01*
X156316000Y-121837000D02*
X156866000Y-121837000D01*
G75*
G02*
X157066000Y-122037000I0J-200000D01*
G01*
X157066000Y-122437000D01*
G75*
G02*
X156866000Y-122637000I-200000J0D01*
G01*
X156316000Y-122637000D01*
G75*
G02*
X156116000Y-122437000I0J200000D01*
G01*
X156116000Y-122037000D01*
G75*
G02*
X156316000Y-121837000I200000J0D01*
G01*
G37*
%TD*%
M02*
