M48
; DRILL file {KiCad (5.1.10)-1} date 11/26/22 16:24:10
; FORMAT={-:-/ absolute / inch / decimal}
; #@! TF.CreationDate,2022-11-26T16:24:10-06:00
; #@! TF.GenerationSoftware,Kicad,Pcbnew,(5.1.10)-1
; #@! TF.FileFunction,Plated,1,2,PTH
FMAT,2
INCH
T1C0.0100
T2C0.0236
T3C0.0394
%
G90
G05
T1
X5.485Y-3.28
X5.485Y-3.415
X6.165Y-4.71
X6.29Y-4.3625
X6.365Y-4.71
X6.62Y-3.19
T2
X4.699Y-3.267
X4.699Y-3.3162
X4.699Y-3.3654
X4.699Y-3.4146
X4.699Y-3.4639
X4.699Y-3.5131
X4.699Y-3.5623
X4.699Y-3.6115
X4.699Y-3.6607
X4.699Y-3.7099
X4.699Y-3.7591
X4.699Y-3.8083
X4.699Y-3.8576
X4.7482Y-3.267
X4.7482Y-3.3162
X4.7482Y-3.3654
X4.7482Y-3.4146
X4.7482Y-3.4639
X4.7482Y-3.5131
X4.7482Y-3.5623
X4.7482Y-3.6115
X4.7482Y-3.6607
X4.7482Y-3.7099
X4.7482Y-3.7591
X4.7482Y-3.8083
X4.7482Y-3.8576
T3
X4.886Y-3.139
X4.8925Y-3.9725
X4.986Y-3.139
X4.9925Y-3.9725
X5.086Y-3.139
X5.0925Y-3.9725
X5.186Y-3.139
X5.1925Y-3.9725
X5.286Y-3.139
X5.2925Y-3.9725
X5.386Y-3.139
X5.3925Y-3.9725
X5.486Y-3.139
X5.4925Y-3.9725
X5.586Y-3.139
X5.5925Y-3.9725
X5.766Y-4.914
X5.786Y-3.898
X5.791Y-4.146
X5.808Y-3.113
X5.866Y-4.914
X5.886Y-3.898
X5.891Y-4.146
X5.908Y-3.113
X5.966Y-4.914
X5.986Y-3.898
X5.991Y-4.146
X6.008Y-3.113
X6.066Y-4.914
X6.086Y-3.898
X6.091Y-4.146
X6.108Y-3.113
X6.166Y-4.914
X6.186Y-3.898
X6.191Y-4.146
X6.208Y-3.113
X6.266Y-4.914
X6.286Y-3.898
X6.291Y-4.146
X6.308Y-3.113
X6.366Y-4.914
X6.386Y-3.898
X6.391Y-4.146
X6.408Y-3.113
X6.466Y-4.914
X6.486Y-3.898
X6.491Y-4.146
X6.508Y-3.113
T0
M30
