M48
; DRILL file {KiCad (6.0.1)} date Tue Apr 12 22:30:42 2022
; FORMAT={-:-/ absolute / inch / decimal}
; #@! TF.CreationDate,2022-04-12T22:30:42-05:00
; #@! TF.GenerationSoftware,Kicad,Pcbnew,(6.0.1)
; #@! TF.FileFunction,Plated,1,2,PTH
FMAT,2
INCH
; #@! TA.AperFunction,Plated,PTH,ViaDrill
T1C0.0157
; #@! TA.AperFunction,Plated,PTH,ComponentDrill
T2C0.0236
; #@! TA.AperFunction,Plated,PTH,ComponentDrill
T3C0.0315
; #@! TA.AperFunction,Plated,PTH,ComponentDrill
T4C0.0374
; #@! TA.AperFunction,Plated,PTH,ComponentDrill
T5C0.0433
; #@! TA.AperFunction,Plated,PTH,ComponentDrill
T6C0.0866
%
G90
G05
T1
X2.8154Y-3.3614
X2.9531Y-3.8535
X2.9728Y-2.4756
X2.9728Y-4.0504
X3.0909Y-3.3703
X3.1697Y-4.1291
X3.2091Y-3.4205
X3.3075Y-3.4008
X3.3665Y-4.2079
X3.4059Y-3.3417
X3.4256Y-4.2079
X3.465Y-3.6961
X3.524Y-3.4598
X3.6224Y-4.2472
X3.7996Y-3.4992
X3.9571Y-3.4402
X4.0949Y-2.5543
X4.3508Y-3.7157
X4.3902Y-3.5976
X4.528Y-3.8339
X4.7642Y-3.8929
X4.7839Y-4.1685
X4.8035Y-4.1094
X4.8626Y-3.8929
T2
X3.2878Y-4.9559
X3.2878Y-5.0051
X3.337Y-4.9559
X3.337Y-5.0051
X3.3862Y-4.9559
X3.3862Y-5.0051
X3.4354Y-4.9559
X3.4354Y-5.0051
X3.4846Y-4.9559
X3.4846Y-5.0051
X3.5339Y-4.9559
X3.5339Y-5.0051
X3.5831Y-4.9559
X3.5831Y-5.0051
X3.6323Y-4.9559
X3.6323Y-5.0051
X3.6815Y-4.9559
X3.6815Y-5.0051
X3.7307Y-4.9559
X3.7307Y-5.0051
X3.7799Y-4.9559
X3.7799Y-5.0051
X3.8291Y-4.9559
X3.8291Y-5.0051
X3.8783Y-4.9559
X3.8783Y-5.0051
T3
X2.8161Y-2.8783
X2.8161Y-2.9783
X3.298Y-2.7243
X3.298Y-2.8031
X3.298Y-2.8818
X3.3768Y-2.7243
X3.3768Y-2.8031
X3.3768Y-2.8818
T4
X1.8307Y-2.8543
X1.9291Y-2.8543
X2.0276Y-2.8543
X2.126Y-2.8543
X2.2244Y-2.8543
T5
X2.7874Y-2.6283
X2.7874Y-3.2283
X2.8874Y-2.6283
X2.8874Y-2.7283
X2.8874Y-3.2283
X2.9874Y-2.6283
X2.9874Y-3.2283
X3.0354Y-3.1082
X3.0874Y-2.6283
X3.0874Y-3.2283
X3.1354Y-3.1082
X3.1874Y-2.6283
X3.1874Y-3.2283
X3.2354Y-3.1082
X3.2874Y-2.6283
X3.2874Y-3.2283
X3.3354Y-3.1082
X3.3874Y-2.6283
X3.3874Y-3.2283
X3.4354Y-3.1082
X3.4874Y-2.6283
X3.4874Y-3.2283
X3.5874Y-2.6283
X3.5874Y-3.2283
X3.6874Y-2.6283
X3.6874Y-3.2283
X3.7874Y-2.6283
X3.7874Y-3.2283
X3.8874Y-2.6283
X3.8874Y-3.2283
X3.9874Y-2.6283
X3.9874Y-3.2283
X4.0874Y-2.6283
X4.0874Y-3.2283
X4.1874Y-2.6283
X4.1874Y-3.2283
X4.2874Y-2.6283
X4.2874Y-3.2283
X4.3874Y-2.6283
X4.3874Y-3.2283
X4.4874Y-2.6283
X4.4874Y-3.2283
X4.5874Y-2.6283
X4.5874Y-2.7283
X4.5874Y-2.8283
X4.5874Y-2.9283
X4.5874Y-3.0283
X4.5874Y-3.1283
X4.5874Y-3.2283
X4.6874Y-2.6283
X4.6874Y-3.2283
X4.7874Y-2.6283
X4.7874Y-3.2283
X4.8874Y-2.6283
X4.8874Y-3.2283
X4.9874Y-2.6283
X4.9874Y-3.2283
X5.0874Y-2.6283
X5.0874Y-3.2283
T6
X1.9488Y-2.4409
X1.9488Y-5.3346
X5.315Y-2.4409
X5.315Y-5.2756
T0
M30
