%FSLAX45Y45*%
G04 Gerber Fmt 4.5, Leading zero omitted, Abs format (unit mm)*
G04 Created by KiCad (PCBNEW (6.0.1)) date 2022-04-12 22:30:44*
%MOMM*%
%LPD*%
G01*
G04 APERTURE LIST*
%TA.AperFunction,Profile*%
%ADD10C,0.100000*%
%TD*%
%ADD11C,0.200000*%
%ADD12C,0.220000*%
G04 APERTURE END LIST*
D10*
X4050000Y-5400000D02*
X14100000Y-5400000D01*
X4050000Y-14500000D02*
X4050000Y-5400000D01*
X14100000Y-14500000D02*
X4050000Y-14500000D01*
X14100000Y-14500000D02*
X14100000Y-5400000D01*
D11*
D12*
X7851000Y-12478000D02*
X8071000Y-12698000D01*
X8071000Y-12478000D02*
X7851000Y-12698000D01*
X10131000Y-12478000D02*
X10351000Y-12698000D01*
X10351000Y-12478000D02*
X10131000Y-12698000D01*
D11*
X4302619Y-14815476D02*
X4302619Y-14615476D01*
X4350238Y-14615476D01*
X4378810Y-14625000D01*
X4397857Y-14644048D01*
X4407381Y-14663095D01*
X4416905Y-14701190D01*
X4416905Y-14729762D01*
X4407381Y-14767857D01*
X4397857Y-14786905D01*
X4378810Y-14805952D01*
X4350238Y-14815476D01*
X4302619Y-14815476D01*
X4502619Y-14815476D02*
X4502619Y-14682143D01*
X4502619Y-14720238D02*
X4512143Y-14701190D01*
X4521667Y-14691667D01*
X4540714Y-14682143D01*
X4559762Y-14682143D01*
X4626429Y-14815476D02*
X4626429Y-14682143D01*
X4626429Y-14615476D02*
X4616905Y-14625000D01*
X4626429Y-14634524D01*
X4635952Y-14625000D01*
X4626429Y-14615476D01*
X4626429Y-14634524D01*
X4750238Y-14815476D02*
X4731190Y-14805952D01*
X4721667Y-14786905D01*
X4721667Y-14615476D01*
X4855000Y-14815476D02*
X4835952Y-14805952D01*
X4826429Y-14786905D01*
X4826429Y-14615476D01*
X5083571Y-14815476D02*
X5083571Y-14615476D01*
X5150238Y-14758333D01*
X5216905Y-14615476D01*
X5216905Y-14815476D01*
X5397857Y-14815476D02*
X5397857Y-14710714D01*
X5388333Y-14691667D01*
X5369286Y-14682143D01*
X5331190Y-14682143D01*
X5312143Y-14691667D01*
X5397857Y-14805952D02*
X5378810Y-14815476D01*
X5331190Y-14815476D01*
X5312143Y-14805952D01*
X5302619Y-14786905D01*
X5302619Y-14767857D01*
X5312143Y-14748809D01*
X5331190Y-14739286D01*
X5378810Y-14739286D01*
X5397857Y-14729762D01*
X5493095Y-14682143D02*
X5493095Y-14882143D01*
X5493095Y-14691667D02*
X5512143Y-14682143D01*
X5550238Y-14682143D01*
X5569286Y-14691667D01*
X5578810Y-14701190D01*
X5588333Y-14720238D01*
X5588333Y-14777381D01*
X5578810Y-14796428D01*
X5569286Y-14805952D01*
X5550238Y-14815476D01*
X5512143Y-14815476D01*
X5493095Y-14805952D01*
X5674048Y-14796428D02*
X5683571Y-14805952D01*
X5674048Y-14815476D01*
X5664524Y-14805952D01*
X5674048Y-14796428D01*
X5674048Y-14815476D01*
X5674048Y-14691667D02*
X5683571Y-14701190D01*
X5674048Y-14710714D01*
X5664524Y-14701190D01*
X5674048Y-14691667D01*
X5674048Y-14710714D01*
X3845000Y-15045000D02*
X4045000Y-15245000D01*
X4045000Y-15045000D02*
X3845000Y-15245000D01*
X4293095Y-15054524D02*
X4302619Y-15045000D01*
X4321667Y-15035476D01*
X4369286Y-15035476D01*
X4388333Y-15045000D01*
X4397857Y-15054524D01*
X4407381Y-15073571D01*
X4407381Y-15092619D01*
X4397857Y-15121190D01*
X4283571Y-15235476D01*
X4407381Y-15235476D01*
X4493095Y-15216428D02*
X4502619Y-15225952D01*
X4493095Y-15235476D01*
X4483571Y-15225952D01*
X4493095Y-15216428D01*
X4493095Y-15235476D01*
X4578810Y-15054524D02*
X4588333Y-15045000D01*
X4607381Y-15035476D01*
X4655000Y-15035476D01*
X4674048Y-15045000D01*
X4683571Y-15054524D01*
X4693095Y-15073571D01*
X4693095Y-15092619D01*
X4683571Y-15121190D01*
X4569286Y-15235476D01*
X4693095Y-15235476D01*
X4816905Y-15035476D02*
X4835952Y-15035476D01*
X4855000Y-15045000D01*
X4864524Y-15054524D01*
X4874048Y-15073571D01*
X4883571Y-15111667D01*
X4883571Y-15159286D01*
X4874048Y-15197381D01*
X4864524Y-15216428D01*
X4855000Y-15225952D01*
X4835952Y-15235476D01*
X4816905Y-15235476D01*
X4797857Y-15225952D01*
X4788333Y-15216428D01*
X4778810Y-15197381D01*
X4769286Y-15159286D01*
X4769286Y-15111667D01*
X4778810Y-15073571D01*
X4788333Y-15054524D01*
X4797857Y-15045000D01*
X4816905Y-15035476D01*
X5007381Y-15035476D02*
X5026429Y-15035476D01*
X5045476Y-15045000D01*
X5055000Y-15054524D01*
X5064524Y-15073571D01*
X5074048Y-15111667D01*
X5074048Y-15159286D01*
X5064524Y-15197381D01*
X5055000Y-15216428D01*
X5045476Y-15225952D01*
X5026429Y-15235476D01*
X5007381Y-15235476D01*
X4988333Y-15225952D01*
X4978810Y-15216428D01*
X4969286Y-15197381D01*
X4959762Y-15159286D01*
X4959762Y-15111667D01*
X4969286Y-15073571D01*
X4978810Y-15054524D01*
X4988333Y-15045000D01*
X5007381Y-15035476D01*
X5159762Y-15235476D02*
X5159762Y-15102143D01*
X5159762Y-15121190D02*
X5169286Y-15111667D01*
X5188333Y-15102143D01*
X5216905Y-15102143D01*
X5235952Y-15111667D01*
X5245476Y-15130714D01*
X5245476Y-15235476D01*
X5245476Y-15130714D02*
X5255000Y-15111667D01*
X5274048Y-15102143D01*
X5302619Y-15102143D01*
X5321667Y-15111667D01*
X5331190Y-15130714D01*
X5331190Y-15235476D01*
X5426429Y-15235476D02*
X5426429Y-15102143D01*
X5426429Y-15121190D02*
X5435952Y-15111667D01*
X5455000Y-15102143D01*
X5483571Y-15102143D01*
X5502619Y-15111667D01*
X5512143Y-15130714D01*
X5512143Y-15235476D01*
X5512143Y-15130714D02*
X5521667Y-15111667D01*
X5540714Y-15102143D01*
X5569286Y-15102143D01*
X5588333Y-15111667D01*
X5597857Y-15130714D01*
X5597857Y-15235476D01*
X5988333Y-15025952D02*
X5816905Y-15283095D01*
X6245476Y-15035476D02*
X6264524Y-15035476D01*
X6283571Y-15045000D01*
X6293095Y-15054524D01*
X6302619Y-15073571D01*
X6312143Y-15111667D01*
X6312143Y-15159286D01*
X6302619Y-15197381D01*
X6293095Y-15216428D01*
X6283571Y-15225952D01*
X6264524Y-15235476D01*
X6245476Y-15235476D01*
X6226428Y-15225952D01*
X6216905Y-15216428D01*
X6207381Y-15197381D01*
X6197857Y-15159286D01*
X6197857Y-15111667D01*
X6207381Y-15073571D01*
X6216905Y-15054524D01*
X6226428Y-15045000D01*
X6245476Y-15035476D01*
X6397857Y-15216428D02*
X6407381Y-15225952D01*
X6397857Y-15235476D01*
X6388333Y-15225952D01*
X6397857Y-15216428D01*
X6397857Y-15235476D01*
X6531190Y-15035476D02*
X6550238Y-15035476D01*
X6569286Y-15045000D01*
X6578809Y-15054524D01*
X6588333Y-15073571D01*
X6597857Y-15111667D01*
X6597857Y-15159286D01*
X6588333Y-15197381D01*
X6578809Y-15216428D01*
X6569286Y-15225952D01*
X6550238Y-15235476D01*
X6531190Y-15235476D01*
X6512143Y-15225952D01*
X6502619Y-15216428D01*
X6493095Y-15197381D01*
X6483571Y-15159286D01*
X6483571Y-15111667D01*
X6493095Y-15073571D01*
X6502619Y-15054524D01*
X6512143Y-15045000D01*
X6531190Y-15035476D01*
X6712143Y-15121190D02*
X6693095Y-15111667D01*
X6683571Y-15102143D01*
X6674048Y-15083095D01*
X6674048Y-15073571D01*
X6683571Y-15054524D01*
X6693095Y-15045000D01*
X6712143Y-15035476D01*
X6750238Y-15035476D01*
X6769286Y-15045000D01*
X6778809Y-15054524D01*
X6788333Y-15073571D01*
X6788333Y-15083095D01*
X6778809Y-15102143D01*
X6769286Y-15111667D01*
X6750238Y-15121190D01*
X6712143Y-15121190D01*
X6693095Y-15130714D01*
X6683571Y-15140238D01*
X6674048Y-15159286D01*
X6674048Y-15197381D01*
X6683571Y-15216428D01*
X6693095Y-15225952D01*
X6712143Y-15235476D01*
X6750238Y-15235476D01*
X6769286Y-15225952D01*
X6778809Y-15216428D01*
X6788333Y-15197381D01*
X6788333Y-15159286D01*
X6778809Y-15140238D01*
X6769286Y-15130714D01*
X6750238Y-15121190D01*
X6959762Y-15035476D02*
X6921667Y-15035476D01*
X6902619Y-15045000D01*
X6893095Y-15054524D01*
X6874048Y-15083095D01*
X6864524Y-15121190D01*
X6864524Y-15197381D01*
X6874048Y-15216428D01*
X6883571Y-15225952D01*
X6902619Y-15235476D01*
X6940714Y-15235476D01*
X6959762Y-15225952D01*
X6969286Y-15216428D01*
X6978809Y-15197381D01*
X6978809Y-15149762D01*
X6969286Y-15130714D01*
X6959762Y-15121190D01*
X6940714Y-15111667D01*
X6902619Y-15111667D01*
X6883571Y-15121190D01*
X6874048Y-15130714D01*
X6864524Y-15149762D01*
X7150238Y-15035476D02*
X7112143Y-15035476D01*
X7093095Y-15045000D01*
X7083571Y-15054524D01*
X7064524Y-15083095D01*
X7055000Y-15121190D01*
X7055000Y-15197381D01*
X7064524Y-15216428D01*
X7074048Y-15225952D01*
X7093095Y-15235476D01*
X7131190Y-15235476D01*
X7150238Y-15225952D01*
X7159762Y-15216428D01*
X7169286Y-15197381D01*
X7169286Y-15149762D01*
X7159762Y-15130714D01*
X7150238Y-15121190D01*
X7131190Y-15111667D01*
X7093095Y-15111667D01*
X7074048Y-15121190D01*
X7064524Y-15130714D01*
X7055000Y-15149762D01*
X7245476Y-15035476D02*
X7245476Y-15073571D01*
X7321667Y-15035476D02*
X7321667Y-15073571D01*
X7616905Y-15311667D02*
X7607381Y-15302143D01*
X7588333Y-15273571D01*
X7578809Y-15254524D01*
X7569286Y-15225952D01*
X7559762Y-15178333D01*
X7559762Y-15140238D01*
X7569286Y-15092619D01*
X7578809Y-15064048D01*
X7588333Y-15045000D01*
X7607381Y-15016428D01*
X7616905Y-15006905D01*
X7683571Y-15054524D02*
X7693095Y-15045000D01*
X7712143Y-15035476D01*
X7759762Y-15035476D01*
X7778809Y-15045000D01*
X7788333Y-15054524D01*
X7797857Y-15073571D01*
X7797857Y-15092619D01*
X7788333Y-15121190D01*
X7674048Y-15235476D01*
X7797857Y-15235476D01*
X8035952Y-15235476D02*
X8035952Y-15035476D01*
X8121667Y-15235476D02*
X8121667Y-15130714D01*
X8112143Y-15111667D01*
X8093095Y-15102143D01*
X8064524Y-15102143D01*
X8045476Y-15111667D01*
X8035952Y-15121190D01*
X8245476Y-15235476D02*
X8226428Y-15225952D01*
X8216905Y-15216428D01*
X8207381Y-15197381D01*
X8207381Y-15140238D01*
X8216905Y-15121190D01*
X8226428Y-15111667D01*
X8245476Y-15102143D01*
X8274048Y-15102143D01*
X8293095Y-15111667D01*
X8302619Y-15121190D01*
X8312143Y-15140238D01*
X8312143Y-15197381D01*
X8302619Y-15216428D01*
X8293095Y-15225952D01*
X8274048Y-15235476D01*
X8245476Y-15235476D01*
X8426429Y-15235476D02*
X8407381Y-15225952D01*
X8397857Y-15206905D01*
X8397857Y-15035476D01*
X8578810Y-15225952D02*
X8559762Y-15235476D01*
X8521667Y-15235476D01*
X8502619Y-15225952D01*
X8493095Y-15206905D01*
X8493095Y-15130714D01*
X8502619Y-15111667D01*
X8521667Y-15102143D01*
X8559762Y-15102143D01*
X8578810Y-15111667D01*
X8588333Y-15130714D01*
X8588333Y-15149762D01*
X8493095Y-15168809D01*
X8664524Y-15225952D02*
X8683571Y-15235476D01*
X8721667Y-15235476D01*
X8740714Y-15225952D01*
X8750238Y-15206905D01*
X8750238Y-15197381D01*
X8740714Y-15178333D01*
X8721667Y-15168809D01*
X8693095Y-15168809D01*
X8674048Y-15159286D01*
X8664524Y-15140238D01*
X8664524Y-15130714D01*
X8674048Y-15111667D01*
X8693095Y-15102143D01*
X8721667Y-15102143D01*
X8740714Y-15111667D01*
X8816905Y-15311667D02*
X8826429Y-15302143D01*
X8845476Y-15273571D01*
X8855000Y-15254524D01*
X8864524Y-15225952D01*
X8874048Y-15178333D01*
X8874048Y-15140238D01*
X8864524Y-15092619D01*
X8855000Y-15064048D01*
X8845476Y-15045000D01*
X8826429Y-15016428D01*
X8816905Y-15006905D01*
X9178810Y-15311667D02*
X9169286Y-15302143D01*
X9150238Y-15273571D01*
X9140714Y-15254524D01*
X9131190Y-15225952D01*
X9121667Y-15178333D01*
X9121667Y-15140238D01*
X9131190Y-15092619D01*
X9140714Y-15064048D01*
X9150238Y-15045000D01*
X9169286Y-15016428D01*
X9178810Y-15006905D01*
X9255000Y-15102143D02*
X9255000Y-15235476D01*
X9255000Y-15121190D02*
X9264524Y-15111667D01*
X9283571Y-15102143D01*
X9312143Y-15102143D01*
X9331190Y-15111667D01*
X9340714Y-15130714D01*
X9340714Y-15235476D01*
X9464524Y-15235476D02*
X9445476Y-15225952D01*
X9435952Y-15216428D01*
X9426429Y-15197381D01*
X9426429Y-15140238D01*
X9435952Y-15121190D01*
X9445476Y-15111667D01*
X9464524Y-15102143D01*
X9493095Y-15102143D01*
X9512143Y-15111667D01*
X9521667Y-15121190D01*
X9531190Y-15140238D01*
X9531190Y-15197381D01*
X9521667Y-15216428D01*
X9512143Y-15225952D01*
X9493095Y-15235476D01*
X9464524Y-15235476D01*
X9588333Y-15102143D02*
X9664524Y-15102143D01*
X9616905Y-15035476D02*
X9616905Y-15206905D01*
X9626429Y-15225952D01*
X9645476Y-15235476D01*
X9664524Y-15235476D01*
X9883571Y-15102143D02*
X9883571Y-15302143D01*
X9883571Y-15111667D02*
X9902619Y-15102143D01*
X9940714Y-15102143D01*
X9959762Y-15111667D01*
X9969286Y-15121190D01*
X9978810Y-15140238D01*
X9978810Y-15197381D01*
X9969286Y-15216428D01*
X9959762Y-15225952D01*
X9940714Y-15235476D01*
X9902619Y-15235476D01*
X9883571Y-15225952D01*
X10093095Y-15235476D02*
X10074048Y-15225952D01*
X10064524Y-15206905D01*
X10064524Y-15035476D01*
X10255000Y-15235476D02*
X10255000Y-15130714D01*
X10245476Y-15111667D01*
X10226429Y-15102143D01*
X10188333Y-15102143D01*
X10169286Y-15111667D01*
X10255000Y-15225952D02*
X10235952Y-15235476D01*
X10188333Y-15235476D01*
X10169286Y-15225952D01*
X10159762Y-15206905D01*
X10159762Y-15187857D01*
X10169286Y-15168809D01*
X10188333Y-15159286D01*
X10235952Y-15159286D01*
X10255000Y-15149762D01*
X10321667Y-15102143D02*
X10397857Y-15102143D01*
X10350238Y-15035476D02*
X10350238Y-15206905D01*
X10359762Y-15225952D01*
X10378810Y-15235476D01*
X10397857Y-15235476D01*
X10540714Y-15225952D02*
X10521667Y-15235476D01*
X10483571Y-15235476D01*
X10464524Y-15225952D01*
X10455000Y-15206905D01*
X10455000Y-15130714D01*
X10464524Y-15111667D01*
X10483571Y-15102143D01*
X10521667Y-15102143D01*
X10540714Y-15111667D01*
X10550238Y-15130714D01*
X10550238Y-15149762D01*
X10455000Y-15168809D01*
X10721667Y-15235476D02*
X10721667Y-15035476D01*
X10721667Y-15225952D02*
X10702619Y-15235476D01*
X10664524Y-15235476D01*
X10645476Y-15225952D01*
X10635952Y-15216428D01*
X10626429Y-15197381D01*
X10626429Y-15140238D01*
X10635952Y-15121190D01*
X10645476Y-15111667D01*
X10664524Y-15102143D01*
X10702619Y-15102143D01*
X10721667Y-15111667D01*
X10797857Y-15311667D02*
X10807381Y-15302143D01*
X10826429Y-15273571D01*
X10835952Y-15254524D01*
X10845476Y-15225952D01*
X10855000Y-15178333D01*
X10855000Y-15140238D01*
X10845476Y-15092619D01*
X10835952Y-15064048D01*
X10826429Y-15045000D01*
X10807381Y-15016428D01*
X10797857Y-15006905D01*
M02*
