%FSLAX45Y45*%
G04 Gerber Fmt 4.5, Leading zero omitted, Abs format (unit mm)*
G04 Created by KiCad (PCBNEW (6.0.1)) date 2022-04-12 22:30:44*
%MOMM*%
%LPD*%
G01*
G04 APERTURE LIST*
%TA.AperFunction,Profile*%
%ADD10C,0.100000*%
%TD*%
%ADD11C,0.200000*%
%ADD12C,0.040000*%
%ADD13C,0.060000*%
%ADD14C,0.080000*%
%ADD15C,0.095000*%
%ADD16C,0.110000*%
%ADD17C,0.220000*%
G04 APERTURE END LIST*
D10*
X4050000Y-5400000D02*
X14100000Y-5400000D01*
X4050000Y-14500000D02*
X4050000Y-5400000D01*
X14100000Y-14500000D02*
X4050000Y-14500000D01*
X14100000Y-14500000D02*
X14100000Y-5400000D01*
D11*
D12*
X7131000Y-8518000D02*
X7171000Y-8558000D01*
X7171000Y-8518000D02*
X7131000Y-8558000D01*
X7481000Y-9768000D02*
X7521000Y-9808000D01*
X7521000Y-9768000D02*
X7481000Y-9808000D01*
X7531000Y-6268000D02*
X7571000Y-6308000D01*
X7571000Y-6268000D02*
X7531000Y-6308000D01*
X7531000Y-10268000D02*
X7571000Y-10308000D01*
X7571000Y-10268000D02*
X7531000Y-10308000D01*
X7831000Y-8540450D02*
X7871000Y-8580450D01*
X7871000Y-8540450D02*
X7831000Y-8580450D01*
X8031000Y-10468000D02*
X8071000Y-10508000D01*
X8071000Y-10468000D02*
X8031000Y-10508000D01*
X8131000Y-8668000D02*
X8171000Y-8708000D01*
X8171000Y-8668000D02*
X8131000Y-8708000D01*
X8381000Y-8618000D02*
X8421000Y-8658000D01*
X8421000Y-8618000D02*
X8381000Y-8658000D01*
X8531000Y-10668000D02*
X8571000Y-10708000D01*
X8571000Y-10668000D02*
X8531000Y-10708000D01*
X8631000Y-8468000D02*
X8671000Y-8508000D01*
X8671000Y-8468000D02*
X8631000Y-8508000D01*
X8681000Y-10668000D02*
X8721000Y-10708000D01*
X8721000Y-10668000D02*
X8681000Y-10708000D01*
X8781000Y-9368000D02*
X8821000Y-9408000D01*
X8821000Y-9368000D02*
X8781000Y-9408000D01*
X8931000Y-8768000D02*
X8971000Y-8808000D01*
X8971000Y-8768000D02*
X8931000Y-8808000D01*
X9181000Y-10768000D02*
X9221000Y-10808000D01*
X9221000Y-10768000D02*
X9181000Y-10808000D01*
X9631000Y-8868000D02*
X9671000Y-8908000D01*
X9671000Y-8868000D02*
X9631000Y-8908000D01*
X10031000Y-8718000D02*
X10071000Y-8758000D01*
X10071000Y-8718000D02*
X10031000Y-8758000D01*
X10381000Y-6468000D02*
X10421000Y-6508000D01*
X10421000Y-6468000D02*
X10381000Y-6508000D01*
X11031000Y-9418000D02*
X11071000Y-9458000D01*
X11071000Y-9418000D02*
X11031000Y-9458000D01*
X11131000Y-9118000D02*
X11171000Y-9158000D01*
X11171000Y-9118000D02*
X11131000Y-9158000D01*
X11481000Y-9718000D02*
X11521000Y-9758000D01*
X11521000Y-9718000D02*
X11481000Y-9758000D01*
X12081000Y-9868000D02*
X12121000Y-9908000D01*
X12121000Y-9868000D02*
X12081000Y-9908000D01*
X12131000Y-10568000D02*
X12171000Y-10608000D01*
X12171000Y-10568000D02*
X12131000Y-10608000D01*
X12181000Y-10418000D02*
X12221000Y-10458000D01*
X12221000Y-10418000D02*
X12181000Y-10458000D01*
X12331000Y-9868000D02*
X12371000Y-9908000D01*
X12371000Y-9868000D02*
X12331000Y-9908000D01*
D13*
X8381000Y-12588000D02*
G75*
G03*
X8381000Y-12588000I-30000J0D01*
G01*
X8381000Y-12713000D02*
G75*
G03*
X8381000Y-12713000I-30000J0D01*
G01*
X8506000Y-12588000D02*
G75*
G03*
X8506000Y-12588000I-30000J0D01*
G01*
X8506000Y-12713000D02*
G75*
G03*
X8506000Y-12713000I-30000J0D01*
G01*
X8631000Y-12588000D02*
G75*
G03*
X8631000Y-12588000I-30000J0D01*
G01*
X8631000Y-12713000D02*
G75*
G03*
X8631000Y-12713000I-30000J0D01*
G01*
X8756000Y-12588000D02*
G75*
G03*
X8756000Y-12588000I-30000J0D01*
G01*
X8756000Y-12713000D02*
G75*
G03*
X8756000Y-12713000I-30000J0D01*
G01*
X8881000Y-12588000D02*
G75*
G03*
X8881000Y-12588000I-30000J0D01*
G01*
X8881000Y-12713000D02*
G75*
G03*
X8881000Y-12713000I-30000J0D01*
G01*
X9006000Y-12588000D02*
G75*
G03*
X9006000Y-12588000I-30000J0D01*
G01*
X9006000Y-12713000D02*
G75*
G03*
X9006000Y-12713000I-30000J0D01*
G01*
X9131000Y-12588000D02*
G75*
G03*
X9131000Y-12588000I-30000J0D01*
G01*
X9131000Y-12713000D02*
G75*
G03*
X9131000Y-12713000I-30000J0D01*
G01*
X9256000Y-12588000D02*
G75*
G03*
X9256000Y-12588000I-30000J0D01*
G01*
X9256000Y-12713000D02*
G75*
G03*
X9256000Y-12713000I-30000J0D01*
G01*
X9381000Y-12588000D02*
G75*
G03*
X9381000Y-12588000I-30000J0D01*
G01*
X9381000Y-12713000D02*
G75*
G03*
X9381000Y-12713000I-30000J0D01*
G01*
X9506000Y-12588000D02*
G75*
G03*
X9506000Y-12588000I-30000J0D01*
G01*
X9506000Y-12713000D02*
G75*
G03*
X9506000Y-12713000I-30000J0D01*
G01*
X9631000Y-12588000D02*
G75*
G03*
X9631000Y-12588000I-30000J0D01*
G01*
X9631000Y-12713000D02*
G75*
G03*
X9631000Y-12713000I-30000J0D01*
G01*
X9756000Y-12588000D02*
G75*
G03*
X9756000Y-12588000I-30000J0D01*
G01*
X9756000Y-12713000D02*
G75*
G03*
X9756000Y-12713000I-30000J0D01*
G01*
X9881000Y-12588000D02*
G75*
G03*
X9881000Y-12588000I-30000J0D01*
G01*
X9881000Y-12713000D02*
G75*
G03*
X9881000Y-12713000I-30000J0D01*
G01*
D14*
X7153000Y-7271000D02*
X7153000Y-7351000D01*
X7113000Y-7311000D02*
X7193000Y-7311000D01*
X7153000Y-7525000D02*
X7153000Y-7605000D01*
X7113000Y-7565000D02*
X7193000Y-7565000D01*
X8377000Y-6879840D02*
X8377000Y-6959840D01*
X8337000Y-6919840D02*
X8417000Y-6919840D01*
X8377000Y-7079840D02*
X8377000Y-7159840D01*
X8337000Y-7119840D02*
X8417000Y-7119840D01*
X8377000Y-7279840D02*
X8377000Y-7359840D01*
X8337000Y-7319840D02*
X8417000Y-7319840D01*
X8577000Y-6879840D02*
X8577000Y-6959840D01*
X8537000Y-6919840D02*
X8617000Y-6919840D01*
X8577000Y-7079840D02*
X8577000Y-7159840D01*
X8537000Y-7119840D02*
X8617000Y-7119840D01*
X8577000Y-7279840D02*
X8577000Y-7359840D01*
X8537000Y-7319840D02*
X8617000Y-7319840D01*
D15*
X4683588Y-7283588D02*
X4683588Y-7216412D01*
X4616412Y-7216412D01*
X4616412Y-7283588D01*
X4683588Y-7283588D01*
X4933588Y-7283588D02*
X4933588Y-7216412D01*
X4866412Y-7216412D01*
X4866412Y-7283588D01*
X4933588Y-7283588D01*
X5183588Y-7283588D02*
X5183588Y-7216412D01*
X5116412Y-7216412D01*
X5116412Y-7283588D01*
X5183588Y-7283588D01*
X5433588Y-7283588D02*
X5433588Y-7216412D01*
X5366412Y-7216412D01*
X5366412Y-7283588D01*
X5433588Y-7283588D01*
X5683588Y-7283588D02*
X5683588Y-7216412D01*
X5616412Y-7216412D01*
X5616412Y-7283588D01*
X5683588Y-7283588D01*
D16*
X7080000Y-6731000D02*
X7135000Y-6676000D01*
X7080000Y-6621000D01*
X7025000Y-6676000D01*
X7080000Y-6731000D01*
X7080000Y-8255000D02*
X7135000Y-8200000D01*
X7080000Y-8145000D01*
X7025000Y-8200000D01*
X7080000Y-8255000D01*
X7334000Y-6731000D02*
X7389000Y-6676000D01*
X7334000Y-6621000D01*
X7279000Y-6676000D01*
X7334000Y-6731000D01*
X7334000Y-6985000D02*
X7389000Y-6930000D01*
X7334000Y-6875000D01*
X7279000Y-6930000D01*
X7334000Y-6985000D01*
X7334000Y-8255000D02*
X7389000Y-8200000D01*
X7334000Y-8145000D01*
X7279000Y-8200000D01*
X7334000Y-8255000D01*
X7588000Y-6731000D02*
X7643000Y-6676000D01*
X7588000Y-6621000D01*
X7533000Y-6676000D01*
X7588000Y-6731000D01*
X7588000Y-8255000D02*
X7643000Y-8200000D01*
X7588000Y-8145000D01*
X7533000Y-8200000D01*
X7588000Y-8255000D01*
X7709920Y-7949920D02*
X7764920Y-7894920D01*
X7709920Y-7839920D01*
X7654920Y-7894920D01*
X7709920Y-7949920D01*
X7842000Y-6731000D02*
X7897000Y-6676000D01*
X7842000Y-6621000D01*
X7787000Y-6676000D01*
X7842000Y-6731000D01*
X7842000Y-8255000D02*
X7897000Y-8200000D01*
X7842000Y-8145000D01*
X7787000Y-8200000D01*
X7842000Y-8255000D01*
X7963920Y-7949920D02*
X8018920Y-7894920D01*
X7963920Y-7839920D01*
X7908920Y-7894920D01*
X7963920Y-7949920D01*
X8096000Y-6731000D02*
X8151000Y-6676000D01*
X8096000Y-6621000D01*
X8041000Y-6676000D01*
X8096000Y-6731000D01*
X8096000Y-8255000D02*
X8151000Y-8200000D01*
X8096000Y-8145000D01*
X8041000Y-8200000D01*
X8096000Y-8255000D01*
X8217920Y-7949920D02*
X8272920Y-7894920D01*
X8217920Y-7839920D01*
X8162920Y-7894920D01*
X8217920Y-7949920D01*
X8350000Y-6731000D02*
X8405000Y-6676000D01*
X8350000Y-6621000D01*
X8295000Y-6676000D01*
X8350000Y-6731000D01*
X8350000Y-8255000D02*
X8405000Y-8200000D01*
X8350000Y-8145000D01*
X8295000Y-8200000D01*
X8350000Y-8255000D01*
X8471920Y-7949920D02*
X8526920Y-7894920D01*
X8471920Y-7839920D01*
X8416920Y-7894920D01*
X8471920Y-7949920D01*
X8604000Y-6731000D02*
X8659000Y-6676000D01*
X8604000Y-6621000D01*
X8549000Y-6676000D01*
X8604000Y-6731000D01*
X8604000Y-8255000D02*
X8659000Y-8200000D01*
X8604000Y-8145000D01*
X8549000Y-8200000D01*
X8604000Y-8255000D01*
X8725920Y-7949920D02*
X8780920Y-7894920D01*
X8725920Y-7839920D01*
X8670920Y-7894920D01*
X8725920Y-7949920D01*
X8858000Y-6731000D02*
X8913000Y-6676000D01*
X8858000Y-6621000D01*
X8803000Y-6676000D01*
X8858000Y-6731000D01*
X8858000Y-8255000D02*
X8913000Y-8200000D01*
X8858000Y-8145000D01*
X8803000Y-8200000D01*
X8858000Y-8255000D01*
X9112000Y-6731000D02*
X9167000Y-6676000D01*
X9112000Y-6621000D01*
X9057000Y-6676000D01*
X9112000Y-6731000D01*
X9112000Y-8255000D02*
X9167000Y-8200000D01*
X9112000Y-8145000D01*
X9057000Y-8200000D01*
X9112000Y-8255000D01*
X9366000Y-6731000D02*
X9421000Y-6676000D01*
X9366000Y-6621000D01*
X9311000Y-6676000D01*
X9366000Y-6731000D01*
X9366000Y-8255000D02*
X9421000Y-8200000D01*
X9366000Y-8145000D01*
X9311000Y-8200000D01*
X9366000Y-8255000D01*
X9620000Y-6731000D02*
X9675000Y-6676000D01*
X9620000Y-6621000D01*
X9565000Y-6676000D01*
X9620000Y-6731000D01*
X9620000Y-8255000D02*
X9675000Y-8200000D01*
X9620000Y-8145000D01*
X9565000Y-8200000D01*
X9620000Y-8255000D01*
X9874000Y-6731000D02*
X9929000Y-6676000D01*
X9874000Y-6621000D01*
X9819000Y-6676000D01*
X9874000Y-6731000D01*
X9874000Y-8255000D02*
X9929000Y-8200000D01*
X9874000Y-8145000D01*
X9819000Y-8200000D01*
X9874000Y-8255000D01*
X10128000Y-6731000D02*
X10183000Y-6676000D01*
X10128000Y-6621000D01*
X10073000Y-6676000D01*
X10128000Y-6731000D01*
X10128000Y-8255000D02*
X10183000Y-8200000D01*
X10128000Y-8145000D01*
X10073000Y-8200000D01*
X10128000Y-8255000D01*
X10382000Y-6731000D02*
X10437000Y-6676000D01*
X10382000Y-6621000D01*
X10327000Y-6676000D01*
X10382000Y-6731000D01*
X10382000Y-8255000D02*
X10437000Y-8200000D01*
X10382000Y-8145000D01*
X10327000Y-8200000D01*
X10382000Y-8255000D01*
X10636000Y-6731000D02*
X10691000Y-6676000D01*
X10636000Y-6621000D01*
X10581000Y-6676000D01*
X10636000Y-6731000D01*
X10636000Y-8255000D02*
X10691000Y-8200000D01*
X10636000Y-8145000D01*
X10581000Y-8200000D01*
X10636000Y-8255000D01*
X10890000Y-6731000D02*
X10945000Y-6676000D01*
X10890000Y-6621000D01*
X10835000Y-6676000D01*
X10890000Y-6731000D01*
X10890000Y-8255000D02*
X10945000Y-8200000D01*
X10890000Y-8145000D01*
X10835000Y-8200000D01*
X10890000Y-8255000D01*
X11144000Y-6731000D02*
X11199000Y-6676000D01*
X11144000Y-6621000D01*
X11089000Y-6676000D01*
X11144000Y-6731000D01*
X11144000Y-8255000D02*
X11199000Y-8200000D01*
X11144000Y-8145000D01*
X11089000Y-8200000D01*
X11144000Y-8255000D01*
X11398000Y-6731000D02*
X11453000Y-6676000D01*
X11398000Y-6621000D01*
X11343000Y-6676000D01*
X11398000Y-6731000D01*
X11398000Y-8255000D02*
X11453000Y-8200000D01*
X11398000Y-8145000D01*
X11343000Y-8200000D01*
X11398000Y-8255000D01*
X11652000Y-6731000D02*
X11707000Y-6676000D01*
X11652000Y-6621000D01*
X11597000Y-6676000D01*
X11652000Y-6731000D01*
X11652000Y-6985000D02*
X11707000Y-6930000D01*
X11652000Y-6875000D01*
X11597000Y-6930000D01*
X11652000Y-6985000D01*
X11652000Y-7239000D02*
X11707000Y-7184000D01*
X11652000Y-7129000D01*
X11597000Y-7184000D01*
X11652000Y-7239000D01*
X11652000Y-7493000D02*
X11707000Y-7438000D01*
X11652000Y-7383000D01*
X11597000Y-7438000D01*
X11652000Y-7493000D01*
X11652000Y-7747000D02*
X11707000Y-7692000D01*
X11652000Y-7637000D01*
X11597000Y-7692000D01*
X11652000Y-7747000D01*
X11652000Y-8001000D02*
X11707000Y-7946000D01*
X11652000Y-7891000D01*
X11597000Y-7946000D01*
X11652000Y-8001000D01*
X11652000Y-8255000D02*
X11707000Y-8200000D01*
X11652000Y-8145000D01*
X11597000Y-8200000D01*
X11652000Y-8255000D01*
X11906000Y-6731000D02*
X11961000Y-6676000D01*
X11906000Y-6621000D01*
X11851000Y-6676000D01*
X11906000Y-6731000D01*
X11906000Y-8255000D02*
X11961000Y-8200000D01*
X11906000Y-8145000D01*
X11851000Y-8200000D01*
X11906000Y-8255000D01*
X12160000Y-6731000D02*
X12215000Y-6676000D01*
X12160000Y-6621000D01*
X12105000Y-6676000D01*
X12160000Y-6731000D01*
X12160000Y-8255000D02*
X12215000Y-8200000D01*
X12160000Y-8145000D01*
X12105000Y-8200000D01*
X12160000Y-8255000D01*
X12414000Y-6731000D02*
X12469000Y-6676000D01*
X12414000Y-6621000D01*
X12359000Y-6676000D01*
X12414000Y-6731000D01*
X12414000Y-8255000D02*
X12469000Y-8200000D01*
X12414000Y-8145000D01*
X12359000Y-8200000D01*
X12414000Y-8255000D01*
X12668000Y-6731000D02*
X12723000Y-6676000D01*
X12668000Y-6621000D01*
X12613000Y-6676000D01*
X12668000Y-6731000D01*
X12668000Y-8255000D02*
X12723000Y-8200000D01*
X12668000Y-8145000D01*
X12613000Y-8200000D01*
X12668000Y-8255000D01*
X12922000Y-6731000D02*
X12977000Y-6676000D01*
X12922000Y-6621000D01*
X12867000Y-6676000D01*
X12922000Y-6731000D01*
X12922000Y-8255000D02*
X12977000Y-8200000D01*
X12922000Y-8145000D01*
X12867000Y-8200000D01*
X12922000Y-8255000D01*
D17*
X4840000Y-6090000D02*
X5060000Y-6310000D01*
X5060000Y-6090000D02*
X4840000Y-6310000D01*
X5060000Y-6200000D02*
G75*
G03*
X5060000Y-6200000I-110000J0D01*
G01*
X4840000Y-13440000D02*
X5060000Y-13660000D01*
X5060000Y-13440000D02*
X4840000Y-13660000D01*
X5060000Y-13550000D02*
G75*
G03*
X5060000Y-13550000I-110000J0D01*
G01*
X13390000Y-6090000D02*
X13610000Y-6310000D01*
X13610000Y-6090000D02*
X13390000Y-6310000D01*
X13610000Y-6200000D02*
G75*
G03*
X13610000Y-6200000I-110000J0D01*
G01*
X13390000Y-13290000D02*
X13610000Y-13510000D01*
X13610000Y-13290000D02*
X13390000Y-13510000D01*
X13610000Y-13400000D02*
G75*
G03*
X13610000Y-13400000I-110000J0D01*
G01*
D11*
X4302619Y-14815476D02*
X4302619Y-14615476D01*
X4350238Y-14615476D01*
X4378810Y-14625000D01*
X4397857Y-14644048D01*
X4407381Y-14663095D01*
X4416905Y-14701190D01*
X4416905Y-14729762D01*
X4407381Y-14767857D01*
X4397857Y-14786905D01*
X4378810Y-14805952D01*
X4350238Y-14815476D01*
X4302619Y-14815476D01*
X4502619Y-14815476D02*
X4502619Y-14682143D01*
X4502619Y-14720238D02*
X4512143Y-14701190D01*
X4521667Y-14691667D01*
X4540714Y-14682143D01*
X4559762Y-14682143D01*
X4626429Y-14815476D02*
X4626429Y-14682143D01*
X4626429Y-14615476D02*
X4616905Y-14625000D01*
X4626429Y-14634524D01*
X4635952Y-14625000D01*
X4626429Y-14615476D01*
X4626429Y-14634524D01*
X4750238Y-14815476D02*
X4731190Y-14805952D01*
X4721667Y-14786905D01*
X4721667Y-14615476D01*
X4855000Y-14815476D02*
X4835952Y-14805952D01*
X4826429Y-14786905D01*
X4826429Y-14615476D01*
X5083571Y-14815476D02*
X5083571Y-14615476D01*
X5150238Y-14758333D01*
X5216905Y-14615476D01*
X5216905Y-14815476D01*
X5397857Y-14815476D02*
X5397857Y-14710714D01*
X5388333Y-14691667D01*
X5369286Y-14682143D01*
X5331190Y-14682143D01*
X5312143Y-14691667D01*
X5397857Y-14805952D02*
X5378810Y-14815476D01*
X5331190Y-14815476D01*
X5312143Y-14805952D01*
X5302619Y-14786905D01*
X5302619Y-14767857D01*
X5312143Y-14748809D01*
X5331190Y-14739286D01*
X5378810Y-14739286D01*
X5397857Y-14729762D01*
X5493095Y-14682143D02*
X5493095Y-14882143D01*
X5493095Y-14691667D02*
X5512143Y-14682143D01*
X5550238Y-14682143D01*
X5569286Y-14691667D01*
X5578810Y-14701190D01*
X5588333Y-14720238D01*
X5588333Y-14777381D01*
X5578810Y-14796428D01*
X5569286Y-14805952D01*
X5550238Y-14815476D01*
X5512143Y-14815476D01*
X5493095Y-14805952D01*
X5674048Y-14796428D02*
X5683571Y-14805952D01*
X5674048Y-14815476D01*
X5664524Y-14805952D01*
X5674048Y-14796428D01*
X5674048Y-14815476D01*
X5674048Y-14691667D02*
X5683571Y-14701190D01*
X5674048Y-14710714D01*
X5664524Y-14701190D01*
X5674048Y-14691667D01*
X5674048Y-14710714D01*
D12*
X4005000Y-15125000D02*
X4045000Y-15165000D01*
X4045000Y-15125000D02*
X4005000Y-15165000D01*
D11*
X4340714Y-15035476D02*
X4359762Y-15035476D01*
X4378810Y-15045000D01*
X4388333Y-15054524D01*
X4397857Y-15073571D01*
X4407381Y-15111667D01*
X4407381Y-15159286D01*
X4397857Y-15197381D01*
X4388333Y-15216428D01*
X4378810Y-15225952D01*
X4359762Y-15235476D01*
X4340714Y-15235476D01*
X4321667Y-15225952D01*
X4312143Y-15216428D01*
X4302619Y-15197381D01*
X4293095Y-15159286D01*
X4293095Y-15111667D01*
X4302619Y-15073571D01*
X4312143Y-15054524D01*
X4321667Y-15045000D01*
X4340714Y-15035476D01*
X4493095Y-15216428D02*
X4502619Y-15225952D01*
X4493095Y-15235476D01*
X4483571Y-15225952D01*
X4493095Y-15216428D01*
X4493095Y-15235476D01*
X4674048Y-15102143D02*
X4674048Y-15235476D01*
X4626429Y-15025952D02*
X4578810Y-15168809D01*
X4702619Y-15168809D01*
X4816905Y-15035476D02*
X4835952Y-15035476D01*
X4855000Y-15045000D01*
X4864524Y-15054524D01*
X4874048Y-15073571D01*
X4883571Y-15111667D01*
X4883571Y-15159286D01*
X4874048Y-15197381D01*
X4864524Y-15216428D01*
X4855000Y-15225952D01*
X4835952Y-15235476D01*
X4816905Y-15235476D01*
X4797857Y-15225952D01*
X4788333Y-15216428D01*
X4778810Y-15197381D01*
X4769286Y-15159286D01*
X4769286Y-15111667D01*
X4778810Y-15073571D01*
X4788333Y-15054524D01*
X4797857Y-15045000D01*
X4816905Y-15035476D01*
X5007381Y-15035476D02*
X5026429Y-15035476D01*
X5045476Y-15045000D01*
X5055000Y-15054524D01*
X5064524Y-15073571D01*
X5074048Y-15111667D01*
X5074048Y-15159286D01*
X5064524Y-15197381D01*
X5055000Y-15216428D01*
X5045476Y-15225952D01*
X5026429Y-15235476D01*
X5007381Y-15235476D01*
X4988333Y-15225952D01*
X4978810Y-15216428D01*
X4969286Y-15197381D01*
X4959762Y-15159286D01*
X4959762Y-15111667D01*
X4969286Y-15073571D01*
X4978810Y-15054524D01*
X4988333Y-15045000D01*
X5007381Y-15035476D01*
X5159762Y-15235476D02*
X5159762Y-15102143D01*
X5159762Y-15121190D02*
X5169286Y-15111667D01*
X5188333Y-15102143D01*
X5216905Y-15102143D01*
X5235952Y-15111667D01*
X5245476Y-15130714D01*
X5245476Y-15235476D01*
X5245476Y-15130714D02*
X5255000Y-15111667D01*
X5274048Y-15102143D01*
X5302619Y-15102143D01*
X5321667Y-15111667D01*
X5331190Y-15130714D01*
X5331190Y-15235476D01*
X5426429Y-15235476D02*
X5426429Y-15102143D01*
X5426429Y-15121190D02*
X5435952Y-15111667D01*
X5455000Y-15102143D01*
X5483571Y-15102143D01*
X5502619Y-15111667D01*
X5512143Y-15130714D01*
X5512143Y-15235476D01*
X5512143Y-15130714D02*
X5521667Y-15111667D01*
X5540714Y-15102143D01*
X5569286Y-15102143D01*
X5588333Y-15111667D01*
X5597857Y-15130714D01*
X5597857Y-15235476D01*
X5988333Y-15025952D02*
X5816905Y-15283095D01*
X6245476Y-15035476D02*
X6264524Y-15035476D01*
X6283571Y-15045000D01*
X6293095Y-15054524D01*
X6302619Y-15073571D01*
X6312143Y-15111667D01*
X6312143Y-15159286D01*
X6302619Y-15197381D01*
X6293095Y-15216428D01*
X6283571Y-15225952D01*
X6264524Y-15235476D01*
X6245476Y-15235476D01*
X6226428Y-15225952D01*
X6216905Y-15216428D01*
X6207381Y-15197381D01*
X6197857Y-15159286D01*
X6197857Y-15111667D01*
X6207381Y-15073571D01*
X6216905Y-15054524D01*
X6226428Y-15045000D01*
X6245476Y-15035476D01*
X6397857Y-15216428D02*
X6407381Y-15225952D01*
X6397857Y-15235476D01*
X6388333Y-15225952D01*
X6397857Y-15216428D01*
X6397857Y-15235476D01*
X6531190Y-15035476D02*
X6550238Y-15035476D01*
X6569286Y-15045000D01*
X6578809Y-15054524D01*
X6588333Y-15073571D01*
X6597857Y-15111667D01*
X6597857Y-15159286D01*
X6588333Y-15197381D01*
X6578809Y-15216428D01*
X6569286Y-15225952D01*
X6550238Y-15235476D01*
X6531190Y-15235476D01*
X6512143Y-15225952D01*
X6502619Y-15216428D01*
X6493095Y-15197381D01*
X6483571Y-15159286D01*
X6483571Y-15111667D01*
X6493095Y-15073571D01*
X6502619Y-15054524D01*
X6512143Y-15045000D01*
X6531190Y-15035476D01*
X6788333Y-15235476D02*
X6674048Y-15235476D01*
X6731190Y-15235476D02*
X6731190Y-15035476D01*
X6712143Y-15064048D01*
X6693095Y-15083095D01*
X6674048Y-15092619D01*
X6969286Y-15035476D02*
X6874048Y-15035476D01*
X6864524Y-15130714D01*
X6874048Y-15121190D01*
X6893095Y-15111667D01*
X6940714Y-15111667D01*
X6959762Y-15121190D01*
X6969286Y-15130714D01*
X6978809Y-15149762D01*
X6978809Y-15197381D01*
X6969286Y-15216428D01*
X6959762Y-15225952D01*
X6940714Y-15235476D01*
X6893095Y-15235476D01*
X6874048Y-15225952D01*
X6864524Y-15216428D01*
X7045476Y-15035476D02*
X7178809Y-15035476D01*
X7093095Y-15235476D01*
X7245476Y-15035476D02*
X7245476Y-15073571D01*
X7321667Y-15035476D02*
X7321667Y-15073571D01*
X7616905Y-15311667D02*
X7607381Y-15302143D01*
X7588333Y-15273571D01*
X7578809Y-15254524D01*
X7569286Y-15225952D01*
X7559762Y-15178333D01*
X7559762Y-15140238D01*
X7569286Y-15092619D01*
X7578809Y-15064048D01*
X7588333Y-15045000D01*
X7607381Y-15016428D01*
X7616905Y-15006905D01*
X7683571Y-15054524D02*
X7693095Y-15045000D01*
X7712143Y-15035476D01*
X7759762Y-15035476D01*
X7778809Y-15045000D01*
X7788333Y-15054524D01*
X7797857Y-15073571D01*
X7797857Y-15092619D01*
X7788333Y-15121190D01*
X7674048Y-15235476D01*
X7797857Y-15235476D01*
X7969286Y-15102143D02*
X7969286Y-15235476D01*
X7921667Y-15025952D02*
X7874048Y-15168809D01*
X7997857Y-15168809D01*
X8226428Y-15235476D02*
X8226428Y-15035476D01*
X8312143Y-15235476D02*
X8312143Y-15130714D01*
X8302619Y-15111667D01*
X8283571Y-15102143D01*
X8255000Y-15102143D01*
X8235952Y-15111667D01*
X8226428Y-15121190D01*
X8435952Y-15235476D02*
X8416905Y-15225952D01*
X8407381Y-15216428D01*
X8397857Y-15197381D01*
X8397857Y-15140238D01*
X8407381Y-15121190D01*
X8416905Y-15111667D01*
X8435952Y-15102143D01*
X8464524Y-15102143D01*
X8483571Y-15111667D01*
X8493095Y-15121190D01*
X8502619Y-15140238D01*
X8502619Y-15197381D01*
X8493095Y-15216428D01*
X8483571Y-15225952D01*
X8464524Y-15235476D01*
X8435952Y-15235476D01*
X8616905Y-15235476D02*
X8597857Y-15225952D01*
X8588333Y-15206905D01*
X8588333Y-15035476D01*
X8769286Y-15225952D02*
X8750238Y-15235476D01*
X8712143Y-15235476D01*
X8693095Y-15225952D01*
X8683571Y-15206905D01*
X8683571Y-15130714D01*
X8693095Y-15111667D01*
X8712143Y-15102143D01*
X8750238Y-15102143D01*
X8769286Y-15111667D01*
X8778810Y-15130714D01*
X8778810Y-15149762D01*
X8683571Y-15168809D01*
X8855000Y-15225952D02*
X8874048Y-15235476D01*
X8912143Y-15235476D01*
X8931190Y-15225952D01*
X8940714Y-15206905D01*
X8940714Y-15197381D01*
X8931190Y-15178333D01*
X8912143Y-15168809D01*
X8883571Y-15168809D01*
X8864524Y-15159286D01*
X8855000Y-15140238D01*
X8855000Y-15130714D01*
X8864524Y-15111667D01*
X8883571Y-15102143D01*
X8912143Y-15102143D01*
X8931190Y-15111667D01*
X9007381Y-15311667D02*
X9016905Y-15302143D01*
X9035952Y-15273571D01*
X9045476Y-15254524D01*
X9055000Y-15225952D01*
X9064524Y-15178333D01*
X9064524Y-15140238D01*
X9055000Y-15092619D01*
X9045476Y-15064048D01*
X9035952Y-15045000D01*
X9016905Y-15016428D01*
X9007381Y-15006905D01*
D13*
X4045000Y-15409000D02*
G75*
G03*
X4045000Y-15409000I-30000J0D01*
G01*
D11*
X4340714Y-15299476D02*
X4359762Y-15299476D01*
X4378810Y-15309000D01*
X4388333Y-15318524D01*
X4397857Y-15337571D01*
X4407381Y-15375667D01*
X4407381Y-15423286D01*
X4397857Y-15461381D01*
X4388333Y-15480428D01*
X4378810Y-15489952D01*
X4359762Y-15499476D01*
X4340714Y-15499476D01*
X4321667Y-15489952D01*
X4312143Y-15480428D01*
X4302619Y-15461381D01*
X4293095Y-15423286D01*
X4293095Y-15375667D01*
X4302619Y-15337571D01*
X4312143Y-15318524D01*
X4321667Y-15309000D01*
X4340714Y-15299476D01*
X4493095Y-15480428D02*
X4502619Y-15489952D01*
X4493095Y-15499476D01*
X4483571Y-15489952D01*
X4493095Y-15480428D01*
X4493095Y-15499476D01*
X4674048Y-15299476D02*
X4635952Y-15299476D01*
X4616905Y-15309000D01*
X4607381Y-15318524D01*
X4588333Y-15347095D01*
X4578810Y-15385190D01*
X4578810Y-15461381D01*
X4588333Y-15480428D01*
X4597857Y-15489952D01*
X4616905Y-15499476D01*
X4655000Y-15499476D01*
X4674048Y-15489952D01*
X4683571Y-15480428D01*
X4693095Y-15461381D01*
X4693095Y-15413762D01*
X4683571Y-15394714D01*
X4674048Y-15385190D01*
X4655000Y-15375667D01*
X4616905Y-15375667D01*
X4597857Y-15385190D01*
X4588333Y-15394714D01*
X4578810Y-15413762D01*
X4816905Y-15299476D02*
X4835952Y-15299476D01*
X4855000Y-15309000D01*
X4864524Y-15318524D01*
X4874048Y-15337571D01*
X4883571Y-15375667D01*
X4883571Y-15423286D01*
X4874048Y-15461381D01*
X4864524Y-15480428D01*
X4855000Y-15489952D01*
X4835952Y-15499476D01*
X4816905Y-15499476D01*
X4797857Y-15489952D01*
X4788333Y-15480428D01*
X4778810Y-15461381D01*
X4769286Y-15423286D01*
X4769286Y-15375667D01*
X4778810Y-15337571D01*
X4788333Y-15318524D01*
X4797857Y-15309000D01*
X4816905Y-15299476D01*
X5007381Y-15299476D02*
X5026429Y-15299476D01*
X5045476Y-15309000D01*
X5055000Y-15318524D01*
X5064524Y-15337571D01*
X5074048Y-15375667D01*
X5074048Y-15423286D01*
X5064524Y-15461381D01*
X5055000Y-15480428D01*
X5045476Y-15489952D01*
X5026429Y-15499476D01*
X5007381Y-15499476D01*
X4988333Y-15489952D01*
X4978810Y-15480428D01*
X4969286Y-15461381D01*
X4959762Y-15423286D01*
X4959762Y-15375667D01*
X4969286Y-15337571D01*
X4978810Y-15318524D01*
X4988333Y-15309000D01*
X5007381Y-15299476D01*
X5159762Y-15499476D02*
X5159762Y-15366143D01*
X5159762Y-15385190D02*
X5169286Y-15375667D01*
X5188333Y-15366143D01*
X5216905Y-15366143D01*
X5235952Y-15375667D01*
X5245476Y-15394714D01*
X5245476Y-15499476D01*
X5245476Y-15394714D02*
X5255000Y-15375667D01*
X5274048Y-15366143D01*
X5302619Y-15366143D01*
X5321667Y-15375667D01*
X5331190Y-15394714D01*
X5331190Y-15499476D01*
X5426429Y-15499476D02*
X5426429Y-15366143D01*
X5426429Y-15385190D02*
X5435952Y-15375667D01*
X5455000Y-15366143D01*
X5483571Y-15366143D01*
X5502619Y-15375667D01*
X5512143Y-15394714D01*
X5512143Y-15499476D01*
X5512143Y-15394714D02*
X5521667Y-15375667D01*
X5540714Y-15366143D01*
X5569286Y-15366143D01*
X5588333Y-15375667D01*
X5597857Y-15394714D01*
X5597857Y-15499476D01*
X5988333Y-15289952D02*
X5816905Y-15547095D01*
X6245476Y-15299476D02*
X6264524Y-15299476D01*
X6283571Y-15309000D01*
X6293095Y-15318524D01*
X6302619Y-15337571D01*
X6312143Y-15375667D01*
X6312143Y-15423286D01*
X6302619Y-15461381D01*
X6293095Y-15480428D01*
X6283571Y-15489952D01*
X6264524Y-15499476D01*
X6245476Y-15499476D01*
X6226428Y-15489952D01*
X6216905Y-15480428D01*
X6207381Y-15461381D01*
X6197857Y-15423286D01*
X6197857Y-15375667D01*
X6207381Y-15337571D01*
X6216905Y-15318524D01*
X6226428Y-15309000D01*
X6245476Y-15299476D01*
X6397857Y-15480428D02*
X6407381Y-15489952D01*
X6397857Y-15499476D01*
X6388333Y-15489952D01*
X6397857Y-15480428D01*
X6397857Y-15499476D01*
X6531190Y-15299476D02*
X6550238Y-15299476D01*
X6569286Y-15309000D01*
X6578809Y-15318524D01*
X6588333Y-15337571D01*
X6597857Y-15375667D01*
X6597857Y-15423286D01*
X6588333Y-15461381D01*
X6578809Y-15480428D01*
X6569286Y-15489952D01*
X6550238Y-15499476D01*
X6531190Y-15499476D01*
X6512143Y-15489952D01*
X6502619Y-15480428D01*
X6493095Y-15461381D01*
X6483571Y-15423286D01*
X6483571Y-15375667D01*
X6493095Y-15337571D01*
X6502619Y-15318524D01*
X6512143Y-15309000D01*
X6531190Y-15299476D01*
X6674048Y-15318524D02*
X6683571Y-15309000D01*
X6702619Y-15299476D01*
X6750238Y-15299476D01*
X6769286Y-15309000D01*
X6778809Y-15318524D01*
X6788333Y-15337571D01*
X6788333Y-15356619D01*
X6778809Y-15385190D01*
X6664524Y-15499476D01*
X6788333Y-15499476D01*
X6855000Y-15299476D02*
X6978809Y-15299476D01*
X6912143Y-15375667D01*
X6940714Y-15375667D01*
X6959762Y-15385190D01*
X6969286Y-15394714D01*
X6978809Y-15413762D01*
X6978809Y-15461381D01*
X6969286Y-15480428D01*
X6959762Y-15489952D01*
X6940714Y-15499476D01*
X6883571Y-15499476D01*
X6864524Y-15489952D01*
X6855000Y-15480428D01*
X7150238Y-15299476D02*
X7112143Y-15299476D01*
X7093095Y-15309000D01*
X7083571Y-15318524D01*
X7064524Y-15347095D01*
X7055000Y-15385190D01*
X7055000Y-15461381D01*
X7064524Y-15480428D01*
X7074048Y-15489952D01*
X7093095Y-15499476D01*
X7131190Y-15499476D01*
X7150238Y-15489952D01*
X7159762Y-15480428D01*
X7169286Y-15461381D01*
X7169286Y-15413762D01*
X7159762Y-15394714D01*
X7150238Y-15385190D01*
X7131190Y-15375667D01*
X7093095Y-15375667D01*
X7074048Y-15385190D01*
X7064524Y-15394714D01*
X7055000Y-15413762D01*
X7245476Y-15299476D02*
X7245476Y-15337571D01*
X7321667Y-15299476D02*
X7321667Y-15337571D01*
X7616905Y-15575667D02*
X7607381Y-15566143D01*
X7588333Y-15537571D01*
X7578809Y-15518524D01*
X7569286Y-15489952D01*
X7559762Y-15442333D01*
X7559762Y-15404238D01*
X7569286Y-15356619D01*
X7578809Y-15328048D01*
X7588333Y-15309000D01*
X7607381Y-15280428D01*
X7616905Y-15270905D01*
X7683571Y-15318524D02*
X7693095Y-15309000D01*
X7712143Y-15299476D01*
X7759762Y-15299476D01*
X7778809Y-15309000D01*
X7788333Y-15318524D01*
X7797857Y-15337571D01*
X7797857Y-15356619D01*
X7788333Y-15385190D01*
X7674048Y-15499476D01*
X7797857Y-15499476D01*
X7969286Y-15299476D02*
X7931190Y-15299476D01*
X7912143Y-15309000D01*
X7902619Y-15318524D01*
X7883571Y-15347095D01*
X7874048Y-15385190D01*
X7874048Y-15461381D01*
X7883571Y-15480428D01*
X7893095Y-15489952D01*
X7912143Y-15499476D01*
X7950238Y-15499476D01*
X7969286Y-15489952D01*
X7978809Y-15480428D01*
X7988333Y-15461381D01*
X7988333Y-15413762D01*
X7978809Y-15394714D01*
X7969286Y-15385190D01*
X7950238Y-15375667D01*
X7912143Y-15375667D01*
X7893095Y-15385190D01*
X7883571Y-15394714D01*
X7874048Y-15413762D01*
X8226428Y-15499476D02*
X8226428Y-15299476D01*
X8312143Y-15499476D02*
X8312143Y-15394714D01*
X8302619Y-15375667D01*
X8283571Y-15366143D01*
X8255000Y-15366143D01*
X8235952Y-15375667D01*
X8226428Y-15385190D01*
X8435952Y-15499476D02*
X8416905Y-15489952D01*
X8407381Y-15480428D01*
X8397857Y-15461381D01*
X8397857Y-15404238D01*
X8407381Y-15385190D01*
X8416905Y-15375667D01*
X8435952Y-15366143D01*
X8464524Y-15366143D01*
X8483571Y-15375667D01*
X8493095Y-15385190D01*
X8502619Y-15404238D01*
X8502619Y-15461381D01*
X8493095Y-15480428D01*
X8483571Y-15489952D01*
X8464524Y-15499476D01*
X8435952Y-15499476D01*
X8616905Y-15499476D02*
X8597857Y-15489952D01*
X8588333Y-15470905D01*
X8588333Y-15299476D01*
X8769286Y-15489952D02*
X8750238Y-15499476D01*
X8712143Y-15499476D01*
X8693095Y-15489952D01*
X8683571Y-15470905D01*
X8683571Y-15394714D01*
X8693095Y-15375667D01*
X8712143Y-15366143D01*
X8750238Y-15366143D01*
X8769286Y-15375667D01*
X8778810Y-15394714D01*
X8778810Y-15413762D01*
X8683571Y-15432809D01*
X8855000Y-15489952D02*
X8874048Y-15499476D01*
X8912143Y-15499476D01*
X8931190Y-15489952D01*
X8940714Y-15470905D01*
X8940714Y-15461381D01*
X8931190Y-15442333D01*
X8912143Y-15432809D01*
X8883571Y-15432809D01*
X8864524Y-15423286D01*
X8855000Y-15404238D01*
X8855000Y-15394714D01*
X8864524Y-15375667D01*
X8883571Y-15366143D01*
X8912143Y-15366143D01*
X8931190Y-15375667D01*
X9007381Y-15575667D02*
X9016905Y-15566143D01*
X9035952Y-15537571D01*
X9045476Y-15518524D01*
X9055000Y-15489952D01*
X9064524Y-15442333D01*
X9064524Y-15404238D01*
X9055000Y-15356619D01*
X9045476Y-15328048D01*
X9035952Y-15309000D01*
X9016905Y-15280428D01*
X9007381Y-15270905D01*
D14*
X4005000Y-15633000D02*
X4005000Y-15713000D01*
X3965000Y-15673000D02*
X4045000Y-15673000D01*
D11*
X4340714Y-15563476D02*
X4359762Y-15563476D01*
X4378810Y-15573000D01*
X4388333Y-15582524D01*
X4397857Y-15601571D01*
X4407381Y-15639667D01*
X4407381Y-15687286D01*
X4397857Y-15725381D01*
X4388333Y-15744428D01*
X4378810Y-15753952D01*
X4359762Y-15763476D01*
X4340714Y-15763476D01*
X4321667Y-15753952D01*
X4312143Y-15744428D01*
X4302619Y-15725381D01*
X4293095Y-15687286D01*
X4293095Y-15639667D01*
X4302619Y-15601571D01*
X4312143Y-15582524D01*
X4321667Y-15573000D01*
X4340714Y-15563476D01*
X4493095Y-15744428D02*
X4502619Y-15753952D01*
X4493095Y-15763476D01*
X4483571Y-15753952D01*
X4493095Y-15744428D01*
X4493095Y-15763476D01*
X4616905Y-15649190D02*
X4597857Y-15639667D01*
X4588333Y-15630143D01*
X4578810Y-15611095D01*
X4578810Y-15601571D01*
X4588333Y-15582524D01*
X4597857Y-15573000D01*
X4616905Y-15563476D01*
X4655000Y-15563476D01*
X4674048Y-15573000D01*
X4683571Y-15582524D01*
X4693095Y-15601571D01*
X4693095Y-15611095D01*
X4683571Y-15630143D01*
X4674048Y-15639667D01*
X4655000Y-15649190D01*
X4616905Y-15649190D01*
X4597857Y-15658714D01*
X4588333Y-15668238D01*
X4578810Y-15687286D01*
X4578810Y-15725381D01*
X4588333Y-15744428D01*
X4597857Y-15753952D01*
X4616905Y-15763476D01*
X4655000Y-15763476D01*
X4674048Y-15753952D01*
X4683571Y-15744428D01*
X4693095Y-15725381D01*
X4693095Y-15687286D01*
X4683571Y-15668238D01*
X4674048Y-15658714D01*
X4655000Y-15649190D01*
X4816905Y-15563476D02*
X4835952Y-15563476D01*
X4855000Y-15573000D01*
X4864524Y-15582524D01*
X4874048Y-15601571D01*
X4883571Y-15639667D01*
X4883571Y-15687286D01*
X4874048Y-15725381D01*
X4864524Y-15744428D01*
X4855000Y-15753952D01*
X4835952Y-15763476D01*
X4816905Y-15763476D01*
X4797857Y-15753952D01*
X4788333Y-15744428D01*
X4778810Y-15725381D01*
X4769286Y-15687286D01*
X4769286Y-15639667D01*
X4778810Y-15601571D01*
X4788333Y-15582524D01*
X4797857Y-15573000D01*
X4816905Y-15563476D01*
X5007381Y-15563476D02*
X5026429Y-15563476D01*
X5045476Y-15573000D01*
X5055000Y-15582524D01*
X5064524Y-15601571D01*
X5074048Y-15639667D01*
X5074048Y-15687286D01*
X5064524Y-15725381D01*
X5055000Y-15744428D01*
X5045476Y-15753952D01*
X5026429Y-15763476D01*
X5007381Y-15763476D01*
X4988333Y-15753952D01*
X4978810Y-15744428D01*
X4969286Y-15725381D01*
X4959762Y-15687286D01*
X4959762Y-15639667D01*
X4969286Y-15601571D01*
X4978810Y-15582524D01*
X4988333Y-15573000D01*
X5007381Y-15563476D01*
X5159762Y-15763476D02*
X5159762Y-15630143D01*
X5159762Y-15649190D02*
X5169286Y-15639667D01*
X5188333Y-15630143D01*
X5216905Y-15630143D01*
X5235952Y-15639667D01*
X5245476Y-15658714D01*
X5245476Y-15763476D01*
X5245476Y-15658714D02*
X5255000Y-15639667D01*
X5274048Y-15630143D01*
X5302619Y-15630143D01*
X5321667Y-15639667D01*
X5331190Y-15658714D01*
X5331190Y-15763476D01*
X5426429Y-15763476D02*
X5426429Y-15630143D01*
X5426429Y-15649190D02*
X5435952Y-15639667D01*
X5455000Y-15630143D01*
X5483571Y-15630143D01*
X5502619Y-15639667D01*
X5512143Y-15658714D01*
X5512143Y-15763476D01*
X5512143Y-15658714D02*
X5521667Y-15639667D01*
X5540714Y-15630143D01*
X5569286Y-15630143D01*
X5588333Y-15639667D01*
X5597857Y-15658714D01*
X5597857Y-15763476D01*
X5988333Y-15553952D02*
X5816905Y-15811095D01*
X6245476Y-15563476D02*
X6264524Y-15563476D01*
X6283571Y-15573000D01*
X6293095Y-15582524D01*
X6302619Y-15601571D01*
X6312143Y-15639667D01*
X6312143Y-15687286D01*
X6302619Y-15725381D01*
X6293095Y-15744428D01*
X6283571Y-15753952D01*
X6264524Y-15763476D01*
X6245476Y-15763476D01*
X6226428Y-15753952D01*
X6216905Y-15744428D01*
X6207381Y-15725381D01*
X6197857Y-15687286D01*
X6197857Y-15639667D01*
X6207381Y-15601571D01*
X6216905Y-15582524D01*
X6226428Y-15573000D01*
X6245476Y-15563476D01*
X6397857Y-15744428D02*
X6407381Y-15753952D01*
X6397857Y-15763476D01*
X6388333Y-15753952D01*
X6397857Y-15744428D01*
X6397857Y-15763476D01*
X6531190Y-15563476D02*
X6550238Y-15563476D01*
X6569286Y-15573000D01*
X6578809Y-15582524D01*
X6588333Y-15601571D01*
X6597857Y-15639667D01*
X6597857Y-15687286D01*
X6588333Y-15725381D01*
X6578809Y-15744428D01*
X6569286Y-15753952D01*
X6550238Y-15763476D01*
X6531190Y-15763476D01*
X6512143Y-15753952D01*
X6502619Y-15744428D01*
X6493095Y-15725381D01*
X6483571Y-15687286D01*
X6483571Y-15639667D01*
X6493095Y-15601571D01*
X6502619Y-15582524D01*
X6512143Y-15573000D01*
X6531190Y-15563476D01*
X6664524Y-15563476D02*
X6788333Y-15563476D01*
X6721667Y-15639667D01*
X6750238Y-15639667D01*
X6769286Y-15649190D01*
X6778809Y-15658714D01*
X6788333Y-15677762D01*
X6788333Y-15725381D01*
X6778809Y-15744428D01*
X6769286Y-15753952D01*
X6750238Y-15763476D01*
X6693095Y-15763476D01*
X6674048Y-15753952D01*
X6664524Y-15744428D01*
X6978809Y-15763476D02*
X6864524Y-15763476D01*
X6921667Y-15763476D02*
X6921667Y-15563476D01*
X6902619Y-15592048D01*
X6883571Y-15611095D01*
X6864524Y-15620619D01*
X7159762Y-15563476D02*
X7064524Y-15563476D01*
X7055000Y-15658714D01*
X7064524Y-15649190D01*
X7083571Y-15639667D01*
X7131190Y-15639667D01*
X7150238Y-15649190D01*
X7159762Y-15658714D01*
X7169286Y-15677762D01*
X7169286Y-15725381D01*
X7159762Y-15744428D01*
X7150238Y-15753952D01*
X7131190Y-15763476D01*
X7083571Y-15763476D01*
X7064524Y-15753952D01*
X7055000Y-15744428D01*
X7245476Y-15563476D02*
X7245476Y-15601571D01*
X7321667Y-15563476D02*
X7321667Y-15601571D01*
X7616905Y-15839667D02*
X7607381Y-15830143D01*
X7588333Y-15801571D01*
X7578809Y-15782524D01*
X7569286Y-15753952D01*
X7559762Y-15706333D01*
X7559762Y-15668238D01*
X7569286Y-15620619D01*
X7578809Y-15592048D01*
X7588333Y-15573000D01*
X7607381Y-15544428D01*
X7616905Y-15534905D01*
X7721667Y-15649190D02*
X7702619Y-15639667D01*
X7693095Y-15630143D01*
X7683571Y-15611095D01*
X7683571Y-15601571D01*
X7693095Y-15582524D01*
X7702619Y-15573000D01*
X7721667Y-15563476D01*
X7759762Y-15563476D01*
X7778809Y-15573000D01*
X7788333Y-15582524D01*
X7797857Y-15601571D01*
X7797857Y-15611095D01*
X7788333Y-15630143D01*
X7778809Y-15639667D01*
X7759762Y-15649190D01*
X7721667Y-15649190D01*
X7702619Y-15658714D01*
X7693095Y-15668238D01*
X7683571Y-15687286D01*
X7683571Y-15725381D01*
X7693095Y-15744428D01*
X7702619Y-15753952D01*
X7721667Y-15763476D01*
X7759762Y-15763476D01*
X7778809Y-15753952D01*
X7788333Y-15744428D01*
X7797857Y-15725381D01*
X7797857Y-15687286D01*
X7788333Y-15668238D01*
X7778809Y-15658714D01*
X7759762Y-15649190D01*
X8035952Y-15763476D02*
X8035952Y-15563476D01*
X8121667Y-15763476D02*
X8121667Y-15658714D01*
X8112143Y-15639667D01*
X8093095Y-15630143D01*
X8064524Y-15630143D01*
X8045476Y-15639667D01*
X8035952Y-15649190D01*
X8245476Y-15763476D02*
X8226428Y-15753952D01*
X8216905Y-15744428D01*
X8207381Y-15725381D01*
X8207381Y-15668238D01*
X8216905Y-15649190D01*
X8226428Y-15639667D01*
X8245476Y-15630143D01*
X8274048Y-15630143D01*
X8293095Y-15639667D01*
X8302619Y-15649190D01*
X8312143Y-15668238D01*
X8312143Y-15725381D01*
X8302619Y-15744428D01*
X8293095Y-15753952D01*
X8274048Y-15763476D01*
X8245476Y-15763476D01*
X8426429Y-15763476D02*
X8407381Y-15753952D01*
X8397857Y-15734905D01*
X8397857Y-15563476D01*
X8578810Y-15753952D02*
X8559762Y-15763476D01*
X8521667Y-15763476D01*
X8502619Y-15753952D01*
X8493095Y-15734905D01*
X8493095Y-15658714D01*
X8502619Y-15639667D01*
X8521667Y-15630143D01*
X8559762Y-15630143D01*
X8578810Y-15639667D01*
X8588333Y-15658714D01*
X8588333Y-15677762D01*
X8493095Y-15696809D01*
X8664524Y-15753952D02*
X8683571Y-15763476D01*
X8721667Y-15763476D01*
X8740714Y-15753952D01*
X8750238Y-15734905D01*
X8750238Y-15725381D01*
X8740714Y-15706333D01*
X8721667Y-15696809D01*
X8693095Y-15696809D01*
X8674048Y-15687286D01*
X8664524Y-15668238D01*
X8664524Y-15658714D01*
X8674048Y-15639667D01*
X8693095Y-15630143D01*
X8721667Y-15630143D01*
X8740714Y-15639667D01*
X8816905Y-15839667D02*
X8826429Y-15830143D01*
X8845476Y-15801571D01*
X8855000Y-15782524D01*
X8864524Y-15753952D01*
X8874048Y-15706333D01*
X8874048Y-15668238D01*
X8864524Y-15620619D01*
X8855000Y-15592048D01*
X8845476Y-15573000D01*
X8826429Y-15544428D01*
X8816905Y-15534905D01*
D15*
X4031088Y-15970588D02*
X4031088Y-15903412D01*
X3963912Y-15903412D01*
X3963912Y-15970588D01*
X4031088Y-15970588D01*
D11*
X4340714Y-15827476D02*
X4359762Y-15827476D01*
X4378810Y-15837000D01*
X4388333Y-15846524D01*
X4397857Y-15865571D01*
X4407381Y-15903667D01*
X4407381Y-15951286D01*
X4397857Y-15989381D01*
X4388333Y-16008428D01*
X4378810Y-16017952D01*
X4359762Y-16027476D01*
X4340714Y-16027476D01*
X4321667Y-16017952D01*
X4312143Y-16008428D01*
X4302619Y-15989381D01*
X4293095Y-15951286D01*
X4293095Y-15903667D01*
X4302619Y-15865571D01*
X4312143Y-15846524D01*
X4321667Y-15837000D01*
X4340714Y-15827476D01*
X4493095Y-16008428D02*
X4502619Y-16017952D01*
X4493095Y-16027476D01*
X4483571Y-16017952D01*
X4493095Y-16008428D01*
X4493095Y-16027476D01*
X4597857Y-16027476D02*
X4635952Y-16027476D01*
X4655000Y-16017952D01*
X4664524Y-16008428D01*
X4683571Y-15979857D01*
X4693095Y-15941762D01*
X4693095Y-15865571D01*
X4683571Y-15846524D01*
X4674048Y-15837000D01*
X4655000Y-15827476D01*
X4616905Y-15827476D01*
X4597857Y-15837000D01*
X4588333Y-15846524D01*
X4578810Y-15865571D01*
X4578810Y-15913190D01*
X4588333Y-15932238D01*
X4597857Y-15941762D01*
X4616905Y-15951286D01*
X4655000Y-15951286D01*
X4674048Y-15941762D01*
X4683571Y-15932238D01*
X4693095Y-15913190D01*
X4874048Y-15827476D02*
X4778810Y-15827476D01*
X4769286Y-15922714D01*
X4778810Y-15913190D01*
X4797857Y-15903667D01*
X4845476Y-15903667D01*
X4864524Y-15913190D01*
X4874048Y-15922714D01*
X4883571Y-15941762D01*
X4883571Y-15989381D01*
X4874048Y-16008428D01*
X4864524Y-16017952D01*
X4845476Y-16027476D01*
X4797857Y-16027476D01*
X4778810Y-16017952D01*
X4769286Y-16008428D01*
X5007381Y-15827476D02*
X5026429Y-15827476D01*
X5045476Y-15837000D01*
X5055000Y-15846524D01*
X5064524Y-15865571D01*
X5074048Y-15903667D01*
X5074048Y-15951286D01*
X5064524Y-15989381D01*
X5055000Y-16008428D01*
X5045476Y-16017952D01*
X5026429Y-16027476D01*
X5007381Y-16027476D01*
X4988333Y-16017952D01*
X4978810Y-16008428D01*
X4969286Y-15989381D01*
X4959762Y-15951286D01*
X4959762Y-15903667D01*
X4969286Y-15865571D01*
X4978810Y-15846524D01*
X4988333Y-15837000D01*
X5007381Y-15827476D01*
X5159762Y-16027476D02*
X5159762Y-15894143D01*
X5159762Y-15913190D02*
X5169286Y-15903667D01*
X5188333Y-15894143D01*
X5216905Y-15894143D01*
X5235952Y-15903667D01*
X5245476Y-15922714D01*
X5245476Y-16027476D01*
X5245476Y-15922714D02*
X5255000Y-15903667D01*
X5274048Y-15894143D01*
X5302619Y-15894143D01*
X5321667Y-15903667D01*
X5331190Y-15922714D01*
X5331190Y-16027476D01*
X5426429Y-16027476D02*
X5426429Y-15894143D01*
X5426429Y-15913190D02*
X5435952Y-15903667D01*
X5455000Y-15894143D01*
X5483571Y-15894143D01*
X5502619Y-15903667D01*
X5512143Y-15922714D01*
X5512143Y-16027476D01*
X5512143Y-15922714D02*
X5521667Y-15903667D01*
X5540714Y-15894143D01*
X5569286Y-15894143D01*
X5588333Y-15903667D01*
X5597857Y-15922714D01*
X5597857Y-16027476D01*
X5988333Y-15817952D02*
X5816905Y-16075095D01*
X6245476Y-15827476D02*
X6264524Y-15827476D01*
X6283571Y-15837000D01*
X6293095Y-15846524D01*
X6302619Y-15865571D01*
X6312143Y-15903667D01*
X6312143Y-15951286D01*
X6302619Y-15989381D01*
X6293095Y-16008428D01*
X6283571Y-16017952D01*
X6264524Y-16027476D01*
X6245476Y-16027476D01*
X6226428Y-16017952D01*
X6216905Y-16008428D01*
X6207381Y-15989381D01*
X6197857Y-15951286D01*
X6197857Y-15903667D01*
X6207381Y-15865571D01*
X6216905Y-15846524D01*
X6226428Y-15837000D01*
X6245476Y-15827476D01*
X6397857Y-16008428D02*
X6407381Y-16017952D01*
X6397857Y-16027476D01*
X6388333Y-16017952D01*
X6397857Y-16008428D01*
X6397857Y-16027476D01*
X6531190Y-15827476D02*
X6550238Y-15827476D01*
X6569286Y-15837000D01*
X6578809Y-15846524D01*
X6588333Y-15865571D01*
X6597857Y-15903667D01*
X6597857Y-15951286D01*
X6588333Y-15989381D01*
X6578809Y-16008428D01*
X6569286Y-16017952D01*
X6550238Y-16027476D01*
X6531190Y-16027476D01*
X6512143Y-16017952D01*
X6502619Y-16008428D01*
X6493095Y-15989381D01*
X6483571Y-15951286D01*
X6483571Y-15903667D01*
X6493095Y-15865571D01*
X6502619Y-15846524D01*
X6512143Y-15837000D01*
X6531190Y-15827476D01*
X6664524Y-15827476D02*
X6788333Y-15827476D01*
X6721667Y-15903667D01*
X6750238Y-15903667D01*
X6769286Y-15913190D01*
X6778809Y-15922714D01*
X6788333Y-15941762D01*
X6788333Y-15989381D01*
X6778809Y-16008428D01*
X6769286Y-16017952D01*
X6750238Y-16027476D01*
X6693095Y-16027476D01*
X6674048Y-16017952D01*
X6664524Y-16008428D01*
X6855000Y-15827476D02*
X6988333Y-15827476D01*
X6902619Y-16027476D01*
X7150238Y-15894143D02*
X7150238Y-16027476D01*
X7102619Y-15817952D02*
X7055000Y-15960809D01*
X7178809Y-15960809D01*
X7245476Y-15827476D02*
X7245476Y-15865571D01*
X7321667Y-15827476D02*
X7321667Y-15865571D01*
X7616905Y-16103667D02*
X7607381Y-16094143D01*
X7588333Y-16065571D01*
X7578809Y-16046524D01*
X7569286Y-16017952D01*
X7559762Y-15970333D01*
X7559762Y-15932238D01*
X7569286Y-15884619D01*
X7578809Y-15856048D01*
X7588333Y-15837000D01*
X7607381Y-15808428D01*
X7616905Y-15798905D01*
X7788333Y-15827476D02*
X7693095Y-15827476D01*
X7683571Y-15922714D01*
X7693095Y-15913190D01*
X7712143Y-15903667D01*
X7759762Y-15903667D01*
X7778809Y-15913190D01*
X7788333Y-15922714D01*
X7797857Y-15941762D01*
X7797857Y-15989381D01*
X7788333Y-16008428D01*
X7778809Y-16017952D01*
X7759762Y-16027476D01*
X7712143Y-16027476D01*
X7693095Y-16017952D01*
X7683571Y-16008428D01*
X8035952Y-16027476D02*
X8035952Y-15827476D01*
X8121667Y-16027476D02*
X8121667Y-15922714D01*
X8112143Y-15903667D01*
X8093095Y-15894143D01*
X8064524Y-15894143D01*
X8045476Y-15903667D01*
X8035952Y-15913190D01*
X8245476Y-16027476D02*
X8226428Y-16017952D01*
X8216905Y-16008428D01*
X8207381Y-15989381D01*
X8207381Y-15932238D01*
X8216905Y-15913190D01*
X8226428Y-15903667D01*
X8245476Y-15894143D01*
X8274048Y-15894143D01*
X8293095Y-15903667D01*
X8302619Y-15913190D01*
X8312143Y-15932238D01*
X8312143Y-15989381D01*
X8302619Y-16008428D01*
X8293095Y-16017952D01*
X8274048Y-16027476D01*
X8245476Y-16027476D01*
X8426429Y-16027476D02*
X8407381Y-16017952D01*
X8397857Y-15998905D01*
X8397857Y-15827476D01*
X8578810Y-16017952D02*
X8559762Y-16027476D01*
X8521667Y-16027476D01*
X8502619Y-16017952D01*
X8493095Y-15998905D01*
X8493095Y-15922714D01*
X8502619Y-15903667D01*
X8521667Y-15894143D01*
X8559762Y-15894143D01*
X8578810Y-15903667D01*
X8588333Y-15922714D01*
X8588333Y-15941762D01*
X8493095Y-15960809D01*
X8664524Y-16017952D02*
X8683571Y-16027476D01*
X8721667Y-16027476D01*
X8740714Y-16017952D01*
X8750238Y-15998905D01*
X8750238Y-15989381D01*
X8740714Y-15970333D01*
X8721667Y-15960809D01*
X8693095Y-15960809D01*
X8674048Y-15951286D01*
X8664524Y-15932238D01*
X8664524Y-15922714D01*
X8674048Y-15903667D01*
X8693095Y-15894143D01*
X8721667Y-15894143D01*
X8740714Y-15903667D01*
X8816905Y-16103667D02*
X8826429Y-16094143D01*
X8845476Y-16065571D01*
X8855000Y-16046524D01*
X8864524Y-16017952D01*
X8874048Y-15970333D01*
X8874048Y-15932238D01*
X8864524Y-15884619D01*
X8855000Y-15856048D01*
X8845476Y-15837000D01*
X8826429Y-15808428D01*
X8816905Y-15798905D01*
D16*
X3990000Y-16256000D02*
X4045000Y-16201000D01*
X3990000Y-16146000D01*
X3935000Y-16201000D01*
X3990000Y-16256000D01*
D11*
X4407381Y-16291476D02*
X4293095Y-16291476D01*
X4350238Y-16291476D02*
X4350238Y-16091476D01*
X4331190Y-16120048D01*
X4312143Y-16139095D01*
X4293095Y-16148619D01*
X4493095Y-16272428D02*
X4502619Y-16281952D01*
X4493095Y-16291476D01*
X4483571Y-16281952D01*
X4493095Y-16272428D01*
X4493095Y-16291476D01*
X4693095Y-16291476D02*
X4578810Y-16291476D01*
X4635952Y-16291476D02*
X4635952Y-16091476D01*
X4616905Y-16120048D01*
X4597857Y-16139095D01*
X4578810Y-16148619D01*
X4816905Y-16091476D02*
X4835952Y-16091476D01*
X4855000Y-16101000D01*
X4864524Y-16110524D01*
X4874048Y-16129571D01*
X4883571Y-16167667D01*
X4883571Y-16215286D01*
X4874048Y-16253381D01*
X4864524Y-16272428D01*
X4855000Y-16281952D01*
X4835952Y-16291476D01*
X4816905Y-16291476D01*
X4797857Y-16281952D01*
X4788333Y-16272428D01*
X4778810Y-16253381D01*
X4769286Y-16215286D01*
X4769286Y-16167667D01*
X4778810Y-16129571D01*
X4788333Y-16110524D01*
X4797857Y-16101000D01*
X4816905Y-16091476D01*
X5007381Y-16091476D02*
X5026429Y-16091476D01*
X5045476Y-16101000D01*
X5055000Y-16110524D01*
X5064524Y-16129571D01*
X5074048Y-16167667D01*
X5074048Y-16215286D01*
X5064524Y-16253381D01*
X5055000Y-16272428D01*
X5045476Y-16281952D01*
X5026429Y-16291476D01*
X5007381Y-16291476D01*
X4988333Y-16281952D01*
X4978810Y-16272428D01*
X4969286Y-16253381D01*
X4959762Y-16215286D01*
X4959762Y-16167667D01*
X4969286Y-16129571D01*
X4978810Y-16110524D01*
X4988333Y-16101000D01*
X5007381Y-16091476D01*
X5159762Y-16291476D02*
X5159762Y-16158143D01*
X5159762Y-16177190D02*
X5169286Y-16167667D01*
X5188333Y-16158143D01*
X5216905Y-16158143D01*
X5235952Y-16167667D01*
X5245476Y-16186714D01*
X5245476Y-16291476D01*
X5245476Y-16186714D02*
X5255000Y-16167667D01*
X5274048Y-16158143D01*
X5302619Y-16158143D01*
X5321667Y-16167667D01*
X5331190Y-16186714D01*
X5331190Y-16291476D01*
X5426429Y-16291476D02*
X5426429Y-16158143D01*
X5426429Y-16177190D02*
X5435952Y-16167667D01*
X5455000Y-16158143D01*
X5483571Y-16158143D01*
X5502619Y-16167667D01*
X5512143Y-16186714D01*
X5512143Y-16291476D01*
X5512143Y-16186714D02*
X5521667Y-16167667D01*
X5540714Y-16158143D01*
X5569286Y-16158143D01*
X5588333Y-16167667D01*
X5597857Y-16186714D01*
X5597857Y-16291476D01*
X5988333Y-16081952D02*
X5816905Y-16339095D01*
X6245476Y-16091476D02*
X6264524Y-16091476D01*
X6283571Y-16101000D01*
X6293095Y-16110524D01*
X6302619Y-16129571D01*
X6312143Y-16167667D01*
X6312143Y-16215286D01*
X6302619Y-16253381D01*
X6293095Y-16272428D01*
X6283571Y-16281952D01*
X6264524Y-16291476D01*
X6245476Y-16291476D01*
X6226428Y-16281952D01*
X6216905Y-16272428D01*
X6207381Y-16253381D01*
X6197857Y-16215286D01*
X6197857Y-16167667D01*
X6207381Y-16129571D01*
X6216905Y-16110524D01*
X6226428Y-16101000D01*
X6245476Y-16091476D01*
X6397857Y-16272428D02*
X6407381Y-16281952D01*
X6397857Y-16291476D01*
X6388333Y-16281952D01*
X6397857Y-16272428D01*
X6397857Y-16291476D01*
X6531190Y-16091476D02*
X6550238Y-16091476D01*
X6569286Y-16101000D01*
X6578809Y-16110524D01*
X6588333Y-16129571D01*
X6597857Y-16167667D01*
X6597857Y-16215286D01*
X6588333Y-16253381D01*
X6578809Y-16272428D01*
X6569286Y-16281952D01*
X6550238Y-16291476D01*
X6531190Y-16291476D01*
X6512143Y-16281952D01*
X6502619Y-16272428D01*
X6493095Y-16253381D01*
X6483571Y-16215286D01*
X6483571Y-16167667D01*
X6493095Y-16129571D01*
X6502619Y-16110524D01*
X6512143Y-16101000D01*
X6531190Y-16091476D01*
X6769286Y-16158143D02*
X6769286Y-16291476D01*
X6721667Y-16081952D02*
X6674048Y-16224809D01*
X6797857Y-16224809D01*
X6855000Y-16091476D02*
X6978809Y-16091476D01*
X6912143Y-16167667D01*
X6940714Y-16167667D01*
X6959762Y-16177190D01*
X6969286Y-16186714D01*
X6978809Y-16205762D01*
X6978809Y-16253381D01*
X6969286Y-16272428D01*
X6959762Y-16281952D01*
X6940714Y-16291476D01*
X6883571Y-16291476D01*
X6864524Y-16281952D01*
X6855000Y-16272428D01*
X7045476Y-16091476D02*
X7169286Y-16091476D01*
X7102619Y-16167667D01*
X7131190Y-16167667D01*
X7150238Y-16177190D01*
X7159762Y-16186714D01*
X7169286Y-16205762D01*
X7169286Y-16253381D01*
X7159762Y-16272428D01*
X7150238Y-16281952D01*
X7131190Y-16291476D01*
X7074048Y-16291476D01*
X7055000Y-16281952D01*
X7045476Y-16272428D01*
X7245476Y-16091476D02*
X7245476Y-16129571D01*
X7321667Y-16091476D02*
X7321667Y-16129571D01*
X7616905Y-16367667D02*
X7607381Y-16358143D01*
X7588333Y-16329571D01*
X7578809Y-16310524D01*
X7569286Y-16281952D01*
X7559762Y-16234333D01*
X7559762Y-16196238D01*
X7569286Y-16148619D01*
X7578809Y-16120048D01*
X7588333Y-16101000D01*
X7607381Y-16072428D01*
X7616905Y-16062905D01*
X7788333Y-16091476D02*
X7693095Y-16091476D01*
X7683571Y-16186714D01*
X7693095Y-16177190D01*
X7712143Y-16167667D01*
X7759762Y-16167667D01*
X7778809Y-16177190D01*
X7788333Y-16186714D01*
X7797857Y-16205762D01*
X7797857Y-16253381D01*
X7788333Y-16272428D01*
X7778809Y-16281952D01*
X7759762Y-16291476D01*
X7712143Y-16291476D01*
X7693095Y-16281952D01*
X7683571Y-16272428D01*
X7893095Y-16291476D02*
X7931190Y-16291476D01*
X7950238Y-16281952D01*
X7959762Y-16272428D01*
X7978809Y-16243857D01*
X7988333Y-16205762D01*
X7988333Y-16129571D01*
X7978809Y-16110524D01*
X7969286Y-16101000D01*
X7950238Y-16091476D01*
X7912143Y-16091476D01*
X7893095Y-16101000D01*
X7883571Y-16110524D01*
X7874048Y-16129571D01*
X7874048Y-16177190D01*
X7883571Y-16196238D01*
X7893095Y-16205762D01*
X7912143Y-16215286D01*
X7950238Y-16215286D01*
X7969286Y-16205762D01*
X7978809Y-16196238D01*
X7988333Y-16177190D01*
X8226428Y-16291476D02*
X8226428Y-16091476D01*
X8312143Y-16291476D02*
X8312143Y-16186714D01*
X8302619Y-16167667D01*
X8283571Y-16158143D01*
X8255000Y-16158143D01*
X8235952Y-16167667D01*
X8226428Y-16177190D01*
X8435952Y-16291476D02*
X8416905Y-16281952D01*
X8407381Y-16272428D01*
X8397857Y-16253381D01*
X8397857Y-16196238D01*
X8407381Y-16177190D01*
X8416905Y-16167667D01*
X8435952Y-16158143D01*
X8464524Y-16158143D01*
X8483571Y-16167667D01*
X8493095Y-16177190D01*
X8502619Y-16196238D01*
X8502619Y-16253381D01*
X8493095Y-16272428D01*
X8483571Y-16281952D01*
X8464524Y-16291476D01*
X8435952Y-16291476D01*
X8616905Y-16291476D02*
X8597857Y-16281952D01*
X8588333Y-16262905D01*
X8588333Y-16091476D01*
X8769286Y-16281952D02*
X8750238Y-16291476D01*
X8712143Y-16291476D01*
X8693095Y-16281952D01*
X8683571Y-16262905D01*
X8683571Y-16186714D01*
X8693095Y-16167667D01*
X8712143Y-16158143D01*
X8750238Y-16158143D01*
X8769286Y-16167667D01*
X8778810Y-16186714D01*
X8778810Y-16205762D01*
X8683571Y-16224809D01*
X8855000Y-16281952D02*
X8874048Y-16291476D01*
X8912143Y-16291476D01*
X8931190Y-16281952D01*
X8940714Y-16262905D01*
X8940714Y-16253381D01*
X8931190Y-16234333D01*
X8912143Y-16224809D01*
X8883571Y-16224809D01*
X8864524Y-16215286D01*
X8855000Y-16196238D01*
X8855000Y-16186714D01*
X8864524Y-16167667D01*
X8883571Y-16158143D01*
X8912143Y-16158143D01*
X8931190Y-16167667D01*
X9007381Y-16367667D02*
X9016905Y-16358143D01*
X9035952Y-16329571D01*
X9045476Y-16310524D01*
X9055000Y-16281952D01*
X9064524Y-16234333D01*
X9064524Y-16196238D01*
X9055000Y-16148619D01*
X9045476Y-16120048D01*
X9035952Y-16101000D01*
X9016905Y-16072428D01*
X9007381Y-16062905D01*
X3845000Y-16365000D02*
X4045000Y-16565000D01*
X4045000Y-16365000D02*
X3845000Y-16565000D01*
X4045000Y-16465000D02*
G75*
G03*
X4045000Y-16465000I-100000J0D01*
G01*
X4293095Y-16374524D02*
X4302619Y-16365000D01*
X4321667Y-16355476D01*
X4369286Y-16355476D01*
X4388333Y-16365000D01*
X4397857Y-16374524D01*
X4407381Y-16393571D01*
X4407381Y-16412619D01*
X4397857Y-16441190D01*
X4283571Y-16555476D01*
X4407381Y-16555476D01*
X4493095Y-16536428D02*
X4502619Y-16545952D01*
X4493095Y-16555476D01*
X4483571Y-16545952D01*
X4493095Y-16536428D01*
X4493095Y-16555476D01*
X4578810Y-16374524D02*
X4588333Y-16365000D01*
X4607381Y-16355476D01*
X4655000Y-16355476D01*
X4674048Y-16365000D01*
X4683571Y-16374524D01*
X4693095Y-16393571D01*
X4693095Y-16412619D01*
X4683571Y-16441190D01*
X4569286Y-16555476D01*
X4693095Y-16555476D01*
X4816905Y-16355476D02*
X4835952Y-16355476D01*
X4855000Y-16365000D01*
X4864524Y-16374524D01*
X4874048Y-16393571D01*
X4883571Y-16431667D01*
X4883571Y-16479286D01*
X4874048Y-16517381D01*
X4864524Y-16536428D01*
X4855000Y-16545952D01*
X4835952Y-16555476D01*
X4816905Y-16555476D01*
X4797857Y-16545952D01*
X4788333Y-16536428D01*
X4778810Y-16517381D01*
X4769286Y-16479286D01*
X4769286Y-16431667D01*
X4778810Y-16393571D01*
X4788333Y-16374524D01*
X4797857Y-16365000D01*
X4816905Y-16355476D01*
X5007381Y-16355476D02*
X5026429Y-16355476D01*
X5045476Y-16365000D01*
X5055000Y-16374524D01*
X5064524Y-16393571D01*
X5074048Y-16431667D01*
X5074048Y-16479286D01*
X5064524Y-16517381D01*
X5055000Y-16536428D01*
X5045476Y-16545952D01*
X5026429Y-16555476D01*
X5007381Y-16555476D01*
X4988333Y-16545952D01*
X4978810Y-16536428D01*
X4969286Y-16517381D01*
X4959762Y-16479286D01*
X4959762Y-16431667D01*
X4969286Y-16393571D01*
X4978810Y-16374524D01*
X4988333Y-16365000D01*
X5007381Y-16355476D01*
X5159762Y-16555476D02*
X5159762Y-16422143D01*
X5159762Y-16441190D02*
X5169286Y-16431667D01*
X5188333Y-16422143D01*
X5216905Y-16422143D01*
X5235952Y-16431667D01*
X5245476Y-16450714D01*
X5245476Y-16555476D01*
X5245476Y-16450714D02*
X5255000Y-16431667D01*
X5274048Y-16422143D01*
X5302619Y-16422143D01*
X5321667Y-16431667D01*
X5331190Y-16450714D01*
X5331190Y-16555476D01*
X5426429Y-16555476D02*
X5426429Y-16422143D01*
X5426429Y-16441190D02*
X5435952Y-16431667D01*
X5455000Y-16422143D01*
X5483571Y-16422143D01*
X5502619Y-16431667D01*
X5512143Y-16450714D01*
X5512143Y-16555476D01*
X5512143Y-16450714D02*
X5521667Y-16431667D01*
X5540714Y-16422143D01*
X5569286Y-16422143D01*
X5588333Y-16431667D01*
X5597857Y-16450714D01*
X5597857Y-16555476D01*
X5988333Y-16345952D02*
X5816905Y-16603095D01*
X6245476Y-16355476D02*
X6264524Y-16355476D01*
X6283571Y-16365000D01*
X6293095Y-16374524D01*
X6302619Y-16393571D01*
X6312143Y-16431667D01*
X6312143Y-16479286D01*
X6302619Y-16517381D01*
X6293095Y-16536428D01*
X6283571Y-16545952D01*
X6264524Y-16555476D01*
X6245476Y-16555476D01*
X6226428Y-16545952D01*
X6216905Y-16536428D01*
X6207381Y-16517381D01*
X6197857Y-16479286D01*
X6197857Y-16431667D01*
X6207381Y-16393571D01*
X6216905Y-16374524D01*
X6226428Y-16365000D01*
X6245476Y-16355476D01*
X6397857Y-16536428D02*
X6407381Y-16545952D01*
X6397857Y-16555476D01*
X6388333Y-16545952D01*
X6397857Y-16536428D01*
X6397857Y-16555476D01*
X6531190Y-16355476D02*
X6550238Y-16355476D01*
X6569286Y-16365000D01*
X6578809Y-16374524D01*
X6588333Y-16393571D01*
X6597857Y-16431667D01*
X6597857Y-16479286D01*
X6588333Y-16517381D01*
X6578809Y-16536428D01*
X6569286Y-16545952D01*
X6550238Y-16555476D01*
X6531190Y-16555476D01*
X6512143Y-16545952D01*
X6502619Y-16536428D01*
X6493095Y-16517381D01*
X6483571Y-16479286D01*
X6483571Y-16431667D01*
X6493095Y-16393571D01*
X6502619Y-16374524D01*
X6512143Y-16365000D01*
X6531190Y-16355476D01*
X6712143Y-16441190D02*
X6693095Y-16431667D01*
X6683571Y-16422143D01*
X6674048Y-16403095D01*
X6674048Y-16393571D01*
X6683571Y-16374524D01*
X6693095Y-16365000D01*
X6712143Y-16355476D01*
X6750238Y-16355476D01*
X6769286Y-16365000D01*
X6778809Y-16374524D01*
X6788333Y-16393571D01*
X6788333Y-16403095D01*
X6778809Y-16422143D01*
X6769286Y-16431667D01*
X6750238Y-16441190D01*
X6712143Y-16441190D01*
X6693095Y-16450714D01*
X6683571Y-16460238D01*
X6674048Y-16479286D01*
X6674048Y-16517381D01*
X6683571Y-16536428D01*
X6693095Y-16545952D01*
X6712143Y-16555476D01*
X6750238Y-16555476D01*
X6769286Y-16545952D01*
X6778809Y-16536428D01*
X6788333Y-16517381D01*
X6788333Y-16479286D01*
X6778809Y-16460238D01*
X6769286Y-16450714D01*
X6750238Y-16441190D01*
X6959762Y-16355476D02*
X6921667Y-16355476D01*
X6902619Y-16365000D01*
X6893095Y-16374524D01*
X6874048Y-16403095D01*
X6864524Y-16441190D01*
X6864524Y-16517381D01*
X6874048Y-16536428D01*
X6883571Y-16545952D01*
X6902619Y-16555476D01*
X6940714Y-16555476D01*
X6959762Y-16545952D01*
X6969286Y-16536428D01*
X6978809Y-16517381D01*
X6978809Y-16469762D01*
X6969286Y-16450714D01*
X6959762Y-16441190D01*
X6940714Y-16431667D01*
X6902619Y-16431667D01*
X6883571Y-16441190D01*
X6874048Y-16450714D01*
X6864524Y-16469762D01*
X7150238Y-16355476D02*
X7112143Y-16355476D01*
X7093095Y-16365000D01*
X7083571Y-16374524D01*
X7064524Y-16403095D01*
X7055000Y-16441190D01*
X7055000Y-16517381D01*
X7064524Y-16536428D01*
X7074048Y-16545952D01*
X7093095Y-16555476D01*
X7131190Y-16555476D01*
X7150238Y-16545952D01*
X7159762Y-16536428D01*
X7169286Y-16517381D01*
X7169286Y-16469762D01*
X7159762Y-16450714D01*
X7150238Y-16441190D01*
X7131190Y-16431667D01*
X7093095Y-16431667D01*
X7074048Y-16441190D01*
X7064524Y-16450714D01*
X7055000Y-16469762D01*
X7245476Y-16355476D02*
X7245476Y-16393571D01*
X7321667Y-16355476D02*
X7321667Y-16393571D01*
X7616905Y-16631667D02*
X7607381Y-16622143D01*
X7588333Y-16593571D01*
X7578809Y-16574524D01*
X7569286Y-16545952D01*
X7559762Y-16498333D01*
X7559762Y-16460238D01*
X7569286Y-16412619D01*
X7578809Y-16384048D01*
X7588333Y-16365000D01*
X7607381Y-16336428D01*
X7616905Y-16326905D01*
X7778809Y-16422143D02*
X7778809Y-16555476D01*
X7731190Y-16345952D02*
X7683571Y-16488809D01*
X7807381Y-16488809D01*
X8035952Y-16555476D02*
X8035952Y-16355476D01*
X8121667Y-16555476D02*
X8121667Y-16450714D01*
X8112143Y-16431667D01*
X8093095Y-16422143D01*
X8064524Y-16422143D01*
X8045476Y-16431667D01*
X8035952Y-16441190D01*
X8245476Y-16555476D02*
X8226428Y-16545952D01*
X8216905Y-16536428D01*
X8207381Y-16517381D01*
X8207381Y-16460238D01*
X8216905Y-16441190D01*
X8226428Y-16431667D01*
X8245476Y-16422143D01*
X8274048Y-16422143D01*
X8293095Y-16431667D01*
X8302619Y-16441190D01*
X8312143Y-16460238D01*
X8312143Y-16517381D01*
X8302619Y-16536428D01*
X8293095Y-16545952D01*
X8274048Y-16555476D01*
X8245476Y-16555476D01*
X8426429Y-16555476D02*
X8407381Y-16545952D01*
X8397857Y-16526905D01*
X8397857Y-16355476D01*
X8578810Y-16545952D02*
X8559762Y-16555476D01*
X8521667Y-16555476D01*
X8502619Y-16545952D01*
X8493095Y-16526905D01*
X8493095Y-16450714D01*
X8502619Y-16431667D01*
X8521667Y-16422143D01*
X8559762Y-16422143D01*
X8578810Y-16431667D01*
X8588333Y-16450714D01*
X8588333Y-16469762D01*
X8493095Y-16488809D01*
X8664524Y-16545952D02*
X8683571Y-16555476D01*
X8721667Y-16555476D01*
X8740714Y-16545952D01*
X8750238Y-16526905D01*
X8750238Y-16517381D01*
X8740714Y-16498333D01*
X8721667Y-16488809D01*
X8693095Y-16488809D01*
X8674048Y-16479286D01*
X8664524Y-16460238D01*
X8664524Y-16450714D01*
X8674048Y-16431667D01*
X8693095Y-16422143D01*
X8721667Y-16422143D01*
X8740714Y-16431667D01*
X8816905Y-16631667D02*
X8826429Y-16622143D01*
X8845476Y-16593571D01*
X8855000Y-16574524D01*
X8864524Y-16545952D01*
X8874048Y-16498333D01*
X8874048Y-16460238D01*
X8864524Y-16412619D01*
X8855000Y-16384048D01*
X8845476Y-16365000D01*
X8826429Y-16336428D01*
X8816905Y-16326905D01*
M02*
