%TF.GenerationSoftware,KiCad,Pcbnew,(6.0.1)*%
%TF.CreationDate,2022-04-12T22:30:48-05:00*%
%TF.ProjectId,singular_SIV,73696e67-756c-4617-925f-5349562e6b69,rev?*%
%TF.SameCoordinates,Original*%
%TF.FileFunction,Copper,L1,Top*%
%TF.FilePolarity,Positive*%
%FSLAX46Y46*%
G04 Gerber Fmt 4.6, Leading zero omitted, Abs format (unit mm)*
G04 Created by KiCad (PCBNEW (6.0.1)) date 2022-04-12 22:30:48*
%MOMM*%
%LPD*%
G01*
G04 APERTURE LIST*
G04 Aperture macros list*
%AMRoundRect*
0 Rectangle with rounded corners*
0 $1 Rounding radius*
0 $2 $3 $4 $5 $6 $7 $8 $9 X,Y pos of 4 corners*
0 Add a 4 corners polygon primitive as box body*
4,1,4,$2,$3,$4,$5,$6,$7,$8,$9,$2,$3,0*
0 Add four circle primitives for the rounded corners*
1,1,$1+$1,$2,$3*
1,1,$1+$1,$4,$5*
1,1,$1+$1,$6,$7*
1,1,$1+$1,$8,$9*
0 Add four rect primitives between the rounded corners*
20,1,$1+$1,$2,$3,$4,$5,0*
20,1,$1+$1,$4,$5,$6,$7,0*
20,1,$1+$1,$6,$7,$8,$9,0*
20,1,$1+$1,$8,$9,$2,$3,0*%
G04 Aperture macros list end*
%TA.AperFunction,ComponentPad*%
%ADD10RoundRect,0.250000X-0.600000X-0.725000X0.600000X-0.725000X0.600000X0.725000X-0.600000X0.725000X0*%
%TD*%
%TA.AperFunction,ComponentPad*%
%ADD11O,1.700000X1.950000*%
%TD*%
%TA.AperFunction,ComponentPad*%
%ADD12C,2.600000*%
%TD*%
%TA.AperFunction,ConnectorPad*%
%ADD13C,3.800000*%
%TD*%
%TA.AperFunction,ComponentPad*%
%ADD14C,1.100000*%
%TD*%
%TA.AperFunction,ComponentPad*%
%ADD15C,1.300000*%
%TD*%
%TA.AperFunction,ComponentPad*%
%ADD16C,1.600000*%
%TD*%
%TA.AperFunction,ComponentPad*%
%ADD17R,1.300000X1.300000*%
%TD*%
%TA.AperFunction,ComponentPad*%
%ADD18R,1.600000X1.600000*%
%TD*%
%TA.AperFunction,SMDPad,CuDef*%
%ADD19RoundRect,0.250000X-0.312500X-0.625000X0.312500X-0.625000X0.312500X0.625000X-0.312500X0.625000X0*%
%TD*%
%TA.AperFunction,SMDPad,CuDef*%
%ADD20RoundRect,0.020500X-0.764500X-0.184500X0.764500X-0.184500X0.764500X0.184500X-0.764500X0.184500X0*%
%TD*%
%TA.AperFunction,SMDPad,CuDef*%
%ADD21R,0.600000X1.750000*%
%TD*%
%TA.AperFunction,SMDPad,CuDef*%
%ADD22R,0.500000X1.500000*%
%TD*%
%TA.AperFunction,SMDPad,CuDef*%
%ADD23RoundRect,0.250000X-0.325000X-0.650000X0.325000X-0.650000X0.325000X0.650000X-0.325000X0.650000X0*%
%TD*%
%TA.AperFunction,ViaPad*%
%ADD24C,0.800000*%
%TD*%
%TA.AperFunction,Conductor*%
%ADD25C,0.250000*%
%TD*%
G04 APERTURE END LIST*
D10*
%TO.P,J2,1,Pin_1*%
%TO.N,5V*%
X46500000Y-72500000D03*
D11*
%TO.P,J2,2,Pin_2*%
%TO.N,GND*%
X49000000Y-72500000D03*
%TO.P,J2,3,Pin_3*%
%TO.N,unconnected-(J2-Pad3)*%
X51500000Y-72500000D03*
%TO.P,J2,4,Pin_4*%
%TO.N,GND*%
X54000000Y-72500000D03*
%TO.P,J2,5,Pin_5*%
%TO.N,5V*%
X56500000Y-72500000D03*
%TD*%
D12*
%TO.P,REF\u002A\u002A,1*%
%TO.N,N/C*%
X135000000Y-134000000D03*
D13*
X135000000Y-134000000D03*
%TD*%
D12*
%TO.P,REF\u002A\u002A,1*%
%TO.N,N/C*%
X135000000Y-62000000D03*
D13*
X135000000Y-62000000D03*
%TD*%
D12*
%TO.P,REF\u002A\u002A,1*%
%TO.N,N/C*%
X49500000Y-135500000D03*
D13*
X49500000Y-135500000D03*
%TD*%
%TO.P,REF\u002A\u002A,1*%
%TO.N,N/C*%
X49500000Y-62000000D03*
D12*
X49500000Y-62000000D03*
%TD*%
D14*
%TO.P,J1,26,26*%
%TO.N,I13*%
X83510000Y-127130000D03*
%TO.P,J1,25,25*%
%TO.N,I14*%
X84760000Y-127130000D03*
%TO.P,J1,24,24*%
%TO.N,I15*%
X86010000Y-127130000D03*
%TO.P,J1,23,23*%
%TO.N,GND*%
X87260000Y-127130000D03*
%TO.P,J1,22,22*%
%TO.N,unconnected-(J1-Pad22)*%
X88510000Y-127130000D03*
%TO.P,J1,21,21*%
%TO.N,unconnected-(J1-Pad21)*%
X89760000Y-127130000D03*
%TO.P,J1,20,20*%
%TO.N,unconnected-(J1-Pad20)*%
X91010000Y-127130000D03*
%TO.P,J1,19,19*%
%TO.N,unconnected-(J1-Pad19)*%
X92260000Y-127130000D03*
%TO.P,J1,18,18*%
%TO.N,unconnected-(J1-Pad18)*%
X93510000Y-127130000D03*
%TO.P,J1,17,17*%
%TO.N,unconnected-(J1-Pad17)*%
X94760000Y-127130000D03*
%TO.P,J1,16,16*%
%TO.N,unconnected-(J1-Pad16)*%
X96010000Y-127130000D03*
%TO.P,J1,15,15*%
%TO.N,unconnected-(J1-Pad15)*%
X97260000Y-127130000D03*
%TO.P,J1,14,14*%
%TO.N,GND*%
X98510000Y-127130000D03*
%TO.P,J1,13,13*%
%TO.N,I12*%
X83510000Y-125880000D03*
%TO.P,J1,12,12*%
%TO.N,I11*%
X84760000Y-125880000D03*
%TO.P,J1,11,11*%
%TO.N,I10*%
X86010000Y-125880000D03*
%TO.P,J1,10,10*%
%TO.N,I9*%
X87260000Y-125880000D03*
%TO.P,J1,9,9*%
%TO.N,I8*%
X88510000Y-125880000D03*
%TO.P,J1,8,8*%
%TO.N,I7*%
X89760000Y-125880000D03*
%TO.P,J1,7,7*%
%TO.N,I6*%
X91010000Y-125880000D03*
%TO.P,J1,6,6*%
%TO.N,I5*%
X92260000Y-125880000D03*
%TO.P,J1,5,5*%
%TO.N,I4*%
X93510000Y-125880000D03*
%TO.P,J1,4,4*%
%TO.N,I3*%
X94760000Y-125880000D03*
%TO.P,J1,3,3*%
%TO.N,I2*%
X96010000Y-125880000D03*
%TO.P,J1,2,2*%
%TO.N,I1*%
X97260000Y-125880000D03*
%TO.P,J1,1,1*%
%TO.N,I0*%
X98510000Y-125880000D03*
%TD*%
D15*
%TO.P,U1,66,D-*%
%TO.N,unconnected-(U1-Pad66)*%
X71530000Y-73110000D03*
%TO.P,U1,67,D+*%
%TO.N,unconnected-(U1-Pad67)*%
X71530000Y-75650000D03*
D16*
%TO.P,U1,54,ON_OFF*%
%TO.N,unconnected-(U1-Pad54)*%
X116520000Y-69300000D03*
%TO.P,U1,53,PROGRAM*%
%TO.N,unconnected-(U1-Pad53)*%
X116520000Y-71840000D03*
%TO.P,U1,52,GND*%
%TO.N,unconnected-(U1-Pad52)*%
X116520000Y-74380000D03*
%TO.P,U1,51,3V3*%
%TO.N,unconnected-(U1-Pad51)*%
X116520000Y-76920000D03*
%TO.P,U1,50,VBAT*%
%TO.N,unconnected-(U1-Pad50)*%
X116520000Y-79460000D03*
D15*
%TO.P,U1,62,T-*%
%TO.N,unconnected-(U1-Pad62)*%
X83770000Y-73198400D03*
%TO.P,U1,63,T+*%
%TO.N,unconnected-(U1-Pad63)*%
X85770000Y-73198400D03*
%TO.P,U1,64,GND*%
%TO.N,unconnected-(U1-Pad64)*%
X85770000Y-71198400D03*
%TO.P,U1,61,LED*%
%TO.N,unconnected-(U1-Pad61)*%
X83770000Y-71198400D03*
%TO.P,U1,65,R-*%
%TO.N,unconnected-(U1-Pad65)*%
X85770000Y-69198400D03*
D17*
%TO.P,U1,60,R+*%
%TO.N,unconnected-(U1-Pad60)*%
X83770000Y-69198400D03*
D16*
%TO.P,U1,17,25_A11_RX6_SDA2*%
%TO.N,unconnected-(U1-Pad17)*%
X111440000Y-82000000D03*
%TO.P,U1,18,26_A12_MOSI1*%
%TO.N,unconnected-(U1-Pad18)*%
X113980000Y-82000000D03*
%TO.P,U1,19,27_A13_SCK1*%
%TO.N,unconnected-(U1-Pad19)*%
X116520000Y-82000000D03*
%TO.P,U1,20,28_RX7*%
%TO.N,unconnected-(U1-Pad20)*%
X119060000Y-82000000D03*
%TO.P,U1,16,24_A10_TX6_SCL2*%
%TO.N,unconnected-(U1-Pad16)*%
X108900000Y-82000000D03*
%TO.P,U1,15,3V3*%
%TO.N,unconnected-(U1-Pad15)*%
X106360000Y-82000000D03*
%TO.P,U1,14,12_MISO_MQSL*%
%TO.N,unconnected-(U1-Pad14)*%
X103820000Y-82000000D03*
%TO.P,U1,21,29_TX7*%
%TO.N,unconnected-(U1-Pad21)*%
X121600000Y-82000000D03*
%TO.P,U1,22,30_CRX3*%
%TO.N,unconnected-(U1-Pad22)*%
X124140000Y-82000000D03*
%TO.P,U1,23,31_CTX3*%
%TO.N,unconnected-(U1-Pad23)*%
X126680000Y-82000000D03*
%TO.P,U1,24,32_OUT1B*%
%TO.N,unconnected-(U1-Pad24)*%
X129220000Y-82000000D03*
%TO.P,U1,25,33_MCLK2*%
%TO.N,unconnected-(U1-Pad25)*%
X129220000Y-66760000D03*
%TO.P,U1,26,34_RX8*%
%TO.N,unconnected-(U1-Pad26)*%
X126680000Y-66760000D03*
%TO.P,U1,27,35_TX8*%
%TO.N,unconnected-(U1-Pad27)*%
X124140000Y-66760000D03*
%TO.P,U1,28,36_CS*%
%TO.N,unconnected-(U1-Pad28)*%
X121600000Y-66760000D03*
%TO.P,U1,29,37_CS*%
%TO.N,unconnected-(U1-Pad29)*%
X119060000Y-66760000D03*
%TO.P,U1,30,38_CS1_IN1*%
%TO.N,unconnected-(U1-Pad30)*%
X116520000Y-66760000D03*
%TO.P,U1,31,39_MISO1_OUT1A*%
%TO.N,unconnected-(U1-Pad31)*%
X113980000Y-66760000D03*
%TO.P,U1,32,40_A16*%
%TO.N,unconnected-(U1-Pad32)*%
X111440000Y-66760000D03*
%TO.P,U1,33,41_A17*%
%TO.N,unconnected-(U1-Pad33)*%
X108900000Y-66760000D03*
%TO.P,U1,34,GND*%
%TO.N,unconnected-(U1-Pad34)*%
X106360000Y-66760000D03*
%TO.P,U1,13,11_MOSI_CTX1*%
%TO.N,MOSI*%
X101280000Y-82000000D03*
%TO.P,U1,12,10_CS_MQSR*%
%TO.N,CS*%
X98740000Y-82000000D03*
%TO.P,U1,11,9_OUT1C*%
%TO.N,unconnected-(U1-Pad11)*%
X96200000Y-82000000D03*
%TO.P,U1,10,8_TX2_IN1*%
%TO.N,unconnected-(U1-Pad10)*%
X93660000Y-82000000D03*
%TO.P,U1,9,7_RX2_OUT1A*%
%TO.N,unconnected-(U1-Pad9)*%
X91120000Y-82000000D03*
%TO.P,U1,8,6_OUT1D*%
%TO.N,EN*%
X88580000Y-82000000D03*
%TO.P,U1,7,5_IN2*%
%TO.N,SEL3*%
X86040000Y-82000000D03*
%TO.P,U1,6,4_BCLK2*%
%TO.N,SEL2*%
X83500000Y-82000000D03*
%TO.P,U1,5,3_LRCLK2*%
%TO.N,SEL1*%
X80960000Y-82000000D03*
%TO.P,U1,4,2_OUT2*%
%TO.N,SEL0*%
X78420000Y-82000000D03*
%TO.P,U1,3,1_TX1_CTX2_MISO1*%
%TO.N,unconnected-(U1-Pad3)*%
X75880000Y-82000000D03*
%TO.P,U1,2,0_RX1_CRX2_CS1*%
%TO.N,unconnected-(U1-Pad2)*%
X73340000Y-82000000D03*
D18*
%TO.P,U1,1,GND*%
%TO.N,GND*%
X70800000Y-82000000D03*
D16*
%TO.P,U1,35,13_SCK_LED*%
%TO.N,SCK*%
X103820000Y-66760000D03*
%TO.P,U1,36,14_A0_TX3_SPDIF_OUT*%
%TO.N,A0*%
X101280000Y-66760000D03*
%TO.P,U1,37,15_A1_RX3_SPDIF_IN*%
%TO.N,A1*%
X98740000Y-66760000D03*
%TO.P,U1,38,16_A2_RX4_SCL1*%
%TO.N,unconnected-(U1-Pad38)*%
X96200000Y-66760000D03*
%TO.P,U1,39,17_A3_TX4_SDA1*%
%TO.N,unconnected-(U1-Pad39)*%
X93660000Y-66760000D03*
%TO.P,U1,40,18_A4_SDA*%
%TO.N,unconnected-(U1-Pad40)*%
X91120000Y-66760000D03*
%TO.P,U1,41,19_A5_SCL*%
%TO.N,unconnected-(U1-Pad41)*%
X88580000Y-66760000D03*
%TO.P,U1,42,20_A6_TX5_LRCLK1*%
%TO.N,unconnected-(U1-Pad42)*%
X86040000Y-66760000D03*
%TO.P,U1,43,21_A7_RX5_BCLK1*%
%TO.N,unconnected-(U1-Pad43)*%
X83500000Y-66760000D03*
%TO.P,U1,44,22_A8_CTX1*%
%TO.N,unconnected-(U1-Pad44)*%
X80960000Y-66760000D03*
%TO.P,U1,45,23_A9_CRX1_MCLK1*%
%TO.N,unconnected-(U1-Pad45)*%
X78420000Y-66760000D03*
%TO.P,U1,46,3V3*%
%TO.N,VDD*%
X75880000Y-66760000D03*
%TO.P,U1,47,GND*%
%TO.N,unconnected-(U1-Pad47)*%
X73340000Y-66760000D03*
%TO.P,U1,48,VIN*%
%TO.N,5V*%
X70800000Y-66760000D03*
D18*
%TO.P,U1,55,5V*%
%TO.N,unconnected-(U1-Pad55)*%
X77099200Y-78949200D03*
D16*
%TO.P,U1,56,D-*%
%TO.N,unconnected-(U1-Pad56)*%
X79639200Y-78949200D03*
%TO.P,U1,57,D+*%
%TO.N,unconnected-(U1-Pad57)*%
X82179200Y-78949200D03*
%TO.P,U1,58,GND*%
%TO.N,unconnected-(U1-Pad58)*%
X84719200Y-78949200D03*
%TO.P,U1,59,GND*%
%TO.N,unconnected-(U1-Pad59)*%
X87259200Y-78949200D03*
%TO.P,U1,49,VUSB*%
%TO.N,unconnected-(U1-Pad49)*%
X73340000Y-69300000D03*
%TD*%
D19*
%TO.P,R1,2*%
%TO.N,Net-(DP1-Pad8)*%
X103472500Y-99880000D03*
%TO.P,R1,1*%
%TO.N,A0*%
X100547500Y-99880000D03*
%TD*%
D20*
%TO.P,O1,14,OUT4*%
%TO.N,unconnected-(O1-Pad14)*%
X122380000Y-91430000D03*
%TO.P,O1,13,IN-4*%
%TO.N,unconnected-(O1-Pad13)*%
X122380000Y-92080000D03*
%TO.P,O1,12,IN+4*%
%TO.N,unconnected-(O1-Pad12)*%
X122380000Y-92730000D03*
%TO.P,O1,11,GND*%
%TO.N,GND*%
X122380000Y-93380000D03*
%TO.P,O1,10,IN+3*%
%TO.N,unconnected-(O1-Pad10)*%
X122380000Y-94030000D03*
%TO.P,O1,9,IN-3*%
%TO.N,unconnected-(O1-Pad9)*%
X122380000Y-94680000D03*
%TO.P,O1,8,OUT3*%
%TO.N,unconnected-(O1-Pad8)*%
X122380000Y-95330000D03*
%TO.P,O1,7,OUT2*%
%TO.N,unconnected-(O1-Pad7)*%
X116640000Y-95330000D03*
%TO.P,O1,6,IN-2*%
%TO.N,unconnected-(O1-Pad6)*%
X116640000Y-94680000D03*
%TO.P,O1,5,IN+2*%
%TO.N,unconnected-(O1-Pad5)*%
X116640000Y-94030000D03*
%TO.P,O1,4,VS*%
%TO.N,VDD*%
X116640000Y-93380000D03*
%TO.P,O1,3,IN+1*%
%TO.N,A0*%
X116640000Y-92730000D03*
%TO.P,O1,2,IN-1*%
%TO.N,Net-(DP1-Pad8)*%
X116640000Y-92080000D03*
%TO.P,O1,1,OUT1*%
%TO.N,A1*%
X116640000Y-91430000D03*
%TD*%
D21*
%TO.P,DP1,1,B1*%
%TO.N,unconnected-(DP1-Pad1)*%
X119105000Y-107880000D03*
%TO.P,DP1,2,GND*%
%TO.N,GND*%
X120375000Y-107880000D03*
%TO.P,DP1,3,~{CS}*%
%TO.N,CS*%
X121645000Y-107880000D03*
%TO.P,DP1,4,SDI*%
%TO.N,MOSI*%
X122915000Y-107880000D03*
%TO.P,DP1,5,CLK*%
%TO.N,SCK*%
X122915000Y-101880000D03*
%TO.P,DP1,6,VDD*%
%TO.N,VDD*%
X121645000Y-101880000D03*
%TO.P,DP1,7,W1*%
%TO.N,GND*%
X120375000Y-101880000D03*
%TO.P,DP1,8,A1*%
%TO.N,Net-(DP1-Pad8)*%
X119105000Y-101880000D03*
%TD*%
D22*
%TO.P,DM1,24,VCC*%
%TO.N,VDD*%
X75025000Y-99880000D03*
%TO.P,DM1,23,I8*%
%TO.N,I8*%
X76295000Y-99880000D03*
%TO.P,DM1,22,I9*%
%TO.N,I9*%
X77565000Y-99880000D03*
%TO.P,DM1,21,I10*%
%TO.N,I10*%
X78835000Y-99880000D03*
%TO.P,DM1,20,I11*%
%TO.N,I11*%
X80105000Y-99880000D03*
%TO.P,DM1,19,I12*%
%TO.N,I12*%
X81375000Y-99880000D03*
%TO.P,DM1,18,I13*%
%TO.N,I13*%
X82645000Y-99880000D03*
%TO.P,DM1,17,I14*%
%TO.N,I14*%
X83915000Y-99880000D03*
%TO.P,DM1,16,I15*%
%TO.N,I15*%
X85185000Y-99880000D03*
%TO.P,DM1,15,~{E}*%
%TO.N,EN*%
X86455000Y-99880000D03*
%TO.P,DM1,14,S2*%
%TO.N,SEL2*%
X87725000Y-99880000D03*
%TO.P,DM1,13,S3*%
%TO.N,SEL3*%
X88995000Y-99880000D03*
%TO.P,DM1,12,GND*%
%TO.N,GND*%
X88995000Y-108880000D03*
%TO.P,DM1,11,S1*%
%TO.N,SEL1*%
X87725000Y-108880000D03*
%TO.P,DM1,10,S0*%
%TO.N,SEL0*%
X86455000Y-108880000D03*
%TO.P,DM1,9,I0*%
%TO.N,I0*%
X85185000Y-108880000D03*
%TO.P,DM1,8,I1*%
%TO.N,I1*%
X83915000Y-108880000D03*
%TO.P,DM1,7,I2*%
%TO.N,I2*%
X82645000Y-108880000D03*
%TO.P,DM1,6,I3*%
%TO.N,I3*%
X81375000Y-108880000D03*
%TO.P,DM1,5,I4*%
%TO.N,I4*%
X80105000Y-108880000D03*
%TO.P,DM1,4,I5*%
%TO.N,I5*%
X78835000Y-108880000D03*
%TO.P,DM1,3,I6*%
%TO.N,I6*%
X77565000Y-108880000D03*
%TO.P,DM1,2,I7*%
%TO.N,I7*%
X76295000Y-108880000D03*
%TO.P,DM1,1,OUT*%
%TO.N,A0*%
X75025000Y-108880000D03*
%TD*%
D23*
%TO.P,C1,2*%
%TO.N,GND*%
X103485000Y-105880000D03*
%TO.P,C1,1*%
%TO.N,VDD*%
X100535000Y-105880000D03*
%TD*%
D24*
%TO.N,SCK*%
X104010000Y-64880000D03*
X123510000Y-98880000D03*
%TO.N,MOSI*%
X122010000Y-104380000D03*
X100510000Y-87380000D03*
%TO.N,CS*%
X121510000Y-105880000D03*
X96510000Y-88880000D03*
%TO.N,VDD*%
X115010000Y-97380000D03*
X121010000Y-98880000D03*
%TO.N,Net-(DP1-Pad8)*%
X111510000Y-91380000D03*
X110510000Y-94380000D03*
%TO.N,GND*%
X71510000Y-85380000D03*
X92010000Y-107880000D03*
%TO.N,SEL1*%
X81510000Y-86880000D03*
X87010000Y-106880000D03*
%TO.N,SEL0*%
X78510000Y-85604500D03*
X85510000Y-106880000D03*
%TO.N,SEL3*%
X86510000Y-84880000D03*
X89510000Y-87880000D03*
%TO.N,SEL2*%
X88010000Y-93880000D03*
X84010000Y-86380000D03*
%TO.N,VDD*%
X75510000Y-102880000D03*
X80510000Y-104880000D03*
X75510000Y-62880000D03*
X75010000Y-97880000D03*
%TD*%
D25*
%TO.N,GND*%
X62000000Y-82000000D02*
X54500000Y-74500000D01*
X70800000Y-82000000D02*
X62000000Y-82000000D01*
X49000000Y-74500000D02*
X54500000Y-74500000D01*
X54500000Y-74500000D02*
X54000000Y-74000000D01*
X54000000Y-74000000D02*
X54000000Y-72500000D01*
X49000000Y-72500000D02*
X49000000Y-74500000D01*
%TO.N,5V*%
X58240000Y-66760000D02*
X56500000Y-68500000D01*
X70800000Y-66760000D02*
X58240000Y-66760000D01*
X46500000Y-68500000D02*
X56500000Y-68500000D01*
X56500000Y-68500000D02*
X56500000Y-72500000D01*
X46500000Y-72500000D02*
X46500000Y-68500000D01*
%TO.N,A0*%
X104174511Y-69654511D02*
X101280000Y-66760000D01*
X105235489Y-69654511D02*
X104174511Y-69654511D01*
X105235489Y-92154511D02*
X105235489Y-69654511D01*
X104660000Y-92730000D02*
X105235489Y-92154511D01*
%TO.N,SCK*%
X104010000Y-66570000D02*
X103820000Y-66760000D01*
X104010000Y-64880000D02*
X104010000Y-66570000D01*
X122915000Y-99475000D02*
X123510000Y-98880000D01*
X122915000Y-101880000D02*
X122915000Y-99475000D01*
%TO.N,MOSI*%
X101280000Y-86610000D02*
X101280000Y-82000000D01*
X100510000Y-87380000D02*
X101280000Y-86610000D01*
X122915000Y-105285000D02*
X122010000Y-104380000D01*
X122915000Y-107880000D02*
X122915000Y-105285000D01*
%TO.N,CS*%
X98740000Y-86650000D02*
X98740000Y-82000000D01*
X96510000Y-88880000D02*
X98740000Y-86650000D01*
X121645000Y-106015000D02*
X121510000Y-105880000D01*
X121645000Y-107880000D02*
X121645000Y-106015000D01*
%TO.N,VDD*%
X115010000Y-97380000D02*
X115010000Y-96380000D01*
X113260000Y-94630000D02*
X114510000Y-93380000D01*
X106010000Y-101880000D02*
X113260000Y-94630000D01*
X115010000Y-96380000D02*
X113260000Y-94630000D01*
X121645000Y-99515000D02*
X121010000Y-98880000D01*
X121645000Y-101880000D02*
X121645000Y-99515000D01*
%TO.N,Net-(DP1-Pad8)*%
X117426931Y-92080000D02*
X116640000Y-92080000D01*
X119105000Y-93758069D02*
X117426931Y-92080000D01*
X119105000Y-101880000D02*
X119105000Y-93758069D01*
%TO.N,GND*%
X125510000Y-95723069D02*
X123166931Y-93380000D01*
X125510000Y-107880000D02*
X125510000Y-95723069D01*
X117730000Y-111100000D02*
X120375000Y-108455000D01*
X117730000Y-111100000D02*
X117950000Y-110880000D01*
X117950000Y-110880000D02*
X122510000Y-110880000D01*
X122510000Y-110880000D02*
X125510000Y-107880000D01*
X123166931Y-93380000D02*
X122380000Y-93380000D01*
X115975000Y-112855000D02*
X117730000Y-111100000D01*
%TO.N,A1*%
X98740000Y-64110000D02*
X98740000Y-66760000D01*
X107510000Y-70880000D02*
X107510000Y-63880000D01*
X106510000Y-71880000D02*
X107510000Y-70880000D01*
X107510000Y-63880000D02*
X98510000Y-63880000D01*
X110315489Y-85105489D02*
X110315489Y-75685489D01*
X110315489Y-75685489D02*
X106510000Y-71880000D01*
X116640000Y-91430000D02*
X110315489Y-85105489D01*
X98510000Y-63880000D02*
X98740000Y-64110000D01*
%TO.N,VDD*%
X102510000Y-101880000D02*
X106010000Y-101880000D01*
X100510000Y-103880000D02*
X102510000Y-101880000D01*
X114510000Y-93380000D02*
X116640000Y-93380000D01*
X100510000Y-105855000D02*
X100510000Y-103880000D01*
X100535000Y-105880000D02*
X100510000Y-105855000D01*
%TO.N,Net-(DP1-Pad8)*%
X111510000Y-91380000D02*
X112210000Y-92080000D01*
X105010000Y-99880000D02*
X110510000Y-94380000D01*
X112210000Y-92080000D02*
X116640000Y-92080000D01*
X103472500Y-99880000D02*
X105010000Y-99880000D01*
%TO.N,A0*%
X100547500Y-96842500D02*
X104660000Y-92730000D01*
X104660000Y-92730000D02*
X116640000Y-92730000D01*
X100547500Y-99880000D02*
X100547500Y-96842500D01*
%TO.N,GND*%
X70800000Y-84670000D02*
X70800000Y-82000000D01*
X71510000Y-85380000D02*
X70800000Y-84670000D01*
%TO.N,SEL0*%
X78420000Y-82000000D02*
X78420000Y-85514500D01*
X78420000Y-85514500D02*
X78510000Y-85604500D01*
%TO.N,GND*%
X91010000Y-108880000D02*
X92010000Y-107880000D01*
X88995000Y-108880000D02*
X91010000Y-108880000D01*
%TO.N,SEL1*%
X80960000Y-86330000D02*
X80960000Y-82000000D01*
X81510000Y-86880000D02*
X80960000Y-86330000D01*
X87725000Y-107595000D02*
X87010000Y-106880000D01*
X87725000Y-108880000D02*
X87725000Y-107595000D01*
%TO.N,SEL0*%
X86455000Y-107825000D02*
X85510000Y-106880000D01*
X86455000Y-108880000D02*
X86455000Y-107825000D01*
%TO.N,SEL3*%
X86510000Y-84880000D02*
X86040000Y-84410000D01*
X88995000Y-88395000D02*
X89510000Y-87880000D01*
X86040000Y-84410000D02*
X86040000Y-82000000D01*
X88995000Y-99880000D02*
X88995000Y-88395000D01*
%TO.N,SEL2*%
X83500000Y-85870000D02*
X83500000Y-82000000D01*
X84010000Y-86380000D02*
X83500000Y-85870000D01*
X87725000Y-94165000D02*
X88010000Y-93880000D01*
X87725000Y-99880000D02*
X87725000Y-94165000D01*
%TO.N,EN*%
X88580000Y-85310000D02*
X88580000Y-82000000D01*
X86455000Y-87435000D02*
X88580000Y-85310000D01*
X86455000Y-99880000D02*
X86455000Y-87435000D01*
%TO.N,VDD*%
X75025000Y-102395000D02*
X75025000Y-99880000D01*
X75510000Y-102880000D02*
X75025000Y-102395000D01*
X82510000Y-105880000D02*
X81510000Y-105880000D01*
X100535000Y-105880000D02*
X82510000Y-105880000D01*
X81510000Y-105880000D02*
X80510000Y-104880000D01*
%TO.N,A0*%
X99047500Y-101380000D02*
X100547500Y-99880000D01*
X81010000Y-101380000D02*
X99047500Y-101380000D01*
X75025000Y-107365000D02*
X81010000Y-101380000D01*
X75025000Y-108880000D02*
X75025000Y-107365000D01*
%TO.N,VDD*%
X75880000Y-63250000D02*
X75880000Y-66760000D01*
X75510000Y-62880000D02*
X75880000Y-63250000D01*
X75025000Y-99880000D02*
X75025000Y-97895000D01*
X75025000Y-97895000D02*
X75010000Y-97880000D01*
%TO.N,GND*%
X120375000Y-101880000D02*
X120375000Y-107880000D01*
X103485000Y-112855000D02*
X115975000Y-112855000D01*
X103485000Y-112855000D02*
X103485000Y-105880000D01*
X120375000Y-108455000D02*
X120375000Y-107880000D01*
X103485000Y-116420000D02*
X103485000Y-112855000D01*
X100010000Y-119895000D02*
X103485000Y-116420000D01*
X100010000Y-119895000D02*
X88995000Y-108880000D01*
X100010000Y-125630000D02*
X100010000Y-119895000D01*
X98510000Y-127130000D02*
X100010000Y-125630000D01*
X97010000Y-128630000D02*
X98510000Y-127130000D01*
X87260000Y-128630000D02*
X97010000Y-128630000D01*
X87260000Y-127130000D02*
X87260000Y-128630000D01*
%TO.N,I9*%
X77565000Y-95435000D02*
X77565000Y-99880000D01*
X77510000Y-95380000D02*
X77565000Y-95435000D01*
X73510000Y-95380000D02*
X77510000Y-95380000D01*
X71510000Y-97380000D02*
X73510000Y-95380000D01*
X71510000Y-118880000D02*
X71510000Y-97380000D01*
X72010000Y-119380000D02*
X71510000Y-118880000D01*
X80760000Y-119380000D02*
X72010000Y-119380000D01*
X87260000Y-125880000D02*
X80760000Y-119380000D01*
%TO.N,I8*%
X76080000Y-95880000D02*
X76295000Y-96095000D01*
X72010000Y-98380000D02*
X74510000Y-95880000D01*
X74060489Y-118930489D02*
X72010000Y-116880000D01*
X81560489Y-118930489D02*
X74060489Y-118930489D01*
X72010000Y-116880000D02*
X72010000Y-98380000D01*
X88510000Y-125880000D02*
X81560489Y-118930489D01*
X76295000Y-96095000D02*
X76295000Y-99880000D01*
X74510000Y-95880000D02*
X76080000Y-95880000D01*
%TO.N,I15*%
X85185000Y-92055000D02*
X85185000Y-99880000D01*
X80510000Y-87380000D02*
X85185000Y-92055000D01*
X60010000Y-122380000D02*
X60010000Y-96380000D01*
X60010000Y-96380000D02*
X69010000Y-87380000D01*
X67510000Y-129880000D02*
X60010000Y-122380000D01*
X83260000Y-129880000D02*
X67510000Y-129880000D01*
X86010000Y-127130000D02*
X83260000Y-129880000D01*
%TO.N,I14*%
X83915000Y-93920704D02*
X83915000Y-99880000D01*
X78874296Y-88880000D02*
X83915000Y-93920704D01*
X69510000Y-88880000D02*
X78874296Y-88880000D01*
%TO.N,I15*%
X69010000Y-87380000D02*
X80510000Y-87380000D01*
%TO.N,I14*%
X62510000Y-95880000D02*
X69510000Y-88880000D01*
X62510000Y-121880000D02*
X62510000Y-95880000D01*
X84760000Y-127130000D02*
X83010000Y-128880000D01*
X83010000Y-128880000D02*
X69510000Y-128880000D01*
X69510000Y-128880000D02*
X62510000Y-121880000D01*
%TO.N,I13*%
X64510000Y-97880000D02*
X72010000Y-90380000D01*
X72010000Y-90380000D02*
X78510000Y-90380000D01*
X71310000Y-127680000D02*
X64510000Y-120880000D01*
X82960000Y-127680000D02*
X71310000Y-127680000D01*
X78510000Y-90380000D02*
X82645000Y-94515000D01*
X83510000Y-127130000D02*
X82960000Y-127680000D01*
X64510000Y-120880000D02*
X64510000Y-97880000D01*
X82645000Y-94515000D02*
X82645000Y-99880000D01*
%TO.N,I12*%
X66510000Y-97880000D02*
X72510000Y-91880000D01*
X81375000Y-94745000D02*
X81375000Y-99880000D01*
X66510000Y-120880000D02*
X66510000Y-97880000D01*
X70035479Y-124405479D02*
X66510000Y-120880000D01*
X82035479Y-124405479D02*
X70035479Y-124405479D01*
X72510000Y-91880000D02*
X78510000Y-91880000D01*
X83510000Y-125880000D02*
X82035479Y-124405479D01*
X78510000Y-91880000D02*
X81375000Y-94745000D01*
%TO.N,I11*%
X80105000Y-94975000D02*
X80105000Y-99880000D01*
X78510000Y-93380000D02*
X80105000Y-94975000D01*
X68510000Y-97880000D02*
X73010000Y-93380000D01*
X68510000Y-120380000D02*
X68510000Y-97880000D01*
X69510000Y-121380000D02*
X68510000Y-120380000D01*
X73010000Y-93380000D02*
X78510000Y-93380000D01*
X80260000Y-121380000D02*
X69510000Y-121380000D01*
X84760000Y-125880000D02*
X80260000Y-121380000D01*
%TO.N,I10*%
X78835000Y-95705000D02*
X78835000Y-99880000D01*
X78010000Y-94880000D02*
X78835000Y-95705000D01*
X73010000Y-94880000D02*
X78010000Y-94880000D01*
X70510000Y-97380000D02*
X73010000Y-94880000D01*
X70510000Y-118880000D02*
X70510000Y-97380000D01*
X72010000Y-120380000D02*
X70510000Y-118880000D01*
X80510000Y-120380000D02*
X72010000Y-120380000D01*
X86010000Y-125880000D02*
X80510000Y-120380000D01*
%TO.N,I7*%
X76510000Y-118380000D02*
X76295000Y-118165000D01*
X84010000Y-118380000D02*
X76510000Y-118380000D01*
X89760000Y-124130000D02*
X84010000Y-118380000D01*
X89760000Y-125880000D02*
X89760000Y-124130000D01*
X76295000Y-118165000D02*
X76295000Y-108880000D01*
%TO.N,I6*%
X77565000Y-117325000D02*
X77565000Y-108880000D01*
X77510000Y-117380000D02*
X77565000Y-117325000D01*
X85010000Y-117380000D02*
X77510000Y-117380000D01*
X91010000Y-123380000D02*
X85010000Y-117380000D01*
%TO.N,I5*%
X92260000Y-122630000D02*
X86560489Y-116930489D01*
%TO.N,I6*%
X91010000Y-125880000D02*
X91010000Y-123380000D01*
%TO.N,I5*%
X86560489Y-116930489D02*
X79060489Y-116930489D01*
X92260000Y-125880000D02*
X92260000Y-122630000D01*
X79060489Y-116930489D02*
X78835000Y-116705000D01*
X78835000Y-116705000D02*
X78835000Y-108880000D01*
%TO.N,I4*%
X80105000Y-115975000D02*
X80105000Y-108880000D01*
X80510000Y-116380000D02*
X80105000Y-115975000D01*
X87510000Y-116380000D02*
X80510000Y-116380000D01*
X93510000Y-122380000D02*
X87510000Y-116380000D01*
X93510000Y-125880000D02*
X93510000Y-122380000D01*
%TO.N,I3*%
X82010000Y-115380000D02*
X81375000Y-114745000D01*
X88010000Y-115380000D02*
X82010000Y-115380000D01*
X81375000Y-114745000D02*
X81375000Y-108880000D01*
X94760000Y-122130000D02*
X88010000Y-115380000D01*
X94760000Y-125880000D02*
X94760000Y-122130000D01*
%TO.N,I2*%
X88510000Y-114380000D02*
X83010000Y-114380000D01*
X83010000Y-114380000D02*
X82645000Y-114015000D01*
X96010000Y-121880000D02*
X88510000Y-114380000D01*
X82645000Y-114015000D02*
X82645000Y-108880000D01*
X96010000Y-125880000D02*
X96010000Y-121880000D01*
%TO.N,I0*%
X98510000Y-121380000D02*
X98510000Y-125880000D01*
X89835000Y-112705000D02*
X98510000Y-121380000D01*
X85185000Y-112705000D02*
X89835000Y-112705000D01*
X85185000Y-108880000D02*
X85185000Y-112705000D01*
%TO.N,I1*%
X83915000Y-113785000D02*
X83915000Y-108880000D01*
X84010000Y-113880000D02*
X83915000Y-113785000D01*
X89510000Y-113880000D02*
X84010000Y-113880000D01*
X97260000Y-121630000D02*
X89510000Y-113880000D01*
X97260000Y-125880000D02*
X97260000Y-121630000D01*
%TD*%
M02*
