%TF.GenerationSoftware,KiCad,Pcbnew,(5.1.10)-1*%
%TF.CreationDate,2023-09-09T18:48:20-05:00*%
%TF.ProjectId,perovskite_contact_board,7065726f-7673-46b6-9974-655f636f6e74,V3*%
%TF.SameCoordinates,Original*%
%TF.FileFunction,Copper,L1,Top*%
%TF.FilePolarity,Positive*%
%FSLAX46Y46*%
G04 Gerber Fmt 4.6, Leading zero omitted, Abs format (unit mm)*
G04 Created by KiCad (PCBNEW (5.1.10)-1) date 2023-09-09 18:48:20*
%MOMM*%
%LPD*%
G01*
G04 APERTURE LIST*
%TA.AperFunction,SMDPad,CuDef*%
%ADD10R,4.000000X4.000000*%
%TD*%
%TA.AperFunction,SMDPad,CuDef*%
%ADD11R,3.800000X7.400000*%
%TD*%
%TA.AperFunction,ViaPad*%
%ADD12C,0.800000*%
%TD*%
G04 APERTURE END LIST*
D10*
%TO.P,U3,7*%
%TO.N,CP_3*%
X162577500Y-100463000D03*
X162577500Y-120663000D03*
%TO.P,U3,5*%
%TO.N,CELL_17*%
X173177500Y-110763000D03*
%TO.P,U3,2*%
%TO.N,CELL_14*%
X152877500Y-110713000D03*
D11*
%TO.P,U3,6*%
%TO.N,CELL_18*%
X173377500Y-118913000D03*
%TO.P,U3,4*%
%TO.N,CELL_16*%
X173377500Y-102463000D03*
%TO.P,U3,3*%
%TO.N,CELL_15*%
X152777500Y-102463000D03*
%TO.P,U3,1*%
%TO.N,CELL_13*%
X152777500Y-118913000D03*
%TD*%
D10*
%TO.P,U2,7*%
%TO.N,CP_2*%
X136479000Y-100263000D03*
X136479000Y-120463000D03*
%TO.P,U2,5*%
%TO.N,CELL_11*%
X147079000Y-110563000D03*
%TO.P,U2,2*%
%TO.N,CELL_8*%
X126779000Y-110513000D03*
D11*
%TO.P,U2,6*%
%TO.N,CELL_12*%
X147279000Y-118713000D03*
%TO.P,U2,4*%
%TO.N,CELL_10*%
X147279000Y-102263000D03*
%TO.P,U2,3*%
%TO.N,CELL_9*%
X126679000Y-102263000D03*
%TO.P,U2,1*%
%TO.N,CELL_7*%
X126679000Y-118713000D03*
%TD*%
D10*
%TO.P,U1,7*%
%TO.N,CP_1*%
X162514000Y-74260000D03*
X162514000Y-94460000D03*
%TO.P,U1,5*%
%TO.N,CELL_5*%
X173114000Y-84560000D03*
%TO.P,U1,2*%
%TO.N,CELL_2*%
X152814000Y-84510000D03*
D11*
%TO.P,U1,6*%
%TO.N,CELL_6*%
X173314000Y-92710000D03*
%TO.P,U1,4*%
%TO.N,CELL_4*%
X173314000Y-76260000D03*
%TO.P,U1,3*%
%TO.N,CELL_3*%
X152714000Y-76260000D03*
%TO.P,U1,1*%
%TO.N,CELL_1*%
X152714000Y-92710000D03*
%TD*%
D12*
%TO.N,CELL_1*%
X152714000Y-92710000D03*
%TO.N,CELL_2*%
X152814000Y-84510000D03*
%TO.N,CELL_3*%
X152714000Y-76260000D03*
%TO.N,CELL_4*%
X173314000Y-76260000D03*
%TO.N,CELL_5*%
X173114000Y-84560000D03*
%TO.N,CELL_6*%
X173314000Y-92710000D03*
%TO.N,CP_1*%
X162514000Y-74260000D03*
X162514000Y-94460000D03*
%TO.N,CELL_12*%
X147279000Y-118713000D03*
%TO.N,CELL_11*%
X147079000Y-110563000D03*
%TO.N,CELL_10*%
X147279000Y-102263000D03*
%TO.N,CELL_9*%
X126679000Y-102263000D03*
%TO.N,CELL_8*%
X126779000Y-110513000D03*
%TO.N,CELL_7*%
X126679000Y-118713000D03*
%TO.N,CP_2*%
X136479000Y-120463000D03*
X136479000Y-100263000D03*
%TO.N,CELL_13*%
X152777500Y-118913000D03*
%TO.N,CELL_14*%
X152877500Y-110713000D03*
%TO.N,CELL_15*%
X152777500Y-102463000D03*
%TO.N,CELL_16*%
X173377500Y-102463000D03*
%TO.N,CELL_17*%
X173177500Y-110763000D03*
%TO.N,CELL_18*%
X173377500Y-118913000D03*
%TO.N,CP_3*%
X162577500Y-100463000D03*
X162577500Y-120663000D03*
%TD*%
M02*
