M48
; DRILL file {KiCad (5.1.10)-1} date 08/20/23 09:24:50
; FORMAT={-:-/ absolute / inch / decimal}
; #@! TF.CreationDate,2023-08-20T09:24:50-05:00
; #@! TF.GenerationSoftware,Kicad,Pcbnew,(5.1.10)-1
; #@! TF.FileFunction,Plated,1,4,PTH
FMAT,2
INCH
T1C0.0100
T2C0.0197
T3C0.0315
%
G90
G05
T1
X4.54Y-4.2875
X4.625Y-5.645
X4.6575Y-5.2925
X4.75Y-3.135
X4.75Y-3.255
X4.75Y-3.375
X4.75Y-3.495
X4.75Y-3.615
X4.75Y-3.735
X4.75Y-3.855
X4.75Y-3.975
X4.75Y-4.095
X4.75Y-4.215
X4.75Y-4.335
X4.75Y-4.455
X4.75Y-4.57
X4.75Y-4.695
X4.75Y-4.815
X4.75Y-4.935
X4.75Y-5.055
X4.75Y-5.175
X4.785Y-3.04
X4.785Y-3.16
X4.785Y-3.28
X4.785Y-3.405
X4.785Y-3.525
X4.785Y-3.645
X4.785Y-3.76
X4.785Y-3.885
X4.785Y-4.005
X4.785Y-4.12
X4.785Y-4.24
X4.785Y-4.36
X4.785Y-4.48
X4.785Y-4.6
X4.785Y-4.715
X4.785Y-4.84
X4.785Y-4.96
X4.785Y-5.085
X4.7875Y-2.79
X4.795Y-5.25
X4.81Y-5.66
X4.8925Y-2.9975
X4.9025Y-4.175
X4.9025Y-4.2975
X4.9025Y-4.4175
X4.9025Y-4.535
X4.9025Y-4.655
X4.9025Y-4.775
X4.9025Y-4.8925
X4.9025Y-5.015
X4.9025Y-5.135
X4.9029Y-4.0529
X4.9041Y-3.5741
X4.905Y-3.05
X4.905Y-3.175
X4.905Y-3.295
X4.905Y-3.41
X4.905Y-3.53
X4.905Y-3.65
X4.905Y-3.695
X4.905Y-3.77
X4.905Y-3.815
X4.905Y-3.89
X4.905Y-3.9375
X4.905Y-4.01
X4.905Y-4.13
X4.905Y-4.25
X4.905Y-4.37
X4.905Y-4.49
X4.905Y-4.61
X4.905Y-4.73
X4.905Y-4.85
X4.905Y-4.97
X4.905Y-5.09
X4.9075Y-3.095
X4.9075Y-3.215
X4.9075Y-3.335
X4.9075Y-3.455
X4.93Y-2.98
X4.965Y-2.975
X5.045Y-2.975
X5.115Y-4.44
X5.115Y-4.495
X5.115Y-5.15
X5.12Y-3.98
X5.12Y-4.03
X5.131Y-4.17
X5.26Y-5.24
X5.27Y-3.0675
X5.28Y-4.28
X5.285Y-5.21
X5.295Y-4.03
X5.33Y-5.11
X5.435Y-4.14
X5.435Y-4.19
X5.435Y-4.44
X5.44Y-4.49
X5.54Y-4.565
X5.56Y-4.535
X5.58Y-5.21
X5.58Y-5.24
X5.596Y-4.03
X5.605Y-4.425
X5.605Y-5.15
X5.615Y-3.48
X5.66Y-4.3
X5.705Y-4.18
X5.73Y-3.79
X5.73Y-3.915
X5.77Y-4.78
X5.77Y-5.28
X5.815Y-3.59
X5.835Y-4.115
X5.835Y-4.195
X5.835Y-4.365
X5.835Y-4.46
X5.84Y-5.075
X5.84Y-5.175
X5.845Y-3.375
X5.845Y-3.495
X5.86Y-3.7
X5.86Y-4.9
X5.865Y-5.305
X5.87Y-3.92
X5.87Y-4.66
X5.88Y-3.825
X5.88Y-4.7
X5.9Y-3.685
X5.93Y-4.52
X5.94Y-5.265
X5.96Y-4.3
X5.98Y-3.6
X5.99Y-5.25
X6.005Y-4.82
X6.005Y-5.38
X6.01Y-4.87
X6.02Y-3.88
X6.02Y-5.295
X6.03Y-4.69
X6.06Y-3.74
X6.105Y-3.53
X6.105Y-4.25
X6.105Y-4.5
X6.105Y-5.22
X6.25Y-3.605
X6.25Y-3.725
X6.25Y-3.845
X6.25Y-3.975
X6.25Y-4.095
X6.25Y-4.215
X6.25Y-4.335
X6.25Y-4.45
X6.25Y-4.575
X6.25Y-4.695
X6.25Y-4.815
X6.25Y-4.94
X6.25Y-5.055
X6.25Y-5.175
X6.25Y-5.3
X6.25Y-5.415
X6.315Y-5.465
X6.405Y-3.53
X6.405Y-3.65
X6.405Y-3.77
X6.405Y-3.89
X6.405Y-4.01
X6.405Y-4.13
X6.405Y-4.25
X6.405Y-4.37
X6.405Y-4.49
X6.405Y-4.61
X6.405Y-4.73
X6.405Y-4.85
X6.405Y-4.97
X6.405Y-5.09
X6.405Y-5.21
X6.405Y-5.33
X6.41Y-4.575
X6.4175Y-4.8125
X6.42Y-5.06
X6.42Y-5.415
X6.4275Y-5.2925
X6.435Y-3.6
X6.435Y-3.72
X6.435Y-3.84
X6.435Y-3.9625
X6.435Y-4.08
X6.4375Y-4.6
X6.45Y-4.98
X6.455Y-5.0825
X6.46Y-4.205
X6.46Y-4.27
X6.46Y-4.445
X6.46Y-4.685
X6.46Y-4.91
X6.465Y-5.165
X6.51Y-3.7464
X6.56Y-3.82
X6.575Y-4.0525
X6.575Y-4.29
X6.575Y-4.53
X6.575Y-5.01
X6.5825Y-3.74
X6.59Y-3.0675
X6.595Y-4.08
X6.595Y-4.39
X6.595Y-4.63
X6.595Y-4.87
X6.595Y-5.0375
X6.5976Y-5.2399
X6.6075Y-5.1175
X6.61Y-3.74
X6.62Y-4.315
X6.62Y-4.465
X6.63Y-3.9453
X6.63Y-4.025
X6.63Y-4.29
X6.63Y-4.79
X6.6316Y-4.161
X6.6325Y-3.7984
X6.649Y-4.06
X6.65Y-4.18
X6.65Y-4.42
X6.65Y-4.66
X6.65Y-5.14
X6.661Y-3.7107
X6.68Y-5.365
X6.6825Y-5.1275
X6.6875Y-4.4175
X6.6875Y-4.6575
X6.6875Y-4.7925
X6.69Y-4.18
X6.699Y-3.71
X6.7Y-5.45
X6.705Y-5.21
X6.73Y-3.71
X6.7376Y-5.2399
X6.74Y-5.45
X6.7612Y-3.7088
X6.785Y-4.91
X6.7875Y-3.79
X6.7875Y-4.8225
X6.79Y-3.71
X6.7901Y-3.8159
X6.795Y-3.845
X6.8Y-3.97
X6.8Y-4.0875
X6.8125Y-5.165
X6.815Y-5.365
X6.82Y-3.115
X6.83Y-5.45
X6.84Y-5.165
X6.8776Y-5.2399
X6.945Y-5.135
X6.9475Y-4.2825
X6.95Y-4.415
X6.95Y-5.36
X6.995Y-4.905
X7.0Y-5.195
X7.0305Y-5.0655
X7.039Y-4.2734
X7.0449Y-4.2201
X7.0465Y-4.2485
X7.0525Y-4.38
X7.0533Y-4.3269
X7.055Y-4.2992
X7.086Y-4.53
X7.105Y-4.5725
X7.125Y-4.084
X7.125Y-4.11
X7.1299Y-4.0345
X7.13Y-4.5425
X7.135Y-4.06
X7.15Y-4.21
X7.15Y-4.365
X7.15Y-4.95
X7.16Y-4.54
X7.21Y-4.51
X7.215Y-4.095
X7.235Y-4.12
X7.2375Y-3.98
X7.2425Y-4.6125
X7.255Y-4.095
X7.27Y-4.51
X7.2749Y-4.12
X7.2825Y-5.595
X7.295Y-3.935
X7.295Y-4.095
X7.305Y-4.21
X7.305Y-4.365
X7.3083Y-4.5011
X7.315Y-3.87
X7.3273Y-4.4827
X7.38Y-4.42
X7.4195Y-4.5105
X7.4195Y-4.6305
X7.445Y-4.19
X7.4825Y-5.595
X7.54Y-4.16
T2
X4.54Y-3.11
X4.54Y-3.1592
X4.54Y-3.2084
X4.54Y-3.2576
X4.54Y-3.3069
X4.54Y-3.3561
X4.54Y-3.4053
X4.54Y-3.4545
X4.54Y-3.5037
X4.54Y-3.5529
X4.54Y-3.6021
X4.54Y-3.76
X4.54Y-3.8092
X4.54Y-3.8584
X4.54Y-3.9076
X4.54Y-3.9569
X4.54Y-4.0061
X4.54Y-4.0553
X4.54Y-4.1045
X4.54Y-4.1537
X4.54Y-4.2029
X4.54Y-4.2521
X4.54Y-4.41
X4.54Y-4.4592
X4.54Y-4.5084
X4.54Y-4.5576
X4.54Y-4.6069
X4.54Y-4.6561
X4.54Y-4.7053
X4.54Y-4.7545
X4.54Y-4.8037
X4.54Y-4.8529
X4.54Y-4.9021
X5.57Y-3.12
X5.6192Y-3.12
X5.6684Y-3.12
X5.7176Y-3.12
X5.7669Y-3.12
X5.8161Y-3.12
X5.8653Y-3.12
X5.9145Y-3.12
X5.9637Y-3.12
X6.0129Y-3.12
X7.0275Y-3.6031
X7.0275Y-3.6524
X7.0275Y-3.7016
X7.0275Y-3.7508
X7.0275Y-3.8
X7.195Y-3.6031
X7.195Y-3.6524
X7.195Y-3.7016
X7.195Y-3.7508
X7.195Y-3.8
T3
X5.69Y-5.475
X5.69Y-5.565
X5.79Y-5.475
X5.79Y-5.565
X5.89Y-5.475
X5.89Y-5.565
X5.99Y-5.475
X5.99Y-5.565
X7.405Y-5.41
X7.505Y-5.41
T0
M30
