%TF.GenerationSoftware,KiCad,Pcbnew,(6.0.1)*%
%TF.CreationDate,2022-04-12T22:30:48-05:00*%
%TF.ProjectId,singular_SIV,73696e67-756c-4617-925f-5349562e6b69,rev?*%
%TF.SameCoordinates,Original*%
%TF.FileFunction,Soldermask,Top*%
%TF.FilePolarity,Negative*%
%FSLAX46Y46*%
G04 Gerber Fmt 4.6, Leading zero omitted, Abs format (unit mm)*
G04 Created by KiCad (PCBNEW (6.0.1)) date 2022-04-12 22:30:48*
%MOMM*%
%LPD*%
G01*
G04 APERTURE LIST*
G04 Aperture macros list*
%AMRoundRect*
0 Rectangle with rounded corners*
0 $1 Rounding radius*
0 $2 $3 $4 $5 $6 $7 $8 $9 X,Y pos of 4 corners*
0 Add a 4 corners polygon primitive as box body*
4,1,4,$2,$3,$4,$5,$6,$7,$8,$9,$2,$3,0*
0 Add four circle primitives for the rounded corners*
1,1,$1+$1,$2,$3*
1,1,$1+$1,$4,$5*
1,1,$1+$1,$6,$7*
1,1,$1+$1,$8,$9*
0 Add four rect primitives between the rounded corners*
20,1,$1+$1,$2,$3,$4,$5,0*
20,1,$1+$1,$4,$5,$6,$7,0*
20,1,$1+$1,$6,$7,$8,$9,0*
20,1,$1+$1,$8,$9,$2,$3,0*%
G04 Aperture macros list end*
%ADD10RoundRect,0.250000X-0.600000X-0.725000X0.600000X-0.725000X0.600000X0.725000X-0.600000X0.725000X0*%
%ADD11O,1.700000X1.950000*%
%ADD12C,2.600000*%
%ADD13C,3.800000*%
%ADD14C,2.200000*%
%ADD15C,1.100000*%
%ADD16C,1.300000*%
%ADD17C,1.600000*%
%ADD18R,1.300000X1.300000*%
%ADD19R,1.600000X1.600000*%
%ADD20RoundRect,0.250000X-0.312500X-0.625000X0.312500X-0.625000X0.312500X0.625000X-0.312500X0.625000X0*%
%ADD21RoundRect,0.020500X-0.764500X-0.184500X0.764500X-0.184500X0.764500X0.184500X-0.764500X0.184500X0*%
%ADD22R,0.600000X1.750000*%
%ADD23R,0.500000X1.500000*%
%ADD24RoundRect,0.250000X-0.325000X-0.650000X0.325000X-0.650000X0.325000X0.650000X-0.325000X0.650000X0*%
G04 APERTURE END LIST*
D10*
%TO.C,J2*%
X46500000Y-72500000D03*
D11*
X49000000Y-72500000D03*
X51500000Y-72500000D03*
X54000000Y-72500000D03*
X56500000Y-72500000D03*
%TD*%
D12*
%TO.C,REF\u002A\u002A*%
X135000000Y-134000000D03*
D13*
X135000000Y-134000000D03*
%TD*%
D12*
%TO.C,REF\u002A\u002A*%
X135000000Y-62000000D03*
D13*
X135000000Y-62000000D03*
%TD*%
D12*
%TO.C,REF\u002A\u002A*%
X49500000Y-135500000D03*
D13*
X49500000Y-135500000D03*
%TD*%
%TO.C,REF\u002A\u002A*%
X49500000Y-62000000D03*
D12*
X49500000Y-62000000D03*
%TD*%
D14*
%TO.C,J1*%
X79610000Y-125880000D03*
X102410000Y-125880000D03*
D15*
X83510000Y-127130000D03*
X84760000Y-127130000D03*
X86010000Y-127130000D03*
X87260000Y-127130000D03*
X88510000Y-127130000D03*
X89760000Y-127130000D03*
X91010000Y-127130000D03*
X92260000Y-127130000D03*
X93510000Y-127130000D03*
X94760000Y-127130000D03*
X96010000Y-127130000D03*
X97260000Y-127130000D03*
X98510000Y-127130000D03*
X83510000Y-125880000D03*
X84760000Y-125880000D03*
X86010000Y-125880000D03*
X87260000Y-125880000D03*
X88510000Y-125880000D03*
X89760000Y-125880000D03*
X91010000Y-125880000D03*
X92260000Y-125880000D03*
X93510000Y-125880000D03*
X94760000Y-125880000D03*
X96010000Y-125880000D03*
X97260000Y-125880000D03*
X98510000Y-125880000D03*
%TD*%
D16*
%TO.C,U1*%
X71530000Y-73110000D03*
X71530000Y-75650000D03*
D17*
X116520000Y-69300000D03*
X116520000Y-71840000D03*
X116520000Y-74380000D03*
X116520000Y-76920000D03*
X116520000Y-79460000D03*
D16*
X83770000Y-73198400D03*
X85770000Y-73198400D03*
X85770000Y-71198400D03*
X83770000Y-71198400D03*
X85770000Y-69198400D03*
D18*
X83770000Y-69198400D03*
D17*
X111440000Y-82000000D03*
X113980000Y-82000000D03*
X116520000Y-82000000D03*
X119060000Y-82000000D03*
X108900000Y-82000000D03*
X106360000Y-82000000D03*
X103820000Y-82000000D03*
X121600000Y-82000000D03*
X124140000Y-82000000D03*
X126680000Y-82000000D03*
X129220000Y-82000000D03*
X129220000Y-66760000D03*
X126680000Y-66760000D03*
X124140000Y-66760000D03*
X121600000Y-66760000D03*
X119060000Y-66760000D03*
X116520000Y-66760000D03*
X113980000Y-66760000D03*
X111440000Y-66760000D03*
X108900000Y-66760000D03*
X106360000Y-66760000D03*
X101280000Y-82000000D03*
X98740000Y-82000000D03*
X96200000Y-82000000D03*
X93660000Y-82000000D03*
X91120000Y-82000000D03*
X88580000Y-82000000D03*
X86040000Y-82000000D03*
X83500000Y-82000000D03*
X80960000Y-82000000D03*
X78420000Y-82000000D03*
X75880000Y-82000000D03*
X73340000Y-82000000D03*
D19*
X70800000Y-82000000D03*
D17*
X103820000Y-66760000D03*
X101280000Y-66760000D03*
X98740000Y-66760000D03*
X96200000Y-66760000D03*
X93660000Y-66760000D03*
X91120000Y-66760000D03*
X88580000Y-66760000D03*
X86040000Y-66760000D03*
X83500000Y-66760000D03*
X80960000Y-66760000D03*
X78420000Y-66760000D03*
X75880000Y-66760000D03*
X73340000Y-66760000D03*
X70800000Y-66760000D03*
D19*
X77099200Y-78949200D03*
D17*
X79639200Y-78949200D03*
X82179200Y-78949200D03*
X84719200Y-78949200D03*
X87259200Y-78949200D03*
X73340000Y-69300000D03*
%TD*%
D20*
%TO.C,R1*%
X103472500Y-99880000D03*
X100547500Y-99880000D03*
%TD*%
D21*
%TO.C,O1*%
X122380000Y-91430000D03*
X122380000Y-92080000D03*
X122380000Y-92730000D03*
X122380000Y-93380000D03*
X122380000Y-94030000D03*
X122380000Y-94680000D03*
X122380000Y-95330000D03*
X116640000Y-95330000D03*
X116640000Y-94680000D03*
X116640000Y-94030000D03*
X116640000Y-93380000D03*
X116640000Y-92730000D03*
X116640000Y-92080000D03*
X116640000Y-91430000D03*
%TD*%
D22*
%TO.C,DP1*%
X119105000Y-107880000D03*
X120375000Y-107880000D03*
X121645000Y-107880000D03*
X122915000Y-107880000D03*
X122915000Y-101880000D03*
X121645000Y-101880000D03*
X120375000Y-101880000D03*
X119105000Y-101880000D03*
%TD*%
D23*
%TO.C,DM1*%
X75025000Y-99880000D03*
X76295000Y-99880000D03*
X77565000Y-99880000D03*
X78835000Y-99880000D03*
X80105000Y-99880000D03*
X81375000Y-99880000D03*
X82645000Y-99880000D03*
X83915000Y-99880000D03*
X85185000Y-99880000D03*
X86455000Y-99880000D03*
X87725000Y-99880000D03*
X88995000Y-99880000D03*
X88995000Y-108880000D03*
X87725000Y-108880000D03*
X86455000Y-108880000D03*
X85185000Y-108880000D03*
X83915000Y-108880000D03*
X82645000Y-108880000D03*
X81375000Y-108880000D03*
X80105000Y-108880000D03*
X78835000Y-108880000D03*
X77565000Y-108880000D03*
X76295000Y-108880000D03*
X75025000Y-108880000D03*
%TD*%
D24*
%TO.C,C1*%
X103485000Y-105880000D03*
X100535000Y-105880000D03*
%TD*%
M02*
