%TF.GenerationSoftware,KiCad,Pcbnew,(6.0.1)*%
%TF.CreationDate,2022-04-12T22:30:48-05:00*%
%TF.ProjectId,singular_SIV,73696e67-756c-4617-925f-5349562e6b69,rev?*%
%TF.SameCoordinates,Original*%
%TF.FileFunction,Legend,Top*%
%TF.FilePolarity,Positive*%
%FSLAX46Y46*%
G04 Gerber Fmt 4.6, Leading zero omitted, Abs format (unit mm)*
G04 Created by KiCad (PCBNEW (6.0.1)) date 2022-04-12 22:30:48*
%MOMM*%
%LPD*%
G01*
G04 APERTURE LIST*
%ADD10C,0.150000*%
%ADD11C,0.254000*%
%ADD12C,0.120000*%
%ADD13C,0.200000*%
%ADD14C,0.100000*%
%ADD15C,0.127000*%
G04 APERTURE END LIST*
D10*
%TO.C,J2*%
X51166666Y-68402380D02*
X51166666Y-69116666D01*
X51119047Y-69259523D01*
X51023809Y-69354761D01*
X50880952Y-69402380D01*
X50785714Y-69402380D01*
X51595238Y-68497619D02*
X51642857Y-68450000D01*
X51738095Y-68402380D01*
X51976190Y-68402380D01*
X52071428Y-68450000D01*
X52119047Y-68497619D01*
X52166666Y-68592857D01*
X52166666Y-68688095D01*
X52119047Y-68830952D01*
X51547619Y-69402380D01*
X52166666Y-69402380D01*
%TO.C,REF\u002A\u002A*%
X133666666Y-131552380D02*
X133333333Y-131076190D01*
X133095238Y-131552380D02*
X133095238Y-130552380D01*
X133476190Y-130552380D01*
X133571428Y-130600000D01*
X133619047Y-130647619D01*
X133666666Y-130742857D01*
X133666666Y-130885714D01*
X133619047Y-130980952D01*
X133571428Y-131028571D01*
X133476190Y-131076190D01*
X133095238Y-131076190D01*
X134095238Y-131028571D02*
X134428571Y-131028571D01*
X134571428Y-131552380D02*
X134095238Y-131552380D01*
X134095238Y-130552380D01*
X134571428Y-130552380D01*
X135333333Y-131028571D02*
X135000000Y-131028571D01*
X135000000Y-131552380D02*
X135000000Y-130552380D01*
X135476190Y-130552380D01*
X136000000Y-130552380D02*
X136000000Y-130790476D01*
X135761904Y-130695238D02*
X136000000Y-130790476D01*
X136238095Y-130695238D01*
X135857142Y-130980952D02*
X136000000Y-130790476D01*
X136142857Y-130980952D01*
X136761904Y-130552380D02*
X136761904Y-130790476D01*
X136523809Y-130695238D02*
X136761904Y-130790476D01*
X137000000Y-130695238D01*
X136619047Y-130980952D02*
X136761904Y-130790476D01*
X136904761Y-130980952D01*
X133666666Y-59552380D02*
X133333333Y-59076190D01*
X133095238Y-59552380D02*
X133095238Y-58552380D01*
X133476190Y-58552380D01*
X133571428Y-58600000D01*
X133619047Y-58647619D01*
X133666666Y-58742857D01*
X133666666Y-58885714D01*
X133619047Y-58980952D01*
X133571428Y-59028571D01*
X133476190Y-59076190D01*
X133095238Y-59076190D01*
X134095238Y-59028571D02*
X134428571Y-59028571D01*
X134571428Y-59552380D02*
X134095238Y-59552380D01*
X134095238Y-58552380D01*
X134571428Y-58552380D01*
X135333333Y-59028571D02*
X135000000Y-59028571D01*
X135000000Y-59552380D02*
X135000000Y-58552380D01*
X135476190Y-58552380D01*
X136000000Y-58552380D02*
X136000000Y-58790476D01*
X135761904Y-58695238D02*
X136000000Y-58790476D01*
X136238095Y-58695238D01*
X135857142Y-58980952D02*
X136000000Y-58790476D01*
X136142857Y-58980952D01*
X136761904Y-58552380D02*
X136761904Y-58790476D01*
X136523809Y-58695238D02*
X136761904Y-58790476D01*
X137000000Y-58695238D01*
X136619047Y-58980952D02*
X136761904Y-58790476D01*
X136904761Y-58980952D01*
X48166666Y-133052380D02*
X47833333Y-132576190D01*
X47595238Y-133052380D02*
X47595238Y-132052380D01*
X47976190Y-132052380D01*
X48071428Y-132100000D01*
X48119047Y-132147619D01*
X48166666Y-132242857D01*
X48166666Y-132385714D01*
X48119047Y-132480952D01*
X48071428Y-132528571D01*
X47976190Y-132576190D01*
X47595238Y-132576190D01*
X48595238Y-132528571D02*
X48928571Y-132528571D01*
X49071428Y-133052380D02*
X48595238Y-133052380D01*
X48595238Y-132052380D01*
X49071428Y-132052380D01*
X49833333Y-132528571D02*
X49500000Y-132528571D01*
X49500000Y-133052380D02*
X49500000Y-132052380D01*
X49976190Y-132052380D01*
X50500000Y-132052380D02*
X50500000Y-132290476D01*
X50261904Y-132195238D02*
X50500000Y-132290476D01*
X50738095Y-132195238D01*
X50357142Y-132480952D02*
X50500000Y-132290476D01*
X50642857Y-132480952D01*
X51261904Y-132052380D02*
X51261904Y-132290476D01*
X51023809Y-132195238D02*
X51261904Y-132290476D01*
X51500000Y-132195238D01*
X51119047Y-132480952D02*
X51261904Y-132290476D01*
X51404761Y-132480952D01*
X48166666Y-59552380D02*
X47833333Y-59076190D01*
X47595238Y-59552380D02*
X47595238Y-58552380D01*
X47976190Y-58552380D01*
X48071428Y-58600000D01*
X48119047Y-58647619D01*
X48166666Y-58742857D01*
X48166666Y-58885714D01*
X48119047Y-58980952D01*
X48071428Y-59028571D01*
X47976190Y-59076190D01*
X47595238Y-59076190D01*
X48595238Y-59028571D02*
X48928571Y-59028571D01*
X49071428Y-59552380D02*
X48595238Y-59552380D01*
X48595238Y-58552380D01*
X49071428Y-58552380D01*
X49833333Y-59028571D02*
X49500000Y-59028571D01*
X49500000Y-59552380D02*
X49500000Y-58552380D01*
X49976190Y-58552380D01*
X50500000Y-58552380D02*
X50500000Y-58790476D01*
X50261904Y-58695238D02*
X50500000Y-58790476D01*
X50738095Y-58695238D01*
X50357142Y-58980952D02*
X50500000Y-58790476D01*
X50642857Y-58980952D01*
X51261904Y-58552380D02*
X51261904Y-58790476D01*
X51023809Y-58695238D02*
X51261904Y-58790476D01*
X51500000Y-58695238D01*
X51119047Y-58980952D02*
X51261904Y-58790476D01*
X51404761Y-58980952D01*
D11*
%TO.C,J1*%
X91576666Y-135304523D02*
X91576666Y-136211666D01*
X91516190Y-136393095D01*
X91395238Y-136514047D01*
X91213809Y-136574523D01*
X91092857Y-136574523D01*
X92846666Y-136574523D02*
X92120952Y-136574523D01*
X92483809Y-136574523D02*
X92483809Y-135304523D01*
X92362857Y-135485952D01*
X92241904Y-135606904D01*
X92120952Y-135667380D01*
D10*
%TO.C,U1*%
X99248095Y-63672380D02*
X99248095Y-64481904D01*
X99295714Y-64577142D01*
X99343333Y-64624761D01*
X99438571Y-64672380D01*
X99629047Y-64672380D01*
X99724285Y-64624761D01*
X99771904Y-64577142D01*
X99819523Y-64481904D01*
X99819523Y-63672380D01*
X100819523Y-64672380D02*
X100248095Y-64672380D01*
X100533809Y-64672380D02*
X100533809Y-63672380D01*
X100438571Y-63815238D01*
X100343333Y-63910476D01*
X100248095Y-63958095D01*
X78234676Y-76321580D02*
X78234676Y-77131104D01*
X78282295Y-77226342D01*
X78329914Y-77273961D01*
X78425152Y-77321580D01*
X78615628Y-77321580D01*
X78710866Y-77273961D01*
X78758485Y-77226342D01*
X78806104Y-77131104D01*
X78806104Y-76321580D01*
X79234676Y-77273961D02*
X79377533Y-77321580D01*
X79615628Y-77321580D01*
X79710866Y-77273961D01*
X79758485Y-77226342D01*
X79806104Y-77131104D01*
X79806104Y-77035866D01*
X79758485Y-76940628D01*
X79710866Y-76893009D01*
X79615628Y-76845390D01*
X79425152Y-76797771D01*
X79329914Y-76750152D01*
X79282295Y-76702533D01*
X79234676Y-76607295D01*
X79234676Y-76512057D01*
X79282295Y-76416819D01*
X79329914Y-76369200D01*
X79425152Y-76321580D01*
X79663247Y-76321580D01*
X79806104Y-76369200D01*
X80568009Y-76797771D02*
X80710866Y-76845390D01*
X80758485Y-76893009D01*
X80806104Y-76988247D01*
X80806104Y-77131104D01*
X80758485Y-77226342D01*
X80710866Y-77273961D01*
X80615628Y-77321580D01*
X80234676Y-77321580D01*
X80234676Y-76321580D01*
X80568009Y-76321580D01*
X80663247Y-76369200D01*
X80710866Y-76416819D01*
X80758485Y-76512057D01*
X80758485Y-76607295D01*
X80710866Y-76702533D01*
X80663247Y-76750152D01*
X80568009Y-76797771D01*
X80234676Y-76797771D01*
X81996580Y-77321580D02*
X81996580Y-76321580D01*
X81996580Y-76797771D02*
X82568009Y-76797771D01*
X82568009Y-77321580D02*
X82568009Y-76321580D01*
X83187057Y-77321580D02*
X83091819Y-77273961D01*
X83044200Y-77226342D01*
X82996580Y-77131104D01*
X82996580Y-76845390D01*
X83044200Y-76750152D01*
X83091819Y-76702533D01*
X83187057Y-76654914D01*
X83329914Y-76654914D01*
X83425152Y-76702533D01*
X83472771Y-76750152D01*
X83520390Y-76845390D01*
X83520390Y-77131104D01*
X83472771Y-77226342D01*
X83425152Y-77273961D01*
X83329914Y-77321580D01*
X83187057Y-77321580D01*
X83901342Y-77273961D02*
X83996580Y-77321580D01*
X84187057Y-77321580D01*
X84282295Y-77273961D01*
X84329914Y-77178723D01*
X84329914Y-77131104D01*
X84282295Y-77035866D01*
X84187057Y-76988247D01*
X84044200Y-76988247D01*
X83948961Y-76940628D01*
X83901342Y-76845390D01*
X83901342Y-76797771D01*
X83948961Y-76702533D01*
X84044200Y-76654914D01*
X84187057Y-76654914D01*
X84282295Y-76702533D01*
X84615628Y-76654914D02*
X84996580Y-76654914D01*
X84758485Y-76321580D02*
X84758485Y-77178723D01*
X84806104Y-77273961D01*
X84901342Y-77321580D01*
X84996580Y-77321580D01*
X87873571Y-73960542D02*
X87873571Y-73627209D01*
X88397380Y-73484352D02*
X88397380Y-73960542D01*
X87397380Y-73960542D01*
X87397380Y-73484352D01*
X87730714Y-73198638D02*
X87730714Y-72817685D01*
X87397380Y-73055780D02*
X88254523Y-73055780D01*
X88349761Y-73008161D01*
X88397380Y-72912923D01*
X88397380Y-72817685D01*
X88397380Y-72484352D02*
X87397380Y-72484352D01*
X88397380Y-72055780D02*
X87873571Y-72055780D01*
X87778333Y-72103400D01*
X87730714Y-72198638D01*
X87730714Y-72341495D01*
X87778333Y-72436733D01*
X87825952Y-72484352D01*
X88349761Y-71198638D02*
X88397380Y-71293876D01*
X88397380Y-71484352D01*
X88349761Y-71579590D01*
X88254523Y-71627209D01*
X87873571Y-71627209D01*
X87778333Y-71579590D01*
X87730714Y-71484352D01*
X87730714Y-71293876D01*
X87778333Y-71198638D01*
X87873571Y-71151019D01*
X87968809Y-71151019D01*
X88064047Y-71627209D01*
X88397380Y-70722447D02*
X87730714Y-70722447D01*
X87921190Y-70722447D02*
X87825952Y-70674828D01*
X87778333Y-70627209D01*
X87730714Y-70531971D01*
X87730714Y-70436733D01*
X87730714Y-70103400D02*
X88397380Y-70103400D01*
X87825952Y-70103400D02*
X87778333Y-70055780D01*
X87730714Y-69960542D01*
X87730714Y-69817685D01*
X87778333Y-69722447D01*
X87873571Y-69674828D01*
X88397380Y-69674828D01*
X88349761Y-68817685D02*
X88397380Y-68912923D01*
X88397380Y-69103400D01*
X88349761Y-69198638D01*
X88254523Y-69246257D01*
X87873571Y-69246257D01*
X87778333Y-69198638D01*
X87730714Y-69103400D01*
X87730714Y-68912923D01*
X87778333Y-68817685D01*
X87873571Y-68770066D01*
X87968809Y-68770066D01*
X88064047Y-69246257D01*
X87730714Y-68484352D02*
X87730714Y-68103400D01*
X87397380Y-68341495D02*
X88254523Y-68341495D01*
X88349761Y-68293876D01*
X88397380Y-68198638D01*
X88397380Y-68103400D01*
X72792380Y-75641904D02*
X73601904Y-75641904D01*
X73697142Y-75594285D01*
X73744761Y-75546666D01*
X73792380Y-75451428D01*
X73792380Y-75260952D01*
X73744761Y-75165714D01*
X73697142Y-75118095D01*
X73601904Y-75070476D01*
X72792380Y-75070476D01*
X73744761Y-74641904D02*
X73792380Y-74499047D01*
X73792380Y-74260952D01*
X73744761Y-74165714D01*
X73697142Y-74118095D01*
X73601904Y-74070476D01*
X73506666Y-74070476D01*
X73411428Y-74118095D01*
X73363809Y-74165714D01*
X73316190Y-74260952D01*
X73268571Y-74451428D01*
X73220952Y-74546666D01*
X73173333Y-74594285D01*
X73078095Y-74641904D01*
X72982857Y-74641904D01*
X72887619Y-74594285D01*
X72840000Y-74546666D01*
X72792380Y-74451428D01*
X72792380Y-74213333D01*
X72840000Y-74070476D01*
X73268571Y-73308571D02*
X73316190Y-73165714D01*
X73363809Y-73118095D01*
X73459047Y-73070476D01*
X73601904Y-73070476D01*
X73697142Y-73118095D01*
X73744761Y-73165714D01*
X73792380Y-73260952D01*
X73792380Y-73641904D01*
X72792380Y-73641904D01*
X72792380Y-73308571D01*
X72840000Y-73213333D01*
X72887619Y-73165714D01*
X72982857Y-73118095D01*
X73078095Y-73118095D01*
X73173333Y-73165714D01*
X73220952Y-73213333D01*
X73268571Y-73308571D01*
X73268571Y-73641904D01*
X121020952Y-74832380D02*
X121020952Y-73832380D01*
X121354285Y-74546666D01*
X121687619Y-73832380D01*
X121687619Y-74832380D01*
X122163809Y-74832380D02*
X122163809Y-74165714D01*
X122163809Y-73832380D02*
X122116190Y-73880000D01*
X122163809Y-73927619D01*
X122211428Y-73880000D01*
X122163809Y-73832380D01*
X122163809Y-73927619D01*
X123068571Y-74784761D02*
X122973333Y-74832380D01*
X122782857Y-74832380D01*
X122687619Y-74784761D01*
X122640000Y-74737142D01*
X122592380Y-74641904D01*
X122592380Y-74356190D01*
X122640000Y-74260952D01*
X122687619Y-74213333D01*
X122782857Y-74165714D01*
X122973333Y-74165714D01*
X123068571Y-74213333D01*
X123497142Y-74832380D02*
X123497142Y-74165714D01*
X123497142Y-74356190D02*
X123544761Y-74260952D01*
X123592380Y-74213333D01*
X123687619Y-74165714D01*
X123782857Y-74165714D01*
X124259047Y-74832380D02*
X124163809Y-74784761D01*
X124116190Y-74737142D01*
X124068571Y-74641904D01*
X124068571Y-74356190D01*
X124116190Y-74260952D01*
X124163809Y-74213333D01*
X124259047Y-74165714D01*
X124401904Y-74165714D01*
X124497142Y-74213333D01*
X124544761Y-74260952D01*
X124592380Y-74356190D01*
X124592380Y-74641904D01*
X124544761Y-74737142D01*
X124497142Y-74784761D01*
X124401904Y-74832380D01*
X124259047Y-74832380D01*
X125735238Y-74784761D02*
X125878095Y-74832380D01*
X126116190Y-74832380D01*
X126211428Y-74784761D01*
X126259047Y-74737142D01*
X126306666Y-74641904D01*
X126306666Y-74546666D01*
X126259047Y-74451428D01*
X126211428Y-74403809D01*
X126116190Y-74356190D01*
X125925714Y-74308571D01*
X125830476Y-74260952D01*
X125782857Y-74213333D01*
X125735238Y-74118095D01*
X125735238Y-74022857D01*
X125782857Y-73927619D01*
X125830476Y-73880000D01*
X125925714Y-73832380D01*
X126163809Y-73832380D01*
X126306666Y-73880000D01*
X126735238Y-74832380D02*
X126735238Y-73832380D01*
X126973333Y-73832380D01*
X127116190Y-73880000D01*
X127211428Y-73975238D01*
X127259047Y-74070476D01*
X127306666Y-74260952D01*
X127306666Y-74403809D01*
X127259047Y-74594285D01*
X127211428Y-74689523D01*
X127116190Y-74784761D01*
X126973333Y-74832380D01*
X126735238Y-74832380D01*
X99056666Y-77463333D02*
X98356666Y-77463333D01*
X98856666Y-77230000D01*
X98356666Y-76996666D01*
X99056666Y-76996666D01*
X99056666Y-76663333D02*
X98356666Y-76663333D01*
X99056666Y-76330000D02*
X98356666Y-76330000D01*
X98856666Y-76096666D01*
X98356666Y-75863333D01*
X99056666Y-75863333D01*
X98356666Y-75596666D02*
X99056666Y-75130000D01*
X98356666Y-75130000D02*
X99056666Y-75596666D01*
X99056666Y-74463333D02*
X98723333Y-74696666D01*
X99056666Y-74863333D02*
X98356666Y-74863333D01*
X98356666Y-74596666D01*
X98390000Y-74530000D01*
X98423333Y-74496666D01*
X98490000Y-74463333D01*
X98590000Y-74463333D01*
X98656666Y-74496666D01*
X98690000Y-74530000D01*
X98723333Y-74596666D01*
X98723333Y-74863333D01*
X98356666Y-74263333D02*
X98356666Y-73863333D01*
X99056666Y-74063333D02*
X98356666Y-74063333D01*
X99056666Y-73263333D02*
X99056666Y-73663333D01*
X99056666Y-73463333D02*
X98356666Y-73463333D01*
X98456666Y-73530000D01*
X98523333Y-73596666D01*
X98556666Y-73663333D01*
X98356666Y-72830000D02*
X98356666Y-72763333D01*
X98390000Y-72696666D01*
X98423333Y-72663333D01*
X98490000Y-72630000D01*
X98623333Y-72596666D01*
X98790000Y-72596666D01*
X98923333Y-72630000D01*
X98990000Y-72663333D01*
X99023333Y-72696666D01*
X99056666Y-72763333D01*
X99056666Y-72830000D01*
X99023333Y-72896666D01*
X98990000Y-72930000D01*
X98923333Y-72963333D01*
X98790000Y-72996666D01*
X98623333Y-72996666D01*
X98490000Y-72963333D01*
X98423333Y-72930000D01*
X98390000Y-72896666D01*
X98356666Y-72830000D01*
X98356666Y-71996666D02*
X98356666Y-72130000D01*
X98390000Y-72196666D01*
X98423333Y-72230000D01*
X98523333Y-72296666D01*
X98656666Y-72330000D01*
X98923333Y-72330000D01*
X98990000Y-72296666D01*
X99023333Y-72263333D01*
X99056666Y-72196666D01*
X99056666Y-72063333D01*
X99023333Y-71996666D01*
X98990000Y-71963333D01*
X98923333Y-71930000D01*
X98756666Y-71930000D01*
X98690000Y-71963333D01*
X98656666Y-71996666D01*
X98623333Y-72063333D01*
X98623333Y-72196666D01*
X98656666Y-72263333D01*
X98690000Y-72296666D01*
X98756666Y-72330000D01*
X98423333Y-71663333D02*
X98390000Y-71630000D01*
X98356666Y-71563333D01*
X98356666Y-71396666D01*
X98390000Y-71330000D01*
X98423333Y-71296666D01*
X98490000Y-71263333D01*
X98556666Y-71263333D01*
X98656666Y-71296666D01*
X99056666Y-71696666D01*
X99056666Y-71263333D01*
X97786666Y-75583333D02*
X97086666Y-75583333D01*
X97086666Y-75416666D01*
X97120000Y-75316666D01*
X97186666Y-75250000D01*
X97253333Y-75216666D01*
X97386666Y-75183333D01*
X97486666Y-75183333D01*
X97620000Y-75216666D01*
X97686666Y-75250000D01*
X97753333Y-75316666D01*
X97786666Y-75416666D01*
X97786666Y-75583333D01*
X97086666Y-74983333D02*
X97786666Y-74750000D01*
X97086666Y-74516666D01*
X97086666Y-74083333D02*
X97586666Y-74083333D01*
X97686666Y-74116666D01*
X97753333Y-74183333D01*
X97786666Y-74283333D01*
X97786666Y-74350000D01*
X97086666Y-73450000D02*
X97086666Y-73583333D01*
X97120000Y-73650000D01*
X97153333Y-73683333D01*
X97253333Y-73750000D01*
X97386666Y-73783333D01*
X97653333Y-73783333D01*
X97720000Y-73750000D01*
X97753333Y-73716666D01*
X97786666Y-73650000D01*
X97786666Y-73516666D01*
X97753333Y-73450000D01*
X97720000Y-73416666D01*
X97653333Y-73383333D01*
X97486666Y-73383333D01*
X97420000Y-73416666D01*
X97386666Y-73450000D01*
X97353333Y-73516666D01*
X97353333Y-73650000D01*
X97386666Y-73716666D01*
X97420000Y-73750000D01*
X97486666Y-73783333D01*
X97586666Y-73116666D02*
X97586666Y-72783333D01*
X97786666Y-73183333D02*
X97086666Y-72950000D01*
X97786666Y-72716666D01*
%TO.C,R1*%
X101843333Y-98512380D02*
X101510000Y-98036190D01*
X101271904Y-98512380D02*
X101271904Y-97512380D01*
X101652857Y-97512380D01*
X101748095Y-97560000D01*
X101795714Y-97607619D01*
X101843333Y-97702857D01*
X101843333Y-97845714D01*
X101795714Y-97940952D01*
X101748095Y-97988571D01*
X101652857Y-98036190D01*
X101271904Y-98036190D01*
X102795714Y-98512380D02*
X102224285Y-98512380D01*
X102510000Y-98512380D02*
X102510000Y-97512380D01*
X102414761Y-97655238D01*
X102319523Y-97750476D01*
X102224285Y-97798095D01*
%TO.C,O1*%
X118343571Y-89397380D02*
X118534047Y-89397380D01*
X118629285Y-89445000D01*
X118724523Y-89540238D01*
X118772142Y-89730714D01*
X118772142Y-90064047D01*
X118724523Y-90254523D01*
X118629285Y-90349761D01*
X118534047Y-90397380D01*
X118343571Y-90397380D01*
X118248333Y-90349761D01*
X118153095Y-90254523D01*
X118105476Y-90064047D01*
X118105476Y-89730714D01*
X118153095Y-89540238D01*
X118248333Y-89445000D01*
X118343571Y-89397380D01*
X119724523Y-90397380D02*
X119153095Y-90397380D01*
X119438809Y-90397380D02*
X119438809Y-89397380D01*
X119343571Y-89540238D01*
X119248333Y-89635476D01*
X119153095Y-89683095D01*
%TO.C,DP1*%
X117757380Y-106118095D02*
X116757380Y-106118095D01*
X116757380Y-105880000D01*
X116805000Y-105737142D01*
X116900238Y-105641904D01*
X116995476Y-105594285D01*
X117185952Y-105546666D01*
X117328809Y-105546666D01*
X117519285Y-105594285D01*
X117614523Y-105641904D01*
X117709761Y-105737142D01*
X117757380Y-105880000D01*
X117757380Y-106118095D01*
X117757380Y-105118095D02*
X116757380Y-105118095D01*
X116757380Y-104737142D01*
X116805000Y-104641904D01*
X116852619Y-104594285D01*
X116947857Y-104546666D01*
X117090714Y-104546666D01*
X117185952Y-104594285D01*
X117233571Y-104641904D01*
X117281190Y-104737142D01*
X117281190Y-105118095D01*
X117757380Y-103594285D02*
X117757380Y-104165714D01*
X117757380Y-103880000D02*
X116757380Y-103880000D01*
X116900238Y-103975238D01*
X116995476Y-104070476D01*
X117043095Y-104165714D01*
%TO.C,DM1*%
X73727380Y-105689523D02*
X72727380Y-105689523D01*
X72727380Y-105451428D01*
X72775000Y-105308571D01*
X72870238Y-105213333D01*
X72965476Y-105165714D01*
X73155952Y-105118095D01*
X73298809Y-105118095D01*
X73489285Y-105165714D01*
X73584523Y-105213333D01*
X73679761Y-105308571D01*
X73727380Y-105451428D01*
X73727380Y-105689523D01*
X73727380Y-104689523D02*
X72727380Y-104689523D01*
X73441666Y-104356190D01*
X72727380Y-104022857D01*
X73727380Y-104022857D01*
X73727380Y-103022857D02*
X73727380Y-103594285D01*
X73727380Y-103308571D02*
X72727380Y-103308571D01*
X72870238Y-103403809D01*
X72965476Y-103499047D01*
X73013095Y-103594285D01*
%TO.C,C1*%
X101843333Y-104387142D02*
X101795714Y-104434761D01*
X101652857Y-104482380D01*
X101557619Y-104482380D01*
X101414761Y-104434761D01*
X101319523Y-104339523D01*
X101271904Y-104244285D01*
X101224285Y-104053809D01*
X101224285Y-103910952D01*
X101271904Y-103720476D01*
X101319523Y-103625238D01*
X101414761Y-103530000D01*
X101557619Y-103482380D01*
X101652857Y-103482380D01*
X101795714Y-103530000D01*
X101843333Y-103577619D01*
X102795714Y-104482380D02*
X102224285Y-104482380D01*
X102510000Y-104482380D02*
X102510000Y-103482380D01*
X102414761Y-103625238D01*
X102319523Y-103720476D01*
X102224285Y-103768095D01*
D12*
%TO.C,J2*%
X44700000Y-75250000D02*
X51500000Y-75250000D01*
X43940000Y-70040000D02*
X43940000Y-76010000D01*
X45750000Y-70050000D02*
X43950000Y-70050000D01*
X43940000Y-76010000D02*
X59060000Y-76010000D01*
X43650000Y-69750000D02*
X43650000Y-71000000D01*
X47250000Y-70800000D02*
X55750000Y-70800000D01*
X59060000Y-70040000D02*
X43940000Y-70040000D01*
X58300000Y-72300000D02*
X58300000Y-75250000D01*
X59060000Y-76010000D02*
X59060000Y-70040000D01*
X43950000Y-72300000D02*
X44700000Y-72300000D01*
X57250000Y-70050000D02*
X57250000Y-70800000D01*
X55750000Y-70050000D02*
X47250000Y-70050000D01*
X44900000Y-69750000D02*
X43650000Y-69750000D01*
X59050000Y-70800000D02*
X59050000Y-70050000D01*
X43950000Y-70800000D02*
X45750000Y-70800000D01*
X58300000Y-75250000D02*
X51500000Y-75250000D01*
X59050000Y-70050000D02*
X57250000Y-70050000D01*
X47250000Y-70050000D02*
X47250000Y-70800000D01*
X44700000Y-72300000D02*
X44700000Y-75250000D01*
X59050000Y-72300000D02*
X58300000Y-72300000D01*
X55750000Y-70800000D02*
X55750000Y-70050000D01*
X57250000Y-70800000D02*
X59050000Y-70800000D01*
X43950000Y-70050000D02*
X43950000Y-70800000D01*
X45750000Y-70800000D02*
X45750000Y-70050000D01*
D13*
%TO.C,J1*%
X99310000Y-124080000D02*
G75*
G03*
X99310000Y-124080000I-50000J0D01*
G01*
D14*
X77160000Y-132080000D02*
X77160000Y-124380000D01*
X104860000Y-132080000D02*
X77160000Y-132080000D01*
X104860000Y-124380000D02*
X104860000Y-132080000D01*
X77160000Y-124380000D02*
X104860000Y-124380000D01*
%TO.C,U1*%
X103207000Y-74073000D02*
X102953000Y-74327000D01*
X102953000Y-74327000D02*
X102699000Y-73946000D01*
X102699000Y-73946000D02*
X102953000Y-73692000D01*
X102953000Y-73692000D02*
X103207000Y-74073000D01*
G36*
X103207000Y-74073000D02*
G01*
X102953000Y-74327000D01*
X102699000Y-73946000D01*
X102953000Y-73692000D01*
X103207000Y-74073000D01*
G37*
X103207000Y-74073000D02*
X102953000Y-74327000D01*
X102699000Y-73946000D01*
X102953000Y-73692000D01*
X103207000Y-74073000D01*
X102826000Y-74454000D02*
X102572000Y-74708000D01*
X102572000Y-74708000D02*
X102318000Y-74327000D01*
X102318000Y-74327000D02*
X102572000Y-74073000D01*
X102572000Y-74073000D02*
X102826000Y-74454000D01*
G36*
X102826000Y-74454000D02*
G01*
X102572000Y-74708000D01*
X102318000Y-74327000D01*
X102572000Y-74073000D01*
X102826000Y-74454000D01*
G37*
X102826000Y-74454000D02*
X102572000Y-74708000D01*
X102318000Y-74327000D01*
X102572000Y-74073000D01*
X102826000Y-74454000D01*
X100921000Y-73692000D02*
X100667000Y-73946000D01*
X100667000Y-73946000D02*
X100413000Y-73565000D01*
X100413000Y-73565000D02*
X100667000Y-73311000D01*
X100667000Y-73311000D02*
X100921000Y-73692000D01*
G36*
X100921000Y-73692000D02*
G01*
X100667000Y-73946000D01*
X100413000Y-73565000D01*
X100667000Y-73311000D01*
X100921000Y-73692000D01*
G37*
X100921000Y-73692000D02*
X100667000Y-73946000D01*
X100413000Y-73565000D01*
X100667000Y-73311000D01*
X100921000Y-73692000D01*
X101302000Y-74200000D02*
X101048000Y-74454000D01*
X101048000Y-74454000D02*
X100794000Y-74073000D01*
X100794000Y-74073000D02*
X101048000Y-73819000D01*
X101048000Y-73819000D02*
X101302000Y-74200000D01*
G36*
X101302000Y-74200000D02*
G01*
X101048000Y-74454000D01*
X100794000Y-74073000D01*
X101048000Y-73819000D01*
X101302000Y-74200000D01*
G37*
X101302000Y-74200000D02*
X101048000Y-74454000D01*
X100794000Y-74073000D01*
X101048000Y-73819000D01*
X101302000Y-74200000D01*
X101683000Y-74708000D02*
X101429000Y-74962000D01*
X101429000Y-74962000D02*
X101175000Y-74581000D01*
X101175000Y-74581000D02*
X101429000Y-74327000D01*
X101429000Y-74327000D02*
X101683000Y-74708000D01*
G36*
X101683000Y-74708000D02*
G01*
X101429000Y-74962000D01*
X101175000Y-74581000D01*
X101429000Y-74327000D01*
X101683000Y-74708000D01*
G37*
X101683000Y-74708000D02*
X101429000Y-74962000D01*
X101175000Y-74581000D01*
X101429000Y-74327000D01*
X101683000Y-74708000D01*
X101683000Y-73819000D02*
X101429000Y-74073000D01*
X101429000Y-74073000D02*
X101175000Y-73692000D01*
X101175000Y-73692000D02*
X101429000Y-73438000D01*
X101429000Y-73438000D02*
X101683000Y-73819000D01*
G36*
X101683000Y-73819000D02*
G01*
X101429000Y-74073000D01*
X101175000Y-73692000D01*
X101429000Y-73438000D01*
X101683000Y-73819000D01*
G37*
X101683000Y-73819000D02*
X101429000Y-74073000D01*
X101175000Y-73692000D01*
X101429000Y-73438000D01*
X101683000Y-73819000D01*
X102064000Y-74327000D02*
X101810000Y-74581000D01*
X101810000Y-74581000D02*
X101556000Y-74200000D01*
X101556000Y-74200000D02*
X101810000Y-73946000D01*
X101810000Y-73946000D02*
X102064000Y-74327000D01*
G36*
X102064000Y-74327000D02*
G01*
X101810000Y-74581000D01*
X101556000Y-74200000D01*
X101810000Y-73946000D01*
X102064000Y-74327000D01*
G37*
X102064000Y-74327000D02*
X101810000Y-74581000D01*
X101556000Y-74200000D01*
X101810000Y-73946000D01*
X102064000Y-74327000D01*
X102445000Y-74835000D02*
X102191000Y-75089000D01*
X102191000Y-75089000D02*
X101937000Y-74708000D01*
X101937000Y-74708000D02*
X102191000Y-74454000D01*
X102191000Y-74454000D02*
X102445000Y-74835000D01*
G36*
X102445000Y-74835000D02*
G01*
X102191000Y-75089000D01*
X101937000Y-74708000D01*
X102191000Y-74454000D01*
X102445000Y-74835000D01*
G37*
X102445000Y-74835000D02*
X102191000Y-75089000D01*
X101937000Y-74708000D01*
X102191000Y-74454000D01*
X102445000Y-74835000D01*
D10*
X69530000Y-83270000D02*
X69530000Y-65490000D01*
X130490000Y-83270000D02*
X69530000Y-83270000D01*
X130490000Y-65490000D02*
X130490000Y-83270000D01*
X69530000Y-65490000D02*
X130490000Y-65490000D01*
X74610000Y-78190000D02*
X69530000Y-78190000D01*
X74610000Y-70570000D02*
X69530000Y-70570000D01*
X74610000Y-78190000D02*
X74610000Y-70570000D01*
X68260000Y-70570000D02*
X69530000Y-70570000D01*
X68260000Y-78190000D02*
X68260000Y-70570000D01*
X69530000Y-78190000D02*
X68260000Y-78190000D01*
X130490000Y-68030000D02*
X117790000Y-68030000D01*
X117790000Y-68030000D02*
X117790000Y-80730000D01*
X117790000Y-80730000D02*
X130490000Y-80730000D01*
X130490000Y-69300000D02*
X129220000Y-69300000D01*
X129220000Y-69300000D02*
X129220000Y-79460000D01*
X129220000Y-79460000D02*
X130490000Y-79460000D01*
X113980000Y-73110000D02*
X113980000Y-75650000D01*
X113980000Y-75650000D02*
X110170000Y-75650000D01*
X110170000Y-75650000D02*
X110170000Y-73110000D01*
X110170000Y-73110000D02*
X113980000Y-73110000D01*
X75829200Y-77679200D02*
X88529200Y-77679200D01*
X88529200Y-77679200D02*
X88529200Y-80219200D01*
X88529200Y-80219200D02*
X75829200Y-80219200D01*
X75829200Y-80219200D02*
X75829200Y-77679200D01*
X75829200Y-77679200D02*
X78369200Y-77679200D01*
X78369200Y-77679200D02*
X78369200Y-80219200D01*
X82760000Y-68278400D02*
X82760000Y-74278400D01*
X82760000Y-74278400D02*
X86760000Y-74278400D01*
X86760000Y-74278400D02*
X86760000Y-68028400D01*
X86760000Y-68028400D02*
X82760000Y-68028400D01*
X82760000Y-68028400D02*
X82760000Y-68278400D01*
X92390000Y-80730000D02*
X105090000Y-80730000D01*
X105090000Y-80730000D02*
X105090000Y-68030000D01*
X105090000Y-68030000D02*
X92390000Y-68030000D01*
X92390000Y-68030000D02*
X92390000Y-80730000D01*
X112973026Y-74380000D02*
G75*
G03*
X112973026Y-74380000I-898026J0D01*
G01*
D12*
%TO.C,R1*%
X101282936Y-98970000D02*
X102737064Y-98970000D01*
X101282936Y-100790000D02*
X102737064Y-100790000D01*
D15*
%TO.C,O1*%
X117310000Y-95880000D02*
X121710000Y-95880000D01*
X117310000Y-90880000D02*
X121710000Y-90880000D01*
D13*
X115370000Y-91120000D02*
G75*
G03*
X115370000Y-91120000I-100000J0D01*
G01*
D12*
%TO.C,DP1*%
X123715000Y-100505000D02*
X123715000Y-109255000D01*
X123715000Y-109255000D02*
X119105000Y-109255000D01*
X118305000Y-108455000D02*
X118305000Y-100505000D01*
X118305000Y-100505000D02*
X123715000Y-100505000D01*
X119105000Y-109255000D02*
X118305000Y-108455000D01*
%TO.C,DM1*%
X89745000Y-98630000D02*
X89745000Y-110130000D01*
X75075000Y-110130000D02*
X74275000Y-109330000D01*
X74275000Y-109330000D02*
X74275000Y-98630000D01*
X74275000Y-98630000D02*
X89745000Y-98630000D01*
X89745000Y-110130000D02*
X75075000Y-110130000D01*
%TO.C,C1*%
X101298748Y-106790000D02*
X102721252Y-106790000D01*
X101298748Y-104970000D02*
X102721252Y-104970000D01*
%TD*%
M02*
