%TF.GenerationSoftware,KiCad,Pcbnew,(5.1.10)-1*%
%TF.CreationDate,2023-09-20T18:37:59-05:00*%
%TF.ProjectId,brs_flight_computer,6272735f-666c-4696-9768-745f636f6d70,A*%
%TF.SameCoordinates,Original*%
%TF.FileFunction,Legend,Bot*%
%TF.FilePolarity,Positive*%
%FSLAX46Y46*%
G04 Gerber Fmt 4.6, Leading zero omitted, Abs format (unit mm)*
G04 Created by KiCad (PCBNEW (5.1.10)-1) date 2023-09-20 18:37:59*
%MOMM*%
%LPD*%
G01*
G04 APERTURE LIST*
%ADD10C,0.120000*%
%ADD11C,0.100000*%
G04 APERTURE END LIST*
D10*
%TO.C,R48*%
X117745742Y-117079500D02*
X118220258Y-117079500D01*
X117745742Y-118124500D02*
X118220258Y-118124500D01*
%TO.C,R47*%
X117745742Y-120127500D02*
X118220258Y-120127500D01*
X117745742Y-121172500D02*
X118220258Y-121172500D01*
%TO.C,R45*%
X117745742Y-123175500D02*
X118220258Y-123175500D01*
X117745742Y-124220500D02*
X118220258Y-124220500D01*
%TO.C,R44*%
X117745742Y-126223500D02*
X118220258Y-126223500D01*
X117745742Y-127268500D02*
X118220258Y-127268500D01*
%TO.C,R41*%
X117745742Y-129271500D02*
X118220258Y-129271500D01*
X117745742Y-130316500D02*
X118220258Y-130316500D01*
%TO.C,R40*%
X117745742Y-98791500D02*
X118220258Y-98791500D01*
X117745742Y-99836500D02*
X118220258Y-99836500D01*
%TO.C,R39*%
X117745742Y-101839500D02*
X118220258Y-101839500D01*
X117745742Y-102884500D02*
X118220258Y-102884500D01*
%TO.C,R38*%
X117745742Y-104887500D02*
X118220258Y-104887500D01*
X117745742Y-105932500D02*
X118220258Y-105932500D01*
%TO.C,R29*%
X117745742Y-107935500D02*
X118220258Y-107935500D01*
X117745742Y-108980500D02*
X118220258Y-108980500D01*
%TO.C,R28*%
X117745742Y-110983500D02*
X118220258Y-110983500D01*
X117745742Y-112028500D02*
X118220258Y-112028500D01*
%TO.C,R27*%
X117745742Y-80503500D02*
X118220258Y-80503500D01*
X117745742Y-81548500D02*
X118220258Y-81548500D01*
%TO.C,R26*%
X117745742Y-83551500D02*
X118220258Y-83551500D01*
X117745742Y-84596500D02*
X118220258Y-84596500D01*
%TO.C,R13*%
X117745742Y-86599500D02*
X118220258Y-86599500D01*
X117745742Y-87644500D02*
X118220258Y-87644500D01*
%TO.C,R12*%
X117745742Y-89647500D02*
X118220258Y-89647500D01*
X117745742Y-90692500D02*
X118220258Y-90692500D01*
%TO.C,R11*%
X117745742Y-92695500D02*
X118220258Y-92695500D01*
X117745742Y-93740500D02*
X118220258Y-93740500D01*
%TO.C,R10*%
X185659500Y-117364742D02*
X185659500Y-117839258D01*
X186704500Y-117364742D02*
X186704500Y-117839258D01*
%TO.C,C30*%
X134495000Y-96569920D02*
X134495000Y-96851080D01*
X133475000Y-96569920D02*
X133475000Y-96851080D01*
%TO.C,C1*%
X187833580Y-105412000D02*
X187552420Y-105412000D01*
X187833580Y-104392000D02*
X187552420Y-104392000D01*
%TO.C,C29*%
X115826000Y-126986420D02*
X115826000Y-127267580D01*
X114806000Y-126986420D02*
X114806000Y-127267580D01*
%TO.C,C28*%
X117842420Y-94232000D02*
X118123580Y-94232000D01*
X117842420Y-95252000D02*
X118123580Y-95252000D01*
%TO.C,C17*%
X117842420Y-112520000D02*
X118123580Y-112520000D01*
X117842420Y-113540000D02*
X118123580Y-113540000D01*
%TO.C,R80*%
X174877200Y-79853558D02*
X174877200Y-79379042D01*
X175922200Y-79853558D02*
X175922200Y-79379042D01*
%TO.C,R78*%
X170842200Y-79379042D02*
X170842200Y-79853558D01*
X169797200Y-79379042D02*
X169797200Y-79853558D01*
%TO.C,R77*%
X174877200Y-83409558D02*
X174877200Y-82935042D01*
X175922200Y-83409558D02*
X175922200Y-82935042D01*
%TO.C,R76*%
X170842200Y-82935042D02*
X170842200Y-83409558D01*
X169797200Y-82935042D02*
X169797200Y-83409558D01*
%TO.C,R75*%
X174877200Y-86965558D02*
X174877200Y-86491042D01*
X175922200Y-86965558D02*
X175922200Y-86491042D01*
%TO.C,R74*%
X170842200Y-86491042D02*
X170842200Y-86965558D01*
X169797200Y-86491042D02*
X169797200Y-86965558D01*
%TO.C,R73*%
X117745742Y-114031500D02*
X118220258Y-114031500D01*
X117745742Y-115076500D02*
X118220258Y-115076500D01*
%TO.C,R72*%
X117745742Y-95743500D02*
X118220258Y-95743500D01*
X117745742Y-96788500D02*
X118220258Y-96788500D01*
%TO.C,R71*%
X117745742Y-77392000D02*
X118220258Y-77392000D01*
X117745742Y-78437000D02*
X118220258Y-78437000D01*
%TO.C,R3*%
X176513258Y-110250500D02*
X176038742Y-110250500D01*
X176513258Y-109205500D02*
X176038742Y-109205500D01*
%TO.C,R2*%
X185180500Y-117364742D02*
X185180500Y-117839258D01*
X184135500Y-117364742D02*
X184135500Y-117839258D01*
%TO.C,R1*%
X183656500Y-117364742D02*
X183656500Y-117839258D01*
X182611500Y-117364742D02*
X182611500Y-117839258D01*
%TO.C,Q3*%
X173635700Y-78036300D02*
X172175700Y-78036300D01*
X173635700Y-81196300D02*
X171475700Y-81196300D01*
X173635700Y-81196300D02*
X173635700Y-80266300D01*
X173635700Y-78036300D02*
X173635700Y-78966300D01*
%TO.C,Q2*%
X173635700Y-81592300D02*
X172175700Y-81592300D01*
X173635700Y-84752300D02*
X171475700Y-84752300D01*
X173635700Y-84752300D02*
X173635700Y-83822300D01*
X173635700Y-81592300D02*
X173635700Y-82522300D01*
%TO.C,Q1*%
X173635700Y-85148300D02*
X172175700Y-85148300D01*
X173635700Y-88308300D02*
X171475700Y-88308300D01*
X173635700Y-88308300D02*
X173635700Y-87378300D01*
X173635700Y-85148300D02*
X173635700Y-86078300D01*
%TO.C,C110*%
X155958000Y-77964420D02*
X155958000Y-78245580D01*
X154938000Y-77964420D02*
X154938000Y-78245580D01*
%TO.C,C109*%
X163070000Y-77964420D02*
X163070000Y-78245580D01*
X162050000Y-77964420D02*
X162050000Y-78245580D01*
%TO.C,C108*%
X161264000Y-76616000D02*
X161264000Y-84676000D01*
X156744000Y-76616000D02*
X161264000Y-76616000D01*
X156744000Y-84676000D02*
X156744000Y-76616000D01*
%TO.C,C107*%
X130812000Y-77964420D02*
X130812000Y-78245580D01*
X129792000Y-77964420D02*
X129792000Y-78245580D01*
%TO.C,C106*%
X137797000Y-77964420D02*
X137797000Y-78245580D01*
X136777000Y-77964420D02*
X136777000Y-78245580D01*
%TO.C,C105*%
X136118000Y-76616000D02*
X136118000Y-84676000D01*
X131598000Y-76616000D02*
X136118000Y-76616000D01*
X131598000Y-84676000D02*
X131598000Y-76616000D01*
%TO.C,C104*%
X172087000Y-75106920D02*
X172087000Y-75388080D01*
X171067000Y-75106920D02*
X171067000Y-75388080D01*
%TO.C,C99*%
X134495000Y-119302920D02*
X134495000Y-119584080D01*
X133475000Y-119302920D02*
X133475000Y-119584080D01*
%TO.C,C97*%
X122822580Y-109603000D02*
X122541420Y-109603000D01*
X122822580Y-108583000D02*
X122541420Y-108583000D01*
%TO.C,C96*%
X122822580Y-94363000D02*
X122541420Y-94363000D01*
X122822580Y-93343000D02*
X122541420Y-93343000D01*
%TO.C,C93*%
X122822580Y-130939000D02*
X122541420Y-130939000D01*
X122822580Y-129919000D02*
X122541420Y-129919000D01*
%TO.C,C92*%
X122835580Y-91315000D02*
X122554420Y-91315000D01*
X122835580Y-90295000D02*
X122554420Y-90295000D01*
%TO.C,C91*%
X134495000Y-103300920D02*
X134495000Y-103582080D01*
X133475000Y-103300920D02*
X133475000Y-103582080D01*
%TO.C,C90*%
X122822580Y-121795000D02*
X122541420Y-121795000D01*
X122822580Y-120775000D02*
X122541420Y-120775000D01*
%TO.C,C89*%
X122822580Y-106555000D02*
X122541420Y-106555000D01*
X122822580Y-105535000D02*
X122541420Y-105535000D01*
%TO.C,C88*%
X122822580Y-88267000D02*
X122541420Y-88267000D01*
X122822580Y-87247000D02*
X122541420Y-87247000D01*
%TO.C,C86*%
X122822580Y-118747000D02*
X122541420Y-118747000D01*
X122822580Y-117727000D02*
X122541420Y-117727000D01*
%TO.C,C85*%
X122822580Y-103507000D02*
X122541420Y-103507000D01*
X122822580Y-102487000D02*
X122541420Y-102487000D01*
%TO.C,C84*%
X122822580Y-85219000D02*
X122541420Y-85219000D01*
X122822580Y-84199000D02*
X122541420Y-84199000D01*
%TO.C,C83*%
X134495000Y-110031920D02*
X134495000Y-110313080D01*
X133475000Y-110031920D02*
X133475000Y-110313080D01*
%TO.C,C82*%
X122822580Y-127891000D02*
X122541420Y-127891000D01*
X122822580Y-126871000D02*
X122541420Y-126871000D01*
%TO.C,C81*%
X122822580Y-115699000D02*
X122541420Y-115699000D01*
X122822580Y-114679000D02*
X122541420Y-114679000D01*
%TO.C,C80*%
X122822580Y-100459000D02*
X122541420Y-100459000D01*
X122822580Y-99439000D02*
X122541420Y-99439000D01*
%TO.C,C79*%
X122822580Y-82171000D02*
X122541420Y-82171000D01*
X122822580Y-81151000D02*
X122541420Y-81151000D01*
%TO.C,C77*%
X122822580Y-124843000D02*
X122541420Y-124843000D01*
X122822580Y-123823000D02*
X122541420Y-123823000D01*
%TO.C,C76*%
X122822580Y-112651000D02*
X122541420Y-112651000D01*
X122822580Y-111631000D02*
X122541420Y-111631000D01*
%TO.C,C75*%
X122822580Y-97411000D02*
X122541420Y-97411000D01*
X122822580Y-96391000D02*
X122541420Y-96391000D01*
%TO.C,C74*%
X122822580Y-79123000D02*
X122541420Y-79123000D01*
X122822580Y-78103000D02*
X122541420Y-78103000D01*
%TO.C,C71*%
X168134420Y-122299000D02*
X168415580Y-122299000D01*
X168134420Y-123319000D02*
X168415580Y-123319000D01*
%TO.C,C70*%
X168134420Y-110107000D02*
X168415580Y-110107000D01*
X168134420Y-111127000D02*
X168415580Y-111127000D01*
%TO.C,C69*%
X160795580Y-115699000D02*
X160514420Y-115699000D01*
X160795580Y-114679000D02*
X160514420Y-114679000D01*
%TO.C,C68*%
X168134420Y-116203000D02*
X168415580Y-116203000D01*
X168134420Y-117223000D02*
X168415580Y-117223000D01*
%TO.C,C67*%
X160795580Y-112651000D02*
X160514420Y-112651000D01*
X160795580Y-111631000D02*
X160514420Y-111631000D01*
%TO.C,C66*%
X160795580Y-137035000D02*
X160514420Y-137035000D01*
X160795580Y-136015000D02*
X160514420Y-136015000D01*
%TO.C,C65*%
X168134420Y-128395000D02*
X168415580Y-128395000D01*
X168134420Y-129415000D02*
X168415580Y-129415000D01*
%TO.C,C64*%
X168134420Y-104011000D02*
X168415580Y-104011000D01*
X168134420Y-105031000D02*
X168415580Y-105031000D01*
%TO.C,C63*%
X160795580Y-109603000D02*
X160514420Y-109603000D01*
X160795580Y-108583000D02*
X160514420Y-108583000D01*
%TO.C,C62*%
X160795580Y-133987000D02*
X160514420Y-133987000D01*
X160795580Y-132967000D02*
X160514420Y-132967000D01*
%TO.C,C61*%
X160795580Y-106555000D02*
X160514420Y-106555000D01*
X160795580Y-105535000D02*
X160514420Y-105535000D01*
%TO.C,C60*%
X160795580Y-130939000D02*
X160514420Y-130939000D01*
X160795580Y-129919000D02*
X160514420Y-129919000D01*
%TO.C,C59*%
X160795580Y-103507000D02*
X160514420Y-103507000D01*
X160795580Y-102487000D02*
X160514420Y-102487000D01*
%TO.C,C58*%
X160795580Y-127891000D02*
X160514420Y-127891000D01*
X160795580Y-126871000D02*
X160514420Y-126871000D01*
%TO.C,C57*%
X160795580Y-100459000D02*
X160514420Y-100459000D01*
X160795580Y-99439000D02*
X160514420Y-99439000D01*
%TO.C,C56*%
X160795580Y-124843000D02*
X160514420Y-124843000D01*
X160795580Y-123823000D02*
X160514420Y-123823000D01*
%TO.C,C55*%
X160795580Y-97411000D02*
X160514420Y-97411000D01*
X160795580Y-96391000D02*
X160514420Y-96391000D01*
%TO.C,C54*%
X160795580Y-121795000D02*
X160514420Y-121795000D01*
X160795580Y-120775000D02*
X160514420Y-120775000D01*
%TO.C,C53*%
X160795580Y-94363000D02*
X160514420Y-94363000D01*
X160795580Y-93343000D02*
X160514420Y-93343000D01*
%TO.C,C52*%
X160795580Y-118747000D02*
X160514420Y-118747000D01*
X160795580Y-117727000D02*
X160514420Y-117727000D01*
%TO.C,C51*%
X160795580Y-91315000D02*
X160514420Y-91315000D01*
X160795580Y-90295000D02*
X160514420Y-90295000D01*
%TO.C,C47*%
X180088000Y-130161420D02*
X180088000Y-130442580D01*
X179068000Y-130161420D02*
X179068000Y-130442580D01*
%TO.C,C46*%
X179437420Y-125220000D02*
X179718580Y-125220000D01*
X179437420Y-126240000D02*
X179718580Y-126240000D01*
%TO.C,C23*%
X151132000Y-111873420D02*
X151132000Y-112154580D01*
X150112000Y-111873420D02*
X150112000Y-112154580D01*
%TO.C,C22*%
X151132000Y-87108420D02*
X151132000Y-87389580D01*
X150112000Y-87108420D02*
X150112000Y-87389580D01*
%TO.C,C21*%
X151016580Y-97665000D02*
X150735420Y-97665000D01*
X151016580Y-96645000D02*
X150735420Y-96645000D01*
%TO.C,C20*%
X150366000Y-135776580D02*
X150366000Y-135495420D01*
X151386000Y-135776580D02*
X151386000Y-135495420D01*
%TO.C,C19*%
X151016580Y-122049000D02*
X150735420Y-122049000D01*
X151016580Y-121029000D02*
X150735420Y-121029000D01*
%TO.C,C16*%
X168134420Y-98042000D02*
X168415580Y-98042000D01*
X168134420Y-99062000D02*
X168415580Y-99062000D01*
%TO.C,C15*%
X150112000Y-105396420D02*
X150112000Y-105677580D01*
X151132000Y-105396420D02*
X151132000Y-105677580D01*
%TO.C,C14*%
X151132000Y-130034420D02*
X151132000Y-130315580D01*
X150112000Y-130034420D02*
X150112000Y-130315580D01*
%TO.C,C11*%
X189370580Y-117350000D02*
X189089420Y-117350000D01*
X189370580Y-116330000D02*
X189089420Y-116330000D01*
%TO.C,C10*%
X189370580Y-115826000D02*
X189089420Y-115826000D01*
X189370580Y-114806000D02*
X189089420Y-114806000D01*
%TO.C,C9*%
X189370580Y-118874000D02*
X189089420Y-118874000D01*
X189370580Y-117854000D02*
X189089420Y-117854000D01*
%TO.C,C8*%
X183734000Y-103352000D02*
X175674000Y-103352000D01*
X183734000Y-98832000D02*
X183734000Y-103352000D01*
X175674000Y-98832000D02*
X183734000Y-98832000D01*
%TO.C,C7*%
X189089420Y-113282000D02*
X189370580Y-113282000D01*
X189089420Y-114302000D02*
X189370580Y-114302000D01*
%TO.C,C6*%
X189089420Y-111758000D02*
X189370580Y-111758000D01*
X189089420Y-112778000D02*
X189370580Y-112778000D01*
%TO.C,C5*%
X191006000Y-104280580D02*
X191006000Y-103999420D01*
X192026000Y-104280580D02*
X192026000Y-103999420D01*
%TO.C,C4*%
X187846580Y-106936000D02*
X187565420Y-106936000D01*
X187846580Y-105916000D02*
X187565420Y-105916000D01*
%TO.C,C3*%
X187846580Y-108460000D02*
X187565420Y-108460000D01*
X187846580Y-107440000D02*
X187565420Y-107440000D01*
%TO.C,C2*%
X176135420Y-110742000D02*
X176416580Y-110742000D01*
X176135420Y-111762000D02*
X176416580Y-111762000D01*
%TO.C,R48*%
D11*
X120050690Y-117280571D02*
X119812595Y-117113904D01*
X120050690Y-116994857D02*
X119550690Y-116994857D01*
X119550690Y-117185333D01*
X119574500Y-117232952D01*
X119598309Y-117256761D01*
X119645928Y-117280571D01*
X119717357Y-117280571D01*
X119764976Y-117256761D01*
X119788785Y-117232952D01*
X119812595Y-117185333D01*
X119812595Y-116994857D01*
X119717357Y-117709142D02*
X120050690Y-117709142D01*
X119526880Y-117590095D02*
X119884023Y-117471047D01*
X119884023Y-117780571D01*
X119764976Y-118042476D02*
X119741166Y-117994857D01*
X119717357Y-117971047D01*
X119669738Y-117947238D01*
X119645928Y-117947238D01*
X119598309Y-117971047D01*
X119574500Y-117994857D01*
X119550690Y-118042476D01*
X119550690Y-118137714D01*
X119574500Y-118185333D01*
X119598309Y-118209142D01*
X119645928Y-118232952D01*
X119669738Y-118232952D01*
X119717357Y-118209142D01*
X119741166Y-118185333D01*
X119764976Y-118137714D01*
X119764976Y-118042476D01*
X119788785Y-117994857D01*
X119812595Y-117971047D01*
X119860214Y-117947238D01*
X119955452Y-117947238D01*
X120003071Y-117971047D01*
X120026880Y-117994857D01*
X120050690Y-118042476D01*
X120050690Y-118137714D01*
X120026880Y-118185333D01*
X120003071Y-118209142D01*
X119955452Y-118232952D01*
X119860214Y-118232952D01*
X119812595Y-118209142D01*
X119788785Y-118185333D01*
X119764976Y-118137714D01*
%TO.C,R47*%
X120050690Y-120328571D02*
X119812595Y-120161904D01*
X120050690Y-120042857D02*
X119550690Y-120042857D01*
X119550690Y-120233333D01*
X119574500Y-120280952D01*
X119598309Y-120304761D01*
X119645928Y-120328571D01*
X119717357Y-120328571D01*
X119764976Y-120304761D01*
X119788785Y-120280952D01*
X119812595Y-120233333D01*
X119812595Y-120042857D01*
X119717357Y-120757142D02*
X120050690Y-120757142D01*
X119526880Y-120638095D02*
X119884023Y-120519047D01*
X119884023Y-120828571D01*
X119550690Y-120971428D02*
X119550690Y-121304761D01*
X120050690Y-121090476D01*
%TO.C,R45*%
X120050690Y-123376571D02*
X119812595Y-123209904D01*
X120050690Y-123090857D02*
X119550690Y-123090857D01*
X119550690Y-123281333D01*
X119574500Y-123328952D01*
X119598309Y-123352761D01*
X119645928Y-123376571D01*
X119717357Y-123376571D01*
X119764976Y-123352761D01*
X119788785Y-123328952D01*
X119812595Y-123281333D01*
X119812595Y-123090857D01*
X119717357Y-123805142D02*
X120050690Y-123805142D01*
X119526880Y-123686095D02*
X119884023Y-123567047D01*
X119884023Y-123876571D01*
X119550690Y-124305142D02*
X119550690Y-124067047D01*
X119788785Y-124043238D01*
X119764976Y-124067047D01*
X119741166Y-124114666D01*
X119741166Y-124233714D01*
X119764976Y-124281333D01*
X119788785Y-124305142D01*
X119836404Y-124328952D01*
X119955452Y-124328952D01*
X120003071Y-124305142D01*
X120026880Y-124281333D01*
X120050690Y-124233714D01*
X120050690Y-124114666D01*
X120026880Y-124067047D01*
X120003071Y-124043238D01*
%TO.C,R44*%
X120050690Y-126424571D02*
X119812595Y-126257904D01*
X120050690Y-126138857D02*
X119550690Y-126138857D01*
X119550690Y-126329333D01*
X119574500Y-126376952D01*
X119598309Y-126400761D01*
X119645928Y-126424571D01*
X119717357Y-126424571D01*
X119764976Y-126400761D01*
X119788785Y-126376952D01*
X119812595Y-126329333D01*
X119812595Y-126138857D01*
X119717357Y-126853142D02*
X120050690Y-126853142D01*
X119526880Y-126734095D02*
X119884023Y-126615047D01*
X119884023Y-126924571D01*
X119717357Y-127329333D02*
X120050690Y-127329333D01*
X119526880Y-127210285D02*
X119884023Y-127091238D01*
X119884023Y-127400761D01*
%TO.C,R41*%
X120050690Y-129472571D02*
X119812595Y-129305904D01*
X120050690Y-129186857D02*
X119550690Y-129186857D01*
X119550690Y-129377333D01*
X119574500Y-129424952D01*
X119598309Y-129448761D01*
X119645928Y-129472571D01*
X119717357Y-129472571D01*
X119764976Y-129448761D01*
X119788785Y-129424952D01*
X119812595Y-129377333D01*
X119812595Y-129186857D01*
X119717357Y-129901142D02*
X120050690Y-129901142D01*
X119526880Y-129782095D02*
X119884023Y-129663047D01*
X119884023Y-129972571D01*
X120050690Y-130424952D02*
X120050690Y-130139238D01*
X120050690Y-130282095D02*
X119550690Y-130282095D01*
X119622119Y-130234476D01*
X119669738Y-130186857D01*
X119693547Y-130139238D01*
%TO.C,R40*%
X120050690Y-98992571D02*
X119812595Y-98825904D01*
X120050690Y-98706857D02*
X119550690Y-98706857D01*
X119550690Y-98897333D01*
X119574500Y-98944952D01*
X119598309Y-98968761D01*
X119645928Y-98992571D01*
X119717357Y-98992571D01*
X119764976Y-98968761D01*
X119788785Y-98944952D01*
X119812595Y-98897333D01*
X119812595Y-98706857D01*
X119717357Y-99421142D02*
X120050690Y-99421142D01*
X119526880Y-99302095D02*
X119884023Y-99183047D01*
X119884023Y-99492571D01*
X119550690Y-99778285D02*
X119550690Y-99825904D01*
X119574500Y-99873523D01*
X119598309Y-99897333D01*
X119645928Y-99921142D01*
X119741166Y-99944952D01*
X119860214Y-99944952D01*
X119955452Y-99921142D01*
X120003071Y-99897333D01*
X120026880Y-99873523D01*
X120050690Y-99825904D01*
X120050690Y-99778285D01*
X120026880Y-99730666D01*
X120003071Y-99706857D01*
X119955452Y-99683047D01*
X119860214Y-99659238D01*
X119741166Y-99659238D01*
X119645928Y-99683047D01*
X119598309Y-99706857D01*
X119574500Y-99730666D01*
X119550690Y-99778285D01*
%TO.C,R39*%
X120050690Y-102040571D02*
X119812595Y-101873904D01*
X120050690Y-101754857D02*
X119550690Y-101754857D01*
X119550690Y-101945333D01*
X119574500Y-101992952D01*
X119598309Y-102016761D01*
X119645928Y-102040571D01*
X119717357Y-102040571D01*
X119764976Y-102016761D01*
X119788785Y-101992952D01*
X119812595Y-101945333D01*
X119812595Y-101754857D01*
X119550690Y-102207238D02*
X119550690Y-102516761D01*
X119741166Y-102350095D01*
X119741166Y-102421523D01*
X119764976Y-102469142D01*
X119788785Y-102492952D01*
X119836404Y-102516761D01*
X119955452Y-102516761D01*
X120003071Y-102492952D01*
X120026880Y-102469142D01*
X120050690Y-102421523D01*
X120050690Y-102278666D01*
X120026880Y-102231047D01*
X120003071Y-102207238D01*
X120050690Y-102754857D02*
X120050690Y-102850095D01*
X120026880Y-102897714D01*
X120003071Y-102921523D01*
X119931642Y-102969142D01*
X119836404Y-102992952D01*
X119645928Y-102992952D01*
X119598309Y-102969142D01*
X119574500Y-102945333D01*
X119550690Y-102897714D01*
X119550690Y-102802476D01*
X119574500Y-102754857D01*
X119598309Y-102731047D01*
X119645928Y-102707238D01*
X119764976Y-102707238D01*
X119812595Y-102731047D01*
X119836404Y-102754857D01*
X119860214Y-102802476D01*
X119860214Y-102897714D01*
X119836404Y-102945333D01*
X119812595Y-102969142D01*
X119764976Y-102992952D01*
%TO.C,R38*%
X120050690Y-105088571D02*
X119812595Y-104921904D01*
X120050690Y-104802857D02*
X119550690Y-104802857D01*
X119550690Y-104993333D01*
X119574500Y-105040952D01*
X119598309Y-105064761D01*
X119645928Y-105088571D01*
X119717357Y-105088571D01*
X119764976Y-105064761D01*
X119788785Y-105040952D01*
X119812595Y-104993333D01*
X119812595Y-104802857D01*
X119550690Y-105255238D02*
X119550690Y-105564761D01*
X119741166Y-105398095D01*
X119741166Y-105469523D01*
X119764976Y-105517142D01*
X119788785Y-105540952D01*
X119836404Y-105564761D01*
X119955452Y-105564761D01*
X120003071Y-105540952D01*
X120026880Y-105517142D01*
X120050690Y-105469523D01*
X120050690Y-105326666D01*
X120026880Y-105279047D01*
X120003071Y-105255238D01*
X119764976Y-105850476D02*
X119741166Y-105802857D01*
X119717357Y-105779047D01*
X119669738Y-105755238D01*
X119645928Y-105755238D01*
X119598309Y-105779047D01*
X119574500Y-105802857D01*
X119550690Y-105850476D01*
X119550690Y-105945714D01*
X119574500Y-105993333D01*
X119598309Y-106017142D01*
X119645928Y-106040952D01*
X119669738Y-106040952D01*
X119717357Y-106017142D01*
X119741166Y-105993333D01*
X119764976Y-105945714D01*
X119764976Y-105850476D01*
X119788785Y-105802857D01*
X119812595Y-105779047D01*
X119860214Y-105755238D01*
X119955452Y-105755238D01*
X120003071Y-105779047D01*
X120026880Y-105802857D01*
X120050690Y-105850476D01*
X120050690Y-105945714D01*
X120026880Y-105993333D01*
X120003071Y-106017142D01*
X119955452Y-106040952D01*
X119860214Y-106040952D01*
X119812595Y-106017142D01*
X119788785Y-105993333D01*
X119764976Y-105945714D01*
%TO.C,R29*%
X120050690Y-108136571D02*
X119812595Y-107969904D01*
X120050690Y-107850857D02*
X119550690Y-107850857D01*
X119550690Y-108041333D01*
X119574500Y-108088952D01*
X119598309Y-108112761D01*
X119645928Y-108136571D01*
X119717357Y-108136571D01*
X119764976Y-108112761D01*
X119788785Y-108088952D01*
X119812595Y-108041333D01*
X119812595Y-107850857D01*
X119598309Y-108327047D02*
X119574500Y-108350857D01*
X119550690Y-108398476D01*
X119550690Y-108517523D01*
X119574500Y-108565142D01*
X119598309Y-108588952D01*
X119645928Y-108612761D01*
X119693547Y-108612761D01*
X119764976Y-108588952D01*
X120050690Y-108303238D01*
X120050690Y-108612761D01*
X120050690Y-108850857D02*
X120050690Y-108946095D01*
X120026880Y-108993714D01*
X120003071Y-109017523D01*
X119931642Y-109065142D01*
X119836404Y-109088952D01*
X119645928Y-109088952D01*
X119598309Y-109065142D01*
X119574500Y-109041333D01*
X119550690Y-108993714D01*
X119550690Y-108898476D01*
X119574500Y-108850857D01*
X119598309Y-108827047D01*
X119645928Y-108803238D01*
X119764976Y-108803238D01*
X119812595Y-108827047D01*
X119836404Y-108850857D01*
X119860214Y-108898476D01*
X119860214Y-108993714D01*
X119836404Y-109041333D01*
X119812595Y-109065142D01*
X119764976Y-109088952D01*
%TO.C,R28*%
X120050690Y-111184571D02*
X119812595Y-111017904D01*
X120050690Y-110898857D02*
X119550690Y-110898857D01*
X119550690Y-111089333D01*
X119574500Y-111136952D01*
X119598309Y-111160761D01*
X119645928Y-111184571D01*
X119717357Y-111184571D01*
X119764976Y-111160761D01*
X119788785Y-111136952D01*
X119812595Y-111089333D01*
X119812595Y-110898857D01*
X119598309Y-111375047D02*
X119574500Y-111398857D01*
X119550690Y-111446476D01*
X119550690Y-111565523D01*
X119574500Y-111613142D01*
X119598309Y-111636952D01*
X119645928Y-111660761D01*
X119693547Y-111660761D01*
X119764976Y-111636952D01*
X120050690Y-111351238D01*
X120050690Y-111660761D01*
X119764976Y-111946476D02*
X119741166Y-111898857D01*
X119717357Y-111875047D01*
X119669738Y-111851238D01*
X119645928Y-111851238D01*
X119598309Y-111875047D01*
X119574500Y-111898857D01*
X119550690Y-111946476D01*
X119550690Y-112041714D01*
X119574500Y-112089333D01*
X119598309Y-112113142D01*
X119645928Y-112136952D01*
X119669738Y-112136952D01*
X119717357Y-112113142D01*
X119741166Y-112089333D01*
X119764976Y-112041714D01*
X119764976Y-111946476D01*
X119788785Y-111898857D01*
X119812595Y-111875047D01*
X119860214Y-111851238D01*
X119955452Y-111851238D01*
X120003071Y-111875047D01*
X120026880Y-111898857D01*
X120050690Y-111946476D01*
X120050690Y-112041714D01*
X120026880Y-112089333D01*
X120003071Y-112113142D01*
X119955452Y-112136952D01*
X119860214Y-112136952D01*
X119812595Y-112113142D01*
X119788785Y-112089333D01*
X119764976Y-112041714D01*
%TO.C,R27*%
X120050690Y-80704571D02*
X119812595Y-80537904D01*
X120050690Y-80418857D02*
X119550690Y-80418857D01*
X119550690Y-80609333D01*
X119574500Y-80656952D01*
X119598309Y-80680761D01*
X119645928Y-80704571D01*
X119717357Y-80704571D01*
X119764976Y-80680761D01*
X119788785Y-80656952D01*
X119812595Y-80609333D01*
X119812595Y-80418857D01*
X119598309Y-80895047D02*
X119574500Y-80918857D01*
X119550690Y-80966476D01*
X119550690Y-81085523D01*
X119574500Y-81133142D01*
X119598309Y-81156952D01*
X119645928Y-81180761D01*
X119693547Y-81180761D01*
X119764976Y-81156952D01*
X120050690Y-80871238D01*
X120050690Y-81180761D01*
X119550690Y-81347428D02*
X119550690Y-81680761D01*
X120050690Y-81466476D01*
%TO.C,R26*%
X120050690Y-83752571D02*
X119812595Y-83585904D01*
X120050690Y-83466857D02*
X119550690Y-83466857D01*
X119550690Y-83657333D01*
X119574500Y-83704952D01*
X119598309Y-83728761D01*
X119645928Y-83752571D01*
X119717357Y-83752571D01*
X119764976Y-83728761D01*
X119788785Y-83704952D01*
X119812595Y-83657333D01*
X119812595Y-83466857D01*
X119598309Y-83943047D02*
X119574500Y-83966857D01*
X119550690Y-84014476D01*
X119550690Y-84133523D01*
X119574500Y-84181142D01*
X119598309Y-84204952D01*
X119645928Y-84228761D01*
X119693547Y-84228761D01*
X119764976Y-84204952D01*
X120050690Y-83919238D01*
X120050690Y-84228761D01*
X119550690Y-84657333D02*
X119550690Y-84562095D01*
X119574500Y-84514476D01*
X119598309Y-84490666D01*
X119669738Y-84443047D01*
X119764976Y-84419238D01*
X119955452Y-84419238D01*
X120003071Y-84443047D01*
X120026880Y-84466857D01*
X120050690Y-84514476D01*
X120050690Y-84609714D01*
X120026880Y-84657333D01*
X120003071Y-84681142D01*
X119955452Y-84704952D01*
X119836404Y-84704952D01*
X119788785Y-84681142D01*
X119764976Y-84657333D01*
X119741166Y-84609714D01*
X119741166Y-84514476D01*
X119764976Y-84466857D01*
X119788785Y-84443047D01*
X119836404Y-84419238D01*
%TO.C,R13*%
X120050690Y-86800571D02*
X119812595Y-86633904D01*
X120050690Y-86514857D02*
X119550690Y-86514857D01*
X119550690Y-86705333D01*
X119574500Y-86752952D01*
X119598309Y-86776761D01*
X119645928Y-86800571D01*
X119717357Y-86800571D01*
X119764976Y-86776761D01*
X119788785Y-86752952D01*
X119812595Y-86705333D01*
X119812595Y-86514857D01*
X120050690Y-87276761D02*
X120050690Y-86991047D01*
X120050690Y-87133904D02*
X119550690Y-87133904D01*
X119622119Y-87086285D01*
X119669738Y-87038666D01*
X119693547Y-86991047D01*
X119550690Y-87443428D02*
X119550690Y-87752952D01*
X119741166Y-87586285D01*
X119741166Y-87657714D01*
X119764976Y-87705333D01*
X119788785Y-87729142D01*
X119836404Y-87752952D01*
X119955452Y-87752952D01*
X120003071Y-87729142D01*
X120026880Y-87705333D01*
X120050690Y-87657714D01*
X120050690Y-87514857D01*
X120026880Y-87467238D01*
X120003071Y-87443428D01*
%TO.C,R12*%
X120050690Y-89848571D02*
X119812595Y-89681904D01*
X120050690Y-89562857D02*
X119550690Y-89562857D01*
X119550690Y-89753333D01*
X119574500Y-89800952D01*
X119598309Y-89824761D01*
X119645928Y-89848571D01*
X119717357Y-89848571D01*
X119764976Y-89824761D01*
X119788785Y-89800952D01*
X119812595Y-89753333D01*
X119812595Y-89562857D01*
X120050690Y-90324761D02*
X120050690Y-90039047D01*
X120050690Y-90181904D02*
X119550690Y-90181904D01*
X119622119Y-90134285D01*
X119669738Y-90086666D01*
X119693547Y-90039047D01*
X119598309Y-90515238D02*
X119574500Y-90539047D01*
X119550690Y-90586666D01*
X119550690Y-90705714D01*
X119574500Y-90753333D01*
X119598309Y-90777142D01*
X119645928Y-90800952D01*
X119693547Y-90800952D01*
X119764976Y-90777142D01*
X120050690Y-90491428D01*
X120050690Y-90800952D01*
%TO.C,R11*%
X120050690Y-92896571D02*
X119812595Y-92729904D01*
X120050690Y-92610857D02*
X119550690Y-92610857D01*
X119550690Y-92801333D01*
X119574500Y-92848952D01*
X119598309Y-92872761D01*
X119645928Y-92896571D01*
X119717357Y-92896571D01*
X119764976Y-92872761D01*
X119788785Y-92848952D01*
X119812595Y-92801333D01*
X119812595Y-92610857D01*
X120050690Y-93372761D02*
X120050690Y-93087047D01*
X120050690Y-93229904D02*
X119550690Y-93229904D01*
X119622119Y-93182285D01*
X119669738Y-93134666D01*
X119693547Y-93087047D01*
X120050690Y-93848952D02*
X120050690Y-93563238D01*
X120050690Y-93706095D02*
X119550690Y-93706095D01*
X119622119Y-93658476D01*
X119669738Y-93610857D01*
X119693547Y-93563238D01*
%TO.C,R10*%
X186503428Y-119733190D02*
X186670095Y-119495095D01*
X186789142Y-119733190D02*
X186789142Y-119233190D01*
X186598666Y-119233190D01*
X186551047Y-119257000D01*
X186527238Y-119280809D01*
X186503428Y-119328428D01*
X186503428Y-119399857D01*
X186527238Y-119447476D01*
X186551047Y-119471285D01*
X186598666Y-119495095D01*
X186789142Y-119495095D01*
X186027238Y-119733190D02*
X186312952Y-119733190D01*
X186170095Y-119733190D02*
X186170095Y-119233190D01*
X186217714Y-119304619D01*
X186265333Y-119352238D01*
X186312952Y-119376047D01*
X185717714Y-119233190D02*
X185670095Y-119233190D01*
X185622476Y-119257000D01*
X185598666Y-119280809D01*
X185574857Y-119328428D01*
X185551047Y-119423666D01*
X185551047Y-119542714D01*
X185574857Y-119637952D01*
X185598666Y-119685571D01*
X185622476Y-119709380D01*
X185670095Y-119733190D01*
X185717714Y-119733190D01*
X185765333Y-119709380D01*
X185789142Y-119685571D01*
X185812952Y-119637952D01*
X185836761Y-119542714D01*
X185836761Y-119423666D01*
X185812952Y-119328428D01*
X185789142Y-119280809D01*
X185765333Y-119257000D01*
X185717714Y-119233190D01*
%TO.C,C30*%
X134306428Y-98857571D02*
X134330238Y-98881380D01*
X134401666Y-98905190D01*
X134449285Y-98905190D01*
X134520714Y-98881380D01*
X134568333Y-98833761D01*
X134592142Y-98786142D01*
X134615952Y-98690904D01*
X134615952Y-98619476D01*
X134592142Y-98524238D01*
X134568333Y-98476619D01*
X134520714Y-98429000D01*
X134449285Y-98405190D01*
X134401666Y-98405190D01*
X134330238Y-98429000D01*
X134306428Y-98452809D01*
X134139761Y-98405190D02*
X133830238Y-98405190D01*
X133996904Y-98595666D01*
X133925476Y-98595666D01*
X133877857Y-98619476D01*
X133854047Y-98643285D01*
X133830238Y-98690904D01*
X133830238Y-98809952D01*
X133854047Y-98857571D01*
X133877857Y-98881380D01*
X133925476Y-98905190D01*
X134068333Y-98905190D01*
X134115952Y-98881380D01*
X134139761Y-98857571D01*
X133520714Y-98405190D02*
X133473095Y-98405190D01*
X133425476Y-98429000D01*
X133401666Y-98452809D01*
X133377857Y-98500428D01*
X133354047Y-98595666D01*
X133354047Y-98714714D01*
X133377857Y-98809952D01*
X133401666Y-98857571D01*
X133425476Y-98881380D01*
X133473095Y-98905190D01*
X133520714Y-98905190D01*
X133568333Y-98881380D01*
X133592142Y-98857571D01*
X133615952Y-98809952D01*
X133639761Y-98714714D01*
X133639761Y-98595666D01*
X133615952Y-98500428D01*
X133592142Y-98452809D01*
X133568333Y-98429000D01*
X133520714Y-98405190D01*
%TO.C,C1*%
X185979571Y-104818666D02*
X186003380Y-104794857D01*
X186027190Y-104723428D01*
X186027190Y-104675809D01*
X186003380Y-104604380D01*
X185955761Y-104556761D01*
X185908142Y-104532952D01*
X185812904Y-104509142D01*
X185741476Y-104509142D01*
X185646238Y-104532952D01*
X185598619Y-104556761D01*
X185551000Y-104604380D01*
X185527190Y-104675809D01*
X185527190Y-104723428D01*
X185551000Y-104794857D01*
X185574809Y-104818666D01*
X186027190Y-105294857D02*
X186027190Y-105009142D01*
X186027190Y-105152000D02*
X185527190Y-105152000D01*
X185598619Y-105104380D01*
X185646238Y-105056761D01*
X185670047Y-105009142D01*
%TO.C,C29*%
X115637428Y-129210571D02*
X115661238Y-129234380D01*
X115732666Y-129258190D01*
X115780285Y-129258190D01*
X115851714Y-129234380D01*
X115899333Y-129186761D01*
X115923142Y-129139142D01*
X115946952Y-129043904D01*
X115946952Y-128972476D01*
X115923142Y-128877238D01*
X115899333Y-128829619D01*
X115851714Y-128782000D01*
X115780285Y-128758190D01*
X115732666Y-128758190D01*
X115661238Y-128782000D01*
X115637428Y-128805809D01*
X115446952Y-128805809D02*
X115423142Y-128782000D01*
X115375523Y-128758190D01*
X115256476Y-128758190D01*
X115208857Y-128782000D01*
X115185047Y-128805809D01*
X115161238Y-128853428D01*
X115161238Y-128901047D01*
X115185047Y-128972476D01*
X115470761Y-129258190D01*
X115161238Y-129258190D01*
X114923142Y-129258190D02*
X114827904Y-129258190D01*
X114780285Y-129234380D01*
X114756476Y-129210571D01*
X114708857Y-129139142D01*
X114685047Y-129043904D01*
X114685047Y-128853428D01*
X114708857Y-128805809D01*
X114732666Y-128782000D01*
X114780285Y-128758190D01*
X114875523Y-128758190D01*
X114923142Y-128782000D01*
X114946952Y-128805809D01*
X114970761Y-128853428D01*
X114970761Y-128972476D01*
X114946952Y-129020095D01*
X114923142Y-129043904D01*
X114875523Y-129067714D01*
X114780285Y-129067714D01*
X114732666Y-129043904D01*
X114708857Y-129020095D01*
X114685047Y-128972476D01*
%TO.C,C28*%
X120066571Y-94420571D02*
X120090380Y-94396761D01*
X120114190Y-94325333D01*
X120114190Y-94277714D01*
X120090380Y-94206285D01*
X120042761Y-94158666D01*
X119995142Y-94134857D01*
X119899904Y-94111047D01*
X119828476Y-94111047D01*
X119733238Y-94134857D01*
X119685619Y-94158666D01*
X119638000Y-94206285D01*
X119614190Y-94277714D01*
X119614190Y-94325333D01*
X119638000Y-94396761D01*
X119661809Y-94420571D01*
X119661809Y-94611047D02*
X119638000Y-94634857D01*
X119614190Y-94682476D01*
X119614190Y-94801523D01*
X119638000Y-94849142D01*
X119661809Y-94872952D01*
X119709428Y-94896761D01*
X119757047Y-94896761D01*
X119828476Y-94872952D01*
X120114190Y-94587238D01*
X120114190Y-94896761D01*
X119828476Y-95182476D02*
X119804666Y-95134857D01*
X119780857Y-95111047D01*
X119733238Y-95087238D01*
X119709428Y-95087238D01*
X119661809Y-95111047D01*
X119638000Y-95134857D01*
X119614190Y-95182476D01*
X119614190Y-95277714D01*
X119638000Y-95325333D01*
X119661809Y-95349142D01*
X119709428Y-95372952D01*
X119733238Y-95372952D01*
X119780857Y-95349142D01*
X119804666Y-95325333D01*
X119828476Y-95277714D01*
X119828476Y-95182476D01*
X119852285Y-95134857D01*
X119876095Y-95111047D01*
X119923714Y-95087238D01*
X120018952Y-95087238D01*
X120066571Y-95111047D01*
X120090380Y-95134857D01*
X120114190Y-95182476D01*
X120114190Y-95277714D01*
X120090380Y-95325333D01*
X120066571Y-95349142D01*
X120018952Y-95372952D01*
X119923714Y-95372952D01*
X119876095Y-95349142D01*
X119852285Y-95325333D01*
X119828476Y-95277714D01*
%TO.C,C17*%
X120066571Y-112708571D02*
X120090380Y-112684761D01*
X120114190Y-112613333D01*
X120114190Y-112565714D01*
X120090380Y-112494285D01*
X120042761Y-112446666D01*
X119995142Y-112422857D01*
X119899904Y-112399047D01*
X119828476Y-112399047D01*
X119733238Y-112422857D01*
X119685619Y-112446666D01*
X119638000Y-112494285D01*
X119614190Y-112565714D01*
X119614190Y-112613333D01*
X119638000Y-112684761D01*
X119661809Y-112708571D01*
X120114190Y-113184761D02*
X120114190Y-112899047D01*
X120114190Y-113041904D02*
X119614190Y-113041904D01*
X119685619Y-112994285D01*
X119733238Y-112946666D01*
X119757047Y-112899047D01*
X119614190Y-113351428D02*
X119614190Y-113684761D01*
X120114190Y-113470476D01*
%TO.C,R80*%
X176641890Y-79294871D02*
X176403795Y-79128204D01*
X176641890Y-79009157D02*
X176141890Y-79009157D01*
X176141890Y-79199633D01*
X176165700Y-79247252D01*
X176189509Y-79271061D01*
X176237128Y-79294871D01*
X176308557Y-79294871D01*
X176356176Y-79271061D01*
X176379985Y-79247252D01*
X176403795Y-79199633D01*
X176403795Y-79009157D01*
X176356176Y-79580585D02*
X176332366Y-79532966D01*
X176308557Y-79509157D01*
X176260938Y-79485347D01*
X176237128Y-79485347D01*
X176189509Y-79509157D01*
X176165700Y-79532966D01*
X176141890Y-79580585D01*
X176141890Y-79675823D01*
X176165700Y-79723442D01*
X176189509Y-79747252D01*
X176237128Y-79771061D01*
X176260938Y-79771061D01*
X176308557Y-79747252D01*
X176332366Y-79723442D01*
X176356176Y-79675823D01*
X176356176Y-79580585D01*
X176379985Y-79532966D01*
X176403795Y-79509157D01*
X176451414Y-79485347D01*
X176546652Y-79485347D01*
X176594271Y-79509157D01*
X176618080Y-79532966D01*
X176641890Y-79580585D01*
X176641890Y-79675823D01*
X176618080Y-79723442D01*
X176594271Y-79747252D01*
X176546652Y-79771061D01*
X176451414Y-79771061D01*
X176403795Y-79747252D01*
X176379985Y-79723442D01*
X176356176Y-79675823D01*
X176141890Y-80080585D02*
X176141890Y-80128204D01*
X176165700Y-80175823D01*
X176189509Y-80199633D01*
X176237128Y-80223442D01*
X176332366Y-80247252D01*
X176451414Y-80247252D01*
X176546652Y-80223442D01*
X176594271Y-80199633D01*
X176618080Y-80175823D01*
X176641890Y-80128204D01*
X176641890Y-80080585D01*
X176618080Y-80032966D01*
X176594271Y-80009157D01*
X176546652Y-79985347D01*
X176451414Y-79961538D01*
X176332366Y-79961538D01*
X176237128Y-79985347D01*
X176189509Y-80009157D01*
X176165700Y-80032966D01*
X176141890Y-80080585D01*
%TO.C,R78*%
X169529890Y-79294871D02*
X169291795Y-79128204D01*
X169529890Y-79009157D02*
X169029890Y-79009157D01*
X169029890Y-79199633D01*
X169053700Y-79247252D01*
X169077509Y-79271061D01*
X169125128Y-79294871D01*
X169196557Y-79294871D01*
X169244176Y-79271061D01*
X169267985Y-79247252D01*
X169291795Y-79199633D01*
X169291795Y-79009157D01*
X169029890Y-79461538D02*
X169029890Y-79794871D01*
X169529890Y-79580585D01*
X169244176Y-80056776D02*
X169220366Y-80009157D01*
X169196557Y-79985347D01*
X169148938Y-79961538D01*
X169125128Y-79961538D01*
X169077509Y-79985347D01*
X169053700Y-80009157D01*
X169029890Y-80056776D01*
X169029890Y-80152014D01*
X169053700Y-80199633D01*
X169077509Y-80223442D01*
X169125128Y-80247252D01*
X169148938Y-80247252D01*
X169196557Y-80223442D01*
X169220366Y-80199633D01*
X169244176Y-80152014D01*
X169244176Y-80056776D01*
X169267985Y-80009157D01*
X169291795Y-79985347D01*
X169339414Y-79961538D01*
X169434652Y-79961538D01*
X169482271Y-79985347D01*
X169506080Y-80009157D01*
X169529890Y-80056776D01*
X169529890Y-80152014D01*
X169506080Y-80199633D01*
X169482271Y-80223442D01*
X169434652Y-80247252D01*
X169339414Y-80247252D01*
X169291795Y-80223442D01*
X169267985Y-80199633D01*
X169244176Y-80152014D01*
%TO.C,R77*%
X176641890Y-82850871D02*
X176403795Y-82684204D01*
X176641890Y-82565157D02*
X176141890Y-82565157D01*
X176141890Y-82755633D01*
X176165700Y-82803252D01*
X176189509Y-82827061D01*
X176237128Y-82850871D01*
X176308557Y-82850871D01*
X176356176Y-82827061D01*
X176379985Y-82803252D01*
X176403795Y-82755633D01*
X176403795Y-82565157D01*
X176141890Y-83017538D02*
X176141890Y-83350871D01*
X176641890Y-83136585D01*
X176141890Y-83493728D02*
X176141890Y-83827061D01*
X176641890Y-83612776D01*
%TO.C,R76*%
X169529890Y-82850871D02*
X169291795Y-82684204D01*
X169529890Y-82565157D02*
X169029890Y-82565157D01*
X169029890Y-82755633D01*
X169053700Y-82803252D01*
X169077509Y-82827061D01*
X169125128Y-82850871D01*
X169196557Y-82850871D01*
X169244176Y-82827061D01*
X169267985Y-82803252D01*
X169291795Y-82755633D01*
X169291795Y-82565157D01*
X169029890Y-83017538D02*
X169029890Y-83350871D01*
X169529890Y-83136585D01*
X169029890Y-83755633D02*
X169029890Y-83660395D01*
X169053700Y-83612776D01*
X169077509Y-83588966D01*
X169148938Y-83541347D01*
X169244176Y-83517538D01*
X169434652Y-83517538D01*
X169482271Y-83541347D01*
X169506080Y-83565157D01*
X169529890Y-83612776D01*
X169529890Y-83708014D01*
X169506080Y-83755633D01*
X169482271Y-83779442D01*
X169434652Y-83803252D01*
X169315604Y-83803252D01*
X169267985Y-83779442D01*
X169244176Y-83755633D01*
X169220366Y-83708014D01*
X169220366Y-83612776D01*
X169244176Y-83565157D01*
X169267985Y-83541347D01*
X169315604Y-83517538D01*
%TO.C,R75*%
X176641890Y-86406871D02*
X176403795Y-86240204D01*
X176641890Y-86121157D02*
X176141890Y-86121157D01*
X176141890Y-86311633D01*
X176165700Y-86359252D01*
X176189509Y-86383061D01*
X176237128Y-86406871D01*
X176308557Y-86406871D01*
X176356176Y-86383061D01*
X176379985Y-86359252D01*
X176403795Y-86311633D01*
X176403795Y-86121157D01*
X176141890Y-86573538D02*
X176141890Y-86906871D01*
X176641890Y-86692585D01*
X176141890Y-87335442D02*
X176141890Y-87097347D01*
X176379985Y-87073538D01*
X176356176Y-87097347D01*
X176332366Y-87144966D01*
X176332366Y-87264014D01*
X176356176Y-87311633D01*
X176379985Y-87335442D01*
X176427604Y-87359252D01*
X176546652Y-87359252D01*
X176594271Y-87335442D01*
X176618080Y-87311633D01*
X176641890Y-87264014D01*
X176641890Y-87144966D01*
X176618080Y-87097347D01*
X176594271Y-87073538D01*
%TO.C,R74*%
X169529890Y-86406871D02*
X169291795Y-86240204D01*
X169529890Y-86121157D02*
X169029890Y-86121157D01*
X169029890Y-86311633D01*
X169053700Y-86359252D01*
X169077509Y-86383061D01*
X169125128Y-86406871D01*
X169196557Y-86406871D01*
X169244176Y-86383061D01*
X169267985Y-86359252D01*
X169291795Y-86311633D01*
X169291795Y-86121157D01*
X169029890Y-86573538D02*
X169029890Y-86906871D01*
X169529890Y-86692585D01*
X169196557Y-87311633D02*
X169529890Y-87311633D01*
X169006080Y-87192585D02*
X169363223Y-87073538D01*
X169363223Y-87383061D01*
%TO.C,R73*%
X120114190Y-114232571D02*
X119876095Y-114065904D01*
X120114190Y-113946857D02*
X119614190Y-113946857D01*
X119614190Y-114137333D01*
X119638000Y-114184952D01*
X119661809Y-114208761D01*
X119709428Y-114232571D01*
X119780857Y-114232571D01*
X119828476Y-114208761D01*
X119852285Y-114184952D01*
X119876095Y-114137333D01*
X119876095Y-113946857D01*
X119614190Y-114399238D02*
X119614190Y-114732571D01*
X120114190Y-114518285D01*
X119614190Y-114875428D02*
X119614190Y-115184952D01*
X119804666Y-115018285D01*
X119804666Y-115089714D01*
X119828476Y-115137333D01*
X119852285Y-115161142D01*
X119899904Y-115184952D01*
X120018952Y-115184952D01*
X120066571Y-115161142D01*
X120090380Y-115137333D01*
X120114190Y-115089714D01*
X120114190Y-114946857D01*
X120090380Y-114899238D01*
X120066571Y-114875428D01*
%TO.C,R72*%
X120114190Y-95944571D02*
X119876095Y-95777904D01*
X120114190Y-95658857D02*
X119614190Y-95658857D01*
X119614190Y-95849333D01*
X119638000Y-95896952D01*
X119661809Y-95920761D01*
X119709428Y-95944571D01*
X119780857Y-95944571D01*
X119828476Y-95920761D01*
X119852285Y-95896952D01*
X119876095Y-95849333D01*
X119876095Y-95658857D01*
X119614190Y-96111238D02*
X119614190Y-96444571D01*
X120114190Y-96230285D01*
X119661809Y-96611238D02*
X119638000Y-96635047D01*
X119614190Y-96682666D01*
X119614190Y-96801714D01*
X119638000Y-96849333D01*
X119661809Y-96873142D01*
X119709428Y-96896952D01*
X119757047Y-96896952D01*
X119828476Y-96873142D01*
X120114190Y-96587428D01*
X120114190Y-96896952D01*
%TO.C,R71*%
X120050690Y-77656571D02*
X119812595Y-77489904D01*
X120050690Y-77370857D02*
X119550690Y-77370857D01*
X119550690Y-77561333D01*
X119574500Y-77608952D01*
X119598309Y-77632761D01*
X119645928Y-77656571D01*
X119717357Y-77656571D01*
X119764976Y-77632761D01*
X119788785Y-77608952D01*
X119812595Y-77561333D01*
X119812595Y-77370857D01*
X119550690Y-77823238D02*
X119550690Y-78156571D01*
X120050690Y-77942285D01*
X120050690Y-78608952D02*
X120050690Y-78323238D01*
X120050690Y-78466095D02*
X119550690Y-78466095D01*
X119622119Y-78418476D01*
X119669738Y-78370857D01*
X119693547Y-78323238D01*
%TO.C,R3*%
X174597190Y-109644666D02*
X174359095Y-109478000D01*
X174597190Y-109358952D02*
X174097190Y-109358952D01*
X174097190Y-109549428D01*
X174121000Y-109597047D01*
X174144809Y-109620857D01*
X174192428Y-109644666D01*
X174263857Y-109644666D01*
X174311476Y-109620857D01*
X174335285Y-109597047D01*
X174359095Y-109549428D01*
X174359095Y-109358952D01*
X174097190Y-109811333D02*
X174097190Y-110120857D01*
X174287666Y-109954190D01*
X174287666Y-110025619D01*
X174311476Y-110073238D01*
X174335285Y-110097047D01*
X174382904Y-110120857D01*
X174501952Y-110120857D01*
X174549571Y-110097047D01*
X174573380Y-110073238D01*
X174597190Y-110025619D01*
X174597190Y-109882761D01*
X174573380Y-109835142D01*
X174549571Y-109811333D01*
%TO.C,R2*%
X184741333Y-119733190D02*
X184908000Y-119495095D01*
X185027047Y-119733190D02*
X185027047Y-119233190D01*
X184836571Y-119233190D01*
X184788952Y-119257000D01*
X184765142Y-119280809D01*
X184741333Y-119328428D01*
X184741333Y-119399857D01*
X184765142Y-119447476D01*
X184788952Y-119471285D01*
X184836571Y-119495095D01*
X185027047Y-119495095D01*
X184550857Y-119280809D02*
X184527047Y-119257000D01*
X184479428Y-119233190D01*
X184360380Y-119233190D01*
X184312761Y-119257000D01*
X184288952Y-119280809D01*
X184265142Y-119328428D01*
X184265142Y-119376047D01*
X184288952Y-119447476D01*
X184574666Y-119733190D01*
X184265142Y-119733190D01*
%TO.C,R1*%
X183217333Y-119733190D02*
X183384000Y-119495095D01*
X183503047Y-119733190D02*
X183503047Y-119233190D01*
X183312571Y-119233190D01*
X183264952Y-119257000D01*
X183241142Y-119280809D01*
X183217333Y-119328428D01*
X183217333Y-119399857D01*
X183241142Y-119447476D01*
X183264952Y-119471285D01*
X183312571Y-119495095D01*
X183503047Y-119495095D01*
X182741142Y-119733190D02*
X183026857Y-119733190D01*
X182884000Y-119733190D02*
X182884000Y-119233190D01*
X182931619Y-119304619D01*
X182979238Y-119352238D01*
X183026857Y-119376047D01*
%TO.C,Q3*%
X174403509Y-80711680D02*
X174379700Y-80664061D01*
X174332080Y-80616442D01*
X174260652Y-80545014D01*
X174236842Y-80497395D01*
X174236842Y-80449776D01*
X174355890Y-80473585D02*
X174332080Y-80425966D01*
X174284461Y-80378347D01*
X174189223Y-80354538D01*
X174022557Y-80354538D01*
X173927319Y-80378347D01*
X173879700Y-80425966D01*
X173855890Y-80473585D01*
X173855890Y-80568823D01*
X173879700Y-80616442D01*
X173927319Y-80664061D01*
X174022557Y-80687871D01*
X174189223Y-80687871D01*
X174284461Y-80664061D01*
X174332080Y-80616442D01*
X174355890Y-80568823D01*
X174355890Y-80473585D01*
X173855890Y-80854538D02*
X173855890Y-81164061D01*
X174046366Y-80997395D01*
X174046366Y-81068823D01*
X174070176Y-81116442D01*
X174093985Y-81140252D01*
X174141604Y-81164061D01*
X174260652Y-81164061D01*
X174308271Y-81140252D01*
X174332080Y-81116442D01*
X174355890Y-81068823D01*
X174355890Y-80925966D01*
X174332080Y-80878347D01*
X174308271Y-80854538D01*
%TO.C,Q2*%
X174403509Y-84267680D02*
X174379700Y-84220061D01*
X174332080Y-84172442D01*
X174260652Y-84101014D01*
X174236842Y-84053395D01*
X174236842Y-84005776D01*
X174355890Y-84029585D02*
X174332080Y-83981966D01*
X174284461Y-83934347D01*
X174189223Y-83910538D01*
X174022557Y-83910538D01*
X173927319Y-83934347D01*
X173879700Y-83981966D01*
X173855890Y-84029585D01*
X173855890Y-84124823D01*
X173879700Y-84172442D01*
X173927319Y-84220061D01*
X174022557Y-84243871D01*
X174189223Y-84243871D01*
X174284461Y-84220061D01*
X174332080Y-84172442D01*
X174355890Y-84124823D01*
X174355890Y-84029585D01*
X173903509Y-84434347D02*
X173879700Y-84458157D01*
X173855890Y-84505776D01*
X173855890Y-84624823D01*
X173879700Y-84672442D01*
X173903509Y-84696252D01*
X173951128Y-84720061D01*
X173998747Y-84720061D01*
X174070176Y-84696252D01*
X174355890Y-84410538D01*
X174355890Y-84720061D01*
%TO.C,Q1*%
X174403509Y-87823680D02*
X174379700Y-87776061D01*
X174332080Y-87728442D01*
X174260652Y-87657014D01*
X174236842Y-87609395D01*
X174236842Y-87561776D01*
X174355890Y-87585585D02*
X174332080Y-87537966D01*
X174284461Y-87490347D01*
X174189223Y-87466538D01*
X174022557Y-87466538D01*
X173927319Y-87490347D01*
X173879700Y-87537966D01*
X173855890Y-87585585D01*
X173855890Y-87680823D01*
X173879700Y-87728442D01*
X173927319Y-87776061D01*
X174022557Y-87799871D01*
X174189223Y-87799871D01*
X174284461Y-87776061D01*
X174332080Y-87728442D01*
X174355890Y-87680823D01*
X174355890Y-87585585D01*
X174355890Y-88276061D02*
X174355890Y-87990347D01*
X174355890Y-88133204D02*
X173855890Y-88133204D01*
X173927319Y-88085585D01*
X173974938Y-88037966D01*
X173998747Y-87990347D01*
%TO.C,C110*%
X154483571Y-77545476D02*
X154507380Y-77521666D01*
X154531190Y-77450238D01*
X154531190Y-77402619D01*
X154507380Y-77331190D01*
X154459761Y-77283571D01*
X154412142Y-77259761D01*
X154316904Y-77235952D01*
X154245476Y-77235952D01*
X154150238Y-77259761D01*
X154102619Y-77283571D01*
X154055000Y-77331190D01*
X154031190Y-77402619D01*
X154031190Y-77450238D01*
X154055000Y-77521666D01*
X154078809Y-77545476D01*
X154531190Y-78021666D02*
X154531190Y-77735952D01*
X154531190Y-77878809D02*
X154031190Y-77878809D01*
X154102619Y-77831190D01*
X154150238Y-77783571D01*
X154174047Y-77735952D01*
X154531190Y-78497857D02*
X154531190Y-78212142D01*
X154531190Y-78355000D02*
X154031190Y-78355000D01*
X154102619Y-78307380D01*
X154150238Y-78259761D01*
X154174047Y-78212142D01*
X154031190Y-78807380D02*
X154031190Y-78855000D01*
X154055000Y-78902619D01*
X154078809Y-78926428D01*
X154126428Y-78950238D01*
X154221666Y-78974047D01*
X154340714Y-78974047D01*
X154435952Y-78950238D01*
X154483571Y-78926428D01*
X154507380Y-78902619D01*
X154531190Y-78855000D01*
X154531190Y-78807380D01*
X154507380Y-78759761D01*
X154483571Y-78735952D01*
X154435952Y-78712142D01*
X154340714Y-78688333D01*
X154221666Y-78688333D01*
X154126428Y-78712142D01*
X154078809Y-78735952D01*
X154055000Y-78759761D01*
X154031190Y-78807380D01*
%TO.C,C109*%
X163881571Y-77545476D02*
X163905380Y-77521666D01*
X163929190Y-77450238D01*
X163929190Y-77402619D01*
X163905380Y-77331190D01*
X163857761Y-77283571D01*
X163810142Y-77259761D01*
X163714904Y-77235952D01*
X163643476Y-77235952D01*
X163548238Y-77259761D01*
X163500619Y-77283571D01*
X163453000Y-77331190D01*
X163429190Y-77402619D01*
X163429190Y-77450238D01*
X163453000Y-77521666D01*
X163476809Y-77545476D01*
X163929190Y-78021666D02*
X163929190Y-77735952D01*
X163929190Y-77878809D02*
X163429190Y-77878809D01*
X163500619Y-77831190D01*
X163548238Y-77783571D01*
X163572047Y-77735952D01*
X163429190Y-78331190D02*
X163429190Y-78378809D01*
X163453000Y-78426428D01*
X163476809Y-78450238D01*
X163524428Y-78474047D01*
X163619666Y-78497857D01*
X163738714Y-78497857D01*
X163833952Y-78474047D01*
X163881571Y-78450238D01*
X163905380Y-78426428D01*
X163929190Y-78378809D01*
X163929190Y-78331190D01*
X163905380Y-78283571D01*
X163881571Y-78259761D01*
X163833952Y-78235952D01*
X163738714Y-78212142D01*
X163619666Y-78212142D01*
X163524428Y-78235952D01*
X163476809Y-78259761D01*
X163453000Y-78283571D01*
X163429190Y-78331190D01*
X163929190Y-78735952D02*
X163929190Y-78831190D01*
X163905380Y-78878809D01*
X163881571Y-78902619D01*
X163810142Y-78950238D01*
X163714904Y-78974047D01*
X163524428Y-78974047D01*
X163476809Y-78950238D01*
X163453000Y-78926428D01*
X163429190Y-78878809D01*
X163429190Y-78783571D01*
X163453000Y-78735952D01*
X163476809Y-78712142D01*
X163524428Y-78688333D01*
X163643476Y-78688333D01*
X163691095Y-78712142D01*
X163714904Y-78735952D01*
X163738714Y-78783571D01*
X163738714Y-78878809D01*
X163714904Y-78926428D01*
X163691095Y-78950238D01*
X163643476Y-78974047D01*
%TO.C,C108*%
X159563523Y-86030571D02*
X159587333Y-86054380D01*
X159658761Y-86078190D01*
X159706380Y-86078190D01*
X159777809Y-86054380D01*
X159825428Y-86006761D01*
X159849238Y-85959142D01*
X159873047Y-85863904D01*
X159873047Y-85792476D01*
X159849238Y-85697238D01*
X159825428Y-85649619D01*
X159777809Y-85602000D01*
X159706380Y-85578190D01*
X159658761Y-85578190D01*
X159587333Y-85602000D01*
X159563523Y-85625809D01*
X159087333Y-86078190D02*
X159373047Y-86078190D01*
X159230190Y-86078190D02*
X159230190Y-85578190D01*
X159277809Y-85649619D01*
X159325428Y-85697238D01*
X159373047Y-85721047D01*
X158777809Y-85578190D02*
X158730190Y-85578190D01*
X158682571Y-85602000D01*
X158658761Y-85625809D01*
X158634952Y-85673428D01*
X158611142Y-85768666D01*
X158611142Y-85887714D01*
X158634952Y-85982952D01*
X158658761Y-86030571D01*
X158682571Y-86054380D01*
X158730190Y-86078190D01*
X158777809Y-86078190D01*
X158825428Y-86054380D01*
X158849238Y-86030571D01*
X158873047Y-85982952D01*
X158896857Y-85887714D01*
X158896857Y-85768666D01*
X158873047Y-85673428D01*
X158849238Y-85625809D01*
X158825428Y-85602000D01*
X158777809Y-85578190D01*
X158325428Y-85792476D02*
X158373047Y-85768666D01*
X158396857Y-85744857D01*
X158420666Y-85697238D01*
X158420666Y-85673428D01*
X158396857Y-85625809D01*
X158373047Y-85602000D01*
X158325428Y-85578190D01*
X158230190Y-85578190D01*
X158182571Y-85602000D01*
X158158761Y-85625809D01*
X158134952Y-85673428D01*
X158134952Y-85697238D01*
X158158761Y-85744857D01*
X158182571Y-85768666D01*
X158230190Y-85792476D01*
X158325428Y-85792476D01*
X158373047Y-85816285D01*
X158396857Y-85840095D01*
X158420666Y-85887714D01*
X158420666Y-85982952D01*
X158396857Y-86030571D01*
X158373047Y-86054380D01*
X158325428Y-86078190D01*
X158230190Y-86078190D01*
X158182571Y-86054380D01*
X158158761Y-86030571D01*
X158134952Y-85982952D01*
X158134952Y-85887714D01*
X158158761Y-85840095D01*
X158182571Y-85816285D01*
X158230190Y-85792476D01*
%TO.C,C107*%
X129464571Y-77545476D02*
X129488380Y-77521666D01*
X129512190Y-77450238D01*
X129512190Y-77402619D01*
X129488380Y-77331190D01*
X129440761Y-77283571D01*
X129393142Y-77259761D01*
X129297904Y-77235952D01*
X129226476Y-77235952D01*
X129131238Y-77259761D01*
X129083619Y-77283571D01*
X129036000Y-77331190D01*
X129012190Y-77402619D01*
X129012190Y-77450238D01*
X129036000Y-77521666D01*
X129059809Y-77545476D01*
X129512190Y-78021666D02*
X129512190Y-77735952D01*
X129512190Y-77878809D02*
X129012190Y-77878809D01*
X129083619Y-77831190D01*
X129131238Y-77783571D01*
X129155047Y-77735952D01*
X129012190Y-78331190D02*
X129012190Y-78378809D01*
X129036000Y-78426428D01*
X129059809Y-78450238D01*
X129107428Y-78474047D01*
X129202666Y-78497857D01*
X129321714Y-78497857D01*
X129416952Y-78474047D01*
X129464571Y-78450238D01*
X129488380Y-78426428D01*
X129512190Y-78378809D01*
X129512190Y-78331190D01*
X129488380Y-78283571D01*
X129464571Y-78259761D01*
X129416952Y-78235952D01*
X129321714Y-78212142D01*
X129202666Y-78212142D01*
X129107428Y-78235952D01*
X129059809Y-78259761D01*
X129036000Y-78283571D01*
X129012190Y-78331190D01*
X129012190Y-78664523D02*
X129012190Y-78997857D01*
X129512190Y-78783571D01*
%TO.C,C106*%
X138608571Y-77545476D02*
X138632380Y-77521666D01*
X138656190Y-77450238D01*
X138656190Y-77402619D01*
X138632380Y-77331190D01*
X138584761Y-77283571D01*
X138537142Y-77259761D01*
X138441904Y-77235952D01*
X138370476Y-77235952D01*
X138275238Y-77259761D01*
X138227619Y-77283571D01*
X138180000Y-77331190D01*
X138156190Y-77402619D01*
X138156190Y-77450238D01*
X138180000Y-77521666D01*
X138203809Y-77545476D01*
X138656190Y-78021666D02*
X138656190Y-77735952D01*
X138656190Y-77878809D02*
X138156190Y-77878809D01*
X138227619Y-77831190D01*
X138275238Y-77783571D01*
X138299047Y-77735952D01*
X138156190Y-78331190D02*
X138156190Y-78378809D01*
X138180000Y-78426428D01*
X138203809Y-78450238D01*
X138251428Y-78474047D01*
X138346666Y-78497857D01*
X138465714Y-78497857D01*
X138560952Y-78474047D01*
X138608571Y-78450238D01*
X138632380Y-78426428D01*
X138656190Y-78378809D01*
X138656190Y-78331190D01*
X138632380Y-78283571D01*
X138608571Y-78259761D01*
X138560952Y-78235952D01*
X138465714Y-78212142D01*
X138346666Y-78212142D01*
X138251428Y-78235952D01*
X138203809Y-78259761D01*
X138180000Y-78283571D01*
X138156190Y-78331190D01*
X138156190Y-78926428D02*
X138156190Y-78831190D01*
X138180000Y-78783571D01*
X138203809Y-78759761D01*
X138275238Y-78712142D01*
X138370476Y-78688333D01*
X138560952Y-78688333D01*
X138608571Y-78712142D01*
X138632380Y-78735952D01*
X138656190Y-78783571D01*
X138656190Y-78878809D01*
X138632380Y-78926428D01*
X138608571Y-78950238D01*
X138560952Y-78974047D01*
X138441904Y-78974047D01*
X138394285Y-78950238D01*
X138370476Y-78926428D01*
X138346666Y-78878809D01*
X138346666Y-78783571D01*
X138370476Y-78735952D01*
X138394285Y-78712142D01*
X138441904Y-78688333D01*
%TO.C,C105*%
X134417523Y-86081371D02*
X134441333Y-86105180D01*
X134512761Y-86128990D01*
X134560380Y-86128990D01*
X134631809Y-86105180D01*
X134679428Y-86057561D01*
X134703238Y-86009942D01*
X134727047Y-85914704D01*
X134727047Y-85843276D01*
X134703238Y-85748038D01*
X134679428Y-85700419D01*
X134631809Y-85652800D01*
X134560380Y-85628990D01*
X134512761Y-85628990D01*
X134441333Y-85652800D01*
X134417523Y-85676609D01*
X133941333Y-86128990D02*
X134227047Y-86128990D01*
X134084190Y-86128990D02*
X134084190Y-85628990D01*
X134131809Y-85700419D01*
X134179428Y-85748038D01*
X134227047Y-85771847D01*
X133631809Y-85628990D02*
X133584190Y-85628990D01*
X133536571Y-85652800D01*
X133512761Y-85676609D01*
X133488952Y-85724228D01*
X133465142Y-85819466D01*
X133465142Y-85938514D01*
X133488952Y-86033752D01*
X133512761Y-86081371D01*
X133536571Y-86105180D01*
X133584190Y-86128990D01*
X133631809Y-86128990D01*
X133679428Y-86105180D01*
X133703238Y-86081371D01*
X133727047Y-86033752D01*
X133750857Y-85938514D01*
X133750857Y-85819466D01*
X133727047Y-85724228D01*
X133703238Y-85676609D01*
X133679428Y-85652800D01*
X133631809Y-85628990D01*
X133012761Y-85628990D02*
X133250857Y-85628990D01*
X133274666Y-85867085D01*
X133250857Y-85843276D01*
X133203238Y-85819466D01*
X133084190Y-85819466D01*
X133036571Y-85843276D01*
X133012761Y-85867085D01*
X132988952Y-85914704D01*
X132988952Y-86033752D01*
X133012761Y-86081371D01*
X133036571Y-86105180D01*
X133084190Y-86128990D01*
X133203238Y-86128990D01*
X133250857Y-86105180D01*
X133274666Y-86081371D01*
%TO.C,C104*%
X172771571Y-74687976D02*
X172795380Y-74664166D01*
X172819190Y-74592738D01*
X172819190Y-74545119D01*
X172795380Y-74473690D01*
X172747761Y-74426071D01*
X172700142Y-74402261D01*
X172604904Y-74378452D01*
X172533476Y-74378452D01*
X172438238Y-74402261D01*
X172390619Y-74426071D01*
X172343000Y-74473690D01*
X172319190Y-74545119D01*
X172319190Y-74592738D01*
X172343000Y-74664166D01*
X172366809Y-74687976D01*
X172819190Y-75164166D02*
X172819190Y-74878452D01*
X172819190Y-75021309D02*
X172319190Y-75021309D01*
X172390619Y-74973690D01*
X172438238Y-74926071D01*
X172462047Y-74878452D01*
X172319190Y-75473690D02*
X172319190Y-75521309D01*
X172343000Y-75568928D01*
X172366809Y-75592738D01*
X172414428Y-75616547D01*
X172509666Y-75640357D01*
X172628714Y-75640357D01*
X172723952Y-75616547D01*
X172771571Y-75592738D01*
X172795380Y-75568928D01*
X172819190Y-75521309D01*
X172819190Y-75473690D01*
X172795380Y-75426071D01*
X172771571Y-75402261D01*
X172723952Y-75378452D01*
X172628714Y-75354642D01*
X172509666Y-75354642D01*
X172414428Y-75378452D01*
X172366809Y-75402261D01*
X172343000Y-75426071D01*
X172319190Y-75473690D01*
X172485857Y-76068928D02*
X172819190Y-76068928D01*
X172295380Y-75949880D02*
X172652523Y-75830833D01*
X172652523Y-76140357D01*
%TO.C,C99*%
X134306428Y-121590571D02*
X134330238Y-121614380D01*
X134401666Y-121638190D01*
X134449285Y-121638190D01*
X134520714Y-121614380D01*
X134568333Y-121566761D01*
X134592142Y-121519142D01*
X134615952Y-121423904D01*
X134615952Y-121352476D01*
X134592142Y-121257238D01*
X134568333Y-121209619D01*
X134520714Y-121162000D01*
X134449285Y-121138190D01*
X134401666Y-121138190D01*
X134330238Y-121162000D01*
X134306428Y-121185809D01*
X134068333Y-121638190D02*
X133973095Y-121638190D01*
X133925476Y-121614380D01*
X133901666Y-121590571D01*
X133854047Y-121519142D01*
X133830238Y-121423904D01*
X133830238Y-121233428D01*
X133854047Y-121185809D01*
X133877857Y-121162000D01*
X133925476Y-121138190D01*
X134020714Y-121138190D01*
X134068333Y-121162000D01*
X134092142Y-121185809D01*
X134115952Y-121233428D01*
X134115952Y-121352476D01*
X134092142Y-121400095D01*
X134068333Y-121423904D01*
X134020714Y-121447714D01*
X133925476Y-121447714D01*
X133877857Y-121423904D01*
X133854047Y-121400095D01*
X133830238Y-121352476D01*
X133592142Y-121638190D02*
X133496904Y-121638190D01*
X133449285Y-121614380D01*
X133425476Y-121590571D01*
X133377857Y-121519142D01*
X133354047Y-121423904D01*
X133354047Y-121233428D01*
X133377857Y-121185809D01*
X133401666Y-121162000D01*
X133449285Y-121138190D01*
X133544523Y-121138190D01*
X133592142Y-121162000D01*
X133615952Y-121185809D01*
X133639761Y-121233428D01*
X133639761Y-121352476D01*
X133615952Y-121400095D01*
X133592142Y-121423904D01*
X133544523Y-121447714D01*
X133449285Y-121447714D01*
X133401666Y-121423904D01*
X133377857Y-121400095D01*
X133354047Y-121352476D01*
%TO.C,C97*%
X125019571Y-108771571D02*
X125043380Y-108747761D01*
X125067190Y-108676333D01*
X125067190Y-108628714D01*
X125043380Y-108557285D01*
X124995761Y-108509666D01*
X124948142Y-108485857D01*
X124852904Y-108462047D01*
X124781476Y-108462047D01*
X124686238Y-108485857D01*
X124638619Y-108509666D01*
X124591000Y-108557285D01*
X124567190Y-108628714D01*
X124567190Y-108676333D01*
X124591000Y-108747761D01*
X124614809Y-108771571D01*
X125067190Y-109009666D02*
X125067190Y-109104904D01*
X125043380Y-109152523D01*
X125019571Y-109176333D01*
X124948142Y-109223952D01*
X124852904Y-109247761D01*
X124662428Y-109247761D01*
X124614809Y-109223952D01*
X124591000Y-109200142D01*
X124567190Y-109152523D01*
X124567190Y-109057285D01*
X124591000Y-109009666D01*
X124614809Y-108985857D01*
X124662428Y-108962047D01*
X124781476Y-108962047D01*
X124829095Y-108985857D01*
X124852904Y-109009666D01*
X124876714Y-109057285D01*
X124876714Y-109152523D01*
X124852904Y-109200142D01*
X124829095Y-109223952D01*
X124781476Y-109247761D01*
X124567190Y-109414428D02*
X124567190Y-109747761D01*
X125067190Y-109533476D01*
%TO.C,C96*%
X125019571Y-93658571D02*
X125043380Y-93634761D01*
X125067190Y-93563333D01*
X125067190Y-93515714D01*
X125043380Y-93444285D01*
X124995761Y-93396666D01*
X124948142Y-93372857D01*
X124852904Y-93349047D01*
X124781476Y-93349047D01*
X124686238Y-93372857D01*
X124638619Y-93396666D01*
X124591000Y-93444285D01*
X124567190Y-93515714D01*
X124567190Y-93563333D01*
X124591000Y-93634761D01*
X124614809Y-93658571D01*
X125067190Y-93896666D02*
X125067190Y-93991904D01*
X125043380Y-94039523D01*
X125019571Y-94063333D01*
X124948142Y-94110952D01*
X124852904Y-94134761D01*
X124662428Y-94134761D01*
X124614809Y-94110952D01*
X124591000Y-94087142D01*
X124567190Y-94039523D01*
X124567190Y-93944285D01*
X124591000Y-93896666D01*
X124614809Y-93872857D01*
X124662428Y-93849047D01*
X124781476Y-93849047D01*
X124829095Y-93872857D01*
X124852904Y-93896666D01*
X124876714Y-93944285D01*
X124876714Y-94039523D01*
X124852904Y-94087142D01*
X124829095Y-94110952D01*
X124781476Y-94134761D01*
X124567190Y-94563333D02*
X124567190Y-94468095D01*
X124591000Y-94420476D01*
X124614809Y-94396666D01*
X124686238Y-94349047D01*
X124781476Y-94325238D01*
X124971952Y-94325238D01*
X125019571Y-94349047D01*
X125043380Y-94372857D01*
X125067190Y-94420476D01*
X125067190Y-94515714D01*
X125043380Y-94563333D01*
X125019571Y-94587142D01*
X124971952Y-94610952D01*
X124852904Y-94610952D01*
X124805285Y-94587142D01*
X124781476Y-94563333D01*
X124757666Y-94515714D01*
X124757666Y-94420476D01*
X124781476Y-94372857D01*
X124805285Y-94349047D01*
X124852904Y-94325238D01*
%TO.C,C93*%
X125019571Y-130107571D02*
X125043380Y-130083761D01*
X125067190Y-130012333D01*
X125067190Y-129964714D01*
X125043380Y-129893285D01*
X124995761Y-129845666D01*
X124948142Y-129821857D01*
X124852904Y-129798047D01*
X124781476Y-129798047D01*
X124686238Y-129821857D01*
X124638619Y-129845666D01*
X124591000Y-129893285D01*
X124567190Y-129964714D01*
X124567190Y-130012333D01*
X124591000Y-130083761D01*
X124614809Y-130107571D01*
X125067190Y-130345666D02*
X125067190Y-130440904D01*
X125043380Y-130488523D01*
X125019571Y-130512333D01*
X124948142Y-130559952D01*
X124852904Y-130583761D01*
X124662428Y-130583761D01*
X124614809Y-130559952D01*
X124591000Y-130536142D01*
X124567190Y-130488523D01*
X124567190Y-130393285D01*
X124591000Y-130345666D01*
X124614809Y-130321857D01*
X124662428Y-130298047D01*
X124781476Y-130298047D01*
X124829095Y-130321857D01*
X124852904Y-130345666D01*
X124876714Y-130393285D01*
X124876714Y-130488523D01*
X124852904Y-130536142D01*
X124829095Y-130559952D01*
X124781476Y-130583761D01*
X124567190Y-130750428D02*
X124567190Y-131059952D01*
X124757666Y-130893285D01*
X124757666Y-130964714D01*
X124781476Y-131012333D01*
X124805285Y-131036142D01*
X124852904Y-131059952D01*
X124971952Y-131059952D01*
X125019571Y-131036142D01*
X125043380Y-131012333D01*
X125067190Y-130964714D01*
X125067190Y-130821857D01*
X125043380Y-130774238D01*
X125019571Y-130750428D01*
%TO.C,C92*%
X125019571Y-90483571D02*
X125043380Y-90459761D01*
X125067190Y-90388333D01*
X125067190Y-90340714D01*
X125043380Y-90269285D01*
X124995761Y-90221666D01*
X124948142Y-90197857D01*
X124852904Y-90174047D01*
X124781476Y-90174047D01*
X124686238Y-90197857D01*
X124638619Y-90221666D01*
X124591000Y-90269285D01*
X124567190Y-90340714D01*
X124567190Y-90388333D01*
X124591000Y-90459761D01*
X124614809Y-90483571D01*
X125067190Y-90721666D02*
X125067190Y-90816904D01*
X125043380Y-90864523D01*
X125019571Y-90888333D01*
X124948142Y-90935952D01*
X124852904Y-90959761D01*
X124662428Y-90959761D01*
X124614809Y-90935952D01*
X124591000Y-90912142D01*
X124567190Y-90864523D01*
X124567190Y-90769285D01*
X124591000Y-90721666D01*
X124614809Y-90697857D01*
X124662428Y-90674047D01*
X124781476Y-90674047D01*
X124829095Y-90697857D01*
X124852904Y-90721666D01*
X124876714Y-90769285D01*
X124876714Y-90864523D01*
X124852904Y-90912142D01*
X124829095Y-90935952D01*
X124781476Y-90959761D01*
X124614809Y-91150238D02*
X124591000Y-91174047D01*
X124567190Y-91221666D01*
X124567190Y-91340714D01*
X124591000Y-91388333D01*
X124614809Y-91412142D01*
X124662428Y-91435952D01*
X124710047Y-91435952D01*
X124781476Y-91412142D01*
X125067190Y-91126428D01*
X125067190Y-91435952D01*
%TO.C,C91*%
X134306428Y-105588571D02*
X134330238Y-105612380D01*
X134401666Y-105636190D01*
X134449285Y-105636190D01*
X134520714Y-105612380D01*
X134568333Y-105564761D01*
X134592142Y-105517142D01*
X134615952Y-105421904D01*
X134615952Y-105350476D01*
X134592142Y-105255238D01*
X134568333Y-105207619D01*
X134520714Y-105160000D01*
X134449285Y-105136190D01*
X134401666Y-105136190D01*
X134330238Y-105160000D01*
X134306428Y-105183809D01*
X134068333Y-105636190D02*
X133973095Y-105636190D01*
X133925476Y-105612380D01*
X133901666Y-105588571D01*
X133854047Y-105517142D01*
X133830238Y-105421904D01*
X133830238Y-105231428D01*
X133854047Y-105183809D01*
X133877857Y-105160000D01*
X133925476Y-105136190D01*
X134020714Y-105136190D01*
X134068333Y-105160000D01*
X134092142Y-105183809D01*
X134115952Y-105231428D01*
X134115952Y-105350476D01*
X134092142Y-105398095D01*
X134068333Y-105421904D01*
X134020714Y-105445714D01*
X133925476Y-105445714D01*
X133877857Y-105421904D01*
X133854047Y-105398095D01*
X133830238Y-105350476D01*
X133354047Y-105636190D02*
X133639761Y-105636190D01*
X133496904Y-105636190D02*
X133496904Y-105136190D01*
X133544523Y-105207619D01*
X133592142Y-105255238D01*
X133639761Y-105279047D01*
%TO.C,C90*%
X125019571Y-120963571D02*
X125043380Y-120939761D01*
X125067190Y-120868333D01*
X125067190Y-120820714D01*
X125043380Y-120749285D01*
X124995761Y-120701666D01*
X124948142Y-120677857D01*
X124852904Y-120654047D01*
X124781476Y-120654047D01*
X124686238Y-120677857D01*
X124638619Y-120701666D01*
X124591000Y-120749285D01*
X124567190Y-120820714D01*
X124567190Y-120868333D01*
X124591000Y-120939761D01*
X124614809Y-120963571D01*
X125067190Y-121201666D02*
X125067190Y-121296904D01*
X125043380Y-121344523D01*
X125019571Y-121368333D01*
X124948142Y-121415952D01*
X124852904Y-121439761D01*
X124662428Y-121439761D01*
X124614809Y-121415952D01*
X124591000Y-121392142D01*
X124567190Y-121344523D01*
X124567190Y-121249285D01*
X124591000Y-121201666D01*
X124614809Y-121177857D01*
X124662428Y-121154047D01*
X124781476Y-121154047D01*
X124829095Y-121177857D01*
X124852904Y-121201666D01*
X124876714Y-121249285D01*
X124876714Y-121344523D01*
X124852904Y-121392142D01*
X124829095Y-121415952D01*
X124781476Y-121439761D01*
X124567190Y-121749285D02*
X124567190Y-121796904D01*
X124591000Y-121844523D01*
X124614809Y-121868333D01*
X124662428Y-121892142D01*
X124757666Y-121915952D01*
X124876714Y-121915952D01*
X124971952Y-121892142D01*
X125019571Y-121868333D01*
X125043380Y-121844523D01*
X125067190Y-121796904D01*
X125067190Y-121749285D01*
X125043380Y-121701666D01*
X125019571Y-121677857D01*
X124971952Y-121654047D01*
X124876714Y-121630238D01*
X124757666Y-121630238D01*
X124662428Y-121654047D01*
X124614809Y-121677857D01*
X124591000Y-121701666D01*
X124567190Y-121749285D01*
%TO.C,C89*%
X125019571Y-105723571D02*
X125043380Y-105699761D01*
X125067190Y-105628333D01*
X125067190Y-105580714D01*
X125043380Y-105509285D01*
X124995761Y-105461666D01*
X124948142Y-105437857D01*
X124852904Y-105414047D01*
X124781476Y-105414047D01*
X124686238Y-105437857D01*
X124638619Y-105461666D01*
X124591000Y-105509285D01*
X124567190Y-105580714D01*
X124567190Y-105628333D01*
X124591000Y-105699761D01*
X124614809Y-105723571D01*
X124781476Y-106009285D02*
X124757666Y-105961666D01*
X124733857Y-105937857D01*
X124686238Y-105914047D01*
X124662428Y-105914047D01*
X124614809Y-105937857D01*
X124591000Y-105961666D01*
X124567190Y-106009285D01*
X124567190Y-106104523D01*
X124591000Y-106152142D01*
X124614809Y-106175952D01*
X124662428Y-106199761D01*
X124686238Y-106199761D01*
X124733857Y-106175952D01*
X124757666Y-106152142D01*
X124781476Y-106104523D01*
X124781476Y-106009285D01*
X124805285Y-105961666D01*
X124829095Y-105937857D01*
X124876714Y-105914047D01*
X124971952Y-105914047D01*
X125019571Y-105937857D01*
X125043380Y-105961666D01*
X125067190Y-106009285D01*
X125067190Y-106104523D01*
X125043380Y-106152142D01*
X125019571Y-106175952D01*
X124971952Y-106199761D01*
X124876714Y-106199761D01*
X124829095Y-106175952D01*
X124805285Y-106152142D01*
X124781476Y-106104523D01*
X125067190Y-106437857D02*
X125067190Y-106533095D01*
X125043380Y-106580714D01*
X125019571Y-106604523D01*
X124948142Y-106652142D01*
X124852904Y-106675952D01*
X124662428Y-106675952D01*
X124614809Y-106652142D01*
X124591000Y-106628333D01*
X124567190Y-106580714D01*
X124567190Y-106485476D01*
X124591000Y-106437857D01*
X124614809Y-106414047D01*
X124662428Y-106390238D01*
X124781476Y-106390238D01*
X124829095Y-106414047D01*
X124852904Y-106437857D01*
X124876714Y-106485476D01*
X124876714Y-106580714D01*
X124852904Y-106628333D01*
X124829095Y-106652142D01*
X124781476Y-106675952D01*
%TO.C,C88*%
X125019571Y-87435571D02*
X125043380Y-87411761D01*
X125067190Y-87340333D01*
X125067190Y-87292714D01*
X125043380Y-87221285D01*
X124995761Y-87173666D01*
X124948142Y-87149857D01*
X124852904Y-87126047D01*
X124781476Y-87126047D01*
X124686238Y-87149857D01*
X124638619Y-87173666D01*
X124591000Y-87221285D01*
X124567190Y-87292714D01*
X124567190Y-87340333D01*
X124591000Y-87411761D01*
X124614809Y-87435571D01*
X124781476Y-87721285D02*
X124757666Y-87673666D01*
X124733857Y-87649857D01*
X124686238Y-87626047D01*
X124662428Y-87626047D01*
X124614809Y-87649857D01*
X124591000Y-87673666D01*
X124567190Y-87721285D01*
X124567190Y-87816523D01*
X124591000Y-87864142D01*
X124614809Y-87887952D01*
X124662428Y-87911761D01*
X124686238Y-87911761D01*
X124733857Y-87887952D01*
X124757666Y-87864142D01*
X124781476Y-87816523D01*
X124781476Y-87721285D01*
X124805285Y-87673666D01*
X124829095Y-87649857D01*
X124876714Y-87626047D01*
X124971952Y-87626047D01*
X125019571Y-87649857D01*
X125043380Y-87673666D01*
X125067190Y-87721285D01*
X125067190Y-87816523D01*
X125043380Y-87864142D01*
X125019571Y-87887952D01*
X124971952Y-87911761D01*
X124876714Y-87911761D01*
X124829095Y-87887952D01*
X124805285Y-87864142D01*
X124781476Y-87816523D01*
X124781476Y-88197476D02*
X124757666Y-88149857D01*
X124733857Y-88126047D01*
X124686238Y-88102238D01*
X124662428Y-88102238D01*
X124614809Y-88126047D01*
X124591000Y-88149857D01*
X124567190Y-88197476D01*
X124567190Y-88292714D01*
X124591000Y-88340333D01*
X124614809Y-88364142D01*
X124662428Y-88387952D01*
X124686238Y-88387952D01*
X124733857Y-88364142D01*
X124757666Y-88340333D01*
X124781476Y-88292714D01*
X124781476Y-88197476D01*
X124805285Y-88149857D01*
X124829095Y-88126047D01*
X124876714Y-88102238D01*
X124971952Y-88102238D01*
X125019571Y-88126047D01*
X125043380Y-88149857D01*
X125067190Y-88197476D01*
X125067190Y-88292714D01*
X125043380Y-88340333D01*
X125019571Y-88364142D01*
X124971952Y-88387952D01*
X124876714Y-88387952D01*
X124829095Y-88364142D01*
X124805285Y-88340333D01*
X124781476Y-88292714D01*
%TO.C,C86*%
X125019571Y-117915571D02*
X125043380Y-117891761D01*
X125067190Y-117820333D01*
X125067190Y-117772714D01*
X125043380Y-117701285D01*
X124995761Y-117653666D01*
X124948142Y-117629857D01*
X124852904Y-117606047D01*
X124781476Y-117606047D01*
X124686238Y-117629857D01*
X124638619Y-117653666D01*
X124591000Y-117701285D01*
X124567190Y-117772714D01*
X124567190Y-117820333D01*
X124591000Y-117891761D01*
X124614809Y-117915571D01*
X124781476Y-118201285D02*
X124757666Y-118153666D01*
X124733857Y-118129857D01*
X124686238Y-118106047D01*
X124662428Y-118106047D01*
X124614809Y-118129857D01*
X124591000Y-118153666D01*
X124567190Y-118201285D01*
X124567190Y-118296523D01*
X124591000Y-118344142D01*
X124614809Y-118367952D01*
X124662428Y-118391761D01*
X124686238Y-118391761D01*
X124733857Y-118367952D01*
X124757666Y-118344142D01*
X124781476Y-118296523D01*
X124781476Y-118201285D01*
X124805285Y-118153666D01*
X124829095Y-118129857D01*
X124876714Y-118106047D01*
X124971952Y-118106047D01*
X125019571Y-118129857D01*
X125043380Y-118153666D01*
X125067190Y-118201285D01*
X125067190Y-118296523D01*
X125043380Y-118344142D01*
X125019571Y-118367952D01*
X124971952Y-118391761D01*
X124876714Y-118391761D01*
X124829095Y-118367952D01*
X124805285Y-118344142D01*
X124781476Y-118296523D01*
X124567190Y-118820333D02*
X124567190Y-118725095D01*
X124591000Y-118677476D01*
X124614809Y-118653666D01*
X124686238Y-118606047D01*
X124781476Y-118582238D01*
X124971952Y-118582238D01*
X125019571Y-118606047D01*
X125043380Y-118629857D01*
X125067190Y-118677476D01*
X125067190Y-118772714D01*
X125043380Y-118820333D01*
X125019571Y-118844142D01*
X124971952Y-118867952D01*
X124852904Y-118867952D01*
X124805285Y-118844142D01*
X124781476Y-118820333D01*
X124757666Y-118772714D01*
X124757666Y-118677476D01*
X124781476Y-118629857D01*
X124805285Y-118606047D01*
X124852904Y-118582238D01*
%TO.C,C85*%
X125019571Y-102675571D02*
X125043380Y-102651761D01*
X125067190Y-102580333D01*
X125067190Y-102532714D01*
X125043380Y-102461285D01*
X124995761Y-102413666D01*
X124948142Y-102389857D01*
X124852904Y-102366047D01*
X124781476Y-102366047D01*
X124686238Y-102389857D01*
X124638619Y-102413666D01*
X124591000Y-102461285D01*
X124567190Y-102532714D01*
X124567190Y-102580333D01*
X124591000Y-102651761D01*
X124614809Y-102675571D01*
X124781476Y-102961285D02*
X124757666Y-102913666D01*
X124733857Y-102889857D01*
X124686238Y-102866047D01*
X124662428Y-102866047D01*
X124614809Y-102889857D01*
X124591000Y-102913666D01*
X124567190Y-102961285D01*
X124567190Y-103056523D01*
X124591000Y-103104142D01*
X124614809Y-103127952D01*
X124662428Y-103151761D01*
X124686238Y-103151761D01*
X124733857Y-103127952D01*
X124757666Y-103104142D01*
X124781476Y-103056523D01*
X124781476Y-102961285D01*
X124805285Y-102913666D01*
X124829095Y-102889857D01*
X124876714Y-102866047D01*
X124971952Y-102866047D01*
X125019571Y-102889857D01*
X125043380Y-102913666D01*
X125067190Y-102961285D01*
X125067190Y-103056523D01*
X125043380Y-103104142D01*
X125019571Y-103127952D01*
X124971952Y-103151761D01*
X124876714Y-103151761D01*
X124829095Y-103127952D01*
X124805285Y-103104142D01*
X124781476Y-103056523D01*
X124567190Y-103604142D02*
X124567190Y-103366047D01*
X124805285Y-103342238D01*
X124781476Y-103366047D01*
X124757666Y-103413666D01*
X124757666Y-103532714D01*
X124781476Y-103580333D01*
X124805285Y-103604142D01*
X124852904Y-103627952D01*
X124971952Y-103627952D01*
X125019571Y-103604142D01*
X125043380Y-103580333D01*
X125067190Y-103532714D01*
X125067190Y-103413666D01*
X125043380Y-103366047D01*
X125019571Y-103342238D01*
%TO.C,C84*%
X125019571Y-84387571D02*
X125043380Y-84363761D01*
X125067190Y-84292333D01*
X125067190Y-84244714D01*
X125043380Y-84173285D01*
X124995761Y-84125666D01*
X124948142Y-84101857D01*
X124852904Y-84078047D01*
X124781476Y-84078047D01*
X124686238Y-84101857D01*
X124638619Y-84125666D01*
X124591000Y-84173285D01*
X124567190Y-84244714D01*
X124567190Y-84292333D01*
X124591000Y-84363761D01*
X124614809Y-84387571D01*
X124781476Y-84673285D02*
X124757666Y-84625666D01*
X124733857Y-84601857D01*
X124686238Y-84578047D01*
X124662428Y-84578047D01*
X124614809Y-84601857D01*
X124591000Y-84625666D01*
X124567190Y-84673285D01*
X124567190Y-84768523D01*
X124591000Y-84816142D01*
X124614809Y-84839952D01*
X124662428Y-84863761D01*
X124686238Y-84863761D01*
X124733857Y-84839952D01*
X124757666Y-84816142D01*
X124781476Y-84768523D01*
X124781476Y-84673285D01*
X124805285Y-84625666D01*
X124829095Y-84601857D01*
X124876714Y-84578047D01*
X124971952Y-84578047D01*
X125019571Y-84601857D01*
X125043380Y-84625666D01*
X125067190Y-84673285D01*
X125067190Y-84768523D01*
X125043380Y-84816142D01*
X125019571Y-84839952D01*
X124971952Y-84863761D01*
X124876714Y-84863761D01*
X124829095Y-84839952D01*
X124805285Y-84816142D01*
X124781476Y-84768523D01*
X124733857Y-85292333D02*
X125067190Y-85292333D01*
X124543380Y-85173285D02*
X124900523Y-85054238D01*
X124900523Y-85363761D01*
%TO.C,C83*%
X134306428Y-112383071D02*
X134330238Y-112406880D01*
X134401666Y-112430690D01*
X134449285Y-112430690D01*
X134520714Y-112406880D01*
X134568333Y-112359261D01*
X134592142Y-112311642D01*
X134615952Y-112216404D01*
X134615952Y-112144976D01*
X134592142Y-112049738D01*
X134568333Y-112002119D01*
X134520714Y-111954500D01*
X134449285Y-111930690D01*
X134401666Y-111930690D01*
X134330238Y-111954500D01*
X134306428Y-111978309D01*
X134020714Y-112144976D02*
X134068333Y-112121166D01*
X134092142Y-112097357D01*
X134115952Y-112049738D01*
X134115952Y-112025928D01*
X134092142Y-111978309D01*
X134068333Y-111954500D01*
X134020714Y-111930690D01*
X133925476Y-111930690D01*
X133877857Y-111954500D01*
X133854047Y-111978309D01*
X133830238Y-112025928D01*
X133830238Y-112049738D01*
X133854047Y-112097357D01*
X133877857Y-112121166D01*
X133925476Y-112144976D01*
X134020714Y-112144976D01*
X134068333Y-112168785D01*
X134092142Y-112192595D01*
X134115952Y-112240214D01*
X134115952Y-112335452D01*
X134092142Y-112383071D01*
X134068333Y-112406880D01*
X134020714Y-112430690D01*
X133925476Y-112430690D01*
X133877857Y-112406880D01*
X133854047Y-112383071D01*
X133830238Y-112335452D01*
X133830238Y-112240214D01*
X133854047Y-112192595D01*
X133877857Y-112168785D01*
X133925476Y-112144976D01*
X133663571Y-111930690D02*
X133354047Y-111930690D01*
X133520714Y-112121166D01*
X133449285Y-112121166D01*
X133401666Y-112144976D01*
X133377857Y-112168785D01*
X133354047Y-112216404D01*
X133354047Y-112335452D01*
X133377857Y-112383071D01*
X133401666Y-112406880D01*
X133449285Y-112430690D01*
X133592142Y-112430690D01*
X133639761Y-112406880D01*
X133663571Y-112383071D01*
%TO.C,C82*%
X125019571Y-127059571D02*
X125043380Y-127035761D01*
X125067190Y-126964333D01*
X125067190Y-126916714D01*
X125043380Y-126845285D01*
X124995761Y-126797666D01*
X124948142Y-126773857D01*
X124852904Y-126750047D01*
X124781476Y-126750047D01*
X124686238Y-126773857D01*
X124638619Y-126797666D01*
X124591000Y-126845285D01*
X124567190Y-126916714D01*
X124567190Y-126964333D01*
X124591000Y-127035761D01*
X124614809Y-127059571D01*
X124781476Y-127345285D02*
X124757666Y-127297666D01*
X124733857Y-127273857D01*
X124686238Y-127250047D01*
X124662428Y-127250047D01*
X124614809Y-127273857D01*
X124591000Y-127297666D01*
X124567190Y-127345285D01*
X124567190Y-127440523D01*
X124591000Y-127488142D01*
X124614809Y-127511952D01*
X124662428Y-127535761D01*
X124686238Y-127535761D01*
X124733857Y-127511952D01*
X124757666Y-127488142D01*
X124781476Y-127440523D01*
X124781476Y-127345285D01*
X124805285Y-127297666D01*
X124829095Y-127273857D01*
X124876714Y-127250047D01*
X124971952Y-127250047D01*
X125019571Y-127273857D01*
X125043380Y-127297666D01*
X125067190Y-127345285D01*
X125067190Y-127440523D01*
X125043380Y-127488142D01*
X125019571Y-127511952D01*
X124971952Y-127535761D01*
X124876714Y-127535761D01*
X124829095Y-127511952D01*
X124805285Y-127488142D01*
X124781476Y-127440523D01*
X124614809Y-127726238D02*
X124591000Y-127750047D01*
X124567190Y-127797666D01*
X124567190Y-127916714D01*
X124591000Y-127964333D01*
X124614809Y-127988142D01*
X124662428Y-128011952D01*
X124710047Y-128011952D01*
X124781476Y-127988142D01*
X125067190Y-127702428D01*
X125067190Y-128011952D01*
%TO.C,C81*%
X125019571Y-114867571D02*
X125043380Y-114843761D01*
X125067190Y-114772333D01*
X125067190Y-114724714D01*
X125043380Y-114653285D01*
X124995761Y-114605666D01*
X124948142Y-114581857D01*
X124852904Y-114558047D01*
X124781476Y-114558047D01*
X124686238Y-114581857D01*
X124638619Y-114605666D01*
X124591000Y-114653285D01*
X124567190Y-114724714D01*
X124567190Y-114772333D01*
X124591000Y-114843761D01*
X124614809Y-114867571D01*
X124781476Y-115153285D02*
X124757666Y-115105666D01*
X124733857Y-115081857D01*
X124686238Y-115058047D01*
X124662428Y-115058047D01*
X124614809Y-115081857D01*
X124591000Y-115105666D01*
X124567190Y-115153285D01*
X124567190Y-115248523D01*
X124591000Y-115296142D01*
X124614809Y-115319952D01*
X124662428Y-115343761D01*
X124686238Y-115343761D01*
X124733857Y-115319952D01*
X124757666Y-115296142D01*
X124781476Y-115248523D01*
X124781476Y-115153285D01*
X124805285Y-115105666D01*
X124829095Y-115081857D01*
X124876714Y-115058047D01*
X124971952Y-115058047D01*
X125019571Y-115081857D01*
X125043380Y-115105666D01*
X125067190Y-115153285D01*
X125067190Y-115248523D01*
X125043380Y-115296142D01*
X125019571Y-115319952D01*
X124971952Y-115343761D01*
X124876714Y-115343761D01*
X124829095Y-115319952D01*
X124805285Y-115296142D01*
X124781476Y-115248523D01*
X125067190Y-115819952D02*
X125067190Y-115534238D01*
X125067190Y-115677095D02*
X124567190Y-115677095D01*
X124638619Y-115629476D01*
X124686238Y-115581857D01*
X124710047Y-115534238D01*
%TO.C,C80*%
X125019571Y-99627571D02*
X125043380Y-99603761D01*
X125067190Y-99532333D01*
X125067190Y-99484714D01*
X125043380Y-99413285D01*
X124995761Y-99365666D01*
X124948142Y-99341857D01*
X124852904Y-99318047D01*
X124781476Y-99318047D01*
X124686238Y-99341857D01*
X124638619Y-99365666D01*
X124591000Y-99413285D01*
X124567190Y-99484714D01*
X124567190Y-99532333D01*
X124591000Y-99603761D01*
X124614809Y-99627571D01*
X124781476Y-99913285D02*
X124757666Y-99865666D01*
X124733857Y-99841857D01*
X124686238Y-99818047D01*
X124662428Y-99818047D01*
X124614809Y-99841857D01*
X124591000Y-99865666D01*
X124567190Y-99913285D01*
X124567190Y-100008523D01*
X124591000Y-100056142D01*
X124614809Y-100079952D01*
X124662428Y-100103761D01*
X124686238Y-100103761D01*
X124733857Y-100079952D01*
X124757666Y-100056142D01*
X124781476Y-100008523D01*
X124781476Y-99913285D01*
X124805285Y-99865666D01*
X124829095Y-99841857D01*
X124876714Y-99818047D01*
X124971952Y-99818047D01*
X125019571Y-99841857D01*
X125043380Y-99865666D01*
X125067190Y-99913285D01*
X125067190Y-100008523D01*
X125043380Y-100056142D01*
X125019571Y-100079952D01*
X124971952Y-100103761D01*
X124876714Y-100103761D01*
X124829095Y-100079952D01*
X124805285Y-100056142D01*
X124781476Y-100008523D01*
X124567190Y-100413285D02*
X124567190Y-100460904D01*
X124591000Y-100508523D01*
X124614809Y-100532333D01*
X124662428Y-100556142D01*
X124757666Y-100579952D01*
X124876714Y-100579952D01*
X124971952Y-100556142D01*
X125019571Y-100532333D01*
X125043380Y-100508523D01*
X125067190Y-100460904D01*
X125067190Y-100413285D01*
X125043380Y-100365666D01*
X125019571Y-100341857D01*
X124971952Y-100318047D01*
X124876714Y-100294238D01*
X124757666Y-100294238D01*
X124662428Y-100318047D01*
X124614809Y-100341857D01*
X124591000Y-100365666D01*
X124567190Y-100413285D01*
%TO.C,C79*%
X125019571Y-81339571D02*
X125043380Y-81315761D01*
X125067190Y-81244333D01*
X125067190Y-81196714D01*
X125043380Y-81125285D01*
X124995761Y-81077666D01*
X124948142Y-81053857D01*
X124852904Y-81030047D01*
X124781476Y-81030047D01*
X124686238Y-81053857D01*
X124638619Y-81077666D01*
X124591000Y-81125285D01*
X124567190Y-81196714D01*
X124567190Y-81244333D01*
X124591000Y-81315761D01*
X124614809Y-81339571D01*
X124567190Y-81506238D02*
X124567190Y-81839571D01*
X125067190Y-81625285D01*
X125067190Y-82053857D02*
X125067190Y-82149095D01*
X125043380Y-82196714D01*
X125019571Y-82220523D01*
X124948142Y-82268142D01*
X124852904Y-82291952D01*
X124662428Y-82291952D01*
X124614809Y-82268142D01*
X124591000Y-82244333D01*
X124567190Y-82196714D01*
X124567190Y-82101476D01*
X124591000Y-82053857D01*
X124614809Y-82030047D01*
X124662428Y-82006238D01*
X124781476Y-82006238D01*
X124829095Y-82030047D01*
X124852904Y-82053857D01*
X124876714Y-82101476D01*
X124876714Y-82196714D01*
X124852904Y-82244333D01*
X124829095Y-82268142D01*
X124781476Y-82291952D01*
%TO.C,C77*%
X125019571Y-124011571D02*
X125043380Y-123987761D01*
X125067190Y-123916333D01*
X125067190Y-123868714D01*
X125043380Y-123797285D01*
X124995761Y-123749666D01*
X124948142Y-123725857D01*
X124852904Y-123702047D01*
X124781476Y-123702047D01*
X124686238Y-123725857D01*
X124638619Y-123749666D01*
X124591000Y-123797285D01*
X124567190Y-123868714D01*
X124567190Y-123916333D01*
X124591000Y-123987761D01*
X124614809Y-124011571D01*
X124567190Y-124178238D02*
X124567190Y-124511571D01*
X125067190Y-124297285D01*
X124567190Y-124654428D02*
X124567190Y-124987761D01*
X125067190Y-124773476D01*
%TO.C,C76*%
X125019571Y-111819571D02*
X125043380Y-111795761D01*
X125067190Y-111724333D01*
X125067190Y-111676714D01*
X125043380Y-111605285D01*
X124995761Y-111557666D01*
X124948142Y-111533857D01*
X124852904Y-111510047D01*
X124781476Y-111510047D01*
X124686238Y-111533857D01*
X124638619Y-111557666D01*
X124591000Y-111605285D01*
X124567190Y-111676714D01*
X124567190Y-111724333D01*
X124591000Y-111795761D01*
X124614809Y-111819571D01*
X124567190Y-111986238D02*
X124567190Y-112319571D01*
X125067190Y-112105285D01*
X124567190Y-112724333D02*
X124567190Y-112629095D01*
X124591000Y-112581476D01*
X124614809Y-112557666D01*
X124686238Y-112510047D01*
X124781476Y-112486238D01*
X124971952Y-112486238D01*
X125019571Y-112510047D01*
X125043380Y-112533857D01*
X125067190Y-112581476D01*
X125067190Y-112676714D01*
X125043380Y-112724333D01*
X125019571Y-112748142D01*
X124971952Y-112771952D01*
X124852904Y-112771952D01*
X124805285Y-112748142D01*
X124781476Y-112724333D01*
X124757666Y-112676714D01*
X124757666Y-112581476D01*
X124781476Y-112533857D01*
X124805285Y-112510047D01*
X124852904Y-112486238D01*
%TO.C,C75*%
X125019571Y-96579571D02*
X125043380Y-96555761D01*
X125067190Y-96484333D01*
X125067190Y-96436714D01*
X125043380Y-96365285D01*
X124995761Y-96317666D01*
X124948142Y-96293857D01*
X124852904Y-96270047D01*
X124781476Y-96270047D01*
X124686238Y-96293857D01*
X124638619Y-96317666D01*
X124591000Y-96365285D01*
X124567190Y-96436714D01*
X124567190Y-96484333D01*
X124591000Y-96555761D01*
X124614809Y-96579571D01*
X124567190Y-96746238D02*
X124567190Y-97079571D01*
X125067190Y-96865285D01*
X124567190Y-97508142D02*
X124567190Y-97270047D01*
X124805285Y-97246238D01*
X124781476Y-97270047D01*
X124757666Y-97317666D01*
X124757666Y-97436714D01*
X124781476Y-97484333D01*
X124805285Y-97508142D01*
X124852904Y-97531952D01*
X124971952Y-97531952D01*
X125019571Y-97508142D01*
X125043380Y-97484333D01*
X125067190Y-97436714D01*
X125067190Y-97317666D01*
X125043380Y-97270047D01*
X125019571Y-97246238D01*
%TO.C,C74*%
X121082571Y-78291571D02*
X121106380Y-78267761D01*
X121130190Y-78196333D01*
X121130190Y-78148714D01*
X121106380Y-78077285D01*
X121058761Y-78029666D01*
X121011142Y-78005857D01*
X120915904Y-77982047D01*
X120844476Y-77982047D01*
X120749238Y-78005857D01*
X120701619Y-78029666D01*
X120654000Y-78077285D01*
X120630190Y-78148714D01*
X120630190Y-78196333D01*
X120654000Y-78267761D01*
X120677809Y-78291571D01*
X120630190Y-78458238D02*
X120630190Y-78791571D01*
X121130190Y-78577285D01*
X120796857Y-79196333D02*
X121130190Y-79196333D01*
X120606380Y-79077285D02*
X120963523Y-78958238D01*
X120963523Y-79267761D01*
%TO.C,C71*%
X170358571Y-122487571D02*
X170382380Y-122463761D01*
X170406190Y-122392333D01*
X170406190Y-122344714D01*
X170382380Y-122273285D01*
X170334761Y-122225666D01*
X170287142Y-122201857D01*
X170191904Y-122178047D01*
X170120476Y-122178047D01*
X170025238Y-122201857D01*
X169977619Y-122225666D01*
X169930000Y-122273285D01*
X169906190Y-122344714D01*
X169906190Y-122392333D01*
X169930000Y-122463761D01*
X169953809Y-122487571D01*
X169906190Y-122654238D02*
X169906190Y-122987571D01*
X170406190Y-122773285D01*
X170406190Y-123439952D02*
X170406190Y-123154238D01*
X170406190Y-123297095D02*
X169906190Y-123297095D01*
X169977619Y-123249476D01*
X170025238Y-123201857D01*
X170049047Y-123154238D01*
%TO.C,C70*%
X170358571Y-110295571D02*
X170382380Y-110271761D01*
X170406190Y-110200333D01*
X170406190Y-110152714D01*
X170382380Y-110081285D01*
X170334761Y-110033666D01*
X170287142Y-110009857D01*
X170191904Y-109986047D01*
X170120476Y-109986047D01*
X170025238Y-110009857D01*
X169977619Y-110033666D01*
X169930000Y-110081285D01*
X169906190Y-110152714D01*
X169906190Y-110200333D01*
X169930000Y-110271761D01*
X169953809Y-110295571D01*
X169906190Y-110462238D02*
X169906190Y-110795571D01*
X170406190Y-110581285D01*
X169906190Y-111081285D02*
X169906190Y-111128904D01*
X169930000Y-111176523D01*
X169953809Y-111200333D01*
X170001428Y-111224142D01*
X170096666Y-111247952D01*
X170215714Y-111247952D01*
X170310952Y-111224142D01*
X170358571Y-111200333D01*
X170382380Y-111176523D01*
X170406190Y-111128904D01*
X170406190Y-111081285D01*
X170382380Y-111033666D01*
X170358571Y-111009857D01*
X170310952Y-110986047D01*
X170215714Y-110962238D01*
X170096666Y-110962238D01*
X170001428Y-110986047D01*
X169953809Y-111009857D01*
X169930000Y-111033666D01*
X169906190Y-111081285D01*
%TO.C,C69*%
X162992571Y-114867571D02*
X163016380Y-114843761D01*
X163040190Y-114772333D01*
X163040190Y-114724714D01*
X163016380Y-114653285D01*
X162968761Y-114605666D01*
X162921142Y-114581857D01*
X162825904Y-114558047D01*
X162754476Y-114558047D01*
X162659238Y-114581857D01*
X162611619Y-114605666D01*
X162564000Y-114653285D01*
X162540190Y-114724714D01*
X162540190Y-114772333D01*
X162564000Y-114843761D01*
X162587809Y-114867571D01*
X162540190Y-115296142D02*
X162540190Y-115200904D01*
X162564000Y-115153285D01*
X162587809Y-115129476D01*
X162659238Y-115081857D01*
X162754476Y-115058047D01*
X162944952Y-115058047D01*
X162992571Y-115081857D01*
X163016380Y-115105666D01*
X163040190Y-115153285D01*
X163040190Y-115248523D01*
X163016380Y-115296142D01*
X162992571Y-115319952D01*
X162944952Y-115343761D01*
X162825904Y-115343761D01*
X162778285Y-115319952D01*
X162754476Y-115296142D01*
X162730666Y-115248523D01*
X162730666Y-115153285D01*
X162754476Y-115105666D01*
X162778285Y-115081857D01*
X162825904Y-115058047D01*
X163040190Y-115581857D02*
X163040190Y-115677095D01*
X163016380Y-115724714D01*
X162992571Y-115748523D01*
X162921142Y-115796142D01*
X162825904Y-115819952D01*
X162635428Y-115819952D01*
X162587809Y-115796142D01*
X162564000Y-115772333D01*
X162540190Y-115724714D01*
X162540190Y-115629476D01*
X162564000Y-115581857D01*
X162587809Y-115558047D01*
X162635428Y-115534238D01*
X162754476Y-115534238D01*
X162802095Y-115558047D01*
X162825904Y-115581857D01*
X162849714Y-115629476D01*
X162849714Y-115724714D01*
X162825904Y-115772333D01*
X162802095Y-115796142D01*
X162754476Y-115819952D01*
%TO.C,C68*%
X170358571Y-116391571D02*
X170382380Y-116367761D01*
X170406190Y-116296333D01*
X170406190Y-116248714D01*
X170382380Y-116177285D01*
X170334761Y-116129666D01*
X170287142Y-116105857D01*
X170191904Y-116082047D01*
X170120476Y-116082047D01*
X170025238Y-116105857D01*
X169977619Y-116129666D01*
X169930000Y-116177285D01*
X169906190Y-116248714D01*
X169906190Y-116296333D01*
X169930000Y-116367761D01*
X169953809Y-116391571D01*
X169906190Y-116820142D02*
X169906190Y-116724904D01*
X169930000Y-116677285D01*
X169953809Y-116653476D01*
X170025238Y-116605857D01*
X170120476Y-116582047D01*
X170310952Y-116582047D01*
X170358571Y-116605857D01*
X170382380Y-116629666D01*
X170406190Y-116677285D01*
X170406190Y-116772523D01*
X170382380Y-116820142D01*
X170358571Y-116843952D01*
X170310952Y-116867761D01*
X170191904Y-116867761D01*
X170144285Y-116843952D01*
X170120476Y-116820142D01*
X170096666Y-116772523D01*
X170096666Y-116677285D01*
X170120476Y-116629666D01*
X170144285Y-116605857D01*
X170191904Y-116582047D01*
X170120476Y-117153476D02*
X170096666Y-117105857D01*
X170072857Y-117082047D01*
X170025238Y-117058238D01*
X170001428Y-117058238D01*
X169953809Y-117082047D01*
X169930000Y-117105857D01*
X169906190Y-117153476D01*
X169906190Y-117248714D01*
X169930000Y-117296333D01*
X169953809Y-117320142D01*
X170001428Y-117343952D01*
X170025238Y-117343952D01*
X170072857Y-117320142D01*
X170096666Y-117296333D01*
X170120476Y-117248714D01*
X170120476Y-117153476D01*
X170144285Y-117105857D01*
X170168095Y-117082047D01*
X170215714Y-117058238D01*
X170310952Y-117058238D01*
X170358571Y-117082047D01*
X170382380Y-117105857D01*
X170406190Y-117153476D01*
X170406190Y-117248714D01*
X170382380Y-117296333D01*
X170358571Y-117320142D01*
X170310952Y-117343952D01*
X170215714Y-117343952D01*
X170168095Y-117320142D01*
X170144285Y-117296333D01*
X170120476Y-117248714D01*
%TO.C,C67*%
X162992571Y-111819571D02*
X163016380Y-111795761D01*
X163040190Y-111724333D01*
X163040190Y-111676714D01*
X163016380Y-111605285D01*
X162968761Y-111557666D01*
X162921142Y-111533857D01*
X162825904Y-111510047D01*
X162754476Y-111510047D01*
X162659238Y-111533857D01*
X162611619Y-111557666D01*
X162564000Y-111605285D01*
X162540190Y-111676714D01*
X162540190Y-111724333D01*
X162564000Y-111795761D01*
X162587809Y-111819571D01*
X162540190Y-112248142D02*
X162540190Y-112152904D01*
X162564000Y-112105285D01*
X162587809Y-112081476D01*
X162659238Y-112033857D01*
X162754476Y-112010047D01*
X162944952Y-112010047D01*
X162992571Y-112033857D01*
X163016380Y-112057666D01*
X163040190Y-112105285D01*
X163040190Y-112200523D01*
X163016380Y-112248142D01*
X162992571Y-112271952D01*
X162944952Y-112295761D01*
X162825904Y-112295761D01*
X162778285Y-112271952D01*
X162754476Y-112248142D01*
X162730666Y-112200523D01*
X162730666Y-112105285D01*
X162754476Y-112057666D01*
X162778285Y-112033857D01*
X162825904Y-112010047D01*
X162540190Y-112462428D02*
X162540190Y-112795761D01*
X163040190Y-112581476D01*
%TO.C,C66*%
X162992571Y-136203571D02*
X163016380Y-136179761D01*
X163040190Y-136108333D01*
X163040190Y-136060714D01*
X163016380Y-135989285D01*
X162968761Y-135941666D01*
X162921142Y-135917857D01*
X162825904Y-135894047D01*
X162754476Y-135894047D01*
X162659238Y-135917857D01*
X162611619Y-135941666D01*
X162564000Y-135989285D01*
X162540190Y-136060714D01*
X162540190Y-136108333D01*
X162564000Y-136179761D01*
X162587809Y-136203571D01*
X162540190Y-136632142D02*
X162540190Y-136536904D01*
X162564000Y-136489285D01*
X162587809Y-136465476D01*
X162659238Y-136417857D01*
X162754476Y-136394047D01*
X162944952Y-136394047D01*
X162992571Y-136417857D01*
X163016380Y-136441666D01*
X163040190Y-136489285D01*
X163040190Y-136584523D01*
X163016380Y-136632142D01*
X162992571Y-136655952D01*
X162944952Y-136679761D01*
X162825904Y-136679761D01*
X162778285Y-136655952D01*
X162754476Y-136632142D01*
X162730666Y-136584523D01*
X162730666Y-136489285D01*
X162754476Y-136441666D01*
X162778285Y-136417857D01*
X162825904Y-136394047D01*
X162540190Y-137108333D02*
X162540190Y-137013095D01*
X162564000Y-136965476D01*
X162587809Y-136941666D01*
X162659238Y-136894047D01*
X162754476Y-136870238D01*
X162944952Y-136870238D01*
X162992571Y-136894047D01*
X163016380Y-136917857D01*
X163040190Y-136965476D01*
X163040190Y-137060714D01*
X163016380Y-137108333D01*
X162992571Y-137132142D01*
X162944952Y-137155952D01*
X162825904Y-137155952D01*
X162778285Y-137132142D01*
X162754476Y-137108333D01*
X162730666Y-137060714D01*
X162730666Y-136965476D01*
X162754476Y-136917857D01*
X162778285Y-136894047D01*
X162825904Y-136870238D01*
%TO.C,C65*%
X170358571Y-128456571D02*
X170382380Y-128432761D01*
X170406190Y-128361333D01*
X170406190Y-128313714D01*
X170382380Y-128242285D01*
X170334761Y-128194666D01*
X170287142Y-128170857D01*
X170191904Y-128147047D01*
X170120476Y-128147047D01*
X170025238Y-128170857D01*
X169977619Y-128194666D01*
X169930000Y-128242285D01*
X169906190Y-128313714D01*
X169906190Y-128361333D01*
X169930000Y-128432761D01*
X169953809Y-128456571D01*
X169906190Y-128885142D02*
X169906190Y-128789904D01*
X169930000Y-128742285D01*
X169953809Y-128718476D01*
X170025238Y-128670857D01*
X170120476Y-128647047D01*
X170310952Y-128647047D01*
X170358571Y-128670857D01*
X170382380Y-128694666D01*
X170406190Y-128742285D01*
X170406190Y-128837523D01*
X170382380Y-128885142D01*
X170358571Y-128908952D01*
X170310952Y-128932761D01*
X170191904Y-128932761D01*
X170144285Y-128908952D01*
X170120476Y-128885142D01*
X170096666Y-128837523D01*
X170096666Y-128742285D01*
X170120476Y-128694666D01*
X170144285Y-128670857D01*
X170191904Y-128647047D01*
X169906190Y-129385142D02*
X169906190Y-129147047D01*
X170144285Y-129123238D01*
X170120476Y-129147047D01*
X170096666Y-129194666D01*
X170096666Y-129313714D01*
X170120476Y-129361333D01*
X170144285Y-129385142D01*
X170191904Y-129408952D01*
X170310952Y-129408952D01*
X170358571Y-129385142D01*
X170382380Y-129361333D01*
X170406190Y-129313714D01*
X170406190Y-129194666D01*
X170382380Y-129147047D01*
X170358571Y-129123238D01*
%TO.C,C64*%
X170358571Y-104199571D02*
X170382380Y-104175761D01*
X170406190Y-104104333D01*
X170406190Y-104056714D01*
X170382380Y-103985285D01*
X170334761Y-103937666D01*
X170287142Y-103913857D01*
X170191904Y-103890047D01*
X170120476Y-103890047D01*
X170025238Y-103913857D01*
X169977619Y-103937666D01*
X169930000Y-103985285D01*
X169906190Y-104056714D01*
X169906190Y-104104333D01*
X169930000Y-104175761D01*
X169953809Y-104199571D01*
X169906190Y-104628142D02*
X169906190Y-104532904D01*
X169930000Y-104485285D01*
X169953809Y-104461476D01*
X170025238Y-104413857D01*
X170120476Y-104390047D01*
X170310952Y-104390047D01*
X170358571Y-104413857D01*
X170382380Y-104437666D01*
X170406190Y-104485285D01*
X170406190Y-104580523D01*
X170382380Y-104628142D01*
X170358571Y-104651952D01*
X170310952Y-104675761D01*
X170191904Y-104675761D01*
X170144285Y-104651952D01*
X170120476Y-104628142D01*
X170096666Y-104580523D01*
X170096666Y-104485285D01*
X170120476Y-104437666D01*
X170144285Y-104413857D01*
X170191904Y-104390047D01*
X170072857Y-105104333D02*
X170406190Y-105104333D01*
X169882380Y-104985285D02*
X170239523Y-104866238D01*
X170239523Y-105175761D01*
%TO.C,C63*%
X162992571Y-108771571D02*
X163016380Y-108747761D01*
X163040190Y-108676333D01*
X163040190Y-108628714D01*
X163016380Y-108557285D01*
X162968761Y-108509666D01*
X162921142Y-108485857D01*
X162825904Y-108462047D01*
X162754476Y-108462047D01*
X162659238Y-108485857D01*
X162611619Y-108509666D01*
X162564000Y-108557285D01*
X162540190Y-108628714D01*
X162540190Y-108676333D01*
X162564000Y-108747761D01*
X162587809Y-108771571D01*
X162540190Y-109200142D02*
X162540190Y-109104904D01*
X162564000Y-109057285D01*
X162587809Y-109033476D01*
X162659238Y-108985857D01*
X162754476Y-108962047D01*
X162944952Y-108962047D01*
X162992571Y-108985857D01*
X163016380Y-109009666D01*
X163040190Y-109057285D01*
X163040190Y-109152523D01*
X163016380Y-109200142D01*
X162992571Y-109223952D01*
X162944952Y-109247761D01*
X162825904Y-109247761D01*
X162778285Y-109223952D01*
X162754476Y-109200142D01*
X162730666Y-109152523D01*
X162730666Y-109057285D01*
X162754476Y-109009666D01*
X162778285Y-108985857D01*
X162825904Y-108962047D01*
X162540190Y-109414428D02*
X162540190Y-109723952D01*
X162730666Y-109557285D01*
X162730666Y-109628714D01*
X162754476Y-109676333D01*
X162778285Y-109700142D01*
X162825904Y-109723952D01*
X162944952Y-109723952D01*
X162992571Y-109700142D01*
X163016380Y-109676333D01*
X163040190Y-109628714D01*
X163040190Y-109485857D01*
X163016380Y-109438238D01*
X162992571Y-109414428D01*
%TO.C,C62*%
X162992571Y-133155571D02*
X163016380Y-133131761D01*
X163040190Y-133060333D01*
X163040190Y-133012714D01*
X163016380Y-132941285D01*
X162968761Y-132893666D01*
X162921142Y-132869857D01*
X162825904Y-132846047D01*
X162754476Y-132846047D01*
X162659238Y-132869857D01*
X162611619Y-132893666D01*
X162564000Y-132941285D01*
X162540190Y-133012714D01*
X162540190Y-133060333D01*
X162564000Y-133131761D01*
X162587809Y-133155571D01*
X162540190Y-133584142D02*
X162540190Y-133488904D01*
X162564000Y-133441285D01*
X162587809Y-133417476D01*
X162659238Y-133369857D01*
X162754476Y-133346047D01*
X162944952Y-133346047D01*
X162992571Y-133369857D01*
X163016380Y-133393666D01*
X163040190Y-133441285D01*
X163040190Y-133536523D01*
X163016380Y-133584142D01*
X162992571Y-133607952D01*
X162944952Y-133631761D01*
X162825904Y-133631761D01*
X162778285Y-133607952D01*
X162754476Y-133584142D01*
X162730666Y-133536523D01*
X162730666Y-133441285D01*
X162754476Y-133393666D01*
X162778285Y-133369857D01*
X162825904Y-133346047D01*
X162587809Y-133822238D02*
X162564000Y-133846047D01*
X162540190Y-133893666D01*
X162540190Y-134012714D01*
X162564000Y-134060333D01*
X162587809Y-134084142D01*
X162635428Y-134107952D01*
X162683047Y-134107952D01*
X162754476Y-134084142D01*
X163040190Y-133798428D01*
X163040190Y-134107952D01*
%TO.C,C61*%
X162992571Y-105787071D02*
X163016380Y-105763261D01*
X163040190Y-105691833D01*
X163040190Y-105644214D01*
X163016380Y-105572785D01*
X162968761Y-105525166D01*
X162921142Y-105501357D01*
X162825904Y-105477547D01*
X162754476Y-105477547D01*
X162659238Y-105501357D01*
X162611619Y-105525166D01*
X162564000Y-105572785D01*
X162540190Y-105644214D01*
X162540190Y-105691833D01*
X162564000Y-105763261D01*
X162587809Y-105787071D01*
X162540190Y-106215642D02*
X162540190Y-106120404D01*
X162564000Y-106072785D01*
X162587809Y-106048976D01*
X162659238Y-106001357D01*
X162754476Y-105977547D01*
X162944952Y-105977547D01*
X162992571Y-106001357D01*
X163016380Y-106025166D01*
X163040190Y-106072785D01*
X163040190Y-106168023D01*
X163016380Y-106215642D01*
X162992571Y-106239452D01*
X162944952Y-106263261D01*
X162825904Y-106263261D01*
X162778285Y-106239452D01*
X162754476Y-106215642D01*
X162730666Y-106168023D01*
X162730666Y-106072785D01*
X162754476Y-106025166D01*
X162778285Y-106001357D01*
X162825904Y-105977547D01*
X163040190Y-106739452D02*
X163040190Y-106453738D01*
X163040190Y-106596595D02*
X162540190Y-106596595D01*
X162611619Y-106548976D01*
X162659238Y-106501357D01*
X162683047Y-106453738D01*
%TO.C,C60*%
X162992571Y-130107571D02*
X163016380Y-130083761D01*
X163040190Y-130012333D01*
X163040190Y-129964714D01*
X163016380Y-129893285D01*
X162968761Y-129845666D01*
X162921142Y-129821857D01*
X162825904Y-129798047D01*
X162754476Y-129798047D01*
X162659238Y-129821857D01*
X162611619Y-129845666D01*
X162564000Y-129893285D01*
X162540190Y-129964714D01*
X162540190Y-130012333D01*
X162564000Y-130083761D01*
X162587809Y-130107571D01*
X162540190Y-130536142D02*
X162540190Y-130440904D01*
X162564000Y-130393285D01*
X162587809Y-130369476D01*
X162659238Y-130321857D01*
X162754476Y-130298047D01*
X162944952Y-130298047D01*
X162992571Y-130321857D01*
X163016380Y-130345666D01*
X163040190Y-130393285D01*
X163040190Y-130488523D01*
X163016380Y-130536142D01*
X162992571Y-130559952D01*
X162944952Y-130583761D01*
X162825904Y-130583761D01*
X162778285Y-130559952D01*
X162754476Y-130536142D01*
X162730666Y-130488523D01*
X162730666Y-130393285D01*
X162754476Y-130345666D01*
X162778285Y-130321857D01*
X162825904Y-130298047D01*
X162540190Y-130893285D02*
X162540190Y-130940904D01*
X162564000Y-130988523D01*
X162587809Y-131012333D01*
X162635428Y-131036142D01*
X162730666Y-131059952D01*
X162849714Y-131059952D01*
X162944952Y-131036142D01*
X162992571Y-131012333D01*
X163016380Y-130988523D01*
X163040190Y-130940904D01*
X163040190Y-130893285D01*
X163016380Y-130845666D01*
X162992571Y-130821857D01*
X162944952Y-130798047D01*
X162849714Y-130774238D01*
X162730666Y-130774238D01*
X162635428Y-130798047D01*
X162587809Y-130821857D01*
X162564000Y-130845666D01*
X162540190Y-130893285D01*
%TO.C,C59*%
X162992571Y-102675571D02*
X163016380Y-102651761D01*
X163040190Y-102580333D01*
X163040190Y-102532714D01*
X163016380Y-102461285D01*
X162968761Y-102413666D01*
X162921142Y-102389857D01*
X162825904Y-102366047D01*
X162754476Y-102366047D01*
X162659238Y-102389857D01*
X162611619Y-102413666D01*
X162564000Y-102461285D01*
X162540190Y-102532714D01*
X162540190Y-102580333D01*
X162564000Y-102651761D01*
X162587809Y-102675571D01*
X162540190Y-103127952D02*
X162540190Y-102889857D01*
X162778285Y-102866047D01*
X162754476Y-102889857D01*
X162730666Y-102937476D01*
X162730666Y-103056523D01*
X162754476Y-103104142D01*
X162778285Y-103127952D01*
X162825904Y-103151761D01*
X162944952Y-103151761D01*
X162992571Y-103127952D01*
X163016380Y-103104142D01*
X163040190Y-103056523D01*
X163040190Y-102937476D01*
X163016380Y-102889857D01*
X162992571Y-102866047D01*
X163040190Y-103389857D02*
X163040190Y-103485095D01*
X163016380Y-103532714D01*
X162992571Y-103556523D01*
X162921142Y-103604142D01*
X162825904Y-103627952D01*
X162635428Y-103627952D01*
X162587809Y-103604142D01*
X162564000Y-103580333D01*
X162540190Y-103532714D01*
X162540190Y-103437476D01*
X162564000Y-103389857D01*
X162587809Y-103366047D01*
X162635428Y-103342238D01*
X162754476Y-103342238D01*
X162802095Y-103366047D01*
X162825904Y-103389857D01*
X162849714Y-103437476D01*
X162849714Y-103532714D01*
X162825904Y-103580333D01*
X162802095Y-103604142D01*
X162754476Y-103627952D01*
%TO.C,C58*%
X162992571Y-127059571D02*
X163016380Y-127035761D01*
X163040190Y-126964333D01*
X163040190Y-126916714D01*
X163016380Y-126845285D01*
X162968761Y-126797666D01*
X162921142Y-126773857D01*
X162825904Y-126750047D01*
X162754476Y-126750047D01*
X162659238Y-126773857D01*
X162611619Y-126797666D01*
X162564000Y-126845285D01*
X162540190Y-126916714D01*
X162540190Y-126964333D01*
X162564000Y-127035761D01*
X162587809Y-127059571D01*
X162540190Y-127511952D02*
X162540190Y-127273857D01*
X162778285Y-127250047D01*
X162754476Y-127273857D01*
X162730666Y-127321476D01*
X162730666Y-127440523D01*
X162754476Y-127488142D01*
X162778285Y-127511952D01*
X162825904Y-127535761D01*
X162944952Y-127535761D01*
X162992571Y-127511952D01*
X163016380Y-127488142D01*
X163040190Y-127440523D01*
X163040190Y-127321476D01*
X163016380Y-127273857D01*
X162992571Y-127250047D01*
X162754476Y-127821476D02*
X162730666Y-127773857D01*
X162706857Y-127750047D01*
X162659238Y-127726238D01*
X162635428Y-127726238D01*
X162587809Y-127750047D01*
X162564000Y-127773857D01*
X162540190Y-127821476D01*
X162540190Y-127916714D01*
X162564000Y-127964333D01*
X162587809Y-127988142D01*
X162635428Y-128011952D01*
X162659238Y-128011952D01*
X162706857Y-127988142D01*
X162730666Y-127964333D01*
X162754476Y-127916714D01*
X162754476Y-127821476D01*
X162778285Y-127773857D01*
X162802095Y-127750047D01*
X162849714Y-127726238D01*
X162944952Y-127726238D01*
X162992571Y-127750047D01*
X163016380Y-127773857D01*
X163040190Y-127821476D01*
X163040190Y-127916714D01*
X163016380Y-127964333D01*
X162992571Y-127988142D01*
X162944952Y-128011952D01*
X162849714Y-128011952D01*
X162802095Y-127988142D01*
X162778285Y-127964333D01*
X162754476Y-127916714D01*
%TO.C,C57*%
X162992571Y-99627571D02*
X163016380Y-99603761D01*
X163040190Y-99532333D01*
X163040190Y-99484714D01*
X163016380Y-99413285D01*
X162968761Y-99365666D01*
X162921142Y-99341857D01*
X162825904Y-99318047D01*
X162754476Y-99318047D01*
X162659238Y-99341857D01*
X162611619Y-99365666D01*
X162564000Y-99413285D01*
X162540190Y-99484714D01*
X162540190Y-99532333D01*
X162564000Y-99603761D01*
X162587809Y-99627571D01*
X162540190Y-100079952D02*
X162540190Y-99841857D01*
X162778285Y-99818047D01*
X162754476Y-99841857D01*
X162730666Y-99889476D01*
X162730666Y-100008523D01*
X162754476Y-100056142D01*
X162778285Y-100079952D01*
X162825904Y-100103761D01*
X162944952Y-100103761D01*
X162992571Y-100079952D01*
X163016380Y-100056142D01*
X163040190Y-100008523D01*
X163040190Y-99889476D01*
X163016380Y-99841857D01*
X162992571Y-99818047D01*
X162540190Y-100270428D02*
X162540190Y-100603761D01*
X163040190Y-100389476D01*
%TO.C,C56*%
X162992571Y-124011571D02*
X163016380Y-123987761D01*
X163040190Y-123916333D01*
X163040190Y-123868714D01*
X163016380Y-123797285D01*
X162968761Y-123749666D01*
X162921142Y-123725857D01*
X162825904Y-123702047D01*
X162754476Y-123702047D01*
X162659238Y-123725857D01*
X162611619Y-123749666D01*
X162564000Y-123797285D01*
X162540190Y-123868714D01*
X162540190Y-123916333D01*
X162564000Y-123987761D01*
X162587809Y-124011571D01*
X162540190Y-124463952D02*
X162540190Y-124225857D01*
X162778285Y-124202047D01*
X162754476Y-124225857D01*
X162730666Y-124273476D01*
X162730666Y-124392523D01*
X162754476Y-124440142D01*
X162778285Y-124463952D01*
X162825904Y-124487761D01*
X162944952Y-124487761D01*
X162992571Y-124463952D01*
X163016380Y-124440142D01*
X163040190Y-124392523D01*
X163040190Y-124273476D01*
X163016380Y-124225857D01*
X162992571Y-124202047D01*
X162540190Y-124916333D02*
X162540190Y-124821095D01*
X162564000Y-124773476D01*
X162587809Y-124749666D01*
X162659238Y-124702047D01*
X162754476Y-124678238D01*
X162944952Y-124678238D01*
X162992571Y-124702047D01*
X163016380Y-124725857D01*
X163040190Y-124773476D01*
X163040190Y-124868714D01*
X163016380Y-124916333D01*
X162992571Y-124940142D01*
X162944952Y-124963952D01*
X162825904Y-124963952D01*
X162778285Y-124940142D01*
X162754476Y-124916333D01*
X162730666Y-124868714D01*
X162730666Y-124773476D01*
X162754476Y-124725857D01*
X162778285Y-124702047D01*
X162825904Y-124678238D01*
%TO.C,C55*%
X162992571Y-96579571D02*
X163016380Y-96555761D01*
X163040190Y-96484333D01*
X163040190Y-96436714D01*
X163016380Y-96365285D01*
X162968761Y-96317666D01*
X162921142Y-96293857D01*
X162825904Y-96270047D01*
X162754476Y-96270047D01*
X162659238Y-96293857D01*
X162611619Y-96317666D01*
X162564000Y-96365285D01*
X162540190Y-96436714D01*
X162540190Y-96484333D01*
X162564000Y-96555761D01*
X162587809Y-96579571D01*
X162540190Y-97031952D02*
X162540190Y-96793857D01*
X162778285Y-96770047D01*
X162754476Y-96793857D01*
X162730666Y-96841476D01*
X162730666Y-96960523D01*
X162754476Y-97008142D01*
X162778285Y-97031952D01*
X162825904Y-97055761D01*
X162944952Y-97055761D01*
X162992571Y-97031952D01*
X163016380Y-97008142D01*
X163040190Y-96960523D01*
X163040190Y-96841476D01*
X163016380Y-96793857D01*
X162992571Y-96770047D01*
X162540190Y-97508142D02*
X162540190Y-97270047D01*
X162778285Y-97246238D01*
X162754476Y-97270047D01*
X162730666Y-97317666D01*
X162730666Y-97436714D01*
X162754476Y-97484333D01*
X162778285Y-97508142D01*
X162825904Y-97531952D01*
X162944952Y-97531952D01*
X162992571Y-97508142D01*
X163016380Y-97484333D01*
X163040190Y-97436714D01*
X163040190Y-97317666D01*
X163016380Y-97270047D01*
X162992571Y-97246238D01*
%TO.C,C54*%
X162992571Y-120963571D02*
X163016380Y-120939761D01*
X163040190Y-120868333D01*
X163040190Y-120820714D01*
X163016380Y-120749285D01*
X162968761Y-120701666D01*
X162921142Y-120677857D01*
X162825904Y-120654047D01*
X162754476Y-120654047D01*
X162659238Y-120677857D01*
X162611619Y-120701666D01*
X162564000Y-120749285D01*
X162540190Y-120820714D01*
X162540190Y-120868333D01*
X162564000Y-120939761D01*
X162587809Y-120963571D01*
X162540190Y-121415952D02*
X162540190Y-121177857D01*
X162778285Y-121154047D01*
X162754476Y-121177857D01*
X162730666Y-121225476D01*
X162730666Y-121344523D01*
X162754476Y-121392142D01*
X162778285Y-121415952D01*
X162825904Y-121439761D01*
X162944952Y-121439761D01*
X162992571Y-121415952D01*
X163016380Y-121392142D01*
X163040190Y-121344523D01*
X163040190Y-121225476D01*
X163016380Y-121177857D01*
X162992571Y-121154047D01*
X162706857Y-121868333D02*
X163040190Y-121868333D01*
X162516380Y-121749285D02*
X162873523Y-121630238D01*
X162873523Y-121939761D01*
%TO.C,C53*%
X162992571Y-93531571D02*
X163016380Y-93507761D01*
X163040190Y-93436333D01*
X163040190Y-93388714D01*
X163016380Y-93317285D01*
X162968761Y-93269666D01*
X162921142Y-93245857D01*
X162825904Y-93222047D01*
X162754476Y-93222047D01*
X162659238Y-93245857D01*
X162611619Y-93269666D01*
X162564000Y-93317285D01*
X162540190Y-93388714D01*
X162540190Y-93436333D01*
X162564000Y-93507761D01*
X162587809Y-93531571D01*
X162540190Y-93983952D02*
X162540190Y-93745857D01*
X162778285Y-93722047D01*
X162754476Y-93745857D01*
X162730666Y-93793476D01*
X162730666Y-93912523D01*
X162754476Y-93960142D01*
X162778285Y-93983952D01*
X162825904Y-94007761D01*
X162944952Y-94007761D01*
X162992571Y-93983952D01*
X163016380Y-93960142D01*
X163040190Y-93912523D01*
X163040190Y-93793476D01*
X163016380Y-93745857D01*
X162992571Y-93722047D01*
X162540190Y-94174428D02*
X162540190Y-94483952D01*
X162730666Y-94317285D01*
X162730666Y-94388714D01*
X162754476Y-94436333D01*
X162778285Y-94460142D01*
X162825904Y-94483952D01*
X162944952Y-94483952D01*
X162992571Y-94460142D01*
X163016380Y-94436333D01*
X163040190Y-94388714D01*
X163040190Y-94245857D01*
X163016380Y-94198238D01*
X162992571Y-94174428D01*
%TO.C,C52*%
X162992571Y-117915571D02*
X163016380Y-117891761D01*
X163040190Y-117820333D01*
X163040190Y-117772714D01*
X163016380Y-117701285D01*
X162968761Y-117653666D01*
X162921142Y-117629857D01*
X162825904Y-117606047D01*
X162754476Y-117606047D01*
X162659238Y-117629857D01*
X162611619Y-117653666D01*
X162564000Y-117701285D01*
X162540190Y-117772714D01*
X162540190Y-117820333D01*
X162564000Y-117891761D01*
X162587809Y-117915571D01*
X162540190Y-118367952D02*
X162540190Y-118129857D01*
X162778285Y-118106047D01*
X162754476Y-118129857D01*
X162730666Y-118177476D01*
X162730666Y-118296523D01*
X162754476Y-118344142D01*
X162778285Y-118367952D01*
X162825904Y-118391761D01*
X162944952Y-118391761D01*
X162992571Y-118367952D01*
X163016380Y-118344142D01*
X163040190Y-118296523D01*
X163040190Y-118177476D01*
X163016380Y-118129857D01*
X162992571Y-118106047D01*
X162587809Y-118582238D02*
X162564000Y-118606047D01*
X162540190Y-118653666D01*
X162540190Y-118772714D01*
X162564000Y-118820333D01*
X162587809Y-118844142D01*
X162635428Y-118867952D01*
X162683047Y-118867952D01*
X162754476Y-118844142D01*
X163040190Y-118558428D01*
X163040190Y-118867952D01*
%TO.C,C51*%
X162992571Y-90483571D02*
X163016380Y-90459761D01*
X163040190Y-90388333D01*
X163040190Y-90340714D01*
X163016380Y-90269285D01*
X162968761Y-90221666D01*
X162921142Y-90197857D01*
X162825904Y-90174047D01*
X162754476Y-90174047D01*
X162659238Y-90197857D01*
X162611619Y-90221666D01*
X162564000Y-90269285D01*
X162540190Y-90340714D01*
X162540190Y-90388333D01*
X162564000Y-90459761D01*
X162587809Y-90483571D01*
X162540190Y-90935952D02*
X162540190Y-90697857D01*
X162778285Y-90674047D01*
X162754476Y-90697857D01*
X162730666Y-90745476D01*
X162730666Y-90864523D01*
X162754476Y-90912142D01*
X162778285Y-90935952D01*
X162825904Y-90959761D01*
X162944952Y-90959761D01*
X162992571Y-90935952D01*
X163016380Y-90912142D01*
X163040190Y-90864523D01*
X163040190Y-90745476D01*
X163016380Y-90697857D01*
X162992571Y-90674047D01*
X163040190Y-91435952D02*
X163040190Y-91150238D01*
X163040190Y-91293095D02*
X162540190Y-91293095D01*
X162611619Y-91245476D01*
X162659238Y-91197857D01*
X162683047Y-91150238D01*
%TO.C,C47*%
X178326571Y-129980571D02*
X178350380Y-129956761D01*
X178374190Y-129885333D01*
X178374190Y-129837714D01*
X178350380Y-129766285D01*
X178302761Y-129718666D01*
X178255142Y-129694857D01*
X178159904Y-129671047D01*
X178088476Y-129671047D01*
X177993238Y-129694857D01*
X177945619Y-129718666D01*
X177898000Y-129766285D01*
X177874190Y-129837714D01*
X177874190Y-129885333D01*
X177898000Y-129956761D01*
X177921809Y-129980571D01*
X178040857Y-130409142D02*
X178374190Y-130409142D01*
X177850380Y-130290095D02*
X178207523Y-130171047D01*
X178207523Y-130480571D01*
X177874190Y-130623428D02*
X177874190Y-130956761D01*
X178374190Y-130742476D01*
%TO.C,C46*%
X177367428Y-126051428D02*
X177343619Y-126075238D01*
X177319809Y-126146666D01*
X177319809Y-126194285D01*
X177343619Y-126265714D01*
X177391238Y-126313333D01*
X177438857Y-126337142D01*
X177534095Y-126360952D01*
X177605523Y-126360952D01*
X177700761Y-126337142D01*
X177748380Y-126313333D01*
X177796000Y-126265714D01*
X177819809Y-126194285D01*
X177819809Y-126146666D01*
X177796000Y-126075238D01*
X177772190Y-126051428D01*
X177653142Y-125622857D02*
X177319809Y-125622857D01*
X177843619Y-125741904D02*
X177486476Y-125860952D01*
X177486476Y-125551428D01*
X177819809Y-125146666D02*
X177819809Y-125241904D01*
X177796000Y-125289523D01*
X177772190Y-125313333D01*
X177700761Y-125360952D01*
X177605523Y-125384761D01*
X177415047Y-125384761D01*
X177367428Y-125360952D01*
X177343619Y-125337142D01*
X177319809Y-125289523D01*
X177319809Y-125194285D01*
X177343619Y-125146666D01*
X177367428Y-125122857D01*
X177415047Y-125099047D01*
X177534095Y-125099047D01*
X177581714Y-125122857D01*
X177605523Y-125146666D01*
X177629333Y-125194285D01*
X177629333Y-125289523D01*
X177605523Y-125337142D01*
X177581714Y-125360952D01*
X177534095Y-125384761D01*
%TO.C,C23*%
X150943428Y-114097571D02*
X150967238Y-114121380D01*
X151038666Y-114145190D01*
X151086285Y-114145190D01*
X151157714Y-114121380D01*
X151205333Y-114073761D01*
X151229142Y-114026142D01*
X151252952Y-113930904D01*
X151252952Y-113859476D01*
X151229142Y-113764238D01*
X151205333Y-113716619D01*
X151157714Y-113669000D01*
X151086285Y-113645190D01*
X151038666Y-113645190D01*
X150967238Y-113669000D01*
X150943428Y-113692809D01*
X150752952Y-113692809D02*
X150729142Y-113669000D01*
X150681523Y-113645190D01*
X150562476Y-113645190D01*
X150514857Y-113669000D01*
X150491047Y-113692809D01*
X150467238Y-113740428D01*
X150467238Y-113788047D01*
X150491047Y-113859476D01*
X150776761Y-114145190D01*
X150467238Y-114145190D01*
X150300571Y-113645190D02*
X149991047Y-113645190D01*
X150157714Y-113835666D01*
X150086285Y-113835666D01*
X150038666Y-113859476D01*
X150014857Y-113883285D01*
X149991047Y-113930904D01*
X149991047Y-114049952D01*
X150014857Y-114097571D01*
X150038666Y-114121380D01*
X150086285Y-114145190D01*
X150229142Y-114145190D01*
X150276761Y-114121380D01*
X150300571Y-114097571D01*
%TO.C,C22*%
X150943428Y-89332571D02*
X150967238Y-89356380D01*
X151038666Y-89380190D01*
X151086285Y-89380190D01*
X151157714Y-89356380D01*
X151205333Y-89308761D01*
X151229142Y-89261142D01*
X151252952Y-89165904D01*
X151252952Y-89094476D01*
X151229142Y-88999238D01*
X151205333Y-88951619D01*
X151157714Y-88904000D01*
X151086285Y-88880190D01*
X151038666Y-88880190D01*
X150967238Y-88904000D01*
X150943428Y-88927809D01*
X150752952Y-88927809D02*
X150729142Y-88904000D01*
X150681523Y-88880190D01*
X150562476Y-88880190D01*
X150514857Y-88904000D01*
X150491047Y-88927809D01*
X150467238Y-88975428D01*
X150467238Y-89023047D01*
X150491047Y-89094476D01*
X150776761Y-89380190D01*
X150467238Y-89380190D01*
X150276761Y-88927809D02*
X150252952Y-88904000D01*
X150205333Y-88880190D01*
X150086285Y-88880190D01*
X150038666Y-88904000D01*
X150014857Y-88927809D01*
X149991047Y-88975428D01*
X149991047Y-89023047D01*
X150014857Y-89094476D01*
X150300571Y-89380190D01*
X149991047Y-89380190D01*
%TO.C,C21*%
X152959571Y-96833571D02*
X152983380Y-96809761D01*
X153007190Y-96738333D01*
X153007190Y-96690714D01*
X152983380Y-96619285D01*
X152935761Y-96571666D01*
X152888142Y-96547857D01*
X152792904Y-96524047D01*
X152721476Y-96524047D01*
X152626238Y-96547857D01*
X152578619Y-96571666D01*
X152531000Y-96619285D01*
X152507190Y-96690714D01*
X152507190Y-96738333D01*
X152531000Y-96809761D01*
X152554809Y-96833571D01*
X152554809Y-97024047D02*
X152531000Y-97047857D01*
X152507190Y-97095476D01*
X152507190Y-97214523D01*
X152531000Y-97262142D01*
X152554809Y-97285952D01*
X152602428Y-97309761D01*
X152650047Y-97309761D01*
X152721476Y-97285952D01*
X153007190Y-97000238D01*
X153007190Y-97309761D01*
X153007190Y-97785952D02*
X153007190Y-97500238D01*
X153007190Y-97643095D02*
X152507190Y-97643095D01*
X152578619Y-97595476D01*
X152626238Y-97547857D01*
X152650047Y-97500238D01*
%TO.C,C20*%
X151197428Y-137719571D02*
X151221238Y-137743380D01*
X151292666Y-137767190D01*
X151340285Y-137767190D01*
X151411714Y-137743380D01*
X151459333Y-137695761D01*
X151483142Y-137648142D01*
X151506952Y-137552904D01*
X151506952Y-137481476D01*
X151483142Y-137386238D01*
X151459333Y-137338619D01*
X151411714Y-137291000D01*
X151340285Y-137267190D01*
X151292666Y-137267190D01*
X151221238Y-137291000D01*
X151197428Y-137314809D01*
X151006952Y-137314809D02*
X150983142Y-137291000D01*
X150935523Y-137267190D01*
X150816476Y-137267190D01*
X150768857Y-137291000D01*
X150745047Y-137314809D01*
X150721238Y-137362428D01*
X150721238Y-137410047D01*
X150745047Y-137481476D01*
X151030761Y-137767190D01*
X150721238Y-137767190D01*
X150411714Y-137267190D02*
X150364095Y-137267190D01*
X150316476Y-137291000D01*
X150292666Y-137314809D01*
X150268857Y-137362428D01*
X150245047Y-137457666D01*
X150245047Y-137576714D01*
X150268857Y-137671952D01*
X150292666Y-137719571D01*
X150316476Y-137743380D01*
X150364095Y-137767190D01*
X150411714Y-137767190D01*
X150459333Y-137743380D01*
X150483142Y-137719571D01*
X150506952Y-137671952D01*
X150530761Y-137576714D01*
X150530761Y-137457666D01*
X150506952Y-137362428D01*
X150483142Y-137314809D01*
X150459333Y-137291000D01*
X150411714Y-137267190D01*
%TO.C,C19*%
X151197428Y-120701571D02*
X151221238Y-120725380D01*
X151292666Y-120749190D01*
X151340285Y-120749190D01*
X151411714Y-120725380D01*
X151459333Y-120677761D01*
X151483142Y-120630142D01*
X151506952Y-120534904D01*
X151506952Y-120463476D01*
X151483142Y-120368238D01*
X151459333Y-120320619D01*
X151411714Y-120273000D01*
X151340285Y-120249190D01*
X151292666Y-120249190D01*
X151221238Y-120273000D01*
X151197428Y-120296809D01*
X150721238Y-120749190D02*
X151006952Y-120749190D01*
X150864095Y-120749190D02*
X150864095Y-120249190D01*
X150911714Y-120320619D01*
X150959333Y-120368238D01*
X151006952Y-120392047D01*
X150483142Y-120749190D02*
X150387904Y-120749190D01*
X150340285Y-120725380D01*
X150316476Y-120701571D01*
X150268857Y-120630142D01*
X150245047Y-120534904D01*
X150245047Y-120344428D01*
X150268857Y-120296809D01*
X150292666Y-120273000D01*
X150340285Y-120249190D01*
X150435523Y-120249190D01*
X150483142Y-120273000D01*
X150506952Y-120296809D01*
X150530761Y-120344428D01*
X150530761Y-120463476D01*
X150506952Y-120511095D01*
X150483142Y-120534904D01*
X150435523Y-120558714D01*
X150340285Y-120558714D01*
X150292666Y-120534904D01*
X150268857Y-120511095D01*
X150245047Y-120463476D01*
%TO.C,C16*%
X170358571Y-98230571D02*
X170382380Y-98206761D01*
X170406190Y-98135333D01*
X170406190Y-98087714D01*
X170382380Y-98016285D01*
X170334761Y-97968666D01*
X170287142Y-97944857D01*
X170191904Y-97921047D01*
X170120476Y-97921047D01*
X170025238Y-97944857D01*
X169977619Y-97968666D01*
X169930000Y-98016285D01*
X169906190Y-98087714D01*
X169906190Y-98135333D01*
X169930000Y-98206761D01*
X169953809Y-98230571D01*
X170406190Y-98706761D02*
X170406190Y-98421047D01*
X170406190Y-98563904D02*
X169906190Y-98563904D01*
X169977619Y-98516285D01*
X170025238Y-98468666D01*
X170049047Y-98421047D01*
X169906190Y-99135333D02*
X169906190Y-99040095D01*
X169930000Y-98992476D01*
X169953809Y-98968666D01*
X170025238Y-98921047D01*
X170120476Y-98897238D01*
X170310952Y-98897238D01*
X170358571Y-98921047D01*
X170382380Y-98944857D01*
X170406190Y-98992476D01*
X170406190Y-99087714D01*
X170382380Y-99135333D01*
X170358571Y-99159142D01*
X170310952Y-99182952D01*
X170191904Y-99182952D01*
X170144285Y-99159142D01*
X170120476Y-99135333D01*
X170096666Y-99087714D01*
X170096666Y-98992476D01*
X170120476Y-98944857D01*
X170144285Y-98921047D01*
X170191904Y-98897238D01*
%TO.C,C15*%
X150943428Y-103937571D02*
X150967238Y-103961380D01*
X151038666Y-103985190D01*
X151086285Y-103985190D01*
X151157714Y-103961380D01*
X151205333Y-103913761D01*
X151229142Y-103866142D01*
X151252952Y-103770904D01*
X151252952Y-103699476D01*
X151229142Y-103604238D01*
X151205333Y-103556619D01*
X151157714Y-103509000D01*
X151086285Y-103485190D01*
X151038666Y-103485190D01*
X150967238Y-103509000D01*
X150943428Y-103532809D01*
X150467238Y-103985190D02*
X150752952Y-103985190D01*
X150610095Y-103985190D02*
X150610095Y-103485190D01*
X150657714Y-103556619D01*
X150705333Y-103604238D01*
X150752952Y-103628047D01*
X150014857Y-103485190D02*
X150252952Y-103485190D01*
X150276761Y-103723285D01*
X150252952Y-103699476D01*
X150205333Y-103675666D01*
X150086285Y-103675666D01*
X150038666Y-103699476D01*
X150014857Y-103723285D01*
X149991047Y-103770904D01*
X149991047Y-103889952D01*
X150014857Y-103937571D01*
X150038666Y-103961380D01*
X150086285Y-103985190D01*
X150205333Y-103985190D01*
X150252952Y-103961380D01*
X150276761Y-103937571D01*
%TO.C,C14*%
X150943428Y-128321571D02*
X150967238Y-128345380D01*
X151038666Y-128369190D01*
X151086285Y-128369190D01*
X151157714Y-128345380D01*
X151205333Y-128297761D01*
X151229142Y-128250142D01*
X151252952Y-128154904D01*
X151252952Y-128083476D01*
X151229142Y-127988238D01*
X151205333Y-127940619D01*
X151157714Y-127893000D01*
X151086285Y-127869190D01*
X151038666Y-127869190D01*
X150967238Y-127893000D01*
X150943428Y-127916809D01*
X150467238Y-128369190D02*
X150752952Y-128369190D01*
X150610095Y-128369190D02*
X150610095Y-127869190D01*
X150657714Y-127940619D01*
X150705333Y-127988238D01*
X150752952Y-128012047D01*
X150038666Y-128035857D02*
X150038666Y-128369190D01*
X150157714Y-127845380D02*
X150276761Y-128202523D01*
X149967238Y-128202523D01*
%TO.C,C11*%
X191313571Y-116518571D02*
X191337380Y-116494761D01*
X191361190Y-116423333D01*
X191361190Y-116375714D01*
X191337380Y-116304285D01*
X191289761Y-116256666D01*
X191242142Y-116232857D01*
X191146904Y-116209047D01*
X191075476Y-116209047D01*
X190980238Y-116232857D01*
X190932619Y-116256666D01*
X190885000Y-116304285D01*
X190861190Y-116375714D01*
X190861190Y-116423333D01*
X190885000Y-116494761D01*
X190908809Y-116518571D01*
X191361190Y-116994761D02*
X191361190Y-116709047D01*
X191361190Y-116851904D02*
X190861190Y-116851904D01*
X190932619Y-116804285D01*
X190980238Y-116756666D01*
X191004047Y-116709047D01*
X191361190Y-117470952D02*
X191361190Y-117185238D01*
X191361190Y-117328095D02*
X190861190Y-117328095D01*
X190932619Y-117280476D01*
X190980238Y-117232857D01*
X191004047Y-117185238D01*
%TO.C,C10*%
X191313571Y-114994571D02*
X191337380Y-114970761D01*
X191361190Y-114899333D01*
X191361190Y-114851714D01*
X191337380Y-114780285D01*
X191289761Y-114732666D01*
X191242142Y-114708857D01*
X191146904Y-114685047D01*
X191075476Y-114685047D01*
X190980238Y-114708857D01*
X190932619Y-114732666D01*
X190885000Y-114780285D01*
X190861190Y-114851714D01*
X190861190Y-114899333D01*
X190885000Y-114970761D01*
X190908809Y-114994571D01*
X191361190Y-115470761D02*
X191361190Y-115185047D01*
X191361190Y-115327904D02*
X190861190Y-115327904D01*
X190932619Y-115280285D01*
X190980238Y-115232666D01*
X191004047Y-115185047D01*
X190861190Y-115780285D02*
X190861190Y-115827904D01*
X190885000Y-115875523D01*
X190908809Y-115899333D01*
X190956428Y-115923142D01*
X191051666Y-115946952D01*
X191170714Y-115946952D01*
X191265952Y-115923142D01*
X191313571Y-115899333D01*
X191337380Y-115875523D01*
X191361190Y-115827904D01*
X191361190Y-115780285D01*
X191337380Y-115732666D01*
X191313571Y-115708857D01*
X191265952Y-115685047D01*
X191170714Y-115661238D01*
X191051666Y-115661238D01*
X190956428Y-115685047D01*
X190908809Y-115708857D01*
X190885000Y-115732666D01*
X190861190Y-115780285D01*
%TO.C,C9*%
X191313571Y-118280666D02*
X191337380Y-118256857D01*
X191361190Y-118185428D01*
X191361190Y-118137809D01*
X191337380Y-118066380D01*
X191289761Y-118018761D01*
X191242142Y-117994952D01*
X191146904Y-117971142D01*
X191075476Y-117971142D01*
X190980238Y-117994952D01*
X190932619Y-118018761D01*
X190885000Y-118066380D01*
X190861190Y-118137809D01*
X190861190Y-118185428D01*
X190885000Y-118256857D01*
X190908809Y-118280666D01*
X191361190Y-118518761D02*
X191361190Y-118614000D01*
X191337380Y-118661619D01*
X191313571Y-118685428D01*
X191242142Y-118733047D01*
X191146904Y-118756857D01*
X190956428Y-118756857D01*
X190908809Y-118733047D01*
X190885000Y-118709238D01*
X190861190Y-118661619D01*
X190861190Y-118566380D01*
X190885000Y-118518761D01*
X190908809Y-118494952D01*
X190956428Y-118471142D01*
X191075476Y-118471142D01*
X191123095Y-118494952D01*
X191146904Y-118518761D01*
X191170714Y-118566380D01*
X191170714Y-118661619D01*
X191146904Y-118709238D01*
X191123095Y-118733047D01*
X191075476Y-118756857D01*
%TO.C,C8*%
X179407333Y-98170571D02*
X179431142Y-98194380D01*
X179502571Y-98218190D01*
X179550190Y-98218190D01*
X179621619Y-98194380D01*
X179669238Y-98146761D01*
X179693047Y-98099142D01*
X179716857Y-98003904D01*
X179716857Y-97932476D01*
X179693047Y-97837238D01*
X179669238Y-97789619D01*
X179621619Y-97742000D01*
X179550190Y-97718190D01*
X179502571Y-97718190D01*
X179431142Y-97742000D01*
X179407333Y-97765809D01*
X179121619Y-97932476D02*
X179169238Y-97908666D01*
X179193047Y-97884857D01*
X179216857Y-97837238D01*
X179216857Y-97813428D01*
X179193047Y-97765809D01*
X179169238Y-97742000D01*
X179121619Y-97718190D01*
X179026380Y-97718190D01*
X178978761Y-97742000D01*
X178954952Y-97765809D01*
X178931142Y-97813428D01*
X178931142Y-97837238D01*
X178954952Y-97884857D01*
X178978761Y-97908666D01*
X179026380Y-97932476D01*
X179121619Y-97932476D01*
X179169238Y-97956285D01*
X179193047Y-97980095D01*
X179216857Y-98027714D01*
X179216857Y-98122952D01*
X179193047Y-98170571D01*
X179169238Y-98194380D01*
X179121619Y-98218190D01*
X179026380Y-98218190D01*
X178978761Y-98194380D01*
X178954952Y-98170571D01*
X178931142Y-98122952D01*
X178931142Y-98027714D01*
X178954952Y-97980095D01*
X178978761Y-97956285D01*
X179026380Y-97932476D01*
%TO.C,C7*%
X191313571Y-113708666D02*
X191337380Y-113684857D01*
X191361190Y-113613428D01*
X191361190Y-113565809D01*
X191337380Y-113494380D01*
X191289761Y-113446761D01*
X191242142Y-113422952D01*
X191146904Y-113399142D01*
X191075476Y-113399142D01*
X190980238Y-113422952D01*
X190932619Y-113446761D01*
X190885000Y-113494380D01*
X190861190Y-113565809D01*
X190861190Y-113613428D01*
X190885000Y-113684857D01*
X190908809Y-113708666D01*
X190861190Y-113875333D02*
X190861190Y-114208666D01*
X191361190Y-113994380D01*
%TO.C,C6*%
X191313571Y-112184666D02*
X191337380Y-112160857D01*
X191361190Y-112089428D01*
X191361190Y-112041809D01*
X191337380Y-111970380D01*
X191289761Y-111922761D01*
X191242142Y-111898952D01*
X191146904Y-111875142D01*
X191075476Y-111875142D01*
X190980238Y-111898952D01*
X190932619Y-111922761D01*
X190885000Y-111970380D01*
X190861190Y-112041809D01*
X190861190Y-112089428D01*
X190885000Y-112160857D01*
X190908809Y-112184666D01*
X190861190Y-112613238D02*
X190861190Y-112518000D01*
X190885000Y-112470380D01*
X190908809Y-112446571D01*
X190980238Y-112398952D01*
X191075476Y-112375142D01*
X191265952Y-112375142D01*
X191313571Y-112398952D01*
X191337380Y-112422761D01*
X191361190Y-112470380D01*
X191361190Y-112565619D01*
X191337380Y-112613238D01*
X191313571Y-112637047D01*
X191265952Y-112660857D01*
X191146904Y-112660857D01*
X191099285Y-112637047D01*
X191075476Y-112613238D01*
X191051666Y-112565619D01*
X191051666Y-112470380D01*
X191075476Y-112422761D01*
X191099285Y-112398952D01*
X191146904Y-112375142D01*
%TO.C,C5*%
X191599333Y-102413571D02*
X191623142Y-102437380D01*
X191694571Y-102461190D01*
X191742190Y-102461190D01*
X191813619Y-102437380D01*
X191861238Y-102389761D01*
X191885047Y-102342142D01*
X191908857Y-102246904D01*
X191908857Y-102175476D01*
X191885047Y-102080238D01*
X191861238Y-102032619D01*
X191813619Y-101985000D01*
X191742190Y-101961190D01*
X191694571Y-101961190D01*
X191623142Y-101985000D01*
X191599333Y-102008809D01*
X191146952Y-101961190D02*
X191385047Y-101961190D01*
X191408857Y-102199285D01*
X191385047Y-102175476D01*
X191337428Y-102151666D01*
X191218380Y-102151666D01*
X191170761Y-102175476D01*
X191146952Y-102199285D01*
X191123142Y-102246904D01*
X191123142Y-102365952D01*
X191146952Y-102413571D01*
X191170761Y-102437380D01*
X191218380Y-102461190D01*
X191337428Y-102461190D01*
X191385047Y-102437380D01*
X191408857Y-102413571D01*
%TO.C,C4*%
X185979571Y-106342666D02*
X186003380Y-106318857D01*
X186027190Y-106247428D01*
X186027190Y-106199809D01*
X186003380Y-106128380D01*
X185955761Y-106080761D01*
X185908142Y-106056952D01*
X185812904Y-106033142D01*
X185741476Y-106033142D01*
X185646238Y-106056952D01*
X185598619Y-106080761D01*
X185551000Y-106128380D01*
X185527190Y-106199809D01*
X185527190Y-106247428D01*
X185551000Y-106318857D01*
X185574809Y-106342666D01*
X185693857Y-106771238D02*
X186027190Y-106771238D01*
X185503380Y-106652190D02*
X185860523Y-106533142D01*
X185860523Y-106842666D01*
%TO.C,C3*%
X185979571Y-107866666D02*
X186003380Y-107842857D01*
X186027190Y-107771428D01*
X186027190Y-107723809D01*
X186003380Y-107652380D01*
X185955761Y-107604761D01*
X185908142Y-107580952D01*
X185812904Y-107557142D01*
X185741476Y-107557142D01*
X185646238Y-107580952D01*
X185598619Y-107604761D01*
X185551000Y-107652380D01*
X185527190Y-107723809D01*
X185527190Y-107771428D01*
X185551000Y-107842857D01*
X185574809Y-107866666D01*
X185527190Y-108033333D02*
X185527190Y-108342857D01*
X185717666Y-108176190D01*
X185717666Y-108247619D01*
X185741476Y-108295238D01*
X185765285Y-108319047D01*
X185812904Y-108342857D01*
X185931952Y-108342857D01*
X185979571Y-108319047D01*
X186003380Y-108295238D01*
X186027190Y-108247619D01*
X186027190Y-108104761D01*
X186003380Y-108057142D01*
X185979571Y-108033333D01*
%TO.C,C2*%
X174549571Y-111168666D02*
X174573380Y-111144857D01*
X174597190Y-111073428D01*
X174597190Y-111025809D01*
X174573380Y-110954380D01*
X174525761Y-110906761D01*
X174478142Y-110882952D01*
X174382904Y-110859142D01*
X174311476Y-110859142D01*
X174216238Y-110882952D01*
X174168619Y-110906761D01*
X174121000Y-110954380D01*
X174097190Y-111025809D01*
X174097190Y-111073428D01*
X174121000Y-111144857D01*
X174144809Y-111168666D01*
X174144809Y-111359142D02*
X174121000Y-111382952D01*
X174097190Y-111430571D01*
X174097190Y-111549619D01*
X174121000Y-111597238D01*
X174144809Y-111621047D01*
X174192428Y-111644857D01*
X174240047Y-111644857D01*
X174311476Y-111621047D01*
X174597190Y-111335333D01*
X174597190Y-111644857D01*
%TD*%
M02*
