%TF.GenerationSoftware,KiCad,Pcbnew,(5.1.10)-1*%
%TF.CreationDate,2023-09-14T18:48:03-05:00*%
%TF.ProjectId,perovskite_contact_board,7065726f-7673-46b6-9974-655f636f6e74,V3*%
%TF.SameCoordinates,Original*%
%TF.FileFunction,Profile,NP*%
%FSLAX46Y46*%
G04 Gerber Fmt 4.6, Leading zero omitted, Abs format (unit mm)*
G04 Created by KiCad (PCBNEW (5.1.10)-1) date 2023-09-14 18:48:03*
%MOMM*%
%LPD*%
G01*
G04 APERTURE LIST*
%TA.AperFunction,Profile*%
%ADD10C,0.200000*%
%TD*%
G04 APERTURE END LIST*
D10*
X162464800Y-77680401D02*
G75*
G03*
X162464800Y-77680401I-800000J0D01*
G01*
X162464800Y-82680401D02*
G75*
G03*
X162464800Y-82680401I-800000J0D01*
G01*
X164964800Y-88930401D02*
G75*
G03*
X164964800Y-88930401I-800000J0D01*
G01*
X164964800Y-113030400D02*
G75*
G03*
X164964800Y-113030400I-800000J0D01*
G01*
X143364800Y-109280401D02*
G75*
G03*
X143364800Y-109280401I-800000J0D01*
G01*
X162464800Y-80180401D02*
G75*
G03*
X162464800Y-80180401I-800000J0D01*
G01*
X162464800Y-87680401D02*
G75*
G03*
X162464800Y-87680401I-800000J0D01*
G01*
X164964800Y-115530400D02*
G75*
G03*
X164964800Y-115530400I-800000J0D01*
G01*
X142114800Y-111780401D02*
G75*
G03*
X142114800Y-111780401I-800000J0D01*
G01*
X164964800Y-83930401D02*
G75*
G03*
X164964800Y-83930401I-800000J0D01*
G01*
X138364800Y-109280401D02*
G75*
G03*
X138364800Y-109280401I-800000J0D01*
G01*
X139614800Y-111780401D02*
G75*
G03*
X139614800Y-111780401I-800000J0D01*
G01*
X133364800Y-109280401D02*
G75*
G03*
X133364800Y-109280401I-800000J0D01*
G01*
X134614800Y-111780401D02*
G75*
G03*
X134614800Y-111780401I-800000J0D01*
G01*
X132114800Y-111780401D02*
G75*
G03*
X132114800Y-111780401I-800000J0D01*
G01*
X162464800Y-106780401D02*
G75*
G03*
X162464800Y-106780401I-800000J0D01*
G01*
X162464800Y-111780401D02*
G75*
G03*
X162464800Y-111780401I-800000J0D01*
G01*
X162464800Y-114280400D02*
G75*
G03*
X162464800Y-114280400I-800000J0D01*
G01*
X162464800Y-116780400D02*
G75*
G03*
X162464800Y-116780400I-800000J0D01*
G01*
X162464800Y-104280401D02*
G75*
G03*
X162464800Y-104280401I-800000J0D01*
G01*
X137114800Y-111780401D02*
G75*
G03*
X137114800Y-111780401I-800000J0D01*
G01*
X164964800Y-110530401D02*
G75*
G03*
X164964800Y-110530401I-800000J0D01*
G01*
X164964800Y-81430401D02*
G75*
G03*
X164964800Y-81430401I-800000J0D01*
G01*
X164964800Y-78930401D02*
G75*
G03*
X164964800Y-78930401I-800000J0D01*
G01*
X162464800Y-85180401D02*
G75*
G03*
X162464800Y-85180401I-800000J0D01*
G01*
X140864800Y-109280401D02*
G75*
G03*
X140864800Y-109280401I-800000J0D01*
G01*
X162464800Y-90180401D02*
G75*
G03*
X162464800Y-90180401I-800000J0D01*
G01*
X164964800Y-86430401D02*
G75*
G03*
X164964800Y-86430401I-800000J0D01*
G01*
X135864800Y-109280401D02*
G75*
G03*
X135864800Y-109280401I-800000J0D01*
G01*
X162464800Y-109280401D02*
G75*
G03*
X162464800Y-109280401I-800000J0D01*
G01*
X164964800Y-105530401D02*
G75*
G03*
X164964800Y-105530401I-800000J0D01*
G01*
X149364800Y-72380401D02*
X149364800Y-95480401D01*
X124764800Y-124080400D02*
X174964799Y-124080400D01*
X164964800Y-108030401D02*
G75*
G03*
X164964800Y-108030401I-800000J0D01*
G01*
X123264800Y-98480401D02*
G75*
G02*
X124764800Y-96980401I1500000J0D01*
G01*
X174964799Y-70880401D02*
X150864800Y-70880401D01*
X174964799Y-70880401D02*
G75*
G02*
X176464799Y-72380401I0J-1500000D01*
G01*
X123264800Y-98480401D02*
X123264800Y-122580400D01*
X130864800Y-109280401D02*
G75*
G03*
X130864800Y-109280401I-800000J0D01*
G01*
X149364800Y-95480401D02*
G75*
G02*
X147864800Y-96980401I-1500000J0D01*
G01*
X147864800Y-96980401D02*
X124764800Y-96980401D01*
X176464799Y-122580400D02*
X176464799Y-72380401D01*
X149364800Y-72380401D02*
G75*
G02*
X150864800Y-70880401I1500000J0D01*
G01*
X176464799Y-122580400D02*
G75*
G02*
X174964799Y-124080400I-1500000J0D01*
G01*
X124764800Y-124080400D02*
G75*
G02*
X123264800Y-122580400I0J1500000D01*
G01*
M02*
