%TF.GenerationSoftware,KiCad,Pcbnew,(5.1.10)-1*%
%TF.CreationDate,2023-07-20T22:08:15-05:00*%
%TF.ProjectId,perovskite_contact_board,7065726f-7673-46b6-9974-655f636f6e74,V3*%
%TF.SameCoordinates,Original*%
%TF.FileFunction,Legend,Bot*%
%TF.FilePolarity,Positive*%
%FSLAX46Y46*%
G04 Gerber Fmt 4.6, Leading zero omitted, Abs format (unit mm)*
G04 Created by KiCad (PCBNEW (5.1.10)-1) date 2023-07-20 22:08:15*
%MOMM*%
%LPD*%
G01*
G04 APERTURE LIST*
%ADD10C,0.100000*%
%ADD11C,0.200000*%
%ADD12C,0.120000*%
G04 APERTURE END LIST*
D10*
X141859000Y-111486190D02*
X141859000Y-111605238D01*
X141978047Y-111557619D02*
X141859000Y-111605238D01*
X141739952Y-111557619D01*
X141930428Y-111700476D02*
X141859000Y-111605238D01*
X141787571Y-111700476D01*
X167894000Y-111486190D02*
X167894000Y-111605238D01*
X168013047Y-111557619D02*
X167894000Y-111605238D01*
X167774952Y-111557619D01*
X167965428Y-111700476D02*
X167894000Y-111605238D01*
X167822571Y-111700476D01*
X167894000Y-85324190D02*
X167894000Y-85443238D01*
X168013047Y-85395619D02*
X167894000Y-85443238D01*
X167774952Y-85395619D01*
X167965428Y-85538476D02*
X167894000Y-85443238D01*
X167822571Y-85538476D01*
X133794452Y-103001000D02*
X133842071Y-102977190D01*
X133913500Y-102977190D01*
X133984928Y-103001000D01*
X134032547Y-103048619D01*
X134056357Y-103096238D01*
X134080166Y-103191476D01*
X134080166Y-103262904D01*
X134056357Y-103358142D01*
X134032547Y-103405761D01*
X133984928Y-103453380D01*
X133913500Y-103477190D01*
X133865880Y-103477190D01*
X133794452Y-103453380D01*
X133770642Y-103429571D01*
X133770642Y-103262904D01*
X133865880Y-103262904D01*
X133556357Y-103477190D02*
X133556357Y-102977190D01*
X133270642Y-103477190D01*
X133270642Y-102977190D01*
X133032547Y-103477190D02*
X133032547Y-102977190D01*
X132913500Y-102977190D01*
X132842071Y-103001000D01*
X132794452Y-103048619D01*
X132770642Y-103096238D01*
X132746833Y-103191476D01*
X132746833Y-103262904D01*
X132770642Y-103358142D01*
X132794452Y-103405761D01*
X132842071Y-103453380D01*
X132913500Y-103477190D01*
X133032547Y-103477190D01*
X130651166Y-102977190D02*
X130484500Y-103477190D01*
X130317833Y-102977190D01*
X130151166Y-103477190D02*
X130151166Y-102977190D01*
X130032119Y-102977190D01*
X129960690Y-103001000D01*
X129913071Y-103048619D01*
X129889261Y-103096238D01*
X129865452Y-103191476D01*
X129865452Y-103262904D01*
X129889261Y-103358142D01*
X129913071Y-103405761D01*
X129960690Y-103453380D01*
X130032119Y-103477190D01*
X130151166Y-103477190D01*
X129651166Y-103477190D02*
X129651166Y-102977190D01*
X129532119Y-102977190D01*
X129460690Y-103001000D01*
X129413071Y-103048619D01*
X129389261Y-103096238D01*
X129365452Y-103191476D01*
X129365452Y-103262904D01*
X129389261Y-103358142D01*
X129413071Y-103405761D01*
X129460690Y-103453380D01*
X129532119Y-103477190D01*
X129651166Y-103477190D01*
X159638952Y-103191500D02*
X159686571Y-103167690D01*
X159758000Y-103167690D01*
X159829428Y-103191500D01*
X159877047Y-103239119D01*
X159900857Y-103286738D01*
X159924666Y-103381976D01*
X159924666Y-103453404D01*
X159900857Y-103548642D01*
X159877047Y-103596261D01*
X159829428Y-103643880D01*
X159758000Y-103667690D01*
X159710380Y-103667690D01*
X159638952Y-103643880D01*
X159615142Y-103620071D01*
X159615142Y-103453404D01*
X159710380Y-103453404D01*
X159400857Y-103667690D02*
X159400857Y-103167690D01*
X159115142Y-103667690D01*
X159115142Y-103167690D01*
X158877047Y-103667690D02*
X158877047Y-103167690D01*
X158758000Y-103167690D01*
X158686571Y-103191500D01*
X158638952Y-103239119D01*
X158615142Y-103286738D01*
X158591333Y-103381976D01*
X158591333Y-103453404D01*
X158615142Y-103548642D01*
X158638952Y-103596261D01*
X158686571Y-103643880D01*
X158758000Y-103667690D01*
X158877047Y-103667690D01*
X156559166Y-103167690D02*
X156392500Y-103667690D01*
X156225833Y-103167690D01*
X156059166Y-103667690D02*
X156059166Y-103167690D01*
X155940119Y-103167690D01*
X155868690Y-103191500D01*
X155821071Y-103239119D01*
X155797261Y-103286738D01*
X155773452Y-103381976D01*
X155773452Y-103453404D01*
X155797261Y-103548642D01*
X155821071Y-103596261D01*
X155868690Y-103643880D01*
X155940119Y-103667690D01*
X156059166Y-103667690D01*
X155559166Y-103667690D02*
X155559166Y-103167690D01*
X155440119Y-103167690D01*
X155368690Y-103191500D01*
X155321071Y-103239119D01*
X155297261Y-103286738D01*
X155273452Y-103381976D01*
X155273452Y-103453404D01*
X155297261Y-103548642D01*
X155321071Y-103596261D01*
X155368690Y-103643880D01*
X155440119Y-103667690D01*
X155559166Y-103667690D01*
X131849738Y-117867880D02*
X131778309Y-117891690D01*
X131659261Y-117891690D01*
X131611642Y-117867880D01*
X131587833Y-117844071D01*
X131564023Y-117796452D01*
X131564023Y-117748833D01*
X131587833Y-117701214D01*
X131611642Y-117677404D01*
X131659261Y-117653595D01*
X131754500Y-117629785D01*
X131802119Y-117605976D01*
X131825928Y-117582166D01*
X131849738Y-117534547D01*
X131849738Y-117486928D01*
X131825928Y-117439309D01*
X131802119Y-117415500D01*
X131754500Y-117391690D01*
X131635452Y-117391690D01*
X131564023Y-117415500D01*
X131064023Y-117844071D02*
X131087833Y-117867880D01*
X131159261Y-117891690D01*
X131206880Y-117891690D01*
X131278309Y-117867880D01*
X131325928Y-117820261D01*
X131349738Y-117772642D01*
X131373547Y-117677404D01*
X131373547Y-117605976D01*
X131349738Y-117510738D01*
X131325928Y-117463119D01*
X131278309Y-117415500D01*
X131206880Y-117391690D01*
X131159261Y-117391690D01*
X131087833Y-117415500D01*
X131064023Y-117439309D01*
X130611642Y-117891690D02*
X130849738Y-117891690D01*
X130849738Y-117391690D01*
X128432642Y-117867880D02*
X128361214Y-117891690D01*
X128242166Y-117891690D01*
X128194547Y-117867880D01*
X128170738Y-117844071D01*
X128146928Y-117796452D01*
X128146928Y-117748833D01*
X128170738Y-117701214D01*
X128194547Y-117677404D01*
X128242166Y-117653595D01*
X128337404Y-117629785D01*
X128385023Y-117605976D01*
X128408833Y-117582166D01*
X128432642Y-117534547D01*
X128432642Y-117486928D01*
X128408833Y-117439309D01*
X128385023Y-117415500D01*
X128337404Y-117391690D01*
X128218357Y-117391690D01*
X128146928Y-117415500D01*
X127932642Y-117891690D02*
X127932642Y-117391690D01*
X127813595Y-117391690D01*
X127742166Y-117415500D01*
X127694547Y-117463119D01*
X127670738Y-117510738D01*
X127646928Y-117605976D01*
X127646928Y-117677404D01*
X127670738Y-117772642D01*
X127694547Y-117820261D01*
X127742166Y-117867880D01*
X127813595Y-117891690D01*
X127932642Y-117891690D01*
X127456452Y-117748833D02*
X127218357Y-117748833D01*
X127504071Y-117891690D02*
X127337404Y-117391690D01*
X127170738Y-117891690D01*
X158519738Y-117486880D02*
X158448309Y-117510690D01*
X158329261Y-117510690D01*
X158281642Y-117486880D01*
X158257833Y-117463071D01*
X158234023Y-117415452D01*
X158234023Y-117367833D01*
X158257833Y-117320214D01*
X158281642Y-117296404D01*
X158329261Y-117272595D01*
X158424500Y-117248785D01*
X158472119Y-117224976D01*
X158495928Y-117201166D01*
X158519738Y-117153547D01*
X158519738Y-117105928D01*
X158495928Y-117058309D01*
X158472119Y-117034500D01*
X158424500Y-117010690D01*
X158305452Y-117010690D01*
X158234023Y-117034500D01*
X157734023Y-117463071D02*
X157757833Y-117486880D01*
X157829261Y-117510690D01*
X157876880Y-117510690D01*
X157948309Y-117486880D01*
X157995928Y-117439261D01*
X158019738Y-117391642D01*
X158043547Y-117296404D01*
X158043547Y-117224976D01*
X158019738Y-117129738D01*
X157995928Y-117082119D01*
X157948309Y-117034500D01*
X157876880Y-117010690D01*
X157829261Y-117010690D01*
X157757833Y-117034500D01*
X157734023Y-117058309D01*
X157281642Y-117510690D02*
X157519738Y-117510690D01*
X157519738Y-117010690D01*
X155166142Y-117486880D02*
X155094714Y-117510690D01*
X154975666Y-117510690D01*
X154928047Y-117486880D01*
X154904238Y-117463071D01*
X154880428Y-117415452D01*
X154880428Y-117367833D01*
X154904238Y-117320214D01*
X154928047Y-117296404D01*
X154975666Y-117272595D01*
X155070904Y-117248785D01*
X155118523Y-117224976D01*
X155142333Y-117201166D01*
X155166142Y-117153547D01*
X155166142Y-117105928D01*
X155142333Y-117058309D01*
X155118523Y-117034500D01*
X155070904Y-117010690D01*
X154951857Y-117010690D01*
X154880428Y-117034500D01*
X154666142Y-117510690D02*
X154666142Y-117010690D01*
X154547095Y-117010690D01*
X154475666Y-117034500D01*
X154428047Y-117082119D01*
X154404238Y-117129738D01*
X154380428Y-117224976D01*
X154380428Y-117296404D01*
X154404238Y-117391642D01*
X154428047Y-117439261D01*
X154475666Y-117486880D01*
X154547095Y-117510690D01*
X154666142Y-117510690D01*
X154189952Y-117367833D02*
X153951857Y-117367833D01*
X154237571Y-117510690D02*
X154070904Y-117010690D01*
X153904238Y-117510690D01*
X136945666Y-102977190D02*
X136612333Y-102977190D01*
X136826619Y-103477190D01*
X140319119Y-103191476D02*
X140366738Y-103167666D01*
X140390547Y-103143857D01*
X140414357Y-103096238D01*
X140414357Y-103072428D01*
X140390547Y-103024809D01*
X140366738Y-103001000D01*
X140319119Y-102977190D01*
X140223880Y-102977190D01*
X140176261Y-103001000D01*
X140152452Y-103024809D01*
X140128642Y-103072428D01*
X140128642Y-103096238D01*
X140152452Y-103143857D01*
X140176261Y-103167666D01*
X140223880Y-103191476D01*
X140319119Y-103191476D01*
X140366738Y-103215285D01*
X140390547Y-103239095D01*
X140414357Y-103286714D01*
X140414357Y-103381952D01*
X140390547Y-103429571D01*
X140366738Y-103453380D01*
X140319119Y-103477190D01*
X140223880Y-103477190D01*
X140176261Y-103453380D01*
X140152452Y-103429571D01*
X140128642Y-103381952D01*
X140128642Y-103286714D01*
X140152452Y-103239095D01*
X140176261Y-103215285D01*
X140223880Y-103191476D01*
X143795738Y-103477190D02*
X143700500Y-103477190D01*
X143652880Y-103453380D01*
X143629071Y-103429571D01*
X143581452Y-103358142D01*
X143557642Y-103262904D01*
X143557642Y-103072428D01*
X143581452Y-103024809D01*
X143605261Y-103001000D01*
X143652880Y-102977190D01*
X143748119Y-102977190D01*
X143795738Y-103001000D01*
X143819547Y-103024809D01*
X143843357Y-103072428D01*
X143843357Y-103191476D01*
X143819547Y-103239095D01*
X143795738Y-103262904D01*
X143748119Y-103286714D01*
X143652880Y-103286714D01*
X143605261Y-103262904D01*
X143581452Y-103239095D01*
X143557642Y-103191476D01*
X135016833Y-117844071D02*
X135040642Y-117867880D01*
X135112071Y-117891690D01*
X135159690Y-117891690D01*
X135231119Y-117867880D01*
X135278738Y-117820261D01*
X135302547Y-117772642D01*
X135326357Y-117677404D01*
X135326357Y-117605976D01*
X135302547Y-117510738D01*
X135278738Y-117463119D01*
X135231119Y-117415500D01*
X135159690Y-117391690D01*
X135112071Y-117391690D01*
X135040642Y-117415500D01*
X135016833Y-117439309D01*
X134802547Y-117891690D02*
X134802547Y-117391690D01*
X134612071Y-117391690D01*
X134564452Y-117415500D01*
X134540642Y-117439309D01*
X134516833Y-117486928D01*
X134516833Y-117558357D01*
X134540642Y-117605976D01*
X134564452Y-117629785D01*
X134612071Y-117653595D01*
X134802547Y-117653595D01*
X134326357Y-117439309D02*
X134302547Y-117415500D01*
X134254928Y-117391690D01*
X134135880Y-117391690D01*
X134088261Y-117415500D01*
X134064452Y-117439309D01*
X134040642Y-117486928D01*
X134040642Y-117534547D01*
X134064452Y-117605976D01*
X134350166Y-117891690D01*
X134040642Y-117891690D01*
X138334738Y-117891690D02*
X138620452Y-117891690D01*
X138477595Y-117891690D02*
X138477595Y-117391690D01*
X138525214Y-117463119D01*
X138572833Y-117510738D01*
X138620452Y-117534547D01*
X138144261Y-117439309D02*
X138120452Y-117415500D01*
X138072833Y-117391690D01*
X137953785Y-117391690D01*
X137906166Y-117415500D01*
X137882357Y-117439309D01*
X137858547Y-117486928D01*
X137858547Y-117534547D01*
X137882357Y-117605976D01*
X138168071Y-117891690D01*
X137858547Y-117891690D01*
X141890738Y-117891690D02*
X142176452Y-117891690D01*
X142033595Y-117891690D02*
X142033595Y-117391690D01*
X142081214Y-117463119D01*
X142128833Y-117510738D01*
X142176452Y-117534547D01*
X141414547Y-117891690D02*
X141700261Y-117891690D01*
X141557404Y-117891690D02*
X141557404Y-117391690D01*
X141605023Y-117463119D01*
X141652642Y-117510738D01*
X141700261Y-117534547D01*
X145446738Y-117891690D02*
X145732452Y-117891690D01*
X145589595Y-117891690D02*
X145589595Y-117391690D01*
X145637214Y-117463119D01*
X145684833Y-117510738D01*
X145732452Y-117534547D01*
X145137214Y-117391690D02*
X145089595Y-117391690D01*
X145041976Y-117415500D01*
X145018166Y-117439309D01*
X144994357Y-117486928D01*
X144970547Y-117582166D01*
X144970547Y-117701214D01*
X144994357Y-117796452D01*
X145018166Y-117844071D01*
X145041976Y-117867880D01*
X145089595Y-117891690D01*
X145137214Y-117891690D01*
X145184833Y-117867880D01*
X145208642Y-117844071D01*
X145232452Y-117796452D01*
X145256261Y-117701214D01*
X145256261Y-117582166D01*
X145232452Y-117486928D01*
X145208642Y-117439309D01*
X145184833Y-117415500D01*
X145137214Y-117391690D01*
X164877738Y-117510690D02*
X165163452Y-117510690D01*
X165020595Y-117510690D02*
X165020595Y-117010690D01*
X165068214Y-117082119D01*
X165115833Y-117129738D01*
X165163452Y-117153547D01*
X164592023Y-117224976D02*
X164639642Y-117201166D01*
X164663452Y-117177357D01*
X164687261Y-117129738D01*
X164687261Y-117105928D01*
X164663452Y-117058309D01*
X164639642Y-117034500D01*
X164592023Y-117010690D01*
X164496785Y-117010690D01*
X164449166Y-117034500D01*
X164425357Y-117058309D01*
X164401547Y-117105928D01*
X164401547Y-117129738D01*
X164425357Y-117177357D01*
X164449166Y-117201166D01*
X164496785Y-117224976D01*
X164592023Y-117224976D01*
X164639642Y-117248785D01*
X164663452Y-117272595D01*
X164687261Y-117320214D01*
X164687261Y-117415452D01*
X164663452Y-117463071D01*
X164639642Y-117486880D01*
X164592023Y-117510690D01*
X164496785Y-117510690D01*
X164449166Y-117486880D01*
X164425357Y-117463071D01*
X164401547Y-117415452D01*
X164401547Y-117320214D01*
X164425357Y-117272595D01*
X164449166Y-117248785D01*
X164496785Y-117224976D01*
X168306738Y-117510690D02*
X168592452Y-117510690D01*
X168449595Y-117510690D02*
X168449595Y-117010690D01*
X168497214Y-117082119D01*
X168544833Y-117129738D01*
X168592452Y-117153547D01*
X168140071Y-117010690D02*
X167806738Y-117010690D01*
X168021023Y-117510690D01*
X171735738Y-117510690D02*
X172021452Y-117510690D01*
X171878595Y-117510690D02*
X171878595Y-117010690D01*
X171926214Y-117082119D01*
X171973833Y-117129738D01*
X172021452Y-117153547D01*
X171307166Y-117010690D02*
X171402404Y-117010690D01*
X171450023Y-117034500D01*
X171473833Y-117058309D01*
X171521452Y-117129738D01*
X171545261Y-117224976D01*
X171545261Y-117415452D01*
X171521452Y-117463071D01*
X171497642Y-117486880D01*
X171450023Y-117510690D01*
X171354785Y-117510690D01*
X171307166Y-117486880D01*
X171283357Y-117463071D01*
X171259547Y-117415452D01*
X171259547Y-117296404D01*
X171283357Y-117248785D01*
X171307166Y-117224976D01*
X171354785Y-117201166D01*
X171450023Y-117201166D01*
X171497642Y-117224976D01*
X171521452Y-117248785D01*
X171545261Y-117296404D01*
X161686833Y-117463071D02*
X161710642Y-117486880D01*
X161782071Y-117510690D01*
X161829690Y-117510690D01*
X161901119Y-117486880D01*
X161948738Y-117439261D01*
X161972547Y-117391642D01*
X161996357Y-117296404D01*
X161996357Y-117224976D01*
X161972547Y-117129738D01*
X161948738Y-117082119D01*
X161901119Y-117034500D01*
X161829690Y-117010690D01*
X161782071Y-117010690D01*
X161710642Y-117034500D01*
X161686833Y-117058309D01*
X161472547Y-117510690D02*
X161472547Y-117010690D01*
X161282071Y-117010690D01*
X161234452Y-117034500D01*
X161210642Y-117058309D01*
X161186833Y-117105928D01*
X161186833Y-117177357D01*
X161210642Y-117224976D01*
X161234452Y-117248785D01*
X161282071Y-117272595D01*
X161472547Y-117272595D01*
X161020166Y-117010690D02*
X160710642Y-117010690D01*
X160877309Y-117201166D01*
X160805880Y-117201166D01*
X160758261Y-117224976D01*
X160734452Y-117248785D01*
X160710642Y-117296404D01*
X160710642Y-117415452D01*
X160734452Y-117463071D01*
X160758261Y-117486880D01*
X160805880Y-117510690D01*
X160948738Y-117510690D01*
X160996357Y-117486880D01*
X161020166Y-117463071D01*
X157448166Y-77386690D02*
X157281500Y-77886690D01*
X157114833Y-77386690D01*
X156948166Y-77886690D02*
X156948166Y-77386690D01*
X156829119Y-77386690D01*
X156757690Y-77410500D01*
X156710071Y-77458119D01*
X156686261Y-77505738D01*
X156662452Y-77600976D01*
X156662452Y-77672404D01*
X156686261Y-77767642D01*
X156710071Y-77815261D01*
X156757690Y-77862880D01*
X156829119Y-77886690D01*
X156948166Y-77886690D01*
X156448166Y-77886690D02*
X156448166Y-77386690D01*
X156329119Y-77386690D01*
X156257690Y-77410500D01*
X156210071Y-77458119D01*
X156186261Y-77505738D01*
X156162452Y-77600976D01*
X156162452Y-77672404D01*
X156186261Y-77767642D01*
X156210071Y-77815261D01*
X156257690Y-77862880D01*
X156329119Y-77886690D01*
X156448166Y-77886690D01*
X155102642Y-91324880D02*
X155031214Y-91348690D01*
X154912166Y-91348690D01*
X154864547Y-91324880D01*
X154840738Y-91301071D01*
X154816928Y-91253452D01*
X154816928Y-91205833D01*
X154840738Y-91158214D01*
X154864547Y-91134404D01*
X154912166Y-91110595D01*
X155007404Y-91086785D01*
X155055023Y-91062976D01*
X155078833Y-91039166D01*
X155102642Y-90991547D01*
X155102642Y-90943928D01*
X155078833Y-90896309D01*
X155055023Y-90872500D01*
X155007404Y-90848690D01*
X154888357Y-90848690D01*
X154816928Y-90872500D01*
X154602642Y-91348690D02*
X154602642Y-90848690D01*
X154483595Y-90848690D01*
X154412166Y-90872500D01*
X154364547Y-90920119D01*
X154340738Y-90967738D01*
X154316928Y-91062976D01*
X154316928Y-91134404D01*
X154340738Y-91229642D01*
X154364547Y-91277261D01*
X154412166Y-91324880D01*
X154483595Y-91348690D01*
X154602642Y-91348690D01*
X154126452Y-91205833D02*
X153888357Y-91205833D01*
X154174071Y-91348690D02*
X154007404Y-90848690D01*
X153840738Y-91348690D01*
X158519738Y-91324880D02*
X158448309Y-91348690D01*
X158329261Y-91348690D01*
X158281642Y-91324880D01*
X158257833Y-91301071D01*
X158234023Y-91253452D01*
X158234023Y-91205833D01*
X158257833Y-91158214D01*
X158281642Y-91134404D01*
X158329261Y-91110595D01*
X158424500Y-91086785D01*
X158472119Y-91062976D01*
X158495928Y-91039166D01*
X158519738Y-90991547D01*
X158519738Y-90943928D01*
X158495928Y-90896309D01*
X158472119Y-90872500D01*
X158424500Y-90848690D01*
X158305452Y-90848690D01*
X158234023Y-90872500D01*
X157734023Y-91301071D02*
X157757833Y-91324880D01*
X157829261Y-91348690D01*
X157876880Y-91348690D01*
X157948309Y-91324880D01*
X157995928Y-91277261D01*
X158019738Y-91229642D01*
X158043547Y-91134404D01*
X158043547Y-91062976D01*
X158019738Y-90967738D01*
X157995928Y-90920119D01*
X157948309Y-90872500D01*
X157876880Y-90848690D01*
X157829261Y-90848690D01*
X157757833Y-90872500D01*
X157734023Y-90896309D01*
X157281642Y-91348690D02*
X157519738Y-91348690D01*
X157519738Y-90848690D01*
X162845738Y-103667690D02*
X163131452Y-103667690D01*
X162988595Y-103667690D02*
X162988595Y-103167690D01*
X163036214Y-103239119D01*
X163083833Y-103286738D01*
X163131452Y-103310547D01*
X162679071Y-103167690D02*
X162369547Y-103167690D01*
X162536214Y-103358166D01*
X162464785Y-103358166D01*
X162417166Y-103381976D01*
X162393357Y-103405785D01*
X162369547Y-103453404D01*
X162369547Y-103572452D01*
X162393357Y-103620071D01*
X162417166Y-103643880D01*
X162464785Y-103667690D01*
X162607642Y-103667690D01*
X162655261Y-103643880D01*
X162679071Y-103620071D01*
X166401738Y-103667690D02*
X166687452Y-103667690D01*
X166544595Y-103667690D02*
X166544595Y-103167690D01*
X166592214Y-103239119D01*
X166639833Y-103286738D01*
X166687452Y-103310547D01*
X165973166Y-103334357D02*
X165973166Y-103667690D01*
X166092214Y-103143880D02*
X166211261Y-103501023D01*
X165901738Y-103501023D01*
X169830738Y-103667690D02*
X170116452Y-103667690D01*
X169973595Y-103667690D02*
X169973595Y-103167690D01*
X170021214Y-103239119D01*
X170068833Y-103286738D01*
X170116452Y-103310547D01*
X169378357Y-103167690D02*
X169616452Y-103167690D01*
X169640261Y-103405785D01*
X169616452Y-103381976D01*
X169568833Y-103358166D01*
X169449785Y-103358166D01*
X169402166Y-103381976D01*
X169378357Y-103405785D01*
X169354547Y-103453404D01*
X169354547Y-103572452D01*
X169378357Y-103620071D01*
X169402166Y-103643880D01*
X169449785Y-103667690D01*
X169568833Y-103667690D01*
X169616452Y-103643880D01*
X169640261Y-103620071D01*
X161813833Y-91301071D02*
X161837642Y-91324880D01*
X161909071Y-91348690D01*
X161956690Y-91348690D01*
X162028119Y-91324880D01*
X162075738Y-91277261D01*
X162099547Y-91229642D01*
X162123357Y-91134404D01*
X162123357Y-91062976D01*
X162099547Y-90967738D01*
X162075738Y-90920119D01*
X162028119Y-90872500D01*
X161956690Y-90848690D01*
X161909071Y-90848690D01*
X161837642Y-90872500D01*
X161813833Y-90896309D01*
X161599547Y-91348690D02*
X161599547Y-90848690D01*
X161409071Y-90848690D01*
X161361452Y-90872500D01*
X161337642Y-90896309D01*
X161313833Y-90943928D01*
X161313833Y-91015357D01*
X161337642Y-91062976D01*
X161361452Y-91086785D01*
X161409071Y-91110595D01*
X161599547Y-91110595D01*
X160837642Y-91348690D02*
X161123357Y-91348690D01*
X160980500Y-91348690D02*
X160980500Y-90848690D01*
X161028119Y-90920119D01*
X161075738Y-90967738D01*
X161123357Y-90991547D01*
X164814261Y-90848690D02*
X164909500Y-90848690D01*
X164957119Y-90872500D01*
X164980928Y-90896309D01*
X165028547Y-90967738D01*
X165052357Y-91062976D01*
X165052357Y-91253452D01*
X165028547Y-91301071D01*
X165004738Y-91324880D01*
X164957119Y-91348690D01*
X164861880Y-91348690D01*
X164814261Y-91324880D01*
X164790452Y-91301071D01*
X164766642Y-91253452D01*
X164766642Y-91134404D01*
X164790452Y-91086785D01*
X164814261Y-91062976D01*
X164861880Y-91039166D01*
X164957119Y-91039166D01*
X165004738Y-91062976D01*
X165028547Y-91086785D01*
X165052357Y-91134404D01*
X168092452Y-90848690D02*
X168330547Y-90848690D01*
X168354357Y-91086785D01*
X168330547Y-91062976D01*
X168282928Y-91039166D01*
X168163880Y-91039166D01*
X168116261Y-91062976D01*
X168092452Y-91086785D01*
X168068642Y-91134404D01*
X168068642Y-91253452D01*
X168092452Y-91301071D01*
X168116261Y-91324880D01*
X168163880Y-91348690D01*
X168282928Y-91348690D01*
X168330547Y-91324880D01*
X168354357Y-91301071D01*
X171418261Y-91015357D02*
X171418261Y-91348690D01*
X171537309Y-90824880D02*
X171656357Y-91182023D01*
X171346833Y-91182023D01*
X170156166Y-77386690D02*
X169846642Y-77386690D01*
X170013309Y-77577166D01*
X169941880Y-77577166D01*
X169894261Y-77600976D01*
X169870452Y-77624785D01*
X169846642Y-77672404D01*
X169846642Y-77791452D01*
X169870452Y-77839071D01*
X169894261Y-77862880D01*
X169941880Y-77886690D01*
X170084738Y-77886690D01*
X170132357Y-77862880D01*
X170156166Y-77839071D01*
X166830357Y-77434309D02*
X166806547Y-77410500D01*
X166758928Y-77386690D01*
X166639880Y-77386690D01*
X166592261Y-77410500D01*
X166568452Y-77434309D01*
X166544642Y-77481928D01*
X166544642Y-77529547D01*
X166568452Y-77600976D01*
X166854166Y-77886690D01*
X166544642Y-77886690D01*
X163242642Y-77886690D02*
X163528357Y-77886690D01*
X163385500Y-77886690D02*
X163385500Y-77386690D01*
X163433119Y-77458119D01*
X163480738Y-77505738D01*
X163528357Y-77529547D01*
X160464452Y-77410500D02*
X160512071Y-77386690D01*
X160583500Y-77386690D01*
X160654928Y-77410500D01*
X160702547Y-77458119D01*
X160726357Y-77505738D01*
X160750166Y-77600976D01*
X160750166Y-77672404D01*
X160726357Y-77767642D01*
X160702547Y-77815261D01*
X160654928Y-77862880D01*
X160583500Y-77886690D01*
X160535880Y-77886690D01*
X160464452Y-77862880D01*
X160440642Y-77839071D01*
X160440642Y-77672404D01*
X160535880Y-77672404D01*
X160226357Y-77886690D02*
X160226357Y-77386690D01*
X159940642Y-77886690D01*
X159940642Y-77386690D01*
X159702547Y-77886690D02*
X159702547Y-77386690D01*
X159583500Y-77386690D01*
X159512071Y-77410500D01*
X159464452Y-77458119D01*
X159440642Y-77505738D01*
X159416833Y-77600976D01*
X159416833Y-77672404D01*
X159440642Y-77767642D01*
X159464452Y-77815261D01*
X159512071Y-77862880D01*
X159583500Y-77886690D01*
X159702547Y-77886690D01*
D11*
X124319501Y-102488499D02*
G75*
G02*
X123319501Y-101488499I0J1000000D01*
G01*
X123319501Y-119488499D02*
G75*
G02*
X124319501Y-118488499I1000000J0D01*
G01*
X130369501Y-123038499D02*
G75*
G02*
X129369501Y-124038499I-1000000J0D01*
G01*
X143369501Y-97938499D02*
G75*
G02*
X144369501Y-96938499I1000000J0D01*
G01*
X129369501Y-96938499D02*
G75*
G02*
X130369501Y-97938499I0J-1000000D01*
G01*
X143369501Y-97938499D02*
X130369501Y-97938499D01*
X130369501Y-123038499D02*
X143369501Y-123038499D01*
X124319501Y-102488499D02*
X124319501Y-118488499D01*
X150419500Y-76388500D02*
X150419500Y-92388500D01*
X147919500Y-118488499D02*
X147919500Y-102488499D01*
X170469500Y-124038499D02*
G75*
G02*
X169469500Y-123038499I0J1000000D01*
G01*
X156469500Y-123038499D02*
G75*
G02*
X155469500Y-124038499I-1000000J0D01*
G01*
X126319501Y-124038499D02*
G75*
G02*
X123319501Y-121038499I0J3000000D01*
G01*
X152419500Y-70838500D02*
X173519500Y-70838500D01*
X123319501Y-121038499D02*
X123319501Y-99938499D01*
X151919500Y-102488499D02*
X151919500Y-118488499D01*
X149419500Y-73838500D02*
G75*
G02*
X152419500Y-70838500I3000000J0D01*
G01*
X151919500Y-118488499D02*
X147919500Y-118488499D01*
X176519500Y-121038499D02*
G75*
G02*
X173519500Y-124038499I-3000000J0D01*
G01*
X150419500Y-76388500D02*
G75*
G02*
X149419500Y-75388500I0J1000000D01*
G01*
X126319501Y-96938499D02*
X146419500Y-96938499D01*
X155469500Y-70838500D02*
G75*
G02*
X156469500Y-71838500I0J-1000000D01*
G01*
X176519500Y-75388500D02*
X176519500Y-73838500D01*
X149419500Y-93938499D02*
G75*
G02*
X146419500Y-96938499I-3000000J0D01*
G01*
X175519500Y-92388500D02*
G75*
G02*
X176519500Y-93388500I0J-1000000D01*
G01*
X123319501Y-99938499D02*
G75*
G02*
X126319501Y-96938499I3000000J0D01*
G01*
X175519500Y-118488499D02*
X175519500Y-102488499D01*
X176519500Y-101488499D02*
G75*
G02*
X175519500Y-102488499I-1000000J0D01*
G01*
X175519500Y-118488499D02*
G75*
G02*
X176519500Y-119488499I0J-1000000D01*
G01*
X156469500Y-99438499D02*
X156469500Y-95438499D01*
X173519500Y-124038499D02*
X126319501Y-124038499D01*
X156469500Y-95438499D02*
X169469500Y-95438499D01*
X173519500Y-70838500D02*
G75*
G02*
X176519500Y-73838500I0J-3000000D01*
G01*
X157219500Y-73088500D02*
X168719500Y-73088500D01*
X147919500Y-102488499D02*
X151919500Y-102488499D01*
X169469500Y-95438499D02*
X169469500Y-99438499D01*
X169469500Y-99438499D02*
X156469500Y-99438499D01*
X176519500Y-73838500D02*
X176519500Y-121038499D01*
X149419500Y-93938499D02*
X149419500Y-73838500D01*
X169469500Y-71838500D02*
X156469500Y-71838500D01*
X176519500Y-75388500D02*
G75*
G02*
X175519500Y-76388500I-1000000J0D01*
G01*
X144369501Y-124038499D02*
G75*
G02*
X143369501Y-123038499I0J1000000D01*
G01*
X169469500Y-71838500D02*
G75*
G02*
X170469500Y-70838500I1000000J0D01*
G01*
X156469500Y-123038499D02*
X169469500Y-123038499D01*
X175519500Y-92388500D02*
X175519500Y-76388500D01*
X149419500Y-93388500D02*
G75*
G02*
X150419500Y-92388500I1000000J0D01*
G01*
X168719500Y-73088500D02*
G75*
G02*
X168719500Y-73588500I0J-250000D01*
G01*
X157219500Y-73588500D02*
G75*
G02*
X157219500Y-73088500I0J250000D01*
G01*
X157219500Y-73588500D02*
X168719500Y-73588500D01*
D12*
%TO.C,JP103.8*%
X129025500Y-115379500D02*
G75*
G03*
X129025500Y-115379500I-1200000J0D01*
G01*
%TO.C,JP103.11*%
X159124500Y-115125500D02*
G75*
G03*
X159124500Y-115125500I-1200000J0D01*
G01*
%TO.C,JP103.7*%
X132454500Y-115379500D02*
G75*
G03*
X132454500Y-115379500I-1200000J0D01*
G01*
%TO.C,JP103.10*%
X157092500Y-105600500D02*
G75*
G03*
X157092500Y-105600500I-1200000J0D01*
G01*
%TO.C,JP103.6*%
X131170500Y-105332500D02*
G75*
G03*
X131170500Y-105332500I-1200000J0D01*
G01*
%TO.C,JP103.12*%
X155759000Y-115125500D02*
G75*
G03*
X155759000Y-115125500I-1200000J0D01*
G01*
%TO.C,JP103.5*%
X134613500Y-105332500D02*
G75*
G03*
X134613500Y-105332500I-1200000J0D01*
G01*
%TO.C,JP103.9*%
X160458000Y-105600500D02*
G75*
G03*
X160458000Y-105600500I-1200000J0D01*
G01*
%TO.C,JP103.4*%
X155695500Y-88709500D02*
G75*
G03*
X155695500Y-88709500I-1200000J0D01*
G01*
%TO.C,JP103.3*%
X159124500Y-88709500D02*
G75*
G03*
X159124500Y-88709500I-1200000J0D01*
G01*
%TO.C,JP103.2*%
X157981500Y-79692500D02*
G75*
G03*
X157981500Y-79692500I-1200000J0D01*
G01*
%TO.C,JP103.1*%
X161283500Y-79692500D02*
G75*
G03*
X161283500Y-79692500I-1200000J0D01*
G01*
%TO.C,JP102.7*%
X162553500Y-115125500D02*
G75*
G03*
X162553500Y-115125500I-1200000J0D01*
G01*
%TO.C,JP102.6*%
X165982500Y-115125500D02*
G75*
G03*
X165982500Y-115125500I-1200000J0D01*
G01*
%TO.C,JP102.5*%
X169411500Y-115125500D02*
G75*
G03*
X169411500Y-115125500I-1200000J0D01*
G01*
%TO.C,JP102.4*%
X172840500Y-115125500D02*
G75*
G03*
X172840500Y-115125500I-1200000J0D01*
G01*
%TO.C,JP102.3*%
X170935500Y-105600500D02*
G75*
G03*
X170935500Y-105600500I-1200000J0D01*
G01*
%TO.C,JP102.2*%
X167506500Y-105600500D02*
G75*
G03*
X167506500Y-105600500I-1200000J0D01*
G01*
%TO.C,JP102.1*%
X163950500Y-105600500D02*
G75*
G03*
X163950500Y-105600500I-1200000J0D01*
G01*
%TO.C,JP101.7*%
X135883500Y-115379500D02*
G75*
G03*
X135883500Y-115379500I-1200000J0D01*
G01*
%TO.C,JP101.1*%
X138042500Y-105346500D02*
G75*
G03*
X138042500Y-105346500I-1200000J0D01*
G01*
%TO.C,JP101.2*%
X141471500Y-105346500D02*
G75*
G03*
X141471500Y-105346500I-1200000J0D01*
G01*
%TO.C,JP101.3*%
X144900500Y-105346500D02*
G75*
G03*
X144900500Y-105346500I-1200000J0D01*
G01*
%TO.C,JP101.4*%
X146551500Y-115379500D02*
G75*
G03*
X146551500Y-115379500I-1200000J0D01*
G01*
%TO.C,JP101.5*%
X142995500Y-115379500D02*
G75*
G03*
X142995500Y-115379500I-1200000J0D01*
G01*
%TO.C,JP101.6*%
X139439500Y-115379500D02*
G75*
G03*
X139439500Y-115379500I-1200000J0D01*
G01*
%TO.C,JP100.7*%
X162680500Y-88709500D02*
G75*
G03*
X162680500Y-88709500I-1200000J0D01*
G01*
%TO.C,JP100.6*%
X166109500Y-88836500D02*
G75*
G03*
X166109500Y-88836500I-1200000J0D01*
G01*
%TO.C,JP100.5*%
X169411500Y-88836500D02*
G75*
G03*
X169411500Y-88836500I-1200000J0D01*
G01*
%TO.C,JP100.4*%
X172713500Y-88836500D02*
G75*
G03*
X172713500Y-88836500I-1200000J0D01*
G01*
%TO.C,JP100.3*%
X171189500Y-79692500D02*
G75*
G03*
X171189500Y-79692500I-1200000J0D01*
G01*
%TO.C,JP100.2*%
X167887500Y-79692500D02*
G75*
G03*
X167887500Y-79692500I-1200000J0D01*
G01*
%TO.C,JP100.1*%
X164585500Y-79692500D02*
G75*
G03*
X164585500Y-79692500I-1200000J0D01*
G01*
%TO.C,U6*%
X158241000Y-108905000D02*
X158241000Y-111275000D01*
X167641000Y-108905000D02*
X158241000Y-108905000D01*
X167641000Y-112075000D02*
X167641000Y-108905000D01*
X159041000Y-112075000D02*
X167641000Y-112075000D01*
X158241000Y-111275000D02*
X159041000Y-112075000D01*
%TO.C,U5*%
X132142500Y-108968500D02*
X132142500Y-111338500D01*
X141542500Y-108968500D02*
X132142500Y-108968500D01*
X141542500Y-112138500D02*
X141542500Y-108968500D01*
X132942500Y-112138500D02*
X141542500Y-112138500D01*
X132142500Y-111338500D02*
X132942500Y-112138500D01*
%TO.C,U4*%
X158241000Y-82743000D02*
X158241000Y-85113000D01*
X167641000Y-82743000D02*
X158241000Y-82743000D01*
X167641000Y-85913000D02*
X167641000Y-82743000D01*
X159041000Y-85913000D02*
X167641000Y-85913000D01*
X158241000Y-85113000D02*
X159041000Y-85913000D01*
%TD*%
M02*
