%TF.GenerationSoftware,KiCad,Pcbnew,(5.1.10)-1*%
%TF.CreationDate,2023-07-20T22:08:15-05:00*%
%TF.ProjectId,perovskite_contact_board,7065726f-7673-46b6-9974-655f636f6e74,V3*%
%TF.SameCoordinates,Original*%
%TF.FileFunction,Copper,L2,Bot*%
%TF.FilePolarity,Positive*%
%FSLAX46Y46*%
G04 Gerber Fmt 4.6, Leading zero omitted, Abs format (unit mm)*
G04 Created by KiCad (PCBNEW (5.1.10)-1) date 2023-07-20 22:08:15*
%MOMM*%
%LPD*%
G01*
G04 APERTURE LIST*
%TA.AperFunction,SMDPad,CuDef*%
%ADD10C,2.000000*%
%TD*%
%TA.AperFunction,SMDPad,CuDef*%
%ADD11R,2.200000X0.220000*%
%TD*%
%TA.AperFunction,ViaPad*%
%ADD12C,0.800000*%
%TD*%
%TA.AperFunction,Conductor*%
%ADD13C,0.152400*%
%TD*%
%TA.AperFunction,Conductor*%
%ADD14C,0.100000*%
%TD*%
G04 APERTURE END LIST*
D10*
%TO.P,JP103.8,1*%
%TO.N,SDA2*%
X127825500Y-115379500D03*
%TD*%
%TO.P,JP103.11,1*%
%TO.N,SCL3*%
X157924500Y-115125500D03*
%TD*%
%TO.P,JP103.7,1*%
%TO.N,SCL2*%
X131254500Y-115379500D03*
%TD*%
%TO.P,JP103.10,1*%
%TO.N,VDDF*%
X155892500Y-105600500D03*
%TD*%
%TO.P,JP103.6,1*%
%TO.N,VDDA*%
X129970500Y-105332500D03*
%TD*%
%TO.P,JP103.12,1*%
%TO.N,SDA3*%
X154559000Y-115125500D03*
%TD*%
%TO.P,JP103.5,1*%
%TO.N,GND*%
X133413500Y-105332500D03*
%TD*%
%TO.P,JP103.9,1*%
%TO.N,GND*%
X159258000Y-105600500D03*
%TD*%
%TO.P,JP103.4,1*%
%TO.N,SDA1*%
X154495500Y-88709500D03*
%TD*%
%TO.P,JP103.3,1*%
%TO.N,SCL1*%
X157924500Y-88709500D03*
%TD*%
%TO.P,JP103.2,1*%
%TO.N,VDD*%
X156781500Y-79692500D03*
%TD*%
%TO.P,JP103.1,1*%
%TO.N,GND*%
X160083500Y-79692500D03*
%TD*%
%TO.P,JP102.7,1*%
%TO.N,CP_3*%
X161353500Y-115125500D03*
%TD*%
%TO.P,JP102.6,1*%
%TO.N,CELL_18*%
X164782500Y-115125500D03*
%TD*%
%TO.P,JP102.5,1*%
%TO.N,CELL_17*%
X168211500Y-115125500D03*
%TD*%
%TO.P,JP102.4,1*%
%TO.N,CELL_16*%
X171640500Y-115125500D03*
%TD*%
%TO.P,JP102.3,1*%
%TO.N,CELL_15*%
X169735500Y-105600500D03*
%TD*%
%TO.P,JP102.2,1*%
%TO.N,CELL_14*%
X166306500Y-105600500D03*
%TD*%
%TO.P,JP102.1,1*%
%TO.N,CELL_13*%
X162750500Y-105600500D03*
%TD*%
%TO.P,JP101.7,1*%
%TO.N,CP_2*%
X134683500Y-115379500D03*
%TD*%
%TO.P,JP101.1,1*%
%TO.N,CELL_7*%
X136842500Y-105346500D03*
%TD*%
%TO.P,JP101.2,1*%
%TO.N,CELL_8*%
X140271500Y-105346500D03*
%TD*%
%TO.P,JP101.3,1*%
%TO.N,CELL_9*%
X143700500Y-105346500D03*
%TD*%
%TO.P,JP101.4,1*%
%TO.N,CELL_10*%
X145351500Y-115379500D03*
%TD*%
%TO.P,JP101.5,1*%
%TO.N,CELL_11*%
X141795500Y-115379500D03*
%TD*%
%TO.P,JP101.6,1*%
%TO.N,CELL_12*%
X138239500Y-115379500D03*
%TD*%
%TO.P,JP100.7,1*%
%TO.N,CP_1*%
X161480500Y-88709500D03*
%TD*%
%TO.P,JP100.6,1*%
%TO.N,CELL_6*%
X164909500Y-88836500D03*
%TD*%
%TO.P,JP100.5,1*%
%TO.N,CELL_5*%
X168211500Y-88836500D03*
%TD*%
%TO.P,JP100.4,1*%
%TO.N,CELL_4*%
X171513500Y-88836500D03*
%TD*%
%TO.P,JP100.3,1*%
%TO.N,CELL_3*%
X169989500Y-79692500D03*
%TD*%
%TO.P,JP100.2,1*%
%TO.N,CELL_2*%
X166687500Y-79692500D03*
%TD*%
%TO.P,JP100.1,1*%
%TO.N,CELL_1*%
X163385500Y-79692500D03*
%TD*%
D11*
%TO.P,U6,5*%
%TO.N,VDDF*%
X159841000Y-109515000D03*
%TO.P,U6,4*%
%TO.N,GND*%
X166041000Y-109515000D03*
%TO.P,U6,6*%
%TO.N,VDDF*%
X159841000Y-110165000D03*
%TO.P,U6,3*%
%TO.N,Net-(U6-Pad3)*%
X166041000Y-110165000D03*
%TO.P,U6,7*%
%TO.N,VDDF*%
X159841000Y-110815000D03*
%TO.P,U6,2*%
%TO.N,SCL3*%
X166041000Y-110815000D03*
%TO.P,U6,8*%
%TO.N,VDDF*%
X159841000Y-111465000D03*
%TO.P,U6,1*%
%TO.N,SDA3*%
X166041000Y-111465000D03*
%TD*%
%TO.P,U5,5*%
%TO.N,GND*%
X133742500Y-109578500D03*
%TO.P,U5,4*%
X139942500Y-109578500D03*
%TO.P,U5,6*%
%TO.N,VDDA*%
X133742500Y-110228500D03*
%TO.P,U5,3*%
%TO.N,Net-(U5-Pad3)*%
X139942500Y-110228500D03*
%TO.P,U5,7*%
%TO.N,VDDA*%
X133742500Y-110878500D03*
%TO.P,U5,2*%
%TO.N,SCL2*%
X139942500Y-110878500D03*
%TO.P,U5,8*%
%TO.N,VDDA*%
X133742500Y-111528500D03*
%TO.P,U5,1*%
%TO.N,SDA2*%
X139942500Y-111528500D03*
%TD*%
%TO.P,U4,5*%
%TO.N,GND*%
X159841000Y-83353000D03*
%TO.P,U4,4*%
X166041000Y-83353000D03*
%TO.P,U4,6*%
X159841000Y-84003000D03*
%TO.P,U4,3*%
%TO.N,Net-(U4-Pad3)*%
X166041000Y-84003000D03*
%TO.P,U4,7*%
%TO.N,VDD*%
X159841000Y-84653000D03*
%TO.P,U4,2*%
%TO.N,SCL1*%
X166041000Y-84653000D03*
%TO.P,U4,8*%
%TO.N,VDD*%
X159841000Y-85303000D03*
%TO.P,U4,1*%
%TO.N,SDA1*%
X166041000Y-85303000D03*
%TD*%
D12*
%TO.N,CELL_1*%
X154686000Y-74101000D03*
%TO.N,CELL_2*%
X162886000Y-74201000D03*
%TO.N,CELL_3*%
X171136000Y-74101000D03*
%TO.N,CELL_4*%
X171136000Y-94701000D03*
%TO.N,CELL_5*%
X162836000Y-94501000D03*
%TO.N,CELL_6*%
X154686000Y-94701000D03*
%TO.N,CP_1*%
X152936000Y-83901000D03*
X173136000Y-83901000D03*
%TO.N,CELL_12*%
X128629000Y-120863000D03*
%TO.N,CELL_11*%
X136779000Y-120663000D03*
%TO.N,CELL_10*%
X145079000Y-120863000D03*
%TO.N,CELL_9*%
X145079000Y-100263000D03*
%TO.N,CELL_8*%
X136829000Y-100363000D03*
%TO.N,CELL_7*%
X128629000Y-100263000D03*
%TO.N,CP_2*%
X126879000Y-110063000D03*
X147079000Y-110063000D03*
%TO.N,CELL_13*%
X154727500Y-100263000D03*
%TO.N,CELL_14*%
X162927500Y-100363000D03*
%TO.N,CELL_15*%
X171177500Y-100263000D03*
%TO.N,CELL_16*%
X171177500Y-120863000D03*
%TO.N,CELL_17*%
X162877500Y-120663000D03*
%TO.N,CELL_18*%
X154727500Y-120863000D03*
%TO.N,CP_3*%
X152977500Y-110063000D03*
X173177500Y-110063000D03*
%TD*%
D13*
%TO.N,CELL_1*%
X157794000Y-74101000D02*
X154686000Y-74101000D01*
X163385500Y-79692500D02*
X157794000Y-74101000D01*
%TO.N,CELL_2*%
X166687500Y-78002500D02*
X162886000Y-74201000D01*
X166687500Y-79692500D02*
X166687500Y-78002500D01*
%TO.N,CELL_3*%
X169989500Y-75247500D02*
X171136000Y-74101000D01*
X169989500Y-79692500D02*
X169989500Y-75247500D01*
%TO.N,CELL_4*%
X171513500Y-94323500D02*
X171136000Y-94701000D01*
X171513500Y-88836500D02*
X171513500Y-94323500D01*
%TO.N,CELL_5*%
X162836000Y-94212000D02*
X162836000Y-94501000D01*
X168211500Y-88836500D02*
X162836000Y-94212000D01*
%TO.N,CELL_6*%
X164909500Y-88836500D02*
X162179000Y-91567000D01*
X157820000Y-91567000D02*
X154686000Y-94701000D01*
X162179000Y-91567000D02*
X157820000Y-91567000D01*
%TO.N,CP_1*%
X161480500Y-88709500D02*
X159004000Y-91186000D01*
X159004000Y-91186000D02*
X152781000Y-91186000D01*
X152781000Y-91186000D02*
X151447500Y-89852500D01*
X151447500Y-89852500D02*
X151447500Y-88201500D01*
X152936000Y-86713000D02*
X152936000Y-83901000D01*
X151447500Y-88201500D02*
X152936000Y-86713000D01*
X161480500Y-88709500D02*
X163068000Y-87122000D01*
X169915000Y-87122000D02*
X173136000Y-83901000D01*
X163068000Y-87122000D02*
X169915000Y-87122000D01*
%TO.N,CELL_12*%
X132756000Y-120863000D02*
X128629000Y-120863000D01*
X138239500Y-115379500D02*
X132756000Y-120863000D01*
%TO.N,CELL_11*%
X136779000Y-120396000D02*
X136779000Y-120663000D01*
X141795500Y-115379500D02*
X136779000Y-120396000D01*
%TO.N,CELL_10*%
X145351500Y-120590500D02*
X145079000Y-120863000D01*
X145351500Y-115379500D02*
X145351500Y-120590500D01*
%TO.N,CELL_9*%
X143700500Y-101641500D02*
X145079000Y-100263000D01*
X143700500Y-105346500D02*
X143700500Y-101641500D01*
%TO.N,CELL_8*%
X140271500Y-103805500D02*
X136829000Y-100363000D01*
X140271500Y-105346500D02*
X140271500Y-103805500D01*
%TO.N,CELL_7*%
X131759000Y-100263000D02*
X128629000Y-100263000D01*
X136842500Y-105346500D02*
X131759000Y-100263000D01*
%TO.N,CP_2*%
X134683500Y-115379500D02*
X132461000Y-117602000D01*
X132461000Y-117602000D02*
X126047500Y-117602000D01*
X126047500Y-117602000D02*
X125031500Y-116586000D01*
X125031500Y-116586000D02*
X125031500Y-115189000D01*
X126879000Y-113341500D02*
X126879000Y-110063000D01*
X125031500Y-115189000D02*
X126879000Y-113341500D01*
X134683500Y-115379500D02*
X136652000Y-113411000D01*
X136652000Y-113411000D02*
X145161000Y-113411000D01*
X147079000Y-111493000D02*
X147079000Y-110063000D01*
X145161000Y-113411000D02*
X147079000Y-111493000D01*
%TO.N,CELL_13*%
X157413000Y-100263000D02*
X154727500Y-100263000D01*
X162750500Y-105600500D02*
X157413000Y-100263000D01*
%TO.N,CELL_14*%
X166116000Y-105600500D02*
X166306500Y-105600500D01*
X166306500Y-103742000D02*
X162927500Y-100363000D01*
X166306500Y-105600500D02*
X166306500Y-103742000D01*
%TO.N,CELL_15*%
X169735500Y-101705000D02*
X171177500Y-100263000D01*
X169735500Y-105600500D02*
X169735500Y-101705000D01*
%TO.N,CELL_16*%
X171513500Y-115252500D02*
X171640500Y-115125500D01*
X171640500Y-120400000D02*
X171177500Y-120863000D01*
X171640500Y-115125500D02*
X171640500Y-120400000D01*
%TO.N,CELL_17*%
X162877500Y-120459500D02*
X162877500Y-120663000D01*
X168211500Y-115125500D02*
X162877500Y-120459500D01*
%TO.N,CELL_18*%
X164782500Y-115125500D02*
X162433000Y-117475000D01*
X158115500Y-117475000D02*
X154727500Y-120863000D01*
X162433000Y-117475000D02*
X158115500Y-117475000D01*
%TO.N,CP_3*%
X161353500Y-115125500D02*
X159512000Y-116967000D01*
X159512000Y-116967000D02*
X153098500Y-116967000D01*
X153098500Y-116967000D02*
X152717500Y-116586000D01*
X152717500Y-110323000D02*
X152977500Y-110063000D01*
X152717500Y-116586000D02*
X152717500Y-110323000D01*
X161353500Y-115125500D02*
X163322000Y-113157000D01*
X170083500Y-113157000D02*
X173177500Y-110063000D01*
X163322000Y-113157000D02*
X170083500Y-113157000D01*
%TO.N,VDD*%
X159841000Y-85303000D02*
X159841000Y-84653000D01*
X156781500Y-82845900D02*
X156781500Y-79692500D01*
X158588600Y-84653000D02*
X156781500Y-82845900D01*
X159841000Y-84653000D02*
X158588600Y-84653000D01*
%TO.N,SCL3*%
X167369601Y-111757881D02*
X166414982Y-112712500D01*
X167369601Y-110891201D02*
X167369601Y-111757881D01*
X167293400Y-110815000D02*
X167369601Y-110891201D01*
X166041000Y-110815000D02*
X167293400Y-110815000D01*
X160337500Y-112712500D02*
X157924500Y-115125500D01*
X166414982Y-112712500D02*
X160337500Y-112712500D01*
%TO.N,SDA1*%
X165111390Y-86232610D02*
X156972390Y-86232610D01*
X156972390Y-86232610D02*
X154495500Y-88709500D01*
X166041000Y-85303000D02*
X165111390Y-86232610D01*
%TO.N,VDDA*%
X133742500Y-111528500D02*
X133742500Y-110878500D01*
X133742500Y-110878500D02*
X133742500Y-110228500D01*
X129970500Y-107708900D02*
X129970500Y-105332500D01*
X132490100Y-110228500D02*
X129970500Y-107708900D01*
X133742500Y-110228500D02*
X132490100Y-110228500D01*
%TO.N,VDDF*%
X159841000Y-109515000D02*
X159841000Y-110165000D01*
X159841000Y-110165000D02*
X159841000Y-110815000D01*
X159841000Y-110815000D02*
X159841000Y-111465000D01*
X159807000Y-109515000D02*
X159841000Y-109515000D01*
X155892500Y-105600500D02*
X159807000Y-109515000D01*
%TO.N,SCL2*%
X133807190Y-112826810D02*
X140919190Y-112826810D01*
X131254500Y-115379500D02*
X133807190Y-112826810D01*
X140919190Y-112826810D02*
X141922500Y-111823500D01*
X141922500Y-111823500D02*
X141922500Y-111379000D01*
X141422000Y-110878500D02*
X139942500Y-110878500D01*
X141922500Y-111379000D02*
X141422000Y-110878500D01*
%TO.N,SDA2*%
X139942500Y-111528500D02*
X139942500Y-111708000D01*
X139942500Y-111708000D02*
X139128500Y-112522000D01*
X130683000Y-112522000D02*
X127825500Y-115379500D01*
X139128500Y-112522000D02*
X130683000Y-112522000D01*
%TO.N,SDA3*%
X166041000Y-111465000D02*
X165111000Y-112395000D01*
X157289500Y-112395000D02*
X154559000Y-115125500D01*
X165111000Y-112395000D02*
X157289500Y-112395000D01*
%TO.N,SCL1*%
X167369601Y-85595881D02*
X166414982Y-86550500D01*
X167369601Y-84729201D02*
X167369601Y-85595881D01*
X167293400Y-84653000D02*
X167369601Y-84729201D01*
X166041000Y-84653000D02*
X167293400Y-84653000D01*
X160083500Y-86550500D02*
X157924500Y-88709500D01*
X166414982Y-86550500D02*
X160083500Y-86550500D01*
%TD*%
%TO.N,GND*%
X175039543Y-71128109D02*
X175776552Y-71619448D01*
X176267736Y-72356226D01*
X176517300Y-73604013D01*
X176517300Y-121336133D01*
X176268917Y-122081283D01*
X176017648Y-122584391D01*
X175772407Y-123074317D01*
X174284749Y-124066300D01*
X126309044Y-124066300D01*
X125061225Y-123816736D01*
X124318050Y-123321286D01*
X123826441Y-122829677D01*
X123329700Y-121587825D01*
X123329700Y-120801088D01*
X128000400Y-120801088D01*
X128000400Y-120924912D01*
X128024556Y-121046356D01*
X128071941Y-121160754D01*
X128140734Y-121263709D01*
X128228291Y-121351266D01*
X128331246Y-121420059D01*
X128445644Y-121467444D01*
X128567088Y-121491600D01*
X128690912Y-121491600D01*
X128812356Y-121467444D01*
X128926754Y-121420059D01*
X129029709Y-121351266D01*
X129117266Y-121263709D01*
X129181351Y-121167800D01*
X132741042Y-121167800D01*
X132756000Y-121169273D01*
X132770958Y-121167800D01*
X132770966Y-121167800D01*
X132815751Y-121163389D01*
X132873206Y-121145960D01*
X132926157Y-121117658D01*
X132972568Y-121079568D01*
X132982112Y-121067939D01*
X133448963Y-120601088D01*
X136150400Y-120601088D01*
X136150400Y-120724912D01*
X136174556Y-120846356D01*
X136221941Y-120960754D01*
X136290734Y-121063709D01*
X136378291Y-121151266D01*
X136481246Y-121220059D01*
X136595644Y-121267444D01*
X136717088Y-121291600D01*
X136840912Y-121291600D01*
X136962356Y-121267444D01*
X137076754Y-121220059D01*
X137179709Y-121151266D01*
X137267266Y-121063709D01*
X137336059Y-120960754D01*
X137383444Y-120846356D01*
X137407600Y-120724912D01*
X137407600Y-120601088D01*
X137383444Y-120479644D01*
X137336059Y-120365246D01*
X137297905Y-120308146D01*
X141168126Y-116437926D01*
X141213540Y-116468271D01*
X141437131Y-116560886D01*
X141674493Y-116608100D01*
X141916507Y-116608100D01*
X142153869Y-116560886D01*
X142377460Y-116468271D01*
X142578687Y-116333816D01*
X142749816Y-116162687D01*
X142884271Y-115961460D01*
X142976886Y-115737869D01*
X143024100Y-115500507D01*
X143024100Y-115258493D01*
X144122900Y-115258493D01*
X144122900Y-115500507D01*
X144170114Y-115737869D01*
X144262729Y-115961460D01*
X144397184Y-116162687D01*
X144568313Y-116333816D01*
X144769540Y-116468271D01*
X144993131Y-116560886D01*
X145046700Y-116571542D01*
X145046701Y-120234400D01*
X145017088Y-120234400D01*
X144895644Y-120258556D01*
X144781246Y-120305941D01*
X144678291Y-120374734D01*
X144590734Y-120462291D01*
X144521941Y-120565246D01*
X144474556Y-120679644D01*
X144450400Y-120801088D01*
X144450400Y-120924912D01*
X144474556Y-121046356D01*
X144521941Y-121160754D01*
X144590734Y-121263709D01*
X144678291Y-121351266D01*
X144781246Y-121420059D01*
X144895644Y-121467444D01*
X145017088Y-121491600D01*
X145140912Y-121491600D01*
X145262356Y-121467444D01*
X145376754Y-121420059D01*
X145479709Y-121351266D01*
X145567266Y-121263709D01*
X145636059Y-121160754D01*
X145683444Y-121046356D01*
X145707600Y-120924912D01*
X145707600Y-120801088D01*
X145683444Y-120679644D01*
X145655612Y-120612451D01*
X145656300Y-120605466D01*
X145656300Y-120605459D01*
X145657773Y-120590501D01*
X145656300Y-120575543D01*
X145656300Y-116571541D01*
X145709869Y-116560886D01*
X145933460Y-116468271D01*
X146134687Y-116333816D01*
X146305816Y-116162687D01*
X146440271Y-115961460D01*
X146532886Y-115737869D01*
X146580100Y-115500507D01*
X146580100Y-115258493D01*
X146532886Y-115021131D01*
X146440271Y-114797540D01*
X146305816Y-114596313D01*
X146134687Y-114425184D01*
X145933460Y-114290729D01*
X145709869Y-114198114D01*
X145472507Y-114150900D01*
X145230493Y-114150900D01*
X144993131Y-114198114D01*
X144769540Y-114290729D01*
X144568313Y-114425184D01*
X144397184Y-114596313D01*
X144262729Y-114797540D01*
X144170114Y-115021131D01*
X144122900Y-115258493D01*
X143024100Y-115258493D01*
X142976886Y-115021131D01*
X142884271Y-114797540D01*
X142749816Y-114596313D01*
X142578687Y-114425184D01*
X142377460Y-114290729D01*
X142153869Y-114198114D01*
X141916507Y-114150900D01*
X141674493Y-114150900D01*
X141437131Y-114198114D01*
X141213540Y-114290729D01*
X141012313Y-114425184D01*
X140841184Y-114596313D01*
X140706729Y-114797540D01*
X140614114Y-115021131D01*
X140566900Y-115258493D01*
X140566900Y-115500507D01*
X140614114Y-115737869D01*
X140706729Y-115961460D01*
X140737074Y-116006874D01*
X136707677Y-120036272D01*
X136595644Y-120058556D01*
X136481246Y-120105941D01*
X136378291Y-120174734D01*
X136290734Y-120262291D01*
X136221941Y-120365246D01*
X136174556Y-120479644D01*
X136150400Y-120601088D01*
X133448963Y-120601088D01*
X137612126Y-116437926D01*
X137657540Y-116468271D01*
X137881131Y-116560886D01*
X138118493Y-116608100D01*
X138360507Y-116608100D01*
X138597869Y-116560886D01*
X138821460Y-116468271D01*
X139022687Y-116333816D01*
X139193816Y-116162687D01*
X139328271Y-115961460D01*
X139420886Y-115737869D01*
X139468100Y-115500507D01*
X139468100Y-115258493D01*
X139420886Y-115021131D01*
X139328271Y-114797540D01*
X139193816Y-114596313D01*
X139022687Y-114425184D01*
X138821460Y-114290729D01*
X138597869Y-114198114D01*
X138360507Y-114150900D01*
X138118493Y-114150900D01*
X137881131Y-114198114D01*
X137657540Y-114290729D01*
X137456313Y-114425184D01*
X137285184Y-114596313D01*
X137150729Y-114797540D01*
X137058114Y-115021131D01*
X137010900Y-115258493D01*
X137010900Y-115500507D01*
X137058114Y-115737869D01*
X137150729Y-115961460D01*
X137181074Y-116006874D01*
X132629749Y-120558200D01*
X129181351Y-120558200D01*
X129117266Y-120462291D01*
X129029709Y-120374734D01*
X128926754Y-120305941D01*
X128812356Y-120258556D01*
X128690912Y-120234400D01*
X128567088Y-120234400D01*
X128445644Y-120258556D01*
X128331246Y-120305941D01*
X128228291Y-120374734D01*
X128140734Y-120462291D01*
X128071941Y-120565246D01*
X128024556Y-120679644D01*
X128000400Y-120801088D01*
X123329700Y-120801088D01*
X123329700Y-115189000D01*
X124725227Y-115189000D01*
X124726701Y-115203968D01*
X124726700Y-116571042D01*
X124725227Y-116586000D01*
X124726700Y-116600958D01*
X124726700Y-116600965D01*
X124731111Y-116645750D01*
X124748540Y-116703205D01*
X124776842Y-116756156D01*
X124814932Y-116802568D01*
X124826561Y-116812112D01*
X125821392Y-117806944D01*
X125830932Y-117818568D01*
X125877343Y-117856658D01*
X125930294Y-117884960D01*
X125987748Y-117902389D01*
X125992903Y-117902897D01*
X126032534Y-117906800D01*
X126032542Y-117906800D01*
X126047500Y-117908273D01*
X126062458Y-117906800D01*
X132446042Y-117906800D01*
X132461000Y-117908273D01*
X132475958Y-117906800D01*
X132475966Y-117906800D01*
X132520751Y-117902389D01*
X132578206Y-117884960D01*
X132631157Y-117856658D01*
X132677568Y-117818568D01*
X132687112Y-117806939D01*
X134056125Y-116437926D01*
X134101540Y-116468271D01*
X134325131Y-116560886D01*
X134562493Y-116608100D01*
X134804507Y-116608100D01*
X135041869Y-116560886D01*
X135265460Y-116468271D01*
X135466687Y-116333816D01*
X135637816Y-116162687D01*
X135772271Y-115961460D01*
X135864886Y-115737869D01*
X135912100Y-115500507D01*
X135912100Y-115258493D01*
X135864886Y-115021131D01*
X135772271Y-114797540D01*
X135741926Y-114752125D01*
X136778252Y-113715800D01*
X145146042Y-113715800D01*
X145161000Y-113717273D01*
X145175958Y-113715800D01*
X145175966Y-113715800D01*
X145220751Y-113711389D01*
X145278206Y-113693960D01*
X145331157Y-113665658D01*
X145377568Y-113627568D01*
X145387112Y-113615939D01*
X147283945Y-111719107D01*
X147295568Y-111709568D01*
X147333658Y-111663157D01*
X147361960Y-111610206D01*
X147379389Y-111552751D01*
X147383800Y-111507966D01*
X147383800Y-111507958D01*
X147385273Y-111493000D01*
X147383800Y-111478042D01*
X147383800Y-110615351D01*
X147479709Y-110551266D01*
X147567266Y-110463709D01*
X147636059Y-110360754D01*
X147683444Y-110246356D01*
X147707600Y-110124912D01*
X147707600Y-110001088D01*
X152348900Y-110001088D01*
X152348900Y-110124912D01*
X152373056Y-110246356D01*
X152412701Y-110342068D01*
X152412700Y-116571042D01*
X152411227Y-116586000D01*
X152412700Y-116600958D01*
X152412700Y-116600965D01*
X152417111Y-116645750D01*
X152434540Y-116703205D01*
X152462842Y-116756156D01*
X152500932Y-116802568D01*
X152512561Y-116812112D01*
X152872392Y-117171944D01*
X152881932Y-117183568D01*
X152928343Y-117221658D01*
X152981294Y-117249960D01*
X153021319Y-117262102D01*
X153038748Y-117267389D01*
X153044389Y-117267945D01*
X153083534Y-117271800D01*
X153083541Y-117271800D01*
X153098499Y-117273273D01*
X153113457Y-117271800D01*
X157887647Y-117271800D01*
X154902546Y-120256903D01*
X154789412Y-120234400D01*
X154665588Y-120234400D01*
X154544144Y-120258556D01*
X154429746Y-120305941D01*
X154326791Y-120374734D01*
X154239234Y-120462291D01*
X154170441Y-120565246D01*
X154123056Y-120679644D01*
X154098900Y-120801088D01*
X154098900Y-120924912D01*
X154123056Y-121046356D01*
X154170441Y-121160754D01*
X154239234Y-121263709D01*
X154326791Y-121351266D01*
X154429746Y-121420059D01*
X154544144Y-121467444D01*
X154665588Y-121491600D01*
X154789412Y-121491600D01*
X154910856Y-121467444D01*
X155025254Y-121420059D01*
X155128209Y-121351266D01*
X155215766Y-121263709D01*
X155284559Y-121160754D01*
X155331944Y-121046356D01*
X155356100Y-120924912D01*
X155356100Y-120801088D01*
X155333597Y-120687954D01*
X155420463Y-120601088D01*
X162248900Y-120601088D01*
X162248900Y-120724912D01*
X162273056Y-120846356D01*
X162320441Y-120960754D01*
X162389234Y-121063709D01*
X162476791Y-121151266D01*
X162579746Y-121220059D01*
X162694144Y-121267444D01*
X162815588Y-121291600D01*
X162939412Y-121291600D01*
X163060856Y-121267444D01*
X163175254Y-121220059D01*
X163278209Y-121151266D01*
X163365766Y-121063709D01*
X163434559Y-120960754D01*
X163481944Y-120846356D01*
X163506100Y-120724912D01*
X163506100Y-120601088D01*
X163481944Y-120479644D01*
X163434559Y-120365246D01*
X163421840Y-120346211D01*
X167584126Y-116183926D01*
X167629540Y-116214271D01*
X167853131Y-116306886D01*
X168090493Y-116354100D01*
X168332507Y-116354100D01*
X168569869Y-116306886D01*
X168793460Y-116214271D01*
X168994687Y-116079816D01*
X169165816Y-115908687D01*
X169300271Y-115707460D01*
X169392886Y-115483869D01*
X169440100Y-115246507D01*
X169440100Y-115004493D01*
X170411900Y-115004493D01*
X170411900Y-115246507D01*
X170459114Y-115483869D01*
X170551729Y-115707460D01*
X170686184Y-115908687D01*
X170857313Y-116079816D01*
X171058540Y-116214271D01*
X171282131Y-116306886D01*
X171335700Y-116317542D01*
X171335701Y-120253553D01*
X171239412Y-120234400D01*
X171115588Y-120234400D01*
X170994144Y-120258556D01*
X170879746Y-120305941D01*
X170776791Y-120374734D01*
X170689234Y-120462291D01*
X170620441Y-120565246D01*
X170573056Y-120679644D01*
X170548900Y-120801088D01*
X170548900Y-120924912D01*
X170573056Y-121046356D01*
X170620441Y-121160754D01*
X170689234Y-121263709D01*
X170776791Y-121351266D01*
X170879746Y-121420059D01*
X170994144Y-121467444D01*
X171115588Y-121491600D01*
X171239412Y-121491600D01*
X171360856Y-121467444D01*
X171475254Y-121420059D01*
X171578209Y-121351266D01*
X171665766Y-121263709D01*
X171734559Y-121160754D01*
X171781944Y-121046356D01*
X171806100Y-120924912D01*
X171806100Y-120801088D01*
X171783597Y-120687955D01*
X171845444Y-120626108D01*
X171857068Y-120616568D01*
X171895158Y-120570157D01*
X171923460Y-120517206D01*
X171924674Y-120513205D01*
X171940889Y-120459752D01*
X171941397Y-120454597D01*
X171945300Y-120414966D01*
X171945300Y-120414958D01*
X171946773Y-120400000D01*
X171945300Y-120385042D01*
X171945300Y-116317541D01*
X171998869Y-116306886D01*
X172222460Y-116214271D01*
X172423687Y-116079816D01*
X172594816Y-115908687D01*
X172729271Y-115707460D01*
X172821886Y-115483869D01*
X172869100Y-115246507D01*
X172869100Y-115004493D01*
X172821886Y-114767131D01*
X172729271Y-114543540D01*
X172594816Y-114342313D01*
X172423687Y-114171184D01*
X172222460Y-114036729D01*
X171998869Y-113944114D01*
X171761507Y-113896900D01*
X171519493Y-113896900D01*
X171282131Y-113944114D01*
X171058540Y-114036729D01*
X170857313Y-114171184D01*
X170686184Y-114342313D01*
X170551729Y-114543540D01*
X170459114Y-114767131D01*
X170411900Y-115004493D01*
X169440100Y-115004493D01*
X169392886Y-114767131D01*
X169300271Y-114543540D01*
X169165816Y-114342313D01*
X168994687Y-114171184D01*
X168793460Y-114036729D01*
X168569869Y-113944114D01*
X168332507Y-113896900D01*
X168090493Y-113896900D01*
X167853131Y-113944114D01*
X167629540Y-114036729D01*
X167428313Y-114171184D01*
X167257184Y-114342313D01*
X167122729Y-114543540D01*
X167030114Y-114767131D01*
X166982900Y-115004493D01*
X166982900Y-115246507D01*
X167030114Y-115483869D01*
X167122729Y-115707460D01*
X167153074Y-115752874D01*
X162871549Y-120034400D01*
X162815588Y-120034400D01*
X162694144Y-120058556D01*
X162579746Y-120105941D01*
X162476791Y-120174734D01*
X162389234Y-120262291D01*
X162320441Y-120365246D01*
X162273056Y-120479644D01*
X162248900Y-120601088D01*
X155420463Y-120601088D01*
X158241753Y-117779800D01*
X162418042Y-117779800D01*
X162433000Y-117781273D01*
X162447958Y-117779800D01*
X162447966Y-117779800D01*
X162492751Y-117775389D01*
X162550206Y-117757960D01*
X162603157Y-117729658D01*
X162649568Y-117691568D01*
X162659112Y-117679939D01*
X164155126Y-116183926D01*
X164200540Y-116214271D01*
X164424131Y-116306886D01*
X164661493Y-116354100D01*
X164903507Y-116354100D01*
X165140869Y-116306886D01*
X165364460Y-116214271D01*
X165565687Y-116079816D01*
X165736816Y-115908687D01*
X165871271Y-115707460D01*
X165963886Y-115483869D01*
X166011100Y-115246507D01*
X166011100Y-115004493D01*
X165963886Y-114767131D01*
X165871271Y-114543540D01*
X165736816Y-114342313D01*
X165565687Y-114171184D01*
X165364460Y-114036729D01*
X165140869Y-113944114D01*
X164903507Y-113896900D01*
X164661493Y-113896900D01*
X164424131Y-113944114D01*
X164200540Y-114036729D01*
X163999313Y-114171184D01*
X163828184Y-114342313D01*
X163693729Y-114543540D01*
X163601114Y-114767131D01*
X163553900Y-115004493D01*
X163553900Y-115246507D01*
X163601114Y-115483869D01*
X163693729Y-115707460D01*
X163724074Y-115752874D01*
X162306749Y-117170200D01*
X159739851Y-117170200D01*
X160726125Y-116183926D01*
X160771540Y-116214271D01*
X160995131Y-116306886D01*
X161232493Y-116354100D01*
X161474507Y-116354100D01*
X161711869Y-116306886D01*
X161935460Y-116214271D01*
X162136687Y-116079816D01*
X162307816Y-115908687D01*
X162442271Y-115707460D01*
X162534886Y-115483869D01*
X162582100Y-115246507D01*
X162582100Y-115004493D01*
X162534886Y-114767131D01*
X162442271Y-114543540D01*
X162411926Y-114498125D01*
X163448252Y-113461800D01*
X170068542Y-113461800D01*
X170083500Y-113463273D01*
X170098458Y-113461800D01*
X170098466Y-113461800D01*
X170143251Y-113457389D01*
X170200706Y-113439960D01*
X170253657Y-113411658D01*
X170300068Y-113373568D01*
X170309612Y-113361939D01*
X173002455Y-110669097D01*
X173115588Y-110691600D01*
X173239412Y-110691600D01*
X173360856Y-110667444D01*
X173475254Y-110620059D01*
X173578209Y-110551266D01*
X173665766Y-110463709D01*
X173734559Y-110360754D01*
X173781944Y-110246356D01*
X173806100Y-110124912D01*
X173806100Y-110001088D01*
X173781944Y-109879644D01*
X173734559Y-109765246D01*
X173665766Y-109662291D01*
X173578209Y-109574734D01*
X173475254Y-109505941D01*
X173360856Y-109458556D01*
X173239412Y-109434400D01*
X173115588Y-109434400D01*
X172994144Y-109458556D01*
X172879746Y-109505941D01*
X172776791Y-109574734D01*
X172689234Y-109662291D01*
X172620441Y-109765246D01*
X172573056Y-109879644D01*
X172548900Y-110001088D01*
X172548900Y-110124912D01*
X172571403Y-110238045D01*
X169957249Y-112852200D01*
X166706333Y-112852200D01*
X167574545Y-111983989D01*
X167586169Y-111974449D01*
X167624259Y-111928038D01*
X167652561Y-111875087D01*
X167666575Y-111828889D01*
X167669990Y-111817633D01*
X167671798Y-111799274D01*
X167674401Y-111772847D01*
X167674401Y-111772840D01*
X167675874Y-111757882D01*
X167674401Y-111742924D01*
X167674401Y-110906158D01*
X167675874Y-110891200D01*
X167674401Y-110876242D01*
X167674401Y-110876235D01*
X167669990Y-110831450D01*
X167652561Y-110773995D01*
X167624259Y-110721044D01*
X167586169Y-110674633D01*
X167574541Y-110665090D01*
X167519512Y-110610061D01*
X167509968Y-110598432D01*
X167463557Y-110560342D01*
X167410606Y-110532040D01*
X167353151Y-110514611D01*
X167308366Y-110510200D01*
X167308358Y-110510200D01*
X167293400Y-110508727D01*
X167278442Y-110510200D01*
X167261497Y-110510200D01*
X167228905Y-110492779D01*
X167219743Y-110490000D01*
X167228905Y-110487221D01*
X167268618Y-110465994D01*
X167303427Y-110437427D01*
X167331994Y-110402618D01*
X167353221Y-110362905D01*
X167366292Y-110319813D01*
X167370706Y-110275000D01*
X167370706Y-110055000D01*
X167366292Y-110010187D01*
X167353221Y-109967095D01*
X167331994Y-109927382D01*
X167314881Y-109906529D01*
X167324644Y-109901342D01*
X167375027Y-109860205D01*
X167416416Y-109810029D01*
X167447222Y-109752743D01*
X167466259Y-109690547D01*
X167471200Y-109631350D01*
X167388650Y-109548800D01*
X166091800Y-109548800D01*
X166091800Y-109585800D01*
X165990200Y-109585800D01*
X165990200Y-109548800D01*
X165226600Y-109548800D01*
X165226600Y-109481200D01*
X165990200Y-109481200D01*
X165990200Y-109157350D01*
X166091800Y-109157350D01*
X166091800Y-109481200D01*
X167388650Y-109481200D01*
X167471200Y-109398650D01*
X167466259Y-109339453D01*
X167447222Y-109277257D01*
X167416416Y-109219971D01*
X167375027Y-109169795D01*
X167324644Y-109128658D01*
X167267204Y-109098141D01*
X167204914Y-109079416D01*
X167140167Y-109073203D01*
X166174350Y-109074800D01*
X166091800Y-109157350D01*
X165990200Y-109157350D01*
X165907650Y-109074800D01*
X165226600Y-109073674D01*
X165226600Y-108851459D01*
X165227827Y-108839000D01*
X165222931Y-108789286D01*
X165208429Y-108741482D01*
X165184881Y-108697426D01*
X165153190Y-108658810D01*
X165114574Y-108627119D01*
X165070518Y-108603571D01*
X165022714Y-108589069D01*
X164985459Y-108585400D01*
X164973000Y-108584173D01*
X164960541Y-108585400D01*
X160921459Y-108585400D01*
X160909000Y-108584173D01*
X160896541Y-108585400D01*
X160859286Y-108589069D01*
X160811482Y-108603571D01*
X160767426Y-108627119D01*
X160728810Y-108658810D01*
X160697119Y-108697426D01*
X160673571Y-108741482D01*
X160659069Y-108789286D01*
X160654173Y-108839000D01*
X160655400Y-108851459D01*
X160655400Y-109175294D01*
X159898346Y-109175294D01*
X157245518Y-106522466D01*
X158407876Y-106522466D01*
X158514011Y-106710939D01*
X158744942Y-106834748D01*
X158995590Y-106911125D01*
X159256323Y-106937135D01*
X159517120Y-106911779D01*
X159767959Y-106836031D01*
X159999201Y-106712803D01*
X160001989Y-106710939D01*
X160108124Y-106522466D01*
X159258000Y-105672342D01*
X158407876Y-106522466D01*
X157245518Y-106522466D01*
X156950926Y-106227875D01*
X156981271Y-106182460D01*
X157073886Y-105958869D01*
X157121100Y-105721507D01*
X157121100Y-105598823D01*
X157921365Y-105598823D01*
X157946721Y-105859620D01*
X158022469Y-106110459D01*
X158145697Y-106341701D01*
X158147561Y-106344489D01*
X158336034Y-106450624D01*
X159186158Y-105600500D01*
X159329842Y-105600500D01*
X160179966Y-106450624D01*
X160368439Y-106344489D01*
X160492248Y-106113558D01*
X160568625Y-105862910D01*
X160594635Y-105602177D01*
X160569279Y-105341380D01*
X160493531Y-105090541D01*
X160370303Y-104859299D01*
X160368439Y-104856511D01*
X160179966Y-104750376D01*
X159329842Y-105600500D01*
X159186158Y-105600500D01*
X158336034Y-104750376D01*
X158147561Y-104856511D01*
X158023752Y-105087442D01*
X157947375Y-105338090D01*
X157921365Y-105598823D01*
X157121100Y-105598823D01*
X157121100Y-105479493D01*
X157073886Y-105242131D01*
X156981271Y-105018540D01*
X156846816Y-104817313D01*
X156708037Y-104678534D01*
X158407876Y-104678534D01*
X159258000Y-105528658D01*
X160108124Y-104678534D01*
X160001989Y-104490061D01*
X159771058Y-104366252D01*
X159520410Y-104289875D01*
X159259677Y-104263865D01*
X158998880Y-104289221D01*
X158748041Y-104364969D01*
X158516799Y-104488197D01*
X158514011Y-104490061D01*
X158407876Y-104678534D01*
X156708037Y-104678534D01*
X156675687Y-104646184D01*
X156474460Y-104511729D01*
X156250869Y-104419114D01*
X156013507Y-104371900D01*
X155771493Y-104371900D01*
X155534131Y-104419114D01*
X155310540Y-104511729D01*
X155109313Y-104646184D01*
X154938184Y-104817313D01*
X154803729Y-105018540D01*
X154711114Y-105242131D01*
X154663900Y-105479493D01*
X154663900Y-105721507D01*
X154711114Y-105958869D01*
X154803729Y-106182460D01*
X154938184Y-106383687D01*
X155109313Y-106554816D01*
X155310540Y-106689271D01*
X155534131Y-106781886D01*
X155771493Y-106829100D01*
X156013507Y-106829100D01*
X156250869Y-106781886D01*
X156474460Y-106689271D01*
X156519875Y-106658926D01*
X159036242Y-109175294D01*
X158741000Y-109175294D01*
X158696187Y-109179708D01*
X158653095Y-109192779D01*
X158613382Y-109214006D01*
X158578573Y-109242573D01*
X158550006Y-109277382D01*
X158528779Y-109317095D01*
X158515708Y-109360187D01*
X158511294Y-109405000D01*
X158511294Y-109625000D01*
X158515708Y-109669813D01*
X158528779Y-109712905D01*
X158550006Y-109752618D01*
X158578573Y-109787427D01*
X158613382Y-109815994D01*
X158653095Y-109837221D01*
X158662257Y-109840000D01*
X158653095Y-109842779D01*
X158613382Y-109864006D01*
X158578573Y-109892573D01*
X158550006Y-109927382D01*
X158528779Y-109967095D01*
X158515708Y-110010187D01*
X158511294Y-110055000D01*
X158511294Y-110275000D01*
X158515708Y-110319813D01*
X158528779Y-110362905D01*
X158550006Y-110402618D01*
X158578573Y-110437427D01*
X158613382Y-110465994D01*
X158653095Y-110487221D01*
X158662257Y-110490000D01*
X158653095Y-110492779D01*
X158613382Y-110514006D01*
X158578573Y-110542573D01*
X158550006Y-110577382D01*
X158528779Y-110617095D01*
X158515708Y-110660187D01*
X158511294Y-110705000D01*
X158511294Y-110925000D01*
X158515708Y-110969813D01*
X158528779Y-111012905D01*
X158550006Y-111052618D01*
X158578573Y-111087427D01*
X158613382Y-111115994D01*
X158653095Y-111137221D01*
X158662257Y-111140000D01*
X158653095Y-111142779D01*
X158613382Y-111164006D01*
X158578573Y-111192573D01*
X158550006Y-111227382D01*
X158528779Y-111267095D01*
X158515708Y-111310187D01*
X158511294Y-111355000D01*
X158511294Y-111575000D01*
X158515708Y-111619813D01*
X158528779Y-111662905D01*
X158550006Y-111702618D01*
X158578573Y-111737427D01*
X158613382Y-111765994D01*
X158653095Y-111787221D01*
X158696187Y-111800292D01*
X158741000Y-111804706D01*
X160655401Y-111804706D01*
X160655401Y-112090200D01*
X157304457Y-112090200D01*
X157289499Y-112088727D01*
X157274541Y-112090200D01*
X157274534Y-112090200D01*
X157235389Y-112094055D01*
X157229748Y-112094611D01*
X157216376Y-112098668D01*
X157172294Y-112112040D01*
X157119343Y-112140342D01*
X157072932Y-112178432D01*
X157063392Y-112190056D01*
X155186375Y-114067074D01*
X155140960Y-114036729D01*
X154917369Y-113944114D01*
X154680007Y-113896900D01*
X154437993Y-113896900D01*
X154200631Y-113944114D01*
X153977040Y-114036729D01*
X153775813Y-114171184D01*
X153604684Y-114342313D01*
X153470229Y-114543540D01*
X153377614Y-114767131D01*
X153330400Y-115004493D01*
X153330400Y-115246507D01*
X153377614Y-115483869D01*
X153470229Y-115707460D01*
X153604684Y-115908687D01*
X153775813Y-116079816D01*
X153977040Y-116214271D01*
X154200631Y-116306886D01*
X154437993Y-116354100D01*
X154680007Y-116354100D01*
X154917369Y-116306886D01*
X155140960Y-116214271D01*
X155342187Y-116079816D01*
X155513316Y-115908687D01*
X155647771Y-115707460D01*
X155740386Y-115483869D01*
X155787600Y-115246507D01*
X155787600Y-115004493D01*
X155740386Y-114767131D01*
X155647771Y-114543540D01*
X155617426Y-114498125D01*
X157415752Y-112699800D01*
X159919148Y-112699800D01*
X158551875Y-114067074D01*
X158506460Y-114036729D01*
X158282869Y-113944114D01*
X158045507Y-113896900D01*
X157803493Y-113896900D01*
X157566131Y-113944114D01*
X157342540Y-114036729D01*
X157141313Y-114171184D01*
X156970184Y-114342313D01*
X156835729Y-114543540D01*
X156743114Y-114767131D01*
X156695900Y-115004493D01*
X156695900Y-115246507D01*
X156743114Y-115483869D01*
X156835729Y-115707460D01*
X156970184Y-115908687D01*
X157141313Y-116079816D01*
X157342540Y-116214271D01*
X157566131Y-116306886D01*
X157803493Y-116354100D01*
X158045507Y-116354100D01*
X158282869Y-116306886D01*
X158506460Y-116214271D01*
X158707687Y-116079816D01*
X158878816Y-115908687D01*
X159013271Y-115707460D01*
X159105886Y-115483869D01*
X159153100Y-115246507D01*
X159153100Y-115004493D01*
X159105886Y-114767131D01*
X159013271Y-114543540D01*
X158982926Y-114498125D01*
X160463752Y-113017300D01*
X163030648Y-113017300D01*
X161980875Y-114067074D01*
X161935460Y-114036729D01*
X161711869Y-113944114D01*
X161474507Y-113896900D01*
X161232493Y-113896900D01*
X160995131Y-113944114D01*
X160771540Y-114036729D01*
X160570313Y-114171184D01*
X160399184Y-114342313D01*
X160264729Y-114543540D01*
X160172114Y-114767131D01*
X160124900Y-115004493D01*
X160124900Y-115246507D01*
X160172114Y-115483869D01*
X160264729Y-115707460D01*
X160295074Y-115752875D01*
X159385749Y-116662200D01*
X153224752Y-116662200D01*
X153022300Y-116459749D01*
X153022300Y-110691600D01*
X153039412Y-110691600D01*
X153160856Y-110667444D01*
X153275254Y-110620059D01*
X153378209Y-110551266D01*
X153465766Y-110463709D01*
X153534559Y-110360754D01*
X153581944Y-110246356D01*
X153606100Y-110124912D01*
X153606100Y-110001088D01*
X153581944Y-109879644D01*
X153534559Y-109765246D01*
X153465766Y-109662291D01*
X153378209Y-109574734D01*
X153275254Y-109505941D01*
X153160856Y-109458556D01*
X153039412Y-109434400D01*
X152915588Y-109434400D01*
X152794144Y-109458556D01*
X152679746Y-109505941D01*
X152576791Y-109574734D01*
X152489234Y-109662291D01*
X152420441Y-109765246D01*
X152373056Y-109879644D01*
X152348900Y-110001088D01*
X147707600Y-110001088D01*
X147683444Y-109879644D01*
X147636059Y-109765246D01*
X147567266Y-109662291D01*
X147479709Y-109574734D01*
X147376754Y-109505941D01*
X147262356Y-109458556D01*
X147140912Y-109434400D01*
X147017088Y-109434400D01*
X146895644Y-109458556D01*
X146781246Y-109505941D01*
X146678291Y-109574734D01*
X146590734Y-109662291D01*
X146521941Y-109765246D01*
X146474556Y-109879644D01*
X146450400Y-110001088D01*
X146450400Y-110124912D01*
X146474556Y-110246356D01*
X146521941Y-110360754D01*
X146590734Y-110463709D01*
X146678291Y-110551266D01*
X146774201Y-110615351D01*
X146774200Y-111366748D01*
X145034749Y-113106200D01*
X141043075Y-113106200D01*
X141089347Y-113081468D01*
X141135758Y-113043378D01*
X141145302Y-113031749D01*
X142127445Y-112049607D01*
X142139068Y-112040068D01*
X142177158Y-111993657D01*
X142205460Y-111940706D01*
X142222889Y-111883251D01*
X142227300Y-111838466D01*
X142227300Y-111838458D01*
X142228773Y-111823500D01*
X142227300Y-111808542D01*
X142227300Y-111393958D01*
X142228773Y-111379000D01*
X142227300Y-111364042D01*
X142227300Y-111364034D01*
X142222889Y-111319249D01*
X142220670Y-111311932D01*
X142205460Y-111261794D01*
X142193219Y-111238892D01*
X142177158Y-111208843D01*
X142139068Y-111162432D01*
X142127444Y-111152892D01*
X141648112Y-110673561D01*
X141638568Y-110661932D01*
X141592157Y-110623842D01*
X141539206Y-110595540D01*
X141481751Y-110578111D01*
X141436966Y-110573700D01*
X141436958Y-110573700D01*
X141422000Y-110572227D01*
X141407042Y-110573700D01*
X141162997Y-110573700D01*
X141130405Y-110556279D01*
X141121243Y-110553500D01*
X141130405Y-110550721D01*
X141170118Y-110529494D01*
X141204927Y-110500927D01*
X141233494Y-110466118D01*
X141254721Y-110426405D01*
X141267792Y-110383313D01*
X141272206Y-110338500D01*
X141272206Y-110118500D01*
X141267792Y-110073687D01*
X141254721Y-110030595D01*
X141233494Y-109990882D01*
X141216381Y-109970029D01*
X141226144Y-109964842D01*
X141276527Y-109923705D01*
X141317916Y-109873529D01*
X141348722Y-109816243D01*
X141367759Y-109754047D01*
X141372700Y-109694850D01*
X141290150Y-109612300D01*
X139993300Y-109612300D01*
X139993300Y-109649300D01*
X139891700Y-109649300D01*
X139891700Y-109612300D01*
X139128100Y-109612300D01*
X139128100Y-109544700D01*
X139891700Y-109544700D01*
X139891700Y-109220850D01*
X139993300Y-109220850D01*
X139993300Y-109544700D01*
X141290150Y-109544700D01*
X141372700Y-109462150D01*
X141367759Y-109402953D01*
X141348722Y-109340757D01*
X141317916Y-109283471D01*
X141276527Y-109233295D01*
X141226144Y-109192158D01*
X141168704Y-109161641D01*
X141106414Y-109142916D01*
X141041667Y-109136703D01*
X140075850Y-109138300D01*
X139993300Y-109220850D01*
X139891700Y-109220850D01*
X139809150Y-109138300D01*
X139128100Y-109137174D01*
X139128100Y-108914959D01*
X139129327Y-108902500D01*
X139124431Y-108852786D01*
X139109929Y-108804982D01*
X139086381Y-108760926D01*
X139054690Y-108722310D01*
X139016074Y-108690619D01*
X138972018Y-108667071D01*
X138924214Y-108652569D01*
X138886959Y-108648900D01*
X138874500Y-108647673D01*
X138862041Y-108648900D01*
X134822959Y-108648900D01*
X134810500Y-108647673D01*
X134798041Y-108648900D01*
X134760786Y-108652569D01*
X134712982Y-108667071D01*
X134668926Y-108690619D01*
X134630310Y-108722310D01*
X134598619Y-108760926D01*
X134575071Y-108804982D01*
X134560569Y-108852786D01*
X134555673Y-108902500D01*
X134556900Y-108914959D01*
X134556900Y-109137174D01*
X133875850Y-109138300D01*
X133793300Y-109220850D01*
X133793300Y-109544700D01*
X134556900Y-109544700D01*
X134556900Y-109612300D01*
X133793300Y-109612300D01*
X133793300Y-109649300D01*
X133691700Y-109649300D01*
X133691700Y-109612300D01*
X132394850Y-109612300D01*
X132349901Y-109657249D01*
X132154802Y-109462150D01*
X132312300Y-109462150D01*
X132394850Y-109544700D01*
X133691700Y-109544700D01*
X133691700Y-109220850D01*
X133609150Y-109138300D01*
X132643333Y-109136703D01*
X132578586Y-109142916D01*
X132516296Y-109161641D01*
X132458856Y-109192158D01*
X132408473Y-109233295D01*
X132367084Y-109283471D01*
X132336278Y-109340757D01*
X132317241Y-109402953D01*
X132312300Y-109462150D01*
X132154802Y-109462150D01*
X130275300Y-107582649D01*
X130275300Y-106524541D01*
X130328869Y-106513886D01*
X130552460Y-106421271D01*
X130753687Y-106286816D01*
X130786037Y-106254466D01*
X132563376Y-106254466D01*
X132669511Y-106442939D01*
X132900442Y-106566748D01*
X133151090Y-106643125D01*
X133411823Y-106669135D01*
X133672620Y-106643779D01*
X133923459Y-106568031D01*
X134154701Y-106444803D01*
X134157489Y-106442939D01*
X134263624Y-106254466D01*
X133413500Y-105404342D01*
X132563376Y-106254466D01*
X130786037Y-106254466D01*
X130924816Y-106115687D01*
X131059271Y-105914460D01*
X131151886Y-105690869D01*
X131199100Y-105453507D01*
X131199100Y-105330823D01*
X132076865Y-105330823D01*
X132102221Y-105591620D01*
X132177969Y-105842459D01*
X132301197Y-106073701D01*
X132303061Y-106076489D01*
X132491534Y-106182624D01*
X133341658Y-105332500D01*
X133485342Y-105332500D01*
X134335466Y-106182624D01*
X134523939Y-106076489D01*
X134647748Y-105845558D01*
X134724125Y-105594910D01*
X134750135Y-105334177D01*
X134724779Y-105073380D01*
X134649031Y-104822541D01*
X134525803Y-104591299D01*
X134523939Y-104588511D01*
X134335466Y-104482376D01*
X133485342Y-105332500D01*
X133341658Y-105332500D01*
X132491534Y-104482376D01*
X132303061Y-104588511D01*
X132179252Y-104819442D01*
X132102875Y-105070090D01*
X132076865Y-105330823D01*
X131199100Y-105330823D01*
X131199100Y-105211493D01*
X131151886Y-104974131D01*
X131059271Y-104750540D01*
X130924816Y-104549313D01*
X130786037Y-104410534D01*
X132563376Y-104410534D01*
X133413500Y-105260658D01*
X134263624Y-104410534D01*
X134157489Y-104222061D01*
X133926558Y-104098252D01*
X133675910Y-104021875D01*
X133415177Y-103995865D01*
X133154380Y-104021221D01*
X132903541Y-104096969D01*
X132672299Y-104220197D01*
X132669511Y-104222061D01*
X132563376Y-104410534D01*
X130786037Y-104410534D01*
X130753687Y-104378184D01*
X130552460Y-104243729D01*
X130328869Y-104151114D01*
X130091507Y-104103900D01*
X129849493Y-104103900D01*
X129612131Y-104151114D01*
X129388540Y-104243729D01*
X129187313Y-104378184D01*
X129016184Y-104549313D01*
X128881729Y-104750540D01*
X128789114Y-104974131D01*
X128741900Y-105211493D01*
X128741900Y-105453507D01*
X128789114Y-105690869D01*
X128881729Y-105914460D01*
X129016184Y-106115687D01*
X129187313Y-106286816D01*
X129388540Y-106421271D01*
X129612131Y-106513886D01*
X129665700Y-106524542D01*
X129665700Y-107693942D01*
X129664227Y-107708900D01*
X129665700Y-107723858D01*
X129665700Y-107723865D01*
X129670111Y-107768650D01*
X129687540Y-107826105D01*
X129715842Y-107879056D01*
X129753932Y-107925468D01*
X129765561Y-107935012D01*
X132263992Y-110433444D01*
X132273532Y-110445068D01*
X132319943Y-110483158D01*
X132372894Y-110511460D01*
X132412919Y-110523602D01*
X132430348Y-110528889D01*
X132435989Y-110529445D01*
X132475134Y-110533300D01*
X132475141Y-110533300D01*
X132490099Y-110534773D01*
X132505057Y-110533300D01*
X132522003Y-110533300D01*
X132554595Y-110550721D01*
X132563757Y-110553500D01*
X132554595Y-110556279D01*
X132514882Y-110577506D01*
X132480073Y-110606073D01*
X132451506Y-110640882D01*
X132430279Y-110680595D01*
X132417208Y-110723687D01*
X132412794Y-110768500D01*
X132412794Y-110988500D01*
X132417208Y-111033313D01*
X132430279Y-111076405D01*
X132451506Y-111116118D01*
X132480073Y-111150927D01*
X132514882Y-111179494D01*
X132554595Y-111200721D01*
X132563757Y-111203500D01*
X132554595Y-111206279D01*
X132514882Y-111227506D01*
X132480073Y-111256073D01*
X132451506Y-111290882D01*
X132430279Y-111330595D01*
X132417208Y-111373687D01*
X132412794Y-111418500D01*
X132412794Y-111638500D01*
X132417208Y-111683313D01*
X132430279Y-111726405D01*
X132451506Y-111766118D01*
X132480073Y-111800927D01*
X132514882Y-111829494D01*
X132554595Y-111850721D01*
X132597687Y-111863792D01*
X132642500Y-111868206D01*
X134556901Y-111868206D01*
X134556901Y-112192031D01*
X134555673Y-112204500D01*
X134556924Y-112217200D01*
X130697957Y-112217200D01*
X130682999Y-112215727D01*
X130668041Y-112217200D01*
X130668034Y-112217200D01*
X130628889Y-112221055D01*
X130623248Y-112221611D01*
X130612591Y-112224844D01*
X130565794Y-112239040D01*
X130512843Y-112267342D01*
X130466432Y-112305432D01*
X130456892Y-112317056D01*
X128452875Y-114321074D01*
X128407460Y-114290729D01*
X128183869Y-114198114D01*
X127946507Y-114150900D01*
X127704493Y-114150900D01*
X127467131Y-114198114D01*
X127243540Y-114290729D01*
X127042313Y-114425184D01*
X126871184Y-114596313D01*
X126736729Y-114797540D01*
X126644114Y-115021131D01*
X126596900Y-115258493D01*
X126596900Y-115500507D01*
X126644114Y-115737869D01*
X126736729Y-115961460D01*
X126871184Y-116162687D01*
X127042313Y-116333816D01*
X127243540Y-116468271D01*
X127467131Y-116560886D01*
X127704493Y-116608100D01*
X127946507Y-116608100D01*
X128183869Y-116560886D01*
X128407460Y-116468271D01*
X128608687Y-116333816D01*
X128779816Y-116162687D01*
X128914271Y-115961460D01*
X129006886Y-115737869D01*
X129054100Y-115500507D01*
X129054100Y-115258493D01*
X129006886Y-115021131D01*
X128914271Y-114797540D01*
X128883926Y-114752125D01*
X130809252Y-112826800D01*
X133376148Y-112826800D01*
X131881875Y-114321074D01*
X131836460Y-114290729D01*
X131612869Y-114198114D01*
X131375507Y-114150900D01*
X131133493Y-114150900D01*
X130896131Y-114198114D01*
X130672540Y-114290729D01*
X130471313Y-114425184D01*
X130300184Y-114596313D01*
X130165729Y-114797540D01*
X130073114Y-115021131D01*
X130025900Y-115258493D01*
X130025900Y-115500507D01*
X130073114Y-115737869D01*
X130165729Y-115961460D01*
X130300184Y-116162687D01*
X130471313Y-116333816D01*
X130672540Y-116468271D01*
X130896131Y-116560886D01*
X131133493Y-116608100D01*
X131375507Y-116608100D01*
X131612869Y-116560886D01*
X131836460Y-116468271D01*
X132037687Y-116333816D01*
X132208816Y-116162687D01*
X132343271Y-115961460D01*
X132435886Y-115737869D01*
X132483100Y-115500507D01*
X132483100Y-115258493D01*
X132435886Y-115021131D01*
X132343271Y-114797540D01*
X132312926Y-114752125D01*
X133933442Y-113131610D01*
X136528115Y-113131610D01*
X136481843Y-113156342D01*
X136435432Y-113194432D01*
X136425892Y-113206056D01*
X135310875Y-114321074D01*
X135265460Y-114290729D01*
X135041869Y-114198114D01*
X134804507Y-114150900D01*
X134562493Y-114150900D01*
X134325131Y-114198114D01*
X134101540Y-114290729D01*
X133900313Y-114425184D01*
X133729184Y-114596313D01*
X133594729Y-114797540D01*
X133502114Y-115021131D01*
X133454900Y-115258493D01*
X133454900Y-115500507D01*
X133502114Y-115737869D01*
X133594729Y-115961460D01*
X133625074Y-116006875D01*
X132334749Y-117297200D01*
X126173752Y-117297200D01*
X125336300Y-116459749D01*
X125336300Y-115315251D01*
X127083951Y-113567602D01*
X127095568Y-113558068D01*
X127105103Y-113546450D01*
X127105109Y-113546444D01*
X127120077Y-113528205D01*
X127133658Y-113511657D01*
X127161960Y-113458706D01*
X127179389Y-113401251D01*
X127183800Y-113356466D01*
X127183800Y-113356458D01*
X127185273Y-113341500D01*
X127183800Y-113326542D01*
X127183800Y-110615351D01*
X127279709Y-110551266D01*
X127367266Y-110463709D01*
X127436059Y-110360754D01*
X127483444Y-110246356D01*
X127507600Y-110124912D01*
X127507600Y-110001088D01*
X127483444Y-109879644D01*
X127436059Y-109765246D01*
X127367266Y-109662291D01*
X127279709Y-109574734D01*
X127176754Y-109505941D01*
X127062356Y-109458556D01*
X126940912Y-109434400D01*
X126817088Y-109434400D01*
X126695644Y-109458556D01*
X126581246Y-109505941D01*
X126478291Y-109574734D01*
X126390734Y-109662291D01*
X126321941Y-109765246D01*
X126274556Y-109879644D01*
X126250400Y-110001088D01*
X126250400Y-110124912D01*
X126274556Y-110246356D01*
X126321941Y-110360754D01*
X126390734Y-110463709D01*
X126478291Y-110551266D01*
X126574201Y-110615352D01*
X126574200Y-113215247D01*
X124826557Y-114962892D01*
X124814933Y-114972432D01*
X124776843Y-115018843D01*
X124761715Y-115047146D01*
X124748540Y-115071795D01*
X124731111Y-115129249D01*
X124725227Y-115189000D01*
X123329700Y-115189000D01*
X123329700Y-100201088D01*
X128000400Y-100201088D01*
X128000400Y-100324912D01*
X128024556Y-100446356D01*
X128071941Y-100560754D01*
X128140734Y-100663709D01*
X128228291Y-100751266D01*
X128331246Y-100820059D01*
X128445644Y-100867444D01*
X128567088Y-100891600D01*
X128690912Y-100891600D01*
X128812356Y-100867444D01*
X128926754Y-100820059D01*
X129029709Y-100751266D01*
X129117266Y-100663709D01*
X129181351Y-100567800D01*
X131632749Y-100567800D01*
X135784074Y-104719126D01*
X135753729Y-104764540D01*
X135661114Y-104988131D01*
X135613900Y-105225493D01*
X135613900Y-105467507D01*
X135661114Y-105704869D01*
X135753729Y-105928460D01*
X135888184Y-106129687D01*
X136059313Y-106300816D01*
X136260540Y-106435271D01*
X136484131Y-106527886D01*
X136721493Y-106575100D01*
X136963507Y-106575100D01*
X137200869Y-106527886D01*
X137424460Y-106435271D01*
X137625687Y-106300816D01*
X137796816Y-106129687D01*
X137931271Y-105928460D01*
X138023886Y-105704869D01*
X138071100Y-105467507D01*
X138071100Y-105225493D01*
X138023886Y-104988131D01*
X137931271Y-104764540D01*
X137796816Y-104563313D01*
X137625687Y-104392184D01*
X137424460Y-104257729D01*
X137200869Y-104165114D01*
X136963507Y-104117900D01*
X136721493Y-104117900D01*
X136484131Y-104165114D01*
X136260540Y-104257729D01*
X136215126Y-104288074D01*
X132228140Y-100301088D01*
X136200400Y-100301088D01*
X136200400Y-100424912D01*
X136224556Y-100546356D01*
X136271941Y-100660754D01*
X136340734Y-100763709D01*
X136428291Y-100851266D01*
X136531246Y-100920059D01*
X136645644Y-100967444D01*
X136767088Y-100991600D01*
X136890912Y-100991600D01*
X137004046Y-100969097D01*
X139966701Y-103931753D01*
X139966701Y-104154458D01*
X139913131Y-104165114D01*
X139689540Y-104257729D01*
X139488313Y-104392184D01*
X139317184Y-104563313D01*
X139182729Y-104764540D01*
X139090114Y-104988131D01*
X139042900Y-105225493D01*
X139042900Y-105467507D01*
X139090114Y-105704869D01*
X139182729Y-105928460D01*
X139317184Y-106129687D01*
X139488313Y-106300816D01*
X139689540Y-106435271D01*
X139913131Y-106527886D01*
X140150493Y-106575100D01*
X140392507Y-106575100D01*
X140629869Y-106527886D01*
X140853460Y-106435271D01*
X141054687Y-106300816D01*
X141225816Y-106129687D01*
X141360271Y-105928460D01*
X141452886Y-105704869D01*
X141500100Y-105467507D01*
X141500100Y-105225493D01*
X142471900Y-105225493D01*
X142471900Y-105467507D01*
X142519114Y-105704869D01*
X142611729Y-105928460D01*
X142746184Y-106129687D01*
X142917313Y-106300816D01*
X143118540Y-106435271D01*
X143342131Y-106527886D01*
X143579493Y-106575100D01*
X143821507Y-106575100D01*
X144058869Y-106527886D01*
X144282460Y-106435271D01*
X144483687Y-106300816D01*
X144654816Y-106129687D01*
X144789271Y-105928460D01*
X144881886Y-105704869D01*
X144929100Y-105467507D01*
X144929100Y-105225493D01*
X144881886Y-104988131D01*
X144789271Y-104764540D01*
X144654816Y-104563313D01*
X144483687Y-104392184D01*
X144282460Y-104257729D01*
X144058869Y-104165114D01*
X144005300Y-104154459D01*
X144005300Y-101767751D01*
X144903955Y-100869097D01*
X145017088Y-100891600D01*
X145140912Y-100891600D01*
X145262356Y-100867444D01*
X145376754Y-100820059D01*
X145479709Y-100751266D01*
X145567266Y-100663709D01*
X145636059Y-100560754D01*
X145683444Y-100446356D01*
X145707600Y-100324912D01*
X145707600Y-100201088D01*
X154098900Y-100201088D01*
X154098900Y-100324912D01*
X154123056Y-100446356D01*
X154170441Y-100560754D01*
X154239234Y-100663709D01*
X154326791Y-100751266D01*
X154429746Y-100820059D01*
X154544144Y-100867444D01*
X154665588Y-100891600D01*
X154789412Y-100891600D01*
X154910856Y-100867444D01*
X155025254Y-100820059D01*
X155128209Y-100751266D01*
X155215766Y-100663709D01*
X155279851Y-100567800D01*
X157286749Y-100567800D01*
X161692074Y-104973126D01*
X161661729Y-105018540D01*
X161569114Y-105242131D01*
X161521900Y-105479493D01*
X161521900Y-105721507D01*
X161569114Y-105958869D01*
X161661729Y-106182460D01*
X161796184Y-106383687D01*
X161967313Y-106554816D01*
X162168540Y-106689271D01*
X162392131Y-106781886D01*
X162629493Y-106829100D01*
X162871507Y-106829100D01*
X163108869Y-106781886D01*
X163332460Y-106689271D01*
X163533687Y-106554816D01*
X163704816Y-106383687D01*
X163839271Y-106182460D01*
X163931886Y-105958869D01*
X163979100Y-105721507D01*
X163979100Y-105479493D01*
X163931886Y-105242131D01*
X163839271Y-105018540D01*
X163704816Y-104817313D01*
X163533687Y-104646184D01*
X163332460Y-104511729D01*
X163108869Y-104419114D01*
X162871507Y-104371900D01*
X162629493Y-104371900D01*
X162392131Y-104419114D01*
X162168540Y-104511729D01*
X162123126Y-104542074D01*
X157882140Y-100301088D01*
X162298900Y-100301088D01*
X162298900Y-100424912D01*
X162323056Y-100546356D01*
X162370441Y-100660754D01*
X162439234Y-100763709D01*
X162526791Y-100851266D01*
X162629746Y-100920059D01*
X162744144Y-100967444D01*
X162865588Y-100991600D01*
X162989412Y-100991600D01*
X163102546Y-100969097D01*
X166001701Y-103868253D01*
X166001701Y-104408458D01*
X165948131Y-104419114D01*
X165724540Y-104511729D01*
X165523313Y-104646184D01*
X165352184Y-104817313D01*
X165217729Y-105018540D01*
X165125114Y-105242131D01*
X165077900Y-105479493D01*
X165077900Y-105721507D01*
X165125114Y-105958869D01*
X165217729Y-106182460D01*
X165352184Y-106383687D01*
X165523313Y-106554816D01*
X165724540Y-106689271D01*
X165948131Y-106781886D01*
X166185493Y-106829100D01*
X166427507Y-106829100D01*
X166664869Y-106781886D01*
X166888460Y-106689271D01*
X167089687Y-106554816D01*
X167260816Y-106383687D01*
X167395271Y-106182460D01*
X167487886Y-105958869D01*
X167535100Y-105721507D01*
X167535100Y-105479493D01*
X168506900Y-105479493D01*
X168506900Y-105721507D01*
X168554114Y-105958869D01*
X168646729Y-106182460D01*
X168781184Y-106383687D01*
X168952313Y-106554816D01*
X169153540Y-106689271D01*
X169377131Y-106781886D01*
X169614493Y-106829100D01*
X169856507Y-106829100D01*
X170093869Y-106781886D01*
X170317460Y-106689271D01*
X170518687Y-106554816D01*
X170689816Y-106383687D01*
X170824271Y-106182460D01*
X170916886Y-105958869D01*
X170964100Y-105721507D01*
X170964100Y-105479493D01*
X170916886Y-105242131D01*
X170824271Y-105018540D01*
X170689816Y-104817313D01*
X170518687Y-104646184D01*
X170317460Y-104511729D01*
X170093869Y-104419114D01*
X170040300Y-104408459D01*
X170040300Y-101831251D01*
X171002455Y-100869097D01*
X171115588Y-100891600D01*
X171239412Y-100891600D01*
X171360856Y-100867444D01*
X171475254Y-100820059D01*
X171578209Y-100751266D01*
X171665766Y-100663709D01*
X171734559Y-100560754D01*
X171781944Y-100446356D01*
X171806100Y-100324912D01*
X171806100Y-100201088D01*
X171781944Y-100079644D01*
X171734559Y-99965246D01*
X171665766Y-99862291D01*
X171578209Y-99774734D01*
X171475254Y-99705941D01*
X171360856Y-99658556D01*
X171239412Y-99634400D01*
X171115588Y-99634400D01*
X170994144Y-99658556D01*
X170879746Y-99705941D01*
X170776791Y-99774734D01*
X170689234Y-99862291D01*
X170620441Y-99965246D01*
X170573056Y-100079644D01*
X170548900Y-100201088D01*
X170548900Y-100324912D01*
X170571403Y-100438045D01*
X169530557Y-101478892D01*
X169518933Y-101488432D01*
X169480843Y-101534843D01*
X169465715Y-101563146D01*
X169452540Y-101587795D01*
X169435111Y-101645249D01*
X169429227Y-101705000D01*
X169430701Y-101719968D01*
X169430700Y-104408458D01*
X169377131Y-104419114D01*
X169153540Y-104511729D01*
X168952313Y-104646184D01*
X168781184Y-104817313D01*
X168646729Y-105018540D01*
X168554114Y-105242131D01*
X168506900Y-105479493D01*
X167535100Y-105479493D01*
X167487886Y-105242131D01*
X167395271Y-105018540D01*
X167260816Y-104817313D01*
X167089687Y-104646184D01*
X166888460Y-104511729D01*
X166664869Y-104419114D01*
X166611300Y-104408459D01*
X166611300Y-103756958D01*
X166612773Y-103742000D01*
X166611300Y-103727042D01*
X166611300Y-103727034D01*
X166606889Y-103682249D01*
X166589460Y-103624794D01*
X166561158Y-103571843D01*
X166523068Y-103525432D01*
X166511444Y-103515892D01*
X163533597Y-100538046D01*
X163556100Y-100424912D01*
X163556100Y-100301088D01*
X163531944Y-100179644D01*
X163484559Y-100065246D01*
X163415766Y-99962291D01*
X163328209Y-99874734D01*
X163225254Y-99805941D01*
X163110856Y-99758556D01*
X162989412Y-99734400D01*
X162865588Y-99734400D01*
X162744144Y-99758556D01*
X162629746Y-99805941D01*
X162526791Y-99874734D01*
X162439234Y-99962291D01*
X162370441Y-100065246D01*
X162323056Y-100179644D01*
X162298900Y-100301088D01*
X157882140Y-100301088D01*
X157639112Y-100058061D01*
X157629568Y-100046432D01*
X157583157Y-100008342D01*
X157530206Y-99980040D01*
X157472751Y-99962611D01*
X157427966Y-99958200D01*
X157427958Y-99958200D01*
X157413000Y-99956727D01*
X157398042Y-99958200D01*
X155279851Y-99958200D01*
X155215766Y-99862291D01*
X155128209Y-99774734D01*
X155025254Y-99705941D01*
X154910856Y-99658556D01*
X154789412Y-99634400D01*
X154665588Y-99634400D01*
X154544144Y-99658556D01*
X154429746Y-99705941D01*
X154326791Y-99774734D01*
X154239234Y-99862291D01*
X154170441Y-99965246D01*
X154123056Y-100079644D01*
X154098900Y-100201088D01*
X145707600Y-100201088D01*
X145683444Y-100079644D01*
X145636059Y-99965246D01*
X145567266Y-99862291D01*
X145479709Y-99774734D01*
X145376754Y-99705941D01*
X145262356Y-99658556D01*
X145140912Y-99634400D01*
X145017088Y-99634400D01*
X144895644Y-99658556D01*
X144781246Y-99705941D01*
X144678291Y-99774734D01*
X144590734Y-99862291D01*
X144521941Y-99965246D01*
X144474556Y-100079644D01*
X144450400Y-100201088D01*
X144450400Y-100324912D01*
X144472903Y-100438045D01*
X143495557Y-101415392D01*
X143483933Y-101424932D01*
X143445843Y-101471343D01*
X143436709Y-101488432D01*
X143417540Y-101524295D01*
X143400111Y-101581749D01*
X143394227Y-101641500D01*
X143395701Y-101656468D01*
X143395700Y-104154458D01*
X143342131Y-104165114D01*
X143118540Y-104257729D01*
X142917313Y-104392184D01*
X142746184Y-104563313D01*
X142611729Y-104764540D01*
X142519114Y-104988131D01*
X142471900Y-105225493D01*
X141500100Y-105225493D01*
X141452886Y-104988131D01*
X141360271Y-104764540D01*
X141225816Y-104563313D01*
X141054687Y-104392184D01*
X140853460Y-104257729D01*
X140629869Y-104165114D01*
X140576300Y-104154459D01*
X140576300Y-103820457D01*
X140577773Y-103805499D01*
X140576300Y-103790541D01*
X140576300Y-103790534D01*
X140571889Y-103745749D01*
X140554460Y-103688294D01*
X140526158Y-103635343D01*
X140488068Y-103588932D01*
X140476444Y-103579392D01*
X137435097Y-100538046D01*
X137457600Y-100424912D01*
X137457600Y-100301088D01*
X137433444Y-100179644D01*
X137386059Y-100065246D01*
X137317266Y-99962291D01*
X137229709Y-99874734D01*
X137126754Y-99805941D01*
X137012356Y-99758556D01*
X136890912Y-99734400D01*
X136767088Y-99734400D01*
X136645644Y-99758556D01*
X136531246Y-99805941D01*
X136428291Y-99874734D01*
X136340734Y-99962291D01*
X136271941Y-100065246D01*
X136224556Y-100179644D01*
X136200400Y-100301088D01*
X132228140Y-100301088D01*
X131985112Y-100058061D01*
X131975568Y-100046432D01*
X131929157Y-100008342D01*
X131876206Y-99980040D01*
X131818751Y-99962611D01*
X131773966Y-99958200D01*
X131773958Y-99958200D01*
X131759000Y-99956727D01*
X131744042Y-99958200D01*
X129181351Y-99958200D01*
X129117266Y-99862291D01*
X129029709Y-99774734D01*
X128926754Y-99705941D01*
X128812356Y-99658556D01*
X128690912Y-99634400D01*
X128567088Y-99634400D01*
X128445644Y-99658556D01*
X128331246Y-99705941D01*
X128228291Y-99774734D01*
X128140734Y-99862291D01*
X128071941Y-99965246D01*
X128024556Y-100079644D01*
X128000400Y-100201088D01*
X123329700Y-100201088D01*
X123329700Y-99014488D01*
X123570124Y-98533640D01*
X124573556Y-97530208D01*
X125063393Y-97162830D01*
X126309044Y-96913700D01*
X146494500Y-96913700D01*
X146507027Y-96912663D01*
X147269027Y-96785663D01*
X147284800Y-96781250D01*
X147919800Y-96527250D01*
X147937220Y-96517460D01*
X148445220Y-96136460D01*
X148460460Y-96121220D01*
X148841460Y-95613220D01*
X148845834Y-95606716D01*
X149226834Y-94971978D01*
X149233229Y-94958479D01*
X149237112Y-94942211D01*
X149364112Y-93925949D01*
X149364700Y-93916500D01*
X149364700Y-88201500D01*
X151141227Y-88201500D01*
X151142701Y-88216468D01*
X151142700Y-89837542D01*
X151141227Y-89852500D01*
X151142700Y-89867458D01*
X151142700Y-89867465D01*
X151145007Y-89890886D01*
X151147111Y-89912251D01*
X151164540Y-89969705D01*
X151192842Y-90022656D01*
X151230932Y-90069068D01*
X151242561Y-90078612D01*
X152554892Y-91390944D01*
X152564432Y-91402568D01*
X152610843Y-91440658D01*
X152663794Y-91468960D01*
X152721248Y-91486389D01*
X152726403Y-91486897D01*
X152766034Y-91490800D01*
X152766042Y-91490800D01*
X152781000Y-91492273D01*
X152795958Y-91490800D01*
X157465148Y-91490800D01*
X154861046Y-94094903D01*
X154747912Y-94072400D01*
X154624088Y-94072400D01*
X154502644Y-94096556D01*
X154388246Y-94143941D01*
X154285291Y-94212734D01*
X154197734Y-94300291D01*
X154128941Y-94403246D01*
X154081556Y-94517644D01*
X154057400Y-94639088D01*
X154057400Y-94762912D01*
X154081556Y-94884356D01*
X154128941Y-94998754D01*
X154197734Y-95101709D01*
X154285291Y-95189266D01*
X154388246Y-95258059D01*
X154502644Y-95305444D01*
X154624088Y-95329600D01*
X154747912Y-95329600D01*
X154869356Y-95305444D01*
X154983754Y-95258059D01*
X155086709Y-95189266D01*
X155174266Y-95101709D01*
X155243059Y-94998754D01*
X155290444Y-94884356D01*
X155314600Y-94762912D01*
X155314600Y-94639088D01*
X155292097Y-94525954D01*
X155378963Y-94439088D01*
X162207400Y-94439088D01*
X162207400Y-94562912D01*
X162231556Y-94684356D01*
X162278941Y-94798754D01*
X162347734Y-94901709D01*
X162435291Y-94989266D01*
X162538246Y-95058059D01*
X162652644Y-95105444D01*
X162774088Y-95129600D01*
X162897912Y-95129600D01*
X163019356Y-95105444D01*
X163133754Y-95058059D01*
X163236709Y-94989266D01*
X163324266Y-94901709D01*
X163393059Y-94798754D01*
X163440444Y-94684356D01*
X163464600Y-94562912D01*
X163464600Y-94439088D01*
X163440444Y-94317644D01*
X163393059Y-94203246D01*
X163346093Y-94132958D01*
X167584126Y-89894926D01*
X167629540Y-89925271D01*
X167853131Y-90017886D01*
X168090493Y-90065100D01*
X168332507Y-90065100D01*
X168569869Y-90017886D01*
X168793460Y-89925271D01*
X168994687Y-89790816D01*
X169165816Y-89619687D01*
X169300271Y-89418460D01*
X169392886Y-89194869D01*
X169440100Y-88957507D01*
X169440100Y-88715493D01*
X170284900Y-88715493D01*
X170284900Y-88957507D01*
X170332114Y-89194869D01*
X170424729Y-89418460D01*
X170559184Y-89619687D01*
X170730313Y-89790816D01*
X170931540Y-89925271D01*
X171155131Y-90017886D01*
X171208700Y-90028542D01*
X171208701Y-94074546D01*
X171197912Y-94072400D01*
X171074088Y-94072400D01*
X170952644Y-94096556D01*
X170838246Y-94143941D01*
X170735291Y-94212734D01*
X170647734Y-94300291D01*
X170578941Y-94403246D01*
X170531556Y-94517644D01*
X170507400Y-94639088D01*
X170507400Y-94762912D01*
X170531556Y-94884356D01*
X170578941Y-94998754D01*
X170647734Y-95101709D01*
X170735291Y-95189266D01*
X170838246Y-95258059D01*
X170952644Y-95305444D01*
X171074088Y-95329600D01*
X171197912Y-95329600D01*
X171319356Y-95305444D01*
X171433754Y-95258059D01*
X171536709Y-95189266D01*
X171624266Y-95101709D01*
X171693059Y-94998754D01*
X171740444Y-94884356D01*
X171764600Y-94762912D01*
X171764600Y-94639088D01*
X171742010Y-94525517D01*
X171768158Y-94493657D01*
X171796460Y-94440706D01*
X171813889Y-94383251D01*
X171818300Y-94338466D01*
X171818300Y-94338458D01*
X171819773Y-94323500D01*
X171818300Y-94308542D01*
X171818300Y-90028541D01*
X171871869Y-90017886D01*
X172095460Y-89925271D01*
X172296687Y-89790816D01*
X172467816Y-89619687D01*
X172602271Y-89418460D01*
X172694886Y-89194869D01*
X172742100Y-88957507D01*
X172742100Y-88715493D01*
X172694886Y-88478131D01*
X172602271Y-88254540D01*
X172467816Y-88053313D01*
X172296687Y-87882184D01*
X172095460Y-87747729D01*
X171871869Y-87655114D01*
X171634507Y-87607900D01*
X171392493Y-87607900D01*
X171155131Y-87655114D01*
X170931540Y-87747729D01*
X170730313Y-87882184D01*
X170559184Y-88053313D01*
X170424729Y-88254540D01*
X170332114Y-88478131D01*
X170284900Y-88715493D01*
X169440100Y-88715493D01*
X169392886Y-88478131D01*
X169300271Y-88254540D01*
X169165816Y-88053313D01*
X168994687Y-87882184D01*
X168793460Y-87747729D01*
X168569869Y-87655114D01*
X168332507Y-87607900D01*
X168090493Y-87607900D01*
X167853131Y-87655114D01*
X167629540Y-87747729D01*
X167428313Y-87882184D01*
X167257184Y-88053313D01*
X167122729Y-88254540D01*
X167030114Y-88478131D01*
X166982900Y-88715493D01*
X166982900Y-88957507D01*
X167030114Y-89194869D01*
X167122729Y-89418460D01*
X167153074Y-89463874D01*
X162737215Y-93879734D01*
X162652644Y-93896556D01*
X162538246Y-93943941D01*
X162435291Y-94012734D01*
X162347734Y-94100291D01*
X162278941Y-94203246D01*
X162231556Y-94317644D01*
X162207400Y-94439088D01*
X155378963Y-94439088D01*
X157946252Y-91871800D01*
X162164042Y-91871800D01*
X162179000Y-91873273D01*
X162193958Y-91871800D01*
X162193966Y-91871800D01*
X162238751Y-91867389D01*
X162296206Y-91849960D01*
X162349157Y-91821658D01*
X162395568Y-91783568D01*
X162405112Y-91771939D01*
X164282126Y-89894926D01*
X164327540Y-89925271D01*
X164551131Y-90017886D01*
X164788493Y-90065100D01*
X165030507Y-90065100D01*
X165267869Y-90017886D01*
X165491460Y-89925271D01*
X165692687Y-89790816D01*
X165863816Y-89619687D01*
X165998271Y-89418460D01*
X166090886Y-89194869D01*
X166138100Y-88957507D01*
X166138100Y-88715493D01*
X166090886Y-88478131D01*
X165998271Y-88254540D01*
X165863816Y-88053313D01*
X165692687Y-87882184D01*
X165491460Y-87747729D01*
X165267869Y-87655114D01*
X165030507Y-87607900D01*
X164788493Y-87607900D01*
X164551131Y-87655114D01*
X164327540Y-87747729D01*
X164126313Y-87882184D01*
X163955184Y-88053313D01*
X163820729Y-88254540D01*
X163728114Y-88478131D01*
X163680900Y-88715493D01*
X163680900Y-88957507D01*
X163728114Y-89194869D01*
X163820729Y-89418460D01*
X163851074Y-89463874D01*
X162052749Y-91262200D01*
X159358851Y-91262200D01*
X160853126Y-89767926D01*
X160898540Y-89798271D01*
X161122131Y-89890886D01*
X161359493Y-89938100D01*
X161601507Y-89938100D01*
X161838869Y-89890886D01*
X162062460Y-89798271D01*
X162263687Y-89663816D01*
X162434816Y-89492687D01*
X162569271Y-89291460D01*
X162661886Y-89067869D01*
X162709100Y-88830507D01*
X162709100Y-88588493D01*
X162661886Y-88351131D01*
X162569271Y-88127540D01*
X162538926Y-88082125D01*
X163194252Y-87426800D01*
X169900042Y-87426800D01*
X169915000Y-87428273D01*
X169929958Y-87426800D01*
X169929966Y-87426800D01*
X169974751Y-87422389D01*
X170032206Y-87404960D01*
X170085157Y-87376658D01*
X170131568Y-87338568D01*
X170141112Y-87326939D01*
X172960955Y-84507097D01*
X173074088Y-84529600D01*
X173197912Y-84529600D01*
X173319356Y-84505444D01*
X173433754Y-84458059D01*
X173536709Y-84389266D01*
X173624266Y-84301709D01*
X173693059Y-84198754D01*
X173740444Y-84084356D01*
X173764600Y-83962912D01*
X173764600Y-83839088D01*
X173740444Y-83717644D01*
X173693059Y-83603246D01*
X173624266Y-83500291D01*
X173536709Y-83412734D01*
X173433754Y-83343941D01*
X173319356Y-83296556D01*
X173197912Y-83272400D01*
X173074088Y-83272400D01*
X172952644Y-83296556D01*
X172838246Y-83343941D01*
X172735291Y-83412734D01*
X172647734Y-83500291D01*
X172578941Y-83603246D01*
X172531556Y-83717644D01*
X172507400Y-83839088D01*
X172507400Y-83962912D01*
X172529903Y-84076045D01*
X169788749Y-86817200D01*
X166562609Y-86817200D01*
X166585139Y-86805158D01*
X166631550Y-86767068D01*
X166641094Y-86755439D01*
X167574545Y-85821989D01*
X167586169Y-85812449D01*
X167624259Y-85766038D01*
X167652561Y-85713087D01*
X167669990Y-85655632D01*
X167674401Y-85610847D01*
X167674401Y-85610840D01*
X167675874Y-85595882D01*
X167674401Y-85580924D01*
X167674401Y-84744158D01*
X167675874Y-84729200D01*
X167674401Y-84714242D01*
X167674401Y-84714235D01*
X167669990Y-84669450D01*
X167652561Y-84611995D01*
X167624259Y-84559044D01*
X167586169Y-84512633D01*
X167574541Y-84503090D01*
X167519512Y-84448061D01*
X167509968Y-84436432D01*
X167463557Y-84398342D01*
X167410606Y-84370040D01*
X167353151Y-84352611D01*
X167308366Y-84348200D01*
X167308358Y-84348200D01*
X167293400Y-84346727D01*
X167278442Y-84348200D01*
X167261497Y-84348200D01*
X167228905Y-84330779D01*
X167219743Y-84328000D01*
X167228905Y-84325221D01*
X167268618Y-84303994D01*
X167303427Y-84275427D01*
X167331994Y-84240618D01*
X167353221Y-84200905D01*
X167366292Y-84157813D01*
X167370706Y-84113000D01*
X167370706Y-83893000D01*
X167366292Y-83848187D01*
X167353221Y-83805095D01*
X167331994Y-83765382D01*
X167314881Y-83744529D01*
X167324644Y-83739342D01*
X167375027Y-83698205D01*
X167416416Y-83648029D01*
X167447222Y-83590743D01*
X167466259Y-83528547D01*
X167471200Y-83469350D01*
X167388650Y-83386800D01*
X166091800Y-83386800D01*
X166091800Y-83423800D01*
X165990200Y-83423800D01*
X165990200Y-83386800D01*
X165226600Y-83386800D01*
X165226600Y-83319200D01*
X165990200Y-83319200D01*
X165990200Y-82995350D01*
X166091800Y-82995350D01*
X166091800Y-83319200D01*
X167388650Y-83319200D01*
X167471200Y-83236650D01*
X167466259Y-83177453D01*
X167447222Y-83115257D01*
X167416416Y-83057971D01*
X167375027Y-83007795D01*
X167324644Y-82966658D01*
X167267204Y-82936141D01*
X167204914Y-82917416D01*
X167140167Y-82911203D01*
X166174350Y-82912800D01*
X166091800Y-82995350D01*
X165990200Y-82995350D01*
X165907650Y-82912800D01*
X165226600Y-82911674D01*
X165226600Y-82689459D01*
X165227827Y-82677000D01*
X165222931Y-82627286D01*
X165208429Y-82579482D01*
X165184881Y-82535426D01*
X165153190Y-82496810D01*
X165114574Y-82465119D01*
X165070518Y-82441571D01*
X165022714Y-82427069D01*
X164985459Y-82423400D01*
X164973000Y-82422173D01*
X164960541Y-82423400D01*
X160921459Y-82423400D01*
X160909000Y-82422173D01*
X160896541Y-82423400D01*
X160859286Y-82427069D01*
X160811482Y-82441571D01*
X160767426Y-82465119D01*
X160728810Y-82496810D01*
X160697119Y-82535426D01*
X160673571Y-82579482D01*
X160659069Y-82627286D01*
X160654173Y-82677000D01*
X160655400Y-82689459D01*
X160655400Y-82911674D01*
X159974350Y-82912800D01*
X159891800Y-82995350D01*
X159891800Y-83319200D01*
X160655400Y-83319200D01*
X160655400Y-83386800D01*
X159891800Y-83386800D01*
X159891800Y-83969200D01*
X160655400Y-83969200D01*
X160655400Y-84036800D01*
X159891800Y-84036800D01*
X159891800Y-84073800D01*
X159790200Y-84073800D01*
X159790200Y-84036800D01*
X158493350Y-84036800D01*
X158448401Y-84081749D01*
X157836002Y-83469350D01*
X158410800Y-83469350D01*
X158415741Y-83528547D01*
X158434778Y-83590743D01*
X158465584Y-83648029D01*
X158490306Y-83678000D01*
X158465584Y-83707971D01*
X158434778Y-83765257D01*
X158415741Y-83827453D01*
X158410800Y-83886650D01*
X158493350Y-83969200D01*
X159790200Y-83969200D01*
X159790200Y-83386800D01*
X158493350Y-83386800D01*
X158410800Y-83469350D01*
X157836002Y-83469350D01*
X157603302Y-83236650D01*
X158410800Y-83236650D01*
X158493350Y-83319200D01*
X159790200Y-83319200D01*
X159790200Y-82995350D01*
X159707650Y-82912800D01*
X158741833Y-82911203D01*
X158677086Y-82917416D01*
X158614796Y-82936141D01*
X158557356Y-82966658D01*
X158506973Y-83007795D01*
X158465584Y-83057971D01*
X158434778Y-83115257D01*
X158415741Y-83177453D01*
X158410800Y-83236650D01*
X157603302Y-83236650D01*
X157086300Y-82719649D01*
X157086300Y-80884541D01*
X157139869Y-80873886D01*
X157363460Y-80781271D01*
X157564687Y-80646816D01*
X157597037Y-80614466D01*
X159233376Y-80614466D01*
X159339511Y-80802939D01*
X159570442Y-80926748D01*
X159821090Y-81003125D01*
X160081823Y-81029135D01*
X160342620Y-81003779D01*
X160593459Y-80928031D01*
X160824701Y-80804803D01*
X160827489Y-80802939D01*
X160933624Y-80614466D01*
X160083500Y-79764342D01*
X159233376Y-80614466D01*
X157597037Y-80614466D01*
X157735816Y-80475687D01*
X157870271Y-80274460D01*
X157962886Y-80050869D01*
X158010100Y-79813507D01*
X158010100Y-79690823D01*
X158746865Y-79690823D01*
X158772221Y-79951620D01*
X158847969Y-80202459D01*
X158971197Y-80433701D01*
X158973061Y-80436489D01*
X159161534Y-80542624D01*
X160011658Y-79692500D01*
X160155342Y-79692500D01*
X161005466Y-80542624D01*
X161193939Y-80436489D01*
X161317748Y-80205558D01*
X161394125Y-79954910D01*
X161420135Y-79694177D01*
X161394779Y-79433380D01*
X161319031Y-79182541D01*
X161195803Y-78951299D01*
X161193939Y-78948511D01*
X161005466Y-78842376D01*
X160155342Y-79692500D01*
X160011658Y-79692500D01*
X159161534Y-78842376D01*
X158973061Y-78948511D01*
X158849252Y-79179442D01*
X158772875Y-79430090D01*
X158746865Y-79690823D01*
X158010100Y-79690823D01*
X158010100Y-79571493D01*
X157962886Y-79334131D01*
X157870271Y-79110540D01*
X157735816Y-78909313D01*
X157597037Y-78770534D01*
X159233376Y-78770534D01*
X160083500Y-79620658D01*
X160933624Y-78770534D01*
X160827489Y-78582061D01*
X160596558Y-78458252D01*
X160345910Y-78381875D01*
X160085177Y-78355865D01*
X159824380Y-78381221D01*
X159573541Y-78456969D01*
X159342299Y-78580197D01*
X159339511Y-78582061D01*
X159233376Y-78770534D01*
X157597037Y-78770534D01*
X157564687Y-78738184D01*
X157363460Y-78603729D01*
X157139869Y-78511114D01*
X156902507Y-78463900D01*
X156660493Y-78463900D01*
X156423131Y-78511114D01*
X156199540Y-78603729D01*
X155998313Y-78738184D01*
X155827184Y-78909313D01*
X155692729Y-79110540D01*
X155600114Y-79334131D01*
X155552900Y-79571493D01*
X155552900Y-79813507D01*
X155600114Y-80050869D01*
X155692729Y-80274460D01*
X155827184Y-80475687D01*
X155998313Y-80646816D01*
X156199540Y-80781271D01*
X156423131Y-80873886D01*
X156476701Y-80884542D01*
X156476700Y-82830942D01*
X156475227Y-82845900D01*
X156476700Y-82860858D01*
X156476700Y-82860865D01*
X156480555Y-82900010D01*
X156481111Y-82905651D01*
X156490360Y-82936141D01*
X156498540Y-82963105D01*
X156526842Y-83016056D01*
X156564932Y-83062468D01*
X156576561Y-83072012D01*
X158362491Y-84857943D01*
X158372032Y-84869568D01*
X158418443Y-84907658D01*
X158471394Y-84935960D01*
X158503730Y-84945769D01*
X158528848Y-84953389D01*
X158534489Y-84953945D01*
X158573634Y-84957800D01*
X158573641Y-84957800D01*
X158588599Y-84959273D01*
X158603557Y-84957800D01*
X158620503Y-84957800D01*
X158653095Y-84975221D01*
X158662257Y-84978000D01*
X158653095Y-84980779D01*
X158613382Y-85002006D01*
X158578573Y-85030573D01*
X158550006Y-85065382D01*
X158528779Y-85105095D01*
X158515708Y-85148187D01*
X158511294Y-85193000D01*
X158511294Y-85413000D01*
X158515708Y-85457813D01*
X158528779Y-85500905D01*
X158550006Y-85540618D01*
X158578573Y-85575427D01*
X158613382Y-85603994D01*
X158653095Y-85625221D01*
X158696187Y-85638292D01*
X158741000Y-85642706D01*
X160655401Y-85642706D01*
X160655401Y-85927810D01*
X156987347Y-85927810D01*
X156972389Y-85926337D01*
X156957431Y-85927810D01*
X156957424Y-85927810D01*
X156918279Y-85931665D01*
X156912638Y-85932221D01*
X156895209Y-85937508D01*
X156855184Y-85949650D01*
X156802233Y-85977952D01*
X156755822Y-86016042D01*
X156746282Y-86027666D01*
X155122875Y-87651074D01*
X155077460Y-87620729D01*
X154853869Y-87528114D01*
X154616507Y-87480900D01*
X154374493Y-87480900D01*
X154137131Y-87528114D01*
X153913540Y-87620729D01*
X153712313Y-87755184D01*
X153541184Y-87926313D01*
X153406729Y-88127540D01*
X153314114Y-88351131D01*
X153266900Y-88588493D01*
X153266900Y-88830507D01*
X153314114Y-89067869D01*
X153406729Y-89291460D01*
X153541184Y-89492687D01*
X153712313Y-89663816D01*
X153913540Y-89798271D01*
X154137131Y-89890886D01*
X154374493Y-89938100D01*
X154616507Y-89938100D01*
X154853869Y-89890886D01*
X155077460Y-89798271D01*
X155278687Y-89663816D01*
X155449816Y-89492687D01*
X155584271Y-89291460D01*
X155676886Y-89067869D01*
X155724100Y-88830507D01*
X155724100Y-88588493D01*
X155676886Y-88351131D01*
X155584271Y-88127540D01*
X155553926Y-88082125D01*
X157098642Y-86537410D01*
X159665538Y-86537410D01*
X158551875Y-87651074D01*
X158506460Y-87620729D01*
X158282869Y-87528114D01*
X158045507Y-87480900D01*
X157803493Y-87480900D01*
X157566131Y-87528114D01*
X157342540Y-87620729D01*
X157141313Y-87755184D01*
X156970184Y-87926313D01*
X156835729Y-88127540D01*
X156743114Y-88351131D01*
X156695900Y-88588493D01*
X156695900Y-88830507D01*
X156743114Y-89067869D01*
X156835729Y-89291460D01*
X156970184Y-89492687D01*
X157141313Y-89663816D01*
X157342540Y-89798271D01*
X157566131Y-89890886D01*
X157803493Y-89938100D01*
X158045507Y-89938100D01*
X158282869Y-89890886D01*
X158506460Y-89798271D01*
X158707687Y-89663816D01*
X158878816Y-89492687D01*
X159013271Y-89291460D01*
X159105886Y-89067869D01*
X159153100Y-88830507D01*
X159153100Y-88588493D01*
X159105886Y-88351131D01*
X159013271Y-88127540D01*
X158982926Y-88082125D01*
X160209752Y-86855300D01*
X162920373Y-86855300D01*
X162897843Y-86867342D01*
X162851432Y-86905432D01*
X162841892Y-86917056D01*
X162107875Y-87651074D01*
X162062460Y-87620729D01*
X161838869Y-87528114D01*
X161601507Y-87480900D01*
X161359493Y-87480900D01*
X161122131Y-87528114D01*
X160898540Y-87620729D01*
X160697313Y-87755184D01*
X160526184Y-87926313D01*
X160391729Y-88127540D01*
X160299114Y-88351131D01*
X160251900Y-88588493D01*
X160251900Y-88830507D01*
X160299114Y-89067869D01*
X160391729Y-89291460D01*
X160422074Y-89336874D01*
X158877749Y-90881200D01*
X152907252Y-90881200D01*
X151752300Y-89726249D01*
X151752300Y-88327751D01*
X153140945Y-86939107D01*
X153152568Y-86929568D01*
X153190658Y-86883157D01*
X153218960Y-86830206D01*
X153236389Y-86772751D01*
X153240800Y-86727966D01*
X153240800Y-86727958D01*
X153242273Y-86713000D01*
X153240800Y-86698042D01*
X153240800Y-84453351D01*
X153336709Y-84389266D01*
X153424266Y-84301709D01*
X153493059Y-84198754D01*
X153540444Y-84084356D01*
X153564600Y-83962912D01*
X153564600Y-83839088D01*
X153540444Y-83717644D01*
X153493059Y-83603246D01*
X153424266Y-83500291D01*
X153336709Y-83412734D01*
X153233754Y-83343941D01*
X153119356Y-83296556D01*
X152997912Y-83272400D01*
X152874088Y-83272400D01*
X152752644Y-83296556D01*
X152638246Y-83343941D01*
X152535291Y-83412734D01*
X152447734Y-83500291D01*
X152378941Y-83603246D01*
X152331556Y-83717644D01*
X152307400Y-83839088D01*
X152307400Y-83962912D01*
X152331556Y-84084356D01*
X152378941Y-84198754D01*
X152447734Y-84301709D01*
X152535291Y-84389266D01*
X152631201Y-84453352D01*
X152631200Y-86586748D01*
X151242557Y-87975392D01*
X151230933Y-87984932D01*
X151192843Y-88031343D01*
X151181100Y-88053313D01*
X151164540Y-88084295D01*
X151147111Y-88141749D01*
X151141227Y-88201500D01*
X149364700Y-88201500D01*
X149364700Y-74039088D01*
X154057400Y-74039088D01*
X154057400Y-74162912D01*
X154081556Y-74284356D01*
X154128941Y-74398754D01*
X154197734Y-74501709D01*
X154285291Y-74589266D01*
X154388246Y-74658059D01*
X154502644Y-74705444D01*
X154624088Y-74729600D01*
X154747912Y-74729600D01*
X154869356Y-74705444D01*
X154983754Y-74658059D01*
X155086709Y-74589266D01*
X155174266Y-74501709D01*
X155238351Y-74405800D01*
X157667749Y-74405800D01*
X162327074Y-79065126D01*
X162296729Y-79110540D01*
X162204114Y-79334131D01*
X162156900Y-79571493D01*
X162156900Y-79813507D01*
X162204114Y-80050869D01*
X162296729Y-80274460D01*
X162431184Y-80475687D01*
X162602313Y-80646816D01*
X162803540Y-80781271D01*
X163027131Y-80873886D01*
X163264493Y-80921100D01*
X163506507Y-80921100D01*
X163743869Y-80873886D01*
X163967460Y-80781271D01*
X164168687Y-80646816D01*
X164339816Y-80475687D01*
X164474271Y-80274460D01*
X164566886Y-80050869D01*
X164614100Y-79813507D01*
X164614100Y-79571493D01*
X164566886Y-79334131D01*
X164474271Y-79110540D01*
X164339816Y-78909313D01*
X164168687Y-78738184D01*
X163967460Y-78603729D01*
X163743869Y-78511114D01*
X163506507Y-78463900D01*
X163264493Y-78463900D01*
X163027131Y-78511114D01*
X162803540Y-78603729D01*
X162758126Y-78634074D01*
X158263140Y-74139088D01*
X162257400Y-74139088D01*
X162257400Y-74262912D01*
X162281556Y-74384356D01*
X162328941Y-74498754D01*
X162397734Y-74601709D01*
X162485291Y-74689266D01*
X162588246Y-74758059D01*
X162702644Y-74805444D01*
X162824088Y-74829600D01*
X162947912Y-74829600D01*
X163061046Y-74807097D01*
X166382701Y-78128753D01*
X166382701Y-78500458D01*
X166329131Y-78511114D01*
X166105540Y-78603729D01*
X165904313Y-78738184D01*
X165733184Y-78909313D01*
X165598729Y-79110540D01*
X165506114Y-79334131D01*
X165458900Y-79571493D01*
X165458900Y-79813507D01*
X165506114Y-80050869D01*
X165598729Y-80274460D01*
X165733184Y-80475687D01*
X165904313Y-80646816D01*
X166105540Y-80781271D01*
X166329131Y-80873886D01*
X166566493Y-80921100D01*
X166808507Y-80921100D01*
X167045869Y-80873886D01*
X167269460Y-80781271D01*
X167470687Y-80646816D01*
X167641816Y-80475687D01*
X167776271Y-80274460D01*
X167868886Y-80050869D01*
X167916100Y-79813507D01*
X167916100Y-79571493D01*
X168760900Y-79571493D01*
X168760900Y-79813507D01*
X168808114Y-80050869D01*
X168900729Y-80274460D01*
X169035184Y-80475687D01*
X169206313Y-80646816D01*
X169407540Y-80781271D01*
X169631131Y-80873886D01*
X169868493Y-80921100D01*
X170110507Y-80921100D01*
X170347869Y-80873886D01*
X170571460Y-80781271D01*
X170772687Y-80646816D01*
X170943816Y-80475687D01*
X171078271Y-80274460D01*
X171170886Y-80050869D01*
X171218100Y-79813507D01*
X171218100Y-79571493D01*
X171170886Y-79334131D01*
X171078271Y-79110540D01*
X170943816Y-78909313D01*
X170772687Y-78738184D01*
X170571460Y-78603729D01*
X170347869Y-78511114D01*
X170294300Y-78500459D01*
X170294300Y-75373751D01*
X170960955Y-74707097D01*
X171074088Y-74729600D01*
X171197912Y-74729600D01*
X171319356Y-74705444D01*
X171433754Y-74658059D01*
X171536709Y-74589266D01*
X171624266Y-74501709D01*
X171693059Y-74398754D01*
X171740444Y-74284356D01*
X171764600Y-74162912D01*
X171764600Y-74039088D01*
X171740444Y-73917644D01*
X171693059Y-73803246D01*
X171624266Y-73700291D01*
X171536709Y-73612734D01*
X171433754Y-73543941D01*
X171319356Y-73496556D01*
X171197912Y-73472400D01*
X171074088Y-73472400D01*
X170952644Y-73496556D01*
X170838246Y-73543941D01*
X170735291Y-73612734D01*
X170647734Y-73700291D01*
X170578941Y-73803246D01*
X170531556Y-73917644D01*
X170507400Y-74039088D01*
X170507400Y-74162912D01*
X170529903Y-74276045D01*
X169784557Y-75021392D01*
X169772933Y-75030932D01*
X169734843Y-75077343D01*
X169719715Y-75105646D01*
X169706540Y-75130295D01*
X169689111Y-75187749D01*
X169683227Y-75247500D01*
X169684701Y-75262468D01*
X169684700Y-78500458D01*
X169631131Y-78511114D01*
X169407540Y-78603729D01*
X169206313Y-78738184D01*
X169035184Y-78909313D01*
X168900729Y-79110540D01*
X168808114Y-79334131D01*
X168760900Y-79571493D01*
X167916100Y-79571493D01*
X167868886Y-79334131D01*
X167776271Y-79110540D01*
X167641816Y-78909313D01*
X167470687Y-78738184D01*
X167269460Y-78603729D01*
X167045869Y-78511114D01*
X166992300Y-78500459D01*
X166992300Y-78017458D01*
X166993773Y-78002500D01*
X166992300Y-77987542D01*
X166992300Y-77987534D01*
X166987889Y-77942749D01*
X166970460Y-77885294D01*
X166942158Y-77832343D01*
X166904068Y-77785932D01*
X166892444Y-77776392D01*
X163492097Y-74376046D01*
X163514600Y-74262912D01*
X163514600Y-74139088D01*
X163490444Y-74017644D01*
X163443059Y-73903246D01*
X163374266Y-73800291D01*
X163286709Y-73712734D01*
X163183754Y-73643941D01*
X163069356Y-73596556D01*
X162947912Y-73572400D01*
X162824088Y-73572400D01*
X162702644Y-73596556D01*
X162588246Y-73643941D01*
X162485291Y-73712734D01*
X162397734Y-73800291D01*
X162328941Y-73903246D01*
X162281556Y-74017644D01*
X162257400Y-74139088D01*
X158263140Y-74139088D01*
X158020112Y-73896061D01*
X158010568Y-73884432D01*
X157964157Y-73846342D01*
X157911206Y-73818040D01*
X157853751Y-73800611D01*
X157808966Y-73796200D01*
X157808958Y-73796200D01*
X157794000Y-73794727D01*
X157779042Y-73796200D01*
X155238351Y-73796200D01*
X155174266Y-73700291D01*
X155086709Y-73612734D01*
X154983754Y-73543941D01*
X154869356Y-73496556D01*
X154747912Y-73472400D01*
X154624088Y-73472400D01*
X154502644Y-73496556D01*
X154388246Y-73543941D01*
X154285291Y-73612734D01*
X154197734Y-73700291D01*
X154128941Y-73803246D01*
X154081556Y-73917644D01*
X154057400Y-74039088D01*
X149364700Y-74039088D01*
X149364700Y-73856805D01*
X149489679Y-73106929D01*
X149613079Y-72736730D01*
X149862534Y-72237820D01*
X150109508Y-71867359D01*
X150359385Y-71622306D01*
X150852887Y-71248501D01*
X151347095Y-71001397D01*
X151837897Y-70878696D01*
X152717477Y-70878322D01*
X173791696Y-70869339D01*
X175039543Y-71128109D01*
%TA.AperFunction,Conductor*%
D14*
G36*
X175039543Y-71128109D02*
G01*
X175776552Y-71619448D01*
X176267736Y-72356226D01*
X176517300Y-73604013D01*
X176517300Y-121336133D01*
X176268917Y-122081283D01*
X176017648Y-122584391D01*
X175772407Y-123074317D01*
X174284749Y-124066300D01*
X126309044Y-124066300D01*
X125061225Y-123816736D01*
X124318050Y-123321286D01*
X123826441Y-122829677D01*
X123329700Y-121587825D01*
X123329700Y-120801088D01*
X128000400Y-120801088D01*
X128000400Y-120924912D01*
X128024556Y-121046356D01*
X128071941Y-121160754D01*
X128140734Y-121263709D01*
X128228291Y-121351266D01*
X128331246Y-121420059D01*
X128445644Y-121467444D01*
X128567088Y-121491600D01*
X128690912Y-121491600D01*
X128812356Y-121467444D01*
X128926754Y-121420059D01*
X129029709Y-121351266D01*
X129117266Y-121263709D01*
X129181351Y-121167800D01*
X132741042Y-121167800D01*
X132756000Y-121169273D01*
X132770958Y-121167800D01*
X132770966Y-121167800D01*
X132815751Y-121163389D01*
X132873206Y-121145960D01*
X132926157Y-121117658D01*
X132972568Y-121079568D01*
X132982112Y-121067939D01*
X133448963Y-120601088D01*
X136150400Y-120601088D01*
X136150400Y-120724912D01*
X136174556Y-120846356D01*
X136221941Y-120960754D01*
X136290734Y-121063709D01*
X136378291Y-121151266D01*
X136481246Y-121220059D01*
X136595644Y-121267444D01*
X136717088Y-121291600D01*
X136840912Y-121291600D01*
X136962356Y-121267444D01*
X137076754Y-121220059D01*
X137179709Y-121151266D01*
X137267266Y-121063709D01*
X137336059Y-120960754D01*
X137383444Y-120846356D01*
X137407600Y-120724912D01*
X137407600Y-120601088D01*
X137383444Y-120479644D01*
X137336059Y-120365246D01*
X137297905Y-120308146D01*
X141168126Y-116437926D01*
X141213540Y-116468271D01*
X141437131Y-116560886D01*
X141674493Y-116608100D01*
X141916507Y-116608100D01*
X142153869Y-116560886D01*
X142377460Y-116468271D01*
X142578687Y-116333816D01*
X142749816Y-116162687D01*
X142884271Y-115961460D01*
X142976886Y-115737869D01*
X143024100Y-115500507D01*
X143024100Y-115258493D01*
X144122900Y-115258493D01*
X144122900Y-115500507D01*
X144170114Y-115737869D01*
X144262729Y-115961460D01*
X144397184Y-116162687D01*
X144568313Y-116333816D01*
X144769540Y-116468271D01*
X144993131Y-116560886D01*
X145046700Y-116571542D01*
X145046701Y-120234400D01*
X145017088Y-120234400D01*
X144895644Y-120258556D01*
X144781246Y-120305941D01*
X144678291Y-120374734D01*
X144590734Y-120462291D01*
X144521941Y-120565246D01*
X144474556Y-120679644D01*
X144450400Y-120801088D01*
X144450400Y-120924912D01*
X144474556Y-121046356D01*
X144521941Y-121160754D01*
X144590734Y-121263709D01*
X144678291Y-121351266D01*
X144781246Y-121420059D01*
X144895644Y-121467444D01*
X145017088Y-121491600D01*
X145140912Y-121491600D01*
X145262356Y-121467444D01*
X145376754Y-121420059D01*
X145479709Y-121351266D01*
X145567266Y-121263709D01*
X145636059Y-121160754D01*
X145683444Y-121046356D01*
X145707600Y-120924912D01*
X145707600Y-120801088D01*
X145683444Y-120679644D01*
X145655612Y-120612451D01*
X145656300Y-120605466D01*
X145656300Y-120605459D01*
X145657773Y-120590501D01*
X145656300Y-120575543D01*
X145656300Y-116571541D01*
X145709869Y-116560886D01*
X145933460Y-116468271D01*
X146134687Y-116333816D01*
X146305816Y-116162687D01*
X146440271Y-115961460D01*
X146532886Y-115737869D01*
X146580100Y-115500507D01*
X146580100Y-115258493D01*
X146532886Y-115021131D01*
X146440271Y-114797540D01*
X146305816Y-114596313D01*
X146134687Y-114425184D01*
X145933460Y-114290729D01*
X145709869Y-114198114D01*
X145472507Y-114150900D01*
X145230493Y-114150900D01*
X144993131Y-114198114D01*
X144769540Y-114290729D01*
X144568313Y-114425184D01*
X144397184Y-114596313D01*
X144262729Y-114797540D01*
X144170114Y-115021131D01*
X144122900Y-115258493D01*
X143024100Y-115258493D01*
X142976886Y-115021131D01*
X142884271Y-114797540D01*
X142749816Y-114596313D01*
X142578687Y-114425184D01*
X142377460Y-114290729D01*
X142153869Y-114198114D01*
X141916507Y-114150900D01*
X141674493Y-114150900D01*
X141437131Y-114198114D01*
X141213540Y-114290729D01*
X141012313Y-114425184D01*
X140841184Y-114596313D01*
X140706729Y-114797540D01*
X140614114Y-115021131D01*
X140566900Y-115258493D01*
X140566900Y-115500507D01*
X140614114Y-115737869D01*
X140706729Y-115961460D01*
X140737074Y-116006874D01*
X136707677Y-120036272D01*
X136595644Y-120058556D01*
X136481246Y-120105941D01*
X136378291Y-120174734D01*
X136290734Y-120262291D01*
X136221941Y-120365246D01*
X136174556Y-120479644D01*
X136150400Y-120601088D01*
X133448963Y-120601088D01*
X137612126Y-116437926D01*
X137657540Y-116468271D01*
X137881131Y-116560886D01*
X138118493Y-116608100D01*
X138360507Y-116608100D01*
X138597869Y-116560886D01*
X138821460Y-116468271D01*
X139022687Y-116333816D01*
X139193816Y-116162687D01*
X139328271Y-115961460D01*
X139420886Y-115737869D01*
X139468100Y-115500507D01*
X139468100Y-115258493D01*
X139420886Y-115021131D01*
X139328271Y-114797540D01*
X139193816Y-114596313D01*
X139022687Y-114425184D01*
X138821460Y-114290729D01*
X138597869Y-114198114D01*
X138360507Y-114150900D01*
X138118493Y-114150900D01*
X137881131Y-114198114D01*
X137657540Y-114290729D01*
X137456313Y-114425184D01*
X137285184Y-114596313D01*
X137150729Y-114797540D01*
X137058114Y-115021131D01*
X137010900Y-115258493D01*
X137010900Y-115500507D01*
X137058114Y-115737869D01*
X137150729Y-115961460D01*
X137181074Y-116006874D01*
X132629749Y-120558200D01*
X129181351Y-120558200D01*
X129117266Y-120462291D01*
X129029709Y-120374734D01*
X128926754Y-120305941D01*
X128812356Y-120258556D01*
X128690912Y-120234400D01*
X128567088Y-120234400D01*
X128445644Y-120258556D01*
X128331246Y-120305941D01*
X128228291Y-120374734D01*
X128140734Y-120462291D01*
X128071941Y-120565246D01*
X128024556Y-120679644D01*
X128000400Y-120801088D01*
X123329700Y-120801088D01*
X123329700Y-115189000D01*
X124725227Y-115189000D01*
X124726701Y-115203968D01*
X124726700Y-116571042D01*
X124725227Y-116586000D01*
X124726700Y-116600958D01*
X124726700Y-116600965D01*
X124731111Y-116645750D01*
X124748540Y-116703205D01*
X124776842Y-116756156D01*
X124814932Y-116802568D01*
X124826561Y-116812112D01*
X125821392Y-117806944D01*
X125830932Y-117818568D01*
X125877343Y-117856658D01*
X125930294Y-117884960D01*
X125987748Y-117902389D01*
X125992903Y-117902897D01*
X126032534Y-117906800D01*
X126032542Y-117906800D01*
X126047500Y-117908273D01*
X126062458Y-117906800D01*
X132446042Y-117906800D01*
X132461000Y-117908273D01*
X132475958Y-117906800D01*
X132475966Y-117906800D01*
X132520751Y-117902389D01*
X132578206Y-117884960D01*
X132631157Y-117856658D01*
X132677568Y-117818568D01*
X132687112Y-117806939D01*
X134056125Y-116437926D01*
X134101540Y-116468271D01*
X134325131Y-116560886D01*
X134562493Y-116608100D01*
X134804507Y-116608100D01*
X135041869Y-116560886D01*
X135265460Y-116468271D01*
X135466687Y-116333816D01*
X135637816Y-116162687D01*
X135772271Y-115961460D01*
X135864886Y-115737869D01*
X135912100Y-115500507D01*
X135912100Y-115258493D01*
X135864886Y-115021131D01*
X135772271Y-114797540D01*
X135741926Y-114752125D01*
X136778252Y-113715800D01*
X145146042Y-113715800D01*
X145161000Y-113717273D01*
X145175958Y-113715800D01*
X145175966Y-113715800D01*
X145220751Y-113711389D01*
X145278206Y-113693960D01*
X145331157Y-113665658D01*
X145377568Y-113627568D01*
X145387112Y-113615939D01*
X147283945Y-111719107D01*
X147295568Y-111709568D01*
X147333658Y-111663157D01*
X147361960Y-111610206D01*
X147379389Y-111552751D01*
X147383800Y-111507966D01*
X147383800Y-111507958D01*
X147385273Y-111493000D01*
X147383800Y-111478042D01*
X147383800Y-110615351D01*
X147479709Y-110551266D01*
X147567266Y-110463709D01*
X147636059Y-110360754D01*
X147683444Y-110246356D01*
X147707600Y-110124912D01*
X147707600Y-110001088D01*
X152348900Y-110001088D01*
X152348900Y-110124912D01*
X152373056Y-110246356D01*
X152412701Y-110342068D01*
X152412700Y-116571042D01*
X152411227Y-116586000D01*
X152412700Y-116600958D01*
X152412700Y-116600965D01*
X152417111Y-116645750D01*
X152434540Y-116703205D01*
X152462842Y-116756156D01*
X152500932Y-116802568D01*
X152512561Y-116812112D01*
X152872392Y-117171944D01*
X152881932Y-117183568D01*
X152928343Y-117221658D01*
X152981294Y-117249960D01*
X153021319Y-117262102D01*
X153038748Y-117267389D01*
X153044389Y-117267945D01*
X153083534Y-117271800D01*
X153083541Y-117271800D01*
X153098499Y-117273273D01*
X153113457Y-117271800D01*
X157887647Y-117271800D01*
X154902546Y-120256903D01*
X154789412Y-120234400D01*
X154665588Y-120234400D01*
X154544144Y-120258556D01*
X154429746Y-120305941D01*
X154326791Y-120374734D01*
X154239234Y-120462291D01*
X154170441Y-120565246D01*
X154123056Y-120679644D01*
X154098900Y-120801088D01*
X154098900Y-120924912D01*
X154123056Y-121046356D01*
X154170441Y-121160754D01*
X154239234Y-121263709D01*
X154326791Y-121351266D01*
X154429746Y-121420059D01*
X154544144Y-121467444D01*
X154665588Y-121491600D01*
X154789412Y-121491600D01*
X154910856Y-121467444D01*
X155025254Y-121420059D01*
X155128209Y-121351266D01*
X155215766Y-121263709D01*
X155284559Y-121160754D01*
X155331944Y-121046356D01*
X155356100Y-120924912D01*
X155356100Y-120801088D01*
X155333597Y-120687954D01*
X155420463Y-120601088D01*
X162248900Y-120601088D01*
X162248900Y-120724912D01*
X162273056Y-120846356D01*
X162320441Y-120960754D01*
X162389234Y-121063709D01*
X162476791Y-121151266D01*
X162579746Y-121220059D01*
X162694144Y-121267444D01*
X162815588Y-121291600D01*
X162939412Y-121291600D01*
X163060856Y-121267444D01*
X163175254Y-121220059D01*
X163278209Y-121151266D01*
X163365766Y-121063709D01*
X163434559Y-120960754D01*
X163481944Y-120846356D01*
X163506100Y-120724912D01*
X163506100Y-120601088D01*
X163481944Y-120479644D01*
X163434559Y-120365246D01*
X163421840Y-120346211D01*
X167584126Y-116183926D01*
X167629540Y-116214271D01*
X167853131Y-116306886D01*
X168090493Y-116354100D01*
X168332507Y-116354100D01*
X168569869Y-116306886D01*
X168793460Y-116214271D01*
X168994687Y-116079816D01*
X169165816Y-115908687D01*
X169300271Y-115707460D01*
X169392886Y-115483869D01*
X169440100Y-115246507D01*
X169440100Y-115004493D01*
X170411900Y-115004493D01*
X170411900Y-115246507D01*
X170459114Y-115483869D01*
X170551729Y-115707460D01*
X170686184Y-115908687D01*
X170857313Y-116079816D01*
X171058540Y-116214271D01*
X171282131Y-116306886D01*
X171335700Y-116317542D01*
X171335701Y-120253553D01*
X171239412Y-120234400D01*
X171115588Y-120234400D01*
X170994144Y-120258556D01*
X170879746Y-120305941D01*
X170776791Y-120374734D01*
X170689234Y-120462291D01*
X170620441Y-120565246D01*
X170573056Y-120679644D01*
X170548900Y-120801088D01*
X170548900Y-120924912D01*
X170573056Y-121046356D01*
X170620441Y-121160754D01*
X170689234Y-121263709D01*
X170776791Y-121351266D01*
X170879746Y-121420059D01*
X170994144Y-121467444D01*
X171115588Y-121491600D01*
X171239412Y-121491600D01*
X171360856Y-121467444D01*
X171475254Y-121420059D01*
X171578209Y-121351266D01*
X171665766Y-121263709D01*
X171734559Y-121160754D01*
X171781944Y-121046356D01*
X171806100Y-120924912D01*
X171806100Y-120801088D01*
X171783597Y-120687955D01*
X171845444Y-120626108D01*
X171857068Y-120616568D01*
X171895158Y-120570157D01*
X171923460Y-120517206D01*
X171924674Y-120513205D01*
X171940889Y-120459752D01*
X171941397Y-120454597D01*
X171945300Y-120414966D01*
X171945300Y-120414958D01*
X171946773Y-120400000D01*
X171945300Y-120385042D01*
X171945300Y-116317541D01*
X171998869Y-116306886D01*
X172222460Y-116214271D01*
X172423687Y-116079816D01*
X172594816Y-115908687D01*
X172729271Y-115707460D01*
X172821886Y-115483869D01*
X172869100Y-115246507D01*
X172869100Y-115004493D01*
X172821886Y-114767131D01*
X172729271Y-114543540D01*
X172594816Y-114342313D01*
X172423687Y-114171184D01*
X172222460Y-114036729D01*
X171998869Y-113944114D01*
X171761507Y-113896900D01*
X171519493Y-113896900D01*
X171282131Y-113944114D01*
X171058540Y-114036729D01*
X170857313Y-114171184D01*
X170686184Y-114342313D01*
X170551729Y-114543540D01*
X170459114Y-114767131D01*
X170411900Y-115004493D01*
X169440100Y-115004493D01*
X169392886Y-114767131D01*
X169300271Y-114543540D01*
X169165816Y-114342313D01*
X168994687Y-114171184D01*
X168793460Y-114036729D01*
X168569869Y-113944114D01*
X168332507Y-113896900D01*
X168090493Y-113896900D01*
X167853131Y-113944114D01*
X167629540Y-114036729D01*
X167428313Y-114171184D01*
X167257184Y-114342313D01*
X167122729Y-114543540D01*
X167030114Y-114767131D01*
X166982900Y-115004493D01*
X166982900Y-115246507D01*
X167030114Y-115483869D01*
X167122729Y-115707460D01*
X167153074Y-115752874D01*
X162871549Y-120034400D01*
X162815588Y-120034400D01*
X162694144Y-120058556D01*
X162579746Y-120105941D01*
X162476791Y-120174734D01*
X162389234Y-120262291D01*
X162320441Y-120365246D01*
X162273056Y-120479644D01*
X162248900Y-120601088D01*
X155420463Y-120601088D01*
X158241753Y-117779800D01*
X162418042Y-117779800D01*
X162433000Y-117781273D01*
X162447958Y-117779800D01*
X162447966Y-117779800D01*
X162492751Y-117775389D01*
X162550206Y-117757960D01*
X162603157Y-117729658D01*
X162649568Y-117691568D01*
X162659112Y-117679939D01*
X164155126Y-116183926D01*
X164200540Y-116214271D01*
X164424131Y-116306886D01*
X164661493Y-116354100D01*
X164903507Y-116354100D01*
X165140869Y-116306886D01*
X165364460Y-116214271D01*
X165565687Y-116079816D01*
X165736816Y-115908687D01*
X165871271Y-115707460D01*
X165963886Y-115483869D01*
X166011100Y-115246507D01*
X166011100Y-115004493D01*
X165963886Y-114767131D01*
X165871271Y-114543540D01*
X165736816Y-114342313D01*
X165565687Y-114171184D01*
X165364460Y-114036729D01*
X165140869Y-113944114D01*
X164903507Y-113896900D01*
X164661493Y-113896900D01*
X164424131Y-113944114D01*
X164200540Y-114036729D01*
X163999313Y-114171184D01*
X163828184Y-114342313D01*
X163693729Y-114543540D01*
X163601114Y-114767131D01*
X163553900Y-115004493D01*
X163553900Y-115246507D01*
X163601114Y-115483869D01*
X163693729Y-115707460D01*
X163724074Y-115752874D01*
X162306749Y-117170200D01*
X159739851Y-117170200D01*
X160726125Y-116183926D01*
X160771540Y-116214271D01*
X160995131Y-116306886D01*
X161232493Y-116354100D01*
X161474507Y-116354100D01*
X161711869Y-116306886D01*
X161935460Y-116214271D01*
X162136687Y-116079816D01*
X162307816Y-115908687D01*
X162442271Y-115707460D01*
X162534886Y-115483869D01*
X162582100Y-115246507D01*
X162582100Y-115004493D01*
X162534886Y-114767131D01*
X162442271Y-114543540D01*
X162411926Y-114498125D01*
X163448252Y-113461800D01*
X170068542Y-113461800D01*
X170083500Y-113463273D01*
X170098458Y-113461800D01*
X170098466Y-113461800D01*
X170143251Y-113457389D01*
X170200706Y-113439960D01*
X170253657Y-113411658D01*
X170300068Y-113373568D01*
X170309612Y-113361939D01*
X173002455Y-110669097D01*
X173115588Y-110691600D01*
X173239412Y-110691600D01*
X173360856Y-110667444D01*
X173475254Y-110620059D01*
X173578209Y-110551266D01*
X173665766Y-110463709D01*
X173734559Y-110360754D01*
X173781944Y-110246356D01*
X173806100Y-110124912D01*
X173806100Y-110001088D01*
X173781944Y-109879644D01*
X173734559Y-109765246D01*
X173665766Y-109662291D01*
X173578209Y-109574734D01*
X173475254Y-109505941D01*
X173360856Y-109458556D01*
X173239412Y-109434400D01*
X173115588Y-109434400D01*
X172994144Y-109458556D01*
X172879746Y-109505941D01*
X172776791Y-109574734D01*
X172689234Y-109662291D01*
X172620441Y-109765246D01*
X172573056Y-109879644D01*
X172548900Y-110001088D01*
X172548900Y-110124912D01*
X172571403Y-110238045D01*
X169957249Y-112852200D01*
X166706333Y-112852200D01*
X167574545Y-111983989D01*
X167586169Y-111974449D01*
X167624259Y-111928038D01*
X167652561Y-111875087D01*
X167666575Y-111828889D01*
X167669990Y-111817633D01*
X167671798Y-111799274D01*
X167674401Y-111772847D01*
X167674401Y-111772840D01*
X167675874Y-111757882D01*
X167674401Y-111742924D01*
X167674401Y-110906158D01*
X167675874Y-110891200D01*
X167674401Y-110876242D01*
X167674401Y-110876235D01*
X167669990Y-110831450D01*
X167652561Y-110773995D01*
X167624259Y-110721044D01*
X167586169Y-110674633D01*
X167574541Y-110665090D01*
X167519512Y-110610061D01*
X167509968Y-110598432D01*
X167463557Y-110560342D01*
X167410606Y-110532040D01*
X167353151Y-110514611D01*
X167308366Y-110510200D01*
X167308358Y-110510200D01*
X167293400Y-110508727D01*
X167278442Y-110510200D01*
X167261497Y-110510200D01*
X167228905Y-110492779D01*
X167219743Y-110490000D01*
X167228905Y-110487221D01*
X167268618Y-110465994D01*
X167303427Y-110437427D01*
X167331994Y-110402618D01*
X167353221Y-110362905D01*
X167366292Y-110319813D01*
X167370706Y-110275000D01*
X167370706Y-110055000D01*
X167366292Y-110010187D01*
X167353221Y-109967095D01*
X167331994Y-109927382D01*
X167314881Y-109906529D01*
X167324644Y-109901342D01*
X167375027Y-109860205D01*
X167416416Y-109810029D01*
X167447222Y-109752743D01*
X167466259Y-109690547D01*
X167471200Y-109631350D01*
X167388650Y-109548800D01*
X166091800Y-109548800D01*
X166091800Y-109585800D01*
X165990200Y-109585800D01*
X165990200Y-109548800D01*
X165226600Y-109548800D01*
X165226600Y-109481200D01*
X165990200Y-109481200D01*
X165990200Y-109157350D01*
X166091800Y-109157350D01*
X166091800Y-109481200D01*
X167388650Y-109481200D01*
X167471200Y-109398650D01*
X167466259Y-109339453D01*
X167447222Y-109277257D01*
X167416416Y-109219971D01*
X167375027Y-109169795D01*
X167324644Y-109128658D01*
X167267204Y-109098141D01*
X167204914Y-109079416D01*
X167140167Y-109073203D01*
X166174350Y-109074800D01*
X166091800Y-109157350D01*
X165990200Y-109157350D01*
X165907650Y-109074800D01*
X165226600Y-109073674D01*
X165226600Y-108851459D01*
X165227827Y-108839000D01*
X165222931Y-108789286D01*
X165208429Y-108741482D01*
X165184881Y-108697426D01*
X165153190Y-108658810D01*
X165114574Y-108627119D01*
X165070518Y-108603571D01*
X165022714Y-108589069D01*
X164985459Y-108585400D01*
X164973000Y-108584173D01*
X164960541Y-108585400D01*
X160921459Y-108585400D01*
X160909000Y-108584173D01*
X160896541Y-108585400D01*
X160859286Y-108589069D01*
X160811482Y-108603571D01*
X160767426Y-108627119D01*
X160728810Y-108658810D01*
X160697119Y-108697426D01*
X160673571Y-108741482D01*
X160659069Y-108789286D01*
X160654173Y-108839000D01*
X160655400Y-108851459D01*
X160655400Y-109175294D01*
X159898346Y-109175294D01*
X157245518Y-106522466D01*
X158407876Y-106522466D01*
X158514011Y-106710939D01*
X158744942Y-106834748D01*
X158995590Y-106911125D01*
X159256323Y-106937135D01*
X159517120Y-106911779D01*
X159767959Y-106836031D01*
X159999201Y-106712803D01*
X160001989Y-106710939D01*
X160108124Y-106522466D01*
X159258000Y-105672342D01*
X158407876Y-106522466D01*
X157245518Y-106522466D01*
X156950926Y-106227875D01*
X156981271Y-106182460D01*
X157073886Y-105958869D01*
X157121100Y-105721507D01*
X157121100Y-105598823D01*
X157921365Y-105598823D01*
X157946721Y-105859620D01*
X158022469Y-106110459D01*
X158145697Y-106341701D01*
X158147561Y-106344489D01*
X158336034Y-106450624D01*
X159186158Y-105600500D01*
X159329842Y-105600500D01*
X160179966Y-106450624D01*
X160368439Y-106344489D01*
X160492248Y-106113558D01*
X160568625Y-105862910D01*
X160594635Y-105602177D01*
X160569279Y-105341380D01*
X160493531Y-105090541D01*
X160370303Y-104859299D01*
X160368439Y-104856511D01*
X160179966Y-104750376D01*
X159329842Y-105600500D01*
X159186158Y-105600500D01*
X158336034Y-104750376D01*
X158147561Y-104856511D01*
X158023752Y-105087442D01*
X157947375Y-105338090D01*
X157921365Y-105598823D01*
X157121100Y-105598823D01*
X157121100Y-105479493D01*
X157073886Y-105242131D01*
X156981271Y-105018540D01*
X156846816Y-104817313D01*
X156708037Y-104678534D01*
X158407876Y-104678534D01*
X159258000Y-105528658D01*
X160108124Y-104678534D01*
X160001989Y-104490061D01*
X159771058Y-104366252D01*
X159520410Y-104289875D01*
X159259677Y-104263865D01*
X158998880Y-104289221D01*
X158748041Y-104364969D01*
X158516799Y-104488197D01*
X158514011Y-104490061D01*
X158407876Y-104678534D01*
X156708037Y-104678534D01*
X156675687Y-104646184D01*
X156474460Y-104511729D01*
X156250869Y-104419114D01*
X156013507Y-104371900D01*
X155771493Y-104371900D01*
X155534131Y-104419114D01*
X155310540Y-104511729D01*
X155109313Y-104646184D01*
X154938184Y-104817313D01*
X154803729Y-105018540D01*
X154711114Y-105242131D01*
X154663900Y-105479493D01*
X154663900Y-105721507D01*
X154711114Y-105958869D01*
X154803729Y-106182460D01*
X154938184Y-106383687D01*
X155109313Y-106554816D01*
X155310540Y-106689271D01*
X155534131Y-106781886D01*
X155771493Y-106829100D01*
X156013507Y-106829100D01*
X156250869Y-106781886D01*
X156474460Y-106689271D01*
X156519875Y-106658926D01*
X159036242Y-109175294D01*
X158741000Y-109175294D01*
X158696187Y-109179708D01*
X158653095Y-109192779D01*
X158613382Y-109214006D01*
X158578573Y-109242573D01*
X158550006Y-109277382D01*
X158528779Y-109317095D01*
X158515708Y-109360187D01*
X158511294Y-109405000D01*
X158511294Y-109625000D01*
X158515708Y-109669813D01*
X158528779Y-109712905D01*
X158550006Y-109752618D01*
X158578573Y-109787427D01*
X158613382Y-109815994D01*
X158653095Y-109837221D01*
X158662257Y-109840000D01*
X158653095Y-109842779D01*
X158613382Y-109864006D01*
X158578573Y-109892573D01*
X158550006Y-109927382D01*
X158528779Y-109967095D01*
X158515708Y-110010187D01*
X158511294Y-110055000D01*
X158511294Y-110275000D01*
X158515708Y-110319813D01*
X158528779Y-110362905D01*
X158550006Y-110402618D01*
X158578573Y-110437427D01*
X158613382Y-110465994D01*
X158653095Y-110487221D01*
X158662257Y-110490000D01*
X158653095Y-110492779D01*
X158613382Y-110514006D01*
X158578573Y-110542573D01*
X158550006Y-110577382D01*
X158528779Y-110617095D01*
X158515708Y-110660187D01*
X158511294Y-110705000D01*
X158511294Y-110925000D01*
X158515708Y-110969813D01*
X158528779Y-111012905D01*
X158550006Y-111052618D01*
X158578573Y-111087427D01*
X158613382Y-111115994D01*
X158653095Y-111137221D01*
X158662257Y-111140000D01*
X158653095Y-111142779D01*
X158613382Y-111164006D01*
X158578573Y-111192573D01*
X158550006Y-111227382D01*
X158528779Y-111267095D01*
X158515708Y-111310187D01*
X158511294Y-111355000D01*
X158511294Y-111575000D01*
X158515708Y-111619813D01*
X158528779Y-111662905D01*
X158550006Y-111702618D01*
X158578573Y-111737427D01*
X158613382Y-111765994D01*
X158653095Y-111787221D01*
X158696187Y-111800292D01*
X158741000Y-111804706D01*
X160655401Y-111804706D01*
X160655401Y-112090200D01*
X157304457Y-112090200D01*
X157289499Y-112088727D01*
X157274541Y-112090200D01*
X157274534Y-112090200D01*
X157235389Y-112094055D01*
X157229748Y-112094611D01*
X157216376Y-112098668D01*
X157172294Y-112112040D01*
X157119343Y-112140342D01*
X157072932Y-112178432D01*
X157063392Y-112190056D01*
X155186375Y-114067074D01*
X155140960Y-114036729D01*
X154917369Y-113944114D01*
X154680007Y-113896900D01*
X154437993Y-113896900D01*
X154200631Y-113944114D01*
X153977040Y-114036729D01*
X153775813Y-114171184D01*
X153604684Y-114342313D01*
X153470229Y-114543540D01*
X153377614Y-114767131D01*
X153330400Y-115004493D01*
X153330400Y-115246507D01*
X153377614Y-115483869D01*
X153470229Y-115707460D01*
X153604684Y-115908687D01*
X153775813Y-116079816D01*
X153977040Y-116214271D01*
X154200631Y-116306886D01*
X154437993Y-116354100D01*
X154680007Y-116354100D01*
X154917369Y-116306886D01*
X155140960Y-116214271D01*
X155342187Y-116079816D01*
X155513316Y-115908687D01*
X155647771Y-115707460D01*
X155740386Y-115483869D01*
X155787600Y-115246507D01*
X155787600Y-115004493D01*
X155740386Y-114767131D01*
X155647771Y-114543540D01*
X155617426Y-114498125D01*
X157415752Y-112699800D01*
X159919148Y-112699800D01*
X158551875Y-114067074D01*
X158506460Y-114036729D01*
X158282869Y-113944114D01*
X158045507Y-113896900D01*
X157803493Y-113896900D01*
X157566131Y-113944114D01*
X157342540Y-114036729D01*
X157141313Y-114171184D01*
X156970184Y-114342313D01*
X156835729Y-114543540D01*
X156743114Y-114767131D01*
X156695900Y-115004493D01*
X156695900Y-115246507D01*
X156743114Y-115483869D01*
X156835729Y-115707460D01*
X156970184Y-115908687D01*
X157141313Y-116079816D01*
X157342540Y-116214271D01*
X157566131Y-116306886D01*
X157803493Y-116354100D01*
X158045507Y-116354100D01*
X158282869Y-116306886D01*
X158506460Y-116214271D01*
X158707687Y-116079816D01*
X158878816Y-115908687D01*
X159013271Y-115707460D01*
X159105886Y-115483869D01*
X159153100Y-115246507D01*
X159153100Y-115004493D01*
X159105886Y-114767131D01*
X159013271Y-114543540D01*
X158982926Y-114498125D01*
X160463752Y-113017300D01*
X163030648Y-113017300D01*
X161980875Y-114067074D01*
X161935460Y-114036729D01*
X161711869Y-113944114D01*
X161474507Y-113896900D01*
X161232493Y-113896900D01*
X160995131Y-113944114D01*
X160771540Y-114036729D01*
X160570313Y-114171184D01*
X160399184Y-114342313D01*
X160264729Y-114543540D01*
X160172114Y-114767131D01*
X160124900Y-115004493D01*
X160124900Y-115246507D01*
X160172114Y-115483869D01*
X160264729Y-115707460D01*
X160295074Y-115752875D01*
X159385749Y-116662200D01*
X153224752Y-116662200D01*
X153022300Y-116459749D01*
X153022300Y-110691600D01*
X153039412Y-110691600D01*
X153160856Y-110667444D01*
X153275254Y-110620059D01*
X153378209Y-110551266D01*
X153465766Y-110463709D01*
X153534559Y-110360754D01*
X153581944Y-110246356D01*
X153606100Y-110124912D01*
X153606100Y-110001088D01*
X153581944Y-109879644D01*
X153534559Y-109765246D01*
X153465766Y-109662291D01*
X153378209Y-109574734D01*
X153275254Y-109505941D01*
X153160856Y-109458556D01*
X153039412Y-109434400D01*
X152915588Y-109434400D01*
X152794144Y-109458556D01*
X152679746Y-109505941D01*
X152576791Y-109574734D01*
X152489234Y-109662291D01*
X152420441Y-109765246D01*
X152373056Y-109879644D01*
X152348900Y-110001088D01*
X147707600Y-110001088D01*
X147683444Y-109879644D01*
X147636059Y-109765246D01*
X147567266Y-109662291D01*
X147479709Y-109574734D01*
X147376754Y-109505941D01*
X147262356Y-109458556D01*
X147140912Y-109434400D01*
X147017088Y-109434400D01*
X146895644Y-109458556D01*
X146781246Y-109505941D01*
X146678291Y-109574734D01*
X146590734Y-109662291D01*
X146521941Y-109765246D01*
X146474556Y-109879644D01*
X146450400Y-110001088D01*
X146450400Y-110124912D01*
X146474556Y-110246356D01*
X146521941Y-110360754D01*
X146590734Y-110463709D01*
X146678291Y-110551266D01*
X146774201Y-110615351D01*
X146774200Y-111366748D01*
X145034749Y-113106200D01*
X141043075Y-113106200D01*
X141089347Y-113081468D01*
X141135758Y-113043378D01*
X141145302Y-113031749D01*
X142127445Y-112049607D01*
X142139068Y-112040068D01*
X142177158Y-111993657D01*
X142205460Y-111940706D01*
X142222889Y-111883251D01*
X142227300Y-111838466D01*
X142227300Y-111838458D01*
X142228773Y-111823500D01*
X142227300Y-111808542D01*
X142227300Y-111393958D01*
X142228773Y-111379000D01*
X142227300Y-111364042D01*
X142227300Y-111364034D01*
X142222889Y-111319249D01*
X142220670Y-111311932D01*
X142205460Y-111261794D01*
X142193219Y-111238892D01*
X142177158Y-111208843D01*
X142139068Y-111162432D01*
X142127444Y-111152892D01*
X141648112Y-110673561D01*
X141638568Y-110661932D01*
X141592157Y-110623842D01*
X141539206Y-110595540D01*
X141481751Y-110578111D01*
X141436966Y-110573700D01*
X141436958Y-110573700D01*
X141422000Y-110572227D01*
X141407042Y-110573700D01*
X141162997Y-110573700D01*
X141130405Y-110556279D01*
X141121243Y-110553500D01*
X141130405Y-110550721D01*
X141170118Y-110529494D01*
X141204927Y-110500927D01*
X141233494Y-110466118D01*
X141254721Y-110426405D01*
X141267792Y-110383313D01*
X141272206Y-110338500D01*
X141272206Y-110118500D01*
X141267792Y-110073687D01*
X141254721Y-110030595D01*
X141233494Y-109990882D01*
X141216381Y-109970029D01*
X141226144Y-109964842D01*
X141276527Y-109923705D01*
X141317916Y-109873529D01*
X141348722Y-109816243D01*
X141367759Y-109754047D01*
X141372700Y-109694850D01*
X141290150Y-109612300D01*
X139993300Y-109612300D01*
X139993300Y-109649300D01*
X139891700Y-109649300D01*
X139891700Y-109612300D01*
X139128100Y-109612300D01*
X139128100Y-109544700D01*
X139891700Y-109544700D01*
X139891700Y-109220850D01*
X139993300Y-109220850D01*
X139993300Y-109544700D01*
X141290150Y-109544700D01*
X141372700Y-109462150D01*
X141367759Y-109402953D01*
X141348722Y-109340757D01*
X141317916Y-109283471D01*
X141276527Y-109233295D01*
X141226144Y-109192158D01*
X141168704Y-109161641D01*
X141106414Y-109142916D01*
X141041667Y-109136703D01*
X140075850Y-109138300D01*
X139993300Y-109220850D01*
X139891700Y-109220850D01*
X139809150Y-109138300D01*
X139128100Y-109137174D01*
X139128100Y-108914959D01*
X139129327Y-108902500D01*
X139124431Y-108852786D01*
X139109929Y-108804982D01*
X139086381Y-108760926D01*
X139054690Y-108722310D01*
X139016074Y-108690619D01*
X138972018Y-108667071D01*
X138924214Y-108652569D01*
X138886959Y-108648900D01*
X138874500Y-108647673D01*
X138862041Y-108648900D01*
X134822959Y-108648900D01*
X134810500Y-108647673D01*
X134798041Y-108648900D01*
X134760786Y-108652569D01*
X134712982Y-108667071D01*
X134668926Y-108690619D01*
X134630310Y-108722310D01*
X134598619Y-108760926D01*
X134575071Y-108804982D01*
X134560569Y-108852786D01*
X134555673Y-108902500D01*
X134556900Y-108914959D01*
X134556900Y-109137174D01*
X133875850Y-109138300D01*
X133793300Y-109220850D01*
X133793300Y-109544700D01*
X134556900Y-109544700D01*
X134556900Y-109612300D01*
X133793300Y-109612300D01*
X133793300Y-109649300D01*
X133691700Y-109649300D01*
X133691700Y-109612300D01*
X132394850Y-109612300D01*
X132349901Y-109657249D01*
X132154802Y-109462150D01*
X132312300Y-109462150D01*
X132394850Y-109544700D01*
X133691700Y-109544700D01*
X133691700Y-109220850D01*
X133609150Y-109138300D01*
X132643333Y-109136703D01*
X132578586Y-109142916D01*
X132516296Y-109161641D01*
X132458856Y-109192158D01*
X132408473Y-109233295D01*
X132367084Y-109283471D01*
X132336278Y-109340757D01*
X132317241Y-109402953D01*
X132312300Y-109462150D01*
X132154802Y-109462150D01*
X130275300Y-107582649D01*
X130275300Y-106524541D01*
X130328869Y-106513886D01*
X130552460Y-106421271D01*
X130753687Y-106286816D01*
X130786037Y-106254466D01*
X132563376Y-106254466D01*
X132669511Y-106442939D01*
X132900442Y-106566748D01*
X133151090Y-106643125D01*
X133411823Y-106669135D01*
X133672620Y-106643779D01*
X133923459Y-106568031D01*
X134154701Y-106444803D01*
X134157489Y-106442939D01*
X134263624Y-106254466D01*
X133413500Y-105404342D01*
X132563376Y-106254466D01*
X130786037Y-106254466D01*
X130924816Y-106115687D01*
X131059271Y-105914460D01*
X131151886Y-105690869D01*
X131199100Y-105453507D01*
X131199100Y-105330823D01*
X132076865Y-105330823D01*
X132102221Y-105591620D01*
X132177969Y-105842459D01*
X132301197Y-106073701D01*
X132303061Y-106076489D01*
X132491534Y-106182624D01*
X133341658Y-105332500D01*
X133485342Y-105332500D01*
X134335466Y-106182624D01*
X134523939Y-106076489D01*
X134647748Y-105845558D01*
X134724125Y-105594910D01*
X134750135Y-105334177D01*
X134724779Y-105073380D01*
X134649031Y-104822541D01*
X134525803Y-104591299D01*
X134523939Y-104588511D01*
X134335466Y-104482376D01*
X133485342Y-105332500D01*
X133341658Y-105332500D01*
X132491534Y-104482376D01*
X132303061Y-104588511D01*
X132179252Y-104819442D01*
X132102875Y-105070090D01*
X132076865Y-105330823D01*
X131199100Y-105330823D01*
X131199100Y-105211493D01*
X131151886Y-104974131D01*
X131059271Y-104750540D01*
X130924816Y-104549313D01*
X130786037Y-104410534D01*
X132563376Y-104410534D01*
X133413500Y-105260658D01*
X134263624Y-104410534D01*
X134157489Y-104222061D01*
X133926558Y-104098252D01*
X133675910Y-104021875D01*
X133415177Y-103995865D01*
X133154380Y-104021221D01*
X132903541Y-104096969D01*
X132672299Y-104220197D01*
X132669511Y-104222061D01*
X132563376Y-104410534D01*
X130786037Y-104410534D01*
X130753687Y-104378184D01*
X130552460Y-104243729D01*
X130328869Y-104151114D01*
X130091507Y-104103900D01*
X129849493Y-104103900D01*
X129612131Y-104151114D01*
X129388540Y-104243729D01*
X129187313Y-104378184D01*
X129016184Y-104549313D01*
X128881729Y-104750540D01*
X128789114Y-104974131D01*
X128741900Y-105211493D01*
X128741900Y-105453507D01*
X128789114Y-105690869D01*
X128881729Y-105914460D01*
X129016184Y-106115687D01*
X129187313Y-106286816D01*
X129388540Y-106421271D01*
X129612131Y-106513886D01*
X129665700Y-106524542D01*
X129665700Y-107693942D01*
X129664227Y-107708900D01*
X129665700Y-107723858D01*
X129665700Y-107723865D01*
X129670111Y-107768650D01*
X129687540Y-107826105D01*
X129715842Y-107879056D01*
X129753932Y-107925468D01*
X129765561Y-107935012D01*
X132263992Y-110433444D01*
X132273532Y-110445068D01*
X132319943Y-110483158D01*
X132372894Y-110511460D01*
X132412919Y-110523602D01*
X132430348Y-110528889D01*
X132435989Y-110529445D01*
X132475134Y-110533300D01*
X132475141Y-110533300D01*
X132490099Y-110534773D01*
X132505057Y-110533300D01*
X132522003Y-110533300D01*
X132554595Y-110550721D01*
X132563757Y-110553500D01*
X132554595Y-110556279D01*
X132514882Y-110577506D01*
X132480073Y-110606073D01*
X132451506Y-110640882D01*
X132430279Y-110680595D01*
X132417208Y-110723687D01*
X132412794Y-110768500D01*
X132412794Y-110988500D01*
X132417208Y-111033313D01*
X132430279Y-111076405D01*
X132451506Y-111116118D01*
X132480073Y-111150927D01*
X132514882Y-111179494D01*
X132554595Y-111200721D01*
X132563757Y-111203500D01*
X132554595Y-111206279D01*
X132514882Y-111227506D01*
X132480073Y-111256073D01*
X132451506Y-111290882D01*
X132430279Y-111330595D01*
X132417208Y-111373687D01*
X132412794Y-111418500D01*
X132412794Y-111638500D01*
X132417208Y-111683313D01*
X132430279Y-111726405D01*
X132451506Y-111766118D01*
X132480073Y-111800927D01*
X132514882Y-111829494D01*
X132554595Y-111850721D01*
X132597687Y-111863792D01*
X132642500Y-111868206D01*
X134556901Y-111868206D01*
X134556901Y-112192031D01*
X134555673Y-112204500D01*
X134556924Y-112217200D01*
X130697957Y-112217200D01*
X130682999Y-112215727D01*
X130668041Y-112217200D01*
X130668034Y-112217200D01*
X130628889Y-112221055D01*
X130623248Y-112221611D01*
X130612591Y-112224844D01*
X130565794Y-112239040D01*
X130512843Y-112267342D01*
X130466432Y-112305432D01*
X130456892Y-112317056D01*
X128452875Y-114321074D01*
X128407460Y-114290729D01*
X128183869Y-114198114D01*
X127946507Y-114150900D01*
X127704493Y-114150900D01*
X127467131Y-114198114D01*
X127243540Y-114290729D01*
X127042313Y-114425184D01*
X126871184Y-114596313D01*
X126736729Y-114797540D01*
X126644114Y-115021131D01*
X126596900Y-115258493D01*
X126596900Y-115500507D01*
X126644114Y-115737869D01*
X126736729Y-115961460D01*
X126871184Y-116162687D01*
X127042313Y-116333816D01*
X127243540Y-116468271D01*
X127467131Y-116560886D01*
X127704493Y-116608100D01*
X127946507Y-116608100D01*
X128183869Y-116560886D01*
X128407460Y-116468271D01*
X128608687Y-116333816D01*
X128779816Y-116162687D01*
X128914271Y-115961460D01*
X129006886Y-115737869D01*
X129054100Y-115500507D01*
X129054100Y-115258493D01*
X129006886Y-115021131D01*
X128914271Y-114797540D01*
X128883926Y-114752125D01*
X130809252Y-112826800D01*
X133376148Y-112826800D01*
X131881875Y-114321074D01*
X131836460Y-114290729D01*
X131612869Y-114198114D01*
X131375507Y-114150900D01*
X131133493Y-114150900D01*
X130896131Y-114198114D01*
X130672540Y-114290729D01*
X130471313Y-114425184D01*
X130300184Y-114596313D01*
X130165729Y-114797540D01*
X130073114Y-115021131D01*
X130025900Y-115258493D01*
X130025900Y-115500507D01*
X130073114Y-115737869D01*
X130165729Y-115961460D01*
X130300184Y-116162687D01*
X130471313Y-116333816D01*
X130672540Y-116468271D01*
X130896131Y-116560886D01*
X131133493Y-116608100D01*
X131375507Y-116608100D01*
X131612869Y-116560886D01*
X131836460Y-116468271D01*
X132037687Y-116333816D01*
X132208816Y-116162687D01*
X132343271Y-115961460D01*
X132435886Y-115737869D01*
X132483100Y-115500507D01*
X132483100Y-115258493D01*
X132435886Y-115021131D01*
X132343271Y-114797540D01*
X132312926Y-114752125D01*
X133933442Y-113131610D01*
X136528115Y-113131610D01*
X136481843Y-113156342D01*
X136435432Y-113194432D01*
X136425892Y-113206056D01*
X135310875Y-114321074D01*
X135265460Y-114290729D01*
X135041869Y-114198114D01*
X134804507Y-114150900D01*
X134562493Y-114150900D01*
X134325131Y-114198114D01*
X134101540Y-114290729D01*
X133900313Y-114425184D01*
X133729184Y-114596313D01*
X133594729Y-114797540D01*
X133502114Y-115021131D01*
X133454900Y-115258493D01*
X133454900Y-115500507D01*
X133502114Y-115737869D01*
X133594729Y-115961460D01*
X133625074Y-116006875D01*
X132334749Y-117297200D01*
X126173752Y-117297200D01*
X125336300Y-116459749D01*
X125336300Y-115315251D01*
X127083951Y-113567602D01*
X127095568Y-113558068D01*
X127105103Y-113546450D01*
X127105109Y-113546444D01*
X127120077Y-113528205D01*
X127133658Y-113511657D01*
X127161960Y-113458706D01*
X127179389Y-113401251D01*
X127183800Y-113356466D01*
X127183800Y-113356458D01*
X127185273Y-113341500D01*
X127183800Y-113326542D01*
X127183800Y-110615351D01*
X127279709Y-110551266D01*
X127367266Y-110463709D01*
X127436059Y-110360754D01*
X127483444Y-110246356D01*
X127507600Y-110124912D01*
X127507600Y-110001088D01*
X127483444Y-109879644D01*
X127436059Y-109765246D01*
X127367266Y-109662291D01*
X127279709Y-109574734D01*
X127176754Y-109505941D01*
X127062356Y-109458556D01*
X126940912Y-109434400D01*
X126817088Y-109434400D01*
X126695644Y-109458556D01*
X126581246Y-109505941D01*
X126478291Y-109574734D01*
X126390734Y-109662291D01*
X126321941Y-109765246D01*
X126274556Y-109879644D01*
X126250400Y-110001088D01*
X126250400Y-110124912D01*
X126274556Y-110246356D01*
X126321941Y-110360754D01*
X126390734Y-110463709D01*
X126478291Y-110551266D01*
X126574201Y-110615352D01*
X126574200Y-113215247D01*
X124826557Y-114962892D01*
X124814933Y-114972432D01*
X124776843Y-115018843D01*
X124761715Y-115047146D01*
X124748540Y-115071795D01*
X124731111Y-115129249D01*
X124725227Y-115189000D01*
X123329700Y-115189000D01*
X123329700Y-100201088D01*
X128000400Y-100201088D01*
X128000400Y-100324912D01*
X128024556Y-100446356D01*
X128071941Y-100560754D01*
X128140734Y-100663709D01*
X128228291Y-100751266D01*
X128331246Y-100820059D01*
X128445644Y-100867444D01*
X128567088Y-100891600D01*
X128690912Y-100891600D01*
X128812356Y-100867444D01*
X128926754Y-100820059D01*
X129029709Y-100751266D01*
X129117266Y-100663709D01*
X129181351Y-100567800D01*
X131632749Y-100567800D01*
X135784074Y-104719126D01*
X135753729Y-104764540D01*
X135661114Y-104988131D01*
X135613900Y-105225493D01*
X135613900Y-105467507D01*
X135661114Y-105704869D01*
X135753729Y-105928460D01*
X135888184Y-106129687D01*
X136059313Y-106300816D01*
X136260540Y-106435271D01*
X136484131Y-106527886D01*
X136721493Y-106575100D01*
X136963507Y-106575100D01*
X137200869Y-106527886D01*
X137424460Y-106435271D01*
X137625687Y-106300816D01*
X137796816Y-106129687D01*
X137931271Y-105928460D01*
X138023886Y-105704869D01*
X138071100Y-105467507D01*
X138071100Y-105225493D01*
X138023886Y-104988131D01*
X137931271Y-104764540D01*
X137796816Y-104563313D01*
X137625687Y-104392184D01*
X137424460Y-104257729D01*
X137200869Y-104165114D01*
X136963507Y-104117900D01*
X136721493Y-104117900D01*
X136484131Y-104165114D01*
X136260540Y-104257729D01*
X136215126Y-104288074D01*
X132228140Y-100301088D01*
X136200400Y-100301088D01*
X136200400Y-100424912D01*
X136224556Y-100546356D01*
X136271941Y-100660754D01*
X136340734Y-100763709D01*
X136428291Y-100851266D01*
X136531246Y-100920059D01*
X136645644Y-100967444D01*
X136767088Y-100991600D01*
X136890912Y-100991600D01*
X137004046Y-100969097D01*
X139966701Y-103931753D01*
X139966701Y-104154458D01*
X139913131Y-104165114D01*
X139689540Y-104257729D01*
X139488313Y-104392184D01*
X139317184Y-104563313D01*
X139182729Y-104764540D01*
X139090114Y-104988131D01*
X139042900Y-105225493D01*
X139042900Y-105467507D01*
X139090114Y-105704869D01*
X139182729Y-105928460D01*
X139317184Y-106129687D01*
X139488313Y-106300816D01*
X139689540Y-106435271D01*
X139913131Y-106527886D01*
X140150493Y-106575100D01*
X140392507Y-106575100D01*
X140629869Y-106527886D01*
X140853460Y-106435271D01*
X141054687Y-106300816D01*
X141225816Y-106129687D01*
X141360271Y-105928460D01*
X141452886Y-105704869D01*
X141500100Y-105467507D01*
X141500100Y-105225493D01*
X142471900Y-105225493D01*
X142471900Y-105467507D01*
X142519114Y-105704869D01*
X142611729Y-105928460D01*
X142746184Y-106129687D01*
X142917313Y-106300816D01*
X143118540Y-106435271D01*
X143342131Y-106527886D01*
X143579493Y-106575100D01*
X143821507Y-106575100D01*
X144058869Y-106527886D01*
X144282460Y-106435271D01*
X144483687Y-106300816D01*
X144654816Y-106129687D01*
X144789271Y-105928460D01*
X144881886Y-105704869D01*
X144929100Y-105467507D01*
X144929100Y-105225493D01*
X144881886Y-104988131D01*
X144789271Y-104764540D01*
X144654816Y-104563313D01*
X144483687Y-104392184D01*
X144282460Y-104257729D01*
X144058869Y-104165114D01*
X144005300Y-104154459D01*
X144005300Y-101767751D01*
X144903955Y-100869097D01*
X145017088Y-100891600D01*
X145140912Y-100891600D01*
X145262356Y-100867444D01*
X145376754Y-100820059D01*
X145479709Y-100751266D01*
X145567266Y-100663709D01*
X145636059Y-100560754D01*
X145683444Y-100446356D01*
X145707600Y-100324912D01*
X145707600Y-100201088D01*
X154098900Y-100201088D01*
X154098900Y-100324912D01*
X154123056Y-100446356D01*
X154170441Y-100560754D01*
X154239234Y-100663709D01*
X154326791Y-100751266D01*
X154429746Y-100820059D01*
X154544144Y-100867444D01*
X154665588Y-100891600D01*
X154789412Y-100891600D01*
X154910856Y-100867444D01*
X155025254Y-100820059D01*
X155128209Y-100751266D01*
X155215766Y-100663709D01*
X155279851Y-100567800D01*
X157286749Y-100567800D01*
X161692074Y-104973126D01*
X161661729Y-105018540D01*
X161569114Y-105242131D01*
X161521900Y-105479493D01*
X161521900Y-105721507D01*
X161569114Y-105958869D01*
X161661729Y-106182460D01*
X161796184Y-106383687D01*
X161967313Y-106554816D01*
X162168540Y-106689271D01*
X162392131Y-106781886D01*
X162629493Y-106829100D01*
X162871507Y-106829100D01*
X163108869Y-106781886D01*
X163332460Y-106689271D01*
X163533687Y-106554816D01*
X163704816Y-106383687D01*
X163839271Y-106182460D01*
X163931886Y-105958869D01*
X163979100Y-105721507D01*
X163979100Y-105479493D01*
X163931886Y-105242131D01*
X163839271Y-105018540D01*
X163704816Y-104817313D01*
X163533687Y-104646184D01*
X163332460Y-104511729D01*
X163108869Y-104419114D01*
X162871507Y-104371900D01*
X162629493Y-104371900D01*
X162392131Y-104419114D01*
X162168540Y-104511729D01*
X162123126Y-104542074D01*
X157882140Y-100301088D01*
X162298900Y-100301088D01*
X162298900Y-100424912D01*
X162323056Y-100546356D01*
X162370441Y-100660754D01*
X162439234Y-100763709D01*
X162526791Y-100851266D01*
X162629746Y-100920059D01*
X162744144Y-100967444D01*
X162865588Y-100991600D01*
X162989412Y-100991600D01*
X163102546Y-100969097D01*
X166001701Y-103868253D01*
X166001701Y-104408458D01*
X165948131Y-104419114D01*
X165724540Y-104511729D01*
X165523313Y-104646184D01*
X165352184Y-104817313D01*
X165217729Y-105018540D01*
X165125114Y-105242131D01*
X165077900Y-105479493D01*
X165077900Y-105721507D01*
X165125114Y-105958869D01*
X165217729Y-106182460D01*
X165352184Y-106383687D01*
X165523313Y-106554816D01*
X165724540Y-106689271D01*
X165948131Y-106781886D01*
X166185493Y-106829100D01*
X166427507Y-106829100D01*
X166664869Y-106781886D01*
X166888460Y-106689271D01*
X167089687Y-106554816D01*
X167260816Y-106383687D01*
X167395271Y-106182460D01*
X167487886Y-105958869D01*
X167535100Y-105721507D01*
X167535100Y-105479493D01*
X168506900Y-105479493D01*
X168506900Y-105721507D01*
X168554114Y-105958869D01*
X168646729Y-106182460D01*
X168781184Y-106383687D01*
X168952313Y-106554816D01*
X169153540Y-106689271D01*
X169377131Y-106781886D01*
X169614493Y-106829100D01*
X169856507Y-106829100D01*
X170093869Y-106781886D01*
X170317460Y-106689271D01*
X170518687Y-106554816D01*
X170689816Y-106383687D01*
X170824271Y-106182460D01*
X170916886Y-105958869D01*
X170964100Y-105721507D01*
X170964100Y-105479493D01*
X170916886Y-105242131D01*
X170824271Y-105018540D01*
X170689816Y-104817313D01*
X170518687Y-104646184D01*
X170317460Y-104511729D01*
X170093869Y-104419114D01*
X170040300Y-104408459D01*
X170040300Y-101831251D01*
X171002455Y-100869097D01*
X171115588Y-100891600D01*
X171239412Y-100891600D01*
X171360856Y-100867444D01*
X171475254Y-100820059D01*
X171578209Y-100751266D01*
X171665766Y-100663709D01*
X171734559Y-100560754D01*
X171781944Y-100446356D01*
X171806100Y-100324912D01*
X171806100Y-100201088D01*
X171781944Y-100079644D01*
X171734559Y-99965246D01*
X171665766Y-99862291D01*
X171578209Y-99774734D01*
X171475254Y-99705941D01*
X171360856Y-99658556D01*
X171239412Y-99634400D01*
X171115588Y-99634400D01*
X170994144Y-99658556D01*
X170879746Y-99705941D01*
X170776791Y-99774734D01*
X170689234Y-99862291D01*
X170620441Y-99965246D01*
X170573056Y-100079644D01*
X170548900Y-100201088D01*
X170548900Y-100324912D01*
X170571403Y-100438045D01*
X169530557Y-101478892D01*
X169518933Y-101488432D01*
X169480843Y-101534843D01*
X169465715Y-101563146D01*
X169452540Y-101587795D01*
X169435111Y-101645249D01*
X169429227Y-101705000D01*
X169430701Y-101719968D01*
X169430700Y-104408458D01*
X169377131Y-104419114D01*
X169153540Y-104511729D01*
X168952313Y-104646184D01*
X168781184Y-104817313D01*
X168646729Y-105018540D01*
X168554114Y-105242131D01*
X168506900Y-105479493D01*
X167535100Y-105479493D01*
X167487886Y-105242131D01*
X167395271Y-105018540D01*
X167260816Y-104817313D01*
X167089687Y-104646184D01*
X166888460Y-104511729D01*
X166664869Y-104419114D01*
X166611300Y-104408459D01*
X166611300Y-103756958D01*
X166612773Y-103742000D01*
X166611300Y-103727042D01*
X166611300Y-103727034D01*
X166606889Y-103682249D01*
X166589460Y-103624794D01*
X166561158Y-103571843D01*
X166523068Y-103525432D01*
X166511444Y-103515892D01*
X163533597Y-100538046D01*
X163556100Y-100424912D01*
X163556100Y-100301088D01*
X163531944Y-100179644D01*
X163484559Y-100065246D01*
X163415766Y-99962291D01*
X163328209Y-99874734D01*
X163225254Y-99805941D01*
X163110856Y-99758556D01*
X162989412Y-99734400D01*
X162865588Y-99734400D01*
X162744144Y-99758556D01*
X162629746Y-99805941D01*
X162526791Y-99874734D01*
X162439234Y-99962291D01*
X162370441Y-100065246D01*
X162323056Y-100179644D01*
X162298900Y-100301088D01*
X157882140Y-100301088D01*
X157639112Y-100058061D01*
X157629568Y-100046432D01*
X157583157Y-100008342D01*
X157530206Y-99980040D01*
X157472751Y-99962611D01*
X157427966Y-99958200D01*
X157427958Y-99958200D01*
X157413000Y-99956727D01*
X157398042Y-99958200D01*
X155279851Y-99958200D01*
X155215766Y-99862291D01*
X155128209Y-99774734D01*
X155025254Y-99705941D01*
X154910856Y-99658556D01*
X154789412Y-99634400D01*
X154665588Y-99634400D01*
X154544144Y-99658556D01*
X154429746Y-99705941D01*
X154326791Y-99774734D01*
X154239234Y-99862291D01*
X154170441Y-99965246D01*
X154123056Y-100079644D01*
X154098900Y-100201088D01*
X145707600Y-100201088D01*
X145683444Y-100079644D01*
X145636059Y-99965246D01*
X145567266Y-99862291D01*
X145479709Y-99774734D01*
X145376754Y-99705941D01*
X145262356Y-99658556D01*
X145140912Y-99634400D01*
X145017088Y-99634400D01*
X144895644Y-99658556D01*
X144781246Y-99705941D01*
X144678291Y-99774734D01*
X144590734Y-99862291D01*
X144521941Y-99965246D01*
X144474556Y-100079644D01*
X144450400Y-100201088D01*
X144450400Y-100324912D01*
X144472903Y-100438045D01*
X143495557Y-101415392D01*
X143483933Y-101424932D01*
X143445843Y-101471343D01*
X143436709Y-101488432D01*
X143417540Y-101524295D01*
X143400111Y-101581749D01*
X143394227Y-101641500D01*
X143395701Y-101656468D01*
X143395700Y-104154458D01*
X143342131Y-104165114D01*
X143118540Y-104257729D01*
X142917313Y-104392184D01*
X142746184Y-104563313D01*
X142611729Y-104764540D01*
X142519114Y-104988131D01*
X142471900Y-105225493D01*
X141500100Y-105225493D01*
X141452886Y-104988131D01*
X141360271Y-104764540D01*
X141225816Y-104563313D01*
X141054687Y-104392184D01*
X140853460Y-104257729D01*
X140629869Y-104165114D01*
X140576300Y-104154459D01*
X140576300Y-103820457D01*
X140577773Y-103805499D01*
X140576300Y-103790541D01*
X140576300Y-103790534D01*
X140571889Y-103745749D01*
X140554460Y-103688294D01*
X140526158Y-103635343D01*
X140488068Y-103588932D01*
X140476444Y-103579392D01*
X137435097Y-100538046D01*
X137457600Y-100424912D01*
X137457600Y-100301088D01*
X137433444Y-100179644D01*
X137386059Y-100065246D01*
X137317266Y-99962291D01*
X137229709Y-99874734D01*
X137126754Y-99805941D01*
X137012356Y-99758556D01*
X136890912Y-99734400D01*
X136767088Y-99734400D01*
X136645644Y-99758556D01*
X136531246Y-99805941D01*
X136428291Y-99874734D01*
X136340734Y-99962291D01*
X136271941Y-100065246D01*
X136224556Y-100179644D01*
X136200400Y-100301088D01*
X132228140Y-100301088D01*
X131985112Y-100058061D01*
X131975568Y-100046432D01*
X131929157Y-100008342D01*
X131876206Y-99980040D01*
X131818751Y-99962611D01*
X131773966Y-99958200D01*
X131773958Y-99958200D01*
X131759000Y-99956727D01*
X131744042Y-99958200D01*
X129181351Y-99958200D01*
X129117266Y-99862291D01*
X129029709Y-99774734D01*
X128926754Y-99705941D01*
X128812356Y-99658556D01*
X128690912Y-99634400D01*
X128567088Y-99634400D01*
X128445644Y-99658556D01*
X128331246Y-99705941D01*
X128228291Y-99774734D01*
X128140734Y-99862291D01*
X128071941Y-99965246D01*
X128024556Y-100079644D01*
X128000400Y-100201088D01*
X123329700Y-100201088D01*
X123329700Y-99014488D01*
X123570124Y-98533640D01*
X124573556Y-97530208D01*
X125063393Y-97162830D01*
X126309044Y-96913700D01*
X146494500Y-96913700D01*
X146507027Y-96912663D01*
X147269027Y-96785663D01*
X147284800Y-96781250D01*
X147919800Y-96527250D01*
X147937220Y-96517460D01*
X148445220Y-96136460D01*
X148460460Y-96121220D01*
X148841460Y-95613220D01*
X148845834Y-95606716D01*
X149226834Y-94971978D01*
X149233229Y-94958479D01*
X149237112Y-94942211D01*
X149364112Y-93925949D01*
X149364700Y-93916500D01*
X149364700Y-88201500D01*
X151141227Y-88201500D01*
X151142701Y-88216468D01*
X151142700Y-89837542D01*
X151141227Y-89852500D01*
X151142700Y-89867458D01*
X151142700Y-89867465D01*
X151145007Y-89890886D01*
X151147111Y-89912251D01*
X151164540Y-89969705D01*
X151192842Y-90022656D01*
X151230932Y-90069068D01*
X151242561Y-90078612D01*
X152554892Y-91390944D01*
X152564432Y-91402568D01*
X152610843Y-91440658D01*
X152663794Y-91468960D01*
X152721248Y-91486389D01*
X152726403Y-91486897D01*
X152766034Y-91490800D01*
X152766042Y-91490800D01*
X152781000Y-91492273D01*
X152795958Y-91490800D01*
X157465148Y-91490800D01*
X154861046Y-94094903D01*
X154747912Y-94072400D01*
X154624088Y-94072400D01*
X154502644Y-94096556D01*
X154388246Y-94143941D01*
X154285291Y-94212734D01*
X154197734Y-94300291D01*
X154128941Y-94403246D01*
X154081556Y-94517644D01*
X154057400Y-94639088D01*
X154057400Y-94762912D01*
X154081556Y-94884356D01*
X154128941Y-94998754D01*
X154197734Y-95101709D01*
X154285291Y-95189266D01*
X154388246Y-95258059D01*
X154502644Y-95305444D01*
X154624088Y-95329600D01*
X154747912Y-95329600D01*
X154869356Y-95305444D01*
X154983754Y-95258059D01*
X155086709Y-95189266D01*
X155174266Y-95101709D01*
X155243059Y-94998754D01*
X155290444Y-94884356D01*
X155314600Y-94762912D01*
X155314600Y-94639088D01*
X155292097Y-94525954D01*
X155378963Y-94439088D01*
X162207400Y-94439088D01*
X162207400Y-94562912D01*
X162231556Y-94684356D01*
X162278941Y-94798754D01*
X162347734Y-94901709D01*
X162435291Y-94989266D01*
X162538246Y-95058059D01*
X162652644Y-95105444D01*
X162774088Y-95129600D01*
X162897912Y-95129600D01*
X163019356Y-95105444D01*
X163133754Y-95058059D01*
X163236709Y-94989266D01*
X163324266Y-94901709D01*
X163393059Y-94798754D01*
X163440444Y-94684356D01*
X163464600Y-94562912D01*
X163464600Y-94439088D01*
X163440444Y-94317644D01*
X163393059Y-94203246D01*
X163346093Y-94132958D01*
X167584126Y-89894926D01*
X167629540Y-89925271D01*
X167853131Y-90017886D01*
X168090493Y-90065100D01*
X168332507Y-90065100D01*
X168569869Y-90017886D01*
X168793460Y-89925271D01*
X168994687Y-89790816D01*
X169165816Y-89619687D01*
X169300271Y-89418460D01*
X169392886Y-89194869D01*
X169440100Y-88957507D01*
X169440100Y-88715493D01*
X170284900Y-88715493D01*
X170284900Y-88957507D01*
X170332114Y-89194869D01*
X170424729Y-89418460D01*
X170559184Y-89619687D01*
X170730313Y-89790816D01*
X170931540Y-89925271D01*
X171155131Y-90017886D01*
X171208700Y-90028542D01*
X171208701Y-94074546D01*
X171197912Y-94072400D01*
X171074088Y-94072400D01*
X170952644Y-94096556D01*
X170838246Y-94143941D01*
X170735291Y-94212734D01*
X170647734Y-94300291D01*
X170578941Y-94403246D01*
X170531556Y-94517644D01*
X170507400Y-94639088D01*
X170507400Y-94762912D01*
X170531556Y-94884356D01*
X170578941Y-94998754D01*
X170647734Y-95101709D01*
X170735291Y-95189266D01*
X170838246Y-95258059D01*
X170952644Y-95305444D01*
X171074088Y-95329600D01*
X171197912Y-95329600D01*
X171319356Y-95305444D01*
X171433754Y-95258059D01*
X171536709Y-95189266D01*
X171624266Y-95101709D01*
X171693059Y-94998754D01*
X171740444Y-94884356D01*
X171764600Y-94762912D01*
X171764600Y-94639088D01*
X171742010Y-94525517D01*
X171768158Y-94493657D01*
X171796460Y-94440706D01*
X171813889Y-94383251D01*
X171818300Y-94338466D01*
X171818300Y-94338458D01*
X171819773Y-94323500D01*
X171818300Y-94308542D01*
X171818300Y-90028541D01*
X171871869Y-90017886D01*
X172095460Y-89925271D01*
X172296687Y-89790816D01*
X172467816Y-89619687D01*
X172602271Y-89418460D01*
X172694886Y-89194869D01*
X172742100Y-88957507D01*
X172742100Y-88715493D01*
X172694886Y-88478131D01*
X172602271Y-88254540D01*
X172467816Y-88053313D01*
X172296687Y-87882184D01*
X172095460Y-87747729D01*
X171871869Y-87655114D01*
X171634507Y-87607900D01*
X171392493Y-87607900D01*
X171155131Y-87655114D01*
X170931540Y-87747729D01*
X170730313Y-87882184D01*
X170559184Y-88053313D01*
X170424729Y-88254540D01*
X170332114Y-88478131D01*
X170284900Y-88715493D01*
X169440100Y-88715493D01*
X169392886Y-88478131D01*
X169300271Y-88254540D01*
X169165816Y-88053313D01*
X168994687Y-87882184D01*
X168793460Y-87747729D01*
X168569869Y-87655114D01*
X168332507Y-87607900D01*
X168090493Y-87607900D01*
X167853131Y-87655114D01*
X167629540Y-87747729D01*
X167428313Y-87882184D01*
X167257184Y-88053313D01*
X167122729Y-88254540D01*
X167030114Y-88478131D01*
X166982900Y-88715493D01*
X166982900Y-88957507D01*
X167030114Y-89194869D01*
X167122729Y-89418460D01*
X167153074Y-89463874D01*
X162737215Y-93879734D01*
X162652644Y-93896556D01*
X162538246Y-93943941D01*
X162435291Y-94012734D01*
X162347734Y-94100291D01*
X162278941Y-94203246D01*
X162231556Y-94317644D01*
X162207400Y-94439088D01*
X155378963Y-94439088D01*
X157946252Y-91871800D01*
X162164042Y-91871800D01*
X162179000Y-91873273D01*
X162193958Y-91871800D01*
X162193966Y-91871800D01*
X162238751Y-91867389D01*
X162296206Y-91849960D01*
X162349157Y-91821658D01*
X162395568Y-91783568D01*
X162405112Y-91771939D01*
X164282126Y-89894926D01*
X164327540Y-89925271D01*
X164551131Y-90017886D01*
X164788493Y-90065100D01*
X165030507Y-90065100D01*
X165267869Y-90017886D01*
X165491460Y-89925271D01*
X165692687Y-89790816D01*
X165863816Y-89619687D01*
X165998271Y-89418460D01*
X166090886Y-89194869D01*
X166138100Y-88957507D01*
X166138100Y-88715493D01*
X166090886Y-88478131D01*
X165998271Y-88254540D01*
X165863816Y-88053313D01*
X165692687Y-87882184D01*
X165491460Y-87747729D01*
X165267869Y-87655114D01*
X165030507Y-87607900D01*
X164788493Y-87607900D01*
X164551131Y-87655114D01*
X164327540Y-87747729D01*
X164126313Y-87882184D01*
X163955184Y-88053313D01*
X163820729Y-88254540D01*
X163728114Y-88478131D01*
X163680900Y-88715493D01*
X163680900Y-88957507D01*
X163728114Y-89194869D01*
X163820729Y-89418460D01*
X163851074Y-89463874D01*
X162052749Y-91262200D01*
X159358851Y-91262200D01*
X160853126Y-89767926D01*
X160898540Y-89798271D01*
X161122131Y-89890886D01*
X161359493Y-89938100D01*
X161601507Y-89938100D01*
X161838869Y-89890886D01*
X162062460Y-89798271D01*
X162263687Y-89663816D01*
X162434816Y-89492687D01*
X162569271Y-89291460D01*
X162661886Y-89067869D01*
X162709100Y-88830507D01*
X162709100Y-88588493D01*
X162661886Y-88351131D01*
X162569271Y-88127540D01*
X162538926Y-88082125D01*
X163194252Y-87426800D01*
X169900042Y-87426800D01*
X169915000Y-87428273D01*
X169929958Y-87426800D01*
X169929966Y-87426800D01*
X169974751Y-87422389D01*
X170032206Y-87404960D01*
X170085157Y-87376658D01*
X170131568Y-87338568D01*
X170141112Y-87326939D01*
X172960955Y-84507097D01*
X173074088Y-84529600D01*
X173197912Y-84529600D01*
X173319356Y-84505444D01*
X173433754Y-84458059D01*
X173536709Y-84389266D01*
X173624266Y-84301709D01*
X173693059Y-84198754D01*
X173740444Y-84084356D01*
X173764600Y-83962912D01*
X173764600Y-83839088D01*
X173740444Y-83717644D01*
X173693059Y-83603246D01*
X173624266Y-83500291D01*
X173536709Y-83412734D01*
X173433754Y-83343941D01*
X173319356Y-83296556D01*
X173197912Y-83272400D01*
X173074088Y-83272400D01*
X172952644Y-83296556D01*
X172838246Y-83343941D01*
X172735291Y-83412734D01*
X172647734Y-83500291D01*
X172578941Y-83603246D01*
X172531556Y-83717644D01*
X172507400Y-83839088D01*
X172507400Y-83962912D01*
X172529903Y-84076045D01*
X169788749Y-86817200D01*
X166562609Y-86817200D01*
X166585139Y-86805158D01*
X166631550Y-86767068D01*
X166641094Y-86755439D01*
X167574545Y-85821989D01*
X167586169Y-85812449D01*
X167624259Y-85766038D01*
X167652561Y-85713087D01*
X167669990Y-85655632D01*
X167674401Y-85610847D01*
X167674401Y-85610840D01*
X167675874Y-85595882D01*
X167674401Y-85580924D01*
X167674401Y-84744158D01*
X167675874Y-84729200D01*
X167674401Y-84714242D01*
X167674401Y-84714235D01*
X167669990Y-84669450D01*
X167652561Y-84611995D01*
X167624259Y-84559044D01*
X167586169Y-84512633D01*
X167574541Y-84503090D01*
X167519512Y-84448061D01*
X167509968Y-84436432D01*
X167463557Y-84398342D01*
X167410606Y-84370040D01*
X167353151Y-84352611D01*
X167308366Y-84348200D01*
X167308358Y-84348200D01*
X167293400Y-84346727D01*
X167278442Y-84348200D01*
X167261497Y-84348200D01*
X167228905Y-84330779D01*
X167219743Y-84328000D01*
X167228905Y-84325221D01*
X167268618Y-84303994D01*
X167303427Y-84275427D01*
X167331994Y-84240618D01*
X167353221Y-84200905D01*
X167366292Y-84157813D01*
X167370706Y-84113000D01*
X167370706Y-83893000D01*
X167366292Y-83848187D01*
X167353221Y-83805095D01*
X167331994Y-83765382D01*
X167314881Y-83744529D01*
X167324644Y-83739342D01*
X167375027Y-83698205D01*
X167416416Y-83648029D01*
X167447222Y-83590743D01*
X167466259Y-83528547D01*
X167471200Y-83469350D01*
X167388650Y-83386800D01*
X166091800Y-83386800D01*
X166091800Y-83423800D01*
X165990200Y-83423800D01*
X165990200Y-83386800D01*
X165226600Y-83386800D01*
X165226600Y-83319200D01*
X165990200Y-83319200D01*
X165990200Y-82995350D01*
X166091800Y-82995350D01*
X166091800Y-83319200D01*
X167388650Y-83319200D01*
X167471200Y-83236650D01*
X167466259Y-83177453D01*
X167447222Y-83115257D01*
X167416416Y-83057971D01*
X167375027Y-83007795D01*
X167324644Y-82966658D01*
X167267204Y-82936141D01*
X167204914Y-82917416D01*
X167140167Y-82911203D01*
X166174350Y-82912800D01*
X166091800Y-82995350D01*
X165990200Y-82995350D01*
X165907650Y-82912800D01*
X165226600Y-82911674D01*
X165226600Y-82689459D01*
X165227827Y-82677000D01*
X165222931Y-82627286D01*
X165208429Y-82579482D01*
X165184881Y-82535426D01*
X165153190Y-82496810D01*
X165114574Y-82465119D01*
X165070518Y-82441571D01*
X165022714Y-82427069D01*
X164985459Y-82423400D01*
X164973000Y-82422173D01*
X164960541Y-82423400D01*
X160921459Y-82423400D01*
X160909000Y-82422173D01*
X160896541Y-82423400D01*
X160859286Y-82427069D01*
X160811482Y-82441571D01*
X160767426Y-82465119D01*
X160728810Y-82496810D01*
X160697119Y-82535426D01*
X160673571Y-82579482D01*
X160659069Y-82627286D01*
X160654173Y-82677000D01*
X160655400Y-82689459D01*
X160655400Y-82911674D01*
X159974350Y-82912800D01*
X159891800Y-82995350D01*
X159891800Y-83319200D01*
X160655400Y-83319200D01*
X160655400Y-83386800D01*
X159891800Y-83386800D01*
X159891800Y-83969200D01*
X160655400Y-83969200D01*
X160655400Y-84036800D01*
X159891800Y-84036800D01*
X159891800Y-84073800D01*
X159790200Y-84073800D01*
X159790200Y-84036800D01*
X158493350Y-84036800D01*
X158448401Y-84081749D01*
X157836002Y-83469350D01*
X158410800Y-83469350D01*
X158415741Y-83528547D01*
X158434778Y-83590743D01*
X158465584Y-83648029D01*
X158490306Y-83678000D01*
X158465584Y-83707971D01*
X158434778Y-83765257D01*
X158415741Y-83827453D01*
X158410800Y-83886650D01*
X158493350Y-83969200D01*
X159790200Y-83969200D01*
X159790200Y-83386800D01*
X158493350Y-83386800D01*
X158410800Y-83469350D01*
X157836002Y-83469350D01*
X157603302Y-83236650D01*
X158410800Y-83236650D01*
X158493350Y-83319200D01*
X159790200Y-83319200D01*
X159790200Y-82995350D01*
X159707650Y-82912800D01*
X158741833Y-82911203D01*
X158677086Y-82917416D01*
X158614796Y-82936141D01*
X158557356Y-82966658D01*
X158506973Y-83007795D01*
X158465584Y-83057971D01*
X158434778Y-83115257D01*
X158415741Y-83177453D01*
X158410800Y-83236650D01*
X157603302Y-83236650D01*
X157086300Y-82719649D01*
X157086300Y-80884541D01*
X157139869Y-80873886D01*
X157363460Y-80781271D01*
X157564687Y-80646816D01*
X157597037Y-80614466D01*
X159233376Y-80614466D01*
X159339511Y-80802939D01*
X159570442Y-80926748D01*
X159821090Y-81003125D01*
X160081823Y-81029135D01*
X160342620Y-81003779D01*
X160593459Y-80928031D01*
X160824701Y-80804803D01*
X160827489Y-80802939D01*
X160933624Y-80614466D01*
X160083500Y-79764342D01*
X159233376Y-80614466D01*
X157597037Y-80614466D01*
X157735816Y-80475687D01*
X157870271Y-80274460D01*
X157962886Y-80050869D01*
X158010100Y-79813507D01*
X158010100Y-79690823D01*
X158746865Y-79690823D01*
X158772221Y-79951620D01*
X158847969Y-80202459D01*
X158971197Y-80433701D01*
X158973061Y-80436489D01*
X159161534Y-80542624D01*
X160011658Y-79692500D01*
X160155342Y-79692500D01*
X161005466Y-80542624D01*
X161193939Y-80436489D01*
X161317748Y-80205558D01*
X161394125Y-79954910D01*
X161420135Y-79694177D01*
X161394779Y-79433380D01*
X161319031Y-79182541D01*
X161195803Y-78951299D01*
X161193939Y-78948511D01*
X161005466Y-78842376D01*
X160155342Y-79692500D01*
X160011658Y-79692500D01*
X159161534Y-78842376D01*
X158973061Y-78948511D01*
X158849252Y-79179442D01*
X158772875Y-79430090D01*
X158746865Y-79690823D01*
X158010100Y-79690823D01*
X158010100Y-79571493D01*
X157962886Y-79334131D01*
X157870271Y-79110540D01*
X157735816Y-78909313D01*
X157597037Y-78770534D01*
X159233376Y-78770534D01*
X160083500Y-79620658D01*
X160933624Y-78770534D01*
X160827489Y-78582061D01*
X160596558Y-78458252D01*
X160345910Y-78381875D01*
X160085177Y-78355865D01*
X159824380Y-78381221D01*
X159573541Y-78456969D01*
X159342299Y-78580197D01*
X159339511Y-78582061D01*
X159233376Y-78770534D01*
X157597037Y-78770534D01*
X157564687Y-78738184D01*
X157363460Y-78603729D01*
X157139869Y-78511114D01*
X156902507Y-78463900D01*
X156660493Y-78463900D01*
X156423131Y-78511114D01*
X156199540Y-78603729D01*
X155998313Y-78738184D01*
X155827184Y-78909313D01*
X155692729Y-79110540D01*
X155600114Y-79334131D01*
X155552900Y-79571493D01*
X155552900Y-79813507D01*
X155600114Y-80050869D01*
X155692729Y-80274460D01*
X155827184Y-80475687D01*
X155998313Y-80646816D01*
X156199540Y-80781271D01*
X156423131Y-80873886D01*
X156476701Y-80884542D01*
X156476700Y-82830942D01*
X156475227Y-82845900D01*
X156476700Y-82860858D01*
X156476700Y-82860865D01*
X156480555Y-82900010D01*
X156481111Y-82905651D01*
X156490360Y-82936141D01*
X156498540Y-82963105D01*
X156526842Y-83016056D01*
X156564932Y-83062468D01*
X156576561Y-83072012D01*
X158362491Y-84857943D01*
X158372032Y-84869568D01*
X158418443Y-84907658D01*
X158471394Y-84935960D01*
X158503730Y-84945769D01*
X158528848Y-84953389D01*
X158534489Y-84953945D01*
X158573634Y-84957800D01*
X158573641Y-84957800D01*
X158588599Y-84959273D01*
X158603557Y-84957800D01*
X158620503Y-84957800D01*
X158653095Y-84975221D01*
X158662257Y-84978000D01*
X158653095Y-84980779D01*
X158613382Y-85002006D01*
X158578573Y-85030573D01*
X158550006Y-85065382D01*
X158528779Y-85105095D01*
X158515708Y-85148187D01*
X158511294Y-85193000D01*
X158511294Y-85413000D01*
X158515708Y-85457813D01*
X158528779Y-85500905D01*
X158550006Y-85540618D01*
X158578573Y-85575427D01*
X158613382Y-85603994D01*
X158653095Y-85625221D01*
X158696187Y-85638292D01*
X158741000Y-85642706D01*
X160655401Y-85642706D01*
X160655401Y-85927810D01*
X156987347Y-85927810D01*
X156972389Y-85926337D01*
X156957431Y-85927810D01*
X156957424Y-85927810D01*
X156918279Y-85931665D01*
X156912638Y-85932221D01*
X156895209Y-85937508D01*
X156855184Y-85949650D01*
X156802233Y-85977952D01*
X156755822Y-86016042D01*
X156746282Y-86027666D01*
X155122875Y-87651074D01*
X155077460Y-87620729D01*
X154853869Y-87528114D01*
X154616507Y-87480900D01*
X154374493Y-87480900D01*
X154137131Y-87528114D01*
X153913540Y-87620729D01*
X153712313Y-87755184D01*
X153541184Y-87926313D01*
X153406729Y-88127540D01*
X153314114Y-88351131D01*
X153266900Y-88588493D01*
X153266900Y-88830507D01*
X153314114Y-89067869D01*
X153406729Y-89291460D01*
X153541184Y-89492687D01*
X153712313Y-89663816D01*
X153913540Y-89798271D01*
X154137131Y-89890886D01*
X154374493Y-89938100D01*
X154616507Y-89938100D01*
X154853869Y-89890886D01*
X155077460Y-89798271D01*
X155278687Y-89663816D01*
X155449816Y-89492687D01*
X155584271Y-89291460D01*
X155676886Y-89067869D01*
X155724100Y-88830507D01*
X155724100Y-88588493D01*
X155676886Y-88351131D01*
X155584271Y-88127540D01*
X155553926Y-88082125D01*
X157098642Y-86537410D01*
X159665538Y-86537410D01*
X158551875Y-87651074D01*
X158506460Y-87620729D01*
X158282869Y-87528114D01*
X158045507Y-87480900D01*
X157803493Y-87480900D01*
X157566131Y-87528114D01*
X157342540Y-87620729D01*
X157141313Y-87755184D01*
X156970184Y-87926313D01*
X156835729Y-88127540D01*
X156743114Y-88351131D01*
X156695900Y-88588493D01*
X156695900Y-88830507D01*
X156743114Y-89067869D01*
X156835729Y-89291460D01*
X156970184Y-89492687D01*
X157141313Y-89663816D01*
X157342540Y-89798271D01*
X157566131Y-89890886D01*
X157803493Y-89938100D01*
X158045507Y-89938100D01*
X158282869Y-89890886D01*
X158506460Y-89798271D01*
X158707687Y-89663816D01*
X158878816Y-89492687D01*
X159013271Y-89291460D01*
X159105886Y-89067869D01*
X159153100Y-88830507D01*
X159153100Y-88588493D01*
X159105886Y-88351131D01*
X159013271Y-88127540D01*
X158982926Y-88082125D01*
X160209752Y-86855300D01*
X162920373Y-86855300D01*
X162897843Y-86867342D01*
X162851432Y-86905432D01*
X162841892Y-86917056D01*
X162107875Y-87651074D01*
X162062460Y-87620729D01*
X161838869Y-87528114D01*
X161601507Y-87480900D01*
X161359493Y-87480900D01*
X161122131Y-87528114D01*
X160898540Y-87620729D01*
X160697313Y-87755184D01*
X160526184Y-87926313D01*
X160391729Y-88127540D01*
X160299114Y-88351131D01*
X160251900Y-88588493D01*
X160251900Y-88830507D01*
X160299114Y-89067869D01*
X160391729Y-89291460D01*
X160422074Y-89336874D01*
X158877749Y-90881200D01*
X152907252Y-90881200D01*
X151752300Y-89726249D01*
X151752300Y-88327751D01*
X153140945Y-86939107D01*
X153152568Y-86929568D01*
X153190658Y-86883157D01*
X153218960Y-86830206D01*
X153236389Y-86772751D01*
X153240800Y-86727966D01*
X153240800Y-86727958D01*
X153242273Y-86713000D01*
X153240800Y-86698042D01*
X153240800Y-84453351D01*
X153336709Y-84389266D01*
X153424266Y-84301709D01*
X153493059Y-84198754D01*
X153540444Y-84084356D01*
X153564600Y-83962912D01*
X153564600Y-83839088D01*
X153540444Y-83717644D01*
X153493059Y-83603246D01*
X153424266Y-83500291D01*
X153336709Y-83412734D01*
X153233754Y-83343941D01*
X153119356Y-83296556D01*
X152997912Y-83272400D01*
X152874088Y-83272400D01*
X152752644Y-83296556D01*
X152638246Y-83343941D01*
X152535291Y-83412734D01*
X152447734Y-83500291D01*
X152378941Y-83603246D01*
X152331556Y-83717644D01*
X152307400Y-83839088D01*
X152307400Y-83962912D01*
X152331556Y-84084356D01*
X152378941Y-84198754D01*
X152447734Y-84301709D01*
X152535291Y-84389266D01*
X152631201Y-84453352D01*
X152631200Y-86586748D01*
X151242557Y-87975392D01*
X151230933Y-87984932D01*
X151192843Y-88031343D01*
X151181100Y-88053313D01*
X151164540Y-88084295D01*
X151147111Y-88141749D01*
X151141227Y-88201500D01*
X149364700Y-88201500D01*
X149364700Y-74039088D01*
X154057400Y-74039088D01*
X154057400Y-74162912D01*
X154081556Y-74284356D01*
X154128941Y-74398754D01*
X154197734Y-74501709D01*
X154285291Y-74589266D01*
X154388246Y-74658059D01*
X154502644Y-74705444D01*
X154624088Y-74729600D01*
X154747912Y-74729600D01*
X154869356Y-74705444D01*
X154983754Y-74658059D01*
X155086709Y-74589266D01*
X155174266Y-74501709D01*
X155238351Y-74405800D01*
X157667749Y-74405800D01*
X162327074Y-79065126D01*
X162296729Y-79110540D01*
X162204114Y-79334131D01*
X162156900Y-79571493D01*
X162156900Y-79813507D01*
X162204114Y-80050869D01*
X162296729Y-80274460D01*
X162431184Y-80475687D01*
X162602313Y-80646816D01*
X162803540Y-80781271D01*
X163027131Y-80873886D01*
X163264493Y-80921100D01*
X163506507Y-80921100D01*
X163743869Y-80873886D01*
X163967460Y-80781271D01*
X164168687Y-80646816D01*
X164339816Y-80475687D01*
X164474271Y-80274460D01*
X164566886Y-80050869D01*
X164614100Y-79813507D01*
X164614100Y-79571493D01*
X164566886Y-79334131D01*
X164474271Y-79110540D01*
X164339816Y-78909313D01*
X164168687Y-78738184D01*
X163967460Y-78603729D01*
X163743869Y-78511114D01*
X163506507Y-78463900D01*
X163264493Y-78463900D01*
X163027131Y-78511114D01*
X162803540Y-78603729D01*
X162758126Y-78634074D01*
X158263140Y-74139088D01*
X162257400Y-74139088D01*
X162257400Y-74262912D01*
X162281556Y-74384356D01*
X162328941Y-74498754D01*
X162397734Y-74601709D01*
X162485291Y-74689266D01*
X162588246Y-74758059D01*
X162702644Y-74805444D01*
X162824088Y-74829600D01*
X162947912Y-74829600D01*
X163061046Y-74807097D01*
X166382701Y-78128753D01*
X166382701Y-78500458D01*
X166329131Y-78511114D01*
X166105540Y-78603729D01*
X165904313Y-78738184D01*
X165733184Y-78909313D01*
X165598729Y-79110540D01*
X165506114Y-79334131D01*
X165458900Y-79571493D01*
X165458900Y-79813507D01*
X165506114Y-80050869D01*
X165598729Y-80274460D01*
X165733184Y-80475687D01*
X165904313Y-80646816D01*
X166105540Y-80781271D01*
X166329131Y-80873886D01*
X166566493Y-80921100D01*
X166808507Y-80921100D01*
X167045869Y-80873886D01*
X167269460Y-80781271D01*
X167470687Y-80646816D01*
X167641816Y-80475687D01*
X167776271Y-80274460D01*
X167868886Y-80050869D01*
X167916100Y-79813507D01*
X167916100Y-79571493D01*
X168760900Y-79571493D01*
X168760900Y-79813507D01*
X168808114Y-80050869D01*
X168900729Y-80274460D01*
X169035184Y-80475687D01*
X169206313Y-80646816D01*
X169407540Y-80781271D01*
X169631131Y-80873886D01*
X169868493Y-80921100D01*
X170110507Y-80921100D01*
X170347869Y-80873886D01*
X170571460Y-80781271D01*
X170772687Y-80646816D01*
X170943816Y-80475687D01*
X171078271Y-80274460D01*
X171170886Y-80050869D01*
X171218100Y-79813507D01*
X171218100Y-79571493D01*
X171170886Y-79334131D01*
X171078271Y-79110540D01*
X170943816Y-78909313D01*
X170772687Y-78738184D01*
X170571460Y-78603729D01*
X170347869Y-78511114D01*
X170294300Y-78500459D01*
X170294300Y-75373751D01*
X170960955Y-74707097D01*
X171074088Y-74729600D01*
X171197912Y-74729600D01*
X171319356Y-74705444D01*
X171433754Y-74658059D01*
X171536709Y-74589266D01*
X171624266Y-74501709D01*
X171693059Y-74398754D01*
X171740444Y-74284356D01*
X171764600Y-74162912D01*
X171764600Y-74039088D01*
X171740444Y-73917644D01*
X171693059Y-73803246D01*
X171624266Y-73700291D01*
X171536709Y-73612734D01*
X171433754Y-73543941D01*
X171319356Y-73496556D01*
X171197912Y-73472400D01*
X171074088Y-73472400D01*
X170952644Y-73496556D01*
X170838246Y-73543941D01*
X170735291Y-73612734D01*
X170647734Y-73700291D01*
X170578941Y-73803246D01*
X170531556Y-73917644D01*
X170507400Y-74039088D01*
X170507400Y-74162912D01*
X170529903Y-74276045D01*
X169784557Y-75021392D01*
X169772933Y-75030932D01*
X169734843Y-75077343D01*
X169719715Y-75105646D01*
X169706540Y-75130295D01*
X169689111Y-75187749D01*
X169683227Y-75247500D01*
X169684701Y-75262468D01*
X169684700Y-78500458D01*
X169631131Y-78511114D01*
X169407540Y-78603729D01*
X169206313Y-78738184D01*
X169035184Y-78909313D01*
X168900729Y-79110540D01*
X168808114Y-79334131D01*
X168760900Y-79571493D01*
X167916100Y-79571493D01*
X167868886Y-79334131D01*
X167776271Y-79110540D01*
X167641816Y-78909313D01*
X167470687Y-78738184D01*
X167269460Y-78603729D01*
X167045869Y-78511114D01*
X166992300Y-78500459D01*
X166992300Y-78017458D01*
X166993773Y-78002500D01*
X166992300Y-77987542D01*
X166992300Y-77987534D01*
X166987889Y-77942749D01*
X166970460Y-77885294D01*
X166942158Y-77832343D01*
X166904068Y-77785932D01*
X166892444Y-77776392D01*
X163492097Y-74376046D01*
X163514600Y-74262912D01*
X163514600Y-74139088D01*
X163490444Y-74017644D01*
X163443059Y-73903246D01*
X163374266Y-73800291D01*
X163286709Y-73712734D01*
X163183754Y-73643941D01*
X163069356Y-73596556D01*
X162947912Y-73572400D01*
X162824088Y-73572400D01*
X162702644Y-73596556D01*
X162588246Y-73643941D01*
X162485291Y-73712734D01*
X162397734Y-73800291D01*
X162328941Y-73903246D01*
X162281556Y-74017644D01*
X162257400Y-74139088D01*
X158263140Y-74139088D01*
X158020112Y-73896061D01*
X158010568Y-73884432D01*
X157964157Y-73846342D01*
X157911206Y-73818040D01*
X157853751Y-73800611D01*
X157808966Y-73796200D01*
X157808958Y-73796200D01*
X157794000Y-73794727D01*
X157779042Y-73796200D01*
X155238351Y-73796200D01*
X155174266Y-73700291D01*
X155086709Y-73612734D01*
X154983754Y-73543941D01*
X154869356Y-73496556D01*
X154747912Y-73472400D01*
X154624088Y-73472400D01*
X154502644Y-73496556D01*
X154388246Y-73543941D01*
X154285291Y-73612734D01*
X154197734Y-73700291D01*
X154128941Y-73803246D01*
X154081556Y-73917644D01*
X154057400Y-74039088D01*
X149364700Y-74039088D01*
X149364700Y-73856805D01*
X149489679Y-73106929D01*
X149613079Y-72736730D01*
X149862534Y-72237820D01*
X150109508Y-71867359D01*
X150359385Y-71622306D01*
X150852887Y-71248501D01*
X151347095Y-71001397D01*
X151837897Y-70878696D01*
X152717477Y-70878322D01*
X173791696Y-70869339D01*
X175039543Y-71128109D01*
G37*
%TD.AperFunction*%
%TD*%
M02*
