M48
; DRILL file {KiCad (5.1.10)-1} date 07/20/23 22:08:16
; FORMAT={-:-/ absolute / inch / decimal}
; #@! TF.CreationDate,2023-07-20T22:08:16-05:00
; #@! TF.GenerationSoftware,Kicad,Pcbnew,(5.1.10)-1
; #@! TF.FileFunction,Plated,1,2,PTH
FMAT,2
INCH
T1C0.0157
%
G90
G05
T1
X4.9952Y-4.3332
X5.0641Y-3.9474
X5.0641Y-4.7584
X5.385Y-4.7505
X5.387Y-3.9513
X5.7118Y-3.9474
X5.7118Y-4.7584
X5.7905Y-4.3332
X6.0211Y-3.3032
X6.0227Y-4.3332
X6.09Y-2.9174
X6.09Y-3.7284
X6.0916Y-3.9474
X6.0916Y-4.7584
X6.4109Y-3.7205
X6.4125Y-4.7505
X6.4128Y-2.9213
X6.4145Y-3.9513
X6.7376Y-2.9174
X6.7376Y-3.7284
X6.7393Y-3.9474
X6.7393Y-4.7584
X6.8164Y-3.3032
X6.818Y-4.3332
T0
M30
