%TF.GenerationSoftware,KiCad,Pcbnew,(5.1.10)-1*%
%TF.CreationDate,2023-07-20T22:08:15-05:00*%
%TF.ProjectId,perovskite_contact_board,7065726f-7673-46b6-9974-655f636f6e74,V3*%
%TF.SameCoordinates,Original*%
%TF.FileFunction,Copper,L1,Top*%
%TF.FilePolarity,Positive*%
%FSLAX46Y46*%
G04 Gerber Fmt 4.6, Leading zero omitted, Abs format (unit mm)*
G04 Created by KiCad (PCBNEW (5.1.10)-1) date 2023-07-20 22:08:15*
%MOMM*%
%LPD*%
G01*
G04 APERTURE LIST*
%TA.AperFunction,SMDPad,CuDef*%
%ADD10R,4.000000X4.000000*%
%TD*%
%TA.AperFunction,SMDPad,CuDef*%
%ADD11R,7.400000X3.800000*%
%TD*%
%TA.AperFunction,ViaPad*%
%ADD12C,0.800000*%
%TD*%
G04 APERTURE END LIST*
D10*
%TO.P,U2,7*%
%TO.N,CP_2*%
X147079000Y-110063000D03*
X126879000Y-110063000D03*
%TO.P,U2,5*%
%TO.N,CELL_11*%
X136779000Y-120663000D03*
%TO.P,U2,2*%
%TO.N,CELL_8*%
X136829000Y-100363000D03*
D11*
%TO.P,U2,6*%
%TO.N,CELL_12*%
X128629000Y-120863000D03*
%TO.P,U2,4*%
%TO.N,CELL_10*%
X145079000Y-120863000D03*
%TO.P,U2,3*%
%TO.N,CELL_9*%
X145079000Y-100263000D03*
%TO.P,U2,1*%
%TO.N,CELL_7*%
X128629000Y-100263000D03*
%TD*%
D10*
%TO.P,U3,7*%
%TO.N,CP_3*%
X173177500Y-110063000D03*
X152977500Y-110063000D03*
%TO.P,U3,5*%
%TO.N,CELL_17*%
X162877500Y-120663000D03*
%TO.P,U3,2*%
%TO.N,CELL_14*%
X162927500Y-100363000D03*
D11*
%TO.P,U3,6*%
%TO.N,CELL_18*%
X154727500Y-120863000D03*
%TO.P,U3,4*%
%TO.N,CELL_16*%
X171177500Y-120863000D03*
%TO.P,U3,3*%
%TO.N,CELL_15*%
X171177500Y-100263000D03*
%TO.P,U3,1*%
%TO.N,CELL_13*%
X154727500Y-100263000D03*
%TD*%
D10*
%TO.P,U1,7*%
%TO.N,CP_1*%
X173136000Y-83901000D03*
X152936000Y-83901000D03*
%TO.P,U1,5*%
%TO.N,CELL_5*%
X162836000Y-94501000D03*
%TO.P,U1,2*%
%TO.N,CELL_2*%
X162886000Y-74201000D03*
D11*
%TO.P,U1,6*%
%TO.N,CELL_6*%
X154686000Y-94701000D03*
%TO.P,U1,4*%
%TO.N,CELL_4*%
X171136000Y-94701000D03*
%TO.P,U1,3*%
%TO.N,CELL_3*%
X171136000Y-74101000D03*
%TO.P,U1,1*%
%TO.N,CELL_1*%
X154686000Y-74101000D03*
%TD*%
D12*
%TO.N,CELL_1*%
X154686000Y-74101000D03*
%TO.N,CELL_2*%
X162886000Y-74201000D03*
%TO.N,CELL_3*%
X171136000Y-74101000D03*
%TO.N,CELL_4*%
X171136000Y-94701000D03*
%TO.N,CELL_5*%
X162836000Y-94501000D03*
%TO.N,CELL_6*%
X154686000Y-94701000D03*
%TO.N,CP_1*%
X152936000Y-83901000D03*
X173136000Y-83901000D03*
%TO.N,CELL_12*%
X128629000Y-120863000D03*
%TO.N,CELL_11*%
X136779000Y-120663000D03*
%TO.N,CELL_10*%
X145079000Y-120863000D03*
%TO.N,CELL_9*%
X145079000Y-100263000D03*
%TO.N,CELL_8*%
X136829000Y-100363000D03*
%TO.N,CELL_7*%
X128629000Y-100263000D03*
%TO.N,CP_2*%
X126879000Y-110063000D03*
X147079000Y-110063000D03*
%TO.N,CELL_13*%
X154727500Y-100263000D03*
%TO.N,CELL_14*%
X162927500Y-100363000D03*
%TO.N,CELL_15*%
X171177500Y-100263000D03*
%TO.N,CELL_16*%
X171177500Y-120863000D03*
%TO.N,CELL_17*%
X162877500Y-120663000D03*
%TO.N,CELL_18*%
X154727500Y-120863000D03*
%TO.N,CP_3*%
X152977500Y-110063000D03*
X173177500Y-110063000D03*
%TD*%
M02*
