0
SECTION
2
HEADER
9
$INSUNITS
70
4
9
$ACADVER
1
AC1014
9
$HANDSEED
5
FFFF
0
ENDSEC
0
SECTION
2
TABLES
0
TABLE
2
VPORT
5
8
100
AcDbSymbolTable
0
ENDTAB
0
TABLE
2
LTYPE
5
5
100
AcDbSymbolTable
0
LTYPE
5
14
100
AcDbSymbolTableRecord
100
AcDbLinetypeTableRecord
2
BYBLOCK
70
0
0
LTYPE
5
15
100
AcDbSymbolTableRecord
100
AcDbLinetypeTableRecord
2
BYLAYER
70
0
0
ENDTAB
0
TABLE
2
LAYER
5
2
100
AcDbSymbolTable
70
2
0
LAYER
5
50
100
AcDbSymbolTableRecord
100
AcDbLayerTableRecord
2
0
70
0
6
CONTINUOUS
0
ENDTAB
0
TABLE
2
STYLE
5
3
100
AcDbSymbolTable
70
1
0
STYLE
5
11
100
AcDbSymbolTableRecord
100
AcDbTextStyleTableRecord
2
STANDARD
70
0
0
ENDTAB
0
TABLE
2
VIEW
5
6
100
AcDbSymbolTable
70
0
0
ENDTAB
0
TABLE
2
UCS
5
7
100
AcDbSymbolTable
70
0
0
ENDTAB
0
TABLE
2
APPID
5
9
100
AcDbSymbolTable
70
2
0
APPID
5
12
100
AcDbSymbolTableRecord
100
AcDbRegAppTableRecord
2
ACAD
70
0
0
ENDTAB
0
TABLE
2
DIMSTYLE
5
A
100
AcDbSymbolTable
70
1
0
ENDTAB
0
TABLE
2
BLOCK_RECORD
5
1
100
AcDbSymbolTable
70
1
0
BLOCK_RECORD
5
1F
100
AcDbSymbolTableRecord
100
AcDbBlockTableRecord
2
*MODEL_SPACE
0
BLOCK_RECORD
5
1B
100
AcDbSymbolTableRecord
100
AcDbBlockTableRecord
2
*PAPER_SPACE
0
ENDTAB
0
ENDSEC
0
SECTION
2
BLOCKS
0
BLOCK
5
20
100
AcDbEntity
100
AcDbBlockBegin
2
*MODEL_SPACE
0
ENDBLK
5
21
100
AcDbEntity
100
AcDbBlockEnd
0
BLOCK
5
1C
100
AcDbEntity
100
AcDbBlockBegin
2
*PAPER_SPACE
0
ENDBLK
5
1D
100
AcDbEntity
100
AcDbBlockEnd
0
ENDSEC
0
SECTION
2
ENTITIES
0
LWPOLYLINE
5
100
100
AcDbEntity
8
0
100
AcDbPolyline
90
12
70
1
43
0.0
10
0.39999941690903212
20
-3.3999994079092897
42
0.41421356237309548
10
3.3999994169090355
20
-0.39999940790929056
10
3.3999994169090364
20
19.700000592090721
42
-0.41421356237309503
10
6.3999994169090257
20
22.70000059209071
10
27.499999416909038
20
22.700000592090714
42
-0.41421356237309548
10
30.499999416909041
20
19.700000592090706
10
30.499999416909031
20
-27.4999994079093
42
-0.41421356237309503
10
27.499999416909038
20
-30.499999407909293
10
-19.700000583090961
20
-30.499999407909296
42
-0.41421356237309503
10
-22.700000583090969
20
-27.499999407909289
10
-22.700000583090947
20
-6.3999994079092835
42
-0.41421356237309531
10
-19.700000583090958
20
-3.399999407909291
0
LWPOLYLINE
5
101
100
AcDbEntity
8
0
100
AcDbPolyline
90
4
70
1
43
0.0
10
10.449999416909028
20
-1.8999994079092941
10
23.44999941690903
20
-1.8999994079092875
10
23.44999941690903
20
-5.8999994079092843
10
10.449999416909028
20
-5.8999994079092843
0
LWPOLYLINE
5
102
100
AcDbEntity
8
0
100
AcDbPolyline
90
4
70
1
43
0.0
10
5.8999994169090293
20
-8.9499994079092957
10
5.8999994169090293
20
-24.949999407909296
10
1.8999994169090284
20
-24.949999407909296
10
1.8999994169090284
20
-8.9499994079092957
0
LWPOLYLINE
5
103
100
AcDbEntity
8
0
100
AcDbPolyline
90
4
70
1
43
0.0
10
11.199999416909037
20
20.450000592090714
10
22.69999941690903
20
20.45000059209071
42
-0.99999999999999989
10
22.699999416909037
20
19.95000059209071
10
11.199999416909041
20
19.950000592090706
42
-0.99999999999999989
0
LWPOLYLINE
5
104
100
AcDbEntity
8
0
100
AcDbPolyline
90
12
70
1
43
0.0
10
2.3999994169090368
20
-0.39999940790929861
10
2.3999994169090275
20
19.700000592090706
42
-0.41421356237309537
10
6.3999994169090311
20
23.70000059209071
10
27.499999416909038
20
23.700000592090706
42
-0.41421356237309503
10
31.499999416909038
20
19.700000592090706
10
31.499999416909038
20
-27.4999994079093
42
-0.41421356237309537
10
27.499999416909038
20
-31.499999407909304
10
-19.700000583090951
20
-31.499999407909293
42
-0.4142135623730957
10
-23.700000583090958
20
-27.499999407909293
10
-23.700000583090954
20
-6.3999994079092914
42
-0.41421356237309503
10
-19.700000583090951
20
-2.3999994079092901
10
0.39999941690903373
20
-2.3999994079092977
42
0.41421356237309553
0
LWPOLYLINE
5
105
100
AcDbEntity
8
0
100
AcDbPolyline
90
44
70
1
43
0.0
10
-2.6500005830909688
20
-29.4999994079093
42
0.41421356237309503
10
-1.6500005830909681
20
-30.4999994079093
10
9.44999941690903
20
-30.499999407909296
42
0.41421356237309503
10
10.449999416909034
20
-29.4999994079093
10
23.44999941690903
20
-29.499999407909307
42
0.4142135623730937
10
24.44999941690903
20
-30.4999994079093
10
27.499999416909038
20
-30.4999994079093
42
0.41421356237309503
10
30.499999416909034
20
-27.499999407909304
10
30.499999416909041
20
-25.949999407909303
42
0.4142135623730937
10
29.499999416909045
20
-24.949999407909299
10
29.499999416909045
20
-8.9499994079092993
42
0.4142135623730937
10
30.499999416909041
20
-7.949999407909301
10
30.499999416909041
20
0.15000059209070771
42
0.4142135623730937
10
29.499999416909045
20
1.1500005920907077
10
29.499999416909048
20
17.150000592090709
42
0.41421356237309243
10
30.499999416909041
20
18.150000592090709
10
30.499999416909041
20
19.700000592090706
42
0.41421356237309503
10
27.499999416909038
20
22.700000592090706
10
24.449999416909037
20
22.70000059209071
42
0.41421356237309503
10
23.449999416909037
20
21.700000592090703
10
10.449999416909035
20
21.700000592090703
42
0.41421356237309503
10
9.4499994169090336
20
22.700000592090706
10
6.3999994169090293
20
22.70000059209071
42
0.41421356237309503
10
3.399999416909032
20
19.70000059209071
10
3.3999994169090297
20
18.150000592090709
42
0.41421356237309859
10
4.3999994169090408
20
17.150000592090709
10
4.39999941690904
20
1.1500005920907075
42
0.41421356237309614
10
3.3999994169090364
20
0.15000059209070707
10
3.3999994169090373
20
-0.39999940790929772
42
-0.41421356237309509
10
0.39999941690903712
20
-3.3999994079092986
10
-1.6500005830909674
20
-3.3999994079092977
42
0.41421356237309553
10
-2.6500005830909679
20
-4.3999994079092977
10
-15.650000583090964
20
-4.3999994079092968
42
0.4142135623730962
10
-16.650000583090964
20
-3.3999994079092923
10
-19.700000583090951
20
-3.3999994079092914
42
0.41421356237309503
10
-22.700000583090944
20
-6.3999994079092914
10
-22.700000583090954
20
-7.9499994079092939
42
0.41421356237309631
10
-21.700000583090947
20
-8.9499994079092939
10
-21.700000583090954
20
-24.949999407909296
42
0.41421356237309631
10
-22.700000583090958
20
-25.949999407909296
10
-22.700000583090958
20
-27.499999407909293
42
0.41421356237309503
10
-19.700000583090961
20
-30.499999407909293
10
-16.650000583090968
20
-30.499999407909296
42
0.4142135623730937
10
-15.650000583090968
20
-29.4999994079093
0
LWPOLYLINE
5
106
100
AcDbEntity
8
0
100
AcDbPolyline
90
12
70
1
43
0.0
10
-21.450000583090961
20
-32.249999407909307
10
29.249999416909041
20
-32.249999407909307
42
0.41421356237309503
10
32.249999416909041
20
-29.249999407909307
10
32.249999416909041
20
21.450000592090714
42
0.41421356237309465
10
29.249999416909041
20
24.45000059209071
10
4.6499994169090408
20
24.450000592090714
42
0.4142135623730952
10
1.64999941690904
20
21.45000059209071
10
1.6499994169090426
20
1.3500005920906992
42
-0.41421356237309481
10
-1.3500005830909569
20
-1.6499994079092999
10
-21.450000583090961
20
-1.6499994079092999
42
0.41421356237309509
10
-24.450000583090965
20
-4.6499994079093003
10
-24.450000583090965
20
-29.249999407909311
42
0.41421356237309465
0
LWPOLYLINE
5
107
100
AcDbEntity
8
0
100
AcDbPolyline
90
8
70
1
43
0.0
10
12.949999416909037
20
18.150000592090713
42
0.41421356237309503
10
9.4499994169090336
20
14.650000592090709
10
9.4499994169090318
20
3.6500005920907097
42
0.41421356237309459
10
12.949999416909035
20
0.15000059209070674
10
20.949999416909037
20
0.15000059209070604
42
0.41421356237309392
10
24.449999416909037
20
3.6500005920907075
10
24.449999416909037
20
14.650000592090709
42
0.41421356237309431
10
20.949999416909037
20
18.150000592090706
0
LWPOLYLINE
5
108
100
AcDbEntity
8
0
100
AcDbPolyline
90
8
70
1
43
0.0
10
24.449999416909044
20
-11.449999407909299
42
0.41421356237309431
10
20.94999941690903
20
-7.9499994079092851
10
12.949999416909035
20
-7.9499994079092806
42
0.41421356237309581
10
9.4499994169090193
20
-11.449999407909297
10
9.4499994169090158
20
-22.449999407909299
42
0.41421356237309542
10
12.949999416909034
20
-25.949999407909313
10
20.94999941690903
20
-25.949999407909317
42
0.41421356237309431
10
24.449999416909051
20
-22.449999407909299
0
LWPOLYLINE
5
109
100
AcDbEntity
8
0
100
AcDbPolyline
90
8
70
1
43
0.0
10
-16.650000583090968
20
-22.449999407909296
42
0.41421356237309431
10
-13.150000583090966
20
-25.949999407909296
10
-5.1500005830909688
20
-25.949999407909296
42
0.41421356237309453
10
-1.6500005830909668
20
-22.449999407909296
10
-1.6500005830909652
20
-11.449999407909292
42
0.41421356237309481
10
-5.150000583090967
20
-7.9499994079092922
10
-13.150000583090966
20
-7.9499994079092895
42
0.41421356237309481
10
-16.650000583090968
20
-11.449999407909292
0
LINE
5
110
100
AcDbEntity
8
0
100
AcDbLine
10
12.949999416909034
20
-22.449999407909303
30
-5.5511151231257827e-16
11
20.949999416909026
21
-11.449999407909303
31
-5.5511151231257827e-16
0
LINE
5
111
100
AcDbEntity
8
0
100
AcDbLine
10
20.949999416909026
20
-22.449999407909296
30
-5.5511151231257827e-16
11
12.94999941690903
21
-11.449999407909292
31
-5.5511151231257827e-16
0
LINE
5
112
100
AcDbEntity
8
0
100
AcDbLine
10
-13.150000583090961
20
-22.449999407909292
30
-5.5511151231257827e-16
11
-5.150000583090967
21
-11.449999407909296
31
-5.5511151231257827e-16
0
LINE
5
113
100
AcDbEntity
8
0
100
AcDbLine
10
-13.150000583090966
20
-11.449999407909296
30
-5.5511151231257827e-16
11
-5.1500005830909714
21
-22.449999407909292
31
-5.5511151231257827e-16
0
LINE
5
114
100
AcDbEntity
8
0
100
AcDbLine
10
12.949999416909039
20
3.650000592090711
30
-5.5511151231257827e-16
11
20.94999941690903
21
14.650000592090704
31
-5.5511151231257827e-16
0
LINE
5
115
100
AcDbEntity
8
0
100
AcDbLine
10
12.949999416909037
20
14.650000592090709
30
-5.5511151231257827e-16
11
20.949999416909026
21
3.6500005920907119
31
-5.5511151231257827e-16
0
LINE
5
116
100
AcDbEntity
8
0
100
AcDbLine
10
22.699999416909037
20
20.450000592090714
30
0
11
11.199999416909037
21
20.450000592090714
31
0
0
ARC
5
117
100
AcDbEntity
8
0
100
AcDbCircle
10
11.199999416909039
20
20.20000059209071
30
0
40
0.24999999999999911
210
0
220
0
230
1
100
AcDbArc
50
90.000000000000398
51
270.0000000000004
0
LINE
5
118
100
AcDbEntity
8
0
100
AcDbLine
10
11.199999416909037
20
19.95000059209071
30
0
11
22.699999416909037
21
19.95000059209071
31
0
0
ARC
5
119
100
AcDbEntity
8
0
100
AcDbCircle
10
22.699999416909034
20
20.20000059209071
30
0
40
0.24999999999999911
210
0
220
0
230
1
100
AcDbArc
50
-89.99999999999919
51
90.00000000000081
0
ENDSEC
0
SECTION
2
OBJECTS
0
DICTIONARY
5
C
100
AcDbDictionary
3
ACAD_GROUP
350
D
3
ACAD_MLINESTYLE
350
17
0
DICTIONARY
5
D
100
AcDbDictionary
0
DICTIONARY
5
1A
330
C
100
AcDbDictionary
0
DICTIONARY
5
17
100
AcDbDictionary
0
ENDSEC
0
EOF
