%TF.GenerationSoftware,KiCad,Pcbnew,(5.1.10)-1*%
%TF.CreationDate,2023-09-11T17:59:31-05:00*%
%TF.ProjectId,perovskite_contact_board,7065726f-7673-46b6-9974-655f636f6e74,V3*%
%TF.SameCoordinates,Original*%
%TF.FileFunction,Copper,L2,Bot*%
%TF.FilePolarity,Positive*%
%FSLAX46Y46*%
G04 Gerber Fmt 4.6, Leading zero omitted, Abs format (unit mm)*
G04 Created by KiCad (PCBNEW (5.1.10)-1) date 2023-09-11 17:59:31*
%MOMM*%
%LPD*%
G01*
G04 APERTURE LIST*
%TA.AperFunction,SMDPad,CuDef*%
%ADD10C,2.000000*%
%TD*%
%TA.AperFunction,SMDPad,CuDef*%
%ADD11R,2.200000X0.220000*%
%TD*%
%TA.AperFunction,Conductor*%
%ADD12C,0.152400*%
%TD*%
%TA.AperFunction,Conductor*%
%ADD13C,0.100000*%
%TD*%
G04 APERTURE END LIST*
%TO.P,C5,2*%
%TO.N,GND*%
%TA.AperFunction,SMDPad,CuDef*%
G36*
G01*
X159583000Y-108200000D02*
X159583000Y-107700000D01*
G75*
G02*
X159808000Y-107475000I225000J0D01*
G01*
X160258000Y-107475000D01*
G75*
G02*
X160483000Y-107700000I0J-225000D01*
G01*
X160483000Y-108200000D01*
G75*
G02*
X160258000Y-108425000I-225000J0D01*
G01*
X159808000Y-108425000D01*
G75*
G02*
X159583000Y-108200000I0J225000D01*
G01*
G37*
%TD.AperFunction*%
%TO.P,C5,1*%
%TO.N,VDDF*%
%TA.AperFunction,SMDPad,CuDef*%
G36*
G01*
X158033000Y-108200000D02*
X158033000Y-107700000D01*
G75*
G02*
X158258000Y-107475000I225000J0D01*
G01*
X158708000Y-107475000D01*
G75*
G02*
X158933000Y-107700000I0J-225000D01*
G01*
X158933000Y-108200000D01*
G75*
G02*
X158708000Y-108425000I-225000J0D01*
G01*
X158258000Y-108425000D01*
G75*
G02*
X158033000Y-108200000I0J225000D01*
G01*
G37*
%TD.AperFunction*%
%TD*%
%TO.P,C4,2*%
%TO.N,GND*%
%TA.AperFunction,SMDPad,CuDef*%
G36*
G01*
X133167000Y-108327000D02*
X133167000Y-107827000D01*
G75*
G02*
X133392000Y-107602000I225000J0D01*
G01*
X133842000Y-107602000D01*
G75*
G02*
X134067000Y-107827000I0J-225000D01*
G01*
X134067000Y-108327000D01*
G75*
G02*
X133842000Y-108552000I-225000J0D01*
G01*
X133392000Y-108552000D01*
G75*
G02*
X133167000Y-108327000I0J225000D01*
G01*
G37*
%TD.AperFunction*%
%TO.P,C4,1*%
%TO.N,VDDA*%
%TA.AperFunction,SMDPad,CuDef*%
G36*
G01*
X131617000Y-108327000D02*
X131617000Y-107827000D01*
G75*
G02*
X131842000Y-107602000I225000J0D01*
G01*
X132292000Y-107602000D01*
G75*
G02*
X132517000Y-107827000I0J-225000D01*
G01*
X132517000Y-108327000D01*
G75*
G02*
X132292000Y-108552000I-225000J0D01*
G01*
X131842000Y-108552000D01*
G75*
G02*
X131617000Y-108327000I0J225000D01*
G01*
G37*
%TD.AperFunction*%
%TD*%
%TO.P,C3,2*%
%TO.N,GND*%
%TA.AperFunction,SMDPad,CuDef*%
G36*
G01*
X159329000Y-82292000D02*
X159329000Y-81792000D01*
G75*
G02*
X159554000Y-81567000I225000J0D01*
G01*
X160004000Y-81567000D01*
G75*
G02*
X160229000Y-81792000I0J-225000D01*
G01*
X160229000Y-82292000D01*
G75*
G02*
X160004000Y-82517000I-225000J0D01*
G01*
X159554000Y-82517000D01*
G75*
G02*
X159329000Y-82292000I0J225000D01*
G01*
G37*
%TD.AperFunction*%
%TO.P,C3,1*%
%TO.N,VDD*%
%TA.AperFunction,SMDPad,CuDef*%
G36*
G01*
X157779000Y-82292000D02*
X157779000Y-81792000D01*
G75*
G02*
X158004000Y-81567000I225000J0D01*
G01*
X158454000Y-81567000D01*
G75*
G02*
X158679000Y-81792000I0J-225000D01*
G01*
X158679000Y-82292000D01*
G75*
G02*
X158454000Y-82517000I-225000J0D01*
G01*
X158004000Y-82517000D01*
G75*
G02*
X157779000Y-82292000I0J225000D01*
G01*
G37*
%TD.AperFunction*%
%TD*%
D10*
%TO.P,JP103.8,1*%
%TO.N,SDA2*%
X142748000Y-104902000D03*
%TD*%
%TO.P,JP103.11,1*%
%TO.N,SCL3*%
X164338000Y-104902000D03*
%TD*%
%TO.P,JP103.7,1*%
%TO.N,SCL2*%
X139192000Y-104902000D03*
%TD*%
%TO.P,JP103.10,1*%
%TO.N,VDDF*%
X157226000Y-104902000D03*
%TD*%
%TO.P,JP103.6,1*%
%TO.N,VDDA*%
X132080000Y-104902000D03*
%TD*%
%TO.P,JP103.12,1*%
%TO.N,SDA3*%
X167894000Y-104902000D03*
%TD*%
%TO.P,JP103.5,1*%
%TO.N,GND*%
X135636000Y-104902000D03*
%TD*%
%TO.P,JP103.9,1*%
%TO.N,GND*%
X160782000Y-104902000D03*
%TD*%
%TO.P,JP103.4,1*%
%TO.N,SDA1*%
X167894000Y-79756000D03*
%TD*%
%TO.P,JP103.3,1*%
%TO.N,SCL1*%
X164592000Y-79756000D03*
%TD*%
%TO.P,JP103.2,1*%
%TO.N,VDD*%
X157988000Y-79756000D03*
%TD*%
%TO.P,JP103.1,1*%
%TO.N,GND*%
X161290000Y-79756000D03*
%TD*%
D11*
%TO.P,U6,5*%
%TO.N,VDDF*%
X159841000Y-109515000D03*
%TO.P,U6,4*%
%TO.N,GND*%
X166041000Y-109515000D03*
%TO.P,U6,6*%
%TO.N,VDDF*%
X159841000Y-110165000D03*
%TO.P,U6,3*%
%TO.N,Net-(U6-Pad3)*%
X166041000Y-110165000D03*
%TO.P,U6,7*%
%TO.N,VDDF*%
X159841000Y-110815000D03*
%TO.P,U6,2*%
%TO.N,SCL3*%
X166041000Y-110815000D03*
%TO.P,U6,8*%
%TO.N,VDDF*%
X159841000Y-111465000D03*
%TO.P,U6,1*%
%TO.N,SDA3*%
X166041000Y-111465000D03*
%TD*%
%TO.P,U5,5*%
%TO.N,GND*%
X133742500Y-109578500D03*
%TO.P,U5,4*%
X139942500Y-109578500D03*
%TO.P,U5,6*%
%TO.N,VDDA*%
X133742500Y-110228500D03*
%TO.P,U5,3*%
%TO.N,Net-(U5-Pad3)*%
X139942500Y-110228500D03*
%TO.P,U5,7*%
%TO.N,VDDA*%
X133742500Y-110878500D03*
%TO.P,U5,2*%
%TO.N,SCL2*%
X139942500Y-110878500D03*
%TO.P,U5,8*%
%TO.N,VDDA*%
X133742500Y-111528500D03*
%TO.P,U5,1*%
%TO.N,SDA2*%
X139942500Y-111528500D03*
%TD*%
%TO.P,U4,5*%
%TO.N,GND*%
X159841000Y-83353000D03*
%TO.P,U4,4*%
X166041000Y-83353000D03*
%TO.P,U4,6*%
X159841000Y-84003000D03*
%TO.P,U4,3*%
%TO.N,Net-(U4-Pad3)*%
X166041000Y-84003000D03*
%TO.P,U4,7*%
%TO.N,VDD*%
X159841000Y-84653000D03*
%TO.P,U4,2*%
%TO.N,SCL1*%
X166041000Y-84653000D03*
%TO.P,U4,8*%
%TO.N,VDD*%
X159841000Y-85303000D03*
%TO.P,U4,1*%
%TO.N,SDA1*%
X166041000Y-85303000D03*
%TD*%
D12*
%TO.N,GND*%
X159841000Y-82104000D02*
X159779000Y-82042000D01*
X159841000Y-84003000D02*
X159841000Y-82104000D01*
%TO.N,VDD*%
X157988000Y-81801000D02*
X158229000Y-82042000D01*
X157988000Y-79756000D02*
X157988000Y-81801000D01*
X159841000Y-85303000D02*
X159841000Y-84653000D01*
X159841000Y-84653000D02*
X158821000Y-84653000D01*
X158229000Y-84061000D02*
X158229000Y-82042000D01*
X158821000Y-84653000D02*
X158229000Y-84061000D01*
%TO.N,SCL3*%
X167293400Y-110815000D02*
X168148000Y-109960400D01*
X166041000Y-110815000D02*
X167293400Y-110815000D01*
X168148000Y-109960400D02*
X168148000Y-108458000D01*
X164592000Y-104902000D02*
X164338000Y-104902000D01*
X168148000Y-108458000D02*
X164592000Y-104902000D01*
%TO.N,SDA1*%
X167293400Y-85303000D02*
X168198810Y-84397590D01*
X166041000Y-85303000D02*
X167293400Y-85303000D01*
X168198810Y-80060810D02*
X167894000Y-79756000D01*
X168198810Y-84397590D02*
X168198810Y-80060810D01*
%TO.N,VDDA*%
X132080000Y-108064000D02*
X132067000Y-108077000D01*
X132080000Y-104902000D02*
X132080000Y-108064000D01*
X132067000Y-108077000D02*
X132067000Y-111239000D01*
X132356500Y-111528500D02*
X133742500Y-111528500D01*
X132067000Y-111239000D02*
X132356500Y-111528500D01*
X133742500Y-111528500D02*
X133742500Y-110228500D01*
%TO.N,VDDF*%
X157947000Y-111465000D02*
X159841000Y-111465000D01*
X157226000Y-110744000D02*
X157947000Y-111465000D01*
X158483000Y-107950000D02*
X157226000Y-107950000D01*
X157226000Y-107950000D02*
X157226000Y-110744000D01*
X157226000Y-104902000D02*
X157226000Y-107950000D01*
X159841000Y-111465000D02*
X159841000Y-109515000D01*
%TO.N,SCL2*%
X139942500Y-110878500D02*
X141343500Y-110878500D01*
X141343500Y-110878500D02*
X141986000Y-110236000D01*
X141986000Y-107696000D02*
X139192000Y-104902000D01*
X141986000Y-110236000D02*
X141986000Y-107696000D01*
%TO.N,SDA2*%
X141194900Y-111528500D02*
X142290810Y-110432590D01*
X139942500Y-111528500D02*
X141194900Y-111528500D01*
X142290810Y-105359190D02*
X142748000Y-104902000D01*
X142290810Y-110432590D02*
X142290810Y-105359190D01*
%TO.N,SDA3*%
X167293400Y-111465000D02*
X168452810Y-110305590D01*
X166041000Y-111465000D02*
X167293400Y-111465000D01*
X168452810Y-105460810D02*
X167894000Y-104902000D01*
X168452810Y-110305590D02*
X168452810Y-105460810D01*
%TO.N,SCL1*%
X167293400Y-84653000D02*
X167894000Y-84052400D01*
X166041000Y-84653000D02*
X167293400Y-84653000D01*
X167894000Y-84052400D02*
X167894000Y-82296000D01*
X165354000Y-79756000D02*
X164592000Y-79756000D01*
X167894000Y-82296000D02*
X165354000Y-79756000D01*
%TD*%
%TO.N,GND*%
X175039543Y-71128109D02*
X175776552Y-71619448D01*
X176267736Y-72356226D01*
X176517300Y-73604013D01*
X176517300Y-121336133D01*
X176268917Y-122081283D01*
X176017648Y-122584391D01*
X175772407Y-123074317D01*
X174284749Y-124066300D01*
X126309044Y-124066300D01*
X125061225Y-123816736D01*
X124318050Y-123321286D01*
X123826441Y-122829677D01*
X123329700Y-121587825D01*
X123329700Y-115062000D01*
X124434052Y-115062000D01*
X124435401Y-115075697D01*
X124435400Y-122414313D01*
X124434052Y-122428000D01*
X124439431Y-122482615D01*
X124455362Y-122535131D01*
X124468002Y-122558779D01*
X124481232Y-122583531D01*
X124516047Y-122625953D01*
X124558469Y-122660768D01*
X124606869Y-122686638D01*
X124659385Y-122702569D01*
X124714000Y-122707948D01*
X124727686Y-122706600D01*
X128510314Y-122706600D01*
X128524000Y-122707948D01*
X128578615Y-122702569D01*
X128631131Y-122686638D01*
X128679531Y-122660768D01*
X128721953Y-122625953D01*
X128756768Y-122583531D01*
X128782638Y-122535131D01*
X128798569Y-122482615D01*
X128802600Y-122441687D01*
X128802600Y-122441686D01*
X128803948Y-122428000D01*
X128802600Y-122414313D01*
X128802600Y-118364000D01*
X134086052Y-118364000D01*
X134087401Y-118377697D01*
X134087400Y-122668313D01*
X134086052Y-122682000D01*
X134091431Y-122736615D01*
X134107362Y-122789131D01*
X134121708Y-122815971D01*
X134133232Y-122837531D01*
X134168047Y-122879953D01*
X134210469Y-122914768D01*
X134258869Y-122940638D01*
X134311385Y-122956569D01*
X134366000Y-122961948D01*
X134379686Y-122960600D01*
X138670314Y-122960600D01*
X138684000Y-122961948D01*
X138738615Y-122956569D01*
X138791131Y-122940638D01*
X138839531Y-122914768D01*
X138881953Y-122879953D01*
X138916768Y-122837531D01*
X138942638Y-122789131D01*
X138958569Y-122736615D01*
X138962600Y-122695687D01*
X138962600Y-122695686D01*
X138963948Y-122682000D01*
X138962600Y-122668313D01*
X138962600Y-118377687D01*
X138963948Y-118364000D01*
X138958569Y-118309385D01*
X138942638Y-118256869D01*
X138916768Y-118208469D01*
X138881953Y-118166047D01*
X138839531Y-118131232D01*
X138791131Y-118105362D01*
X138738615Y-118089431D01*
X138697687Y-118085400D01*
X138697686Y-118085400D01*
X138684000Y-118084052D01*
X138670313Y-118085400D01*
X134379687Y-118085400D01*
X134366000Y-118084052D01*
X134352314Y-118085400D01*
X134352313Y-118085400D01*
X134311385Y-118089431D01*
X134258869Y-118105362D01*
X134210469Y-118131232D01*
X134168047Y-118166047D01*
X134133232Y-118208469D01*
X134107362Y-118256869D01*
X134091431Y-118309385D01*
X134086052Y-118364000D01*
X128802600Y-118364000D01*
X128802600Y-115075687D01*
X128803948Y-115062000D01*
X145008052Y-115062000D01*
X145009401Y-115075697D01*
X145009400Y-122414313D01*
X145008052Y-122428000D01*
X145013431Y-122482615D01*
X145029362Y-122535131D01*
X145042002Y-122558779D01*
X145055232Y-122583531D01*
X145090047Y-122625953D01*
X145132469Y-122660768D01*
X145180869Y-122686638D01*
X145233385Y-122702569D01*
X145288000Y-122707948D01*
X145301686Y-122706600D01*
X149084314Y-122706600D01*
X149098000Y-122707948D01*
X149152615Y-122702569D01*
X149205131Y-122686638D01*
X149253531Y-122660768D01*
X149295953Y-122625953D01*
X149330768Y-122583531D01*
X149356638Y-122535131D01*
X149372569Y-122482615D01*
X149376600Y-122441687D01*
X149376600Y-122441686D01*
X149377948Y-122428000D01*
X149376600Y-122414313D01*
X149376600Y-115316000D01*
X150596052Y-115316000D01*
X150597401Y-115329697D01*
X150597400Y-122668313D01*
X150596052Y-122682000D01*
X150601431Y-122736615D01*
X150617362Y-122789131D01*
X150631708Y-122815971D01*
X150643232Y-122837531D01*
X150678047Y-122879953D01*
X150720469Y-122914768D01*
X150768869Y-122940638D01*
X150821385Y-122956569D01*
X150876000Y-122961948D01*
X150889686Y-122960600D01*
X154672314Y-122960600D01*
X154686000Y-122961948D01*
X154740615Y-122956569D01*
X154793131Y-122940638D01*
X154841531Y-122914768D01*
X154883953Y-122879953D01*
X154918768Y-122837531D01*
X154944638Y-122789131D01*
X154960569Y-122736615D01*
X154964600Y-122695687D01*
X154964600Y-122695686D01*
X154965948Y-122682000D01*
X154964600Y-122668313D01*
X154964600Y-118618000D01*
X160248052Y-118618000D01*
X160249401Y-118631697D01*
X160249400Y-122922313D01*
X160248052Y-122936000D01*
X160253431Y-122990615D01*
X160269362Y-123043131D01*
X160281486Y-123065813D01*
X160295232Y-123091531D01*
X160330047Y-123133953D01*
X160372469Y-123168768D01*
X160420869Y-123194638D01*
X160473385Y-123210569D01*
X160528000Y-123215948D01*
X160541686Y-123214600D01*
X164832314Y-123214600D01*
X164846000Y-123215948D01*
X164900615Y-123210569D01*
X164953131Y-123194638D01*
X165001531Y-123168768D01*
X165043953Y-123133953D01*
X165078768Y-123091531D01*
X165104638Y-123043131D01*
X165120569Y-122990615D01*
X165124600Y-122949687D01*
X165124600Y-122949686D01*
X165125948Y-122936000D01*
X165124600Y-122922313D01*
X165124600Y-118631687D01*
X165125948Y-118618000D01*
X165120569Y-118563385D01*
X165104638Y-118510869D01*
X165078768Y-118462469D01*
X165043953Y-118420047D01*
X165001531Y-118385232D01*
X164953131Y-118359362D01*
X164900615Y-118343431D01*
X164859687Y-118339400D01*
X164859686Y-118339400D01*
X164846000Y-118338052D01*
X164832313Y-118339400D01*
X160541687Y-118339400D01*
X160528000Y-118338052D01*
X160514314Y-118339400D01*
X160514313Y-118339400D01*
X160473385Y-118343431D01*
X160420869Y-118359362D01*
X160372469Y-118385232D01*
X160330047Y-118420047D01*
X160295232Y-118462469D01*
X160269362Y-118510869D01*
X160253431Y-118563385D01*
X160248052Y-118618000D01*
X154964600Y-118618000D01*
X154964600Y-115329687D01*
X154965948Y-115316000D01*
X171170052Y-115316000D01*
X171171401Y-115329697D01*
X171171400Y-122668313D01*
X171170052Y-122682000D01*
X171175431Y-122736615D01*
X171191362Y-122789131D01*
X171205708Y-122815971D01*
X171217232Y-122837531D01*
X171252047Y-122879953D01*
X171294469Y-122914768D01*
X171342869Y-122940638D01*
X171395385Y-122956569D01*
X171450000Y-122961948D01*
X171463686Y-122960600D01*
X175246314Y-122960600D01*
X175260000Y-122961948D01*
X175314615Y-122956569D01*
X175367131Y-122940638D01*
X175415531Y-122914768D01*
X175457953Y-122879953D01*
X175492768Y-122837531D01*
X175518638Y-122789131D01*
X175534569Y-122736615D01*
X175538600Y-122695687D01*
X175538600Y-122695686D01*
X175539948Y-122682000D01*
X175538600Y-122668313D01*
X175538600Y-115329687D01*
X175539948Y-115316000D01*
X175534569Y-115261385D01*
X175518638Y-115208869D01*
X175492768Y-115160469D01*
X175457953Y-115118047D01*
X175415531Y-115083232D01*
X175367131Y-115057362D01*
X175314615Y-115041431D01*
X175273687Y-115037400D01*
X175273686Y-115037400D01*
X175260000Y-115036052D01*
X175246313Y-115037400D01*
X171463687Y-115037400D01*
X171450000Y-115036052D01*
X171436314Y-115037400D01*
X171436313Y-115037400D01*
X171395385Y-115041431D01*
X171342869Y-115057362D01*
X171294469Y-115083232D01*
X171252047Y-115118047D01*
X171217232Y-115160469D01*
X171191362Y-115208869D01*
X171175431Y-115261385D01*
X171170052Y-115316000D01*
X154965948Y-115316000D01*
X154960569Y-115261385D01*
X154944638Y-115208869D01*
X154918768Y-115160469D01*
X154883953Y-115118047D01*
X154841531Y-115083232D01*
X154793131Y-115057362D01*
X154740615Y-115041431D01*
X154699687Y-115037400D01*
X154699686Y-115037400D01*
X154686000Y-115036052D01*
X154672313Y-115037400D01*
X150889687Y-115037400D01*
X150876000Y-115036052D01*
X150862314Y-115037400D01*
X150862313Y-115037400D01*
X150821385Y-115041431D01*
X150768869Y-115057362D01*
X150720469Y-115083232D01*
X150678047Y-115118047D01*
X150643232Y-115160469D01*
X150617362Y-115208869D01*
X150601431Y-115261385D01*
X150596052Y-115316000D01*
X149376600Y-115316000D01*
X149376600Y-115075687D01*
X149377948Y-115062000D01*
X149372569Y-115007385D01*
X149356638Y-114954869D01*
X149330768Y-114906469D01*
X149295953Y-114864047D01*
X149253531Y-114829232D01*
X149205131Y-114803362D01*
X149152615Y-114787431D01*
X149111687Y-114783400D01*
X149111686Y-114783400D01*
X149098000Y-114782052D01*
X149084313Y-114783400D01*
X145301687Y-114783400D01*
X145288000Y-114782052D01*
X145274314Y-114783400D01*
X145274313Y-114783400D01*
X145233385Y-114787431D01*
X145180869Y-114803362D01*
X145132469Y-114829232D01*
X145090047Y-114864047D01*
X145055232Y-114906469D01*
X145029362Y-114954869D01*
X145013431Y-115007385D01*
X145008052Y-115062000D01*
X128803948Y-115062000D01*
X128798569Y-115007385D01*
X128782638Y-114954869D01*
X128756768Y-114906469D01*
X128721953Y-114864047D01*
X128679531Y-114829232D01*
X128631131Y-114803362D01*
X128578615Y-114787431D01*
X128537687Y-114783400D01*
X128537686Y-114783400D01*
X128524000Y-114782052D01*
X128510313Y-114783400D01*
X124727687Y-114783400D01*
X124714000Y-114782052D01*
X124700314Y-114783400D01*
X124700313Y-114783400D01*
X124659385Y-114787431D01*
X124606869Y-114803362D01*
X124558469Y-114829232D01*
X124516047Y-114864047D01*
X124481232Y-114906469D01*
X124455362Y-114954869D01*
X124439431Y-115007385D01*
X124434052Y-115062000D01*
X123329700Y-115062000D01*
X123329700Y-108458000D01*
X124434052Y-108458000D01*
X124435400Y-108471687D01*
X124435400Y-108725686D01*
X124435401Y-108725696D01*
X124435400Y-112508313D01*
X124434052Y-112522000D01*
X124439431Y-112576615D01*
X124455362Y-112629131D01*
X124476602Y-112668869D01*
X124481232Y-112677531D01*
X124516047Y-112719953D01*
X124558469Y-112754768D01*
X124606869Y-112780638D01*
X124659385Y-112796569D01*
X124714000Y-112801948D01*
X124727686Y-112800600D01*
X128764314Y-112800600D01*
X128778000Y-112801948D01*
X128832615Y-112796569D01*
X128885131Y-112780638D01*
X128933531Y-112754768D01*
X128975953Y-112719953D01*
X129010768Y-112677531D01*
X129036638Y-112629131D01*
X129052569Y-112576615D01*
X129056600Y-112535687D01*
X129056600Y-112535686D01*
X129057948Y-112522000D01*
X129056600Y-112508313D01*
X129056600Y-108471687D01*
X129057948Y-108458000D01*
X129052569Y-108403385D01*
X129036638Y-108350869D01*
X129010768Y-108302469D01*
X128975953Y-108260047D01*
X128933531Y-108225232D01*
X128885131Y-108199362D01*
X128832615Y-108183431D01*
X128791687Y-108179400D01*
X128791686Y-108179400D01*
X128778000Y-108178052D01*
X128764313Y-108179400D01*
X124727687Y-108179400D01*
X124714000Y-108178052D01*
X124700314Y-108179400D01*
X124700313Y-108179400D01*
X124659385Y-108183431D01*
X124606869Y-108199362D01*
X124558469Y-108225232D01*
X124516047Y-108260047D01*
X124481232Y-108302469D01*
X124455362Y-108350869D01*
X124439431Y-108403385D01*
X124434052Y-108458000D01*
X123329700Y-108458000D01*
X123329700Y-99014488D01*
X123560944Y-98552000D01*
X124434052Y-98552000D01*
X124435401Y-98565697D01*
X124435400Y-105904313D01*
X124434052Y-105918000D01*
X124439431Y-105972615D01*
X124455362Y-106025131D01*
X124476602Y-106064869D01*
X124481232Y-106073531D01*
X124516047Y-106115953D01*
X124558469Y-106150768D01*
X124606869Y-106176638D01*
X124659385Y-106192569D01*
X124714000Y-106197948D01*
X124727686Y-106196600D01*
X128510314Y-106196600D01*
X128524000Y-106197948D01*
X128578615Y-106192569D01*
X128631131Y-106176638D01*
X128679531Y-106150768D01*
X128721953Y-106115953D01*
X128756768Y-106073531D01*
X128782638Y-106025131D01*
X128798569Y-105972615D01*
X128802600Y-105931687D01*
X128802600Y-105931686D01*
X128803948Y-105918000D01*
X128802600Y-105904313D01*
X128802600Y-104780993D01*
X130851400Y-104780993D01*
X130851400Y-105023007D01*
X130898614Y-105260369D01*
X130991229Y-105483960D01*
X131125684Y-105685187D01*
X131296813Y-105856316D01*
X131498040Y-105990771D01*
X131721631Y-106083386D01*
X131775200Y-106094042D01*
X131775201Y-107378873D01*
X131753291Y-107381031D01*
X131667992Y-107406906D01*
X131589379Y-107448926D01*
X131520474Y-107505474D01*
X131463926Y-107574379D01*
X131421906Y-107652992D01*
X131396031Y-107738291D01*
X131387294Y-107827000D01*
X131387294Y-108327000D01*
X131396031Y-108415709D01*
X131421906Y-108501008D01*
X131463926Y-108579621D01*
X131520474Y-108648526D01*
X131589379Y-108705074D01*
X131667992Y-108747094D01*
X131753291Y-108772969D01*
X131762200Y-108773846D01*
X131762201Y-111224032D01*
X131760727Y-111239000D01*
X131766611Y-111298751D01*
X131784040Y-111356205D01*
X131793384Y-111373687D01*
X131812343Y-111409157D01*
X131850433Y-111455568D01*
X131862056Y-111465107D01*
X132130392Y-111733444D01*
X132139932Y-111745068D01*
X132186343Y-111783158D01*
X132219588Y-111800927D01*
X132239294Y-111811460D01*
X132296748Y-111828889D01*
X132301903Y-111829397D01*
X132341534Y-111833300D01*
X132341542Y-111833300D01*
X132356500Y-111834773D01*
X132371458Y-111833300D01*
X132522003Y-111833300D01*
X132554595Y-111850721D01*
X132597687Y-111863792D01*
X132642500Y-111868206D01*
X134556901Y-111868206D01*
X134556901Y-112192031D01*
X134555673Y-112204500D01*
X134560569Y-112254214D01*
X134575071Y-112302018D01*
X134598619Y-112346074D01*
X134630310Y-112384690D01*
X134668926Y-112416381D01*
X134712982Y-112439929D01*
X134760786Y-112454431D01*
X134798041Y-112458100D01*
X134810500Y-112459327D01*
X134822959Y-112458100D01*
X138862041Y-112458100D01*
X138874500Y-112459327D01*
X138886959Y-112458100D01*
X138924214Y-112454431D01*
X138972018Y-112439929D01*
X139016074Y-112416381D01*
X139054690Y-112384690D01*
X139086381Y-112346074D01*
X139109929Y-112302018D01*
X139124431Y-112254214D01*
X139129327Y-112204500D01*
X139128100Y-112192041D01*
X139128100Y-111868206D01*
X141042500Y-111868206D01*
X141087313Y-111863792D01*
X141130405Y-111850721D01*
X141162997Y-111833300D01*
X141179942Y-111833300D01*
X141194900Y-111834773D01*
X141209858Y-111833300D01*
X141209866Y-111833300D01*
X141254651Y-111828889D01*
X141312106Y-111811460D01*
X141365057Y-111783158D01*
X141411468Y-111745068D01*
X141421012Y-111733439D01*
X142495755Y-110658697D01*
X142507378Y-110649158D01*
X142545468Y-110602747D01*
X142573770Y-110549796D01*
X142573770Y-110549795D01*
X142591199Y-110492342D01*
X142592878Y-110475294D01*
X142595610Y-110447556D01*
X142595610Y-110447548D01*
X142597083Y-110432590D01*
X142595610Y-110417632D01*
X142595610Y-108458000D01*
X144754052Y-108458000D01*
X144755400Y-108471687D01*
X144755401Y-112508303D01*
X144754052Y-112522000D01*
X144759431Y-112576615D01*
X144775362Y-112629131D01*
X144801232Y-112677531D01*
X144836047Y-112719953D01*
X144878469Y-112754768D01*
X144926869Y-112780638D01*
X144979385Y-112796569D01*
X145020313Y-112800600D01*
X145020314Y-112800600D01*
X145034000Y-112801948D01*
X145047687Y-112800600D01*
X149084313Y-112800600D01*
X149098000Y-112801948D01*
X149111686Y-112800600D01*
X149111687Y-112800600D01*
X149152615Y-112796569D01*
X149205131Y-112780638D01*
X149253531Y-112754768D01*
X149295953Y-112719953D01*
X149330768Y-112677531D01*
X149356638Y-112629131D01*
X149372569Y-112576615D01*
X149377948Y-112522000D01*
X149376600Y-112508313D01*
X149376600Y-108712000D01*
X150596052Y-108712000D01*
X150597400Y-108725686D01*
X150597400Y-108979686D01*
X150597401Y-108979696D01*
X150597400Y-112762313D01*
X150596052Y-112776000D01*
X150601431Y-112830615D01*
X150617362Y-112883131D01*
X150643232Y-112931531D01*
X150678047Y-112973953D01*
X150720469Y-113008768D01*
X150768869Y-113034638D01*
X150821385Y-113050569D01*
X150876000Y-113055948D01*
X150889686Y-113054600D01*
X154926314Y-113054600D01*
X154940000Y-113055948D01*
X154994615Y-113050569D01*
X155047131Y-113034638D01*
X155095531Y-113008768D01*
X155137953Y-112973953D01*
X155172768Y-112931531D01*
X155198638Y-112883131D01*
X155214569Y-112830615D01*
X155218600Y-112789687D01*
X155218600Y-112789686D01*
X155219948Y-112776000D01*
X155218600Y-112762313D01*
X155218600Y-108725686D01*
X155219948Y-108712000D01*
X155214569Y-108657385D01*
X155198638Y-108604869D01*
X155172768Y-108556469D01*
X155137953Y-108514047D01*
X155095531Y-108479232D01*
X155047131Y-108453362D01*
X154994615Y-108437431D01*
X154953687Y-108433400D01*
X154953686Y-108433400D01*
X154940000Y-108432052D01*
X154926313Y-108433400D01*
X150889687Y-108433400D01*
X150876000Y-108432052D01*
X150862314Y-108433400D01*
X150862313Y-108433400D01*
X150821385Y-108437431D01*
X150768869Y-108453362D01*
X150720469Y-108479232D01*
X150678047Y-108514047D01*
X150643232Y-108556469D01*
X150617362Y-108604869D01*
X150601431Y-108657385D01*
X150596052Y-108712000D01*
X149376600Y-108712000D01*
X149376600Y-108471687D01*
X149377948Y-108458000D01*
X149372569Y-108403385D01*
X149356638Y-108350869D01*
X149330768Y-108302469D01*
X149295953Y-108260047D01*
X149253531Y-108225232D01*
X149205131Y-108199362D01*
X149152615Y-108183431D01*
X149111687Y-108179400D01*
X149098000Y-108178052D01*
X149084314Y-108179400D01*
X145047686Y-108179400D01*
X145034000Y-108178052D01*
X145020313Y-108179400D01*
X144979385Y-108183431D01*
X144926869Y-108199362D01*
X144878469Y-108225232D01*
X144836047Y-108260047D01*
X144801232Y-108302469D01*
X144775362Y-108350869D01*
X144759431Y-108403385D01*
X144754052Y-108458000D01*
X142595610Y-108458000D01*
X142595610Y-106124358D01*
X142626993Y-106130600D01*
X142869007Y-106130600D01*
X143106369Y-106083386D01*
X143329960Y-105990771D01*
X143531187Y-105856316D01*
X143702316Y-105685187D01*
X143836771Y-105483960D01*
X143929386Y-105260369D01*
X143976600Y-105023007D01*
X143976600Y-104780993D01*
X143929386Y-104543631D01*
X143836771Y-104320040D01*
X143702316Y-104118813D01*
X143531187Y-103947684D01*
X143329960Y-103813229D01*
X143106369Y-103720614D01*
X142869007Y-103673400D01*
X142626993Y-103673400D01*
X142389631Y-103720614D01*
X142166040Y-103813229D01*
X141964813Y-103947684D01*
X141793684Y-104118813D01*
X141659229Y-104320040D01*
X141566614Y-104543631D01*
X141519400Y-104780993D01*
X141519400Y-105023007D01*
X141566614Y-105260369D01*
X141659229Y-105483960D01*
X141793684Y-105685187D01*
X141964813Y-105856316D01*
X141986011Y-105870480D01*
X141986011Y-107264959D01*
X140250426Y-105529375D01*
X140280771Y-105483960D01*
X140373386Y-105260369D01*
X140420600Y-105023007D01*
X140420600Y-104780993D01*
X140373386Y-104543631D01*
X140280771Y-104320040D01*
X140146316Y-104118813D01*
X139975187Y-103947684D01*
X139773960Y-103813229D01*
X139550369Y-103720614D01*
X139313007Y-103673400D01*
X139070993Y-103673400D01*
X138833631Y-103720614D01*
X138610040Y-103813229D01*
X138408813Y-103947684D01*
X138237684Y-104118813D01*
X138103229Y-104320040D01*
X138010614Y-104543631D01*
X137963400Y-104780993D01*
X137963400Y-105023007D01*
X138010614Y-105260369D01*
X138103229Y-105483960D01*
X138237684Y-105685187D01*
X138408813Y-105856316D01*
X138610040Y-105990771D01*
X138833631Y-106083386D01*
X139070993Y-106130600D01*
X139313007Y-106130600D01*
X139550369Y-106083386D01*
X139773960Y-105990771D01*
X139819375Y-105960426D01*
X141681201Y-107822253D01*
X141681200Y-110109748D01*
X141217249Y-110573700D01*
X141162997Y-110573700D01*
X141130405Y-110556279D01*
X141121243Y-110553500D01*
X141130405Y-110550721D01*
X141170118Y-110529494D01*
X141204927Y-110500927D01*
X141233494Y-110466118D01*
X141254721Y-110426405D01*
X141267792Y-110383313D01*
X141272206Y-110338500D01*
X141272206Y-110118500D01*
X141267792Y-110073687D01*
X141254721Y-110030595D01*
X141233494Y-109990882D01*
X141216381Y-109970029D01*
X141226144Y-109964842D01*
X141276527Y-109923705D01*
X141317916Y-109873529D01*
X141348722Y-109816243D01*
X141367759Y-109754047D01*
X141372700Y-109694850D01*
X141290150Y-109612300D01*
X139993300Y-109612300D01*
X139993300Y-109649300D01*
X139891700Y-109649300D01*
X139891700Y-109612300D01*
X139128100Y-109612300D01*
X139128100Y-109544700D01*
X139891700Y-109544700D01*
X139891700Y-109220850D01*
X139993300Y-109220850D01*
X139993300Y-109544700D01*
X141290150Y-109544700D01*
X141372700Y-109462150D01*
X141367759Y-109402953D01*
X141348722Y-109340757D01*
X141317916Y-109283471D01*
X141276527Y-109233295D01*
X141226144Y-109192158D01*
X141168704Y-109161641D01*
X141106414Y-109142916D01*
X141041667Y-109136703D01*
X140075850Y-109138300D01*
X139993300Y-109220850D01*
X139891700Y-109220850D01*
X139809150Y-109138300D01*
X139128100Y-109137174D01*
X139128100Y-108914959D01*
X139129327Y-108902500D01*
X139124431Y-108852786D01*
X139109929Y-108804982D01*
X139086381Y-108760926D01*
X139054690Y-108722310D01*
X139016074Y-108690619D01*
X138972018Y-108667071D01*
X138924214Y-108652569D01*
X138886959Y-108648900D01*
X138874500Y-108647673D01*
X138862041Y-108648900D01*
X134822959Y-108648900D01*
X134810500Y-108647673D01*
X134798041Y-108648900D01*
X134760786Y-108652569D01*
X134712982Y-108667071D01*
X134668926Y-108690619D01*
X134630310Y-108722310D01*
X134598619Y-108760926D01*
X134575071Y-108804982D01*
X134560569Y-108852786D01*
X134555673Y-108902500D01*
X134556900Y-108914959D01*
X134556900Y-109137174D01*
X133875850Y-109138300D01*
X133793300Y-109220850D01*
X133793300Y-109544700D01*
X134556900Y-109544700D01*
X134556900Y-109612300D01*
X133793300Y-109612300D01*
X133793300Y-109649300D01*
X133691700Y-109649300D01*
X133691700Y-109612300D01*
X133671700Y-109612300D01*
X133671700Y-109544700D01*
X133691700Y-109544700D01*
X133691700Y-109220850D01*
X133609150Y-109138300D01*
X132643333Y-109136703D01*
X132578586Y-109142916D01*
X132516296Y-109161641D01*
X132458856Y-109192158D01*
X132408473Y-109233295D01*
X132371800Y-109277754D01*
X132371800Y-108773846D01*
X132380709Y-108772969D01*
X132466008Y-108747094D01*
X132544621Y-108705074D01*
X132613526Y-108648526D01*
X132670074Y-108579621D01*
X132684837Y-108552000D01*
X132835202Y-108552000D01*
X132841577Y-108616731D01*
X132860459Y-108678974D01*
X132891120Y-108736337D01*
X132932383Y-108786617D01*
X132982663Y-108827880D01*
X133040026Y-108858541D01*
X133102269Y-108877423D01*
X133167000Y-108883798D01*
X133483650Y-108882200D01*
X133566200Y-108799650D01*
X133566200Y-108127800D01*
X133667800Y-108127800D01*
X133667800Y-108799650D01*
X133750350Y-108882200D01*
X134067000Y-108883798D01*
X134131731Y-108877423D01*
X134193974Y-108858541D01*
X134251337Y-108827880D01*
X134301617Y-108786617D01*
X134342880Y-108736337D01*
X134373541Y-108678974D01*
X134392423Y-108616731D01*
X134398798Y-108552000D01*
X134397200Y-108210350D01*
X134314650Y-108127800D01*
X133667800Y-108127800D01*
X133566200Y-108127800D01*
X132919350Y-108127800D01*
X132836800Y-108210350D01*
X132835202Y-108552000D01*
X132684837Y-108552000D01*
X132712094Y-108501008D01*
X132737969Y-108415709D01*
X132746706Y-108327000D01*
X132746706Y-107827000D01*
X132737969Y-107738291D01*
X132712094Y-107652992D01*
X132684838Y-107602000D01*
X132835202Y-107602000D01*
X132836800Y-107943650D01*
X132919350Y-108026200D01*
X133566200Y-108026200D01*
X133566200Y-107354350D01*
X133667800Y-107354350D01*
X133667800Y-108026200D01*
X134314650Y-108026200D01*
X134397200Y-107943650D01*
X134398798Y-107602000D01*
X134392423Y-107537269D01*
X134373541Y-107475026D01*
X134342880Y-107417663D01*
X134301617Y-107367383D01*
X134251337Y-107326120D01*
X134193974Y-107295459D01*
X134131731Y-107276577D01*
X134067000Y-107270202D01*
X133750350Y-107271800D01*
X133667800Y-107354350D01*
X133566200Y-107354350D01*
X133483650Y-107271800D01*
X133167000Y-107270202D01*
X133102269Y-107276577D01*
X133040026Y-107295459D01*
X132982663Y-107326120D01*
X132932383Y-107367383D01*
X132891120Y-107417663D01*
X132860459Y-107475026D01*
X132841577Y-107537269D01*
X132835202Y-107602000D01*
X132684838Y-107602000D01*
X132670074Y-107574379D01*
X132613526Y-107505474D01*
X132544621Y-107448926D01*
X132466008Y-107406906D01*
X132384800Y-107382272D01*
X132384800Y-106094041D01*
X132438369Y-106083386D01*
X132661960Y-105990771D01*
X132863187Y-105856316D01*
X132895537Y-105823966D01*
X134785876Y-105823966D01*
X134892011Y-106012439D01*
X135122942Y-106136248D01*
X135373590Y-106212625D01*
X135634323Y-106238635D01*
X135895120Y-106213279D01*
X136145959Y-106137531D01*
X136377201Y-106014303D01*
X136379989Y-106012439D01*
X136486124Y-105823966D01*
X135636000Y-104973842D01*
X134785876Y-105823966D01*
X132895537Y-105823966D01*
X133034316Y-105685187D01*
X133168771Y-105483960D01*
X133261386Y-105260369D01*
X133308600Y-105023007D01*
X133308600Y-104900323D01*
X134299365Y-104900323D01*
X134324721Y-105161120D01*
X134400469Y-105411959D01*
X134523697Y-105643201D01*
X134525561Y-105645989D01*
X134714034Y-105752124D01*
X135564158Y-104902000D01*
X135707842Y-104902000D01*
X136557966Y-105752124D01*
X136746439Y-105645989D01*
X136870248Y-105415058D01*
X136946625Y-105164410D01*
X136972635Y-104903677D01*
X136947279Y-104642880D01*
X136871531Y-104392041D01*
X136748303Y-104160799D01*
X136746439Y-104158011D01*
X136557966Y-104051876D01*
X135707842Y-104902000D01*
X135564158Y-104902000D01*
X134714034Y-104051876D01*
X134525561Y-104158011D01*
X134401752Y-104388942D01*
X134325375Y-104639590D01*
X134299365Y-104900323D01*
X133308600Y-104900323D01*
X133308600Y-104780993D01*
X133261386Y-104543631D01*
X133168771Y-104320040D01*
X133034316Y-104118813D01*
X132895537Y-103980034D01*
X134785876Y-103980034D01*
X135636000Y-104830158D01*
X136486124Y-103980034D01*
X136379989Y-103791561D01*
X136149058Y-103667752D01*
X135898410Y-103591375D01*
X135637677Y-103565365D01*
X135376880Y-103590721D01*
X135126041Y-103666469D01*
X134894799Y-103789697D01*
X134892011Y-103791561D01*
X134785876Y-103980034D01*
X132895537Y-103980034D01*
X132863187Y-103947684D01*
X132661960Y-103813229D01*
X132438369Y-103720614D01*
X132201007Y-103673400D01*
X131958993Y-103673400D01*
X131721631Y-103720614D01*
X131498040Y-103813229D01*
X131296813Y-103947684D01*
X131125684Y-104118813D01*
X130991229Y-104320040D01*
X130898614Y-104543631D01*
X130851400Y-104780993D01*
X128802600Y-104780993D01*
X128802600Y-98565687D01*
X128803948Y-98552000D01*
X128798569Y-98497385D01*
X128782638Y-98444869D01*
X128756768Y-98396469D01*
X128721953Y-98354047D01*
X128679531Y-98319232D01*
X128639809Y-98298000D01*
X134086052Y-98298000D01*
X134087401Y-98311697D01*
X134087400Y-102348313D01*
X134086052Y-102362000D01*
X134091431Y-102416615D01*
X134107362Y-102469131D01*
X134128602Y-102508869D01*
X134133232Y-102517531D01*
X134168047Y-102559953D01*
X134210469Y-102594768D01*
X134258869Y-102620638D01*
X134311385Y-102636569D01*
X134366000Y-102641948D01*
X134379686Y-102640600D01*
X138416314Y-102640600D01*
X138430000Y-102641948D01*
X138484615Y-102636569D01*
X138537131Y-102620638D01*
X138585531Y-102594768D01*
X138627953Y-102559953D01*
X138662768Y-102517531D01*
X138688638Y-102469131D01*
X138704569Y-102416615D01*
X138708600Y-102375687D01*
X138708600Y-102375686D01*
X138709948Y-102362000D01*
X138708600Y-102348313D01*
X138708600Y-98552000D01*
X145008052Y-98552000D01*
X145009401Y-98565697D01*
X145009400Y-105904313D01*
X145008052Y-105918000D01*
X145013431Y-105972615D01*
X145029362Y-106025131D01*
X145050602Y-106064869D01*
X145055232Y-106073531D01*
X145090047Y-106115953D01*
X145132469Y-106150768D01*
X145180869Y-106176638D01*
X145233385Y-106192569D01*
X145288000Y-106197948D01*
X145301686Y-106196600D01*
X149084314Y-106196600D01*
X149098000Y-106197948D01*
X149152615Y-106192569D01*
X149205131Y-106176638D01*
X149253531Y-106150768D01*
X149295953Y-106115953D01*
X149330768Y-106073531D01*
X149356638Y-106025131D01*
X149372569Y-105972615D01*
X149376600Y-105931687D01*
X149376600Y-105931686D01*
X149377948Y-105918000D01*
X149376600Y-105904313D01*
X149376600Y-98806000D01*
X150596052Y-98806000D01*
X150597401Y-98819697D01*
X150597400Y-106158313D01*
X150596052Y-106172000D01*
X150601431Y-106226615D01*
X150617362Y-106279131D01*
X150643232Y-106327531D01*
X150678047Y-106369953D01*
X150720469Y-106404768D01*
X150768869Y-106430638D01*
X150821385Y-106446569D01*
X150876000Y-106451948D01*
X150889686Y-106450600D01*
X154672314Y-106450600D01*
X154686000Y-106451948D01*
X154740615Y-106446569D01*
X154793131Y-106430638D01*
X154841531Y-106404768D01*
X154883953Y-106369953D01*
X154918768Y-106327531D01*
X154944638Y-106279131D01*
X154960569Y-106226615D01*
X154964600Y-106185687D01*
X154964600Y-106185686D01*
X154965948Y-106172000D01*
X154964600Y-106158313D01*
X154964600Y-104780993D01*
X155997400Y-104780993D01*
X155997400Y-105023007D01*
X156044614Y-105260369D01*
X156137229Y-105483960D01*
X156271684Y-105685187D01*
X156442813Y-105856316D01*
X156644040Y-105990771D01*
X156867631Y-106083386D01*
X156921200Y-106094042D01*
X156921201Y-107935024D01*
X156919726Y-107950000D01*
X156921200Y-107964966D01*
X156921201Y-110729032D01*
X156919727Y-110744000D01*
X156925611Y-110803751D01*
X156943040Y-110861205D01*
X156956215Y-110885854D01*
X156971343Y-110914157D01*
X157009433Y-110960568D01*
X157021057Y-110970108D01*
X157720892Y-111669944D01*
X157730432Y-111681568D01*
X157776843Y-111719658D01*
X157810088Y-111737427D01*
X157829794Y-111747960D01*
X157887248Y-111765389D01*
X157892403Y-111765897D01*
X157932034Y-111769800D01*
X157932042Y-111769800D01*
X157947000Y-111771273D01*
X157961958Y-111769800D01*
X158620503Y-111769800D01*
X158653095Y-111787221D01*
X158696187Y-111800292D01*
X158741000Y-111804706D01*
X160655401Y-111804706D01*
X160655401Y-112128531D01*
X160654173Y-112141000D01*
X160659069Y-112190714D01*
X160673571Y-112238518D01*
X160697119Y-112282574D01*
X160728810Y-112321190D01*
X160767426Y-112352881D01*
X160811482Y-112376429D01*
X160859286Y-112390931D01*
X160896541Y-112394600D01*
X160909000Y-112395827D01*
X160921459Y-112394600D01*
X164960541Y-112394600D01*
X164973000Y-112395827D01*
X164985459Y-112394600D01*
X165022714Y-112390931D01*
X165070518Y-112376429D01*
X165114574Y-112352881D01*
X165153190Y-112321190D01*
X165184881Y-112282574D01*
X165208429Y-112238518D01*
X165222931Y-112190714D01*
X165227827Y-112141000D01*
X165226600Y-112128541D01*
X165226600Y-111804706D01*
X167141000Y-111804706D01*
X167185813Y-111800292D01*
X167228905Y-111787221D01*
X167261497Y-111769800D01*
X167278442Y-111769800D01*
X167293400Y-111771273D01*
X167308358Y-111769800D01*
X167308366Y-111769800D01*
X167353151Y-111765389D01*
X167410606Y-111747960D01*
X167463557Y-111719658D01*
X167509968Y-111681568D01*
X167519512Y-111669939D01*
X168657755Y-110531697D01*
X168669378Y-110522158D01*
X168707468Y-110475747D01*
X168735770Y-110422796D01*
X168747912Y-110382771D01*
X168753199Y-110365342D01*
X168754394Y-110353205D01*
X168757610Y-110320556D01*
X168757610Y-110320549D01*
X168759083Y-110305591D01*
X168757610Y-110290633D01*
X168757610Y-108712000D01*
X170916052Y-108712000D01*
X170917400Y-108725686D01*
X170917401Y-112762303D01*
X170916052Y-112776000D01*
X170921431Y-112830615D01*
X170937362Y-112883131D01*
X170963232Y-112931531D01*
X170998047Y-112973953D01*
X171040469Y-113008768D01*
X171088869Y-113034638D01*
X171141385Y-113050569D01*
X171182313Y-113054600D01*
X171182314Y-113054600D01*
X171196000Y-113055948D01*
X171209687Y-113054600D01*
X175246313Y-113054600D01*
X175260000Y-113055948D01*
X175273686Y-113054600D01*
X175273687Y-113054600D01*
X175314615Y-113050569D01*
X175367131Y-113034638D01*
X175415531Y-113008768D01*
X175457953Y-112973953D01*
X175492768Y-112931531D01*
X175518638Y-112883131D01*
X175534569Y-112830615D01*
X175539948Y-112776000D01*
X175538600Y-112762313D01*
X175538600Y-108725686D01*
X175539948Y-108712000D01*
X175534569Y-108657385D01*
X175518638Y-108604869D01*
X175492768Y-108556469D01*
X175457953Y-108514047D01*
X175415531Y-108479232D01*
X175367131Y-108453362D01*
X175314615Y-108437431D01*
X175273687Y-108433400D01*
X175260000Y-108432052D01*
X175246314Y-108433400D01*
X171209686Y-108433400D01*
X171196000Y-108432052D01*
X171182313Y-108433400D01*
X171141385Y-108437431D01*
X171088869Y-108453362D01*
X171040469Y-108479232D01*
X170998047Y-108514047D01*
X170963232Y-108556469D01*
X170937362Y-108604869D01*
X170921431Y-108657385D01*
X170916052Y-108712000D01*
X168757610Y-108712000D01*
X168757610Y-105775893D01*
X168848316Y-105685187D01*
X168982771Y-105483960D01*
X169075386Y-105260369D01*
X169122600Y-105023007D01*
X169122600Y-104780993D01*
X169075386Y-104543631D01*
X168982771Y-104320040D01*
X168848316Y-104118813D01*
X168677187Y-103947684D01*
X168475960Y-103813229D01*
X168252369Y-103720614D01*
X168015007Y-103673400D01*
X167772993Y-103673400D01*
X167535631Y-103720614D01*
X167312040Y-103813229D01*
X167110813Y-103947684D01*
X166939684Y-104118813D01*
X166805229Y-104320040D01*
X166712614Y-104543631D01*
X166665400Y-104780993D01*
X166665400Y-105023007D01*
X166712614Y-105260369D01*
X166805229Y-105483960D01*
X166939684Y-105685187D01*
X167110813Y-105856316D01*
X167312040Y-105990771D01*
X167535631Y-106083386D01*
X167772993Y-106130600D01*
X168015007Y-106130600D01*
X168148011Y-106104144D01*
X168148010Y-108026959D01*
X165478977Y-105357925D01*
X165519386Y-105260369D01*
X165566600Y-105023007D01*
X165566600Y-104780993D01*
X165519386Y-104543631D01*
X165426771Y-104320040D01*
X165292316Y-104118813D01*
X165121187Y-103947684D01*
X164919960Y-103813229D01*
X164696369Y-103720614D01*
X164459007Y-103673400D01*
X164216993Y-103673400D01*
X163979631Y-103720614D01*
X163756040Y-103813229D01*
X163554813Y-103947684D01*
X163383684Y-104118813D01*
X163249229Y-104320040D01*
X163156614Y-104543631D01*
X163109400Y-104780993D01*
X163109400Y-105023007D01*
X163156614Y-105260369D01*
X163249229Y-105483960D01*
X163383684Y-105685187D01*
X163554813Y-105856316D01*
X163756040Y-105990771D01*
X163979631Y-106083386D01*
X164216993Y-106130600D01*
X164459007Y-106130600D01*
X164696369Y-106083386D01*
X164919960Y-105990771D01*
X165117637Y-105858688D01*
X167843201Y-108584253D01*
X167843200Y-109834148D01*
X167367249Y-110310100D01*
X167370706Y-110275000D01*
X167370706Y-110055000D01*
X167366292Y-110010187D01*
X167353221Y-109967095D01*
X167331994Y-109927382D01*
X167314881Y-109906529D01*
X167324644Y-109901342D01*
X167375027Y-109860205D01*
X167416416Y-109810029D01*
X167447222Y-109752743D01*
X167466259Y-109690547D01*
X167471200Y-109631350D01*
X167388650Y-109548800D01*
X166091800Y-109548800D01*
X166091800Y-109585800D01*
X165990200Y-109585800D01*
X165990200Y-109548800D01*
X165226600Y-109548800D01*
X165226600Y-109481200D01*
X165990200Y-109481200D01*
X165990200Y-109157350D01*
X166091800Y-109157350D01*
X166091800Y-109481200D01*
X167388650Y-109481200D01*
X167471200Y-109398650D01*
X167466259Y-109339453D01*
X167447222Y-109277257D01*
X167416416Y-109219971D01*
X167375027Y-109169795D01*
X167324644Y-109128658D01*
X167267204Y-109098141D01*
X167204914Y-109079416D01*
X167140167Y-109073203D01*
X166174350Y-109074800D01*
X166091800Y-109157350D01*
X165990200Y-109157350D01*
X165907650Y-109074800D01*
X165226600Y-109073674D01*
X165226600Y-108851459D01*
X165227827Y-108839000D01*
X165222931Y-108789286D01*
X165208429Y-108741482D01*
X165184881Y-108697426D01*
X165153190Y-108658810D01*
X165114574Y-108627119D01*
X165070518Y-108603571D01*
X165022714Y-108589069D01*
X164985459Y-108585400D01*
X164973000Y-108584173D01*
X164960541Y-108585400D01*
X160921459Y-108585400D01*
X160909000Y-108584173D01*
X160896541Y-108585400D01*
X160859286Y-108589069D01*
X160811482Y-108603571D01*
X160767426Y-108627119D01*
X160728810Y-108658810D01*
X160697119Y-108697426D01*
X160673571Y-108741482D01*
X160659069Y-108789286D01*
X160654173Y-108839000D01*
X160655400Y-108851459D01*
X160655400Y-109175294D01*
X158741000Y-109175294D01*
X158696187Y-109179708D01*
X158653095Y-109192779D01*
X158613382Y-109214006D01*
X158578573Y-109242573D01*
X158550006Y-109277382D01*
X158528779Y-109317095D01*
X158515708Y-109360187D01*
X158511294Y-109405000D01*
X158511294Y-109625000D01*
X158515708Y-109669813D01*
X158528779Y-109712905D01*
X158550006Y-109752618D01*
X158578573Y-109787427D01*
X158613382Y-109815994D01*
X158653095Y-109837221D01*
X158662257Y-109840000D01*
X158653095Y-109842779D01*
X158613382Y-109864006D01*
X158578573Y-109892573D01*
X158550006Y-109927382D01*
X158528779Y-109967095D01*
X158515708Y-110010187D01*
X158511294Y-110055000D01*
X158511294Y-110275000D01*
X158515708Y-110319813D01*
X158528779Y-110362905D01*
X158550006Y-110402618D01*
X158578573Y-110437427D01*
X158613382Y-110465994D01*
X158653095Y-110487221D01*
X158662257Y-110490000D01*
X158653095Y-110492779D01*
X158613382Y-110514006D01*
X158578573Y-110542573D01*
X158550006Y-110577382D01*
X158528779Y-110617095D01*
X158515708Y-110660187D01*
X158511294Y-110705000D01*
X158511294Y-110925000D01*
X158515708Y-110969813D01*
X158528779Y-111012905D01*
X158550006Y-111052618D01*
X158578573Y-111087427D01*
X158613382Y-111115994D01*
X158653095Y-111137221D01*
X158662257Y-111140000D01*
X158653095Y-111142779D01*
X158620503Y-111160200D01*
X158073252Y-111160200D01*
X157530800Y-110617749D01*
X157530800Y-108254800D01*
X157808691Y-108254800D01*
X157812031Y-108288709D01*
X157837906Y-108374008D01*
X157879926Y-108452621D01*
X157936474Y-108521526D01*
X158005379Y-108578074D01*
X158083992Y-108620094D01*
X158169291Y-108645969D01*
X158258000Y-108654706D01*
X158708000Y-108654706D01*
X158796709Y-108645969D01*
X158882008Y-108620094D01*
X158960621Y-108578074D01*
X159029526Y-108521526D01*
X159086074Y-108452621D01*
X159100837Y-108425000D01*
X159251202Y-108425000D01*
X159257577Y-108489731D01*
X159276459Y-108551974D01*
X159307120Y-108609337D01*
X159348383Y-108659617D01*
X159398663Y-108700880D01*
X159456026Y-108731541D01*
X159518269Y-108750423D01*
X159583000Y-108756798D01*
X159899650Y-108755200D01*
X159982200Y-108672650D01*
X159982200Y-108000800D01*
X160083800Y-108000800D01*
X160083800Y-108672650D01*
X160166350Y-108755200D01*
X160483000Y-108756798D01*
X160547731Y-108750423D01*
X160609974Y-108731541D01*
X160667337Y-108700880D01*
X160717617Y-108659617D01*
X160758880Y-108609337D01*
X160789541Y-108551974D01*
X160808423Y-108489731D01*
X160814798Y-108425000D01*
X160813200Y-108083350D01*
X160730650Y-108000800D01*
X160083800Y-108000800D01*
X159982200Y-108000800D01*
X159335350Y-108000800D01*
X159252800Y-108083350D01*
X159251202Y-108425000D01*
X159100837Y-108425000D01*
X159128094Y-108374008D01*
X159153969Y-108288709D01*
X159162706Y-108200000D01*
X159162706Y-107700000D01*
X159153969Y-107611291D01*
X159128094Y-107525992D01*
X159100838Y-107475000D01*
X159251202Y-107475000D01*
X159252800Y-107816650D01*
X159335350Y-107899200D01*
X159982200Y-107899200D01*
X159982200Y-107227350D01*
X160083800Y-107227350D01*
X160083800Y-107899200D01*
X160730650Y-107899200D01*
X160813200Y-107816650D01*
X160814798Y-107475000D01*
X160808423Y-107410269D01*
X160789541Y-107348026D01*
X160758880Y-107290663D01*
X160717617Y-107240383D01*
X160667337Y-107199120D01*
X160609974Y-107168459D01*
X160547731Y-107149577D01*
X160483000Y-107143202D01*
X160166350Y-107144800D01*
X160083800Y-107227350D01*
X159982200Y-107227350D01*
X159899650Y-107144800D01*
X159583000Y-107143202D01*
X159518269Y-107149577D01*
X159456026Y-107168459D01*
X159398663Y-107199120D01*
X159348383Y-107240383D01*
X159307120Y-107290663D01*
X159276459Y-107348026D01*
X159257577Y-107410269D01*
X159251202Y-107475000D01*
X159100838Y-107475000D01*
X159086074Y-107447379D01*
X159029526Y-107378474D01*
X158960621Y-107321926D01*
X158882008Y-107279906D01*
X158796709Y-107254031D01*
X158708000Y-107245294D01*
X158258000Y-107245294D01*
X158169291Y-107254031D01*
X158083992Y-107279906D01*
X158005379Y-107321926D01*
X157936474Y-107378474D01*
X157879926Y-107447379D01*
X157837906Y-107525992D01*
X157812031Y-107611291D01*
X157808691Y-107645200D01*
X157530800Y-107645200D01*
X157530800Y-106094041D01*
X157584369Y-106083386D01*
X157807960Y-105990771D01*
X158009187Y-105856316D01*
X158041537Y-105823966D01*
X159931876Y-105823966D01*
X160038011Y-106012439D01*
X160268942Y-106136248D01*
X160519590Y-106212625D01*
X160780323Y-106238635D01*
X161041120Y-106213279D01*
X161291959Y-106137531D01*
X161523201Y-106014303D01*
X161525989Y-106012439D01*
X161632124Y-105823966D01*
X160782000Y-104973842D01*
X159931876Y-105823966D01*
X158041537Y-105823966D01*
X158180316Y-105685187D01*
X158314771Y-105483960D01*
X158407386Y-105260369D01*
X158454600Y-105023007D01*
X158454600Y-104900323D01*
X159445365Y-104900323D01*
X159470721Y-105161120D01*
X159546469Y-105411959D01*
X159669697Y-105643201D01*
X159671561Y-105645989D01*
X159860034Y-105752124D01*
X160710158Y-104902000D01*
X160853842Y-104902000D01*
X161703966Y-105752124D01*
X161892439Y-105645989D01*
X162016248Y-105415058D01*
X162092625Y-105164410D01*
X162118635Y-104903677D01*
X162093279Y-104642880D01*
X162017531Y-104392041D01*
X161894303Y-104160799D01*
X161892439Y-104158011D01*
X161703966Y-104051876D01*
X160853842Y-104902000D01*
X160710158Y-104902000D01*
X159860034Y-104051876D01*
X159671561Y-104158011D01*
X159547752Y-104388942D01*
X159471375Y-104639590D01*
X159445365Y-104900323D01*
X158454600Y-104900323D01*
X158454600Y-104780993D01*
X158407386Y-104543631D01*
X158314771Y-104320040D01*
X158180316Y-104118813D01*
X158041537Y-103980034D01*
X159931876Y-103980034D01*
X160782000Y-104830158D01*
X161632124Y-103980034D01*
X161525989Y-103791561D01*
X161295058Y-103667752D01*
X161044410Y-103591375D01*
X160783677Y-103565365D01*
X160522880Y-103590721D01*
X160272041Y-103666469D01*
X160040799Y-103789697D01*
X160038011Y-103791561D01*
X159931876Y-103980034D01*
X158041537Y-103980034D01*
X158009187Y-103947684D01*
X157807960Y-103813229D01*
X157584369Y-103720614D01*
X157347007Y-103673400D01*
X157104993Y-103673400D01*
X156867631Y-103720614D01*
X156644040Y-103813229D01*
X156442813Y-103947684D01*
X156271684Y-104118813D01*
X156137229Y-104320040D01*
X156044614Y-104543631D01*
X155997400Y-104780993D01*
X154964600Y-104780993D01*
X154964600Y-98819687D01*
X154965948Y-98806000D01*
X154960569Y-98751385D01*
X154944638Y-98698869D01*
X154918768Y-98650469D01*
X154883953Y-98608047D01*
X154841531Y-98573232D01*
X154801809Y-98552000D01*
X160248052Y-98552000D01*
X160249401Y-98565697D01*
X160249400Y-102602313D01*
X160248052Y-102616000D01*
X160253431Y-102670615D01*
X160269362Y-102723131D01*
X160295232Y-102771531D01*
X160330047Y-102813953D01*
X160372469Y-102848768D01*
X160420869Y-102874638D01*
X160473385Y-102890569D01*
X160528000Y-102895948D01*
X160541686Y-102894600D01*
X164578314Y-102894600D01*
X164592000Y-102895948D01*
X164646615Y-102890569D01*
X164699131Y-102874638D01*
X164747531Y-102848768D01*
X164789953Y-102813953D01*
X164824768Y-102771531D01*
X164850638Y-102723131D01*
X164866569Y-102670615D01*
X164870600Y-102629687D01*
X164870600Y-102629686D01*
X164871948Y-102616000D01*
X164870600Y-102602313D01*
X164870600Y-98806000D01*
X171170052Y-98806000D01*
X171171401Y-98819697D01*
X171171400Y-106158313D01*
X171170052Y-106172000D01*
X171175431Y-106226615D01*
X171191362Y-106279131D01*
X171217232Y-106327531D01*
X171252047Y-106369953D01*
X171294469Y-106404768D01*
X171342869Y-106430638D01*
X171395385Y-106446569D01*
X171450000Y-106451948D01*
X171463686Y-106450600D01*
X175246314Y-106450600D01*
X175260000Y-106451948D01*
X175314615Y-106446569D01*
X175367131Y-106430638D01*
X175415531Y-106404768D01*
X175457953Y-106369953D01*
X175492768Y-106327531D01*
X175518638Y-106279131D01*
X175534569Y-106226615D01*
X175538600Y-106185687D01*
X175538600Y-106185686D01*
X175539948Y-106172000D01*
X175538600Y-106158313D01*
X175538600Y-98819687D01*
X175539948Y-98806000D01*
X175534569Y-98751385D01*
X175518638Y-98698869D01*
X175492768Y-98650469D01*
X175457953Y-98608047D01*
X175415531Y-98573232D01*
X175367131Y-98547362D01*
X175314615Y-98531431D01*
X175273687Y-98527400D01*
X175273686Y-98527400D01*
X175260000Y-98526052D01*
X175246313Y-98527400D01*
X171463687Y-98527400D01*
X171450000Y-98526052D01*
X171436314Y-98527400D01*
X171436313Y-98527400D01*
X171395385Y-98531431D01*
X171342869Y-98547362D01*
X171294469Y-98573232D01*
X171252047Y-98608047D01*
X171217232Y-98650469D01*
X171191362Y-98698869D01*
X171175431Y-98751385D01*
X171170052Y-98806000D01*
X164870600Y-98806000D01*
X164870600Y-98565687D01*
X164871948Y-98552000D01*
X164866569Y-98497385D01*
X164850638Y-98444869D01*
X164824768Y-98396469D01*
X164789953Y-98354047D01*
X164747531Y-98319232D01*
X164699131Y-98293362D01*
X164646615Y-98277431D01*
X164605687Y-98273400D01*
X164605686Y-98273400D01*
X164592000Y-98272052D01*
X164578313Y-98273400D01*
X160541687Y-98273400D01*
X160528000Y-98272052D01*
X160514314Y-98273400D01*
X160514313Y-98273400D01*
X160473385Y-98277431D01*
X160420869Y-98293362D01*
X160372469Y-98319232D01*
X160330047Y-98354047D01*
X160295232Y-98396469D01*
X160269362Y-98444869D01*
X160253431Y-98497385D01*
X160248052Y-98552000D01*
X154801809Y-98552000D01*
X154793131Y-98547362D01*
X154740615Y-98531431D01*
X154699687Y-98527400D01*
X154699686Y-98527400D01*
X154686000Y-98526052D01*
X154672313Y-98527400D01*
X150889687Y-98527400D01*
X150876000Y-98526052D01*
X150862314Y-98527400D01*
X150862313Y-98527400D01*
X150821385Y-98531431D01*
X150768869Y-98547362D01*
X150720469Y-98573232D01*
X150678047Y-98608047D01*
X150643232Y-98650469D01*
X150617362Y-98698869D01*
X150601431Y-98751385D01*
X150596052Y-98806000D01*
X149376600Y-98806000D01*
X149376600Y-98565687D01*
X149377948Y-98552000D01*
X149372569Y-98497385D01*
X149356638Y-98444869D01*
X149330768Y-98396469D01*
X149295953Y-98354047D01*
X149253531Y-98319232D01*
X149205131Y-98293362D01*
X149152615Y-98277431D01*
X149111687Y-98273400D01*
X149111686Y-98273400D01*
X149098000Y-98272052D01*
X149084313Y-98273400D01*
X145301687Y-98273400D01*
X145288000Y-98272052D01*
X145274314Y-98273400D01*
X145274313Y-98273400D01*
X145233385Y-98277431D01*
X145180869Y-98293362D01*
X145132469Y-98319232D01*
X145090047Y-98354047D01*
X145055232Y-98396469D01*
X145029362Y-98444869D01*
X145013431Y-98497385D01*
X145008052Y-98552000D01*
X138708600Y-98552000D01*
X138708600Y-98311687D01*
X138709948Y-98298000D01*
X138704569Y-98243385D01*
X138688638Y-98190869D01*
X138662768Y-98142469D01*
X138627953Y-98100047D01*
X138585531Y-98065232D01*
X138537131Y-98039362D01*
X138484615Y-98023431D01*
X138443687Y-98019400D01*
X138443686Y-98019400D01*
X138430000Y-98018052D01*
X138416313Y-98019400D01*
X134379687Y-98019400D01*
X134366000Y-98018052D01*
X134352314Y-98019400D01*
X134352313Y-98019400D01*
X134311385Y-98023431D01*
X134258869Y-98039362D01*
X134210469Y-98065232D01*
X134168047Y-98100047D01*
X134133232Y-98142469D01*
X134107362Y-98190869D01*
X134091431Y-98243385D01*
X134086052Y-98298000D01*
X128639809Y-98298000D01*
X128631131Y-98293362D01*
X128578615Y-98277431D01*
X128537687Y-98273400D01*
X128537686Y-98273400D01*
X128524000Y-98272052D01*
X128510313Y-98273400D01*
X124727687Y-98273400D01*
X124714000Y-98272052D01*
X124700314Y-98273400D01*
X124700313Y-98273400D01*
X124659385Y-98277431D01*
X124606869Y-98293362D01*
X124558469Y-98319232D01*
X124516047Y-98354047D01*
X124481232Y-98396469D01*
X124455362Y-98444869D01*
X124439431Y-98497385D01*
X124434052Y-98552000D01*
X123560944Y-98552000D01*
X123570124Y-98533640D01*
X124573556Y-97530208D01*
X125063393Y-97162830D01*
X126309044Y-96913700D01*
X146494500Y-96913700D01*
X146507027Y-96912663D01*
X147269027Y-96785663D01*
X147284800Y-96781250D01*
X147919800Y-96527250D01*
X147937220Y-96517460D01*
X148445220Y-96136460D01*
X148460460Y-96121220D01*
X148841460Y-95613220D01*
X148845834Y-95606716D01*
X149226834Y-94971978D01*
X149233229Y-94958479D01*
X149237112Y-94942211D01*
X149364112Y-93925949D01*
X149364700Y-93916500D01*
X149364700Y-88900000D01*
X150342052Y-88900000D01*
X150343401Y-88913697D01*
X150343400Y-96252313D01*
X150342052Y-96266000D01*
X150347431Y-96320615D01*
X150363362Y-96373131D01*
X150384602Y-96412869D01*
X150389232Y-96421531D01*
X150424047Y-96463953D01*
X150466469Y-96498768D01*
X150514869Y-96524638D01*
X150567385Y-96540569D01*
X150622000Y-96545948D01*
X150635686Y-96544600D01*
X154418314Y-96544600D01*
X154432000Y-96545948D01*
X154486615Y-96540569D01*
X154539131Y-96524638D01*
X154587531Y-96498768D01*
X154629953Y-96463953D01*
X154664768Y-96421531D01*
X154690638Y-96373131D01*
X154706569Y-96320615D01*
X154710600Y-96279687D01*
X154710600Y-96279686D01*
X154711948Y-96266000D01*
X154710600Y-96252313D01*
X154710600Y-92202000D01*
X159994052Y-92202000D01*
X159995401Y-92215697D01*
X159995400Y-96506313D01*
X159994052Y-96520000D01*
X159999431Y-96574615D01*
X160015362Y-96627131D01*
X160029945Y-96654414D01*
X160041232Y-96675531D01*
X160076047Y-96717953D01*
X160118469Y-96752768D01*
X160166869Y-96778638D01*
X160219385Y-96794569D01*
X160274000Y-96799948D01*
X160287686Y-96798600D01*
X164578314Y-96798600D01*
X164592000Y-96799948D01*
X164646615Y-96794569D01*
X164699131Y-96778638D01*
X164747531Y-96752768D01*
X164789953Y-96717953D01*
X164824768Y-96675531D01*
X164850638Y-96627131D01*
X164866569Y-96574615D01*
X164870600Y-96533687D01*
X164870600Y-96533686D01*
X164871948Y-96520000D01*
X164870600Y-96506313D01*
X164870600Y-92215687D01*
X164871948Y-92202000D01*
X164866569Y-92147385D01*
X164850638Y-92094869D01*
X164824768Y-92046469D01*
X164789953Y-92004047D01*
X164747531Y-91969232D01*
X164699131Y-91943362D01*
X164646615Y-91927431D01*
X164605687Y-91923400D01*
X164605686Y-91923400D01*
X164592000Y-91922052D01*
X164578313Y-91923400D01*
X160287687Y-91923400D01*
X160274000Y-91922052D01*
X160260314Y-91923400D01*
X160260313Y-91923400D01*
X160219385Y-91927431D01*
X160166869Y-91943362D01*
X160118469Y-91969232D01*
X160076047Y-92004047D01*
X160041232Y-92046469D01*
X160015362Y-92094869D01*
X159999431Y-92147385D01*
X159994052Y-92202000D01*
X154710600Y-92202000D01*
X154710600Y-88913687D01*
X154711948Y-88900000D01*
X170916052Y-88900000D01*
X170917401Y-88913697D01*
X170917400Y-96252313D01*
X170916052Y-96266000D01*
X170921431Y-96320615D01*
X170937362Y-96373131D01*
X170958602Y-96412869D01*
X170963232Y-96421531D01*
X170998047Y-96463953D01*
X171040469Y-96498768D01*
X171088869Y-96524638D01*
X171141385Y-96540569D01*
X171196000Y-96545948D01*
X171209686Y-96544600D01*
X174992314Y-96544600D01*
X175006000Y-96545948D01*
X175060615Y-96540569D01*
X175113131Y-96524638D01*
X175161531Y-96498768D01*
X175203953Y-96463953D01*
X175238768Y-96421531D01*
X175264638Y-96373131D01*
X175280569Y-96320615D01*
X175284600Y-96279687D01*
X175284600Y-96279686D01*
X175285948Y-96266000D01*
X175284600Y-96252313D01*
X175284600Y-88913687D01*
X175285948Y-88900000D01*
X175280569Y-88845385D01*
X175264638Y-88792869D01*
X175238768Y-88744469D01*
X175203953Y-88702047D01*
X175161531Y-88667232D01*
X175113131Y-88641362D01*
X175060615Y-88625431D01*
X175019687Y-88621400D01*
X175019686Y-88621400D01*
X175006000Y-88620052D01*
X174992313Y-88621400D01*
X171209687Y-88621400D01*
X171196000Y-88620052D01*
X171182314Y-88621400D01*
X171182313Y-88621400D01*
X171141385Y-88625431D01*
X171088869Y-88641362D01*
X171040469Y-88667232D01*
X170998047Y-88702047D01*
X170963232Y-88744469D01*
X170937362Y-88792869D01*
X170921431Y-88845385D01*
X170916052Y-88900000D01*
X154711948Y-88900000D01*
X154706569Y-88845385D01*
X154690638Y-88792869D01*
X154664768Y-88744469D01*
X154629953Y-88702047D01*
X154587531Y-88667232D01*
X154539131Y-88641362D01*
X154486615Y-88625431D01*
X154445687Y-88621400D01*
X154445686Y-88621400D01*
X154432000Y-88620052D01*
X154418313Y-88621400D01*
X150635687Y-88621400D01*
X150622000Y-88620052D01*
X150608314Y-88621400D01*
X150608313Y-88621400D01*
X150567385Y-88625431D01*
X150514869Y-88641362D01*
X150466469Y-88667232D01*
X150424047Y-88702047D01*
X150389232Y-88744469D01*
X150363362Y-88792869D01*
X150347431Y-88845385D01*
X150342052Y-88900000D01*
X149364700Y-88900000D01*
X149364700Y-82296000D01*
X150342052Y-82296000D01*
X150343400Y-82309687D01*
X150343400Y-82563686D01*
X150343401Y-82563696D01*
X150343400Y-86346313D01*
X150342052Y-86360000D01*
X150347431Y-86414615D01*
X150363362Y-86467131D01*
X150389232Y-86515531D01*
X150424047Y-86557953D01*
X150466469Y-86592768D01*
X150514869Y-86618638D01*
X150567385Y-86634569D01*
X150622000Y-86639948D01*
X150635686Y-86638600D01*
X154672314Y-86638600D01*
X154686000Y-86639948D01*
X154740615Y-86634569D01*
X154793131Y-86618638D01*
X154841531Y-86592768D01*
X154883953Y-86557953D01*
X154918768Y-86515531D01*
X154944638Y-86467131D01*
X154960569Y-86414615D01*
X154964600Y-86373687D01*
X154964600Y-86373686D01*
X154965948Y-86360000D01*
X154964600Y-86346313D01*
X154964600Y-82309687D01*
X154965948Y-82296000D01*
X154960569Y-82241385D01*
X154944638Y-82188869D01*
X154918768Y-82140469D01*
X154883953Y-82098047D01*
X154841531Y-82063232D01*
X154793131Y-82037362D01*
X154740615Y-82021431D01*
X154699687Y-82017400D01*
X154699686Y-82017400D01*
X154686000Y-82016052D01*
X154672313Y-82017400D01*
X150635687Y-82017400D01*
X150622000Y-82016052D01*
X150608314Y-82017400D01*
X150608313Y-82017400D01*
X150567385Y-82021431D01*
X150514869Y-82037362D01*
X150466469Y-82063232D01*
X150424047Y-82098047D01*
X150389232Y-82140469D01*
X150363362Y-82188869D01*
X150347431Y-82241385D01*
X150342052Y-82296000D01*
X149364700Y-82296000D01*
X149364700Y-73856805D01*
X149489679Y-73106929D01*
X149613079Y-72736730D01*
X149786444Y-72390000D01*
X150342052Y-72390000D01*
X150343401Y-72403697D01*
X150343400Y-79742313D01*
X150342052Y-79756000D01*
X150347431Y-79810615D01*
X150363362Y-79863131D01*
X150370779Y-79877007D01*
X150389232Y-79911531D01*
X150424047Y-79953953D01*
X150466469Y-79988768D01*
X150514869Y-80014638D01*
X150567385Y-80030569D01*
X150622000Y-80035948D01*
X150635686Y-80034600D01*
X154418314Y-80034600D01*
X154432000Y-80035948D01*
X154486615Y-80030569D01*
X154539131Y-80014638D01*
X154587531Y-79988768D01*
X154629953Y-79953953D01*
X154664768Y-79911531D01*
X154690638Y-79863131D01*
X154706569Y-79810615D01*
X154710600Y-79769687D01*
X154710600Y-79769686D01*
X154711948Y-79756000D01*
X154710600Y-79742313D01*
X154710600Y-79634993D01*
X156759400Y-79634993D01*
X156759400Y-79877007D01*
X156806614Y-80114369D01*
X156899229Y-80337960D01*
X157033684Y-80539187D01*
X157204813Y-80710316D01*
X157406040Y-80844771D01*
X157629631Y-80937386D01*
X157683201Y-80948042D01*
X157683201Y-81469878D01*
X157682474Y-81470474D01*
X157625926Y-81539379D01*
X157583906Y-81617992D01*
X157558031Y-81703291D01*
X157549294Y-81792000D01*
X157549294Y-82292000D01*
X157558031Y-82380709D01*
X157583906Y-82466008D01*
X157625926Y-82544621D01*
X157682474Y-82613526D01*
X157751379Y-82670074D01*
X157829992Y-82712094D01*
X157915291Y-82737969D01*
X157924201Y-82738847D01*
X157924200Y-84046042D01*
X157922727Y-84061000D01*
X157924200Y-84075958D01*
X157924200Y-84075965D01*
X157928611Y-84120750D01*
X157946040Y-84178205D01*
X157974342Y-84231156D01*
X158012432Y-84277568D01*
X158024061Y-84287112D01*
X158512534Y-84775585D01*
X158515708Y-84807813D01*
X158528779Y-84850905D01*
X158550006Y-84890618D01*
X158578573Y-84925427D01*
X158613382Y-84953994D01*
X158653095Y-84975221D01*
X158662257Y-84978000D01*
X158653095Y-84980779D01*
X158613382Y-85002006D01*
X158578573Y-85030573D01*
X158550006Y-85065382D01*
X158528779Y-85105095D01*
X158515708Y-85148187D01*
X158511294Y-85193000D01*
X158511294Y-85413000D01*
X158515708Y-85457813D01*
X158528779Y-85500905D01*
X158550006Y-85540618D01*
X158578573Y-85575427D01*
X158613382Y-85603994D01*
X158653095Y-85625221D01*
X158696187Y-85638292D01*
X158741000Y-85642706D01*
X160655401Y-85642706D01*
X160655401Y-85966531D01*
X160654173Y-85979000D01*
X160659069Y-86028714D01*
X160673571Y-86076518D01*
X160697119Y-86120574D01*
X160728810Y-86159190D01*
X160767426Y-86190881D01*
X160811482Y-86214429D01*
X160859286Y-86228931D01*
X160896541Y-86232600D01*
X160909000Y-86233827D01*
X160921459Y-86232600D01*
X164960541Y-86232600D01*
X164973000Y-86233827D01*
X164985459Y-86232600D01*
X165022714Y-86228931D01*
X165070518Y-86214429D01*
X165114574Y-86190881D01*
X165153190Y-86159190D01*
X165184881Y-86120574D01*
X165208429Y-86076518D01*
X165222931Y-86028714D01*
X165227827Y-85979000D01*
X165226600Y-85966541D01*
X165226600Y-85642706D01*
X167141000Y-85642706D01*
X167185813Y-85638292D01*
X167228905Y-85625221D01*
X167261497Y-85607800D01*
X167278442Y-85607800D01*
X167293400Y-85609273D01*
X167308358Y-85607800D01*
X167308366Y-85607800D01*
X167353151Y-85603389D01*
X167410606Y-85585960D01*
X167463557Y-85557658D01*
X167509968Y-85519568D01*
X167519512Y-85507939D01*
X168403755Y-84623697D01*
X168415378Y-84614158D01*
X168453468Y-84567747D01*
X168481770Y-84514796D01*
X168499199Y-84457341D01*
X168503610Y-84412556D01*
X168503610Y-84412549D01*
X168505083Y-84397591D01*
X168503610Y-84382633D01*
X168503610Y-82296000D01*
X170662052Y-82296000D01*
X170663400Y-82309687D01*
X170663401Y-86346303D01*
X170662052Y-86360000D01*
X170667431Y-86414615D01*
X170683362Y-86467131D01*
X170709232Y-86515531D01*
X170744047Y-86557953D01*
X170786469Y-86592768D01*
X170834869Y-86618638D01*
X170887385Y-86634569D01*
X170928313Y-86638600D01*
X170928314Y-86638600D01*
X170942000Y-86639948D01*
X170955687Y-86638600D01*
X174992313Y-86638600D01*
X175006000Y-86639948D01*
X175019686Y-86638600D01*
X175019687Y-86638600D01*
X175060615Y-86634569D01*
X175113131Y-86618638D01*
X175161531Y-86592768D01*
X175203953Y-86557953D01*
X175238768Y-86515531D01*
X175264638Y-86467131D01*
X175280569Y-86414615D01*
X175285948Y-86360000D01*
X175284600Y-86346313D01*
X175284600Y-82309687D01*
X175285948Y-82296000D01*
X175280569Y-82241385D01*
X175264638Y-82188869D01*
X175238768Y-82140469D01*
X175203953Y-82098047D01*
X175161531Y-82063232D01*
X175113131Y-82037362D01*
X175060615Y-82021431D01*
X175019687Y-82017400D01*
X175006000Y-82016052D01*
X174992314Y-82017400D01*
X170955686Y-82017400D01*
X170942000Y-82016052D01*
X170928313Y-82017400D01*
X170887385Y-82021431D01*
X170834869Y-82037362D01*
X170786469Y-82063232D01*
X170744047Y-82098047D01*
X170709232Y-82140469D01*
X170683362Y-82188869D01*
X170667431Y-82241385D01*
X170662052Y-82296000D01*
X168503610Y-82296000D01*
X168503610Y-80826296D01*
X168677187Y-80710316D01*
X168848316Y-80539187D01*
X168982771Y-80337960D01*
X169075386Y-80114369D01*
X169122600Y-79877007D01*
X169122600Y-79634993D01*
X169075386Y-79397631D01*
X168982771Y-79174040D01*
X168848316Y-78972813D01*
X168677187Y-78801684D01*
X168475960Y-78667229D01*
X168252369Y-78574614D01*
X168015007Y-78527400D01*
X167772993Y-78527400D01*
X167535631Y-78574614D01*
X167312040Y-78667229D01*
X167110813Y-78801684D01*
X166939684Y-78972813D01*
X166805229Y-79174040D01*
X166712614Y-79397631D01*
X166665400Y-79634993D01*
X166665400Y-79877007D01*
X166712614Y-80114369D01*
X166805229Y-80337960D01*
X166939684Y-80539187D01*
X167110813Y-80710316D01*
X167312040Y-80844771D01*
X167535631Y-80937386D01*
X167772993Y-80984600D01*
X167894011Y-80984600D01*
X167894011Y-81864959D01*
X165820600Y-79791549D01*
X165820600Y-79634993D01*
X165773386Y-79397631D01*
X165680771Y-79174040D01*
X165546316Y-78972813D01*
X165375187Y-78801684D01*
X165173960Y-78667229D01*
X164950369Y-78574614D01*
X164713007Y-78527400D01*
X164470993Y-78527400D01*
X164233631Y-78574614D01*
X164010040Y-78667229D01*
X163808813Y-78801684D01*
X163637684Y-78972813D01*
X163503229Y-79174040D01*
X163410614Y-79397631D01*
X163363400Y-79634993D01*
X163363400Y-79877007D01*
X163410614Y-80114369D01*
X163503229Y-80337960D01*
X163637684Y-80539187D01*
X163808813Y-80710316D01*
X164010040Y-80844771D01*
X164233631Y-80937386D01*
X164470993Y-80984600D01*
X164713007Y-80984600D01*
X164950369Y-80937386D01*
X165173960Y-80844771D01*
X165375187Y-80710316D01*
X165546316Y-80539187D01*
X165610331Y-80443382D01*
X167589201Y-82422253D01*
X167589200Y-83926148D01*
X167367249Y-84148100D01*
X167370706Y-84113000D01*
X167370706Y-83893000D01*
X167366292Y-83848187D01*
X167353221Y-83805095D01*
X167331994Y-83765382D01*
X167314881Y-83744529D01*
X167324644Y-83739342D01*
X167375027Y-83698205D01*
X167416416Y-83648029D01*
X167447222Y-83590743D01*
X167466259Y-83528547D01*
X167471200Y-83469350D01*
X167388650Y-83386800D01*
X166091800Y-83386800D01*
X166091800Y-83423800D01*
X165990200Y-83423800D01*
X165990200Y-83386800D01*
X165226600Y-83386800D01*
X165226600Y-83319200D01*
X165990200Y-83319200D01*
X165990200Y-82995350D01*
X166091800Y-82995350D01*
X166091800Y-83319200D01*
X167388650Y-83319200D01*
X167471200Y-83236650D01*
X167466259Y-83177453D01*
X167447222Y-83115257D01*
X167416416Y-83057971D01*
X167375027Y-83007795D01*
X167324644Y-82966658D01*
X167267204Y-82936141D01*
X167204914Y-82917416D01*
X167140167Y-82911203D01*
X166174350Y-82912800D01*
X166091800Y-82995350D01*
X165990200Y-82995350D01*
X165907650Y-82912800D01*
X165226600Y-82911674D01*
X165226600Y-82689459D01*
X165227827Y-82677000D01*
X165222931Y-82627286D01*
X165208429Y-82579482D01*
X165184881Y-82535426D01*
X165153190Y-82496810D01*
X165114574Y-82465119D01*
X165070518Y-82441571D01*
X165022714Y-82427069D01*
X164985459Y-82423400D01*
X164973000Y-82422173D01*
X164960541Y-82423400D01*
X160921459Y-82423400D01*
X160909000Y-82422173D01*
X160896541Y-82423400D01*
X160859286Y-82427069D01*
X160811482Y-82441571D01*
X160767426Y-82465119D01*
X160728810Y-82496810D01*
X160697119Y-82535426D01*
X160673571Y-82579482D01*
X160659069Y-82627286D01*
X160654173Y-82677000D01*
X160655400Y-82689459D01*
X160655400Y-82911674D01*
X159974350Y-82912800D01*
X159891800Y-82995350D01*
X159891800Y-83319200D01*
X160655400Y-83319200D01*
X160655400Y-83386800D01*
X159891800Y-83386800D01*
X159891800Y-83969200D01*
X160655400Y-83969200D01*
X160655400Y-84036800D01*
X159891800Y-84036800D01*
X159891800Y-84073800D01*
X159790200Y-84073800D01*
X159790200Y-84036800D01*
X159770200Y-84036800D01*
X159770200Y-83969200D01*
X159790200Y-83969200D01*
X159790200Y-83386800D01*
X159770200Y-83386800D01*
X159770200Y-83319200D01*
X159790200Y-83319200D01*
X159790200Y-82995350D01*
X159707650Y-82912800D01*
X158741833Y-82911203D01*
X158677086Y-82917416D01*
X158614796Y-82936141D01*
X158557356Y-82966658D01*
X158533800Y-82985891D01*
X158533800Y-82738846D01*
X158542709Y-82737969D01*
X158628008Y-82712094D01*
X158706621Y-82670074D01*
X158775526Y-82613526D01*
X158832074Y-82544621D01*
X158846837Y-82517000D01*
X158997202Y-82517000D01*
X159003577Y-82581731D01*
X159022459Y-82643974D01*
X159053120Y-82701337D01*
X159094383Y-82751617D01*
X159144663Y-82792880D01*
X159202026Y-82823541D01*
X159264269Y-82842423D01*
X159329000Y-82848798D01*
X159645650Y-82847200D01*
X159728200Y-82764650D01*
X159728200Y-82092800D01*
X159829800Y-82092800D01*
X159829800Y-82764650D01*
X159912350Y-82847200D01*
X160229000Y-82848798D01*
X160293731Y-82842423D01*
X160355974Y-82823541D01*
X160413337Y-82792880D01*
X160463617Y-82751617D01*
X160504880Y-82701337D01*
X160535541Y-82643974D01*
X160554423Y-82581731D01*
X160560798Y-82517000D01*
X160559200Y-82175350D01*
X160476650Y-82092800D01*
X159829800Y-82092800D01*
X159728200Y-82092800D01*
X159081350Y-82092800D01*
X158998800Y-82175350D01*
X158997202Y-82517000D01*
X158846837Y-82517000D01*
X158874094Y-82466008D01*
X158899969Y-82380709D01*
X158908706Y-82292000D01*
X158908706Y-81792000D01*
X158899969Y-81703291D01*
X158874094Y-81617992D01*
X158846838Y-81567000D01*
X158997202Y-81567000D01*
X158998800Y-81908650D01*
X159081350Y-81991200D01*
X159728200Y-81991200D01*
X159728200Y-81319350D01*
X159829800Y-81319350D01*
X159829800Y-81991200D01*
X160476650Y-81991200D01*
X160559200Y-81908650D01*
X160560798Y-81567000D01*
X160554423Y-81502269D01*
X160535541Y-81440026D01*
X160504880Y-81382663D01*
X160463617Y-81332383D01*
X160413337Y-81291120D01*
X160355974Y-81260459D01*
X160293731Y-81241577D01*
X160229000Y-81235202D01*
X159912350Y-81236800D01*
X159829800Y-81319350D01*
X159728200Y-81319350D01*
X159645650Y-81236800D01*
X159329000Y-81235202D01*
X159264269Y-81241577D01*
X159202026Y-81260459D01*
X159144663Y-81291120D01*
X159094383Y-81332383D01*
X159053120Y-81382663D01*
X159022459Y-81440026D01*
X159003577Y-81502269D01*
X158997202Y-81567000D01*
X158846838Y-81567000D01*
X158832074Y-81539379D01*
X158775526Y-81470474D01*
X158706621Y-81413926D01*
X158628008Y-81371906D01*
X158542709Y-81346031D01*
X158454000Y-81337294D01*
X158292800Y-81337294D01*
X158292800Y-80948041D01*
X158346369Y-80937386D01*
X158569960Y-80844771D01*
X158771187Y-80710316D01*
X158803537Y-80677966D01*
X160439876Y-80677966D01*
X160546011Y-80866439D01*
X160776942Y-80990248D01*
X161027590Y-81066625D01*
X161288323Y-81092635D01*
X161549120Y-81067279D01*
X161799959Y-80991531D01*
X162031201Y-80868303D01*
X162033989Y-80866439D01*
X162140124Y-80677966D01*
X161290000Y-79827842D01*
X160439876Y-80677966D01*
X158803537Y-80677966D01*
X158942316Y-80539187D01*
X159076771Y-80337960D01*
X159169386Y-80114369D01*
X159216600Y-79877007D01*
X159216600Y-79754323D01*
X159953365Y-79754323D01*
X159978721Y-80015120D01*
X160054469Y-80265959D01*
X160177697Y-80497201D01*
X160179561Y-80499989D01*
X160368034Y-80606124D01*
X161218158Y-79756000D01*
X161361842Y-79756000D01*
X162211966Y-80606124D01*
X162400439Y-80499989D01*
X162524248Y-80269058D01*
X162600625Y-80018410D01*
X162626635Y-79757677D01*
X162601279Y-79496880D01*
X162525531Y-79246041D01*
X162402303Y-79014799D01*
X162400439Y-79012011D01*
X162211966Y-78905876D01*
X161361842Y-79756000D01*
X161218158Y-79756000D01*
X160368034Y-78905876D01*
X160179561Y-79012011D01*
X160055752Y-79242942D01*
X159979375Y-79493590D01*
X159953365Y-79754323D01*
X159216600Y-79754323D01*
X159216600Y-79634993D01*
X159169386Y-79397631D01*
X159076771Y-79174040D01*
X158942316Y-78972813D01*
X158803537Y-78834034D01*
X160439876Y-78834034D01*
X161290000Y-79684158D01*
X162140124Y-78834034D01*
X162033989Y-78645561D01*
X161803058Y-78521752D01*
X161552410Y-78445375D01*
X161291677Y-78419365D01*
X161030880Y-78444721D01*
X160780041Y-78520469D01*
X160548799Y-78643697D01*
X160546011Y-78645561D01*
X160439876Y-78834034D01*
X158803537Y-78834034D01*
X158771187Y-78801684D01*
X158569960Y-78667229D01*
X158346369Y-78574614D01*
X158109007Y-78527400D01*
X157866993Y-78527400D01*
X157629631Y-78574614D01*
X157406040Y-78667229D01*
X157204813Y-78801684D01*
X157033684Y-78972813D01*
X156899229Y-79174040D01*
X156806614Y-79397631D01*
X156759400Y-79634993D01*
X154710600Y-79634993D01*
X154710600Y-72403687D01*
X154711948Y-72390000D01*
X154706569Y-72335385D01*
X154690638Y-72282869D01*
X154664768Y-72234469D01*
X154629953Y-72192047D01*
X154587531Y-72157232D01*
X154547809Y-72136000D01*
X159994052Y-72136000D01*
X159995401Y-72149697D01*
X159995400Y-76186313D01*
X159994052Y-76200000D01*
X159999431Y-76254615D01*
X160015362Y-76307131D01*
X160041232Y-76355531D01*
X160076047Y-76397953D01*
X160118469Y-76432768D01*
X160166869Y-76458638D01*
X160219385Y-76474569D01*
X160274000Y-76479948D01*
X160287686Y-76478600D01*
X164324314Y-76478600D01*
X164338000Y-76479948D01*
X164392615Y-76474569D01*
X164445131Y-76458638D01*
X164493531Y-76432768D01*
X164535953Y-76397953D01*
X164570768Y-76355531D01*
X164596638Y-76307131D01*
X164612569Y-76254615D01*
X164616600Y-76213687D01*
X164616600Y-76213686D01*
X164617948Y-76200000D01*
X164616600Y-76186313D01*
X164616600Y-72390000D01*
X170916052Y-72390000D01*
X170917401Y-72403697D01*
X170917400Y-79742313D01*
X170916052Y-79756000D01*
X170921431Y-79810615D01*
X170937362Y-79863131D01*
X170944779Y-79877007D01*
X170963232Y-79911531D01*
X170998047Y-79953953D01*
X171040469Y-79988768D01*
X171088869Y-80014638D01*
X171141385Y-80030569D01*
X171196000Y-80035948D01*
X171209686Y-80034600D01*
X174992314Y-80034600D01*
X175006000Y-80035948D01*
X175060615Y-80030569D01*
X175113131Y-80014638D01*
X175161531Y-79988768D01*
X175203953Y-79953953D01*
X175238768Y-79911531D01*
X175264638Y-79863131D01*
X175280569Y-79810615D01*
X175284600Y-79769687D01*
X175284600Y-79769686D01*
X175285948Y-79756000D01*
X175284600Y-79742313D01*
X175284600Y-72403687D01*
X175285948Y-72390000D01*
X175280569Y-72335385D01*
X175264638Y-72282869D01*
X175238768Y-72234469D01*
X175203953Y-72192047D01*
X175161531Y-72157232D01*
X175113131Y-72131362D01*
X175060615Y-72115431D01*
X175019687Y-72111400D01*
X175019686Y-72111400D01*
X175006000Y-72110052D01*
X174992313Y-72111400D01*
X171209687Y-72111400D01*
X171196000Y-72110052D01*
X171182314Y-72111400D01*
X171182313Y-72111400D01*
X171141385Y-72115431D01*
X171088869Y-72131362D01*
X171040469Y-72157232D01*
X170998047Y-72192047D01*
X170963232Y-72234469D01*
X170937362Y-72282869D01*
X170921431Y-72335385D01*
X170916052Y-72390000D01*
X164616600Y-72390000D01*
X164616600Y-72149687D01*
X164617948Y-72136000D01*
X164612569Y-72081385D01*
X164596638Y-72028869D01*
X164570768Y-71980469D01*
X164535953Y-71938047D01*
X164493531Y-71903232D01*
X164445131Y-71877362D01*
X164392615Y-71861431D01*
X164351687Y-71857400D01*
X164351686Y-71857400D01*
X164338000Y-71856052D01*
X164324313Y-71857400D01*
X160287687Y-71857400D01*
X160274000Y-71856052D01*
X160260314Y-71857400D01*
X160260313Y-71857400D01*
X160219385Y-71861431D01*
X160166869Y-71877362D01*
X160118469Y-71903232D01*
X160076047Y-71938047D01*
X160041232Y-71980469D01*
X160015362Y-72028869D01*
X159999431Y-72081385D01*
X159994052Y-72136000D01*
X154547809Y-72136000D01*
X154539131Y-72131362D01*
X154486615Y-72115431D01*
X154445687Y-72111400D01*
X154445686Y-72111400D01*
X154432000Y-72110052D01*
X154418313Y-72111400D01*
X150635687Y-72111400D01*
X150622000Y-72110052D01*
X150608314Y-72111400D01*
X150608313Y-72111400D01*
X150567385Y-72115431D01*
X150514869Y-72131362D01*
X150466469Y-72157232D01*
X150424047Y-72192047D01*
X150389232Y-72234469D01*
X150363362Y-72282869D01*
X150347431Y-72335385D01*
X150342052Y-72390000D01*
X149786444Y-72390000D01*
X149862534Y-72237820D01*
X150109508Y-71867359D01*
X150359385Y-71622306D01*
X150852887Y-71248501D01*
X151347095Y-71001397D01*
X151837897Y-70878696D01*
X152717477Y-70878322D01*
X173791696Y-70869339D01*
X175039543Y-71128109D01*
%TA.AperFunction,Conductor*%
D13*
G36*
X175039543Y-71128109D02*
G01*
X175776552Y-71619448D01*
X176267736Y-72356226D01*
X176517300Y-73604013D01*
X176517300Y-121336133D01*
X176268917Y-122081283D01*
X176017648Y-122584391D01*
X175772407Y-123074317D01*
X174284749Y-124066300D01*
X126309044Y-124066300D01*
X125061225Y-123816736D01*
X124318050Y-123321286D01*
X123826441Y-122829677D01*
X123329700Y-121587825D01*
X123329700Y-115062000D01*
X124434052Y-115062000D01*
X124435401Y-115075697D01*
X124435400Y-122414313D01*
X124434052Y-122428000D01*
X124439431Y-122482615D01*
X124455362Y-122535131D01*
X124468002Y-122558779D01*
X124481232Y-122583531D01*
X124516047Y-122625953D01*
X124558469Y-122660768D01*
X124606869Y-122686638D01*
X124659385Y-122702569D01*
X124714000Y-122707948D01*
X124727686Y-122706600D01*
X128510314Y-122706600D01*
X128524000Y-122707948D01*
X128578615Y-122702569D01*
X128631131Y-122686638D01*
X128679531Y-122660768D01*
X128721953Y-122625953D01*
X128756768Y-122583531D01*
X128782638Y-122535131D01*
X128798569Y-122482615D01*
X128802600Y-122441687D01*
X128802600Y-122441686D01*
X128803948Y-122428000D01*
X128802600Y-122414313D01*
X128802600Y-118364000D01*
X134086052Y-118364000D01*
X134087401Y-118377697D01*
X134087400Y-122668313D01*
X134086052Y-122682000D01*
X134091431Y-122736615D01*
X134107362Y-122789131D01*
X134121708Y-122815971D01*
X134133232Y-122837531D01*
X134168047Y-122879953D01*
X134210469Y-122914768D01*
X134258869Y-122940638D01*
X134311385Y-122956569D01*
X134366000Y-122961948D01*
X134379686Y-122960600D01*
X138670314Y-122960600D01*
X138684000Y-122961948D01*
X138738615Y-122956569D01*
X138791131Y-122940638D01*
X138839531Y-122914768D01*
X138881953Y-122879953D01*
X138916768Y-122837531D01*
X138942638Y-122789131D01*
X138958569Y-122736615D01*
X138962600Y-122695687D01*
X138962600Y-122695686D01*
X138963948Y-122682000D01*
X138962600Y-122668313D01*
X138962600Y-118377687D01*
X138963948Y-118364000D01*
X138958569Y-118309385D01*
X138942638Y-118256869D01*
X138916768Y-118208469D01*
X138881953Y-118166047D01*
X138839531Y-118131232D01*
X138791131Y-118105362D01*
X138738615Y-118089431D01*
X138697687Y-118085400D01*
X138697686Y-118085400D01*
X138684000Y-118084052D01*
X138670313Y-118085400D01*
X134379687Y-118085400D01*
X134366000Y-118084052D01*
X134352314Y-118085400D01*
X134352313Y-118085400D01*
X134311385Y-118089431D01*
X134258869Y-118105362D01*
X134210469Y-118131232D01*
X134168047Y-118166047D01*
X134133232Y-118208469D01*
X134107362Y-118256869D01*
X134091431Y-118309385D01*
X134086052Y-118364000D01*
X128802600Y-118364000D01*
X128802600Y-115075687D01*
X128803948Y-115062000D01*
X145008052Y-115062000D01*
X145009401Y-115075697D01*
X145009400Y-122414313D01*
X145008052Y-122428000D01*
X145013431Y-122482615D01*
X145029362Y-122535131D01*
X145042002Y-122558779D01*
X145055232Y-122583531D01*
X145090047Y-122625953D01*
X145132469Y-122660768D01*
X145180869Y-122686638D01*
X145233385Y-122702569D01*
X145288000Y-122707948D01*
X145301686Y-122706600D01*
X149084314Y-122706600D01*
X149098000Y-122707948D01*
X149152615Y-122702569D01*
X149205131Y-122686638D01*
X149253531Y-122660768D01*
X149295953Y-122625953D01*
X149330768Y-122583531D01*
X149356638Y-122535131D01*
X149372569Y-122482615D01*
X149376600Y-122441687D01*
X149376600Y-122441686D01*
X149377948Y-122428000D01*
X149376600Y-122414313D01*
X149376600Y-115316000D01*
X150596052Y-115316000D01*
X150597401Y-115329697D01*
X150597400Y-122668313D01*
X150596052Y-122682000D01*
X150601431Y-122736615D01*
X150617362Y-122789131D01*
X150631708Y-122815971D01*
X150643232Y-122837531D01*
X150678047Y-122879953D01*
X150720469Y-122914768D01*
X150768869Y-122940638D01*
X150821385Y-122956569D01*
X150876000Y-122961948D01*
X150889686Y-122960600D01*
X154672314Y-122960600D01*
X154686000Y-122961948D01*
X154740615Y-122956569D01*
X154793131Y-122940638D01*
X154841531Y-122914768D01*
X154883953Y-122879953D01*
X154918768Y-122837531D01*
X154944638Y-122789131D01*
X154960569Y-122736615D01*
X154964600Y-122695687D01*
X154964600Y-122695686D01*
X154965948Y-122682000D01*
X154964600Y-122668313D01*
X154964600Y-118618000D01*
X160248052Y-118618000D01*
X160249401Y-118631697D01*
X160249400Y-122922313D01*
X160248052Y-122936000D01*
X160253431Y-122990615D01*
X160269362Y-123043131D01*
X160281486Y-123065813D01*
X160295232Y-123091531D01*
X160330047Y-123133953D01*
X160372469Y-123168768D01*
X160420869Y-123194638D01*
X160473385Y-123210569D01*
X160528000Y-123215948D01*
X160541686Y-123214600D01*
X164832314Y-123214600D01*
X164846000Y-123215948D01*
X164900615Y-123210569D01*
X164953131Y-123194638D01*
X165001531Y-123168768D01*
X165043953Y-123133953D01*
X165078768Y-123091531D01*
X165104638Y-123043131D01*
X165120569Y-122990615D01*
X165124600Y-122949687D01*
X165124600Y-122949686D01*
X165125948Y-122936000D01*
X165124600Y-122922313D01*
X165124600Y-118631687D01*
X165125948Y-118618000D01*
X165120569Y-118563385D01*
X165104638Y-118510869D01*
X165078768Y-118462469D01*
X165043953Y-118420047D01*
X165001531Y-118385232D01*
X164953131Y-118359362D01*
X164900615Y-118343431D01*
X164859687Y-118339400D01*
X164859686Y-118339400D01*
X164846000Y-118338052D01*
X164832313Y-118339400D01*
X160541687Y-118339400D01*
X160528000Y-118338052D01*
X160514314Y-118339400D01*
X160514313Y-118339400D01*
X160473385Y-118343431D01*
X160420869Y-118359362D01*
X160372469Y-118385232D01*
X160330047Y-118420047D01*
X160295232Y-118462469D01*
X160269362Y-118510869D01*
X160253431Y-118563385D01*
X160248052Y-118618000D01*
X154964600Y-118618000D01*
X154964600Y-115329687D01*
X154965948Y-115316000D01*
X171170052Y-115316000D01*
X171171401Y-115329697D01*
X171171400Y-122668313D01*
X171170052Y-122682000D01*
X171175431Y-122736615D01*
X171191362Y-122789131D01*
X171205708Y-122815971D01*
X171217232Y-122837531D01*
X171252047Y-122879953D01*
X171294469Y-122914768D01*
X171342869Y-122940638D01*
X171395385Y-122956569D01*
X171450000Y-122961948D01*
X171463686Y-122960600D01*
X175246314Y-122960600D01*
X175260000Y-122961948D01*
X175314615Y-122956569D01*
X175367131Y-122940638D01*
X175415531Y-122914768D01*
X175457953Y-122879953D01*
X175492768Y-122837531D01*
X175518638Y-122789131D01*
X175534569Y-122736615D01*
X175538600Y-122695687D01*
X175538600Y-122695686D01*
X175539948Y-122682000D01*
X175538600Y-122668313D01*
X175538600Y-115329687D01*
X175539948Y-115316000D01*
X175534569Y-115261385D01*
X175518638Y-115208869D01*
X175492768Y-115160469D01*
X175457953Y-115118047D01*
X175415531Y-115083232D01*
X175367131Y-115057362D01*
X175314615Y-115041431D01*
X175273687Y-115037400D01*
X175273686Y-115037400D01*
X175260000Y-115036052D01*
X175246313Y-115037400D01*
X171463687Y-115037400D01*
X171450000Y-115036052D01*
X171436314Y-115037400D01*
X171436313Y-115037400D01*
X171395385Y-115041431D01*
X171342869Y-115057362D01*
X171294469Y-115083232D01*
X171252047Y-115118047D01*
X171217232Y-115160469D01*
X171191362Y-115208869D01*
X171175431Y-115261385D01*
X171170052Y-115316000D01*
X154965948Y-115316000D01*
X154960569Y-115261385D01*
X154944638Y-115208869D01*
X154918768Y-115160469D01*
X154883953Y-115118047D01*
X154841531Y-115083232D01*
X154793131Y-115057362D01*
X154740615Y-115041431D01*
X154699687Y-115037400D01*
X154699686Y-115037400D01*
X154686000Y-115036052D01*
X154672313Y-115037400D01*
X150889687Y-115037400D01*
X150876000Y-115036052D01*
X150862314Y-115037400D01*
X150862313Y-115037400D01*
X150821385Y-115041431D01*
X150768869Y-115057362D01*
X150720469Y-115083232D01*
X150678047Y-115118047D01*
X150643232Y-115160469D01*
X150617362Y-115208869D01*
X150601431Y-115261385D01*
X150596052Y-115316000D01*
X149376600Y-115316000D01*
X149376600Y-115075687D01*
X149377948Y-115062000D01*
X149372569Y-115007385D01*
X149356638Y-114954869D01*
X149330768Y-114906469D01*
X149295953Y-114864047D01*
X149253531Y-114829232D01*
X149205131Y-114803362D01*
X149152615Y-114787431D01*
X149111687Y-114783400D01*
X149111686Y-114783400D01*
X149098000Y-114782052D01*
X149084313Y-114783400D01*
X145301687Y-114783400D01*
X145288000Y-114782052D01*
X145274314Y-114783400D01*
X145274313Y-114783400D01*
X145233385Y-114787431D01*
X145180869Y-114803362D01*
X145132469Y-114829232D01*
X145090047Y-114864047D01*
X145055232Y-114906469D01*
X145029362Y-114954869D01*
X145013431Y-115007385D01*
X145008052Y-115062000D01*
X128803948Y-115062000D01*
X128798569Y-115007385D01*
X128782638Y-114954869D01*
X128756768Y-114906469D01*
X128721953Y-114864047D01*
X128679531Y-114829232D01*
X128631131Y-114803362D01*
X128578615Y-114787431D01*
X128537687Y-114783400D01*
X128537686Y-114783400D01*
X128524000Y-114782052D01*
X128510313Y-114783400D01*
X124727687Y-114783400D01*
X124714000Y-114782052D01*
X124700314Y-114783400D01*
X124700313Y-114783400D01*
X124659385Y-114787431D01*
X124606869Y-114803362D01*
X124558469Y-114829232D01*
X124516047Y-114864047D01*
X124481232Y-114906469D01*
X124455362Y-114954869D01*
X124439431Y-115007385D01*
X124434052Y-115062000D01*
X123329700Y-115062000D01*
X123329700Y-108458000D01*
X124434052Y-108458000D01*
X124435400Y-108471687D01*
X124435400Y-108725686D01*
X124435401Y-108725696D01*
X124435400Y-112508313D01*
X124434052Y-112522000D01*
X124439431Y-112576615D01*
X124455362Y-112629131D01*
X124476602Y-112668869D01*
X124481232Y-112677531D01*
X124516047Y-112719953D01*
X124558469Y-112754768D01*
X124606869Y-112780638D01*
X124659385Y-112796569D01*
X124714000Y-112801948D01*
X124727686Y-112800600D01*
X128764314Y-112800600D01*
X128778000Y-112801948D01*
X128832615Y-112796569D01*
X128885131Y-112780638D01*
X128933531Y-112754768D01*
X128975953Y-112719953D01*
X129010768Y-112677531D01*
X129036638Y-112629131D01*
X129052569Y-112576615D01*
X129056600Y-112535687D01*
X129056600Y-112535686D01*
X129057948Y-112522000D01*
X129056600Y-112508313D01*
X129056600Y-108471687D01*
X129057948Y-108458000D01*
X129052569Y-108403385D01*
X129036638Y-108350869D01*
X129010768Y-108302469D01*
X128975953Y-108260047D01*
X128933531Y-108225232D01*
X128885131Y-108199362D01*
X128832615Y-108183431D01*
X128791687Y-108179400D01*
X128791686Y-108179400D01*
X128778000Y-108178052D01*
X128764313Y-108179400D01*
X124727687Y-108179400D01*
X124714000Y-108178052D01*
X124700314Y-108179400D01*
X124700313Y-108179400D01*
X124659385Y-108183431D01*
X124606869Y-108199362D01*
X124558469Y-108225232D01*
X124516047Y-108260047D01*
X124481232Y-108302469D01*
X124455362Y-108350869D01*
X124439431Y-108403385D01*
X124434052Y-108458000D01*
X123329700Y-108458000D01*
X123329700Y-99014488D01*
X123560944Y-98552000D01*
X124434052Y-98552000D01*
X124435401Y-98565697D01*
X124435400Y-105904313D01*
X124434052Y-105918000D01*
X124439431Y-105972615D01*
X124455362Y-106025131D01*
X124476602Y-106064869D01*
X124481232Y-106073531D01*
X124516047Y-106115953D01*
X124558469Y-106150768D01*
X124606869Y-106176638D01*
X124659385Y-106192569D01*
X124714000Y-106197948D01*
X124727686Y-106196600D01*
X128510314Y-106196600D01*
X128524000Y-106197948D01*
X128578615Y-106192569D01*
X128631131Y-106176638D01*
X128679531Y-106150768D01*
X128721953Y-106115953D01*
X128756768Y-106073531D01*
X128782638Y-106025131D01*
X128798569Y-105972615D01*
X128802600Y-105931687D01*
X128802600Y-105931686D01*
X128803948Y-105918000D01*
X128802600Y-105904313D01*
X128802600Y-104780993D01*
X130851400Y-104780993D01*
X130851400Y-105023007D01*
X130898614Y-105260369D01*
X130991229Y-105483960D01*
X131125684Y-105685187D01*
X131296813Y-105856316D01*
X131498040Y-105990771D01*
X131721631Y-106083386D01*
X131775200Y-106094042D01*
X131775201Y-107378873D01*
X131753291Y-107381031D01*
X131667992Y-107406906D01*
X131589379Y-107448926D01*
X131520474Y-107505474D01*
X131463926Y-107574379D01*
X131421906Y-107652992D01*
X131396031Y-107738291D01*
X131387294Y-107827000D01*
X131387294Y-108327000D01*
X131396031Y-108415709D01*
X131421906Y-108501008D01*
X131463926Y-108579621D01*
X131520474Y-108648526D01*
X131589379Y-108705074D01*
X131667992Y-108747094D01*
X131753291Y-108772969D01*
X131762200Y-108773846D01*
X131762201Y-111224032D01*
X131760727Y-111239000D01*
X131766611Y-111298751D01*
X131784040Y-111356205D01*
X131793384Y-111373687D01*
X131812343Y-111409157D01*
X131850433Y-111455568D01*
X131862056Y-111465107D01*
X132130392Y-111733444D01*
X132139932Y-111745068D01*
X132186343Y-111783158D01*
X132219588Y-111800927D01*
X132239294Y-111811460D01*
X132296748Y-111828889D01*
X132301903Y-111829397D01*
X132341534Y-111833300D01*
X132341542Y-111833300D01*
X132356500Y-111834773D01*
X132371458Y-111833300D01*
X132522003Y-111833300D01*
X132554595Y-111850721D01*
X132597687Y-111863792D01*
X132642500Y-111868206D01*
X134556901Y-111868206D01*
X134556901Y-112192031D01*
X134555673Y-112204500D01*
X134560569Y-112254214D01*
X134575071Y-112302018D01*
X134598619Y-112346074D01*
X134630310Y-112384690D01*
X134668926Y-112416381D01*
X134712982Y-112439929D01*
X134760786Y-112454431D01*
X134798041Y-112458100D01*
X134810500Y-112459327D01*
X134822959Y-112458100D01*
X138862041Y-112458100D01*
X138874500Y-112459327D01*
X138886959Y-112458100D01*
X138924214Y-112454431D01*
X138972018Y-112439929D01*
X139016074Y-112416381D01*
X139054690Y-112384690D01*
X139086381Y-112346074D01*
X139109929Y-112302018D01*
X139124431Y-112254214D01*
X139129327Y-112204500D01*
X139128100Y-112192041D01*
X139128100Y-111868206D01*
X141042500Y-111868206D01*
X141087313Y-111863792D01*
X141130405Y-111850721D01*
X141162997Y-111833300D01*
X141179942Y-111833300D01*
X141194900Y-111834773D01*
X141209858Y-111833300D01*
X141209866Y-111833300D01*
X141254651Y-111828889D01*
X141312106Y-111811460D01*
X141365057Y-111783158D01*
X141411468Y-111745068D01*
X141421012Y-111733439D01*
X142495755Y-110658697D01*
X142507378Y-110649158D01*
X142545468Y-110602747D01*
X142573770Y-110549796D01*
X142573770Y-110549795D01*
X142591199Y-110492342D01*
X142592878Y-110475294D01*
X142595610Y-110447556D01*
X142595610Y-110447548D01*
X142597083Y-110432590D01*
X142595610Y-110417632D01*
X142595610Y-108458000D01*
X144754052Y-108458000D01*
X144755400Y-108471687D01*
X144755401Y-112508303D01*
X144754052Y-112522000D01*
X144759431Y-112576615D01*
X144775362Y-112629131D01*
X144801232Y-112677531D01*
X144836047Y-112719953D01*
X144878469Y-112754768D01*
X144926869Y-112780638D01*
X144979385Y-112796569D01*
X145020313Y-112800600D01*
X145020314Y-112800600D01*
X145034000Y-112801948D01*
X145047687Y-112800600D01*
X149084313Y-112800600D01*
X149098000Y-112801948D01*
X149111686Y-112800600D01*
X149111687Y-112800600D01*
X149152615Y-112796569D01*
X149205131Y-112780638D01*
X149253531Y-112754768D01*
X149295953Y-112719953D01*
X149330768Y-112677531D01*
X149356638Y-112629131D01*
X149372569Y-112576615D01*
X149377948Y-112522000D01*
X149376600Y-112508313D01*
X149376600Y-108712000D01*
X150596052Y-108712000D01*
X150597400Y-108725686D01*
X150597400Y-108979686D01*
X150597401Y-108979696D01*
X150597400Y-112762313D01*
X150596052Y-112776000D01*
X150601431Y-112830615D01*
X150617362Y-112883131D01*
X150643232Y-112931531D01*
X150678047Y-112973953D01*
X150720469Y-113008768D01*
X150768869Y-113034638D01*
X150821385Y-113050569D01*
X150876000Y-113055948D01*
X150889686Y-113054600D01*
X154926314Y-113054600D01*
X154940000Y-113055948D01*
X154994615Y-113050569D01*
X155047131Y-113034638D01*
X155095531Y-113008768D01*
X155137953Y-112973953D01*
X155172768Y-112931531D01*
X155198638Y-112883131D01*
X155214569Y-112830615D01*
X155218600Y-112789687D01*
X155218600Y-112789686D01*
X155219948Y-112776000D01*
X155218600Y-112762313D01*
X155218600Y-108725686D01*
X155219948Y-108712000D01*
X155214569Y-108657385D01*
X155198638Y-108604869D01*
X155172768Y-108556469D01*
X155137953Y-108514047D01*
X155095531Y-108479232D01*
X155047131Y-108453362D01*
X154994615Y-108437431D01*
X154953687Y-108433400D01*
X154953686Y-108433400D01*
X154940000Y-108432052D01*
X154926313Y-108433400D01*
X150889687Y-108433400D01*
X150876000Y-108432052D01*
X150862314Y-108433400D01*
X150862313Y-108433400D01*
X150821385Y-108437431D01*
X150768869Y-108453362D01*
X150720469Y-108479232D01*
X150678047Y-108514047D01*
X150643232Y-108556469D01*
X150617362Y-108604869D01*
X150601431Y-108657385D01*
X150596052Y-108712000D01*
X149376600Y-108712000D01*
X149376600Y-108471687D01*
X149377948Y-108458000D01*
X149372569Y-108403385D01*
X149356638Y-108350869D01*
X149330768Y-108302469D01*
X149295953Y-108260047D01*
X149253531Y-108225232D01*
X149205131Y-108199362D01*
X149152615Y-108183431D01*
X149111687Y-108179400D01*
X149098000Y-108178052D01*
X149084314Y-108179400D01*
X145047686Y-108179400D01*
X145034000Y-108178052D01*
X145020313Y-108179400D01*
X144979385Y-108183431D01*
X144926869Y-108199362D01*
X144878469Y-108225232D01*
X144836047Y-108260047D01*
X144801232Y-108302469D01*
X144775362Y-108350869D01*
X144759431Y-108403385D01*
X144754052Y-108458000D01*
X142595610Y-108458000D01*
X142595610Y-106124358D01*
X142626993Y-106130600D01*
X142869007Y-106130600D01*
X143106369Y-106083386D01*
X143329960Y-105990771D01*
X143531187Y-105856316D01*
X143702316Y-105685187D01*
X143836771Y-105483960D01*
X143929386Y-105260369D01*
X143976600Y-105023007D01*
X143976600Y-104780993D01*
X143929386Y-104543631D01*
X143836771Y-104320040D01*
X143702316Y-104118813D01*
X143531187Y-103947684D01*
X143329960Y-103813229D01*
X143106369Y-103720614D01*
X142869007Y-103673400D01*
X142626993Y-103673400D01*
X142389631Y-103720614D01*
X142166040Y-103813229D01*
X141964813Y-103947684D01*
X141793684Y-104118813D01*
X141659229Y-104320040D01*
X141566614Y-104543631D01*
X141519400Y-104780993D01*
X141519400Y-105023007D01*
X141566614Y-105260369D01*
X141659229Y-105483960D01*
X141793684Y-105685187D01*
X141964813Y-105856316D01*
X141986011Y-105870480D01*
X141986011Y-107264959D01*
X140250426Y-105529375D01*
X140280771Y-105483960D01*
X140373386Y-105260369D01*
X140420600Y-105023007D01*
X140420600Y-104780993D01*
X140373386Y-104543631D01*
X140280771Y-104320040D01*
X140146316Y-104118813D01*
X139975187Y-103947684D01*
X139773960Y-103813229D01*
X139550369Y-103720614D01*
X139313007Y-103673400D01*
X139070993Y-103673400D01*
X138833631Y-103720614D01*
X138610040Y-103813229D01*
X138408813Y-103947684D01*
X138237684Y-104118813D01*
X138103229Y-104320040D01*
X138010614Y-104543631D01*
X137963400Y-104780993D01*
X137963400Y-105023007D01*
X138010614Y-105260369D01*
X138103229Y-105483960D01*
X138237684Y-105685187D01*
X138408813Y-105856316D01*
X138610040Y-105990771D01*
X138833631Y-106083386D01*
X139070993Y-106130600D01*
X139313007Y-106130600D01*
X139550369Y-106083386D01*
X139773960Y-105990771D01*
X139819375Y-105960426D01*
X141681201Y-107822253D01*
X141681200Y-110109748D01*
X141217249Y-110573700D01*
X141162997Y-110573700D01*
X141130405Y-110556279D01*
X141121243Y-110553500D01*
X141130405Y-110550721D01*
X141170118Y-110529494D01*
X141204927Y-110500927D01*
X141233494Y-110466118D01*
X141254721Y-110426405D01*
X141267792Y-110383313D01*
X141272206Y-110338500D01*
X141272206Y-110118500D01*
X141267792Y-110073687D01*
X141254721Y-110030595D01*
X141233494Y-109990882D01*
X141216381Y-109970029D01*
X141226144Y-109964842D01*
X141276527Y-109923705D01*
X141317916Y-109873529D01*
X141348722Y-109816243D01*
X141367759Y-109754047D01*
X141372700Y-109694850D01*
X141290150Y-109612300D01*
X139993300Y-109612300D01*
X139993300Y-109649300D01*
X139891700Y-109649300D01*
X139891700Y-109612300D01*
X139128100Y-109612300D01*
X139128100Y-109544700D01*
X139891700Y-109544700D01*
X139891700Y-109220850D01*
X139993300Y-109220850D01*
X139993300Y-109544700D01*
X141290150Y-109544700D01*
X141372700Y-109462150D01*
X141367759Y-109402953D01*
X141348722Y-109340757D01*
X141317916Y-109283471D01*
X141276527Y-109233295D01*
X141226144Y-109192158D01*
X141168704Y-109161641D01*
X141106414Y-109142916D01*
X141041667Y-109136703D01*
X140075850Y-109138300D01*
X139993300Y-109220850D01*
X139891700Y-109220850D01*
X139809150Y-109138300D01*
X139128100Y-109137174D01*
X139128100Y-108914959D01*
X139129327Y-108902500D01*
X139124431Y-108852786D01*
X139109929Y-108804982D01*
X139086381Y-108760926D01*
X139054690Y-108722310D01*
X139016074Y-108690619D01*
X138972018Y-108667071D01*
X138924214Y-108652569D01*
X138886959Y-108648900D01*
X138874500Y-108647673D01*
X138862041Y-108648900D01*
X134822959Y-108648900D01*
X134810500Y-108647673D01*
X134798041Y-108648900D01*
X134760786Y-108652569D01*
X134712982Y-108667071D01*
X134668926Y-108690619D01*
X134630310Y-108722310D01*
X134598619Y-108760926D01*
X134575071Y-108804982D01*
X134560569Y-108852786D01*
X134555673Y-108902500D01*
X134556900Y-108914959D01*
X134556900Y-109137174D01*
X133875850Y-109138300D01*
X133793300Y-109220850D01*
X133793300Y-109544700D01*
X134556900Y-109544700D01*
X134556900Y-109612300D01*
X133793300Y-109612300D01*
X133793300Y-109649300D01*
X133691700Y-109649300D01*
X133691700Y-109612300D01*
X133671700Y-109612300D01*
X133671700Y-109544700D01*
X133691700Y-109544700D01*
X133691700Y-109220850D01*
X133609150Y-109138300D01*
X132643333Y-109136703D01*
X132578586Y-109142916D01*
X132516296Y-109161641D01*
X132458856Y-109192158D01*
X132408473Y-109233295D01*
X132371800Y-109277754D01*
X132371800Y-108773846D01*
X132380709Y-108772969D01*
X132466008Y-108747094D01*
X132544621Y-108705074D01*
X132613526Y-108648526D01*
X132670074Y-108579621D01*
X132684837Y-108552000D01*
X132835202Y-108552000D01*
X132841577Y-108616731D01*
X132860459Y-108678974D01*
X132891120Y-108736337D01*
X132932383Y-108786617D01*
X132982663Y-108827880D01*
X133040026Y-108858541D01*
X133102269Y-108877423D01*
X133167000Y-108883798D01*
X133483650Y-108882200D01*
X133566200Y-108799650D01*
X133566200Y-108127800D01*
X133667800Y-108127800D01*
X133667800Y-108799650D01*
X133750350Y-108882200D01*
X134067000Y-108883798D01*
X134131731Y-108877423D01*
X134193974Y-108858541D01*
X134251337Y-108827880D01*
X134301617Y-108786617D01*
X134342880Y-108736337D01*
X134373541Y-108678974D01*
X134392423Y-108616731D01*
X134398798Y-108552000D01*
X134397200Y-108210350D01*
X134314650Y-108127800D01*
X133667800Y-108127800D01*
X133566200Y-108127800D01*
X132919350Y-108127800D01*
X132836800Y-108210350D01*
X132835202Y-108552000D01*
X132684837Y-108552000D01*
X132712094Y-108501008D01*
X132737969Y-108415709D01*
X132746706Y-108327000D01*
X132746706Y-107827000D01*
X132737969Y-107738291D01*
X132712094Y-107652992D01*
X132684838Y-107602000D01*
X132835202Y-107602000D01*
X132836800Y-107943650D01*
X132919350Y-108026200D01*
X133566200Y-108026200D01*
X133566200Y-107354350D01*
X133667800Y-107354350D01*
X133667800Y-108026200D01*
X134314650Y-108026200D01*
X134397200Y-107943650D01*
X134398798Y-107602000D01*
X134392423Y-107537269D01*
X134373541Y-107475026D01*
X134342880Y-107417663D01*
X134301617Y-107367383D01*
X134251337Y-107326120D01*
X134193974Y-107295459D01*
X134131731Y-107276577D01*
X134067000Y-107270202D01*
X133750350Y-107271800D01*
X133667800Y-107354350D01*
X133566200Y-107354350D01*
X133483650Y-107271800D01*
X133167000Y-107270202D01*
X133102269Y-107276577D01*
X133040026Y-107295459D01*
X132982663Y-107326120D01*
X132932383Y-107367383D01*
X132891120Y-107417663D01*
X132860459Y-107475026D01*
X132841577Y-107537269D01*
X132835202Y-107602000D01*
X132684838Y-107602000D01*
X132670074Y-107574379D01*
X132613526Y-107505474D01*
X132544621Y-107448926D01*
X132466008Y-107406906D01*
X132384800Y-107382272D01*
X132384800Y-106094041D01*
X132438369Y-106083386D01*
X132661960Y-105990771D01*
X132863187Y-105856316D01*
X132895537Y-105823966D01*
X134785876Y-105823966D01*
X134892011Y-106012439D01*
X135122942Y-106136248D01*
X135373590Y-106212625D01*
X135634323Y-106238635D01*
X135895120Y-106213279D01*
X136145959Y-106137531D01*
X136377201Y-106014303D01*
X136379989Y-106012439D01*
X136486124Y-105823966D01*
X135636000Y-104973842D01*
X134785876Y-105823966D01*
X132895537Y-105823966D01*
X133034316Y-105685187D01*
X133168771Y-105483960D01*
X133261386Y-105260369D01*
X133308600Y-105023007D01*
X133308600Y-104900323D01*
X134299365Y-104900323D01*
X134324721Y-105161120D01*
X134400469Y-105411959D01*
X134523697Y-105643201D01*
X134525561Y-105645989D01*
X134714034Y-105752124D01*
X135564158Y-104902000D01*
X135707842Y-104902000D01*
X136557966Y-105752124D01*
X136746439Y-105645989D01*
X136870248Y-105415058D01*
X136946625Y-105164410D01*
X136972635Y-104903677D01*
X136947279Y-104642880D01*
X136871531Y-104392041D01*
X136748303Y-104160799D01*
X136746439Y-104158011D01*
X136557966Y-104051876D01*
X135707842Y-104902000D01*
X135564158Y-104902000D01*
X134714034Y-104051876D01*
X134525561Y-104158011D01*
X134401752Y-104388942D01*
X134325375Y-104639590D01*
X134299365Y-104900323D01*
X133308600Y-104900323D01*
X133308600Y-104780993D01*
X133261386Y-104543631D01*
X133168771Y-104320040D01*
X133034316Y-104118813D01*
X132895537Y-103980034D01*
X134785876Y-103980034D01*
X135636000Y-104830158D01*
X136486124Y-103980034D01*
X136379989Y-103791561D01*
X136149058Y-103667752D01*
X135898410Y-103591375D01*
X135637677Y-103565365D01*
X135376880Y-103590721D01*
X135126041Y-103666469D01*
X134894799Y-103789697D01*
X134892011Y-103791561D01*
X134785876Y-103980034D01*
X132895537Y-103980034D01*
X132863187Y-103947684D01*
X132661960Y-103813229D01*
X132438369Y-103720614D01*
X132201007Y-103673400D01*
X131958993Y-103673400D01*
X131721631Y-103720614D01*
X131498040Y-103813229D01*
X131296813Y-103947684D01*
X131125684Y-104118813D01*
X130991229Y-104320040D01*
X130898614Y-104543631D01*
X130851400Y-104780993D01*
X128802600Y-104780993D01*
X128802600Y-98565687D01*
X128803948Y-98552000D01*
X128798569Y-98497385D01*
X128782638Y-98444869D01*
X128756768Y-98396469D01*
X128721953Y-98354047D01*
X128679531Y-98319232D01*
X128639809Y-98298000D01*
X134086052Y-98298000D01*
X134087401Y-98311697D01*
X134087400Y-102348313D01*
X134086052Y-102362000D01*
X134091431Y-102416615D01*
X134107362Y-102469131D01*
X134128602Y-102508869D01*
X134133232Y-102517531D01*
X134168047Y-102559953D01*
X134210469Y-102594768D01*
X134258869Y-102620638D01*
X134311385Y-102636569D01*
X134366000Y-102641948D01*
X134379686Y-102640600D01*
X138416314Y-102640600D01*
X138430000Y-102641948D01*
X138484615Y-102636569D01*
X138537131Y-102620638D01*
X138585531Y-102594768D01*
X138627953Y-102559953D01*
X138662768Y-102517531D01*
X138688638Y-102469131D01*
X138704569Y-102416615D01*
X138708600Y-102375687D01*
X138708600Y-102375686D01*
X138709948Y-102362000D01*
X138708600Y-102348313D01*
X138708600Y-98552000D01*
X145008052Y-98552000D01*
X145009401Y-98565697D01*
X145009400Y-105904313D01*
X145008052Y-105918000D01*
X145013431Y-105972615D01*
X145029362Y-106025131D01*
X145050602Y-106064869D01*
X145055232Y-106073531D01*
X145090047Y-106115953D01*
X145132469Y-106150768D01*
X145180869Y-106176638D01*
X145233385Y-106192569D01*
X145288000Y-106197948D01*
X145301686Y-106196600D01*
X149084314Y-106196600D01*
X149098000Y-106197948D01*
X149152615Y-106192569D01*
X149205131Y-106176638D01*
X149253531Y-106150768D01*
X149295953Y-106115953D01*
X149330768Y-106073531D01*
X149356638Y-106025131D01*
X149372569Y-105972615D01*
X149376600Y-105931687D01*
X149376600Y-105931686D01*
X149377948Y-105918000D01*
X149376600Y-105904313D01*
X149376600Y-98806000D01*
X150596052Y-98806000D01*
X150597401Y-98819697D01*
X150597400Y-106158313D01*
X150596052Y-106172000D01*
X150601431Y-106226615D01*
X150617362Y-106279131D01*
X150643232Y-106327531D01*
X150678047Y-106369953D01*
X150720469Y-106404768D01*
X150768869Y-106430638D01*
X150821385Y-106446569D01*
X150876000Y-106451948D01*
X150889686Y-106450600D01*
X154672314Y-106450600D01*
X154686000Y-106451948D01*
X154740615Y-106446569D01*
X154793131Y-106430638D01*
X154841531Y-106404768D01*
X154883953Y-106369953D01*
X154918768Y-106327531D01*
X154944638Y-106279131D01*
X154960569Y-106226615D01*
X154964600Y-106185687D01*
X154964600Y-106185686D01*
X154965948Y-106172000D01*
X154964600Y-106158313D01*
X154964600Y-104780993D01*
X155997400Y-104780993D01*
X155997400Y-105023007D01*
X156044614Y-105260369D01*
X156137229Y-105483960D01*
X156271684Y-105685187D01*
X156442813Y-105856316D01*
X156644040Y-105990771D01*
X156867631Y-106083386D01*
X156921200Y-106094042D01*
X156921201Y-107935024D01*
X156919726Y-107950000D01*
X156921200Y-107964966D01*
X156921201Y-110729032D01*
X156919727Y-110744000D01*
X156925611Y-110803751D01*
X156943040Y-110861205D01*
X156956215Y-110885854D01*
X156971343Y-110914157D01*
X157009433Y-110960568D01*
X157021057Y-110970108D01*
X157720892Y-111669944D01*
X157730432Y-111681568D01*
X157776843Y-111719658D01*
X157810088Y-111737427D01*
X157829794Y-111747960D01*
X157887248Y-111765389D01*
X157892403Y-111765897D01*
X157932034Y-111769800D01*
X157932042Y-111769800D01*
X157947000Y-111771273D01*
X157961958Y-111769800D01*
X158620503Y-111769800D01*
X158653095Y-111787221D01*
X158696187Y-111800292D01*
X158741000Y-111804706D01*
X160655401Y-111804706D01*
X160655401Y-112128531D01*
X160654173Y-112141000D01*
X160659069Y-112190714D01*
X160673571Y-112238518D01*
X160697119Y-112282574D01*
X160728810Y-112321190D01*
X160767426Y-112352881D01*
X160811482Y-112376429D01*
X160859286Y-112390931D01*
X160896541Y-112394600D01*
X160909000Y-112395827D01*
X160921459Y-112394600D01*
X164960541Y-112394600D01*
X164973000Y-112395827D01*
X164985459Y-112394600D01*
X165022714Y-112390931D01*
X165070518Y-112376429D01*
X165114574Y-112352881D01*
X165153190Y-112321190D01*
X165184881Y-112282574D01*
X165208429Y-112238518D01*
X165222931Y-112190714D01*
X165227827Y-112141000D01*
X165226600Y-112128541D01*
X165226600Y-111804706D01*
X167141000Y-111804706D01*
X167185813Y-111800292D01*
X167228905Y-111787221D01*
X167261497Y-111769800D01*
X167278442Y-111769800D01*
X167293400Y-111771273D01*
X167308358Y-111769800D01*
X167308366Y-111769800D01*
X167353151Y-111765389D01*
X167410606Y-111747960D01*
X167463557Y-111719658D01*
X167509968Y-111681568D01*
X167519512Y-111669939D01*
X168657755Y-110531697D01*
X168669378Y-110522158D01*
X168707468Y-110475747D01*
X168735770Y-110422796D01*
X168747912Y-110382771D01*
X168753199Y-110365342D01*
X168754394Y-110353205D01*
X168757610Y-110320556D01*
X168757610Y-110320549D01*
X168759083Y-110305591D01*
X168757610Y-110290633D01*
X168757610Y-108712000D01*
X170916052Y-108712000D01*
X170917400Y-108725686D01*
X170917401Y-112762303D01*
X170916052Y-112776000D01*
X170921431Y-112830615D01*
X170937362Y-112883131D01*
X170963232Y-112931531D01*
X170998047Y-112973953D01*
X171040469Y-113008768D01*
X171088869Y-113034638D01*
X171141385Y-113050569D01*
X171182313Y-113054600D01*
X171182314Y-113054600D01*
X171196000Y-113055948D01*
X171209687Y-113054600D01*
X175246313Y-113054600D01*
X175260000Y-113055948D01*
X175273686Y-113054600D01*
X175273687Y-113054600D01*
X175314615Y-113050569D01*
X175367131Y-113034638D01*
X175415531Y-113008768D01*
X175457953Y-112973953D01*
X175492768Y-112931531D01*
X175518638Y-112883131D01*
X175534569Y-112830615D01*
X175539948Y-112776000D01*
X175538600Y-112762313D01*
X175538600Y-108725686D01*
X175539948Y-108712000D01*
X175534569Y-108657385D01*
X175518638Y-108604869D01*
X175492768Y-108556469D01*
X175457953Y-108514047D01*
X175415531Y-108479232D01*
X175367131Y-108453362D01*
X175314615Y-108437431D01*
X175273687Y-108433400D01*
X175260000Y-108432052D01*
X175246314Y-108433400D01*
X171209686Y-108433400D01*
X171196000Y-108432052D01*
X171182313Y-108433400D01*
X171141385Y-108437431D01*
X171088869Y-108453362D01*
X171040469Y-108479232D01*
X170998047Y-108514047D01*
X170963232Y-108556469D01*
X170937362Y-108604869D01*
X170921431Y-108657385D01*
X170916052Y-108712000D01*
X168757610Y-108712000D01*
X168757610Y-105775893D01*
X168848316Y-105685187D01*
X168982771Y-105483960D01*
X169075386Y-105260369D01*
X169122600Y-105023007D01*
X169122600Y-104780993D01*
X169075386Y-104543631D01*
X168982771Y-104320040D01*
X168848316Y-104118813D01*
X168677187Y-103947684D01*
X168475960Y-103813229D01*
X168252369Y-103720614D01*
X168015007Y-103673400D01*
X167772993Y-103673400D01*
X167535631Y-103720614D01*
X167312040Y-103813229D01*
X167110813Y-103947684D01*
X166939684Y-104118813D01*
X166805229Y-104320040D01*
X166712614Y-104543631D01*
X166665400Y-104780993D01*
X166665400Y-105023007D01*
X166712614Y-105260369D01*
X166805229Y-105483960D01*
X166939684Y-105685187D01*
X167110813Y-105856316D01*
X167312040Y-105990771D01*
X167535631Y-106083386D01*
X167772993Y-106130600D01*
X168015007Y-106130600D01*
X168148011Y-106104144D01*
X168148010Y-108026959D01*
X165478977Y-105357925D01*
X165519386Y-105260369D01*
X165566600Y-105023007D01*
X165566600Y-104780993D01*
X165519386Y-104543631D01*
X165426771Y-104320040D01*
X165292316Y-104118813D01*
X165121187Y-103947684D01*
X164919960Y-103813229D01*
X164696369Y-103720614D01*
X164459007Y-103673400D01*
X164216993Y-103673400D01*
X163979631Y-103720614D01*
X163756040Y-103813229D01*
X163554813Y-103947684D01*
X163383684Y-104118813D01*
X163249229Y-104320040D01*
X163156614Y-104543631D01*
X163109400Y-104780993D01*
X163109400Y-105023007D01*
X163156614Y-105260369D01*
X163249229Y-105483960D01*
X163383684Y-105685187D01*
X163554813Y-105856316D01*
X163756040Y-105990771D01*
X163979631Y-106083386D01*
X164216993Y-106130600D01*
X164459007Y-106130600D01*
X164696369Y-106083386D01*
X164919960Y-105990771D01*
X165117637Y-105858688D01*
X167843201Y-108584253D01*
X167843200Y-109834148D01*
X167367249Y-110310100D01*
X167370706Y-110275000D01*
X167370706Y-110055000D01*
X167366292Y-110010187D01*
X167353221Y-109967095D01*
X167331994Y-109927382D01*
X167314881Y-109906529D01*
X167324644Y-109901342D01*
X167375027Y-109860205D01*
X167416416Y-109810029D01*
X167447222Y-109752743D01*
X167466259Y-109690547D01*
X167471200Y-109631350D01*
X167388650Y-109548800D01*
X166091800Y-109548800D01*
X166091800Y-109585800D01*
X165990200Y-109585800D01*
X165990200Y-109548800D01*
X165226600Y-109548800D01*
X165226600Y-109481200D01*
X165990200Y-109481200D01*
X165990200Y-109157350D01*
X166091800Y-109157350D01*
X166091800Y-109481200D01*
X167388650Y-109481200D01*
X167471200Y-109398650D01*
X167466259Y-109339453D01*
X167447222Y-109277257D01*
X167416416Y-109219971D01*
X167375027Y-109169795D01*
X167324644Y-109128658D01*
X167267204Y-109098141D01*
X167204914Y-109079416D01*
X167140167Y-109073203D01*
X166174350Y-109074800D01*
X166091800Y-109157350D01*
X165990200Y-109157350D01*
X165907650Y-109074800D01*
X165226600Y-109073674D01*
X165226600Y-108851459D01*
X165227827Y-108839000D01*
X165222931Y-108789286D01*
X165208429Y-108741482D01*
X165184881Y-108697426D01*
X165153190Y-108658810D01*
X165114574Y-108627119D01*
X165070518Y-108603571D01*
X165022714Y-108589069D01*
X164985459Y-108585400D01*
X164973000Y-108584173D01*
X164960541Y-108585400D01*
X160921459Y-108585400D01*
X160909000Y-108584173D01*
X160896541Y-108585400D01*
X160859286Y-108589069D01*
X160811482Y-108603571D01*
X160767426Y-108627119D01*
X160728810Y-108658810D01*
X160697119Y-108697426D01*
X160673571Y-108741482D01*
X160659069Y-108789286D01*
X160654173Y-108839000D01*
X160655400Y-108851459D01*
X160655400Y-109175294D01*
X158741000Y-109175294D01*
X158696187Y-109179708D01*
X158653095Y-109192779D01*
X158613382Y-109214006D01*
X158578573Y-109242573D01*
X158550006Y-109277382D01*
X158528779Y-109317095D01*
X158515708Y-109360187D01*
X158511294Y-109405000D01*
X158511294Y-109625000D01*
X158515708Y-109669813D01*
X158528779Y-109712905D01*
X158550006Y-109752618D01*
X158578573Y-109787427D01*
X158613382Y-109815994D01*
X158653095Y-109837221D01*
X158662257Y-109840000D01*
X158653095Y-109842779D01*
X158613382Y-109864006D01*
X158578573Y-109892573D01*
X158550006Y-109927382D01*
X158528779Y-109967095D01*
X158515708Y-110010187D01*
X158511294Y-110055000D01*
X158511294Y-110275000D01*
X158515708Y-110319813D01*
X158528779Y-110362905D01*
X158550006Y-110402618D01*
X158578573Y-110437427D01*
X158613382Y-110465994D01*
X158653095Y-110487221D01*
X158662257Y-110490000D01*
X158653095Y-110492779D01*
X158613382Y-110514006D01*
X158578573Y-110542573D01*
X158550006Y-110577382D01*
X158528779Y-110617095D01*
X158515708Y-110660187D01*
X158511294Y-110705000D01*
X158511294Y-110925000D01*
X158515708Y-110969813D01*
X158528779Y-111012905D01*
X158550006Y-111052618D01*
X158578573Y-111087427D01*
X158613382Y-111115994D01*
X158653095Y-111137221D01*
X158662257Y-111140000D01*
X158653095Y-111142779D01*
X158620503Y-111160200D01*
X158073252Y-111160200D01*
X157530800Y-110617749D01*
X157530800Y-108254800D01*
X157808691Y-108254800D01*
X157812031Y-108288709D01*
X157837906Y-108374008D01*
X157879926Y-108452621D01*
X157936474Y-108521526D01*
X158005379Y-108578074D01*
X158083992Y-108620094D01*
X158169291Y-108645969D01*
X158258000Y-108654706D01*
X158708000Y-108654706D01*
X158796709Y-108645969D01*
X158882008Y-108620094D01*
X158960621Y-108578074D01*
X159029526Y-108521526D01*
X159086074Y-108452621D01*
X159100837Y-108425000D01*
X159251202Y-108425000D01*
X159257577Y-108489731D01*
X159276459Y-108551974D01*
X159307120Y-108609337D01*
X159348383Y-108659617D01*
X159398663Y-108700880D01*
X159456026Y-108731541D01*
X159518269Y-108750423D01*
X159583000Y-108756798D01*
X159899650Y-108755200D01*
X159982200Y-108672650D01*
X159982200Y-108000800D01*
X160083800Y-108000800D01*
X160083800Y-108672650D01*
X160166350Y-108755200D01*
X160483000Y-108756798D01*
X160547731Y-108750423D01*
X160609974Y-108731541D01*
X160667337Y-108700880D01*
X160717617Y-108659617D01*
X160758880Y-108609337D01*
X160789541Y-108551974D01*
X160808423Y-108489731D01*
X160814798Y-108425000D01*
X160813200Y-108083350D01*
X160730650Y-108000800D01*
X160083800Y-108000800D01*
X159982200Y-108000800D01*
X159335350Y-108000800D01*
X159252800Y-108083350D01*
X159251202Y-108425000D01*
X159100837Y-108425000D01*
X159128094Y-108374008D01*
X159153969Y-108288709D01*
X159162706Y-108200000D01*
X159162706Y-107700000D01*
X159153969Y-107611291D01*
X159128094Y-107525992D01*
X159100838Y-107475000D01*
X159251202Y-107475000D01*
X159252800Y-107816650D01*
X159335350Y-107899200D01*
X159982200Y-107899200D01*
X159982200Y-107227350D01*
X160083800Y-107227350D01*
X160083800Y-107899200D01*
X160730650Y-107899200D01*
X160813200Y-107816650D01*
X160814798Y-107475000D01*
X160808423Y-107410269D01*
X160789541Y-107348026D01*
X160758880Y-107290663D01*
X160717617Y-107240383D01*
X160667337Y-107199120D01*
X160609974Y-107168459D01*
X160547731Y-107149577D01*
X160483000Y-107143202D01*
X160166350Y-107144800D01*
X160083800Y-107227350D01*
X159982200Y-107227350D01*
X159899650Y-107144800D01*
X159583000Y-107143202D01*
X159518269Y-107149577D01*
X159456026Y-107168459D01*
X159398663Y-107199120D01*
X159348383Y-107240383D01*
X159307120Y-107290663D01*
X159276459Y-107348026D01*
X159257577Y-107410269D01*
X159251202Y-107475000D01*
X159100838Y-107475000D01*
X159086074Y-107447379D01*
X159029526Y-107378474D01*
X158960621Y-107321926D01*
X158882008Y-107279906D01*
X158796709Y-107254031D01*
X158708000Y-107245294D01*
X158258000Y-107245294D01*
X158169291Y-107254031D01*
X158083992Y-107279906D01*
X158005379Y-107321926D01*
X157936474Y-107378474D01*
X157879926Y-107447379D01*
X157837906Y-107525992D01*
X157812031Y-107611291D01*
X157808691Y-107645200D01*
X157530800Y-107645200D01*
X157530800Y-106094041D01*
X157584369Y-106083386D01*
X157807960Y-105990771D01*
X158009187Y-105856316D01*
X158041537Y-105823966D01*
X159931876Y-105823966D01*
X160038011Y-106012439D01*
X160268942Y-106136248D01*
X160519590Y-106212625D01*
X160780323Y-106238635D01*
X161041120Y-106213279D01*
X161291959Y-106137531D01*
X161523201Y-106014303D01*
X161525989Y-106012439D01*
X161632124Y-105823966D01*
X160782000Y-104973842D01*
X159931876Y-105823966D01*
X158041537Y-105823966D01*
X158180316Y-105685187D01*
X158314771Y-105483960D01*
X158407386Y-105260369D01*
X158454600Y-105023007D01*
X158454600Y-104900323D01*
X159445365Y-104900323D01*
X159470721Y-105161120D01*
X159546469Y-105411959D01*
X159669697Y-105643201D01*
X159671561Y-105645989D01*
X159860034Y-105752124D01*
X160710158Y-104902000D01*
X160853842Y-104902000D01*
X161703966Y-105752124D01*
X161892439Y-105645989D01*
X162016248Y-105415058D01*
X162092625Y-105164410D01*
X162118635Y-104903677D01*
X162093279Y-104642880D01*
X162017531Y-104392041D01*
X161894303Y-104160799D01*
X161892439Y-104158011D01*
X161703966Y-104051876D01*
X160853842Y-104902000D01*
X160710158Y-104902000D01*
X159860034Y-104051876D01*
X159671561Y-104158011D01*
X159547752Y-104388942D01*
X159471375Y-104639590D01*
X159445365Y-104900323D01*
X158454600Y-104900323D01*
X158454600Y-104780993D01*
X158407386Y-104543631D01*
X158314771Y-104320040D01*
X158180316Y-104118813D01*
X158041537Y-103980034D01*
X159931876Y-103980034D01*
X160782000Y-104830158D01*
X161632124Y-103980034D01*
X161525989Y-103791561D01*
X161295058Y-103667752D01*
X161044410Y-103591375D01*
X160783677Y-103565365D01*
X160522880Y-103590721D01*
X160272041Y-103666469D01*
X160040799Y-103789697D01*
X160038011Y-103791561D01*
X159931876Y-103980034D01*
X158041537Y-103980034D01*
X158009187Y-103947684D01*
X157807960Y-103813229D01*
X157584369Y-103720614D01*
X157347007Y-103673400D01*
X157104993Y-103673400D01*
X156867631Y-103720614D01*
X156644040Y-103813229D01*
X156442813Y-103947684D01*
X156271684Y-104118813D01*
X156137229Y-104320040D01*
X156044614Y-104543631D01*
X155997400Y-104780993D01*
X154964600Y-104780993D01*
X154964600Y-98819687D01*
X154965948Y-98806000D01*
X154960569Y-98751385D01*
X154944638Y-98698869D01*
X154918768Y-98650469D01*
X154883953Y-98608047D01*
X154841531Y-98573232D01*
X154801809Y-98552000D01*
X160248052Y-98552000D01*
X160249401Y-98565697D01*
X160249400Y-102602313D01*
X160248052Y-102616000D01*
X160253431Y-102670615D01*
X160269362Y-102723131D01*
X160295232Y-102771531D01*
X160330047Y-102813953D01*
X160372469Y-102848768D01*
X160420869Y-102874638D01*
X160473385Y-102890569D01*
X160528000Y-102895948D01*
X160541686Y-102894600D01*
X164578314Y-102894600D01*
X164592000Y-102895948D01*
X164646615Y-102890569D01*
X164699131Y-102874638D01*
X164747531Y-102848768D01*
X164789953Y-102813953D01*
X164824768Y-102771531D01*
X164850638Y-102723131D01*
X164866569Y-102670615D01*
X164870600Y-102629687D01*
X164870600Y-102629686D01*
X164871948Y-102616000D01*
X164870600Y-102602313D01*
X164870600Y-98806000D01*
X171170052Y-98806000D01*
X171171401Y-98819697D01*
X171171400Y-106158313D01*
X171170052Y-106172000D01*
X171175431Y-106226615D01*
X171191362Y-106279131D01*
X171217232Y-106327531D01*
X171252047Y-106369953D01*
X171294469Y-106404768D01*
X171342869Y-106430638D01*
X171395385Y-106446569D01*
X171450000Y-106451948D01*
X171463686Y-106450600D01*
X175246314Y-106450600D01*
X175260000Y-106451948D01*
X175314615Y-106446569D01*
X175367131Y-106430638D01*
X175415531Y-106404768D01*
X175457953Y-106369953D01*
X175492768Y-106327531D01*
X175518638Y-106279131D01*
X175534569Y-106226615D01*
X175538600Y-106185687D01*
X175538600Y-106185686D01*
X175539948Y-106172000D01*
X175538600Y-106158313D01*
X175538600Y-98819687D01*
X175539948Y-98806000D01*
X175534569Y-98751385D01*
X175518638Y-98698869D01*
X175492768Y-98650469D01*
X175457953Y-98608047D01*
X175415531Y-98573232D01*
X175367131Y-98547362D01*
X175314615Y-98531431D01*
X175273687Y-98527400D01*
X175273686Y-98527400D01*
X175260000Y-98526052D01*
X175246313Y-98527400D01*
X171463687Y-98527400D01*
X171450000Y-98526052D01*
X171436314Y-98527400D01*
X171436313Y-98527400D01*
X171395385Y-98531431D01*
X171342869Y-98547362D01*
X171294469Y-98573232D01*
X171252047Y-98608047D01*
X171217232Y-98650469D01*
X171191362Y-98698869D01*
X171175431Y-98751385D01*
X171170052Y-98806000D01*
X164870600Y-98806000D01*
X164870600Y-98565687D01*
X164871948Y-98552000D01*
X164866569Y-98497385D01*
X164850638Y-98444869D01*
X164824768Y-98396469D01*
X164789953Y-98354047D01*
X164747531Y-98319232D01*
X164699131Y-98293362D01*
X164646615Y-98277431D01*
X164605687Y-98273400D01*
X164605686Y-98273400D01*
X164592000Y-98272052D01*
X164578313Y-98273400D01*
X160541687Y-98273400D01*
X160528000Y-98272052D01*
X160514314Y-98273400D01*
X160514313Y-98273400D01*
X160473385Y-98277431D01*
X160420869Y-98293362D01*
X160372469Y-98319232D01*
X160330047Y-98354047D01*
X160295232Y-98396469D01*
X160269362Y-98444869D01*
X160253431Y-98497385D01*
X160248052Y-98552000D01*
X154801809Y-98552000D01*
X154793131Y-98547362D01*
X154740615Y-98531431D01*
X154699687Y-98527400D01*
X154699686Y-98527400D01*
X154686000Y-98526052D01*
X154672313Y-98527400D01*
X150889687Y-98527400D01*
X150876000Y-98526052D01*
X150862314Y-98527400D01*
X150862313Y-98527400D01*
X150821385Y-98531431D01*
X150768869Y-98547362D01*
X150720469Y-98573232D01*
X150678047Y-98608047D01*
X150643232Y-98650469D01*
X150617362Y-98698869D01*
X150601431Y-98751385D01*
X150596052Y-98806000D01*
X149376600Y-98806000D01*
X149376600Y-98565687D01*
X149377948Y-98552000D01*
X149372569Y-98497385D01*
X149356638Y-98444869D01*
X149330768Y-98396469D01*
X149295953Y-98354047D01*
X149253531Y-98319232D01*
X149205131Y-98293362D01*
X149152615Y-98277431D01*
X149111687Y-98273400D01*
X149111686Y-98273400D01*
X149098000Y-98272052D01*
X149084313Y-98273400D01*
X145301687Y-98273400D01*
X145288000Y-98272052D01*
X145274314Y-98273400D01*
X145274313Y-98273400D01*
X145233385Y-98277431D01*
X145180869Y-98293362D01*
X145132469Y-98319232D01*
X145090047Y-98354047D01*
X145055232Y-98396469D01*
X145029362Y-98444869D01*
X145013431Y-98497385D01*
X145008052Y-98552000D01*
X138708600Y-98552000D01*
X138708600Y-98311687D01*
X138709948Y-98298000D01*
X138704569Y-98243385D01*
X138688638Y-98190869D01*
X138662768Y-98142469D01*
X138627953Y-98100047D01*
X138585531Y-98065232D01*
X138537131Y-98039362D01*
X138484615Y-98023431D01*
X138443687Y-98019400D01*
X138443686Y-98019400D01*
X138430000Y-98018052D01*
X138416313Y-98019400D01*
X134379687Y-98019400D01*
X134366000Y-98018052D01*
X134352314Y-98019400D01*
X134352313Y-98019400D01*
X134311385Y-98023431D01*
X134258869Y-98039362D01*
X134210469Y-98065232D01*
X134168047Y-98100047D01*
X134133232Y-98142469D01*
X134107362Y-98190869D01*
X134091431Y-98243385D01*
X134086052Y-98298000D01*
X128639809Y-98298000D01*
X128631131Y-98293362D01*
X128578615Y-98277431D01*
X128537687Y-98273400D01*
X128537686Y-98273400D01*
X128524000Y-98272052D01*
X128510313Y-98273400D01*
X124727687Y-98273400D01*
X124714000Y-98272052D01*
X124700314Y-98273400D01*
X124700313Y-98273400D01*
X124659385Y-98277431D01*
X124606869Y-98293362D01*
X124558469Y-98319232D01*
X124516047Y-98354047D01*
X124481232Y-98396469D01*
X124455362Y-98444869D01*
X124439431Y-98497385D01*
X124434052Y-98552000D01*
X123560944Y-98552000D01*
X123570124Y-98533640D01*
X124573556Y-97530208D01*
X125063393Y-97162830D01*
X126309044Y-96913700D01*
X146494500Y-96913700D01*
X146507027Y-96912663D01*
X147269027Y-96785663D01*
X147284800Y-96781250D01*
X147919800Y-96527250D01*
X147937220Y-96517460D01*
X148445220Y-96136460D01*
X148460460Y-96121220D01*
X148841460Y-95613220D01*
X148845834Y-95606716D01*
X149226834Y-94971978D01*
X149233229Y-94958479D01*
X149237112Y-94942211D01*
X149364112Y-93925949D01*
X149364700Y-93916500D01*
X149364700Y-88900000D01*
X150342052Y-88900000D01*
X150343401Y-88913697D01*
X150343400Y-96252313D01*
X150342052Y-96266000D01*
X150347431Y-96320615D01*
X150363362Y-96373131D01*
X150384602Y-96412869D01*
X150389232Y-96421531D01*
X150424047Y-96463953D01*
X150466469Y-96498768D01*
X150514869Y-96524638D01*
X150567385Y-96540569D01*
X150622000Y-96545948D01*
X150635686Y-96544600D01*
X154418314Y-96544600D01*
X154432000Y-96545948D01*
X154486615Y-96540569D01*
X154539131Y-96524638D01*
X154587531Y-96498768D01*
X154629953Y-96463953D01*
X154664768Y-96421531D01*
X154690638Y-96373131D01*
X154706569Y-96320615D01*
X154710600Y-96279687D01*
X154710600Y-96279686D01*
X154711948Y-96266000D01*
X154710600Y-96252313D01*
X154710600Y-92202000D01*
X159994052Y-92202000D01*
X159995401Y-92215697D01*
X159995400Y-96506313D01*
X159994052Y-96520000D01*
X159999431Y-96574615D01*
X160015362Y-96627131D01*
X160029945Y-96654414D01*
X160041232Y-96675531D01*
X160076047Y-96717953D01*
X160118469Y-96752768D01*
X160166869Y-96778638D01*
X160219385Y-96794569D01*
X160274000Y-96799948D01*
X160287686Y-96798600D01*
X164578314Y-96798600D01*
X164592000Y-96799948D01*
X164646615Y-96794569D01*
X164699131Y-96778638D01*
X164747531Y-96752768D01*
X164789953Y-96717953D01*
X164824768Y-96675531D01*
X164850638Y-96627131D01*
X164866569Y-96574615D01*
X164870600Y-96533687D01*
X164870600Y-96533686D01*
X164871948Y-96520000D01*
X164870600Y-96506313D01*
X164870600Y-92215687D01*
X164871948Y-92202000D01*
X164866569Y-92147385D01*
X164850638Y-92094869D01*
X164824768Y-92046469D01*
X164789953Y-92004047D01*
X164747531Y-91969232D01*
X164699131Y-91943362D01*
X164646615Y-91927431D01*
X164605687Y-91923400D01*
X164605686Y-91923400D01*
X164592000Y-91922052D01*
X164578313Y-91923400D01*
X160287687Y-91923400D01*
X160274000Y-91922052D01*
X160260314Y-91923400D01*
X160260313Y-91923400D01*
X160219385Y-91927431D01*
X160166869Y-91943362D01*
X160118469Y-91969232D01*
X160076047Y-92004047D01*
X160041232Y-92046469D01*
X160015362Y-92094869D01*
X159999431Y-92147385D01*
X159994052Y-92202000D01*
X154710600Y-92202000D01*
X154710600Y-88913687D01*
X154711948Y-88900000D01*
X170916052Y-88900000D01*
X170917401Y-88913697D01*
X170917400Y-96252313D01*
X170916052Y-96266000D01*
X170921431Y-96320615D01*
X170937362Y-96373131D01*
X170958602Y-96412869D01*
X170963232Y-96421531D01*
X170998047Y-96463953D01*
X171040469Y-96498768D01*
X171088869Y-96524638D01*
X171141385Y-96540569D01*
X171196000Y-96545948D01*
X171209686Y-96544600D01*
X174992314Y-96544600D01*
X175006000Y-96545948D01*
X175060615Y-96540569D01*
X175113131Y-96524638D01*
X175161531Y-96498768D01*
X175203953Y-96463953D01*
X175238768Y-96421531D01*
X175264638Y-96373131D01*
X175280569Y-96320615D01*
X175284600Y-96279687D01*
X175284600Y-96279686D01*
X175285948Y-96266000D01*
X175284600Y-96252313D01*
X175284600Y-88913687D01*
X175285948Y-88900000D01*
X175280569Y-88845385D01*
X175264638Y-88792869D01*
X175238768Y-88744469D01*
X175203953Y-88702047D01*
X175161531Y-88667232D01*
X175113131Y-88641362D01*
X175060615Y-88625431D01*
X175019687Y-88621400D01*
X175019686Y-88621400D01*
X175006000Y-88620052D01*
X174992313Y-88621400D01*
X171209687Y-88621400D01*
X171196000Y-88620052D01*
X171182314Y-88621400D01*
X171182313Y-88621400D01*
X171141385Y-88625431D01*
X171088869Y-88641362D01*
X171040469Y-88667232D01*
X170998047Y-88702047D01*
X170963232Y-88744469D01*
X170937362Y-88792869D01*
X170921431Y-88845385D01*
X170916052Y-88900000D01*
X154711948Y-88900000D01*
X154706569Y-88845385D01*
X154690638Y-88792869D01*
X154664768Y-88744469D01*
X154629953Y-88702047D01*
X154587531Y-88667232D01*
X154539131Y-88641362D01*
X154486615Y-88625431D01*
X154445687Y-88621400D01*
X154445686Y-88621400D01*
X154432000Y-88620052D01*
X154418313Y-88621400D01*
X150635687Y-88621400D01*
X150622000Y-88620052D01*
X150608314Y-88621400D01*
X150608313Y-88621400D01*
X150567385Y-88625431D01*
X150514869Y-88641362D01*
X150466469Y-88667232D01*
X150424047Y-88702047D01*
X150389232Y-88744469D01*
X150363362Y-88792869D01*
X150347431Y-88845385D01*
X150342052Y-88900000D01*
X149364700Y-88900000D01*
X149364700Y-82296000D01*
X150342052Y-82296000D01*
X150343400Y-82309687D01*
X150343400Y-82563686D01*
X150343401Y-82563696D01*
X150343400Y-86346313D01*
X150342052Y-86360000D01*
X150347431Y-86414615D01*
X150363362Y-86467131D01*
X150389232Y-86515531D01*
X150424047Y-86557953D01*
X150466469Y-86592768D01*
X150514869Y-86618638D01*
X150567385Y-86634569D01*
X150622000Y-86639948D01*
X150635686Y-86638600D01*
X154672314Y-86638600D01*
X154686000Y-86639948D01*
X154740615Y-86634569D01*
X154793131Y-86618638D01*
X154841531Y-86592768D01*
X154883953Y-86557953D01*
X154918768Y-86515531D01*
X154944638Y-86467131D01*
X154960569Y-86414615D01*
X154964600Y-86373687D01*
X154964600Y-86373686D01*
X154965948Y-86360000D01*
X154964600Y-86346313D01*
X154964600Y-82309687D01*
X154965948Y-82296000D01*
X154960569Y-82241385D01*
X154944638Y-82188869D01*
X154918768Y-82140469D01*
X154883953Y-82098047D01*
X154841531Y-82063232D01*
X154793131Y-82037362D01*
X154740615Y-82021431D01*
X154699687Y-82017400D01*
X154699686Y-82017400D01*
X154686000Y-82016052D01*
X154672313Y-82017400D01*
X150635687Y-82017400D01*
X150622000Y-82016052D01*
X150608314Y-82017400D01*
X150608313Y-82017400D01*
X150567385Y-82021431D01*
X150514869Y-82037362D01*
X150466469Y-82063232D01*
X150424047Y-82098047D01*
X150389232Y-82140469D01*
X150363362Y-82188869D01*
X150347431Y-82241385D01*
X150342052Y-82296000D01*
X149364700Y-82296000D01*
X149364700Y-73856805D01*
X149489679Y-73106929D01*
X149613079Y-72736730D01*
X149786444Y-72390000D01*
X150342052Y-72390000D01*
X150343401Y-72403697D01*
X150343400Y-79742313D01*
X150342052Y-79756000D01*
X150347431Y-79810615D01*
X150363362Y-79863131D01*
X150370779Y-79877007D01*
X150389232Y-79911531D01*
X150424047Y-79953953D01*
X150466469Y-79988768D01*
X150514869Y-80014638D01*
X150567385Y-80030569D01*
X150622000Y-80035948D01*
X150635686Y-80034600D01*
X154418314Y-80034600D01*
X154432000Y-80035948D01*
X154486615Y-80030569D01*
X154539131Y-80014638D01*
X154587531Y-79988768D01*
X154629953Y-79953953D01*
X154664768Y-79911531D01*
X154690638Y-79863131D01*
X154706569Y-79810615D01*
X154710600Y-79769687D01*
X154710600Y-79769686D01*
X154711948Y-79756000D01*
X154710600Y-79742313D01*
X154710600Y-79634993D01*
X156759400Y-79634993D01*
X156759400Y-79877007D01*
X156806614Y-80114369D01*
X156899229Y-80337960D01*
X157033684Y-80539187D01*
X157204813Y-80710316D01*
X157406040Y-80844771D01*
X157629631Y-80937386D01*
X157683201Y-80948042D01*
X157683201Y-81469878D01*
X157682474Y-81470474D01*
X157625926Y-81539379D01*
X157583906Y-81617992D01*
X157558031Y-81703291D01*
X157549294Y-81792000D01*
X157549294Y-82292000D01*
X157558031Y-82380709D01*
X157583906Y-82466008D01*
X157625926Y-82544621D01*
X157682474Y-82613526D01*
X157751379Y-82670074D01*
X157829992Y-82712094D01*
X157915291Y-82737969D01*
X157924201Y-82738847D01*
X157924200Y-84046042D01*
X157922727Y-84061000D01*
X157924200Y-84075958D01*
X157924200Y-84075965D01*
X157928611Y-84120750D01*
X157946040Y-84178205D01*
X157974342Y-84231156D01*
X158012432Y-84277568D01*
X158024061Y-84287112D01*
X158512534Y-84775585D01*
X158515708Y-84807813D01*
X158528779Y-84850905D01*
X158550006Y-84890618D01*
X158578573Y-84925427D01*
X158613382Y-84953994D01*
X158653095Y-84975221D01*
X158662257Y-84978000D01*
X158653095Y-84980779D01*
X158613382Y-85002006D01*
X158578573Y-85030573D01*
X158550006Y-85065382D01*
X158528779Y-85105095D01*
X158515708Y-85148187D01*
X158511294Y-85193000D01*
X158511294Y-85413000D01*
X158515708Y-85457813D01*
X158528779Y-85500905D01*
X158550006Y-85540618D01*
X158578573Y-85575427D01*
X158613382Y-85603994D01*
X158653095Y-85625221D01*
X158696187Y-85638292D01*
X158741000Y-85642706D01*
X160655401Y-85642706D01*
X160655401Y-85966531D01*
X160654173Y-85979000D01*
X160659069Y-86028714D01*
X160673571Y-86076518D01*
X160697119Y-86120574D01*
X160728810Y-86159190D01*
X160767426Y-86190881D01*
X160811482Y-86214429D01*
X160859286Y-86228931D01*
X160896541Y-86232600D01*
X160909000Y-86233827D01*
X160921459Y-86232600D01*
X164960541Y-86232600D01*
X164973000Y-86233827D01*
X164985459Y-86232600D01*
X165022714Y-86228931D01*
X165070518Y-86214429D01*
X165114574Y-86190881D01*
X165153190Y-86159190D01*
X165184881Y-86120574D01*
X165208429Y-86076518D01*
X165222931Y-86028714D01*
X165227827Y-85979000D01*
X165226600Y-85966541D01*
X165226600Y-85642706D01*
X167141000Y-85642706D01*
X167185813Y-85638292D01*
X167228905Y-85625221D01*
X167261497Y-85607800D01*
X167278442Y-85607800D01*
X167293400Y-85609273D01*
X167308358Y-85607800D01*
X167308366Y-85607800D01*
X167353151Y-85603389D01*
X167410606Y-85585960D01*
X167463557Y-85557658D01*
X167509968Y-85519568D01*
X167519512Y-85507939D01*
X168403755Y-84623697D01*
X168415378Y-84614158D01*
X168453468Y-84567747D01*
X168481770Y-84514796D01*
X168499199Y-84457341D01*
X168503610Y-84412556D01*
X168503610Y-84412549D01*
X168505083Y-84397591D01*
X168503610Y-84382633D01*
X168503610Y-82296000D01*
X170662052Y-82296000D01*
X170663400Y-82309687D01*
X170663401Y-86346303D01*
X170662052Y-86360000D01*
X170667431Y-86414615D01*
X170683362Y-86467131D01*
X170709232Y-86515531D01*
X170744047Y-86557953D01*
X170786469Y-86592768D01*
X170834869Y-86618638D01*
X170887385Y-86634569D01*
X170928313Y-86638600D01*
X170928314Y-86638600D01*
X170942000Y-86639948D01*
X170955687Y-86638600D01*
X174992313Y-86638600D01*
X175006000Y-86639948D01*
X175019686Y-86638600D01*
X175019687Y-86638600D01*
X175060615Y-86634569D01*
X175113131Y-86618638D01*
X175161531Y-86592768D01*
X175203953Y-86557953D01*
X175238768Y-86515531D01*
X175264638Y-86467131D01*
X175280569Y-86414615D01*
X175285948Y-86360000D01*
X175284600Y-86346313D01*
X175284600Y-82309687D01*
X175285948Y-82296000D01*
X175280569Y-82241385D01*
X175264638Y-82188869D01*
X175238768Y-82140469D01*
X175203953Y-82098047D01*
X175161531Y-82063232D01*
X175113131Y-82037362D01*
X175060615Y-82021431D01*
X175019687Y-82017400D01*
X175006000Y-82016052D01*
X174992314Y-82017400D01*
X170955686Y-82017400D01*
X170942000Y-82016052D01*
X170928313Y-82017400D01*
X170887385Y-82021431D01*
X170834869Y-82037362D01*
X170786469Y-82063232D01*
X170744047Y-82098047D01*
X170709232Y-82140469D01*
X170683362Y-82188869D01*
X170667431Y-82241385D01*
X170662052Y-82296000D01*
X168503610Y-82296000D01*
X168503610Y-80826296D01*
X168677187Y-80710316D01*
X168848316Y-80539187D01*
X168982771Y-80337960D01*
X169075386Y-80114369D01*
X169122600Y-79877007D01*
X169122600Y-79634993D01*
X169075386Y-79397631D01*
X168982771Y-79174040D01*
X168848316Y-78972813D01*
X168677187Y-78801684D01*
X168475960Y-78667229D01*
X168252369Y-78574614D01*
X168015007Y-78527400D01*
X167772993Y-78527400D01*
X167535631Y-78574614D01*
X167312040Y-78667229D01*
X167110813Y-78801684D01*
X166939684Y-78972813D01*
X166805229Y-79174040D01*
X166712614Y-79397631D01*
X166665400Y-79634993D01*
X166665400Y-79877007D01*
X166712614Y-80114369D01*
X166805229Y-80337960D01*
X166939684Y-80539187D01*
X167110813Y-80710316D01*
X167312040Y-80844771D01*
X167535631Y-80937386D01*
X167772993Y-80984600D01*
X167894011Y-80984600D01*
X167894011Y-81864959D01*
X165820600Y-79791549D01*
X165820600Y-79634993D01*
X165773386Y-79397631D01*
X165680771Y-79174040D01*
X165546316Y-78972813D01*
X165375187Y-78801684D01*
X165173960Y-78667229D01*
X164950369Y-78574614D01*
X164713007Y-78527400D01*
X164470993Y-78527400D01*
X164233631Y-78574614D01*
X164010040Y-78667229D01*
X163808813Y-78801684D01*
X163637684Y-78972813D01*
X163503229Y-79174040D01*
X163410614Y-79397631D01*
X163363400Y-79634993D01*
X163363400Y-79877007D01*
X163410614Y-80114369D01*
X163503229Y-80337960D01*
X163637684Y-80539187D01*
X163808813Y-80710316D01*
X164010040Y-80844771D01*
X164233631Y-80937386D01*
X164470993Y-80984600D01*
X164713007Y-80984600D01*
X164950369Y-80937386D01*
X165173960Y-80844771D01*
X165375187Y-80710316D01*
X165546316Y-80539187D01*
X165610331Y-80443382D01*
X167589201Y-82422253D01*
X167589200Y-83926148D01*
X167367249Y-84148100D01*
X167370706Y-84113000D01*
X167370706Y-83893000D01*
X167366292Y-83848187D01*
X167353221Y-83805095D01*
X167331994Y-83765382D01*
X167314881Y-83744529D01*
X167324644Y-83739342D01*
X167375027Y-83698205D01*
X167416416Y-83648029D01*
X167447222Y-83590743D01*
X167466259Y-83528547D01*
X167471200Y-83469350D01*
X167388650Y-83386800D01*
X166091800Y-83386800D01*
X166091800Y-83423800D01*
X165990200Y-83423800D01*
X165990200Y-83386800D01*
X165226600Y-83386800D01*
X165226600Y-83319200D01*
X165990200Y-83319200D01*
X165990200Y-82995350D01*
X166091800Y-82995350D01*
X166091800Y-83319200D01*
X167388650Y-83319200D01*
X167471200Y-83236650D01*
X167466259Y-83177453D01*
X167447222Y-83115257D01*
X167416416Y-83057971D01*
X167375027Y-83007795D01*
X167324644Y-82966658D01*
X167267204Y-82936141D01*
X167204914Y-82917416D01*
X167140167Y-82911203D01*
X166174350Y-82912800D01*
X166091800Y-82995350D01*
X165990200Y-82995350D01*
X165907650Y-82912800D01*
X165226600Y-82911674D01*
X165226600Y-82689459D01*
X165227827Y-82677000D01*
X165222931Y-82627286D01*
X165208429Y-82579482D01*
X165184881Y-82535426D01*
X165153190Y-82496810D01*
X165114574Y-82465119D01*
X165070518Y-82441571D01*
X165022714Y-82427069D01*
X164985459Y-82423400D01*
X164973000Y-82422173D01*
X164960541Y-82423400D01*
X160921459Y-82423400D01*
X160909000Y-82422173D01*
X160896541Y-82423400D01*
X160859286Y-82427069D01*
X160811482Y-82441571D01*
X160767426Y-82465119D01*
X160728810Y-82496810D01*
X160697119Y-82535426D01*
X160673571Y-82579482D01*
X160659069Y-82627286D01*
X160654173Y-82677000D01*
X160655400Y-82689459D01*
X160655400Y-82911674D01*
X159974350Y-82912800D01*
X159891800Y-82995350D01*
X159891800Y-83319200D01*
X160655400Y-83319200D01*
X160655400Y-83386800D01*
X159891800Y-83386800D01*
X159891800Y-83969200D01*
X160655400Y-83969200D01*
X160655400Y-84036800D01*
X159891800Y-84036800D01*
X159891800Y-84073800D01*
X159790200Y-84073800D01*
X159790200Y-84036800D01*
X159770200Y-84036800D01*
X159770200Y-83969200D01*
X159790200Y-83969200D01*
X159790200Y-83386800D01*
X159770200Y-83386800D01*
X159770200Y-83319200D01*
X159790200Y-83319200D01*
X159790200Y-82995350D01*
X159707650Y-82912800D01*
X158741833Y-82911203D01*
X158677086Y-82917416D01*
X158614796Y-82936141D01*
X158557356Y-82966658D01*
X158533800Y-82985891D01*
X158533800Y-82738846D01*
X158542709Y-82737969D01*
X158628008Y-82712094D01*
X158706621Y-82670074D01*
X158775526Y-82613526D01*
X158832074Y-82544621D01*
X158846837Y-82517000D01*
X158997202Y-82517000D01*
X159003577Y-82581731D01*
X159022459Y-82643974D01*
X159053120Y-82701337D01*
X159094383Y-82751617D01*
X159144663Y-82792880D01*
X159202026Y-82823541D01*
X159264269Y-82842423D01*
X159329000Y-82848798D01*
X159645650Y-82847200D01*
X159728200Y-82764650D01*
X159728200Y-82092800D01*
X159829800Y-82092800D01*
X159829800Y-82764650D01*
X159912350Y-82847200D01*
X160229000Y-82848798D01*
X160293731Y-82842423D01*
X160355974Y-82823541D01*
X160413337Y-82792880D01*
X160463617Y-82751617D01*
X160504880Y-82701337D01*
X160535541Y-82643974D01*
X160554423Y-82581731D01*
X160560798Y-82517000D01*
X160559200Y-82175350D01*
X160476650Y-82092800D01*
X159829800Y-82092800D01*
X159728200Y-82092800D01*
X159081350Y-82092800D01*
X158998800Y-82175350D01*
X158997202Y-82517000D01*
X158846837Y-82517000D01*
X158874094Y-82466008D01*
X158899969Y-82380709D01*
X158908706Y-82292000D01*
X158908706Y-81792000D01*
X158899969Y-81703291D01*
X158874094Y-81617992D01*
X158846838Y-81567000D01*
X158997202Y-81567000D01*
X158998800Y-81908650D01*
X159081350Y-81991200D01*
X159728200Y-81991200D01*
X159728200Y-81319350D01*
X159829800Y-81319350D01*
X159829800Y-81991200D01*
X160476650Y-81991200D01*
X160559200Y-81908650D01*
X160560798Y-81567000D01*
X160554423Y-81502269D01*
X160535541Y-81440026D01*
X160504880Y-81382663D01*
X160463617Y-81332383D01*
X160413337Y-81291120D01*
X160355974Y-81260459D01*
X160293731Y-81241577D01*
X160229000Y-81235202D01*
X159912350Y-81236800D01*
X159829800Y-81319350D01*
X159728200Y-81319350D01*
X159645650Y-81236800D01*
X159329000Y-81235202D01*
X159264269Y-81241577D01*
X159202026Y-81260459D01*
X159144663Y-81291120D01*
X159094383Y-81332383D01*
X159053120Y-81382663D01*
X159022459Y-81440026D01*
X159003577Y-81502269D01*
X158997202Y-81567000D01*
X158846838Y-81567000D01*
X158832074Y-81539379D01*
X158775526Y-81470474D01*
X158706621Y-81413926D01*
X158628008Y-81371906D01*
X158542709Y-81346031D01*
X158454000Y-81337294D01*
X158292800Y-81337294D01*
X158292800Y-80948041D01*
X158346369Y-80937386D01*
X158569960Y-80844771D01*
X158771187Y-80710316D01*
X158803537Y-80677966D01*
X160439876Y-80677966D01*
X160546011Y-80866439D01*
X160776942Y-80990248D01*
X161027590Y-81066625D01*
X161288323Y-81092635D01*
X161549120Y-81067279D01*
X161799959Y-80991531D01*
X162031201Y-80868303D01*
X162033989Y-80866439D01*
X162140124Y-80677966D01*
X161290000Y-79827842D01*
X160439876Y-80677966D01*
X158803537Y-80677966D01*
X158942316Y-80539187D01*
X159076771Y-80337960D01*
X159169386Y-80114369D01*
X159216600Y-79877007D01*
X159216600Y-79754323D01*
X159953365Y-79754323D01*
X159978721Y-80015120D01*
X160054469Y-80265959D01*
X160177697Y-80497201D01*
X160179561Y-80499989D01*
X160368034Y-80606124D01*
X161218158Y-79756000D01*
X161361842Y-79756000D01*
X162211966Y-80606124D01*
X162400439Y-80499989D01*
X162524248Y-80269058D01*
X162600625Y-80018410D01*
X162626635Y-79757677D01*
X162601279Y-79496880D01*
X162525531Y-79246041D01*
X162402303Y-79014799D01*
X162400439Y-79012011D01*
X162211966Y-78905876D01*
X161361842Y-79756000D01*
X161218158Y-79756000D01*
X160368034Y-78905876D01*
X160179561Y-79012011D01*
X160055752Y-79242942D01*
X159979375Y-79493590D01*
X159953365Y-79754323D01*
X159216600Y-79754323D01*
X159216600Y-79634993D01*
X159169386Y-79397631D01*
X159076771Y-79174040D01*
X158942316Y-78972813D01*
X158803537Y-78834034D01*
X160439876Y-78834034D01*
X161290000Y-79684158D01*
X162140124Y-78834034D01*
X162033989Y-78645561D01*
X161803058Y-78521752D01*
X161552410Y-78445375D01*
X161291677Y-78419365D01*
X161030880Y-78444721D01*
X160780041Y-78520469D01*
X160548799Y-78643697D01*
X160546011Y-78645561D01*
X160439876Y-78834034D01*
X158803537Y-78834034D01*
X158771187Y-78801684D01*
X158569960Y-78667229D01*
X158346369Y-78574614D01*
X158109007Y-78527400D01*
X157866993Y-78527400D01*
X157629631Y-78574614D01*
X157406040Y-78667229D01*
X157204813Y-78801684D01*
X157033684Y-78972813D01*
X156899229Y-79174040D01*
X156806614Y-79397631D01*
X156759400Y-79634993D01*
X154710600Y-79634993D01*
X154710600Y-72403687D01*
X154711948Y-72390000D01*
X154706569Y-72335385D01*
X154690638Y-72282869D01*
X154664768Y-72234469D01*
X154629953Y-72192047D01*
X154587531Y-72157232D01*
X154547809Y-72136000D01*
X159994052Y-72136000D01*
X159995401Y-72149697D01*
X159995400Y-76186313D01*
X159994052Y-76200000D01*
X159999431Y-76254615D01*
X160015362Y-76307131D01*
X160041232Y-76355531D01*
X160076047Y-76397953D01*
X160118469Y-76432768D01*
X160166869Y-76458638D01*
X160219385Y-76474569D01*
X160274000Y-76479948D01*
X160287686Y-76478600D01*
X164324314Y-76478600D01*
X164338000Y-76479948D01*
X164392615Y-76474569D01*
X164445131Y-76458638D01*
X164493531Y-76432768D01*
X164535953Y-76397953D01*
X164570768Y-76355531D01*
X164596638Y-76307131D01*
X164612569Y-76254615D01*
X164616600Y-76213687D01*
X164616600Y-76213686D01*
X164617948Y-76200000D01*
X164616600Y-76186313D01*
X164616600Y-72390000D01*
X170916052Y-72390000D01*
X170917401Y-72403697D01*
X170917400Y-79742313D01*
X170916052Y-79756000D01*
X170921431Y-79810615D01*
X170937362Y-79863131D01*
X170944779Y-79877007D01*
X170963232Y-79911531D01*
X170998047Y-79953953D01*
X171040469Y-79988768D01*
X171088869Y-80014638D01*
X171141385Y-80030569D01*
X171196000Y-80035948D01*
X171209686Y-80034600D01*
X174992314Y-80034600D01*
X175006000Y-80035948D01*
X175060615Y-80030569D01*
X175113131Y-80014638D01*
X175161531Y-79988768D01*
X175203953Y-79953953D01*
X175238768Y-79911531D01*
X175264638Y-79863131D01*
X175280569Y-79810615D01*
X175284600Y-79769687D01*
X175284600Y-79769686D01*
X175285948Y-79756000D01*
X175284600Y-79742313D01*
X175284600Y-72403687D01*
X175285948Y-72390000D01*
X175280569Y-72335385D01*
X175264638Y-72282869D01*
X175238768Y-72234469D01*
X175203953Y-72192047D01*
X175161531Y-72157232D01*
X175113131Y-72131362D01*
X175060615Y-72115431D01*
X175019687Y-72111400D01*
X175019686Y-72111400D01*
X175006000Y-72110052D01*
X174992313Y-72111400D01*
X171209687Y-72111400D01*
X171196000Y-72110052D01*
X171182314Y-72111400D01*
X171182313Y-72111400D01*
X171141385Y-72115431D01*
X171088869Y-72131362D01*
X171040469Y-72157232D01*
X170998047Y-72192047D01*
X170963232Y-72234469D01*
X170937362Y-72282869D01*
X170921431Y-72335385D01*
X170916052Y-72390000D01*
X164616600Y-72390000D01*
X164616600Y-72149687D01*
X164617948Y-72136000D01*
X164612569Y-72081385D01*
X164596638Y-72028869D01*
X164570768Y-71980469D01*
X164535953Y-71938047D01*
X164493531Y-71903232D01*
X164445131Y-71877362D01*
X164392615Y-71861431D01*
X164351687Y-71857400D01*
X164351686Y-71857400D01*
X164338000Y-71856052D01*
X164324313Y-71857400D01*
X160287687Y-71857400D01*
X160274000Y-71856052D01*
X160260314Y-71857400D01*
X160260313Y-71857400D01*
X160219385Y-71861431D01*
X160166869Y-71877362D01*
X160118469Y-71903232D01*
X160076047Y-71938047D01*
X160041232Y-71980469D01*
X160015362Y-72028869D01*
X159999431Y-72081385D01*
X159994052Y-72136000D01*
X154547809Y-72136000D01*
X154539131Y-72131362D01*
X154486615Y-72115431D01*
X154445687Y-72111400D01*
X154445686Y-72111400D01*
X154432000Y-72110052D01*
X154418313Y-72111400D01*
X150635687Y-72111400D01*
X150622000Y-72110052D01*
X150608314Y-72111400D01*
X150608313Y-72111400D01*
X150567385Y-72115431D01*
X150514869Y-72131362D01*
X150466469Y-72157232D01*
X150424047Y-72192047D01*
X150389232Y-72234469D01*
X150363362Y-72282869D01*
X150347431Y-72335385D01*
X150342052Y-72390000D01*
X149786444Y-72390000D01*
X149862534Y-72237820D01*
X150109508Y-71867359D01*
X150359385Y-71622306D01*
X150852887Y-71248501D01*
X151347095Y-71001397D01*
X151837897Y-70878696D01*
X152717477Y-70878322D01*
X173791696Y-70869339D01*
X175039543Y-71128109D01*
G37*
%TD.AperFunction*%
%TD*%
M02*
