%TF.GenerationSoftware,KiCad,Pcbnew,(5.1.10)-1*%
%TF.CreationDate,2023-09-11T17:59:32-05:00*%
%TF.ProjectId,perovskite_contact_board,7065726f-7673-46b6-9974-655f636f6e74,V3*%
%TF.SameCoordinates,Original*%
%TF.FileFunction,Profile,NP*%
%FSLAX46Y46*%
G04 Gerber Fmt 4.6, Leading zero omitted, Abs format (unit mm)*
G04 Created by KiCad (PCBNEW (5.1.10)-1) date 2023-09-11 17:59:32*
%MOMM*%
%LPD*%
G01*
G04 APERTURE LIST*
%TA.AperFunction,Profile*%
%ADD10C,0.100000*%
%TD*%
%TA.AperFunction,Profile*%
%ADD11C,0.050000*%
%TD*%
%TA.AperFunction,Profile*%
%ADD12C,0.200000*%
%TD*%
G04 APERTURE END LIST*
D10*
X150622000Y-72390000D02*
X154432000Y-72390000D01*
X154432000Y-79756000D02*
X150622000Y-79756000D01*
X154432000Y-72390000D02*
X154432000Y-79756000D01*
X175006000Y-79756000D02*
X171196000Y-79756000D01*
X171196000Y-79756000D02*
X171196000Y-72390000D01*
X170942000Y-86360000D02*
X175006000Y-86360000D01*
X170942000Y-82296000D02*
X170942000Y-86360000D01*
X175006000Y-96266000D02*
X171196000Y-96266000D01*
X160274000Y-96520000D02*
X160274000Y-92202000D01*
X171196000Y-88900000D02*
X175006000Y-88900000D01*
X150622000Y-96266000D02*
X150622000Y-88900000D01*
X175006000Y-88900000D02*
X175006000Y-96266000D01*
X164592000Y-92202000D02*
X164592000Y-96520000D01*
X160274000Y-92202000D02*
X164592000Y-92202000D01*
X164592000Y-96520000D02*
X160274000Y-96520000D01*
X171196000Y-96266000D02*
X171196000Y-88900000D01*
X150622000Y-82296000D02*
X154686000Y-82296000D01*
X150622000Y-86360000D02*
X150622000Y-82550000D01*
X154686000Y-82296000D02*
X154686000Y-86360000D01*
X150622000Y-79756000D02*
X150622000Y-72390000D01*
X154686000Y-86360000D02*
X150622000Y-86360000D01*
X154432000Y-96266000D02*
X150622000Y-96266000D01*
X154432000Y-88900000D02*
X154432000Y-96266000D01*
X150622000Y-88900000D02*
X154432000Y-88900000D01*
X150622000Y-82550000D02*
X150622000Y-82296000D01*
X164338000Y-75946000D02*
X164338000Y-76200000D01*
X164338000Y-76200000D02*
X160274000Y-76200000D01*
X175006000Y-72390000D02*
X175006000Y-79756000D01*
X175006000Y-82296000D02*
X170942000Y-82296000D01*
X160274000Y-72136000D02*
X164338000Y-72136000D01*
X164338000Y-72136000D02*
X164338000Y-75946000D01*
X175006000Y-86360000D02*
X175006000Y-82296000D01*
X171196000Y-72390000D02*
X175006000Y-72390000D01*
X160274000Y-76200000D02*
X160274000Y-72136000D01*
X150876000Y-98806000D02*
X154686000Y-98806000D01*
X154686000Y-106172000D02*
X150876000Y-106172000D01*
X154686000Y-98806000D02*
X154686000Y-106172000D01*
X175260000Y-106172000D02*
X171450000Y-106172000D01*
X171450000Y-106172000D02*
X171450000Y-98806000D01*
X171196000Y-112776000D02*
X175260000Y-112776000D01*
X171196000Y-108712000D02*
X171196000Y-112776000D01*
X175260000Y-122682000D02*
X171450000Y-122682000D01*
X160528000Y-122936000D02*
X160528000Y-118618000D01*
X171450000Y-115316000D02*
X175260000Y-115316000D01*
X150876000Y-122682000D02*
X150876000Y-115316000D01*
X175260000Y-115316000D02*
X175260000Y-122682000D01*
X164846000Y-118618000D02*
X164846000Y-122936000D01*
X160528000Y-118618000D02*
X164846000Y-118618000D01*
X164846000Y-122936000D02*
X160528000Y-122936000D01*
X171450000Y-122682000D02*
X171450000Y-115316000D01*
X150876000Y-108712000D02*
X154940000Y-108712000D01*
X150876000Y-112776000D02*
X150876000Y-108966000D01*
X154940000Y-108712000D02*
X154940000Y-112776000D01*
X150876000Y-106172000D02*
X150876000Y-98806000D01*
X154940000Y-112776000D02*
X150876000Y-112776000D01*
X154686000Y-122682000D02*
X150876000Y-122682000D01*
X154686000Y-115316000D02*
X154686000Y-122682000D01*
X150876000Y-115316000D02*
X154686000Y-115316000D01*
X150876000Y-108966000D02*
X150876000Y-108712000D01*
X164592000Y-102362000D02*
X164592000Y-102616000D01*
X164592000Y-102616000D02*
X160528000Y-102616000D01*
X175260000Y-98806000D02*
X175260000Y-106172000D01*
X175260000Y-108712000D02*
X171196000Y-108712000D01*
X160528000Y-98552000D02*
X164592000Y-98552000D01*
X164592000Y-98552000D02*
X164592000Y-102362000D01*
X175260000Y-112776000D02*
X175260000Y-108712000D01*
X171450000Y-98806000D02*
X175260000Y-98806000D01*
X160528000Y-102616000D02*
X160528000Y-98552000D01*
X145288000Y-105918000D02*
X145288000Y-98552000D01*
X149098000Y-105918000D02*
X145288000Y-105918000D01*
X149098000Y-98552000D02*
X149098000Y-105918000D01*
X145288000Y-98552000D02*
X149098000Y-98552000D01*
X134366000Y-102362000D02*
X134366000Y-98298000D01*
X138430000Y-102362000D02*
X134366000Y-102362000D01*
X138430000Y-102108000D02*
X138430000Y-102362000D01*
X138430000Y-98298000D02*
X138430000Y-102108000D01*
X134366000Y-98298000D02*
X138430000Y-98298000D01*
X149098000Y-108458000D02*
X145034000Y-108458000D01*
X149098000Y-112522000D02*
X149098000Y-108458000D01*
X145034000Y-112522000D02*
X149098000Y-112522000D01*
X145034000Y-108458000D02*
X145034000Y-112522000D01*
X145288000Y-122428000D02*
X145288000Y-115062000D01*
X149098000Y-122428000D02*
X145288000Y-122428000D01*
X149098000Y-115062000D02*
X149098000Y-122428000D01*
X145288000Y-115062000D02*
X149098000Y-115062000D01*
X134366000Y-122682000D02*
X134366000Y-118364000D01*
X138684000Y-122682000D02*
X134366000Y-122682000D01*
X138684000Y-118364000D02*
X138684000Y-122682000D01*
X134366000Y-118364000D02*
X138684000Y-118364000D01*
X124714000Y-122428000D02*
X124714000Y-115062000D01*
X128524000Y-122428000D02*
X124714000Y-122428000D01*
X128524000Y-115062000D02*
X128524000Y-122428000D01*
X124714000Y-115062000D02*
X128524000Y-115062000D01*
X124714000Y-108712000D02*
X124714000Y-108458000D01*
X124714000Y-112522000D02*
X124714000Y-108712000D01*
X128778000Y-112522000D02*
X124714000Y-112522000D01*
X128778000Y-108458000D02*
X128778000Y-112522000D01*
X124714000Y-108458000D02*
X128778000Y-108458000D01*
X124714000Y-105918000D02*
X124714000Y-98552000D01*
X128524000Y-105918000D02*
X124714000Y-105918000D01*
X128524000Y-98552000D02*
X128524000Y-105918000D01*
X124714000Y-98552000D02*
X128524000Y-98552000D01*
D11*
X164973000Y-82677000D02*
X160909000Y-82677000D01*
X164973000Y-85979000D02*
X164973000Y-82677000D01*
X160909000Y-85979000D02*
X164973000Y-85979000D01*
X160909000Y-82677000D02*
X160909000Y-85979000D01*
X164973000Y-108839000D02*
X160909000Y-108839000D01*
X164973000Y-112141000D02*
X164973000Y-108839000D01*
X160909000Y-112141000D02*
X164973000Y-112141000D01*
X160909000Y-108839000D02*
X160909000Y-112141000D01*
X138874500Y-112204500D02*
X138874500Y-108902500D01*
X134810500Y-112204500D02*
X138874500Y-112204500D01*
X134810500Y-108902500D02*
X134810500Y-112204500D01*
X138874500Y-108902500D02*
X134810500Y-108902500D01*
D12*
X173519500Y-125038499D02*
X126319501Y-125038499D01*
X148419500Y-73838500D02*
G75*
G02*
X152419500Y-69838500I4000000J0D01*
G01*
X152419500Y-69838500D02*
X173519500Y-69838500D01*
X177519500Y-121038499D02*
G75*
G02*
X173519500Y-125038499I-4000000J0D01*
G01*
X148419500Y-93938499D02*
G75*
G02*
X146419500Y-95938499I-2000000J0D01*
G01*
X177519500Y-73838500D02*
X177519500Y-121038499D01*
X126319501Y-95938499D02*
X146419500Y-95938499D01*
X122319501Y-99938499D02*
G75*
G02*
X126319501Y-95938499I4000000J0D01*
G01*
X126319501Y-125038499D02*
G75*
G02*
X122319501Y-121038499I0J4000000D01*
G01*
X173519500Y-69838500D02*
G75*
G02*
X177519500Y-73838500I0J-4000000D01*
G01*
X122319501Y-121038499D02*
X122319501Y-99938499D01*
X148419500Y-93938499D02*
X148419500Y-73838500D01*
M02*
