%TF.GenerationSoftware,KiCad,Pcbnew,(5.1.10)-1*%
%TF.CreationDate,2022-10-09T17:15:07-05:00*%
%TF.ProjectId,switcher,73776974-6368-4657-922e-6b696361645f,A*%
%TF.SameCoordinates,Original*%
%TF.FileFunction,Legend,Top*%
%TF.FilePolarity,Positive*%
%FSLAX46Y46*%
G04 Gerber Fmt 4.6, Leading zero omitted, Abs format (unit mm)*
G04 Created by KiCad (PCBNEW (5.1.10)-1) date 2022-10-09 17:15:07*
%MOMM*%
%LPD*%
G01*
G04 APERTURE LIST*
%ADD10C,0.100000*%
%ADD11C,0.150000*%
%ADD12C,0.120000*%
%ADD13C,0.152400*%
%ADD14C,0.127000*%
%ADD15C,0.200000*%
G04 APERTURE END LIST*
D10*
X165928141Y-126428500D02*
G75*
G03*
X165928141Y-126428500I-764641J0D01*
G01*
D11*
X147701642Y-121802380D02*
X147701642Y-120802380D01*
X148082595Y-120802380D01*
X148177833Y-120850000D01*
X148225452Y-120897619D01*
X148273071Y-120992857D01*
X148273071Y-121135714D01*
X148225452Y-121230952D01*
X148177833Y-121278571D01*
X148082595Y-121326190D01*
X147701642Y-121326190D01*
X149082595Y-121754761D02*
X148987357Y-121802380D01*
X148796880Y-121802380D01*
X148701642Y-121754761D01*
X148654023Y-121659523D01*
X148654023Y-121278571D01*
X148701642Y-121183333D01*
X148796880Y-121135714D01*
X148987357Y-121135714D01*
X149082595Y-121183333D01*
X149130214Y-121278571D01*
X149130214Y-121373809D01*
X148654023Y-121469047D01*
X149558785Y-121802380D02*
X149558785Y-121135714D01*
X149558785Y-121326190D02*
X149606404Y-121230952D01*
X149654023Y-121183333D01*
X149749261Y-121135714D01*
X149844500Y-121135714D01*
X150320690Y-121802380D02*
X150225452Y-121754761D01*
X150177833Y-121707142D01*
X150130214Y-121611904D01*
X150130214Y-121326190D01*
X150177833Y-121230952D01*
X150225452Y-121183333D01*
X150320690Y-121135714D01*
X150463547Y-121135714D01*
X150558785Y-121183333D01*
X150606404Y-121230952D01*
X150654023Y-121326190D01*
X150654023Y-121611904D01*
X150606404Y-121707142D01*
X150558785Y-121754761D01*
X150463547Y-121802380D01*
X150320690Y-121802380D01*
X150987357Y-121135714D02*
X151225452Y-121802380D01*
X151463547Y-121135714D01*
X151796880Y-121754761D02*
X151892119Y-121802380D01*
X152082595Y-121802380D01*
X152177833Y-121754761D01*
X152225452Y-121659523D01*
X152225452Y-121611904D01*
X152177833Y-121516666D01*
X152082595Y-121469047D01*
X151939738Y-121469047D01*
X151844500Y-121421428D01*
X151796880Y-121326190D01*
X151796880Y-121278571D01*
X151844500Y-121183333D01*
X151939738Y-121135714D01*
X152082595Y-121135714D01*
X152177833Y-121183333D01*
X152654023Y-121802380D02*
X152654023Y-120802380D01*
X152749261Y-121421428D02*
X153034976Y-121802380D01*
X153034976Y-121135714D02*
X152654023Y-121516666D01*
X153463547Y-121802380D02*
X153463547Y-121135714D01*
X153463547Y-120802380D02*
X153415928Y-120850000D01*
X153463547Y-120897619D01*
X153511166Y-120850000D01*
X153463547Y-120802380D01*
X153463547Y-120897619D01*
X153796880Y-121135714D02*
X154177833Y-121135714D01*
X153939738Y-120802380D02*
X153939738Y-121659523D01*
X153987357Y-121754761D01*
X154082595Y-121802380D01*
X154177833Y-121802380D01*
X154892119Y-121754761D02*
X154796880Y-121802380D01*
X154606404Y-121802380D01*
X154511166Y-121754761D01*
X154463547Y-121659523D01*
X154463547Y-121278571D01*
X154511166Y-121183333D01*
X154606404Y-121135714D01*
X154796880Y-121135714D01*
X154892119Y-121183333D01*
X154939738Y-121278571D01*
X154939738Y-121373809D01*
X154463547Y-121469047D01*
X156701642Y-121707142D02*
X156654023Y-121754761D01*
X156511166Y-121802380D01*
X156415928Y-121802380D01*
X156273071Y-121754761D01*
X156177833Y-121659523D01*
X156130214Y-121564285D01*
X156082595Y-121373809D01*
X156082595Y-121230952D01*
X156130214Y-121040476D01*
X156177833Y-120945238D01*
X156273071Y-120850000D01*
X156415928Y-120802380D01*
X156511166Y-120802380D01*
X156654023Y-120850000D01*
X156701642Y-120897619D01*
X157130214Y-121802380D02*
X157130214Y-120802380D01*
X157558785Y-121802380D02*
X157558785Y-121278571D01*
X157511166Y-121183333D01*
X157415928Y-121135714D01*
X157273071Y-121135714D01*
X157177833Y-121183333D01*
X157130214Y-121230952D01*
X158463547Y-121802380D02*
X158463547Y-121278571D01*
X158415928Y-121183333D01*
X158320690Y-121135714D01*
X158130214Y-121135714D01*
X158034976Y-121183333D01*
X158463547Y-121754761D02*
X158368309Y-121802380D01*
X158130214Y-121802380D01*
X158034976Y-121754761D01*
X157987357Y-121659523D01*
X157987357Y-121564285D01*
X158034976Y-121469047D01*
X158130214Y-121421428D01*
X158368309Y-121421428D01*
X158463547Y-121373809D01*
X158939738Y-121135714D02*
X158939738Y-121802380D01*
X158939738Y-121230952D02*
X158987357Y-121183333D01*
X159082595Y-121135714D01*
X159225452Y-121135714D01*
X159320690Y-121183333D01*
X159368309Y-121278571D01*
X159368309Y-121802380D01*
X159844500Y-121135714D02*
X159844500Y-121802380D01*
X159844500Y-121230952D02*
X159892119Y-121183333D01*
X159987357Y-121135714D01*
X160130214Y-121135714D01*
X160225452Y-121183333D01*
X160273071Y-121278571D01*
X160273071Y-121802380D01*
X161130214Y-121754761D02*
X161034976Y-121802380D01*
X160844500Y-121802380D01*
X160749261Y-121754761D01*
X160701642Y-121659523D01*
X160701642Y-121278571D01*
X160749261Y-121183333D01*
X160844500Y-121135714D01*
X161034976Y-121135714D01*
X161130214Y-121183333D01*
X161177833Y-121278571D01*
X161177833Y-121373809D01*
X160701642Y-121469047D01*
X161749261Y-121802380D02*
X161654023Y-121754761D01*
X161606404Y-121659523D01*
X161606404Y-120802380D01*
X162892119Y-121802380D02*
X162892119Y-120802380D01*
X163225452Y-121516666D01*
X163558785Y-120802380D01*
X163558785Y-121802380D01*
X164463547Y-121135714D02*
X164463547Y-121802380D01*
X164034976Y-121135714D02*
X164034976Y-121659523D01*
X164082595Y-121754761D01*
X164177833Y-121802380D01*
X164320690Y-121802380D01*
X164415928Y-121754761D01*
X164463547Y-121707142D01*
X165082595Y-121802380D02*
X164987357Y-121754761D01*
X164939738Y-121659523D01*
X164939738Y-120802380D01*
X165320690Y-121135714D02*
X165701642Y-121135714D01*
X165463547Y-120802380D02*
X165463547Y-121659523D01*
X165511166Y-121754761D01*
X165606404Y-121802380D01*
X165701642Y-121802380D01*
X166034976Y-121802380D02*
X166034976Y-121135714D01*
X166034976Y-120802380D02*
X165987357Y-120850000D01*
X166034976Y-120897619D01*
X166082595Y-120850000D01*
X166034976Y-120802380D01*
X166034976Y-120897619D01*
X166511166Y-121135714D02*
X166511166Y-122135714D01*
X166511166Y-121183333D02*
X166606404Y-121135714D01*
X166796880Y-121135714D01*
X166892119Y-121183333D01*
X166939738Y-121230952D01*
X166987357Y-121326190D01*
X166987357Y-121611904D01*
X166939738Y-121707142D01*
X166892119Y-121754761D01*
X166796880Y-121802380D01*
X166606404Y-121802380D01*
X166511166Y-121754761D01*
X167558785Y-121802380D02*
X167463547Y-121754761D01*
X167415928Y-121659523D01*
X167415928Y-120802380D01*
X168320690Y-121754761D02*
X168225452Y-121802380D01*
X168034976Y-121802380D01*
X167939738Y-121754761D01*
X167892119Y-121659523D01*
X167892119Y-121278571D01*
X167939738Y-121183333D01*
X168034976Y-121135714D01*
X168225452Y-121135714D01*
X168320690Y-121183333D01*
X168368309Y-121278571D01*
X168368309Y-121373809D01*
X167892119Y-121469047D01*
X168701642Y-121802380D02*
X169225452Y-121135714D01*
X168701642Y-121135714D02*
X169225452Y-121802380D01*
X169987357Y-121754761D02*
X169892119Y-121802380D01*
X169701642Y-121802380D01*
X169606404Y-121754761D01*
X169558785Y-121659523D01*
X169558785Y-121278571D01*
X169606404Y-121183333D01*
X169701642Y-121135714D01*
X169892119Y-121135714D01*
X169987357Y-121183333D01*
X170034976Y-121278571D01*
X170034976Y-121373809D01*
X169558785Y-121469047D01*
X170463547Y-121802380D02*
X170463547Y-121135714D01*
X170463547Y-121326190D02*
X170511166Y-121230952D01*
X170558785Y-121183333D01*
X170654023Y-121135714D01*
X170749261Y-121135714D01*
X146082595Y-123166666D02*
X146558785Y-123166666D01*
X145987357Y-123452380D02*
X146320690Y-122452380D01*
X146654023Y-123452380D01*
X147415928Y-123452380D02*
X147415928Y-122452380D01*
X147415928Y-123404761D02*
X147320690Y-123452380D01*
X147130214Y-123452380D01*
X147034976Y-123404761D01*
X146987357Y-123357142D01*
X146939738Y-123261904D01*
X146939738Y-122976190D01*
X146987357Y-122880952D01*
X147034976Y-122833333D01*
X147130214Y-122785714D01*
X147320690Y-122785714D01*
X147415928Y-122833333D01*
X147796880Y-122785714D02*
X148034976Y-123452380D01*
X148273071Y-122785714D01*
X149082595Y-123452380D02*
X149082595Y-122928571D01*
X149034976Y-122833333D01*
X148939738Y-122785714D01*
X148749261Y-122785714D01*
X148654023Y-122833333D01*
X149082595Y-123404761D02*
X148987357Y-123452380D01*
X148749261Y-123452380D01*
X148654023Y-123404761D01*
X148606404Y-123309523D01*
X148606404Y-123214285D01*
X148654023Y-123119047D01*
X148749261Y-123071428D01*
X148987357Y-123071428D01*
X149082595Y-123023809D01*
X149558785Y-122785714D02*
X149558785Y-123452380D01*
X149558785Y-122880952D02*
X149606404Y-122833333D01*
X149701642Y-122785714D01*
X149844500Y-122785714D01*
X149939738Y-122833333D01*
X149987357Y-122928571D01*
X149987357Y-123452380D01*
X150892119Y-123404761D02*
X150796880Y-123452380D01*
X150606404Y-123452380D01*
X150511166Y-123404761D01*
X150463547Y-123357142D01*
X150415928Y-123261904D01*
X150415928Y-122976190D01*
X150463547Y-122880952D01*
X150511166Y-122833333D01*
X150606404Y-122785714D01*
X150796880Y-122785714D01*
X150892119Y-122833333D01*
X151701642Y-123404761D02*
X151606404Y-123452380D01*
X151415928Y-123452380D01*
X151320690Y-123404761D01*
X151273071Y-123309523D01*
X151273071Y-122928571D01*
X151320690Y-122833333D01*
X151415928Y-122785714D01*
X151606404Y-122785714D01*
X151701642Y-122833333D01*
X151749261Y-122928571D01*
X151749261Y-123023809D01*
X151273071Y-123119047D01*
X152606404Y-123452380D02*
X152606404Y-122452380D01*
X152606404Y-123404761D02*
X152511166Y-123452380D01*
X152320690Y-123452380D01*
X152225452Y-123404761D01*
X152177833Y-123357142D01*
X152130214Y-123261904D01*
X152130214Y-122976190D01*
X152177833Y-122880952D01*
X152225452Y-122833333D01*
X152320690Y-122785714D01*
X152511166Y-122785714D01*
X152606404Y-122833333D01*
X154225452Y-123404761D02*
X154130214Y-123452380D01*
X153939738Y-123452380D01*
X153844500Y-123404761D01*
X153796880Y-123309523D01*
X153796880Y-122928571D01*
X153844500Y-122833333D01*
X153939738Y-122785714D01*
X154130214Y-122785714D01*
X154225452Y-122833333D01*
X154273071Y-122928571D01*
X154273071Y-123023809D01*
X153796880Y-123119047D01*
X154606404Y-122452380D02*
X155273071Y-123452380D01*
X155273071Y-122452380D02*
X154606404Y-123452380D01*
X155654023Y-122785714D02*
X155654023Y-123785714D01*
X155654023Y-122833333D02*
X155749261Y-122785714D01*
X155939738Y-122785714D01*
X156034976Y-122833333D01*
X156082595Y-122880952D01*
X156130214Y-122976190D01*
X156130214Y-123261904D01*
X156082595Y-123357142D01*
X156034976Y-123404761D01*
X155939738Y-123452380D01*
X155749261Y-123452380D01*
X155654023Y-123404761D01*
X156939738Y-123404761D02*
X156844500Y-123452380D01*
X156654023Y-123452380D01*
X156558785Y-123404761D01*
X156511166Y-123309523D01*
X156511166Y-122928571D01*
X156558785Y-122833333D01*
X156654023Y-122785714D01*
X156844500Y-122785714D01*
X156939738Y-122833333D01*
X156987357Y-122928571D01*
X156987357Y-123023809D01*
X156511166Y-123119047D01*
X157415928Y-123452380D02*
X157415928Y-122785714D01*
X157415928Y-122976190D02*
X157463547Y-122880952D01*
X157511166Y-122833333D01*
X157606404Y-122785714D01*
X157701642Y-122785714D01*
X158034976Y-123452380D02*
X158034976Y-122785714D01*
X158034976Y-122452380D02*
X157987357Y-122500000D01*
X158034976Y-122547619D01*
X158082595Y-122500000D01*
X158034976Y-122452380D01*
X158034976Y-122547619D01*
X158511166Y-123452380D02*
X158511166Y-122785714D01*
X158511166Y-122880952D02*
X158558785Y-122833333D01*
X158654023Y-122785714D01*
X158796880Y-122785714D01*
X158892119Y-122833333D01*
X158939738Y-122928571D01*
X158939738Y-123452380D01*
X158939738Y-122928571D02*
X158987357Y-122833333D01*
X159082595Y-122785714D01*
X159225452Y-122785714D01*
X159320690Y-122833333D01*
X159368309Y-122928571D01*
X159368309Y-123452380D01*
X160225452Y-123404761D02*
X160130214Y-123452380D01*
X159939738Y-123452380D01*
X159844500Y-123404761D01*
X159796880Y-123309523D01*
X159796880Y-122928571D01*
X159844500Y-122833333D01*
X159939738Y-122785714D01*
X160130214Y-122785714D01*
X160225452Y-122833333D01*
X160273071Y-122928571D01*
X160273071Y-123023809D01*
X159796880Y-123119047D01*
X160701642Y-122785714D02*
X160701642Y-123452380D01*
X160701642Y-122880952D02*
X160749261Y-122833333D01*
X160844500Y-122785714D01*
X160987357Y-122785714D01*
X161082595Y-122833333D01*
X161130214Y-122928571D01*
X161130214Y-123452380D01*
X161463547Y-122785714D02*
X161844500Y-122785714D01*
X161606404Y-122452380D02*
X161606404Y-123309523D01*
X161654023Y-123404761D01*
X161749261Y-123452380D01*
X161844500Y-123452380D01*
X162606404Y-123452380D02*
X162606404Y-122928571D01*
X162558785Y-122833333D01*
X162463547Y-122785714D01*
X162273071Y-122785714D01*
X162177833Y-122833333D01*
X162606404Y-123404761D02*
X162511166Y-123452380D01*
X162273071Y-123452380D01*
X162177833Y-123404761D01*
X162130214Y-123309523D01*
X162130214Y-123214285D01*
X162177833Y-123119047D01*
X162273071Y-123071428D01*
X162511166Y-123071428D01*
X162606404Y-123023809D01*
X163225452Y-123452380D02*
X163130214Y-123404761D01*
X163082595Y-123309523D01*
X163082595Y-122452380D01*
X164368309Y-123452380D02*
X164368309Y-122452380D01*
X164749261Y-122452380D01*
X164844500Y-122500000D01*
X164892119Y-122547619D01*
X164939738Y-122642857D01*
X164939738Y-122785714D01*
X164892119Y-122880952D01*
X164844500Y-122928571D01*
X164749261Y-122976190D01*
X164368309Y-122976190D01*
X165796880Y-123452380D02*
X165796880Y-122928571D01*
X165749261Y-122833333D01*
X165654023Y-122785714D01*
X165463547Y-122785714D01*
X165368309Y-122833333D01*
X165796880Y-123404761D02*
X165701642Y-123452380D01*
X165463547Y-123452380D01*
X165368309Y-123404761D01*
X165320690Y-123309523D01*
X165320690Y-123214285D01*
X165368309Y-123119047D01*
X165463547Y-123071428D01*
X165701642Y-123071428D01*
X165796880Y-123023809D01*
X166177833Y-122785714D02*
X166415928Y-123452380D01*
X166654023Y-122785714D02*
X166415928Y-123452380D01*
X166320690Y-123690476D01*
X166273071Y-123738095D01*
X166177833Y-123785714D01*
X167177833Y-123452380D02*
X167082595Y-123404761D01*
X167034976Y-123309523D01*
X167034976Y-122452380D01*
X167701642Y-123452380D02*
X167606404Y-123404761D01*
X167558785Y-123357142D01*
X167511166Y-123261904D01*
X167511166Y-122976190D01*
X167558785Y-122880952D01*
X167606404Y-122833333D01*
X167701642Y-122785714D01*
X167844500Y-122785714D01*
X167939738Y-122833333D01*
X167987357Y-122880952D01*
X168034976Y-122976190D01*
X168034976Y-123261904D01*
X167987357Y-123357142D01*
X167939738Y-123404761D01*
X167844500Y-123452380D01*
X167701642Y-123452380D01*
X168892119Y-123452380D02*
X168892119Y-122928571D01*
X168844500Y-122833333D01*
X168749261Y-122785714D01*
X168558785Y-122785714D01*
X168463547Y-122833333D01*
X168892119Y-123404761D02*
X168796880Y-123452380D01*
X168558785Y-123452380D01*
X168463547Y-123404761D01*
X168415928Y-123309523D01*
X168415928Y-123214285D01*
X168463547Y-123119047D01*
X168558785Y-123071428D01*
X168796880Y-123071428D01*
X168892119Y-123023809D01*
X169796880Y-123452380D02*
X169796880Y-122452380D01*
X169796880Y-123404761D02*
X169701642Y-123452380D01*
X169511166Y-123452380D01*
X169415928Y-123404761D01*
X169368309Y-123357142D01*
X169320690Y-123261904D01*
X169320690Y-122976190D01*
X169368309Y-122880952D01*
X169415928Y-122833333D01*
X169511166Y-122785714D01*
X169701642Y-122785714D01*
X169796880Y-122833333D01*
X170225452Y-123404761D02*
X170320690Y-123452380D01*
X170511166Y-123452380D01*
X170606404Y-123404761D01*
X170654023Y-123309523D01*
X170654023Y-123261904D01*
X170606404Y-123166666D01*
X170511166Y-123119047D01*
X170368309Y-123119047D01*
X170273071Y-123071428D01*
X170225452Y-122976190D01*
X170225452Y-122928571D01*
X170273071Y-122833333D01*
X170368309Y-122785714D01*
X170511166Y-122785714D01*
X170606404Y-122833333D01*
X155749261Y-124102380D02*
X155749261Y-124911904D01*
X155796880Y-125007142D01*
X155844500Y-125054761D01*
X155939738Y-125102380D01*
X156130214Y-125102380D01*
X156225452Y-125054761D01*
X156273071Y-125007142D01*
X156320690Y-124911904D01*
X156320690Y-124102380D01*
X156796880Y-125102380D02*
X156796880Y-124102380D01*
X157368309Y-125102380D01*
X157368309Y-124102380D01*
X158320690Y-125102380D02*
X157844500Y-125102380D01*
X157844500Y-124102380D01*
X159368309Y-124816666D02*
X159844500Y-124816666D01*
X159273071Y-125102380D02*
X159606404Y-124102380D01*
X159939738Y-125102380D01*
X160654023Y-125054761D02*
X160558785Y-125102380D01*
X160368309Y-125102380D01*
X160273071Y-125054761D01*
X160225452Y-124959523D01*
X160225452Y-124578571D01*
X160273071Y-124483333D01*
X160368309Y-124435714D01*
X160558785Y-124435714D01*
X160654023Y-124483333D01*
X160701642Y-124578571D01*
X160701642Y-124673809D01*
X160225452Y-124769047D01*
X161130214Y-125102380D02*
X161130214Y-124435714D01*
X161130214Y-124626190D02*
X161177833Y-124530952D01*
X161225452Y-124483333D01*
X161320690Y-124435714D01*
X161415928Y-124435714D01*
X161892119Y-125102380D02*
X161796880Y-125054761D01*
X161749261Y-125007142D01*
X161701642Y-124911904D01*
X161701642Y-124626190D01*
X161749261Y-124530952D01*
X161796880Y-124483333D01*
X161892119Y-124435714D01*
X162034976Y-124435714D01*
X162130214Y-124483333D01*
X162177833Y-124530952D01*
X162225452Y-124626190D01*
X162225452Y-124911904D01*
X162177833Y-125007142D01*
X162130214Y-125054761D01*
X162034976Y-125102380D01*
X161892119Y-125102380D01*
X162606404Y-125054761D02*
X162701642Y-125102380D01*
X162892119Y-125102380D01*
X162987357Y-125054761D01*
X163034976Y-124959523D01*
X163034976Y-124911904D01*
X162987357Y-124816666D01*
X162892119Y-124769047D01*
X162749261Y-124769047D01*
X162654023Y-124721428D01*
X162606404Y-124626190D01*
X162606404Y-124578571D01*
X162654023Y-124483333D01*
X162749261Y-124435714D01*
X162892119Y-124435714D01*
X162987357Y-124483333D01*
X163463547Y-124435714D02*
X163463547Y-125435714D01*
X163463547Y-124483333D02*
X163558785Y-124435714D01*
X163749261Y-124435714D01*
X163844500Y-124483333D01*
X163892119Y-124530952D01*
X163939738Y-124626190D01*
X163939738Y-124911904D01*
X163892119Y-125007142D01*
X163844500Y-125054761D01*
X163749261Y-125102380D01*
X163558785Y-125102380D01*
X163463547Y-125054761D01*
X164796880Y-125102380D02*
X164796880Y-124578571D01*
X164749261Y-124483333D01*
X164654023Y-124435714D01*
X164463547Y-124435714D01*
X164368309Y-124483333D01*
X164796880Y-125054761D02*
X164701642Y-125102380D01*
X164463547Y-125102380D01*
X164368309Y-125054761D01*
X164320690Y-124959523D01*
X164320690Y-124864285D01*
X164368309Y-124769047D01*
X164463547Y-124721428D01*
X164701642Y-124721428D01*
X164796880Y-124673809D01*
X165701642Y-125054761D02*
X165606404Y-125102380D01*
X165415928Y-125102380D01*
X165320690Y-125054761D01*
X165273071Y-125007142D01*
X165225452Y-124911904D01*
X165225452Y-124626190D01*
X165273071Y-124530952D01*
X165320690Y-124483333D01*
X165415928Y-124435714D01*
X165606404Y-124435714D01*
X165701642Y-124483333D01*
X166511166Y-125054761D02*
X166415928Y-125102380D01*
X166225452Y-125102380D01*
X166130214Y-125054761D01*
X166082595Y-124959523D01*
X166082595Y-124578571D01*
X166130214Y-124483333D01*
X166225452Y-124435714D01*
X166415928Y-124435714D01*
X166511166Y-124483333D01*
X166558785Y-124578571D01*
X166558785Y-124673809D01*
X166082595Y-124769047D01*
X168320690Y-125007142D02*
X168273071Y-125054761D01*
X168130214Y-125102380D01*
X168034976Y-125102380D01*
X167892119Y-125054761D01*
X167796880Y-124959523D01*
X167749261Y-124864285D01*
X167701642Y-124673809D01*
X167701642Y-124530952D01*
X167749261Y-124340476D01*
X167796880Y-124245238D01*
X167892119Y-124150000D01*
X168034976Y-124102380D01*
X168130214Y-124102380D01*
X168273071Y-124150000D01*
X168320690Y-124197619D01*
X168892119Y-125102380D02*
X168796880Y-125054761D01*
X168749261Y-124959523D01*
X168749261Y-124102380D01*
X169701642Y-124435714D02*
X169701642Y-125102380D01*
X169273071Y-124435714D02*
X169273071Y-124959523D01*
X169320690Y-125054761D01*
X169415928Y-125102380D01*
X169558785Y-125102380D01*
X169654023Y-125054761D01*
X169701642Y-125007142D01*
X170177833Y-125102380D02*
X170177833Y-124102380D01*
X170177833Y-124483333D02*
X170273071Y-124435714D01*
X170463547Y-124435714D01*
X170558785Y-124483333D01*
X170606404Y-124530952D01*
X170654023Y-124626190D01*
X170654023Y-124911904D01*
X170606404Y-125007142D01*
X170558785Y-125054761D01*
X170463547Y-125102380D01*
X170273071Y-125102380D01*
X170177833Y-125054761D01*
X156892119Y-126657142D02*
X156844500Y-126704761D01*
X156701642Y-126752380D01*
X156606404Y-126752380D01*
X156463547Y-126704761D01*
X156368309Y-126609523D01*
X156320690Y-126514285D01*
X156273071Y-126323809D01*
X156273071Y-126180952D01*
X156320690Y-125990476D01*
X156368309Y-125895238D01*
X156463547Y-125800000D01*
X156606404Y-125752380D01*
X156701642Y-125752380D01*
X156844500Y-125800000D01*
X156892119Y-125847619D01*
X157463547Y-126752380D02*
X157368309Y-126704761D01*
X157320690Y-126657142D01*
X157273071Y-126561904D01*
X157273071Y-126276190D01*
X157320690Y-126180952D01*
X157368309Y-126133333D01*
X157463547Y-126085714D01*
X157606404Y-126085714D01*
X157701642Y-126133333D01*
X157749261Y-126180952D01*
X157796880Y-126276190D01*
X157796880Y-126561904D01*
X157749261Y-126657142D01*
X157701642Y-126704761D01*
X157606404Y-126752380D01*
X157463547Y-126752380D01*
X158225452Y-126085714D02*
X158225452Y-127085714D01*
X158225452Y-126133333D02*
X158320690Y-126085714D01*
X158511166Y-126085714D01*
X158606404Y-126133333D01*
X158654023Y-126180952D01*
X158701642Y-126276190D01*
X158701642Y-126561904D01*
X158654023Y-126657142D01*
X158606404Y-126704761D01*
X158511166Y-126752380D01*
X158320690Y-126752380D01*
X158225452Y-126704761D01*
X159034976Y-126085714D02*
X159273071Y-126752380D01*
X159511166Y-126085714D02*
X159273071Y-126752380D01*
X159177833Y-126990476D01*
X159130214Y-127038095D01*
X159034976Y-127085714D01*
X159892119Y-126752380D02*
X159892119Y-126085714D01*
X159892119Y-126276190D02*
X159939738Y-126180952D01*
X159987357Y-126133333D01*
X160082595Y-126085714D01*
X160177833Y-126085714D01*
X160511166Y-126752380D02*
X160511166Y-126085714D01*
X160511166Y-125752380D02*
X160463547Y-125800000D01*
X160511166Y-125847619D01*
X160558785Y-125800000D01*
X160511166Y-125752380D01*
X160511166Y-125847619D01*
X161415928Y-126085714D02*
X161415928Y-126895238D01*
X161368309Y-126990476D01*
X161320690Y-127038095D01*
X161225452Y-127085714D01*
X161082595Y-127085714D01*
X160987357Y-127038095D01*
X161415928Y-126704761D02*
X161320690Y-126752380D01*
X161130214Y-126752380D01*
X161034976Y-126704761D01*
X160987357Y-126657142D01*
X160939738Y-126561904D01*
X160939738Y-126276190D01*
X160987357Y-126180952D01*
X161034976Y-126133333D01*
X161130214Y-126085714D01*
X161320690Y-126085714D01*
X161415928Y-126133333D01*
X161892119Y-126752380D02*
X161892119Y-125752380D01*
X162320690Y-126752380D02*
X162320690Y-126228571D01*
X162273071Y-126133333D01*
X162177833Y-126085714D01*
X162034976Y-126085714D01*
X161939738Y-126133333D01*
X161892119Y-126180952D01*
X162654023Y-126085714D02*
X163034976Y-126085714D01*
X162796880Y-125752380D02*
X162796880Y-126609523D01*
X162844500Y-126704761D01*
X162939738Y-126752380D01*
X163034976Y-126752380D01*
X165320690Y-126704761D02*
X165225452Y-126752380D01*
X165034976Y-126752380D01*
X164939738Y-126704761D01*
X164892119Y-126657142D01*
X164844500Y-126561904D01*
X164844500Y-126276190D01*
X164892119Y-126180952D01*
X164939738Y-126133333D01*
X165034976Y-126085714D01*
X165225452Y-126085714D01*
X165320690Y-126133333D01*
X167225452Y-125847619D02*
X167273071Y-125800000D01*
X167368309Y-125752380D01*
X167606404Y-125752380D01*
X167701642Y-125800000D01*
X167749261Y-125847619D01*
X167796880Y-125942857D01*
X167796880Y-126038095D01*
X167749261Y-126180952D01*
X167177833Y-126752380D01*
X167796880Y-126752380D01*
X168415928Y-125752380D02*
X168511166Y-125752380D01*
X168606404Y-125800000D01*
X168654023Y-125847619D01*
X168701642Y-125942857D01*
X168749261Y-126133333D01*
X168749261Y-126371428D01*
X168701642Y-126561904D01*
X168654023Y-126657142D01*
X168606404Y-126704761D01*
X168511166Y-126752380D01*
X168415928Y-126752380D01*
X168320690Y-126704761D01*
X168273071Y-126657142D01*
X168225452Y-126561904D01*
X168177833Y-126371428D01*
X168177833Y-126133333D01*
X168225452Y-125942857D01*
X168273071Y-125847619D01*
X168320690Y-125800000D01*
X168415928Y-125752380D01*
X169130214Y-125847619D02*
X169177833Y-125800000D01*
X169273071Y-125752380D01*
X169511166Y-125752380D01*
X169606404Y-125800000D01*
X169654023Y-125847619D01*
X169701642Y-125942857D01*
X169701642Y-126038095D01*
X169654023Y-126180952D01*
X169082595Y-126752380D01*
X169701642Y-126752380D01*
X170082595Y-125847619D02*
X170130214Y-125800000D01*
X170225452Y-125752380D01*
X170463547Y-125752380D01*
X170558785Y-125800000D01*
X170606404Y-125847619D01*
X170654023Y-125942857D01*
X170654023Y-126038095D01*
X170606404Y-126180952D01*
X170034976Y-126752380D01*
X170654023Y-126752380D01*
D10*
%TO.C,U2*%
G36*
X157822900Y-109728000D02*
G01*
X157822900Y-110109000D01*
X157568900Y-110109000D01*
X157568900Y-109728000D01*
X157822900Y-109728000D01*
G37*
X157822900Y-109728000D02*
X157822900Y-110109000D01*
X157568900Y-110109000D01*
X157568900Y-109728000D01*
X157822900Y-109728000D01*
D12*
X154949803Y-101739700D02*
X152771197Y-101739700D01*
X152771197Y-111747300D02*
X154949803Y-111747300D01*
X154165300Y-101739700D02*
G75*
G02*
X153555700Y-101739700I-304800J0D01*
G01*
%TO.C,R30*%
X134382742Y-118222500D02*
X134857258Y-118222500D01*
X134382742Y-119267500D02*
X134857258Y-119267500D01*
%TO.C,R29*%
X134857258Y-116727500D02*
X134382742Y-116727500D01*
X134857258Y-115682500D02*
X134382742Y-115682500D01*
%TO.C,R28*%
X173181242Y-123302500D02*
X173655758Y-123302500D01*
X173181242Y-124347500D02*
X173655758Y-124347500D01*
%TO.C,R27*%
X173181242Y-125842500D02*
X173655758Y-125842500D01*
X173181242Y-126887500D02*
X173655758Y-126887500D01*
%TO.C,R25*%
X173181242Y-120762500D02*
X173655758Y-120762500D01*
X173181242Y-121807500D02*
X173655758Y-121807500D01*
%TO.C,U1*%
X152123500Y-113971500D02*
X152123500Y-115771500D01*
X155343500Y-115771500D02*
X155343500Y-113321500D01*
%TO.C,J5*%
X128838000Y-77784000D02*
X127508000Y-77784000D01*
X128838000Y-76454000D02*
X128838000Y-77784000D01*
X128838000Y-75184000D02*
X126178000Y-75184000D01*
X126178000Y-75184000D02*
X126178000Y-72584000D01*
X128838000Y-75184000D02*
X128838000Y-72584000D01*
X128838000Y-72584000D02*
X126178000Y-72584000D01*
%TO.C,J4*%
X178184500Y-73727000D02*
X179514500Y-73727000D01*
X178184500Y-75057000D02*
X178184500Y-73727000D01*
X178184500Y-76327000D02*
X180844500Y-76327000D01*
X180844500Y-76327000D02*
X180844500Y-76387000D01*
X178184500Y-76327000D02*
X178184500Y-76387000D01*
X178184500Y-76387000D02*
X180844500Y-76387000D01*
%TO.C,FB1*%
X134782779Y-106555000D02*
X134457221Y-106555000D01*
X134782779Y-105535000D02*
X134457221Y-105535000D01*
D13*
%TO.C,U15*%
X132778500Y-75069700D02*
X130746500Y-75069700D01*
X130746500Y-78219300D02*
X132778500Y-78219300D01*
D14*
%TO.C,U14*%
X131386500Y-92012500D02*
X131386500Y-88962500D01*
X128336500Y-92012500D02*
X128336500Y-88962500D01*
D15*
X128681500Y-94107500D02*
G75*
G03*
X128681500Y-94107500I-100000J0D01*
G01*
D14*
%TO.C,U13*%
X136657000Y-92012500D02*
X136657000Y-88962500D01*
X133607000Y-92012500D02*
X133607000Y-88962500D01*
D15*
X133952000Y-94107500D02*
G75*
G03*
X133952000Y-94107500I-100000J0D01*
G01*
D14*
%TO.C,U12*%
X141990500Y-92012500D02*
X141990500Y-88962500D01*
X138940500Y-92012500D02*
X138940500Y-88962500D01*
D15*
X139285500Y-94107500D02*
G75*
G03*
X139285500Y-94107500I-100000J0D01*
G01*
D14*
%TO.C,U11*%
X147387500Y-92012500D02*
X147387500Y-88962500D01*
X144337500Y-92012500D02*
X144337500Y-88962500D01*
D15*
X144682500Y-94107500D02*
G75*
G03*
X144682500Y-94107500I-100000J0D01*
G01*
D14*
%TO.C,U10*%
X152721000Y-92012500D02*
X152721000Y-88962500D01*
X149671000Y-92012500D02*
X149671000Y-88962500D01*
D15*
X150016000Y-94107500D02*
G75*
G03*
X150016000Y-94107500I-100000J0D01*
G01*
D14*
%TO.C,U9*%
X158054500Y-92012500D02*
X158054500Y-88962500D01*
X155004500Y-92012500D02*
X155004500Y-88962500D01*
D15*
X155349500Y-94107500D02*
G75*
G03*
X155349500Y-94107500I-100000J0D01*
G01*
D14*
%TO.C,U8*%
X163404000Y-92003500D02*
X163404000Y-88953500D01*
X160354000Y-92003500D02*
X160354000Y-88953500D01*
D15*
X160699000Y-94098500D02*
G75*
G03*
X160699000Y-94098500I-100000J0D01*
G01*
D14*
%TO.C,U7*%
X168785000Y-92012500D02*
X168785000Y-88962500D01*
X165735000Y-92012500D02*
X165735000Y-88962500D01*
D15*
X166080000Y-94107500D02*
G75*
G03*
X166080000Y-94107500I-100000J0D01*
G01*
D14*
%TO.C,U6*%
X174245500Y-92012500D02*
X174245500Y-88962500D01*
X171195500Y-92012500D02*
X171195500Y-88962500D01*
D15*
X171540500Y-94107500D02*
G75*
G03*
X171540500Y-94107500I-100000J0D01*
G01*
D14*
%TO.C,U5*%
X179706000Y-92012500D02*
X179706000Y-88962500D01*
X176656000Y-92012500D02*
X176656000Y-88962500D01*
D15*
X177001000Y-94107500D02*
G75*
G03*
X177001000Y-94107500I-100000J0D01*
G01*
D14*
%TO.C,U4*%
X143719000Y-111808500D02*
X147619000Y-111808500D01*
X143719000Y-101678500D02*
X147619000Y-101678500D01*
D15*
X141624000Y-101798500D02*
G75*
G03*
X141624000Y-101798500I-100000J0D01*
G01*
D14*
%TO.C,U3*%
X163875000Y-101678500D02*
X159975000Y-101678500D01*
X163875000Y-111808500D02*
X159975000Y-111808500D01*
D15*
X166170000Y-111688500D02*
G75*
G03*
X166170000Y-111688500I-100000J0D01*
G01*
D12*
%TO.C,R26*%
X131142000Y-80183758D02*
X131142000Y-79709242D01*
X130097000Y-80183758D02*
X130097000Y-79709242D01*
%TO.C,R24*%
X133428000Y-80183758D02*
X133428000Y-79709242D01*
X132383000Y-80183758D02*
X132383000Y-79709242D01*
%TO.C,R23*%
X130101000Y-85170242D02*
X130101000Y-85644758D01*
X131146000Y-85170242D02*
X131146000Y-85644758D01*
%TO.C,R22*%
X128577000Y-85170242D02*
X128577000Y-85644758D01*
X129622000Y-85170242D02*
X129622000Y-85644758D01*
%TO.C,R21*%
X135371500Y-85170242D02*
X135371500Y-85644758D01*
X136416500Y-85170242D02*
X136416500Y-85644758D01*
%TO.C,R20*%
X133847500Y-85170242D02*
X133847500Y-85644758D01*
X134892500Y-85170242D02*
X134892500Y-85644758D01*
%TO.C,R19*%
X140705000Y-85170242D02*
X140705000Y-85644758D01*
X141750000Y-85170242D02*
X141750000Y-85644758D01*
%TO.C,R18*%
X139181000Y-85170242D02*
X139181000Y-85644758D01*
X140226000Y-85170242D02*
X140226000Y-85644758D01*
%TO.C,R17*%
X146102000Y-85170242D02*
X146102000Y-85644758D01*
X147147000Y-85170242D02*
X147147000Y-85644758D01*
%TO.C,R16*%
X144578000Y-85170242D02*
X144578000Y-85644758D01*
X145623000Y-85170242D02*
X145623000Y-85644758D01*
%TO.C,R15*%
X151435500Y-85170242D02*
X151435500Y-85644758D01*
X152480500Y-85170242D02*
X152480500Y-85644758D01*
%TO.C,R14*%
X149911500Y-85170242D02*
X149911500Y-85644758D01*
X150956500Y-85170242D02*
X150956500Y-85644758D01*
%TO.C,R13*%
X156769000Y-85170242D02*
X156769000Y-85644758D01*
X157814000Y-85170242D02*
X157814000Y-85644758D01*
%TO.C,R12*%
X155245000Y-85170242D02*
X155245000Y-85644758D01*
X156290000Y-85170242D02*
X156290000Y-85644758D01*
%TO.C,R11*%
X162102500Y-85170242D02*
X162102500Y-85644758D01*
X163147500Y-85170242D02*
X163147500Y-85644758D01*
%TO.C,R10*%
X160578500Y-85170242D02*
X160578500Y-85644758D01*
X161623500Y-85170242D02*
X161623500Y-85644758D01*
%TO.C,R9*%
X167499500Y-85170242D02*
X167499500Y-85644758D01*
X168544500Y-85170242D02*
X168544500Y-85644758D01*
%TO.C,R8*%
X165975500Y-85170242D02*
X165975500Y-85644758D01*
X167020500Y-85170242D02*
X167020500Y-85644758D01*
%TO.C,R7*%
X172960000Y-85170242D02*
X172960000Y-85644758D01*
X174005000Y-85170242D02*
X174005000Y-85644758D01*
%TO.C,R6*%
X171436000Y-85170242D02*
X171436000Y-85644758D01*
X172481000Y-85170242D02*
X172481000Y-85644758D01*
%TO.C,R5*%
X178420500Y-85170242D02*
X178420500Y-85644758D01*
X179465500Y-85170242D02*
X179465500Y-85644758D01*
%TO.C,R4*%
X176896500Y-85170242D02*
X176896500Y-85644758D01*
X177941500Y-85170242D02*
X177941500Y-85644758D01*
%TO.C,R3*%
X131777000Y-72119258D02*
X131777000Y-71644742D01*
X130732000Y-72119258D02*
X130732000Y-71644742D01*
%TO.C,R2*%
X137526500Y-72152242D02*
X137526500Y-72626758D01*
X138571500Y-72152242D02*
X138571500Y-72626758D01*
%TO.C,R1*%
X135939000Y-72152742D02*
X135939000Y-72627258D01*
X136984000Y-72152742D02*
X136984000Y-72627258D01*
%TO.C,Q1*%
X135368000Y-73270000D02*
X135368000Y-70840000D01*
X132298000Y-71510000D02*
X132298000Y-73270000D01*
D15*
%TO.C,J3*%
X162003500Y-72222000D02*
G75*
G03*
X162003500Y-72222000I-50000J0D01*
G01*
D10*
X142453500Y-72597000D02*
X165253500Y-72597000D01*
X165253500Y-77497000D02*
X142453500Y-77497000D01*
X165253500Y-77497000D02*
G75*
G03*
X165253500Y-72597000I0J2450000D01*
G01*
X142453500Y-72597000D02*
G75*
G03*
X142453500Y-77497000I0J-2450000D01*
G01*
D12*
%TO.C,C26*%
X135193500Y-76785080D02*
X135193500Y-76503920D01*
X134173500Y-76785080D02*
X134173500Y-76503920D01*
%TO.C,C24*%
X174940500Y-88441920D02*
X174940500Y-88723080D01*
X175960500Y-88441920D02*
X175960500Y-88723080D01*
%TO.C,C22*%
X169480000Y-88441920D02*
X169480000Y-88723080D01*
X170500000Y-88441920D02*
X170500000Y-88723080D01*
%TO.C,C20*%
X164019500Y-88441920D02*
X164019500Y-88723080D01*
X165039500Y-88441920D02*
X165039500Y-88723080D01*
%TO.C,C18*%
X158686000Y-88441920D02*
X158686000Y-88723080D01*
X159706000Y-88441920D02*
X159706000Y-88723080D01*
%TO.C,C16*%
X153352500Y-88441920D02*
X153352500Y-88723080D01*
X154372500Y-88441920D02*
X154372500Y-88723080D01*
%TO.C,C14*%
X148019000Y-88441920D02*
X148019000Y-88723080D01*
X149039000Y-88441920D02*
X149039000Y-88723080D01*
%TO.C,C12*%
X161784420Y-113794000D02*
X162065580Y-113794000D01*
X161784420Y-112774000D02*
X162065580Y-112774000D01*
%TO.C,C11*%
X145809580Y-99820000D02*
X145528420Y-99820000D01*
X145809580Y-100840000D02*
X145528420Y-100840000D01*
%TO.C,C10*%
X142622000Y-88441920D02*
X142622000Y-88723080D01*
X143642000Y-88441920D02*
X143642000Y-88723080D01*
%TO.C,C8*%
X137288500Y-88441920D02*
X137288500Y-88723080D01*
X138308500Y-88441920D02*
X138308500Y-88723080D01*
%TO.C,C6*%
X132018500Y-88441920D02*
X132018500Y-88723080D01*
X133038500Y-88441920D02*
X133038500Y-88723080D01*
%TO.C,C4*%
X126748000Y-88441920D02*
X126748000Y-88723080D01*
X127768000Y-88441920D02*
X127768000Y-88723080D01*
%TO.C,C2*%
X153874080Y-117409500D02*
X153592920Y-117409500D01*
X153874080Y-118429500D02*
X153592920Y-118429500D01*
%TO.C,C1*%
X154001080Y-99820000D02*
X153719920Y-99820000D01*
X154001080Y-100840000D02*
X153719920Y-100840000D01*
%TO.C,U2*%
D10*
X153479547Y-112121190D02*
X153479547Y-112525952D01*
X153503357Y-112573571D01*
X153527166Y-112597380D01*
X153574785Y-112621190D01*
X153670023Y-112621190D01*
X153717642Y-112597380D01*
X153741452Y-112573571D01*
X153765261Y-112525952D01*
X153765261Y-112121190D01*
X153979547Y-112168809D02*
X154003357Y-112145000D01*
X154050976Y-112121190D01*
X154170023Y-112121190D01*
X154217642Y-112145000D01*
X154241452Y-112168809D01*
X154265261Y-112216428D01*
X154265261Y-112264047D01*
X154241452Y-112335476D01*
X153955738Y-112621190D01*
X154265261Y-112621190D01*
D11*
X151244300Y-100049080D02*
X151244300Y-100287176D01*
X151006204Y-100191938D02*
X151244300Y-100287176D01*
X151482395Y-100191938D01*
X151101442Y-100477652D02*
X151244300Y-100287176D01*
X151387157Y-100477652D01*
X151244300Y-100049080D02*
X151244300Y-100287176D01*
X151006204Y-100191938D02*
X151244300Y-100287176D01*
X151482395Y-100191938D01*
X151101442Y-100477652D02*
X151244300Y-100287176D01*
X151387157Y-100477652D01*
%TO.C,R30*%
D10*
X134298571Y-117891690D02*
X134131904Y-117653595D01*
X134012857Y-117891690D02*
X134012857Y-117391690D01*
X134203333Y-117391690D01*
X134250952Y-117415500D01*
X134274761Y-117439309D01*
X134298571Y-117486928D01*
X134298571Y-117558357D01*
X134274761Y-117605976D01*
X134250952Y-117629785D01*
X134203333Y-117653595D01*
X134012857Y-117653595D01*
X134465238Y-117391690D02*
X134774761Y-117391690D01*
X134608095Y-117582166D01*
X134679523Y-117582166D01*
X134727142Y-117605976D01*
X134750952Y-117629785D01*
X134774761Y-117677404D01*
X134774761Y-117796452D01*
X134750952Y-117844071D01*
X134727142Y-117867880D01*
X134679523Y-117891690D01*
X134536666Y-117891690D01*
X134489047Y-117867880D01*
X134465238Y-117844071D01*
X135084285Y-117391690D02*
X135131904Y-117391690D01*
X135179523Y-117415500D01*
X135203333Y-117439309D01*
X135227142Y-117486928D01*
X135250952Y-117582166D01*
X135250952Y-117701214D01*
X135227142Y-117796452D01*
X135203333Y-117844071D01*
X135179523Y-117867880D01*
X135131904Y-117891690D01*
X135084285Y-117891690D01*
X135036666Y-117867880D01*
X135012857Y-117844071D01*
X134989047Y-117796452D01*
X134965238Y-117701214D01*
X134965238Y-117582166D01*
X134989047Y-117486928D01*
X135012857Y-117439309D01*
X135036666Y-117415500D01*
X135084285Y-117391690D01*
%TO.C,R29*%
X134298571Y-115351690D02*
X134131904Y-115113595D01*
X134012857Y-115351690D02*
X134012857Y-114851690D01*
X134203333Y-114851690D01*
X134250952Y-114875500D01*
X134274761Y-114899309D01*
X134298571Y-114946928D01*
X134298571Y-115018357D01*
X134274761Y-115065976D01*
X134250952Y-115089785D01*
X134203333Y-115113595D01*
X134012857Y-115113595D01*
X134489047Y-114899309D02*
X134512857Y-114875500D01*
X134560476Y-114851690D01*
X134679523Y-114851690D01*
X134727142Y-114875500D01*
X134750952Y-114899309D01*
X134774761Y-114946928D01*
X134774761Y-114994547D01*
X134750952Y-115065976D01*
X134465238Y-115351690D01*
X134774761Y-115351690D01*
X135012857Y-115351690D02*
X135108095Y-115351690D01*
X135155714Y-115327880D01*
X135179523Y-115304071D01*
X135227142Y-115232642D01*
X135250952Y-115137404D01*
X135250952Y-114946928D01*
X135227142Y-114899309D01*
X135203333Y-114875500D01*
X135155714Y-114851690D01*
X135060476Y-114851690D01*
X135012857Y-114875500D01*
X134989047Y-114899309D01*
X134965238Y-114946928D01*
X134965238Y-115065976D01*
X134989047Y-115113595D01*
X135012857Y-115137404D01*
X135060476Y-115161214D01*
X135155714Y-115161214D01*
X135203333Y-115137404D01*
X135227142Y-115113595D01*
X135250952Y-115065976D01*
%TO.C,R28*%
X173097071Y-122971690D02*
X172930404Y-122733595D01*
X172811357Y-122971690D02*
X172811357Y-122471690D01*
X173001833Y-122471690D01*
X173049452Y-122495500D01*
X173073261Y-122519309D01*
X173097071Y-122566928D01*
X173097071Y-122638357D01*
X173073261Y-122685976D01*
X173049452Y-122709785D01*
X173001833Y-122733595D01*
X172811357Y-122733595D01*
X173287547Y-122519309D02*
X173311357Y-122495500D01*
X173358976Y-122471690D01*
X173478023Y-122471690D01*
X173525642Y-122495500D01*
X173549452Y-122519309D01*
X173573261Y-122566928D01*
X173573261Y-122614547D01*
X173549452Y-122685976D01*
X173263738Y-122971690D01*
X173573261Y-122971690D01*
X173858976Y-122685976D02*
X173811357Y-122662166D01*
X173787547Y-122638357D01*
X173763738Y-122590738D01*
X173763738Y-122566928D01*
X173787547Y-122519309D01*
X173811357Y-122495500D01*
X173858976Y-122471690D01*
X173954214Y-122471690D01*
X174001833Y-122495500D01*
X174025642Y-122519309D01*
X174049452Y-122566928D01*
X174049452Y-122590738D01*
X174025642Y-122638357D01*
X174001833Y-122662166D01*
X173954214Y-122685976D01*
X173858976Y-122685976D01*
X173811357Y-122709785D01*
X173787547Y-122733595D01*
X173763738Y-122781214D01*
X173763738Y-122876452D01*
X173787547Y-122924071D01*
X173811357Y-122947880D01*
X173858976Y-122971690D01*
X173954214Y-122971690D01*
X174001833Y-122947880D01*
X174025642Y-122924071D01*
X174049452Y-122876452D01*
X174049452Y-122781214D01*
X174025642Y-122733595D01*
X174001833Y-122709785D01*
X173954214Y-122685976D01*
%TO.C,R27*%
X173097071Y-125511690D02*
X172930404Y-125273595D01*
X172811357Y-125511690D02*
X172811357Y-125011690D01*
X173001833Y-125011690D01*
X173049452Y-125035500D01*
X173073261Y-125059309D01*
X173097071Y-125106928D01*
X173097071Y-125178357D01*
X173073261Y-125225976D01*
X173049452Y-125249785D01*
X173001833Y-125273595D01*
X172811357Y-125273595D01*
X173287547Y-125059309D02*
X173311357Y-125035500D01*
X173358976Y-125011690D01*
X173478023Y-125011690D01*
X173525642Y-125035500D01*
X173549452Y-125059309D01*
X173573261Y-125106928D01*
X173573261Y-125154547D01*
X173549452Y-125225976D01*
X173263738Y-125511690D01*
X173573261Y-125511690D01*
X173739928Y-125011690D02*
X174073261Y-125011690D01*
X173858976Y-125511690D01*
%TO.C,R25*%
X173097071Y-120431690D02*
X172930404Y-120193595D01*
X172811357Y-120431690D02*
X172811357Y-119931690D01*
X173001833Y-119931690D01*
X173049452Y-119955500D01*
X173073261Y-119979309D01*
X173097071Y-120026928D01*
X173097071Y-120098357D01*
X173073261Y-120145976D01*
X173049452Y-120169785D01*
X173001833Y-120193595D01*
X172811357Y-120193595D01*
X173287547Y-119979309D02*
X173311357Y-119955500D01*
X173358976Y-119931690D01*
X173478023Y-119931690D01*
X173525642Y-119955500D01*
X173549452Y-119979309D01*
X173573261Y-120026928D01*
X173573261Y-120074547D01*
X173549452Y-120145976D01*
X173263738Y-120431690D01*
X173573261Y-120431690D01*
X174025642Y-119931690D02*
X173787547Y-119931690D01*
X173763738Y-120169785D01*
X173787547Y-120145976D01*
X173835166Y-120122166D01*
X173954214Y-120122166D01*
X174001833Y-120145976D01*
X174025642Y-120169785D01*
X174049452Y-120217404D01*
X174049452Y-120336452D01*
X174025642Y-120384071D01*
X174001833Y-120407880D01*
X173954214Y-120431690D01*
X173835166Y-120431690D01*
X173787547Y-120407880D01*
X173763738Y-120384071D01*
%TO.C,U1*%
X151300690Y-115252452D02*
X151705452Y-115252452D01*
X151753071Y-115228642D01*
X151776880Y-115204833D01*
X151800690Y-115157214D01*
X151800690Y-115061976D01*
X151776880Y-115014357D01*
X151753071Y-114990547D01*
X151705452Y-114966738D01*
X151300690Y-114966738D01*
X151800690Y-114466738D02*
X151800690Y-114752452D01*
X151800690Y-114609595D02*
X151300690Y-114609595D01*
X151372119Y-114657214D01*
X151419738Y-114704833D01*
X151443547Y-114752452D01*
%TO.C,J5*%
X127341333Y-78510190D02*
X127341333Y-78867333D01*
X127317523Y-78938761D01*
X127269904Y-78986380D01*
X127198476Y-79010190D01*
X127150857Y-79010190D01*
X127817523Y-78510190D02*
X127579428Y-78510190D01*
X127555619Y-78748285D01*
X127579428Y-78724476D01*
X127627047Y-78700666D01*
X127746095Y-78700666D01*
X127793714Y-78724476D01*
X127817523Y-78748285D01*
X127841333Y-78795904D01*
X127841333Y-78914952D01*
X127817523Y-78962571D01*
X127793714Y-78986380D01*
X127746095Y-79010190D01*
X127627047Y-79010190D01*
X127579428Y-78986380D01*
X127555619Y-78962571D01*
%TO.C,J4*%
X179347833Y-72453190D02*
X179347833Y-72810333D01*
X179324023Y-72881761D01*
X179276404Y-72929380D01*
X179204976Y-72953190D01*
X179157357Y-72953190D01*
X179800214Y-72619857D02*
X179800214Y-72953190D01*
X179681166Y-72429380D02*
X179562119Y-72786523D01*
X179871642Y-72786523D01*
%TO.C,FB1*%
X134203333Y-107439285D02*
X134036666Y-107439285D01*
X134036666Y-107701190D02*
X134036666Y-107201190D01*
X134274761Y-107201190D01*
X134631904Y-107439285D02*
X134703333Y-107463095D01*
X134727142Y-107486904D01*
X134750952Y-107534523D01*
X134750952Y-107605952D01*
X134727142Y-107653571D01*
X134703333Y-107677380D01*
X134655714Y-107701190D01*
X134465238Y-107701190D01*
X134465238Y-107201190D01*
X134631904Y-107201190D01*
X134679523Y-107225000D01*
X134703333Y-107248809D01*
X134727142Y-107296428D01*
X134727142Y-107344047D01*
X134703333Y-107391666D01*
X134679523Y-107415476D01*
X134631904Y-107439285D01*
X134465238Y-107439285D01*
X135227142Y-107701190D02*
X134941428Y-107701190D01*
X135084285Y-107701190D02*
X135084285Y-107201190D01*
X135036666Y-107272619D01*
X134989047Y-107320238D01*
X134941428Y-107344047D01*
%TO.C,U15*%
X131143452Y-74402190D02*
X131143452Y-74806952D01*
X131167261Y-74854571D01*
X131191071Y-74878380D01*
X131238690Y-74902190D01*
X131333928Y-74902190D01*
X131381547Y-74878380D01*
X131405357Y-74854571D01*
X131429166Y-74806952D01*
X131429166Y-74402190D01*
X131929166Y-74902190D02*
X131643452Y-74902190D01*
X131786309Y-74902190D02*
X131786309Y-74402190D01*
X131738690Y-74473619D01*
X131691071Y-74521238D01*
X131643452Y-74545047D01*
X132381547Y-74402190D02*
X132143452Y-74402190D01*
X132119642Y-74640285D01*
X132143452Y-74616476D01*
X132191071Y-74592666D01*
X132310119Y-74592666D01*
X132357738Y-74616476D01*
X132381547Y-74640285D01*
X132405357Y-74687904D01*
X132405357Y-74806952D01*
X132381547Y-74854571D01*
X132357738Y-74878380D01*
X132310119Y-74902190D01*
X132191071Y-74902190D01*
X132143452Y-74878380D01*
X132119642Y-74854571D01*
%TO.C,U14*%
X129242452Y-93833190D02*
X129242452Y-94237952D01*
X129266261Y-94285571D01*
X129290071Y-94309380D01*
X129337690Y-94333190D01*
X129432928Y-94333190D01*
X129480547Y-94309380D01*
X129504357Y-94285571D01*
X129528166Y-94237952D01*
X129528166Y-93833190D01*
X130028166Y-94333190D02*
X129742452Y-94333190D01*
X129885309Y-94333190D02*
X129885309Y-93833190D01*
X129837690Y-93904619D01*
X129790071Y-93952238D01*
X129742452Y-93976047D01*
X130456738Y-93999857D02*
X130456738Y-94333190D01*
X130337690Y-93809380D02*
X130218642Y-94166523D01*
X130528166Y-94166523D01*
%TO.C,U13*%
X134512952Y-93833190D02*
X134512952Y-94237952D01*
X134536761Y-94285571D01*
X134560571Y-94309380D01*
X134608190Y-94333190D01*
X134703428Y-94333190D01*
X134751047Y-94309380D01*
X134774857Y-94285571D01*
X134798666Y-94237952D01*
X134798666Y-93833190D01*
X135298666Y-94333190D02*
X135012952Y-94333190D01*
X135155809Y-94333190D02*
X135155809Y-93833190D01*
X135108190Y-93904619D01*
X135060571Y-93952238D01*
X135012952Y-93976047D01*
X135465333Y-93833190D02*
X135774857Y-93833190D01*
X135608190Y-94023666D01*
X135679619Y-94023666D01*
X135727238Y-94047476D01*
X135751047Y-94071285D01*
X135774857Y-94118904D01*
X135774857Y-94237952D01*
X135751047Y-94285571D01*
X135727238Y-94309380D01*
X135679619Y-94333190D01*
X135536761Y-94333190D01*
X135489142Y-94309380D01*
X135465333Y-94285571D01*
%TO.C,U12*%
X139846452Y-93833190D02*
X139846452Y-94237952D01*
X139870261Y-94285571D01*
X139894071Y-94309380D01*
X139941690Y-94333190D01*
X140036928Y-94333190D01*
X140084547Y-94309380D01*
X140108357Y-94285571D01*
X140132166Y-94237952D01*
X140132166Y-93833190D01*
X140632166Y-94333190D02*
X140346452Y-94333190D01*
X140489309Y-94333190D02*
X140489309Y-93833190D01*
X140441690Y-93904619D01*
X140394071Y-93952238D01*
X140346452Y-93976047D01*
X140822642Y-93880809D02*
X140846452Y-93857000D01*
X140894071Y-93833190D01*
X141013119Y-93833190D01*
X141060738Y-93857000D01*
X141084547Y-93880809D01*
X141108357Y-93928428D01*
X141108357Y-93976047D01*
X141084547Y-94047476D01*
X140798833Y-94333190D01*
X141108357Y-94333190D01*
%TO.C,U11*%
X145243452Y-93833190D02*
X145243452Y-94237952D01*
X145267261Y-94285571D01*
X145291071Y-94309380D01*
X145338690Y-94333190D01*
X145433928Y-94333190D01*
X145481547Y-94309380D01*
X145505357Y-94285571D01*
X145529166Y-94237952D01*
X145529166Y-93833190D01*
X146029166Y-94333190D02*
X145743452Y-94333190D01*
X145886309Y-94333190D02*
X145886309Y-93833190D01*
X145838690Y-93904619D01*
X145791071Y-93952238D01*
X145743452Y-93976047D01*
X146505357Y-94333190D02*
X146219642Y-94333190D01*
X146362500Y-94333190D02*
X146362500Y-93833190D01*
X146314880Y-93904619D01*
X146267261Y-93952238D01*
X146219642Y-93976047D01*
%TO.C,U10*%
X150576952Y-93833190D02*
X150576952Y-94237952D01*
X150600761Y-94285571D01*
X150624571Y-94309380D01*
X150672190Y-94333190D01*
X150767428Y-94333190D01*
X150815047Y-94309380D01*
X150838857Y-94285571D01*
X150862666Y-94237952D01*
X150862666Y-93833190D01*
X151362666Y-94333190D02*
X151076952Y-94333190D01*
X151219809Y-94333190D02*
X151219809Y-93833190D01*
X151172190Y-93904619D01*
X151124571Y-93952238D01*
X151076952Y-93976047D01*
X151672190Y-93833190D02*
X151719809Y-93833190D01*
X151767428Y-93857000D01*
X151791238Y-93880809D01*
X151815047Y-93928428D01*
X151838857Y-94023666D01*
X151838857Y-94142714D01*
X151815047Y-94237952D01*
X151791238Y-94285571D01*
X151767428Y-94309380D01*
X151719809Y-94333190D01*
X151672190Y-94333190D01*
X151624571Y-94309380D01*
X151600761Y-94285571D01*
X151576952Y-94237952D01*
X151553142Y-94142714D01*
X151553142Y-94023666D01*
X151576952Y-93928428D01*
X151600761Y-93880809D01*
X151624571Y-93857000D01*
X151672190Y-93833190D01*
%TO.C,U9*%
X156148547Y-93833190D02*
X156148547Y-94237952D01*
X156172357Y-94285571D01*
X156196166Y-94309380D01*
X156243785Y-94333190D01*
X156339023Y-94333190D01*
X156386642Y-94309380D01*
X156410452Y-94285571D01*
X156434261Y-94237952D01*
X156434261Y-93833190D01*
X156696166Y-94333190D02*
X156791404Y-94333190D01*
X156839023Y-94309380D01*
X156862833Y-94285571D01*
X156910452Y-94214142D01*
X156934261Y-94118904D01*
X156934261Y-93928428D01*
X156910452Y-93880809D01*
X156886642Y-93857000D01*
X156839023Y-93833190D01*
X156743785Y-93833190D01*
X156696166Y-93857000D01*
X156672357Y-93880809D01*
X156648547Y-93928428D01*
X156648547Y-94047476D01*
X156672357Y-94095095D01*
X156696166Y-94118904D01*
X156743785Y-94142714D01*
X156839023Y-94142714D01*
X156886642Y-94118904D01*
X156910452Y-94095095D01*
X156934261Y-94047476D01*
%TO.C,U8*%
X161482047Y-93833190D02*
X161482047Y-94237952D01*
X161505857Y-94285571D01*
X161529666Y-94309380D01*
X161577285Y-94333190D01*
X161672523Y-94333190D01*
X161720142Y-94309380D01*
X161743952Y-94285571D01*
X161767761Y-94237952D01*
X161767761Y-93833190D01*
X162077285Y-94047476D02*
X162029666Y-94023666D01*
X162005857Y-93999857D01*
X161982047Y-93952238D01*
X161982047Y-93928428D01*
X162005857Y-93880809D01*
X162029666Y-93857000D01*
X162077285Y-93833190D01*
X162172523Y-93833190D01*
X162220142Y-93857000D01*
X162243952Y-93880809D01*
X162267761Y-93928428D01*
X162267761Y-93952238D01*
X162243952Y-93999857D01*
X162220142Y-94023666D01*
X162172523Y-94047476D01*
X162077285Y-94047476D01*
X162029666Y-94071285D01*
X162005857Y-94095095D01*
X161982047Y-94142714D01*
X161982047Y-94237952D01*
X162005857Y-94285571D01*
X162029666Y-94309380D01*
X162077285Y-94333190D01*
X162172523Y-94333190D01*
X162220142Y-94309380D01*
X162243952Y-94285571D01*
X162267761Y-94237952D01*
X162267761Y-94142714D01*
X162243952Y-94095095D01*
X162220142Y-94071285D01*
X162172523Y-94047476D01*
%TO.C,U7*%
X166879047Y-93833190D02*
X166879047Y-94237952D01*
X166902857Y-94285571D01*
X166926666Y-94309380D01*
X166974285Y-94333190D01*
X167069523Y-94333190D01*
X167117142Y-94309380D01*
X167140952Y-94285571D01*
X167164761Y-94237952D01*
X167164761Y-93833190D01*
X167355238Y-93833190D02*
X167688571Y-93833190D01*
X167474285Y-94333190D01*
%TO.C,U6*%
X172339547Y-93833190D02*
X172339547Y-94237952D01*
X172363357Y-94285571D01*
X172387166Y-94309380D01*
X172434785Y-94333190D01*
X172530023Y-94333190D01*
X172577642Y-94309380D01*
X172601452Y-94285571D01*
X172625261Y-94237952D01*
X172625261Y-93833190D01*
X173077642Y-93833190D02*
X172982404Y-93833190D01*
X172934785Y-93857000D01*
X172910976Y-93880809D01*
X172863357Y-93952238D01*
X172839547Y-94047476D01*
X172839547Y-94237952D01*
X172863357Y-94285571D01*
X172887166Y-94309380D01*
X172934785Y-94333190D01*
X173030023Y-94333190D01*
X173077642Y-94309380D01*
X173101452Y-94285571D01*
X173125261Y-94237952D01*
X173125261Y-94118904D01*
X173101452Y-94071285D01*
X173077642Y-94047476D01*
X173030023Y-94023666D01*
X172934785Y-94023666D01*
X172887166Y-94047476D01*
X172863357Y-94071285D01*
X172839547Y-94118904D01*
%TO.C,U5*%
X177800047Y-93833190D02*
X177800047Y-94237952D01*
X177823857Y-94285571D01*
X177847666Y-94309380D01*
X177895285Y-94333190D01*
X177990523Y-94333190D01*
X178038142Y-94309380D01*
X178061952Y-94285571D01*
X178085761Y-94237952D01*
X178085761Y-93833190D01*
X178561952Y-93833190D02*
X178323857Y-93833190D01*
X178300047Y-94071285D01*
X178323857Y-94047476D01*
X178371476Y-94023666D01*
X178490523Y-94023666D01*
X178538142Y-94047476D01*
X178561952Y-94071285D01*
X178585761Y-94118904D01*
X178585761Y-94237952D01*
X178561952Y-94285571D01*
X178538142Y-94309380D01*
X178490523Y-94333190D01*
X178371476Y-94333190D01*
X178323857Y-94309380D01*
X178300047Y-94285571D01*
%TO.C,U4*%
X145288047Y-112057690D02*
X145288047Y-112462452D01*
X145311857Y-112510071D01*
X145335666Y-112533880D01*
X145383285Y-112557690D01*
X145478523Y-112557690D01*
X145526142Y-112533880D01*
X145549952Y-112510071D01*
X145573761Y-112462452D01*
X145573761Y-112057690D01*
X146026142Y-112224357D02*
X146026142Y-112557690D01*
X145907095Y-112033880D02*
X145788047Y-112391023D01*
X146097571Y-112391023D01*
%TO.C,U3*%
X161544047Y-100881690D02*
X161544047Y-101286452D01*
X161567857Y-101334071D01*
X161591666Y-101357880D01*
X161639285Y-101381690D01*
X161734523Y-101381690D01*
X161782142Y-101357880D01*
X161805952Y-101334071D01*
X161829761Y-101286452D01*
X161829761Y-100881690D01*
X162020238Y-100881690D02*
X162329761Y-100881690D01*
X162163095Y-101072166D01*
X162234523Y-101072166D01*
X162282142Y-101095976D01*
X162305952Y-101119785D01*
X162329761Y-101167404D01*
X162329761Y-101286452D01*
X162305952Y-101334071D01*
X162282142Y-101357880D01*
X162234523Y-101381690D01*
X162091666Y-101381690D01*
X162044047Y-101357880D01*
X162020238Y-101334071D01*
%TO.C,R26*%
X130298071Y-82014190D02*
X130131404Y-81776095D01*
X130012357Y-82014190D02*
X130012357Y-81514190D01*
X130202833Y-81514190D01*
X130250452Y-81538000D01*
X130274261Y-81561809D01*
X130298071Y-81609428D01*
X130298071Y-81680857D01*
X130274261Y-81728476D01*
X130250452Y-81752285D01*
X130202833Y-81776095D01*
X130012357Y-81776095D01*
X130488547Y-81561809D02*
X130512357Y-81538000D01*
X130559976Y-81514190D01*
X130679023Y-81514190D01*
X130726642Y-81538000D01*
X130750452Y-81561809D01*
X130774261Y-81609428D01*
X130774261Y-81657047D01*
X130750452Y-81728476D01*
X130464738Y-82014190D01*
X130774261Y-82014190D01*
X131202833Y-81514190D02*
X131107595Y-81514190D01*
X131059976Y-81538000D01*
X131036166Y-81561809D01*
X130988547Y-81633238D01*
X130964738Y-81728476D01*
X130964738Y-81918952D01*
X130988547Y-81966571D01*
X131012357Y-81990380D01*
X131059976Y-82014190D01*
X131155214Y-82014190D01*
X131202833Y-81990380D01*
X131226642Y-81966571D01*
X131250452Y-81918952D01*
X131250452Y-81799904D01*
X131226642Y-81752285D01*
X131202833Y-81728476D01*
X131155214Y-81704666D01*
X131059976Y-81704666D01*
X131012357Y-81728476D01*
X130988547Y-81752285D01*
X130964738Y-81799904D01*
%TO.C,R24*%
X132584071Y-82014190D02*
X132417404Y-81776095D01*
X132298357Y-82014190D02*
X132298357Y-81514190D01*
X132488833Y-81514190D01*
X132536452Y-81538000D01*
X132560261Y-81561809D01*
X132584071Y-81609428D01*
X132584071Y-81680857D01*
X132560261Y-81728476D01*
X132536452Y-81752285D01*
X132488833Y-81776095D01*
X132298357Y-81776095D01*
X132774547Y-81561809D02*
X132798357Y-81538000D01*
X132845976Y-81514190D01*
X132965023Y-81514190D01*
X133012642Y-81538000D01*
X133036452Y-81561809D01*
X133060261Y-81609428D01*
X133060261Y-81657047D01*
X133036452Y-81728476D01*
X132750738Y-82014190D01*
X133060261Y-82014190D01*
X133488833Y-81680857D02*
X133488833Y-82014190D01*
X133369785Y-81490380D02*
X133250738Y-81847523D01*
X133560261Y-81847523D01*
%TO.C,R23*%
X130302071Y-83538190D02*
X130135404Y-83300095D01*
X130016357Y-83538190D02*
X130016357Y-83038190D01*
X130206833Y-83038190D01*
X130254452Y-83062000D01*
X130278261Y-83085809D01*
X130302071Y-83133428D01*
X130302071Y-83204857D01*
X130278261Y-83252476D01*
X130254452Y-83276285D01*
X130206833Y-83300095D01*
X130016357Y-83300095D01*
X130492547Y-83085809D02*
X130516357Y-83062000D01*
X130563976Y-83038190D01*
X130683023Y-83038190D01*
X130730642Y-83062000D01*
X130754452Y-83085809D01*
X130778261Y-83133428D01*
X130778261Y-83181047D01*
X130754452Y-83252476D01*
X130468738Y-83538190D01*
X130778261Y-83538190D01*
X130944928Y-83038190D02*
X131254452Y-83038190D01*
X131087785Y-83228666D01*
X131159214Y-83228666D01*
X131206833Y-83252476D01*
X131230642Y-83276285D01*
X131254452Y-83323904D01*
X131254452Y-83442952D01*
X131230642Y-83490571D01*
X131206833Y-83514380D01*
X131159214Y-83538190D01*
X131016357Y-83538190D01*
X130968738Y-83514380D01*
X130944928Y-83490571D01*
%TO.C,R22*%
X128778071Y-83538190D02*
X128611404Y-83300095D01*
X128492357Y-83538190D02*
X128492357Y-83038190D01*
X128682833Y-83038190D01*
X128730452Y-83062000D01*
X128754261Y-83085809D01*
X128778071Y-83133428D01*
X128778071Y-83204857D01*
X128754261Y-83252476D01*
X128730452Y-83276285D01*
X128682833Y-83300095D01*
X128492357Y-83300095D01*
X128968547Y-83085809D02*
X128992357Y-83062000D01*
X129039976Y-83038190D01*
X129159023Y-83038190D01*
X129206642Y-83062000D01*
X129230452Y-83085809D01*
X129254261Y-83133428D01*
X129254261Y-83181047D01*
X129230452Y-83252476D01*
X128944738Y-83538190D01*
X129254261Y-83538190D01*
X129444738Y-83085809D02*
X129468547Y-83062000D01*
X129516166Y-83038190D01*
X129635214Y-83038190D01*
X129682833Y-83062000D01*
X129706642Y-83085809D01*
X129730452Y-83133428D01*
X129730452Y-83181047D01*
X129706642Y-83252476D01*
X129420928Y-83538190D01*
X129730452Y-83538190D01*
%TO.C,R21*%
X135572571Y-83538190D02*
X135405904Y-83300095D01*
X135286857Y-83538190D02*
X135286857Y-83038190D01*
X135477333Y-83038190D01*
X135524952Y-83062000D01*
X135548761Y-83085809D01*
X135572571Y-83133428D01*
X135572571Y-83204857D01*
X135548761Y-83252476D01*
X135524952Y-83276285D01*
X135477333Y-83300095D01*
X135286857Y-83300095D01*
X135763047Y-83085809D02*
X135786857Y-83062000D01*
X135834476Y-83038190D01*
X135953523Y-83038190D01*
X136001142Y-83062000D01*
X136024952Y-83085809D01*
X136048761Y-83133428D01*
X136048761Y-83181047D01*
X136024952Y-83252476D01*
X135739238Y-83538190D01*
X136048761Y-83538190D01*
X136524952Y-83538190D02*
X136239238Y-83538190D01*
X136382095Y-83538190D02*
X136382095Y-83038190D01*
X136334476Y-83109619D01*
X136286857Y-83157238D01*
X136239238Y-83181047D01*
%TO.C,R20*%
X134048571Y-83538190D02*
X133881904Y-83300095D01*
X133762857Y-83538190D02*
X133762857Y-83038190D01*
X133953333Y-83038190D01*
X134000952Y-83062000D01*
X134024761Y-83085809D01*
X134048571Y-83133428D01*
X134048571Y-83204857D01*
X134024761Y-83252476D01*
X134000952Y-83276285D01*
X133953333Y-83300095D01*
X133762857Y-83300095D01*
X134239047Y-83085809D02*
X134262857Y-83062000D01*
X134310476Y-83038190D01*
X134429523Y-83038190D01*
X134477142Y-83062000D01*
X134500952Y-83085809D01*
X134524761Y-83133428D01*
X134524761Y-83181047D01*
X134500952Y-83252476D01*
X134215238Y-83538190D01*
X134524761Y-83538190D01*
X134834285Y-83038190D02*
X134881904Y-83038190D01*
X134929523Y-83062000D01*
X134953333Y-83085809D01*
X134977142Y-83133428D01*
X135000952Y-83228666D01*
X135000952Y-83347714D01*
X134977142Y-83442952D01*
X134953333Y-83490571D01*
X134929523Y-83514380D01*
X134881904Y-83538190D01*
X134834285Y-83538190D01*
X134786666Y-83514380D01*
X134762857Y-83490571D01*
X134739047Y-83442952D01*
X134715238Y-83347714D01*
X134715238Y-83228666D01*
X134739047Y-83133428D01*
X134762857Y-83085809D01*
X134786666Y-83062000D01*
X134834285Y-83038190D01*
%TO.C,R19*%
X140906071Y-83538190D02*
X140739404Y-83300095D01*
X140620357Y-83538190D02*
X140620357Y-83038190D01*
X140810833Y-83038190D01*
X140858452Y-83062000D01*
X140882261Y-83085809D01*
X140906071Y-83133428D01*
X140906071Y-83204857D01*
X140882261Y-83252476D01*
X140858452Y-83276285D01*
X140810833Y-83300095D01*
X140620357Y-83300095D01*
X141382261Y-83538190D02*
X141096547Y-83538190D01*
X141239404Y-83538190D02*
X141239404Y-83038190D01*
X141191785Y-83109619D01*
X141144166Y-83157238D01*
X141096547Y-83181047D01*
X141620357Y-83538190D02*
X141715595Y-83538190D01*
X141763214Y-83514380D01*
X141787023Y-83490571D01*
X141834642Y-83419142D01*
X141858452Y-83323904D01*
X141858452Y-83133428D01*
X141834642Y-83085809D01*
X141810833Y-83062000D01*
X141763214Y-83038190D01*
X141667976Y-83038190D01*
X141620357Y-83062000D01*
X141596547Y-83085809D01*
X141572738Y-83133428D01*
X141572738Y-83252476D01*
X141596547Y-83300095D01*
X141620357Y-83323904D01*
X141667976Y-83347714D01*
X141763214Y-83347714D01*
X141810833Y-83323904D01*
X141834642Y-83300095D01*
X141858452Y-83252476D01*
%TO.C,R18*%
X139382071Y-83538190D02*
X139215404Y-83300095D01*
X139096357Y-83538190D02*
X139096357Y-83038190D01*
X139286833Y-83038190D01*
X139334452Y-83062000D01*
X139358261Y-83085809D01*
X139382071Y-83133428D01*
X139382071Y-83204857D01*
X139358261Y-83252476D01*
X139334452Y-83276285D01*
X139286833Y-83300095D01*
X139096357Y-83300095D01*
X139858261Y-83538190D02*
X139572547Y-83538190D01*
X139715404Y-83538190D02*
X139715404Y-83038190D01*
X139667785Y-83109619D01*
X139620166Y-83157238D01*
X139572547Y-83181047D01*
X140143976Y-83252476D02*
X140096357Y-83228666D01*
X140072547Y-83204857D01*
X140048738Y-83157238D01*
X140048738Y-83133428D01*
X140072547Y-83085809D01*
X140096357Y-83062000D01*
X140143976Y-83038190D01*
X140239214Y-83038190D01*
X140286833Y-83062000D01*
X140310642Y-83085809D01*
X140334452Y-83133428D01*
X140334452Y-83157238D01*
X140310642Y-83204857D01*
X140286833Y-83228666D01*
X140239214Y-83252476D01*
X140143976Y-83252476D01*
X140096357Y-83276285D01*
X140072547Y-83300095D01*
X140048738Y-83347714D01*
X140048738Y-83442952D01*
X140072547Y-83490571D01*
X140096357Y-83514380D01*
X140143976Y-83538190D01*
X140239214Y-83538190D01*
X140286833Y-83514380D01*
X140310642Y-83490571D01*
X140334452Y-83442952D01*
X140334452Y-83347714D01*
X140310642Y-83300095D01*
X140286833Y-83276285D01*
X140239214Y-83252476D01*
%TO.C,R17*%
X146303071Y-83538190D02*
X146136404Y-83300095D01*
X146017357Y-83538190D02*
X146017357Y-83038190D01*
X146207833Y-83038190D01*
X146255452Y-83062000D01*
X146279261Y-83085809D01*
X146303071Y-83133428D01*
X146303071Y-83204857D01*
X146279261Y-83252476D01*
X146255452Y-83276285D01*
X146207833Y-83300095D01*
X146017357Y-83300095D01*
X146779261Y-83538190D02*
X146493547Y-83538190D01*
X146636404Y-83538190D02*
X146636404Y-83038190D01*
X146588785Y-83109619D01*
X146541166Y-83157238D01*
X146493547Y-83181047D01*
X146945928Y-83038190D02*
X147279261Y-83038190D01*
X147064976Y-83538190D01*
%TO.C,R16*%
X144779071Y-83538190D02*
X144612404Y-83300095D01*
X144493357Y-83538190D02*
X144493357Y-83038190D01*
X144683833Y-83038190D01*
X144731452Y-83062000D01*
X144755261Y-83085809D01*
X144779071Y-83133428D01*
X144779071Y-83204857D01*
X144755261Y-83252476D01*
X144731452Y-83276285D01*
X144683833Y-83300095D01*
X144493357Y-83300095D01*
X145255261Y-83538190D02*
X144969547Y-83538190D01*
X145112404Y-83538190D02*
X145112404Y-83038190D01*
X145064785Y-83109619D01*
X145017166Y-83157238D01*
X144969547Y-83181047D01*
X145683833Y-83038190D02*
X145588595Y-83038190D01*
X145540976Y-83062000D01*
X145517166Y-83085809D01*
X145469547Y-83157238D01*
X145445738Y-83252476D01*
X145445738Y-83442952D01*
X145469547Y-83490571D01*
X145493357Y-83514380D01*
X145540976Y-83538190D01*
X145636214Y-83538190D01*
X145683833Y-83514380D01*
X145707642Y-83490571D01*
X145731452Y-83442952D01*
X145731452Y-83323904D01*
X145707642Y-83276285D01*
X145683833Y-83252476D01*
X145636214Y-83228666D01*
X145540976Y-83228666D01*
X145493357Y-83252476D01*
X145469547Y-83276285D01*
X145445738Y-83323904D01*
%TO.C,R15*%
X151636571Y-83538190D02*
X151469904Y-83300095D01*
X151350857Y-83538190D02*
X151350857Y-83038190D01*
X151541333Y-83038190D01*
X151588952Y-83062000D01*
X151612761Y-83085809D01*
X151636571Y-83133428D01*
X151636571Y-83204857D01*
X151612761Y-83252476D01*
X151588952Y-83276285D01*
X151541333Y-83300095D01*
X151350857Y-83300095D01*
X152112761Y-83538190D02*
X151827047Y-83538190D01*
X151969904Y-83538190D02*
X151969904Y-83038190D01*
X151922285Y-83109619D01*
X151874666Y-83157238D01*
X151827047Y-83181047D01*
X152565142Y-83038190D02*
X152327047Y-83038190D01*
X152303238Y-83276285D01*
X152327047Y-83252476D01*
X152374666Y-83228666D01*
X152493714Y-83228666D01*
X152541333Y-83252476D01*
X152565142Y-83276285D01*
X152588952Y-83323904D01*
X152588952Y-83442952D01*
X152565142Y-83490571D01*
X152541333Y-83514380D01*
X152493714Y-83538190D01*
X152374666Y-83538190D01*
X152327047Y-83514380D01*
X152303238Y-83490571D01*
%TO.C,R14*%
X150112571Y-83538190D02*
X149945904Y-83300095D01*
X149826857Y-83538190D02*
X149826857Y-83038190D01*
X150017333Y-83038190D01*
X150064952Y-83062000D01*
X150088761Y-83085809D01*
X150112571Y-83133428D01*
X150112571Y-83204857D01*
X150088761Y-83252476D01*
X150064952Y-83276285D01*
X150017333Y-83300095D01*
X149826857Y-83300095D01*
X150588761Y-83538190D02*
X150303047Y-83538190D01*
X150445904Y-83538190D02*
X150445904Y-83038190D01*
X150398285Y-83109619D01*
X150350666Y-83157238D01*
X150303047Y-83181047D01*
X151017333Y-83204857D02*
X151017333Y-83538190D01*
X150898285Y-83014380D02*
X150779238Y-83371523D01*
X151088761Y-83371523D01*
%TO.C,R13*%
X156970071Y-83538190D02*
X156803404Y-83300095D01*
X156684357Y-83538190D02*
X156684357Y-83038190D01*
X156874833Y-83038190D01*
X156922452Y-83062000D01*
X156946261Y-83085809D01*
X156970071Y-83133428D01*
X156970071Y-83204857D01*
X156946261Y-83252476D01*
X156922452Y-83276285D01*
X156874833Y-83300095D01*
X156684357Y-83300095D01*
X157446261Y-83538190D02*
X157160547Y-83538190D01*
X157303404Y-83538190D02*
X157303404Y-83038190D01*
X157255785Y-83109619D01*
X157208166Y-83157238D01*
X157160547Y-83181047D01*
X157612928Y-83038190D02*
X157922452Y-83038190D01*
X157755785Y-83228666D01*
X157827214Y-83228666D01*
X157874833Y-83252476D01*
X157898642Y-83276285D01*
X157922452Y-83323904D01*
X157922452Y-83442952D01*
X157898642Y-83490571D01*
X157874833Y-83514380D01*
X157827214Y-83538190D01*
X157684357Y-83538190D01*
X157636738Y-83514380D01*
X157612928Y-83490571D01*
%TO.C,R12*%
X155446071Y-83538190D02*
X155279404Y-83300095D01*
X155160357Y-83538190D02*
X155160357Y-83038190D01*
X155350833Y-83038190D01*
X155398452Y-83062000D01*
X155422261Y-83085809D01*
X155446071Y-83133428D01*
X155446071Y-83204857D01*
X155422261Y-83252476D01*
X155398452Y-83276285D01*
X155350833Y-83300095D01*
X155160357Y-83300095D01*
X155922261Y-83538190D02*
X155636547Y-83538190D01*
X155779404Y-83538190D02*
X155779404Y-83038190D01*
X155731785Y-83109619D01*
X155684166Y-83157238D01*
X155636547Y-83181047D01*
X156112738Y-83085809D02*
X156136547Y-83062000D01*
X156184166Y-83038190D01*
X156303214Y-83038190D01*
X156350833Y-83062000D01*
X156374642Y-83085809D01*
X156398452Y-83133428D01*
X156398452Y-83181047D01*
X156374642Y-83252476D01*
X156088928Y-83538190D01*
X156398452Y-83538190D01*
%TO.C,R11*%
X162303571Y-83538190D02*
X162136904Y-83300095D01*
X162017857Y-83538190D02*
X162017857Y-83038190D01*
X162208333Y-83038190D01*
X162255952Y-83062000D01*
X162279761Y-83085809D01*
X162303571Y-83133428D01*
X162303571Y-83204857D01*
X162279761Y-83252476D01*
X162255952Y-83276285D01*
X162208333Y-83300095D01*
X162017857Y-83300095D01*
X162779761Y-83538190D02*
X162494047Y-83538190D01*
X162636904Y-83538190D02*
X162636904Y-83038190D01*
X162589285Y-83109619D01*
X162541666Y-83157238D01*
X162494047Y-83181047D01*
X163255952Y-83538190D02*
X162970238Y-83538190D01*
X163113095Y-83538190D02*
X163113095Y-83038190D01*
X163065476Y-83109619D01*
X163017857Y-83157238D01*
X162970238Y-83181047D01*
%TO.C,R10*%
X160779571Y-83538190D02*
X160612904Y-83300095D01*
X160493857Y-83538190D02*
X160493857Y-83038190D01*
X160684333Y-83038190D01*
X160731952Y-83062000D01*
X160755761Y-83085809D01*
X160779571Y-83133428D01*
X160779571Y-83204857D01*
X160755761Y-83252476D01*
X160731952Y-83276285D01*
X160684333Y-83300095D01*
X160493857Y-83300095D01*
X161255761Y-83538190D02*
X160970047Y-83538190D01*
X161112904Y-83538190D02*
X161112904Y-83038190D01*
X161065285Y-83109619D01*
X161017666Y-83157238D01*
X160970047Y-83181047D01*
X161565285Y-83038190D02*
X161612904Y-83038190D01*
X161660523Y-83062000D01*
X161684333Y-83085809D01*
X161708142Y-83133428D01*
X161731952Y-83228666D01*
X161731952Y-83347714D01*
X161708142Y-83442952D01*
X161684333Y-83490571D01*
X161660523Y-83514380D01*
X161612904Y-83538190D01*
X161565285Y-83538190D01*
X161517666Y-83514380D01*
X161493857Y-83490571D01*
X161470047Y-83442952D01*
X161446238Y-83347714D01*
X161446238Y-83228666D01*
X161470047Y-83133428D01*
X161493857Y-83085809D01*
X161517666Y-83062000D01*
X161565285Y-83038190D01*
%TO.C,R9*%
X167938666Y-83538190D02*
X167772000Y-83300095D01*
X167652952Y-83538190D02*
X167652952Y-83038190D01*
X167843428Y-83038190D01*
X167891047Y-83062000D01*
X167914857Y-83085809D01*
X167938666Y-83133428D01*
X167938666Y-83204857D01*
X167914857Y-83252476D01*
X167891047Y-83276285D01*
X167843428Y-83300095D01*
X167652952Y-83300095D01*
X168176761Y-83538190D02*
X168272000Y-83538190D01*
X168319619Y-83514380D01*
X168343428Y-83490571D01*
X168391047Y-83419142D01*
X168414857Y-83323904D01*
X168414857Y-83133428D01*
X168391047Y-83085809D01*
X168367238Y-83062000D01*
X168319619Y-83038190D01*
X168224380Y-83038190D01*
X168176761Y-83062000D01*
X168152952Y-83085809D01*
X168129142Y-83133428D01*
X168129142Y-83252476D01*
X168152952Y-83300095D01*
X168176761Y-83323904D01*
X168224380Y-83347714D01*
X168319619Y-83347714D01*
X168367238Y-83323904D01*
X168391047Y-83300095D01*
X168414857Y-83252476D01*
%TO.C,R8*%
X166414666Y-83538190D02*
X166248000Y-83300095D01*
X166128952Y-83538190D02*
X166128952Y-83038190D01*
X166319428Y-83038190D01*
X166367047Y-83062000D01*
X166390857Y-83085809D01*
X166414666Y-83133428D01*
X166414666Y-83204857D01*
X166390857Y-83252476D01*
X166367047Y-83276285D01*
X166319428Y-83300095D01*
X166128952Y-83300095D01*
X166700380Y-83252476D02*
X166652761Y-83228666D01*
X166628952Y-83204857D01*
X166605142Y-83157238D01*
X166605142Y-83133428D01*
X166628952Y-83085809D01*
X166652761Y-83062000D01*
X166700380Y-83038190D01*
X166795619Y-83038190D01*
X166843238Y-83062000D01*
X166867047Y-83085809D01*
X166890857Y-83133428D01*
X166890857Y-83157238D01*
X166867047Y-83204857D01*
X166843238Y-83228666D01*
X166795619Y-83252476D01*
X166700380Y-83252476D01*
X166652761Y-83276285D01*
X166628952Y-83300095D01*
X166605142Y-83347714D01*
X166605142Y-83442952D01*
X166628952Y-83490571D01*
X166652761Y-83514380D01*
X166700380Y-83538190D01*
X166795619Y-83538190D01*
X166843238Y-83514380D01*
X166867047Y-83490571D01*
X166890857Y-83442952D01*
X166890857Y-83347714D01*
X166867047Y-83300095D01*
X166843238Y-83276285D01*
X166795619Y-83252476D01*
%TO.C,R7*%
X173399166Y-83538190D02*
X173232500Y-83300095D01*
X173113452Y-83538190D02*
X173113452Y-83038190D01*
X173303928Y-83038190D01*
X173351547Y-83062000D01*
X173375357Y-83085809D01*
X173399166Y-83133428D01*
X173399166Y-83204857D01*
X173375357Y-83252476D01*
X173351547Y-83276285D01*
X173303928Y-83300095D01*
X173113452Y-83300095D01*
X173565833Y-83038190D02*
X173899166Y-83038190D01*
X173684880Y-83538190D01*
%TO.C,R6*%
X171875166Y-83538190D02*
X171708500Y-83300095D01*
X171589452Y-83538190D02*
X171589452Y-83038190D01*
X171779928Y-83038190D01*
X171827547Y-83062000D01*
X171851357Y-83085809D01*
X171875166Y-83133428D01*
X171875166Y-83204857D01*
X171851357Y-83252476D01*
X171827547Y-83276285D01*
X171779928Y-83300095D01*
X171589452Y-83300095D01*
X172303738Y-83038190D02*
X172208500Y-83038190D01*
X172160880Y-83062000D01*
X172137071Y-83085809D01*
X172089452Y-83157238D01*
X172065642Y-83252476D01*
X172065642Y-83442952D01*
X172089452Y-83490571D01*
X172113261Y-83514380D01*
X172160880Y-83538190D01*
X172256119Y-83538190D01*
X172303738Y-83514380D01*
X172327547Y-83490571D01*
X172351357Y-83442952D01*
X172351357Y-83323904D01*
X172327547Y-83276285D01*
X172303738Y-83252476D01*
X172256119Y-83228666D01*
X172160880Y-83228666D01*
X172113261Y-83252476D01*
X172089452Y-83276285D01*
X172065642Y-83323904D01*
%TO.C,R5*%
X178859666Y-83538190D02*
X178693000Y-83300095D01*
X178573952Y-83538190D02*
X178573952Y-83038190D01*
X178764428Y-83038190D01*
X178812047Y-83062000D01*
X178835857Y-83085809D01*
X178859666Y-83133428D01*
X178859666Y-83204857D01*
X178835857Y-83252476D01*
X178812047Y-83276285D01*
X178764428Y-83300095D01*
X178573952Y-83300095D01*
X179312047Y-83038190D02*
X179073952Y-83038190D01*
X179050142Y-83276285D01*
X179073952Y-83252476D01*
X179121571Y-83228666D01*
X179240619Y-83228666D01*
X179288238Y-83252476D01*
X179312047Y-83276285D01*
X179335857Y-83323904D01*
X179335857Y-83442952D01*
X179312047Y-83490571D01*
X179288238Y-83514380D01*
X179240619Y-83538190D01*
X179121571Y-83538190D01*
X179073952Y-83514380D01*
X179050142Y-83490571D01*
%TO.C,R4*%
X177335666Y-83538190D02*
X177169000Y-83300095D01*
X177049952Y-83538190D02*
X177049952Y-83038190D01*
X177240428Y-83038190D01*
X177288047Y-83062000D01*
X177311857Y-83085809D01*
X177335666Y-83133428D01*
X177335666Y-83204857D01*
X177311857Y-83252476D01*
X177288047Y-83276285D01*
X177240428Y-83300095D01*
X177049952Y-83300095D01*
X177764238Y-83204857D02*
X177764238Y-83538190D01*
X177645190Y-83014380D02*
X177526142Y-83371523D01*
X177835666Y-83371523D01*
%TO.C,R3*%
X131171166Y-70266690D02*
X131004500Y-70028595D01*
X130885452Y-70266690D02*
X130885452Y-69766690D01*
X131075928Y-69766690D01*
X131123547Y-69790500D01*
X131147357Y-69814309D01*
X131171166Y-69861928D01*
X131171166Y-69933357D01*
X131147357Y-69980976D01*
X131123547Y-70004785D01*
X131075928Y-70028595D01*
X130885452Y-70028595D01*
X131337833Y-69766690D02*
X131647357Y-69766690D01*
X131480690Y-69957166D01*
X131552119Y-69957166D01*
X131599738Y-69980976D01*
X131623547Y-70004785D01*
X131647357Y-70052404D01*
X131647357Y-70171452D01*
X131623547Y-70219071D01*
X131599738Y-70242880D01*
X131552119Y-70266690D01*
X131409261Y-70266690D01*
X131361642Y-70242880D01*
X131337833Y-70219071D01*
%TO.C,R2*%
X137965666Y-74457690D02*
X137799000Y-74219595D01*
X137679952Y-74457690D02*
X137679952Y-73957690D01*
X137870428Y-73957690D01*
X137918047Y-73981500D01*
X137941857Y-74005309D01*
X137965666Y-74052928D01*
X137965666Y-74124357D01*
X137941857Y-74171976D01*
X137918047Y-74195785D01*
X137870428Y-74219595D01*
X137679952Y-74219595D01*
X138156142Y-74005309D02*
X138179952Y-73981500D01*
X138227571Y-73957690D01*
X138346619Y-73957690D01*
X138394238Y-73981500D01*
X138418047Y-74005309D01*
X138441857Y-74052928D01*
X138441857Y-74100547D01*
X138418047Y-74171976D01*
X138132333Y-74457690D01*
X138441857Y-74457690D01*
%TO.C,R1*%
X136378166Y-74521190D02*
X136211500Y-74283095D01*
X136092452Y-74521190D02*
X136092452Y-74021190D01*
X136282928Y-74021190D01*
X136330547Y-74045000D01*
X136354357Y-74068809D01*
X136378166Y-74116428D01*
X136378166Y-74187857D01*
X136354357Y-74235476D01*
X136330547Y-74259285D01*
X136282928Y-74283095D01*
X136092452Y-74283095D01*
X136854357Y-74521190D02*
X136568642Y-74521190D01*
X136711500Y-74521190D02*
X136711500Y-74021190D01*
X136663880Y-74092619D01*
X136616261Y-74140238D01*
X136568642Y-74164047D01*
%TO.C,Q1*%
X133810380Y-70123809D02*
X133762761Y-70100000D01*
X133715142Y-70052380D01*
X133643714Y-69980952D01*
X133596095Y-69957142D01*
X133548476Y-69957142D01*
X133572285Y-70076190D02*
X133524666Y-70052380D01*
X133477047Y-70004761D01*
X133453238Y-69909523D01*
X133453238Y-69742857D01*
X133477047Y-69647619D01*
X133524666Y-69600000D01*
X133572285Y-69576190D01*
X133667523Y-69576190D01*
X133715142Y-69600000D01*
X133762761Y-69647619D01*
X133786571Y-69742857D01*
X133786571Y-69909523D01*
X133762761Y-70004761D01*
X133715142Y-70052380D01*
X133667523Y-70076190D01*
X133572285Y-70076190D01*
X134262761Y-70076190D02*
X133977047Y-70076190D01*
X134119904Y-70076190D02*
X134119904Y-69576190D01*
X134072285Y-69647619D01*
X134024666Y-69695238D01*
X133977047Y-69719047D01*
%TO.C,J3*%
X161186833Y-74148190D02*
X161186833Y-74505333D01*
X161163023Y-74576761D01*
X161115404Y-74624380D01*
X161043976Y-74648190D01*
X160996357Y-74648190D01*
X161377309Y-74148190D02*
X161686833Y-74148190D01*
X161520166Y-74338666D01*
X161591595Y-74338666D01*
X161639214Y-74362476D01*
X161663023Y-74386285D01*
X161686833Y-74433904D01*
X161686833Y-74552952D01*
X161663023Y-74600571D01*
X161639214Y-74624380D01*
X161591595Y-74648190D01*
X161448738Y-74648190D01*
X161401119Y-74624380D01*
X161377309Y-74600571D01*
%TO.C,C26*%
X134362071Y-78728071D02*
X134338261Y-78751880D01*
X134266833Y-78775690D01*
X134219214Y-78775690D01*
X134147785Y-78751880D01*
X134100166Y-78704261D01*
X134076357Y-78656642D01*
X134052547Y-78561404D01*
X134052547Y-78489976D01*
X134076357Y-78394738D01*
X134100166Y-78347119D01*
X134147785Y-78299500D01*
X134219214Y-78275690D01*
X134266833Y-78275690D01*
X134338261Y-78299500D01*
X134362071Y-78323309D01*
X134552547Y-78323309D02*
X134576357Y-78299500D01*
X134623976Y-78275690D01*
X134743023Y-78275690D01*
X134790642Y-78299500D01*
X134814452Y-78323309D01*
X134838261Y-78370928D01*
X134838261Y-78418547D01*
X134814452Y-78489976D01*
X134528738Y-78775690D01*
X134838261Y-78775690D01*
X135266833Y-78275690D02*
X135171595Y-78275690D01*
X135123976Y-78299500D01*
X135100166Y-78323309D01*
X135052547Y-78394738D01*
X135028738Y-78489976D01*
X135028738Y-78680452D01*
X135052547Y-78728071D01*
X135076357Y-78751880D01*
X135123976Y-78775690D01*
X135219214Y-78775690D01*
X135266833Y-78751880D01*
X135290642Y-78728071D01*
X135314452Y-78680452D01*
X135314452Y-78561404D01*
X135290642Y-78513785D01*
X135266833Y-78489976D01*
X135219214Y-78466166D01*
X135123976Y-78466166D01*
X135076357Y-78489976D01*
X135052547Y-78513785D01*
X135028738Y-78561404D01*
%TO.C,C24*%
X175129071Y-86919571D02*
X175105261Y-86943380D01*
X175033833Y-86967190D01*
X174986214Y-86967190D01*
X174914785Y-86943380D01*
X174867166Y-86895761D01*
X174843357Y-86848142D01*
X174819547Y-86752904D01*
X174819547Y-86681476D01*
X174843357Y-86586238D01*
X174867166Y-86538619D01*
X174914785Y-86491000D01*
X174986214Y-86467190D01*
X175033833Y-86467190D01*
X175105261Y-86491000D01*
X175129071Y-86514809D01*
X175319547Y-86514809D02*
X175343357Y-86491000D01*
X175390976Y-86467190D01*
X175510023Y-86467190D01*
X175557642Y-86491000D01*
X175581452Y-86514809D01*
X175605261Y-86562428D01*
X175605261Y-86610047D01*
X175581452Y-86681476D01*
X175295738Y-86967190D01*
X175605261Y-86967190D01*
X176033833Y-86633857D02*
X176033833Y-86967190D01*
X175914785Y-86443380D02*
X175795738Y-86800523D01*
X176105261Y-86800523D01*
%TO.C,C22*%
X169668071Y-86919571D02*
X169644261Y-86943380D01*
X169572833Y-86967190D01*
X169525214Y-86967190D01*
X169453785Y-86943380D01*
X169406166Y-86895761D01*
X169382357Y-86848142D01*
X169358547Y-86752904D01*
X169358547Y-86681476D01*
X169382357Y-86586238D01*
X169406166Y-86538619D01*
X169453785Y-86491000D01*
X169525214Y-86467190D01*
X169572833Y-86467190D01*
X169644261Y-86491000D01*
X169668071Y-86514809D01*
X169858547Y-86514809D02*
X169882357Y-86491000D01*
X169929976Y-86467190D01*
X170049023Y-86467190D01*
X170096642Y-86491000D01*
X170120452Y-86514809D01*
X170144261Y-86562428D01*
X170144261Y-86610047D01*
X170120452Y-86681476D01*
X169834738Y-86967190D01*
X170144261Y-86967190D01*
X170334738Y-86514809D02*
X170358547Y-86491000D01*
X170406166Y-86467190D01*
X170525214Y-86467190D01*
X170572833Y-86491000D01*
X170596642Y-86514809D01*
X170620452Y-86562428D01*
X170620452Y-86610047D01*
X170596642Y-86681476D01*
X170310928Y-86967190D01*
X170620452Y-86967190D01*
%TO.C,C20*%
X164207071Y-86919571D02*
X164183261Y-86943380D01*
X164111833Y-86967190D01*
X164064214Y-86967190D01*
X163992785Y-86943380D01*
X163945166Y-86895761D01*
X163921357Y-86848142D01*
X163897547Y-86752904D01*
X163897547Y-86681476D01*
X163921357Y-86586238D01*
X163945166Y-86538619D01*
X163992785Y-86491000D01*
X164064214Y-86467190D01*
X164111833Y-86467190D01*
X164183261Y-86491000D01*
X164207071Y-86514809D01*
X164397547Y-86514809D02*
X164421357Y-86491000D01*
X164468976Y-86467190D01*
X164588023Y-86467190D01*
X164635642Y-86491000D01*
X164659452Y-86514809D01*
X164683261Y-86562428D01*
X164683261Y-86610047D01*
X164659452Y-86681476D01*
X164373738Y-86967190D01*
X164683261Y-86967190D01*
X164992785Y-86467190D02*
X165040404Y-86467190D01*
X165088023Y-86491000D01*
X165111833Y-86514809D01*
X165135642Y-86562428D01*
X165159452Y-86657666D01*
X165159452Y-86776714D01*
X165135642Y-86871952D01*
X165111833Y-86919571D01*
X165088023Y-86943380D01*
X165040404Y-86967190D01*
X164992785Y-86967190D01*
X164945166Y-86943380D01*
X164921357Y-86919571D01*
X164897547Y-86871952D01*
X164873738Y-86776714D01*
X164873738Y-86657666D01*
X164897547Y-86562428D01*
X164921357Y-86514809D01*
X164945166Y-86491000D01*
X164992785Y-86467190D01*
%TO.C,C18*%
X158873071Y-86919571D02*
X158849261Y-86943380D01*
X158777833Y-86967190D01*
X158730214Y-86967190D01*
X158658785Y-86943380D01*
X158611166Y-86895761D01*
X158587357Y-86848142D01*
X158563547Y-86752904D01*
X158563547Y-86681476D01*
X158587357Y-86586238D01*
X158611166Y-86538619D01*
X158658785Y-86491000D01*
X158730214Y-86467190D01*
X158777833Y-86467190D01*
X158849261Y-86491000D01*
X158873071Y-86514809D01*
X159349261Y-86967190D02*
X159063547Y-86967190D01*
X159206404Y-86967190D02*
X159206404Y-86467190D01*
X159158785Y-86538619D01*
X159111166Y-86586238D01*
X159063547Y-86610047D01*
X159634976Y-86681476D02*
X159587357Y-86657666D01*
X159563547Y-86633857D01*
X159539738Y-86586238D01*
X159539738Y-86562428D01*
X159563547Y-86514809D01*
X159587357Y-86491000D01*
X159634976Y-86467190D01*
X159730214Y-86467190D01*
X159777833Y-86491000D01*
X159801642Y-86514809D01*
X159825452Y-86562428D01*
X159825452Y-86586238D01*
X159801642Y-86633857D01*
X159777833Y-86657666D01*
X159730214Y-86681476D01*
X159634976Y-86681476D01*
X159587357Y-86705285D01*
X159563547Y-86729095D01*
X159539738Y-86776714D01*
X159539738Y-86871952D01*
X159563547Y-86919571D01*
X159587357Y-86943380D01*
X159634976Y-86967190D01*
X159730214Y-86967190D01*
X159777833Y-86943380D01*
X159801642Y-86919571D01*
X159825452Y-86871952D01*
X159825452Y-86776714D01*
X159801642Y-86729095D01*
X159777833Y-86705285D01*
X159730214Y-86681476D01*
%TO.C,C16*%
X153539071Y-86919571D02*
X153515261Y-86943380D01*
X153443833Y-86967190D01*
X153396214Y-86967190D01*
X153324785Y-86943380D01*
X153277166Y-86895761D01*
X153253357Y-86848142D01*
X153229547Y-86752904D01*
X153229547Y-86681476D01*
X153253357Y-86586238D01*
X153277166Y-86538619D01*
X153324785Y-86491000D01*
X153396214Y-86467190D01*
X153443833Y-86467190D01*
X153515261Y-86491000D01*
X153539071Y-86514809D01*
X154015261Y-86967190D02*
X153729547Y-86967190D01*
X153872404Y-86967190D02*
X153872404Y-86467190D01*
X153824785Y-86538619D01*
X153777166Y-86586238D01*
X153729547Y-86610047D01*
X154443833Y-86467190D02*
X154348595Y-86467190D01*
X154300976Y-86491000D01*
X154277166Y-86514809D01*
X154229547Y-86586238D01*
X154205738Y-86681476D01*
X154205738Y-86871952D01*
X154229547Y-86919571D01*
X154253357Y-86943380D01*
X154300976Y-86967190D01*
X154396214Y-86967190D01*
X154443833Y-86943380D01*
X154467642Y-86919571D01*
X154491452Y-86871952D01*
X154491452Y-86752904D01*
X154467642Y-86705285D01*
X154443833Y-86681476D01*
X154396214Y-86657666D01*
X154300976Y-86657666D01*
X154253357Y-86681476D01*
X154229547Y-86705285D01*
X154205738Y-86752904D01*
%TO.C,C14*%
X148205071Y-86919571D02*
X148181261Y-86943380D01*
X148109833Y-86967190D01*
X148062214Y-86967190D01*
X147990785Y-86943380D01*
X147943166Y-86895761D01*
X147919357Y-86848142D01*
X147895547Y-86752904D01*
X147895547Y-86681476D01*
X147919357Y-86586238D01*
X147943166Y-86538619D01*
X147990785Y-86491000D01*
X148062214Y-86467190D01*
X148109833Y-86467190D01*
X148181261Y-86491000D01*
X148205071Y-86514809D01*
X148681261Y-86967190D02*
X148395547Y-86967190D01*
X148538404Y-86967190D02*
X148538404Y-86467190D01*
X148490785Y-86538619D01*
X148443166Y-86586238D01*
X148395547Y-86610047D01*
X149109833Y-86633857D02*
X149109833Y-86967190D01*
X148990785Y-86443380D02*
X148871738Y-86800523D01*
X149181261Y-86800523D01*
%TO.C,C12*%
X163945071Y-113605428D02*
X163968880Y-113629238D01*
X163992690Y-113700666D01*
X163992690Y-113748285D01*
X163968880Y-113819714D01*
X163921261Y-113867333D01*
X163873642Y-113891142D01*
X163778404Y-113914952D01*
X163706976Y-113914952D01*
X163611738Y-113891142D01*
X163564119Y-113867333D01*
X163516500Y-113819714D01*
X163492690Y-113748285D01*
X163492690Y-113700666D01*
X163516500Y-113629238D01*
X163540309Y-113605428D01*
X163992690Y-113129238D02*
X163992690Y-113414952D01*
X163992690Y-113272095D02*
X163492690Y-113272095D01*
X163564119Y-113319714D01*
X163611738Y-113367333D01*
X163635547Y-113414952D01*
X163540309Y-112938761D02*
X163516500Y-112914952D01*
X163492690Y-112867333D01*
X163492690Y-112748285D01*
X163516500Y-112700666D01*
X163540309Y-112676857D01*
X163587928Y-112653047D01*
X163635547Y-112653047D01*
X163706976Y-112676857D01*
X163992690Y-112962571D01*
X163992690Y-112653047D01*
%TO.C,C11*%
X143942571Y-100651428D02*
X143966380Y-100675238D01*
X143990190Y-100746666D01*
X143990190Y-100794285D01*
X143966380Y-100865714D01*
X143918761Y-100913333D01*
X143871142Y-100937142D01*
X143775904Y-100960952D01*
X143704476Y-100960952D01*
X143609238Y-100937142D01*
X143561619Y-100913333D01*
X143514000Y-100865714D01*
X143490190Y-100794285D01*
X143490190Y-100746666D01*
X143514000Y-100675238D01*
X143537809Y-100651428D01*
X143990190Y-100175238D02*
X143990190Y-100460952D01*
X143990190Y-100318095D02*
X143490190Y-100318095D01*
X143561619Y-100365714D01*
X143609238Y-100413333D01*
X143633047Y-100460952D01*
X143990190Y-99699047D02*
X143990190Y-99984761D01*
X143990190Y-99841904D02*
X143490190Y-99841904D01*
X143561619Y-99889523D01*
X143609238Y-99937142D01*
X143633047Y-99984761D01*
%TO.C,C10*%
X142807571Y-86919571D02*
X142783761Y-86943380D01*
X142712333Y-86967190D01*
X142664714Y-86967190D01*
X142593285Y-86943380D01*
X142545666Y-86895761D01*
X142521857Y-86848142D01*
X142498047Y-86752904D01*
X142498047Y-86681476D01*
X142521857Y-86586238D01*
X142545666Y-86538619D01*
X142593285Y-86491000D01*
X142664714Y-86467190D01*
X142712333Y-86467190D01*
X142783761Y-86491000D01*
X142807571Y-86514809D01*
X143283761Y-86967190D02*
X142998047Y-86967190D01*
X143140904Y-86967190D02*
X143140904Y-86467190D01*
X143093285Y-86538619D01*
X143045666Y-86586238D01*
X142998047Y-86610047D01*
X143593285Y-86467190D02*
X143640904Y-86467190D01*
X143688523Y-86491000D01*
X143712333Y-86514809D01*
X143736142Y-86562428D01*
X143759952Y-86657666D01*
X143759952Y-86776714D01*
X143736142Y-86871952D01*
X143712333Y-86919571D01*
X143688523Y-86943380D01*
X143640904Y-86967190D01*
X143593285Y-86967190D01*
X143545666Y-86943380D01*
X143521857Y-86919571D01*
X143498047Y-86871952D01*
X143474238Y-86776714D01*
X143474238Y-86657666D01*
X143498047Y-86562428D01*
X143521857Y-86514809D01*
X143545666Y-86491000D01*
X143593285Y-86467190D01*
%TO.C,C8*%
X137711666Y-86919571D02*
X137687857Y-86943380D01*
X137616428Y-86967190D01*
X137568809Y-86967190D01*
X137497380Y-86943380D01*
X137449761Y-86895761D01*
X137425952Y-86848142D01*
X137402142Y-86752904D01*
X137402142Y-86681476D01*
X137425952Y-86586238D01*
X137449761Y-86538619D01*
X137497380Y-86491000D01*
X137568809Y-86467190D01*
X137616428Y-86467190D01*
X137687857Y-86491000D01*
X137711666Y-86514809D01*
X137997380Y-86681476D02*
X137949761Y-86657666D01*
X137925952Y-86633857D01*
X137902142Y-86586238D01*
X137902142Y-86562428D01*
X137925952Y-86514809D01*
X137949761Y-86491000D01*
X137997380Y-86467190D01*
X138092619Y-86467190D01*
X138140238Y-86491000D01*
X138164047Y-86514809D01*
X138187857Y-86562428D01*
X138187857Y-86586238D01*
X138164047Y-86633857D01*
X138140238Y-86657666D01*
X138092619Y-86681476D01*
X137997380Y-86681476D01*
X137949761Y-86705285D01*
X137925952Y-86729095D01*
X137902142Y-86776714D01*
X137902142Y-86871952D01*
X137925952Y-86919571D01*
X137949761Y-86943380D01*
X137997380Y-86967190D01*
X138092619Y-86967190D01*
X138140238Y-86943380D01*
X138164047Y-86919571D01*
X138187857Y-86871952D01*
X138187857Y-86776714D01*
X138164047Y-86729095D01*
X138140238Y-86705285D01*
X138092619Y-86681476D01*
%TO.C,C6*%
X132445166Y-86919571D02*
X132421357Y-86943380D01*
X132349928Y-86967190D01*
X132302309Y-86967190D01*
X132230880Y-86943380D01*
X132183261Y-86895761D01*
X132159452Y-86848142D01*
X132135642Y-86752904D01*
X132135642Y-86681476D01*
X132159452Y-86586238D01*
X132183261Y-86538619D01*
X132230880Y-86491000D01*
X132302309Y-86467190D01*
X132349928Y-86467190D01*
X132421357Y-86491000D01*
X132445166Y-86514809D01*
X132873738Y-86467190D02*
X132778500Y-86467190D01*
X132730880Y-86491000D01*
X132707071Y-86514809D01*
X132659452Y-86586238D01*
X132635642Y-86681476D01*
X132635642Y-86871952D01*
X132659452Y-86919571D01*
X132683261Y-86943380D01*
X132730880Y-86967190D01*
X132826119Y-86967190D01*
X132873738Y-86943380D01*
X132897547Y-86919571D01*
X132921357Y-86871952D01*
X132921357Y-86752904D01*
X132897547Y-86705285D01*
X132873738Y-86681476D01*
X132826119Y-86657666D01*
X132730880Y-86657666D01*
X132683261Y-86681476D01*
X132659452Y-86705285D01*
X132635642Y-86752904D01*
%TO.C,C4*%
X127174666Y-86919571D02*
X127150857Y-86943380D01*
X127079428Y-86967190D01*
X127031809Y-86967190D01*
X126960380Y-86943380D01*
X126912761Y-86895761D01*
X126888952Y-86848142D01*
X126865142Y-86752904D01*
X126865142Y-86681476D01*
X126888952Y-86586238D01*
X126912761Y-86538619D01*
X126960380Y-86491000D01*
X127031809Y-86467190D01*
X127079428Y-86467190D01*
X127150857Y-86491000D01*
X127174666Y-86514809D01*
X127603238Y-86633857D02*
X127603238Y-86967190D01*
X127484190Y-86443380D02*
X127365142Y-86800523D01*
X127674666Y-86800523D01*
%TO.C,C2*%
X153650166Y-119177571D02*
X153626357Y-119201380D01*
X153554928Y-119225190D01*
X153507309Y-119225190D01*
X153435880Y-119201380D01*
X153388261Y-119153761D01*
X153364452Y-119106142D01*
X153340642Y-119010904D01*
X153340642Y-118939476D01*
X153364452Y-118844238D01*
X153388261Y-118796619D01*
X153435880Y-118749000D01*
X153507309Y-118725190D01*
X153554928Y-118725190D01*
X153626357Y-118749000D01*
X153650166Y-118772809D01*
X153840642Y-118772809D02*
X153864452Y-118749000D01*
X153912071Y-118725190D01*
X154031119Y-118725190D01*
X154078738Y-118749000D01*
X154102547Y-118772809D01*
X154126357Y-118820428D01*
X154126357Y-118868047D01*
X154102547Y-118939476D01*
X153816833Y-119225190D01*
X154126357Y-119225190D01*
%TO.C,C1*%
X155944071Y-100413333D02*
X155967880Y-100437142D01*
X155991690Y-100508571D01*
X155991690Y-100556190D01*
X155967880Y-100627619D01*
X155920261Y-100675238D01*
X155872642Y-100699047D01*
X155777404Y-100722857D01*
X155705976Y-100722857D01*
X155610738Y-100699047D01*
X155563119Y-100675238D01*
X155515500Y-100627619D01*
X155491690Y-100556190D01*
X155491690Y-100508571D01*
X155515500Y-100437142D01*
X155539309Y-100413333D01*
X155991690Y-99937142D02*
X155991690Y-100222857D01*
X155991690Y-100080000D02*
X155491690Y-100080000D01*
X155563119Y-100127619D01*
X155610738Y-100175238D01*
X155634547Y-100222857D01*
%TD*%
M02*
