M48
; DRILL file {KiCad (5.1.10)-1} date 10/09/22 17:15:09
; FORMAT={-:-/ absolute / inch / decimal}
; #@! TF.CreationDate,2022-10-09T17:15:09-05:00
; #@! TF.GenerationSoftware,Kicad,Pcbnew,(5.1.10)-1
; #@! TF.FileFunction,Plated,1,2,PTH
FMAT,2
INCH
T1C0.0100
T2C0.0236
T3C0.0394
%
G90
G05
T1
X5.01Y-3.55
X5.1125Y-3.33
X5.1125Y-3.69
X5.2175Y-3.55
X5.27Y-2.9425
X5.32Y-3.33
X5.32Y-3.69
X5.3425Y-3.0475
X5.3725Y-2.955
X5.3725Y-4.575
X5.425Y-3.55
X5.475Y-2.8825
X5.53Y-3.69
X5.53Y-3.33
X5.635Y-3.55
X5.6375Y-4.405
X5.705Y-3.92
X5.7425Y-3.69
X5.7425Y-3.33
X5.8475Y-3.55
X5.9525Y-3.33
X5.9525Y-3.69
X5.965Y-4.405
X5.9825Y-4.6425
X5.99Y-3.95
X6.015Y-4.4375
X6.0575Y-3.55
X6.1625Y-3.69
X6.1625Y-3.33
X6.2675Y-3.55
X6.3725Y-3.33
X6.3725Y-3.69
X6.405Y-4.4975
X6.4725Y-3.9925
X6.4775Y-3.55
X6.585Y-3.33
X6.585Y-3.69
X6.6925Y-3.55
X6.8Y-3.33
X6.8Y-3.69
X6.9075Y-3.55
X7.015Y-3.33
X7.015Y-3.69
T2
X5.7619Y-2.93
X5.7619Y-2.9792
X5.8112Y-2.93
X5.8112Y-2.9792
X5.8604Y-2.93
X5.8604Y-2.9792
X5.9096Y-2.93
X5.9096Y-2.9792
X5.9588Y-2.93
X5.9588Y-2.9792
X6.008Y-2.93
X6.008Y-2.9792
X6.0572Y-2.93
X6.0572Y-2.9792
X6.1064Y-2.93
X6.1064Y-2.9792
X6.1556Y-2.93
X6.1556Y-2.9792
X6.2049Y-2.93
X6.2049Y-2.9792
X6.2541Y-2.93
X6.2541Y-2.9792
X6.3033Y-2.93
X6.3033Y-2.9792
X6.3525Y-2.93
X6.3525Y-2.9792
T3
X5.02Y-2.91
X5.02Y-3.01
X5.1431Y-4.1754
X5.1431Y-4.2754
X5.1431Y-4.3754
X5.1431Y-4.4754
X5.1431Y-4.5754
X5.1431Y-4.6754
X5.1431Y-4.7754
X5.1431Y-4.8754
X5.1431Y-4.9754
X5.1431Y-5.0754
X6.9739Y-4.1754
X6.9739Y-4.2754
X6.9739Y-4.3754
X6.9739Y-4.4754
X6.9739Y-4.5754
X6.9739Y-4.6754
X6.9739Y-4.7754
X6.9739Y-4.8754
X6.9739Y-4.9754
X6.9739Y-5.0754
X7.0675Y-2.955
T0
M30
