%TF.GenerationSoftware,KiCad,Pcbnew,(5.1.10)-1*%
%TF.CreationDate,2022-10-09T17:15:07-05:00*%
%TF.ProjectId,switcher,73776974-6368-4657-922e-6b696361645f,A*%
%TF.SameCoordinates,Original*%
%TF.FileFunction,Paste,Top*%
%TF.FilePolarity,Positive*%
%FSLAX46Y46*%
G04 Gerber Fmt 4.6, Leading zero omitted, Abs format (unit mm)*
G04 Created by KiCad (PCBNEW (5.1.10)-1) date 2022-10-09 17:15:07*
%MOMM*%
%LPD*%
G01*
G04 APERTURE LIST*
%ADD10R,2.184400X0.558800*%
%ADD11R,0.650000X1.060000*%
%ADD12R,1.219200X0.406400*%
%ADD13R,0.650000X1.220000*%
G04 APERTURE END LIST*
D10*
%TO.C,U2*%
X156222700Y-102298500D03*
X156222700Y-103568500D03*
X156222700Y-104838500D03*
X156222700Y-106108500D03*
X156222700Y-107378500D03*
X156222700Y-108648500D03*
X156222700Y-109918500D03*
X156222700Y-111188500D03*
X151498300Y-111188500D03*
X151498300Y-109918500D03*
X151498300Y-108648500D03*
X151498300Y-107378500D03*
X151498300Y-106108500D03*
X151498300Y-104838500D03*
X151498300Y-103568500D03*
X151498300Y-102298500D03*
%TD*%
%TO.C,R30*%
G36*
G01*
X135045000Y-119020000D02*
X135045000Y-118470000D01*
G75*
G02*
X135245000Y-118270000I200000J0D01*
G01*
X135645000Y-118270000D01*
G75*
G02*
X135845000Y-118470000I0J-200000D01*
G01*
X135845000Y-119020000D01*
G75*
G02*
X135645000Y-119220000I-200000J0D01*
G01*
X135245000Y-119220000D01*
G75*
G02*
X135045000Y-119020000I0J200000D01*
G01*
G37*
G36*
G01*
X133395000Y-119020000D02*
X133395000Y-118470000D01*
G75*
G02*
X133595000Y-118270000I200000J0D01*
G01*
X133995000Y-118270000D01*
G75*
G02*
X134195000Y-118470000I0J-200000D01*
G01*
X134195000Y-119020000D01*
G75*
G02*
X133995000Y-119220000I-200000J0D01*
G01*
X133595000Y-119220000D01*
G75*
G02*
X133395000Y-119020000I0J200000D01*
G01*
G37*
%TD*%
%TO.C,R29*%
G36*
G01*
X134195000Y-115930000D02*
X134195000Y-116480000D01*
G75*
G02*
X133995000Y-116680000I-200000J0D01*
G01*
X133595000Y-116680000D01*
G75*
G02*
X133395000Y-116480000I0J200000D01*
G01*
X133395000Y-115930000D01*
G75*
G02*
X133595000Y-115730000I200000J0D01*
G01*
X133995000Y-115730000D01*
G75*
G02*
X134195000Y-115930000I0J-200000D01*
G01*
G37*
G36*
G01*
X135845000Y-115930000D02*
X135845000Y-116480000D01*
G75*
G02*
X135645000Y-116680000I-200000J0D01*
G01*
X135245000Y-116680000D01*
G75*
G02*
X135045000Y-116480000I0J200000D01*
G01*
X135045000Y-115930000D01*
G75*
G02*
X135245000Y-115730000I200000J0D01*
G01*
X135645000Y-115730000D01*
G75*
G02*
X135845000Y-115930000I0J-200000D01*
G01*
G37*
%TD*%
%TO.C,R28*%
G36*
G01*
X173843500Y-124100000D02*
X173843500Y-123550000D01*
G75*
G02*
X174043500Y-123350000I200000J0D01*
G01*
X174443500Y-123350000D01*
G75*
G02*
X174643500Y-123550000I0J-200000D01*
G01*
X174643500Y-124100000D01*
G75*
G02*
X174443500Y-124300000I-200000J0D01*
G01*
X174043500Y-124300000D01*
G75*
G02*
X173843500Y-124100000I0J200000D01*
G01*
G37*
G36*
G01*
X172193500Y-124100000D02*
X172193500Y-123550000D01*
G75*
G02*
X172393500Y-123350000I200000J0D01*
G01*
X172793500Y-123350000D01*
G75*
G02*
X172993500Y-123550000I0J-200000D01*
G01*
X172993500Y-124100000D01*
G75*
G02*
X172793500Y-124300000I-200000J0D01*
G01*
X172393500Y-124300000D01*
G75*
G02*
X172193500Y-124100000I0J200000D01*
G01*
G37*
%TD*%
%TO.C,R27*%
G36*
G01*
X173843500Y-126640000D02*
X173843500Y-126090000D01*
G75*
G02*
X174043500Y-125890000I200000J0D01*
G01*
X174443500Y-125890000D01*
G75*
G02*
X174643500Y-126090000I0J-200000D01*
G01*
X174643500Y-126640000D01*
G75*
G02*
X174443500Y-126840000I-200000J0D01*
G01*
X174043500Y-126840000D01*
G75*
G02*
X173843500Y-126640000I0J200000D01*
G01*
G37*
G36*
G01*
X172193500Y-126640000D02*
X172193500Y-126090000D01*
G75*
G02*
X172393500Y-125890000I200000J0D01*
G01*
X172793500Y-125890000D01*
G75*
G02*
X172993500Y-126090000I0J-200000D01*
G01*
X172993500Y-126640000D01*
G75*
G02*
X172793500Y-126840000I-200000J0D01*
G01*
X172393500Y-126840000D01*
G75*
G02*
X172193500Y-126640000I0J200000D01*
G01*
G37*
%TD*%
%TO.C,R25*%
G36*
G01*
X173843500Y-121560000D02*
X173843500Y-121010000D01*
G75*
G02*
X174043500Y-120810000I200000J0D01*
G01*
X174443500Y-120810000D01*
G75*
G02*
X174643500Y-121010000I0J-200000D01*
G01*
X174643500Y-121560000D01*
G75*
G02*
X174443500Y-121760000I-200000J0D01*
G01*
X174043500Y-121760000D01*
G75*
G02*
X173843500Y-121560000I0J200000D01*
G01*
G37*
G36*
G01*
X172193500Y-121560000D02*
X172193500Y-121010000D01*
G75*
G02*
X172393500Y-120810000I200000J0D01*
G01*
X172793500Y-120810000D01*
G75*
G02*
X172993500Y-121010000I0J-200000D01*
G01*
X172993500Y-121560000D01*
G75*
G02*
X172793500Y-121760000I-200000J0D01*
G01*
X172393500Y-121760000D01*
G75*
G02*
X172193500Y-121560000I0J200000D01*
G01*
G37*
%TD*%
D11*
%TO.C,U1*%
X154683500Y-115971500D03*
X152783500Y-115971500D03*
X152783500Y-113771500D03*
X153733500Y-113771500D03*
X154683500Y-113771500D03*
%TD*%
%TO.C,FB1*%
G36*
G01*
X134270000Y-105788750D02*
X134270000Y-106301250D01*
G75*
G02*
X134051250Y-106520000I-218750J0D01*
G01*
X133613750Y-106520000D01*
G75*
G02*
X133395000Y-106301250I0J218750D01*
G01*
X133395000Y-105788750D01*
G75*
G02*
X133613750Y-105570000I218750J0D01*
G01*
X134051250Y-105570000D01*
G75*
G02*
X134270000Y-105788750I0J-218750D01*
G01*
G37*
G36*
G01*
X135845000Y-105788750D02*
X135845000Y-106301250D01*
G75*
G02*
X135626250Y-106520000I-218750J0D01*
G01*
X135188750Y-106520000D01*
G75*
G02*
X134970000Y-106301250I0J218750D01*
G01*
X134970000Y-105788750D01*
G75*
G02*
X135188750Y-105570000I218750J0D01*
G01*
X135626250Y-105570000D01*
G75*
G02*
X135845000Y-105788750I0J-218750D01*
G01*
G37*
%TD*%
D12*
%TO.C,U15*%
X132905500Y-75669500D03*
X132905500Y-76319500D03*
X132905500Y-76969500D03*
X132905500Y-77619500D03*
X130619500Y-77619500D03*
X130619500Y-76969500D03*
X130619500Y-76319500D03*
X130619500Y-75669500D03*
%TD*%
%TO.C,U14*%
G36*
G01*
X128990300Y-89072500D02*
X128732700Y-89072500D01*
G75*
G02*
X128721500Y-89061300I0J11200D01*
G01*
X128721500Y-87613700D01*
G75*
G02*
X128732700Y-87602500I11200J0D01*
G01*
X128990300Y-87602500D01*
G75*
G02*
X129001500Y-87613700I0J-11200D01*
G01*
X129001500Y-89061300D01*
G75*
G02*
X128990300Y-89072500I-11200J0D01*
G01*
G37*
G36*
G01*
X129490300Y-89072500D02*
X129232700Y-89072500D01*
G75*
G02*
X129221500Y-89061300I0J11200D01*
G01*
X129221500Y-87613700D01*
G75*
G02*
X129232700Y-87602500I11200J0D01*
G01*
X129490300Y-87602500D01*
G75*
G02*
X129501500Y-87613700I0J-11200D01*
G01*
X129501500Y-89061300D01*
G75*
G02*
X129490300Y-89072500I-11200J0D01*
G01*
G37*
G36*
G01*
X129990300Y-89072500D02*
X129732700Y-89072500D01*
G75*
G02*
X129721500Y-89061300I0J11200D01*
G01*
X129721500Y-87613700D01*
G75*
G02*
X129732700Y-87602500I11200J0D01*
G01*
X129990300Y-87602500D01*
G75*
G02*
X130001500Y-87613700I0J-11200D01*
G01*
X130001500Y-89061300D01*
G75*
G02*
X129990300Y-89072500I-11200J0D01*
G01*
G37*
G36*
G01*
X130490300Y-89072500D02*
X130232700Y-89072500D01*
G75*
G02*
X130221500Y-89061300I0J11200D01*
G01*
X130221500Y-87613700D01*
G75*
G02*
X130232700Y-87602500I11200J0D01*
G01*
X130490300Y-87602500D01*
G75*
G02*
X130501500Y-87613700I0J-11200D01*
G01*
X130501500Y-89061300D01*
G75*
G02*
X130490300Y-89072500I-11200J0D01*
G01*
G37*
G36*
G01*
X130990300Y-89072500D02*
X130732700Y-89072500D01*
G75*
G02*
X130721500Y-89061300I0J11200D01*
G01*
X130721500Y-87613700D01*
G75*
G02*
X130732700Y-87602500I11200J0D01*
G01*
X130990300Y-87602500D01*
G75*
G02*
X131001500Y-87613700I0J-11200D01*
G01*
X131001500Y-89061300D01*
G75*
G02*
X130990300Y-89072500I-11200J0D01*
G01*
G37*
G36*
G01*
X130990300Y-93372500D02*
X130732700Y-93372500D01*
G75*
G02*
X130721500Y-93361300I0J11200D01*
G01*
X130721500Y-91913700D01*
G75*
G02*
X130732700Y-91902500I11200J0D01*
G01*
X130990300Y-91902500D01*
G75*
G02*
X131001500Y-91913700I0J-11200D01*
G01*
X131001500Y-93361300D01*
G75*
G02*
X130990300Y-93372500I-11200J0D01*
G01*
G37*
G36*
G01*
X130490300Y-93372500D02*
X130232700Y-93372500D01*
G75*
G02*
X130221500Y-93361300I0J11200D01*
G01*
X130221500Y-91913700D01*
G75*
G02*
X130232700Y-91902500I11200J0D01*
G01*
X130490300Y-91902500D01*
G75*
G02*
X130501500Y-91913700I0J-11200D01*
G01*
X130501500Y-93361300D01*
G75*
G02*
X130490300Y-93372500I-11200J0D01*
G01*
G37*
G36*
G01*
X129990300Y-93372500D02*
X129732700Y-93372500D01*
G75*
G02*
X129721500Y-93361300I0J11200D01*
G01*
X129721500Y-91913700D01*
G75*
G02*
X129732700Y-91902500I11200J0D01*
G01*
X129990300Y-91902500D01*
G75*
G02*
X130001500Y-91913700I0J-11200D01*
G01*
X130001500Y-93361300D01*
G75*
G02*
X129990300Y-93372500I-11200J0D01*
G01*
G37*
G36*
G01*
X129490300Y-93372500D02*
X129232700Y-93372500D01*
G75*
G02*
X129221500Y-93361300I0J11200D01*
G01*
X129221500Y-91913700D01*
G75*
G02*
X129232700Y-91902500I11200J0D01*
G01*
X129490300Y-91902500D01*
G75*
G02*
X129501500Y-91913700I0J-11200D01*
G01*
X129501500Y-93361300D01*
G75*
G02*
X129490300Y-93372500I-11200J0D01*
G01*
G37*
G36*
G01*
X128990300Y-93372500D02*
X128732700Y-93372500D01*
G75*
G02*
X128721500Y-93361300I0J11200D01*
G01*
X128721500Y-91913700D01*
G75*
G02*
X128732700Y-91902500I11200J0D01*
G01*
X128990300Y-91902500D01*
G75*
G02*
X129001500Y-91913700I0J-11200D01*
G01*
X129001500Y-93361300D01*
G75*
G02*
X128990300Y-93372500I-11200J0D01*
G01*
G37*
%TD*%
%TO.C,U13*%
G36*
G01*
X134260800Y-89072500D02*
X134003200Y-89072500D01*
G75*
G02*
X133992000Y-89061300I0J11200D01*
G01*
X133992000Y-87613700D01*
G75*
G02*
X134003200Y-87602500I11200J0D01*
G01*
X134260800Y-87602500D01*
G75*
G02*
X134272000Y-87613700I0J-11200D01*
G01*
X134272000Y-89061300D01*
G75*
G02*
X134260800Y-89072500I-11200J0D01*
G01*
G37*
G36*
G01*
X134760800Y-89072500D02*
X134503200Y-89072500D01*
G75*
G02*
X134492000Y-89061300I0J11200D01*
G01*
X134492000Y-87613700D01*
G75*
G02*
X134503200Y-87602500I11200J0D01*
G01*
X134760800Y-87602500D01*
G75*
G02*
X134772000Y-87613700I0J-11200D01*
G01*
X134772000Y-89061300D01*
G75*
G02*
X134760800Y-89072500I-11200J0D01*
G01*
G37*
G36*
G01*
X135260800Y-89072500D02*
X135003200Y-89072500D01*
G75*
G02*
X134992000Y-89061300I0J11200D01*
G01*
X134992000Y-87613700D01*
G75*
G02*
X135003200Y-87602500I11200J0D01*
G01*
X135260800Y-87602500D01*
G75*
G02*
X135272000Y-87613700I0J-11200D01*
G01*
X135272000Y-89061300D01*
G75*
G02*
X135260800Y-89072500I-11200J0D01*
G01*
G37*
G36*
G01*
X135760800Y-89072500D02*
X135503200Y-89072500D01*
G75*
G02*
X135492000Y-89061300I0J11200D01*
G01*
X135492000Y-87613700D01*
G75*
G02*
X135503200Y-87602500I11200J0D01*
G01*
X135760800Y-87602500D01*
G75*
G02*
X135772000Y-87613700I0J-11200D01*
G01*
X135772000Y-89061300D01*
G75*
G02*
X135760800Y-89072500I-11200J0D01*
G01*
G37*
G36*
G01*
X136260800Y-89072500D02*
X136003200Y-89072500D01*
G75*
G02*
X135992000Y-89061300I0J11200D01*
G01*
X135992000Y-87613700D01*
G75*
G02*
X136003200Y-87602500I11200J0D01*
G01*
X136260800Y-87602500D01*
G75*
G02*
X136272000Y-87613700I0J-11200D01*
G01*
X136272000Y-89061300D01*
G75*
G02*
X136260800Y-89072500I-11200J0D01*
G01*
G37*
G36*
G01*
X136260800Y-93372500D02*
X136003200Y-93372500D01*
G75*
G02*
X135992000Y-93361300I0J11200D01*
G01*
X135992000Y-91913700D01*
G75*
G02*
X136003200Y-91902500I11200J0D01*
G01*
X136260800Y-91902500D01*
G75*
G02*
X136272000Y-91913700I0J-11200D01*
G01*
X136272000Y-93361300D01*
G75*
G02*
X136260800Y-93372500I-11200J0D01*
G01*
G37*
G36*
G01*
X135760800Y-93372500D02*
X135503200Y-93372500D01*
G75*
G02*
X135492000Y-93361300I0J11200D01*
G01*
X135492000Y-91913700D01*
G75*
G02*
X135503200Y-91902500I11200J0D01*
G01*
X135760800Y-91902500D01*
G75*
G02*
X135772000Y-91913700I0J-11200D01*
G01*
X135772000Y-93361300D01*
G75*
G02*
X135760800Y-93372500I-11200J0D01*
G01*
G37*
G36*
G01*
X135260800Y-93372500D02*
X135003200Y-93372500D01*
G75*
G02*
X134992000Y-93361300I0J11200D01*
G01*
X134992000Y-91913700D01*
G75*
G02*
X135003200Y-91902500I11200J0D01*
G01*
X135260800Y-91902500D01*
G75*
G02*
X135272000Y-91913700I0J-11200D01*
G01*
X135272000Y-93361300D01*
G75*
G02*
X135260800Y-93372500I-11200J0D01*
G01*
G37*
G36*
G01*
X134760800Y-93372500D02*
X134503200Y-93372500D01*
G75*
G02*
X134492000Y-93361300I0J11200D01*
G01*
X134492000Y-91913700D01*
G75*
G02*
X134503200Y-91902500I11200J0D01*
G01*
X134760800Y-91902500D01*
G75*
G02*
X134772000Y-91913700I0J-11200D01*
G01*
X134772000Y-93361300D01*
G75*
G02*
X134760800Y-93372500I-11200J0D01*
G01*
G37*
G36*
G01*
X134260800Y-93372500D02*
X134003200Y-93372500D01*
G75*
G02*
X133992000Y-93361300I0J11200D01*
G01*
X133992000Y-91913700D01*
G75*
G02*
X134003200Y-91902500I11200J0D01*
G01*
X134260800Y-91902500D01*
G75*
G02*
X134272000Y-91913700I0J-11200D01*
G01*
X134272000Y-93361300D01*
G75*
G02*
X134260800Y-93372500I-11200J0D01*
G01*
G37*
%TD*%
%TO.C,U12*%
G36*
G01*
X139594300Y-89072500D02*
X139336700Y-89072500D01*
G75*
G02*
X139325500Y-89061300I0J11200D01*
G01*
X139325500Y-87613700D01*
G75*
G02*
X139336700Y-87602500I11200J0D01*
G01*
X139594300Y-87602500D01*
G75*
G02*
X139605500Y-87613700I0J-11200D01*
G01*
X139605500Y-89061300D01*
G75*
G02*
X139594300Y-89072500I-11200J0D01*
G01*
G37*
G36*
G01*
X140094300Y-89072500D02*
X139836700Y-89072500D01*
G75*
G02*
X139825500Y-89061300I0J11200D01*
G01*
X139825500Y-87613700D01*
G75*
G02*
X139836700Y-87602500I11200J0D01*
G01*
X140094300Y-87602500D01*
G75*
G02*
X140105500Y-87613700I0J-11200D01*
G01*
X140105500Y-89061300D01*
G75*
G02*
X140094300Y-89072500I-11200J0D01*
G01*
G37*
G36*
G01*
X140594300Y-89072500D02*
X140336700Y-89072500D01*
G75*
G02*
X140325500Y-89061300I0J11200D01*
G01*
X140325500Y-87613700D01*
G75*
G02*
X140336700Y-87602500I11200J0D01*
G01*
X140594300Y-87602500D01*
G75*
G02*
X140605500Y-87613700I0J-11200D01*
G01*
X140605500Y-89061300D01*
G75*
G02*
X140594300Y-89072500I-11200J0D01*
G01*
G37*
G36*
G01*
X141094300Y-89072500D02*
X140836700Y-89072500D01*
G75*
G02*
X140825500Y-89061300I0J11200D01*
G01*
X140825500Y-87613700D01*
G75*
G02*
X140836700Y-87602500I11200J0D01*
G01*
X141094300Y-87602500D01*
G75*
G02*
X141105500Y-87613700I0J-11200D01*
G01*
X141105500Y-89061300D01*
G75*
G02*
X141094300Y-89072500I-11200J0D01*
G01*
G37*
G36*
G01*
X141594300Y-89072500D02*
X141336700Y-89072500D01*
G75*
G02*
X141325500Y-89061300I0J11200D01*
G01*
X141325500Y-87613700D01*
G75*
G02*
X141336700Y-87602500I11200J0D01*
G01*
X141594300Y-87602500D01*
G75*
G02*
X141605500Y-87613700I0J-11200D01*
G01*
X141605500Y-89061300D01*
G75*
G02*
X141594300Y-89072500I-11200J0D01*
G01*
G37*
G36*
G01*
X141594300Y-93372500D02*
X141336700Y-93372500D01*
G75*
G02*
X141325500Y-93361300I0J11200D01*
G01*
X141325500Y-91913700D01*
G75*
G02*
X141336700Y-91902500I11200J0D01*
G01*
X141594300Y-91902500D01*
G75*
G02*
X141605500Y-91913700I0J-11200D01*
G01*
X141605500Y-93361300D01*
G75*
G02*
X141594300Y-93372500I-11200J0D01*
G01*
G37*
G36*
G01*
X141094300Y-93372500D02*
X140836700Y-93372500D01*
G75*
G02*
X140825500Y-93361300I0J11200D01*
G01*
X140825500Y-91913700D01*
G75*
G02*
X140836700Y-91902500I11200J0D01*
G01*
X141094300Y-91902500D01*
G75*
G02*
X141105500Y-91913700I0J-11200D01*
G01*
X141105500Y-93361300D01*
G75*
G02*
X141094300Y-93372500I-11200J0D01*
G01*
G37*
G36*
G01*
X140594300Y-93372500D02*
X140336700Y-93372500D01*
G75*
G02*
X140325500Y-93361300I0J11200D01*
G01*
X140325500Y-91913700D01*
G75*
G02*
X140336700Y-91902500I11200J0D01*
G01*
X140594300Y-91902500D01*
G75*
G02*
X140605500Y-91913700I0J-11200D01*
G01*
X140605500Y-93361300D01*
G75*
G02*
X140594300Y-93372500I-11200J0D01*
G01*
G37*
G36*
G01*
X140094300Y-93372500D02*
X139836700Y-93372500D01*
G75*
G02*
X139825500Y-93361300I0J11200D01*
G01*
X139825500Y-91913700D01*
G75*
G02*
X139836700Y-91902500I11200J0D01*
G01*
X140094300Y-91902500D01*
G75*
G02*
X140105500Y-91913700I0J-11200D01*
G01*
X140105500Y-93361300D01*
G75*
G02*
X140094300Y-93372500I-11200J0D01*
G01*
G37*
G36*
G01*
X139594300Y-93372500D02*
X139336700Y-93372500D01*
G75*
G02*
X139325500Y-93361300I0J11200D01*
G01*
X139325500Y-91913700D01*
G75*
G02*
X139336700Y-91902500I11200J0D01*
G01*
X139594300Y-91902500D01*
G75*
G02*
X139605500Y-91913700I0J-11200D01*
G01*
X139605500Y-93361300D01*
G75*
G02*
X139594300Y-93372500I-11200J0D01*
G01*
G37*
%TD*%
%TO.C,U11*%
G36*
G01*
X144991300Y-89072500D02*
X144733700Y-89072500D01*
G75*
G02*
X144722500Y-89061300I0J11200D01*
G01*
X144722500Y-87613700D01*
G75*
G02*
X144733700Y-87602500I11200J0D01*
G01*
X144991300Y-87602500D01*
G75*
G02*
X145002500Y-87613700I0J-11200D01*
G01*
X145002500Y-89061300D01*
G75*
G02*
X144991300Y-89072500I-11200J0D01*
G01*
G37*
G36*
G01*
X145491300Y-89072500D02*
X145233700Y-89072500D01*
G75*
G02*
X145222500Y-89061300I0J11200D01*
G01*
X145222500Y-87613700D01*
G75*
G02*
X145233700Y-87602500I11200J0D01*
G01*
X145491300Y-87602500D01*
G75*
G02*
X145502500Y-87613700I0J-11200D01*
G01*
X145502500Y-89061300D01*
G75*
G02*
X145491300Y-89072500I-11200J0D01*
G01*
G37*
G36*
G01*
X145991300Y-89072500D02*
X145733700Y-89072500D01*
G75*
G02*
X145722500Y-89061300I0J11200D01*
G01*
X145722500Y-87613700D01*
G75*
G02*
X145733700Y-87602500I11200J0D01*
G01*
X145991300Y-87602500D01*
G75*
G02*
X146002500Y-87613700I0J-11200D01*
G01*
X146002500Y-89061300D01*
G75*
G02*
X145991300Y-89072500I-11200J0D01*
G01*
G37*
G36*
G01*
X146491300Y-89072500D02*
X146233700Y-89072500D01*
G75*
G02*
X146222500Y-89061300I0J11200D01*
G01*
X146222500Y-87613700D01*
G75*
G02*
X146233700Y-87602500I11200J0D01*
G01*
X146491300Y-87602500D01*
G75*
G02*
X146502500Y-87613700I0J-11200D01*
G01*
X146502500Y-89061300D01*
G75*
G02*
X146491300Y-89072500I-11200J0D01*
G01*
G37*
G36*
G01*
X146991300Y-89072500D02*
X146733700Y-89072500D01*
G75*
G02*
X146722500Y-89061300I0J11200D01*
G01*
X146722500Y-87613700D01*
G75*
G02*
X146733700Y-87602500I11200J0D01*
G01*
X146991300Y-87602500D01*
G75*
G02*
X147002500Y-87613700I0J-11200D01*
G01*
X147002500Y-89061300D01*
G75*
G02*
X146991300Y-89072500I-11200J0D01*
G01*
G37*
G36*
G01*
X146991300Y-93372500D02*
X146733700Y-93372500D01*
G75*
G02*
X146722500Y-93361300I0J11200D01*
G01*
X146722500Y-91913700D01*
G75*
G02*
X146733700Y-91902500I11200J0D01*
G01*
X146991300Y-91902500D01*
G75*
G02*
X147002500Y-91913700I0J-11200D01*
G01*
X147002500Y-93361300D01*
G75*
G02*
X146991300Y-93372500I-11200J0D01*
G01*
G37*
G36*
G01*
X146491300Y-93372500D02*
X146233700Y-93372500D01*
G75*
G02*
X146222500Y-93361300I0J11200D01*
G01*
X146222500Y-91913700D01*
G75*
G02*
X146233700Y-91902500I11200J0D01*
G01*
X146491300Y-91902500D01*
G75*
G02*
X146502500Y-91913700I0J-11200D01*
G01*
X146502500Y-93361300D01*
G75*
G02*
X146491300Y-93372500I-11200J0D01*
G01*
G37*
G36*
G01*
X145991300Y-93372500D02*
X145733700Y-93372500D01*
G75*
G02*
X145722500Y-93361300I0J11200D01*
G01*
X145722500Y-91913700D01*
G75*
G02*
X145733700Y-91902500I11200J0D01*
G01*
X145991300Y-91902500D01*
G75*
G02*
X146002500Y-91913700I0J-11200D01*
G01*
X146002500Y-93361300D01*
G75*
G02*
X145991300Y-93372500I-11200J0D01*
G01*
G37*
G36*
G01*
X145491300Y-93372500D02*
X145233700Y-93372500D01*
G75*
G02*
X145222500Y-93361300I0J11200D01*
G01*
X145222500Y-91913700D01*
G75*
G02*
X145233700Y-91902500I11200J0D01*
G01*
X145491300Y-91902500D01*
G75*
G02*
X145502500Y-91913700I0J-11200D01*
G01*
X145502500Y-93361300D01*
G75*
G02*
X145491300Y-93372500I-11200J0D01*
G01*
G37*
G36*
G01*
X144991300Y-93372500D02*
X144733700Y-93372500D01*
G75*
G02*
X144722500Y-93361300I0J11200D01*
G01*
X144722500Y-91913700D01*
G75*
G02*
X144733700Y-91902500I11200J0D01*
G01*
X144991300Y-91902500D01*
G75*
G02*
X145002500Y-91913700I0J-11200D01*
G01*
X145002500Y-93361300D01*
G75*
G02*
X144991300Y-93372500I-11200J0D01*
G01*
G37*
%TD*%
%TO.C,U10*%
G36*
G01*
X150324800Y-89072500D02*
X150067200Y-89072500D01*
G75*
G02*
X150056000Y-89061300I0J11200D01*
G01*
X150056000Y-87613700D01*
G75*
G02*
X150067200Y-87602500I11200J0D01*
G01*
X150324800Y-87602500D01*
G75*
G02*
X150336000Y-87613700I0J-11200D01*
G01*
X150336000Y-89061300D01*
G75*
G02*
X150324800Y-89072500I-11200J0D01*
G01*
G37*
G36*
G01*
X150824800Y-89072500D02*
X150567200Y-89072500D01*
G75*
G02*
X150556000Y-89061300I0J11200D01*
G01*
X150556000Y-87613700D01*
G75*
G02*
X150567200Y-87602500I11200J0D01*
G01*
X150824800Y-87602500D01*
G75*
G02*
X150836000Y-87613700I0J-11200D01*
G01*
X150836000Y-89061300D01*
G75*
G02*
X150824800Y-89072500I-11200J0D01*
G01*
G37*
G36*
G01*
X151324800Y-89072500D02*
X151067200Y-89072500D01*
G75*
G02*
X151056000Y-89061300I0J11200D01*
G01*
X151056000Y-87613700D01*
G75*
G02*
X151067200Y-87602500I11200J0D01*
G01*
X151324800Y-87602500D01*
G75*
G02*
X151336000Y-87613700I0J-11200D01*
G01*
X151336000Y-89061300D01*
G75*
G02*
X151324800Y-89072500I-11200J0D01*
G01*
G37*
G36*
G01*
X151824800Y-89072500D02*
X151567200Y-89072500D01*
G75*
G02*
X151556000Y-89061300I0J11200D01*
G01*
X151556000Y-87613700D01*
G75*
G02*
X151567200Y-87602500I11200J0D01*
G01*
X151824800Y-87602500D01*
G75*
G02*
X151836000Y-87613700I0J-11200D01*
G01*
X151836000Y-89061300D01*
G75*
G02*
X151824800Y-89072500I-11200J0D01*
G01*
G37*
G36*
G01*
X152324800Y-89072500D02*
X152067200Y-89072500D01*
G75*
G02*
X152056000Y-89061300I0J11200D01*
G01*
X152056000Y-87613700D01*
G75*
G02*
X152067200Y-87602500I11200J0D01*
G01*
X152324800Y-87602500D01*
G75*
G02*
X152336000Y-87613700I0J-11200D01*
G01*
X152336000Y-89061300D01*
G75*
G02*
X152324800Y-89072500I-11200J0D01*
G01*
G37*
G36*
G01*
X152324800Y-93372500D02*
X152067200Y-93372500D01*
G75*
G02*
X152056000Y-93361300I0J11200D01*
G01*
X152056000Y-91913700D01*
G75*
G02*
X152067200Y-91902500I11200J0D01*
G01*
X152324800Y-91902500D01*
G75*
G02*
X152336000Y-91913700I0J-11200D01*
G01*
X152336000Y-93361300D01*
G75*
G02*
X152324800Y-93372500I-11200J0D01*
G01*
G37*
G36*
G01*
X151824800Y-93372500D02*
X151567200Y-93372500D01*
G75*
G02*
X151556000Y-93361300I0J11200D01*
G01*
X151556000Y-91913700D01*
G75*
G02*
X151567200Y-91902500I11200J0D01*
G01*
X151824800Y-91902500D01*
G75*
G02*
X151836000Y-91913700I0J-11200D01*
G01*
X151836000Y-93361300D01*
G75*
G02*
X151824800Y-93372500I-11200J0D01*
G01*
G37*
G36*
G01*
X151324800Y-93372500D02*
X151067200Y-93372500D01*
G75*
G02*
X151056000Y-93361300I0J11200D01*
G01*
X151056000Y-91913700D01*
G75*
G02*
X151067200Y-91902500I11200J0D01*
G01*
X151324800Y-91902500D01*
G75*
G02*
X151336000Y-91913700I0J-11200D01*
G01*
X151336000Y-93361300D01*
G75*
G02*
X151324800Y-93372500I-11200J0D01*
G01*
G37*
G36*
G01*
X150824800Y-93372500D02*
X150567200Y-93372500D01*
G75*
G02*
X150556000Y-93361300I0J11200D01*
G01*
X150556000Y-91913700D01*
G75*
G02*
X150567200Y-91902500I11200J0D01*
G01*
X150824800Y-91902500D01*
G75*
G02*
X150836000Y-91913700I0J-11200D01*
G01*
X150836000Y-93361300D01*
G75*
G02*
X150824800Y-93372500I-11200J0D01*
G01*
G37*
G36*
G01*
X150324800Y-93372500D02*
X150067200Y-93372500D01*
G75*
G02*
X150056000Y-93361300I0J11200D01*
G01*
X150056000Y-91913700D01*
G75*
G02*
X150067200Y-91902500I11200J0D01*
G01*
X150324800Y-91902500D01*
G75*
G02*
X150336000Y-91913700I0J-11200D01*
G01*
X150336000Y-93361300D01*
G75*
G02*
X150324800Y-93372500I-11200J0D01*
G01*
G37*
%TD*%
%TO.C,U9*%
G36*
G01*
X155658300Y-89072500D02*
X155400700Y-89072500D01*
G75*
G02*
X155389500Y-89061300I0J11200D01*
G01*
X155389500Y-87613700D01*
G75*
G02*
X155400700Y-87602500I11200J0D01*
G01*
X155658300Y-87602500D01*
G75*
G02*
X155669500Y-87613700I0J-11200D01*
G01*
X155669500Y-89061300D01*
G75*
G02*
X155658300Y-89072500I-11200J0D01*
G01*
G37*
G36*
G01*
X156158300Y-89072500D02*
X155900700Y-89072500D01*
G75*
G02*
X155889500Y-89061300I0J11200D01*
G01*
X155889500Y-87613700D01*
G75*
G02*
X155900700Y-87602500I11200J0D01*
G01*
X156158300Y-87602500D01*
G75*
G02*
X156169500Y-87613700I0J-11200D01*
G01*
X156169500Y-89061300D01*
G75*
G02*
X156158300Y-89072500I-11200J0D01*
G01*
G37*
G36*
G01*
X156658300Y-89072500D02*
X156400700Y-89072500D01*
G75*
G02*
X156389500Y-89061300I0J11200D01*
G01*
X156389500Y-87613700D01*
G75*
G02*
X156400700Y-87602500I11200J0D01*
G01*
X156658300Y-87602500D01*
G75*
G02*
X156669500Y-87613700I0J-11200D01*
G01*
X156669500Y-89061300D01*
G75*
G02*
X156658300Y-89072500I-11200J0D01*
G01*
G37*
G36*
G01*
X157158300Y-89072500D02*
X156900700Y-89072500D01*
G75*
G02*
X156889500Y-89061300I0J11200D01*
G01*
X156889500Y-87613700D01*
G75*
G02*
X156900700Y-87602500I11200J0D01*
G01*
X157158300Y-87602500D01*
G75*
G02*
X157169500Y-87613700I0J-11200D01*
G01*
X157169500Y-89061300D01*
G75*
G02*
X157158300Y-89072500I-11200J0D01*
G01*
G37*
G36*
G01*
X157658300Y-89072500D02*
X157400700Y-89072500D01*
G75*
G02*
X157389500Y-89061300I0J11200D01*
G01*
X157389500Y-87613700D01*
G75*
G02*
X157400700Y-87602500I11200J0D01*
G01*
X157658300Y-87602500D01*
G75*
G02*
X157669500Y-87613700I0J-11200D01*
G01*
X157669500Y-89061300D01*
G75*
G02*
X157658300Y-89072500I-11200J0D01*
G01*
G37*
G36*
G01*
X157658300Y-93372500D02*
X157400700Y-93372500D01*
G75*
G02*
X157389500Y-93361300I0J11200D01*
G01*
X157389500Y-91913700D01*
G75*
G02*
X157400700Y-91902500I11200J0D01*
G01*
X157658300Y-91902500D01*
G75*
G02*
X157669500Y-91913700I0J-11200D01*
G01*
X157669500Y-93361300D01*
G75*
G02*
X157658300Y-93372500I-11200J0D01*
G01*
G37*
G36*
G01*
X157158300Y-93372500D02*
X156900700Y-93372500D01*
G75*
G02*
X156889500Y-93361300I0J11200D01*
G01*
X156889500Y-91913700D01*
G75*
G02*
X156900700Y-91902500I11200J0D01*
G01*
X157158300Y-91902500D01*
G75*
G02*
X157169500Y-91913700I0J-11200D01*
G01*
X157169500Y-93361300D01*
G75*
G02*
X157158300Y-93372500I-11200J0D01*
G01*
G37*
G36*
G01*
X156658300Y-93372500D02*
X156400700Y-93372500D01*
G75*
G02*
X156389500Y-93361300I0J11200D01*
G01*
X156389500Y-91913700D01*
G75*
G02*
X156400700Y-91902500I11200J0D01*
G01*
X156658300Y-91902500D01*
G75*
G02*
X156669500Y-91913700I0J-11200D01*
G01*
X156669500Y-93361300D01*
G75*
G02*
X156658300Y-93372500I-11200J0D01*
G01*
G37*
G36*
G01*
X156158300Y-93372500D02*
X155900700Y-93372500D01*
G75*
G02*
X155889500Y-93361300I0J11200D01*
G01*
X155889500Y-91913700D01*
G75*
G02*
X155900700Y-91902500I11200J0D01*
G01*
X156158300Y-91902500D01*
G75*
G02*
X156169500Y-91913700I0J-11200D01*
G01*
X156169500Y-93361300D01*
G75*
G02*
X156158300Y-93372500I-11200J0D01*
G01*
G37*
G36*
G01*
X155658300Y-93372500D02*
X155400700Y-93372500D01*
G75*
G02*
X155389500Y-93361300I0J11200D01*
G01*
X155389500Y-91913700D01*
G75*
G02*
X155400700Y-91902500I11200J0D01*
G01*
X155658300Y-91902500D01*
G75*
G02*
X155669500Y-91913700I0J-11200D01*
G01*
X155669500Y-93361300D01*
G75*
G02*
X155658300Y-93372500I-11200J0D01*
G01*
G37*
%TD*%
%TO.C,U8*%
G36*
G01*
X161007800Y-89063500D02*
X160750200Y-89063500D01*
G75*
G02*
X160739000Y-89052300I0J11200D01*
G01*
X160739000Y-87604700D01*
G75*
G02*
X160750200Y-87593500I11200J0D01*
G01*
X161007800Y-87593500D01*
G75*
G02*
X161019000Y-87604700I0J-11200D01*
G01*
X161019000Y-89052300D01*
G75*
G02*
X161007800Y-89063500I-11200J0D01*
G01*
G37*
G36*
G01*
X161507800Y-89063500D02*
X161250200Y-89063500D01*
G75*
G02*
X161239000Y-89052300I0J11200D01*
G01*
X161239000Y-87604700D01*
G75*
G02*
X161250200Y-87593500I11200J0D01*
G01*
X161507800Y-87593500D01*
G75*
G02*
X161519000Y-87604700I0J-11200D01*
G01*
X161519000Y-89052300D01*
G75*
G02*
X161507800Y-89063500I-11200J0D01*
G01*
G37*
G36*
G01*
X162007800Y-89063500D02*
X161750200Y-89063500D01*
G75*
G02*
X161739000Y-89052300I0J11200D01*
G01*
X161739000Y-87604700D01*
G75*
G02*
X161750200Y-87593500I11200J0D01*
G01*
X162007800Y-87593500D01*
G75*
G02*
X162019000Y-87604700I0J-11200D01*
G01*
X162019000Y-89052300D01*
G75*
G02*
X162007800Y-89063500I-11200J0D01*
G01*
G37*
G36*
G01*
X162507800Y-89063500D02*
X162250200Y-89063500D01*
G75*
G02*
X162239000Y-89052300I0J11200D01*
G01*
X162239000Y-87604700D01*
G75*
G02*
X162250200Y-87593500I11200J0D01*
G01*
X162507800Y-87593500D01*
G75*
G02*
X162519000Y-87604700I0J-11200D01*
G01*
X162519000Y-89052300D01*
G75*
G02*
X162507800Y-89063500I-11200J0D01*
G01*
G37*
G36*
G01*
X163007800Y-89063500D02*
X162750200Y-89063500D01*
G75*
G02*
X162739000Y-89052300I0J11200D01*
G01*
X162739000Y-87604700D01*
G75*
G02*
X162750200Y-87593500I11200J0D01*
G01*
X163007800Y-87593500D01*
G75*
G02*
X163019000Y-87604700I0J-11200D01*
G01*
X163019000Y-89052300D01*
G75*
G02*
X163007800Y-89063500I-11200J0D01*
G01*
G37*
G36*
G01*
X163007800Y-93363500D02*
X162750200Y-93363500D01*
G75*
G02*
X162739000Y-93352300I0J11200D01*
G01*
X162739000Y-91904700D01*
G75*
G02*
X162750200Y-91893500I11200J0D01*
G01*
X163007800Y-91893500D01*
G75*
G02*
X163019000Y-91904700I0J-11200D01*
G01*
X163019000Y-93352300D01*
G75*
G02*
X163007800Y-93363500I-11200J0D01*
G01*
G37*
G36*
G01*
X162507800Y-93363500D02*
X162250200Y-93363500D01*
G75*
G02*
X162239000Y-93352300I0J11200D01*
G01*
X162239000Y-91904700D01*
G75*
G02*
X162250200Y-91893500I11200J0D01*
G01*
X162507800Y-91893500D01*
G75*
G02*
X162519000Y-91904700I0J-11200D01*
G01*
X162519000Y-93352300D01*
G75*
G02*
X162507800Y-93363500I-11200J0D01*
G01*
G37*
G36*
G01*
X162007800Y-93363500D02*
X161750200Y-93363500D01*
G75*
G02*
X161739000Y-93352300I0J11200D01*
G01*
X161739000Y-91904700D01*
G75*
G02*
X161750200Y-91893500I11200J0D01*
G01*
X162007800Y-91893500D01*
G75*
G02*
X162019000Y-91904700I0J-11200D01*
G01*
X162019000Y-93352300D01*
G75*
G02*
X162007800Y-93363500I-11200J0D01*
G01*
G37*
G36*
G01*
X161507800Y-93363500D02*
X161250200Y-93363500D01*
G75*
G02*
X161239000Y-93352300I0J11200D01*
G01*
X161239000Y-91904700D01*
G75*
G02*
X161250200Y-91893500I11200J0D01*
G01*
X161507800Y-91893500D01*
G75*
G02*
X161519000Y-91904700I0J-11200D01*
G01*
X161519000Y-93352300D01*
G75*
G02*
X161507800Y-93363500I-11200J0D01*
G01*
G37*
G36*
G01*
X161007800Y-93363500D02*
X160750200Y-93363500D01*
G75*
G02*
X160739000Y-93352300I0J11200D01*
G01*
X160739000Y-91904700D01*
G75*
G02*
X160750200Y-91893500I11200J0D01*
G01*
X161007800Y-91893500D01*
G75*
G02*
X161019000Y-91904700I0J-11200D01*
G01*
X161019000Y-93352300D01*
G75*
G02*
X161007800Y-93363500I-11200J0D01*
G01*
G37*
%TD*%
%TO.C,U7*%
G36*
G01*
X166388800Y-89072500D02*
X166131200Y-89072500D01*
G75*
G02*
X166120000Y-89061300I0J11200D01*
G01*
X166120000Y-87613700D01*
G75*
G02*
X166131200Y-87602500I11200J0D01*
G01*
X166388800Y-87602500D01*
G75*
G02*
X166400000Y-87613700I0J-11200D01*
G01*
X166400000Y-89061300D01*
G75*
G02*
X166388800Y-89072500I-11200J0D01*
G01*
G37*
G36*
G01*
X166888800Y-89072500D02*
X166631200Y-89072500D01*
G75*
G02*
X166620000Y-89061300I0J11200D01*
G01*
X166620000Y-87613700D01*
G75*
G02*
X166631200Y-87602500I11200J0D01*
G01*
X166888800Y-87602500D01*
G75*
G02*
X166900000Y-87613700I0J-11200D01*
G01*
X166900000Y-89061300D01*
G75*
G02*
X166888800Y-89072500I-11200J0D01*
G01*
G37*
G36*
G01*
X167388800Y-89072500D02*
X167131200Y-89072500D01*
G75*
G02*
X167120000Y-89061300I0J11200D01*
G01*
X167120000Y-87613700D01*
G75*
G02*
X167131200Y-87602500I11200J0D01*
G01*
X167388800Y-87602500D01*
G75*
G02*
X167400000Y-87613700I0J-11200D01*
G01*
X167400000Y-89061300D01*
G75*
G02*
X167388800Y-89072500I-11200J0D01*
G01*
G37*
G36*
G01*
X167888800Y-89072500D02*
X167631200Y-89072500D01*
G75*
G02*
X167620000Y-89061300I0J11200D01*
G01*
X167620000Y-87613700D01*
G75*
G02*
X167631200Y-87602500I11200J0D01*
G01*
X167888800Y-87602500D01*
G75*
G02*
X167900000Y-87613700I0J-11200D01*
G01*
X167900000Y-89061300D01*
G75*
G02*
X167888800Y-89072500I-11200J0D01*
G01*
G37*
G36*
G01*
X168388800Y-89072500D02*
X168131200Y-89072500D01*
G75*
G02*
X168120000Y-89061300I0J11200D01*
G01*
X168120000Y-87613700D01*
G75*
G02*
X168131200Y-87602500I11200J0D01*
G01*
X168388800Y-87602500D01*
G75*
G02*
X168400000Y-87613700I0J-11200D01*
G01*
X168400000Y-89061300D01*
G75*
G02*
X168388800Y-89072500I-11200J0D01*
G01*
G37*
G36*
G01*
X168388800Y-93372500D02*
X168131200Y-93372500D01*
G75*
G02*
X168120000Y-93361300I0J11200D01*
G01*
X168120000Y-91913700D01*
G75*
G02*
X168131200Y-91902500I11200J0D01*
G01*
X168388800Y-91902500D01*
G75*
G02*
X168400000Y-91913700I0J-11200D01*
G01*
X168400000Y-93361300D01*
G75*
G02*
X168388800Y-93372500I-11200J0D01*
G01*
G37*
G36*
G01*
X167888800Y-93372500D02*
X167631200Y-93372500D01*
G75*
G02*
X167620000Y-93361300I0J11200D01*
G01*
X167620000Y-91913700D01*
G75*
G02*
X167631200Y-91902500I11200J0D01*
G01*
X167888800Y-91902500D01*
G75*
G02*
X167900000Y-91913700I0J-11200D01*
G01*
X167900000Y-93361300D01*
G75*
G02*
X167888800Y-93372500I-11200J0D01*
G01*
G37*
G36*
G01*
X167388800Y-93372500D02*
X167131200Y-93372500D01*
G75*
G02*
X167120000Y-93361300I0J11200D01*
G01*
X167120000Y-91913700D01*
G75*
G02*
X167131200Y-91902500I11200J0D01*
G01*
X167388800Y-91902500D01*
G75*
G02*
X167400000Y-91913700I0J-11200D01*
G01*
X167400000Y-93361300D01*
G75*
G02*
X167388800Y-93372500I-11200J0D01*
G01*
G37*
G36*
G01*
X166888800Y-93372500D02*
X166631200Y-93372500D01*
G75*
G02*
X166620000Y-93361300I0J11200D01*
G01*
X166620000Y-91913700D01*
G75*
G02*
X166631200Y-91902500I11200J0D01*
G01*
X166888800Y-91902500D01*
G75*
G02*
X166900000Y-91913700I0J-11200D01*
G01*
X166900000Y-93361300D01*
G75*
G02*
X166888800Y-93372500I-11200J0D01*
G01*
G37*
G36*
G01*
X166388800Y-93372500D02*
X166131200Y-93372500D01*
G75*
G02*
X166120000Y-93361300I0J11200D01*
G01*
X166120000Y-91913700D01*
G75*
G02*
X166131200Y-91902500I11200J0D01*
G01*
X166388800Y-91902500D01*
G75*
G02*
X166400000Y-91913700I0J-11200D01*
G01*
X166400000Y-93361300D01*
G75*
G02*
X166388800Y-93372500I-11200J0D01*
G01*
G37*
%TD*%
%TO.C,U6*%
G36*
G01*
X171849300Y-89072500D02*
X171591700Y-89072500D01*
G75*
G02*
X171580500Y-89061300I0J11200D01*
G01*
X171580500Y-87613700D01*
G75*
G02*
X171591700Y-87602500I11200J0D01*
G01*
X171849300Y-87602500D01*
G75*
G02*
X171860500Y-87613700I0J-11200D01*
G01*
X171860500Y-89061300D01*
G75*
G02*
X171849300Y-89072500I-11200J0D01*
G01*
G37*
G36*
G01*
X172349300Y-89072500D02*
X172091700Y-89072500D01*
G75*
G02*
X172080500Y-89061300I0J11200D01*
G01*
X172080500Y-87613700D01*
G75*
G02*
X172091700Y-87602500I11200J0D01*
G01*
X172349300Y-87602500D01*
G75*
G02*
X172360500Y-87613700I0J-11200D01*
G01*
X172360500Y-89061300D01*
G75*
G02*
X172349300Y-89072500I-11200J0D01*
G01*
G37*
G36*
G01*
X172849300Y-89072500D02*
X172591700Y-89072500D01*
G75*
G02*
X172580500Y-89061300I0J11200D01*
G01*
X172580500Y-87613700D01*
G75*
G02*
X172591700Y-87602500I11200J0D01*
G01*
X172849300Y-87602500D01*
G75*
G02*
X172860500Y-87613700I0J-11200D01*
G01*
X172860500Y-89061300D01*
G75*
G02*
X172849300Y-89072500I-11200J0D01*
G01*
G37*
G36*
G01*
X173349300Y-89072500D02*
X173091700Y-89072500D01*
G75*
G02*
X173080500Y-89061300I0J11200D01*
G01*
X173080500Y-87613700D01*
G75*
G02*
X173091700Y-87602500I11200J0D01*
G01*
X173349300Y-87602500D01*
G75*
G02*
X173360500Y-87613700I0J-11200D01*
G01*
X173360500Y-89061300D01*
G75*
G02*
X173349300Y-89072500I-11200J0D01*
G01*
G37*
G36*
G01*
X173849300Y-89072500D02*
X173591700Y-89072500D01*
G75*
G02*
X173580500Y-89061300I0J11200D01*
G01*
X173580500Y-87613700D01*
G75*
G02*
X173591700Y-87602500I11200J0D01*
G01*
X173849300Y-87602500D01*
G75*
G02*
X173860500Y-87613700I0J-11200D01*
G01*
X173860500Y-89061300D01*
G75*
G02*
X173849300Y-89072500I-11200J0D01*
G01*
G37*
G36*
G01*
X173849300Y-93372500D02*
X173591700Y-93372500D01*
G75*
G02*
X173580500Y-93361300I0J11200D01*
G01*
X173580500Y-91913700D01*
G75*
G02*
X173591700Y-91902500I11200J0D01*
G01*
X173849300Y-91902500D01*
G75*
G02*
X173860500Y-91913700I0J-11200D01*
G01*
X173860500Y-93361300D01*
G75*
G02*
X173849300Y-93372500I-11200J0D01*
G01*
G37*
G36*
G01*
X173349300Y-93372500D02*
X173091700Y-93372500D01*
G75*
G02*
X173080500Y-93361300I0J11200D01*
G01*
X173080500Y-91913700D01*
G75*
G02*
X173091700Y-91902500I11200J0D01*
G01*
X173349300Y-91902500D01*
G75*
G02*
X173360500Y-91913700I0J-11200D01*
G01*
X173360500Y-93361300D01*
G75*
G02*
X173349300Y-93372500I-11200J0D01*
G01*
G37*
G36*
G01*
X172849300Y-93372500D02*
X172591700Y-93372500D01*
G75*
G02*
X172580500Y-93361300I0J11200D01*
G01*
X172580500Y-91913700D01*
G75*
G02*
X172591700Y-91902500I11200J0D01*
G01*
X172849300Y-91902500D01*
G75*
G02*
X172860500Y-91913700I0J-11200D01*
G01*
X172860500Y-93361300D01*
G75*
G02*
X172849300Y-93372500I-11200J0D01*
G01*
G37*
G36*
G01*
X172349300Y-93372500D02*
X172091700Y-93372500D01*
G75*
G02*
X172080500Y-93361300I0J11200D01*
G01*
X172080500Y-91913700D01*
G75*
G02*
X172091700Y-91902500I11200J0D01*
G01*
X172349300Y-91902500D01*
G75*
G02*
X172360500Y-91913700I0J-11200D01*
G01*
X172360500Y-93361300D01*
G75*
G02*
X172349300Y-93372500I-11200J0D01*
G01*
G37*
G36*
G01*
X171849300Y-93372500D02*
X171591700Y-93372500D01*
G75*
G02*
X171580500Y-93361300I0J11200D01*
G01*
X171580500Y-91913700D01*
G75*
G02*
X171591700Y-91902500I11200J0D01*
G01*
X171849300Y-91902500D01*
G75*
G02*
X171860500Y-91913700I0J-11200D01*
G01*
X171860500Y-93361300D01*
G75*
G02*
X171849300Y-93372500I-11200J0D01*
G01*
G37*
%TD*%
%TO.C,U5*%
G36*
G01*
X177309800Y-89072500D02*
X177052200Y-89072500D01*
G75*
G02*
X177041000Y-89061300I0J11200D01*
G01*
X177041000Y-87613700D01*
G75*
G02*
X177052200Y-87602500I11200J0D01*
G01*
X177309800Y-87602500D01*
G75*
G02*
X177321000Y-87613700I0J-11200D01*
G01*
X177321000Y-89061300D01*
G75*
G02*
X177309800Y-89072500I-11200J0D01*
G01*
G37*
G36*
G01*
X177809800Y-89072500D02*
X177552200Y-89072500D01*
G75*
G02*
X177541000Y-89061300I0J11200D01*
G01*
X177541000Y-87613700D01*
G75*
G02*
X177552200Y-87602500I11200J0D01*
G01*
X177809800Y-87602500D01*
G75*
G02*
X177821000Y-87613700I0J-11200D01*
G01*
X177821000Y-89061300D01*
G75*
G02*
X177809800Y-89072500I-11200J0D01*
G01*
G37*
G36*
G01*
X178309800Y-89072500D02*
X178052200Y-89072500D01*
G75*
G02*
X178041000Y-89061300I0J11200D01*
G01*
X178041000Y-87613700D01*
G75*
G02*
X178052200Y-87602500I11200J0D01*
G01*
X178309800Y-87602500D01*
G75*
G02*
X178321000Y-87613700I0J-11200D01*
G01*
X178321000Y-89061300D01*
G75*
G02*
X178309800Y-89072500I-11200J0D01*
G01*
G37*
G36*
G01*
X178809800Y-89072500D02*
X178552200Y-89072500D01*
G75*
G02*
X178541000Y-89061300I0J11200D01*
G01*
X178541000Y-87613700D01*
G75*
G02*
X178552200Y-87602500I11200J0D01*
G01*
X178809800Y-87602500D01*
G75*
G02*
X178821000Y-87613700I0J-11200D01*
G01*
X178821000Y-89061300D01*
G75*
G02*
X178809800Y-89072500I-11200J0D01*
G01*
G37*
G36*
G01*
X179309800Y-89072500D02*
X179052200Y-89072500D01*
G75*
G02*
X179041000Y-89061300I0J11200D01*
G01*
X179041000Y-87613700D01*
G75*
G02*
X179052200Y-87602500I11200J0D01*
G01*
X179309800Y-87602500D01*
G75*
G02*
X179321000Y-87613700I0J-11200D01*
G01*
X179321000Y-89061300D01*
G75*
G02*
X179309800Y-89072500I-11200J0D01*
G01*
G37*
G36*
G01*
X179309800Y-93372500D02*
X179052200Y-93372500D01*
G75*
G02*
X179041000Y-93361300I0J11200D01*
G01*
X179041000Y-91913700D01*
G75*
G02*
X179052200Y-91902500I11200J0D01*
G01*
X179309800Y-91902500D01*
G75*
G02*
X179321000Y-91913700I0J-11200D01*
G01*
X179321000Y-93361300D01*
G75*
G02*
X179309800Y-93372500I-11200J0D01*
G01*
G37*
G36*
G01*
X178809800Y-93372500D02*
X178552200Y-93372500D01*
G75*
G02*
X178541000Y-93361300I0J11200D01*
G01*
X178541000Y-91913700D01*
G75*
G02*
X178552200Y-91902500I11200J0D01*
G01*
X178809800Y-91902500D01*
G75*
G02*
X178821000Y-91913700I0J-11200D01*
G01*
X178821000Y-93361300D01*
G75*
G02*
X178809800Y-93372500I-11200J0D01*
G01*
G37*
G36*
G01*
X178309800Y-93372500D02*
X178052200Y-93372500D01*
G75*
G02*
X178041000Y-93361300I0J11200D01*
G01*
X178041000Y-91913700D01*
G75*
G02*
X178052200Y-91902500I11200J0D01*
G01*
X178309800Y-91902500D01*
G75*
G02*
X178321000Y-91913700I0J-11200D01*
G01*
X178321000Y-93361300D01*
G75*
G02*
X178309800Y-93372500I-11200J0D01*
G01*
G37*
G36*
G01*
X177809800Y-93372500D02*
X177552200Y-93372500D01*
G75*
G02*
X177541000Y-93361300I0J11200D01*
G01*
X177541000Y-91913700D01*
G75*
G02*
X177552200Y-91902500I11200J0D01*
G01*
X177809800Y-91902500D01*
G75*
G02*
X177821000Y-91913700I0J-11200D01*
G01*
X177821000Y-93361300D01*
G75*
G02*
X177809800Y-93372500I-11200J0D01*
G01*
G37*
G36*
G01*
X177309800Y-93372500D02*
X177052200Y-93372500D01*
G75*
G02*
X177041000Y-93361300I0J11200D01*
G01*
X177041000Y-91913700D01*
G75*
G02*
X177052200Y-91902500I11200J0D01*
G01*
X177309800Y-91902500D01*
G75*
G02*
X177321000Y-91913700I0J-11200D01*
G01*
X177321000Y-93361300D01*
G75*
G02*
X177309800Y-93372500I-11200J0D01*
G01*
G37*
%TD*%
%TO.C,U4*%
G36*
G01*
X147159000Y-102556500D02*
X147159000Y-102040500D01*
G75*
G02*
X147201000Y-101998500I42000J0D01*
G01*
X149087000Y-101998500D01*
G75*
G02*
X149129000Y-102040500I0J-42000D01*
G01*
X149129000Y-102556500D01*
G75*
G02*
X149087000Y-102598500I-42000J0D01*
G01*
X147201000Y-102598500D01*
G75*
G02*
X147159000Y-102556500I0J42000D01*
G01*
G37*
G36*
G01*
X147159000Y-103826500D02*
X147159000Y-103310500D01*
G75*
G02*
X147201000Y-103268500I42000J0D01*
G01*
X149087000Y-103268500D01*
G75*
G02*
X149129000Y-103310500I0J-42000D01*
G01*
X149129000Y-103826500D01*
G75*
G02*
X149087000Y-103868500I-42000J0D01*
G01*
X147201000Y-103868500D01*
G75*
G02*
X147159000Y-103826500I0J42000D01*
G01*
G37*
G36*
G01*
X147159000Y-105096500D02*
X147159000Y-104580500D01*
G75*
G02*
X147201000Y-104538500I42000J0D01*
G01*
X149087000Y-104538500D01*
G75*
G02*
X149129000Y-104580500I0J-42000D01*
G01*
X149129000Y-105096500D01*
G75*
G02*
X149087000Y-105138500I-42000J0D01*
G01*
X147201000Y-105138500D01*
G75*
G02*
X147159000Y-105096500I0J42000D01*
G01*
G37*
G36*
G01*
X147159000Y-106366500D02*
X147159000Y-105850500D01*
G75*
G02*
X147201000Y-105808500I42000J0D01*
G01*
X149087000Y-105808500D01*
G75*
G02*
X149129000Y-105850500I0J-42000D01*
G01*
X149129000Y-106366500D01*
G75*
G02*
X149087000Y-106408500I-42000J0D01*
G01*
X147201000Y-106408500D01*
G75*
G02*
X147159000Y-106366500I0J42000D01*
G01*
G37*
G36*
G01*
X147159000Y-107636500D02*
X147159000Y-107120500D01*
G75*
G02*
X147201000Y-107078500I42000J0D01*
G01*
X149087000Y-107078500D01*
G75*
G02*
X149129000Y-107120500I0J-42000D01*
G01*
X149129000Y-107636500D01*
G75*
G02*
X149087000Y-107678500I-42000J0D01*
G01*
X147201000Y-107678500D01*
G75*
G02*
X147159000Y-107636500I0J42000D01*
G01*
G37*
G36*
G01*
X147159000Y-108906500D02*
X147159000Y-108390500D01*
G75*
G02*
X147201000Y-108348500I42000J0D01*
G01*
X149087000Y-108348500D01*
G75*
G02*
X149129000Y-108390500I0J-42000D01*
G01*
X149129000Y-108906500D01*
G75*
G02*
X149087000Y-108948500I-42000J0D01*
G01*
X147201000Y-108948500D01*
G75*
G02*
X147159000Y-108906500I0J42000D01*
G01*
G37*
G36*
G01*
X147159000Y-110176500D02*
X147159000Y-109660500D01*
G75*
G02*
X147201000Y-109618500I42000J0D01*
G01*
X149087000Y-109618500D01*
G75*
G02*
X149129000Y-109660500I0J-42000D01*
G01*
X149129000Y-110176500D01*
G75*
G02*
X149087000Y-110218500I-42000J0D01*
G01*
X147201000Y-110218500D01*
G75*
G02*
X147159000Y-110176500I0J42000D01*
G01*
G37*
G36*
G01*
X147159000Y-111446500D02*
X147159000Y-110930500D01*
G75*
G02*
X147201000Y-110888500I42000J0D01*
G01*
X149087000Y-110888500D01*
G75*
G02*
X149129000Y-110930500I0J-42000D01*
G01*
X149129000Y-111446500D01*
G75*
G02*
X149087000Y-111488500I-42000J0D01*
G01*
X147201000Y-111488500D01*
G75*
G02*
X147159000Y-111446500I0J42000D01*
G01*
G37*
G36*
G01*
X142209000Y-111446500D02*
X142209000Y-110930500D01*
G75*
G02*
X142251000Y-110888500I42000J0D01*
G01*
X144137000Y-110888500D01*
G75*
G02*
X144179000Y-110930500I0J-42000D01*
G01*
X144179000Y-111446500D01*
G75*
G02*
X144137000Y-111488500I-42000J0D01*
G01*
X142251000Y-111488500D01*
G75*
G02*
X142209000Y-111446500I0J42000D01*
G01*
G37*
G36*
G01*
X142209000Y-110176500D02*
X142209000Y-109660500D01*
G75*
G02*
X142251000Y-109618500I42000J0D01*
G01*
X144137000Y-109618500D01*
G75*
G02*
X144179000Y-109660500I0J-42000D01*
G01*
X144179000Y-110176500D01*
G75*
G02*
X144137000Y-110218500I-42000J0D01*
G01*
X142251000Y-110218500D01*
G75*
G02*
X142209000Y-110176500I0J42000D01*
G01*
G37*
G36*
G01*
X142209000Y-108906500D02*
X142209000Y-108390500D01*
G75*
G02*
X142251000Y-108348500I42000J0D01*
G01*
X144137000Y-108348500D01*
G75*
G02*
X144179000Y-108390500I0J-42000D01*
G01*
X144179000Y-108906500D01*
G75*
G02*
X144137000Y-108948500I-42000J0D01*
G01*
X142251000Y-108948500D01*
G75*
G02*
X142209000Y-108906500I0J42000D01*
G01*
G37*
G36*
G01*
X142209000Y-107636500D02*
X142209000Y-107120500D01*
G75*
G02*
X142251000Y-107078500I42000J0D01*
G01*
X144137000Y-107078500D01*
G75*
G02*
X144179000Y-107120500I0J-42000D01*
G01*
X144179000Y-107636500D01*
G75*
G02*
X144137000Y-107678500I-42000J0D01*
G01*
X142251000Y-107678500D01*
G75*
G02*
X142209000Y-107636500I0J42000D01*
G01*
G37*
G36*
G01*
X142209000Y-106366500D02*
X142209000Y-105850500D01*
G75*
G02*
X142251000Y-105808500I42000J0D01*
G01*
X144137000Y-105808500D01*
G75*
G02*
X144179000Y-105850500I0J-42000D01*
G01*
X144179000Y-106366500D01*
G75*
G02*
X144137000Y-106408500I-42000J0D01*
G01*
X142251000Y-106408500D01*
G75*
G02*
X142209000Y-106366500I0J42000D01*
G01*
G37*
G36*
G01*
X142209000Y-105096500D02*
X142209000Y-104580500D01*
G75*
G02*
X142251000Y-104538500I42000J0D01*
G01*
X144137000Y-104538500D01*
G75*
G02*
X144179000Y-104580500I0J-42000D01*
G01*
X144179000Y-105096500D01*
G75*
G02*
X144137000Y-105138500I-42000J0D01*
G01*
X142251000Y-105138500D01*
G75*
G02*
X142209000Y-105096500I0J42000D01*
G01*
G37*
G36*
G01*
X142209000Y-103826500D02*
X142209000Y-103310500D01*
G75*
G02*
X142251000Y-103268500I42000J0D01*
G01*
X144137000Y-103268500D01*
G75*
G02*
X144179000Y-103310500I0J-42000D01*
G01*
X144179000Y-103826500D01*
G75*
G02*
X144137000Y-103868500I-42000J0D01*
G01*
X142251000Y-103868500D01*
G75*
G02*
X142209000Y-103826500I0J42000D01*
G01*
G37*
G36*
G01*
X142209000Y-102556500D02*
X142209000Y-102040500D01*
G75*
G02*
X142251000Y-101998500I42000J0D01*
G01*
X144137000Y-101998500D01*
G75*
G02*
X144179000Y-102040500I0J-42000D01*
G01*
X144179000Y-102556500D01*
G75*
G02*
X144137000Y-102598500I-42000J0D01*
G01*
X142251000Y-102598500D01*
G75*
G02*
X142209000Y-102556500I0J42000D01*
G01*
G37*
%TD*%
%TO.C,U3*%
G36*
G01*
X160435000Y-110930500D02*
X160435000Y-111446500D01*
G75*
G02*
X160393000Y-111488500I-42000J0D01*
G01*
X158507000Y-111488500D01*
G75*
G02*
X158465000Y-111446500I0J42000D01*
G01*
X158465000Y-110930500D01*
G75*
G02*
X158507000Y-110888500I42000J0D01*
G01*
X160393000Y-110888500D01*
G75*
G02*
X160435000Y-110930500I0J-42000D01*
G01*
G37*
G36*
G01*
X160435000Y-109660500D02*
X160435000Y-110176500D01*
G75*
G02*
X160393000Y-110218500I-42000J0D01*
G01*
X158507000Y-110218500D01*
G75*
G02*
X158465000Y-110176500I0J42000D01*
G01*
X158465000Y-109660500D01*
G75*
G02*
X158507000Y-109618500I42000J0D01*
G01*
X160393000Y-109618500D01*
G75*
G02*
X160435000Y-109660500I0J-42000D01*
G01*
G37*
G36*
G01*
X160435000Y-108390500D02*
X160435000Y-108906500D01*
G75*
G02*
X160393000Y-108948500I-42000J0D01*
G01*
X158507000Y-108948500D01*
G75*
G02*
X158465000Y-108906500I0J42000D01*
G01*
X158465000Y-108390500D01*
G75*
G02*
X158507000Y-108348500I42000J0D01*
G01*
X160393000Y-108348500D01*
G75*
G02*
X160435000Y-108390500I0J-42000D01*
G01*
G37*
G36*
G01*
X160435000Y-107120500D02*
X160435000Y-107636500D01*
G75*
G02*
X160393000Y-107678500I-42000J0D01*
G01*
X158507000Y-107678500D01*
G75*
G02*
X158465000Y-107636500I0J42000D01*
G01*
X158465000Y-107120500D01*
G75*
G02*
X158507000Y-107078500I42000J0D01*
G01*
X160393000Y-107078500D01*
G75*
G02*
X160435000Y-107120500I0J-42000D01*
G01*
G37*
G36*
G01*
X160435000Y-105850500D02*
X160435000Y-106366500D01*
G75*
G02*
X160393000Y-106408500I-42000J0D01*
G01*
X158507000Y-106408500D01*
G75*
G02*
X158465000Y-106366500I0J42000D01*
G01*
X158465000Y-105850500D01*
G75*
G02*
X158507000Y-105808500I42000J0D01*
G01*
X160393000Y-105808500D01*
G75*
G02*
X160435000Y-105850500I0J-42000D01*
G01*
G37*
G36*
G01*
X160435000Y-104580500D02*
X160435000Y-105096500D01*
G75*
G02*
X160393000Y-105138500I-42000J0D01*
G01*
X158507000Y-105138500D01*
G75*
G02*
X158465000Y-105096500I0J42000D01*
G01*
X158465000Y-104580500D01*
G75*
G02*
X158507000Y-104538500I42000J0D01*
G01*
X160393000Y-104538500D01*
G75*
G02*
X160435000Y-104580500I0J-42000D01*
G01*
G37*
G36*
G01*
X160435000Y-103310500D02*
X160435000Y-103826500D01*
G75*
G02*
X160393000Y-103868500I-42000J0D01*
G01*
X158507000Y-103868500D01*
G75*
G02*
X158465000Y-103826500I0J42000D01*
G01*
X158465000Y-103310500D01*
G75*
G02*
X158507000Y-103268500I42000J0D01*
G01*
X160393000Y-103268500D01*
G75*
G02*
X160435000Y-103310500I0J-42000D01*
G01*
G37*
G36*
G01*
X160435000Y-102040500D02*
X160435000Y-102556500D01*
G75*
G02*
X160393000Y-102598500I-42000J0D01*
G01*
X158507000Y-102598500D01*
G75*
G02*
X158465000Y-102556500I0J42000D01*
G01*
X158465000Y-102040500D01*
G75*
G02*
X158507000Y-101998500I42000J0D01*
G01*
X160393000Y-101998500D01*
G75*
G02*
X160435000Y-102040500I0J-42000D01*
G01*
G37*
G36*
G01*
X165385000Y-102040500D02*
X165385000Y-102556500D01*
G75*
G02*
X165343000Y-102598500I-42000J0D01*
G01*
X163457000Y-102598500D01*
G75*
G02*
X163415000Y-102556500I0J42000D01*
G01*
X163415000Y-102040500D01*
G75*
G02*
X163457000Y-101998500I42000J0D01*
G01*
X165343000Y-101998500D01*
G75*
G02*
X165385000Y-102040500I0J-42000D01*
G01*
G37*
G36*
G01*
X165385000Y-103310500D02*
X165385000Y-103826500D01*
G75*
G02*
X165343000Y-103868500I-42000J0D01*
G01*
X163457000Y-103868500D01*
G75*
G02*
X163415000Y-103826500I0J42000D01*
G01*
X163415000Y-103310500D01*
G75*
G02*
X163457000Y-103268500I42000J0D01*
G01*
X165343000Y-103268500D01*
G75*
G02*
X165385000Y-103310500I0J-42000D01*
G01*
G37*
G36*
G01*
X165385000Y-104580500D02*
X165385000Y-105096500D01*
G75*
G02*
X165343000Y-105138500I-42000J0D01*
G01*
X163457000Y-105138500D01*
G75*
G02*
X163415000Y-105096500I0J42000D01*
G01*
X163415000Y-104580500D01*
G75*
G02*
X163457000Y-104538500I42000J0D01*
G01*
X165343000Y-104538500D01*
G75*
G02*
X165385000Y-104580500I0J-42000D01*
G01*
G37*
G36*
G01*
X165385000Y-105850500D02*
X165385000Y-106366500D01*
G75*
G02*
X165343000Y-106408500I-42000J0D01*
G01*
X163457000Y-106408500D01*
G75*
G02*
X163415000Y-106366500I0J42000D01*
G01*
X163415000Y-105850500D01*
G75*
G02*
X163457000Y-105808500I42000J0D01*
G01*
X165343000Y-105808500D01*
G75*
G02*
X165385000Y-105850500I0J-42000D01*
G01*
G37*
G36*
G01*
X165385000Y-107120500D02*
X165385000Y-107636500D01*
G75*
G02*
X165343000Y-107678500I-42000J0D01*
G01*
X163457000Y-107678500D01*
G75*
G02*
X163415000Y-107636500I0J42000D01*
G01*
X163415000Y-107120500D01*
G75*
G02*
X163457000Y-107078500I42000J0D01*
G01*
X165343000Y-107078500D01*
G75*
G02*
X165385000Y-107120500I0J-42000D01*
G01*
G37*
G36*
G01*
X165385000Y-108390500D02*
X165385000Y-108906500D01*
G75*
G02*
X165343000Y-108948500I-42000J0D01*
G01*
X163457000Y-108948500D01*
G75*
G02*
X163415000Y-108906500I0J42000D01*
G01*
X163415000Y-108390500D01*
G75*
G02*
X163457000Y-108348500I42000J0D01*
G01*
X165343000Y-108348500D01*
G75*
G02*
X165385000Y-108390500I0J-42000D01*
G01*
G37*
G36*
G01*
X165385000Y-109660500D02*
X165385000Y-110176500D01*
G75*
G02*
X165343000Y-110218500I-42000J0D01*
G01*
X163457000Y-110218500D01*
G75*
G02*
X163415000Y-110176500I0J42000D01*
G01*
X163415000Y-109660500D01*
G75*
G02*
X163457000Y-109618500I42000J0D01*
G01*
X165343000Y-109618500D01*
G75*
G02*
X165385000Y-109660500I0J-42000D01*
G01*
G37*
G36*
G01*
X165385000Y-110930500D02*
X165385000Y-111446500D01*
G75*
G02*
X165343000Y-111488500I-42000J0D01*
G01*
X163457000Y-111488500D01*
G75*
G02*
X163415000Y-111446500I0J42000D01*
G01*
X163415000Y-110930500D01*
G75*
G02*
X163457000Y-110888500I42000J0D01*
G01*
X165343000Y-110888500D01*
G75*
G02*
X165385000Y-110930500I0J-42000D01*
G01*
G37*
%TD*%
%TO.C,R26*%
G36*
G01*
X130894500Y-79521500D02*
X130344500Y-79521500D01*
G75*
G02*
X130144500Y-79321500I0J200000D01*
G01*
X130144500Y-78921500D01*
G75*
G02*
X130344500Y-78721500I200000J0D01*
G01*
X130894500Y-78721500D01*
G75*
G02*
X131094500Y-78921500I0J-200000D01*
G01*
X131094500Y-79321500D01*
G75*
G02*
X130894500Y-79521500I-200000J0D01*
G01*
G37*
G36*
G01*
X130894500Y-81171500D02*
X130344500Y-81171500D01*
G75*
G02*
X130144500Y-80971500I0J200000D01*
G01*
X130144500Y-80571500D01*
G75*
G02*
X130344500Y-80371500I200000J0D01*
G01*
X130894500Y-80371500D01*
G75*
G02*
X131094500Y-80571500I0J-200000D01*
G01*
X131094500Y-80971500D01*
G75*
G02*
X130894500Y-81171500I-200000J0D01*
G01*
G37*
%TD*%
%TO.C,R24*%
G36*
G01*
X133180500Y-79521500D02*
X132630500Y-79521500D01*
G75*
G02*
X132430500Y-79321500I0J200000D01*
G01*
X132430500Y-78921500D01*
G75*
G02*
X132630500Y-78721500I200000J0D01*
G01*
X133180500Y-78721500D01*
G75*
G02*
X133380500Y-78921500I0J-200000D01*
G01*
X133380500Y-79321500D01*
G75*
G02*
X133180500Y-79521500I-200000J0D01*
G01*
G37*
G36*
G01*
X133180500Y-81171500D02*
X132630500Y-81171500D01*
G75*
G02*
X132430500Y-80971500I0J200000D01*
G01*
X132430500Y-80571500D01*
G75*
G02*
X132630500Y-80371500I200000J0D01*
G01*
X133180500Y-80371500D01*
G75*
G02*
X133380500Y-80571500I0J-200000D01*
G01*
X133380500Y-80971500D01*
G75*
G02*
X133180500Y-81171500I-200000J0D01*
G01*
G37*
%TD*%
%TO.C,R23*%
G36*
G01*
X130348500Y-85832500D02*
X130898500Y-85832500D01*
G75*
G02*
X131098500Y-86032500I0J-200000D01*
G01*
X131098500Y-86432500D01*
G75*
G02*
X130898500Y-86632500I-200000J0D01*
G01*
X130348500Y-86632500D01*
G75*
G02*
X130148500Y-86432500I0J200000D01*
G01*
X130148500Y-86032500D01*
G75*
G02*
X130348500Y-85832500I200000J0D01*
G01*
G37*
G36*
G01*
X130348500Y-84182500D02*
X130898500Y-84182500D01*
G75*
G02*
X131098500Y-84382500I0J-200000D01*
G01*
X131098500Y-84782500D01*
G75*
G02*
X130898500Y-84982500I-200000J0D01*
G01*
X130348500Y-84982500D01*
G75*
G02*
X130148500Y-84782500I0J200000D01*
G01*
X130148500Y-84382500D01*
G75*
G02*
X130348500Y-84182500I200000J0D01*
G01*
G37*
%TD*%
%TO.C,R22*%
G36*
G01*
X128824500Y-85832500D02*
X129374500Y-85832500D01*
G75*
G02*
X129574500Y-86032500I0J-200000D01*
G01*
X129574500Y-86432500D01*
G75*
G02*
X129374500Y-86632500I-200000J0D01*
G01*
X128824500Y-86632500D01*
G75*
G02*
X128624500Y-86432500I0J200000D01*
G01*
X128624500Y-86032500D01*
G75*
G02*
X128824500Y-85832500I200000J0D01*
G01*
G37*
G36*
G01*
X128824500Y-84182500D02*
X129374500Y-84182500D01*
G75*
G02*
X129574500Y-84382500I0J-200000D01*
G01*
X129574500Y-84782500D01*
G75*
G02*
X129374500Y-84982500I-200000J0D01*
G01*
X128824500Y-84982500D01*
G75*
G02*
X128624500Y-84782500I0J200000D01*
G01*
X128624500Y-84382500D01*
G75*
G02*
X128824500Y-84182500I200000J0D01*
G01*
G37*
%TD*%
%TO.C,R21*%
G36*
G01*
X135619000Y-85832500D02*
X136169000Y-85832500D01*
G75*
G02*
X136369000Y-86032500I0J-200000D01*
G01*
X136369000Y-86432500D01*
G75*
G02*
X136169000Y-86632500I-200000J0D01*
G01*
X135619000Y-86632500D01*
G75*
G02*
X135419000Y-86432500I0J200000D01*
G01*
X135419000Y-86032500D01*
G75*
G02*
X135619000Y-85832500I200000J0D01*
G01*
G37*
G36*
G01*
X135619000Y-84182500D02*
X136169000Y-84182500D01*
G75*
G02*
X136369000Y-84382500I0J-200000D01*
G01*
X136369000Y-84782500D01*
G75*
G02*
X136169000Y-84982500I-200000J0D01*
G01*
X135619000Y-84982500D01*
G75*
G02*
X135419000Y-84782500I0J200000D01*
G01*
X135419000Y-84382500D01*
G75*
G02*
X135619000Y-84182500I200000J0D01*
G01*
G37*
%TD*%
%TO.C,R20*%
G36*
G01*
X134095000Y-85832500D02*
X134645000Y-85832500D01*
G75*
G02*
X134845000Y-86032500I0J-200000D01*
G01*
X134845000Y-86432500D01*
G75*
G02*
X134645000Y-86632500I-200000J0D01*
G01*
X134095000Y-86632500D01*
G75*
G02*
X133895000Y-86432500I0J200000D01*
G01*
X133895000Y-86032500D01*
G75*
G02*
X134095000Y-85832500I200000J0D01*
G01*
G37*
G36*
G01*
X134095000Y-84182500D02*
X134645000Y-84182500D01*
G75*
G02*
X134845000Y-84382500I0J-200000D01*
G01*
X134845000Y-84782500D01*
G75*
G02*
X134645000Y-84982500I-200000J0D01*
G01*
X134095000Y-84982500D01*
G75*
G02*
X133895000Y-84782500I0J200000D01*
G01*
X133895000Y-84382500D01*
G75*
G02*
X134095000Y-84182500I200000J0D01*
G01*
G37*
%TD*%
%TO.C,R19*%
G36*
G01*
X140952500Y-85832500D02*
X141502500Y-85832500D01*
G75*
G02*
X141702500Y-86032500I0J-200000D01*
G01*
X141702500Y-86432500D01*
G75*
G02*
X141502500Y-86632500I-200000J0D01*
G01*
X140952500Y-86632500D01*
G75*
G02*
X140752500Y-86432500I0J200000D01*
G01*
X140752500Y-86032500D01*
G75*
G02*
X140952500Y-85832500I200000J0D01*
G01*
G37*
G36*
G01*
X140952500Y-84182500D02*
X141502500Y-84182500D01*
G75*
G02*
X141702500Y-84382500I0J-200000D01*
G01*
X141702500Y-84782500D01*
G75*
G02*
X141502500Y-84982500I-200000J0D01*
G01*
X140952500Y-84982500D01*
G75*
G02*
X140752500Y-84782500I0J200000D01*
G01*
X140752500Y-84382500D01*
G75*
G02*
X140952500Y-84182500I200000J0D01*
G01*
G37*
%TD*%
%TO.C,R18*%
G36*
G01*
X139428500Y-85832500D02*
X139978500Y-85832500D01*
G75*
G02*
X140178500Y-86032500I0J-200000D01*
G01*
X140178500Y-86432500D01*
G75*
G02*
X139978500Y-86632500I-200000J0D01*
G01*
X139428500Y-86632500D01*
G75*
G02*
X139228500Y-86432500I0J200000D01*
G01*
X139228500Y-86032500D01*
G75*
G02*
X139428500Y-85832500I200000J0D01*
G01*
G37*
G36*
G01*
X139428500Y-84182500D02*
X139978500Y-84182500D01*
G75*
G02*
X140178500Y-84382500I0J-200000D01*
G01*
X140178500Y-84782500D01*
G75*
G02*
X139978500Y-84982500I-200000J0D01*
G01*
X139428500Y-84982500D01*
G75*
G02*
X139228500Y-84782500I0J200000D01*
G01*
X139228500Y-84382500D01*
G75*
G02*
X139428500Y-84182500I200000J0D01*
G01*
G37*
%TD*%
%TO.C,R17*%
G36*
G01*
X146349500Y-85832500D02*
X146899500Y-85832500D01*
G75*
G02*
X147099500Y-86032500I0J-200000D01*
G01*
X147099500Y-86432500D01*
G75*
G02*
X146899500Y-86632500I-200000J0D01*
G01*
X146349500Y-86632500D01*
G75*
G02*
X146149500Y-86432500I0J200000D01*
G01*
X146149500Y-86032500D01*
G75*
G02*
X146349500Y-85832500I200000J0D01*
G01*
G37*
G36*
G01*
X146349500Y-84182500D02*
X146899500Y-84182500D01*
G75*
G02*
X147099500Y-84382500I0J-200000D01*
G01*
X147099500Y-84782500D01*
G75*
G02*
X146899500Y-84982500I-200000J0D01*
G01*
X146349500Y-84982500D01*
G75*
G02*
X146149500Y-84782500I0J200000D01*
G01*
X146149500Y-84382500D01*
G75*
G02*
X146349500Y-84182500I200000J0D01*
G01*
G37*
%TD*%
%TO.C,R16*%
G36*
G01*
X144825500Y-85832500D02*
X145375500Y-85832500D01*
G75*
G02*
X145575500Y-86032500I0J-200000D01*
G01*
X145575500Y-86432500D01*
G75*
G02*
X145375500Y-86632500I-200000J0D01*
G01*
X144825500Y-86632500D01*
G75*
G02*
X144625500Y-86432500I0J200000D01*
G01*
X144625500Y-86032500D01*
G75*
G02*
X144825500Y-85832500I200000J0D01*
G01*
G37*
G36*
G01*
X144825500Y-84182500D02*
X145375500Y-84182500D01*
G75*
G02*
X145575500Y-84382500I0J-200000D01*
G01*
X145575500Y-84782500D01*
G75*
G02*
X145375500Y-84982500I-200000J0D01*
G01*
X144825500Y-84982500D01*
G75*
G02*
X144625500Y-84782500I0J200000D01*
G01*
X144625500Y-84382500D01*
G75*
G02*
X144825500Y-84182500I200000J0D01*
G01*
G37*
%TD*%
%TO.C,R15*%
G36*
G01*
X151683000Y-85832500D02*
X152233000Y-85832500D01*
G75*
G02*
X152433000Y-86032500I0J-200000D01*
G01*
X152433000Y-86432500D01*
G75*
G02*
X152233000Y-86632500I-200000J0D01*
G01*
X151683000Y-86632500D01*
G75*
G02*
X151483000Y-86432500I0J200000D01*
G01*
X151483000Y-86032500D01*
G75*
G02*
X151683000Y-85832500I200000J0D01*
G01*
G37*
G36*
G01*
X151683000Y-84182500D02*
X152233000Y-84182500D01*
G75*
G02*
X152433000Y-84382500I0J-200000D01*
G01*
X152433000Y-84782500D01*
G75*
G02*
X152233000Y-84982500I-200000J0D01*
G01*
X151683000Y-84982500D01*
G75*
G02*
X151483000Y-84782500I0J200000D01*
G01*
X151483000Y-84382500D01*
G75*
G02*
X151683000Y-84182500I200000J0D01*
G01*
G37*
%TD*%
%TO.C,R14*%
G36*
G01*
X150159000Y-85832500D02*
X150709000Y-85832500D01*
G75*
G02*
X150909000Y-86032500I0J-200000D01*
G01*
X150909000Y-86432500D01*
G75*
G02*
X150709000Y-86632500I-200000J0D01*
G01*
X150159000Y-86632500D01*
G75*
G02*
X149959000Y-86432500I0J200000D01*
G01*
X149959000Y-86032500D01*
G75*
G02*
X150159000Y-85832500I200000J0D01*
G01*
G37*
G36*
G01*
X150159000Y-84182500D02*
X150709000Y-84182500D01*
G75*
G02*
X150909000Y-84382500I0J-200000D01*
G01*
X150909000Y-84782500D01*
G75*
G02*
X150709000Y-84982500I-200000J0D01*
G01*
X150159000Y-84982500D01*
G75*
G02*
X149959000Y-84782500I0J200000D01*
G01*
X149959000Y-84382500D01*
G75*
G02*
X150159000Y-84182500I200000J0D01*
G01*
G37*
%TD*%
%TO.C,R13*%
G36*
G01*
X157016500Y-85832500D02*
X157566500Y-85832500D01*
G75*
G02*
X157766500Y-86032500I0J-200000D01*
G01*
X157766500Y-86432500D01*
G75*
G02*
X157566500Y-86632500I-200000J0D01*
G01*
X157016500Y-86632500D01*
G75*
G02*
X156816500Y-86432500I0J200000D01*
G01*
X156816500Y-86032500D01*
G75*
G02*
X157016500Y-85832500I200000J0D01*
G01*
G37*
G36*
G01*
X157016500Y-84182500D02*
X157566500Y-84182500D01*
G75*
G02*
X157766500Y-84382500I0J-200000D01*
G01*
X157766500Y-84782500D01*
G75*
G02*
X157566500Y-84982500I-200000J0D01*
G01*
X157016500Y-84982500D01*
G75*
G02*
X156816500Y-84782500I0J200000D01*
G01*
X156816500Y-84382500D01*
G75*
G02*
X157016500Y-84182500I200000J0D01*
G01*
G37*
%TD*%
%TO.C,R12*%
G36*
G01*
X155492500Y-85832500D02*
X156042500Y-85832500D01*
G75*
G02*
X156242500Y-86032500I0J-200000D01*
G01*
X156242500Y-86432500D01*
G75*
G02*
X156042500Y-86632500I-200000J0D01*
G01*
X155492500Y-86632500D01*
G75*
G02*
X155292500Y-86432500I0J200000D01*
G01*
X155292500Y-86032500D01*
G75*
G02*
X155492500Y-85832500I200000J0D01*
G01*
G37*
G36*
G01*
X155492500Y-84182500D02*
X156042500Y-84182500D01*
G75*
G02*
X156242500Y-84382500I0J-200000D01*
G01*
X156242500Y-84782500D01*
G75*
G02*
X156042500Y-84982500I-200000J0D01*
G01*
X155492500Y-84982500D01*
G75*
G02*
X155292500Y-84782500I0J200000D01*
G01*
X155292500Y-84382500D01*
G75*
G02*
X155492500Y-84182500I200000J0D01*
G01*
G37*
%TD*%
%TO.C,R11*%
G36*
G01*
X162350000Y-85832500D02*
X162900000Y-85832500D01*
G75*
G02*
X163100000Y-86032500I0J-200000D01*
G01*
X163100000Y-86432500D01*
G75*
G02*
X162900000Y-86632500I-200000J0D01*
G01*
X162350000Y-86632500D01*
G75*
G02*
X162150000Y-86432500I0J200000D01*
G01*
X162150000Y-86032500D01*
G75*
G02*
X162350000Y-85832500I200000J0D01*
G01*
G37*
G36*
G01*
X162350000Y-84182500D02*
X162900000Y-84182500D01*
G75*
G02*
X163100000Y-84382500I0J-200000D01*
G01*
X163100000Y-84782500D01*
G75*
G02*
X162900000Y-84982500I-200000J0D01*
G01*
X162350000Y-84982500D01*
G75*
G02*
X162150000Y-84782500I0J200000D01*
G01*
X162150000Y-84382500D01*
G75*
G02*
X162350000Y-84182500I200000J0D01*
G01*
G37*
%TD*%
%TO.C,R10*%
G36*
G01*
X160826000Y-85832500D02*
X161376000Y-85832500D01*
G75*
G02*
X161576000Y-86032500I0J-200000D01*
G01*
X161576000Y-86432500D01*
G75*
G02*
X161376000Y-86632500I-200000J0D01*
G01*
X160826000Y-86632500D01*
G75*
G02*
X160626000Y-86432500I0J200000D01*
G01*
X160626000Y-86032500D01*
G75*
G02*
X160826000Y-85832500I200000J0D01*
G01*
G37*
G36*
G01*
X160826000Y-84182500D02*
X161376000Y-84182500D01*
G75*
G02*
X161576000Y-84382500I0J-200000D01*
G01*
X161576000Y-84782500D01*
G75*
G02*
X161376000Y-84982500I-200000J0D01*
G01*
X160826000Y-84982500D01*
G75*
G02*
X160626000Y-84782500I0J200000D01*
G01*
X160626000Y-84382500D01*
G75*
G02*
X160826000Y-84182500I200000J0D01*
G01*
G37*
%TD*%
%TO.C,R9*%
G36*
G01*
X167747000Y-85832500D02*
X168297000Y-85832500D01*
G75*
G02*
X168497000Y-86032500I0J-200000D01*
G01*
X168497000Y-86432500D01*
G75*
G02*
X168297000Y-86632500I-200000J0D01*
G01*
X167747000Y-86632500D01*
G75*
G02*
X167547000Y-86432500I0J200000D01*
G01*
X167547000Y-86032500D01*
G75*
G02*
X167747000Y-85832500I200000J0D01*
G01*
G37*
G36*
G01*
X167747000Y-84182500D02*
X168297000Y-84182500D01*
G75*
G02*
X168497000Y-84382500I0J-200000D01*
G01*
X168497000Y-84782500D01*
G75*
G02*
X168297000Y-84982500I-200000J0D01*
G01*
X167747000Y-84982500D01*
G75*
G02*
X167547000Y-84782500I0J200000D01*
G01*
X167547000Y-84382500D01*
G75*
G02*
X167747000Y-84182500I200000J0D01*
G01*
G37*
%TD*%
%TO.C,R8*%
G36*
G01*
X166223000Y-85832500D02*
X166773000Y-85832500D01*
G75*
G02*
X166973000Y-86032500I0J-200000D01*
G01*
X166973000Y-86432500D01*
G75*
G02*
X166773000Y-86632500I-200000J0D01*
G01*
X166223000Y-86632500D01*
G75*
G02*
X166023000Y-86432500I0J200000D01*
G01*
X166023000Y-86032500D01*
G75*
G02*
X166223000Y-85832500I200000J0D01*
G01*
G37*
G36*
G01*
X166223000Y-84182500D02*
X166773000Y-84182500D01*
G75*
G02*
X166973000Y-84382500I0J-200000D01*
G01*
X166973000Y-84782500D01*
G75*
G02*
X166773000Y-84982500I-200000J0D01*
G01*
X166223000Y-84982500D01*
G75*
G02*
X166023000Y-84782500I0J200000D01*
G01*
X166023000Y-84382500D01*
G75*
G02*
X166223000Y-84182500I200000J0D01*
G01*
G37*
%TD*%
%TO.C,R7*%
G36*
G01*
X173207500Y-85832500D02*
X173757500Y-85832500D01*
G75*
G02*
X173957500Y-86032500I0J-200000D01*
G01*
X173957500Y-86432500D01*
G75*
G02*
X173757500Y-86632500I-200000J0D01*
G01*
X173207500Y-86632500D01*
G75*
G02*
X173007500Y-86432500I0J200000D01*
G01*
X173007500Y-86032500D01*
G75*
G02*
X173207500Y-85832500I200000J0D01*
G01*
G37*
G36*
G01*
X173207500Y-84182500D02*
X173757500Y-84182500D01*
G75*
G02*
X173957500Y-84382500I0J-200000D01*
G01*
X173957500Y-84782500D01*
G75*
G02*
X173757500Y-84982500I-200000J0D01*
G01*
X173207500Y-84982500D01*
G75*
G02*
X173007500Y-84782500I0J200000D01*
G01*
X173007500Y-84382500D01*
G75*
G02*
X173207500Y-84182500I200000J0D01*
G01*
G37*
%TD*%
%TO.C,R6*%
G36*
G01*
X171683500Y-85832500D02*
X172233500Y-85832500D01*
G75*
G02*
X172433500Y-86032500I0J-200000D01*
G01*
X172433500Y-86432500D01*
G75*
G02*
X172233500Y-86632500I-200000J0D01*
G01*
X171683500Y-86632500D01*
G75*
G02*
X171483500Y-86432500I0J200000D01*
G01*
X171483500Y-86032500D01*
G75*
G02*
X171683500Y-85832500I200000J0D01*
G01*
G37*
G36*
G01*
X171683500Y-84182500D02*
X172233500Y-84182500D01*
G75*
G02*
X172433500Y-84382500I0J-200000D01*
G01*
X172433500Y-84782500D01*
G75*
G02*
X172233500Y-84982500I-200000J0D01*
G01*
X171683500Y-84982500D01*
G75*
G02*
X171483500Y-84782500I0J200000D01*
G01*
X171483500Y-84382500D01*
G75*
G02*
X171683500Y-84182500I200000J0D01*
G01*
G37*
%TD*%
%TO.C,R5*%
G36*
G01*
X178668000Y-85832500D02*
X179218000Y-85832500D01*
G75*
G02*
X179418000Y-86032500I0J-200000D01*
G01*
X179418000Y-86432500D01*
G75*
G02*
X179218000Y-86632500I-200000J0D01*
G01*
X178668000Y-86632500D01*
G75*
G02*
X178468000Y-86432500I0J200000D01*
G01*
X178468000Y-86032500D01*
G75*
G02*
X178668000Y-85832500I200000J0D01*
G01*
G37*
G36*
G01*
X178668000Y-84182500D02*
X179218000Y-84182500D01*
G75*
G02*
X179418000Y-84382500I0J-200000D01*
G01*
X179418000Y-84782500D01*
G75*
G02*
X179218000Y-84982500I-200000J0D01*
G01*
X178668000Y-84982500D01*
G75*
G02*
X178468000Y-84782500I0J200000D01*
G01*
X178468000Y-84382500D01*
G75*
G02*
X178668000Y-84182500I200000J0D01*
G01*
G37*
%TD*%
%TO.C,R4*%
G36*
G01*
X177144000Y-85832500D02*
X177694000Y-85832500D01*
G75*
G02*
X177894000Y-86032500I0J-200000D01*
G01*
X177894000Y-86432500D01*
G75*
G02*
X177694000Y-86632500I-200000J0D01*
G01*
X177144000Y-86632500D01*
G75*
G02*
X176944000Y-86432500I0J200000D01*
G01*
X176944000Y-86032500D01*
G75*
G02*
X177144000Y-85832500I200000J0D01*
G01*
G37*
G36*
G01*
X177144000Y-84182500D02*
X177694000Y-84182500D01*
G75*
G02*
X177894000Y-84382500I0J-200000D01*
G01*
X177894000Y-84782500D01*
G75*
G02*
X177694000Y-84982500I-200000J0D01*
G01*
X177144000Y-84982500D01*
G75*
G02*
X176944000Y-84782500I0J200000D01*
G01*
X176944000Y-84382500D01*
G75*
G02*
X177144000Y-84182500I200000J0D01*
G01*
G37*
%TD*%
%TO.C,R3*%
G36*
G01*
X131529500Y-71457000D02*
X130979500Y-71457000D01*
G75*
G02*
X130779500Y-71257000I0J200000D01*
G01*
X130779500Y-70857000D01*
G75*
G02*
X130979500Y-70657000I200000J0D01*
G01*
X131529500Y-70657000D01*
G75*
G02*
X131729500Y-70857000I0J-200000D01*
G01*
X131729500Y-71257000D01*
G75*
G02*
X131529500Y-71457000I-200000J0D01*
G01*
G37*
G36*
G01*
X131529500Y-73107000D02*
X130979500Y-73107000D01*
G75*
G02*
X130779500Y-72907000I0J200000D01*
G01*
X130779500Y-72507000D01*
G75*
G02*
X130979500Y-72307000I200000J0D01*
G01*
X131529500Y-72307000D01*
G75*
G02*
X131729500Y-72507000I0J-200000D01*
G01*
X131729500Y-72907000D01*
G75*
G02*
X131529500Y-73107000I-200000J0D01*
G01*
G37*
%TD*%
%TO.C,R2*%
G36*
G01*
X137774000Y-72814500D02*
X138324000Y-72814500D01*
G75*
G02*
X138524000Y-73014500I0J-200000D01*
G01*
X138524000Y-73414500D01*
G75*
G02*
X138324000Y-73614500I-200000J0D01*
G01*
X137774000Y-73614500D01*
G75*
G02*
X137574000Y-73414500I0J200000D01*
G01*
X137574000Y-73014500D01*
G75*
G02*
X137774000Y-72814500I200000J0D01*
G01*
G37*
G36*
G01*
X137774000Y-71164500D02*
X138324000Y-71164500D01*
G75*
G02*
X138524000Y-71364500I0J-200000D01*
G01*
X138524000Y-71764500D01*
G75*
G02*
X138324000Y-71964500I-200000J0D01*
G01*
X137774000Y-71964500D01*
G75*
G02*
X137574000Y-71764500I0J200000D01*
G01*
X137574000Y-71364500D01*
G75*
G02*
X137774000Y-71164500I200000J0D01*
G01*
G37*
%TD*%
%TO.C,R1*%
G36*
G01*
X136186500Y-72815000D02*
X136736500Y-72815000D01*
G75*
G02*
X136936500Y-73015000I0J-200000D01*
G01*
X136936500Y-73415000D01*
G75*
G02*
X136736500Y-73615000I-200000J0D01*
G01*
X136186500Y-73615000D01*
G75*
G02*
X135986500Y-73415000I0J200000D01*
G01*
X135986500Y-73015000D01*
G75*
G02*
X136186500Y-72815000I200000J0D01*
G01*
G37*
G36*
G01*
X136186500Y-71165000D02*
X136736500Y-71165000D01*
G75*
G02*
X136936500Y-71365000I0J-200000D01*
G01*
X136936500Y-71765000D01*
G75*
G02*
X136736500Y-71965000I-200000J0D01*
G01*
X136186500Y-71965000D01*
G75*
G02*
X135986500Y-71765000I0J200000D01*
G01*
X135986500Y-71365000D01*
G75*
G02*
X136186500Y-71165000I200000J0D01*
G01*
G37*
%TD*%
D13*
%TO.C,Q1*%
X134808000Y-73700000D03*
X133858000Y-73700000D03*
X132908000Y-73700000D03*
X132908000Y-71080000D03*
X133858000Y-71080000D03*
X134808000Y-71080000D03*
%TD*%
%TO.C,C26*%
G36*
G01*
X134933500Y-76319500D02*
X134433500Y-76319500D01*
G75*
G02*
X134208500Y-76094500I0J225000D01*
G01*
X134208500Y-75644500D01*
G75*
G02*
X134433500Y-75419500I225000J0D01*
G01*
X134933500Y-75419500D01*
G75*
G02*
X135158500Y-75644500I0J-225000D01*
G01*
X135158500Y-76094500D01*
G75*
G02*
X134933500Y-76319500I-225000J0D01*
G01*
G37*
G36*
G01*
X134933500Y-77869500D02*
X134433500Y-77869500D01*
G75*
G02*
X134208500Y-77644500I0J225000D01*
G01*
X134208500Y-77194500D01*
G75*
G02*
X134433500Y-76969500I225000J0D01*
G01*
X134933500Y-76969500D01*
G75*
G02*
X135158500Y-77194500I0J-225000D01*
G01*
X135158500Y-77644500D01*
G75*
G02*
X134933500Y-77869500I-225000J0D01*
G01*
G37*
%TD*%
%TO.C,C24*%
G36*
G01*
X175200500Y-88907500D02*
X175700500Y-88907500D01*
G75*
G02*
X175925500Y-89132500I0J-225000D01*
G01*
X175925500Y-89582500D01*
G75*
G02*
X175700500Y-89807500I-225000J0D01*
G01*
X175200500Y-89807500D01*
G75*
G02*
X174975500Y-89582500I0J225000D01*
G01*
X174975500Y-89132500D01*
G75*
G02*
X175200500Y-88907500I225000J0D01*
G01*
G37*
G36*
G01*
X175200500Y-87357500D02*
X175700500Y-87357500D01*
G75*
G02*
X175925500Y-87582500I0J-225000D01*
G01*
X175925500Y-88032500D01*
G75*
G02*
X175700500Y-88257500I-225000J0D01*
G01*
X175200500Y-88257500D01*
G75*
G02*
X174975500Y-88032500I0J225000D01*
G01*
X174975500Y-87582500D01*
G75*
G02*
X175200500Y-87357500I225000J0D01*
G01*
G37*
%TD*%
%TO.C,C22*%
G36*
G01*
X169740000Y-88907500D02*
X170240000Y-88907500D01*
G75*
G02*
X170465000Y-89132500I0J-225000D01*
G01*
X170465000Y-89582500D01*
G75*
G02*
X170240000Y-89807500I-225000J0D01*
G01*
X169740000Y-89807500D01*
G75*
G02*
X169515000Y-89582500I0J225000D01*
G01*
X169515000Y-89132500D01*
G75*
G02*
X169740000Y-88907500I225000J0D01*
G01*
G37*
G36*
G01*
X169740000Y-87357500D02*
X170240000Y-87357500D01*
G75*
G02*
X170465000Y-87582500I0J-225000D01*
G01*
X170465000Y-88032500D01*
G75*
G02*
X170240000Y-88257500I-225000J0D01*
G01*
X169740000Y-88257500D01*
G75*
G02*
X169515000Y-88032500I0J225000D01*
G01*
X169515000Y-87582500D01*
G75*
G02*
X169740000Y-87357500I225000J0D01*
G01*
G37*
%TD*%
%TO.C,C20*%
G36*
G01*
X164279500Y-88907500D02*
X164779500Y-88907500D01*
G75*
G02*
X165004500Y-89132500I0J-225000D01*
G01*
X165004500Y-89582500D01*
G75*
G02*
X164779500Y-89807500I-225000J0D01*
G01*
X164279500Y-89807500D01*
G75*
G02*
X164054500Y-89582500I0J225000D01*
G01*
X164054500Y-89132500D01*
G75*
G02*
X164279500Y-88907500I225000J0D01*
G01*
G37*
G36*
G01*
X164279500Y-87357500D02*
X164779500Y-87357500D01*
G75*
G02*
X165004500Y-87582500I0J-225000D01*
G01*
X165004500Y-88032500D01*
G75*
G02*
X164779500Y-88257500I-225000J0D01*
G01*
X164279500Y-88257500D01*
G75*
G02*
X164054500Y-88032500I0J225000D01*
G01*
X164054500Y-87582500D01*
G75*
G02*
X164279500Y-87357500I225000J0D01*
G01*
G37*
%TD*%
%TO.C,C18*%
G36*
G01*
X158946000Y-88907500D02*
X159446000Y-88907500D01*
G75*
G02*
X159671000Y-89132500I0J-225000D01*
G01*
X159671000Y-89582500D01*
G75*
G02*
X159446000Y-89807500I-225000J0D01*
G01*
X158946000Y-89807500D01*
G75*
G02*
X158721000Y-89582500I0J225000D01*
G01*
X158721000Y-89132500D01*
G75*
G02*
X158946000Y-88907500I225000J0D01*
G01*
G37*
G36*
G01*
X158946000Y-87357500D02*
X159446000Y-87357500D01*
G75*
G02*
X159671000Y-87582500I0J-225000D01*
G01*
X159671000Y-88032500D01*
G75*
G02*
X159446000Y-88257500I-225000J0D01*
G01*
X158946000Y-88257500D01*
G75*
G02*
X158721000Y-88032500I0J225000D01*
G01*
X158721000Y-87582500D01*
G75*
G02*
X158946000Y-87357500I225000J0D01*
G01*
G37*
%TD*%
%TO.C,C16*%
G36*
G01*
X153612500Y-88907500D02*
X154112500Y-88907500D01*
G75*
G02*
X154337500Y-89132500I0J-225000D01*
G01*
X154337500Y-89582500D01*
G75*
G02*
X154112500Y-89807500I-225000J0D01*
G01*
X153612500Y-89807500D01*
G75*
G02*
X153387500Y-89582500I0J225000D01*
G01*
X153387500Y-89132500D01*
G75*
G02*
X153612500Y-88907500I225000J0D01*
G01*
G37*
G36*
G01*
X153612500Y-87357500D02*
X154112500Y-87357500D01*
G75*
G02*
X154337500Y-87582500I0J-225000D01*
G01*
X154337500Y-88032500D01*
G75*
G02*
X154112500Y-88257500I-225000J0D01*
G01*
X153612500Y-88257500D01*
G75*
G02*
X153387500Y-88032500I0J225000D01*
G01*
X153387500Y-87582500D01*
G75*
G02*
X153612500Y-87357500I225000J0D01*
G01*
G37*
%TD*%
%TO.C,C14*%
G36*
G01*
X148279000Y-88907500D02*
X148779000Y-88907500D01*
G75*
G02*
X149004000Y-89132500I0J-225000D01*
G01*
X149004000Y-89582500D01*
G75*
G02*
X148779000Y-89807500I-225000J0D01*
G01*
X148279000Y-89807500D01*
G75*
G02*
X148054000Y-89582500I0J225000D01*
G01*
X148054000Y-89132500D01*
G75*
G02*
X148279000Y-88907500I225000J0D01*
G01*
G37*
G36*
G01*
X148279000Y-87357500D02*
X148779000Y-87357500D01*
G75*
G02*
X149004000Y-87582500I0J-225000D01*
G01*
X149004000Y-88032500D01*
G75*
G02*
X148779000Y-88257500I-225000J0D01*
G01*
X148279000Y-88257500D01*
G75*
G02*
X148054000Y-88032500I0J225000D01*
G01*
X148054000Y-87582500D01*
G75*
G02*
X148279000Y-87357500I225000J0D01*
G01*
G37*
%TD*%
%TO.C,C12*%
G36*
G01*
X162250000Y-113534000D02*
X162250000Y-113034000D01*
G75*
G02*
X162475000Y-112809000I225000J0D01*
G01*
X162925000Y-112809000D01*
G75*
G02*
X163150000Y-113034000I0J-225000D01*
G01*
X163150000Y-113534000D01*
G75*
G02*
X162925000Y-113759000I-225000J0D01*
G01*
X162475000Y-113759000D01*
G75*
G02*
X162250000Y-113534000I0J225000D01*
G01*
G37*
G36*
G01*
X160700000Y-113534000D02*
X160700000Y-113034000D01*
G75*
G02*
X160925000Y-112809000I225000J0D01*
G01*
X161375000Y-112809000D01*
G75*
G02*
X161600000Y-113034000I0J-225000D01*
G01*
X161600000Y-113534000D01*
G75*
G02*
X161375000Y-113759000I-225000J0D01*
G01*
X160925000Y-113759000D01*
G75*
G02*
X160700000Y-113534000I0J225000D01*
G01*
G37*
%TD*%
%TO.C,C11*%
G36*
G01*
X145344000Y-100080000D02*
X145344000Y-100580000D01*
G75*
G02*
X145119000Y-100805000I-225000J0D01*
G01*
X144669000Y-100805000D01*
G75*
G02*
X144444000Y-100580000I0J225000D01*
G01*
X144444000Y-100080000D01*
G75*
G02*
X144669000Y-99855000I225000J0D01*
G01*
X145119000Y-99855000D01*
G75*
G02*
X145344000Y-100080000I0J-225000D01*
G01*
G37*
G36*
G01*
X146894000Y-100080000D02*
X146894000Y-100580000D01*
G75*
G02*
X146669000Y-100805000I-225000J0D01*
G01*
X146219000Y-100805000D01*
G75*
G02*
X145994000Y-100580000I0J225000D01*
G01*
X145994000Y-100080000D01*
G75*
G02*
X146219000Y-99855000I225000J0D01*
G01*
X146669000Y-99855000D01*
G75*
G02*
X146894000Y-100080000I0J-225000D01*
G01*
G37*
%TD*%
%TO.C,C10*%
G36*
G01*
X142882000Y-88907500D02*
X143382000Y-88907500D01*
G75*
G02*
X143607000Y-89132500I0J-225000D01*
G01*
X143607000Y-89582500D01*
G75*
G02*
X143382000Y-89807500I-225000J0D01*
G01*
X142882000Y-89807500D01*
G75*
G02*
X142657000Y-89582500I0J225000D01*
G01*
X142657000Y-89132500D01*
G75*
G02*
X142882000Y-88907500I225000J0D01*
G01*
G37*
G36*
G01*
X142882000Y-87357500D02*
X143382000Y-87357500D01*
G75*
G02*
X143607000Y-87582500I0J-225000D01*
G01*
X143607000Y-88032500D01*
G75*
G02*
X143382000Y-88257500I-225000J0D01*
G01*
X142882000Y-88257500D01*
G75*
G02*
X142657000Y-88032500I0J225000D01*
G01*
X142657000Y-87582500D01*
G75*
G02*
X142882000Y-87357500I225000J0D01*
G01*
G37*
%TD*%
%TO.C,C8*%
G36*
G01*
X137548500Y-88907500D02*
X138048500Y-88907500D01*
G75*
G02*
X138273500Y-89132500I0J-225000D01*
G01*
X138273500Y-89582500D01*
G75*
G02*
X138048500Y-89807500I-225000J0D01*
G01*
X137548500Y-89807500D01*
G75*
G02*
X137323500Y-89582500I0J225000D01*
G01*
X137323500Y-89132500D01*
G75*
G02*
X137548500Y-88907500I225000J0D01*
G01*
G37*
G36*
G01*
X137548500Y-87357500D02*
X138048500Y-87357500D01*
G75*
G02*
X138273500Y-87582500I0J-225000D01*
G01*
X138273500Y-88032500D01*
G75*
G02*
X138048500Y-88257500I-225000J0D01*
G01*
X137548500Y-88257500D01*
G75*
G02*
X137323500Y-88032500I0J225000D01*
G01*
X137323500Y-87582500D01*
G75*
G02*
X137548500Y-87357500I225000J0D01*
G01*
G37*
%TD*%
%TO.C,C6*%
G36*
G01*
X132278500Y-88907500D02*
X132778500Y-88907500D01*
G75*
G02*
X133003500Y-89132500I0J-225000D01*
G01*
X133003500Y-89582500D01*
G75*
G02*
X132778500Y-89807500I-225000J0D01*
G01*
X132278500Y-89807500D01*
G75*
G02*
X132053500Y-89582500I0J225000D01*
G01*
X132053500Y-89132500D01*
G75*
G02*
X132278500Y-88907500I225000J0D01*
G01*
G37*
G36*
G01*
X132278500Y-87357500D02*
X132778500Y-87357500D01*
G75*
G02*
X133003500Y-87582500I0J-225000D01*
G01*
X133003500Y-88032500D01*
G75*
G02*
X132778500Y-88257500I-225000J0D01*
G01*
X132278500Y-88257500D01*
G75*
G02*
X132053500Y-88032500I0J225000D01*
G01*
X132053500Y-87582500D01*
G75*
G02*
X132278500Y-87357500I225000J0D01*
G01*
G37*
%TD*%
%TO.C,C4*%
G36*
G01*
X127008000Y-88907500D02*
X127508000Y-88907500D01*
G75*
G02*
X127733000Y-89132500I0J-225000D01*
G01*
X127733000Y-89582500D01*
G75*
G02*
X127508000Y-89807500I-225000J0D01*
G01*
X127008000Y-89807500D01*
G75*
G02*
X126783000Y-89582500I0J225000D01*
G01*
X126783000Y-89132500D01*
G75*
G02*
X127008000Y-88907500I225000J0D01*
G01*
G37*
G36*
G01*
X127008000Y-87357500D02*
X127508000Y-87357500D01*
G75*
G02*
X127733000Y-87582500I0J-225000D01*
G01*
X127733000Y-88032500D01*
G75*
G02*
X127508000Y-88257500I-225000J0D01*
G01*
X127008000Y-88257500D01*
G75*
G02*
X126783000Y-88032500I0J225000D01*
G01*
X126783000Y-87582500D01*
G75*
G02*
X127008000Y-87357500I225000J0D01*
G01*
G37*
%TD*%
%TO.C,C2*%
G36*
G01*
X153408500Y-117669500D02*
X153408500Y-118169500D01*
G75*
G02*
X153183500Y-118394500I-225000J0D01*
G01*
X152733500Y-118394500D01*
G75*
G02*
X152508500Y-118169500I0J225000D01*
G01*
X152508500Y-117669500D01*
G75*
G02*
X152733500Y-117444500I225000J0D01*
G01*
X153183500Y-117444500D01*
G75*
G02*
X153408500Y-117669500I0J-225000D01*
G01*
G37*
G36*
G01*
X154958500Y-117669500D02*
X154958500Y-118169500D01*
G75*
G02*
X154733500Y-118394500I-225000J0D01*
G01*
X154283500Y-118394500D01*
G75*
G02*
X154058500Y-118169500I0J225000D01*
G01*
X154058500Y-117669500D01*
G75*
G02*
X154283500Y-117444500I225000J0D01*
G01*
X154733500Y-117444500D01*
G75*
G02*
X154958500Y-117669500I0J-225000D01*
G01*
G37*
%TD*%
%TO.C,C1*%
G36*
G01*
X153535500Y-100080000D02*
X153535500Y-100580000D01*
G75*
G02*
X153310500Y-100805000I-225000J0D01*
G01*
X152860500Y-100805000D01*
G75*
G02*
X152635500Y-100580000I0J225000D01*
G01*
X152635500Y-100080000D01*
G75*
G02*
X152860500Y-99855000I225000J0D01*
G01*
X153310500Y-99855000D01*
G75*
G02*
X153535500Y-100080000I0J-225000D01*
G01*
G37*
G36*
G01*
X155085500Y-100080000D02*
X155085500Y-100580000D01*
G75*
G02*
X154860500Y-100805000I-225000J0D01*
G01*
X154410500Y-100805000D01*
G75*
G02*
X154185500Y-100580000I0J225000D01*
G01*
X154185500Y-100080000D01*
G75*
G02*
X154410500Y-99855000I225000J0D01*
G01*
X154860500Y-99855000D01*
G75*
G02*
X155085500Y-100080000I0J-225000D01*
G01*
G37*
%TD*%
M02*
