0
SECTION
2
HEADER
9
$INSUNITS
70
4
9
$ACADVER
1
AC1014
9
$HANDSEED
5
FFFF
0
ENDSEC
0
SECTION
2
TABLES
0
TABLE
2
VPORT
5
8
100
AcDbSymbolTable
0
ENDTAB
0
TABLE
2
LTYPE
5
5
100
AcDbSymbolTable
0
LTYPE
5
14
100
AcDbSymbolTableRecord
100
AcDbLinetypeTableRecord
2
BYBLOCK
70
0
0
LTYPE
5
15
100
AcDbSymbolTableRecord
100
AcDbLinetypeTableRecord
2
BYLAYER
70
0
0
ENDTAB
0
TABLE
2
LAYER
5
2
100
AcDbSymbolTable
70
2
0
LAYER
5
50
100
AcDbSymbolTableRecord
100
AcDbLayerTableRecord
2
0
70
0
6
CONTINUOUS
0
ENDTAB
0
TABLE
2
STYLE
5
3
100
AcDbSymbolTable
70
1
0
STYLE
5
11
100
AcDbSymbolTableRecord
100
AcDbTextStyleTableRecord
2
STANDARD
70
0
0
ENDTAB
0
TABLE
2
VIEW
5
6
100
AcDbSymbolTable
70
0
0
ENDTAB
0
TABLE
2
UCS
5
7
100
AcDbSymbolTable
70
0
0
ENDTAB
0
TABLE
2
APPID
5
9
100
AcDbSymbolTable
70
2
0
APPID
5
12
100
AcDbSymbolTableRecord
100
AcDbRegAppTableRecord
2
ACAD
70
0
0
ENDTAB
0
TABLE
2
DIMSTYLE
5
A
100
AcDbSymbolTable
70
1
0
ENDTAB
0
TABLE
2
BLOCK_RECORD
5
1
100
AcDbSymbolTable
70
1
0
BLOCK_RECORD
5
1F
100
AcDbSymbolTableRecord
100
AcDbBlockTableRecord
2
*MODEL_SPACE
0
BLOCK_RECORD
5
1B
100
AcDbSymbolTableRecord
100
AcDbBlockTableRecord
2
*PAPER_SPACE
0
ENDTAB
0
ENDSEC
0
SECTION
2
BLOCKS
0
BLOCK
5
20
100
AcDbEntity
100
AcDbBlockBegin
2
*MODEL_SPACE
0
ENDBLK
5
21
100
AcDbEntity
100
AcDbBlockEnd
0
BLOCK
5
1C
100
AcDbEntity
100
AcDbBlockBegin
2
*PAPER_SPACE
0
ENDBLK
5
1D
100
AcDbEntity
100
AcDbBlockEnd
0
ENDSEC
0
SECTION
2
ENTITIES
0
LWPOLYLINE
5
100
100
AcDbEntity
8
0
100
AcDbPolyline
90
4
70
1
43
0.0
10
-6.1709600000000009
20
6.3460000000000001
10
-6.1709600000000009
20
32.015999999999998
10
-31.700960000000006
20
32.015999999999998
10
-31.700960000000006
20
6.3460000000000001
0
LWPOLYLINE
5
101
100
AcDbEntity
8
0
100
AcDbPolyline
90
4
70
1
43
0.0
10
-31.700960000000006
20
32.015999999999998
10
-6.1709600000000009
20
32.015999999999998
10
-6.1709600000000009
20
6.3459999999999983
10
-31.700960000000006
20
6.3460000000000001
0
LWPOLYLINE
5
102
100
AcDbEntity
8
0
100
AcDbPolyline
90
12
70
1
43
0.0
10
-13.380960000000002
20
10.725999999999999
10
-13.380960000000002
20
14.131
10
-12.130960000000002
20
14.131
10
-12.130960000000002
20
17.635999999999999
10
-15.630960000000002
20
17.635999999999999
10
-15.630960000000002
20
14.131
10
-14.380960000000002
20
14.131
10
-14.380960000000002
20
7.0259999999999998
10
-7.0109600000000016
20
7.0260000000000016
10
-7.0109600000000016
20
11.416000000000002
10
-10.300960000000003
20
11.416000000000002
10
-10.300960000000003
20
10.725999999999999
0
LWPOLYLINE
5
103
100
AcDbEntity
8
0
100
AcDbPolyline
90
12
70
1
43
0.0
10
-20.550960000000003
20
31.336000000000006
10
-20.550960000000003
20
27.831000000000007
10
-19.150960000000001
20
27.831000000000003
10
-19.150960000000005
20
24.230999999999998
10
-20.400960000000001
20
24.231000000000002
10
-20.400960000000001
20
20.726000000000006
10
-16.900960000000001
20
20.725999999999999
10
-16.900960000000001
20
24.230999999999998
10
-18.150960000000001
20
24.231000000000002
10
-18.150960000000001
20
27.831000000000003
10
-16.900960000000001
20
27.831000000000003
10
-16.900960000000001
20
31.335999999999999
0
LWPOLYLINE
5
104
100
AcDbEntity
8
0
100
AcDbPolyline
90
12
70
1
43
0.0
10
-24.490960000000005
20
10.725999999999999
10
-27.570960000000007
20
10.725999999999999
10
-27.570960000000003
20
11.416
10
-30.860960000000006
20
11.416000000000002
10
-30.860960000000006
20
7.0260000000000016
10
-23.490960000000001
20
7.0260000000000016
10
-23.490960000000001
20
14.131
10
-22.240960000000001
20
14.131
10
-22.240960000000001
20
17.635999999999999
10
-25.740960000000005
20
17.635999999999999
10
-25.740960000000005
20
14.131
10
-24.490960000000005
20
14.131
0
LWPOLYLINE
5
105
100
AcDbEntity
8
0
100
AcDbPolyline
90
4
70
1
43
0.0
10
-30.860960000000006
20
16.781000000000002
10
-28.880960000000005
20
16.781000000000002
10
-28.880960000000005
20
21.581000000000003
10
-30.860960000000006
20
21.581000000000003
0
LWPOLYLINE
5
106
100
AcDbEntity
8
0
100
AcDbPolyline
90
4
70
1
43
0.0
10
-8.9909600000000029
20
16.781000000000002
10
-7.0109600000000016
20
16.781000000000002
10
-7.0109600000000016
20
21.581000000000003
10
-8.9909600000000029
20
21.581000000000003
0
LWPOLYLINE
5
107
100
AcDbEntity
8
0
100
AcDbPolyline
90
12
70
1
43
0.0
10
-27.570960000000003
20
26.266000000000002
10
-27.570960000000003
20
27.636000000000003
10
-24.490960000000001
20
27.636000000000003
10
-24.490960000000005
20
24.231000000000002
10
-25.740960000000005
20
24.231000000000002
10
-25.740960000000005
20
20.726000000000006
10
-22.240960000000001
20
20.725999999999999
10
-22.240960000000001
20
24.230999999999998
10
-23.490960000000001
20
24.231000000000002
10
-23.490960000000001
20
31.336000000000006
10
-30.860960000000006
20
31.336000000000006
10
-30.860960000000006
20
26.266000000000002
0
LWPOLYLINE
5
108
100
AcDbEntity
8
0
100
AcDbPolyline
90
12
70
1
43
0.0
10
-20.400960000000001
20
7.0260000000000016
10
-16.900960000000001
20
7.0260000000000016
10
-16.900960000000001
20
10.531000000000002
10
-18.150960000000001
20
10.531000000000002
10
-18.150960000000001
20
14.131000000000002
10
-16.900960000000001
20
14.131
10
-16.900960000000001
20
17.635999999999999
10
-20.400960000000001
20
17.635999999999999
10
-20.400960000000001
20
14.131
10
-19.150960000000001
20
14.131
10
-19.150960000000005
20
10.530999999999999
10
-20.400960000000001
20
10.531000000000002
0
LWPOLYLINE
5
109
100
AcDbEntity
8
0
100
AcDbPolyline
90
12
70
1
43
0.0
10
-10.300960000000003
20
27.636000000000003
10
-10.300960000000003
20
26.266000000000002
10
-7.0109600000000016
20
26.266000000000002
10
-7.0109600000000016
20
31.336000000000006
10
-14.380960000000002
20
31.336000000000006
10
-14.380960000000002
20
24.231000000000002
10
-15.630960000000002
20
24.231000000000002
10
-15.630960000000002
20
20.726000000000006
10
-12.130960000000002
20
20.725999999999999
10
-12.130960000000002
20
24.230999999999998
10
-13.380960000000002
20
24.231000000000002
10
-13.380960000000002
20
27.636000000000003
0
LWPOLYLINE
5
110
100
AcDbEntity
8
0
100
AcDbPolyline
90
4
70
1
43
0.0
10
-31.981999999999999
20
5.9410000000000007
10
-6.4519999999999955
20
5.9410000000000007
10
-6.4519999999999982
20
-19.728999999999999
10
-31.981999999999999
20
-19.728999999999999
0
LWPOLYLINE
5
111
100
AcDbEntity
8
0
100
AcDbPolyline
90
12
70
1
43
0.0
10
-13.662000000000001
20
-15.349
10
-13.662000000000001
20
-11.943999999999999
10
-12.412000000000001
20
-11.943999999999999
10
-12.412000000000001
20
-8.4389999999999983
10
-15.912000000000003
20
-8.4390000000000001
10
-15.911999999999999
20
-11.943999999999999
10
-14.661999999999999
20
-11.943999999999999
10
-14.661999999999999
20
-19.048999999999999
10
-7.291999999999998
20
-19.048999999999999
10
-7.291999999999998
20
-14.658999999999999
10
-10.582000000000001
20
-14.658999999999999
10
-10.582000000000001
20
-15.349
0
LWPOLYLINE
5
112
100
AcDbEntity
8
0
100
AcDbPolyline
90
12
70
1
43
0.0
10
-20.832000000000001
20
5.2610000000000001
10
-20.832000000000001
20
1.7560000000000009
10
-19.432000000000002
20
1.7560000000000009
10
-19.432000000000002
20
-1.8440000000000001
10
-20.682000000000002
20
-1.8440000000000001
10
-20.682000000000002
20
-5.3490000000000002
10
-17.181999999999999
20
-5.3490000000000002
10
-17.181999999999999
20
-1.8440000000000001
10
-18.431999999999999
20
-1.8440000000000001
10
-18.431999999999999
20
1.7560000000000009
10
-17.181999999999999
20
1.7560000000000009
10
-17.181999999999999
20
5.2610000000000001
0
LWPOLYLINE
5
113
100
AcDbEntity
8
0
100
AcDbPolyline
90
12
70
1
43
0.0
10
-24.771999999999998
20
-15.349
10
-27.851999999999997
20
-15.349
10
-27.852
20
-14.658999999999999
10
-31.142000000000003
20
-14.658999999999999
10
-31.142000000000003
20
-19.048999999999999
10
-23.772000000000002
20
-19.048999999999999
10
-23.772000000000002
20
-11.943999999999999
10
-22.522000000000002
20
-11.943999999999999
10
-22.522000000000002
20
-8.4389999999999983
10
-26.022000000000002
20
-8.4390000000000001
10
-26.021999999999998
20
-11.943999999999999
10
-24.771999999999998
20
-11.943999999999999
0
LWPOLYLINE
5
114
100
AcDbEntity
8
0
100
AcDbPolyline
90
4
70
1
43
0.0
10
-31.142000000000003
20
-9.2940000000000005
10
-29.162000000000003
20
-9.2940000000000005
10
-29.161999999999999
20
-4.4939999999999998
10
-31.141999999999999
20
-4.4939999999999998
0
LWPOLYLINE
5
115
100
AcDbEntity
8
0
100
AcDbPolyline
90
4
70
1
43
0.0
10
-9.2719999999999985
20
-9.2940000000000005
10
-7.291999999999998
20
-9.2940000000000005
10
-7.291999999999998
20
-4.4939999999999998
10
-9.2719999999999985
20
-4.4939999999999998
0
LWPOLYLINE
5
116
100
AcDbEntity
8
0
100
AcDbPolyline
90
12
70
1
43
0.0
10
-27.852
20
0.19100000000000006
10
-27.852
20
1.5610000000000002
10
-24.771999999999998
20
1.5610000000000002
10
-24.771999999999998
20
-1.8440000000000001
10
-26.021999999999998
20
-1.8440000000000001
10
-26.021999999999998
20
-5.3490000000000002
10
-22.521999999999998
20
-5.3490000000000002
10
-22.522000000000002
20
-1.8440000000000001
10
-23.772000000000002
20
-1.8440000000000001
10
-23.772000000000002
20
5.2610000000000001
10
-31.142000000000003
20
5.2610000000000001
10
-31.142000000000003
20
0.19100000000000006
0
LWPOLYLINE
5
117
100
AcDbEntity
8
0
100
AcDbPolyline
90
12
70
1
43
0.0
10
-20.682000000000002
20
-19.048999999999999
10
-17.181999999999999
20
-19.048999999999999
10
-17.181999999999999
20
-15.544000000000002
10
-18.431999999999999
20
-15.544000000000002
10
-18.431999999999999
20
-11.944000000000001
10
-17.181999999999999
20
-11.943999999999999
10
-17.181999999999999
20
-8.4389999999999983
10
-20.682000000000002
20
-8.4390000000000001
10
-20.682000000000002
20
-11.943999999999999
10
-19.432000000000002
20
-11.943999999999999
10
-19.432000000000002
20
-15.544
10
-20.682000000000002
20
-15.544000000000002
0
LWPOLYLINE
5
118
100
AcDbEntity
8
0
100
AcDbPolyline
90
12
70
1
43
0.0
10
-10.582000000000001
20
1.5610000000000002
10
-10.582000000000001
20
0.19100000000000006
10
-7.291999999999998
20
0.19100000000000006
10
-7.291999999999998
20
5.2610000000000001
10
-14.661999999999999
20
5.2610000000000001
10
-14.661999999999999
20
-1.8440000000000001
10
-15.911999999999999
20
-1.8440000000000001
10
-15.911999999999999
20
-5.3490000000000002
10
-12.412000000000001
20
-5.3490000000000002
10
-12.412000000000001
20
-1.8440000000000001
10
-13.662000000000001
20
-1.8440000000000001
10
-13.662000000000001
20
1.5610000000000002
0
LWPOLYLINE
5
119
100
AcDbEntity
8
0
100
AcDbPolyline
90
4
70
1
43
0.0
10
-3.5375000000000023
20
6.9195000000000011
10
21.9925
20
6.9195000000000011
10
21.9925
20
-18.750500000000002
10
-3.5375000000000023
20
-18.750500000000002
0
LWPOLYLINE
5
120
100
AcDbEntity
8
0
100
AcDbPolyline
90
12
70
1
43
0.0
10
14.782500000000001
20
-14.370500000000002
10
14.782500000000001
20
-10.965500000000002
10
16.032499999999999
20
-10.965500000000002
10
16.032499999999999
20
-7.4605000000000015
10
12.532499999999999
20
-7.4604999999999997
10
12.532499999999999
20
-10.965500000000002
10
13.782499999999999
20
-10.965500000000002
10
13.782499999999999
20
-18.070500000000003
10
21.1525
20
-18.070499999999999
10
21.1525
20
-13.6805
10
17.862499999999997
20
-13.6805
10
17.862499999999997
20
-14.370500000000002
0
LWPOLYLINE
5
121
100
AcDbEntity
8
0
100
AcDbPolyline
90
12
70
1
43
0.0
10
7.6124999999999998
20
6.2394999999999996
10
7.6124999999999998
20
2.7345000000000006
10
9.0124999999999993
20
2.7345000000000006
10
9.0124999999999993
20
-0.86550000000000016
10
7.7624999999999993
20
-0.86550000000000016
10
7.7624999999999993
20
-4.3705000000000007
10
11.262499999999999
20
-4.3705000000000007
10
11.262499999999999
20
-0.86550000000000016
10
10.012499999999999
20
-0.86550000000000016
10
10.012499999999999
20
2.7345000000000006
10
11.262499999999999
20
2.7345000000000006
10
11.262499999999999
20
6.2394999999999996
0
LWPOLYLINE
5
122
100
AcDbEntity
8
0
100
AcDbPolyline
90
12
70
1
43
0.0
10
3.6724999999999994
20
-14.370500000000002
10
0.59249999999999914
20
-14.370500000000002
10
0.59249999999999914
20
-13.680500000000002
10
-2.6975000000000016
20
-13.6805
10
-2.6975000000000016
20
-18.070499999999999
10
4.6724999999999994
20
-18.070499999999999
10
4.6724999999999994
20
-10.965500000000002
10
5.9224999999999994
20
-10.965500000000002
10
5.9224999999999994
20
-7.4605000000000015
10
2.4224999999999985
20
-7.4604999999999997
10
2.4224999999999985
20
-10.965500000000002
10
3.6724999999999994
20
-10.965500000000002
0
LWPOLYLINE
5
123
100
AcDbEntity
8
0
100
AcDbPolyline
90
4
70
1
43
0.0
10
-2.6975000000000016
20
-8.3155000000000001
10
-0.71750000000000203
20
-8.3155000000000001
10
-0.71750000000000203
20
-3.5155000000000003
10
-2.6975000000000016
20
-3.5155000000000003
0
LWPOLYLINE
5
124
100
AcDbEntity
8
0
100
AcDbPolyline
90
4
70
1
43
0.0
10
19.172499999999999
20
-8.3155000000000001
10
21.1525
20
-8.3155000000000001
10
21.1525
20
-3.5155000000000003
10
19.172499999999999
20
-3.5155000000000003
0
LWPOLYLINE
5
125
100
AcDbEntity
8
0
100
AcDbPolyline
90
12
70
1
43
0.0
10
0.59249999999999914
20
1.1695
10
0.59249999999999914
20
2.5395000000000003
10
3.6724999999999994
20
2.5395000000000003
10
3.6724999999999994
20
-0.86550000000000016
10
2.4224999999999985
20
-0.86550000000000016
10
2.4224999999999985
20
-4.3705000000000007
10
5.9224999999999994
20
-4.3705000000000007
10
5.9224999999999994
20
-0.86550000000000016
10
4.6724999999999994
20
-0.86550000000000016
10
4.6724999999999994
20
6.2394999999999996
10
-2.6975000000000016
20
6.2394999999999996
10
-2.6975000000000016
20
1.1695
0
LWPOLYLINE
5
126
100
AcDbEntity
8
0
100
AcDbPolyline
90
12
70
1
43
0.0
10
7.7624999999999993
20
-18.070499999999999
10
11.262499999999999
20
-18.070499999999999
10
11.262499999999999
20
-14.5655
10
10.012499999999999
20
-14.5655
10
10.012499999999999
20
-10.965499999999999
10
11.262499999999999
20
-10.965500000000002
10
11.262499999999999
20
-7.4605000000000015
10
7.7624999999999993
20
-7.4604999999999997
10
7.7624999999999993
20
-10.965500000000002
10
9.0124999999999993
20
-10.965500000000002
10
9.0124999999999993
20
-14.565500000000002
10
7.7624999999999993
20
-14.5655
0
LWPOLYLINE
5
127
100
AcDbEntity
8
0
100
AcDbPolyline
90
12
70
1
43
0.0
10
17.862499999999997
20
2.5395000000000003
10
17.862499999999997
20
1.1695
10
21.1525
20
1.1695
10
21.1525
20
6.2394999999999996
10
13.782499999999999
20
6.2394999999999996
10
13.782499999999999
20
-0.86550000000000016
10
12.532499999999999
20
-0.86550000000000016
10
12.532499999999999
20
-4.3705000000000007
10
16.032499999999999
20
-4.3705000000000007
10
16.032499999999999
20
-0.86550000000000016
10
14.782500000000001
20
-0.86550000000000016
10
14.782500000000001
20
2.5395000000000003
0
LWPOLYLINE
5
128
100
AcDbEntity
8
0
100
AcDbPolyline
90
12
70
1
43
0.0
10
20.813000000000002
20
-19.972458
42
0.41421356237309503
10
22.313000000000002
20
-18.472458
10
22.313000000000002
20
7.1024589999999996
42
0.41421356237309503
10
20.813000000000002
20
8.6024589999999996
10
-1.2744999999999997
20
8.6024589999999996
42
-0.41421356237309548
10
-2.7745000000000002
20
10.102459000000001
10
-2.7744999999999997
20
30.727542000000003
42
0.41421356237309481
10
-4.2744999999999989
20
32.227542
10
-33.186999999999998
20
32.227542
42
0.41421356237309592
10
-34.686999999999998
20
30.727542
10
-34.686999999999998
20
-18.472458
42
0.4142135623730942
10
-33.187000000000005
20
-19.972458
0
LWPOLYLINE
5
129
100
AcDbEntity
8
0
100
AcDbPolyline
90
4
70
1
43
0.0
10
-20.726400000000002
20
17.957799999999999
10
-16.713200000000001
20
17.957799999999999
10
-16.713200000000001
20
21.158200000000001
10
-20.726400000000002
20
21.158200000000001
0
LWPOLYLINE
5
130
100
AcDbEntity
8
0
100
AcDbPolyline
90
4
70
1
43
0.0
10
11.690099999999999
20
-7.3404000000000007
10
11.690099999999999
20
-4.1399999999999997
10
7.6768999999999998
20
-4.1399999999999997
10
7.6768999999999998
20
-7.3404000000000007
0
LWPOLYLINE
5
131
100
AcDbEntity
8
0
100
AcDbPolyline
90
4
70
1
43
0.0
10
-17.6723
20
-8.8643999999999998
10
-17.6723
20
-5.6639999999999997
10
-21.685500000000001
20
-5.6639999999999997
10
-21.685500000000001
20
-8.8643999999999998
0
ENDSEC
0
SECTION
2
OBJECTS
0
DICTIONARY
5
C
100
AcDbDictionary
3
ACAD_GROUP
350
D
3
ACAD_MLINESTYLE
350
17
0
DICTIONARY
5
D
100
AcDbDictionary
0
DICTIONARY
5
1A
330
C
100
AcDbDictionary
0
DICTIONARY
5
17
100
AcDbDictionary
0
ENDSEC
0
EOF
