%TF.GenerationSoftware,KiCad,Pcbnew,(5.1.10)-1*%
%TF.CreationDate,2023-02-26T14:00:58-06:00*%
%TF.ProjectId,switcher,73776974-6368-4657-922e-6b696361645f,B*%
%TF.SameCoordinates,Original*%
%TF.FileFunction,Copper,L2,Bot*%
%TF.FilePolarity,Positive*%
%FSLAX46Y46*%
G04 Gerber Fmt 4.6, Leading zero omitted, Abs format (unit mm)*
G04 Created by KiCad (PCBNEW (5.1.10)-1) date 2023-02-26 14:00:58*
%MOMM*%
%LPD*%
G01*
G04 APERTURE LIST*
%ADD10C,0.100000*%
%ADD11C,0.150000*%
%ADD12C,0.300000*%
%ADD13C,0.400000*%
%TA.AperFunction,ComponentPad*%
%ADD14C,1.100000*%
%TD*%
%TA.AperFunction,ComponentPad*%
%ADD15R,1.700000X1.700000*%
%TD*%
%TA.AperFunction,ComponentPad*%
%ADD16O,1.700000X1.700000*%
%TD*%
%TA.AperFunction,ViaPad*%
%ADD17C,0.508000*%
%TD*%
%TA.AperFunction,Conductor*%
%ADD18C,0.152400*%
%TD*%
%TA.AperFunction,Conductor*%
%ADD19C,0.254000*%
%TD*%
%TA.AperFunction,Conductor*%
%ADD20C,0.100000*%
%TD*%
G04 APERTURE END LIST*
D10*
D11*
X177002200Y-166007200D02*
X177002200Y-198007200D01*
X285002200Y-198007200D01*
X285002200Y-166007200D01*
X177002200Y-166007200D01*
D10*
D11*
X10000000Y-10000000D02*
X10000000Y-200007200D01*
X287002200Y-200007200D01*
X287002200Y-10000000D01*
X10000000Y-10000000D01*
D10*
D11*
X12000000Y-12000000D02*
X12000000Y-198007200D01*
X285002200Y-198007200D01*
X285002200Y-12000000D01*
X12000000Y-12000000D01*
D10*
D11*
X60000000Y-12000000D02*
X60000000Y-10000000D01*
D10*
D11*
X110000000Y-12000000D02*
X110000000Y-10000000D01*
D10*
D11*
X160000000Y-12000000D02*
X160000000Y-10000000D01*
D10*
D11*
X210000000Y-12000000D02*
X210000000Y-10000000D01*
D10*
D11*
X260000000Y-12000000D02*
X260000000Y-10000000D01*
D10*
D11*
X36065476Y-11588095D02*
X35322619Y-11588095D01*
X35694047Y-11588095D02*
X35694047Y-10288095D01*
X35570238Y-10473809D01*
X35446428Y-10597619D01*
X35322619Y-10659523D01*
D10*
D11*
X85322619Y-10411904D02*
X85384523Y-10350000D01*
X85508333Y-10288095D01*
X85817857Y-10288095D01*
X85941666Y-10350000D01*
X86003571Y-10411904D01*
X86065476Y-10535714D01*
X86065476Y-10659523D01*
X86003571Y-10845238D01*
X85260714Y-11588095D01*
X86065476Y-11588095D01*
D10*
D11*
X135260714Y-10288095D02*
X136065476Y-10288095D01*
X135632142Y-10783333D01*
X135817857Y-10783333D01*
X135941666Y-10845238D01*
X136003571Y-10907142D01*
X136065476Y-11030952D01*
X136065476Y-11340476D01*
X136003571Y-11464285D01*
X135941666Y-11526190D01*
X135817857Y-11588095D01*
X135446428Y-11588095D01*
X135322619Y-11526190D01*
X135260714Y-11464285D01*
D10*
D11*
X185941666Y-10721428D02*
X185941666Y-11588095D01*
X185632142Y-10226190D02*
X185322619Y-11154761D01*
X186127380Y-11154761D01*
D10*
D11*
X236003571Y-10288095D02*
X235384523Y-10288095D01*
X235322619Y-10907142D01*
X235384523Y-10845238D01*
X235508333Y-10783333D01*
X235817857Y-10783333D01*
X235941666Y-10845238D01*
X236003571Y-10907142D01*
X236065476Y-11030952D01*
X236065476Y-11340476D01*
X236003571Y-11464285D01*
X235941666Y-11526190D01*
X235817857Y-11588095D01*
X235508333Y-11588095D01*
X235384523Y-11526190D01*
X235322619Y-11464285D01*
D10*
D11*
X285941666Y-10288095D02*
X285694047Y-10288095D01*
X285570238Y-10350000D01*
X285508333Y-10411904D01*
X285384523Y-10597619D01*
X285322619Y-10845238D01*
X285322619Y-11340476D01*
X285384523Y-11464285D01*
X285446428Y-11526190D01*
X285570238Y-11588095D01*
X285817857Y-11588095D01*
X285941666Y-11526190D01*
X286003571Y-11464285D01*
X286065476Y-11340476D01*
X286065476Y-11030952D01*
X286003571Y-10907142D01*
X285941666Y-10845238D01*
X285817857Y-10783333D01*
X285570238Y-10783333D01*
X285446428Y-10845238D01*
X285384523Y-10907142D01*
X285322619Y-11030952D01*
D10*
D11*
X60000000Y-198007200D02*
X60000000Y-200007200D01*
D10*
D11*
X110000000Y-198007200D02*
X110000000Y-200007200D01*
D10*
D11*
X160000000Y-198007200D02*
X160000000Y-200007200D01*
D10*
D11*
X210000000Y-198007200D02*
X210000000Y-200007200D01*
D10*
D11*
X260000000Y-198007200D02*
X260000000Y-200007200D01*
D10*
D11*
X36065476Y-199595295D02*
X35322619Y-199595295D01*
X35694047Y-199595295D02*
X35694047Y-198295295D01*
X35570238Y-198481009D01*
X35446428Y-198604819D01*
X35322619Y-198666723D01*
D10*
D11*
X85322619Y-198419104D02*
X85384523Y-198357200D01*
X85508333Y-198295295D01*
X85817857Y-198295295D01*
X85941666Y-198357200D01*
X86003571Y-198419104D01*
X86065476Y-198542914D01*
X86065476Y-198666723D01*
X86003571Y-198852438D01*
X85260714Y-199595295D01*
X86065476Y-199595295D01*
D10*
D11*
X135260714Y-198295295D02*
X136065476Y-198295295D01*
X135632142Y-198790533D01*
X135817857Y-198790533D01*
X135941666Y-198852438D01*
X136003571Y-198914342D01*
X136065476Y-199038152D01*
X136065476Y-199347676D01*
X136003571Y-199471485D01*
X135941666Y-199533390D01*
X135817857Y-199595295D01*
X135446428Y-199595295D01*
X135322619Y-199533390D01*
X135260714Y-199471485D01*
D10*
D11*
X185941666Y-198728628D02*
X185941666Y-199595295D01*
X185632142Y-198233390D02*
X185322619Y-199161961D01*
X186127380Y-199161961D01*
D10*
D11*
X236003571Y-198295295D02*
X235384523Y-198295295D01*
X235322619Y-198914342D01*
X235384523Y-198852438D01*
X235508333Y-198790533D01*
X235817857Y-198790533D01*
X235941666Y-198852438D01*
X236003571Y-198914342D01*
X236065476Y-199038152D01*
X236065476Y-199347676D01*
X236003571Y-199471485D01*
X235941666Y-199533390D01*
X235817857Y-199595295D01*
X235508333Y-199595295D01*
X235384523Y-199533390D01*
X235322619Y-199471485D01*
D10*
D11*
X285941666Y-198295295D02*
X285694047Y-198295295D01*
X285570238Y-198357200D01*
X285508333Y-198419104D01*
X285384523Y-198604819D01*
X285322619Y-198852438D01*
X285322619Y-199347676D01*
X285384523Y-199471485D01*
X285446428Y-199533390D01*
X285570238Y-199595295D01*
X285817857Y-199595295D01*
X285941666Y-199533390D01*
X286003571Y-199471485D01*
X286065476Y-199347676D01*
X286065476Y-199038152D01*
X286003571Y-198914342D01*
X285941666Y-198852438D01*
X285817857Y-198790533D01*
X285570238Y-198790533D01*
X285446428Y-198852438D01*
X285384523Y-198914342D01*
X285322619Y-199038152D01*
D10*
D11*
X10000000Y-60000000D02*
X12000000Y-60000000D01*
D10*
D11*
X10000000Y-110000000D02*
X12000000Y-110000000D01*
D10*
D11*
X10000000Y-160000000D02*
X12000000Y-160000000D01*
D10*
D11*
X10690476Y-35216666D02*
X11309523Y-35216666D01*
X10566666Y-35588095D02*
X11000000Y-34288095D01*
X11433333Y-35588095D01*
D10*
D11*
X11092857Y-84907142D02*
X11278571Y-84969047D01*
X11340476Y-85030952D01*
X11402380Y-85154761D01*
X11402380Y-85340476D01*
X11340476Y-85464285D01*
X11278571Y-85526190D01*
X11154761Y-85588095D01*
X10659523Y-85588095D01*
X10659523Y-84288095D01*
X11092857Y-84288095D01*
X11216666Y-84350000D01*
X11278571Y-84411904D01*
X11340476Y-84535714D01*
X11340476Y-84659523D01*
X11278571Y-84783333D01*
X11216666Y-84845238D01*
X11092857Y-84907142D01*
X10659523Y-84907142D01*
D10*
D11*
X11402380Y-135464285D02*
X11340476Y-135526190D01*
X11154761Y-135588095D01*
X11030952Y-135588095D01*
X10845238Y-135526190D01*
X10721428Y-135402380D01*
X10659523Y-135278571D01*
X10597619Y-135030952D01*
X10597619Y-134845238D01*
X10659523Y-134597619D01*
X10721428Y-134473809D01*
X10845238Y-134350000D01*
X11030952Y-134288095D01*
X11154761Y-134288095D01*
X11340476Y-134350000D01*
X11402380Y-134411904D01*
D10*
D11*
X10659523Y-185588095D02*
X10659523Y-184288095D01*
X10969047Y-184288095D01*
X11154761Y-184350000D01*
X11278571Y-184473809D01*
X11340476Y-184597619D01*
X11402380Y-184845238D01*
X11402380Y-185030952D01*
X11340476Y-185278571D01*
X11278571Y-185402380D01*
X11154761Y-185526190D01*
X10969047Y-185588095D01*
X10659523Y-185588095D01*
D10*
D11*
X287002200Y-60000000D02*
X285002200Y-60000000D01*
D10*
D11*
X287002200Y-110000000D02*
X285002200Y-110000000D01*
D10*
D11*
X287002200Y-160000000D02*
X285002200Y-160000000D01*
D10*
D11*
X285692676Y-35216666D02*
X286311723Y-35216666D01*
X285568866Y-35588095D02*
X286002200Y-34288095D01*
X286435533Y-35588095D01*
D10*
D11*
X286095057Y-84907142D02*
X286280771Y-84969047D01*
X286342676Y-85030952D01*
X286404580Y-85154761D01*
X286404580Y-85340476D01*
X286342676Y-85464285D01*
X286280771Y-85526190D01*
X286156961Y-85588095D01*
X285661723Y-85588095D01*
X285661723Y-84288095D01*
X286095057Y-84288095D01*
X286218866Y-84350000D01*
X286280771Y-84411904D01*
X286342676Y-84535714D01*
X286342676Y-84659523D01*
X286280771Y-84783333D01*
X286218866Y-84845238D01*
X286095057Y-84907142D01*
X285661723Y-84907142D01*
D10*
D11*
X286404580Y-135464285D02*
X286342676Y-135526190D01*
X286156961Y-135588095D01*
X286033152Y-135588095D01*
X285847438Y-135526190D01*
X285723628Y-135402380D01*
X285661723Y-135278571D01*
X285599819Y-135030952D01*
X285599819Y-134845238D01*
X285661723Y-134597619D01*
X285723628Y-134473809D01*
X285847438Y-134350000D01*
X286033152Y-134288095D01*
X286156961Y-134288095D01*
X286342676Y-134350000D01*
X286404580Y-134411904D01*
D10*
D11*
X285661723Y-185588095D02*
X285661723Y-184288095D01*
X285971247Y-184288095D01*
X286156961Y-184350000D01*
X286280771Y-184473809D01*
X286342676Y-184597619D01*
X286404580Y-184845238D01*
X286404580Y-185030952D01*
X286342676Y-185278571D01*
X286280771Y-185402380D01*
X286156961Y-185526190D01*
X285971247Y-185588095D01*
X285661723Y-185588095D01*
D10*
D11*
X200434342Y-193785771D02*
X200434342Y-192285771D01*
X200791485Y-192285771D01*
X201005771Y-192357200D01*
X201148628Y-192500057D01*
X201220057Y-192642914D01*
X201291485Y-192928628D01*
X201291485Y-193142914D01*
X201220057Y-193428628D01*
X201148628Y-193571485D01*
X201005771Y-193714342D01*
X200791485Y-193785771D01*
X200434342Y-193785771D01*
X202577200Y-193785771D02*
X202577200Y-193000057D01*
X202505771Y-192857200D01*
X202362914Y-192785771D01*
X202077200Y-192785771D01*
X201934342Y-192857200D01*
X202577200Y-193714342D02*
X202434342Y-193785771D01*
X202077200Y-193785771D01*
X201934342Y-193714342D01*
X201862914Y-193571485D01*
X201862914Y-193428628D01*
X201934342Y-193285771D01*
X202077200Y-193214342D01*
X202434342Y-193214342D01*
X202577200Y-193142914D01*
X203077200Y-192785771D02*
X203648628Y-192785771D01*
X203291485Y-192285771D02*
X203291485Y-193571485D01*
X203362914Y-193714342D01*
X203505771Y-193785771D01*
X203648628Y-193785771D01*
X204720057Y-193714342D02*
X204577200Y-193785771D01*
X204291485Y-193785771D01*
X204148628Y-193714342D01*
X204077200Y-193571485D01*
X204077200Y-193000057D01*
X204148628Y-192857200D01*
X204291485Y-192785771D01*
X204577200Y-192785771D01*
X204720057Y-192857200D01*
X204791485Y-193000057D01*
X204791485Y-193142914D01*
X204077200Y-193285771D01*
X205434342Y-193642914D02*
X205505771Y-193714342D01*
X205434342Y-193785771D01*
X205362914Y-193714342D01*
X205434342Y-193642914D01*
X205434342Y-193785771D01*
X205434342Y-192857200D02*
X205505771Y-192928628D01*
X205434342Y-193000057D01*
X205362914Y-192928628D01*
X205434342Y-192857200D01*
X205434342Y-193000057D01*
X207220057Y-192428628D02*
X207291485Y-192357200D01*
X207434342Y-192285771D01*
X207791485Y-192285771D01*
X207934342Y-192357200D01*
X208005771Y-192428628D01*
X208077200Y-192571485D01*
X208077200Y-192714342D01*
X208005771Y-192928628D01*
X207148628Y-193785771D01*
X208077200Y-193785771D01*
X209005771Y-192285771D02*
X209148628Y-192285771D01*
X209291485Y-192357200D01*
X209362914Y-192428628D01*
X209434342Y-192571485D01*
X209505771Y-192857200D01*
X209505771Y-193214342D01*
X209434342Y-193500057D01*
X209362914Y-193642914D01*
X209291485Y-193714342D01*
X209148628Y-193785771D01*
X209005771Y-193785771D01*
X208862914Y-193714342D01*
X208791485Y-193642914D01*
X208720057Y-193500057D01*
X208648628Y-193214342D01*
X208648628Y-192857200D01*
X208720057Y-192571485D01*
X208791485Y-192428628D01*
X208862914Y-192357200D01*
X209005771Y-192285771D01*
X210077200Y-192428628D02*
X210148628Y-192357200D01*
X210291485Y-192285771D01*
X210648628Y-192285771D01*
X210791485Y-192357200D01*
X210862914Y-192428628D01*
X210934342Y-192571485D01*
X210934342Y-192714342D01*
X210862914Y-192928628D01*
X210005771Y-193785771D01*
X210934342Y-193785771D01*
X211434342Y-192285771D02*
X212362914Y-192285771D01*
X211862914Y-192857200D01*
X212077200Y-192857200D01*
X212220057Y-192928628D01*
X212291485Y-193000057D01*
X212362914Y-193142914D01*
X212362914Y-193500057D01*
X212291485Y-193642914D01*
X212220057Y-193714342D01*
X212077200Y-193785771D01*
X211648628Y-193785771D01*
X211505771Y-193714342D01*
X211434342Y-193642914D01*
X213005771Y-193214342D02*
X214148628Y-193214342D01*
X215148628Y-192285771D02*
X215291485Y-192285771D01*
X215434342Y-192357200D01*
X215505771Y-192428628D01*
X215577200Y-192571485D01*
X215648628Y-192857200D01*
X215648628Y-193214342D01*
X215577200Y-193500057D01*
X215505771Y-193642914D01*
X215434342Y-193714342D01*
X215291485Y-193785771D01*
X215148628Y-193785771D01*
X215005771Y-193714342D01*
X214934342Y-193642914D01*
X214862914Y-193500057D01*
X214791485Y-193214342D01*
X214791485Y-192857200D01*
X214862914Y-192571485D01*
X214934342Y-192428628D01*
X215005771Y-192357200D01*
X215148628Y-192285771D01*
X216220057Y-192428628D02*
X216291485Y-192357200D01*
X216434342Y-192285771D01*
X216791485Y-192285771D01*
X216934342Y-192357200D01*
X217005771Y-192428628D01*
X217077200Y-192571485D01*
X217077200Y-192714342D01*
X217005771Y-192928628D01*
X216148628Y-193785771D01*
X217077200Y-193785771D01*
X217720057Y-193214342D02*
X218862914Y-193214342D01*
X219505771Y-192428628D02*
X219577200Y-192357200D01*
X219720057Y-192285771D01*
X220077200Y-192285771D01*
X220220057Y-192357200D01*
X220291485Y-192428628D01*
X220362914Y-192571485D01*
X220362914Y-192714342D01*
X220291485Y-192928628D01*
X219434342Y-193785771D01*
X220362914Y-193785771D01*
X221648628Y-192285771D02*
X221362914Y-192285771D01*
X221220057Y-192357200D01*
X221148628Y-192428628D01*
X221005771Y-192642914D01*
X220934342Y-192928628D01*
X220934342Y-193500057D01*
X221005771Y-193642914D01*
X221077200Y-193714342D01*
X221220057Y-193785771D01*
X221505771Y-193785771D01*
X221648628Y-193714342D01*
X221720057Y-193642914D01*
X221791485Y-193500057D01*
X221791485Y-193142914D01*
X221720057Y-193000057D01*
X221648628Y-192928628D01*
X221505771Y-192857200D01*
X221220057Y-192857200D01*
X221077200Y-192928628D01*
X221005771Y-193000057D01*
X220934342Y-193142914D01*
D10*
D11*
X177002200Y-194507200D02*
X285002200Y-194507200D01*
D10*
D11*
X178434342Y-196585771D02*
X178434342Y-195085771D01*
X179291485Y-196585771D02*
X178648628Y-195728628D01*
X179291485Y-195085771D02*
X178434342Y-195942914D01*
X179934342Y-196585771D02*
X179934342Y-195585771D01*
X179934342Y-195085771D02*
X179862914Y-195157200D01*
X179934342Y-195228628D01*
X180005771Y-195157200D01*
X179934342Y-195085771D01*
X179934342Y-195228628D01*
X181505771Y-196442914D02*
X181434342Y-196514342D01*
X181220057Y-196585771D01*
X181077200Y-196585771D01*
X180862914Y-196514342D01*
X180720057Y-196371485D01*
X180648628Y-196228628D01*
X180577200Y-195942914D01*
X180577200Y-195728628D01*
X180648628Y-195442914D01*
X180720057Y-195300057D01*
X180862914Y-195157200D01*
X181077200Y-195085771D01*
X181220057Y-195085771D01*
X181434342Y-195157200D01*
X181505771Y-195228628D01*
X182791485Y-196585771D02*
X182791485Y-195800057D01*
X182720057Y-195657200D01*
X182577200Y-195585771D01*
X182291485Y-195585771D01*
X182148628Y-195657200D01*
X182791485Y-196514342D02*
X182648628Y-196585771D01*
X182291485Y-196585771D01*
X182148628Y-196514342D01*
X182077200Y-196371485D01*
X182077200Y-196228628D01*
X182148628Y-196085771D01*
X182291485Y-196014342D01*
X182648628Y-196014342D01*
X182791485Y-195942914D01*
X184148628Y-196585771D02*
X184148628Y-195085771D01*
X184148628Y-196514342D02*
X184005771Y-196585771D01*
X183720057Y-196585771D01*
X183577200Y-196514342D01*
X183505771Y-196442914D01*
X183434342Y-196300057D01*
X183434342Y-195871485D01*
X183505771Y-195728628D01*
X183577200Y-195657200D01*
X183720057Y-195585771D01*
X184005771Y-195585771D01*
X184148628Y-195657200D01*
X186005771Y-195800057D02*
X186505771Y-195800057D01*
X186720057Y-196585771D02*
X186005771Y-196585771D01*
X186005771Y-195085771D01*
X186720057Y-195085771D01*
X187362914Y-196442914D02*
X187434342Y-196514342D01*
X187362914Y-196585771D01*
X187291485Y-196514342D01*
X187362914Y-196442914D01*
X187362914Y-196585771D01*
X188077200Y-196585771D02*
X188077200Y-195085771D01*
X188434342Y-195085771D01*
X188648628Y-195157200D01*
X188791485Y-195300057D01*
X188862914Y-195442914D01*
X188934342Y-195728628D01*
X188934342Y-195942914D01*
X188862914Y-196228628D01*
X188791485Y-196371485D01*
X188648628Y-196514342D01*
X188434342Y-196585771D01*
X188077200Y-196585771D01*
X189577200Y-196442914D02*
X189648628Y-196514342D01*
X189577200Y-196585771D01*
X189505771Y-196514342D01*
X189577200Y-196442914D01*
X189577200Y-196585771D01*
X190220057Y-196157200D02*
X190934342Y-196157200D01*
X190077200Y-196585771D02*
X190577200Y-195085771D01*
X191077200Y-196585771D01*
X191577200Y-196442914D02*
X191648628Y-196514342D01*
X191577200Y-196585771D01*
X191505771Y-196514342D01*
X191577200Y-196442914D01*
X191577200Y-196585771D01*
X194577200Y-196585771D02*
X194577200Y-195085771D01*
X194720057Y-196014342D02*
X195148628Y-196585771D01*
X195148628Y-195585771D02*
X194577200Y-196157200D01*
X195791485Y-196585771D02*
X195791485Y-195585771D01*
X195791485Y-195085771D02*
X195720057Y-195157200D01*
X195791485Y-195228628D01*
X195862914Y-195157200D01*
X195791485Y-195085771D01*
X195791485Y-195228628D01*
X197148628Y-196514342D02*
X197005771Y-196585771D01*
X196720057Y-196585771D01*
X196577200Y-196514342D01*
X196505771Y-196442914D01*
X196434342Y-196300057D01*
X196434342Y-195871485D01*
X196505771Y-195728628D01*
X196577200Y-195657200D01*
X196720057Y-195585771D01*
X197005771Y-195585771D01*
X197148628Y-195657200D01*
X198434342Y-196585771D02*
X198434342Y-195800057D01*
X198362914Y-195657200D01*
X198220057Y-195585771D01*
X197934342Y-195585771D01*
X197791485Y-195657200D01*
X198434342Y-196514342D02*
X198291485Y-196585771D01*
X197934342Y-196585771D01*
X197791485Y-196514342D01*
X197720057Y-196371485D01*
X197720057Y-196228628D01*
X197791485Y-196085771D01*
X197934342Y-196014342D01*
X198291485Y-196014342D01*
X198434342Y-195942914D01*
X199791485Y-196585771D02*
X199791485Y-195085771D01*
X199791485Y-196514342D02*
X199648628Y-196585771D01*
X199362914Y-196585771D01*
X199220057Y-196514342D01*
X199148628Y-196442914D01*
X199077200Y-196300057D01*
X199077200Y-195871485D01*
X199148628Y-195728628D01*
X199220057Y-195657200D01*
X199362914Y-195585771D01*
X199648628Y-195585771D01*
X199791485Y-195657200D01*
X202077200Y-197157200D02*
X202005771Y-197085771D01*
X201862914Y-196871485D01*
X201791485Y-196728628D01*
X201720057Y-196514342D01*
X201648628Y-196157200D01*
X201648628Y-195871485D01*
X201720057Y-195514342D01*
X201791485Y-195300057D01*
X201862914Y-195157200D01*
X202005771Y-194942914D01*
X202077200Y-194871485D01*
X203362914Y-195085771D02*
X202648628Y-195085771D01*
X202577200Y-195800057D01*
X202648628Y-195728628D01*
X202791485Y-195657200D01*
X203148628Y-195657200D01*
X203291485Y-195728628D01*
X203362914Y-195800057D01*
X203434342Y-195942914D01*
X203434342Y-196300057D01*
X203362914Y-196442914D01*
X203291485Y-196514342D01*
X203148628Y-196585771D01*
X202791485Y-196585771D01*
X202648628Y-196514342D01*
X202577200Y-196442914D01*
X204077200Y-196442914D02*
X204148628Y-196514342D01*
X204077200Y-196585771D01*
X204005771Y-196514342D01*
X204077200Y-196442914D01*
X204077200Y-196585771D01*
X205577200Y-196585771D02*
X204720057Y-196585771D01*
X205148628Y-196585771D02*
X205148628Y-195085771D01*
X205005771Y-195300057D01*
X204862914Y-195442914D01*
X204720057Y-195514342D01*
X206220057Y-196442914D02*
X206291485Y-196514342D01*
X206220057Y-196585771D01*
X206148628Y-196514342D01*
X206220057Y-196442914D01*
X206220057Y-196585771D01*
X207720057Y-196585771D02*
X206862914Y-196585771D01*
X207291485Y-196585771D02*
X207291485Y-195085771D01*
X207148628Y-195300057D01*
X207005771Y-195442914D01*
X206862914Y-195514342D01*
X208648628Y-195085771D02*
X208791485Y-195085771D01*
X208934342Y-195157200D01*
X209005771Y-195228628D01*
X209077200Y-195371485D01*
X209148628Y-195657200D01*
X209148628Y-196014342D01*
X209077200Y-196300057D01*
X209005771Y-196442914D01*
X208934342Y-196514342D01*
X208791485Y-196585771D01*
X208648628Y-196585771D01*
X208505771Y-196514342D01*
X208434342Y-196442914D01*
X208362914Y-196300057D01*
X208291485Y-196014342D01*
X208291485Y-195657200D01*
X208362914Y-195371485D01*
X208434342Y-195228628D01*
X208505771Y-195157200D01*
X208648628Y-195085771D01*
X209648628Y-197157200D02*
X209720057Y-197085771D01*
X209862914Y-196871485D01*
X209934342Y-196728628D01*
X210005771Y-196514342D01*
X210077200Y-196157200D01*
X210077200Y-195871485D01*
X210005771Y-195514342D01*
X209934342Y-195300057D01*
X209862914Y-195157200D01*
X209720057Y-194942914D01*
X209648628Y-194871485D01*
X210791485Y-196014342D02*
X211934342Y-196014342D01*
X213434342Y-196585771D02*
X212577200Y-196585771D01*
X213005771Y-196585771D02*
X213005771Y-195085771D01*
X212862914Y-195300057D01*
X212720057Y-195442914D01*
X212577200Y-195514342D01*
D10*
D11*
X177002200Y-191507200D02*
X285002200Y-191507200D01*
D10*
D12*
X264411485Y-193785771D02*
X263911485Y-193071485D01*
X263554342Y-193785771D02*
X263554342Y-192285771D01*
X264125771Y-192285771D01*
X264268628Y-192357200D01*
X264340057Y-192428628D01*
X264411485Y-192571485D01*
X264411485Y-192785771D01*
X264340057Y-192928628D01*
X264268628Y-193000057D01*
X264125771Y-193071485D01*
X263554342Y-193071485D01*
X265625771Y-193714342D02*
X265482914Y-193785771D01*
X265197200Y-193785771D01*
X265054342Y-193714342D01*
X264982914Y-193571485D01*
X264982914Y-193000057D01*
X265054342Y-192857200D01*
X265197200Y-192785771D01*
X265482914Y-192785771D01*
X265625771Y-192857200D01*
X265697200Y-193000057D01*
X265697200Y-193142914D01*
X264982914Y-193285771D01*
X266197200Y-192785771D02*
X266554342Y-193785771D01*
X266911485Y-192785771D01*
X267482914Y-193642914D02*
X267554342Y-193714342D01*
X267482914Y-193785771D01*
X267411485Y-193714342D01*
X267482914Y-193642914D01*
X267482914Y-193785771D01*
X267482914Y-192857200D02*
X267554342Y-192928628D01*
X267482914Y-193000057D01*
X267411485Y-192928628D01*
X267482914Y-192857200D01*
X267482914Y-193000057D01*
X269840057Y-193000057D02*
X270054342Y-193071485D01*
X270125771Y-193142914D01*
X270197200Y-193285771D01*
X270197200Y-193500057D01*
X270125771Y-193642914D01*
X270054342Y-193714342D01*
X269911485Y-193785771D01*
X269340057Y-193785771D01*
X269340057Y-192285771D01*
X269840057Y-192285771D01*
X269982914Y-192357200D01*
X270054342Y-192428628D01*
X270125771Y-192571485D01*
X270125771Y-192714342D01*
X270054342Y-192857200D01*
X269982914Y-192928628D01*
X269840057Y-193000057D01*
X269340057Y-193000057D01*
D10*
D11*
X178362914Y-193714342D02*
X178577200Y-193785771D01*
X178934342Y-193785771D01*
X179077200Y-193714342D01*
X179148628Y-193642914D01*
X179220057Y-193500057D01*
X179220057Y-193357200D01*
X179148628Y-193214342D01*
X179077200Y-193142914D01*
X178934342Y-193071485D01*
X178648628Y-193000057D01*
X178505771Y-192928628D01*
X178434342Y-192857200D01*
X178362914Y-192714342D01*
X178362914Y-192571485D01*
X178434342Y-192428628D01*
X178505771Y-192357200D01*
X178648628Y-192285771D01*
X179005771Y-192285771D01*
X179220057Y-192357200D01*
X179862914Y-193785771D02*
X179862914Y-192785771D01*
X179862914Y-192285771D02*
X179791485Y-192357200D01*
X179862914Y-192428628D01*
X179934342Y-192357200D01*
X179862914Y-192285771D01*
X179862914Y-192428628D01*
X180434342Y-192785771D02*
X181220057Y-192785771D01*
X180434342Y-193785771D01*
X181220057Y-193785771D01*
X182362914Y-193714342D02*
X182220057Y-193785771D01*
X181934342Y-193785771D01*
X181791485Y-193714342D01*
X181720057Y-193571485D01*
X181720057Y-193000057D01*
X181791485Y-192857200D01*
X181934342Y-192785771D01*
X182220057Y-192785771D01*
X182362914Y-192857200D01*
X182434342Y-193000057D01*
X182434342Y-193142914D01*
X181720057Y-193285771D01*
X183077200Y-193642914D02*
X183148628Y-193714342D01*
X183077200Y-193785771D01*
X183005771Y-193714342D01*
X183077200Y-193642914D01*
X183077200Y-193785771D01*
X183077200Y-192857200D02*
X183148628Y-192928628D01*
X183077200Y-193000057D01*
X183005771Y-192928628D01*
X183077200Y-192857200D01*
X183077200Y-193000057D01*
X184862914Y-193357200D02*
X185577200Y-193357200D01*
X184720057Y-193785771D02*
X185220057Y-192285771D01*
X185720057Y-193785771D01*
X186862914Y-192785771D02*
X186862914Y-193785771D01*
X186505771Y-192214342D02*
X186148628Y-193285771D01*
X187077200Y-193285771D01*
D10*
D11*
X263434342Y-196585771D02*
X263434342Y-195085771D01*
X264791485Y-196585771D02*
X264791485Y-195085771D01*
X264791485Y-196514342D02*
X264648628Y-196585771D01*
X264362914Y-196585771D01*
X264220057Y-196514342D01*
X264148628Y-196442914D01*
X264077200Y-196300057D01*
X264077200Y-195871485D01*
X264148628Y-195728628D01*
X264220057Y-195657200D01*
X264362914Y-195585771D01*
X264648628Y-195585771D01*
X264791485Y-195657200D01*
X265505771Y-196442914D02*
X265577200Y-196514342D01*
X265505771Y-196585771D01*
X265434342Y-196514342D01*
X265505771Y-196442914D01*
X265505771Y-196585771D01*
X265505771Y-195657200D02*
X265577200Y-195728628D01*
X265505771Y-195800057D01*
X265434342Y-195728628D01*
X265505771Y-195657200D01*
X265505771Y-195800057D01*
X268148628Y-196585771D02*
X267291485Y-196585771D01*
X267720057Y-196585771D02*
X267720057Y-195085771D01*
X267577200Y-195300057D01*
X267434342Y-195442914D01*
X267291485Y-195514342D01*
X269862914Y-195014342D02*
X268577200Y-196942914D01*
X271148628Y-196585771D02*
X270291485Y-196585771D01*
X270720057Y-196585771D02*
X270720057Y-195085771D01*
X270577200Y-195300057D01*
X270434342Y-195442914D01*
X270291485Y-195514342D01*
D10*
D11*
X177002200Y-187507200D02*
X285002200Y-187507200D01*
D10*
D13*
X178714580Y-188211961D02*
X179857438Y-188211961D01*
X179036009Y-190211961D02*
X179286009Y-188211961D01*
X180274104Y-190211961D02*
X180440771Y-188878628D01*
X180524104Y-188211961D02*
X180416961Y-188307200D01*
X180500295Y-188402438D01*
X180607438Y-188307200D01*
X180524104Y-188211961D01*
X180500295Y-188402438D01*
X181107438Y-188878628D02*
X181869342Y-188878628D01*
X181476485Y-188211961D02*
X181262200Y-189926247D01*
X181333628Y-190116723D01*
X181512200Y-190211961D01*
X181702676Y-190211961D01*
X182655057Y-190211961D02*
X182476485Y-190116723D01*
X182405057Y-189926247D01*
X182619342Y-188211961D01*
X184190771Y-190116723D02*
X183988390Y-190211961D01*
X183607438Y-190211961D01*
X183428866Y-190116723D01*
X183357438Y-189926247D01*
X183452676Y-189164342D01*
X183571723Y-188973866D01*
X183774104Y-188878628D01*
X184155057Y-188878628D01*
X184333628Y-188973866D01*
X184405057Y-189164342D01*
X184381247Y-189354819D01*
X183405057Y-189545295D01*
X185155057Y-190021485D02*
X185238390Y-190116723D01*
X185131247Y-190211961D01*
X185047914Y-190116723D01*
X185155057Y-190021485D01*
X185131247Y-190211961D01*
X185286009Y-188973866D02*
X185369342Y-189069104D01*
X185262200Y-189164342D01*
X185178866Y-189069104D01*
X185286009Y-188973866D01*
X185262200Y-189164342D01*
X187607438Y-190211961D02*
X187857438Y-188211961D01*
X188619342Y-188211961D01*
X188797914Y-188307200D01*
X188881247Y-188402438D01*
X188952676Y-188592914D01*
X188916961Y-188878628D01*
X188797914Y-189069104D01*
X188690771Y-189164342D01*
X188488390Y-189259580D01*
X187726485Y-189259580D01*
X190381247Y-190116723D02*
X190178866Y-190211961D01*
X189797914Y-190211961D01*
X189619342Y-190116723D01*
X189547914Y-189926247D01*
X189643152Y-189164342D01*
X189762200Y-188973866D01*
X189964580Y-188878628D01*
X190345533Y-188878628D01*
X190524104Y-188973866D01*
X190595533Y-189164342D01*
X190571723Y-189354819D01*
X189595533Y-189545295D01*
X191321723Y-190211961D02*
X191488390Y-188878628D01*
X191440771Y-189259580D02*
X191559819Y-189069104D01*
X191666961Y-188973866D01*
X191869342Y-188878628D01*
X192059819Y-188878628D01*
X192845533Y-190211961D02*
X192666961Y-190116723D01*
X192583628Y-190021485D01*
X192512200Y-189831009D01*
X192583628Y-189259580D01*
X192702676Y-189069104D01*
X192809819Y-188973866D01*
X193012200Y-188878628D01*
X193297914Y-188878628D01*
X193476485Y-188973866D01*
X193559819Y-189069104D01*
X193631247Y-189259580D01*
X193559819Y-189831009D01*
X193440771Y-190021485D01*
X193333628Y-190116723D01*
X193131247Y-190211961D01*
X192845533Y-190211961D01*
X194345533Y-188878628D02*
X194655057Y-190211961D01*
X195297914Y-188878628D01*
X195809819Y-190116723D02*
X195988390Y-190211961D01*
X196369342Y-190211961D01*
X196571723Y-190116723D01*
X196690771Y-189926247D01*
X196702676Y-189831009D01*
X196631247Y-189640533D01*
X196452676Y-189545295D01*
X196166961Y-189545295D01*
X195988390Y-189450057D01*
X195916961Y-189259580D01*
X195928866Y-189164342D01*
X196047914Y-188973866D01*
X196250295Y-188878628D01*
X196536009Y-188878628D01*
X196714580Y-188973866D01*
X197512200Y-190211961D02*
X197762200Y-188211961D01*
X197797914Y-189450057D02*
X198274104Y-190211961D01*
X198440771Y-188878628D02*
X197583628Y-189640533D01*
X199131247Y-190211961D02*
X199297914Y-188878628D01*
X199381247Y-188211961D02*
X199274104Y-188307200D01*
X199357438Y-188402438D01*
X199464580Y-188307200D01*
X199381247Y-188211961D01*
X199357438Y-188402438D01*
X199964580Y-188878628D02*
X200726485Y-188878628D01*
X200333628Y-188211961D02*
X200119342Y-189926247D01*
X200190771Y-190116723D01*
X200369342Y-190211961D01*
X200559819Y-190211961D01*
X202000295Y-190116723D02*
X201797914Y-190211961D01*
X201416961Y-190211961D01*
X201238390Y-190116723D01*
X201166961Y-189926247D01*
X201262200Y-189164342D01*
X201381247Y-188973866D01*
X201583628Y-188878628D01*
X201964580Y-188878628D01*
X202143152Y-188973866D01*
X202214580Y-189164342D01*
X202190771Y-189354819D01*
X201214580Y-189545295D01*
X204381247Y-190116723D02*
X204655057Y-190211961D01*
X205131247Y-190211961D01*
X205333628Y-190116723D01*
X205440771Y-190021485D01*
X205559819Y-189831009D01*
X205583628Y-189640533D01*
X205512200Y-189450057D01*
X205428866Y-189354819D01*
X205250295Y-189259580D01*
X204881247Y-189164342D01*
X204702676Y-189069104D01*
X204619342Y-188973866D01*
X204547914Y-188783390D01*
X204571723Y-188592914D01*
X204690771Y-188402438D01*
X204797914Y-188307200D01*
X205000295Y-188211961D01*
X205476485Y-188211961D01*
X205750295Y-188307200D01*
X206345533Y-188878628D02*
X206559819Y-190211961D01*
X207059819Y-189259580D01*
X207321723Y-190211961D01*
X207869342Y-188878628D01*
X208464580Y-190211961D02*
X208631247Y-188878628D01*
X208714580Y-188211961D02*
X208607438Y-188307200D01*
X208690771Y-188402438D01*
X208797914Y-188307200D01*
X208714580Y-188211961D01*
X208690771Y-188402438D01*
X209297914Y-188878628D02*
X210059819Y-188878628D01*
X209666961Y-188211961D02*
X209452676Y-189926247D01*
X209524104Y-190116723D01*
X209702676Y-190211961D01*
X209893152Y-190211961D01*
X211428866Y-190116723D02*
X211226485Y-190211961D01*
X210845533Y-190211961D01*
X210666961Y-190116723D01*
X210583628Y-190021485D01*
X210512200Y-189831009D01*
X210583628Y-189259580D01*
X210702676Y-189069104D01*
X210809819Y-188973866D01*
X211012200Y-188878628D01*
X211393152Y-188878628D01*
X211571723Y-188973866D01*
X212274104Y-190211961D02*
X212524104Y-188211961D01*
X213131247Y-190211961D02*
X213262200Y-189164342D01*
X213190771Y-188973866D01*
X213012200Y-188878628D01*
X212726485Y-188878628D01*
X212524104Y-188973866D01*
X212416961Y-189069104D01*
X214857438Y-190116723D02*
X214655057Y-190211961D01*
X214274104Y-190211961D01*
X214095533Y-190116723D01*
X214024104Y-189926247D01*
X214119342Y-189164342D01*
X214238390Y-188973866D01*
X214440771Y-188878628D01*
X214821723Y-188878628D01*
X215000295Y-188973866D01*
X215071723Y-189164342D01*
X215047914Y-189354819D01*
X214071723Y-189545295D01*
X215797914Y-190211961D02*
X215964580Y-188878628D01*
X215916961Y-189259580D02*
X216036009Y-189069104D01*
X216143152Y-188973866D01*
X216345533Y-188878628D01*
X216536009Y-188878628D01*
X219512200Y-190211961D02*
X218559819Y-190211961D01*
X218809819Y-188211961D01*
X221036009Y-190211961D02*
X221166961Y-189164342D01*
X221095533Y-188973866D01*
X220916961Y-188878628D01*
X220536009Y-188878628D01*
X220333628Y-188973866D01*
X221047914Y-190116723D02*
X220845533Y-190211961D01*
X220369342Y-190211961D01*
X220190771Y-190116723D01*
X220119342Y-189926247D01*
X220143152Y-189735771D01*
X220262200Y-189545295D01*
X220464580Y-189450057D01*
X220940771Y-189450057D01*
X221143152Y-189354819D01*
X221964580Y-188878628D02*
X222274104Y-190211961D01*
X222916961Y-188878628D02*
X222274104Y-190211961D01*
X222024104Y-190688152D01*
X221916961Y-190783390D01*
X221714580Y-190878628D01*
X223797914Y-190211961D02*
X223619342Y-190116723D01*
X223536009Y-190021485D01*
X223464580Y-189831009D01*
X223536009Y-189259580D01*
X223655057Y-189069104D01*
X223762200Y-188973866D01*
X223964580Y-188878628D01*
X224250295Y-188878628D01*
X224428866Y-188973866D01*
X224512200Y-189069104D01*
X224583628Y-189259580D01*
X224512199Y-189831009D01*
X224393152Y-190021485D01*
X224286009Y-190116723D01*
X224083628Y-190211961D01*
X223797914Y-190211961D01*
X226345533Y-188878628D02*
X226178866Y-190211961D01*
X225488390Y-188878628D02*
X225357438Y-189926247D01*
X225428866Y-190116723D01*
X225607438Y-190211961D01*
X225893152Y-190211961D01*
X226095533Y-190116723D01*
X226202676Y-190021485D01*
X227012199Y-188878628D02*
X227774104Y-188878628D01*
X227381247Y-188211961D02*
X227166961Y-189926247D01*
X227238390Y-190116723D01*
X227416961Y-190211961D01*
X227607438Y-190211961D01*
D10*
D11*
X178934342Y-185600057D02*
X178434342Y-185600057D01*
X178434342Y-186385771D02*
X178434342Y-184885771D01*
X179148628Y-184885771D01*
X179720057Y-186385771D02*
X179720057Y-185385771D01*
X179720057Y-184885771D02*
X179648628Y-184957200D01*
X179720057Y-185028628D01*
X179791485Y-184957200D01*
X179720057Y-184885771D01*
X179720057Y-185028628D01*
X180648628Y-186385771D02*
X180505771Y-186314342D01*
X180434342Y-186171485D01*
X180434342Y-184885771D01*
X181791485Y-186314342D02*
X181648628Y-186385771D01*
X181362914Y-186385771D01*
X181220057Y-186314342D01*
X181148628Y-186171485D01*
X181148628Y-185600057D01*
X181220057Y-185457200D01*
X181362914Y-185385771D01*
X181648628Y-185385771D01*
X181791485Y-185457200D01*
X181862914Y-185600057D01*
X181862914Y-185742914D01*
X181148628Y-185885771D01*
X182505771Y-186242914D02*
X182577200Y-186314342D01*
X182505771Y-186385771D01*
X182434342Y-186314342D01*
X182505771Y-186242914D01*
X182505771Y-186385771D01*
X182505771Y-185457200D02*
X182577200Y-185528628D01*
X182505771Y-185600057D01*
X182434342Y-185528628D01*
X182505771Y-185457200D01*
X182505771Y-185600057D01*
X184291485Y-186314342D02*
X184434342Y-186385771D01*
X184720057Y-186385771D01*
X184862914Y-186314342D01*
X184934342Y-186171485D01*
X184934342Y-186100057D01*
X184862914Y-185957200D01*
X184720057Y-185885771D01*
X184505771Y-185885771D01*
X184362914Y-185814342D01*
X184291485Y-185671485D01*
X184291485Y-185600057D01*
X184362914Y-185457200D01*
X184505771Y-185385771D01*
X184720057Y-185385771D01*
X184862914Y-185457200D01*
X185434342Y-185385771D02*
X185720057Y-186385771D01*
X186005771Y-185671485D01*
X186291485Y-186385771D01*
X186577200Y-185385771D01*
X187148628Y-186385771D02*
X187148628Y-185385771D01*
X187148628Y-184885771D02*
X187077200Y-184957200D01*
X187148628Y-185028628D01*
X187220057Y-184957200D01*
X187148628Y-184885771D01*
X187148628Y-185028628D01*
X187648628Y-185385771D02*
X188220057Y-185385771D01*
X187862914Y-184885771D02*
X187862914Y-186171485D01*
X187934342Y-186314342D01*
X188077200Y-186385771D01*
X188220057Y-186385771D01*
X189362914Y-186314342D02*
X189220057Y-186385771D01*
X188934342Y-186385771D01*
X188791485Y-186314342D01*
X188720057Y-186242914D01*
X188648628Y-186100057D01*
X188648628Y-185671485D01*
X188720057Y-185528628D01*
X188791485Y-185457200D01*
X188934342Y-185385771D01*
X189220057Y-185385771D01*
X189362914Y-185457200D01*
X190005771Y-186385771D02*
X190005771Y-184885771D01*
X190648628Y-186385771D02*
X190648628Y-185600057D01*
X190577200Y-185457200D01*
X190434342Y-185385771D01*
X190220057Y-185385771D01*
X190077200Y-185457200D01*
X190005771Y-185528628D01*
X191934342Y-186314342D02*
X191791485Y-186385771D01*
X191505771Y-186385771D01*
X191362914Y-186314342D01*
X191291485Y-186171485D01*
X191291485Y-185600057D01*
X191362914Y-185457200D01*
X191505771Y-185385771D01*
X191791485Y-185385771D01*
X191934342Y-185457200D01*
X192005771Y-185600057D01*
X192005771Y-185742914D01*
X191291485Y-185885771D01*
X192648628Y-186385771D02*
X192648628Y-185385771D01*
X192648628Y-185671485D02*
X192720057Y-185528628D01*
X192791485Y-185457200D01*
X192934342Y-185385771D01*
X193077200Y-185385771D01*
X193577200Y-186242914D02*
X193648628Y-186314342D01*
X193577200Y-186385771D01*
X193505771Y-186314342D01*
X193577200Y-186242914D01*
X193577200Y-186385771D01*
X194291485Y-186385771D02*
X194291485Y-184885771D01*
X194434342Y-185814342D02*
X194862914Y-186385771D01*
X194862914Y-185385771D02*
X194291485Y-185957200D01*
X195505771Y-186385771D02*
X195505771Y-185385771D01*
X195505771Y-184885771D02*
X195434342Y-184957200D01*
X195505771Y-185028628D01*
X195577200Y-184957200D01*
X195505771Y-184885771D01*
X195505771Y-185028628D01*
X196862914Y-186314342D02*
X196720057Y-186385771D01*
X196434342Y-186385771D01*
X196291485Y-186314342D01*
X196220057Y-186242914D01*
X196148628Y-186100057D01*
X196148628Y-185671485D01*
X196220057Y-185528628D01*
X196291485Y-185457200D01*
X196434342Y-185385771D01*
X196720057Y-185385771D01*
X196862914Y-185457200D01*
X198148628Y-186385771D02*
X198148628Y-185600057D01*
X198077200Y-185457200D01*
X197934342Y-185385771D01*
X197648628Y-185385771D01*
X197505771Y-185457200D01*
X198148628Y-186314342D02*
X198005771Y-186385771D01*
X197648628Y-186385771D01*
X197505771Y-186314342D01*
X197434342Y-186171485D01*
X197434342Y-186028628D01*
X197505771Y-185885771D01*
X197648628Y-185814342D01*
X198005771Y-185814342D01*
X198148628Y-185742914D01*
X199505771Y-186385771D02*
X199505771Y-184885771D01*
X199505771Y-186314342D02*
X199362914Y-186385771D01*
X199077200Y-186385771D01*
X198934342Y-186314342D01*
X198862914Y-186242914D01*
X198791485Y-186100057D01*
X198791485Y-185671485D01*
X198862914Y-185528628D01*
X198934342Y-185457200D01*
X199077200Y-185385771D01*
X199362914Y-185385771D01*
X199505771Y-185457200D01*
X199862914Y-186528628D02*
X201005771Y-186528628D01*
X201362914Y-185385771D02*
X201362914Y-186885771D01*
X201362914Y-185457200D02*
X201505771Y-185385771D01*
X201791485Y-185385771D01*
X201934342Y-185457200D01*
X202005771Y-185528628D01*
X202077200Y-185671485D01*
X202077200Y-186100057D01*
X202005771Y-186242914D01*
X201934342Y-186314342D01*
X201791485Y-186385771D01*
X201505771Y-186385771D01*
X201362914Y-186314342D01*
X203362914Y-186314342D02*
X203220057Y-186385771D01*
X202934342Y-186385771D01*
X202791485Y-186314342D01*
X202720057Y-186242914D01*
X202648628Y-186100057D01*
X202648628Y-185671485D01*
X202720057Y-185528628D01*
X202791485Y-185457200D01*
X202934342Y-185385771D01*
X203220057Y-185385771D01*
X203362914Y-185457200D01*
X204005771Y-186385771D02*
X204005771Y-184885771D01*
X204005771Y-185457200D02*
X204148628Y-185385771D01*
X204434342Y-185385771D01*
X204577200Y-185457200D01*
X204648628Y-185528628D01*
X204720057Y-185671485D01*
X204720057Y-186100057D01*
X204648628Y-186242914D01*
X204577200Y-186314342D01*
X204434342Y-186385771D01*
X204148628Y-186385771D01*
X204005771Y-186314342D01*
D10*
D11*
X177002200Y-181507200D02*
X285002200Y-181507200D01*
D10*
D11*
X178362914Y-183614342D02*
X178577200Y-183685771D01*
X178934342Y-183685771D01*
X179077200Y-183614342D01*
X179148628Y-183542914D01*
X179220057Y-183400057D01*
X179220057Y-183257200D01*
X179148628Y-183114342D01*
X179077200Y-183042914D01*
X178934342Y-182971485D01*
X178648628Y-182900057D01*
X178505771Y-182828628D01*
X178434342Y-182757200D01*
X178362914Y-182614342D01*
X178362914Y-182471485D01*
X178434342Y-182328628D01*
X178505771Y-182257200D01*
X178648628Y-182185771D01*
X179005771Y-182185771D01*
X179220057Y-182257200D01*
X179862914Y-183685771D02*
X179862914Y-182185771D01*
X180505771Y-183685771D02*
X180505771Y-182900057D01*
X180434342Y-182757200D01*
X180291485Y-182685771D01*
X180077200Y-182685771D01*
X179934342Y-182757200D01*
X179862914Y-182828628D01*
X181791485Y-183614342D02*
X181648628Y-183685771D01*
X181362914Y-183685771D01*
X181220057Y-183614342D01*
X181148628Y-183471485D01*
X181148628Y-182900057D01*
X181220057Y-182757200D01*
X181362914Y-182685771D01*
X181648628Y-182685771D01*
X181791485Y-182757200D01*
X181862914Y-182900057D01*
X181862914Y-183042914D01*
X181148628Y-183185771D01*
X183077200Y-183614342D02*
X182934342Y-183685771D01*
X182648628Y-183685771D01*
X182505771Y-183614342D01*
X182434342Y-183471485D01*
X182434342Y-182900057D01*
X182505771Y-182757200D01*
X182648628Y-182685771D01*
X182934342Y-182685771D01*
X183077200Y-182757200D01*
X183148628Y-182900057D01*
X183148628Y-183042914D01*
X182434342Y-183185771D01*
X183577200Y-182685771D02*
X184148628Y-182685771D01*
X183791485Y-182185771D02*
X183791485Y-183471485D01*
X183862914Y-183614342D01*
X184005771Y-183685771D01*
X184148628Y-183685771D01*
X184648628Y-183542914D02*
X184720057Y-183614342D01*
X184648628Y-183685771D01*
X184577200Y-183614342D01*
X184648628Y-183542914D01*
X184648628Y-183685771D01*
X184648628Y-182757200D02*
X184720057Y-182828628D01*
X184648628Y-182900057D01*
X184577200Y-182828628D01*
X184648628Y-182757200D01*
X184648628Y-182900057D01*
D10*
D12*
X178482914Y-180257200D02*
X179197200Y-180257200D01*
X178340057Y-180685771D02*
X178840057Y-179185771D01*
X179340057Y-180685771D01*
X180411485Y-180614342D02*
X180268628Y-180685771D01*
X179982914Y-180685771D01*
X179840057Y-180614342D01*
X179768628Y-180471485D01*
X179768628Y-179900057D01*
X179840057Y-179757200D01*
X179982914Y-179685771D01*
X180268628Y-179685771D01*
X180411485Y-179757200D01*
X180482914Y-179900057D01*
X180482914Y-180042914D01*
X179768628Y-180185771D01*
X181125771Y-180685771D02*
X181125771Y-179685771D01*
X181125771Y-179971485D02*
X181197200Y-179828628D01*
X181268628Y-179757200D01*
X181411485Y-179685771D01*
X181554342Y-179685771D01*
X182268628Y-180685771D02*
X182125771Y-180614342D01*
X182054342Y-180542914D01*
X181982914Y-180400057D01*
X181982914Y-179971485D01*
X182054342Y-179828628D01*
X182125771Y-179757200D01*
X182268628Y-179685771D01*
X182482914Y-179685771D01*
X182625771Y-179757200D01*
X182697200Y-179828628D01*
X182768628Y-179971485D01*
X182768628Y-180400057D01*
X182697200Y-180542914D01*
X182625771Y-180614342D01*
X182482914Y-180685771D01*
X182268628Y-180685771D01*
X183340057Y-180614342D02*
X183482914Y-180685771D01*
X183768628Y-180685771D01*
X183911485Y-180614342D01*
X183982914Y-180471485D01*
X183982914Y-180400057D01*
X183911485Y-180257200D01*
X183768628Y-180185771D01*
X183554342Y-180185771D01*
X183411485Y-180114342D01*
X183340057Y-179971485D01*
X183340057Y-179900057D01*
X183411485Y-179757200D01*
X183554342Y-179685771D01*
X183768628Y-179685771D01*
X183911485Y-179757200D01*
X184625771Y-179685771D02*
X184625771Y-181185771D01*
X184625771Y-179757200D02*
X184768628Y-179685771D01*
X185054342Y-179685771D01*
X185197200Y-179757200D01*
X185268628Y-179828628D01*
X185340057Y-179971485D01*
X185340057Y-180400057D01*
X185268628Y-180542914D01*
X185197200Y-180614342D01*
X185054342Y-180685771D01*
X184768628Y-180685771D01*
X184625771Y-180614342D01*
X186625771Y-180685771D02*
X186625771Y-179900057D01*
X186554342Y-179757200D01*
X186411485Y-179685771D01*
X186125771Y-179685771D01*
X185982914Y-179757200D01*
X186625771Y-180614342D02*
X186482914Y-180685771D01*
X186125771Y-180685771D01*
X185982914Y-180614342D01*
X185911485Y-180471485D01*
X185911485Y-180328628D01*
X185982914Y-180185771D01*
X186125771Y-180114342D01*
X186482914Y-180114342D01*
X186625771Y-180042914D01*
X187982914Y-180614342D02*
X187840057Y-180685771D01*
X187554342Y-180685771D01*
X187411485Y-180614342D01*
X187340057Y-180542914D01*
X187268628Y-180400057D01*
X187268628Y-179971485D01*
X187340057Y-179828628D01*
X187411485Y-179757200D01*
X187554342Y-179685771D01*
X187840057Y-179685771D01*
X187982914Y-179757200D01*
X189197200Y-180614342D02*
X189054342Y-180685771D01*
X188768628Y-180685771D01*
X188625771Y-180614342D01*
X188554342Y-180471485D01*
X188554342Y-179900057D01*
X188625771Y-179757200D01*
X188768628Y-179685771D01*
X189054342Y-179685771D01*
X189197200Y-179757200D01*
X189268628Y-179900057D01*
X189268628Y-180042914D01*
X188554342Y-180185771D01*
X191625771Y-180614342D02*
X191482914Y-180685771D01*
X191197200Y-180685771D01*
X191054342Y-180614342D01*
X190982914Y-180471485D01*
X190982914Y-179900057D01*
X191054342Y-179757200D01*
X191197200Y-179685771D01*
X191482914Y-179685771D01*
X191625771Y-179757200D01*
X191697200Y-179900057D01*
X191697200Y-180042914D01*
X190982914Y-180185771D01*
X192197200Y-179185771D02*
X193197200Y-180685771D01*
X193197200Y-179185771D02*
X192197200Y-180685771D01*
X193768628Y-179685771D02*
X193768628Y-181185771D01*
X193768628Y-179757200D02*
X193911485Y-179685771D01*
X194197200Y-179685771D01*
X194340057Y-179757200D01*
X194411485Y-179828628D01*
X194482914Y-179971485D01*
X194482914Y-180400057D01*
X194411485Y-180542914D01*
X194340057Y-180614342D01*
X194197200Y-180685771D01*
X193911485Y-180685771D01*
X193768628Y-180614342D01*
X195697200Y-180614342D02*
X195554342Y-180685771D01*
X195268628Y-180685771D01*
X195125771Y-180614342D01*
X195054342Y-180471485D01*
X195054342Y-179900057D01*
X195125771Y-179757200D01*
X195268628Y-179685771D01*
X195554342Y-179685771D01*
X195697200Y-179757200D01*
X195768628Y-179900057D01*
X195768628Y-180042914D01*
X195054342Y-180185771D01*
X196411485Y-180685771D02*
X196411485Y-179685771D01*
X196411485Y-179971485D02*
X196482914Y-179828628D01*
X196554342Y-179757200D01*
X196697200Y-179685771D01*
X196840057Y-179685771D01*
X197340057Y-180685771D02*
X197340057Y-179685771D01*
X197340057Y-179185771D02*
X197268628Y-179257200D01*
X197340057Y-179328628D01*
X197411485Y-179257200D01*
X197340057Y-179185771D01*
X197340057Y-179328628D01*
X198054342Y-180685771D02*
X198054342Y-179685771D01*
X198054342Y-179828628D02*
X198125771Y-179757200D01*
X198268628Y-179685771D01*
X198482914Y-179685771D01*
X198625771Y-179757200D01*
X198697200Y-179900057D01*
X198697200Y-180685771D01*
X198697200Y-179900057D02*
X198768628Y-179757200D01*
X198911485Y-179685771D01*
X199125771Y-179685771D01*
X199268628Y-179757200D01*
X199340057Y-179900057D01*
X199340057Y-180685771D01*
X200625771Y-180614342D02*
X200482914Y-180685771D01*
X200197200Y-180685771D01*
X200054342Y-180614342D01*
X199982914Y-180471485D01*
X199982914Y-179900057D01*
X200054342Y-179757200D01*
X200197200Y-179685771D01*
X200482914Y-179685771D01*
X200625771Y-179757200D01*
X200697200Y-179900057D01*
X200697200Y-180042914D01*
X199982914Y-180185771D01*
X201340057Y-179685771D02*
X201340057Y-180685771D01*
X201340057Y-179828628D02*
X201411485Y-179757200D01*
X201554342Y-179685771D01*
X201768628Y-179685771D01*
X201911485Y-179757200D01*
X201982914Y-179900057D01*
X201982914Y-180685771D01*
X202482914Y-179685771D02*
X203054342Y-179685771D01*
X202697200Y-179185771D02*
X202697200Y-180471485D01*
X202768628Y-180614342D01*
X202911485Y-180685771D01*
X203054342Y-180685771D01*
X204197200Y-180685771D02*
X204197200Y-179900057D01*
X204125771Y-179757200D01*
X203982914Y-179685771D01*
X203697200Y-179685771D01*
X203554342Y-179757200D01*
X204197200Y-180614342D02*
X204054342Y-180685771D01*
X203697200Y-180685771D01*
X203554342Y-180614342D01*
X203482914Y-180471485D01*
X203482914Y-180328628D01*
X203554342Y-180185771D01*
X203697200Y-180114342D01*
X204054342Y-180114342D01*
X204197200Y-180042914D01*
X205125771Y-180685771D02*
X204982914Y-180614342D01*
X204911485Y-180471485D01*
X204911485Y-179185771D01*
X206840057Y-180685771D02*
X206840057Y-179185771D01*
X207411485Y-179185771D01*
X207554342Y-179257200D01*
X207625771Y-179328628D01*
X207697200Y-179471485D01*
X207697200Y-179685771D01*
X207625771Y-179828628D01*
X207554342Y-179900057D01*
X207411485Y-179971485D01*
X206840057Y-179971485D01*
X208982914Y-180685771D02*
X208982914Y-179900057D01*
X208911485Y-179757200D01*
X208768628Y-179685771D01*
X208482914Y-179685771D01*
X208340057Y-179757200D01*
X208982914Y-180614342D02*
X208840057Y-180685771D01*
X208482914Y-180685771D01*
X208340057Y-180614342D01*
X208268628Y-180471485D01*
X208268628Y-180328628D01*
X208340057Y-180185771D01*
X208482914Y-180114342D01*
X208840057Y-180114342D01*
X208982914Y-180042914D01*
X209554342Y-179685771D02*
X209911485Y-180685771D01*
X210268628Y-179685771D02*
X209911485Y-180685771D01*
X209768628Y-181042914D01*
X209697200Y-181114342D01*
X209554342Y-181185771D01*
X211054342Y-180685771D02*
X210911485Y-180614342D01*
X210840057Y-180471485D01*
X210840057Y-179185771D01*
X211840057Y-180685771D02*
X211697200Y-180614342D01*
X211625771Y-180542914D01*
X211554342Y-180400057D01*
X211554342Y-179971485D01*
X211625771Y-179828628D01*
X211697200Y-179757200D01*
X211840057Y-179685771D01*
X212054342Y-179685771D01*
X212197200Y-179757200D01*
X212268628Y-179828628D01*
X212340057Y-179971485D01*
X212340057Y-180400057D01*
X212268628Y-180542914D01*
X212197200Y-180614342D01*
X212054342Y-180685771D01*
X211840057Y-180685771D01*
X213625771Y-180685771D02*
X213625771Y-179900057D01*
X213554342Y-179757200D01*
X213411485Y-179685771D01*
X213125771Y-179685771D01*
X212982914Y-179757200D01*
X213625771Y-180614342D02*
X213482914Y-180685771D01*
X213125771Y-180685771D01*
X212982914Y-180614342D01*
X212911485Y-180471485D01*
X212911485Y-180328628D01*
X212982914Y-180185771D01*
X213125771Y-180114342D01*
X213482914Y-180114342D01*
X213625771Y-180042914D01*
X214982914Y-180685771D02*
X214982914Y-179185771D01*
X214982914Y-180614342D02*
X214840057Y-180685771D01*
X214554342Y-180685771D01*
X214411485Y-180614342D01*
X214340057Y-180542914D01*
X214268628Y-180400057D01*
X214268628Y-179971485D01*
X214340057Y-179828628D01*
X214411485Y-179757200D01*
X214554342Y-179685771D01*
X214840057Y-179685771D01*
X214982914Y-179757200D01*
X215625771Y-180614342D02*
X215768628Y-180685771D01*
X216054342Y-180685771D01*
X216197200Y-180614342D01*
X216268628Y-180471485D01*
X216268628Y-180400057D01*
X216197200Y-180257200D01*
X216054342Y-180185771D01*
X215840057Y-180185771D01*
X215697200Y-180114342D01*
X215625771Y-179971485D01*
X215625771Y-179900057D01*
X215697200Y-179757200D01*
X215840057Y-179685771D01*
X216054342Y-179685771D01*
X216197200Y-179757200D01*
X218411485Y-181185771D02*
X218411485Y-179042914D01*
X220625771Y-179185771D02*
X220625771Y-180400057D01*
X220697200Y-180542914D01*
X220768628Y-180614342D01*
X220911485Y-180685771D01*
X221197200Y-180685771D01*
X221340057Y-180614342D01*
X221411485Y-180542914D01*
X221482914Y-180400057D01*
X221482914Y-179185771D01*
X222197200Y-180685771D02*
X222197200Y-179185771D01*
X223054342Y-180685771D01*
X223054342Y-179185771D01*
X224482914Y-180685771D02*
X223768628Y-180685771D01*
X223768628Y-179185771D01*
X226054342Y-180257200D02*
X226768628Y-180257200D01*
X225911485Y-180685771D02*
X226411485Y-179185771D01*
X226911485Y-180685771D01*
X227982914Y-180614342D02*
X227840057Y-180685771D01*
X227554342Y-180685771D01*
X227411485Y-180614342D01*
X227340057Y-180471485D01*
X227340057Y-179900057D01*
X227411485Y-179757200D01*
X227554342Y-179685771D01*
X227840057Y-179685771D01*
X227982914Y-179757200D01*
X228054342Y-179900057D01*
X228054342Y-180042914D01*
X227340057Y-180185771D01*
X228697200Y-180685771D02*
X228697200Y-179685771D01*
X228697200Y-179971485D02*
X228768628Y-179828628D01*
X228840057Y-179757200D01*
X228982914Y-179685771D01*
X229125771Y-179685771D01*
X229840057Y-180685771D02*
X229697200Y-180614342D01*
X229625771Y-180542914D01*
X229554342Y-180400057D01*
X229554342Y-179971485D01*
X229625771Y-179828628D01*
X229697200Y-179757200D01*
X229840057Y-179685771D01*
X230054342Y-179685771D01*
X230197200Y-179757200D01*
X230268628Y-179828628D01*
X230340057Y-179971485D01*
X230340057Y-180400057D01*
X230268628Y-180542914D01*
X230197200Y-180614342D01*
X230054342Y-180685771D01*
X229840057Y-180685771D01*
X230911485Y-180614342D02*
X231054342Y-180685771D01*
X231340057Y-180685771D01*
X231482914Y-180614342D01*
X231554342Y-180471485D01*
X231554342Y-180400057D01*
X231482914Y-180257200D01*
X231340057Y-180185771D01*
X231125771Y-180185771D01*
X230982914Y-180114342D01*
X230911485Y-179971485D01*
X230911485Y-179900057D01*
X230982914Y-179757200D01*
X231125771Y-179685771D01*
X231340057Y-179685771D01*
X231482914Y-179757200D01*
X232197200Y-179685771D02*
X232197200Y-181185771D01*
X232197200Y-179757200D02*
X232340057Y-179685771D01*
X232625771Y-179685771D01*
X232768628Y-179757200D01*
X232840057Y-179828628D01*
X232911485Y-179971485D01*
X232911485Y-180400057D01*
X232840057Y-180542914D01*
X232768628Y-180614342D01*
X232625771Y-180685771D01*
X232340057Y-180685771D01*
X232197200Y-180614342D01*
X234197200Y-180685771D02*
X234197200Y-179900057D01*
X234125771Y-179757200D01*
X233982914Y-179685771D01*
X233697200Y-179685771D01*
X233554342Y-179757200D01*
X234197200Y-180614342D02*
X234054342Y-180685771D01*
X233697200Y-180685771D01*
X233554342Y-180614342D01*
X233482914Y-180471485D01*
X233482914Y-180328628D01*
X233554342Y-180185771D01*
X233697200Y-180114342D01*
X234054342Y-180114342D01*
X234197200Y-180042914D01*
X235554342Y-180614342D02*
X235411485Y-180685771D01*
X235125771Y-180685771D01*
X234982914Y-180614342D01*
X234911485Y-180542914D01*
X234840057Y-180400057D01*
X234840057Y-179971485D01*
X234911485Y-179828628D01*
X234982914Y-179757200D01*
X235125771Y-179685771D01*
X235411485Y-179685771D01*
X235554342Y-179757200D01*
X236768628Y-180614342D02*
X236625771Y-180685771D01*
X236340057Y-180685771D01*
X236197200Y-180614342D01*
X236125771Y-180471485D01*
X236125771Y-179900057D01*
X236197200Y-179757200D01*
X236340057Y-179685771D01*
X236625771Y-179685771D01*
X236768628Y-179757200D01*
X236840057Y-179900057D01*
X236840057Y-180042914D01*
X236125771Y-180185771D01*
X239482914Y-180542914D02*
X239411485Y-180614342D01*
X239197200Y-180685771D01*
X239054342Y-180685771D01*
X238840057Y-180614342D01*
X238697200Y-180471485D01*
X238625771Y-180328628D01*
X238554342Y-180042914D01*
X238554342Y-179828628D01*
X238625771Y-179542914D01*
X238697200Y-179400057D01*
X238840057Y-179257200D01*
X239054342Y-179185771D01*
X239197200Y-179185771D01*
X239411485Y-179257200D01*
X239482914Y-179328628D01*
X240340057Y-180685771D02*
X240197200Y-180614342D01*
X240125771Y-180471485D01*
X240125771Y-179185771D01*
X241554342Y-179685771D02*
X241554342Y-180685771D01*
X240911485Y-179685771D02*
X240911485Y-180471485D01*
X240982914Y-180614342D01*
X241125771Y-180685771D01*
X241340057Y-180685771D01*
X241482914Y-180614342D01*
X241554342Y-180542914D01*
X242268628Y-180685771D02*
X242268628Y-179185771D01*
X242268628Y-179757200D02*
X242411485Y-179685771D01*
X242697200Y-179685771D01*
X242840057Y-179757200D01*
X242911485Y-179828628D01*
X242982914Y-179971485D01*
X242982914Y-180400057D01*
X242911485Y-180542914D01*
X242840057Y-180614342D01*
X242697200Y-180685771D01*
X242411485Y-180685771D01*
X242268628Y-180614342D01*
D10*
D11*
X179291485Y-177542914D02*
X179220057Y-177614342D01*
X179005771Y-177685771D01*
X178862914Y-177685771D01*
X178648628Y-177614342D01*
X178505771Y-177471485D01*
X178434342Y-177328628D01*
X178362914Y-177042914D01*
X178362914Y-176828628D01*
X178434342Y-176542914D01*
X178505771Y-176400057D01*
X178648628Y-176257200D01*
X178862914Y-176185771D01*
X179005771Y-176185771D01*
X179220057Y-176257200D01*
X179291485Y-176328628D01*
X180148628Y-177685771D02*
X180005771Y-177614342D01*
X179934342Y-177542914D01*
X179862914Y-177400057D01*
X179862914Y-176971485D01*
X179934342Y-176828628D01*
X180005771Y-176757200D01*
X180148628Y-176685771D01*
X180362914Y-176685771D01*
X180505771Y-176757200D01*
X180577200Y-176828628D01*
X180648628Y-176971485D01*
X180648628Y-177400057D01*
X180577200Y-177542914D01*
X180505771Y-177614342D01*
X180362914Y-177685771D01*
X180148628Y-177685771D01*
X181291485Y-176685771D02*
X181291485Y-178185771D01*
X181291485Y-176757200D02*
X181434342Y-176685771D01*
X181720057Y-176685771D01*
X181862914Y-176757200D01*
X181934342Y-176828628D01*
X182005771Y-176971485D01*
X182005771Y-177400057D01*
X181934342Y-177542914D01*
X181862914Y-177614342D01*
X181720057Y-177685771D01*
X181434342Y-177685771D01*
X181291485Y-177614342D01*
X182505771Y-176685771D02*
X182862914Y-177685771D01*
X183220057Y-176685771D02*
X182862914Y-177685771D01*
X182720057Y-178042914D01*
X182648628Y-178114342D01*
X182505771Y-178185771D01*
X183791485Y-177685771D02*
X183791485Y-176685771D01*
X183791485Y-176971485D02*
X183862914Y-176828628D01*
X183934342Y-176757200D01*
X184077200Y-176685771D01*
X184220057Y-176685771D01*
X184720057Y-177685771D02*
X184720057Y-176685771D01*
X184720057Y-176185771D02*
X184648628Y-176257200D01*
X184720057Y-176328628D01*
X184791485Y-176257200D01*
X184720057Y-176185771D01*
X184720057Y-176328628D01*
X186077200Y-176685771D02*
X186077200Y-177900057D01*
X186005771Y-178042914D01*
X185934342Y-178114342D01*
X185791485Y-178185771D01*
X185577200Y-178185771D01*
X185434342Y-178114342D01*
X186077200Y-177614342D02*
X185934342Y-177685771D01*
X185648628Y-177685771D01*
X185505771Y-177614342D01*
X185434342Y-177542914D01*
X185362914Y-177400057D01*
X185362914Y-176971485D01*
X185434342Y-176828628D01*
X185505771Y-176757200D01*
X185648628Y-176685771D01*
X185934342Y-176685771D01*
X186077200Y-176757200D01*
X186791485Y-177685771D02*
X186791485Y-176185771D01*
X187434342Y-177685771D02*
X187434342Y-176900057D01*
X187362914Y-176757200D01*
X187220057Y-176685771D01*
X187005771Y-176685771D01*
X186862914Y-176757200D01*
X186791485Y-176828628D01*
X187934342Y-176685771D02*
X188505771Y-176685771D01*
X188148628Y-176185771D02*
X188148628Y-177471485D01*
X188220057Y-177614342D01*
X188362914Y-177685771D01*
X188505771Y-177685771D01*
X190577200Y-178257200D02*
X190505771Y-178185771D01*
X190362914Y-177971485D01*
X190291485Y-177828628D01*
X190220057Y-177614342D01*
X190148628Y-177257200D01*
X190148628Y-176971485D01*
X190220057Y-176614342D01*
X190291485Y-176400057D01*
X190362914Y-176257200D01*
X190505771Y-176042914D01*
X190577200Y-175971485D01*
X191791485Y-177614342D02*
X191648628Y-177685771D01*
X191362914Y-177685771D01*
X191220057Y-177614342D01*
X191148628Y-177542914D01*
X191077200Y-177400057D01*
X191077200Y-176971485D01*
X191148628Y-176828628D01*
X191220057Y-176757200D01*
X191362914Y-176685771D01*
X191648628Y-176685771D01*
X191791485Y-176757200D01*
X192291485Y-178257200D02*
X192362914Y-178185771D01*
X192505771Y-177971485D01*
X192577200Y-177828628D01*
X192648628Y-177614342D01*
X192720057Y-177257200D01*
X192720057Y-176971485D01*
X192648628Y-176614342D01*
X192577200Y-176400057D01*
X192505771Y-176257200D01*
X192362914Y-176042914D01*
X192291485Y-175971485D01*
X194505771Y-176328628D02*
X194577200Y-176257200D01*
X194720057Y-176185771D01*
X195077200Y-176185771D01*
X195220057Y-176257200D01*
X195291485Y-176328628D01*
X195362914Y-176471485D01*
X195362914Y-176614342D01*
X195291485Y-176828628D01*
X194434342Y-177685771D01*
X195362914Y-177685771D01*
X196291485Y-176185771D02*
X196434342Y-176185771D01*
X196577200Y-176257200D01*
X196648628Y-176328628D01*
X196720057Y-176471485D01*
X196791485Y-176757200D01*
X196791485Y-177114342D01*
X196720057Y-177400057D01*
X196648628Y-177542914D01*
X196577200Y-177614342D01*
X196434342Y-177685771D01*
X196291485Y-177685771D01*
X196148628Y-177614342D01*
X196077200Y-177542914D01*
X196005771Y-177400057D01*
X195934342Y-177114342D01*
X195934342Y-176757200D01*
X196005771Y-176471485D01*
X196077200Y-176328628D01*
X196148628Y-176257200D01*
X196291485Y-176185771D01*
X197362914Y-176328628D02*
X197434342Y-176257200D01*
X197577200Y-176185771D01*
X197934342Y-176185771D01*
X198077200Y-176257200D01*
X198148628Y-176328628D01*
X198220057Y-176471485D01*
X198220057Y-176614342D01*
X198148628Y-176828628D01*
X197291485Y-177685771D01*
X198220057Y-177685771D01*
X198791485Y-176328628D02*
X198862914Y-176257200D01*
X199005771Y-176185771D01*
X199362914Y-176185771D01*
X199505771Y-176257200D01*
X199577200Y-176328628D01*
X199648628Y-176471485D01*
X199648628Y-176614342D01*
X199577200Y-176828628D01*
X198720057Y-177685771D01*
X199648628Y-177685771D01*
D10*
D11*
X178434342Y-174685771D02*
X178434342Y-173185771D01*
X178791485Y-173185771D01*
X179005771Y-173257200D01*
X179148628Y-173400057D01*
X179220057Y-173542914D01*
X179291485Y-173828628D01*
X179291485Y-174042914D01*
X179220057Y-174328628D01*
X179148628Y-174471485D01*
X179005771Y-174614342D01*
X178791485Y-174685771D01*
X178434342Y-174685771D01*
X180505771Y-174614342D02*
X180362914Y-174685771D01*
X180077200Y-174685771D01*
X179934342Y-174614342D01*
X179862914Y-174471485D01*
X179862914Y-173900057D01*
X179934342Y-173757200D01*
X180077200Y-173685771D01*
X180362914Y-173685771D01*
X180505771Y-173757200D01*
X180577200Y-173900057D01*
X180577200Y-174042914D01*
X179862914Y-174185771D01*
X181148628Y-174614342D02*
X181291485Y-174685771D01*
X181577200Y-174685771D01*
X181720057Y-174614342D01*
X181791485Y-174471485D01*
X181791485Y-174400057D01*
X181720057Y-174257200D01*
X181577200Y-174185771D01*
X181362914Y-174185771D01*
X181220057Y-174114342D01*
X181148628Y-173971485D01*
X181148628Y-173900057D01*
X181220057Y-173757200D01*
X181362914Y-173685771D01*
X181577200Y-173685771D01*
X181720057Y-173757200D01*
X182434342Y-174685771D02*
X182434342Y-173685771D01*
X182434342Y-173185771D02*
X182362914Y-173257200D01*
X182434342Y-173328628D01*
X182505771Y-173257200D01*
X182434342Y-173185771D01*
X182434342Y-173328628D01*
X183791485Y-173685771D02*
X183791485Y-174900057D01*
X183720057Y-175042914D01*
X183648628Y-175114342D01*
X183505771Y-175185771D01*
X183291485Y-175185771D01*
X183148628Y-175114342D01*
X183791485Y-174614342D02*
X183648628Y-174685771D01*
X183362914Y-174685771D01*
X183220057Y-174614342D01*
X183148628Y-174542914D01*
X183077200Y-174400057D01*
X183077200Y-173971485D01*
X183148628Y-173828628D01*
X183220057Y-173757200D01*
X183362914Y-173685771D01*
X183648628Y-173685771D01*
X183791485Y-173757200D01*
X184505771Y-173685771D02*
X184505771Y-174685771D01*
X184505771Y-173828628D02*
X184577200Y-173757200D01*
X184720057Y-173685771D01*
X184934342Y-173685771D01*
X185077200Y-173757200D01*
X185148628Y-173900057D01*
X185148628Y-174685771D01*
X186434342Y-174614342D02*
X186291485Y-174685771D01*
X186005771Y-174685771D01*
X185862914Y-174614342D01*
X185791485Y-174471485D01*
X185791485Y-173900057D01*
X185862914Y-173757200D01*
X186005771Y-173685771D01*
X186291485Y-173685771D01*
X186434342Y-173757200D01*
X186505771Y-173900057D01*
X186505771Y-174042914D01*
X185791485Y-174185771D01*
X187148628Y-174685771D02*
X187148628Y-173685771D01*
X187148628Y-173971485D02*
X187220057Y-173828628D01*
X187291485Y-173757200D01*
X187434342Y-173685771D01*
X187577200Y-173685771D01*
X188077200Y-174542914D02*
X188148628Y-174614342D01*
X188077200Y-174685771D01*
X188005771Y-174614342D01*
X188077200Y-174542914D01*
X188077200Y-174685771D01*
X188077200Y-173757200D02*
X188148628Y-173828628D01*
X188077200Y-173900057D01*
X188005771Y-173828628D01*
X188077200Y-173757200D01*
X188077200Y-173900057D01*
X189791485Y-173185771D02*
X190148628Y-174685771D01*
X190434342Y-173614342D01*
X190720057Y-174685771D01*
X191077200Y-173185771D01*
X191577200Y-174614342D02*
X191791485Y-174685771D01*
X192148628Y-174685771D01*
X192291485Y-174614342D01*
X192362914Y-174542914D01*
X192434342Y-174400057D01*
X192434342Y-174257200D01*
X192362914Y-174114342D01*
X192291485Y-174042914D01*
X192148628Y-173971485D01*
X191862914Y-173900057D01*
X191720057Y-173828628D01*
X191648628Y-173757200D01*
X191577200Y-173614342D01*
X191577200Y-173471485D01*
X191648628Y-173328628D01*
X191720057Y-173257200D01*
X191862914Y-173185771D01*
X192220057Y-173185771D01*
X192434342Y-173257200D01*
X193005771Y-174257200D02*
X193720057Y-174257200D01*
X192862914Y-174685771D02*
X193362914Y-173185771D01*
X193862914Y-174685771D01*
D10*
D11*
X179291485Y-171685771D02*
X178791485Y-170971485D01*
X178434342Y-171685771D02*
X178434342Y-170185771D01*
X179005771Y-170185771D01*
X179148628Y-170257200D01*
X179220057Y-170328628D01*
X179291485Y-170471485D01*
X179291485Y-170685771D01*
X179220057Y-170828628D01*
X179148628Y-170900057D01*
X179005771Y-170971485D01*
X178434342Y-170971485D01*
X180505771Y-171614342D02*
X180362914Y-171685771D01*
X180077200Y-171685771D01*
X179934342Y-171614342D01*
X179862914Y-171471485D01*
X179862914Y-170900057D01*
X179934342Y-170757200D01*
X180077200Y-170685771D01*
X180362914Y-170685771D01*
X180505771Y-170757200D01*
X180577200Y-170900057D01*
X180577200Y-171042914D01*
X179862914Y-171185771D01*
X181077200Y-170685771D02*
X181434342Y-171685771D01*
X181791485Y-170685771D01*
X182362914Y-171685771D02*
X182362914Y-170685771D01*
X182362914Y-170185771D02*
X182291485Y-170257200D01*
X182362914Y-170328628D01*
X182434342Y-170257200D01*
X182362914Y-170185771D01*
X182362914Y-170328628D01*
X183648628Y-171614342D02*
X183505771Y-171685771D01*
X183220057Y-171685771D01*
X183077200Y-171614342D01*
X183005771Y-171471485D01*
X183005771Y-170900057D01*
X183077200Y-170757200D01*
X183220057Y-170685771D01*
X183505771Y-170685771D01*
X183648628Y-170757200D01*
X183720057Y-170900057D01*
X183720057Y-171042914D01*
X183005771Y-171185771D01*
X184220057Y-170685771D02*
X184505771Y-171685771D01*
X184791485Y-170971485D01*
X185077200Y-171685771D01*
X185362914Y-170685771D01*
X186505771Y-171614342D02*
X186362914Y-171685771D01*
X186077200Y-171685771D01*
X185934342Y-171614342D01*
X185862914Y-171471485D01*
X185862914Y-170900057D01*
X185934342Y-170757200D01*
X186077200Y-170685771D01*
X186362914Y-170685771D01*
X186505771Y-170757200D01*
X186577200Y-170900057D01*
X186577200Y-171042914D01*
X185862914Y-171185771D01*
X187220057Y-171685771D02*
X187220057Y-170685771D01*
X187220057Y-170971485D02*
X187291485Y-170828628D01*
X187362914Y-170757200D01*
X187505771Y-170685771D01*
X187648628Y-170685771D01*
X188148628Y-171542914D02*
X188220057Y-171614342D01*
X188148628Y-171685771D01*
X188077200Y-171614342D01*
X188148628Y-171542914D01*
X188148628Y-171685771D01*
X188148628Y-170757200D02*
X188220057Y-170828628D01*
X188148628Y-170900057D01*
X188077200Y-170828628D01*
X188148628Y-170757200D01*
X188148628Y-170900057D01*
X189862914Y-170185771D02*
X190220057Y-171685771D01*
X190505771Y-170614342D01*
X190791485Y-171685771D01*
X191148628Y-170185771D01*
X191648628Y-171614342D02*
X191862914Y-171685771D01*
X192220057Y-171685771D01*
X192362914Y-171614342D01*
X192434342Y-171542914D01*
X192505771Y-171400057D01*
X192505771Y-171257200D01*
X192434342Y-171114342D01*
X192362914Y-171042914D01*
X192220057Y-170971485D01*
X191934342Y-170900057D01*
X191791485Y-170828628D01*
X191720057Y-170757200D01*
X191648628Y-170614342D01*
X191648628Y-170471485D01*
X191720057Y-170328628D01*
X191791485Y-170257200D01*
X191934342Y-170185771D01*
X192291485Y-170185771D01*
X192505771Y-170257200D01*
X193077200Y-171257200D02*
X193791485Y-171257200D01*
X192934342Y-171685771D02*
X193434342Y-170185771D01*
X193934342Y-171685771D01*
D10*
D11*
X178362914Y-168257200D02*
X179077200Y-168257200D01*
X178220057Y-168685771D02*
X178720057Y-167185771D01*
X179220057Y-168685771D01*
X179720057Y-167685771D02*
X179720057Y-169185771D01*
X179720057Y-167757200D02*
X179862914Y-167685771D01*
X180148628Y-167685771D01*
X180291485Y-167757200D01*
X180362914Y-167828628D01*
X180434342Y-167971485D01*
X180434342Y-168400057D01*
X180362914Y-168542914D01*
X180291485Y-168614342D01*
X180148628Y-168685771D01*
X179862914Y-168685771D01*
X179720057Y-168614342D01*
X181077200Y-167685771D02*
X181077200Y-169185771D01*
X181077200Y-167757200D02*
X181220057Y-167685771D01*
X181505771Y-167685771D01*
X181648628Y-167757200D01*
X181720057Y-167828628D01*
X181791485Y-167971485D01*
X181791485Y-168400057D01*
X181720057Y-168542914D01*
X181648628Y-168614342D01*
X181505771Y-168685771D01*
X181220057Y-168685771D01*
X181077200Y-168614342D01*
X182434342Y-168685771D02*
X182434342Y-167685771D01*
X182434342Y-167971485D02*
X182505771Y-167828628D01*
X182577200Y-167757200D01*
X182720057Y-167685771D01*
X182862914Y-167685771D01*
X183577200Y-168685771D02*
X183434342Y-168614342D01*
X183362914Y-168542914D01*
X183291485Y-168400057D01*
X183291485Y-167971485D01*
X183362914Y-167828628D01*
X183434342Y-167757200D01*
X183577200Y-167685771D01*
X183791485Y-167685771D01*
X183934342Y-167757200D01*
X184005771Y-167828628D01*
X184077200Y-167971485D01*
X184077200Y-168400057D01*
X184005771Y-168542914D01*
X183934342Y-168614342D01*
X183791485Y-168685771D01*
X183577200Y-168685771D01*
X184577200Y-167685771D02*
X184934342Y-168685771D01*
X185291485Y-167685771D01*
X186434342Y-168614342D02*
X186291485Y-168685771D01*
X186005771Y-168685771D01*
X185862914Y-168614342D01*
X185791485Y-168471485D01*
X185791485Y-167900057D01*
X185862914Y-167757200D01*
X186005771Y-167685771D01*
X186291485Y-167685771D01*
X186434342Y-167757200D01*
X186505771Y-167900057D01*
X186505771Y-168042914D01*
X185791485Y-168185771D01*
X187791485Y-168685771D02*
X187791485Y-167185771D01*
X187791485Y-168614342D02*
X187648628Y-168685771D01*
X187362914Y-168685771D01*
X187220057Y-168614342D01*
X187148628Y-168542914D01*
X187077200Y-168400057D01*
X187077200Y-167971485D01*
X187148628Y-167828628D01*
X187220057Y-167757200D01*
X187362914Y-167685771D01*
X187648628Y-167685771D01*
X187791485Y-167757200D01*
X188505771Y-168542914D02*
X188577200Y-168614342D01*
X188505771Y-168685771D01*
X188434342Y-168614342D01*
X188505771Y-168542914D01*
X188505771Y-168685771D01*
X188505771Y-167757200D02*
X188577200Y-167828628D01*
X188505771Y-167900057D01*
X188434342Y-167828628D01*
X188505771Y-167757200D01*
X188505771Y-167900057D01*
X190220057Y-167185771D02*
X190577200Y-168685771D01*
X190862914Y-167614342D01*
X191148628Y-168685771D01*
X191505771Y-167185771D01*
X192005771Y-168614342D02*
X192220057Y-168685771D01*
X192577200Y-168685771D01*
X192720057Y-168614342D01*
X192791485Y-168542914D01*
X192862914Y-168400057D01*
X192862914Y-168257200D01*
X192791485Y-168114342D01*
X192720057Y-168042914D01*
X192577200Y-167971485D01*
X192291485Y-167900057D01*
X192148628Y-167828628D01*
X192077200Y-167757200D01*
X192005771Y-167614342D01*
X192005771Y-167471485D01*
X192077200Y-167328628D01*
X192148628Y-167257200D01*
X192291485Y-167185771D01*
X192648628Y-167185771D01*
X192862914Y-167257200D01*
X193434342Y-168257200D02*
X194148628Y-168257200D01*
X193291485Y-168685771D02*
X193791485Y-167185771D01*
X194291485Y-168685771D01*
D10*
D11*
X197002200Y-191507200D02*
X197002200Y-194507200D01*
D10*
D11*
X261002200Y-191507200D02*
X261002200Y-198007200D01*
D14*
%TO.P,J6,1*%
%TO.N,Net-(J6-Pad1)*%
X145034000Y-74930000D03*
%TO.P,J6,2*%
%TO.N,Net-(J6-Pad2)*%
X146284000Y-74930000D03*
%TO.P,J6,3*%
%TO.N,Net-(J6-Pad3)*%
X147534000Y-74930000D03*
%TO.P,J6,4*%
%TO.N,Net-(J6-Pad4)*%
X148784000Y-74930000D03*
%TO.P,J6,5*%
%TO.N,Net-(J6-Pad5)*%
X150034000Y-74930000D03*
%TO.P,J6,6*%
%TO.N,Net-(J6-Pad6)*%
X151284000Y-74930000D03*
%TO.P,J6,7*%
%TO.N,~ALERT*%
X152534000Y-74930000D03*
%TO.P,J6,8*%
%TO.N,Net-(J6-Pad8)*%
X153784000Y-74930000D03*
%TO.P,J6,9*%
%TO.N,Net-(J6-Pad9)*%
X155034000Y-74930000D03*
%TO.P,J6,10*%
%TO.N,~ALERT*%
X156284000Y-74930000D03*
%TO.P,J6,11*%
%TO.N,Net-(J6-Pad11)*%
X157534000Y-74930000D03*
%TO.P,J6,12*%
%TO.N,Net-(J6-Pad12)*%
X158784000Y-74930000D03*
%TO.P,J6,13*%
%TO.N,Net-(J6-Pad13)*%
X160034000Y-74930000D03*
%TO.P,J6,14*%
%TO.N,+3V3*%
X145034000Y-73680000D03*
%TO.P,J6,15*%
%TO.N,SDA*%
X146284000Y-73680000D03*
%TO.P,J6,16*%
%TO.N,Net-(J6-Pad16)*%
X147534000Y-73680000D03*
%TO.P,J6,17*%
%TO.N,Net-(J6-Pad17)*%
X148784000Y-73680000D03*
%TO.P,J6,18*%
%TO.N,Net-(J6-Pad18)*%
X150034000Y-73680000D03*
%TO.P,J6,19*%
%TO.N,GND*%
X151284000Y-73680000D03*
%TO.P,J6,20*%
%TO.N,Net-(J6-Pad20)*%
X152534000Y-73680000D03*
%TO.P,J6,21*%
%TO.N,Net-(J6-Pad21)*%
X153784000Y-73680000D03*
%TO.P,J6,22*%
%TO.N,Net-(J6-Pad22)*%
X155034000Y-73680000D03*
%TO.P,J6,23*%
%TO.N,SCL*%
X156284000Y-73680000D03*
%TO.P,J6,24*%
%TO.N,Net-(J6-Pad24)*%
X157534000Y-73680000D03*
%TO.P,J6,25*%
%TO.N,~ALERT*%
X158784000Y-73680000D03*
%TO.P,J6,26*%
%TO.N,Net-(J6-Pad26)*%
X160034000Y-73680000D03*
%TD*%
D15*
%TO.P,J5,1*%
%TO.N,Net-(J5-Pad1)*%
X181483000Y-71018400D03*
%TD*%
D16*
%TO.P,J2,10*%
%TO.N,GND*%
X177136000Y-106055500D03*
%TO.P,J2,9*%
%TO.N,Net-(J2-Pad9)*%
X177136000Y-108595500D03*
%TO.P,J2,8*%
%TO.N,Net-(J2-Pad8)*%
X177136000Y-111135500D03*
%TO.P,J2,7*%
%TO.N,Net-(J2-Pad7)*%
X177136000Y-113675500D03*
%TO.P,J2,6*%
%TO.N,Net-(J2-Pad6)*%
X177136000Y-116215500D03*
%TO.P,J2,5*%
%TO.N,Net-(J2-Pad5)*%
X177136000Y-118755500D03*
%TO.P,J2,4*%
%TO.N,Net-(J2-Pad4)*%
X177136000Y-121295500D03*
%TO.P,J2,3*%
%TO.N,Net-(J2-Pad3)*%
X177136000Y-123835500D03*
%TO.P,J2,2*%
%TO.N,Net-(J2-Pad2)*%
X177136000Y-126375500D03*
D15*
%TO.P,J2,1*%
%TO.N,Net-(J2-Pad1)*%
X177136000Y-128915500D03*
%TD*%
%TO.P,J4,1*%
%TO.N,Net-(J4-Pad1)*%
X171577000Y-71120000D03*
%TD*%
D16*
%TO.P,J1,10*%
%TO.N,SDA*%
X130636000Y-128915500D03*
%TO.P,J1,9*%
%TO.N,SCL*%
X130636000Y-126375500D03*
%TO.P,J1,8*%
%TO.N,Net-(J1-Pad8)*%
X130636000Y-123835500D03*
%TO.P,J1,7*%
%TO.N,Net-(J1-Pad7)*%
X130636000Y-121295500D03*
%TO.P,J1,6*%
%TO.N,Net-(J1-Pad6)*%
X130636000Y-118755500D03*
%TO.P,J1,5*%
%TO.N,Net-(J1-Pad5)*%
X130636000Y-116215500D03*
%TO.P,J1,4*%
%TO.N,Net-(J1-Pad4)*%
X130636000Y-113675500D03*
%TO.P,J1,3*%
%TO.N,Net-(J1-Pad3)*%
X130636000Y-111135500D03*
%TO.P,J1,2*%
%TO.N,Net-(J1-Pad2)*%
X130636000Y-108595500D03*
D15*
%TO.P,J1,1*%
%TO.N,Net-(FB1-Pad2)*%
X130636000Y-106055500D03*
%TD*%
D17*
%TO.N,Net-(J1-Pad2)*%
X129603500Y-75565000D03*
%TO.N,GND*%
X160718500Y-114554000D03*
X122618500Y-86106000D03*
X125412500Y-86106000D03*
X128206500Y-86106000D03*
X131000500Y-86106000D03*
X133794500Y-86169500D03*
X136588500Y-86169500D03*
X139382500Y-86169500D03*
X142176500Y-86169500D03*
X144970500Y-86169500D03*
X147764500Y-86169500D03*
X150558500Y-86169500D03*
X153352500Y-86169500D03*
X156146500Y-86169500D03*
X158940500Y-86169500D03*
X161734500Y-86169500D03*
X164528500Y-86169500D03*
X167322500Y-86169500D03*
X170116500Y-86169500D03*
X172910500Y-86169500D03*
X175704500Y-86169500D03*
X124904500Y-72199500D03*
X144208500Y-115824000D03*
X148907500Y-99758500D03*
X152209500Y-100330000D03*
X167259000Y-97536000D03*
X173037500Y-77914500D03*
X169291000Y-75184000D03*
X183896000Y-75184000D03*
X182245000Y-78867000D03*
X180594000Y-84709000D03*
X177355500Y-89598500D03*
X175577500Y-89535000D03*
X172783500Y-89535000D03*
X169989500Y-89535000D03*
X167195500Y-89535000D03*
X164401500Y-89535000D03*
X161607500Y-89535000D03*
X158813500Y-89471500D03*
X156019500Y-89535000D03*
X153225500Y-89535000D03*
X150431500Y-89535000D03*
X147637500Y-89535000D03*
X144843500Y-89535000D03*
X142303500Y-89535000D03*
X139255500Y-89535000D03*
X136461500Y-89471500D03*
X133667500Y-89471500D03*
X130873500Y-89471500D03*
X128079500Y-89471500D03*
X125285500Y-89471500D03*
X122364500Y-89471500D03*
X150685500Y-112141000D03*
X152908000Y-114681000D03*
X153098500Y-117030500D03*
X150939500Y-72009000D03*
%TO.N,+3V3*%
X131953000Y-78105000D03*
%TO.N,Net-(R5-Pad2)*%
X174434500Y-80010000D03*
X174434500Y-74993500D03*
%TO.N,RESET_PANEL_SWITCH*%
X157861000Y-103505000D03*
X153162000Y-109982000D03*
%TO.N,10-19_CLOCK*%
X159067500Y-99758500D03*
X154178000Y-109283500D03*
%TO.N,ENABLE_PANEL_SWITCH*%
X150431500Y-114998500D03*
X153860500Y-114808000D03*
%TO.N,ENABLE_TEST_SOURCE*%
X178587400Y-90678000D03*
X149860000Y-117983000D03*
%TO.N,~ALERT*%
X170751500Y-128016000D03*
%TO.N,Net-(J6-Pad1)*%
X172021500Y-72834500D03*
%TO.N,REVERSE_BIAS*%
X171704000Y-125412500D03*
X179705000Y-78994000D03*
%TO.N,Net-(U10-Pad4)*%
X125984000Y-81915000D03*
X172847000Y-81280000D03*
X170053000Y-81280000D03*
X167259000Y-81280000D03*
X164465000Y-81280000D03*
X161671000Y-81280000D03*
X158877000Y-81280000D03*
X156083000Y-81280000D03*
X153289000Y-81280000D03*
X150622000Y-81280000D03*
X147701000Y-81280000D03*
X144907000Y-81280000D03*
X142240000Y-81305400D03*
X139319000Y-81280000D03*
X136525000Y-81280000D03*
X133858000Y-81280000D03*
X132207000Y-81280000D03*
X128778000Y-81280000D03*
X181610000Y-74168000D03*
%TD*%
D18*
%TO.N,Net-(J1-Pad2)*%
X130636000Y-108595500D02*
X129476500Y-107436000D01*
X129476500Y-107436000D02*
X129476500Y-98806000D01*
X129476500Y-98806000D02*
X119570500Y-88900000D01*
X119570500Y-88900000D02*
X119570500Y-81851500D01*
X119570500Y-81851500D02*
X119570500Y-76644500D01*
X120650000Y-75565000D02*
X129603500Y-75565000D01*
X119570500Y-76644500D02*
X120650000Y-75565000D01*
D19*
%TO.N,+3V3*%
X144904599Y-73550599D02*
X137454809Y-73550599D01*
X145034000Y-73680000D02*
X144904599Y-73550599D01*
X132900408Y-78105000D02*
X131953000Y-78105000D01*
X137454809Y-73550599D02*
X132900408Y-78105000D01*
%TO.N,Net-(R5-Pad2)*%
X174434500Y-80010000D02*
X174434500Y-74993500D01*
D18*
%TO.N,RESET_PANEL_SWITCH*%
X157861000Y-103505000D02*
X157861000Y-108458000D01*
X157861000Y-108458000D02*
X157861000Y-108966000D01*
X156845000Y-109982000D02*
X153162000Y-109982000D01*
X157861000Y-108966000D02*
X156845000Y-109982000D01*
%TO.N,10-19_CLOCK*%
X159067500Y-99758500D02*
X156591000Y-99758500D01*
X154178000Y-102171500D02*
X154178000Y-109283500D01*
X156591000Y-99758500D02*
X154178000Y-102171500D01*
%TO.N,ENABLE_PANEL_SWITCH*%
X153416001Y-115252499D02*
X153860500Y-114808000D01*
X150685499Y-115252499D02*
X153416001Y-115252499D01*
X150431500Y-114998500D02*
X150685499Y-115252499D01*
%TO.N,ENABLE_TEST_SOURCE*%
X170446690Y-114935000D02*
X170446690Y-100888810D01*
X178587400Y-92748100D02*
X178587400Y-90678000D01*
X170446690Y-100888810D02*
X178587400Y-92748100D01*
X167398690Y-117983000D02*
X169297345Y-116084345D01*
X149860000Y-117983000D02*
X167398690Y-117983000D01*
X169297345Y-116084345D02*
X170446690Y-114935000D01*
X169240190Y-116141500D02*
X169297345Y-116084345D01*
%TO.N,SDA*%
X132019411Y-100459911D02*
X132019411Y-127532089D01*
X120180120Y-88620620D02*
X132019411Y-100459911D01*
X120180120Y-78878946D02*
X120180120Y-88620620D01*
X121538256Y-77520810D02*
X120180120Y-78878946D01*
X132981691Y-77520809D02*
X121538256Y-77520810D01*
X137601101Y-72901399D02*
X132981691Y-77520809D01*
X132019411Y-127532089D02*
X130636000Y-128915500D01*
X145505399Y-72901399D02*
X137601101Y-72901399D01*
X146284000Y-73680000D02*
X145505399Y-72901399D01*
%TO.N,SCL*%
X137474845Y-72596589D02*
X155200589Y-72596589D01*
X155200589Y-72596589D02*
X156284000Y-73680000D01*
X119875310Y-78752690D02*
X121412000Y-77216000D01*
X119875310Y-88760310D02*
X119875310Y-78752690D01*
X132855434Y-77216000D02*
X137474845Y-72596589D01*
X131714601Y-100599601D02*
X119875310Y-88760310D01*
X131714601Y-125296899D02*
X131714601Y-100599601D01*
X121412000Y-77216000D02*
X132855434Y-77216000D01*
X130636000Y-126375500D02*
X131714601Y-125296899D01*
%TO.N,~ALERT*%
X170751500Y-128016000D02*
X170751500Y-101028500D01*
X170751500Y-101028500D02*
X179070000Y-92710000D01*
X179070000Y-92710000D02*
X179070000Y-78613000D01*
X179070000Y-78613000D02*
X182372000Y-75311000D01*
X182372000Y-75311000D02*
X182372000Y-73406000D01*
X160265399Y-72198601D02*
X158784000Y-73680000D01*
X182372000Y-73406000D02*
X181164601Y-72198601D01*
X155505399Y-75708601D02*
X156284000Y-74930000D01*
X153312601Y-75708601D02*
X155505399Y-75708601D01*
X152534000Y-74930000D02*
X153312601Y-75708601D01*
X157062601Y-75708601D02*
X160407729Y-75708601D01*
X161225601Y-74890729D02*
X161225601Y-72198601D01*
X156284000Y-74930000D02*
X157062601Y-75708601D01*
X161225601Y-72198601D02*
X160265399Y-72198601D01*
X160407729Y-75708601D02*
X161225601Y-74890729D01*
X181164601Y-72198601D02*
X161225601Y-72198601D01*
D19*
%TO.N,Net-(J6-Pad1)*%
X145034000Y-74930000D02*
X146558000Y-76454000D01*
X146558000Y-76454000D02*
X161163000Y-76454000D01*
X161163000Y-76454000D02*
X162242500Y-75374500D01*
X162242500Y-75374500D02*
X162242500Y-73977500D01*
X163385500Y-72834500D02*
X172021500Y-72834500D01*
X162242500Y-73977500D02*
X163385500Y-72834500D01*
D18*
%TO.N,REVERSE_BIAS*%
X171704000Y-125412500D02*
X171704000Y-100520500D01*
X179705000Y-92519500D02*
X179705000Y-78994000D01*
X171704000Y-100520500D02*
X179705000Y-92519500D01*
D19*
%TO.N,Net-(U10-Pad4)*%
X125984000Y-81915000D02*
X126619000Y-81280000D01*
X170053000Y-81280000D02*
X172847000Y-81280000D01*
X167259000Y-81280000D02*
X170053000Y-81280000D01*
X164465000Y-81280000D02*
X167259000Y-81280000D01*
X161671000Y-81280000D02*
X164465000Y-81280000D01*
X158877000Y-81280000D02*
X161671000Y-81280000D01*
X156083000Y-81280000D02*
X158877000Y-81280000D01*
X153289000Y-81280000D02*
X156083000Y-81280000D01*
X150622000Y-81280000D02*
X153289000Y-81280000D01*
X147701000Y-81280000D02*
X150622000Y-81280000D01*
X144907000Y-81280000D02*
X147701000Y-81280000D01*
X139319000Y-81280000D02*
X144907000Y-81280000D01*
X136525000Y-81280000D02*
X139319000Y-81280000D01*
X133858000Y-81280000D02*
X136525000Y-81280000D01*
X132207000Y-81280000D02*
X133858000Y-81280000D01*
X128778000Y-81280000D02*
X132207000Y-81280000D01*
X126619000Y-81280000D02*
X128778000Y-81280000D01*
X177863500Y-74168000D02*
X181610000Y-74168000D01*
X175895000Y-76136500D02*
X177863500Y-74168000D01*
X175895000Y-80200500D02*
X175895000Y-76136500D01*
X174815500Y-81280000D02*
X175895000Y-80200500D01*
X172847000Y-81280000D02*
X174815500Y-81280000D01*
%TD*%
%TO.N,GND*%
X188316000Y-88922329D02*
X178670020Y-98568311D01*
X178654527Y-98581026D01*
X178603791Y-98642847D01*
X178566092Y-98713378D01*
X178566091Y-98713379D01*
X178542875Y-98789911D01*
X178535037Y-98869500D01*
X178537001Y-98889443D01*
X178537001Y-105565168D01*
X178532825Y-105551401D01*
X178407641Y-105288580D01*
X178233588Y-105055231D01*
X178017355Y-104860322D01*
X177767252Y-104711343D01*
X177492891Y-104614019D01*
X177263000Y-104734686D01*
X177263000Y-105928500D01*
X177283000Y-105928500D01*
X177283000Y-106182500D01*
X177263000Y-106182500D01*
X177263000Y-106202500D01*
X177009000Y-106202500D01*
X177009000Y-106182500D01*
X175815845Y-106182500D01*
X175694524Y-106412390D01*
X175739175Y-106559599D01*
X175864359Y-106822420D01*
X176038412Y-107055769D01*
X176254645Y-107250678D01*
X176504748Y-107399657D01*
X176667168Y-107457272D01*
X176552903Y-107504602D01*
X176351283Y-107639320D01*
X176179820Y-107810783D01*
X176045102Y-108012403D01*
X175952307Y-108236431D01*
X175905000Y-108474257D01*
X175905000Y-108716743D01*
X175952307Y-108954569D01*
X176045102Y-109178597D01*
X176179820Y-109380217D01*
X176351283Y-109551680D01*
X176552903Y-109686398D01*
X176776931Y-109779193D01*
X177014757Y-109826500D01*
X177257243Y-109826500D01*
X177495069Y-109779193D01*
X177719097Y-109686398D01*
X177920717Y-109551680D01*
X178092180Y-109380217D01*
X178226898Y-109178597D01*
X178319693Y-108954569D01*
X178367000Y-108716743D01*
X178367000Y-108474257D01*
X178319693Y-108236431D01*
X178226898Y-108012403D01*
X178092180Y-107810783D01*
X177920717Y-107639320D01*
X177719097Y-107504602D01*
X177604832Y-107457272D01*
X177767252Y-107399657D01*
X178017355Y-107250678D01*
X178233588Y-107055769D01*
X178407641Y-106822420D01*
X178532825Y-106559599D01*
X178537001Y-106545832D01*
X178537000Y-130277000D01*
X129247500Y-130277000D01*
X129247500Y-107853577D01*
X129504455Y-108110533D01*
X129452307Y-108236431D01*
X129405000Y-108474257D01*
X129405000Y-108716743D01*
X129452307Y-108954569D01*
X129545102Y-109178597D01*
X129679820Y-109380217D01*
X129851283Y-109551680D01*
X130052903Y-109686398D01*
X130276931Y-109779193D01*
X130514757Y-109826500D01*
X130757243Y-109826500D01*
X130995069Y-109779193D01*
X131219097Y-109686398D01*
X131257402Y-109660804D01*
X131257402Y-110070196D01*
X131219097Y-110044602D01*
X130995069Y-109951807D01*
X130757243Y-109904500D01*
X130514757Y-109904500D01*
X130276931Y-109951807D01*
X130052903Y-110044602D01*
X129851283Y-110179320D01*
X129679820Y-110350783D01*
X129545102Y-110552403D01*
X129452307Y-110776431D01*
X129405000Y-111014257D01*
X129405000Y-111256743D01*
X129452307Y-111494569D01*
X129545102Y-111718597D01*
X129679820Y-111920217D01*
X129851283Y-112091680D01*
X130052903Y-112226398D01*
X130276931Y-112319193D01*
X130514757Y-112366500D01*
X130757243Y-112366500D01*
X130995069Y-112319193D01*
X131219097Y-112226398D01*
X131257402Y-112200804D01*
X131257402Y-112610196D01*
X131219097Y-112584602D01*
X130995069Y-112491807D01*
X130757243Y-112444500D01*
X130514757Y-112444500D01*
X130276931Y-112491807D01*
X130052903Y-112584602D01*
X129851283Y-112719320D01*
X129679820Y-112890783D01*
X129545102Y-113092403D01*
X129452307Y-113316431D01*
X129405000Y-113554257D01*
X129405000Y-113796743D01*
X129452307Y-114034569D01*
X129545102Y-114258597D01*
X129679820Y-114460217D01*
X129851283Y-114631680D01*
X130052903Y-114766398D01*
X130276931Y-114859193D01*
X130514757Y-114906500D01*
X130757243Y-114906500D01*
X130995069Y-114859193D01*
X131219097Y-114766398D01*
X131257401Y-114740804D01*
X131257401Y-115150196D01*
X131219097Y-115124602D01*
X130995069Y-115031807D01*
X130757243Y-114984500D01*
X130514757Y-114984500D01*
X130276931Y-115031807D01*
X130052903Y-115124602D01*
X129851283Y-115259320D01*
X129679820Y-115430783D01*
X129545102Y-115632403D01*
X129452307Y-115856431D01*
X129405000Y-116094257D01*
X129405000Y-116336743D01*
X129452307Y-116574569D01*
X129545102Y-116798597D01*
X129679820Y-117000217D01*
X129851283Y-117171680D01*
X130052903Y-117306398D01*
X130276931Y-117399193D01*
X130514757Y-117446500D01*
X130757243Y-117446500D01*
X130995069Y-117399193D01*
X131219097Y-117306398D01*
X131257401Y-117280804D01*
X131257401Y-117690196D01*
X131219097Y-117664602D01*
X130995069Y-117571807D01*
X130757243Y-117524500D01*
X130514757Y-117524500D01*
X130276931Y-117571807D01*
X130052903Y-117664602D01*
X129851283Y-117799320D01*
X129679820Y-117970783D01*
X129545102Y-118172403D01*
X129452307Y-118396431D01*
X129405000Y-118634257D01*
X129405000Y-118876743D01*
X129452307Y-119114569D01*
X129545102Y-119338597D01*
X129679820Y-119540217D01*
X129851283Y-119711680D01*
X130052903Y-119846398D01*
X130276931Y-119939193D01*
X130514757Y-119986500D01*
X130757243Y-119986500D01*
X130995069Y-119939193D01*
X131219097Y-119846398D01*
X131257401Y-119820804D01*
X131257401Y-120230196D01*
X131219097Y-120204602D01*
X130995069Y-120111807D01*
X130757243Y-120064500D01*
X130514757Y-120064500D01*
X130276931Y-120111807D01*
X130052903Y-120204602D01*
X129851283Y-120339320D01*
X129679820Y-120510783D01*
X129545102Y-120712403D01*
X129452307Y-120936431D01*
X129405000Y-121174257D01*
X129405000Y-121416743D01*
X129452307Y-121654569D01*
X129545102Y-121878597D01*
X129679820Y-122080217D01*
X129851283Y-122251680D01*
X130052903Y-122386398D01*
X130276931Y-122479193D01*
X130514757Y-122526500D01*
X130757243Y-122526500D01*
X130995069Y-122479193D01*
X131219097Y-122386398D01*
X131257401Y-122360804D01*
X131257401Y-122770196D01*
X131219097Y-122744602D01*
X130995069Y-122651807D01*
X130757243Y-122604500D01*
X130514757Y-122604500D01*
X130276931Y-122651807D01*
X130052903Y-122744602D01*
X129851283Y-122879320D01*
X129679820Y-123050783D01*
X129545102Y-123252403D01*
X129452307Y-123476431D01*
X129405000Y-123714257D01*
X129405000Y-123956743D01*
X129452307Y-124194569D01*
X129545102Y-124418597D01*
X129679820Y-124620217D01*
X129851283Y-124791680D01*
X130052903Y-124926398D01*
X130276931Y-125019193D01*
X130514757Y-125066500D01*
X130757243Y-125066500D01*
X130995069Y-125019193D01*
X131219097Y-124926398D01*
X131257401Y-124900804D01*
X131257401Y-125107521D01*
X131120967Y-125243955D01*
X130995069Y-125191807D01*
X130757243Y-125144500D01*
X130514757Y-125144500D01*
X130276931Y-125191807D01*
X130052903Y-125284602D01*
X129851283Y-125419320D01*
X129679820Y-125590783D01*
X129545102Y-125792403D01*
X129452307Y-126016431D01*
X129405000Y-126254257D01*
X129405000Y-126496743D01*
X129452307Y-126734569D01*
X129545102Y-126958597D01*
X129679820Y-127160217D01*
X129851283Y-127331680D01*
X130052903Y-127466398D01*
X130276931Y-127559193D01*
X130514757Y-127606500D01*
X130757243Y-127606500D01*
X130995069Y-127559193D01*
X131219097Y-127466398D01*
X131420717Y-127331680D01*
X131562212Y-127190185D01*
X131562212Y-127342709D01*
X131120967Y-127783955D01*
X130995069Y-127731807D01*
X130757243Y-127684500D01*
X130514757Y-127684500D01*
X130276931Y-127731807D01*
X130052903Y-127824602D01*
X129851283Y-127959320D01*
X129679820Y-128130783D01*
X129545102Y-128332403D01*
X129452307Y-128556431D01*
X129405000Y-128794257D01*
X129405000Y-129036743D01*
X129452307Y-129274569D01*
X129545102Y-129498597D01*
X129679820Y-129700217D01*
X129851283Y-129871680D01*
X130052903Y-130006398D01*
X130276931Y-130099193D01*
X130514757Y-130146500D01*
X130757243Y-130146500D01*
X130995069Y-130099193D01*
X131219097Y-130006398D01*
X131420717Y-129871680D01*
X131592180Y-129700217D01*
X131726898Y-129498597D01*
X131819693Y-129274569D01*
X131867000Y-129036743D01*
X131867000Y-128794257D01*
X131819693Y-128556431D01*
X131767545Y-128430533D01*
X132326825Y-127871254D01*
X132344264Y-127856942D01*
X132358576Y-127839503D01*
X132358582Y-127839497D01*
X132401398Y-127787325D01*
X132443852Y-127707899D01*
X132451509Y-127682657D01*
X132469996Y-127621716D01*
X132476611Y-127554549D01*
X132476611Y-127554539D01*
X132478822Y-127532089D01*
X132476611Y-127509639D01*
X132476611Y-114935958D01*
X149796500Y-114935958D01*
X149796500Y-115061042D01*
X149820903Y-115183723D01*
X149868771Y-115299285D01*
X149938264Y-115403289D01*
X150026711Y-115491736D01*
X150130715Y-115561229D01*
X150246277Y-115609097D01*
X150368958Y-115633500D01*
X150429062Y-115633500D01*
X150430263Y-115634486D01*
X150509690Y-115676940D01*
X150595872Y-115703084D01*
X150663039Y-115709699D01*
X150663049Y-115709699D01*
X150685499Y-115711910D01*
X150707949Y-115709699D01*
X153393551Y-115709699D01*
X153416001Y-115711910D01*
X153438451Y-115709699D01*
X153438461Y-115709699D01*
X153505628Y-115703084D01*
X153591810Y-115676940D01*
X153671237Y-115634486D01*
X153740854Y-115577352D01*
X153755175Y-115559902D01*
X153872078Y-115443000D01*
X153923042Y-115443000D01*
X154045723Y-115418597D01*
X154161285Y-115370729D01*
X154265289Y-115301236D01*
X154353736Y-115212789D01*
X154423229Y-115108785D01*
X154471097Y-114993223D01*
X154495500Y-114870542D01*
X154495500Y-114745458D01*
X154471097Y-114622777D01*
X154423229Y-114507215D01*
X154353736Y-114403211D01*
X154265289Y-114314764D01*
X154161285Y-114245271D01*
X154045723Y-114197403D01*
X153923042Y-114173000D01*
X153797958Y-114173000D01*
X153675277Y-114197403D01*
X153559715Y-114245271D01*
X153455711Y-114314764D01*
X153367264Y-114403211D01*
X153297771Y-114507215D01*
X153249903Y-114622777D01*
X153225500Y-114745458D01*
X153225500Y-114795299D01*
X151034650Y-114795299D01*
X150994229Y-114697715D01*
X150924736Y-114593711D01*
X150836289Y-114505264D01*
X150732285Y-114435771D01*
X150616723Y-114387903D01*
X150494042Y-114363500D01*
X150368958Y-114363500D01*
X150246277Y-114387903D01*
X150130715Y-114435771D01*
X150026711Y-114505264D01*
X149938264Y-114593711D01*
X149868771Y-114697715D01*
X149820903Y-114813277D01*
X149796500Y-114935958D01*
X132476611Y-114935958D01*
X132476611Y-109919458D01*
X152527000Y-109919458D01*
X152527000Y-110044542D01*
X152551403Y-110167223D01*
X152599271Y-110282785D01*
X152668764Y-110386789D01*
X152757211Y-110475236D01*
X152861215Y-110544729D01*
X152976777Y-110592597D01*
X153099458Y-110617000D01*
X153224542Y-110617000D01*
X153347223Y-110592597D01*
X153462785Y-110544729D01*
X153566789Y-110475236D01*
X153602825Y-110439200D01*
X156822550Y-110439200D01*
X156845000Y-110441411D01*
X156867450Y-110439200D01*
X156867460Y-110439200D01*
X156934627Y-110432585D01*
X157020809Y-110406441D01*
X157100236Y-110363987D01*
X157169853Y-110306853D01*
X157184174Y-110289403D01*
X158168408Y-109305170D01*
X158185853Y-109290853D01*
X158242987Y-109221236D01*
X158285441Y-109141809D01*
X158311585Y-109055627D01*
X158318200Y-108988460D01*
X158318200Y-108988450D01*
X158320411Y-108966000D01*
X158318200Y-108943550D01*
X158318200Y-103945825D01*
X158354236Y-103909789D01*
X158423729Y-103805785D01*
X158471597Y-103690223D01*
X158496000Y-103567542D01*
X158496000Y-103442458D01*
X158471597Y-103319777D01*
X158423729Y-103204215D01*
X158354236Y-103100211D01*
X158265789Y-103011764D01*
X158161785Y-102942271D01*
X158046223Y-102894403D01*
X157923542Y-102870000D01*
X157798458Y-102870000D01*
X157675777Y-102894403D01*
X157560215Y-102942271D01*
X157456211Y-103011764D01*
X157367764Y-103100211D01*
X157298271Y-103204215D01*
X157250403Y-103319777D01*
X157226000Y-103442458D01*
X157226000Y-103567542D01*
X157250403Y-103690223D01*
X157298271Y-103805785D01*
X157367764Y-103909789D01*
X157403800Y-103945825D01*
X157403801Y-108435531D01*
X157403800Y-108435541D01*
X157403801Y-108776622D01*
X156655623Y-109524800D01*
X154765369Y-109524800D01*
X154788597Y-109468723D01*
X154813000Y-109346042D01*
X154813000Y-109220958D01*
X154788597Y-109098277D01*
X154740729Y-108982715D01*
X154671236Y-108878711D01*
X154635200Y-108842675D01*
X154635200Y-102360877D01*
X156780378Y-100215700D01*
X158626675Y-100215700D01*
X158662711Y-100251736D01*
X158766715Y-100321229D01*
X158882277Y-100369097D01*
X159004958Y-100393500D01*
X159130042Y-100393500D01*
X159252723Y-100369097D01*
X159368285Y-100321229D01*
X159472289Y-100251736D01*
X159560736Y-100163289D01*
X159630229Y-100059285D01*
X159678097Y-99943723D01*
X159702500Y-99821042D01*
X159702500Y-99695958D01*
X159678097Y-99573277D01*
X159630229Y-99457715D01*
X159560736Y-99353711D01*
X159472289Y-99265264D01*
X159368285Y-99195771D01*
X159252723Y-99147903D01*
X159130042Y-99123500D01*
X159004958Y-99123500D01*
X158882277Y-99147903D01*
X158766715Y-99195771D01*
X158662711Y-99265264D01*
X158626675Y-99301300D01*
X156613449Y-99301300D01*
X156590999Y-99299089D01*
X156568549Y-99301300D01*
X156568540Y-99301300D01*
X156501373Y-99307915D01*
X156415191Y-99334059D01*
X156378424Y-99353711D01*
X156335763Y-99376513D01*
X156283592Y-99419330D01*
X156266147Y-99433647D01*
X156251830Y-99451092D01*
X153870597Y-101832326D01*
X153853147Y-101846647D01*
X153796013Y-101916265D01*
X153753559Y-101995692D01*
X153727415Y-102081874D01*
X153720800Y-102149041D01*
X153720800Y-102149050D01*
X153718589Y-102171500D01*
X153720800Y-102193950D01*
X153720801Y-108842674D01*
X153684764Y-108878711D01*
X153615271Y-108982715D01*
X153567403Y-109098277D01*
X153543000Y-109220958D01*
X153543000Y-109346042D01*
X153567403Y-109468723D01*
X153582009Y-109503984D01*
X153566789Y-109488764D01*
X153462785Y-109419271D01*
X153347223Y-109371403D01*
X153224542Y-109347000D01*
X153099458Y-109347000D01*
X152976777Y-109371403D01*
X152861215Y-109419271D01*
X152757211Y-109488764D01*
X152668764Y-109577211D01*
X152599271Y-109681215D01*
X152551403Y-109796777D01*
X152527000Y-109919458D01*
X132476611Y-109919458D01*
X132476611Y-100482361D01*
X132478822Y-100459911D01*
X132476611Y-100437461D01*
X132476611Y-100437451D01*
X132469996Y-100370284D01*
X132443852Y-100284102D01*
X132401398Y-100204675D01*
X132344264Y-100135058D01*
X132326820Y-100120742D01*
X120637320Y-88431243D01*
X120637320Y-79068323D01*
X121727634Y-77978010D01*
X131330820Y-77978008D01*
X131318000Y-78042458D01*
X131318000Y-78167542D01*
X131342403Y-78290223D01*
X131390271Y-78405785D01*
X131459764Y-78509789D01*
X131548211Y-78598236D01*
X131652215Y-78667729D01*
X131767777Y-78715597D01*
X131890458Y-78740000D01*
X132015542Y-78740000D01*
X132138223Y-78715597D01*
X132253785Y-78667729D01*
X132335693Y-78613000D01*
X132875464Y-78613000D01*
X132900408Y-78615457D01*
X132925352Y-78613000D01*
X132925355Y-78613000D01*
X132999993Y-78605649D01*
X133095751Y-78576601D01*
X133184003Y-78529429D01*
X133261356Y-78465948D01*
X133277263Y-78446565D01*
X137665229Y-74058599D01*
X139935068Y-74058599D01*
X139821555Y-74228483D01*
X139709914Y-74498008D01*
X139653000Y-74784134D01*
X139653000Y-75075866D01*
X139709914Y-75361992D01*
X139821555Y-75631517D01*
X139983632Y-75874083D01*
X140189917Y-76080368D01*
X140432483Y-76242445D01*
X140702008Y-76354086D01*
X140988134Y-76411000D01*
X141279866Y-76411000D01*
X141565992Y-76354086D01*
X141835517Y-76242445D01*
X142078083Y-76080368D01*
X142284368Y-75874083D01*
X142446445Y-75631517D01*
X142558086Y-75361992D01*
X142615000Y-75075866D01*
X142615000Y-74784134D01*
X142558086Y-74498008D01*
X142446445Y-74228483D01*
X142332932Y-74058599D01*
X144183113Y-74058599D01*
X144208958Y-74120994D01*
X144310845Y-74273478D01*
X144342367Y-74305000D01*
X144310845Y-74336522D01*
X144208958Y-74489006D01*
X144138778Y-74658437D01*
X144103000Y-74838304D01*
X144103000Y-75021696D01*
X144138778Y-75201563D01*
X144208958Y-75370994D01*
X144310845Y-75523478D01*
X144440522Y-75653155D01*
X144593006Y-75755042D01*
X144762437Y-75825222D01*
X144942304Y-75861000D01*
X145125696Y-75861000D01*
X145226524Y-75840944D01*
X146181150Y-76795571D01*
X146197052Y-76814948D01*
X146216429Y-76830850D01*
X146274404Y-76878429D01*
X146314265Y-76899735D01*
X146362657Y-76925601D01*
X146458415Y-76954649D01*
X146533053Y-76962000D01*
X146533055Y-76962000D01*
X146557999Y-76964457D01*
X146582943Y-76962000D01*
X161138056Y-76962000D01*
X161163000Y-76964457D01*
X161187944Y-76962000D01*
X161187947Y-76962000D01*
X161262585Y-76954649D01*
X161358343Y-76925601D01*
X161446595Y-76878429D01*
X161523948Y-76814948D01*
X161539855Y-76795565D01*
X162584065Y-75751355D01*
X162603448Y-75735448D01*
X162651707Y-75676643D01*
X162783632Y-75874083D01*
X162989917Y-76080368D01*
X163232483Y-76242445D01*
X163502008Y-76354086D01*
X163788134Y-76411000D01*
X164079866Y-76411000D01*
X164365992Y-76354086D01*
X164635517Y-76242445D01*
X164878083Y-76080368D01*
X165084368Y-75874083D01*
X165246445Y-75631517D01*
X165358086Y-75361992D01*
X165415000Y-75075866D01*
X165415000Y-74930958D01*
X173799500Y-74930958D01*
X173799500Y-75056042D01*
X173823903Y-75178723D01*
X173871771Y-75294285D01*
X173926501Y-75376194D01*
X173926500Y-79627307D01*
X173871771Y-79709215D01*
X173823903Y-79824777D01*
X173799500Y-79947458D01*
X173799500Y-80072542D01*
X173823903Y-80195223D01*
X173871771Y-80310785D01*
X173941264Y-80414789D01*
X174029711Y-80503236D01*
X174133715Y-80572729D01*
X174249277Y-80620597D01*
X174371958Y-80645000D01*
X174497042Y-80645000D01*
X174619723Y-80620597D01*
X174735285Y-80572729D01*
X174839289Y-80503236D01*
X174927736Y-80414789D01*
X174997229Y-80310785D01*
X175045097Y-80195223D01*
X175069500Y-80072542D01*
X175069500Y-79947458D01*
X175045097Y-79824777D01*
X174997229Y-79709215D01*
X174942500Y-79627307D01*
X174942500Y-75376193D01*
X174997229Y-75294285D01*
X175045097Y-75178723D01*
X175069500Y-75056042D01*
X175069500Y-74930958D01*
X175045097Y-74808277D01*
X174997229Y-74692715D01*
X174927736Y-74588711D01*
X174839289Y-74500264D01*
X174735285Y-74430771D01*
X174619723Y-74382903D01*
X174497042Y-74358500D01*
X174371958Y-74358500D01*
X174249277Y-74382903D01*
X174133715Y-74430771D01*
X174029711Y-74500264D01*
X173941264Y-74588711D01*
X173871771Y-74692715D01*
X173823903Y-74808277D01*
X173799500Y-74930958D01*
X165415000Y-74930958D01*
X165415000Y-74784134D01*
X165358086Y-74498008D01*
X165246445Y-74228483D01*
X165084368Y-73985917D01*
X164878083Y-73779632D01*
X164635517Y-73617555D01*
X164365992Y-73505914D01*
X164079866Y-73449000D01*
X163788134Y-73449000D01*
X163502008Y-73505914D01*
X163383362Y-73555059D01*
X163595921Y-73342500D01*
X171638807Y-73342500D01*
X171720715Y-73397229D01*
X171836277Y-73445097D01*
X171958958Y-73469500D01*
X172084042Y-73469500D01*
X172206723Y-73445097D01*
X172322285Y-73397229D01*
X172426289Y-73327736D01*
X172514736Y-73239289D01*
X172584229Y-73135285D01*
X172632097Y-73019723D01*
X172656500Y-72897042D01*
X172656500Y-72771958D01*
X172633395Y-72655801D01*
X180975224Y-72655801D01*
X181914801Y-73595379D01*
X181914801Y-73607954D01*
X181910785Y-73605271D01*
X181795223Y-73557403D01*
X181672542Y-73533000D01*
X181547458Y-73533000D01*
X181424777Y-73557403D01*
X181309215Y-73605271D01*
X181227307Y-73660000D01*
X177888443Y-73660000D01*
X177863499Y-73657543D01*
X177838555Y-73660000D01*
X177838553Y-73660000D01*
X177763915Y-73667351D01*
X177668157Y-73696399D01*
X177668155Y-73696400D01*
X177579904Y-73743571D01*
X177555973Y-73763211D01*
X177502552Y-73807052D01*
X177486650Y-73826429D01*
X175553430Y-75759650D01*
X175534053Y-75775552D01*
X175518151Y-75794929D01*
X175518150Y-75794930D01*
X175470571Y-75852905D01*
X175423400Y-75941157D01*
X175400823Y-76015585D01*
X175394352Y-76036916D01*
X175384543Y-76136500D01*
X175387001Y-76161454D01*
X175387000Y-79990080D01*
X174605080Y-80772000D01*
X173229693Y-80772000D01*
X173147785Y-80717271D01*
X173032223Y-80669403D01*
X172909542Y-80645000D01*
X172784458Y-80645000D01*
X172661777Y-80669403D01*
X172546215Y-80717271D01*
X172464307Y-80772000D01*
X170435693Y-80772000D01*
X170353785Y-80717271D01*
X170238223Y-80669403D01*
X170115542Y-80645000D01*
X169990458Y-80645000D01*
X169867777Y-80669403D01*
X169752215Y-80717271D01*
X169670307Y-80772000D01*
X167641693Y-80772000D01*
X167559785Y-80717271D01*
X167444223Y-80669403D01*
X167321542Y-80645000D01*
X167196458Y-80645000D01*
X167073777Y-80669403D01*
X166958215Y-80717271D01*
X166876307Y-80772000D01*
X164847693Y-80772000D01*
X164765785Y-80717271D01*
X164650223Y-80669403D01*
X164527542Y-80645000D01*
X164402458Y-80645000D01*
X164279777Y-80669403D01*
X164164215Y-80717271D01*
X164082307Y-80772000D01*
X162053693Y-80772000D01*
X161971785Y-80717271D01*
X161856223Y-80669403D01*
X161733542Y-80645000D01*
X161608458Y-80645000D01*
X161485777Y-80669403D01*
X161370215Y-80717271D01*
X161288307Y-80772000D01*
X159259693Y-80772000D01*
X159177785Y-80717271D01*
X159062223Y-80669403D01*
X158939542Y-80645000D01*
X158814458Y-80645000D01*
X158691777Y-80669403D01*
X158576215Y-80717271D01*
X158494307Y-80772000D01*
X156465693Y-80772000D01*
X156383785Y-80717271D01*
X156268223Y-80669403D01*
X156145542Y-80645000D01*
X156020458Y-80645000D01*
X155897777Y-80669403D01*
X155782215Y-80717271D01*
X155700307Y-80772000D01*
X153671693Y-80772000D01*
X153589785Y-80717271D01*
X153474223Y-80669403D01*
X153351542Y-80645000D01*
X153226458Y-80645000D01*
X153103777Y-80669403D01*
X152988215Y-80717271D01*
X152906307Y-80772000D01*
X151004693Y-80772000D01*
X150922785Y-80717271D01*
X150807223Y-80669403D01*
X150684542Y-80645000D01*
X150559458Y-80645000D01*
X150436777Y-80669403D01*
X150321215Y-80717271D01*
X150239307Y-80772000D01*
X148083693Y-80772000D01*
X148001785Y-80717271D01*
X147886223Y-80669403D01*
X147763542Y-80645000D01*
X147638458Y-80645000D01*
X147515777Y-80669403D01*
X147400215Y-80717271D01*
X147318307Y-80772000D01*
X145289693Y-80772000D01*
X145207785Y-80717271D01*
X145092223Y-80669403D01*
X144969542Y-80645000D01*
X144844458Y-80645000D01*
X144721777Y-80669403D01*
X144606215Y-80717271D01*
X144524307Y-80772000D01*
X142584679Y-80772000D01*
X142540785Y-80742671D01*
X142425223Y-80694803D01*
X142302542Y-80670400D01*
X142177458Y-80670400D01*
X142054777Y-80694803D01*
X141939215Y-80742671D01*
X141895321Y-80772000D01*
X139701693Y-80772000D01*
X139619785Y-80717271D01*
X139504223Y-80669403D01*
X139381542Y-80645000D01*
X139256458Y-80645000D01*
X139133777Y-80669403D01*
X139018215Y-80717271D01*
X138936307Y-80772000D01*
X136907693Y-80772000D01*
X136825785Y-80717271D01*
X136710223Y-80669403D01*
X136587542Y-80645000D01*
X136462458Y-80645000D01*
X136339777Y-80669403D01*
X136224215Y-80717271D01*
X136142307Y-80772000D01*
X134240693Y-80772000D01*
X134158785Y-80717271D01*
X134043223Y-80669403D01*
X133920542Y-80645000D01*
X133795458Y-80645000D01*
X133672777Y-80669403D01*
X133557215Y-80717271D01*
X133475307Y-80772000D01*
X132589693Y-80772000D01*
X132507785Y-80717271D01*
X132392223Y-80669403D01*
X132269542Y-80645000D01*
X132144458Y-80645000D01*
X132021777Y-80669403D01*
X131906215Y-80717271D01*
X131824307Y-80772000D01*
X129160693Y-80772000D01*
X129078785Y-80717271D01*
X128963223Y-80669403D01*
X128840542Y-80645000D01*
X128715458Y-80645000D01*
X128592777Y-80669403D01*
X128477215Y-80717271D01*
X128395307Y-80772000D01*
X126643944Y-80772000D01*
X126619000Y-80769543D01*
X126594056Y-80772000D01*
X126594053Y-80772000D01*
X126519415Y-80779351D01*
X126423657Y-80808399D01*
X126335405Y-80855571D01*
X126258052Y-80919052D01*
X126242145Y-80938435D01*
X125895396Y-81285184D01*
X125798777Y-81304403D01*
X125683215Y-81352271D01*
X125579211Y-81421764D01*
X125490764Y-81510211D01*
X125421271Y-81614215D01*
X125373403Y-81729777D01*
X125349000Y-81852458D01*
X125349000Y-81977542D01*
X125373403Y-82100223D01*
X125421271Y-82215785D01*
X125490764Y-82319789D01*
X125579211Y-82408236D01*
X125683215Y-82477729D01*
X125798777Y-82525597D01*
X125921458Y-82550000D01*
X126046542Y-82550000D01*
X126169223Y-82525597D01*
X126284785Y-82477729D01*
X126388789Y-82408236D01*
X126477236Y-82319789D01*
X126546729Y-82215785D01*
X126594597Y-82100223D01*
X126613816Y-82003604D01*
X126829420Y-81788000D01*
X128395307Y-81788000D01*
X128477215Y-81842729D01*
X128592777Y-81890597D01*
X128715458Y-81915000D01*
X128840542Y-81915000D01*
X128963223Y-81890597D01*
X129078785Y-81842729D01*
X129160693Y-81788000D01*
X131824307Y-81788000D01*
X131906215Y-81842729D01*
X132021777Y-81890597D01*
X132144458Y-81915000D01*
X132269542Y-81915000D01*
X132392223Y-81890597D01*
X132507785Y-81842729D01*
X132589693Y-81788000D01*
X133475307Y-81788000D01*
X133557215Y-81842729D01*
X133672777Y-81890597D01*
X133795458Y-81915000D01*
X133920542Y-81915000D01*
X134043223Y-81890597D01*
X134158785Y-81842729D01*
X134240693Y-81788000D01*
X136142307Y-81788000D01*
X136224215Y-81842729D01*
X136339777Y-81890597D01*
X136462458Y-81915000D01*
X136587542Y-81915000D01*
X136710223Y-81890597D01*
X136825785Y-81842729D01*
X136907693Y-81788000D01*
X138936307Y-81788000D01*
X139018215Y-81842729D01*
X139133777Y-81890597D01*
X139256458Y-81915000D01*
X139381542Y-81915000D01*
X139504223Y-81890597D01*
X139619785Y-81842729D01*
X139701693Y-81788000D01*
X141824575Y-81788000D01*
X141835211Y-81798636D01*
X141939215Y-81868129D01*
X142054777Y-81915997D01*
X142177458Y-81940400D01*
X142302542Y-81940400D01*
X142425223Y-81915997D01*
X142540785Y-81868129D01*
X142644789Y-81798636D01*
X142655425Y-81788000D01*
X144524307Y-81788000D01*
X144606215Y-81842729D01*
X144721777Y-81890597D01*
X144844458Y-81915000D01*
X144969542Y-81915000D01*
X145092223Y-81890597D01*
X145207785Y-81842729D01*
X145289693Y-81788000D01*
X147318307Y-81788000D01*
X147400215Y-81842729D01*
X147515777Y-81890597D01*
X147638458Y-81915000D01*
X147763542Y-81915000D01*
X147886223Y-81890597D01*
X148001785Y-81842729D01*
X148083693Y-81788000D01*
X150239307Y-81788000D01*
X150321215Y-81842729D01*
X150436777Y-81890597D01*
X150559458Y-81915000D01*
X150684542Y-81915000D01*
X150807223Y-81890597D01*
X150922785Y-81842729D01*
X151004693Y-81788000D01*
X152906307Y-81788000D01*
X152988215Y-81842729D01*
X153103777Y-81890597D01*
X153226458Y-81915000D01*
X153351542Y-81915000D01*
X153474223Y-81890597D01*
X153589785Y-81842729D01*
X153671693Y-81788000D01*
X155700307Y-81788000D01*
X155782215Y-81842729D01*
X155897777Y-81890597D01*
X156020458Y-81915000D01*
X156145542Y-81915000D01*
X156268223Y-81890597D01*
X156383785Y-81842729D01*
X156465693Y-81788000D01*
X158494307Y-81788000D01*
X158576215Y-81842729D01*
X158691777Y-81890597D01*
X158814458Y-81915000D01*
X158939542Y-81915000D01*
X159062223Y-81890597D01*
X159177785Y-81842729D01*
X159259693Y-81788000D01*
X161288307Y-81788000D01*
X161370215Y-81842729D01*
X161485777Y-81890597D01*
X161608458Y-81915000D01*
X161733542Y-81915000D01*
X161856223Y-81890597D01*
X161971785Y-81842729D01*
X162053693Y-81788000D01*
X164082307Y-81788000D01*
X164164215Y-81842729D01*
X164279777Y-81890597D01*
X164402458Y-81915000D01*
X164527542Y-81915000D01*
X164650223Y-81890597D01*
X164765785Y-81842729D01*
X164847693Y-81788000D01*
X166876307Y-81788000D01*
X166958215Y-81842729D01*
X167073777Y-81890597D01*
X167196458Y-81915000D01*
X167321542Y-81915000D01*
X167444223Y-81890597D01*
X167559785Y-81842729D01*
X167641693Y-81788000D01*
X169670307Y-81788000D01*
X169752215Y-81842729D01*
X169867777Y-81890597D01*
X169990458Y-81915000D01*
X170115542Y-81915000D01*
X170238223Y-81890597D01*
X170353785Y-81842729D01*
X170435693Y-81788000D01*
X172464307Y-81788000D01*
X172546215Y-81842729D01*
X172661777Y-81890597D01*
X172784458Y-81915000D01*
X172909542Y-81915000D01*
X173032223Y-81890597D01*
X173147785Y-81842729D01*
X173229693Y-81788000D01*
X174790556Y-81788000D01*
X174815500Y-81790457D01*
X174840444Y-81788000D01*
X174840447Y-81788000D01*
X174915085Y-81780649D01*
X175010843Y-81751601D01*
X175099095Y-81704429D01*
X175176448Y-81640948D01*
X175192355Y-81621565D01*
X176236565Y-80577355D01*
X176255948Y-80561448D01*
X176319429Y-80484095D01*
X176366601Y-80395843D01*
X176395649Y-80300085D01*
X176403000Y-80225447D01*
X176403000Y-80225444D01*
X176405457Y-80200500D01*
X176403000Y-80175556D01*
X176403000Y-76346920D01*
X178073921Y-74676000D01*
X181227307Y-74676000D01*
X181309215Y-74730729D01*
X181424777Y-74778597D01*
X181547458Y-74803000D01*
X181672542Y-74803000D01*
X181795223Y-74778597D01*
X181910785Y-74730729D01*
X181914800Y-74728046D01*
X181914800Y-75121622D01*
X178762593Y-78273830D01*
X178745148Y-78288147D01*
X178730831Y-78305592D01*
X178730830Y-78305593D01*
X178688013Y-78357765D01*
X178654998Y-78419534D01*
X178645560Y-78437191D01*
X178619416Y-78523373D01*
X178617442Y-78543415D01*
X178610589Y-78613000D01*
X178612801Y-78635460D01*
X178612800Y-90043000D01*
X178524858Y-90043000D01*
X178402177Y-90067403D01*
X178286615Y-90115271D01*
X178182611Y-90184764D01*
X178094164Y-90273211D01*
X178024671Y-90377215D01*
X177976803Y-90492777D01*
X177952400Y-90615458D01*
X177952400Y-90740542D01*
X177976803Y-90863223D01*
X178024671Y-90978785D01*
X178094164Y-91082789D01*
X178130201Y-91118826D01*
X178130200Y-92558722D01*
X170139283Y-100549640D01*
X170121838Y-100563957D01*
X170107521Y-100581402D01*
X170107520Y-100581403D01*
X170064704Y-100633574D01*
X170022250Y-100713001D01*
X170003969Y-100773265D01*
X169996106Y-100799184D01*
X169987279Y-100888810D01*
X169989491Y-100911270D01*
X169989490Y-114745622D01*
X168989948Y-115745165D01*
X168989937Y-115745174D01*
X167209313Y-117525800D01*
X150300825Y-117525800D01*
X150264789Y-117489764D01*
X150160785Y-117420271D01*
X150045223Y-117372403D01*
X149922542Y-117348000D01*
X149797458Y-117348000D01*
X149674777Y-117372403D01*
X149559215Y-117420271D01*
X149455211Y-117489764D01*
X149366764Y-117578211D01*
X149297271Y-117682215D01*
X149249403Y-117797777D01*
X149225000Y-117920458D01*
X149225000Y-118045542D01*
X149249403Y-118168223D01*
X149297271Y-118283785D01*
X149366764Y-118387789D01*
X149455211Y-118476236D01*
X149559215Y-118545729D01*
X149674777Y-118593597D01*
X149797458Y-118618000D01*
X149922542Y-118618000D01*
X150045223Y-118593597D01*
X150160785Y-118545729D01*
X150264789Y-118476236D01*
X150300825Y-118440200D01*
X167376240Y-118440200D01*
X167398690Y-118442411D01*
X167421140Y-118440200D01*
X167421150Y-118440200D01*
X167488317Y-118433585D01*
X167574499Y-118407441D01*
X167653926Y-118364987D01*
X167723543Y-118307853D01*
X167737864Y-118290403D01*
X169636516Y-116391753D01*
X169636525Y-116391742D01*
X170294300Y-115733967D01*
X170294300Y-127575175D01*
X170258264Y-127611211D01*
X170188771Y-127715215D01*
X170140903Y-127830777D01*
X170116500Y-127953458D01*
X170116500Y-128078542D01*
X170140903Y-128201223D01*
X170188771Y-128316785D01*
X170258264Y-128420789D01*
X170346711Y-128509236D01*
X170450715Y-128578729D01*
X170566277Y-128626597D01*
X170688958Y-128651000D01*
X170814042Y-128651000D01*
X170936723Y-128626597D01*
X171052285Y-128578729D01*
X171156289Y-128509236D01*
X171244736Y-128420789D01*
X171314229Y-128316785D01*
X171362097Y-128201223D01*
X171386500Y-128078542D01*
X171386500Y-128065500D01*
X175903157Y-128065500D01*
X175903157Y-129765500D01*
X175910513Y-129840189D01*
X175932299Y-129912008D01*
X175967678Y-129978196D01*
X176015289Y-130036211D01*
X176073304Y-130083822D01*
X176139492Y-130119201D01*
X176211311Y-130140987D01*
X176286000Y-130148343D01*
X177986000Y-130148343D01*
X178060689Y-130140987D01*
X178132508Y-130119201D01*
X178198696Y-130083822D01*
X178256711Y-130036211D01*
X178304322Y-129978196D01*
X178339701Y-129912008D01*
X178361487Y-129840189D01*
X178368843Y-129765500D01*
X178368843Y-128065500D01*
X178361487Y-127990811D01*
X178339701Y-127918992D01*
X178304322Y-127852804D01*
X178256711Y-127794789D01*
X178198696Y-127747178D01*
X178132508Y-127711799D01*
X178060689Y-127690013D01*
X177986000Y-127682657D01*
X176286000Y-127682657D01*
X176211311Y-127690013D01*
X176139492Y-127711799D01*
X176073304Y-127747178D01*
X176015289Y-127794789D01*
X175967678Y-127852804D01*
X175932299Y-127918992D01*
X175910513Y-127990811D01*
X175903157Y-128065500D01*
X171386500Y-128065500D01*
X171386500Y-127953458D01*
X171362097Y-127830777D01*
X171314229Y-127715215D01*
X171244736Y-127611211D01*
X171208700Y-127575175D01*
X171208700Y-126254257D01*
X175905000Y-126254257D01*
X175905000Y-126496743D01*
X175952307Y-126734569D01*
X176045102Y-126958597D01*
X176179820Y-127160217D01*
X176351283Y-127331680D01*
X176552903Y-127466398D01*
X176776931Y-127559193D01*
X177014757Y-127606500D01*
X177257243Y-127606500D01*
X177495069Y-127559193D01*
X177719097Y-127466398D01*
X177920717Y-127331680D01*
X178092180Y-127160217D01*
X178226898Y-126958597D01*
X178319693Y-126734569D01*
X178367000Y-126496743D01*
X178367000Y-126254257D01*
X178319693Y-126016431D01*
X178226898Y-125792403D01*
X178092180Y-125590783D01*
X177920717Y-125419320D01*
X177719097Y-125284602D01*
X177495069Y-125191807D01*
X177257243Y-125144500D01*
X177014757Y-125144500D01*
X176776931Y-125191807D01*
X176552903Y-125284602D01*
X176351283Y-125419320D01*
X176179820Y-125590783D01*
X176045102Y-125792403D01*
X175952307Y-126016431D01*
X175905000Y-126254257D01*
X171208700Y-126254257D01*
X171208700Y-125814200D01*
X171210764Y-125817289D01*
X171299211Y-125905736D01*
X171403215Y-125975229D01*
X171518777Y-126023097D01*
X171641458Y-126047500D01*
X171766542Y-126047500D01*
X171889223Y-126023097D01*
X172004785Y-125975229D01*
X172108789Y-125905736D01*
X172197236Y-125817289D01*
X172266729Y-125713285D01*
X172314597Y-125597723D01*
X172339000Y-125475042D01*
X172339000Y-125349958D01*
X172314597Y-125227277D01*
X172266729Y-125111715D01*
X172197236Y-125007711D01*
X172161200Y-124971675D01*
X172161200Y-123714257D01*
X175905000Y-123714257D01*
X175905000Y-123956743D01*
X175952307Y-124194569D01*
X176045102Y-124418597D01*
X176179820Y-124620217D01*
X176351283Y-124791680D01*
X176552903Y-124926398D01*
X176776931Y-125019193D01*
X177014757Y-125066500D01*
X177257243Y-125066500D01*
X177495069Y-125019193D01*
X177719097Y-124926398D01*
X177920717Y-124791680D01*
X178092180Y-124620217D01*
X178226898Y-124418597D01*
X178319693Y-124194569D01*
X178367000Y-123956743D01*
X178367000Y-123714257D01*
X178319693Y-123476431D01*
X178226898Y-123252403D01*
X178092180Y-123050783D01*
X177920717Y-122879320D01*
X177719097Y-122744602D01*
X177495069Y-122651807D01*
X177257243Y-122604500D01*
X177014757Y-122604500D01*
X176776931Y-122651807D01*
X176552903Y-122744602D01*
X176351283Y-122879320D01*
X176179820Y-123050783D01*
X176045102Y-123252403D01*
X175952307Y-123476431D01*
X175905000Y-123714257D01*
X172161200Y-123714257D01*
X172161200Y-121174257D01*
X175905000Y-121174257D01*
X175905000Y-121416743D01*
X175952307Y-121654569D01*
X176045102Y-121878597D01*
X176179820Y-122080217D01*
X176351283Y-122251680D01*
X176552903Y-122386398D01*
X176776931Y-122479193D01*
X177014757Y-122526500D01*
X177257243Y-122526500D01*
X177495069Y-122479193D01*
X177719097Y-122386398D01*
X177920717Y-122251680D01*
X178092180Y-122080217D01*
X178226898Y-121878597D01*
X178319693Y-121654569D01*
X178367000Y-121416743D01*
X178367000Y-121174257D01*
X178319693Y-120936431D01*
X178226898Y-120712403D01*
X178092180Y-120510783D01*
X177920717Y-120339320D01*
X177719097Y-120204602D01*
X177495069Y-120111807D01*
X177257243Y-120064500D01*
X177014757Y-120064500D01*
X176776931Y-120111807D01*
X176552903Y-120204602D01*
X176351283Y-120339320D01*
X176179820Y-120510783D01*
X176045102Y-120712403D01*
X175952307Y-120936431D01*
X175905000Y-121174257D01*
X172161200Y-121174257D01*
X172161200Y-118634257D01*
X175905000Y-118634257D01*
X175905000Y-118876743D01*
X175952307Y-119114569D01*
X176045102Y-119338597D01*
X176179820Y-119540217D01*
X176351283Y-119711680D01*
X176552903Y-119846398D01*
X176776931Y-119939193D01*
X177014757Y-119986500D01*
X177257243Y-119986500D01*
X177495069Y-119939193D01*
X177719097Y-119846398D01*
X177920717Y-119711680D01*
X178092180Y-119540217D01*
X178226898Y-119338597D01*
X178319693Y-119114569D01*
X178367000Y-118876743D01*
X178367000Y-118634257D01*
X178319693Y-118396431D01*
X178226898Y-118172403D01*
X178092180Y-117970783D01*
X177920717Y-117799320D01*
X177719097Y-117664602D01*
X177495069Y-117571807D01*
X177257243Y-117524500D01*
X177014757Y-117524500D01*
X176776931Y-117571807D01*
X176552903Y-117664602D01*
X176351283Y-117799320D01*
X176179820Y-117970783D01*
X176045102Y-118172403D01*
X175952307Y-118396431D01*
X175905000Y-118634257D01*
X172161200Y-118634257D01*
X172161200Y-116094257D01*
X175905000Y-116094257D01*
X175905000Y-116336743D01*
X175952307Y-116574569D01*
X176045102Y-116798597D01*
X176179820Y-117000217D01*
X176351283Y-117171680D01*
X176552903Y-117306398D01*
X176776931Y-117399193D01*
X177014757Y-117446500D01*
X177257243Y-117446500D01*
X177495069Y-117399193D01*
X177719097Y-117306398D01*
X177920717Y-117171680D01*
X178092180Y-117000217D01*
X178226898Y-116798597D01*
X178319693Y-116574569D01*
X178367000Y-116336743D01*
X178367000Y-116094257D01*
X178319693Y-115856431D01*
X178226898Y-115632403D01*
X178092180Y-115430783D01*
X177920717Y-115259320D01*
X177719097Y-115124602D01*
X177495069Y-115031807D01*
X177257243Y-114984500D01*
X177014757Y-114984500D01*
X176776931Y-115031807D01*
X176552903Y-115124602D01*
X176351283Y-115259320D01*
X176179820Y-115430783D01*
X176045102Y-115632403D01*
X175952307Y-115856431D01*
X175905000Y-116094257D01*
X172161200Y-116094257D01*
X172161200Y-113554257D01*
X175905000Y-113554257D01*
X175905000Y-113796743D01*
X175952307Y-114034569D01*
X176045102Y-114258597D01*
X176179820Y-114460217D01*
X176351283Y-114631680D01*
X176552903Y-114766398D01*
X176776931Y-114859193D01*
X177014757Y-114906500D01*
X177257243Y-114906500D01*
X177495069Y-114859193D01*
X177719097Y-114766398D01*
X177920717Y-114631680D01*
X178092180Y-114460217D01*
X178226898Y-114258597D01*
X178319693Y-114034569D01*
X178367000Y-113796743D01*
X178367000Y-113554257D01*
X178319693Y-113316431D01*
X178226898Y-113092403D01*
X178092180Y-112890783D01*
X177920717Y-112719320D01*
X177719097Y-112584602D01*
X177495069Y-112491807D01*
X177257243Y-112444500D01*
X177014757Y-112444500D01*
X176776931Y-112491807D01*
X176552903Y-112584602D01*
X176351283Y-112719320D01*
X176179820Y-112890783D01*
X176045102Y-113092403D01*
X175952307Y-113316431D01*
X175905000Y-113554257D01*
X172161200Y-113554257D01*
X172161200Y-111014257D01*
X175905000Y-111014257D01*
X175905000Y-111256743D01*
X175952307Y-111494569D01*
X176045102Y-111718597D01*
X176179820Y-111920217D01*
X176351283Y-112091680D01*
X176552903Y-112226398D01*
X176776931Y-112319193D01*
X177014757Y-112366500D01*
X177257243Y-112366500D01*
X177495069Y-112319193D01*
X177719097Y-112226398D01*
X177920717Y-112091680D01*
X178092180Y-111920217D01*
X178226898Y-111718597D01*
X178319693Y-111494569D01*
X178367000Y-111256743D01*
X178367000Y-111014257D01*
X178319693Y-110776431D01*
X178226898Y-110552403D01*
X178092180Y-110350783D01*
X177920717Y-110179320D01*
X177719097Y-110044602D01*
X177495069Y-109951807D01*
X177257243Y-109904500D01*
X177014757Y-109904500D01*
X176776931Y-109951807D01*
X176552903Y-110044602D01*
X176351283Y-110179320D01*
X176179820Y-110350783D01*
X176045102Y-110552403D01*
X175952307Y-110776431D01*
X175905000Y-111014257D01*
X172161200Y-111014257D01*
X172161200Y-105698610D01*
X175694524Y-105698610D01*
X175815845Y-105928500D01*
X177009000Y-105928500D01*
X177009000Y-104734686D01*
X176779109Y-104614019D01*
X176504748Y-104711343D01*
X176254645Y-104860322D01*
X176038412Y-105055231D01*
X175864359Y-105288580D01*
X175739175Y-105551401D01*
X175694524Y-105698610D01*
X172161200Y-105698610D01*
X172161200Y-100709877D01*
X180012415Y-92858664D01*
X180029853Y-92844353D01*
X180044165Y-92826914D01*
X180044171Y-92826908D01*
X180086987Y-92774736D01*
X180129441Y-92695310D01*
X180140615Y-92658474D01*
X180155585Y-92609127D01*
X180162200Y-92541960D01*
X180162200Y-92541950D01*
X180164411Y-92519500D01*
X180162200Y-92497050D01*
X180162200Y-79434825D01*
X180198236Y-79398789D01*
X180267729Y-79294785D01*
X180315597Y-79179223D01*
X180340000Y-79056542D01*
X180340000Y-78931458D01*
X180315597Y-78808777D01*
X180267729Y-78693215D01*
X180198236Y-78589211D01*
X180109789Y-78500764D01*
X180005785Y-78431271D01*
X179929786Y-78399791D01*
X182679409Y-75650169D01*
X182696853Y-75635853D01*
X182753987Y-75566236D01*
X182796441Y-75486809D01*
X182822585Y-75400627D01*
X182829200Y-75333460D01*
X182829200Y-75333451D01*
X182831411Y-75311001D01*
X182829200Y-75288551D01*
X182829200Y-73428449D01*
X182831411Y-73405999D01*
X182829200Y-73383549D01*
X182829200Y-73383540D01*
X182822585Y-73316373D01*
X182796441Y-73230191D01*
X182753987Y-73150764D01*
X182696853Y-73081147D01*
X182679408Y-73066830D01*
X181863820Y-72251243D01*
X182333000Y-72251243D01*
X182407689Y-72243887D01*
X182479508Y-72222101D01*
X182545696Y-72186722D01*
X182603711Y-72139111D01*
X182651322Y-72081096D01*
X182686701Y-72014908D01*
X182708487Y-71943089D01*
X182715843Y-71868400D01*
X182715843Y-70168400D01*
X182708487Y-70093711D01*
X182686701Y-70021892D01*
X182651322Y-69955704D01*
X182603711Y-69897689D01*
X182545696Y-69850078D01*
X182479508Y-69814699D01*
X182407689Y-69792913D01*
X182333000Y-69785557D01*
X180633000Y-69785557D01*
X180558311Y-69792913D01*
X180486492Y-69814699D01*
X180420304Y-69850078D01*
X180362289Y-69897689D01*
X180314678Y-69955704D01*
X180279299Y-70021892D01*
X180257513Y-70093711D01*
X180250157Y-70168400D01*
X180250157Y-71741401D01*
X172809843Y-71741401D01*
X172809843Y-70270000D01*
X172802487Y-70195311D01*
X172780701Y-70123492D01*
X172745322Y-70057304D01*
X172697711Y-69999289D01*
X172639696Y-69951678D01*
X172573508Y-69916299D01*
X172501689Y-69894513D01*
X172427000Y-69887157D01*
X170727000Y-69887157D01*
X170652311Y-69894513D01*
X170580492Y-69916299D01*
X170514304Y-69951678D01*
X170456289Y-69999289D01*
X170408678Y-70057304D01*
X170373299Y-70123492D01*
X170351513Y-70195311D01*
X170344157Y-70270000D01*
X170344157Y-71741401D01*
X161248061Y-71741401D01*
X161225601Y-71739189D01*
X161203141Y-71741401D01*
X160287851Y-71741401D01*
X160265399Y-71739190D01*
X160242947Y-71741401D01*
X160242939Y-71741401D01*
X160175772Y-71748016D01*
X160089589Y-71774160D01*
X160010163Y-71816614D01*
X159957991Y-71859430D01*
X159957985Y-71859436D01*
X159940546Y-71873748D01*
X159926234Y-71891187D01*
X159036447Y-72780976D01*
X158875696Y-72749000D01*
X158692304Y-72749000D01*
X158512437Y-72784778D01*
X158343006Y-72854958D01*
X158190522Y-72956845D01*
X158159000Y-72988367D01*
X158127478Y-72956845D01*
X157974994Y-72854958D01*
X157805563Y-72784778D01*
X157625696Y-72749000D01*
X157442304Y-72749000D01*
X157262437Y-72784778D01*
X157093006Y-72854958D01*
X156940522Y-72956845D01*
X156909000Y-72988367D01*
X156877478Y-72956845D01*
X156724994Y-72854958D01*
X156555563Y-72784778D01*
X156375696Y-72749000D01*
X156192304Y-72749000D01*
X156031553Y-72780975D01*
X155539763Y-72289186D01*
X155525442Y-72271736D01*
X155455825Y-72214602D01*
X155376398Y-72172148D01*
X155290216Y-72146004D01*
X155223049Y-72139389D01*
X155223039Y-72139389D01*
X155200589Y-72137178D01*
X155178139Y-72139389D01*
X137497295Y-72139389D01*
X137474845Y-72137178D01*
X137452395Y-72139389D01*
X137452385Y-72139389D01*
X137385218Y-72146004D01*
X137319094Y-72166063D01*
X137299035Y-72172148D01*
X137219609Y-72214602D01*
X137167437Y-72257418D01*
X137167431Y-72257424D01*
X137149992Y-72271736D01*
X137135680Y-72289175D01*
X132666057Y-76758800D01*
X121434450Y-76758800D01*
X121412000Y-76756589D01*
X121389550Y-76758800D01*
X121389540Y-76758800D01*
X121322373Y-76765415D01*
X121236191Y-76791559D01*
X121156764Y-76834013D01*
X121087147Y-76891147D01*
X121072830Y-76908592D01*
X120027700Y-77953723D01*
X120027700Y-76833877D01*
X120839379Y-76022200D01*
X129162675Y-76022200D01*
X129198711Y-76058236D01*
X129302715Y-76127729D01*
X129418277Y-76175597D01*
X129540958Y-76200000D01*
X129666042Y-76200000D01*
X129788723Y-76175597D01*
X129904285Y-76127729D01*
X130008289Y-76058236D01*
X130096736Y-75969789D01*
X130166229Y-75865785D01*
X130214097Y-75750223D01*
X130238500Y-75627542D01*
X130238500Y-75502458D01*
X130214097Y-75379777D01*
X130166229Y-75264215D01*
X130096736Y-75160211D01*
X130008289Y-75071764D01*
X129904285Y-75002271D01*
X129788723Y-74954403D01*
X129666042Y-74930000D01*
X129540958Y-74930000D01*
X129418277Y-74954403D01*
X129302715Y-75002271D01*
X129198711Y-75071764D01*
X129162675Y-75107800D01*
X120672452Y-75107800D01*
X120650000Y-75105589D01*
X120627548Y-75107800D01*
X120627540Y-75107800D01*
X120560373Y-75114415D01*
X120474190Y-75140559D01*
X120394764Y-75183013D01*
X120342592Y-75225829D01*
X120342586Y-75225835D01*
X120325147Y-75240147D01*
X120310835Y-75257586D01*
X119468500Y-76099923D01*
X119468500Y-69240000D01*
X188316001Y-69240000D01*
X188316000Y-88922329D01*
%TA.AperFunction,Conductor*%
D20*
G36*
X188316000Y-88922329D02*
G01*
X178670020Y-98568311D01*
X178654527Y-98581026D01*
X178603791Y-98642847D01*
X178566092Y-98713378D01*
X178566091Y-98713379D01*
X178542875Y-98789911D01*
X178535037Y-98869500D01*
X178537001Y-98889443D01*
X178537001Y-105565168D01*
X178532825Y-105551401D01*
X178407641Y-105288580D01*
X178233588Y-105055231D01*
X178017355Y-104860322D01*
X177767252Y-104711343D01*
X177492891Y-104614019D01*
X177263000Y-104734686D01*
X177263000Y-105928500D01*
X177283000Y-105928500D01*
X177283000Y-106182500D01*
X177263000Y-106182500D01*
X177263000Y-106202500D01*
X177009000Y-106202500D01*
X177009000Y-106182500D01*
X175815845Y-106182500D01*
X175694524Y-106412390D01*
X175739175Y-106559599D01*
X175864359Y-106822420D01*
X176038412Y-107055769D01*
X176254645Y-107250678D01*
X176504748Y-107399657D01*
X176667168Y-107457272D01*
X176552903Y-107504602D01*
X176351283Y-107639320D01*
X176179820Y-107810783D01*
X176045102Y-108012403D01*
X175952307Y-108236431D01*
X175905000Y-108474257D01*
X175905000Y-108716743D01*
X175952307Y-108954569D01*
X176045102Y-109178597D01*
X176179820Y-109380217D01*
X176351283Y-109551680D01*
X176552903Y-109686398D01*
X176776931Y-109779193D01*
X177014757Y-109826500D01*
X177257243Y-109826500D01*
X177495069Y-109779193D01*
X177719097Y-109686398D01*
X177920717Y-109551680D01*
X178092180Y-109380217D01*
X178226898Y-109178597D01*
X178319693Y-108954569D01*
X178367000Y-108716743D01*
X178367000Y-108474257D01*
X178319693Y-108236431D01*
X178226898Y-108012403D01*
X178092180Y-107810783D01*
X177920717Y-107639320D01*
X177719097Y-107504602D01*
X177604832Y-107457272D01*
X177767252Y-107399657D01*
X178017355Y-107250678D01*
X178233588Y-107055769D01*
X178407641Y-106822420D01*
X178532825Y-106559599D01*
X178537001Y-106545832D01*
X178537000Y-130277000D01*
X129247500Y-130277000D01*
X129247500Y-107853577D01*
X129504455Y-108110533D01*
X129452307Y-108236431D01*
X129405000Y-108474257D01*
X129405000Y-108716743D01*
X129452307Y-108954569D01*
X129545102Y-109178597D01*
X129679820Y-109380217D01*
X129851283Y-109551680D01*
X130052903Y-109686398D01*
X130276931Y-109779193D01*
X130514757Y-109826500D01*
X130757243Y-109826500D01*
X130995069Y-109779193D01*
X131219097Y-109686398D01*
X131257402Y-109660804D01*
X131257402Y-110070196D01*
X131219097Y-110044602D01*
X130995069Y-109951807D01*
X130757243Y-109904500D01*
X130514757Y-109904500D01*
X130276931Y-109951807D01*
X130052903Y-110044602D01*
X129851283Y-110179320D01*
X129679820Y-110350783D01*
X129545102Y-110552403D01*
X129452307Y-110776431D01*
X129405000Y-111014257D01*
X129405000Y-111256743D01*
X129452307Y-111494569D01*
X129545102Y-111718597D01*
X129679820Y-111920217D01*
X129851283Y-112091680D01*
X130052903Y-112226398D01*
X130276931Y-112319193D01*
X130514757Y-112366500D01*
X130757243Y-112366500D01*
X130995069Y-112319193D01*
X131219097Y-112226398D01*
X131257402Y-112200804D01*
X131257402Y-112610196D01*
X131219097Y-112584602D01*
X130995069Y-112491807D01*
X130757243Y-112444500D01*
X130514757Y-112444500D01*
X130276931Y-112491807D01*
X130052903Y-112584602D01*
X129851283Y-112719320D01*
X129679820Y-112890783D01*
X129545102Y-113092403D01*
X129452307Y-113316431D01*
X129405000Y-113554257D01*
X129405000Y-113796743D01*
X129452307Y-114034569D01*
X129545102Y-114258597D01*
X129679820Y-114460217D01*
X129851283Y-114631680D01*
X130052903Y-114766398D01*
X130276931Y-114859193D01*
X130514757Y-114906500D01*
X130757243Y-114906500D01*
X130995069Y-114859193D01*
X131219097Y-114766398D01*
X131257401Y-114740804D01*
X131257401Y-115150196D01*
X131219097Y-115124602D01*
X130995069Y-115031807D01*
X130757243Y-114984500D01*
X130514757Y-114984500D01*
X130276931Y-115031807D01*
X130052903Y-115124602D01*
X129851283Y-115259320D01*
X129679820Y-115430783D01*
X129545102Y-115632403D01*
X129452307Y-115856431D01*
X129405000Y-116094257D01*
X129405000Y-116336743D01*
X129452307Y-116574569D01*
X129545102Y-116798597D01*
X129679820Y-117000217D01*
X129851283Y-117171680D01*
X130052903Y-117306398D01*
X130276931Y-117399193D01*
X130514757Y-117446500D01*
X130757243Y-117446500D01*
X130995069Y-117399193D01*
X131219097Y-117306398D01*
X131257401Y-117280804D01*
X131257401Y-117690196D01*
X131219097Y-117664602D01*
X130995069Y-117571807D01*
X130757243Y-117524500D01*
X130514757Y-117524500D01*
X130276931Y-117571807D01*
X130052903Y-117664602D01*
X129851283Y-117799320D01*
X129679820Y-117970783D01*
X129545102Y-118172403D01*
X129452307Y-118396431D01*
X129405000Y-118634257D01*
X129405000Y-118876743D01*
X129452307Y-119114569D01*
X129545102Y-119338597D01*
X129679820Y-119540217D01*
X129851283Y-119711680D01*
X130052903Y-119846398D01*
X130276931Y-119939193D01*
X130514757Y-119986500D01*
X130757243Y-119986500D01*
X130995069Y-119939193D01*
X131219097Y-119846398D01*
X131257401Y-119820804D01*
X131257401Y-120230196D01*
X131219097Y-120204602D01*
X130995069Y-120111807D01*
X130757243Y-120064500D01*
X130514757Y-120064500D01*
X130276931Y-120111807D01*
X130052903Y-120204602D01*
X129851283Y-120339320D01*
X129679820Y-120510783D01*
X129545102Y-120712403D01*
X129452307Y-120936431D01*
X129405000Y-121174257D01*
X129405000Y-121416743D01*
X129452307Y-121654569D01*
X129545102Y-121878597D01*
X129679820Y-122080217D01*
X129851283Y-122251680D01*
X130052903Y-122386398D01*
X130276931Y-122479193D01*
X130514757Y-122526500D01*
X130757243Y-122526500D01*
X130995069Y-122479193D01*
X131219097Y-122386398D01*
X131257401Y-122360804D01*
X131257401Y-122770196D01*
X131219097Y-122744602D01*
X130995069Y-122651807D01*
X130757243Y-122604500D01*
X130514757Y-122604500D01*
X130276931Y-122651807D01*
X130052903Y-122744602D01*
X129851283Y-122879320D01*
X129679820Y-123050783D01*
X129545102Y-123252403D01*
X129452307Y-123476431D01*
X129405000Y-123714257D01*
X129405000Y-123956743D01*
X129452307Y-124194569D01*
X129545102Y-124418597D01*
X129679820Y-124620217D01*
X129851283Y-124791680D01*
X130052903Y-124926398D01*
X130276931Y-125019193D01*
X130514757Y-125066500D01*
X130757243Y-125066500D01*
X130995069Y-125019193D01*
X131219097Y-124926398D01*
X131257401Y-124900804D01*
X131257401Y-125107521D01*
X131120967Y-125243955D01*
X130995069Y-125191807D01*
X130757243Y-125144500D01*
X130514757Y-125144500D01*
X130276931Y-125191807D01*
X130052903Y-125284602D01*
X129851283Y-125419320D01*
X129679820Y-125590783D01*
X129545102Y-125792403D01*
X129452307Y-126016431D01*
X129405000Y-126254257D01*
X129405000Y-126496743D01*
X129452307Y-126734569D01*
X129545102Y-126958597D01*
X129679820Y-127160217D01*
X129851283Y-127331680D01*
X130052903Y-127466398D01*
X130276931Y-127559193D01*
X130514757Y-127606500D01*
X130757243Y-127606500D01*
X130995069Y-127559193D01*
X131219097Y-127466398D01*
X131420717Y-127331680D01*
X131562212Y-127190185D01*
X131562212Y-127342709D01*
X131120967Y-127783955D01*
X130995069Y-127731807D01*
X130757243Y-127684500D01*
X130514757Y-127684500D01*
X130276931Y-127731807D01*
X130052903Y-127824602D01*
X129851283Y-127959320D01*
X129679820Y-128130783D01*
X129545102Y-128332403D01*
X129452307Y-128556431D01*
X129405000Y-128794257D01*
X129405000Y-129036743D01*
X129452307Y-129274569D01*
X129545102Y-129498597D01*
X129679820Y-129700217D01*
X129851283Y-129871680D01*
X130052903Y-130006398D01*
X130276931Y-130099193D01*
X130514757Y-130146500D01*
X130757243Y-130146500D01*
X130995069Y-130099193D01*
X131219097Y-130006398D01*
X131420717Y-129871680D01*
X131592180Y-129700217D01*
X131726898Y-129498597D01*
X131819693Y-129274569D01*
X131867000Y-129036743D01*
X131867000Y-128794257D01*
X131819693Y-128556431D01*
X131767545Y-128430533D01*
X132326825Y-127871254D01*
X132344264Y-127856942D01*
X132358576Y-127839503D01*
X132358582Y-127839497D01*
X132401398Y-127787325D01*
X132443852Y-127707899D01*
X132451509Y-127682657D01*
X132469996Y-127621716D01*
X132476611Y-127554549D01*
X132476611Y-127554539D01*
X132478822Y-127532089D01*
X132476611Y-127509639D01*
X132476611Y-114935958D01*
X149796500Y-114935958D01*
X149796500Y-115061042D01*
X149820903Y-115183723D01*
X149868771Y-115299285D01*
X149938264Y-115403289D01*
X150026711Y-115491736D01*
X150130715Y-115561229D01*
X150246277Y-115609097D01*
X150368958Y-115633500D01*
X150429062Y-115633500D01*
X150430263Y-115634486D01*
X150509690Y-115676940D01*
X150595872Y-115703084D01*
X150663039Y-115709699D01*
X150663049Y-115709699D01*
X150685499Y-115711910D01*
X150707949Y-115709699D01*
X153393551Y-115709699D01*
X153416001Y-115711910D01*
X153438451Y-115709699D01*
X153438461Y-115709699D01*
X153505628Y-115703084D01*
X153591810Y-115676940D01*
X153671237Y-115634486D01*
X153740854Y-115577352D01*
X153755175Y-115559902D01*
X153872078Y-115443000D01*
X153923042Y-115443000D01*
X154045723Y-115418597D01*
X154161285Y-115370729D01*
X154265289Y-115301236D01*
X154353736Y-115212789D01*
X154423229Y-115108785D01*
X154471097Y-114993223D01*
X154495500Y-114870542D01*
X154495500Y-114745458D01*
X154471097Y-114622777D01*
X154423229Y-114507215D01*
X154353736Y-114403211D01*
X154265289Y-114314764D01*
X154161285Y-114245271D01*
X154045723Y-114197403D01*
X153923042Y-114173000D01*
X153797958Y-114173000D01*
X153675277Y-114197403D01*
X153559715Y-114245271D01*
X153455711Y-114314764D01*
X153367264Y-114403211D01*
X153297771Y-114507215D01*
X153249903Y-114622777D01*
X153225500Y-114745458D01*
X153225500Y-114795299D01*
X151034650Y-114795299D01*
X150994229Y-114697715D01*
X150924736Y-114593711D01*
X150836289Y-114505264D01*
X150732285Y-114435771D01*
X150616723Y-114387903D01*
X150494042Y-114363500D01*
X150368958Y-114363500D01*
X150246277Y-114387903D01*
X150130715Y-114435771D01*
X150026711Y-114505264D01*
X149938264Y-114593711D01*
X149868771Y-114697715D01*
X149820903Y-114813277D01*
X149796500Y-114935958D01*
X132476611Y-114935958D01*
X132476611Y-109919458D01*
X152527000Y-109919458D01*
X152527000Y-110044542D01*
X152551403Y-110167223D01*
X152599271Y-110282785D01*
X152668764Y-110386789D01*
X152757211Y-110475236D01*
X152861215Y-110544729D01*
X152976777Y-110592597D01*
X153099458Y-110617000D01*
X153224542Y-110617000D01*
X153347223Y-110592597D01*
X153462785Y-110544729D01*
X153566789Y-110475236D01*
X153602825Y-110439200D01*
X156822550Y-110439200D01*
X156845000Y-110441411D01*
X156867450Y-110439200D01*
X156867460Y-110439200D01*
X156934627Y-110432585D01*
X157020809Y-110406441D01*
X157100236Y-110363987D01*
X157169853Y-110306853D01*
X157184174Y-110289403D01*
X158168408Y-109305170D01*
X158185853Y-109290853D01*
X158242987Y-109221236D01*
X158285441Y-109141809D01*
X158311585Y-109055627D01*
X158318200Y-108988460D01*
X158318200Y-108988450D01*
X158320411Y-108966000D01*
X158318200Y-108943550D01*
X158318200Y-103945825D01*
X158354236Y-103909789D01*
X158423729Y-103805785D01*
X158471597Y-103690223D01*
X158496000Y-103567542D01*
X158496000Y-103442458D01*
X158471597Y-103319777D01*
X158423729Y-103204215D01*
X158354236Y-103100211D01*
X158265789Y-103011764D01*
X158161785Y-102942271D01*
X158046223Y-102894403D01*
X157923542Y-102870000D01*
X157798458Y-102870000D01*
X157675777Y-102894403D01*
X157560215Y-102942271D01*
X157456211Y-103011764D01*
X157367764Y-103100211D01*
X157298271Y-103204215D01*
X157250403Y-103319777D01*
X157226000Y-103442458D01*
X157226000Y-103567542D01*
X157250403Y-103690223D01*
X157298271Y-103805785D01*
X157367764Y-103909789D01*
X157403800Y-103945825D01*
X157403801Y-108435531D01*
X157403800Y-108435541D01*
X157403801Y-108776622D01*
X156655623Y-109524800D01*
X154765369Y-109524800D01*
X154788597Y-109468723D01*
X154813000Y-109346042D01*
X154813000Y-109220958D01*
X154788597Y-109098277D01*
X154740729Y-108982715D01*
X154671236Y-108878711D01*
X154635200Y-108842675D01*
X154635200Y-102360877D01*
X156780378Y-100215700D01*
X158626675Y-100215700D01*
X158662711Y-100251736D01*
X158766715Y-100321229D01*
X158882277Y-100369097D01*
X159004958Y-100393500D01*
X159130042Y-100393500D01*
X159252723Y-100369097D01*
X159368285Y-100321229D01*
X159472289Y-100251736D01*
X159560736Y-100163289D01*
X159630229Y-100059285D01*
X159678097Y-99943723D01*
X159702500Y-99821042D01*
X159702500Y-99695958D01*
X159678097Y-99573277D01*
X159630229Y-99457715D01*
X159560736Y-99353711D01*
X159472289Y-99265264D01*
X159368285Y-99195771D01*
X159252723Y-99147903D01*
X159130042Y-99123500D01*
X159004958Y-99123500D01*
X158882277Y-99147903D01*
X158766715Y-99195771D01*
X158662711Y-99265264D01*
X158626675Y-99301300D01*
X156613449Y-99301300D01*
X156590999Y-99299089D01*
X156568549Y-99301300D01*
X156568540Y-99301300D01*
X156501373Y-99307915D01*
X156415191Y-99334059D01*
X156378424Y-99353711D01*
X156335763Y-99376513D01*
X156283592Y-99419330D01*
X156266147Y-99433647D01*
X156251830Y-99451092D01*
X153870597Y-101832326D01*
X153853147Y-101846647D01*
X153796013Y-101916265D01*
X153753559Y-101995692D01*
X153727415Y-102081874D01*
X153720800Y-102149041D01*
X153720800Y-102149050D01*
X153718589Y-102171500D01*
X153720800Y-102193950D01*
X153720801Y-108842674D01*
X153684764Y-108878711D01*
X153615271Y-108982715D01*
X153567403Y-109098277D01*
X153543000Y-109220958D01*
X153543000Y-109346042D01*
X153567403Y-109468723D01*
X153582009Y-109503984D01*
X153566789Y-109488764D01*
X153462785Y-109419271D01*
X153347223Y-109371403D01*
X153224542Y-109347000D01*
X153099458Y-109347000D01*
X152976777Y-109371403D01*
X152861215Y-109419271D01*
X152757211Y-109488764D01*
X152668764Y-109577211D01*
X152599271Y-109681215D01*
X152551403Y-109796777D01*
X152527000Y-109919458D01*
X132476611Y-109919458D01*
X132476611Y-100482361D01*
X132478822Y-100459911D01*
X132476611Y-100437461D01*
X132476611Y-100437451D01*
X132469996Y-100370284D01*
X132443852Y-100284102D01*
X132401398Y-100204675D01*
X132344264Y-100135058D01*
X132326820Y-100120742D01*
X120637320Y-88431243D01*
X120637320Y-79068323D01*
X121727634Y-77978010D01*
X131330820Y-77978008D01*
X131318000Y-78042458D01*
X131318000Y-78167542D01*
X131342403Y-78290223D01*
X131390271Y-78405785D01*
X131459764Y-78509789D01*
X131548211Y-78598236D01*
X131652215Y-78667729D01*
X131767777Y-78715597D01*
X131890458Y-78740000D01*
X132015542Y-78740000D01*
X132138223Y-78715597D01*
X132253785Y-78667729D01*
X132335693Y-78613000D01*
X132875464Y-78613000D01*
X132900408Y-78615457D01*
X132925352Y-78613000D01*
X132925355Y-78613000D01*
X132999993Y-78605649D01*
X133095751Y-78576601D01*
X133184003Y-78529429D01*
X133261356Y-78465948D01*
X133277263Y-78446565D01*
X137665229Y-74058599D01*
X139935068Y-74058599D01*
X139821555Y-74228483D01*
X139709914Y-74498008D01*
X139653000Y-74784134D01*
X139653000Y-75075866D01*
X139709914Y-75361992D01*
X139821555Y-75631517D01*
X139983632Y-75874083D01*
X140189917Y-76080368D01*
X140432483Y-76242445D01*
X140702008Y-76354086D01*
X140988134Y-76411000D01*
X141279866Y-76411000D01*
X141565992Y-76354086D01*
X141835517Y-76242445D01*
X142078083Y-76080368D01*
X142284368Y-75874083D01*
X142446445Y-75631517D01*
X142558086Y-75361992D01*
X142615000Y-75075866D01*
X142615000Y-74784134D01*
X142558086Y-74498008D01*
X142446445Y-74228483D01*
X142332932Y-74058599D01*
X144183113Y-74058599D01*
X144208958Y-74120994D01*
X144310845Y-74273478D01*
X144342367Y-74305000D01*
X144310845Y-74336522D01*
X144208958Y-74489006D01*
X144138778Y-74658437D01*
X144103000Y-74838304D01*
X144103000Y-75021696D01*
X144138778Y-75201563D01*
X144208958Y-75370994D01*
X144310845Y-75523478D01*
X144440522Y-75653155D01*
X144593006Y-75755042D01*
X144762437Y-75825222D01*
X144942304Y-75861000D01*
X145125696Y-75861000D01*
X145226524Y-75840944D01*
X146181150Y-76795571D01*
X146197052Y-76814948D01*
X146216429Y-76830850D01*
X146274404Y-76878429D01*
X146314265Y-76899735D01*
X146362657Y-76925601D01*
X146458415Y-76954649D01*
X146533053Y-76962000D01*
X146533055Y-76962000D01*
X146557999Y-76964457D01*
X146582943Y-76962000D01*
X161138056Y-76962000D01*
X161163000Y-76964457D01*
X161187944Y-76962000D01*
X161187947Y-76962000D01*
X161262585Y-76954649D01*
X161358343Y-76925601D01*
X161446595Y-76878429D01*
X161523948Y-76814948D01*
X161539855Y-76795565D01*
X162584065Y-75751355D01*
X162603448Y-75735448D01*
X162651707Y-75676643D01*
X162783632Y-75874083D01*
X162989917Y-76080368D01*
X163232483Y-76242445D01*
X163502008Y-76354086D01*
X163788134Y-76411000D01*
X164079866Y-76411000D01*
X164365992Y-76354086D01*
X164635517Y-76242445D01*
X164878083Y-76080368D01*
X165084368Y-75874083D01*
X165246445Y-75631517D01*
X165358086Y-75361992D01*
X165415000Y-75075866D01*
X165415000Y-74930958D01*
X173799500Y-74930958D01*
X173799500Y-75056042D01*
X173823903Y-75178723D01*
X173871771Y-75294285D01*
X173926501Y-75376194D01*
X173926500Y-79627307D01*
X173871771Y-79709215D01*
X173823903Y-79824777D01*
X173799500Y-79947458D01*
X173799500Y-80072542D01*
X173823903Y-80195223D01*
X173871771Y-80310785D01*
X173941264Y-80414789D01*
X174029711Y-80503236D01*
X174133715Y-80572729D01*
X174249277Y-80620597D01*
X174371958Y-80645000D01*
X174497042Y-80645000D01*
X174619723Y-80620597D01*
X174735285Y-80572729D01*
X174839289Y-80503236D01*
X174927736Y-80414789D01*
X174997229Y-80310785D01*
X175045097Y-80195223D01*
X175069500Y-80072542D01*
X175069500Y-79947458D01*
X175045097Y-79824777D01*
X174997229Y-79709215D01*
X174942500Y-79627307D01*
X174942500Y-75376193D01*
X174997229Y-75294285D01*
X175045097Y-75178723D01*
X175069500Y-75056042D01*
X175069500Y-74930958D01*
X175045097Y-74808277D01*
X174997229Y-74692715D01*
X174927736Y-74588711D01*
X174839289Y-74500264D01*
X174735285Y-74430771D01*
X174619723Y-74382903D01*
X174497042Y-74358500D01*
X174371958Y-74358500D01*
X174249277Y-74382903D01*
X174133715Y-74430771D01*
X174029711Y-74500264D01*
X173941264Y-74588711D01*
X173871771Y-74692715D01*
X173823903Y-74808277D01*
X173799500Y-74930958D01*
X165415000Y-74930958D01*
X165415000Y-74784134D01*
X165358086Y-74498008D01*
X165246445Y-74228483D01*
X165084368Y-73985917D01*
X164878083Y-73779632D01*
X164635517Y-73617555D01*
X164365992Y-73505914D01*
X164079866Y-73449000D01*
X163788134Y-73449000D01*
X163502008Y-73505914D01*
X163383362Y-73555059D01*
X163595921Y-73342500D01*
X171638807Y-73342500D01*
X171720715Y-73397229D01*
X171836277Y-73445097D01*
X171958958Y-73469500D01*
X172084042Y-73469500D01*
X172206723Y-73445097D01*
X172322285Y-73397229D01*
X172426289Y-73327736D01*
X172514736Y-73239289D01*
X172584229Y-73135285D01*
X172632097Y-73019723D01*
X172656500Y-72897042D01*
X172656500Y-72771958D01*
X172633395Y-72655801D01*
X180975224Y-72655801D01*
X181914801Y-73595379D01*
X181914801Y-73607954D01*
X181910785Y-73605271D01*
X181795223Y-73557403D01*
X181672542Y-73533000D01*
X181547458Y-73533000D01*
X181424777Y-73557403D01*
X181309215Y-73605271D01*
X181227307Y-73660000D01*
X177888443Y-73660000D01*
X177863499Y-73657543D01*
X177838555Y-73660000D01*
X177838553Y-73660000D01*
X177763915Y-73667351D01*
X177668157Y-73696399D01*
X177668155Y-73696400D01*
X177579904Y-73743571D01*
X177555973Y-73763211D01*
X177502552Y-73807052D01*
X177486650Y-73826429D01*
X175553430Y-75759650D01*
X175534053Y-75775552D01*
X175518151Y-75794929D01*
X175518150Y-75794930D01*
X175470571Y-75852905D01*
X175423400Y-75941157D01*
X175400823Y-76015585D01*
X175394352Y-76036916D01*
X175384543Y-76136500D01*
X175387001Y-76161454D01*
X175387000Y-79990080D01*
X174605080Y-80772000D01*
X173229693Y-80772000D01*
X173147785Y-80717271D01*
X173032223Y-80669403D01*
X172909542Y-80645000D01*
X172784458Y-80645000D01*
X172661777Y-80669403D01*
X172546215Y-80717271D01*
X172464307Y-80772000D01*
X170435693Y-80772000D01*
X170353785Y-80717271D01*
X170238223Y-80669403D01*
X170115542Y-80645000D01*
X169990458Y-80645000D01*
X169867777Y-80669403D01*
X169752215Y-80717271D01*
X169670307Y-80772000D01*
X167641693Y-80772000D01*
X167559785Y-80717271D01*
X167444223Y-80669403D01*
X167321542Y-80645000D01*
X167196458Y-80645000D01*
X167073777Y-80669403D01*
X166958215Y-80717271D01*
X166876307Y-80772000D01*
X164847693Y-80772000D01*
X164765785Y-80717271D01*
X164650223Y-80669403D01*
X164527542Y-80645000D01*
X164402458Y-80645000D01*
X164279777Y-80669403D01*
X164164215Y-80717271D01*
X164082307Y-80772000D01*
X162053693Y-80772000D01*
X161971785Y-80717271D01*
X161856223Y-80669403D01*
X161733542Y-80645000D01*
X161608458Y-80645000D01*
X161485777Y-80669403D01*
X161370215Y-80717271D01*
X161288307Y-80772000D01*
X159259693Y-80772000D01*
X159177785Y-80717271D01*
X159062223Y-80669403D01*
X158939542Y-80645000D01*
X158814458Y-80645000D01*
X158691777Y-80669403D01*
X158576215Y-80717271D01*
X158494307Y-80772000D01*
X156465693Y-80772000D01*
X156383785Y-80717271D01*
X156268223Y-80669403D01*
X156145542Y-80645000D01*
X156020458Y-80645000D01*
X155897777Y-80669403D01*
X155782215Y-80717271D01*
X155700307Y-80772000D01*
X153671693Y-80772000D01*
X153589785Y-80717271D01*
X153474223Y-80669403D01*
X153351542Y-80645000D01*
X153226458Y-80645000D01*
X153103777Y-80669403D01*
X152988215Y-80717271D01*
X152906307Y-80772000D01*
X151004693Y-80772000D01*
X150922785Y-80717271D01*
X150807223Y-80669403D01*
X150684542Y-80645000D01*
X150559458Y-80645000D01*
X150436777Y-80669403D01*
X150321215Y-80717271D01*
X150239307Y-80772000D01*
X148083693Y-80772000D01*
X148001785Y-80717271D01*
X147886223Y-80669403D01*
X147763542Y-80645000D01*
X147638458Y-80645000D01*
X147515777Y-80669403D01*
X147400215Y-80717271D01*
X147318307Y-80772000D01*
X145289693Y-80772000D01*
X145207785Y-80717271D01*
X145092223Y-80669403D01*
X144969542Y-80645000D01*
X144844458Y-80645000D01*
X144721777Y-80669403D01*
X144606215Y-80717271D01*
X144524307Y-80772000D01*
X142584679Y-80772000D01*
X142540785Y-80742671D01*
X142425223Y-80694803D01*
X142302542Y-80670400D01*
X142177458Y-80670400D01*
X142054777Y-80694803D01*
X141939215Y-80742671D01*
X141895321Y-80772000D01*
X139701693Y-80772000D01*
X139619785Y-80717271D01*
X139504223Y-80669403D01*
X139381542Y-80645000D01*
X139256458Y-80645000D01*
X139133777Y-80669403D01*
X139018215Y-80717271D01*
X138936307Y-80772000D01*
X136907693Y-80772000D01*
X136825785Y-80717271D01*
X136710223Y-80669403D01*
X136587542Y-80645000D01*
X136462458Y-80645000D01*
X136339777Y-80669403D01*
X136224215Y-80717271D01*
X136142307Y-80772000D01*
X134240693Y-80772000D01*
X134158785Y-80717271D01*
X134043223Y-80669403D01*
X133920542Y-80645000D01*
X133795458Y-80645000D01*
X133672777Y-80669403D01*
X133557215Y-80717271D01*
X133475307Y-80772000D01*
X132589693Y-80772000D01*
X132507785Y-80717271D01*
X132392223Y-80669403D01*
X132269542Y-80645000D01*
X132144458Y-80645000D01*
X132021777Y-80669403D01*
X131906215Y-80717271D01*
X131824307Y-80772000D01*
X129160693Y-80772000D01*
X129078785Y-80717271D01*
X128963223Y-80669403D01*
X128840542Y-80645000D01*
X128715458Y-80645000D01*
X128592777Y-80669403D01*
X128477215Y-80717271D01*
X128395307Y-80772000D01*
X126643944Y-80772000D01*
X126619000Y-80769543D01*
X126594056Y-80772000D01*
X126594053Y-80772000D01*
X126519415Y-80779351D01*
X126423657Y-80808399D01*
X126335405Y-80855571D01*
X126258052Y-80919052D01*
X126242145Y-80938435D01*
X125895396Y-81285184D01*
X125798777Y-81304403D01*
X125683215Y-81352271D01*
X125579211Y-81421764D01*
X125490764Y-81510211D01*
X125421271Y-81614215D01*
X125373403Y-81729777D01*
X125349000Y-81852458D01*
X125349000Y-81977542D01*
X125373403Y-82100223D01*
X125421271Y-82215785D01*
X125490764Y-82319789D01*
X125579211Y-82408236D01*
X125683215Y-82477729D01*
X125798777Y-82525597D01*
X125921458Y-82550000D01*
X126046542Y-82550000D01*
X126169223Y-82525597D01*
X126284785Y-82477729D01*
X126388789Y-82408236D01*
X126477236Y-82319789D01*
X126546729Y-82215785D01*
X126594597Y-82100223D01*
X126613816Y-82003604D01*
X126829420Y-81788000D01*
X128395307Y-81788000D01*
X128477215Y-81842729D01*
X128592777Y-81890597D01*
X128715458Y-81915000D01*
X128840542Y-81915000D01*
X128963223Y-81890597D01*
X129078785Y-81842729D01*
X129160693Y-81788000D01*
X131824307Y-81788000D01*
X131906215Y-81842729D01*
X132021777Y-81890597D01*
X132144458Y-81915000D01*
X132269542Y-81915000D01*
X132392223Y-81890597D01*
X132507785Y-81842729D01*
X132589693Y-81788000D01*
X133475307Y-81788000D01*
X133557215Y-81842729D01*
X133672777Y-81890597D01*
X133795458Y-81915000D01*
X133920542Y-81915000D01*
X134043223Y-81890597D01*
X134158785Y-81842729D01*
X134240693Y-81788000D01*
X136142307Y-81788000D01*
X136224215Y-81842729D01*
X136339777Y-81890597D01*
X136462458Y-81915000D01*
X136587542Y-81915000D01*
X136710223Y-81890597D01*
X136825785Y-81842729D01*
X136907693Y-81788000D01*
X138936307Y-81788000D01*
X139018215Y-81842729D01*
X139133777Y-81890597D01*
X139256458Y-81915000D01*
X139381542Y-81915000D01*
X139504223Y-81890597D01*
X139619785Y-81842729D01*
X139701693Y-81788000D01*
X141824575Y-81788000D01*
X141835211Y-81798636D01*
X141939215Y-81868129D01*
X142054777Y-81915997D01*
X142177458Y-81940400D01*
X142302542Y-81940400D01*
X142425223Y-81915997D01*
X142540785Y-81868129D01*
X142644789Y-81798636D01*
X142655425Y-81788000D01*
X144524307Y-81788000D01*
X144606215Y-81842729D01*
X144721777Y-81890597D01*
X144844458Y-81915000D01*
X144969542Y-81915000D01*
X145092223Y-81890597D01*
X145207785Y-81842729D01*
X145289693Y-81788000D01*
X147318307Y-81788000D01*
X147400215Y-81842729D01*
X147515777Y-81890597D01*
X147638458Y-81915000D01*
X147763542Y-81915000D01*
X147886223Y-81890597D01*
X148001785Y-81842729D01*
X148083693Y-81788000D01*
X150239307Y-81788000D01*
X150321215Y-81842729D01*
X150436777Y-81890597D01*
X150559458Y-81915000D01*
X150684542Y-81915000D01*
X150807223Y-81890597D01*
X150922785Y-81842729D01*
X151004693Y-81788000D01*
X152906307Y-81788000D01*
X152988215Y-81842729D01*
X153103777Y-81890597D01*
X153226458Y-81915000D01*
X153351542Y-81915000D01*
X153474223Y-81890597D01*
X153589785Y-81842729D01*
X153671693Y-81788000D01*
X155700307Y-81788000D01*
X155782215Y-81842729D01*
X155897777Y-81890597D01*
X156020458Y-81915000D01*
X156145542Y-81915000D01*
X156268223Y-81890597D01*
X156383785Y-81842729D01*
X156465693Y-81788000D01*
X158494307Y-81788000D01*
X158576215Y-81842729D01*
X158691777Y-81890597D01*
X158814458Y-81915000D01*
X158939542Y-81915000D01*
X159062223Y-81890597D01*
X159177785Y-81842729D01*
X159259693Y-81788000D01*
X161288307Y-81788000D01*
X161370215Y-81842729D01*
X161485777Y-81890597D01*
X161608458Y-81915000D01*
X161733542Y-81915000D01*
X161856223Y-81890597D01*
X161971785Y-81842729D01*
X162053693Y-81788000D01*
X164082307Y-81788000D01*
X164164215Y-81842729D01*
X164279777Y-81890597D01*
X164402458Y-81915000D01*
X164527542Y-81915000D01*
X164650223Y-81890597D01*
X164765785Y-81842729D01*
X164847693Y-81788000D01*
X166876307Y-81788000D01*
X166958215Y-81842729D01*
X167073777Y-81890597D01*
X167196458Y-81915000D01*
X167321542Y-81915000D01*
X167444223Y-81890597D01*
X167559785Y-81842729D01*
X167641693Y-81788000D01*
X169670307Y-81788000D01*
X169752215Y-81842729D01*
X169867777Y-81890597D01*
X169990458Y-81915000D01*
X170115542Y-81915000D01*
X170238223Y-81890597D01*
X170353785Y-81842729D01*
X170435693Y-81788000D01*
X172464307Y-81788000D01*
X172546215Y-81842729D01*
X172661777Y-81890597D01*
X172784458Y-81915000D01*
X172909542Y-81915000D01*
X173032223Y-81890597D01*
X173147785Y-81842729D01*
X173229693Y-81788000D01*
X174790556Y-81788000D01*
X174815500Y-81790457D01*
X174840444Y-81788000D01*
X174840447Y-81788000D01*
X174915085Y-81780649D01*
X175010843Y-81751601D01*
X175099095Y-81704429D01*
X175176448Y-81640948D01*
X175192355Y-81621565D01*
X176236565Y-80577355D01*
X176255948Y-80561448D01*
X176319429Y-80484095D01*
X176366601Y-80395843D01*
X176395649Y-80300085D01*
X176403000Y-80225447D01*
X176403000Y-80225444D01*
X176405457Y-80200500D01*
X176403000Y-80175556D01*
X176403000Y-76346920D01*
X178073921Y-74676000D01*
X181227307Y-74676000D01*
X181309215Y-74730729D01*
X181424777Y-74778597D01*
X181547458Y-74803000D01*
X181672542Y-74803000D01*
X181795223Y-74778597D01*
X181910785Y-74730729D01*
X181914800Y-74728046D01*
X181914800Y-75121622D01*
X178762593Y-78273830D01*
X178745148Y-78288147D01*
X178730831Y-78305592D01*
X178730830Y-78305593D01*
X178688013Y-78357765D01*
X178654998Y-78419534D01*
X178645560Y-78437191D01*
X178619416Y-78523373D01*
X178617442Y-78543415D01*
X178610589Y-78613000D01*
X178612801Y-78635460D01*
X178612800Y-90043000D01*
X178524858Y-90043000D01*
X178402177Y-90067403D01*
X178286615Y-90115271D01*
X178182611Y-90184764D01*
X178094164Y-90273211D01*
X178024671Y-90377215D01*
X177976803Y-90492777D01*
X177952400Y-90615458D01*
X177952400Y-90740542D01*
X177976803Y-90863223D01*
X178024671Y-90978785D01*
X178094164Y-91082789D01*
X178130201Y-91118826D01*
X178130200Y-92558722D01*
X170139283Y-100549640D01*
X170121838Y-100563957D01*
X170107521Y-100581402D01*
X170107520Y-100581403D01*
X170064704Y-100633574D01*
X170022250Y-100713001D01*
X170003969Y-100773265D01*
X169996106Y-100799184D01*
X169987279Y-100888810D01*
X169989491Y-100911270D01*
X169989490Y-114745622D01*
X168989948Y-115745165D01*
X168989937Y-115745174D01*
X167209313Y-117525800D01*
X150300825Y-117525800D01*
X150264789Y-117489764D01*
X150160785Y-117420271D01*
X150045223Y-117372403D01*
X149922542Y-117348000D01*
X149797458Y-117348000D01*
X149674777Y-117372403D01*
X149559215Y-117420271D01*
X149455211Y-117489764D01*
X149366764Y-117578211D01*
X149297271Y-117682215D01*
X149249403Y-117797777D01*
X149225000Y-117920458D01*
X149225000Y-118045542D01*
X149249403Y-118168223D01*
X149297271Y-118283785D01*
X149366764Y-118387789D01*
X149455211Y-118476236D01*
X149559215Y-118545729D01*
X149674777Y-118593597D01*
X149797458Y-118618000D01*
X149922542Y-118618000D01*
X150045223Y-118593597D01*
X150160785Y-118545729D01*
X150264789Y-118476236D01*
X150300825Y-118440200D01*
X167376240Y-118440200D01*
X167398690Y-118442411D01*
X167421140Y-118440200D01*
X167421150Y-118440200D01*
X167488317Y-118433585D01*
X167574499Y-118407441D01*
X167653926Y-118364987D01*
X167723543Y-118307853D01*
X167737864Y-118290403D01*
X169636516Y-116391753D01*
X169636525Y-116391742D01*
X170294300Y-115733967D01*
X170294300Y-127575175D01*
X170258264Y-127611211D01*
X170188771Y-127715215D01*
X170140903Y-127830777D01*
X170116500Y-127953458D01*
X170116500Y-128078542D01*
X170140903Y-128201223D01*
X170188771Y-128316785D01*
X170258264Y-128420789D01*
X170346711Y-128509236D01*
X170450715Y-128578729D01*
X170566277Y-128626597D01*
X170688958Y-128651000D01*
X170814042Y-128651000D01*
X170936723Y-128626597D01*
X171052285Y-128578729D01*
X171156289Y-128509236D01*
X171244736Y-128420789D01*
X171314229Y-128316785D01*
X171362097Y-128201223D01*
X171386500Y-128078542D01*
X171386500Y-128065500D01*
X175903157Y-128065500D01*
X175903157Y-129765500D01*
X175910513Y-129840189D01*
X175932299Y-129912008D01*
X175967678Y-129978196D01*
X176015289Y-130036211D01*
X176073304Y-130083822D01*
X176139492Y-130119201D01*
X176211311Y-130140987D01*
X176286000Y-130148343D01*
X177986000Y-130148343D01*
X178060689Y-130140987D01*
X178132508Y-130119201D01*
X178198696Y-130083822D01*
X178256711Y-130036211D01*
X178304322Y-129978196D01*
X178339701Y-129912008D01*
X178361487Y-129840189D01*
X178368843Y-129765500D01*
X178368843Y-128065500D01*
X178361487Y-127990811D01*
X178339701Y-127918992D01*
X178304322Y-127852804D01*
X178256711Y-127794789D01*
X178198696Y-127747178D01*
X178132508Y-127711799D01*
X178060689Y-127690013D01*
X177986000Y-127682657D01*
X176286000Y-127682657D01*
X176211311Y-127690013D01*
X176139492Y-127711799D01*
X176073304Y-127747178D01*
X176015289Y-127794789D01*
X175967678Y-127852804D01*
X175932299Y-127918992D01*
X175910513Y-127990811D01*
X175903157Y-128065500D01*
X171386500Y-128065500D01*
X171386500Y-127953458D01*
X171362097Y-127830777D01*
X171314229Y-127715215D01*
X171244736Y-127611211D01*
X171208700Y-127575175D01*
X171208700Y-126254257D01*
X175905000Y-126254257D01*
X175905000Y-126496743D01*
X175952307Y-126734569D01*
X176045102Y-126958597D01*
X176179820Y-127160217D01*
X176351283Y-127331680D01*
X176552903Y-127466398D01*
X176776931Y-127559193D01*
X177014757Y-127606500D01*
X177257243Y-127606500D01*
X177495069Y-127559193D01*
X177719097Y-127466398D01*
X177920717Y-127331680D01*
X178092180Y-127160217D01*
X178226898Y-126958597D01*
X178319693Y-126734569D01*
X178367000Y-126496743D01*
X178367000Y-126254257D01*
X178319693Y-126016431D01*
X178226898Y-125792403D01*
X178092180Y-125590783D01*
X177920717Y-125419320D01*
X177719097Y-125284602D01*
X177495069Y-125191807D01*
X177257243Y-125144500D01*
X177014757Y-125144500D01*
X176776931Y-125191807D01*
X176552903Y-125284602D01*
X176351283Y-125419320D01*
X176179820Y-125590783D01*
X176045102Y-125792403D01*
X175952307Y-126016431D01*
X175905000Y-126254257D01*
X171208700Y-126254257D01*
X171208700Y-125814200D01*
X171210764Y-125817289D01*
X171299211Y-125905736D01*
X171403215Y-125975229D01*
X171518777Y-126023097D01*
X171641458Y-126047500D01*
X171766542Y-126047500D01*
X171889223Y-126023097D01*
X172004785Y-125975229D01*
X172108789Y-125905736D01*
X172197236Y-125817289D01*
X172266729Y-125713285D01*
X172314597Y-125597723D01*
X172339000Y-125475042D01*
X172339000Y-125349958D01*
X172314597Y-125227277D01*
X172266729Y-125111715D01*
X172197236Y-125007711D01*
X172161200Y-124971675D01*
X172161200Y-123714257D01*
X175905000Y-123714257D01*
X175905000Y-123956743D01*
X175952307Y-124194569D01*
X176045102Y-124418597D01*
X176179820Y-124620217D01*
X176351283Y-124791680D01*
X176552903Y-124926398D01*
X176776931Y-125019193D01*
X177014757Y-125066500D01*
X177257243Y-125066500D01*
X177495069Y-125019193D01*
X177719097Y-124926398D01*
X177920717Y-124791680D01*
X178092180Y-124620217D01*
X178226898Y-124418597D01*
X178319693Y-124194569D01*
X178367000Y-123956743D01*
X178367000Y-123714257D01*
X178319693Y-123476431D01*
X178226898Y-123252403D01*
X178092180Y-123050783D01*
X177920717Y-122879320D01*
X177719097Y-122744602D01*
X177495069Y-122651807D01*
X177257243Y-122604500D01*
X177014757Y-122604500D01*
X176776931Y-122651807D01*
X176552903Y-122744602D01*
X176351283Y-122879320D01*
X176179820Y-123050783D01*
X176045102Y-123252403D01*
X175952307Y-123476431D01*
X175905000Y-123714257D01*
X172161200Y-123714257D01*
X172161200Y-121174257D01*
X175905000Y-121174257D01*
X175905000Y-121416743D01*
X175952307Y-121654569D01*
X176045102Y-121878597D01*
X176179820Y-122080217D01*
X176351283Y-122251680D01*
X176552903Y-122386398D01*
X176776931Y-122479193D01*
X177014757Y-122526500D01*
X177257243Y-122526500D01*
X177495069Y-122479193D01*
X177719097Y-122386398D01*
X177920717Y-122251680D01*
X178092180Y-122080217D01*
X178226898Y-121878597D01*
X178319693Y-121654569D01*
X178367000Y-121416743D01*
X178367000Y-121174257D01*
X178319693Y-120936431D01*
X178226898Y-120712403D01*
X178092180Y-120510783D01*
X177920717Y-120339320D01*
X177719097Y-120204602D01*
X177495069Y-120111807D01*
X177257243Y-120064500D01*
X177014757Y-120064500D01*
X176776931Y-120111807D01*
X176552903Y-120204602D01*
X176351283Y-120339320D01*
X176179820Y-120510783D01*
X176045102Y-120712403D01*
X175952307Y-120936431D01*
X175905000Y-121174257D01*
X172161200Y-121174257D01*
X172161200Y-118634257D01*
X175905000Y-118634257D01*
X175905000Y-118876743D01*
X175952307Y-119114569D01*
X176045102Y-119338597D01*
X176179820Y-119540217D01*
X176351283Y-119711680D01*
X176552903Y-119846398D01*
X176776931Y-119939193D01*
X177014757Y-119986500D01*
X177257243Y-119986500D01*
X177495069Y-119939193D01*
X177719097Y-119846398D01*
X177920717Y-119711680D01*
X178092180Y-119540217D01*
X178226898Y-119338597D01*
X178319693Y-119114569D01*
X178367000Y-118876743D01*
X178367000Y-118634257D01*
X178319693Y-118396431D01*
X178226898Y-118172403D01*
X178092180Y-117970783D01*
X177920717Y-117799320D01*
X177719097Y-117664602D01*
X177495069Y-117571807D01*
X177257243Y-117524500D01*
X177014757Y-117524500D01*
X176776931Y-117571807D01*
X176552903Y-117664602D01*
X176351283Y-117799320D01*
X176179820Y-117970783D01*
X176045102Y-118172403D01*
X175952307Y-118396431D01*
X175905000Y-118634257D01*
X172161200Y-118634257D01*
X172161200Y-116094257D01*
X175905000Y-116094257D01*
X175905000Y-116336743D01*
X175952307Y-116574569D01*
X176045102Y-116798597D01*
X176179820Y-117000217D01*
X176351283Y-117171680D01*
X176552903Y-117306398D01*
X176776931Y-117399193D01*
X177014757Y-117446500D01*
X177257243Y-117446500D01*
X177495069Y-117399193D01*
X177719097Y-117306398D01*
X177920717Y-117171680D01*
X178092180Y-117000217D01*
X178226898Y-116798597D01*
X178319693Y-116574569D01*
X178367000Y-116336743D01*
X178367000Y-116094257D01*
X178319693Y-115856431D01*
X178226898Y-115632403D01*
X178092180Y-115430783D01*
X177920717Y-115259320D01*
X177719097Y-115124602D01*
X177495069Y-115031807D01*
X177257243Y-114984500D01*
X177014757Y-114984500D01*
X176776931Y-115031807D01*
X176552903Y-115124602D01*
X176351283Y-115259320D01*
X176179820Y-115430783D01*
X176045102Y-115632403D01*
X175952307Y-115856431D01*
X175905000Y-116094257D01*
X172161200Y-116094257D01*
X172161200Y-113554257D01*
X175905000Y-113554257D01*
X175905000Y-113796743D01*
X175952307Y-114034569D01*
X176045102Y-114258597D01*
X176179820Y-114460217D01*
X176351283Y-114631680D01*
X176552903Y-114766398D01*
X176776931Y-114859193D01*
X177014757Y-114906500D01*
X177257243Y-114906500D01*
X177495069Y-114859193D01*
X177719097Y-114766398D01*
X177920717Y-114631680D01*
X178092180Y-114460217D01*
X178226898Y-114258597D01*
X178319693Y-114034569D01*
X178367000Y-113796743D01*
X178367000Y-113554257D01*
X178319693Y-113316431D01*
X178226898Y-113092403D01*
X178092180Y-112890783D01*
X177920717Y-112719320D01*
X177719097Y-112584602D01*
X177495069Y-112491807D01*
X177257243Y-112444500D01*
X177014757Y-112444500D01*
X176776931Y-112491807D01*
X176552903Y-112584602D01*
X176351283Y-112719320D01*
X176179820Y-112890783D01*
X176045102Y-113092403D01*
X175952307Y-113316431D01*
X175905000Y-113554257D01*
X172161200Y-113554257D01*
X172161200Y-111014257D01*
X175905000Y-111014257D01*
X175905000Y-111256743D01*
X175952307Y-111494569D01*
X176045102Y-111718597D01*
X176179820Y-111920217D01*
X176351283Y-112091680D01*
X176552903Y-112226398D01*
X176776931Y-112319193D01*
X177014757Y-112366500D01*
X177257243Y-112366500D01*
X177495069Y-112319193D01*
X177719097Y-112226398D01*
X177920717Y-112091680D01*
X178092180Y-111920217D01*
X178226898Y-111718597D01*
X178319693Y-111494569D01*
X178367000Y-111256743D01*
X178367000Y-111014257D01*
X178319693Y-110776431D01*
X178226898Y-110552403D01*
X178092180Y-110350783D01*
X177920717Y-110179320D01*
X177719097Y-110044602D01*
X177495069Y-109951807D01*
X177257243Y-109904500D01*
X177014757Y-109904500D01*
X176776931Y-109951807D01*
X176552903Y-110044602D01*
X176351283Y-110179320D01*
X176179820Y-110350783D01*
X176045102Y-110552403D01*
X175952307Y-110776431D01*
X175905000Y-111014257D01*
X172161200Y-111014257D01*
X172161200Y-105698610D01*
X175694524Y-105698610D01*
X175815845Y-105928500D01*
X177009000Y-105928500D01*
X177009000Y-104734686D01*
X176779109Y-104614019D01*
X176504748Y-104711343D01*
X176254645Y-104860322D01*
X176038412Y-105055231D01*
X175864359Y-105288580D01*
X175739175Y-105551401D01*
X175694524Y-105698610D01*
X172161200Y-105698610D01*
X172161200Y-100709877D01*
X180012415Y-92858664D01*
X180029853Y-92844353D01*
X180044165Y-92826914D01*
X180044171Y-92826908D01*
X180086987Y-92774736D01*
X180129441Y-92695310D01*
X180140615Y-92658474D01*
X180155585Y-92609127D01*
X180162200Y-92541960D01*
X180162200Y-92541950D01*
X180164411Y-92519500D01*
X180162200Y-92497050D01*
X180162200Y-79434825D01*
X180198236Y-79398789D01*
X180267729Y-79294785D01*
X180315597Y-79179223D01*
X180340000Y-79056542D01*
X180340000Y-78931458D01*
X180315597Y-78808777D01*
X180267729Y-78693215D01*
X180198236Y-78589211D01*
X180109789Y-78500764D01*
X180005785Y-78431271D01*
X179929786Y-78399791D01*
X182679409Y-75650169D01*
X182696853Y-75635853D01*
X182753987Y-75566236D01*
X182796441Y-75486809D01*
X182822585Y-75400627D01*
X182829200Y-75333460D01*
X182829200Y-75333451D01*
X182831411Y-75311001D01*
X182829200Y-75288551D01*
X182829200Y-73428449D01*
X182831411Y-73405999D01*
X182829200Y-73383549D01*
X182829200Y-73383540D01*
X182822585Y-73316373D01*
X182796441Y-73230191D01*
X182753987Y-73150764D01*
X182696853Y-73081147D01*
X182679408Y-73066830D01*
X181863820Y-72251243D01*
X182333000Y-72251243D01*
X182407689Y-72243887D01*
X182479508Y-72222101D01*
X182545696Y-72186722D01*
X182603711Y-72139111D01*
X182651322Y-72081096D01*
X182686701Y-72014908D01*
X182708487Y-71943089D01*
X182715843Y-71868400D01*
X182715843Y-70168400D01*
X182708487Y-70093711D01*
X182686701Y-70021892D01*
X182651322Y-69955704D01*
X182603711Y-69897689D01*
X182545696Y-69850078D01*
X182479508Y-69814699D01*
X182407689Y-69792913D01*
X182333000Y-69785557D01*
X180633000Y-69785557D01*
X180558311Y-69792913D01*
X180486492Y-69814699D01*
X180420304Y-69850078D01*
X180362289Y-69897689D01*
X180314678Y-69955704D01*
X180279299Y-70021892D01*
X180257513Y-70093711D01*
X180250157Y-70168400D01*
X180250157Y-71741401D01*
X172809843Y-71741401D01*
X172809843Y-70270000D01*
X172802487Y-70195311D01*
X172780701Y-70123492D01*
X172745322Y-70057304D01*
X172697711Y-69999289D01*
X172639696Y-69951678D01*
X172573508Y-69916299D01*
X172501689Y-69894513D01*
X172427000Y-69887157D01*
X170727000Y-69887157D01*
X170652311Y-69894513D01*
X170580492Y-69916299D01*
X170514304Y-69951678D01*
X170456289Y-69999289D01*
X170408678Y-70057304D01*
X170373299Y-70123492D01*
X170351513Y-70195311D01*
X170344157Y-70270000D01*
X170344157Y-71741401D01*
X161248061Y-71741401D01*
X161225601Y-71739189D01*
X161203141Y-71741401D01*
X160287851Y-71741401D01*
X160265399Y-71739190D01*
X160242947Y-71741401D01*
X160242939Y-71741401D01*
X160175772Y-71748016D01*
X160089589Y-71774160D01*
X160010163Y-71816614D01*
X159957991Y-71859430D01*
X159957985Y-71859436D01*
X159940546Y-71873748D01*
X159926234Y-71891187D01*
X159036447Y-72780976D01*
X158875696Y-72749000D01*
X158692304Y-72749000D01*
X158512437Y-72784778D01*
X158343006Y-72854958D01*
X158190522Y-72956845D01*
X158159000Y-72988367D01*
X158127478Y-72956845D01*
X157974994Y-72854958D01*
X157805563Y-72784778D01*
X157625696Y-72749000D01*
X157442304Y-72749000D01*
X157262437Y-72784778D01*
X157093006Y-72854958D01*
X156940522Y-72956845D01*
X156909000Y-72988367D01*
X156877478Y-72956845D01*
X156724994Y-72854958D01*
X156555563Y-72784778D01*
X156375696Y-72749000D01*
X156192304Y-72749000D01*
X156031553Y-72780975D01*
X155539763Y-72289186D01*
X155525442Y-72271736D01*
X155455825Y-72214602D01*
X155376398Y-72172148D01*
X155290216Y-72146004D01*
X155223049Y-72139389D01*
X155223039Y-72139389D01*
X155200589Y-72137178D01*
X155178139Y-72139389D01*
X137497295Y-72139389D01*
X137474845Y-72137178D01*
X137452395Y-72139389D01*
X137452385Y-72139389D01*
X137385218Y-72146004D01*
X137319094Y-72166063D01*
X137299035Y-72172148D01*
X137219609Y-72214602D01*
X137167437Y-72257418D01*
X137167431Y-72257424D01*
X137149992Y-72271736D01*
X137135680Y-72289175D01*
X132666057Y-76758800D01*
X121434450Y-76758800D01*
X121412000Y-76756589D01*
X121389550Y-76758800D01*
X121389540Y-76758800D01*
X121322373Y-76765415D01*
X121236191Y-76791559D01*
X121156764Y-76834013D01*
X121087147Y-76891147D01*
X121072830Y-76908592D01*
X120027700Y-77953723D01*
X120027700Y-76833877D01*
X120839379Y-76022200D01*
X129162675Y-76022200D01*
X129198711Y-76058236D01*
X129302715Y-76127729D01*
X129418277Y-76175597D01*
X129540958Y-76200000D01*
X129666042Y-76200000D01*
X129788723Y-76175597D01*
X129904285Y-76127729D01*
X130008289Y-76058236D01*
X130096736Y-75969789D01*
X130166229Y-75865785D01*
X130214097Y-75750223D01*
X130238500Y-75627542D01*
X130238500Y-75502458D01*
X130214097Y-75379777D01*
X130166229Y-75264215D01*
X130096736Y-75160211D01*
X130008289Y-75071764D01*
X129904285Y-75002271D01*
X129788723Y-74954403D01*
X129666042Y-74930000D01*
X129540958Y-74930000D01*
X129418277Y-74954403D01*
X129302715Y-75002271D01*
X129198711Y-75071764D01*
X129162675Y-75107800D01*
X120672452Y-75107800D01*
X120650000Y-75105589D01*
X120627548Y-75107800D01*
X120627540Y-75107800D01*
X120560373Y-75114415D01*
X120474190Y-75140559D01*
X120394764Y-75183013D01*
X120342592Y-75225829D01*
X120342586Y-75225835D01*
X120325147Y-75240147D01*
X120310835Y-75257586D01*
X119468500Y-76099923D01*
X119468500Y-69240000D01*
X188316001Y-69240000D01*
X188316000Y-88922329D01*
G37*
%TD.AperFunction*%
D19*
X151477748Y-73665858D02*
X151463605Y-73680000D01*
X151477748Y-73694143D01*
X151298143Y-73873748D01*
X151284000Y-73859605D01*
X151269858Y-73873748D01*
X151090253Y-73694143D01*
X151104395Y-73680000D01*
X151090253Y-73665858D01*
X151269858Y-73486253D01*
X151284000Y-73500395D01*
X151298143Y-73486253D01*
X151477748Y-73665858D01*
%TA.AperFunction,Conductor*%
D20*
G36*
X151477748Y-73665858D02*
G01*
X151463605Y-73680000D01*
X151477748Y-73694143D01*
X151298143Y-73873748D01*
X151284000Y-73859605D01*
X151269858Y-73873748D01*
X151090253Y-73694143D01*
X151104395Y-73680000D01*
X151090253Y-73665858D01*
X151269858Y-73486253D01*
X151284000Y-73500395D01*
X151298143Y-73486253D01*
X151477748Y-73665858D01*
G37*
%TD.AperFunction*%
%TD*%
M02*
