M48
; DRILL file {KiCad (5.1.10)-1} date 02/26/23 14:00:59
; FORMAT={-:-/ absolute / inch / decimal}
; #@! TF.CreationDate,2023-02-26T14:00:59-06:00
; #@! TF.GenerationSoftware,Kicad,Pcbnew,(5.1.10)-1
; #@! TF.FileFunction,Plated,1,2,PTH
FMAT,2
INCH
T1C0.0100
T2C0.0236
T3C0.0394
%
G90
G05
T1
X4.8175Y-3.5225
X4.8275Y-3.39
X4.9175Y-2.8425
X4.9325Y-3.5225
X4.9375Y-3.39
X4.96Y-3.225
X5.0425Y-3.5225
X5.0475Y-3.39
X5.07Y-3.2
X5.1025Y-2.975
X5.1525Y-3.5225
X5.1575Y-3.39
X5.195Y-3.075
X5.205Y-3.2
X5.2625Y-3.5225
X5.2675Y-3.3925
X5.27Y-3.2
X5.3725Y-3.5225
X5.375Y-3.2
X5.3775Y-3.3925
X5.4825Y-3.525
X5.485Y-3.2
X5.4875Y-3.3925
X5.5975Y-3.3925
X5.6Y-3.201
X5.6025Y-3.525
X5.6775Y-4.56
X5.7025Y-3.525
X5.705Y-3.2
X5.7075Y-3.3925
X5.8125Y-3.525
X5.815Y-3.2
X5.8175Y-3.3925
X5.8625Y-3.9275
X5.9Y-4.645
X5.9225Y-3.525
X5.9225Y-4.5275
X5.9275Y-3.3925
X5.93Y-3.2
X5.9325Y-4.415
X5.9425Y-2.835
X5.9925Y-3.95
X6.02Y-4.515
X6.0275Y-4.6075
X6.03Y-4.33
X6.0325Y-3.525
X6.035Y-3.2
X6.0375Y-3.3925
X6.0575Y-4.52
X6.07Y-4.3025
X6.1425Y-3.525
X6.145Y-3.2
X6.1475Y-3.3925
X6.215Y-4.075
X6.2525Y-3.5225
X6.255Y-3.2
X6.2575Y-3.3925
X6.2625Y-3.9275
X6.3275Y-4.51
X6.3625Y-3.525
X6.365Y-3.2
X6.3675Y-3.3925
X6.4725Y-3.525
X6.475Y-3.2
X6.4775Y-3.3925
X6.5825Y-3.525
X6.585Y-3.2
X6.585Y-3.84
X6.5875Y-3.3925
X6.665Y-2.96
X6.6925Y-3.525
X6.695Y-3.2
X6.6975Y-3.3925
X6.7225Y-5.04
X6.76Y-4.9375
X6.7725Y-2.8675
X6.8025Y-3.525
X6.805Y-3.2
X6.8075Y-3.3925
X6.8125Y-3.0675
X6.8675Y-2.9525
X6.8675Y-3.15
X6.9125Y-3.525
X6.9175Y-3.3925
X6.9825Y-3.5275
X7.031Y-3.57
X7.075Y-3.11
X7.11Y-3.335
X7.15Y-2.92
X7.175Y-3.105
X7.24Y-2.96
T2
X5.71Y-2.9008
X5.71Y-2.95
X5.7592Y-2.9008
X5.7592Y-2.95
X5.8084Y-2.9008
X5.8084Y-2.95
X5.8576Y-2.9008
X5.8576Y-2.95
X5.9069Y-2.9008
X5.9069Y-2.95
X5.9561Y-2.9008
X5.9561Y-2.95
X6.0053Y-2.9008
X6.0053Y-2.95
X6.0545Y-2.9008
X6.0545Y-2.95
X6.1037Y-2.9008
X6.1037Y-2.95
X6.1529Y-2.9008
X6.1529Y-2.95
X6.2021Y-2.9008
X6.2021Y-2.95
X6.2513Y-2.9008
X6.2513Y-2.95
X6.3006Y-2.9008
X6.3006Y-2.95
T3
X5.1431Y-4.1754
X5.1431Y-4.2754
X5.1431Y-4.3754
X5.1431Y-4.4754
X5.1431Y-4.5754
X5.1431Y-4.6754
X5.1431Y-4.7754
X5.1431Y-4.8754
X5.1431Y-4.9754
X5.1431Y-5.0754
X6.755Y-2.8
X6.9739Y-4.1754
X6.9739Y-4.2754
X6.9739Y-4.3754
X6.9739Y-4.4754
X6.9739Y-4.5754
X6.9739Y-4.6754
X6.9739Y-4.7754
X6.9739Y-4.8754
X6.9739Y-4.9754
X6.9739Y-5.0754
X7.145Y-2.796
T0
M30
