%TF.GenerationSoftware,KiCad,Pcbnew,(5.1.12)-1*%
%TF.CreationDate,2022-11-07T03:47:31-06:00*%
%TF.ProjectId,perovskite_contact_board,7065726f-7673-46b6-9974-655f636f6e74,rev?*%
%TF.SameCoordinates,Original*%
%TF.FileFunction,Copper,L2,Inr*%
%TF.FilePolarity,Positive*%
%FSLAX46Y46*%
G04 Gerber Fmt 4.6, Leading zero omitted, Abs format (unit mm)*
G04 Created by KiCad (PCBNEW (5.1.12)-1) date 2022-11-07 03:47:31*
%MOMM*%
%LPD*%
G01*
G04 APERTURE LIST*
%TA.AperFunction,ComponentPad*%
%ADD10O,1.000000X0.250000*%
%TD*%
%TA.AperFunction,ViaPad*%
%ADD11C,0.800000*%
%TD*%
%TA.AperFunction,Conductor*%
%ADD12C,0.250000*%
%TD*%
G04 APERTURE END LIST*
D10*
%TO.N,GND*%
%TO.C,U6*%
X211050120Y-58744760D03*
%TO.N,Vdd*%
X215050120Y-58744760D03*
%TO.N,Alert3*%
X211050120Y-58094760D03*
%TO.N,GND*%
X215050120Y-58094760D03*
%TO.N,SCL*%
X211050120Y-57444760D03*
%TO.N,GND*%
X215050120Y-57444760D03*
%TO.N,SDA*%
X211050120Y-56794760D03*
%TO.N,Vdd*%
X215050120Y-56794760D03*
%TD*%
%TO.N,GND*%
%TO.C,U5*%
X212030560Y-85597640D03*
X216030560Y-85597640D03*
%TO.N,Alert2*%
X212030560Y-84947640D03*
%TO.N,Vdd*%
X216030560Y-84947640D03*
%TO.N,SCL*%
X212030560Y-84297640D03*
%TO.N,GND*%
X216030560Y-84297640D03*
%TO.N,SDA*%
X212030560Y-83647640D03*
%TO.N,Vdd*%
X216030560Y-83647640D03*
%TD*%
%TO.N,GND*%
%TO.C,U4*%
X186698640Y-82062680D03*
X182698640Y-82062680D03*
%TO.N,Alert1*%
X186698640Y-82712680D03*
%TO.N,GND*%
X182698640Y-82712680D03*
%TO.N,SCL*%
X186698640Y-83362680D03*
%TO.N,Vdd*%
X182698640Y-83362680D03*
%TO.N,SDA*%
X186698640Y-84012680D03*
%TO.N,Vdd*%
X182698640Y-84012680D03*
%TD*%
D11*
%TO.N,SDA*%
X202194160Y-79705200D03*
X198998840Y-81594960D03*
X216789000Y-62103000D03*
X203708000Y-61722000D03*
%TO.N,GND*%
X189357000Y-79756000D03*
X204470000Y-88646000D03*
X209296000Y-62865000D03*
%TO.N,Vdd*%
X199811640Y-75280520D03*
X191516000Y-83312000D03*
X198859120Y-82585153D03*
X211178140Y-62202060D03*
%TO.N,Alert1*%
X190373000Y-83439000D03*
%TO.N,Alert3*%
X205867000Y-62611000D03*
%TO.N,1*%
X172847000Y-76073000D03*
%TO.N,2*%
X172720000Y-77343000D03*
%TO.N,3*%
X187833000Y-76200000D03*
%TO.N,4*%
X187706000Y-90932000D03*
%TO.N,5*%
X181356000Y-90932000D03*
X178562000Y-77597000D03*
%TO.N,6*%
X173101000Y-89027000D03*
%TO.N,7*%
X208026000Y-77597000D03*
%TO.N,8*%
X218948000Y-80137000D03*
%TO.N,9*%
X225171000Y-77343000D03*
%TO.N,10*%
X217424000Y-94869000D03*
%TO.N,11*%
X224663000Y-92075000D03*
%TO.N,12*%
X205740000Y-92075000D03*
%TO.N,13*%
X209677000Y-46355000D03*
%TO.N,14*%
X207518000Y-51054000D03*
%TO.N,15*%
X216154000Y-46355000D03*
%TO.N,16*%
X226311280Y-65659000D03*
%TO.N,17*%
X219329000Y-51054000D03*
%TO.N,18*%
X208280000Y-64008000D03*
%TO.N,CP*%
X227411280Y-67101720D03*
X205740000Y-78359000D03*
X198628000Y-84836000D03*
%TD*%
D12*
%TO.N,GND*%
X189357000Y-79756000D02*
X189357000Y-81153000D01*
X188447320Y-82062680D02*
X187047010Y-82062680D01*
X189357000Y-81153000D02*
X188447320Y-82062680D01*
X180594000Y-82042000D02*
X181264680Y-82712680D01*
X180594000Y-80391000D02*
X180594000Y-82042000D01*
X181264680Y-82712680D02*
X182346990Y-82712680D01*
X181229000Y-79756000D02*
X180594000Y-80391000D01*
X189357000Y-79756000D02*
X181229000Y-79756000D01*
X180594000Y-80391000D02*
X180594000Y-81280000D01*
X181376680Y-82062680D02*
X182346990Y-82062680D01*
X180594000Y-81280000D02*
X181376680Y-82062680D01*
X216281000Y-88646000D02*
X217551000Y-87376000D01*
X217551000Y-87376000D02*
X217551000Y-86106000D01*
X217042640Y-85597640D02*
X216390760Y-85597640D01*
X217551000Y-86106000D02*
X217042640Y-85597640D01*
X209423000Y-88646000D02*
X209423000Y-86614000D01*
X204470000Y-88646000D02*
X209423000Y-88646000D01*
X209423000Y-88646000D02*
X216281000Y-88646000D01*
X210439360Y-85597640D02*
X211690740Y-85597640D01*
X209423000Y-86614000D02*
X210439360Y-85597640D01*
X217139640Y-84297640D02*
X216390760Y-84297640D01*
X217551000Y-84709000D02*
X217139640Y-84297640D01*
X209296000Y-62865000D02*
X209296000Y-59563000D01*
X210114240Y-58744760D02*
X210690740Y-58744760D01*
X209296000Y-59563000D02*
X210114240Y-58744760D01*
X209296000Y-62865000D02*
X209296000Y-60833000D01*
X209296000Y-60833000D02*
X209931000Y-60198000D01*
X209931000Y-60198000D02*
X216408000Y-60198000D01*
X216408000Y-60198000D02*
X217170000Y-59436000D01*
X217170000Y-59436000D02*
X217170000Y-58801000D01*
X216463760Y-58094760D02*
X215390760Y-58094760D01*
X217170000Y-58801000D02*
X216463760Y-58094760D01*
X217170000Y-58166000D02*
X217170000Y-58801000D01*
X216448760Y-57444760D02*
X217170000Y-58166000D01*
X215390760Y-57444760D02*
X216448760Y-57444760D01*
X216408000Y-60198000D02*
X216789000Y-60198000D01*
X217514001Y-84926001D02*
X217551000Y-84963000D01*
X217514001Y-60923001D02*
X217514001Y-84926001D01*
X216789000Y-60198000D02*
X217514001Y-60923001D01*
X217551000Y-84963000D02*
X217551000Y-84709000D01*
X217551000Y-86106000D02*
X217551000Y-84963000D01*
X204470000Y-88646000D02*
X200914000Y-88646000D01*
X192024000Y-79756000D02*
X189357000Y-79756000D01*
X200914000Y-88646000D02*
X192024000Y-79756000D01*
%TO.N,Alert3*%
X205867000Y-62045315D02*
X205867000Y-62611000D01*
X209817555Y-58094760D02*
X205867000Y-62045315D01*
X210690740Y-58094760D02*
X209817555Y-58094760D01*
%TO.N,5*%
X181356000Y-90932000D02*
X177927000Y-87503000D01*
X177927000Y-78232000D02*
X178562000Y-77597000D01*
X177927000Y-87503000D02*
X177927000Y-78232000D01*
%TD*%
M02*
