%TF.GenerationSoftware,KiCad,Pcbnew,(5.1.12)-1*%
%TF.CreationDate,2022-11-07T03:47:31-06:00*%
%TF.ProjectId,perovskite_contact_board,7065726f-7673-46b6-9974-655f636f6e74,rev?*%
%TF.SameCoordinates,Original*%
%TF.FileFunction,Soldermask,Top*%
%TF.FilePolarity,Negative*%
%FSLAX46Y46*%
G04 Gerber Fmt 4.6, Leading zero omitted, Abs format (unit mm)*
G04 Created by KiCad (PCBNEW (5.1.12)-1) date 2022-11-07 03:47:31*
%MOMM*%
%LPD*%
G01*
G04 APERTURE LIST*
%ADD10O,1.000000X0.250000*%
%ADD11R,7.400000X3.800000*%
%ADD12R,4.000000X4.000000*%
G04 APERTURE END LIST*
D10*
%TO.C,U6*%
X211050120Y-58744760D03*
X215050120Y-58744760D03*
X211050120Y-58094760D03*
X215050120Y-58094760D03*
X211050120Y-57444760D03*
X215050120Y-57444760D03*
X211050120Y-56794760D03*
X215050120Y-56794760D03*
%TD*%
%TO.C,U5*%
X212030560Y-85597640D03*
X216030560Y-85597640D03*
X212030560Y-84947640D03*
X216030560Y-84947640D03*
X212030560Y-84297640D03*
X216030560Y-84297640D03*
X212030560Y-83647640D03*
X216030560Y-83647640D03*
%TD*%
%TO.C,U4*%
X186698640Y-82062680D03*
X182698640Y-82062680D03*
X186698640Y-82712680D03*
X182698640Y-82712680D03*
X186698640Y-83362680D03*
X182698640Y-83362680D03*
X186698640Y-84012680D03*
X182698640Y-84012680D03*
%TD*%
D11*
%TO.C,U1*%
X176413720Y-72795720D03*
X192863720Y-72795720D03*
X192863720Y-93395720D03*
X176413720Y-93395720D03*
D12*
X184613720Y-72895720D03*
X184563720Y-93195720D03*
X174663720Y-82595720D03*
X194863720Y-82595720D03*
%TD*%
D11*
%TO.C,U2*%
X205740560Y-74401000D03*
X222190560Y-74401000D03*
X222190560Y-95001000D03*
X205740560Y-95001000D03*
D12*
X213940560Y-74501000D03*
X213890560Y-94801000D03*
X203990560Y-84201000D03*
X224190560Y-84201000D03*
%TD*%
%TO.C,U3*%
X223206960Y-57404000D03*
X203006960Y-57404000D03*
X212906960Y-68004000D03*
X212956960Y-47704000D03*
D11*
X204756960Y-68204000D03*
X221206960Y-68204000D03*
X221206960Y-47604000D03*
X204756960Y-47604000D03*
%TD*%
M02*
