M48
; DRILL file {KiCad (5.1.12)-1} date 11/07/22 03:47:29
; FORMAT={-:-/ absolute / inch / decimal}
; #@! TF.CreationDate,2022-11-07T03:47:29-06:00
; #@! TF.GenerationSoftware,Kicad,Pcbnew,(5.1.12)-1
; #@! TF.FileFunction,Plated,1,4,PTH
FMAT,2
INCH
T1C0.0118
T2C0.0157
%
G90
G05
T1
X7.1929Y-3.2308
X7.1929Y-3.2564
X7.1929Y-3.282
X7.1929Y-3.3076
X7.3503Y-3.2308
X7.3503Y-3.2564
X7.3503Y-3.282
X7.3503Y-3.3076
X8.3091Y-2.236
X8.3091Y-2.2616
X8.3091Y-2.2872
X8.3091Y-2.3128
X8.3477Y-3.2932
X8.3477Y-3.3188
X8.3477Y-3.3444
X8.3477Y-3.37
X8.4665Y-2.236
X8.4665Y-2.2616
X8.4665Y-2.2872
X8.4665Y-2.3128
X8.5051Y-3.2932
X8.5051Y-3.3188
X8.5051Y-3.3444
X8.5051Y-3.37
T2
X6.8Y-3.045
X6.805Y-2.995
X6.815Y-3.505
X7.03Y-3.055
X7.14Y-3.58
X7.39Y-3.58
X7.395Y-3.0
X7.455Y-3.14
X7.495Y-3.285
X7.54Y-3.28
X7.82Y-3.34
X7.8291Y-3.2514
X7.8346Y-3.2124
X7.8666Y-2.9638
X7.9604Y-3.138
X8.02Y-2.43
X8.05Y-3.49
X8.1Y-3.085
X8.1Y-3.625
X8.105Y-2.465
X8.17Y-2.01
X8.19Y-3.055
X8.2Y-2.52
X8.24Y-2.475
X8.255Y-1.825
X8.3141Y-2.4489
X8.51Y-1.825
X8.535Y-2.445
X8.56Y-3.735
X8.62Y-3.155
X8.635Y-2.01
X8.845Y-3.625
X8.865Y-3.045
X8.9099Y-2.585
X8.9532Y-2.6418
T0
M30
