%TF.GenerationSoftware,KiCad,Pcbnew,(5.1.10)-1*%
%TF.CreationDate,2022-10-09T17:15:07-05:00*%
%TF.ProjectId,switcher,73776974-6368-4657-922e-6b696361645f,A*%
%TF.SameCoordinates,Original*%
%TF.FileFunction,Soldermask,Bot*%
%TF.FilePolarity,Negative*%
%FSLAX46Y46*%
G04 Gerber Fmt 4.6, Leading zero omitted, Abs format (unit mm)*
G04 Created by KiCad (PCBNEW (5.1.10)-1) date 2022-10-09 17:15:07*
%MOMM*%
%LPD*%
G01*
G04 APERTURE LIST*
%ADD10O,1.700000X1.700000*%
%ADD11R,1.700000X1.700000*%
%ADD12C,1.100000*%
G04 APERTURE END LIST*
D10*
%TO.C,J2*%
X177136000Y-106055500D03*
X177136000Y-108595500D03*
X177136000Y-111135500D03*
X177136000Y-113675500D03*
X177136000Y-116215500D03*
X177136000Y-118755500D03*
X177136000Y-121295500D03*
X177136000Y-123835500D03*
X177136000Y-126375500D03*
D11*
X177136000Y-128915500D03*
%TD*%
D10*
%TO.C,J5*%
X127508000Y-73914000D03*
D11*
X127508000Y-76454000D03*
%TD*%
%TO.C,J4*%
X179514500Y-75057000D03*
%TD*%
D12*
%TO.C,J3*%
X146353500Y-75672000D03*
X147603500Y-75672000D03*
X148853500Y-75672000D03*
X150103500Y-75672000D03*
X151353500Y-75672000D03*
X152603500Y-75672000D03*
X153853500Y-75672000D03*
X155103500Y-75672000D03*
X156353500Y-75672000D03*
X157603500Y-75672000D03*
X158853500Y-75672000D03*
X160103500Y-75672000D03*
X161353500Y-75672000D03*
X146353500Y-74422000D03*
X147603500Y-74422000D03*
X148853500Y-74422000D03*
X150103500Y-74422000D03*
X151353500Y-74422000D03*
X152603500Y-74422000D03*
X153853500Y-74422000D03*
X155103500Y-74422000D03*
X156353500Y-74422000D03*
X157603500Y-74422000D03*
X158853500Y-74422000D03*
X160103500Y-74422000D03*
X161353500Y-74422000D03*
%TD*%
D10*
%TO.C,J1*%
X130636000Y-128915500D03*
X130636000Y-126375500D03*
X130636000Y-123835500D03*
X130636000Y-121295500D03*
X130636000Y-118755500D03*
X130636000Y-116215500D03*
X130636000Y-113675500D03*
X130636000Y-111135500D03*
X130636000Y-108595500D03*
D11*
X130636000Y-106055500D03*
%TD*%
M02*
