%TF.GenerationSoftware,KiCad,Pcbnew,(5.1.10)-1*%
%TF.CreationDate,2023-09-10T10:41:42-05:00*%
%TF.ProjectId,perovskite_contact_board,7065726f-7673-46b6-9974-655f636f6e74,V3*%
%TF.SameCoordinates,Original*%
%TF.FileFunction,Copper,L2,Bot*%
%TF.FilePolarity,Positive*%
%FSLAX46Y46*%
G04 Gerber Fmt 4.6, Leading zero omitted, Abs format (unit mm)*
G04 Created by KiCad (PCBNEW (5.1.10)-1) date 2023-09-10 10:41:42*
%MOMM*%
%LPD*%
G01*
G04 APERTURE LIST*
%TA.AperFunction,SMDPad,CuDef*%
%ADD10C,2.000000*%
%TD*%
%TA.AperFunction,ComponentPad*%
%ADD11R,1.700000X1.700000*%
%TD*%
%TA.AperFunction,SMDPad,CuDef*%
%ADD12R,0.350000X0.500000*%
%TD*%
%TA.AperFunction,SMDPad,CuDef*%
%ADD13R,2.200000X0.220000*%
%TD*%
%TA.AperFunction,Conductor*%
%ADD14C,0.228600*%
%TD*%
%TA.AperFunction,Conductor*%
%ADD15C,0.254000*%
%TD*%
%TA.AperFunction,Conductor*%
%ADD16C,0.100000*%
%TD*%
G04 APERTURE END LIST*
D10*
%TO.P,JP103.2,1*%
%TO.N,SCL2*%
X162814000Y-113792000D03*
%TD*%
D11*
%TO.P,JP102.7,1*%
%TO.N,CP_3*%
X162560000Y-100584000D03*
%TD*%
%TO.P,JP102.6,1*%
%TO.N,CELL_18*%
X173228000Y-119126000D03*
%TD*%
%TO.P,JP102.5,1*%
%TO.N,CELL_17*%
X173228000Y-110744000D03*
%TD*%
%TO.P,JP102.4,1*%
%TO.N,CELL_16*%
X173482000Y-102616000D03*
%TD*%
%TO.P,JP102.3,1*%
%TO.N,CELL_15*%
X152908000Y-102616000D03*
%TD*%
%TO.P,JP102.2,1*%
%TO.N,CELL_14*%
X152908000Y-110744000D03*
%TD*%
%TO.P,JP102.1,1*%
%TO.N,CELL_13*%
X152908000Y-119126000D03*
%TD*%
%TO.P,JP102.8,1*%
%TO.N,CP_3*%
X162560000Y-120396000D03*
%TD*%
D12*
%TO.P,U7,5*%
%TO.N,VDDF*%
X166919000Y-119135000D03*
%TO.P,U7,6*%
X167569000Y-119135000D03*
%TO.P,U7,7*%
%TO.N,GND*%
X168219000Y-119135000D03*
%TO.P,U7,8*%
%TO.N,VDDF*%
X168869000Y-119135000D03*
%TO.P,U7,1*%
%TO.N,GND*%
X168869000Y-117085000D03*
%TO.P,U7,2*%
%TO.N,VDDF*%
X168219000Y-117085000D03*
%TO.P,U7,3*%
%TO.N,SDA3*%
X167569000Y-117085000D03*
%TO.P,U7,4*%
%TO.N,SCL2*%
X166919000Y-117085000D03*
%TD*%
%TO.P,C5,2*%
%TO.N,GND*%
%TA.AperFunction,SMDPad,CuDef*%
G36*
G01*
X156976000Y-110561000D02*
X157476000Y-110561000D01*
G75*
G02*
X157701000Y-110786000I0J-225000D01*
G01*
X157701000Y-111236000D01*
G75*
G02*
X157476000Y-111461000I-225000J0D01*
G01*
X156976000Y-111461000D01*
G75*
G02*
X156751000Y-111236000I0J225000D01*
G01*
X156751000Y-110786000D01*
G75*
G02*
X156976000Y-110561000I225000J0D01*
G01*
G37*
%TD.AperFunction*%
%TO.P,C5,1*%
%TO.N,VDDF*%
%TA.AperFunction,SMDPad,CuDef*%
G36*
G01*
X156976000Y-109011000D02*
X157476000Y-109011000D01*
G75*
G02*
X157701000Y-109236000I0J-225000D01*
G01*
X157701000Y-109686000D01*
G75*
G02*
X157476000Y-109911000I-225000J0D01*
G01*
X156976000Y-109911000D01*
G75*
G02*
X156751000Y-109686000I0J225000D01*
G01*
X156751000Y-109236000D01*
G75*
G02*
X156976000Y-109011000I225000J0D01*
G01*
G37*
%TD.AperFunction*%
%TD*%
%TO.P,C2,2*%
%TO.N,GND*%
%TA.AperFunction,SMDPad,CuDef*%
G36*
G01*
X169997000Y-120646000D02*
X169997000Y-120146000D01*
G75*
G02*
X170222000Y-119921000I225000J0D01*
G01*
X170672000Y-119921000D01*
G75*
G02*
X170897000Y-120146000I0J-225000D01*
G01*
X170897000Y-120646000D01*
G75*
G02*
X170672000Y-120871000I-225000J0D01*
G01*
X170222000Y-120871000D01*
G75*
G02*
X169997000Y-120646000I0J225000D01*
G01*
G37*
%TD.AperFunction*%
%TO.P,C2,1*%
%TO.N,VDDF*%
%TA.AperFunction,SMDPad,CuDef*%
G36*
G01*
X168447000Y-120646000D02*
X168447000Y-120146000D01*
G75*
G02*
X168672000Y-119921000I225000J0D01*
G01*
X169122000Y-119921000D01*
G75*
G02*
X169347000Y-120146000I0J-225000D01*
G01*
X169347000Y-120646000D01*
G75*
G02*
X169122000Y-120871000I-225000J0D01*
G01*
X168672000Y-120871000D01*
G75*
G02*
X168447000Y-120646000I0J225000D01*
G01*
G37*
%TD.AperFunction*%
%TD*%
%TO.P,C1,2*%
%TO.N,GND*%
%TA.AperFunction,SMDPad,CuDef*%
G36*
G01*
X166045000Y-120146000D02*
X166045000Y-120646000D01*
G75*
G02*
X165820000Y-120871000I-225000J0D01*
G01*
X165370000Y-120871000D01*
G75*
G02*
X165145000Y-120646000I0J225000D01*
G01*
X165145000Y-120146000D01*
G75*
G02*
X165370000Y-119921000I225000J0D01*
G01*
X165820000Y-119921000D01*
G75*
G02*
X166045000Y-120146000I0J-225000D01*
G01*
G37*
%TD.AperFunction*%
%TO.P,C1,1*%
%TO.N,VDDF*%
%TA.AperFunction,SMDPad,CuDef*%
G36*
G01*
X167595000Y-120146000D02*
X167595000Y-120646000D01*
G75*
G02*
X167370000Y-120871000I-225000J0D01*
G01*
X166920000Y-120871000D01*
G75*
G02*
X166695000Y-120646000I0J225000D01*
G01*
X166695000Y-120146000D01*
G75*
G02*
X166920000Y-119921000I225000J0D01*
G01*
X167370000Y-119921000D01*
G75*
G02*
X167595000Y-120146000I0J-225000D01*
G01*
G37*
%TD.AperFunction*%
%TD*%
D10*
%TO.P,JP103.11,1*%
%TO.N,SCL3*%
X166116000Y-107188000D03*
%TD*%
%TO.P,JP103.10,1*%
%TO.N,VDDF*%
X157226000Y-107188000D03*
%TD*%
%TO.P,JP103.12,1*%
%TO.N,SDA3*%
X166116000Y-113792000D03*
%TD*%
%TO.P,JP103.1,1*%
%TO.N,GND*%
X157226000Y-113792000D03*
%TD*%
D13*
%TO.P,U6,5*%
%TO.N,VDDF*%
X159841000Y-109515000D03*
%TO.P,U6,4*%
%TO.N,GND*%
X166041000Y-109515000D03*
%TO.P,U6,6*%
%TO.N,VDDF*%
X159841000Y-110165000D03*
%TO.P,U6,3*%
%TO.N,Net-(U6-Pad3)*%
X166041000Y-110165000D03*
%TO.P,U6,7*%
%TO.N,VDDF*%
X159841000Y-110815000D03*
%TO.P,U6,2*%
%TO.N,SCL3*%
X166041000Y-110815000D03*
%TO.P,U6,8*%
%TO.N,VDDF*%
X159841000Y-111465000D03*
%TO.P,U6,1*%
%TO.N,SDA3*%
X166041000Y-111465000D03*
%TD*%
D14*
%TO.N,CP_3*%
X162560000Y-120396000D02*
X157226000Y-120396000D01*
X157226000Y-120396000D02*
X155194000Y-118364000D01*
X155194000Y-118364000D02*
X155194000Y-103124000D01*
X157734000Y-100584000D02*
X162560000Y-100584000D01*
X155194000Y-103124000D02*
X157734000Y-100584000D01*
%TO.N,VDDF*%
X168897000Y-120396000D02*
X167145000Y-120396000D01*
X167569000Y-119135000D02*
X166919000Y-119135000D01*
X168869000Y-120368000D02*
X168897000Y-120396000D01*
X168869000Y-119135000D02*
X168869000Y-120368000D01*
X166919000Y-120170000D02*
X167145000Y-120396000D01*
X166919000Y-119135000D02*
X166919000Y-120170000D01*
%TO.N,SCL3*%
X166041000Y-110815000D02*
X167823000Y-110815000D01*
X167823000Y-110815000D02*
X168148000Y-110490000D01*
X168148000Y-110490000D02*
X168148000Y-108204000D01*
X167132000Y-107188000D02*
X166116000Y-107188000D01*
X168148000Y-108204000D02*
X167132000Y-107188000D01*
%TO.N,VDDF*%
X157280000Y-109515000D02*
X157226000Y-109461000D01*
X159841000Y-109515000D02*
X157280000Y-109515000D01*
X157226000Y-107188000D02*
X157226000Y-109461000D01*
X168219000Y-117085000D02*
X168219000Y-117531000D01*
X167569000Y-118181000D02*
X167569000Y-119135000D01*
X168219000Y-117531000D02*
X167569000Y-118181000D01*
X159841000Y-115391000D02*
X159841000Y-111073000D01*
X161290000Y-116840000D02*
X159841000Y-115391000D01*
X163830000Y-116840000D02*
X161290000Y-116840000D01*
X166125000Y-119135000D02*
X163830000Y-116840000D01*
X159841000Y-111073000D02*
X159841000Y-111465000D01*
X166919000Y-119135000D02*
X166125000Y-119135000D01*
X159841000Y-109515000D02*
X159841000Y-111073000D01*
%TO.N,SCL2*%
X166107000Y-117085000D02*
X162814000Y-113792000D01*
X166919000Y-117085000D02*
X166107000Y-117085000D01*
%TO.N,SDA3*%
X166041000Y-113717000D02*
X166116000Y-113792000D01*
X166041000Y-111465000D02*
X166041000Y-113717000D01*
X167569000Y-115245000D02*
X166116000Y-113792000D01*
X167569000Y-117085000D02*
X167569000Y-115245000D01*
%TD*%
D15*
%TO.N,GND*%
X174829001Y-122251000D02*
X151307000Y-122251000D01*
X151307000Y-118276000D01*
X151675157Y-118276000D01*
X151675157Y-119976000D01*
X151682513Y-120050689D01*
X151704299Y-120122508D01*
X151739678Y-120188696D01*
X151787289Y-120246711D01*
X151845304Y-120294322D01*
X151911492Y-120329701D01*
X151983311Y-120351487D01*
X152058000Y-120358843D01*
X153758000Y-120358843D01*
X153832689Y-120351487D01*
X153904508Y-120329701D01*
X153970696Y-120294322D01*
X154028711Y-120246711D01*
X154076322Y-120188696D01*
X154111701Y-120122508D01*
X154133487Y-120050689D01*
X154140843Y-119976000D01*
X154140843Y-118276000D01*
X154133487Y-118201311D01*
X154111701Y-118129492D01*
X154076322Y-118063304D01*
X154028711Y-118005289D01*
X153970696Y-117957678D01*
X153904508Y-117922299D01*
X153832689Y-117900513D01*
X153758000Y-117893157D01*
X152058000Y-117893157D01*
X151983311Y-117900513D01*
X151911492Y-117922299D01*
X151845304Y-117957678D01*
X151787289Y-118005289D01*
X151739678Y-118063304D01*
X151704299Y-118129492D01*
X151682513Y-118201311D01*
X151675157Y-118276000D01*
X151307000Y-118276000D01*
X151307000Y-109894000D01*
X151675157Y-109894000D01*
X151675157Y-111594000D01*
X151682513Y-111668689D01*
X151704299Y-111740508D01*
X151739678Y-111806696D01*
X151787289Y-111864711D01*
X151845304Y-111912322D01*
X151911492Y-111947701D01*
X151983311Y-111969487D01*
X152058000Y-111976843D01*
X153758000Y-111976843D01*
X153832689Y-111969487D01*
X153904508Y-111947701D01*
X153970696Y-111912322D01*
X154028711Y-111864711D01*
X154076322Y-111806696D01*
X154111701Y-111740508D01*
X154133487Y-111668689D01*
X154140843Y-111594000D01*
X154140843Y-109894000D01*
X154133487Y-109819311D01*
X154111701Y-109747492D01*
X154076322Y-109681304D01*
X154028711Y-109623289D01*
X153970696Y-109575678D01*
X153904508Y-109540299D01*
X153832689Y-109518513D01*
X153758000Y-109511157D01*
X152058000Y-109511157D01*
X151983311Y-109518513D01*
X151911492Y-109540299D01*
X151845304Y-109575678D01*
X151787289Y-109623289D01*
X151739678Y-109681304D01*
X151704299Y-109747492D01*
X151682513Y-109819311D01*
X151675157Y-109894000D01*
X151307000Y-109894000D01*
X151307000Y-101766000D01*
X151675157Y-101766000D01*
X151675157Y-103466000D01*
X151682513Y-103540689D01*
X151704299Y-103612508D01*
X151739678Y-103678696D01*
X151787289Y-103736711D01*
X151845304Y-103784322D01*
X151911492Y-103819701D01*
X151983311Y-103841487D01*
X152058000Y-103848843D01*
X153758000Y-103848843D01*
X153832689Y-103841487D01*
X153904508Y-103819701D01*
X153970696Y-103784322D01*
X154028711Y-103736711D01*
X154076322Y-103678696D01*
X154111701Y-103612508D01*
X154133487Y-103540689D01*
X154140843Y-103466000D01*
X154140843Y-103124000D01*
X154696305Y-103124000D01*
X154698701Y-103148327D01*
X154698700Y-118339683D01*
X154696305Y-118364000D01*
X154698700Y-118388317D01*
X154698700Y-118388326D01*
X154705867Y-118461095D01*
X154734189Y-118554459D01*
X154780181Y-118640505D01*
X154842076Y-118715924D01*
X154860975Y-118731434D01*
X156858570Y-120729030D01*
X156874076Y-120747924D01*
X156949495Y-120809819D01*
X157035540Y-120855811D01*
X157128904Y-120884133D01*
X157201673Y-120891300D01*
X157201683Y-120891300D01*
X157226000Y-120893695D01*
X157250317Y-120891300D01*
X161327157Y-120891300D01*
X161327157Y-121246000D01*
X161334513Y-121320689D01*
X161356299Y-121392508D01*
X161391678Y-121458696D01*
X161439289Y-121516711D01*
X161497304Y-121564322D01*
X161563492Y-121599701D01*
X161635311Y-121621487D01*
X161710000Y-121628843D01*
X163410000Y-121628843D01*
X163484689Y-121621487D01*
X163556508Y-121599701D01*
X163622696Y-121564322D01*
X163680711Y-121516711D01*
X163728322Y-121458696D01*
X163763701Y-121392508D01*
X163785487Y-121320689D01*
X163792843Y-121246000D01*
X163792843Y-120871000D01*
X164506928Y-120871000D01*
X164519188Y-120995482D01*
X164555498Y-121115180D01*
X164614463Y-121225494D01*
X164693815Y-121322185D01*
X164790506Y-121401537D01*
X164900820Y-121460502D01*
X165020518Y-121496812D01*
X165145000Y-121509072D01*
X165309250Y-121506000D01*
X165468000Y-121347250D01*
X165468000Y-120523000D01*
X164668750Y-120523000D01*
X164510000Y-120681750D01*
X164506928Y-120871000D01*
X163792843Y-120871000D01*
X163792843Y-119546000D01*
X163785487Y-119471311D01*
X163763701Y-119399492D01*
X163728322Y-119333304D01*
X163680711Y-119275289D01*
X163622696Y-119227678D01*
X163556508Y-119192299D01*
X163484689Y-119170513D01*
X163410000Y-119163157D01*
X161710000Y-119163157D01*
X161635311Y-119170513D01*
X161563492Y-119192299D01*
X161497304Y-119227678D01*
X161439289Y-119275289D01*
X161391678Y-119333304D01*
X161356299Y-119399492D01*
X161334513Y-119471311D01*
X161327157Y-119546000D01*
X161327157Y-119900700D01*
X157431160Y-119900700D01*
X155689300Y-118158841D01*
X155689300Y-114927413D01*
X156270192Y-114927413D01*
X156365956Y-115191814D01*
X156655571Y-115332704D01*
X156967108Y-115414384D01*
X157288595Y-115433718D01*
X157607675Y-115389961D01*
X157912088Y-115284795D01*
X158086044Y-115191814D01*
X158181808Y-114927413D01*
X157226000Y-113971605D01*
X156270192Y-114927413D01*
X155689300Y-114927413D01*
X155689300Y-114351001D01*
X155733205Y-114478088D01*
X155826186Y-114652044D01*
X156090587Y-114747808D01*
X157046395Y-113792000D01*
X157405605Y-113792000D01*
X158361413Y-114747808D01*
X158625814Y-114652044D01*
X158766704Y-114362429D01*
X158848384Y-114050892D01*
X158867718Y-113729405D01*
X158823961Y-113410325D01*
X158718795Y-113105912D01*
X158625814Y-112931956D01*
X158361413Y-112836192D01*
X157405605Y-113792000D01*
X157046395Y-113792000D01*
X156090587Y-112836192D01*
X155826186Y-112931956D01*
X155689300Y-113213340D01*
X155689300Y-112656587D01*
X156270192Y-112656587D01*
X157226000Y-113612395D01*
X158181808Y-112656587D01*
X158086044Y-112392186D01*
X157796429Y-112251296D01*
X157484892Y-112169616D01*
X157163405Y-112150282D01*
X156844325Y-112194039D01*
X156539912Y-112299205D01*
X156365956Y-112392186D01*
X156270192Y-112656587D01*
X155689300Y-112656587D01*
X155689300Y-111461000D01*
X156112928Y-111461000D01*
X156125188Y-111585482D01*
X156161498Y-111705180D01*
X156220463Y-111815494D01*
X156299815Y-111912185D01*
X156396506Y-111991537D01*
X156506820Y-112050502D01*
X156626518Y-112086812D01*
X156751000Y-112099072D01*
X156940250Y-112096000D01*
X157099000Y-111937250D01*
X157099000Y-111138000D01*
X157353000Y-111138000D01*
X157353000Y-111937250D01*
X157511750Y-112096000D01*
X157701000Y-112099072D01*
X157825482Y-112086812D01*
X157945180Y-112050502D01*
X158055494Y-111991537D01*
X158152185Y-111912185D01*
X158231537Y-111815494D01*
X158290502Y-111705180D01*
X158326812Y-111585482D01*
X158339072Y-111461000D01*
X158336000Y-111296750D01*
X158177250Y-111138000D01*
X157353000Y-111138000D01*
X157099000Y-111138000D01*
X156274750Y-111138000D01*
X156116000Y-111296750D01*
X156112928Y-111461000D01*
X155689300Y-111461000D01*
X155689300Y-107051983D01*
X155845000Y-107051983D01*
X155845000Y-107324017D01*
X155898071Y-107590823D01*
X156002174Y-107842149D01*
X156153307Y-108068336D01*
X156345664Y-108260693D01*
X156571851Y-108411826D01*
X156730701Y-108477624D01*
X156730701Y-108681208D01*
X156638301Y-108730597D01*
X156546190Y-108806190D01*
X156470597Y-108898301D01*
X156414426Y-109003389D01*
X156379837Y-109117416D01*
X156368157Y-109236000D01*
X156368157Y-109686000D01*
X156379837Y-109804584D01*
X156414426Y-109918611D01*
X156456945Y-109998157D01*
X156396506Y-110030463D01*
X156299815Y-110109815D01*
X156220463Y-110206506D01*
X156161498Y-110316820D01*
X156125188Y-110436518D01*
X156112928Y-110561000D01*
X156116000Y-110725250D01*
X156274750Y-110884000D01*
X157099000Y-110884000D01*
X157099000Y-110864000D01*
X157353000Y-110864000D01*
X157353000Y-110884000D01*
X158177250Y-110884000D01*
X158336000Y-110725250D01*
X158339072Y-110561000D01*
X158326812Y-110436518D01*
X158290502Y-110316820D01*
X158231537Y-110206506D01*
X158152185Y-110109815D01*
X158055494Y-110030463D01*
X158017772Y-110010300D01*
X158362559Y-110010300D01*
X158358157Y-110055000D01*
X158358157Y-110275000D01*
X158365513Y-110349689D01*
X158387299Y-110421508D01*
X158422678Y-110487696D01*
X158424569Y-110490000D01*
X158422678Y-110492304D01*
X158387299Y-110558492D01*
X158365513Y-110630311D01*
X158358157Y-110705000D01*
X158358157Y-110925000D01*
X158365513Y-110999689D01*
X158387299Y-111071508D01*
X158422678Y-111137696D01*
X158424569Y-111140000D01*
X158422678Y-111142304D01*
X158387299Y-111208492D01*
X158365513Y-111280311D01*
X158358157Y-111355000D01*
X158358157Y-111575000D01*
X158365513Y-111649689D01*
X158387299Y-111721508D01*
X158422678Y-111787696D01*
X158470289Y-111845711D01*
X158528304Y-111893322D01*
X158594492Y-111928701D01*
X158666311Y-111950487D01*
X158741000Y-111957843D01*
X159345701Y-111957843D01*
X159345700Y-115366683D01*
X159343305Y-115391000D01*
X159345700Y-115415317D01*
X159345700Y-115415326D01*
X159352867Y-115488095D01*
X159381189Y-115581459D01*
X159427181Y-115667505D01*
X159489076Y-115742924D01*
X159507975Y-115758434D01*
X160922568Y-117173028D01*
X160938076Y-117191924D01*
X160956970Y-117207430D01*
X160956971Y-117207431D01*
X161013494Y-117253819D01*
X161053982Y-117275460D01*
X161099540Y-117299811D01*
X161192904Y-117328133D01*
X161265673Y-117335300D01*
X161265682Y-117335300D01*
X161289999Y-117337695D01*
X161314316Y-117335300D01*
X163624841Y-117335300D01*
X165575540Y-119286000D01*
X165467998Y-119286000D01*
X165467998Y-119444748D01*
X165309250Y-119286000D01*
X165145000Y-119282928D01*
X165020518Y-119295188D01*
X164900820Y-119331498D01*
X164790506Y-119390463D01*
X164693815Y-119469815D01*
X164614463Y-119566506D01*
X164555498Y-119676820D01*
X164519188Y-119796518D01*
X164506928Y-119921000D01*
X164510000Y-120110250D01*
X164668750Y-120269000D01*
X165468000Y-120269000D01*
X165468000Y-120249000D01*
X165722000Y-120249000D01*
X165722000Y-120269000D01*
X165742000Y-120269000D01*
X165742000Y-120523000D01*
X165722000Y-120523000D01*
X165722000Y-121347250D01*
X165880750Y-121506000D01*
X166045000Y-121509072D01*
X166169482Y-121496812D01*
X166289180Y-121460502D01*
X166399494Y-121401537D01*
X166496185Y-121322185D01*
X166575537Y-121225494D01*
X166607843Y-121165055D01*
X166687389Y-121207574D01*
X166801416Y-121242163D01*
X166920000Y-121253843D01*
X167370000Y-121253843D01*
X167488584Y-121242163D01*
X167602611Y-121207574D01*
X167707699Y-121151403D01*
X167799810Y-121075810D01*
X167875403Y-120983699D01*
X167924792Y-120891300D01*
X168117208Y-120891300D01*
X168166597Y-120983699D01*
X168242190Y-121075810D01*
X168334301Y-121151403D01*
X168439389Y-121207574D01*
X168553416Y-121242163D01*
X168672000Y-121253843D01*
X169122000Y-121253843D01*
X169240584Y-121242163D01*
X169354611Y-121207574D01*
X169434157Y-121165055D01*
X169466463Y-121225494D01*
X169545815Y-121322185D01*
X169642506Y-121401537D01*
X169752820Y-121460502D01*
X169872518Y-121496812D01*
X169997000Y-121509072D01*
X170161250Y-121506000D01*
X170320000Y-121347250D01*
X170320000Y-120523000D01*
X170574000Y-120523000D01*
X170574000Y-121347250D01*
X170732750Y-121506000D01*
X170897000Y-121509072D01*
X171021482Y-121496812D01*
X171141180Y-121460502D01*
X171251494Y-121401537D01*
X171348185Y-121322185D01*
X171427537Y-121225494D01*
X171486502Y-121115180D01*
X171522812Y-120995482D01*
X171535072Y-120871000D01*
X171532000Y-120681750D01*
X171373250Y-120523000D01*
X170574000Y-120523000D01*
X170320000Y-120523000D01*
X170300000Y-120523000D01*
X170300000Y-120269000D01*
X170320000Y-120269000D01*
X170320000Y-119444750D01*
X170574000Y-119444750D01*
X170574000Y-120269000D01*
X171373250Y-120269000D01*
X171532000Y-120110250D01*
X171535072Y-119921000D01*
X171522812Y-119796518D01*
X171486502Y-119676820D01*
X171427537Y-119566506D01*
X171348185Y-119469815D01*
X171251494Y-119390463D01*
X171141180Y-119331498D01*
X171021482Y-119295188D01*
X170897000Y-119282928D01*
X170732750Y-119286000D01*
X170574000Y-119444750D01*
X170320000Y-119444750D01*
X170161250Y-119286000D01*
X169997000Y-119282928D01*
X169872518Y-119295188D01*
X169752820Y-119331498D01*
X169642506Y-119390463D01*
X169545815Y-119469815D01*
X169466463Y-119566506D01*
X169434157Y-119626945D01*
X169366125Y-119590581D01*
X169397701Y-119531508D01*
X169419487Y-119459689D01*
X169426843Y-119385000D01*
X169426843Y-118885000D01*
X169419487Y-118810311D01*
X169397701Y-118738492D01*
X169362322Y-118672304D01*
X169314711Y-118614289D01*
X169256696Y-118566678D01*
X169190508Y-118531299D01*
X169118689Y-118509513D01*
X169044000Y-118502157D01*
X168900671Y-118502157D01*
X168857625Y-118446608D01*
X168763190Y-118364583D01*
X168654568Y-118302557D01*
X168575094Y-118276000D01*
X171995157Y-118276000D01*
X171995157Y-119976000D01*
X172002513Y-120050689D01*
X172024299Y-120122508D01*
X172059678Y-120188696D01*
X172107289Y-120246711D01*
X172165304Y-120294322D01*
X172231492Y-120329701D01*
X172303311Y-120351487D01*
X172378000Y-120358843D01*
X174078000Y-120358843D01*
X174152689Y-120351487D01*
X174224508Y-120329701D01*
X174290696Y-120294322D01*
X174348711Y-120246711D01*
X174396322Y-120188696D01*
X174431701Y-120122508D01*
X174453487Y-120050689D01*
X174460843Y-119976000D01*
X174460843Y-118276000D01*
X174453487Y-118201311D01*
X174431701Y-118129492D01*
X174396322Y-118063304D01*
X174348711Y-118005289D01*
X174290696Y-117957678D01*
X174224508Y-117922299D01*
X174152689Y-117900513D01*
X174078000Y-117893157D01*
X172378000Y-117893157D01*
X172303311Y-117900513D01*
X172231492Y-117922299D01*
X172165304Y-117957678D01*
X172107289Y-118005289D01*
X172059678Y-118063304D01*
X172024299Y-118129492D01*
X172002513Y-118201311D01*
X171995157Y-118276000D01*
X168575094Y-118276000D01*
X168535932Y-118262914D01*
X168425750Y-118250000D01*
X168267000Y-118408750D01*
X168267000Y-119012000D01*
X168311157Y-119012000D01*
X168311157Y-119258000D01*
X168267000Y-119258000D01*
X168267000Y-119282000D01*
X168171000Y-119282000D01*
X168171000Y-119258000D01*
X168126843Y-119258000D01*
X168126843Y-119012000D01*
X168171000Y-119012000D01*
X168171000Y-118408750D01*
X168106355Y-118344105D01*
X168508075Y-117942385D01*
X168552068Y-117957086D01*
X168662250Y-117970000D01*
X168821000Y-117811250D01*
X168821000Y-117208000D01*
X168917000Y-117208000D01*
X168917000Y-117811250D01*
X169075750Y-117970000D01*
X169185932Y-117957086D01*
X169304568Y-117917443D01*
X169413190Y-117855417D01*
X169507625Y-117773392D01*
X169584243Y-117674520D01*
X169640099Y-117562600D01*
X169673048Y-117441934D01*
X169679000Y-117366750D01*
X169520250Y-117208000D01*
X168917000Y-117208000D01*
X168821000Y-117208000D01*
X168776843Y-117208000D01*
X168776843Y-116962000D01*
X168821000Y-116962000D01*
X168821000Y-116358750D01*
X168917000Y-116358750D01*
X168917000Y-116962000D01*
X169520250Y-116962000D01*
X169679000Y-116803250D01*
X169673048Y-116728066D01*
X169640099Y-116607400D01*
X169584243Y-116495480D01*
X169507625Y-116396608D01*
X169413190Y-116314583D01*
X169304568Y-116252557D01*
X169185932Y-116212914D01*
X169075750Y-116200000D01*
X168917000Y-116358750D01*
X168821000Y-116358750D01*
X168662250Y-116200000D01*
X168552068Y-116212914D01*
X168433432Y-116252557D01*
X168324810Y-116314583D01*
X168230375Y-116396608D01*
X168187329Y-116452157D01*
X168064300Y-116452157D01*
X168064300Y-115269316D01*
X168066695Y-115244999D01*
X168064300Y-115220682D01*
X168064300Y-115220673D01*
X168057133Y-115147904D01*
X168028811Y-115054540D01*
X167987462Y-114977181D01*
X167982819Y-114968494D01*
X167936431Y-114911971D01*
X167936430Y-114911970D01*
X167920924Y-114893076D01*
X167902030Y-114877570D01*
X167378131Y-114353672D01*
X167443929Y-114194823D01*
X167497000Y-113928017D01*
X167497000Y-113655983D01*
X167443929Y-113389177D01*
X167339826Y-113137851D01*
X167188693Y-112911664D01*
X166996336Y-112719307D01*
X166770149Y-112568174D01*
X166536300Y-112471310D01*
X166536300Y-111957843D01*
X167141000Y-111957843D01*
X167215689Y-111950487D01*
X167287508Y-111928701D01*
X167353696Y-111893322D01*
X167411711Y-111845711D01*
X167459322Y-111787696D01*
X167494701Y-111721508D01*
X167516487Y-111649689D01*
X167523843Y-111575000D01*
X167523843Y-111355000D01*
X167519441Y-111310300D01*
X167798683Y-111310300D01*
X167823000Y-111312695D01*
X167847317Y-111310300D01*
X167847327Y-111310300D01*
X167920096Y-111303133D01*
X168013460Y-111274811D01*
X168099505Y-111228819D01*
X168174924Y-111166924D01*
X168190434Y-111148025D01*
X168481025Y-110857434D01*
X168499924Y-110841924D01*
X168537207Y-110796495D01*
X168561819Y-110766506D01*
X168607810Y-110680461D01*
X168607811Y-110680460D01*
X168636133Y-110587096D01*
X168643300Y-110514327D01*
X168643300Y-110514318D01*
X168645695Y-110490001D01*
X168643300Y-110465684D01*
X168643300Y-109894000D01*
X171995157Y-109894000D01*
X171995157Y-111594000D01*
X172002513Y-111668689D01*
X172024299Y-111740508D01*
X172059678Y-111806696D01*
X172107289Y-111864711D01*
X172165304Y-111912322D01*
X172231492Y-111947701D01*
X172303311Y-111969487D01*
X172378000Y-111976843D01*
X174078000Y-111976843D01*
X174152689Y-111969487D01*
X174224508Y-111947701D01*
X174290696Y-111912322D01*
X174348711Y-111864711D01*
X174396322Y-111806696D01*
X174431701Y-111740508D01*
X174453487Y-111668689D01*
X174460843Y-111594000D01*
X174460843Y-109894000D01*
X174453487Y-109819311D01*
X174431701Y-109747492D01*
X174396322Y-109681304D01*
X174348711Y-109623289D01*
X174290696Y-109575678D01*
X174224508Y-109540299D01*
X174152689Y-109518513D01*
X174078000Y-109511157D01*
X172378000Y-109511157D01*
X172303311Y-109518513D01*
X172231492Y-109540299D01*
X172165304Y-109575678D01*
X172107289Y-109623289D01*
X172059678Y-109681304D01*
X172024299Y-109747492D01*
X172002513Y-109819311D01*
X171995157Y-109894000D01*
X168643300Y-109894000D01*
X168643300Y-108228317D01*
X168645695Y-108204000D01*
X168643300Y-108179683D01*
X168643300Y-108179673D01*
X168636133Y-108106904D01*
X168607811Y-108013540D01*
X168561819Y-107927495D01*
X168499924Y-107852076D01*
X168481030Y-107836570D01*
X167499434Y-106854975D01*
X167483924Y-106836076D01*
X167448226Y-106806779D01*
X167443929Y-106785177D01*
X167339826Y-106533851D01*
X167188693Y-106307664D01*
X166996336Y-106115307D01*
X166770149Y-105964174D01*
X166518823Y-105860071D01*
X166252017Y-105807000D01*
X165979983Y-105807000D01*
X165713177Y-105860071D01*
X165461851Y-105964174D01*
X165235664Y-106115307D01*
X165043307Y-106307664D01*
X164892174Y-106533851D01*
X164788071Y-106785177D01*
X164735000Y-107051983D01*
X164735000Y-107324017D01*
X164788071Y-107590823D01*
X164892174Y-107842149D01*
X165043307Y-108068336D01*
X165235664Y-108260693D01*
X165461851Y-108411826D01*
X165713177Y-108515929D01*
X165979983Y-108569000D01*
X166252017Y-108569000D01*
X166518823Y-108515929D01*
X166770149Y-108411826D01*
X166996336Y-108260693D01*
X167188693Y-108068336D01*
X167238033Y-107994493D01*
X167652701Y-108409161D01*
X167652701Y-109026537D01*
X167584361Y-108946124D01*
X167486320Y-108868446D01*
X167375008Y-108811387D01*
X167254704Y-108777141D01*
X167130029Y-108767022D01*
X166326750Y-108770000D01*
X166168000Y-108928750D01*
X166168000Y-109625000D01*
X165914000Y-109625000D01*
X165914000Y-108928750D01*
X165755250Y-108770000D01*
X165374029Y-108768587D01*
X165373125Y-108759410D01*
X165349910Y-108682879D01*
X165312210Y-108612347D01*
X165261474Y-108550526D01*
X165199653Y-108499790D01*
X165129121Y-108462090D01*
X165052590Y-108438875D01*
X164992941Y-108433000D01*
X164973000Y-108431036D01*
X164953060Y-108433000D01*
X160928940Y-108433000D01*
X160909000Y-108431036D01*
X160889059Y-108433000D01*
X160829410Y-108438875D01*
X160752879Y-108462090D01*
X160682347Y-108499790D01*
X160620526Y-108550526D01*
X160569790Y-108612347D01*
X160532090Y-108682879D01*
X160508875Y-108759410D01*
X160501036Y-108839000D01*
X160503000Y-108858941D01*
X160503000Y-109022157D01*
X159890274Y-109022157D01*
X159865327Y-109019700D01*
X159841000Y-109017304D01*
X159816673Y-109019700D01*
X158042522Y-109019700D01*
X158037574Y-109003389D01*
X157981403Y-108898301D01*
X157905810Y-108806190D01*
X157813699Y-108730597D01*
X157721300Y-108681208D01*
X157721300Y-108477624D01*
X157880149Y-108411826D01*
X158106336Y-108260693D01*
X158298693Y-108068336D01*
X158449826Y-107842149D01*
X158553929Y-107590823D01*
X158607000Y-107324017D01*
X158607000Y-107051983D01*
X158553929Y-106785177D01*
X158449826Y-106533851D01*
X158298693Y-106307664D01*
X158106336Y-106115307D01*
X157880149Y-105964174D01*
X157628823Y-105860071D01*
X157362017Y-105807000D01*
X157089983Y-105807000D01*
X156823177Y-105860071D01*
X156571851Y-105964174D01*
X156345664Y-106115307D01*
X156153307Y-106307664D01*
X156002174Y-106533851D01*
X155898071Y-106785177D01*
X155845000Y-107051983D01*
X155689300Y-107051983D01*
X155689300Y-103329159D01*
X157939160Y-101079300D01*
X161327157Y-101079300D01*
X161327157Y-101434000D01*
X161334513Y-101508689D01*
X161356299Y-101580508D01*
X161391678Y-101646696D01*
X161439289Y-101704711D01*
X161497304Y-101752322D01*
X161563492Y-101787701D01*
X161635311Y-101809487D01*
X161710000Y-101816843D01*
X163410000Y-101816843D01*
X163484689Y-101809487D01*
X163556508Y-101787701D01*
X163597106Y-101766000D01*
X172249157Y-101766000D01*
X172249157Y-103466000D01*
X172256513Y-103540689D01*
X172278299Y-103612508D01*
X172313678Y-103678696D01*
X172361289Y-103736711D01*
X172419304Y-103784322D01*
X172485492Y-103819701D01*
X172557311Y-103841487D01*
X172632000Y-103848843D01*
X174332000Y-103848843D01*
X174406689Y-103841487D01*
X174478508Y-103819701D01*
X174544696Y-103784322D01*
X174602711Y-103736711D01*
X174650322Y-103678696D01*
X174685701Y-103612508D01*
X174707487Y-103540689D01*
X174714843Y-103466000D01*
X174714843Y-101766000D01*
X174707487Y-101691311D01*
X174685701Y-101619492D01*
X174650322Y-101553304D01*
X174602711Y-101495289D01*
X174544696Y-101447678D01*
X174478508Y-101412299D01*
X174406689Y-101390513D01*
X174332000Y-101383157D01*
X172632000Y-101383157D01*
X172557311Y-101390513D01*
X172485492Y-101412299D01*
X172419304Y-101447678D01*
X172361289Y-101495289D01*
X172313678Y-101553304D01*
X172278299Y-101619492D01*
X172256513Y-101691311D01*
X172249157Y-101766000D01*
X163597106Y-101766000D01*
X163622696Y-101752322D01*
X163680711Y-101704711D01*
X163728322Y-101646696D01*
X163763701Y-101580508D01*
X163785487Y-101508689D01*
X163792843Y-101434000D01*
X163792843Y-99734000D01*
X163785487Y-99659311D01*
X163763701Y-99587492D01*
X163728322Y-99521304D01*
X163680711Y-99463289D01*
X163622696Y-99415678D01*
X163556508Y-99380299D01*
X163484689Y-99358513D01*
X163410000Y-99351157D01*
X161710000Y-99351157D01*
X161635311Y-99358513D01*
X161563492Y-99380299D01*
X161497304Y-99415678D01*
X161439289Y-99463289D01*
X161391678Y-99521304D01*
X161356299Y-99587492D01*
X161334513Y-99659311D01*
X161327157Y-99734000D01*
X161327157Y-100088700D01*
X157758316Y-100088700D01*
X157733999Y-100086305D01*
X157709682Y-100088700D01*
X157709673Y-100088700D01*
X157636904Y-100095867D01*
X157543540Y-100124189D01*
X157503486Y-100145598D01*
X157457494Y-100170181D01*
X157400971Y-100216569D01*
X157382076Y-100232076D01*
X157366570Y-100250970D01*
X154860971Y-102756570D01*
X154842077Y-102772076D01*
X154826571Y-102790970D01*
X154826569Y-102790972D01*
X154780181Y-102847496D01*
X154734189Y-102933541D01*
X154705868Y-103026905D01*
X154696305Y-103124000D01*
X154140843Y-103124000D01*
X154140843Y-101766000D01*
X154133487Y-101691311D01*
X154111701Y-101619492D01*
X154076322Y-101553304D01*
X154028711Y-101495289D01*
X153970696Y-101447678D01*
X153904508Y-101412299D01*
X153832689Y-101390513D01*
X153758000Y-101383157D01*
X152058000Y-101383157D01*
X151983311Y-101390513D01*
X151911492Y-101412299D01*
X151845304Y-101447678D01*
X151787289Y-101495289D01*
X151739678Y-101553304D01*
X151704299Y-101619492D01*
X151682513Y-101691311D01*
X151675157Y-101766000D01*
X151307000Y-101766000D01*
X151307000Y-99237000D01*
X174829000Y-99237000D01*
X174829001Y-122251000D01*
%TA.AperFunction,Conductor*%
D16*
G36*
X174829001Y-122251000D02*
G01*
X151307000Y-122251000D01*
X151307000Y-118276000D01*
X151675157Y-118276000D01*
X151675157Y-119976000D01*
X151682513Y-120050689D01*
X151704299Y-120122508D01*
X151739678Y-120188696D01*
X151787289Y-120246711D01*
X151845304Y-120294322D01*
X151911492Y-120329701D01*
X151983311Y-120351487D01*
X152058000Y-120358843D01*
X153758000Y-120358843D01*
X153832689Y-120351487D01*
X153904508Y-120329701D01*
X153970696Y-120294322D01*
X154028711Y-120246711D01*
X154076322Y-120188696D01*
X154111701Y-120122508D01*
X154133487Y-120050689D01*
X154140843Y-119976000D01*
X154140843Y-118276000D01*
X154133487Y-118201311D01*
X154111701Y-118129492D01*
X154076322Y-118063304D01*
X154028711Y-118005289D01*
X153970696Y-117957678D01*
X153904508Y-117922299D01*
X153832689Y-117900513D01*
X153758000Y-117893157D01*
X152058000Y-117893157D01*
X151983311Y-117900513D01*
X151911492Y-117922299D01*
X151845304Y-117957678D01*
X151787289Y-118005289D01*
X151739678Y-118063304D01*
X151704299Y-118129492D01*
X151682513Y-118201311D01*
X151675157Y-118276000D01*
X151307000Y-118276000D01*
X151307000Y-109894000D01*
X151675157Y-109894000D01*
X151675157Y-111594000D01*
X151682513Y-111668689D01*
X151704299Y-111740508D01*
X151739678Y-111806696D01*
X151787289Y-111864711D01*
X151845304Y-111912322D01*
X151911492Y-111947701D01*
X151983311Y-111969487D01*
X152058000Y-111976843D01*
X153758000Y-111976843D01*
X153832689Y-111969487D01*
X153904508Y-111947701D01*
X153970696Y-111912322D01*
X154028711Y-111864711D01*
X154076322Y-111806696D01*
X154111701Y-111740508D01*
X154133487Y-111668689D01*
X154140843Y-111594000D01*
X154140843Y-109894000D01*
X154133487Y-109819311D01*
X154111701Y-109747492D01*
X154076322Y-109681304D01*
X154028711Y-109623289D01*
X153970696Y-109575678D01*
X153904508Y-109540299D01*
X153832689Y-109518513D01*
X153758000Y-109511157D01*
X152058000Y-109511157D01*
X151983311Y-109518513D01*
X151911492Y-109540299D01*
X151845304Y-109575678D01*
X151787289Y-109623289D01*
X151739678Y-109681304D01*
X151704299Y-109747492D01*
X151682513Y-109819311D01*
X151675157Y-109894000D01*
X151307000Y-109894000D01*
X151307000Y-101766000D01*
X151675157Y-101766000D01*
X151675157Y-103466000D01*
X151682513Y-103540689D01*
X151704299Y-103612508D01*
X151739678Y-103678696D01*
X151787289Y-103736711D01*
X151845304Y-103784322D01*
X151911492Y-103819701D01*
X151983311Y-103841487D01*
X152058000Y-103848843D01*
X153758000Y-103848843D01*
X153832689Y-103841487D01*
X153904508Y-103819701D01*
X153970696Y-103784322D01*
X154028711Y-103736711D01*
X154076322Y-103678696D01*
X154111701Y-103612508D01*
X154133487Y-103540689D01*
X154140843Y-103466000D01*
X154140843Y-103124000D01*
X154696305Y-103124000D01*
X154698701Y-103148327D01*
X154698700Y-118339683D01*
X154696305Y-118364000D01*
X154698700Y-118388317D01*
X154698700Y-118388326D01*
X154705867Y-118461095D01*
X154734189Y-118554459D01*
X154780181Y-118640505D01*
X154842076Y-118715924D01*
X154860975Y-118731434D01*
X156858570Y-120729030D01*
X156874076Y-120747924D01*
X156949495Y-120809819D01*
X157035540Y-120855811D01*
X157128904Y-120884133D01*
X157201673Y-120891300D01*
X157201683Y-120891300D01*
X157226000Y-120893695D01*
X157250317Y-120891300D01*
X161327157Y-120891300D01*
X161327157Y-121246000D01*
X161334513Y-121320689D01*
X161356299Y-121392508D01*
X161391678Y-121458696D01*
X161439289Y-121516711D01*
X161497304Y-121564322D01*
X161563492Y-121599701D01*
X161635311Y-121621487D01*
X161710000Y-121628843D01*
X163410000Y-121628843D01*
X163484689Y-121621487D01*
X163556508Y-121599701D01*
X163622696Y-121564322D01*
X163680711Y-121516711D01*
X163728322Y-121458696D01*
X163763701Y-121392508D01*
X163785487Y-121320689D01*
X163792843Y-121246000D01*
X163792843Y-120871000D01*
X164506928Y-120871000D01*
X164519188Y-120995482D01*
X164555498Y-121115180D01*
X164614463Y-121225494D01*
X164693815Y-121322185D01*
X164790506Y-121401537D01*
X164900820Y-121460502D01*
X165020518Y-121496812D01*
X165145000Y-121509072D01*
X165309250Y-121506000D01*
X165468000Y-121347250D01*
X165468000Y-120523000D01*
X164668750Y-120523000D01*
X164510000Y-120681750D01*
X164506928Y-120871000D01*
X163792843Y-120871000D01*
X163792843Y-119546000D01*
X163785487Y-119471311D01*
X163763701Y-119399492D01*
X163728322Y-119333304D01*
X163680711Y-119275289D01*
X163622696Y-119227678D01*
X163556508Y-119192299D01*
X163484689Y-119170513D01*
X163410000Y-119163157D01*
X161710000Y-119163157D01*
X161635311Y-119170513D01*
X161563492Y-119192299D01*
X161497304Y-119227678D01*
X161439289Y-119275289D01*
X161391678Y-119333304D01*
X161356299Y-119399492D01*
X161334513Y-119471311D01*
X161327157Y-119546000D01*
X161327157Y-119900700D01*
X157431160Y-119900700D01*
X155689300Y-118158841D01*
X155689300Y-114927413D01*
X156270192Y-114927413D01*
X156365956Y-115191814D01*
X156655571Y-115332704D01*
X156967108Y-115414384D01*
X157288595Y-115433718D01*
X157607675Y-115389961D01*
X157912088Y-115284795D01*
X158086044Y-115191814D01*
X158181808Y-114927413D01*
X157226000Y-113971605D01*
X156270192Y-114927413D01*
X155689300Y-114927413D01*
X155689300Y-114351001D01*
X155733205Y-114478088D01*
X155826186Y-114652044D01*
X156090587Y-114747808D01*
X157046395Y-113792000D01*
X157405605Y-113792000D01*
X158361413Y-114747808D01*
X158625814Y-114652044D01*
X158766704Y-114362429D01*
X158848384Y-114050892D01*
X158867718Y-113729405D01*
X158823961Y-113410325D01*
X158718795Y-113105912D01*
X158625814Y-112931956D01*
X158361413Y-112836192D01*
X157405605Y-113792000D01*
X157046395Y-113792000D01*
X156090587Y-112836192D01*
X155826186Y-112931956D01*
X155689300Y-113213340D01*
X155689300Y-112656587D01*
X156270192Y-112656587D01*
X157226000Y-113612395D01*
X158181808Y-112656587D01*
X158086044Y-112392186D01*
X157796429Y-112251296D01*
X157484892Y-112169616D01*
X157163405Y-112150282D01*
X156844325Y-112194039D01*
X156539912Y-112299205D01*
X156365956Y-112392186D01*
X156270192Y-112656587D01*
X155689300Y-112656587D01*
X155689300Y-111461000D01*
X156112928Y-111461000D01*
X156125188Y-111585482D01*
X156161498Y-111705180D01*
X156220463Y-111815494D01*
X156299815Y-111912185D01*
X156396506Y-111991537D01*
X156506820Y-112050502D01*
X156626518Y-112086812D01*
X156751000Y-112099072D01*
X156940250Y-112096000D01*
X157099000Y-111937250D01*
X157099000Y-111138000D01*
X157353000Y-111138000D01*
X157353000Y-111937250D01*
X157511750Y-112096000D01*
X157701000Y-112099072D01*
X157825482Y-112086812D01*
X157945180Y-112050502D01*
X158055494Y-111991537D01*
X158152185Y-111912185D01*
X158231537Y-111815494D01*
X158290502Y-111705180D01*
X158326812Y-111585482D01*
X158339072Y-111461000D01*
X158336000Y-111296750D01*
X158177250Y-111138000D01*
X157353000Y-111138000D01*
X157099000Y-111138000D01*
X156274750Y-111138000D01*
X156116000Y-111296750D01*
X156112928Y-111461000D01*
X155689300Y-111461000D01*
X155689300Y-107051983D01*
X155845000Y-107051983D01*
X155845000Y-107324017D01*
X155898071Y-107590823D01*
X156002174Y-107842149D01*
X156153307Y-108068336D01*
X156345664Y-108260693D01*
X156571851Y-108411826D01*
X156730701Y-108477624D01*
X156730701Y-108681208D01*
X156638301Y-108730597D01*
X156546190Y-108806190D01*
X156470597Y-108898301D01*
X156414426Y-109003389D01*
X156379837Y-109117416D01*
X156368157Y-109236000D01*
X156368157Y-109686000D01*
X156379837Y-109804584D01*
X156414426Y-109918611D01*
X156456945Y-109998157D01*
X156396506Y-110030463D01*
X156299815Y-110109815D01*
X156220463Y-110206506D01*
X156161498Y-110316820D01*
X156125188Y-110436518D01*
X156112928Y-110561000D01*
X156116000Y-110725250D01*
X156274750Y-110884000D01*
X157099000Y-110884000D01*
X157099000Y-110864000D01*
X157353000Y-110864000D01*
X157353000Y-110884000D01*
X158177250Y-110884000D01*
X158336000Y-110725250D01*
X158339072Y-110561000D01*
X158326812Y-110436518D01*
X158290502Y-110316820D01*
X158231537Y-110206506D01*
X158152185Y-110109815D01*
X158055494Y-110030463D01*
X158017772Y-110010300D01*
X158362559Y-110010300D01*
X158358157Y-110055000D01*
X158358157Y-110275000D01*
X158365513Y-110349689D01*
X158387299Y-110421508D01*
X158422678Y-110487696D01*
X158424569Y-110490000D01*
X158422678Y-110492304D01*
X158387299Y-110558492D01*
X158365513Y-110630311D01*
X158358157Y-110705000D01*
X158358157Y-110925000D01*
X158365513Y-110999689D01*
X158387299Y-111071508D01*
X158422678Y-111137696D01*
X158424569Y-111140000D01*
X158422678Y-111142304D01*
X158387299Y-111208492D01*
X158365513Y-111280311D01*
X158358157Y-111355000D01*
X158358157Y-111575000D01*
X158365513Y-111649689D01*
X158387299Y-111721508D01*
X158422678Y-111787696D01*
X158470289Y-111845711D01*
X158528304Y-111893322D01*
X158594492Y-111928701D01*
X158666311Y-111950487D01*
X158741000Y-111957843D01*
X159345701Y-111957843D01*
X159345700Y-115366683D01*
X159343305Y-115391000D01*
X159345700Y-115415317D01*
X159345700Y-115415326D01*
X159352867Y-115488095D01*
X159381189Y-115581459D01*
X159427181Y-115667505D01*
X159489076Y-115742924D01*
X159507975Y-115758434D01*
X160922568Y-117173028D01*
X160938076Y-117191924D01*
X160956970Y-117207430D01*
X160956971Y-117207431D01*
X161013494Y-117253819D01*
X161053982Y-117275460D01*
X161099540Y-117299811D01*
X161192904Y-117328133D01*
X161265673Y-117335300D01*
X161265682Y-117335300D01*
X161289999Y-117337695D01*
X161314316Y-117335300D01*
X163624841Y-117335300D01*
X165575540Y-119286000D01*
X165467998Y-119286000D01*
X165467998Y-119444748D01*
X165309250Y-119286000D01*
X165145000Y-119282928D01*
X165020518Y-119295188D01*
X164900820Y-119331498D01*
X164790506Y-119390463D01*
X164693815Y-119469815D01*
X164614463Y-119566506D01*
X164555498Y-119676820D01*
X164519188Y-119796518D01*
X164506928Y-119921000D01*
X164510000Y-120110250D01*
X164668750Y-120269000D01*
X165468000Y-120269000D01*
X165468000Y-120249000D01*
X165722000Y-120249000D01*
X165722000Y-120269000D01*
X165742000Y-120269000D01*
X165742000Y-120523000D01*
X165722000Y-120523000D01*
X165722000Y-121347250D01*
X165880750Y-121506000D01*
X166045000Y-121509072D01*
X166169482Y-121496812D01*
X166289180Y-121460502D01*
X166399494Y-121401537D01*
X166496185Y-121322185D01*
X166575537Y-121225494D01*
X166607843Y-121165055D01*
X166687389Y-121207574D01*
X166801416Y-121242163D01*
X166920000Y-121253843D01*
X167370000Y-121253843D01*
X167488584Y-121242163D01*
X167602611Y-121207574D01*
X167707699Y-121151403D01*
X167799810Y-121075810D01*
X167875403Y-120983699D01*
X167924792Y-120891300D01*
X168117208Y-120891300D01*
X168166597Y-120983699D01*
X168242190Y-121075810D01*
X168334301Y-121151403D01*
X168439389Y-121207574D01*
X168553416Y-121242163D01*
X168672000Y-121253843D01*
X169122000Y-121253843D01*
X169240584Y-121242163D01*
X169354611Y-121207574D01*
X169434157Y-121165055D01*
X169466463Y-121225494D01*
X169545815Y-121322185D01*
X169642506Y-121401537D01*
X169752820Y-121460502D01*
X169872518Y-121496812D01*
X169997000Y-121509072D01*
X170161250Y-121506000D01*
X170320000Y-121347250D01*
X170320000Y-120523000D01*
X170574000Y-120523000D01*
X170574000Y-121347250D01*
X170732750Y-121506000D01*
X170897000Y-121509072D01*
X171021482Y-121496812D01*
X171141180Y-121460502D01*
X171251494Y-121401537D01*
X171348185Y-121322185D01*
X171427537Y-121225494D01*
X171486502Y-121115180D01*
X171522812Y-120995482D01*
X171535072Y-120871000D01*
X171532000Y-120681750D01*
X171373250Y-120523000D01*
X170574000Y-120523000D01*
X170320000Y-120523000D01*
X170300000Y-120523000D01*
X170300000Y-120269000D01*
X170320000Y-120269000D01*
X170320000Y-119444750D01*
X170574000Y-119444750D01*
X170574000Y-120269000D01*
X171373250Y-120269000D01*
X171532000Y-120110250D01*
X171535072Y-119921000D01*
X171522812Y-119796518D01*
X171486502Y-119676820D01*
X171427537Y-119566506D01*
X171348185Y-119469815D01*
X171251494Y-119390463D01*
X171141180Y-119331498D01*
X171021482Y-119295188D01*
X170897000Y-119282928D01*
X170732750Y-119286000D01*
X170574000Y-119444750D01*
X170320000Y-119444750D01*
X170161250Y-119286000D01*
X169997000Y-119282928D01*
X169872518Y-119295188D01*
X169752820Y-119331498D01*
X169642506Y-119390463D01*
X169545815Y-119469815D01*
X169466463Y-119566506D01*
X169434157Y-119626945D01*
X169366125Y-119590581D01*
X169397701Y-119531508D01*
X169419487Y-119459689D01*
X169426843Y-119385000D01*
X169426843Y-118885000D01*
X169419487Y-118810311D01*
X169397701Y-118738492D01*
X169362322Y-118672304D01*
X169314711Y-118614289D01*
X169256696Y-118566678D01*
X169190508Y-118531299D01*
X169118689Y-118509513D01*
X169044000Y-118502157D01*
X168900671Y-118502157D01*
X168857625Y-118446608D01*
X168763190Y-118364583D01*
X168654568Y-118302557D01*
X168575094Y-118276000D01*
X171995157Y-118276000D01*
X171995157Y-119976000D01*
X172002513Y-120050689D01*
X172024299Y-120122508D01*
X172059678Y-120188696D01*
X172107289Y-120246711D01*
X172165304Y-120294322D01*
X172231492Y-120329701D01*
X172303311Y-120351487D01*
X172378000Y-120358843D01*
X174078000Y-120358843D01*
X174152689Y-120351487D01*
X174224508Y-120329701D01*
X174290696Y-120294322D01*
X174348711Y-120246711D01*
X174396322Y-120188696D01*
X174431701Y-120122508D01*
X174453487Y-120050689D01*
X174460843Y-119976000D01*
X174460843Y-118276000D01*
X174453487Y-118201311D01*
X174431701Y-118129492D01*
X174396322Y-118063304D01*
X174348711Y-118005289D01*
X174290696Y-117957678D01*
X174224508Y-117922299D01*
X174152689Y-117900513D01*
X174078000Y-117893157D01*
X172378000Y-117893157D01*
X172303311Y-117900513D01*
X172231492Y-117922299D01*
X172165304Y-117957678D01*
X172107289Y-118005289D01*
X172059678Y-118063304D01*
X172024299Y-118129492D01*
X172002513Y-118201311D01*
X171995157Y-118276000D01*
X168575094Y-118276000D01*
X168535932Y-118262914D01*
X168425750Y-118250000D01*
X168267000Y-118408750D01*
X168267000Y-119012000D01*
X168311157Y-119012000D01*
X168311157Y-119258000D01*
X168267000Y-119258000D01*
X168267000Y-119282000D01*
X168171000Y-119282000D01*
X168171000Y-119258000D01*
X168126843Y-119258000D01*
X168126843Y-119012000D01*
X168171000Y-119012000D01*
X168171000Y-118408750D01*
X168106355Y-118344105D01*
X168508075Y-117942385D01*
X168552068Y-117957086D01*
X168662250Y-117970000D01*
X168821000Y-117811250D01*
X168821000Y-117208000D01*
X168917000Y-117208000D01*
X168917000Y-117811250D01*
X169075750Y-117970000D01*
X169185932Y-117957086D01*
X169304568Y-117917443D01*
X169413190Y-117855417D01*
X169507625Y-117773392D01*
X169584243Y-117674520D01*
X169640099Y-117562600D01*
X169673048Y-117441934D01*
X169679000Y-117366750D01*
X169520250Y-117208000D01*
X168917000Y-117208000D01*
X168821000Y-117208000D01*
X168776843Y-117208000D01*
X168776843Y-116962000D01*
X168821000Y-116962000D01*
X168821000Y-116358750D01*
X168917000Y-116358750D01*
X168917000Y-116962000D01*
X169520250Y-116962000D01*
X169679000Y-116803250D01*
X169673048Y-116728066D01*
X169640099Y-116607400D01*
X169584243Y-116495480D01*
X169507625Y-116396608D01*
X169413190Y-116314583D01*
X169304568Y-116252557D01*
X169185932Y-116212914D01*
X169075750Y-116200000D01*
X168917000Y-116358750D01*
X168821000Y-116358750D01*
X168662250Y-116200000D01*
X168552068Y-116212914D01*
X168433432Y-116252557D01*
X168324810Y-116314583D01*
X168230375Y-116396608D01*
X168187329Y-116452157D01*
X168064300Y-116452157D01*
X168064300Y-115269316D01*
X168066695Y-115244999D01*
X168064300Y-115220682D01*
X168064300Y-115220673D01*
X168057133Y-115147904D01*
X168028811Y-115054540D01*
X167987462Y-114977181D01*
X167982819Y-114968494D01*
X167936431Y-114911971D01*
X167936430Y-114911970D01*
X167920924Y-114893076D01*
X167902030Y-114877570D01*
X167378131Y-114353672D01*
X167443929Y-114194823D01*
X167497000Y-113928017D01*
X167497000Y-113655983D01*
X167443929Y-113389177D01*
X167339826Y-113137851D01*
X167188693Y-112911664D01*
X166996336Y-112719307D01*
X166770149Y-112568174D01*
X166536300Y-112471310D01*
X166536300Y-111957843D01*
X167141000Y-111957843D01*
X167215689Y-111950487D01*
X167287508Y-111928701D01*
X167353696Y-111893322D01*
X167411711Y-111845711D01*
X167459322Y-111787696D01*
X167494701Y-111721508D01*
X167516487Y-111649689D01*
X167523843Y-111575000D01*
X167523843Y-111355000D01*
X167519441Y-111310300D01*
X167798683Y-111310300D01*
X167823000Y-111312695D01*
X167847317Y-111310300D01*
X167847327Y-111310300D01*
X167920096Y-111303133D01*
X168013460Y-111274811D01*
X168099505Y-111228819D01*
X168174924Y-111166924D01*
X168190434Y-111148025D01*
X168481025Y-110857434D01*
X168499924Y-110841924D01*
X168537207Y-110796495D01*
X168561819Y-110766506D01*
X168607810Y-110680461D01*
X168607811Y-110680460D01*
X168636133Y-110587096D01*
X168643300Y-110514327D01*
X168643300Y-110514318D01*
X168645695Y-110490001D01*
X168643300Y-110465684D01*
X168643300Y-109894000D01*
X171995157Y-109894000D01*
X171995157Y-111594000D01*
X172002513Y-111668689D01*
X172024299Y-111740508D01*
X172059678Y-111806696D01*
X172107289Y-111864711D01*
X172165304Y-111912322D01*
X172231492Y-111947701D01*
X172303311Y-111969487D01*
X172378000Y-111976843D01*
X174078000Y-111976843D01*
X174152689Y-111969487D01*
X174224508Y-111947701D01*
X174290696Y-111912322D01*
X174348711Y-111864711D01*
X174396322Y-111806696D01*
X174431701Y-111740508D01*
X174453487Y-111668689D01*
X174460843Y-111594000D01*
X174460843Y-109894000D01*
X174453487Y-109819311D01*
X174431701Y-109747492D01*
X174396322Y-109681304D01*
X174348711Y-109623289D01*
X174290696Y-109575678D01*
X174224508Y-109540299D01*
X174152689Y-109518513D01*
X174078000Y-109511157D01*
X172378000Y-109511157D01*
X172303311Y-109518513D01*
X172231492Y-109540299D01*
X172165304Y-109575678D01*
X172107289Y-109623289D01*
X172059678Y-109681304D01*
X172024299Y-109747492D01*
X172002513Y-109819311D01*
X171995157Y-109894000D01*
X168643300Y-109894000D01*
X168643300Y-108228317D01*
X168645695Y-108204000D01*
X168643300Y-108179683D01*
X168643300Y-108179673D01*
X168636133Y-108106904D01*
X168607811Y-108013540D01*
X168561819Y-107927495D01*
X168499924Y-107852076D01*
X168481030Y-107836570D01*
X167499434Y-106854975D01*
X167483924Y-106836076D01*
X167448226Y-106806779D01*
X167443929Y-106785177D01*
X167339826Y-106533851D01*
X167188693Y-106307664D01*
X166996336Y-106115307D01*
X166770149Y-105964174D01*
X166518823Y-105860071D01*
X166252017Y-105807000D01*
X165979983Y-105807000D01*
X165713177Y-105860071D01*
X165461851Y-105964174D01*
X165235664Y-106115307D01*
X165043307Y-106307664D01*
X164892174Y-106533851D01*
X164788071Y-106785177D01*
X164735000Y-107051983D01*
X164735000Y-107324017D01*
X164788071Y-107590823D01*
X164892174Y-107842149D01*
X165043307Y-108068336D01*
X165235664Y-108260693D01*
X165461851Y-108411826D01*
X165713177Y-108515929D01*
X165979983Y-108569000D01*
X166252017Y-108569000D01*
X166518823Y-108515929D01*
X166770149Y-108411826D01*
X166996336Y-108260693D01*
X167188693Y-108068336D01*
X167238033Y-107994493D01*
X167652701Y-108409161D01*
X167652701Y-109026537D01*
X167584361Y-108946124D01*
X167486320Y-108868446D01*
X167375008Y-108811387D01*
X167254704Y-108777141D01*
X167130029Y-108767022D01*
X166326750Y-108770000D01*
X166168000Y-108928750D01*
X166168000Y-109625000D01*
X165914000Y-109625000D01*
X165914000Y-108928750D01*
X165755250Y-108770000D01*
X165374029Y-108768587D01*
X165373125Y-108759410D01*
X165349910Y-108682879D01*
X165312210Y-108612347D01*
X165261474Y-108550526D01*
X165199653Y-108499790D01*
X165129121Y-108462090D01*
X165052590Y-108438875D01*
X164992941Y-108433000D01*
X164973000Y-108431036D01*
X164953060Y-108433000D01*
X160928940Y-108433000D01*
X160909000Y-108431036D01*
X160889059Y-108433000D01*
X160829410Y-108438875D01*
X160752879Y-108462090D01*
X160682347Y-108499790D01*
X160620526Y-108550526D01*
X160569790Y-108612347D01*
X160532090Y-108682879D01*
X160508875Y-108759410D01*
X160501036Y-108839000D01*
X160503000Y-108858941D01*
X160503000Y-109022157D01*
X159890274Y-109022157D01*
X159865327Y-109019700D01*
X159841000Y-109017304D01*
X159816673Y-109019700D01*
X158042522Y-109019700D01*
X158037574Y-109003389D01*
X157981403Y-108898301D01*
X157905810Y-108806190D01*
X157813699Y-108730597D01*
X157721300Y-108681208D01*
X157721300Y-108477624D01*
X157880149Y-108411826D01*
X158106336Y-108260693D01*
X158298693Y-108068336D01*
X158449826Y-107842149D01*
X158553929Y-107590823D01*
X158607000Y-107324017D01*
X158607000Y-107051983D01*
X158553929Y-106785177D01*
X158449826Y-106533851D01*
X158298693Y-106307664D01*
X158106336Y-106115307D01*
X157880149Y-105964174D01*
X157628823Y-105860071D01*
X157362017Y-105807000D01*
X157089983Y-105807000D01*
X156823177Y-105860071D01*
X156571851Y-105964174D01*
X156345664Y-106115307D01*
X156153307Y-106307664D01*
X156002174Y-106533851D01*
X155898071Y-106785177D01*
X155845000Y-107051983D01*
X155689300Y-107051983D01*
X155689300Y-103329159D01*
X157939160Y-101079300D01*
X161327157Y-101079300D01*
X161327157Y-101434000D01*
X161334513Y-101508689D01*
X161356299Y-101580508D01*
X161391678Y-101646696D01*
X161439289Y-101704711D01*
X161497304Y-101752322D01*
X161563492Y-101787701D01*
X161635311Y-101809487D01*
X161710000Y-101816843D01*
X163410000Y-101816843D01*
X163484689Y-101809487D01*
X163556508Y-101787701D01*
X163597106Y-101766000D01*
X172249157Y-101766000D01*
X172249157Y-103466000D01*
X172256513Y-103540689D01*
X172278299Y-103612508D01*
X172313678Y-103678696D01*
X172361289Y-103736711D01*
X172419304Y-103784322D01*
X172485492Y-103819701D01*
X172557311Y-103841487D01*
X172632000Y-103848843D01*
X174332000Y-103848843D01*
X174406689Y-103841487D01*
X174478508Y-103819701D01*
X174544696Y-103784322D01*
X174602711Y-103736711D01*
X174650322Y-103678696D01*
X174685701Y-103612508D01*
X174707487Y-103540689D01*
X174714843Y-103466000D01*
X174714843Y-101766000D01*
X174707487Y-101691311D01*
X174685701Y-101619492D01*
X174650322Y-101553304D01*
X174602711Y-101495289D01*
X174544696Y-101447678D01*
X174478508Y-101412299D01*
X174406689Y-101390513D01*
X174332000Y-101383157D01*
X172632000Y-101383157D01*
X172557311Y-101390513D01*
X172485492Y-101412299D01*
X172419304Y-101447678D01*
X172361289Y-101495289D01*
X172313678Y-101553304D01*
X172278299Y-101619492D01*
X172256513Y-101691311D01*
X172249157Y-101766000D01*
X163597106Y-101766000D01*
X163622696Y-101752322D01*
X163680711Y-101704711D01*
X163728322Y-101646696D01*
X163763701Y-101580508D01*
X163785487Y-101508689D01*
X163792843Y-101434000D01*
X163792843Y-99734000D01*
X163785487Y-99659311D01*
X163763701Y-99587492D01*
X163728322Y-99521304D01*
X163680711Y-99463289D01*
X163622696Y-99415678D01*
X163556508Y-99380299D01*
X163484689Y-99358513D01*
X163410000Y-99351157D01*
X161710000Y-99351157D01*
X161635311Y-99358513D01*
X161563492Y-99380299D01*
X161497304Y-99415678D01*
X161439289Y-99463289D01*
X161391678Y-99521304D01*
X161356299Y-99587492D01*
X161334513Y-99659311D01*
X161327157Y-99734000D01*
X161327157Y-100088700D01*
X157758316Y-100088700D01*
X157733999Y-100086305D01*
X157709682Y-100088700D01*
X157709673Y-100088700D01*
X157636904Y-100095867D01*
X157543540Y-100124189D01*
X157503486Y-100145598D01*
X157457494Y-100170181D01*
X157400971Y-100216569D01*
X157382076Y-100232076D01*
X157366570Y-100250970D01*
X154860971Y-102756570D01*
X154842077Y-102772076D01*
X154826571Y-102790970D01*
X154826569Y-102790972D01*
X154780181Y-102847496D01*
X154734189Y-102933541D01*
X154705868Y-103026905D01*
X154696305Y-103124000D01*
X154140843Y-103124000D01*
X154140843Y-101766000D01*
X154133487Y-101691311D01*
X154111701Y-101619492D01*
X154076322Y-101553304D01*
X154028711Y-101495289D01*
X153970696Y-101447678D01*
X153904508Y-101412299D01*
X153832689Y-101390513D01*
X153758000Y-101383157D01*
X152058000Y-101383157D01*
X151983311Y-101390513D01*
X151911492Y-101412299D01*
X151845304Y-101447678D01*
X151787289Y-101495289D01*
X151739678Y-101553304D01*
X151704299Y-101619492D01*
X151682513Y-101691311D01*
X151675157Y-101766000D01*
X151307000Y-101766000D01*
X151307000Y-99237000D01*
X174829000Y-99237000D01*
X174829001Y-122251000D01*
G37*
%TD.AperFunction*%
%TD*%
M02*
