%TF.GenerationSoftware,KiCad,Pcbnew,(5.1.10)-1*%
%TF.CreationDate,2023-09-10T10:41:42-05:00*%
%TF.ProjectId,perovskite_contact_board,7065726f-7673-46b6-9974-655f636f6e74,V3*%
%TF.SameCoordinates,Original*%
%TF.FileFunction,Legend,Bot*%
%TF.FilePolarity,Positive*%
%FSLAX46Y46*%
G04 Gerber Fmt 4.6, Leading zero omitted, Abs format (unit mm)*
G04 Created by KiCad (PCBNEW (5.1.10)-1) date 2023-09-10 10:41:42*
%MOMM*%
%LPD*%
G01*
G04 APERTURE LIST*
%ADD10C,0.100000*%
%ADD11C,0.120000*%
G04 APERTURE END LIST*
D10*
X163421142Y-115772380D02*
X163349714Y-115796190D01*
X163230666Y-115796190D01*
X163183047Y-115772380D01*
X163159238Y-115748571D01*
X163135428Y-115700952D01*
X163135428Y-115653333D01*
X163159238Y-115605714D01*
X163183047Y-115581904D01*
X163230666Y-115558095D01*
X163325904Y-115534285D01*
X163373523Y-115510476D01*
X163397333Y-115486666D01*
X163421142Y-115439047D01*
X163421142Y-115391428D01*
X163397333Y-115343809D01*
X163373523Y-115320000D01*
X163325904Y-115296190D01*
X163206857Y-115296190D01*
X163135428Y-115320000D01*
X162921142Y-115796190D02*
X162921142Y-115296190D01*
X162802095Y-115296190D01*
X162730666Y-115320000D01*
X162683047Y-115367619D01*
X162659238Y-115415238D01*
X162635428Y-115510476D01*
X162635428Y-115581904D01*
X162659238Y-115677142D01*
X162683047Y-115724761D01*
X162730666Y-115772380D01*
X162802095Y-115796190D01*
X162921142Y-115796190D01*
X162444952Y-115653333D02*
X162206857Y-115653333D01*
X162492571Y-115796190D02*
X162325904Y-115296190D01*
X162159238Y-115796190D01*
X168084500Y-111212380D02*
X168084500Y-111450476D01*
X168322595Y-111355238D02*
X168084500Y-111450476D01*
X167846404Y-111355238D01*
X168227357Y-111640952D02*
X168084500Y-111450476D01*
X167941642Y-111640952D01*
X157606952Y-115320000D02*
X157654571Y-115296190D01*
X157726000Y-115296190D01*
X157797428Y-115320000D01*
X157845047Y-115367619D01*
X157868857Y-115415238D01*
X157892666Y-115510476D01*
X157892666Y-115581904D01*
X157868857Y-115677142D01*
X157845047Y-115724761D01*
X157797428Y-115772380D01*
X157726000Y-115796190D01*
X157678380Y-115796190D01*
X157606952Y-115772380D01*
X157583142Y-115748571D01*
X157583142Y-115581904D01*
X157678380Y-115581904D01*
X157368857Y-115796190D02*
X157368857Y-115296190D01*
X157083142Y-115796190D01*
X157083142Y-115296190D01*
X156845047Y-115796190D02*
X156845047Y-115296190D01*
X156726000Y-115296190D01*
X156654571Y-115320000D01*
X156606952Y-115367619D01*
X156583142Y-115415238D01*
X156559333Y-115510476D01*
X156559333Y-115581904D01*
X156583142Y-115677142D01*
X156606952Y-115724761D01*
X156654571Y-115772380D01*
X156726000Y-115796190D01*
X156845047Y-115796190D01*
X157892666Y-105136190D02*
X157726000Y-105636190D01*
X157559333Y-105136190D01*
X157392666Y-105636190D02*
X157392666Y-105136190D01*
X157273619Y-105136190D01*
X157202190Y-105160000D01*
X157154571Y-105207619D01*
X157130761Y-105255238D01*
X157106952Y-105350476D01*
X157106952Y-105421904D01*
X157130761Y-105517142D01*
X157154571Y-105564761D01*
X157202190Y-105612380D01*
X157273619Y-105636190D01*
X157392666Y-105636190D01*
X156892666Y-105636190D02*
X156892666Y-105136190D01*
X156773619Y-105136190D01*
X156702190Y-105160000D01*
X156654571Y-105207619D01*
X156630761Y-105255238D01*
X156606952Y-105350476D01*
X156606952Y-105421904D01*
X156630761Y-105517142D01*
X156654571Y-105564761D01*
X156702190Y-105612380D01*
X156773619Y-105636190D01*
X156892666Y-105636190D01*
X166711238Y-105612380D02*
X166639809Y-105636190D01*
X166520761Y-105636190D01*
X166473142Y-105612380D01*
X166449333Y-105588571D01*
X166425523Y-105540952D01*
X166425523Y-105493333D01*
X166449333Y-105445714D01*
X166473142Y-105421904D01*
X166520761Y-105398095D01*
X166616000Y-105374285D01*
X166663619Y-105350476D01*
X166687428Y-105326666D01*
X166711238Y-105279047D01*
X166711238Y-105231428D01*
X166687428Y-105183809D01*
X166663619Y-105160000D01*
X166616000Y-105136190D01*
X166496952Y-105136190D01*
X166425523Y-105160000D01*
X165925523Y-105588571D02*
X165949333Y-105612380D01*
X166020761Y-105636190D01*
X166068380Y-105636190D01*
X166139809Y-105612380D01*
X166187428Y-105564761D01*
X166211238Y-105517142D01*
X166235047Y-105421904D01*
X166235047Y-105350476D01*
X166211238Y-105255238D01*
X166187428Y-105207619D01*
X166139809Y-105160000D01*
X166068380Y-105136190D01*
X166020761Y-105136190D01*
X165949333Y-105160000D01*
X165925523Y-105183809D01*
X165473142Y-105636190D02*
X165711238Y-105636190D01*
X165711238Y-105136190D01*
X166723142Y-115772380D02*
X166651714Y-115796190D01*
X166532666Y-115796190D01*
X166485047Y-115772380D01*
X166461238Y-115748571D01*
X166437428Y-115700952D01*
X166437428Y-115653333D01*
X166461238Y-115605714D01*
X166485047Y-115581904D01*
X166532666Y-115558095D01*
X166627904Y-115534285D01*
X166675523Y-115510476D01*
X166699333Y-115486666D01*
X166723142Y-115439047D01*
X166723142Y-115391428D01*
X166699333Y-115343809D01*
X166675523Y-115320000D01*
X166627904Y-115296190D01*
X166508857Y-115296190D01*
X166437428Y-115320000D01*
X166223142Y-115796190D02*
X166223142Y-115296190D01*
X166104095Y-115296190D01*
X166032666Y-115320000D01*
X165985047Y-115367619D01*
X165961238Y-115415238D01*
X165937428Y-115510476D01*
X165937428Y-115581904D01*
X165961238Y-115677142D01*
X165985047Y-115724761D01*
X166032666Y-115772380D01*
X166104095Y-115796190D01*
X166223142Y-115796190D01*
X165746952Y-115653333D02*
X165508857Y-115653333D01*
X165794571Y-115796190D02*
X165627904Y-115296190D01*
X165461238Y-115796190D01*
D11*
%TO.C,JP103.2*%
X164014000Y-113792000D02*
G75*
G03*
X164014000Y-113792000I-1200000J0D01*
G01*
%TO.C,JP102.7*%
X163890000Y-99254000D02*
X163890000Y-101914000D01*
X163830000Y-99254000D02*
X163890000Y-99254000D01*
X163830000Y-101914000D02*
X163890000Y-101914000D01*
X163830000Y-99254000D02*
X163830000Y-101914000D01*
X162560000Y-99254000D02*
X161230000Y-99254000D01*
X161230000Y-99254000D02*
X161230000Y-100584000D01*
%TO.C,JP102.6*%
X171898000Y-120456000D02*
X171898000Y-117796000D01*
X171958000Y-120456000D02*
X171898000Y-120456000D01*
X171958000Y-117796000D02*
X171898000Y-117796000D01*
X171958000Y-120456000D02*
X171958000Y-117796000D01*
X173228000Y-120456000D02*
X174558000Y-120456000D01*
X174558000Y-120456000D02*
X174558000Y-119126000D01*
%TO.C,JP102.5*%
X174558000Y-109414000D02*
X174558000Y-112074000D01*
X174498000Y-109414000D02*
X174558000Y-109414000D01*
X174498000Y-112074000D02*
X174558000Y-112074000D01*
X174498000Y-109414000D02*
X174498000Y-112074000D01*
X173228000Y-109414000D02*
X171898000Y-109414000D01*
X171898000Y-109414000D02*
X171898000Y-110744000D01*
%TO.C,JP102.4*%
X174812000Y-101286000D02*
X174812000Y-103946000D01*
X174752000Y-101286000D02*
X174812000Y-101286000D01*
X174752000Y-103946000D02*
X174812000Y-103946000D01*
X174752000Y-101286000D02*
X174752000Y-103946000D01*
X173482000Y-101286000D02*
X172152000Y-101286000D01*
X172152000Y-101286000D02*
X172152000Y-102616000D01*
%TO.C,JP102.3*%
X154238000Y-101286000D02*
X154238000Y-103946000D01*
X154178000Y-101286000D02*
X154238000Y-101286000D01*
X154178000Y-103946000D02*
X154238000Y-103946000D01*
X154178000Y-101286000D02*
X154178000Y-103946000D01*
X152908000Y-101286000D02*
X151578000Y-101286000D01*
X151578000Y-101286000D02*
X151578000Y-102616000D01*
%TO.C,JP102.2*%
X154238000Y-109414000D02*
X154238000Y-112074000D01*
X154178000Y-109414000D02*
X154238000Y-109414000D01*
X154178000Y-112074000D02*
X154238000Y-112074000D01*
X154178000Y-109414000D02*
X154178000Y-112074000D01*
X152908000Y-109414000D02*
X151578000Y-109414000D01*
X151578000Y-109414000D02*
X151578000Y-110744000D01*
%TO.C,JP102.1*%
X154238000Y-117796000D02*
X154238000Y-120456000D01*
X154178000Y-117796000D02*
X154238000Y-117796000D01*
X154178000Y-120456000D02*
X154238000Y-120456000D01*
X154178000Y-117796000D02*
X154178000Y-120456000D01*
X152908000Y-117796000D02*
X151578000Y-117796000D01*
X151578000Y-117796000D02*
X151578000Y-119126000D01*
%TO.C,JP102.8*%
X161230000Y-119066000D02*
X163890000Y-119066000D01*
X161230000Y-119126000D02*
X161230000Y-119066000D01*
X163890000Y-119126000D02*
X163890000Y-119066000D01*
X161230000Y-119126000D02*
X163890000Y-119126000D01*
X161230000Y-120396000D02*
X161230000Y-121726000D01*
X161230000Y-121726000D02*
X162560000Y-121726000D01*
D10*
%TO.C,U7*%
X169244000Y-119470000D02*
X169094000Y-119470000D01*
X169244000Y-119460000D02*
X169244000Y-119310000D01*
X166544000Y-119460000D02*
X166544000Y-119310000D01*
X166544000Y-119460000D02*
X166694000Y-119460000D01*
X166694000Y-116760000D02*
X166544000Y-116760000D01*
X166544000Y-116760000D02*
X166544000Y-116910000D01*
X169244000Y-116910000D02*
X169244000Y-116660000D01*
D11*
%TO.C,C5*%
X156716000Y-110095420D02*
X156716000Y-110376580D01*
X157736000Y-110095420D02*
X157736000Y-110376580D01*
%TO.C,C2*%
X169531420Y-120906000D02*
X169812580Y-120906000D01*
X169531420Y-119886000D02*
X169812580Y-119886000D01*
%TO.C,C1*%
X166510580Y-119886000D02*
X166229420Y-119886000D01*
X166510580Y-120906000D02*
X166229420Y-120906000D01*
%TO.C,JP103.11*%
X167316000Y-107188000D02*
G75*
G03*
X167316000Y-107188000I-1200000J0D01*
G01*
%TO.C,JP103.10*%
X158426000Y-107188000D02*
G75*
G03*
X158426000Y-107188000I-1200000J0D01*
G01*
%TO.C,JP103.12*%
X167316000Y-113792000D02*
G75*
G03*
X167316000Y-113792000I-1200000J0D01*
G01*
%TO.C,JP103.1*%
X158426000Y-113792000D02*
G75*
G03*
X158426000Y-113792000I-1200000J0D01*
G01*
%TO.C,U6*%
X158241000Y-108905000D02*
X158241000Y-111275000D01*
X167641000Y-108905000D02*
X158241000Y-108905000D01*
X167641000Y-112075000D02*
X167641000Y-108905000D01*
X159041000Y-112075000D02*
X167641000Y-112075000D01*
X158241000Y-111275000D02*
X159041000Y-112075000D01*
%TO.C,U7*%
D10*
X168274952Y-115867690D02*
X168274952Y-116272452D01*
X168251142Y-116320071D01*
X168227333Y-116343880D01*
X168179714Y-116367690D01*
X168084476Y-116367690D01*
X168036857Y-116343880D01*
X168013047Y-116320071D01*
X167989238Y-116272452D01*
X167989238Y-115867690D01*
X167798761Y-115867690D02*
X167465428Y-115867690D01*
X167679714Y-116367690D01*
%TO.C,C5*%
X157309333Y-112319571D02*
X157333142Y-112343380D01*
X157404571Y-112367190D01*
X157452190Y-112367190D01*
X157523619Y-112343380D01*
X157571238Y-112295761D01*
X157595047Y-112248142D01*
X157618857Y-112152904D01*
X157618857Y-112081476D01*
X157595047Y-111986238D01*
X157571238Y-111938619D01*
X157523619Y-111891000D01*
X157452190Y-111867190D01*
X157404571Y-111867190D01*
X157333142Y-111891000D01*
X157309333Y-111914809D01*
X156856952Y-111867190D02*
X157095047Y-111867190D01*
X157118857Y-112105285D01*
X157095047Y-112081476D01*
X157047428Y-112057666D01*
X156928380Y-112057666D01*
X156880761Y-112081476D01*
X156856952Y-112105285D01*
X156833142Y-112152904D01*
X156833142Y-112271952D01*
X156856952Y-112319571D01*
X156880761Y-112343380D01*
X156928380Y-112367190D01*
X157047428Y-112367190D01*
X157095047Y-112343380D01*
X157118857Y-112319571D01*
%TO.C,C2*%
X169755333Y-121590571D02*
X169779142Y-121614380D01*
X169850571Y-121638190D01*
X169898190Y-121638190D01*
X169969619Y-121614380D01*
X170017238Y-121566761D01*
X170041047Y-121519142D01*
X170064857Y-121423904D01*
X170064857Y-121352476D01*
X170041047Y-121257238D01*
X170017238Y-121209619D01*
X169969619Y-121162000D01*
X169898190Y-121138190D01*
X169850571Y-121138190D01*
X169779142Y-121162000D01*
X169755333Y-121185809D01*
X169564857Y-121185809D02*
X169541047Y-121162000D01*
X169493428Y-121138190D01*
X169374380Y-121138190D01*
X169326761Y-121162000D01*
X169302952Y-121185809D01*
X169279142Y-121233428D01*
X169279142Y-121281047D01*
X169302952Y-121352476D01*
X169588666Y-121638190D01*
X169279142Y-121638190D01*
%TO.C,C1*%
X166453333Y-121590571D02*
X166477142Y-121614380D01*
X166548571Y-121638190D01*
X166596190Y-121638190D01*
X166667619Y-121614380D01*
X166715238Y-121566761D01*
X166739047Y-121519142D01*
X166762857Y-121423904D01*
X166762857Y-121352476D01*
X166739047Y-121257238D01*
X166715238Y-121209619D01*
X166667619Y-121162000D01*
X166596190Y-121138190D01*
X166548571Y-121138190D01*
X166477142Y-121162000D01*
X166453333Y-121185809D01*
X165977142Y-121638190D02*
X166262857Y-121638190D01*
X166120000Y-121638190D02*
X166120000Y-121138190D01*
X166167619Y-121209619D01*
X166215238Y-121257238D01*
X166262857Y-121281047D01*
%TD*%
M02*
