M48
; DRILL file {KiCad (5.1.10)-1} date 09/09/23 18:48:21
; FORMAT={-:-/ absolute / inch / decimal}
; #@! TF.CreationDate,2023-09-09T18:48:21-05:00
; #@! TF.GenerationSoftware,Kicad,Pcbnew,(5.1.10)-1
; #@! TF.FileFunction,Plated,1,2,PTH
FMAT,2
INCH
T1C0.0157
%
G90
G05
T1
X4.9874Y-4.0261
X4.9874Y-4.6737
X4.9913Y-4.3509
X5.3732Y-3.9474
X5.3732Y-4.7426
X5.7905Y-4.3529
X5.7984Y-4.0261
X5.7984Y-4.6737
X6.0124Y-3.0024
X6.0124Y-3.65
X6.0149Y-4.034
X6.0149Y-4.6816
X6.0163Y-3.3272
X6.0188Y-4.3588
X6.3982Y-2.9236
X6.3982Y-3.7189
X6.4007Y-3.9552
X6.4007Y-4.7505
X6.8155Y-3.3291
X6.818Y-4.3607
X6.8234Y-3.0024
X6.8234Y-3.65
X6.8259Y-4.034
X6.8259Y-4.6816
T0
M30
