%TF.GenerationSoftware,KiCad,Pcbnew,(5.1.10)-1*%
%TF.CreationDate,2023-09-05T19:57:07-05:00*%
%TF.ProjectId,perovskite_contact_board,7065726f-7673-46b6-9974-655f636f6e74,V3*%
%TF.SameCoordinates,Original*%
%TF.FileFunction,Soldermask,Bot*%
%TF.FilePolarity,Negative*%
%FSLAX46Y46*%
G04 Gerber Fmt 4.6, Leading zero omitted, Abs format (unit mm)*
G04 Created by KiCad (PCBNEW (5.1.10)-1) date 2023-09-05 19:57:07*
%MOMM*%
%LPD*%
G01*
G04 APERTURE LIST*
%ADD10R,0.350000X0.500000*%
%ADD11C,2.000000*%
%ADD12R,2.200000X0.220000*%
G04 APERTURE END LIST*
D10*
%TO.C,U7*%
X153629000Y-97527000D03*
X152979000Y-97527000D03*
X152329000Y-97527000D03*
X151679000Y-97527000D03*
X151679000Y-99577000D03*
X152329000Y-99577000D03*
X152979000Y-99577000D03*
X153629000Y-99577000D03*
%TD*%
%TO.C,C5*%
G36*
G01*
X156471500Y-106866500D02*
X156471500Y-106366500D01*
G75*
G02*
X156696500Y-106141500I225000J0D01*
G01*
X157146500Y-106141500D01*
G75*
G02*
X157371500Y-106366500I0J-225000D01*
G01*
X157371500Y-106866500D01*
G75*
G02*
X157146500Y-107091500I-225000J0D01*
G01*
X156696500Y-107091500D01*
G75*
G02*
X156471500Y-106866500I0J225000D01*
G01*
G37*
G36*
G01*
X154921500Y-106866500D02*
X154921500Y-106366500D01*
G75*
G02*
X155146500Y-106141500I225000J0D01*
G01*
X155596500Y-106141500D01*
G75*
G02*
X155821500Y-106366500I0J-225000D01*
G01*
X155821500Y-106866500D01*
G75*
G02*
X155596500Y-107091500I-225000J0D01*
G01*
X155146500Y-107091500D01*
G75*
G02*
X154921500Y-106866500I0J225000D01*
G01*
G37*
%TD*%
%TO.C,C4*%
G36*
G01*
X130627000Y-107057000D02*
X130627000Y-106557000D01*
G75*
G02*
X130852000Y-106332000I225000J0D01*
G01*
X131302000Y-106332000D01*
G75*
G02*
X131527000Y-106557000I0J-225000D01*
G01*
X131527000Y-107057000D01*
G75*
G02*
X131302000Y-107282000I-225000J0D01*
G01*
X130852000Y-107282000D01*
G75*
G02*
X130627000Y-107057000I0J225000D01*
G01*
G37*
G36*
G01*
X129077000Y-107057000D02*
X129077000Y-106557000D01*
G75*
G02*
X129302000Y-106332000I225000J0D01*
G01*
X129752000Y-106332000D01*
G75*
G02*
X129977000Y-106557000I0J-225000D01*
G01*
X129977000Y-107057000D01*
G75*
G02*
X129752000Y-107282000I-225000J0D01*
G01*
X129302000Y-107282000D01*
G75*
G02*
X129077000Y-107057000I0J225000D01*
G01*
G37*
%TD*%
%TO.C,C3*%
G36*
G01*
X157043000Y-82673000D02*
X157043000Y-82173000D01*
G75*
G02*
X157268000Y-81948000I225000J0D01*
G01*
X157718000Y-81948000D01*
G75*
G02*
X157943000Y-82173000I0J-225000D01*
G01*
X157943000Y-82673000D01*
G75*
G02*
X157718000Y-82898000I-225000J0D01*
G01*
X157268000Y-82898000D01*
G75*
G02*
X157043000Y-82673000I0J225000D01*
G01*
G37*
G36*
G01*
X155493000Y-82673000D02*
X155493000Y-82173000D01*
G75*
G02*
X155718000Y-81948000I225000J0D01*
G01*
X156168000Y-81948000D01*
G75*
G02*
X156393000Y-82173000I0J-225000D01*
G01*
X156393000Y-82673000D01*
G75*
G02*
X156168000Y-82898000I-225000J0D01*
G01*
X155718000Y-82898000D01*
G75*
G02*
X155493000Y-82673000I0J225000D01*
G01*
G37*
%TD*%
%TO.C,C2*%
G36*
G01*
X152078500Y-95115500D02*
X151578500Y-95115500D01*
G75*
G02*
X151353500Y-94890500I0J225000D01*
G01*
X151353500Y-94440500D01*
G75*
G02*
X151578500Y-94215500I225000J0D01*
G01*
X152078500Y-94215500D01*
G75*
G02*
X152303500Y-94440500I0J-225000D01*
G01*
X152303500Y-94890500D01*
G75*
G02*
X152078500Y-95115500I-225000J0D01*
G01*
G37*
G36*
G01*
X152078500Y-96665500D02*
X151578500Y-96665500D01*
G75*
G02*
X151353500Y-96440500I0J225000D01*
G01*
X151353500Y-95990500D01*
G75*
G02*
X151578500Y-95765500I225000J0D01*
G01*
X152078500Y-95765500D01*
G75*
G02*
X152303500Y-95990500I0J-225000D01*
G01*
X152303500Y-96440500D01*
G75*
G02*
X152078500Y-96665500I-225000J0D01*
G01*
G37*
%TD*%
%TO.C,C1*%
G36*
G01*
X153602500Y-95115500D02*
X153102500Y-95115500D01*
G75*
G02*
X152877500Y-94890500I0J225000D01*
G01*
X152877500Y-94440500D01*
G75*
G02*
X153102500Y-94215500I225000J0D01*
G01*
X153602500Y-94215500D01*
G75*
G02*
X153827500Y-94440500I0J-225000D01*
G01*
X153827500Y-94890500D01*
G75*
G02*
X153602500Y-95115500I-225000J0D01*
G01*
G37*
G36*
G01*
X153602500Y-96665500D02*
X153102500Y-96665500D01*
G75*
G02*
X152877500Y-96440500I0J225000D01*
G01*
X152877500Y-95990500D01*
G75*
G02*
X153102500Y-95765500I225000J0D01*
G01*
X153602500Y-95765500D01*
G75*
G02*
X153827500Y-95990500I0J-225000D01*
G01*
X153827500Y-96440500D01*
G75*
G02*
X153602500Y-96665500I-225000J0D01*
G01*
G37*
%TD*%
D11*
%TO.C,JP103.8*%
X143764000Y-103632000D03*
%TD*%
%TO.C,JP103.11*%
X166116000Y-103632000D03*
%TD*%
%TO.C,JP103.7*%
X140208000Y-103632000D03*
%TD*%
%TO.C,JP103.10*%
X155384500Y-103632000D03*
%TD*%
%TO.C,JP103.6*%
X129540000Y-103632000D03*
%TD*%
%TO.C,JP103.12*%
X169672000Y-103632000D03*
%TD*%
%TO.C,JP103.5*%
X133096000Y-103632000D03*
%TD*%
%TO.C,JP103.9*%
X159004000Y-103632000D03*
%TD*%
%TO.C,JP103.4*%
X170180000Y-79756000D03*
%TD*%
%TO.C,JP103.3*%
X166624000Y-79756000D03*
%TD*%
%TO.C,JP103.2*%
X155956000Y-79756000D03*
%TD*%
%TO.C,JP103.1*%
X159512000Y-79756000D03*
%TD*%
%TO.C,JP102.7*%
X162560000Y-103632000D03*
%TD*%
%TO.C,JP102.6*%
X171958000Y-116586000D03*
%TD*%
%TO.C,JP102.5*%
X168402000Y-116586000D03*
%TD*%
%TO.C,JP102.4*%
X164846000Y-116586000D03*
%TD*%
%TO.C,JP102.3*%
X161290000Y-116586000D03*
%TD*%
%TO.C,JP102.2*%
X157734000Y-116586000D03*
%TD*%
%TO.C,JP102.1*%
X154178000Y-116586000D03*
%TD*%
%TO.C,JP101.7*%
X136652000Y-103632000D03*
%TD*%
%TO.C,JP101.1*%
X128016000Y-116586000D03*
%TD*%
%TO.C,JP101.2*%
X131572000Y-116586000D03*
%TD*%
%TO.C,JP101.3*%
X135128000Y-116586000D03*
%TD*%
%TO.C,JP101.4*%
X138684000Y-116586000D03*
%TD*%
%TO.C,JP101.5*%
X142240000Y-116586000D03*
%TD*%
%TO.C,JP101.6*%
X145796000Y-116586000D03*
%TD*%
%TO.C,JP100.7*%
X163068000Y-79756000D03*
%TD*%
%TO.C,JP100.6*%
X171704000Y-89662000D03*
%TD*%
%TO.C,JP100.5*%
X168148000Y-89662000D03*
%TD*%
%TO.C,JP100.4*%
X164592000Y-89662000D03*
%TD*%
%TO.C,JP100.3*%
X161036000Y-89662000D03*
%TD*%
%TO.C,JP100.2*%
X157480000Y-89662000D03*
%TD*%
%TO.C,JP100.1*%
X153924000Y-89662000D03*
%TD*%
D12*
%TO.C,U6*%
X159841000Y-109515000D03*
X166041000Y-109515000D03*
X159841000Y-110165000D03*
X166041000Y-110165000D03*
X159841000Y-110815000D03*
X166041000Y-110815000D03*
X159841000Y-111465000D03*
X166041000Y-111465000D03*
%TD*%
%TO.C,U5*%
X133742500Y-109578500D03*
X139942500Y-109578500D03*
X133742500Y-110228500D03*
X139942500Y-110228500D03*
X133742500Y-110878500D03*
X139942500Y-110878500D03*
X133742500Y-111528500D03*
X139942500Y-111528500D03*
%TD*%
%TO.C,U4*%
X159841000Y-83353000D03*
X166041000Y-83353000D03*
X159841000Y-84003000D03*
X166041000Y-84003000D03*
X159841000Y-84653000D03*
X166041000Y-84653000D03*
X159841000Y-85303000D03*
X166041000Y-85303000D03*
%TD*%
M02*
