%TF.GenerationSoftware,KiCad,Pcbnew,(6.0.4-0)*%
%TF.CreationDate,2023-02-13T20:03:00-06:00*%
%TF.ProjectId,Gecko_Poker,4765636b-6f5f-4506-9f6b-65722e6b6963,rev?*%
%TF.SameCoordinates,Original*%
%TF.FileFunction,Soldermask,Bot*%
%TF.FilePolarity,Negative*%
%FSLAX46Y46*%
G04 Gerber Fmt 4.6, Leading zero omitted, Abs format (unit mm)*
G04 Created by KiCad (PCBNEW (6.0.4-0)) date 2023-02-13 20:03:00*
%MOMM*%
%LPD*%
G01*
G04 APERTURE LIST*
%ADD10R,1.700000X1.700000*%
%ADD11O,1.700000X1.700000*%
%ADD12C,1.100000*%
%ADD13C,5.600000*%
%ADD14C,3.600000*%
G04 APERTURE END LIST*
D10*
%TO.C,J20*%
X77825000Y-67627500D03*
D11*
X80365000Y-67627500D03*
%TD*%
D10*
%TO.C,J11*%
X77825000Y-119062500D03*
D11*
X80365000Y-119062500D03*
%TD*%
D10*
%TO.C,J15*%
X77825000Y-96202500D03*
D11*
X80365000Y-96202500D03*
%TD*%
D12*
%TO.C,JB1*%
X104922500Y-97275000D03*
X104922500Y-98525000D03*
X104922500Y-99775000D03*
X104922500Y-101025000D03*
X104922500Y-102275000D03*
X104922500Y-103525000D03*
X104922500Y-104775000D03*
X104922500Y-106025000D03*
X104922500Y-107275000D03*
X104922500Y-108525000D03*
X104922500Y-109775000D03*
X104922500Y-111025000D03*
X104922500Y-112275000D03*
X106172500Y-97275000D03*
X106172500Y-98525000D03*
X106172500Y-99775000D03*
X106172500Y-101025000D03*
X106172500Y-102275000D03*
X106172500Y-103525000D03*
X106172500Y-104775000D03*
X106172500Y-106025000D03*
X106172500Y-107275000D03*
X106172500Y-108525000D03*
X106172500Y-109775000D03*
X106172500Y-111025000D03*
X106172500Y-112275000D03*
%TD*%
D10*
%TO.C,J2*%
X77845500Y-170497500D03*
D11*
X80385500Y-170497500D03*
%TD*%
D13*
%TO.C,REF\u002A\u002A*%
X113030000Y-176530000D03*
D14*
X113030000Y-176530000D03*
%TD*%
D10*
%TO.C,J13*%
X77825000Y-107632500D03*
D11*
X80365000Y-107632500D03*
%TD*%
D10*
%TO.C,J14*%
X77825000Y-101917500D03*
D11*
X80365000Y-101917500D03*
%TD*%
D10*
%TO.C,J23*%
X77825000Y-50482500D03*
D11*
X80365000Y-50482500D03*
%TD*%
D10*
%TO.C,J18*%
X77825000Y-79057500D03*
D11*
X80365000Y-79057500D03*
%TD*%
D10*
%TO.C,J22*%
X77825000Y-56197500D03*
D11*
X80365000Y-56197500D03*
%TD*%
D14*
%TO.C,REF\u002A\u002A*%
X45720000Y-33020000D03*
D13*
X45720000Y-33020000D03*
%TD*%
D10*
%TO.C,J24*%
X77825000Y-44767500D03*
D11*
X80365000Y-44767500D03*
%TD*%
D10*
%TO.C,J8*%
X77825000Y-136207500D03*
D11*
X80365000Y-136207500D03*
%TD*%
D10*
%TO.C,J3*%
X77845500Y-164782500D03*
D11*
X80385500Y-164782500D03*
%TD*%
D10*
%TO.C,J1*%
X77845500Y-176212500D03*
D11*
X80385500Y-176212500D03*
%TD*%
D10*
%TO.C,J16*%
X77825000Y-90487500D03*
D11*
X80365000Y-90487500D03*
%TD*%
D10*
%TO.C,J19*%
X77825000Y-73342500D03*
D11*
X80365000Y-73342500D03*
%TD*%
D10*
%TO.C,J25*%
X77825000Y-39052500D03*
D11*
X80365000Y-39052500D03*
%TD*%
D10*
%TO.C,J9*%
X77825000Y-130492500D03*
D11*
X80365000Y-130492500D03*
%TD*%
D10*
%TO.C,J27*%
X51435000Y-60325000D03*
D11*
X51435000Y-57785000D03*
%TD*%
D10*
%TO.C,J6*%
X77825000Y-147637500D03*
D11*
X80365000Y-147637500D03*
%TD*%
D10*
%TO.C,J28*%
X104140000Y-60325000D03*
D11*
X104140000Y-57785000D03*
%TD*%
D12*
%TO.C,JA1*%
X52070000Y-97275000D03*
X52070000Y-98525000D03*
X52070000Y-99775000D03*
X52070000Y-101025000D03*
X52070000Y-102275000D03*
X52070000Y-103525000D03*
X52070000Y-104775000D03*
X52070000Y-106025000D03*
X52070000Y-107275000D03*
X52070000Y-108525000D03*
X52070000Y-109775000D03*
X52070000Y-111025000D03*
X52070000Y-112275000D03*
X53320000Y-97275000D03*
X53320000Y-98525000D03*
X53320000Y-99775000D03*
X53320000Y-101025000D03*
X53320000Y-102275000D03*
X53320000Y-103525000D03*
X53320000Y-104775000D03*
X53320000Y-106025000D03*
X53320000Y-107275000D03*
X53320000Y-108525000D03*
X53320000Y-109775000D03*
X53320000Y-111025000D03*
X53320000Y-112275000D03*
%TD*%
D10*
%TO.C,J4*%
X77825000Y-159067500D03*
D11*
X80365000Y-159067500D03*
%TD*%
D10*
%TO.C,J26*%
X77825000Y-33337500D03*
D11*
X80365000Y-33337500D03*
%TD*%
D13*
%TO.C,REF\u002A\u002A*%
X45720000Y-176530000D03*
D14*
X45720000Y-176530000D03*
%TD*%
%TO.C,REF\u002A\u002A*%
X113030000Y-33020000D03*
D13*
X113030000Y-33020000D03*
%TD*%
D10*
%TO.C,J7*%
X77825000Y-141922500D03*
D11*
X80365000Y-141922500D03*
%TD*%
D10*
%TO.C,J5*%
X77825000Y-153352500D03*
D11*
X80365000Y-153352500D03*
%TD*%
D10*
%TO.C,J12*%
X77825000Y-113347500D03*
D11*
X80365000Y-113347500D03*
%TD*%
D10*
%TO.C,J17*%
X77825000Y-84772500D03*
D11*
X80365000Y-84772500D03*
%TD*%
D10*
%TO.C,J21*%
X77825000Y-61912500D03*
D11*
X80365000Y-61912500D03*
%TD*%
D10*
%TO.C,J10*%
X77825000Y-124777500D03*
D11*
X80365000Y-124777500D03*
%TD*%
M02*
