M48
; DRILL file {KiCad (6.0.4-0)} date Monday, February 13, 2023 at 08:02:55 PM
; FORMAT={-:-/ absolute / inch / decimal}
; #@! TF.CreationDate,2023-02-13T20:02:55-06:00
; #@! TF.GenerationSoftware,Kicad,Pcbnew,(6.0.4-0)
; #@! TF.FileFunction,Plated,1,2,PTH
FMAT,2
INCH
; #@! TA.AperFunction,Plated,PTH,ViaDrill
T1C0.0157
; #@! TA.AperFunction,Plated,PTH,ComponentDrill
T2C0.0236
; #@! TA.AperFunction,Plated,PTH,ComponentDrill
T3C0.0394
; #@! TA.AperFunction,Plated,PTH,ComponentDrill
T4C0.1260
%
G90
G05
T1
X1.8Y-4.2285
X1.8285Y-3.175
X1.8285Y-3.925
X1.85Y-4.375
X1.875Y-3.775
X1.875Y-3.9
X1.95Y-3.941
X1.95Y-4.025
X2.0Y-3.725
X2.0Y-3.85
X2.0Y-4.375
X2.025Y-2.375
X2.05Y-3.575
X2.175Y-2.25
X2.225Y-3.275
X2.225Y-3.875
X2.325Y-4.275
X2.375Y-3.9285
X2.425Y-3.975
X3.675Y-4.525
X3.725Y-4.275
X3.725Y-4.475
X3.775Y-4.125
X3.775Y-4.425
X3.825Y-3.675
X3.825Y-3.725
X3.825Y-3.875
X3.875Y-3.925
X3.925Y-3.975
X3.975Y-2.5
X3.975Y-4.375
X4.025Y-4.325
X4.05Y-3.775
X4.075Y-3.35
X4.125Y-2.95
X4.175Y-4.575
X4.2215Y-3.675
X4.2215Y-3.725
X4.225Y-4.625
X4.2535Y-3.875
X4.375Y-4.625
X4.425Y-4.525
X4.45Y-4.075
T2
X2.05Y-3.8297
X2.05Y-3.8789
X2.05Y-3.9281
X2.05Y-3.9774
X2.05Y-4.0266
X2.05Y-4.0758
X2.05Y-4.125
X2.05Y-4.1742
X2.05Y-4.2234
X2.05Y-4.2726
X2.05Y-4.3219
X2.05Y-4.3711
X2.05Y-4.4203
X2.0992Y-3.8297
X2.0992Y-3.8789
X2.0992Y-3.9281
X2.0992Y-3.9774
X2.0992Y-4.0266
X2.0992Y-4.0758
X2.0992Y-4.125
X2.0992Y-4.1742
X2.0992Y-4.2234
X2.0992Y-4.2726
X2.0992Y-4.3219
X2.0992Y-4.3711
X2.0992Y-4.4203
X4.1308Y-3.8297
X4.1308Y-3.8789
X4.1308Y-3.9281
X4.1308Y-3.9774
X4.1308Y-4.0266
X4.1308Y-4.0758
X4.1308Y-4.125
X4.1308Y-4.1742
X4.1308Y-4.2234
X4.1308Y-4.2726
X4.1308Y-4.3219
X4.1308Y-4.3711
X4.1308Y-4.4203
X4.18Y-3.8297
X4.18Y-3.8789
X4.18Y-3.9281
X4.18Y-3.9774
X4.18Y-4.0266
X4.18Y-4.0758
X4.18Y-4.125
X4.18Y-4.1742
X4.18Y-4.2234
X4.18Y-4.2726
X4.18Y-4.3219
X4.18Y-4.3711
X4.18Y-4.4203
T3
X2.025Y-2.275
X2.025Y-2.375
X3.064Y-1.3125
X3.064Y-1.5375
X3.064Y-1.7625
X3.064Y-1.9875
X3.064Y-2.2125
X3.064Y-2.4375
X3.064Y-2.6625
X3.064Y-2.8875
X3.064Y-3.1125
X3.064Y-3.3375
X3.064Y-3.5625
X3.064Y-3.7875
X3.064Y-4.0125
X3.064Y-4.2375
X3.064Y-4.4625
X3.064Y-4.6875
X3.064Y-4.9125
X3.064Y-5.1375
X3.064Y-5.3625
X3.064Y-5.5875
X3.064Y-5.8125
X3.064Y-6.0375
X3.064Y-6.2625
X3.0648Y-6.4875
X3.0648Y-6.7125
X3.0648Y-6.9375
X3.164Y-1.3125
X3.164Y-1.5375
X3.164Y-1.7625
X3.164Y-1.9875
X3.164Y-2.2125
X3.164Y-2.4375
X3.164Y-2.6625
X3.164Y-2.8875
X3.164Y-3.1125
X3.164Y-3.3375
X3.164Y-3.5625
X3.164Y-3.7875
X3.164Y-4.0125
X3.164Y-4.2375
X3.164Y-4.4625
X3.164Y-4.6875
X3.164Y-4.9125
X3.164Y-5.1375
X3.164Y-5.3625
X3.164Y-5.5875
X3.164Y-5.8125
X3.164Y-6.0375
X3.164Y-6.2625
X3.1648Y-6.4875
X3.1648Y-6.7125
X3.1648Y-6.9375
X4.1Y-2.275
X4.1Y-2.375
T4
X1.8Y-1.3
X1.8Y-6.95
X4.45Y-1.3
X4.45Y-6.95
T0
M30
