%TF.GenerationSoftware,KiCad,Pcbnew,(6.0.4-0)*%
%TF.CreationDate,2023-02-13T20:03:00-06:00*%
%TF.ProjectId,Gecko_Poker,4765636b-6f5f-4506-9f6b-65722e6b6963,rev?*%
%TF.SameCoordinates,Original*%
%TF.FileFunction,Copper,L1,Top*%
%TF.FilePolarity,Positive*%
%FSLAX46Y46*%
G04 Gerber Fmt 4.6, Leading zero omitted, Abs format (unit mm)*
G04 Created by KiCad (PCBNEW (6.0.4-0)) date 2023-02-13 20:03:00*
%MOMM*%
%LPD*%
G01*
G04 APERTURE LIST*
G04 Aperture macros list*
%AMRoundRect*
0 Rectangle with rounded corners*
0 $1 Rounding radius*
0 $2 $3 $4 $5 $6 $7 $8 $9 X,Y pos of 4 corners*
0 Add a 4 corners polygon primitive as box body*
4,1,4,$2,$3,$4,$5,$6,$7,$8,$9,$2,$3,0*
0 Add four circle primitives for the rounded corners*
1,1,$1+$1,$2,$3*
1,1,$1+$1,$4,$5*
1,1,$1+$1,$6,$7*
1,1,$1+$1,$8,$9*
0 Add four rect primitives between the rounded corners*
20,1,$1+$1,$2,$3,$4,$5,0*
20,1,$1+$1,$4,$5,$6,$7,0*
20,1,$1+$1,$6,$7,$8,$9,0*
20,1,$1+$1,$8,$9,$2,$3,0*%
G04 Aperture macros list end*
%TA.AperFunction,SMDPad,CuDef*%
%ADD10RoundRect,0.200000X0.200000X0.275000X-0.200000X0.275000X-0.200000X-0.275000X0.200000X-0.275000X0*%
%TD*%
%TA.AperFunction,SMDPad,CuDef*%
%ADD11RoundRect,0.200000X-0.200000X-0.275000X0.200000X-0.275000X0.200000X0.275000X-0.200000X0.275000X0*%
%TD*%
%TA.AperFunction,ComponentPad*%
%ADD12R,1.700000X1.700000*%
%TD*%
%TA.AperFunction,ComponentPad*%
%ADD13O,1.700000X1.700000*%
%TD*%
%TA.AperFunction,ComponentPad*%
%ADD14C,1.100000*%
%TD*%
%TA.AperFunction,ConnectorPad*%
%ADD15C,5.600000*%
%TD*%
%TA.AperFunction,ComponentPad*%
%ADD16C,3.600000*%
%TD*%
%TA.AperFunction,SMDPad,CuDef*%
%ADD17RoundRect,0.243750X0.243750X0.456250X-0.243750X0.456250X-0.243750X-0.456250X0.243750X-0.456250X0*%
%TD*%
%TA.AperFunction,SMDPad,CuDef*%
%ADD18RoundRect,0.243750X-0.243750X-0.456250X0.243750X-0.456250X0.243750X0.456250X-0.243750X0.456250X0*%
%TD*%
%TA.AperFunction,ViaPad*%
%ADD19C,0.800000*%
%TD*%
%TA.AperFunction,Conductor*%
%ADD20C,0.250000*%
%TD*%
G04 APERTURE END LIST*
D10*
%TO.P,RB1,1*%
%TO.N,Net-(J28-Pad2)*%
X106870000Y-54610000D03*
%TO.P,RB1,2*%
%TO.N,Net-(DB1-Pad2)*%
X105220000Y-54610000D03*
%TD*%
D11*
%TO.P,RA1,1*%
%TO.N,Net-(J27-Pad2)*%
X48705000Y-54610000D03*
%TO.P,RA1,2*%
%TO.N,Net-(DA1-Pad2)*%
X50355000Y-54610000D03*
%TD*%
D12*
%TO.P,J20,1,Pin_1*%
%TO.N,CP_A*%
X77825000Y-67627500D03*
D13*
%TO.P,J20,2,Pin_2*%
%TO.N,CP_B*%
X80365000Y-67627500D03*
%TD*%
D12*
%TO.P,J11,1,Pin_1*%
%TO.N,CELL_11_A*%
X77825000Y-119062500D03*
D13*
%TO.P,J11,2,Pin_2*%
%TO.N,CELL_11_B*%
X80365000Y-119062500D03*
%TD*%
D12*
%TO.P,J15,1,Pin_1*%
%TO.N,CELL_15_A*%
X77825000Y-96202500D03*
D13*
%TO.P,J15,2,Pin_2*%
%TO.N,CELL_15_B*%
X80365000Y-96202500D03*
%TD*%
D14*
%TO.P,JB1,1,1*%
%TO.N,CP_B*%
X104922500Y-97275000D03*
%TO.P,JB1,2,2*%
%TO.N,CELL_6_B*%
X104922500Y-98525000D03*
%TO.P,JB1,3,3*%
%TO.N,CELL_5_B*%
X104922500Y-99775000D03*
%TO.P,JB1,4,4*%
%TO.N,CELL_4_B*%
X104922500Y-101025000D03*
%TO.P,JB1,5,5*%
%TO.N,CELL_16_B*%
X104922500Y-102275000D03*
%TO.P,JB1,6,6*%
%TO.N,CELL_15_B*%
X104922500Y-103525000D03*
%TO.P,JB1,7,7*%
%TO.N,ALERT3_B*%
X104922500Y-104775000D03*
%TO.P,JB1,8,8*%
%TO.N,CELL_14_B*%
X104922500Y-106025000D03*
%TO.P,JB1,9,9*%
%TO.N,CELL_1_B*%
X104922500Y-107275000D03*
%TO.P,JB1,10,10*%
%TO.N,ALERT1_B*%
X104922500Y-108525000D03*
%TO.P,JB1,11,11*%
%TO.N,CELL_2_B*%
X104922500Y-109775000D03*
%TO.P,JB1,12,12*%
%TO.N,CELL_3_B*%
X104922500Y-111025000D03*
%TO.P,JB1,13,13*%
%TO.N,CELL_7_B*%
X104922500Y-112275000D03*
%TO.P,JB1,14,14*%
%TO.N,VDD_B*%
X106172500Y-97275000D03*
%TO.P,JB1,15,15*%
%TO.N,SDA_B*%
X106172500Y-98525000D03*
%TO.P,JB1,16,16*%
%TO.N,CELL_17_B*%
X106172500Y-99775000D03*
%TO.P,JB1,17,17*%
%TO.N,CELL_18_B*%
X106172500Y-101025000D03*
%TO.P,JB1,18,18*%
%TO.N,CELL_13_B*%
X106172500Y-102275000D03*
%TO.P,JB1,19,19*%
%TO.N,GND_B*%
X106172500Y-103525000D03*
%TO.P,JB1,20,20*%
%TO.N,CELL_12_B*%
X106172500Y-104775000D03*
%TO.P,JB1,21,21*%
%TO.N,CELL_11_B*%
X106172500Y-106025000D03*
%TO.P,JB1,22,22*%
%TO.N,CELL_10_B*%
X106172500Y-107275000D03*
%TO.P,JB1,23,23*%
%TO.N,SCL_B*%
X106172500Y-108525000D03*
%TO.P,JB1,24,24*%
%TO.N,CELL_9_B*%
X106172500Y-109775000D03*
%TO.P,JB1,25,25*%
%TO.N,ALERT2_B*%
X106172500Y-111025000D03*
%TO.P,JB1,26,26*%
%TO.N,CELL_8_B*%
X106172500Y-112275000D03*
%TD*%
D12*
%TO.P,J2,1,Pin_1*%
%TO.N,CELL_2_A*%
X77845500Y-170497500D03*
D13*
%TO.P,J2,2,Pin_2*%
%TO.N,CELL_2_B*%
X80385500Y-170497500D03*
%TD*%
D15*
%TO.P,REF\u002A\u002A,1*%
%TO.N,N/C*%
X113030000Y-176530000D03*
D16*
X113030000Y-176530000D03*
%TD*%
D12*
%TO.P,J13,1,Pin_1*%
%TO.N,CELL_13_A*%
X77825000Y-107632500D03*
D13*
%TO.P,J13,2,Pin_2*%
%TO.N,CELL_13_B*%
X80365000Y-107632500D03*
%TD*%
D12*
%TO.P,J14,1,Pin_1*%
%TO.N,CELL_14_A*%
X77825000Y-101917500D03*
D13*
%TO.P,J14,2,Pin_2*%
%TO.N,CELL_14_B*%
X80365000Y-101917500D03*
%TD*%
D12*
%TO.P,J23,1,Pin_1*%
%TO.N,ALERT2_A*%
X77825000Y-50482500D03*
D13*
%TO.P,J23,2,Pin_2*%
%TO.N,ALERT2_B*%
X80365000Y-50482500D03*
%TD*%
D12*
%TO.P,J18,1,Pin_1*%
%TO.N,CELL_18_A*%
X77825000Y-79057500D03*
D13*
%TO.P,J18,2,Pin_2*%
%TO.N,CELL_18_B*%
X80365000Y-79057500D03*
%TD*%
D17*
%TO.P,DA1,1,K*%
%TO.N,GND_A*%
X54277500Y-54605000D03*
%TO.P,DA1,2,A*%
%TO.N,Net-(DA1-Pad2)*%
X52402500Y-54605000D03*
%TD*%
D12*
%TO.P,J22,1,Pin_1*%
%TO.N,ALERT1_A*%
X77825000Y-56197500D03*
D13*
%TO.P,J22,2,Pin_2*%
%TO.N,ALERT1_B*%
X80365000Y-56197500D03*
%TD*%
D16*
%TO.P,REF\u002A\u002A,1*%
%TO.N,N/C*%
X45720000Y-33020000D03*
D15*
X45720000Y-33020000D03*
%TD*%
D12*
%TO.P,J24,1,Pin_1*%
%TO.N,ALERT3_A*%
X77825000Y-44767500D03*
D13*
%TO.P,J24,2,Pin_2*%
%TO.N,ALERT3_B*%
X80365000Y-44767500D03*
%TD*%
D12*
%TO.P,J8,1,Pin_1*%
%TO.N,CELL_8_A*%
X77825000Y-136207500D03*
D13*
%TO.P,J8,2,Pin_2*%
%TO.N,CELL_8_B*%
X80365000Y-136207500D03*
%TD*%
D12*
%TO.P,J3,1,Pin_1*%
%TO.N,CELL_3_A*%
X77845500Y-164782500D03*
D13*
%TO.P,J3,2,Pin_2*%
%TO.N,CELL_3_B*%
X80385500Y-164782500D03*
%TD*%
D12*
%TO.P,J1,1,Pin_1*%
%TO.N,CELL_1_A*%
X77845500Y-176212500D03*
D13*
%TO.P,J1,2,Pin_2*%
%TO.N,CELL_1_B*%
X80385500Y-176212500D03*
%TD*%
D18*
%TO.P,DB1,1,K*%
%TO.N,GND_B*%
X101297500Y-54605000D03*
%TO.P,DB1,2,A*%
%TO.N,Net-(DB1-Pad2)*%
X103172500Y-54605000D03*
%TD*%
D12*
%TO.P,J16,1,Pin_1*%
%TO.N,CELL_16_A*%
X77825000Y-90487500D03*
D13*
%TO.P,J16,2,Pin_2*%
%TO.N,CELL_16_B*%
X80365000Y-90487500D03*
%TD*%
D12*
%TO.P,J19,1,Pin_1*%
%TO.N,SCL_A*%
X77825000Y-73342500D03*
D13*
%TO.P,J19,2,Pin_2*%
%TO.N,SCL_B*%
X80365000Y-73342500D03*
%TD*%
D12*
%TO.P,J25,1,Pin_1*%
%TO.N,GND_A*%
X77825000Y-39052500D03*
D13*
%TO.P,J25,2,Pin_2*%
%TO.N,GND_B*%
X80365000Y-39052500D03*
%TD*%
D12*
%TO.P,J9,1,Pin_1*%
%TO.N,CELL_9_A*%
X77825000Y-130492500D03*
D13*
%TO.P,J9,2,Pin_2*%
%TO.N,CELL_9_B*%
X80365000Y-130492500D03*
%TD*%
D12*
%TO.P,J27,1,Pin_1*%
%TO.N,VDD_A*%
X51435000Y-60325000D03*
D13*
%TO.P,J27,2,Pin_2*%
%TO.N,Net-(J27-Pad2)*%
X51435000Y-57785000D03*
%TD*%
D12*
%TO.P,J6,1,Pin_1*%
%TO.N,CELL_6_A*%
X77825000Y-147637500D03*
D13*
%TO.P,J6,2,Pin_2*%
%TO.N,CELL_6_B*%
X80365000Y-147637500D03*
%TD*%
D12*
%TO.P,J28,1,Pin_1*%
%TO.N,VDD_B*%
X104140000Y-60325000D03*
D13*
%TO.P,J28,2,Pin_2*%
%TO.N,Net-(J28-Pad2)*%
X104140000Y-57785000D03*
%TD*%
D14*
%TO.P,JA1,1,1*%
%TO.N,CP_A*%
X52070000Y-97275000D03*
%TO.P,JA1,2,2*%
%TO.N,CELL_6_A*%
X52070000Y-98525000D03*
%TO.P,JA1,3,3*%
%TO.N,CELL_5_A*%
X52070000Y-99775000D03*
%TO.P,JA1,4,4*%
%TO.N,CELL_4_A*%
X52070000Y-101025000D03*
%TO.P,JA1,5,5*%
%TO.N,CELL_16_A*%
X52070000Y-102275000D03*
%TO.P,JA1,6,6*%
%TO.N,CELL_15_A*%
X52070000Y-103525000D03*
%TO.P,JA1,7,7*%
%TO.N,ALERT3_A*%
X52070000Y-104775000D03*
%TO.P,JA1,8,8*%
%TO.N,CELL_14_A*%
X52070000Y-106025000D03*
%TO.P,JA1,9,9*%
%TO.N,CELL_1_A*%
X52070000Y-107275000D03*
%TO.P,JA1,10,10*%
%TO.N,ALERT1_A*%
X52070000Y-108525000D03*
%TO.P,JA1,11,11*%
%TO.N,CELL_2_A*%
X52070000Y-109775000D03*
%TO.P,JA1,12,12*%
%TO.N,CELL_3_A*%
X52070000Y-111025000D03*
%TO.P,JA1,13,13*%
%TO.N,CELL_7_A*%
X52070000Y-112275000D03*
%TO.P,JA1,14,14*%
%TO.N,VDD_A*%
X53320000Y-97275000D03*
%TO.P,JA1,15,15*%
%TO.N,SDA_A*%
X53320000Y-98525000D03*
%TO.P,JA1,16,16*%
%TO.N,CELL_17_A*%
X53320000Y-99775000D03*
%TO.P,JA1,17,17*%
%TO.N,CELL_18_A*%
X53320000Y-101025000D03*
%TO.P,JA1,18,18*%
%TO.N,CELL_13_A*%
X53320000Y-102275000D03*
%TO.P,JA1,19,19*%
%TO.N,GND_A*%
X53320000Y-103525000D03*
%TO.P,JA1,20,20*%
%TO.N,CELL_12_A*%
X53320000Y-104775000D03*
%TO.P,JA1,21,21*%
%TO.N,CELL_11_A*%
X53320000Y-106025000D03*
%TO.P,JA1,22,22*%
%TO.N,CELL_10_A*%
X53320000Y-107275000D03*
%TO.P,JA1,23,23*%
%TO.N,SCL_A*%
X53320000Y-108525000D03*
%TO.P,JA1,24,24*%
%TO.N,CELL_9_A*%
X53320000Y-109775000D03*
%TO.P,JA1,25,25*%
%TO.N,ALERT2_A*%
X53320000Y-111025000D03*
%TO.P,JA1,26,26*%
%TO.N,CELL_8_A*%
X53320000Y-112275000D03*
%TD*%
D12*
%TO.P,J4,1,Pin_1*%
%TO.N,CELL_4_A*%
X77825000Y-159067500D03*
D13*
%TO.P,J4,2,Pin_2*%
%TO.N,CELL_4_B*%
X80365000Y-159067500D03*
%TD*%
D12*
%TO.P,J26,1,Pin_1*%
%TO.N,VDD_A*%
X77825000Y-33337500D03*
D13*
%TO.P,J26,2,Pin_2*%
%TO.N,VDD_B*%
X80365000Y-33337500D03*
%TD*%
D16*
%TO.P,REF\u002A\u002A,1*%
%TO.N,N/C*%
X45720000Y-176530000D03*
D15*
X45720000Y-176530000D03*
%TD*%
%TO.P,REF\u002A\u002A,1*%
%TO.N,N/C*%
X113030000Y-33020000D03*
D16*
X113030000Y-33020000D03*
%TD*%
D12*
%TO.P,J7,1,Pin_1*%
%TO.N,CELL_7_A*%
X77825000Y-141922500D03*
D13*
%TO.P,J7,2,Pin_2*%
%TO.N,CELL_7_B*%
X80365000Y-141922500D03*
%TD*%
D12*
%TO.P,J5,1,Pin_1*%
%TO.N,CELL_5_A*%
X77825000Y-153352500D03*
D13*
%TO.P,J5,2,Pin_2*%
%TO.N,CELL_5_B*%
X80365000Y-153352500D03*
%TD*%
D12*
%TO.P,J12,1,Pin_1*%
%TO.N,CELL_12_A*%
X77825000Y-113347500D03*
D13*
%TO.P,J12,2,Pin_2*%
%TO.N,CELL_12_B*%
X80365000Y-113347500D03*
%TD*%
D12*
%TO.P,J17,1,Pin_1*%
%TO.N,CELL_17_A*%
X77825000Y-84772500D03*
D13*
%TO.P,J17,2,Pin_2*%
%TO.N,CELL_17_B*%
X80365000Y-84772500D03*
%TD*%
D12*
%TO.P,J21,1,Pin_1*%
%TO.N,SDA_A*%
X77825000Y-61912500D03*
D13*
%TO.P,J21,2,Pin_2*%
%TO.N,SDA_B*%
X80365000Y-61912500D03*
%TD*%
D12*
%TO.P,J10,1,Pin_1*%
%TO.N,CELL_10_A*%
X77825000Y-124777500D03*
D13*
%TO.P,J10,2,Pin_2*%
%TO.N,CELL_10_B*%
X80365000Y-124777500D03*
%TD*%
D19*
%TO.N,CP_A*%
X52070000Y-90805000D03*
%TO.N,CELL_6_A*%
X50800000Y-111125000D03*
X46990000Y-111125000D03*
%TO.N,CELL_5_A*%
X49530000Y-100101489D03*
X49530000Y-102235000D03*
%TO.N,CELL_16_A*%
X50800000Y-94615000D03*
X50800000Y-97790000D03*
%TO.N,CELL_15_A*%
X47625000Y-95885000D03*
X47625000Y-99060000D03*
%TO.N,ALERT3_A*%
X46444500Y-99695000D03*
X46444500Y-80645000D03*
%TO.N,CELL_1_A*%
X45720000Y-107404500D03*
%TO.N,VDD_A*%
X51435000Y-60325000D03*
%TO.N,SDA_A*%
X56515000Y-83185000D03*
X56515000Y-98425000D03*
%TO.N,CELL_17_A*%
X60325000Y-99784500D03*
%TO.N,CELL_18_A*%
X61595000Y-100965000D03*
%TO.N,GND_A*%
X55245000Y-57150000D03*
%TO.N,SCL_A*%
X59055000Y-108585000D03*
%TO.N,CELL_6_B*%
X97155000Y-98425000D03*
%TO.N,CELL_5_B*%
X98425000Y-99695000D03*
%TO.N,CELL_4_B*%
X99695000Y-100965000D03*
%TO.N,ALERT3_B*%
X95885000Y-104775000D03*
%TO.N,ALERT1_B*%
X94615000Y-108585000D03*
%TO.N,CELL_2_B*%
X102235000Y-109855000D03*
%TO.N,CELL_3_B*%
X100965000Y-111125000D03*
%TO.N,CELL_7_B*%
X95885000Y-112395000D03*
%TO.N,SDA_B*%
X103505000Y-85090000D03*
X108039500Y-98425000D03*
%TO.N,CELL_17_B*%
X97155000Y-94615000D03*
X107225500Y-94615000D03*
%TO.N,CELL_18_B*%
X107225500Y-93345000D03*
X97155000Y-93345000D03*
%TO.N,CELL_13_B*%
X112395000Y-114935000D03*
X106045000Y-116205000D03*
%TO.N,GND_B*%
X100965000Y-63500000D03*
X113030000Y-103505000D03*
%TO.N,CELL_12_B*%
X111125000Y-117475000D03*
X107315000Y-117475000D03*
%TO.N,SCL_B*%
X102870000Y-95885000D03*
%TO.N,CELL_9_B*%
X93345000Y-114935000D03*
%TO.N,ALERT2_B*%
X104775000Y-74930000D03*
%TO.N,CELL_8_B*%
X94615000Y-113665000D03*
%TD*%
D20*
%TO.N,VDD_A*%
X59727500Y-51435000D02*
X49530000Y-51435000D01*
X49530000Y-51435000D02*
X46990000Y-53975000D01*
X46990000Y-53975000D02*
X46990000Y-59055000D01*
X46990000Y-59055000D02*
X48260000Y-60325000D01*
X77825000Y-33337500D02*
X59727500Y-51435000D01*
X48260000Y-60325000D02*
X51435000Y-60325000D01*
%TO.N,VDD_B*%
X98462500Y-51435000D02*
X106045000Y-51435000D01*
X108585000Y-53975000D02*
X108585000Y-59055000D01*
X80365000Y-33337500D02*
X98462500Y-51435000D01*
X106045000Y-51435000D02*
X108585000Y-53975000D01*
X108585000Y-59055000D02*
X107315000Y-60325000D01*
X107315000Y-60325000D02*
X104140000Y-60325000D01*
%TO.N,Net-(DB1-Pad2)*%
X105220000Y-54610000D02*
X103177500Y-54610000D01*
X103177500Y-54610000D02*
X103172500Y-54605000D01*
%TO.N,Net-(J28-Pad2)*%
X105410000Y-56515000D02*
X106680000Y-56515000D01*
X104140000Y-57785000D02*
X105410000Y-56515000D01*
X106680000Y-56515000D02*
X106870000Y-56325000D01*
X106870000Y-56325000D02*
X106870000Y-54610000D01*
%TO.N,GND_B*%
X95922500Y-54610000D02*
X101292500Y-54610000D01*
X101292500Y-54610000D02*
X101297500Y-54605000D01*
X100965000Y-63500000D02*
X100965000Y-54937500D01*
X100965000Y-54937500D02*
X101297500Y-54605000D01*
X80365000Y-39052500D02*
X95922500Y-54610000D01*
%TO.N,Net-(DA1-Pad2)*%
X50355000Y-54610000D02*
X52397500Y-54610000D01*
X52397500Y-54610000D02*
X52402500Y-54605000D01*
%TO.N,Net-(J27-Pad2)*%
X51435000Y-57785000D02*
X48705000Y-55055000D01*
X48705000Y-55055000D02*
X48705000Y-54610000D01*
%TO.N,CP_A*%
X52070000Y-90805000D02*
X54647500Y-90805000D01*
X54647500Y-90805000D02*
X77825000Y-67627500D01*
%TO.N,CELL_6_A*%
X46990000Y-111125000D02*
X50800000Y-111125000D01*
%TO.N,CELL_5_A*%
X49530000Y-100101489D02*
X49530000Y-102235000D01*
%TO.N,CELL_16_A*%
X50800000Y-97790000D02*
X50800000Y-102235000D01*
X50800000Y-102235000D02*
X50840000Y-102275000D01*
X50840000Y-102275000D02*
X52070000Y-102275000D01*
X73697500Y-94615000D02*
X77825000Y-90487500D01*
X50800000Y-94615000D02*
X73697500Y-94615000D01*
%TO.N,CELL_15_A*%
X57335480Y-95435480D02*
X58102500Y-96202500D01*
X47625000Y-95885000D02*
X48074520Y-95435480D01*
X58102500Y-96202500D02*
X77825000Y-96202500D01*
X48915000Y-103525000D02*
X52070000Y-103525000D01*
X47625000Y-102235000D02*
X48915000Y-103525000D01*
X47625000Y-99060000D02*
X47625000Y-102235000D01*
X48074520Y-95435480D02*
X57335480Y-95435480D01*
%TO.N,ALERT3_A*%
X46444500Y-76148000D02*
X77825000Y-44767500D01*
X46444500Y-80645000D02*
X46444500Y-76148000D01*
X46444500Y-99695000D02*
X46444500Y-102324500D01*
X48895000Y-104775000D02*
X52070000Y-104775000D01*
X46444500Y-102324500D02*
X48895000Y-104775000D01*
%TO.N,CELL_14_A*%
X48379511Y-96400489D02*
X45085000Y-99695000D01*
X60625103Y-99050489D02*
X59045489Y-99050489D01*
X74967500Y-99060000D02*
X60634614Y-99060000D01*
X60634614Y-99060000D02*
X60625103Y-99050489D01*
X56395489Y-96400489D02*
X48379511Y-96400489D01*
X48875000Y-106025000D02*
X52070000Y-106025000D01*
X45085000Y-102235000D02*
X48875000Y-106025000D01*
X59045489Y-99050489D02*
X56395489Y-96400489D01*
X77825000Y-101917500D02*
X74967500Y-99060000D01*
X45085000Y-99695000D02*
X45085000Y-102235000D01*
%TO.N,CELL_1_A*%
X45849500Y-107275000D02*
X52070000Y-107275000D01*
X45720000Y-107404500D02*
X45849500Y-107275000D01*
%TO.N,ALERT1_A*%
X43815000Y-90207500D02*
X43815000Y-107950000D01*
X44390000Y-108525000D02*
X43815000Y-107950000D01*
X52070000Y-108525000D02*
X44390000Y-108525000D01*
X77825000Y-56197500D02*
X43815000Y-90207500D01*
%TO.N,CELL_2_A*%
X52070000Y-109775000D02*
X47200614Y-109775000D01*
X46600397Y-109774989D02*
X45720000Y-110655386D01*
X47200603Y-109774989D02*
X46600397Y-109774989D01*
X47200614Y-109775000D02*
X47200603Y-109774989D01*
X45720000Y-138372000D02*
X77845500Y-170497500D01*
X45720000Y-110655386D02*
X45720000Y-138372000D01*
%TO.N,CELL_3_A*%
X46990000Y-133927000D02*
X77845500Y-164782500D01*
X46990000Y-116105000D02*
X46990000Y-133927000D01*
X52070000Y-111025000D02*
X46990000Y-116105000D01*
%TO.N,CELL_7_A*%
X52070000Y-112275000D02*
X52070000Y-116167500D01*
X52070000Y-116167500D02*
X77825000Y-141922500D01*
%TO.N,SDA_A*%
X56515000Y-98425000D02*
X56415000Y-98525000D01*
X56552500Y-83185000D02*
X77825000Y-61912500D01*
X56515000Y-83185000D02*
X56552500Y-83185000D01*
X56415000Y-98525000D02*
X53320000Y-98525000D01*
%TO.N,CELL_17_A*%
X60325000Y-99784500D02*
X60315500Y-99775000D01*
X60315500Y-99775000D02*
X53320000Y-99775000D01*
%TO.N,CELL_18_A*%
X61595000Y-100965000D02*
X61535000Y-101025000D01*
X61535000Y-101025000D02*
X53320000Y-101025000D01*
%TO.N,CELL_13_A*%
X53320000Y-102275000D02*
X53449500Y-102145500D01*
X72338000Y-102145500D02*
X77825000Y-107632500D01*
X53449500Y-102145500D02*
X72338000Y-102145500D01*
%TO.N,GND_A*%
X55245000Y-55572500D02*
X54277500Y-54605000D01*
X54282500Y-54610000D02*
X62267500Y-54610000D01*
X55245000Y-57150000D02*
X55245000Y-55572500D01*
X62267500Y-54610000D02*
X77825000Y-39052500D01*
X54277500Y-54605000D02*
X54282500Y-54610000D01*
%TO.N,CELL_12_A*%
X53320000Y-104775000D02*
X69252500Y-104775000D01*
X69252500Y-104775000D02*
X77825000Y-113347500D01*
%TO.N,CELL_11_A*%
X53320000Y-106025000D02*
X64787500Y-106025000D01*
X64787500Y-106025000D02*
X77825000Y-119062500D01*
%TO.N,CELL_10_A*%
X60322500Y-107275000D02*
X77825000Y-124777500D01*
X53320000Y-107275000D02*
X60322500Y-107275000D01*
%TO.N,SCL_A*%
X59055000Y-108585000D02*
X58995000Y-108525000D01*
X58995000Y-108525000D02*
X53320000Y-108525000D01*
%TO.N,CELL_9_A*%
X57107500Y-109775000D02*
X53320000Y-109775000D01*
X77825000Y-130492500D02*
X57107500Y-109775000D01*
%TO.N,CELL_8_A*%
X53320000Y-112275000D02*
X53892500Y-112275000D01*
X53892500Y-112275000D02*
X77825000Y-136207500D01*
%TO.N,CP_B*%
X104922500Y-92222500D02*
X92710000Y-80010000D01*
X80365000Y-67627500D02*
X92710000Y-79972500D01*
X104922500Y-97275000D02*
X104922500Y-92222500D01*
X92710000Y-79972500D02*
X92710000Y-80010000D01*
%TO.N,CELL_6_B*%
X97255000Y-98525000D02*
X104922500Y-98525000D01*
X97155000Y-98425000D02*
X97255000Y-98525000D01*
%TO.N,CELL_5_B*%
X98505000Y-99775000D02*
X104922500Y-99775000D01*
X98425000Y-99695000D02*
X98505000Y-99775000D01*
%TO.N,CELL_4_B*%
X99755000Y-101025000D02*
X104922500Y-101025000D01*
X99695000Y-100965000D02*
X99755000Y-101025000D01*
%TO.N,CELL_16_B*%
X104922500Y-102275000D02*
X92152500Y-102275000D01*
X92152500Y-102275000D02*
X80365000Y-90487500D01*
%TO.N,CELL_15_B*%
X104922500Y-103525000D02*
X87687500Y-103525000D01*
X87687500Y-103525000D02*
X80365000Y-96202500D01*
%TO.N,ALERT3_B*%
X104922500Y-104775000D02*
X95885000Y-104775000D01*
%TO.N,CELL_14_B*%
X80365000Y-101917500D02*
X84472500Y-106025000D01*
X84472500Y-106025000D02*
X104922500Y-106025000D01*
%TO.N,ALERT1_B*%
X94675000Y-108525000D02*
X104922500Y-108525000D01*
X94615000Y-108585000D02*
X94675000Y-108525000D01*
%TO.N,CELL_2_B*%
X102315000Y-109775000D02*
X104922500Y-109775000D01*
X102235000Y-109855000D02*
X102315000Y-109775000D01*
%TO.N,CELL_3_B*%
X101065000Y-111025000D02*
X104922500Y-111025000D01*
X100965000Y-111125000D02*
X101065000Y-111025000D01*
%TO.N,CELL_7_B*%
X95885000Y-112395000D02*
X96005000Y-112275000D01*
X96005000Y-112275000D02*
X104922500Y-112275000D01*
%TO.N,VDD_B*%
X104140000Y-60325000D02*
X106172500Y-62357500D01*
X106172500Y-62357500D02*
X106172500Y-97275000D01*
%TO.N,SDA_B*%
X106272500Y-98425000D02*
X106172500Y-98525000D01*
X103505000Y-85052500D02*
X80365000Y-61912500D01*
X103505000Y-85090000D02*
X103505000Y-85052500D01*
X108039500Y-98425000D02*
X106272500Y-98425000D01*
%TO.N,CELL_17_B*%
X97155000Y-94615000D02*
X90170000Y-94615000D01*
X109220000Y-94615000D02*
X107225500Y-94615000D01*
X109140000Y-99775000D02*
X109220000Y-99695000D01*
X109220000Y-99695000D02*
X109220000Y-94615000D01*
X90170000Y-94615000D02*
X89535000Y-93980000D01*
X80365000Y-84772500D02*
X89535000Y-93942500D01*
X106172500Y-99775000D02*
X109140000Y-99775000D01*
%TO.N,CELL_18_B*%
X97155000Y-93345000D02*
X92710000Y-88900000D01*
X90207500Y-88900000D02*
X90805000Y-88900000D01*
X110490000Y-93345000D02*
X107225500Y-93345000D01*
X92710000Y-88900000D02*
X90805000Y-88900000D01*
X106172500Y-101025000D02*
X110430000Y-101025000D01*
X80365000Y-79057500D02*
X90207500Y-88900000D01*
X110490000Y-100965000D02*
X110490000Y-93345000D01*
X110430000Y-101025000D02*
X110490000Y-100965000D01*
%TO.N,CELL_13_B*%
X106045000Y-116205000D02*
X88900000Y-116205000D01*
X112395000Y-114935000D02*
X114300000Y-113030000D01*
X88900000Y-116205000D02*
X80365000Y-107670000D01*
X80365000Y-107670000D02*
X80365000Y-107632500D01*
X114300000Y-113030000D02*
X114300000Y-103505000D01*
X113070000Y-102275000D02*
X106172500Y-102275000D01*
X114300000Y-103505000D02*
X113070000Y-102275000D01*
%TO.N,GND_B*%
X113030000Y-103505000D02*
X113010000Y-103525000D01*
X113010000Y-103525000D02*
X106172500Y-103525000D01*
%TO.N,CELL_12_B*%
X111125000Y-117475000D02*
X111125000Y-106045000D01*
X107315000Y-117475000D02*
X84492500Y-117475000D01*
X84492500Y-117475000D02*
X80365000Y-113347500D01*
X111125000Y-106045000D02*
X109855000Y-104775000D01*
X109855000Y-104775000D02*
X106172500Y-104775000D01*
%TO.N,CELL_11_B*%
X106172500Y-106025000D02*
X109240000Y-106025000D01*
X79856522Y-125952011D02*
X78999511Y-125095000D01*
X87630000Y-120015000D02*
X81692989Y-125952011D01*
X109855000Y-106640000D02*
X109855000Y-118745717D01*
X109240000Y-106025000D02*
X109855000Y-106640000D01*
X78999511Y-125095000D02*
X78999511Y-120427989D01*
X108585717Y-120015000D02*
X87630000Y-120015000D01*
X81692989Y-125952011D02*
X79856522Y-125952011D01*
X109855000Y-118745717D02*
X108585717Y-120015000D01*
X78999511Y-120427989D02*
X80365000Y-119062500D01*
%TO.N,CELL_10_B*%
X80365000Y-124777500D02*
X86397500Y-118745000D01*
X108585000Y-118745000D02*
X108585000Y-108830386D01*
X86397500Y-118745000D02*
X108585000Y-118745000D01*
X107029614Y-107275000D02*
X106172500Y-107275000D01*
X108585000Y-108830386D02*
X107029614Y-107275000D01*
%TO.N,SCL_B*%
X80365000Y-73342500D02*
X92710000Y-85687500D01*
X102870000Y-95885000D02*
X92710000Y-85725000D01*
%TO.N,CELL_9_B*%
X106172500Y-109775000D02*
X106703750Y-109775000D01*
X107315000Y-113030000D02*
X105410000Y-114935000D01*
X105410000Y-114935000D02*
X93345000Y-114935000D01*
X106703750Y-109775000D02*
X107315000Y-110386250D01*
X107315000Y-110386250D02*
X107315000Y-113030000D01*
%TO.N,ALERT2_B*%
X106172500Y-111025000D02*
X106172500Y-110997500D01*
X92710000Y-62865000D02*
X92710000Y-62827500D01*
X92710000Y-62827500D02*
X80365000Y-50482500D01*
X104775000Y-74930000D02*
X92710000Y-62865000D01*
%TO.N,CELL_8_B*%
X106172500Y-112906250D02*
X106172500Y-112275000D01*
X105413750Y-113665000D02*
X106172500Y-112906250D01*
X94615000Y-113665000D02*
X105413750Y-113665000D01*
%TD*%
M02*
