%FSLAX45Y45*%
G04 Gerber Fmt 4.5, Leading zero omitted, Abs format (unit mm)*
G04 Created by KiCad (PCBNEW (5.1.12)-1) date 2023-04-24 20:05:02*
%MOMM*%
%LPD*%
G01*
G04 APERTURE LIST*
%TA.AperFunction,Profile*%
%ADD10C,0.200000*%
%TD*%
%ADD11C,0.200000*%
%ADD12C,0.300000*%
G04 APERTURE END LIST*
D10*
X17521068Y-5501144D02*
G75*
G02*
X17838568Y-5818644I0J-317500D01*
G01*
X13388568Y-5818644D02*
G75*
G02*
X13706068Y-5501144I317500J0D01*
G01*
X13388568Y-5818644D02*
X13388568Y-7693644D01*
X13706068Y-8011144D02*
X17521068Y-8011144D01*
X17521068Y-5501144D02*
X13706068Y-5501144D01*
X17838568Y-7693644D02*
X17838568Y-5818644D01*
X17838568Y-7693644D02*
G75*
G02*
X17521068Y-8011144I-317500J0D01*
G01*
X13706068Y-8011144D02*
G75*
G02*
X13388568Y-7693644I0J317500D01*
G01*
D11*
X15686786Y-6644386D02*
X15785846Y-6743446D01*
X15785846Y-6644386D02*
X15686786Y-6743446D01*
X16448786Y-6542786D02*
X16547846Y-6641846D01*
X16547846Y-6542786D02*
X16448786Y-6641846D01*
X16448786Y-6745986D02*
X16547846Y-6845046D01*
X16547846Y-6745986D02*
X16448786Y-6845046D01*
X15855061Y-6439916D02*
G75*
G03*
X15855061Y-6439916I-118745J0D01*
G01*
X15855061Y-6947916D02*
G75*
G03*
X15855061Y-6947916I-118745J0D01*
G01*
X16426561Y-6439916D02*
G75*
G03*
X16426561Y-6439916I-118745J0D01*
G01*
X16426561Y-6947916D02*
G75*
G03*
X16426561Y-6947916I-118745J0D01*
G01*
D12*
X13664996Y-8486858D02*
X13664996Y-8186858D01*
X13736425Y-8186858D01*
X13779282Y-8201144D01*
X13807854Y-8229715D01*
X13822139Y-8258287D01*
X13836425Y-8315430D01*
X13836425Y-8358287D01*
X13822139Y-8415430D01*
X13807854Y-8444001D01*
X13779282Y-8472573D01*
X13736425Y-8486858D01*
X13664996Y-8486858D01*
X13964996Y-8486858D02*
X13964996Y-8286858D01*
X13964996Y-8344001D02*
X13979282Y-8315430D01*
X13993568Y-8301144D01*
X14022139Y-8286858D01*
X14050711Y-8286858D01*
X14150711Y-8486858D02*
X14150711Y-8286858D01*
X14150711Y-8186858D02*
X14136425Y-8201144D01*
X14150711Y-8215430D01*
X14164996Y-8201144D01*
X14150711Y-8186858D01*
X14150711Y-8215430D01*
X14336425Y-8486858D02*
X14307854Y-8472573D01*
X14293568Y-8444001D01*
X14293568Y-8186858D01*
X14493568Y-8486858D02*
X14464996Y-8472573D01*
X14450711Y-8444001D01*
X14450711Y-8186858D01*
X14836425Y-8486858D02*
X14836425Y-8186858D01*
X14936425Y-8401144D01*
X15036425Y-8186858D01*
X15036425Y-8486858D01*
X15307854Y-8486858D02*
X15307854Y-8329715D01*
X15293568Y-8301144D01*
X15264996Y-8286858D01*
X15207854Y-8286858D01*
X15179282Y-8301144D01*
X15307854Y-8472573D02*
X15279282Y-8486858D01*
X15207854Y-8486858D01*
X15179282Y-8472573D01*
X15164996Y-8444001D01*
X15164996Y-8415430D01*
X15179282Y-8386858D01*
X15207854Y-8372573D01*
X15279282Y-8372573D01*
X15307854Y-8358287D01*
X15450711Y-8286858D02*
X15450711Y-8586858D01*
X15450711Y-8301144D02*
X15479282Y-8286858D01*
X15536425Y-8286858D01*
X15564996Y-8301144D01*
X15579282Y-8315430D01*
X15593568Y-8344001D01*
X15593568Y-8429716D01*
X15579282Y-8458287D01*
X15564996Y-8472573D01*
X15536425Y-8486858D01*
X15479282Y-8486858D01*
X15450711Y-8472573D01*
X15722139Y-8458287D02*
X15736425Y-8472573D01*
X15722139Y-8486858D01*
X15707854Y-8472573D01*
X15722139Y-8458287D01*
X15722139Y-8486858D01*
X15722139Y-8301144D02*
X15736425Y-8315430D01*
X15722139Y-8329715D01*
X15707854Y-8315430D01*
X15722139Y-8301144D01*
X15722139Y-8329715D01*
X13279508Y-8931614D02*
X13378568Y-9030674D01*
X13378568Y-8931614D02*
X13279508Y-9030674D01*
X13722139Y-8816858D02*
X13750711Y-8816858D01*
X13779282Y-8831144D01*
X13793568Y-8845430D01*
X13807854Y-8874001D01*
X13822139Y-8931144D01*
X13822139Y-9002573D01*
X13807854Y-9059716D01*
X13793568Y-9088287D01*
X13779282Y-9102573D01*
X13750711Y-9116858D01*
X13722139Y-9116858D01*
X13693568Y-9102573D01*
X13679282Y-9088287D01*
X13664996Y-9059716D01*
X13650711Y-9002573D01*
X13650711Y-8931144D01*
X13664996Y-8874001D01*
X13679282Y-8845430D01*
X13693568Y-8831144D01*
X13722139Y-8816858D01*
X13950711Y-9088287D02*
X13964996Y-9102573D01*
X13950711Y-9116858D01*
X13936425Y-9102573D01*
X13950711Y-9088287D01*
X13950711Y-9116858D01*
X14107854Y-9116858D02*
X14164996Y-9116858D01*
X14193568Y-9102573D01*
X14207854Y-9088287D01*
X14236425Y-9045430D01*
X14250711Y-8988287D01*
X14250711Y-8874001D01*
X14236425Y-8845430D01*
X14222139Y-8831144D01*
X14193568Y-8816858D01*
X14136425Y-8816858D01*
X14107854Y-8831144D01*
X14093568Y-8845430D01*
X14079282Y-8874001D01*
X14079282Y-8945430D01*
X14093568Y-8974001D01*
X14107854Y-8988287D01*
X14136425Y-9002573D01*
X14193568Y-9002573D01*
X14222139Y-8988287D01*
X14236425Y-8974001D01*
X14250711Y-8945430D01*
X14393568Y-9116858D02*
X14450711Y-9116858D01*
X14479282Y-9102573D01*
X14493568Y-9088287D01*
X14522139Y-9045430D01*
X14536425Y-8988287D01*
X14536425Y-8874001D01*
X14522139Y-8845430D01*
X14507854Y-8831144D01*
X14479282Y-8816858D01*
X14422139Y-8816858D01*
X14393568Y-8831144D01*
X14379282Y-8845430D01*
X14364996Y-8874001D01*
X14364996Y-8945430D01*
X14379282Y-8974001D01*
X14393568Y-8988287D01*
X14422139Y-9002573D01*
X14479282Y-9002573D01*
X14507854Y-8988287D01*
X14522139Y-8974001D01*
X14536425Y-8945430D01*
X14822139Y-9116858D02*
X14650711Y-9116858D01*
X14736425Y-9116858D02*
X14736425Y-8816858D01*
X14707854Y-8859716D01*
X14679282Y-8888287D01*
X14650711Y-8902573D01*
X14950711Y-9116858D02*
X14950711Y-8916858D01*
X14950711Y-8945430D02*
X14964996Y-8931144D01*
X14993568Y-8916858D01*
X15036425Y-8916858D01*
X15064996Y-8931144D01*
X15079282Y-8959716D01*
X15079282Y-9116858D01*
X15079282Y-8959716D02*
X15093568Y-8931144D01*
X15122139Y-8916858D01*
X15164996Y-8916858D01*
X15193568Y-8931144D01*
X15207854Y-8959716D01*
X15207854Y-9116858D01*
X15350711Y-9116858D02*
X15350711Y-8916858D01*
X15350711Y-8945430D02*
X15364996Y-8931144D01*
X15393568Y-8916858D01*
X15436425Y-8916858D01*
X15464996Y-8931144D01*
X15479282Y-8959716D01*
X15479282Y-9116858D01*
X15479282Y-8959716D02*
X15493568Y-8931144D01*
X15522139Y-8916858D01*
X15564996Y-8916858D01*
X15593568Y-8931144D01*
X15607854Y-8959716D01*
X15607854Y-9116858D01*
X16193568Y-8802573D02*
X15936425Y-9188287D01*
X16579282Y-8816858D02*
X16607854Y-8816858D01*
X16636425Y-8831144D01*
X16650711Y-8845430D01*
X16664996Y-8874001D01*
X16679282Y-8931144D01*
X16679282Y-9002573D01*
X16664996Y-9059716D01*
X16650711Y-9088287D01*
X16636425Y-9102573D01*
X16607854Y-9116858D01*
X16579282Y-9116858D01*
X16550711Y-9102573D01*
X16536425Y-9088287D01*
X16522139Y-9059716D01*
X16507854Y-9002573D01*
X16507854Y-8931144D01*
X16522139Y-8874001D01*
X16536425Y-8845430D01*
X16550711Y-8831144D01*
X16579282Y-8816858D01*
X16807854Y-9088287D02*
X16822139Y-9102573D01*
X16807854Y-9116858D01*
X16793568Y-9102573D01*
X16807854Y-9088287D01*
X16807854Y-9116858D01*
X17007854Y-8816858D02*
X17036425Y-8816858D01*
X17064996Y-8831144D01*
X17079282Y-8845430D01*
X17093568Y-8874001D01*
X17107854Y-8931144D01*
X17107854Y-9002573D01*
X17093568Y-9059716D01*
X17079282Y-9088287D01*
X17064996Y-9102573D01*
X17036425Y-9116858D01*
X17007854Y-9116858D01*
X16979282Y-9102573D01*
X16964996Y-9088287D01*
X16950711Y-9059716D01*
X16936425Y-9002573D01*
X16936425Y-8931144D01*
X16950711Y-8874001D01*
X16964996Y-8845430D01*
X16979282Y-8831144D01*
X17007854Y-8816858D01*
X17207854Y-8816858D02*
X17393568Y-8816858D01*
X17293568Y-8931144D01*
X17336425Y-8931144D01*
X17364996Y-8945430D01*
X17379282Y-8959716D01*
X17393568Y-8988287D01*
X17393568Y-9059716D01*
X17379282Y-9088287D01*
X17364996Y-9102573D01*
X17336425Y-9116858D01*
X17250711Y-9116858D01*
X17222139Y-9102573D01*
X17207854Y-9088287D01*
X17536425Y-9116858D02*
X17593568Y-9116858D01*
X17622139Y-9102573D01*
X17636425Y-9088287D01*
X17664996Y-9045430D01*
X17679282Y-8988287D01*
X17679282Y-8874001D01*
X17664996Y-8845430D01*
X17650711Y-8831144D01*
X17622139Y-8816858D01*
X17564996Y-8816858D01*
X17536425Y-8831144D01*
X17522139Y-8845430D01*
X17507854Y-8874001D01*
X17507854Y-8945430D01*
X17522139Y-8974001D01*
X17536425Y-8988287D01*
X17564996Y-9002573D01*
X17622139Y-9002573D01*
X17650711Y-8988287D01*
X17664996Y-8974001D01*
X17679282Y-8945430D01*
X17864996Y-8816858D02*
X17893568Y-8816858D01*
X17922139Y-8831144D01*
X17936425Y-8845430D01*
X17950711Y-8874001D01*
X17964996Y-8931144D01*
X17964996Y-9002573D01*
X17950711Y-9059716D01*
X17936425Y-9088287D01*
X17922139Y-9102573D01*
X17893568Y-9116858D01*
X17864996Y-9116858D01*
X17836425Y-9102573D01*
X17822139Y-9088287D01*
X17807854Y-9059716D01*
X17793568Y-9002573D01*
X17793568Y-8931144D01*
X17807854Y-8874001D01*
X17822139Y-8845430D01*
X17836425Y-8831144D01*
X17864996Y-8816858D01*
X18079282Y-8816858D02*
X18079282Y-8874001D01*
X18193568Y-8816858D02*
X18193568Y-8874001D01*
X18636425Y-9231144D02*
X18622139Y-9216858D01*
X18593568Y-9174001D01*
X18579282Y-9145430D01*
X18564996Y-9102573D01*
X18550711Y-9031144D01*
X18550711Y-8974001D01*
X18564996Y-8902573D01*
X18579282Y-8859716D01*
X18593568Y-8831144D01*
X18622139Y-8788287D01*
X18636425Y-8774001D01*
X18722139Y-8816858D02*
X18907854Y-8816858D01*
X18807854Y-8931144D01*
X18850711Y-8931144D01*
X18879282Y-8945430D01*
X18893568Y-8959716D01*
X18907854Y-8988287D01*
X18907854Y-9059716D01*
X18893568Y-9088287D01*
X18879282Y-9102573D01*
X18850711Y-9116858D01*
X18764996Y-9116858D01*
X18736425Y-9102573D01*
X18722139Y-9088287D01*
X19264996Y-9116858D02*
X19264996Y-8816858D01*
X19393568Y-9116858D02*
X19393568Y-8959716D01*
X19379282Y-8931144D01*
X19350711Y-8916858D01*
X19307854Y-8916858D01*
X19279282Y-8931144D01*
X19264996Y-8945430D01*
X19579282Y-9116858D02*
X19550711Y-9102573D01*
X19536425Y-9088287D01*
X19522139Y-9059716D01*
X19522139Y-8974001D01*
X19536425Y-8945430D01*
X19550711Y-8931144D01*
X19579282Y-8916858D01*
X19622139Y-8916858D01*
X19650711Y-8931144D01*
X19664996Y-8945430D01*
X19679282Y-8974001D01*
X19679282Y-9059716D01*
X19664996Y-9088287D01*
X19650711Y-9102573D01*
X19622139Y-9116858D01*
X19579282Y-9116858D01*
X19850711Y-9116858D02*
X19822139Y-9102573D01*
X19807854Y-9074001D01*
X19807854Y-8816858D01*
X20079282Y-9102573D02*
X20050711Y-9116858D01*
X19993568Y-9116858D01*
X19964996Y-9102573D01*
X19950711Y-9074001D01*
X19950711Y-8959716D01*
X19964996Y-8931144D01*
X19993568Y-8916858D01*
X20050711Y-8916858D01*
X20079282Y-8931144D01*
X20093568Y-8959716D01*
X20093568Y-8988287D01*
X19950711Y-9016858D01*
X20207854Y-9102573D02*
X20236425Y-9116858D01*
X20293568Y-9116858D01*
X20322139Y-9102573D01*
X20336425Y-9074001D01*
X20336425Y-9059716D01*
X20322139Y-9031144D01*
X20293568Y-9016858D01*
X20250711Y-9016858D01*
X20222139Y-9002573D01*
X20207854Y-8974001D01*
X20207854Y-8959716D01*
X20222139Y-8931144D01*
X20250711Y-8916858D01*
X20293568Y-8916858D01*
X20322139Y-8931144D01*
X20436425Y-9231144D02*
X20450711Y-9216858D01*
X20479282Y-9174001D01*
X20493568Y-9145430D01*
X20507854Y-9102573D01*
X20522139Y-9031144D01*
X20522139Y-8974001D01*
X20507854Y-8902573D01*
X20493568Y-8859716D01*
X20479282Y-8831144D01*
X20450711Y-8788287D01*
X20436425Y-8774001D01*
X20979282Y-9231144D02*
X20964996Y-9216858D01*
X20936425Y-9174001D01*
X20922139Y-9145430D01*
X20907854Y-9102573D01*
X20893568Y-9031144D01*
X20893568Y-8974001D01*
X20907854Y-8902573D01*
X20922139Y-8859716D01*
X20936425Y-8831144D01*
X20964996Y-8788287D01*
X20979282Y-8774001D01*
X21093568Y-8916858D02*
X21093568Y-9116858D01*
X21093568Y-8945430D02*
X21107854Y-8931144D01*
X21136425Y-8916858D01*
X21179282Y-8916858D01*
X21207854Y-8931144D01*
X21222139Y-8959716D01*
X21222139Y-9116858D01*
X21407854Y-9116858D02*
X21379282Y-9102573D01*
X21364996Y-9088287D01*
X21350711Y-9059716D01*
X21350711Y-8974001D01*
X21364996Y-8945430D01*
X21379282Y-8931144D01*
X21407854Y-8916858D01*
X21450711Y-8916858D01*
X21479282Y-8931144D01*
X21493568Y-8945430D01*
X21507854Y-8974001D01*
X21507854Y-9059716D01*
X21493568Y-9088287D01*
X21479282Y-9102573D01*
X21450711Y-9116858D01*
X21407854Y-9116858D01*
X21593568Y-8916858D02*
X21707854Y-8916858D01*
X21636425Y-8816858D02*
X21636425Y-9074001D01*
X21650711Y-9102573D01*
X21679282Y-9116858D01*
X21707854Y-9116858D01*
X22036425Y-8916858D02*
X22036425Y-9216858D01*
X22036425Y-8931144D02*
X22064996Y-8916858D01*
X22122139Y-8916858D01*
X22150711Y-8931144D01*
X22164996Y-8945430D01*
X22179282Y-8974001D01*
X22179282Y-9059716D01*
X22164996Y-9088287D01*
X22150711Y-9102573D01*
X22122139Y-9116858D01*
X22064996Y-9116858D01*
X22036425Y-9102573D01*
X22350711Y-9116858D02*
X22322139Y-9102573D01*
X22307854Y-9074001D01*
X22307854Y-8816858D01*
X22593568Y-9116858D02*
X22593568Y-8959716D01*
X22579282Y-8931144D01*
X22550711Y-8916858D01*
X22493568Y-8916858D01*
X22464996Y-8931144D01*
X22593568Y-9102573D02*
X22564996Y-9116858D01*
X22493568Y-9116858D01*
X22464996Y-9102573D01*
X22450711Y-9074001D01*
X22450711Y-9045430D01*
X22464996Y-9016858D01*
X22493568Y-9002573D01*
X22564996Y-9002573D01*
X22593568Y-8988287D01*
X22693568Y-8916858D02*
X22807854Y-8916858D01*
X22736425Y-8816858D02*
X22736425Y-9074001D01*
X22750711Y-9102573D01*
X22779282Y-9116858D01*
X22807854Y-9116858D01*
X23022139Y-9102573D02*
X22993568Y-9116858D01*
X22936425Y-9116858D01*
X22907854Y-9102573D01*
X22893568Y-9074001D01*
X22893568Y-8959716D01*
X22907854Y-8931144D01*
X22936425Y-8916858D01*
X22993568Y-8916858D01*
X23022139Y-8931144D01*
X23036425Y-8959716D01*
X23036425Y-8988287D01*
X22893568Y-9016858D01*
X23293568Y-9116858D02*
X23293568Y-8816858D01*
X23293568Y-9102573D02*
X23264996Y-9116858D01*
X23207854Y-9116858D01*
X23179282Y-9102573D01*
X23164996Y-9088287D01*
X23150711Y-9059716D01*
X23150711Y-8974001D01*
X23164996Y-8945430D01*
X23179282Y-8931144D01*
X23207854Y-8916858D01*
X23264996Y-8916858D01*
X23293568Y-8931144D01*
X23407854Y-9231144D02*
X23422139Y-9216858D01*
X23450711Y-9174001D01*
X23464996Y-9145430D01*
X23479282Y-9102573D01*
X23493568Y-9031144D01*
X23493568Y-8974001D01*
X23479282Y-8902573D01*
X23464996Y-8859716D01*
X23450711Y-8831144D01*
X23422139Y-8788287D01*
X23407854Y-8774001D01*
X13378568Y-9377144D02*
G75*
G03*
X13378568Y-9377144I-118745J0D01*
G01*
X13650711Y-9241430D02*
X13664996Y-9227144D01*
X13693568Y-9212858D01*
X13764996Y-9212858D01*
X13793568Y-9227144D01*
X13807854Y-9241430D01*
X13822139Y-9270001D01*
X13822139Y-9298573D01*
X13807854Y-9341430D01*
X13636425Y-9512858D01*
X13822139Y-9512858D01*
X13950711Y-9484287D02*
X13964996Y-9498573D01*
X13950711Y-9512858D01*
X13936425Y-9498573D01*
X13950711Y-9484287D01*
X13950711Y-9512858D01*
X14064996Y-9212858D02*
X14250711Y-9212858D01*
X14150711Y-9327144D01*
X14193568Y-9327144D01*
X14222139Y-9341430D01*
X14236425Y-9355716D01*
X14250711Y-9384287D01*
X14250711Y-9455716D01*
X14236425Y-9484287D01*
X14222139Y-9498573D01*
X14193568Y-9512858D01*
X14107854Y-9512858D01*
X14079282Y-9498573D01*
X14064996Y-9484287D01*
X14350711Y-9212858D02*
X14550711Y-9212858D01*
X14422139Y-9512858D01*
X14807854Y-9212858D02*
X14664996Y-9212858D01*
X14650711Y-9355716D01*
X14664996Y-9341430D01*
X14693568Y-9327144D01*
X14764996Y-9327144D01*
X14793568Y-9341430D01*
X14807854Y-9355716D01*
X14822139Y-9384287D01*
X14822139Y-9455716D01*
X14807854Y-9484287D01*
X14793568Y-9498573D01*
X14764996Y-9512858D01*
X14693568Y-9512858D01*
X14664996Y-9498573D01*
X14650711Y-9484287D01*
X14950711Y-9512858D02*
X14950711Y-9312858D01*
X14950711Y-9341430D02*
X14964996Y-9327144D01*
X14993568Y-9312858D01*
X15036425Y-9312858D01*
X15064996Y-9327144D01*
X15079282Y-9355716D01*
X15079282Y-9512858D01*
X15079282Y-9355716D02*
X15093568Y-9327144D01*
X15122139Y-9312858D01*
X15164996Y-9312858D01*
X15193568Y-9327144D01*
X15207854Y-9355716D01*
X15207854Y-9512858D01*
X15350711Y-9512858D02*
X15350711Y-9312858D01*
X15350711Y-9341430D02*
X15364996Y-9327144D01*
X15393568Y-9312858D01*
X15436425Y-9312858D01*
X15464996Y-9327144D01*
X15479282Y-9355716D01*
X15479282Y-9512858D01*
X15479282Y-9355716D02*
X15493568Y-9327144D01*
X15522139Y-9312858D01*
X15564996Y-9312858D01*
X15593568Y-9327144D01*
X15607854Y-9355716D01*
X15607854Y-9512858D01*
X16193568Y-9198573D02*
X15936425Y-9584287D01*
X16579282Y-9212858D02*
X16607854Y-9212858D01*
X16636425Y-9227144D01*
X16650711Y-9241430D01*
X16664996Y-9270001D01*
X16679282Y-9327144D01*
X16679282Y-9398573D01*
X16664996Y-9455716D01*
X16650711Y-9484287D01*
X16636425Y-9498573D01*
X16607854Y-9512858D01*
X16579282Y-9512858D01*
X16550711Y-9498573D01*
X16536425Y-9484287D01*
X16522139Y-9455716D01*
X16507854Y-9398573D01*
X16507854Y-9327144D01*
X16522139Y-9270001D01*
X16536425Y-9241430D01*
X16550711Y-9227144D01*
X16579282Y-9212858D01*
X16807854Y-9484287D02*
X16822139Y-9498573D01*
X16807854Y-9512858D01*
X16793568Y-9498573D01*
X16807854Y-9484287D01*
X16807854Y-9512858D01*
X17007854Y-9212858D02*
X17036425Y-9212858D01*
X17064996Y-9227144D01*
X17079282Y-9241430D01*
X17093568Y-9270001D01*
X17107854Y-9327144D01*
X17107854Y-9398573D01*
X17093568Y-9455716D01*
X17079282Y-9484287D01*
X17064996Y-9498573D01*
X17036425Y-9512858D01*
X17007854Y-9512858D01*
X16979282Y-9498573D01*
X16964996Y-9484287D01*
X16950711Y-9455716D01*
X16936425Y-9398573D01*
X16936425Y-9327144D01*
X16950711Y-9270001D01*
X16964996Y-9241430D01*
X16979282Y-9227144D01*
X17007854Y-9212858D01*
X17250711Y-9512858D02*
X17307854Y-9512858D01*
X17336425Y-9498573D01*
X17350711Y-9484287D01*
X17379282Y-9441430D01*
X17393568Y-9384287D01*
X17393568Y-9270001D01*
X17379282Y-9241430D01*
X17364996Y-9227144D01*
X17336425Y-9212858D01*
X17279282Y-9212858D01*
X17250711Y-9227144D01*
X17236425Y-9241430D01*
X17222139Y-9270001D01*
X17222139Y-9341430D01*
X17236425Y-9370001D01*
X17250711Y-9384287D01*
X17279282Y-9398573D01*
X17336425Y-9398573D01*
X17364996Y-9384287D01*
X17379282Y-9370001D01*
X17393568Y-9341430D01*
X17493568Y-9212858D02*
X17679282Y-9212858D01*
X17579282Y-9327144D01*
X17622139Y-9327144D01*
X17650711Y-9341430D01*
X17664996Y-9355716D01*
X17679282Y-9384287D01*
X17679282Y-9455716D01*
X17664996Y-9484287D01*
X17650711Y-9498573D01*
X17622139Y-9512858D01*
X17536425Y-9512858D01*
X17507854Y-9498573D01*
X17493568Y-9484287D01*
X17950711Y-9212858D02*
X17807854Y-9212858D01*
X17793568Y-9355716D01*
X17807854Y-9341430D01*
X17836425Y-9327144D01*
X17907854Y-9327144D01*
X17936425Y-9341430D01*
X17950711Y-9355716D01*
X17964996Y-9384287D01*
X17964996Y-9455716D01*
X17950711Y-9484287D01*
X17936425Y-9498573D01*
X17907854Y-9512858D01*
X17836425Y-9512858D01*
X17807854Y-9498573D01*
X17793568Y-9484287D01*
X18079282Y-9212858D02*
X18079282Y-9270001D01*
X18193568Y-9212858D02*
X18193568Y-9270001D01*
X18636425Y-9627144D02*
X18622139Y-9612858D01*
X18593568Y-9570001D01*
X18579282Y-9541430D01*
X18564996Y-9498573D01*
X18550711Y-9427144D01*
X18550711Y-9370001D01*
X18564996Y-9298573D01*
X18579282Y-9255716D01*
X18593568Y-9227144D01*
X18622139Y-9184287D01*
X18636425Y-9170001D01*
X18879282Y-9312858D02*
X18879282Y-9512858D01*
X18807854Y-9198573D02*
X18736425Y-9412858D01*
X18922139Y-9412858D01*
X19264996Y-9512858D02*
X19264996Y-9212858D01*
X19393568Y-9512858D02*
X19393568Y-9355716D01*
X19379282Y-9327144D01*
X19350711Y-9312858D01*
X19307854Y-9312858D01*
X19279282Y-9327144D01*
X19264996Y-9341430D01*
X19579282Y-9512858D02*
X19550711Y-9498573D01*
X19536425Y-9484287D01*
X19522139Y-9455716D01*
X19522139Y-9370001D01*
X19536425Y-9341430D01*
X19550711Y-9327144D01*
X19579282Y-9312858D01*
X19622139Y-9312858D01*
X19650711Y-9327144D01*
X19664996Y-9341430D01*
X19679282Y-9370001D01*
X19679282Y-9455716D01*
X19664996Y-9484287D01*
X19650711Y-9498573D01*
X19622139Y-9512858D01*
X19579282Y-9512858D01*
X19850711Y-9512858D02*
X19822139Y-9498573D01*
X19807854Y-9470001D01*
X19807854Y-9212858D01*
X20079282Y-9498573D02*
X20050711Y-9512858D01*
X19993568Y-9512858D01*
X19964996Y-9498573D01*
X19950711Y-9470001D01*
X19950711Y-9355716D01*
X19964996Y-9327144D01*
X19993568Y-9312858D01*
X20050711Y-9312858D01*
X20079282Y-9327144D01*
X20093568Y-9355716D01*
X20093568Y-9384287D01*
X19950711Y-9412858D01*
X20207854Y-9498573D02*
X20236425Y-9512858D01*
X20293568Y-9512858D01*
X20322139Y-9498573D01*
X20336425Y-9470001D01*
X20336425Y-9455716D01*
X20322139Y-9427144D01*
X20293568Y-9412858D01*
X20250711Y-9412858D01*
X20222139Y-9398573D01*
X20207854Y-9370001D01*
X20207854Y-9355716D01*
X20222139Y-9327144D01*
X20250711Y-9312858D01*
X20293568Y-9312858D01*
X20322139Y-9327144D01*
X20436425Y-9627144D02*
X20450711Y-9612858D01*
X20479282Y-9570001D01*
X20493568Y-9541430D01*
X20507854Y-9498573D01*
X20522139Y-9427144D01*
X20522139Y-9370001D01*
X20507854Y-9298573D01*
X20493568Y-9255716D01*
X20479282Y-9227144D01*
X20450711Y-9184287D01*
X20436425Y-9170001D01*
X20979282Y-9627144D02*
X20964996Y-9612858D01*
X20936425Y-9570001D01*
X20922139Y-9541430D01*
X20907854Y-9498573D01*
X20893568Y-9427144D01*
X20893568Y-9370001D01*
X20907854Y-9298573D01*
X20922139Y-9255716D01*
X20936425Y-9227144D01*
X20964996Y-9184287D01*
X20979282Y-9170001D01*
X21093568Y-9312858D02*
X21093568Y-9512858D01*
X21093568Y-9341430D02*
X21107854Y-9327144D01*
X21136425Y-9312858D01*
X21179282Y-9312858D01*
X21207854Y-9327144D01*
X21222139Y-9355716D01*
X21222139Y-9512858D01*
X21407854Y-9512858D02*
X21379282Y-9498573D01*
X21364996Y-9484287D01*
X21350711Y-9455716D01*
X21350711Y-9370001D01*
X21364996Y-9341430D01*
X21379282Y-9327144D01*
X21407854Y-9312858D01*
X21450711Y-9312858D01*
X21479282Y-9327144D01*
X21493568Y-9341430D01*
X21507854Y-9370001D01*
X21507854Y-9455716D01*
X21493568Y-9484287D01*
X21479282Y-9498573D01*
X21450711Y-9512858D01*
X21407854Y-9512858D01*
X21593568Y-9312858D02*
X21707854Y-9312858D01*
X21636425Y-9212858D02*
X21636425Y-9470001D01*
X21650711Y-9498573D01*
X21679282Y-9512858D01*
X21707854Y-9512858D01*
X22036425Y-9312858D02*
X22036425Y-9612858D01*
X22036425Y-9327144D02*
X22064996Y-9312858D01*
X22122139Y-9312858D01*
X22150711Y-9327144D01*
X22164996Y-9341430D01*
X22179282Y-9370001D01*
X22179282Y-9455716D01*
X22164996Y-9484287D01*
X22150711Y-9498573D01*
X22122139Y-9512858D01*
X22064996Y-9512858D01*
X22036425Y-9498573D01*
X22350711Y-9512858D02*
X22322139Y-9498573D01*
X22307854Y-9470001D01*
X22307854Y-9212858D01*
X22593568Y-9512858D02*
X22593568Y-9355716D01*
X22579282Y-9327144D01*
X22550711Y-9312858D01*
X22493568Y-9312858D01*
X22464996Y-9327144D01*
X22593568Y-9498573D02*
X22564996Y-9512858D01*
X22493568Y-9512858D01*
X22464996Y-9498573D01*
X22450711Y-9470001D01*
X22450711Y-9441430D01*
X22464996Y-9412858D01*
X22493568Y-9398573D01*
X22564996Y-9398573D01*
X22593568Y-9384287D01*
X22693568Y-9312858D02*
X22807854Y-9312858D01*
X22736425Y-9212858D02*
X22736425Y-9470001D01*
X22750711Y-9498573D01*
X22779282Y-9512858D01*
X22807854Y-9512858D01*
X23022139Y-9498573D02*
X22993568Y-9512858D01*
X22936425Y-9512858D01*
X22907854Y-9498573D01*
X22893568Y-9470001D01*
X22893568Y-9355716D01*
X22907854Y-9327144D01*
X22936425Y-9312858D01*
X22993568Y-9312858D01*
X23022139Y-9327144D01*
X23036425Y-9355716D01*
X23036425Y-9384287D01*
X22893568Y-9412858D01*
X23293568Y-9512858D02*
X23293568Y-9212858D01*
X23293568Y-9498573D02*
X23264996Y-9512858D01*
X23207854Y-9512858D01*
X23179282Y-9498573D01*
X23164996Y-9484287D01*
X23150711Y-9455716D01*
X23150711Y-9370001D01*
X23164996Y-9341430D01*
X23179282Y-9327144D01*
X23207854Y-9312858D01*
X23264996Y-9312858D01*
X23293568Y-9327144D01*
X23407854Y-9627144D02*
X23422139Y-9612858D01*
X23450711Y-9570001D01*
X23464996Y-9541430D01*
X23479282Y-9498573D01*
X23493568Y-9427144D01*
X23493568Y-9370001D01*
X23479282Y-9298573D01*
X23464996Y-9255716D01*
X23450711Y-9227144D01*
X23422139Y-9184287D01*
X23407854Y-9170001D01*
M02*
