%TF.GenerationSoftware,KiCad,Pcbnew,(5.1.12)-1*%
%TF.CreationDate,2023-04-03T19:11:50-05:00*%
%TF.ProjectId,Tag Connector,54616720-436f-46e6-9e65-63746f722e6b,rev?*%
%TF.SameCoordinates,Original*%
%TF.FileFunction,Soldermask,Bot*%
%TF.FilePolarity,Negative*%
%FSLAX46Y46*%
G04 Gerber Fmt 4.6, Leading zero omitted, Abs format (unit mm)*
G04 Created by KiCad (PCBNEW (5.1.12)-1) date 2023-04-03 19:11:50*
%MOMM*%
%LPD*%
G01*
G04 APERTURE LIST*
%ADD10C,2.374900*%
%ADD11C,0.990600*%
%ADD12C,2.600000*%
%ADD13C,3.800000*%
G04 APERTURE END LIST*
%TO.C,J2*%
G36*
G01*
X158238000Y-102806000D02*
X160738000Y-102806000D01*
G75*
G02*
X160988000Y-103056000I0J-250000D01*
G01*
X160988000Y-104656000D01*
G75*
G02*
X160738000Y-104906000I-250000J0D01*
G01*
X158238000Y-104906000D01*
G75*
G02*
X157988000Y-104656000I0J250000D01*
G01*
X157988000Y-103056000D01*
G75*
G02*
X158238000Y-102806000I250000J0D01*
G01*
G37*
G36*
G01*
X158238000Y-92706000D02*
X160738000Y-92706000D01*
G75*
G02*
X160988000Y-92956000I0J-250000D01*
G01*
X160988000Y-94556000D01*
G75*
G02*
X160738000Y-94806000I-250000J0D01*
G01*
X158238000Y-94806000D01*
G75*
G02*
X157988000Y-94556000I0J250000D01*
G01*
X157988000Y-92956000D01*
G75*
G02*
X158238000Y-92706000I250000J0D01*
G01*
G37*
G36*
G01*
X156288000Y-100906000D02*
X157188000Y-100906000D01*
G75*
G02*
X157388000Y-101106000I0J-200000D01*
G01*
X157388000Y-101506000D01*
G75*
G02*
X157188000Y-101706000I-200000J0D01*
G01*
X156288000Y-101706000D01*
G75*
G02*
X156088000Y-101506000I0J200000D01*
G01*
X156088000Y-101106000D01*
G75*
G02*
X156288000Y-100906000I200000J0D01*
G01*
G37*
G36*
G01*
X156288000Y-99656000D02*
X157188000Y-99656000D01*
G75*
G02*
X157388000Y-99856000I0J-200000D01*
G01*
X157388000Y-100256000D01*
G75*
G02*
X157188000Y-100456000I-200000J0D01*
G01*
X156288000Y-100456000D01*
G75*
G02*
X156088000Y-100256000I0J200000D01*
G01*
X156088000Y-99856000D01*
G75*
G02*
X156288000Y-99656000I200000J0D01*
G01*
G37*
G36*
G01*
X156288000Y-98406000D02*
X157188000Y-98406000D01*
G75*
G02*
X157388000Y-98606000I0J-200000D01*
G01*
X157388000Y-99006000D01*
G75*
G02*
X157188000Y-99206000I-200000J0D01*
G01*
X156288000Y-99206000D01*
G75*
G02*
X156088000Y-99006000I0J200000D01*
G01*
X156088000Y-98606000D01*
G75*
G02*
X156288000Y-98406000I200000J0D01*
G01*
G37*
G36*
G01*
X156288000Y-97156000D02*
X157188000Y-97156000D01*
G75*
G02*
X157388000Y-97356000I0J-200000D01*
G01*
X157388000Y-97756000D01*
G75*
G02*
X157188000Y-97956000I-200000J0D01*
G01*
X156288000Y-97956000D01*
G75*
G02*
X156088000Y-97756000I0J200000D01*
G01*
X156088000Y-97356000D01*
G75*
G02*
X156288000Y-97156000I200000J0D01*
G01*
G37*
G36*
G01*
X156288000Y-95906000D02*
X157188000Y-95906000D01*
G75*
G02*
X157388000Y-96106000I0J-200000D01*
G01*
X157388000Y-96506000D01*
G75*
G02*
X157188000Y-96706000I-200000J0D01*
G01*
X156288000Y-96706000D01*
G75*
G02*
X156088000Y-96506000I0J200000D01*
G01*
X156088000Y-96106000D01*
G75*
G02*
X156288000Y-95906000I200000J0D01*
G01*
G37*
%TD*%
D10*
%TO.C,JTAG1*%
X151511000Y-96012000D03*
X151511000Y-101092000D03*
X145796000Y-101092000D03*
X145796000Y-96012000D03*
D11*
X145796000Y-98552000D03*
X153416000Y-99568000D03*
X153416000Y-97536000D03*
%TD*%
D12*
%TO.C,REF\u002A\u002A*%
X175262000Y-107998000D03*
D13*
X175262000Y-107998000D03*
%TD*%
%TO.C,REF\u002A\u002A*%
X136762000Y-107998000D03*
D12*
X136762000Y-107998000D03*
%TD*%
%TO.C,REF\u002A\u002A*%
X136762000Y-88798000D03*
D13*
X136762000Y-88798000D03*
%TD*%
%TO.C,REF\u002A\u002A*%
X175262000Y-88978000D03*
D12*
X175262000Y-88978000D03*
%TD*%
%TO.C,J1*%
G36*
G01*
X143686000Y-101706000D02*
X142786000Y-101706000D01*
G75*
G02*
X142586000Y-101506000I0J200000D01*
G01*
X142586000Y-101106000D01*
G75*
G02*
X142786000Y-100906000I200000J0D01*
G01*
X143686000Y-100906000D01*
G75*
G02*
X143886000Y-101106000I0J-200000D01*
G01*
X143886000Y-101506000D01*
G75*
G02*
X143686000Y-101706000I-200000J0D01*
G01*
G37*
G36*
G01*
X143686000Y-100456000D02*
X142786000Y-100456000D01*
G75*
G02*
X142586000Y-100256000I0J200000D01*
G01*
X142586000Y-99856000D01*
G75*
G02*
X142786000Y-99656000I200000J0D01*
G01*
X143686000Y-99656000D01*
G75*
G02*
X143886000Y-99856000I0J-200000D01*
G01*
X143886000Y-100256000D01*
G75*
G02*
X143686000Y-100456000I-200000J0D01*
G01*
G37*
G36*
G01*
X143686000Y-99206000D02*
X142786000Y-99206000D01*
G75*
G02*
X142586000Y-99006000I0J200000D01*
G01*
X142586000Y-98606000D01*
G75*
G02*
X142786000Y-98406000I200000J0D01*
G01*
X143686000Y-98406000D01*
G75*
G02*
X143886000Y-98606000I0J-200000D01*
G01*
X143886000Y-99006000D01*
G75*
G02*
X143686000Y-99206000I-200000J0D01*
G01*
G37*
G36*
G01*
X143686000Y-97956000D02*
X142786000Y-97956000D01*
G75*
G02*
X142586000Y-97756000I0J200000D01*
G01*
X142586000Y-97356000D01*
G75*
G02*
X142786000Y-97156000I200000J0D01*
G01*
X143686000Y-97156000D01*
G75*
G02*
X143886000Y-97356000I0J-200000D01*
G01*
X143886000Y-97756000D01*
G75*
G02*
X143686000Y-97956000I-200000J0D01*
G01*
G37*
G36*
G01*
X143686000Y-96706000D02*
X142786000Y-96706000D01*
G75*
G02*
X142586000Y-96506000I0J200000D01*
G01*
X142586000Y-96106000D01*
G75*
G02*
X142786000Y-95906000I200000J0D01*
G01*
X143686000Y-95906000D01*
G75*
G02*
X143886000Y-96106000I0J-200000D01*
G01*
X143886000Y-96506000D01*
G75*
G02*
X143686000Y-96706000I-200000J0D01*
G01*
G37*
G36*
G01*
X141736000Y-104906000D02*
X139236000Y-104906000D01*
G75*
G02*
X138986000Y-104656000I0J250000D01*
G01*
X138986000Y-103056000D01*
G75*
G02*
X139236000Y-102806000I250000J0D01*
G01*
X141736000Y-102806000D01*
G75*
G02*
X141986000Y-103056000I0J-250000D01*
G01*
X141986000Y-104656000D01*
G75*
G02*
X141736000Y-104906000I-250000J0D01*
G01*
G37*
G36*
G01*
X141736000Y-94806000D02*
X139236000Y-94806000D01*
G75*
G02*
X138986000Y-94556000I0J250000D01*
G01*
X138986000Y-92956000D01*
G75*
G02*
X139236000Y-92706000I250000J0D01*
G01*
X141736000Y-92706000D01*
G75*
G02*
X141986000Y-92956000I0J-250000D01*
G01*
X141986000Y-94556000D01*
G75*
G02*
X141736000Y-94806000I-250000J0D01*
G01*
G37*
%TD*%
M02*
