%TF.GenerationSoftware,KiCad,Pcbnew,(5.1.12)-1*%
%TF.CreationDate,2023-04-03T19:11:50-05:00*%
%TF.ProjectId,Tag Connector,54616720-436f-46e6-9e65-63746f722e6b,rev?*%
%TF.SameCoordinates,Original*%
%TF.FileFunction,Legend,Top*%
%TF.FilePolarity,Positive*%
%FSLAX46Y46*%
G04 Gerber Fmt 4.6, Leading zero omitted, Abs format (unit mm)*
G04 Created by KiCad (PCBNEW (5.1.12)-1) date 2023-04-03 19:11:50*
%MOMM*%
%LPD*%
G01*
G04 APERTURE LIST*
%ADD10C,0.200000*%
%ADD11C,0.120000*%
%ADD12C,0.150000*%
G04 APERTURE END LIST*
D10*
X176417000Y-88798000D02*
G75*
G03*
X176417000Y-88798000I-1155000J0D01*
G01*
X137917000Y-88798000D02*
G75*
G03*
X137917000Y-88798000I-1155000J0D01*
G01*
X176417000Y-107998000D02*
G75*
G03*
X176417000Y-107998000I-1155000J0D01*
G01*
X137917000Y-107998000D02*
G75*
G03*
X137917000Y-107998000I-1155000J0D01*
G01*
D11*
%TO.C,JTAG1*%
X146431000Y-99822000D02*
X146431000Y-99187000D01*
X147066000Y-99822000D02*
X146431000Y-99822000D01*
D12*
X147963142Y-103004380D02*
X147963142Y-103718666D01*
X147915523Y-103861523D01*
X147820285Y-103956761D01*
X147677428Y-104004380D01*
X147582190Y-104004380D01*
X148296476Y-103004380D02*
X148867904Y-103004380D01*
X148582190Y-104004380D02*
X148582190Y-103004380D01*
X149153619Y-103718666D02*
X149629809Y-103718666D01*
X149058380Y-104004380D02*
X149391714Y-103004380D01*
X149725047Y-104004380D01*
X150582190Y-103052000D02*
X150486952Y-103004380D01*
X150344095Y-103004380D01*
X150201238Y-103052000D01*
X150106000Y-103147238D01*
X150058380Y-103242476D01*
X150010761Y-103432952D01*
X150010761Y-103575809D01*
X150058380Y-103766285D01*
X150106000Y-103861523D01*
X150201238Y-103956761D01*
X150344095Y-104004380D01*
X150439333Y-104004380D01*
X150582190Y-103956761D01*
X150629809Y-103909142D01*
X150629809Y-103575809D01*
X150439333Y-103575809D01*
X151582190Y-104004380D02*
X151010761Y-104004380D01*
X151296476Y-104004380D02*
X151296476Y-103004380D01*
X151201238Y-103147238D01*
X151106000Y-103242476D01*
X151010761Y-103290095D01*
%TD*%
M02*
