%TF.GenerationSoftware,KiCad,Pcbnew,(5.1.12)-1*%
%TF.CreationDate,2023-04-03T19:11:50-05:00*%
%TF.ProjectId,Tag Connector,54616720-436f-46e6-9e65-63746f722e6b,rev?*%
%TF.SameCoordinates,Original*%
%TF.FileFunction,Copper,L2,Bot*%
%TF.FilePolarity,Positive*%
%FSLAX46Y46*%
G04 Gerber Fmt 4.6, Leading zero omitted, Abs format (unit mm)*
G04 Created by KiCad (PCBNEW (5.1.12)-1) date 2023-04-03 19:11:50*
%MOMM*%
%LPD*%
G01*
G04 APERTURE LIST*
%TA.AperFunction,ComponentPad*%
%ADD10C,2.600000*%
%TD*%
%TA.AperFunction,ConnectorPad*%
%ADD11C,3.800000*%
%TD*%
%TA.AperFunction,ViaPad*%
%ADD12C,0.800000*%
%TD*%
%TA.AperFunction,Conductor*%
%ADD13C,0.250000*%
%TD*%
G04 APERTURE END LIST*
%TO.P,J2,MP*%
%TO.N,N/C*%
%TA.AperFunction,SMDPad,CuDef*%
G36*
G01*
X158238000Y-102806000D02*
X160738000Y-102806000D01*
G75*
G02*
X160988000Y-103056000I0J-250000D01*
G01*
X160988000Y-104656000D01*
G75*
G02*
X160738000Y-104906000I-250000J0D01*
G01*
X158238000Y-104906000D01*
G75*
G02*
X157988000Y-104656000I0J250000D01*
G01*
X157988000Y-103056000D01*
G75*
G02*
X158238000Y-102806000I250000J0D01*
G01*
G37*
%TD.AperFunction*%
%TA.AperFunction,SMDPad,CuDef*%
G36*
G01*
X158238000Y-92706000D02*
X160738000Y-92706000D01*
G75*
G02*
X160988000Y-92956000I0J-250000D01*
G01*
X160988000Y-94556000D01*
G75*
G02*
X160738000Y-94806000I-250000J0D01*
G01*
X158238000Y-94806000D01*
G75*
G02*
X157988000Y-94556000I0J250000D01*
G01*
X157988000Y-92956000D01*
G75*
G02*
X158238000Y-92706000I250000J0D01*
G01*
G37*
%TD.AperFunction*%
%TO.P,J2,5*%
%TO.N,GND*%
%TA.AperFunction,SMDPad,CuDef*%
G36*
G01*
X156288000Y-100906000D02*
X157188000Y-100906000D01*
G75*
G02*
X157388000Y-101106000I0J-200000D01*
G01*
X157388000Y-101506000D01*
G75*
G02*
X157188000Y-101706000I-200000J0D01*
G01*
X156288000Y-101706000D01*
G75*
G02*
X156088000Y-101506000I0J200000D01*
G01*
X156088000Y-101106000D01*
G75*
G02*
X156288000Y-100906000I200000J0D01*
G01*
G37*
%TD.AperFunction*%
%TO.P,J2,4*%
%TO.N,Tx*%
%TA.AperFunction,SMDPad,CuDef*%
G36*
G01*
X156288000Y-99656000D02*
X157188000Y-99656000D01*
G75*
G02*
X157388000Y-99856000I0J-200000D01*
G01*
X157388000Y-100256000D01*
G75*
G02*
X157188000Y-100456000I-200000J0D01*
G01*
X156288000Y-100456000D01*
G75*
G02*
X156088000Y-100256000I0J200000D01*
G01*
X156088000Y-99856000D01*
G75*
G02*
X156288000Y-99656000I200000J0D01*
G01*
G37*
%TD.AperFunction*%
%TO.P,J2,3*%
%TO.N,Net-(J2-Pad3)*%
%TA.AperFunction,SMDPad,CuDef*%
G36*
G01*
X156288000Y-98406000D02*
X157188000Y-98406000D01*
G75*
G02*
X157388000Y-98606000I0J-200000D01*
G01*
X157388000Y-99006000D01*
G75*
G02*
X157188000Y-99206000I-200000J0D01*
G01*
X156288000Y-99206000D01*
G75*
G02*
X156088000Y-99006000I0J200000D01*
G01*
X156088000Y-98606000D01*
G75*
G02*
X156288000Y-98406000I200000J0D01*
G01*
G37*
%TD.AperFunction*%
%TO.P,J2,2*%
%TO.N,Net-(J2-Pad2)*%
%TA.AperFunction,SMDPad,CuDef*%
G36*
G01*
X156288000Y-97156000D02*
X157188000Y-97156000D01*
G75*
G02*
X157388000Y-97356000I0J-200000D01*
G01*
X157388000Y-97756000D01*
G75*
G02*
X157188000Y-97956000I-200000J0D01*
G01*
X156288000Y-97956000D01*
G75*
G02*
X156088000Y-97756000I0J200000D01*
G01*
X156088000Y-97356000D01*
G75*
G02*
X156288000Y-97156000I200000J0D01*
G01*
G37*
%TD.AperFunction*%
%TO.P,J2,1*%
%TO.N,Net-(J2-Pad1)*%
%TA.AperFunction,SMDPad,CuDef*%
G36*
G01*
X156288000Y-95906000D02*
X157188000Y-95906000D01*
G75*
G02*
X157388000Y-96106000I0J-200000D01*
G01*
X157388000Y-96506000D01*
G75*
G02*
X157188000Y-96706000I-200000J0D01*
G01*
X156288000Y-96706000D01*
G75*
G02*
X156088000Y-96506000I0J200000D01*
G01*
X156088000Y-96106000D01*
G75*
G02*
X156288000Y-95906000I200000J0D01*
G01*
G37*
%TD.AperFunction*%
%TD*%
D10*
%TO.P,REF\u002A\u002A,1*%
%TO.N,N/C*%
X175262000Y-107998000D03*
D11*
X175262000Y-107998000D03*
%TD*%
%TO.P,REF\u002A\u002A,1*%
%TO.N,N/C*%
X136762000Y-107998000D03*
D10*
X136762000Y-107998000D03*
%TD*%
%TO.P,REF\u002A\u002A,1*%
%TO.N,N/C*%
X136762000Y-88798000D03*
D11*
X136762000Y-88798000D03*
%TD*%
%TO.P,REF\u002A\u002A,1*%
%TO.N,N/C*%
X175262000Y-88978000D03*
D10*
X175262000Y-88978000D03*
%TD*%
%TO.P,J1,1*%
%TO.N,+3V3*%
%TA.AperFunction,SMDPad,CuDef*%
G36*
G01*
X143686000Y-101706000D02*
X142786000Y-101706000D01*
G75*
G02*
X142586000Y-101506000I0J200000D01*
G01*
X142586000Y-101106000D01*
G75*
G02*
X142786000Y-100906000I200000J0D01*
G01*
X143686000Y-100906000D01*
G75*
G02*
X143886000Y-101106000I0J-200000D01*
G01*
X143886000Y-101506000D01*
G75*
G02*
X143686000Y-101706000I-200000J0D01*
G01*
G37*
%TD.AperFunction*%
%TO.P,J1,2*%
%TO.N,TDO-TDI*%
%TA.AperFunction,SMDPad,CuDef*%
G36*
G01*
X143686000Y-100456000D02*
X142786000Y-100456000D01*
G75*
G02*
X142586000Y-100256000I0J200000D01*
G01*
X142586000Y-99856000D01*
G75*
G02*
X142786000Y-99656000I200000J0D01*
G01*
X143686000Y-99656000D01*
G75*
G02*
X143886000Y-99856000I0J-200000D01*
G01*
X143886000Y-100256000D01*
G75*
G02*
X143686000Y-100456000I-200000J0D01*
G01*
G37*
%TD.AperFunction*%
%TO.P,J1,3*%
%TO.N,TESTVPP*%
%TA.AperFunction,SMDPad,CuDef*%
G36*
G01*
X143686000Y-99206000D02*
X142786000Y-99206000D01*
G75*
G02*
X142586000Y-99006000I0J200000D01*
G01*
X142586000Y-98606000D01*
G75*
G02*
X142786000Y-98406000I200000J0D01*
G01*
X143686000Y-98406000D01*
G75*
G02*
X143886000Y-98606000I0J-200000D01*
G01*
X143886000Y-99006000D01*
G75*
G02*
X143686000Y-99206000I-200000J0D01*
G01*
G37*
%TD.AperFunction*%
%TO.P,J1,4*%
%TO.N,TCK*%
%TA.AperFunction,SMDPad,CuDef*%
G36*
G01*
X143686000Y-97956000D02*
X142786000Y-97956000D01*
G75*
G02*
X142586000Y-97756000I0J200000D01*
G01*
X142586000Y-97356000D01*
G75*
G02*
X142786000Y-97156000I200000J0D01*
G01*
X143686000Y-97156000D01*
G75*
G02*
X143886000Y-97356000I0J-200000D01*
G01*
X143886000Y-97756000D01*
G75*
G02*
X143686000Y-97956000I-200000J0D01*
G01*
G37*
%TD.AperFunction*%
%TO.P,J1,5*%
%TO.N,Rx*%
%TA.AperFunction,SMDPad,CuDef*%
G36*
G01*
X143686000Y-96706000D02*
X142786000Y-96706000D01*
G75*
G02*
X142586000Y-96506000I0J200000D01*
G01*
X142586000Y-96106000D01*
G75*
G02*
X142786000Y-95906000I200000J0D01*
G01*
X143686000Y-95906000D01*
G75*
G02*
X143886000Y-96106000I0J-200000D01*
G01*
X143886000Y-96506000D01*
G75*
G02*
X143686000Y-96706000I-200000J0D01*
G01*
G37*
%TD.AperFunction*%
%TO.P,J1,MP*%
%TO.N,N/C*%
%TA.AperFunction,SMDPad,CuDef*%
G36*
G01*
X141736000Y-104906000D02*
X139236000Y-104906000D01*
G75*
G02*
X138986000Y-104656000I0J250000D01*
G01*
X138986000Y-103056000D01*
G75*
G02*
X139236000Y-102806000I250000J0D01*
G01*
X141736000Y-102806000D01*
G75*
G02*
X141986000Y-103056000I0J-250000D01*
G01*
X141986000Y-104656000D01*
G75*
G02*
X141736000Y-104906000I-250000J0D01*
G01*
G37*
%TD.AperFunction*%
%TA.AperFunction,SMDPad,CuDef*%
G36*
G01*
X141736000Y-94806000D02*
X139236000Y-94806000D01*
G75*
G02*
X138986000Y-94556000I0J250000D01*
G01*
X138986000Y-92956000D01*
G75*
G02*
X139236000Y-92706000I250000J0D01*
G01*
X141736000Y-92706000D01*
G75*
G02*
X141986000Y-92956000I0J-250000D01*
G01*
X141986000Y-94556000D01*
G75*
G02*
X141736000Y-94806000I-250000J0D01*
G01*
G37*
%TD.AperFunction*%
%TD*%
D12*
%TO.N,+3V3*%
X147320000Y-102362000D03*
%TO.N,TDO-TDI*%
X148336000Y-102870000D03*
%TO.N,TESTVPP*%
X140970000Y-100330000D03*
%TO.N,TCK*%
X139954000Y-100330000D03*
%TO.N,Rx*%
X138953997Y-100330000D03*
%TO.N,GND*%
X154940000Y-100330000D03*
%TO.N,Tx*%
X150368000Y-94414000D03*
%TO.N,Net-(J2-Pad1)*%
X147574000Y-95758000D03*
%TO.N,Net-(J2-Pad2)*%
X148594653Y-94238653D03*
%TO.N,Net-(J2-Pad3)*%
X152929964Y-93689000D03*
%TD*%
D13*
%TO.N,*%
X152208750Y-93762999D02*
X152208749Y-93763000D01*
%TO.N,+3V3*%
X143256000Y-103124000D02*
X147320000Y-103124000D01*
X143236000Y-103104000D02*
X143256000Y-103124000D01*
X143236000Y-101306000D02*
X143236000Y-103104000D01*
X147320000Y-103124000D02*
X147320000Y-102907000D01*
X147320000Y-102907000D02*
X147320000Y-102362000D01*
%TO.N,TDO-TDI*%
X142586000Y-100056000D02*
X142566000Y-100076000D01*
X143236000Y-100056000D02*
X142586000Y-100056000D01*
X143236000Y-100056000D02*
X141752000Y-100056000D01*
X143127590Y-103632000D02*
X147574000Y-103632000D01*
X141752000Y-102256410D02*
X143127590Y-103632000D01*
X141752000Y-100056000D02*
X141752000Y-102256410D01*
X147574000Y-103632000D02*
X148336000Y-102870000D01*
%TO.N,TESTVPP*%
X143236000Y-98806000D02*
X140970000Y-98806000D01*
X140970000Y-98806000D02*
X140970000Y-100330000D01*
%TO.N,TCK*%
X143236000Y-97556000D02*
X140482000Y-97556000D01*
X140482000Y-97556000D02*
X140462000Y-97536000D01*
X140462000Y-97536000D02*
X139954000Y-97536000D01*
X139954000Y-97536000D02*
X139954000Y-100330000D01*
%TO.N,Rx*%
X143236000Y-96306000D02*
X139232000Y-96306000D01*
X138953997Y-96584003D02*
X138953997Y-100330000D01*
X139232000Y-96306000D02*
X138953997Y-96584003D01*
%TO.N,GND*%
X155916000Y-101306000D02*
X154940000Y-100330000D01*
X156738000Y-101306000D02*
X155916000Y-101306000D01*
%TO.N,Tx*%
X156738000Y-100056000D02*
X156174046Y-100056000D01*
X154236301Y-98204301D02*
X154236301Y-94546301D01*
X156088000Y-100056000D02*
X154236301Y-98204301D01*
X156738000Y-100056000D02*
X156088000Y-100056000D01*
X154104000Y-94414000D02*
X150368000Y-94414000D01*
X154236301Y-94546301D02*
X154104000Y-94414000D01*
%TO.N,Net-(J2-Pad1)*%
X147320000Y-95504000D02*
X147574000Y-95758000D01*
X156718000Y-92456000D02*
X147320000Y-92456000D01*
X156738000Y-92476000D02*
X156718000Y-92456000D01*
X147320000Y-92456000D02*
X147320000Y-95504000D01*
X156738000Y-96306000D02*
X156738000Y-92476000D01*
%TO.N,Net-(J2-Pad2)*%
X156738000Y-97556000D02*
X156088000Y-97556000D01*
X148590000Y-94234000D02*
X148594653Y-94238653D01*
X148590000Y-92964000D02*
X148590000Y-94234000D01*
X155702000Y-92964000D02*
X148590000Y-92964000D01*
X156595522Y-97556000D02*
X155702000Y-96662478D01*
X155702000Y-96662478D02*
X155702000Y-92964000D01*
X156738000Y-97556000D02*
X156595522Y-97556000D01*
%TO.N,Net-(J2-Pad3)*%
X156088000Y-98806000D02*
X154940000Y-97658000D01*
X156738000Y-98806000D02*
X156088000Y-98806000D01*
X154940000Y-97658000D02*
X154940000Y-93472000D01*
X154940000Y-93472000D02*
X153924000Y-93472000D01*
X153924000Y-93472000D02*
X152908000Y-93472000D01*
X152908000Y-93667036D02*
X152929964Y-93689000D01*
X152908000Y-93472000D02*
X152908000Y-93667036D01*
%TD*%
M02*
