%TF.GenerationSoftware,KiCad,Pcbnew,(5.1.12)-1*%
%TF.CreationDate,2023-04-24T20:04:47-05:00*%
%TF.ProjectId,Tag Connector,54616720-436f-46e6-9e65-63746f722e6b,rev?*%
%TF.SameCoordinates,Original*%
%TF.FileFunction,Paste,Bot*%
%TF.FilePolarity,Positive*%
%FSLAX46Y46*%
G04 Gerber Fmt 4.6, Leading zero omitted, Abs format (unit mm)*
G04 Created by KiCad (PCBNEW (5.1.12)-1) date 2023-04-24 20:04:47*
%MOMM*%
%LPD*%
G01*
G04 APERTURE LIST*
G04 APERTURE END LIST*
%TO.C,J2*%
G36*
G01*
X169805160Y-71193160D02*
X172305160Y-71193160D01*
G75*
G02*
X172555160Y-71443160I0J-250000D01*
G01*
X172555160Y-73043160D01*
G75*
G02*
X172305160Y-73293160I-250000J0D01*
G01*
X169805160Y-73293160D01*
G75*
G02*
X169555160Y-73043160I0J250000D01*
G01*
X169555160Y-71443160D01*
G75*
G02*
X169805160Y-71193160I250000J0D01*
G01*
G37*
G36*
G01*
X169805160Y-61093160D02*
X172305160Y-61093160D01*
G75*
G02*
X172555160Y-61343160I0J-250000D01*
G01*
X172555160Y-62943160D01*
G75*
G02*
X172305160Y-63193160I-250000J0D01*
G01*
X169805160Y-63193160D01*
G75*
G02*
X169555160Y-62943160I0J250000D01*
G01*
X169555160Y-61343160D01*
G75*
G02*
X169805160Y-61093160I250000J0D01*
G01*
G37*
G36*
G01*
X167855160Y-69293160D02*
X168755160Y-69293160D01*
G75*
G02*
X168955160Y-69493160I0J-200000D01*
G01*
X168955160Y-69893160D01*
G75*
G02*
X168755160Y-70093160I-200000J0D01*
G01*
X167855160Y-70093160D01*
G75*
G02*
X167655160Y-69893160I0J200000D01*
G01*
X167655160Y-69493160D01*
G75*
G02*
X167855160Y-69293160I200000J0D01*
G01*
G37*
G36*
G01*
X167855160Y-68043160D02*
X168755160Y-68043160D01*
G75*
G02*
X168955160Y-68243160I0J-200000D01*
G01*
X168955160Y-68643160D01*
G75*
G02*
X168755160Y-68843160I-200000J0D01*
G01*
X167855160Y-68843160D01*
G75*
G02*
X167655160Y-68643160I0J200000D01*
G01*
X167655160Y-68243160D01*
G75*
G02*
X167855160Y-68043160I200000J0D01*
G01*
G37*
G36*
G01*
X167855160Y-66793160D02*
X168755160Y-66793160D01*
G75*
G02*
X168955160Y-66993160I0J-200000D01*
G01*
X168955160Y-67393160D01*
G75*
G02*
X168755160Y-67593160I-200000J0D01*
G01*
X167855160Y-67593160D01*
G75*
G02*
X167655160Y-67393160I0J200000D01*
G01*
X167655160Y-66993160D01*
G75*
G02*
X167855160Y-66793160I200000J0D01*
G01*
G37*
G36*
G01*
X167855160Y-65543160D02*
X168755160Y-65543160D01*
G75*
G02*
X168955160Y-65743160I0J-200000D01*
G01*
X168955160Y-66143160D01*
G75*
G02*
X168755160Y-66343160I-200000J0D01*
G01*
X167855160Y-66343160D01*
G75*
G02*
X167655160Y-66143160I0J200000D01*
G01*
X167655160Y-65743160D01*
G75*
G02*
X167855160Y-65543160I200000J0D01*
G01*
G37*
G36*
G01*
X167855160Y-64293160D02*
X168755160Y-64293160D01*
G75*
G02*
X168955160Y-64493160I0J-200000D01*
G01*
X168955160Y-64893160D01*
G75*
G02*
X168755160Y-65093160I-200000J0D01*
G01*
X167855160Y-65093160D01*
G75*
G02*
X167655160Y-64893160I0J200000D01*
G01*
X167655160Y-64493160D01*
G75*
G02*
X167855160Y-64293160I200000J0D01*
G01*
G37*
%TD*%
%TO.C,J1*%
G36*
G01*
X155253160Y-70093160D02*
X154353160Y-70093160D01*
G75*
G02*
X154153160Y-69893160I0J200000D01*
G01*
X154153160Y-69493160D01*
G75*
G02*
X154353160Y-69293160I200000J0D01*
G01*
X155253160Y-69293160D01*
G75*
G02*
X155453160Y-69493160I0J-200000D01*
G01*
X155453160Y-69893160D01*
G75*
G02*
X155253160Y-70093160I-200000J0D01*
G01*
G37*
G36*
G01*
X155253160Y-68843160D02*
X154353160Y-68843160D01*
G75*
G02*
X154153160Y-68643160I0J200000D01*
G01*
X154153160Y-68243160D01*
G75*
G02*
X154353160Y-68043160I200000J0D01*
G01*
X155253160Y-68043160D01*
G75*
G02*
X155453160Y-68243160I0J-200000D01*
G01*
X155453160Y-68643160D01*
G75*
G02*
X155253160Y-68843160I-200000J0D01*
G01*
G37*
G36*
G01*
X155253160Y-67593160D02*
X154353160Y-67593160D01*
G75*
G02*
X154153160Y-67393160I0J200000D01*
G01*
X154153160Y-66993160D01*
G75*
G02*
X154353160Y-66793160I200000J0D01*
G01*
X155253160Y-66793160D01*
G75*
G02*
X155453160Y-66993160I0J-200000D01*
G01*
X155453160Y-67393160D01*
G75*
G02*
X155253160Y-67593160I-200000J0D01*
G01*
G37*
G36*
G01*
X155253160Y-66343160D02*
X154353160Y-66343160D01*
G75*
G02*
X154153160Y-66143160I0J200000D01*
G01*
X154153160Y-65743160D01*
G75*
G02*
X154353160Y-65543160I200000J0D01*
G01*
X155253160Y-65543160D01*
G75*
G02*
X155453160Y-65743160I0J-200000D01*
G01*
X155453160Y-66143160D01*
G75*
G02*
X155253160Y-66343160I-200000J0D01*
G01*
G37*
G36*
G01*
X155253160Y-65093160D02*
X154353160Y-65093160D01*
G75*
G02*
X154153160Y-64893160I0J200000D01*
G01*
X154153160Y-64493160D01*
G75*
G02*
X154353160Y-64293160I200000J0D01*
G01*
X155253160Y-64293160D01*
G75*
G02*
X155453160Y-64493160I0J-200000D01*
G01*
X155453160Y-64893160D01*
G75*
G02*
X155253160Y-65093160I-200000J0D01*
G01*
G37*
G36*
G01*
X153303160Y-73293160D02*
X150803160Y-73293160D01*
G75*
G02*
X150553160Y-73043160I0J250000D01*
G01*
X150553160Y-71443160D01*
G75*
G02*
X150803160Y-71193160I250000J0D01*
G01*
X153303160Y-71193160D01*
G75*
G02*
X153553160Y-71443160I0J-250000D01*
G01*
X153553160Y-73043160D01*
G75*
G02*
X153303160Y-73293160I-250000J0D01*
G01*
G37*
G36*
G01*
X153303160Y-63193160D02*
X150803160Y-63193160D01*
G75*
G02*
X150553160Y-62943160I0J250000D01*
G01*
X150553160Y-61343160D01*
G75*
G02*
X150803160Y-61093160I250000J0D01*
G01*
X153303160Y-61093160D01*
G75*
G02*
X153553160Y-61343160I0J-250000D01*
G01*
X153553160Y-62943160D01*
G75*
G02*
X153303160Y-63193160I-250000J0D01*
G01*
G37*
%TD*%
M02*
