%TF.GenerationSoftware,KiCad,Pcbnew,(5.1.10)-1*%
%TF.CreationDate,2022-11-30T08:24:14-06:00*%
%TF.ProjectId,flight_computer,666c6967-6874-45f6-936f-6d7075746572,A*%
%TF.SameCoordinates,Original*%
%TF.FileFunction,Soldermask,Bot*%
%TF.FilePolarity,Negative*%
%FSLAX46Y46*%
G04 Gerber Fmt 4.6, Leading zero omitted, Abs format (unit mm)*
G04 Created by KiCad (PCBNEW (5.1.10)-1) date 2022-11-30 08:24:14*
%MOMM*%
%LPD*%
G01*
G04 APERTURE LIST*
%ADD10C,1.400000*%
%ADD11R,1.700000X1.700000*%
%ADD12O,1.700000X1.700000*%
%ADD13C,1.100000*%
G04 APERTURE END LIST*
D10*
%TO.C,CLK*%
X125222000Y-133350000D03*
X122682000Y-133350000D03*
%TD*%
%TO.C,CURRENT*%
X161163000Y-130302000D03*
X163703000Y-130302000D03*
%TD*%
D11*
%TO.C,V-*%
X151257000Y-113665000D03*
%TD*%
%TO.C,V+*%
X151257000Y-121793000D03*
%TD*%
D12*
%TO.C,J6*%
X123444000Y-102108000D03*
X123444000Y-99568000D03*
D11*
X123444000Y-97028000D03*
%TD*%
D13*
%TO.C,J2*%
X186987500Y-111386000D03*
X186987500Y-110136000D03*
X186987500Y-108886000D03*
X186987500Y-107636000D03*
X186987500Y-106386000D03*
X186987500Y-105136000D03*
X186987500Y-103886000D03*
X186987500Y-102636000D03*
X186987500Y-101386000D03*
X186987500Y-100136000D03*
X186987500Y-98886000D03*
X186987500Y-97636000D03*
X186987500Y-96386000D03*
X185737500Y-111386000D03*
X185737500Y-110136000D03*
X185737500Y-108886000D03*
X185737500Y-107636000D03*
X185737500Y-106386000D03*
X185737500Y-105136000D03*
X185737500Y-103886000D03*
X185737500Y-102636000D03*
X185737500Y-101386000D03*
X185737500Y-100136000D03*
X185737500Y-98886000D03*
X185737500Y-97636000D03*
X185737500Y-96386000D03*
%TD*%
D12*
%TO.C,J4*%
X116890800Y-114795300D03*
X119430800Y-114795300D03*
X116890800Y-112255300D03*
X119430800Y-112255300D03*
X116890800Y-109715300D03*
X119430800Y-109715300D03*
X116890800Y-107175300D03*
X119430800Y-107175300D03*
X116890800Y-104635300D03*
X119430800Y-104635300D03*
X116890800Y-102095300D03*
X119430800Y-102095300D03*
X116890800Y-99555300D03*
X119430800Y-99555300D03*
X116890800Y-97015300D03*
D11*
X119430800Y-97015300D03*
%TD*%
D12*
%TO.C,J3*%
X116903500Y-74866500D03*
X116903500Y-77406500D03*
X116903500Y-79946500D03*
X116903500Y-82486500D03*
X116903500Y-85026500D03*
X116903500Y-87566500D03*
X116903500Y-90106500D03*
D11*
X116903500Y-92646500D03*
%TD*%
M02*
