M48
; DRILL file {KiCad (5.1.10)-1} date 12/01/22 06:34:23
; FORMAT={-:-/ absolute / inch / decimal}
; #@! TF.CreationDate,2022-12-01T06:34:23-06:00
; #@! TF.GenerationSoftware,Kicad,Pcbnew,(5.1.10)-1
; #@! TF.FileFunction,Plated,1,4,PTH
FMAT,2
INCH
T1C0.0100
T2C0.0236
T3C0.0315
T4C0.0394
%
G90
G05
T1
X4.57Y-2.8525
X4.635Y-2.8525
X4.736Y-4.948
X4.77Y-3.0925
X4.794Y-3.155
X4.8198Y-3.1515
X4.8275Y-2.7175
X4.8475Y-3.0924
X4.8575Y-3.235
X4.885Y-3.235
X4.89Y-2.7175
X4.9114Y-3.2354
X4.9381Y-3.2356
X4.9675Y-2.9775
X4.9675Y-3.11
X4.978Y-3.257
X4.99Y-4.465
X5.01Y-4.445
X5.03Y-3.0425
X5.0344Y-3.4594
X5.045Y-3.56
X5.06Y-3.2325
X5.06Y-5.218
X5.0751Y-3.4456
X5.0799Y-3.21
X5.08Y-2.87
X5.095Y-2.9775
X5.095Y-3.11
X5.0996Y-3.2375
X5.1025Y-2.815
X5.1116Y-3.4266
X5.1186Y-3.2114
X5.1445Y-3.486
X5.1525Y-4.305
X5.1625Y-3.34
X5.165Y-3.99
X5.1725Y-3.486
X5.18Y-5.09
X5.207Y-3.072
X5.215Y-4.0775
X5.226Y-3.091
X5.2325Y-5.1425
X5.2425Y-2.815
X5.245Y-3.0325
X5.265Y-3.0125
X5.284Y-3.1318
X5.285Y-4.882
X5.285Y-4.908
X5.285Y-4.934
X5.285Y-4.96
X5.285Y-4.986
X5.285Y-5.015
X5.3025Y-3.11
X5.315Y-3.99
X5.315Y-5.2225
X5.365Y-4.0775
X5.37Y-4.465
X5.4325Y-3.0825
X5.4375Y-4.535
X5.4575Y-5.1425
X5.465Y-3.99
X5.515Y-4.0775
X5.595Y-4.46
X5.605Y-3.0775
X5.615Y-3.99
X5.6175Y-2.92
X5.63Y-4.4475
X5.6625Y-4.0775
X5.6925Y-3.005
X5.6975Y-4.6975
X5.72Y-2.885
X5.72Y-4.49
X5.735Y-3.7825
X5.75Y-3.464
X5.765Y-3.99
X5.7675Y-3.29
X5.795Y-3.715
X5.7975Y-2.945
X5.8Y-3.2575
X5.8Y-4.925
X5.8125Y-4.0775
X5.8375Y-2.5725
X5.9Y-4.61
X5.9125Y-3.99
X5.96Y-4.0775
X5.9825Y-5.1425
X6.06Y-3.99
X6.0675Y-5.05
X6.07Y-4.48
X6.0875Y-4.675
X6.09Y-4.625
X6.1Y-4.815
X6.1075Y-4.0775
X6.14Y-4.545
X6.14Y-4.585
X6.16Y-4.815
X6.185Y-3.3875
X6.2075Y-3.99
X6.215Y-2.8275
X6.215Y-3.1325
X6.215Y-4.529
X6.215Y-4.555
X6.2155Y-4.5945
X6.2575Y-4.0775
X6.285Y-3.07
X6.2875Y-2.76
X6.445Y-4.955
X6.5075Y-3.085
X6.5075Y-3.295
X6.5075Y-3.505
X6.5075Y-3.715
X6.5075Y-3.925
X6.5075Y-4.135
X6.5075Y-4.345
X6.5075Y-4.555
X6.5075Y-4.765
X6.5075Y-4.975
X6.525Y-3.19
X6.525Y-3.4
X6.525Y-3.61
X6.525Y-3.82
X6.525Y-4.45
X6.525Y-4.66
X6.525Y-4.87
X6.525Y-5.0216
X6.535Y-2.98
X6.5525Y-4.0175
X6.555Y-4.225
X6.645Y-3.085
X6.645Y-3.295
X6.645Y-3.505
X6.645Y-3.715
X6.645Y-3.925
X6.645Y-4.135
X6.645Y-4.345
X6.645Y-4.555
X6.645Y-4.765
X6.645Y-4.975
X6.655Y-5.1
X6.7225Y-2.835
X6.73Y-2.98
X6.73Y-3.19
X6.73Y-3.4
X6.73Y-3.61
X6.73Y-3.82
X6.73Y-4.03
X6.73Y-4.24
X6.73Y-4.45
X6.73Y-4.66
X6.73Y-4.87
X6.825Y-5.08
X6.845Y-5.06
X6.9225Y-2.98
X6.9225Y-3.19
X6.9225Y-3.4
X6.9225Y-3.61
X6.9225Y-3.82
X6.9225Y-4.03
X6.9225Y-4.2375
X6.9225Y-4.4475
X6.9225Y-4.66
X6.9225Y-4.87
X6.9975Y-5.1925
X7.0139Y-2.7886
X7.095Y-2.695
X7.095Y-2.74
X7.145Y-5.16
X7.31Y-5.245
X7.33Y-5.16
X7.4Y-5.245
X7.66Y-4.865
X7.705Y-4.98
T2
X7.3125Y-3.7947
X7.3125Y-3.8439
X7.3125Y-3.8931
X7.3125Y-3.9424
X7.3125Y-3.9916
X7.3125Y-4.0408
X7.3125Y-4.09
X7.3125Y-4.1392
X7.3125Y-4.1884
X7.3125Y-4.2376
X7.3125Y-4.2869
X7.3125Y-4.3361
X7.3125Y-4.3853
X7.3617Y-3.7947
X7.3617Y-3.8439
X7.3617Y-3.8931
X7.3617Y-3.9424
X7.3617Y-3.9916
X7.3617Y-4.0408
X7.3617Y-4.09
X7.3617Y-4.1392
X7.3617Y-4.1884
X7.3617Y-4.2376
X7.3617Y-4.2869
X7.3617Y-4.3361
X7.3617Y-4.3853
T3
X4.83Y-5.25
X4.93Y-5.25
X6.345Y-5.13
X6.445Y-5.13
T4
X4.602Y-3.8195
X4.602Y-3.9195
X4.602Y-4.0195
X4.602Y-4.1195
X4.602Y-4.2195
X4.602Y-4.3195
X4.602Y-4.4195
X4.602Y-4.5195
X4.6025Y-2.9475
X4.6025Y-3.0475
X4.6025Y-3.1475
X4.6025Y-3.2475
X4.6025Y-3.3475
X4.6025Y-3.4475
X4.6025Y-3.5475
X4.6025Y-3.6475
X4.702Y-3.8195
X4.702Y-3.9195
X4.702Y-4.0195
X4.702Y-4.1195
X4.702Y-4.2195
X4.702Y-4.3195
X4.702Y-4.4195
X4.702Y-4.5195
X4.86Y-3.82
X4.86Y-3.92
X4.86Y-4.02
X5.955Y-4.475
X5.955Y-4.795
T0
M30
